# SSTK version 0.8.0
# 23
mtllib original-23.mtl
o mesh100/mesh100-geometry#mesh100-geometry
v -0.151263 -0.350363 -0.294958
v -0.130100 -0.334203 -0.220781
v -0.107083 -0.334203 -0.250777
v -0.184210 -0.350363 -0.252022
v -0.108327 -0.350363 -0.327905
v -0.157026 -0.355750 -0.300721
v -0.144569 -0.334203 -0.185849
v -0.077086 -0.334203 -0.273795
v -0.112402 -0.355750 -0.334963
v -0.191268 -0.355750 -0.256096
v -0.204921 -0.350363 -0.202021
v -0.058326 -0.350363 -0.348616
v -0.060435 -0.355750 -0.356488
v -0.157026 -0.355750 0.003994
v -0.112402 -0.355750 0.038236
v -0.149504 -0.334203 -0.148363
v -0.042155 -0.334203 -0.288264
v -0.060435 -0.355750 0.059761
v -0.191268 -0.355750 -0.040630
v -0.212793 -0.355750 -0.204130
v -0.211985 -0.350363 -0.148363
v -0.017240 -0.350363 -0.354025
v -0.004668 -0.355750 0.067103
v -0.151263 -0.350363 -0.001768
v -0.184210 -0.350363 -0.044705
v -0.212793 -0.355750 -0.092596
v -0.108327 -0.350363 0.031178
v -0.204921 -0.350363 -0.094706
v -0.010055 -0.334203 -0.292490
v -0.004668 -0.355750 -0.363830
v -0.058326 -0.350363 0.051889
v -0.220135 -0.355750 -0.148363
v -0.144569 -0.334203 -0.110877
v -0.004668 -0.334203 -0.293199
v -0.004668 -0.350363 -0.355680
v 0.051099 -0.355750 0.059761
v -0.004668 -0.350363 0.058953
v -0.107083 -0.334203 -0.045949
v -0.130100 -0.334203 -0.075945
v -0.077086 -0.334203 -0.022932
v 0.048989 -0.350363 -0.348616
v 0.051099 -0.355750 -0.356488
v 0.048989 -0.350363 0.051889
v -0.042155 -0.334203 -0.008463
v 0.000718 -0.334203 -0.292490
v 0.032818 -0.334203 -0.288264
v 0.103065 -0.355750 0.038236
v 0.098990 -0.350363 0.031178
v 0.032818 -0.334203 -0.008463
v -0.004668 -0.334203 -0.003528
v 0.098990 -0.350363 -0.327905
v 0.067749 -0.334203 -0.273795
v 0.103065 -0.355750 -0.334963
v 0.067749 -0.334203 -0.022932
v 0.147689 -0.355750 -0.300721
v 0.141927 -0.350363 -0.001768
v 0.097746 -0.334203 -0.045949
v 0.141927 -0.350363 -0.294958
v 0.097746 -0.334203 -0.250777
v 0.147689 -0.355750 0.003994
v 0.181931 -0.355750 -0.256096
v 0.174873 -0.350363 -0.252022
v 0.174873 -0.350363 -0.044705
v 0.120763 -0.334203 -0.075945
v 0.120763 -0.334203 -0.220781
v 0.181931 -0.355750 -0.040630
v 0.203456 -0.355750 -0.204130
v 0.195584 -0.350363 -0.202021
v 0.135232 -0.334203 -0.185849
v 0.195584 -0.350363 -0.094706
v 0.135232 -0.334203 -0.110877
v 0.203456 -0.355750 -0.092596
v 0.210798 -0.355750 -0.148363
v 0.202648 -0.350363 -0.148363
v 0.140167 -0.334203 -0.148363
vn -0.20026003419300198 0.9676171652138719 -0.1536650262372296
vn -0.1536650262372298 0.9676171652138716 -0.2002600341930017
vn -0.23320707729160128 0.9676173206964943 -0.09659803201539427
vn -0.09659803201539448 0.9676173206964943 -0.23320707729160106
vn -0.2502620878373784 0.9676173396158448 -0.032948011564144335
vn -0.03294801156414455 0.967617339615845 -0.2502620878373782
vn -0.2502620878373784 0.9676173396158448 0.032948011564144765
vn -0.1536650262372298 0.9676171652138716 0.20026003419300215
vn -0.20026003419300192 0.9676171652138716 0.15366502623723002
vn -0.23320707729160123 0.9676173206964941 0.09659803201539467
vn -0.09659803201539446 0.9676173206964941 0.23320707729160145
vn -0.03294801156414455 0.9676173396158447 0.25026208783737863
vn 0.03294801156414455 0.967617339615845 -0.2502620878373782
vn 0.03294801156414455 0.9676173396158447 0.25026208783737863
vn 0.09659803201539448 0.9676173206964943 -0.23320707729160106
vn 0.09659803201539446 0.9676173206964941 0.23320707729160145
vn 0.1536650262372298 0.9676171652138716 0.20026003419300215
vn 0.1536650262372298 0.9676171652138716 -0.2002600341930017
vn 0.20026003419300192 0.9676171652138716 0.15366502623723002
vn 0.20026003419300198 0.9676171652138719 -0.1536650262372296
vn 0.23320707729160128 0.9676173206964943 -0.09659803201539427
vn 0.23320707729160123 0.9676173206964941 0.09659803201539467
vn 0.2502620878373784 0.9676173396158448 -0.032948011564144335
vn 0.2502620878373784 0.9676173396158448 0.032948011564144765
vn 0.20026003419300198 -0.9676171652138719 0.1536650262372296
vn 0.1536650262372298 -0.9676171652138716 0.2002600341930017
vn 0.44007316937781443 -0.8320503202441653 0.3376801299682105
vn 0.23320707729160128 -0.9676173206964943 0.09659803201539427
vn 0.3376801299682107 -0.8320503202441653 0.44007316937781427
vn 0.09659803201539448 -0.9676173206964943 0.23320707729160106
vn 0.21227505002251532 -0.832050196072236 0.5124761207647557
vn 0 -1 0
vn 0 1 0
vn 0.5124761207647559 -0.8320501960722358 0.21227505002251512
vn 0.2502620878373784 -0.9676173396158448 0.032948011564144335
vn 0.03294801156414455 -0.967617339615845 0.2502620878373782
vn 0.07240300365874108 -0.8320500420459861 0.549955027790878
vn 0.3376801299682107 -0.832050320244165 -0.4400731693778146
vn 0.4400731693778145 -0.8320503202441651 -0.3376801299682109
vn 0.5499550277908782 -0.832050042045986 0.0724030036587409
vn 0.21227505002251526 -0.8320501960722355 -0.512476120764756
vn 0.2502620878373784 -0.9676173396158448 -0.032948011564144765
vn 0.07240300365874108 -0.8320500420459859 -0.5499550277908785
vn 0.5124761207647559 -0.8320501960722358 -0.2122750500225155
vn 0.5499550277908782 -0.832050042045986 -0.07240300365874126
vn 0.1536650262372298 -0.9676171652138716 -0.20026003419300215
vn 0.20026003419300192 -0.9676171652138716 -0.15366502623723002
vn 0.23320707729160123 -0.9676173206964941 -0.09659803201539467
vn 0.09659803201539446 -0.9676173206964941 -0.23320707729160145
vn -0.07240300365874108 -0.8320500420459861 0.549955027790878
vn -0.07240300365874108 -0.8320500420459859 -0.5499550277908785
vn 0.03294801156414455 -0.9676173396158447 -0.25026208783737863
vn -0.03294801156414455 -0.967617339615845 0.2502620878373782
vn -0.21227505002251526 -0.8320501960722355 -0.512476120764756
vn -0.03294801156414455 -0.9676173396158447 -0.25026208783737863
vn -0.21227505002251532 -0.832050196072236 0.5124761207647557
vn -0.09659803201539448 -0.9676173206964943 0.23320707729160106
vn -0.09659803201539446 -0.9676173206964941 -0.23320707729160145
vn -0.3376801299682107 -0.832050320244165 -0.4400731693778146
vn -0.1536650262372298 -0.9676171652138716 -0.20026003419300215
vn -0.3376801299682107 -0.8320503202441653 0.44007316937781427
vn -0.1536650262372298 -0.9676171652138716 0.2002600341930017
vn -0.44007316937781443 -0.8320503202441653 0.3376801299682105
vn -0.4400731693778145 -0.8320503202441651 -0.3376801299682109
vn -0.20026003419300192 -0.9676171652138716 -0.15366502623723002
vn -0.20026003419300198 -0.9676171652138719 0.1536650262372296
vn -0.5124761207647559 -0.8320501960722358 0.21227505002251512
vn -0.23320707729160128 -0.9676173206964943 0.09659803201539427
vn -0.5124761207647559 -0.8320501960722358 -0.2122750500225155
vn -0.23320707729160123 -0.9676173206964941 -0.09659803201539467
vn -0.5499550277908782 -0.832050042045986 0.0724030036587409
vn -0.2502620878373784 -0.9676173396158448 0.032948011564144335
vn -0.5499550277908782 -0.832050042045986 -0.07240300365874126
vn -0.2502620878373784 -0.9676173396158448 -0.032948011564144765
vn -0.44007316937781443 0.8320503202441653 -0.3376801299682105
vn -0.3376801299682107 0.8320503202441653 -0.44007316937781427
vn -0.21227505002251532 0.832050196072236 -0.5124761207647557
vn -0.5124761207647559 0.8320501960722358 -0.21227505002251512
vn -0.07240300365874108 0.8320500420459861 -0.549955027790878
vn -0.3376801299682107 0.832050320244165 0.4400731693778146
vn -0.4400731693778145 0.8320503202441651 0.3376801299682109
vn -0.5499550277908782 0.832050042045986 -0.0724030036587409
vn -0.21227505002251526 0.8320501960722355 0.512476120764756
vn -0.07240300365874108 0.8320500420459859 0.5499550277908785
vn -0.5124761207647559 0.8320501960722358 0.2122750500225155
vn -0.5499550277908782 0.832050042045986 0.07240300365874126
vn 0.07240300365874108 0.8320500420459861 -0.549955027790878
vn 0.07240300365874108 0.8320500420459859 0.5499550277908785
vn 0.21227505002251526 0.8320501960722355 0.512476120764756
vn 0.21227505002251532 0.832050196072236 -0.5124761207647557
vn 0.3376801299682107 0.832050320244165 0.4400731693778146
vn 0.3376801299682107 0.8320503202441653 -0.44007316937781427
vn 0.44007316937781443 0.8320503202441653 -0.3376801299682105
vn 0.4400731693778145 0.8320503202441651 0.3376801299682109
vn 0.5124761207647559 0.8320501960722358 -0.21227505002251512
vn 0.5124761207647559 0.8320501960722358 0.2122750500225155
vn 0.5499550277908782 0.832050042045986 -0.0724030036587409
vn 0.5499550277908782 0.832050042045986 0.07240300365874126
usemtl material_0_0
f 1//1 2//1 3//1
f 2//1 1//1 4//1
f 3//2 5//2 1//2
f 4//3 7//3 2//3
f 5//2 3//2 8//2
f 7//3 4//3 11//3
f 8//4 12//4 5//4
f 11//5 16//5 7//5
f 12//4 8//4 17//4
f 16//5 11//5 21//5
f 17//6 22//6 12//6
f 28//7 16//7 21//7
f 29//6 22//6 17//6
f 16//7 28//7 33//7
f 22//6 29//6 34//6
f 27//8 38//8 24//8
f 24//9 39//9 25//9
f 25//10 33//10 28//10
f 31//11 40//11 27//11
f 22//6 34//6 35//6
f 37//12 44//12 31//12
f 38//8 27//8 40//8
f 39//9 24//9 38//9
f 33//10 25//10 39//10
f 40//11 31//11 44//11
f 34//13 45//13 35//13
f 35//13 46//13 41//13
f 49//14 37//14 43//14
f 44//12 37//12 50//12
f 46//13 35//13 45//13
f 52//15 41//15 46//15
f 54//16 43//16 48//16
f 37//14 49//14 50//14
f 43//16 54//16 49//16
f 41//15 52//15 51//15
f 48//17 57//17 54//17
f 59//18 51//18 52//18
f 57//17 48//17 56//17
f 51//18 59//18 58//18
f 56//19 64//19 57//19
f 65//20 58//20 59//20
f 58//20 65//20 62//20
f 64//19 56//19 63//19
f 69//21 62//21 65//21
f 63//22 71//22 64//22
f 62//21 69//21 68//21
f 71//22 63//22 70//22
f 75//23 68//23 69//23
f 70//24 75//24 71//24
f 68//23 75//23 74//23
f 75//24 70//24 74//24
usemtl material_1_0
f 3//25 2//25 1//25
f 4//25 1//25 2//25
f 1//26 5//26 3//26
f 1//27 4//27 6//27
f 2//28 7//28 4//28
f 8//26 3//26 5//26
f 5//29 1//29 9//29
f 10//27 6//27 4//27
f 6//29 9//29 1//29
f 11//28 4//28 7//28
f 5//30 12//30 8//30
f 9//31 13//31 5//31
f 6//32 14//32 10//32
f 10//33 14//33 6//33
f 4//34 11//34 10//34
f 9//32 15//32 6//32
f 6//33 15//33 9//33
f 7//35 16//35 11//35
f 17//30 8//30 12//30
f 12//31 5//31 13//31
f 13//32 18//32 9//32
f 9//33 18//33 13//33
f 6//32 15//32 14//32
f 14//33 15//33 6//33
f 10//32 14//32 19//32
f 19//33 14//33 10//33
f 20//34 10//34 11//34
f 9//32 18//32 15//32
f 15//33 18//33 9//33
f 21//35 11//35 16//35
f 12//36 22//36 17//36
f 12//37 13//37 22//37
f 13//32 23//32 18//32
f 18//33 23//33 13//33
f 14//38 24//38 15//38
f 19//39 25//39 14//39
f 10//32 19//32 26//32
f 26//33 19//33 10//33
f 10//32 26//32 20//32
f 20//33 26//33 10//33
f 11//40 21//40 20//40
f 15//41 27//41 18//41
f 21//42 16//42 28//42
f 17//36 22//36 29//36
f 13//37 30//37 22//37
f 30//32 23//32 13//32
f 13//33 23//33 30//33
f 18//43 31//43 23//43
f 27//38 15//38 24//38
f 24//39 14//39 25//39
f 25//44 19//44 28//44
f 26//44 28//44 19//44
f 20//32 26//32 32//32
f 32//33 26//33 20//33
f 32//40 20//40 21//40
f 31//41 18//41 27//41
f 33//42 28//42 16//42
f 28//45 26//45 21//45
f 34//36 29//36 22//36
f 35//37 22//37 30//37
f 30//32 36//32 23//32
f 23//33 36//33 30//33
f 37//43 23//43 31//43
f 24//46 38//46 27//46
f 25//47 39//47 24//47
f 28//48 33//48 25//48
f 32//45 21//45 26//45
f 27//49 40//49 31//49
f 35//36 34//36 22//36
f 35//50 30//50 41//50
f 42//32 36//32 30//32
f 30//33 36//33 42//33
f 36//51 23//51 43//51
f 37//51 43//51 23//51
f 31//52 44//52 37//52
f 40//46 27//46 38//46
f 38//47 24//47 39//47
f 39//48 25//48 33//48
f 44//49 31//49 40//49
f 35//53 45//53 34//53
f 42//50 41//50 30//50
f 41//53 46//53 35//53
f 42//32 47//32 36//32
f 36//33 47//33 42//33
f 43//54 48//54 36//54
f 43//55 37//55 49//55
f 50//52 37//52 44//52
f 45//53 35//53 46//53
f 41//56 42//56 51//56
f 46//57 41//57 52//57
f 53//32 47//32 42//32
f 42//33 47//33 53//33
f 47//54 36//54 48//54
f 48//58 43//58 54//58
f 50//55 49//55 37//55
f 49//58 54//58 43//58
f 53//56 51//56 42//56
f 51//57 52//57 41//57
f 55//32 47//32 53//32
f 53//33 47//33 55//33
f 48//59 56//59 47//59
f 54//60 57//60 48//60
f 51//61 53//61 58//61
f 52//62 51//62 59//62
f 55//32 60//32 47//32
f 47//33 60//33 55//33
f 55//61 58//61 53//61
f 60//59 47//59 56//59
f 56//60 48//60 57//60
f 58//62 59//62 51//62
f 61//32 60//32 55//32
f 55//33 60//33 61//33
f 58//63 55//63 62//63
f 56//64 63//64 60//64
f 57//65 64//65 56//65
f 59//66 58//66 65//66
f 61//32 66//32 60//32
f 60//33 66//33 61//33
f 61//63 62//63 55//63
f 62//66 65//66 58//66
f 66//64 60//64 63//64
f 63//65 56//65 64//65
f 67//32 66//32 61//32
f 61//33 66//33 67//33
f 62//67 61//67 68//67
f 65//68 62//68 69//68
f 63//69 70//69 66//69
f 64//70 71//70 63//70
f 67//32 72//32 66//32
f 66//33 72//33 67//33
f 67//67 68//67 61//67
f 68//68 69//68 62//68
f 72//69 66//69 70//69
f 70//70 63//70 71//70
f 72//32 67//32 73//32
f 73//33 67//33 72//33
f 68//71 67//71 74//71
f 69//72 68//72 75//72
f 70//73 74//73 72//73
f 71//74 75//74 70//74
f 73//71 74//71 67//71
f 73//73 72//73 74//73
f 74//72 75//72 68//72
f 74//74 70//74 75//74
usemtl material_2_0
f 6//75 4//75 1//75
f 9//76 1//76 5//76
f 4//75 6//75 10//75
f 1//76 9//76 6//76
f 5//77 13//77 9//77
f 10//78 11//78 4//78
f 13//77 5//77 12//77
f 11//78 10//78 20//78
f 22//79 13//79 12//79
f 15//80 24//80 14//80
f 14//81 25//81 19//81
f 20//82 21//82 11//82
f 18//83 27//83 15//83
f 22//79 30//79 13//79
f 23//84 31//84 18//84
f 24//80 15//80 27//80
f 25//81 14//81 24//81
f 28//85 19//85 25//85
f 19//85 28//85 26//85
f 21//82 20//82 32//82
f 27//83 18//83 31//83
f 21//86 26//86 28//86
f 30//79 22//79 35//79
f 31//84 23//84 37//84
f 26//86 21//86 32//86
f 41//87 30//87 35//87
f 43//88 23//88 36//88
f 23//88 43//88 37//88
f 30//87 41//87 42//87
f 36//89 48//89 43//89
f 51//90 42//90 41//90
f 48//89 36//89 47//89
f 42//90 51//90 53//90
f 47//91 56//91 48//91
f 58//92 53//92 51//92
f 53//92 58//92 55//92
f 56//91 47//91 60//91
f 62//93 55//93 58//93
f 60//94 63//94 56//94
f 55//93 62//93 61//93
f 63//94 60//94 66//94
f 68//95 61//95 62//95
f 66//96 70//96 63//96
f 61//95 68//95 67//95
f 70//96 66//96 72//96
f 74//97 67//97 68//97
f 72//98 74//98 70//98
f 67//97 74//97 73//97
f 74//98 72//98 73//98
