# SSTK version 0.8.0
# 115
mtllib original-115.mtl
o mesh157/mesh157-geometry#mesh157-geometry
v 0.007158 -0.585331 -0.058560
v 0.017415 -0.576464 -0.065271
v 0.007158 -0.575434 -0.059426
v 0.017415 -0.585331 -0.064495
v 0.017415 -0.567867 -0.067574
v -0.007667 -0.585331 -0.057607
v 0.007158 -0.595228 -0.059426
v 0.007158 -0.565836 -0.061998
v -0.007667 -0.575268 -0.058487
v -0.007667 -0.595394 -0.058487
v 0.017415 -0.594198 -0.065271
v 0.017415 -0.559799 -0.071336
v 0.007158 -0.604826 -0.061998
v -0.007667 -0.605152 -0.061102
v 0.007158 -0.556832 -0.066196
v -0.007667 -0.565510 -0.061102
v 0.017415 -0.602795 -0.067574
v 0.017415 -0.552508 -0.076442
v 0.007158 -0.613830 -0.066196
v -0.007667 -0.614307 -0.065370
v 0.007158 -0.548693 -0.071895
v -0.007667 -0.556355 -0.065370
v 0.017415 -0.610863 -0.071336
v 0.007158 -0.541668 -0.078920
v 0.007158 -0.621969 -0.071895
v -0.007667 -0.622582 -0.071165
v 0.017415 -0.546215 -0.082735
v -0.007667 -0.540938 -0.078307
v -0.007667 -0.548080 -0.071165
v 0.017415 -0.618154 -0.076442
v 0.007158 -0.535969 -0.087059
v -0.007667 -0.535143 -0.086583
v 0.007158 -0.628994 -0.078920
v -0.007667 -0.629724 -0.078307
v 0.017415 -0.541109 -0.090026
v 0.017415 -0.624447 -0.082735
v 0.007158 -0.531771 -0.096064
v -0.007667 -0.530875 -0.095737
v 0.007158 -0.634693 -0.087059
v -0.007667 -0.635519 -0.086583
v 0.017415 -0.537347 -0.098094
v 0.017415 -0.629553 -0.090026
v 0.007158 -0.529199 -0.105661
v -0.007667 -0.528260 -0.105495
v 0.007158 -0.638891 -0.096063
v -0.007667 -0.639788 -0.095737
v 0.017415 -0.535044 -0.106691
v 0.017415 -0.633315 -0.098094
v 0.007158 -0.528333 -0.115558
v -0.007667 -0.527379 -0.115558
v 0.017415 -0.635618 -0.106691
v 0.007121 -0.672891 -0.096530
v 0.017415 -0.534268 -0.115558
v 0.013738 -0.639236 -0.105877
v -0.007704 -0.672893 -0.096204
v 0.017415 -0.535044 -0.124425
v 0.007158 -0.529199 -0.125456
v 0.014924 -0.639180 -0.115558
v -0.007704 -0.672893 -0.135845
v 0.013702 -0.672893 -0.106343
v -0.007667 -0.528260 -0.125621
v 0.017415 -0.636394 -0.115558
v -0.007667 -0.642402 -0.105495
v 0.007121 -0.672891 -0.135519
v 0.014888 -0.672894 -0.116024
v 0.017415 -0.537347 -0.133022
v 0.007158 -0.531771 -0.135053
v 0.017415 -0.635618 -0.124425
v -0.007667 -0.643283 -0.115558
v 0.014346 -0.672893 -0.125647
v -0.007667 -0.639788 -0.135379
v -0.007667 -0.530875 -0.135379
v 0.014382 -0.638904 -0.125181
v -0.007667 -0.642402 -0.125621
v 0.007158 -0.638891 -0.135053
v 0.017415 -0.541109 -0.141090
v 0.007158 -0.535969 -0.144057
v 0.017415 -0.633315 -0.133022
v 0.007158 -0.634693 -0.144057
v -0.007667 -0.535143 -0.144534
v -0.007667 -0.635519 -0.144534
v 0.017415 -0.629553 -0.141090
v 0.017415 -0.546215 -0.148381
v 0.007158 -0.541668 -0.152196
v 0.007158 -0.628994 -0.152196
v 0.017415 -0.624447 -0.148381
v -0.007667 -0.540938 -0.152809
v -0.007667 -0.629724 -0.152809
v 0.007158 -0.548693 -0.159221
v 0.007158 -0.621969 -0.159221
v 0.017415 -0.618154 -0.154674
v 0.017415 -0.552508 -0.154674
v -0.007667 -0.548080 -0.159951
v -0.007667 -0.622582 -0.159951
v 0.007158 -0.556832 -0.164920
v -0.007667 -0.556355 -0.165746
v 0.007158 -0.613830 -0.164920
v 0.017415 -0.610863 -0.159780
v 0.017415 -0.559799 -0.159780
v -0.007667 -0.614307 -0.165746
v 0.007158 -0.565836 -0.169118
v -0.007667 -0.565510 -0.170015
v 0.007158 -0.604826 -0.169118
v 0.017415 -0.602795 -0.163542
v 0.017415 -0.567867 -0.163542
v -0.007667 -0.605152 -0.170015
v 0.007158 -0.575434 -0.171690
v -0.007667 -0.575268 -0.172629
v 0.007158 -0.595228 -0.171690
v 0.017415 -0.594198 -0.165846
v 0.017415 -0.576464 -0.165846
v -0.007667 -0.595394 -0.172629
v 0.007158 -0.585331 -0.172556
v -0.007667 -0.585331 -0.173510
v 0.017415 -0.585331 -0.166621
vn 0.4993730868035345 0.075511013125703 0.8630901500266585
vn 0.4993728063110538 0.22423791302609083 0.8368656754095762
vn 0.06395999302487532 0.08697799051465925 0.9941548915829412
vn 0.49937312451146326 -0.07551001882733065 0.8630902151990572
vn 0.06395999858795513 -0.08697699807980883 0.9941549780520409
vn 0.49937278329547996 0.3661528411067275 0.7852126592542923
vn 0.06395900934102211 0.2582890377223418 0.9639481407817443
vn 0.49937291828911423 -0.2242369633087814 0.8368658630661606
vn 0.06396000525031716 -0.2582890212023009 0.9639480791280913
vn 0.4993722216429141 0.4969392205630434 0.7097033149969182
vn 0.06395898047649222 0.4217538712594396 0.9044517239157013
vn 0.4993731489882509 -0.3661511092413828 0.785213234268796
vn 0.06396000336068253 -0.4217530221603805 0.9044520475230774
vn 0.4993717558901667 0.6126297005258461 0.6126277005268238
vn 0.06395899427854843 0.572401948795786 0.8174749268727837
vn 0.4993739710540383 -0.4969379711952398 0.709702958862424
vn 0.06395999018761085 -0.5724019121852536 0.8174748745875104
vn 0.06395899992826998 0.7056589992086034 0.7056589992086034
vn 0.4993719734850967 0.7097029623172576 0.4969399736142274
vn 0.06395796175961006 0.8174745112329532 0.5724026577611256
vn 0.49937386900276576 -0.612628839293386 0.6126268392939107
vn 0.06395999583735569 -0.7056599540742404 0.7056579540743706
vn 0.49937197982287557 0.7852149682733899 0.36614898520575057
vn 0.0639579806694388 0.9044527266396059 0.421751872530366
vn 0.49937418355075774 -0.709701260858908 0.49694018265611256
vn 0.06396096516005602 -0.8174735547169625 0.5724036882080753
vn 0.49937205568398235 0.8368660933172696 0.2242380250043351
vn 0.06395700100243006 0.9639480151084393 0.25829000404830843
vn 0.4993731489882509 -0.785213234268796 0.3661511092413828
vn 0.06396099926975728 -0.9044519896738717 0.4217529951848461
vn 0.4993719051727798 0.8630908361051075 0.07551098566099375
vn 0.06395800676937975 0.9941551052223762 0.08697700920573412
vn 0.4626469486228278 -0.8563339049036971 0.2294559745188007
vn 0.022417998028023307 -0.01390999877642092 0.9996519120666231
vn 0.6313173959816502 -0.6346633980803654 0.4456912795512519
vn 0.8304340528496552 -0.008569000545339782 0.5570510354512861
vn 0.4993710791276009 0.8630911367606854 -0.07551301196537749
vn 0.06395799564350128 0.9941549322831393 -0.08697899407542603
vn 0.6560462404554243 -0.7508942752193218 0.07590202781976813
vn -0.9999993375983334 0.0011510003885760703 0.000001000000337598671
vn 0.00008299999971406499 -0.9999999965549999 -9.999999965549999e-7
vn 0.9925814968903441 -0.0027539986040810813 0.12154993838999834
vn 0.6785572876564413 -0.7317523102070662 0.06402002713959971
vn 0.499370887148684 0.8368668108790013 -0.2242379493251442
vn 0.06395801343153601 0.9639482024344456 -0.25828905424212767
vn 0.6785572442148317 -0.7317522633598821 -0.0640210230413624
vn 0.021577001831736494 0.013862001176786917 -0.9996710848650809
vn 0.9984155453416323 -0.00029799986429685264 -0.0562699743757849
vn 0.687116235867805 -0.7241162485688756 -0.05938802038624804
vn 0.8069717045979744 0.0072349973515392655 -0.5905457838233736
vn 0.4993712556187232 0.7852144019364362 -0.366151187425884
vn 0.06395803851643782 0.9044525446741488 -0.42175225398518845
vn 0.6914980017546761 -0.6977640017705761 -0.1869650004744237
vn 0.06396096839580599 -0.9044525530947282 -0.42175179160532156
vn 0.46365822618042 -0.8180113990399639 -0.3404091660574186
vn 0.4993727568739408 -0.7852136177086355 -0.36615082173475594
vn 0.4993711166086624 0.7097041657237487 -0.49693911604076346
vn 0.06395799836929493 0.8174749791572495 -0.572401985405753
vn 0.06395999018761085 -0.8174748745875104 -0.5724019121852536
vn 0.4993730785181832 -0.7097021115889558 -0.49694007813563396
vn 0.4993717558906662 0.6126287005269476 -0.6126287005269476
vn 0.06395800401892922 0.7056590443414987 -0.7056590443414987
vn 0.06395999583741965 -0.7056589540750111 -0.7056589540750111
vn 0.4993731183771608 -0.612628145224438 -0.612628145224438
vn 0.4993719734850967 0.4969399736142274 -0.7097029623172576
vn 0.06395803497897869 0.5724013130492257 -0.8174754470815315
vn 0.06395803497897869 -0.5724013130492257 -0.8174754470815315
vn 0.4993729722700694 -0.49693897240522816 -0.7097029605905505
vn 0.49937107277310205 0.3661520533591595 -0.7852141144288685
vn 0.06395798456745186 0.42175389823417064 -0.904451781763047
vn 0.06395801154195975 -0.4217530761101997 -0.9044521632188088
vn 0.4993720062468942 -0.3661510045803661 -0.7852140098226348
vn 0.499370887148684 0.2242379493251442 -0.8368668108790013
vn 0.06395802995116869 0.2582881209548056 -0.9639484514113817
vn 0.06395801343153601 -0.25828905424212767 -0.9639482024344456
vn 0.49937216766198633 -0.2242370752866016 -0.8368662809741352
vn 0.49937186746447676 0.07551197995878337 -0.8630907709318559
vn 0.06395800120647177 0.08697800164070955 -0.9941550187532434
vn 0.06395800120647177 -0.08697800164070955 -0.9941550187532434
vn 0.499371942880592 -0.07550999136297891 -0.8630909012775108
vn -0.4993730868035345 -0.075511013125703 -0.8630901500266585
vn -0.4993728063110538 -0.22423791302609083 -0.8368656754095762
vn -0.06395999302487532 -0.08697799051465925 -0.9941548915829412
vn -0.49937312451146326 0.07551001882733065 -0.8630902151990572
vn -0.06395999858795513 0.08697699807980883 -0.9941549780520409
vn -0.49937278329547996 -0.3661528411067275 -0.7852126592542923
vn -0.06395900934102211 -0.2582890377223418 -0.9639481407817443
vn -0.49937291828911423 0.2242369633087814 -0.8368658630661606
vn -0.06396000525031716 0.2582890212023009 -0.9639480791280913
vn -0.4993722216429141 -0.4969392205630434 -0.7097033149969182
vn -0.06395898047649222 -0.4217538712594396 -0.9044517239157013
vn -0.4993731489882509 0.3661511092413828 -0.785213234268796
vn -0.06396000336068253 0.4217530221603805 -0.9044520475230774
vn -0.4993717558901667 -0.6126297005258461 -0.6126277005268238
vn -0.06395899427854843 -0.572401948795786 -0.8174749268727837
vn -0.4993739710540383 0.4969379711952398 -0.709702958862424
vn -0.06395999018761085 0.5724019121852536 -0.8174748745875104
vn -0.06395899992826998 -0.7056589992086034 -0.7056589992086034
vn -0.4993719734850967 -0.7097029623172576 -0.4969399736142274
vn -0.06395796175961006 -0.8174745112329532 -0.5724026577611256
vn -0.49937386900276576 0.612628839293386 -0.6126268392939107
vn -0.06395999583735569 0.7056599540742404 -0.7056579540743706
vn -0.49937197982287557 -0.7852149682733899 -0.36614898520575057
vn -0.0639579806694388 -0.9044527266396059 -0.421751872530366
vn -0.49937418355075774 0.709701260858908 -0.49694018265611256
vn -0.06396096516005602 0.8174735547169625 -0.5724036882080753
vn -0.49937205568398235 -0.8368660933172696 -0.2242380250043351
vn -0.06395700100243006 -0.9639480151084393 -0.25829000404830843
vn -0.4993731489882509 0.785213234268796 -0.3661511092413828
vn -0.06396099926975728 0.9044519896738717 -0.4217529951848461
vn -0.4993719051727798 -0.8630908361051075 -0.07551098566099375
vn -0.06395800676937975 -0.9941551052223762 -0.08697700920573412
vn -0.4626469486228278 0.8563339049036971 -0.2294559745188007
vn -0.022417998028023307 0.01390999877642092 -0.9996519120666231
vn -0.6313173959816502 0.6346633980803654 -0.4456912795512519
vn -0.8304340528496552 0.008569000545339782 -0.5570510354512861
vn -0.4993710791276009 -0.8630911367606854 0.07551301196537749
vn -0.06395799564350128 -0.9941549322831393 0.08697899407542603
vn -0.6560462404554243 0.7508942752193218 -0.07590202781976813
vn 0.9999993375983334 -0.0011510003885760703 -0.000001000000337598671
vn -0.00008299999971406499 0.9999999965549999 9.999999965549999e-7
vn -0.9925814968903441 0.0027539986040810813 -0.12154993838999834
vn -0.6785572876564413 0.7317523102070662 -0.06402002713959971
vn -0.499370887148684 -0.8368668108790013 0.2242379493251442
vn -0.06395801343153601 -0.9639482024344456 0.25828905424212767
vn -0.6785572442148317 0.7317522633598821 0.0640210230413624
vn -0.021577001831736494 -0.013862001176786917 0.9996710848650809
vn -0.9984155453416323 0.00029799986429685264 0.0562699743757849
vn -0.687116235867805 0.7241162485688756 0.05938802038624804
vn -0.8069717045979744 -0.0072349973515392655 0.5905457838233736
vn -0.4993712556187232 -0.7852144019364362 0.366151187425884
vn -0.06395803851643782 -0.9044525446741488 0.42175225398518845
vn -0.6914980017546761 0.6977640017705761 0.1869650004744237
vn -0.06396096839580599 0.9044525530947282 0.42175179160532156
vn -0.46365822618042 0.8180113990399639 0.3404091660574186
vn -0.4993727568739408 0.7852136177086355 0.36615082173475594
vn -0.4993711166086624 -0.7097041657237487 0.49693911604076346
vn -0.06395799836929493 -0.8174749791572495 0.572401985405753
vn -0.06395999018761085 0.8174748745875104 0.5724019121852536
vn -0.4993730785181832 0.7097021115889558 0.49694007813563396
vn -0.4993717558906662 -0.6126287005269476 0.6126287005269476
vn -0.06395800401892922 -0.7056590443414987 0.7056590443414987
vn -0.06395999583741965 0.7056589540750111 0.7056589540750111
vn -0.4993731183771608 0.612628145224438 0.612628145224438
vn -0.4993719734850967 -0.4969399736142274 0.7097029623172576
vn -0.06395803497897869 -0.5724013130492257 0.8174754470815315
vn -0.06395803497897869 0.5724013130492257 0.8174754470815315
vn -0.4993729722700694 0.49693897240522816 0.7097029605905505
vn -0.49937107277310205 -0.3661520533591595 0.7852141144288685
vn -0.06395798456745186 -0.42175389823417064 0.904451781763047
vn -0.06395801154195975 0.4217530761101997 0.9044521632188088
vn -0.4993720062468942 0.3661510045803661 0.7852140098226348
vn -0.499370887148684 -0.2242379493251442 0.8368668108790013
vn -0.06395802995116869 -0.2582881209548056 0.9639484514113817
vn -0.06395801343153601 0.25828905424212767 0.9639482024344456
vn -0.49937216766198633 0.2242370752866016 0.8368662809741352
vn -0.49937186746447676 -0.07551197995878337 0.8630907709318559
vn -0.06395800120647177 -0.08697800164070955 0.9941550187532434
vn -0.06395800120647177 0.08697800164070955 0.9941550187532434
vn -0.499371942880592 0.07550999136297891 0.8630909012775108
usemtl material_0_0
f 1//1 2//1 3//1
f 2//1 1//1 4//1
f 5//2 3//2 2//2
f 3//3 6//3 1//3
f 7//4 4//4 1//4
f 3//2 5//2 8//2
f 6//3 3//3 9//3
f 10//5 1//5 6//5
f 4//4 7//4 11//4
f 1//5 10//5 7//5
f 12//6 8//6 5//6
f 8//7 9//7 3//7
f 13//8 11//8 7//8
f 14//9 7//9 10//9
f 8//6 12//6 15//6
f 9//7 8//7 16//7
f 11//8 13//8 17//8
f 7//9 14//9 13//9
f 18//10 15//10 12//10
f 15//11 16//11 8//11
f 19//12 17//12 13//12
f 20//13 13//13 14//13
f 15//10 18//10 21//10
f 16//11 15//11 22//11
f 17//12 19//12 23//12
f 13//13 20//13 19//13
f 18//14 24//14 21//14
f 21//15 22//15 15//15
f 25//16 23//16 19//16
f 26//17 19//17 20//17
f 24//14 18//14 27//14
f 28//18 21//18 24//18
f 22//15 21//15 29//15
f 23//16 25//16 30//16
f 19//17 26//17 25//17
f 27//19 31//19 24//19
f 21//18 28//18 29//18
f 24//20 32//20 28//20
f 33//21 30//21 25//21
f 34//22 25//22 26//22
f 31//19 27//19 35//19
f 32//20 24//20 31//20
f 30//21 33//21 36//21
f 25//22 34//22 33//22
f 35//23 37//23 31//23
f 31//24 38//24 32//24
f 39//25 36//25 33//25
f 40//26 33//26 34//26
f 37//23 35//23 41//23
f 38//24 31//24 37//24
f 36//25 39//25 42//25
f 33//26 40//26 39//26
f 41//27 43//27 37//27
f 37//28 44//28 38//28
f 45//29 42//29 39//29
f 46//30 39//30 40//30
f 43//27 41//27 47//27
f 44//28 37//28 43//28
f 42//29 45//29 48//29
f 39//30 46//30 45//30
f 47//31 49//31 43//31
f 43//32 50//32 44//32
f 45//33 51//33 48//33
f 46//34 52//34 45//34
f 49//31 47//31 53//31
f 50//32 43//32 49//32
f 45//35 54//35 51//35
f 52//34 46//34 55//34
f 52//36 54//36 45//36
f 56//37 49//37 53//37
f 57//38 50//38 49//38
f 54//39 58//39 51//39
f 46//40 59//40 55//40
f 55//41 60//41 52//41
f 54//36 52//36 60//36
f 49//37 56//37 57//37
f 50//38 57//38 61//38
f 60//42 58//42 54//42
f 51//43 58//43 62//43
f 59//40 46//40 63//40
f 64//41 55//41 59//41
f 55//41 65//41 60//41
f 66//44 57//44 56//44
f 67//45 61//45 57//45
f 58//42 60//42 65//42
f 58//46 68//46 62//46
f 59//40 63//40 69//40
f 55//41 64//41 70//41
f 71//47 64//47 59//47
f 55//41 70//41 65//41
f 57//44 66//44 67//44
f 61//45 67//45 72//45
f 70//48 58//48 65//48
f 58//49 73//49 68//49
f 74//40 59//40 69//40
f 64//50 73//50 70//50
f 64//47 71//47 75//47
f 59//40 74//40 71//40
f 76//51 67//51 66//51
f 77//52 72//52 67//52
f 58//48 70//48 73//48
f 68//53 73//53 78//53
f 73//50 64//50 75//50
f 71//54 79//54 75//54
f 67//51 76//51 77//51
f 72//52 77//52 80//52
f 73//55 75//55 78//55
f 79//54 71//54 81//54
f 82//56 75//56 79//56
f 83//57 77//57 76//57
f 84//58 80//58 77//58
f 75//56 82//56 78//56
f 81//59 85//59 79//59
f 79//60 86//60 82//60
f 77//57 83//57 84//57
f 80//58 84//58 87//58
f 85//59 81//59 88//59
f 86//60 79//60 85//60
f 83//61 89//61 84//61
f 89//62 87//62 84//62
f 88//63 90//63 85//63
f 85//64 91//64 86//64
f 89//61 83//61 92//61
f 87//62 89//62 93//62
f 90//63 88//63 94//63
f 91//64 85//64 90//64
f 92//65 95//65 89//65
f 89//66 96//66 93//66
f 94//67 97//67 90//67
f 90//68 98//68 91//68
f 95//65 92//65 99//65
f 96//66 89//66 95//66
f 97//67 94//67 100//67
f 98//68 90//68 97//68
f 99//69 101//69 95//69
f 95//70 102//70 96//70
f 100//71 103//71 97//71
f 97//72 104//72 98//72
f 101//69 99//69 105//69
f 102//70 95//70 101//70
f 103//71 100//71 106//71
f 104//72 97//72 103//72
f 105//73 107//73 101//73
f 101//74 108//74 102//74
f 106//75 109//75 103//75
f 103//76 110//76 104//76
f 107//73 105//73 111//73
f 108//74 101//74 107//74
f 109//75 106//75 112//75
f 110//76 103//76 109//76
f 111//77 113//77 107//77
f 107//78 114//78 108//78
f 112//79 113//79 109//79
f 109//80 115//80 110//80
f 113//77 111//77 115//77
f 114//78 107//78 113//78
f 113//79 112//79 114//79
f 115//80 109//80 113//80
usemtl material_1_0
f 3//81 2//81 1//81
f 4//81 1//81 2//81
f 2//82 3//82 5//82
f 1//83 6//83 3//83
f 1//84 4//84 7//84
f 8//82 5//82 3//82
f 9//83 3//83 6//83
f 6//85 1//85 10//85
f 11//84 7//84 4//84
f 7//85 10//85 1//85
f 5//86 8//86 12//86
f 3//87 9//87 8//87
f 7//88 11//88 13//88
f 10//89 7//89 14//89
f 15//86 12//86 8//86
f 16//87 8//87 9//87
f 17//88 13//88 11//88
f 13//89 14//89 7//89
f 12//90 15//90 18//90
f 8//91 16//91 15//91
f 13//92 17//92 19//92
f 14//93 13//93 20//93
f 21//90 18//90 15//90
f 22//91 15//91 16//91
f 23//92 19//92 17//92
f 19//93 20//93 13//93
f 21//94 24//94 18//94
f 15//95 22//95 21//95
f 19//96 23//96 25//96
f 20//97 19//97 26//97
f 27//94 18//94 24//94
f 24//98 21//98 28//98
f 29//95 21//95 22//95
f 30//96 25//96 23//96
f 25//97 26//97 19//97
f 24//99 31//99 27//99
f 29//98 28//98 21//98
f 28//100 32//100 24//100
f 25//101 30//101 33//101
f 26//102 25//102 34//102
f 35//99 27//99 31//99
f 31//100 24//100 32//100
f 36//101 33//101 30//101
f 33//102 34//102 25//102
f 31//103 37//103 35//103
f 32//104 38//104 31//104
f 33//105 36//105 39//105
f 34//106 33//106 40//106
f 41//103 35//103 37//103
f 37//104 31//104 38//104
f 42//105 39//105 36//105
f 39//106 40//106 33//106
f 37//107 43//107 41//107
f 38//108 44//108 37//108
f 39//109 42//109 45//109
f 40//110 39//110 46//110
f 47//107 41//107 43//107
f 43//108 37//108 44//108
f 48//109 45//109 42//109
f 45//110 46//110 39//110
f 43//111 49//111 47//111
f 44//112 50//112 43//112
f 48//113 51//113 45//113
f 45//114 52//114 46//114
f 53//111 47//111 49//111
f 49//112 43//112 50//112
f 51//115 54//115 45//115
f 55//114 46//114 52//114
f 45//116 54//116 52//116
f 53//117 49//117 56//117
f 49//118 50//118 57//118
f 51//119 58//119 54//119
f 55//120 59//120 46//120
f 52//121 60//121 55//121
f 60//116 52//116 54//116
f 57//117 56//117 49//117
f 61//118 57//118 50//118
f 54//122 58//122 60//122
f 62//123 58//123 51//123
f 63//120 46//120 59//120
f 59//121 55//121 64//121
f 60//121 65//121 55//121
f 56//124 57//124 66//124
f 57//125 61//125 67//125
f 65//122 60//122 58//122
f 62//126 68//126 58//126
f 69//120 63//120 59//120
f 70//121 64//121 55//121
f 59//127 64//127 71//127
f 65//121 70//121 55//121
f 67//124 66//124 57//124
f 72//125 67//125 61//125
f 65//128 58//128 70//128
f 68//129 73//129 58//129
f 69//120 59//120 74//120
f 70//130 73//130 64//130
f 75//127 71//127 64//127
f 71//120 74//120 59//120
f 66//131 67//131 76//131
f 67//132 72//132 77//132
f 73//128 70//128 58//128
f 78//133 73//133 68//133
f 75//130 64//130 73//130
f 75//134 79//134 71//134
f 77//131 76//131 67//131
f 80//132 77//132 72//132
f 78//135 75//135 73//135
f 81//134 71//134 79//134
f 79//136 75//136 82//136
f 76//137 77//137 83//137
f 77//138 80//138 84//138
f 78//136 82//136 75//136
f 79//139 85//139 81//139
f 82//140 86//140 79//140
f 84//137 83//137 77//137
f 87//138 84//138 80//138
f 88//139 81//139 85//139
f 85//140 79//140 86//140
f 84//141 89//141 83//141
f 84//142 87//142 89//142
f 85//143 90//143 88//143
f 86//144 91//144 85//144
f 92//141 83//141 89//141
f 93//142 89//142 87//142
f 94//143 88//143 90//143
f 90//144 85//144 91//144
f 89//145 95//145 92//145
f 93//146 96//146 89//146
f 90//147 97//147 94//147
f 91//148 98//148 90//148
f 99//145 92//145 95//145
f 95//146 89//146 96//146
f 100//147 94//147 97//147
f 97//148 90//148 98//148
f 95//149 101//149 99//149
f 96//150 102//150 95//150
f 97//151 103//151 100//151
f 98//152 104//152 97//152
f 105//149 99//149 101//149
f 101//150 95//150 102//150
f 106//151 100//151 103//151
f 103//152 97//152 104//152
f 101//153 107//153 105//153
f 102//154 108//154 101//154
f 103//155 109//155 106//155
f 104//156 110//156 103//156
f 111//153 105//153 107//153
f 107//154 101//154 108//154
f 112//155 106//155 109//155
f 109//156 103//156 110//156
f 107//157 113//157 111//157
f 108//158 114//158 107//158
f 109//159 113//159 112//159
f 110//160 115//160 109//160
f 115//157 111//157 113//157
f 113//158 107//158 114//158
f 114//159 112//159 113//159
f 113//160 109//160 115//160
