# SSTK version 0.8.0
# 20
mtllib original-20.mtl
o Cylinder29_1_1_1/Cylinder29_1_1/mesh23/mesh23-geometry#mesh23-geometry
v -0.039587 0.283418 -0.179918
v -0.039587 0.281320 -0.187748
v -0.039587 0.280747 -0.183398
v -0.039587 0.284800 -0.190418
v 0.026386 0.281320 -0.187747
v 0.026386 0.280747 -0.183398
v -0.039587 0.287767 -0.179345
v 0.026386 0.283418 -0.179917
v -0.039587 0.289150 -0.189846
v 0.026386 0.284800 -0.190418
v 0.026386 0.287767 -0.179345
v -0.039587 0.291248 -0.182016
v 0.026386 0.289150 -0.189846
v -0.039587 0.291820 -0.186366
v 0.026386 0.291248 -0.182015
v 0.026386 0.291820 -0.186365
vn -1 0 -9.999999999995e-7
vn 0 -0.9914446297901828 -0.1305279512602847
vn -0.000001000000106963017 -0.7933520848593235 0.6087630651151272
vn 9.999995531872994e-7 -0.6087597279983004 -0.79335464551891
vn -0.0000010000000181745005 -0.13052500237222667 0.9914450180190176
vn 1 0 9.999999999995e-7
vn 0.0000010000000181745005 0.13052500237222667 -0.9914450180190176
vn -0.000001000000106963017 0.6087630651151272 0.7933520848593235
vn 0.0000010000001619465392 0.7933551284810967 -0.6087590985864134
vn 0 0.9914446297901828 0.1305279512602847
vn 0.000001000000106963017 0.7933520848593235 -0.6087630651151272
vn -9.999995531872994e-7 0.6087597279983004 0.79335464551891
vn 0.000001000000106963017 -0.6087630651151272 -0.7933520848593235
vn -0.0000010000001619465392 -0.7933551284810967 0.6087590985864134
usemtl material_0_0
f 1//1 2//1 3//1
f 2//1 1//1 4//1
f 5//2 3//2 2//2
f 6//3 1//3 3//3
f 4//1 1//1 7//1
f 4//4 5//4 2//4
f 3//2 5//2 6//2
f 1//3 6//3 8//3
f 8//5 7//5 1//5
f 4//1 7//1 9//1
f 5//4 4//4 10//4
f 5//6 8//6 6//6
f 7//5 8//5 11//5
f 9//1 7//1 12//1
f 13//7 4//7 9//7
f 4//7 13//7 10//7
f 8//6 5//6 10//6
f 8//6 10//6 11//6
f 11//8 12//8 7//8
f 9//1 12//1 14//1
f 14//9 13//9 9//9
f 11//6 10//6 13//6
f 12//8 11//8 15//8
f 12//10 16//10 14//10
f 13//9 14//9 16//9
f 11//6 13//6 15//6
f 16//10 12//10 15//10
f 15//6 13//6 16//6
usemtl material_1_0
f 3//6 2//6 1//6
f 4//6 1//6 2//6
f 2//10 3//10 5//10
f 3//11 1//11 6//11
f 7//6 1//6 4//6
f 2//12 5//12 4//12
f 6//10 5//10 3//10
f 8//11 6//11 1//11
f 1//7 7//7 8//7
f 9//6 7//6 4//6
f 10//12 4//12 5//12
f 6//1 8//1 5//1
f 11//7 8//7 7//7
f 12//6 7//6 9//6
f 9//5 4//5 13//5
f 10//5 13//5 4//5
f 10//1 5//1 8//1
f 11//1 10//1 8//1
f 7//13 12//13 11//13
f 14//6 12//6 9//6
f 9//14 13//14 14//14
f 13//1 10//1 11//1
f 15//13 11//13 12//13
f 14//2 16//2 12//2
f 16//14 14//14 13//14
f 15//1 13//1 11//1
f 15//2 12//2 16//2
f 16//1 13//1 15//1
