# SSTK version 0.8.0
# 1
mtllib original-1.mtl
o #ID136
v -0.982313 0.001143 0.012080
v -0.986619 0.025662 0.014034
v -0.986619 0.001143 0.014034
v -0.982313 0.025662 0.012080
v -0.982313 0.025662 0.012080
v -0.982313 0.001143 0.012080
v -0.986619 0.025662 0.014034
v -0.986619 0.001143 0.014034
v -0.964033 0.025662 0.007455
v -0.323572 0.025662 0.007172
v -0.959315 0.025662 0.007126
v -0.329854 0.025662 0.008395
v -0.968715 0.025662 0.008119
v -0.973338 0.025662 0.009115
v -0.335606 0.025662 0.011203
v -0.977878 0.025662 0.010437
v -0.982313 0.025662 0.012080
v -0.340435 0.025662 0.015404
v -0.986619 0.025662 0.014034
v -0.990775 0.025662 0.016290
v -0.344013 0.025662 0.020712
v -0.994760 0.025662 0.018836
v -0.998554 0.025662 0.021660
v -0.346095 0.025662 0.026765
v -1.002136 0.025662 0.024746
v -1.005490 0.025662 0.028080
v -0.346539 0.025662 0.033150
v -1.008598 0.025662 0.031645
v -0.371104 0.025662 0.080683
v -0.345315 0.025662 0.039433
v -0.342508 0.025662 0.045185
v -0.338307 0.025662 0.050014
v -0.332999 0.025662 0.053591
v -0.326946 0.025662 0.055673
v -0.320561 0.025662 0.056117
v -0.031431 0.025662 -0.017393
v -0.371104 0.025662 -0.017393
v -0.317186 0.025662 0.007616
v -0.311133 0.025662 0.009698
v -0.305826 0.025662 0.013275
v -0.301625 0.025662 0.018105
v -0.260105 0.025662 0.080683
v -0.298817 0.025662 0.023857
v -0.297593 0.025662 0.030139
v -0.298038 0.025662 0.036524
v -0.300120 0.025662 0.042577
v -0.303697 0.025662 0.047885
v -0.308526 0.025662 0.052086
v -0.314278 0.025662 0.054894
v -0.371104 0.025662 0.080683
v -0.320561 0.025662 0.056117
v -0.260105 0.025662 0.080683
v -0.314278 0.025662 0.054894
v -0.308526 0.025662 0.052086
v -0.303697 0.025662 0.047885
v -0.300120 0.025662 0.042577
v -0.298038 0.025662 0.036524
v -0.297593 0.025662 0.030139
v -0.298817 0.025662 0.023857
v -0.301625 0.025662 0.018105
v -0.031431 0.025662 -0.017393
v -0.305826 0.025662 0.013275
v -0.311133 0.025662 0.009698
v -0.317186 0.025662 0.007616
v -0.323572 0.025662 0.007172
v -0.959315 0.025662 0.007126
v -0.371104 0.025662 -0.017393
v -0.326946 0.025662 0.055673
v -0.332999 0.025662 0.053591
v -0.338307 0.025662 0.050014
v -0.342508 0.025662 0.045185
v -0.345315 0.025662 0.039433
v -0.346539 0.025662 0.033150
v -1.008598 0.025662 0.031645
v -1.005490 0.025662 0.028080
v -0.346095 0.025662 0.026765
v -1.002136 0.025662 0.024746
v -0.998554 0.025662 0.021660
v -0.344013 0.025662 0.020712
v -0.994760 0.025662 0.018836
v -0.990775 0.025662 0.016290
v -0.340435 0.025662 0.015404
v -0.986619 0.025662 0.014034
v -0.982313 0.025662 0.012080
v -0.335606 0.025662 0.011203
v -0.977878 0.025662 0.010437
v -0.973338 0.025662 0.009115
v -0.329854 0.025662 0.008395
v -0.968715 0.025662 0.008119
v -0.964033 0.025662 0.007455
v -0.990775 0.025662 0.016290
v -0.990775 0.001143 0.016290
v -0.990775 0.025662 0.016290
v -0.990775 0.001143 0.016290
v -0.031431 0.001143 -0.017393
v -0.959315 0.001143 0.007126
v -0.371104 0.001143 -0.017393
v -0.323572 0.001143 0.007172
v -0.317186 0.001143 0.007616
v -0.311133 0.001143 0.009698
v -0.305826 0.001143 0.013275
v -0.301625 0.001143 0.018105
v -0.260105 0.001143 0.080683
v -0.298817 0.001143 0.023857
v -0.297593 0.001143 0.030139
v -0.298038 0.001143 0.036524
v -0.300120 0.001143 0.042577
v -0.303697 0.001143 0.047885
v -0.308526 0.001143 0.052086
v -0.314278 0.001143 0.054894
v -0.320561 0.001143 0.056117
v -0.371104 0.001143 0.080683
v -0.964033 0.001143 0.007455
v -0.329854 0.001143 0.008395
v -0.968715 0.001143 0.008119
v -0.973338 0.001143 0.009115
v -0.335606 0.001143 0.011203
v -0.977878 0.001143 0.010437
v -0.982313 0.001143 0.012080
v -0.340435 0.001143 0.015404
v -0.986619 0.001143 0.014034
v -0.990775 0.001143 0.016290
v -0.344013 0.001143 0.020712
v -0.994760 0.001143 0.018836
v -0.998554 0.001143 0.021660
v -0.346095 0.001143 0.026765
v -1.002136 0.001143 0.024746
v -1.005490 0.001143 0.028080
v -0.346539 0.001143 0.033150
v -1.008598 0.001143 0.031645
v -0.345315 0.001143 0.039433
v -0.342508 0.001143 0.045185
v -0.338307 0.001143 0.050014
v -0.332999 0.001143 0.053591
v -0.326946 0.001143 0.055673
v -0.320561 0.001143 0.056117
v -0.326946 0.001143 0.055673
v -0.371104 0.001143 0.080683
v -0.332999 0.001143 0.053591
v -0.338307 0.001143 0.050014
v -0.342508 0.001143 0.045185
v -0.345315 0.001143 0.039433
v -0.346539 0.001143 0.033150
v -1.008598 0.001143 0.031645
v -1.005490 0.001143 0.028080
v -0.346095 0.001143 0.026765
v -1.002136 0.001143 0.024746
v -0.998554 0.001143 0.021660
v -0.344013 0.001143 0.020712
v -0.994760 0.001143 0.018836
v -0.990775 0.001143 0.016290
v -0.340435 0.001143 0.015404
v -0.986619 0.001143 0.014034
v -0.982313 0.001143 0.012080
v -0.335606 0.001143 0.011203
v -0.977878 0.001143 0.010437
v -0.973338 0.001143 0.009115
v -0.329854 0.001143 0.008395
v -0.968715 0.001143 0.008119
v -0.964033 0.001143 0.007455
v -0.323572 0.001143 0.007172
v -0.959315 0.001143 0.007126
v -0.260105 0.001143 0.080683
v -0.314278 0.001143 0.054894
v -0.308526 0.001143 0.052086
v -0.303697 0.001143 0.047885
v -0.300120 0.001143 0.042577
v -0.298038 0.001143 0.036524
v -0.297593 0.001143 0.030139
v -0.298817 0.001143 0.023857
v -0.301625 0.001143 0.018105
v -0.031431 0.001143 -0.017393
v -0.305826 0.001143 0.013275
v -0.311133 0.001143 0.009698
v -0.317186 0.001143 0.007616
v -0.371104 0.001143 -0.017393
v -0.977878 0.001143 0.010437
v -0.977878 0.025662 0.010437
v -0.977878 0.025662 0.010437
v -0.977878 0.001143 0.010437
v -1.005490 0.025662 0.028080
v -1.008598 0.001143 0.031645
v -1.005490 0.001143 0.028080
v -1.008598 0.025662 0.031645
v -1.008598 0.025662 0.031645
v -1.005490 0.025662 0.028080
v -1.008598 0.001143 0.031645
v -1.005490 0.001143 0.028080
v -0.371104 0.001143 0.080683
v -1.008598 0.025662 0.031645
v -1.008598 0.001143 0.031645
v -0.371104 0.025662 0.080683
v -0.371104 0.025662 0.080683
v -0.371104 0.001143 0.080683
v -1.008598 0.025662 0.031645
v -1.008598 0.001143 0.031645
v -0.260105 0.001143 0.080683
v -0.260105 0.025662 0.080683
v -0.260105 0.025662 0.080683
v -0.260105 0.001143 0.080683
v -0.031431 0.001143 -0.017393
v -0.260105 0.025662 0.080683
v -0.260105 0.001143 0.080683
v -0.031431 0.025662 -0.017393
v -0.031431 0.025662 -0.017393
v -0.031431 0.001143 -0.017393
v -0.260105 0.025662 0.080683
v -0.260105 0.001143 0.080683
v -0.031431 0.025662 -0.017393
v -0.371104 0.001143 -0.017393
v -0.371104 0.025662 -0.017393
v -0.031431 0.001143 -0.017393
v -0.031431 0.001143 -0.017393
v -0.031431 0.025662 -0.017393
v -0.371104 0.001143 -0.017393
v -0.371104 0.025662 -0.017393
v -0.959315 0.001143 0.007126
v -0.959315 0.025662 0.007126
v -0.959315 0.001143 0.007126
v -0.959315 0.025662 0.007126
v -0.964033 0.025662 0.007455
v -0.964033 0.001143 0.007455
v -0.964033 0.025662 0.007455
v -0.964033 0.001143 0.007455
v -0.968715 0.025662 0.008119
v -0.968715 0.001143 0.008119
v -0.968715 0.025662 0.008119
v -0.968715 0.001143 0.008119
v -0.973338 0.025662 0.009115
v -0.973338 0.001143 0.009115
v -0.973338 0.025662 0.009115
v -0.973338 0.001143 0.009115
v -0.994760 0.025662 0.018836
v -0.994760 0.001143 0.018836
v -0.994760 0.025662 0.018836
v -0.994760 0.001143 0.018836
v -0.998554 0.025662 0.021660
v -0.998554 0.001143 0.021660
v -0.998554 0.025662 0.021660
v -0.998554 0.001143 0.021660
v -1.002136 0.025662 0.024746
v -1.002136 0.001143 0.024746
v -1.002136 0.025662 0.024746
v -1.002136 0.001143 0.024746
vt 0.2765373 0.05511575
vt 0.2705102 0.08636575
vt 0.2705102 0.05511575
vt 0.2765373 0.08636575
vt -1.187482 -0.20924
vt -1.187842 0.6070421
vt -1.187901 -0.2032274
vt -1.186283 0.5990347
vt -1.186636 -0.2152074
vt -1.185366 -0.2210994
vt -1.182704 0.5917037
vt -1.183681 -0.2268861
vt -1.181587 -0.232538
vt -1.17735 0.5855487
vt -1.179096 -0.2380264
vt -1.176221 -0.2433236
vt -1.170585 0.5809892
vt -1.172976 -0.2484025
vt -1.169377 -0.2532373
vt -1.162871 0.578336
vt -1.165443 -0.2578036
vt -1.161194 -0.2620781
vt -1.154733 0.5777698
vt -1.156651 -0.2660392
vt -1.094151 0.5464608
vt -1.146725 0.5793292
vt -1.139394 0.5829079
vt -1.133239 0.5882621
vt -1.12868 0.5950269
vt -1.126026 0.6027413
vt -1.12546 0.6108795
vt -1.219151 0.9793822
vt -1.219151 0.5464608
vt -1.187276 0.6151804
vt -1.184623 0.6228947
vt -1.180063 0.6296595
vt -1.173908 0.6350137
vt -1.094151 0.6879322
vt -1.166577 0.6385925
vt -1.15857 0.6401519
vt -1.150432 0.6395857
vt -1.142717 0.6369324
vt -1.135953 0.6323729
vt -1.130598 0.626218
vt -1.12702 0.618887
vt 0.3532984 0.05511575
vt 0.3472713 0.08636575
vt 0.3472713 0.05511575
vt 0.3532984 0.08636575
vt 1.219151 0.9793822
vt 1.187901 -0.2032274
vt 1.219151 0.5464608
vt 1.187842 0.6070421
vt 1.187276 0.6151804
vt 1.184623 0.6228947
vt 1.180063 0.6296595
vt 1.173908 0.6350137
vt 1.094151 0.6879322
vt 1.166577 0.6385925
vt 1.15857 0.6401519
vt 1.150432 0.6395857
vt 1.142717 0.6369324
vt 1.135953 0.6323729
vt 1.130598 0.626218
vt 1.12702 0.618887
vt 1.12546 0.6108795
vt 1.094151 0.5464608
vt 1.187482 -0.20924
vt 1.186283 0.5990347
vt 1.186636 -0.2152074
vt 1.185366 -0.2210994
vt 1.182704 0.5917037
vt 1.183681 -0.2268861
vt 1.181587 -0.232538
vt 1.17735 0.5855487
vt 1.179096 -0.2380264
vt 1.176221 -0.2433236
vt 1.170585 0.5809892
vt 1.172976 -0.2484025
vt 1.169377 -0.2532373
vt 1.162871 0.578336
vt 1.165443 -0.2578036
vt 1.161194 -0.2620781
vt 1.154733 0.5777698
vt 1.156651 -0.2660392
vt 1.146725 0.5793292
vt 1.139394 0.5829079
vt 1.133239 0.5882621
vt 1.12868 0.5950269
vt 1.126026 0.6027413
vt 0.1983871 0.05511575
vt 0.1923599 0.08636575
vt 0.1923599 0.05511575
vt 0.1983871 0.08636575
vt 0.7029781 0.08636575
vt 0.6969509 0.05511575
vt 0.7029781 0.05511575
vt 0.6969509 0.08636575
vt 0.4609336 0.05511575
vt -0.3539667 0.08636575
vt -0.3539667 0.05511575
vt 0.4609336 0.08636575
vt 0.6879322 0.05511575
vt 0.5464608 0.08636575
vt 0.5464608 0.05511575
vt 0.6879322 0.08636575
vt 1.380639 0.05511575
vt 1.063515 0.08636575
vt 1.063515 0.05511575
vt 1.380639 0.08636575
vt -0.9793822 0.08636575
vt -0.5464608 0.05511575
vt -0.5464608 0.08636575
vt -0.9793822 0.05511575
vt -0.5967617 0.08636575
vt 0.1535776 0.05511575
vt 0.1535776 0.08636575
vt -0.5967617 0.05511575
vt -0.1201042 0.05511575
vt -0.1261314 0.08636575
vt -0.1261314 0.05511575
vt -0.1201042 0.08636575
vt -0.04040653 0.05511575
vt -0.04643371 0.08636575
vt -0.04643371 0.05511575
vt -0.04040653 0.08636575
vt 0.03951168 0.05511575
vt 0.0334845 0.08636575
vt 0.0334845 0.05511575
vt 0.03951168 0.08636575
vt 0.1192445 0.05511575
vt 0.1132173 0.08636575
vt 0.1132173 0.05511575
vt 0.1192445 0.08636575
vt 0.4282805 0.05511575
vt 0.4222533 0.08636575
vt 0.4222533 0.05511575
vt 0.4282805 0.08636575
vt 0.5011028 0.05511575
vt 0.4950756 0.08636575
vt 0.4950756 0.05511575
vt 0.5011028 0.08636575
vt 0.5713953 0.05511575
vt 0.5653682 0.08636575
vt 0.5653682 0.05511575
vt 0.5713953 0.08636575
vt 0.6388012 0.05511575
vt 0.632774 0.08636575
vt 0.632774 0.05511575
vt 0.6388012 0.08636575
vn 0.38053940279345416 0 0.9247647067884897
vn 0.4454351122419713 0 0.8953142246060778
vn -0.38053940279345416 0 -0.9247647067884897
vn -0.4454351122419713 0 -0.8953142246060778
vn 0 1 0
vn 0 -1 0
vn 0.5080684851666512 0 0.861316674853369
vn -0.5080684851666512 0 -0.861316674853369
vn 0.31371109433665834 0 0.9495184828585993
vn -0.31371109433665834 0 -0.9495184828585993
vn 0.7298232660662476 0 0.6836358682137699
vn 0.7537196191145672 0 0.6571961166667006
vn -0.7537196191145672 0 -0.6571961166667006
vn -0.7298232660662476 0 -0.6836358682137699
vn -0.03837651808372867 0 0.9992633501033495
vn -0.07669649888473704 0 0.9970544855015815
vn 0.03837651808372867 0 -0.9992633501033495
vn 0.07669649888473704 0 -0.9970544855015815
vn 0 0 1
vn 0 0 -1
vn 0.39416680671355747 0 0.9190389156533236
vn -0.39416680671355747 0 -0.9190389156533236
vn -0.020828429265361784 0 -0.9997830647367146
vn 0.020828429265361784 0 0.9997830647367146
vn -0.048629539224693874 0 -0.9988168840757519
vn 0.048629539224693874 0 0.9988168840757519
vn 0.10506269997296476 0 0.9944655997440992
vn -0.10506269997296476 0 -0.9944655997440992
vn 0.1756220925274821 0 0.9844576581124596
vn -0.1756220925274821 0 -0.9844576581124596
vn 0.2452894002008467 0 0.9694499007938003
vn -0.2452894002008467 0 -0.9694499007938003
vn 0.5681216093581787 0 0.822944613555659
vn -0.5681216093581787 0 -0.822944613555659
vn 0.6252892080774078 0 0.7803931100810206
vn -0.6252892080774078 0 -0.7803931100810206
vn 0.6792811951319144 0 0.7338780947406442
vn -0.6792811951319144 0 -0.7338780947406442
usemtl material_0_0
f 1/1/1 2/2/2 3/3/2
f 2/2/2 1/1/1 4/4/1
f 5/4/3 6/1/3 7/2/4
f 8/3/4 7/2/4 6/1/3
f 9/5/5 10/6/5 11/7/5
f 10/6/5 9/5/5 12/8/5
f 12/8/5 9/5/5 13/9/5
f 12/8/5 13/9/5 14/10/5
f 12/8/5 14/10/5 15/11/5
f 15/11/5 14/10/5 16/12/5
f 15/11/5 16/12/5 17/13/5
f 15/11/5 17/13/5 18/14/5
f 18/14/5 17/13/5 19/15/5
f 18/14/5 19/15/5 20/16/5
f 18/14/5 20/16/5 21/17/5
f 21/17/5 20/16/5 22/18/5
f 21/17/5 22/18/5 23/19/5
f 21/17/5 23/19/5 24/20/5
f 24/20/5 23/19/5 25/21/5
f 24/20/5 25/21/5 26/22/5
f 24/20/5 26/22/5 27/23/5
f 27/23/5 26/22/5 28/24/5
f 27/23/5 28/24/5 29/25/5
f 27/23/5 29/25/5 30/26/5
f 30/26/5 29/25/5 31/27/5
f 31/27/5 29/25/5 32/28/5
f 32/28/5 29/25/5 33/29/5
f 33/29/5 29/25/5 34/30/5
f 34/30/5 29/25/5 35/31/5
f 11/7/5 36/32/5 37/33/5
f 36/32/5 11/7/5 10/6/5
f 36/32/5 10/6/5 38/34/5
f 36/32/5 38/34/5 39/35/5
f 36/32/5 39/35/5 40/36/5
f 36/32/5 40/36/5 41/37/5
f 36/32/5 41/37/5 42/38/5
f 42/38/5 41/37/5 43/39/5
f 42/38/5 43/39/5 44/40/5
f 42/38/5 44/40/5 45/41/5
f 42/38/5 45/41/5 46/42/5
f 42/38/5 46/42/5 47/43/5
f 42/38/5 47/43/5 48/44/5
f 42/38/5 48/44/5 49/45/5
f 42/38/5 49/45/5 35/31/5
f 42/38/5 35/31/5 29/25/5
f 50/25/6 51/31/6 52/38/6
f 51/31/6 53/45/6 52/38/6
f 53/45/6 54/44/6 52/38/6
f 54/44/6 55/43/6 52/38/6
f 55/43/6 56/42/6 52/38/6
f 56/42/6 57/41/6 52/38/6
f 57/41/6 58/40/6 52/38/6
f 58/40/6 59/39/6 52/38/6
f 59/39/6 60/37/6 52/38/6
f 52/38/6 60/37/6 61/32/6
f 60/37/6 62/36/6 61/32/6
f 62/36/6 63/35/6 61/32/6
f 63/35/6 64/34/6 61/32/6
f 64/34/6 65/6/6 61/32/6
f 65/6/6 66/7/6 61/32/6
f 67/33/6 61/32/6 66/7/6
f 51/31/6 50/25/6 68/30/6
f 68/30/6 50/25/6 69/29/6
f 69/29/6 50/25/6 70/28/6
f 70/28/6 50/25/6 71/27/6
f 71/27/6 50/25/6 72/26/6
f 72/26/6 50/25/6 73/23/6
f 50/25/6 74/24/6 73/23/6
f 74/24/6 75/22/6 73/23/6
f 73/23/6 75/22/6 76/20/6
f 75/22/6 77/21/6 76/20/6
f 77/21/6 78/19/6 76/20/6
f 76/20/6 78/19/6 79/17/6
f 78/19/6 80/18/6 79/17/6
f 80/18/6 81/16/6 79/17/6
f 79/17/6 81/16/6 82/14/6
f 81/16/6 83/15/6 82/14/6
f 83/15/6 84/13/6 82/14/6
f 82/14/6 84/13/6 85/11/6
f 84/13/6 86/12/6 85/11/6
f 86/12/6 87/10/6 85/11/6
f 85/11/6 87/10/6 88/8/6
f 87/10/6 89/9/6 88/8/6
f 89/9/6 90/5/6 88/8/6
f 88/8/6 90/5/6 65/6/6
f 66/7/6 65/6/6 90/5/6
f 3/46/2 91/47/7 92/48/7
f 91/47/7 3/46/2 2/49/2
f 7/49/4 8/46/4 93/47/8
f 94/48/8 93/47/8 8/46/4
f 95/50/6 96/51/6 97/52/6
f 96/51/6 95/50/6 98/53/6
f 98/53/6 95/50/6 99/54/6
f 99/54/6 95/50/6 100/55/6
f 100/55/6 95/50/6 101/56/6
f 101/56/6 95/50/6 102/57/6
f 102/57/6 95/50/6 103/58/6
f 102/57/6 103/58/6 104/59/6
f 104/59/6 103/58/6 105/60/6
f 105/60/6 103/58/6 106/61/6
f 106/61/6 103/58/6 107/62/6
f 107/62/6 103/58/6 108/63/6
f 108/63/6 103/58/6 109/64/6
f 109/64/6 103/58/6 110/65/6
f 110/65/6 103/58/6 111/66/6
f 111/66/6 103/58/6 112/67/6
f 98/53/6 113/68/6 96/51/6
f 113/68/6 98/53/6 114/69/6
f 113/68/6 114/69/6 115/70/6
f 115/70/6 114/69/6 116/71/6
f 116/71/6 114/69/6 117/72/6
f 116/71/6 117/72/6 118/73/6
f 118/73/6 117/72/6 119/74/6
f 119/74/6 117/72/6 120/75/6
f 119/74/6 120/75/6 121/76/6
f 121/76/6 120/75/6 122/77/6
f 122/77/6 120/75/6 123/78/6
f 122/77/6 123/78/6 124/79/6
f 124/79/6 123/78/6 125/80/6
f 125/80/6 123/78/6 126/81/6
f 125/80/6 126/81/6 127/82/6
f 127/82/6 126/81/6 128/83/6
f 128/83/6 126/81/6 129/84/6
f 128/83/6 129/84/6 130/85/6
f 130/85/6 129/84/6 112/67/6
f 112/67/6 129/84/6 131/86/6
f 112/67/6 131/86/6 132/87/6
f 112/67/6 132/87/6 133/88/6
f 112/67/6 133/88/6 134/89/6
f 112/67/6 134/89/6 135/90/6
f 112/67/6 135/90/6 111/66/6
f 136/66/5 137/90/5 138/67/5
f 137/90/5 139/89/5 138/67/5
f 139/89/5 140/88/5 138/67/5
f 140/88/5 141/87/5 138/67/5
f 141/87/5 142/86/5 138/67/5
f 142/86/5 143/84/5 138/67/5
f 138/67/5 143/84/5 144/85/5
f 144/85/5 143/84/5 145/83/5
f 143/84/5 146/81/5 145/83/5
f 145/83/5 146/81/5 147/82/5
f 147/82/5 146/81/5 148/80/5
f 146/81/5 149/78/5 148/80/5
f 148/80/5 149/78/5 150/79/5
f 150/79/5 149/78/5 151/77/5
f 149/78/5 152/75/5 151/77/5
f 151/77/5 152/75/5 153/76/5
f 153/76/5 152/75/5 154/74/5
f 152/75/5 155/72/5 154/74/5
f 154/74/5 155/72/5 156/73/5
f 156/73/5 155/72/5 157/71/5
f 155/72/5 158/69/5 157/71/5
f 157/71/5 158/69/5 159/70/5
f 159/70/5 158/69/5 160/68/5
f 158/69/5 161/53/5 160/68/5
f 162/51/5 160/68/5 161/53/5
f 138/67/5 163/58/5 136/66/5
f 136/66/5 163/58/5 164/65/5
f 164/65/5 163/58/5 165/64/5
f 165/64/5 163/58/5 166/63/5
f 166/63/5 163/58/5 167/62/5
f 167/62/5 163/58/5 168/61/5
f 168/61/5 163/58/5 169/60/5
f 169/60/5 163/58/5 170/59/5
f 170/59/5 163/58/5 171/57/5
f 163/58/5 172/50/5 171/57/5
f 171/57/5 172/50/5 173/56/5
f 173/56/5 172/50/5 174/55/5
f 174/55/5 172/50/5 175/54/5
f 175/54/5 172/50/5 161/53/5
f 161/53/5 172/50/5 162/51/5
f 176/52/5 162/51/5 172/50/5
f 177/91/9 4/92/1 1/93/1
f 4/92/1 177/91/9 178/94/9
f 179/94/10 180/91/10 5/92/3
f 6/93/3 5/92/3 180/91/10
f 181/95/11 182/96/12 183/97/11
f 182/96/12 181/95/11 184/98/12
f 185/98/13 186/95/14 187/96/13
f 188/97/14 187/96/13 186/95/14
f 189/99/15 190/100/16 191/101/16
f 190/100/16 189/99/15 192/102/15
f 193/102/17 194/99/17 195/100/18
f 196/101/18 195/100/18 194/99/17
f 197/103/19 192/104/15 189/105/15
f 192/104/15 197/103/19 198/106/19
f 199/106/20 200/103/20 193/104/17
f 194/105/17 193/104/17 200/103/20
f 201/107/21 202/108/21 203/109/21
f 202/108/21 201/107/21 204/110/21
f 205/110/22 206/107/22 207/108/22
f 208/109/22 207/108/22 206/107/22
f 209/111/20 210/112/23 211/113/23
f 210/112/23 209/111/20 212/114/20
f 213/114/19 214/111/19 215/112/24
f 216/113/24 215/112/24 214/111/19
f 211/115/23 217/116/25 218/117/25
f 217/116/25 211/115/23 210/118/23
f 215/118/24 216/115/24 219/116/26
f 220/117/26 219/116/26 216/115/24
f 219/119/26 221/120/27 222/121/27
f 221/120/27 219/119/26 220/122/26
f 218/122/25 217/119/25 223/120/28
f 224/121/28 223/120/28 217/119/25
f 222/123/27 225/124/29 226/125/29
f 225/124/29 222/123/27 221/126/27
f 223/126/28 224/123/28 227/124/30
f 228/125/30 227/124/30 224/123/28
f 226/127/29 229/128/31 230/129/31
f 229/128/31 226/127/29 225/130/29
f 227/130/30 228/127/30 231/128/32
f 232/129/32 231/128/32 228/127/30
f 230/131/31 178/132/9 177/133/9
f 178/132/9 230/131/31 229/134/31
f 231/134/32 232/131/32 179/132/10
f 180/133/10 179/132/10 232/131/32
f 92/135/7 233/136/33 234/137/33
f 233/136/33 92/135/7 91/138/7
f 93/138/8 94/135/8 235/136/34
f 236/137/34 235/136/34 94/135/8
f 234/139/33 237/140/35 238/141/35
f 237/140/35 234/139/33 233/142/33
f 235/142/34 236/139/34 239/140/36
f 240/141/36 239/140/36 236/139/34
f 238/143/35 241/144/37 242/145/37
f 241/144/37 238/143/35 237/146/35
f 239/146/36 240/143/36 243/144/38
f 244/145/38 243/144/38 240/143/36
f 242/147/37 181/148/11 183/149/11
f 181/148/11 242/147/37 241/150/37
f 243/150/38 244/147/38 186/148/14
f 188/149/14 186/148/14 244/147/38
