# SSTK version 0.8.0
# 43
mtllib original-43.mtl
o mesh72/mesh72-geometry#mesh72-geometry
v -0.016858 -0.370321 -0.211756
v 0.026903 -0.365755 -0.211756
v 0.026903 -0.370321 -0.211756
v -0.016858 -0.365755 -0.211756
v 0.026903 -0.370321 -0.206809
v -0.016858 -0.365755 -0.206809
v 0.026903 -0.365755 -0.206809
v -0.016858 -0.370321 -0.206809
vt -0.036927 0
vt -0.036927 -0.00297
vt -0.065392 0
vt -0.065392 -0.00297
vt 0.013898 0
vt 0.017116 0
vt 0.013898 -0.00297
vt -0.013898 -0.00297
vt -0.017116 -0.00297
vt -0.013898 0
vt 0.017116 -0.00297
vt -0.017116 0
vt 0.036927 -0.00297
vt 0.036927 0
vt 0.065392 -0.00297
vt 0.065392 0
vn 0 0 -1
vn 1 0 0
vn -1 0 0
vn 0 0 1
usemtl material_0_0
f 1//1 2//1 3//1
f 2//1 1//1 4//1
f 2//2 5//2 3//2
f 1//3 6//3 4//3
f 5//2 2//2 7//2
f 6//3 1//3 8//3
f 6//4 5//4 7//4
f 5//4 6//4 8//4
usemtl material_1_0
f 3/1/4 2/2/4 1/3/4
f 4/4/4 1/3/4 2/2/4
f 3/5/3 5/6/3 2/7/3
f 4/8/2 6/9/2 1/10/2
f 7/11/3 2/7/3 5/6/3
f 8/12/2 1/10/2 6/9/2
f 7/13/1 5/14/1 6/15/1
f 8/16/1 6/15/1 5/14/1
