# SSTK version 0.8.0
# 48
mtllib original-48.mtl
o mesh77/mesh77-geometry#mesh77-geometry
v 0.039910 -0.370321 -0.201646
v 0.083671 -0.365755 -0.201646
v 0.083671 -0.370321 -0.201646
v 0.039910 -0.365755 -0.201646
v 0.083671 -0.370321 -0.196700
v 0.039910 -0.365755 -0.196700
v 0.083671 -0.365755 -0.196700
v 0.039910 -0.370321 -0.196700
vt -0.020474 -0.00297
vt -0.023692 -0.00297
vt -0.020474 0
vt -0.023692 0
vt 0 -0.00297
vt 0 0
vt 0.028465 -0.00297
vt 0.028465 0
vn 0 0 -1
vn 1 0 0
vn -1 0 0
vn 0 0 1
usemtl material_0_0
f 1//1 2//1 3//1
f 2//1 1//1 4//1
f 2//2 5//2 3//2
f 1//3 6//3 4//3
f 5//2 2//2 7//2
f 6//3 1//3 8//3
usemtl material_1_0
f 3//4 2//4 1//4
f 4//4 1//4 2//4
f 3//3 5//3 2//3
f 7//3 2//3 5//3
f 6//4 5//4 7//4
f 5//4 6//4 8//4
usemtl material_2_0
f 4/1/2 6/2/2 1/3/2
f 8/4/2 1/3/2 6/2/2
f 7/5/1 5/6/1 6/7/1
f 8/8/1 6/7/1 5/6/1
