# SSTK version 0.8.0
# 56
mtllib original-56.mtl
o mesh90/mesh90-geometry#mesh90-geometry
v -0.046680 -0.198258 -0.298189
v -0.047947 -0.197273 -0.315048
v -0.047318 -0.198878 -0.306683
v -0.046075 -0.195454 -0.290144
v 0.047925 -0.198878 -0.313844
v 0.048564 -0.198258 -0.305350
v 0.049169 -0.195454 -0.297305
v -0.048524 -0.193551 -0.322714
v 0.047296 -0.197273 -0.322209
v 0.049699 -0.190657 -0.290258
v -0.045545 -0.190657 -0.283097
v 0.046720 -0.193551 -0.329875
v -0.049008 -0.187966 -0.329158
v -0.045126 -0.184195 -0.277528
v 0.046235 -0.187966 -0.336319
v 0.050117 -0.184195 -0.284689
v -0.049368 -0.180899 -0.333941
v -0.044847 -0.176508 -0.273817
v 0.045876 -0.180899 -0.341102
v 0.050396 -0.176508 -0.280978
v -0.049578 -0.172832 -0.336737
v 0.045665 -0.172832 -0.343898
v -0.044727 -0.168119 -0.272216
v 0.050517 -0.168119 -0.279377
v -0.049625 -0.164314 -0.337356
v 0.045619 -0.164314 -0.344517
v 0.050470 -0.159601 -0.279996
v -0.044773 -0.159601 -0.272834
v -0.049504 -0.155925 -0.335755
v 0.050260 -0.151533 -0.282792
v 0.045739 -0.155925 -0.342916
v -0.044984 -0.151533 -0.275631
v -0.049225 -0.148238 -0.332043
v 0.049900 -0.144466 -0.287575
v 0.046018 -0.148238 -0.339205
v -0.045343 -0.144466 -0.280414
v -0.048807 -0.141775 -0.326475
v -0.045828 -0.138882 -0.286858
v 0.046437 -0.141775 -0.333636
v 0.049416 -0.138882 -0.294019
v -0.048277 -0.136979 -0.319428
v 0.046967 -0.136979 -0.326589
v -0.046404 -0.135160 -0.294523
v 0.048839 -0.135160 -0.301685
v -0.047672 -0.134175 -0.311383
v 0.047572 -0.134175 -0.318544
v -0.047033 -0.133554 -0.302888
v 0.048210 -0.133554 -0.310050
vn -0.9971851123498614 0 0.07497900844766042
vn -0.023584994763553913 -0.9492397892455339 -0.31366793035804236
vn -0.00435999844661131 -0.998307644321019 -0.05798997933921785
vn 0.015161008374897858 -0.9793425409860311 0.201639111384871
vn 0.03364998786828984 -0.8936366778203545 0.4475278386543838
vn 0.04984499716606276 -0.747030957527556 0.6629179623098003
vn -0.04120198827818021 -0.8354827623081121 -0.5479698441045194
vn 0.9971851123498614 0 -0.07497900844766042
vn 0.06264298929121322 -0.5495169060603676 0.8331308575767085
vn -0.05601101759233524 -0.6647892088016809 -0.7449282339723109
vn 0.07117299415093241 -0.3145529741497231 0.9465679222101047
vn -0.06700401560061377 -0.4487911044924938 -0.891121207480666
vn -0.07342997576895645 -0.20220893327338846 -0.9765856777380103
vn 0.074851963411471 -0.058153971573647795 0.9954975133889884
vn -0.074851963411471 0.058153971573647795 -0.9954975133889884
vn 0.07342997576895645 0.20220893327338846 0.9765856777380103
vn -0.07117299415093241 0.3145529741497231 -0.9465679222101047
vn 0.06700401560061377 0.4487911044924938 0.891121207480666
vn -0.06264298929121322 0.5495169060603676 -0.8331308575767085
vn 0.05601101759233524 0.6647892088016809 0.7449282339723109
vn -0.04984499716606276 0.747030957527556 -0.6629179623098003
vn 0.04120198827818021 0.8354827623081121 0.5479698441045194
vn -0.03364998786828984 0.8936366778203545 -0.4475278386543838
vn 0.023584994763553913 0.9492397892455339 0.31366793035804236
vn -0.015161008374897858 0.9793425409860311 -0.201639111384871
vn 0.00435999844661131 0.998307644321019 0.05798997933921785
usemtl material_0_0
f 1//1 2//1 3//1
f 2//1 1//1 4//1
f 2//2 5//3 3//3
f 3//3 6//4 1//4
f 1//4 7//5 4//5
f 2//1 4//1 8//1
f 5//3 2//2 9//2
f 6//4 3//3 5//3
f 7//5 1//4 6//4
f 10//6 4//5 7//5
f 8//1 4//1 11//1
f 8//7 9//2 2//2
f 9//8 6//8 5//8
f 6//8 9//8 7//8
f 4//5 10//6 11//6
f 7//8 12//8 10//8
f 8//1 11//1 13//1
f 9//2 8//7 12//7
f 7//8 9//8 12//8
f 10//6 14//9 11//6
f 10//8 12//8 15//8
f 13//1 11//1 14//1
f 13//10 12//7 8//7
f 14//9 10//6 16//9
f 12//7 13//10 15//10
f 10//8 15//8 16//8
f 13//1 14//1 17//1
f 16//9 18//11 14//9
f 13//10 19//12 15//10
f 16//8 15//8 19//8
f 17//1 14//1 18//1
f 19//12 13//10 17//12
f 18//11 16//9 20//11
f 16//8 19//8 20//8
f 17//1 18//1 21//1
f 17//12 22//13 19//12
f 20//11 23//14 18//11
f 20//8 19//8 22//8
f 21//1 18//1 23//1
f 22//13 17//12 21//13
f 23//14 20//11 24//14
f 20//8 22//8 24//8
f 21//1 23//1 25//1
f 21//13 26//15 22//13
f 27//16 23//14 24//14
f 24//8 22//8 26//8
f 25//1 23//1 28//1
f 26//15 21//13 25//15
f 23//14 27//16 28//16
f 24//8 26//8 27//8
f 25//1 28//1 29//1
f 29//17 26//15 25//15
f 30//18 28//16 27//16
f 27//8 26//8 31//8
f 29//1 28//1 32//1
f 26//15 29//17 31//17
f 28//16 30//18 32//18
f 27//8 31//8 30//8
f 29//1 32//1 33//1
f 33//19 31//17 29//17
f 34//20 32//18 30//18
f 30//8 31//8 35//8
f 33//1 32//1 36//1
f 31//17 33//19 35//19
f 32//18 34//20 36//20
f 30//8 35//8 34//8
f 33//1 36//1 37//1
f 37//21 35//19 33//19
f 34//20 38//22 36//20
f 34//8 35//8 39//8
f 37//1 36//1 38//1
f 35//19 37//21 39//21
f 38//22 34//20 40//22
f 34//8 39//8 40//8
f 37//1 38//1 41//1
f 37//21 42//23 39//21
f 40//22 43//24 38//22
f 40//8 39//8 42//8
f 41//1 38//1 43//1
f 42//23 37//21 41//23
f 43//24 40//22 44//24
f 40//8 42//8 44//8
f 41//1 43//1 45//1
f 41//23 46//25 42//23
f 44//24 47//26 43//24
f 44//8 42//8 46//8
f 45//1 43//1 47//1
f 46//25 41//23 45//25
f 47//26 44//24 48//26
f 44//8 46//8 48//8
f 48//26 45//25 47//26
f 45//25 48//26 46//25
usemtl material_1_0
f 3//8 2//8 1//8
f 4//8 1//8 2//8
f 3//26 5//26 2//24
f 1//25 6//25 3//26
f 4//23 7//23 1//25
f 8//8 4//8 2//8
f 9//24 2//24 5//26
f 5//26 3//26 6//25
f 6//25 1//25 7//23
f 7//23 4//23 10//21
f 11//8 4//8 8//8
f 2//24 9//24 8//22
f 5//1 6//1 9//1
f 7//1 9//1 6//1
f 11//21 10//21 4//23
f 10//1 12//1 7//1
f 13//8 11//8 8//8
f 12//22 8//22 9//24
f 12//1 9//1 7//1
f 11//21 14//19 10//21
f 15//1 12//1 10//1
f 14//8 11//8 13//8
f 8//22 12//22 13//20
f 16//19 10//21 14//19
f 15//20 13//20 12//22
f 16//1 15//1 10//1
f 17//8 14//8 13//8
f 14//19 18//17 16//19
f 15//20 19//18 13//20
f 19//1 15//1 16//1
f 18//8 14//8 17//8
f 17//18 13//20 19//18
f 20//17 16//19 18//17
f 20//1 19//1 16//1
f 21//8 18//8 17//8
f 19//18 22//16 17//18
f 18//17 23//15 20//17
f 22//1 19//1 20//1
f 23//8 18//8 21//8
f 21//16 17//18 22//16
f 24//15 20//17 23//15
f 24//1 22//1 20//1
f 25//8 23//8 21//8
f 22//16 26//14 21//16
f 24//15 23//15 27//13
f 26//1 22//1 24//1
f 28//8 23//8 25//8
f 25//14 21//16 26//14
f 28//13 27//13 23//15
f 27//1 26//1 24//1
f 29//8 28//8 25//8
f 25//14 26//14 29//11
f 27//13 28//13 30//12
f 31//1 26//1 27//1
f 32//8 28//8 29//8
f 31//11 29//11 26//14
f 32//12 30//12 28//13
f 30//1 31//1 27//1
f 33//8 32//8 29//8
f 29//11 31//11 33//9
f 30//12 32//12 34//10
f 35//1 31//1 30//1
f 36//8 32//8 33//8
f 35//9 33//9 31//11
f 36//10 34//10 32//12
f 34//1 35//1 30//1
f 37//8 36//8 33//8
f 33//9 35//9 37//6
f 36//10 38//7 34//10
f 39//1 35//1 34//1
f 38//8 36//8 37//8
f 39//6 37//6 35//9
f 40//7 34//10 38//7
f 40//1 39//1 34//1
f 41//8 38//8 37//8
f 39//6 42//5 37//6
f 38//7 43//2 40//7
f 42//1 39//1 40//1
f 43//8 38//8 41//8
f 41//5 37//6 42//5
f 44//2 40//7 43//2
f 44//1 42//1 40//1
f 45//8 43//8 41//8
f 42//5 46//4 41//5
f 43//2 47//3 44//2
f 46//1 42//1 44//1
f 47//8 43//8 45//8
f 45//4 41//5 46//4
f 48//3 44//2 47//3
f 48//1 46//1 44//1
f 47//3 45//4 48//3
f 46//4 48//3 45//4
