# SSTK version 0.8.0
# 25
mtllib original-25.mtl
o mesh44/mesh44-geometry#mesh44-geometry
v 0.005280 0.672834 0.169695
v 0.001352 0.672822 0.169392
v 0.003296 0.672819 0.169802
v 0.007168 0.672868 0.169079
v -0.000420 0.672845 0.168494
v 0.008832 0.672917 0.167995
v -0.001899 0.672885 0.167168
v 0.010159 0.672979 0.166517
v -0.002984 0.672939 0.165504
v 0.011058 0.673049 0.164747
v -0.003601 0.673005 0.163617
v 0.011467 0.673123 0.162804
v -0.003709 0.673077 0.161635
v 0.011360 0.673194 0.160821
v -0.003299 0.673150 0.159692
v 0.010742 0.673260 0.158934
v -0.002400 0.673220 0.157921
v 0.009657 0.673315 0.157271
v -0.001074 0.673282 0.156444
v 0.008179 0.673354 0.155945
v 0.000591 0.673332 0.155360
v 0.006407 0.673377 0.155046
v 0.002479 0.673365 0.154743
v 0.004463 0.673381 0.154636
vn -0.005832002645507808 0.9993134533076721 0.03658701659656964
vn 0.005832002645507808 -0.9993134533076721 -0.03658701659656964
usemtl material_0_0
f 1//1 2//1 3//1
f 2//1 1//1 4//1
f 3//2 2//2 1//2
f 4//2 1//2 2//2
f 2//1 4//1 5//1
f 5//2 4//2 2//2
f 5//1 4//1 6//1
f 6//2 4//2 5//2
f 5//1 6//1 7//1
f 7//2 6//2 5//2
f 7//1 6//1 8//1
f 8//2 6//2 7//2
f 7//1 8//1 9//1
f 9//2 8//2 7//2
f 9//1 8//1 10//1
f 10//2 8//2 9//2
f 9//1 10//1 11//1
f 11//2 10//2 9//2
f 11//1 10//1 12//1
f 12//2 10//2 11//2
f 11//1 12//1 13//1
f 13//2 12//2 11//2
f 13//1 12//1 14//1
f 14//2 12//2 13//2
f 13//1 14//1 15//1
f 15//2 14//2 13//2
f 15//1 14//1 16//1
f 16//2 14//2 15//2
f 15//1 16//1 17//1
f 17//2 16//2 15//2
f 17//1 16//1 18//1
f 18//2 16//2 17//2
f 17//1 18//1 19//1
f 19//2 18//2 17//2
f 19//1 18//1 20//1
f 20//2 18//2 19//2
f 19//1 20//1 21//1
f 21//2 20//2 19//2
f 21//1 20//1 22//1
f 22//2 20//2 21//2
f 21//1 22//1 23//1
f 23//2 22//2 21//2
f 23//1 22//1 24//1
f 24//2 22//2 23//2
