mtllib new-1.mtl
v 0.528825 0.723939 0.399531
v -0.486328 -0.585935 0.399531
v -0.486328 0.723939 0.399531
v 0.528825 -0.585935 0.399531
v -0.491785 0.734855 0.399531
v 0.534282 0.723939 0.486856
v 0.534282 -0.585935 0.399531
v -0.491785 0.723939 0.399531
v 0.534282 0.723939 0.399531
v -0.491785 0.723939 0.486856
v 0.534282 0.734855 0.399531
v 0.534282 0.734855 0.486856
v -0.491785 0.734855 0.486856
v -0.491785 -0.585935 0.486856
v 0.534282 -0.585935 0.486856
v -0.491785 -0.585935 0.399531
vn 0.000000 0.000000 -1.000000
vn 0.000000 0.000000 1.000000
vn 0.000000 -1.000000 0.000000
vn 0.000000 1.000000 0.000000
vn 1.000000 0.000000 0.000000
vn -1.000000 0.000000 0.000000
vt 0.554167 1.116667
vt 0.620833 0.116667
vt 0.620833 1.116667
vt -0.620833 1.116667
vt -0.554167 0.116667
vt -0.554167 1.116667
vt 0.541667 0.116667
vt 1.325000 1.116667
vt 0.541667 1.116667
vt 0.554167 0.116667
vt -0.620833 0.116667
vt 1.325000 0.116667
usemtl material-0
f 4//1 3//1 1//1
f 1//2 3//2 4//2
f 3//1 5//1 1//1
f 1//2 5//2 3//2
f 3//4 6//4 1//4
f 1//3 6//3 3//3
f 1//1 7//1 4//1
f 4//2 7//2 1//2
f 3//1 4//1 2//1
f 2//2 4//2 3//2
f 1//1 5//1 9//1
f 9//2 5//2 1//2
f 8//4 6//4 3//4
f 3//3 6//3 8//3
f 1//4 6//4 9//4
f 9//3 6//3 1//3
f 7//1 1//1 9//1
f 9//2 1//2 7//2
f 8//5 5//5 10//5
f 9//1 5//1 11//1
f 11//2 5//2 9//2
f 6//4 8//4 10//4
f 10//3 8//3 6//3
f 9//6 7//6 6//6
f 6//6 12//6 9//6
f 13//5 10//5 5//5
f 10//5 14//5 8//5
f 11//3 12//3 5//3
f 11//6 9//6 12//6
f 10//1 6//1 14//1
f 6//1 10//1 12//1
f 15//6 6//6 7//6
f 13//1 12//1 10//1
f 13//3 5//3 12//3
f 16//5 8//5 14//5
f 15//1 14//1 6//1
usemtl material-2
f 10//6 5//6 8//6
f 9//5 12//5 6//5
f 5//6 10//6 13//6
f 5//4 12//4 11//4
f 12//5 9//5 11//5
f 12//2 10//2 6//2
f 10//2 12//2 13//2
f 12//4 5//4 13//4
usemtl material-3
f 6/1/5 7/2/5 9/3/5
f 8/4/6 14/5/6 10/6/6
f 14/7/2 6/8/2 10/9/2
f 7/2/5 6/1/5 15/10/5
f 14/5/6 8/4/6 16/11/6
f 6/8/2 14/7/2 15/12/2