# SSTK version 0.8.0
# 67
mtllib original-67.mtl
o mesh67/mesh67-geometry#mesh67-geometry
v 0.849835 0.025760 0.085543
v 0.779763 0.025760 0.015535
v 0.779763 0.025760 0.085543
v 0.849835 0.025760 0.015535
v 0.779763 0.006141 0.085543
v 0.849835 0.006141 0.015535
v 0.779763 0.006141 0.015535
v 0.849835 0.006141 0.085543
vt 0.941493 0.34441
vt 0.905711 0.471558
vt 0.905711 0.34441
vt 0.941493 0.471558
vn 0 1 0
vn 0 -1 0
vn -1 0 0
vn 1 0 0
vn 0 0 1
vn 0 0 -1
usemtl material_0_0
f 1/1/1 2/2/1 3/3/1
f 2/2/1 1/1/1 4/4/1
f 3/3/2 2/2/2 1/1/2
f 4/4/2 1/1/2 2/2/2
f 2/2/3 5/3/3 3/3/3
f 3/3/4 5/3/4 2/2/4
f 5/3/5 1/1/5 3/3/5
f 3/3/6 1/1/6 5/3/6
f 1/1/4 6/4/4 4/4/4
f 4/4/3 6/4/3 1/1/3
f 6/4/6 2/2/6 4/4/6
f 4/4/5 2/2/5 6/4/5
f 5/3/3 2/2/3 7/2/3
f 7/2/4 2/2/4 5/3/4
f 1/1/5 5/3/5 8/1/5
f 8/1/6 5/3/6 1/1/6
f 6/4/4 1/1/4 8/1/4
f 8/1/3 1/1/3 6/4/3
f 2/2/6 6/4/6 7/2/6
f 7/2/5 6/4/5 2/2/5
