# SSTK version 0.8.0
# 17
mtllib original-17.mtl
o mesh17/mesh17-geometry#mesh17-geometry
v 0.394051 0.025760 -0.077140
v 0.322660 0.006141 -0.077140
v 0.394051 0.006141 -0.077140
v 0.322660 0.025760 -0.077140
v 0.394051 0.006141 -0.152786
v 0.322660 0.025760 -0.152786
v 0.394051 0.025760 -0.152786
v 0.322660 0.006141 -0.152786
vt 0.708747 0.639871
vt 0.672291 0.639871
vt 0.708747 0.777257
vt 0.672291 0.777257
vn 0 0 1
vn 0 0 -1
vn 1 0 0
vn -1 0 0
vn 0 1 0
vn 0 -1 0
usemtl material_0_0
f 1/1/1 2/2/1 3/1/1
f 2/2/1 1/1/1 4/2/1
f 3/1/2 2/2/2 1/1/2
f 4/2/2 1/1/2 2/2/2
f 5/3/3 1/1/3 3/1/3
f 3/1/4 1/1/4 5/3/4
f 1/1/5 6/4/5 4/2/5
f 4/2/6 6/4/6 1/1/6
f 6/4/4 2/2/4 4/2/4
f 4/2/3 2/2/3 6/4/3
f 1/1/3 5/3/3 7/3/3
f 7/3/4 5/3/4 1/1/4
f 6/4/5 1/1/5 7/3/5
f 7/3/6 1/1/6 6/4/6
f 2/2/4 6/4/4 8/4/4
f 8/4/3 6/4/3 2/2/3
f 5/3/2 6/4/2 7/3/2
f 7/3/1 6/4/1 5/3/1
f 6/4/2 5/3/2 8/4/2
f 8/4/1 5/3/1 6/4/1
