# SSTK version 0.8.0
# 50
mtllib original-50.mtl
o mesh50/mesh50-geometry#mesh50-geometry
v 0.030105 0.025760 -0.148986
v 0.099282 0.006141 -0.148986
v 0.030105 0.006141 -0.148986
v 0.099282 0.025760 -0.148986
v 0.030105 0.006141 -0.082060
v 0.099282 0.025760 -0.082060
v 0.030105 0.025760 -0.082060
v 0.099282 0.006141 -0.082060
vt 0.522898 0.770356
vt 0.558223 0.770356
vt 0.522898 0.648806
vt 0.558223 0.648806
vn 0 0 -1
vn 0 0 1
vn -1 0 0
vn 1 0 0
vn 0 1 0
vn 0 -1 0
usemtl material_0_0
f 1/1/1 2/2/1 3/1/1
f 2/2/1 1/1/1 4/2/1
f 3/1/2 2/2/2 1/1/2
f 4/2/2 1/1/2 2/2/2
f 5/3/3 1/1/3 3/1/3
f 3/1/4 1/1/4 5/3/4
f 1/1/5 6/4/5 4/2/5
f 4/2/6 6/4/6 1/1/6
f 6/4/4 2/2/4 4/2/4
f 4/2/3 2/2/3 6/4/3
f 1/1/3 5/3/3 7/3/3
f 7/3/4 5/3/4 1/1/4
f 6/4/5 1/1/5 7/3/5
f 7/3/6 1/1/6 6/4/6
f 2/2/4 6/4/4 8/4/4
f 8/4/3 6/4/3 2/2/3
f 5/3/2 6/4/2 7/3/2
f 7/3/1 6/4/1 5/3/1
f 6/4/2 5/3/2 8/4/2
f 8/4/1 5/3/1 6/4/1
