# SSTK version 0.8.0
# 87
mtllib original-87.mtl
o mesh87/mesh87-geometry#mesh87-geometry
v -0.359519 0.025760 0.002318
v -0.429800 0.025760 -0.068330
v -0.429800 0.025760 0.002318
v -0.359519 0.025760 -0.068330
v -0.429800 0.006141 0.002318
v -0.359519 0.006141 -0.068330
v -0.429800 0.006141 -0.068330
v -0.359519 0.006141 0.002318
vt 0.323936 0.495561
vt 0.288047 0.623871
vt 0.288047 0.495561
vt 0.323936 0.623871
vn 0 1 0
vn 0 -1 0
vn -1 0 0
vn 1 0 0
vn 0 0 1
vn 0 0 -1
usemtl material_0_0
f 1/1/1 2/2/1 3/3/1
f 2/2/1 1/1/1 4/4/1
f 3/3/2 2/2/2 1/1/2
f 4/4/2 1/1/2 2/2/2
f 2/2/3 5/3/3 3/3/3
f 3/3/4 5/3/4 2/2/4
f 5/3/5 1/1/5 3/3/5
f 3/3/6 1/1/6 5/3/6
f 1/1/4 6/4/4 4/4/4
f 4/4/3 6/4/3 1/1/3
f 6/4/6 2/2/6 4/4/6
f 4/4/5 2/2/5 6/4/5
f 5/3/3 2/2/3 7/2/3
f 7/2/4 2/2/4 5/3/4
f 1/1/5 5/3/5 8/1/5
f 8/1/6 5/3/6 1/1/6
f 6/4/4 1/1/4 8/1/4
f 8/1/3 1/1/3 6/4/3
f 2/2/6 6/4/6 7/2/6
f 7/2/5 6/4/5 2/2/5
