# SSTK version 0.8.0
# 7
mtllib original-7.mtl
o Group7/mesh22/mesh22-geometry#mesh22-geometry
v 0.038204 0.293257 -0.010192
v 0.034823 0.283022 0.114028
v 0.034823 0.283022 -0.010192
v 0.038204 0.293257 0.114028
v 0.029026 0.274052 0.114028
v 0.036975 0.314690 -0.010192
v 0.038938 0.304058 -0.010192
v 0.036975 0.314690 0.114028
v 0.029026 0.274052 -0.010192
v 0.032448 0.324428 0.114028
v 0.032448 0.324428 -0.010192
v 0.038938 0.304058 0.114028
v 0.021206 0.266957 -0.010192
v 0.025666 0.332608 0.114028
v 0.021206 0.266957 0.114028
v 0.025666 0.332608 -0.010192
v 0.011898 0.262221 -0.010192
v 0.017091 0.338674 -0.010192
v 0.017091 0.338674 0.114028
v 0.011898 0.262221 0.114028
v 0.001735 0.260167 -0.010192
v 0.007308 0.342211 -0.010192
v 0.007308 0.342211 0.114028
v 0.001735 0.260167 0.114028
v -0.008590 0.260934 -0.010192
v -0.003017 0.342978 -0.010192
v -0.003017 0.342978 0.114028
v -0.008590 0.260934 0.114028
v -0.018373 0.264471 -0.010192
v -0.013179 0.340924 -0.010192
v -0.013179 0.340924 0.114028
v -0.018373 0.264471 0.114028
v -0.026948 0.270537 -0.010192
v -0.022488 0.336188 -0.010192
v -0.022488 0.336188 0.114028
v -0.026948 0.270537 0.114028
v -0.033730 0.278717 0.114028
v -0.030307 0.329094 -0.010192
v -0.030307 0.329094 0.114028
v -0.033730 0.278717 -0.010192
v -0.038256 0.288455 0.114028
v -0.036105 0.320123 0.114028
v -0.036105 0.320123 -0.010192
v -0.038256 0.288455 -0.010192
v -0.040220 0.299087 0.114028
v -0.039486 0.309889 0.114028
v -0.039486 0.309889 -0.010192
v -0.040220 0.299087 -0.010192
vn 0.9778437803606662 -0.20933595297980087 0
vn 0.8860979727046385 -0.4634979857224083 0
vn -0.8860979727046385 0.4634979857224083 0
vn -0.9778437803606662 0.20933595297980087 0
vn 0.733120152415329 -0.6800991413922862 0
vn -0.733120152415329 0.6800991413922862 0
vn 0 0 -1
vn 0 0 1
vn 0.9980343023764944 0.06267001898726386 0
vn -0.9980343023764944 -0.06267001898726386 0
vn 0.5337189495088555 -0.845661919998272 0
vn -0.5337189495088555 0.845661919998272 0
vn 0.822800014168205 0.568331009786376 0
vn 0.9442351014066062 0.32927203536233673 0
vn -0.9442351014066062 -0.32927203536233673 0
vn -0.822800014168205 -0.568331009786376 0
vn 0.6465979650303665 0.7628309587441958 0
vn -0.6465979650303665 -0.7628309587441958 0
vn 0.30358902463169657 -0.9528030773056809 0
vn -0.30358902463169657 0.9528030773056809 0
vn 0.4312211303674387 0.9022462727684878 0
vn -0.4312211303674387 -0.9022462727684878 0
vn 0.057281005466756234 -0.9983580952808054 0
vn -0.057281005466756234 0.9983580952808054 0
vn 0.19196899810315432 0.9814009903027768 0
vn -0.19196899810315432 -0.9814009903027768 0
usemtl material_0_0
f 1//1 2//2 3//2
f 2//2 1//1 4//1
f 3//3 2//3 1//4
f 4//4 1//4 2//3
f 5//5 3//2 2//2
f 2//3 3//3 5//6
f 3//7 6//7 1//7
f 1//8 6//8 3//8
f 7//9 4//1 1//1
f 1//4 4//4 7//10
f 8//8 2//8 4//8
f 4//7 2//7 8//7
f 3//2 5//5 9//5
f 9//6 5//6 3//3
f 10//8 5//8 2//8
f 2//7 5//7 10//7
f 3//7 11//7 6//7
f 6//8 11//8 3//8
f 1//7 6//7 7//7
f 7//8 6//8 1//8
f 4//1 7//9 12//9
f 12//10 7//10 4//4
f 10//8 2//8 8//8
f 8//7 2//7 10//7
f 8//8 4//8 12//8
f 12//7 4//7 8//7
f 5//5 13//11 9//5
f 9//6 13//12 5//6
f 9//7 11//7 3//7
f 3//8 11//8 9//8
f 14//8 5//8 10//8
f 10//7 5//7 14//7
f 11//13 8//14 6//14
f 6//15 8//15 11//16
f 6//14 12//9 7//9
f 7//10 12//10 6//15
f 8//14 11//13 10//13
f 10//16 11//16 8//15
f 12//9 6//14 8//14
f 8//15 6//15 12//10
f 13//11 5//5 15//11
f 15//12 5//6 13//12
f 13//7 16//7 9//7
f 9//8 16//8 13//8
f 9//7 16//7 11//7
f 11//8 16//8 9//8
f 14//8 15//8 5//8
f 5//7 15//7 14//7
f 10//13 16//17 14//17
f 14//18 16//18 10//16
f 16//17 10//13 11//13
f 11//16 10//16 16//18
f 15//11 17//19 13//11
f 13//12 17//20 15//12
f 13//7 18//7 16//7
f 16//8 18//8 13//8
f 19//8 15//8 14//8
f 14//7 15//7 19//7
f 16//17 19//21 14//17
f 14//18 19//22 16//18
f 17//19 15//11 20//19
f 20//20 15//12 17//20
f 17//7 18//7 13//7
f 13//8 18//8 17//8
f 19//21 16//17 18//21
f 18//22 16//18 19//22
f 19//8 20//8 15//8
f 15//7 20//7 19//7
f 20//19 21//23 17//19
f 17//20 21//24 20//20
f 17//7 22//7 18//7
f 18//8 22//8 17//8
f 18//21 23//25 19//21
f 19//22 23//26 18//22
f 23//8 20//8 19//8
f 19//7 20//7 23//7
f 21//23 20//19 24//23
f 24//24 20//20 21//24
f 21//7 22//7 17//7
f 17//8 22//8 21//8
f 23//25 18//21 22//25
f 22//26 18//22 23//26
f 23//8 24//8 20//8
f 20//7 24//7 23//7
f 24//23 25//26 21//23
f 21//24 25//25 24//24
f 21//7 26//7 22//7
f 22//8 26//8 21//8
f 22//25 27//24 23//25
f 23//26 27//23 22//26
f 27//8 24//8 23//8
f 23//7 24//7 27//7
f 25//26 24//23 28//26
f 28//25 24//24 25//25
f 25//7 26//7 21//7
f 21//8 26//8 25//8
f 27//24 22//25 26//24
f 26//23 22//26 27//23
f 27//8 28//8 24//8
f 24//7 28//7 27//7
f 28//26 29//22 25//26
f 25//25 29//21 28//25
f 25//7 30//7 26//7
f 26//8 30//8 25//8
f 26//24 31//20 27//24
f 27//23 31//19 26//23
f 31//8 28//8 27//8
f 27//7 28//7 31//7
f 29//22 28//26 32//22
f 32//21 28//25 29//21
f 29//7 30//7 25//7
f 25//8 30//8 29//8
f 31//20 26//24 30//20
f 30//19 26//23 31//19
f 31//8 32//8 28//8
f 28//7 32//7 31//7
f 32//22 33//18 29//22
f 29//21 33//17 32//21
f 29//7 34//7 30//7
f 30//8 34//8 29//8
f 30//20 35//12 31//20
f 31//19 35//11 30//19
f 35//8 32//8 31//8
f 31//7 32//7 35//7
f 33//18 32//22 36//18
f 36//17 32//21 33//17
f 33//7 34//7 29//7
f 29//8 34//8 33//8
f 35//12 30//20 34//12
f 34//11 30//19 35//11
f 35//8 36//8 32//8
f 32//7 36//7 35//7
f 37//16 33//18 36//18
f 36//17 33//17 37//13
f 33//7 38//7 34//7
f 34//8 38//8 33//8
f 34//12 39//6 35//12
f 35//11 39//5 34//11
f 39//8 36//8 35//8
f 35//7 36//7 39//7
f 33//18 37//16 40//16
f 40//13 37//13 33//17
f 39//8 37//8 36//8
f 36//7 37//7 39//7
f 40//7 38//7 33//7
f 33//8 38//8 40//8
f 39//6 34//12 38//6
f 38//5 34//11 39//5
f 41//15 40//16 37//16
f 37//13 40//13 41//14
f 42//8 37//8 39//8
f 39//7 37//7 42//7
f 40//7 43//7 38//7
f 38//8 43//8 40//8
f 43//3 39//6 38//6
f 38//5 39//5 43//2
f 40//16 41//15 44//15
f 44//14 41//14 40//13
f 42//8 41//8 37//8
f 37//7 41//7 42//7
f 39//6 43//3 42//3
f 42//2 43//2 39//5
f 44//7 43//7 40//7
f 40//8 43//8 44//8
f 45//10 44//15 41//15
f 41//14 44//14 45//9
f 46//8 41//8 42//8
f 42//7 41//7 46//7
f 47//4 42//3 43//3
f 43//2 42//2 47//1
f 44//7 47//7 43//7
f 43//8 47//8 44//8
f 44//15 45//10 48//10
f 48//9 45//9 44//14
f 41//8 46//8 45//8
f 45//7 46//7 41//7
f 42//3 47//4 46//4
f 46//1 47//1 42//2
f 47//7 44//7 48//7
f 48//8 44//8 47//8
f 46//4 48//10 45//10
f 45//9 48//9 46//1
f 48//10 46//4 47//4
f 47//1 46//1 48//9
