mtllib new-2.mtl
v -0.580093 0.653399 0.468823
v -0.580093 0.476623 0.488465
v -0.580093 -0.544749 0.488465
v -0.580093 -0.544749 0.449181
v 0.598413 0.476623 0.488465
v -0.580093 -0.544749 0.488465
v 0.598413 -0.544749 0.488465
v 0.441760 0.458469 0.488465
v 0.284562 0.445891 0.488465
v 0.127011 0.439077 0.488465
v 0.107652 0.438432 0.488465
v 0.009160 0.437339 0.488465
v -0.423440 0.458469 0.488465
v -0.580093 0.476623 0.488465
v -0.266241 0.445891 0.488465
v -0.108690 0.439077 0.488465
v -0.089331 0.438432 0.488465
v -0.423440 0.458469 0.508106
v -0.108690 0.496265 0.508106
v -0.266241 0.445891 0.508106
v -0.108690 0.439077 0.508106
v 0.598413 -0.544749 0.449181
v 0.598413 0.476623 0.488465
v 0.598413 -0.544749 0.488465
v 0.598413 0.653399 0.468823
v 0.598413 0.653399 0.449181
v 0.284562 0.445891 0.508106
v 0.284562 0.445891 0.488465
v 0.127011 0.439077 0.498285
v 0.127011 0.439077 0.508106
v 0.127011 0.439077 0.488465
v 0.107652 0.438432 0.498285
v 0.127011 0.439077 0.498285
v 0.009160 0.437339 0.498285
v 0.009160 0.437339 0.488465
v -0.089331 0.438432 0.498285
v -0.108690 0.439077 0.488465
v -0.266241 0.445891 0.508106
v -0.266241 0.445891 0.488465
v -0.108690 0.439077 0.508106
v -0.108690 0.439077 0.498285
v -0.108690 0.496265 0.508106
v -0.108690 0.439077 0.508106
v 0.107652 0.438432 0.498285
v -0.089331 0.438432 0.498285
v 0.009160 0.437339 0.498285
v 0.127011 0.439077 0.498285
v -0.108690 0.439077 0.498285
v 0.127011 0.496265 0.498285
vn -1.000000 0.000000 0.000000
vn 0.000000 -1.000000 0.000000
vn 0.000000 0.000000 1.000000
vn -0.097454 -0.995240 0.000000
vn 1.000000 0.000000 0.000000
vn 0.061495 -0.998107 0.000000
vn 0.043209 -0.999066 0.000000
vn 0.033278 -0.999446 0.000000
vn 0.022188 -0.999754 0.000000
vn -0.022188 -0.999754 0.000000
vn -0.043209 -0.999066 0.000000
vn -0.061495 -0.998107 0.000000
usemtl material-0
f 2//1 1//1 3//1
f 3//1 1//1 4//1
f 5//3 6//3 7//3
f 6//3 5//3 8//3
f 6//3 8//3 9//3
f 6//3 9//3 10//3
f 6//3 10//3 11//3
f 6//3 11//3 12//3
f 6//3 13//3 14//3
f 13//3 6//3 15//3
f 15//3 6//3 16//3
f 16//3 6//3 17//3
f 17//3 6//3 12//3
f 19//3 20//3 21//3
f 22//5 23//5 24//5
f 23//5 22//5 25//5
f 25//5 22//5 26//5
f 29//7 28//6 30//7
f 30//7 28//6 27//6
f 32//9 31//8 33//8
f 36//10 35//2 34//2
f 38//12 37//11 40//11
f 18//4 39//12 38//12
f 41//5 42//5 43//5
f 44//3 45//3 46//3
f 45//3 47//3 48//3
f 48//3 47//3 49//3