mtllib new-2.mtl
v -0.432403 -0.800886 0.306737
v 0.404217 -0.800886 0.306737
v -0.432403 -0.748597 0.306737
v 0.404217 -0.748597 0.306737
v -0.432403 -0.748597 -0.529884
v -0.380115 -0.748597 -0.477595
v -0.380115 -0.748597 0.254448
v 0.404217 -0.748597 -0.529884
v 0.351928 -0.748597 -0.477595
v 0.351928 -0.748597 0.254448
v -0.380115 -0.728989 -0.477595
v 0.351928 -0.728989 0.254448
v 0.351928 -0.728989 -0.477595
v -0.380115 -0.728989 0.254448
vn -1.000000 0.000000 0.000000
vn 0.000000 -1.000000 0.000000
vn 0.000000 0.000000 1.000000
vn 0.000000 1.000000 0.000000
vn 0.000000 0.000000 -1.000000
vn 1.000000 0.000000 0.000000
vt -0.519572 1.214794
vt -0.517208 1.229401
vt -0.283491 1.191583
vt -0.298098 1.193946
vt -0.502601 1.227038
vt -0.501715 1.232515
vt -0.297212 1.199424
usemtl material-0
f 1/1/5 4/2/5 2/1/5
f 4/2/5 1/1/5 3/2/5
f 5/3/2 6/4/2 3/2/2
f 3/2/2 7/5/2 4/2/2
f 6/4/2 5/3/2 9/4/2
f 3/2/2 6/4/2 7/5/2
f 10/5/2 4/2/2 7/5/2
f 9/4/2 8/3/2 4/2/2
f 8/3/2 9/4/2 5/3/2
f 9/4/2 4/2/2 10/5/2
f 7/5/5 12/6/5 10/5/5
f 12/6/5 7/5/5 14/6/5
f 12/6/2 11/7/2 13/7/2
f 13/7/4 11/7/4 12/6/4
f 11/7/2 12/6/2 14/6/2
f 14/6/4 12/6/4 11/7/4
usemtl material-1
f 2//3 4//3 1//3
f 3//3 1//3 4//3
f 3//4 6//4 5//4
f 4//4 7//4 3//4
f 9//4 5//4 6//4
f 7//4 6//4 3//4
f 7//4 4//4 10//4
f 4//4 8//4 9//4
f 5//4 9//4 8//4
f 9//3 11//3 6//3
f 6//5 11//5 9//5
f 11//6 7//6 6//6
f 6//1 7//1 11//1
f 10//4 4//4 9//4
f 10//3 12//3 7//3
f 11//3 9//3 13//3
f 13//5 9//5 11//5
f 7//6 11//6 14//6
f 14//1 11//1 7//1
f 12//1 9//1 10//1
f 10//6 9//6 12//6
f 14//3 7//3 12//3
f 9//1 12//1 13//1
f 13//6 12//6 9//6