# SSTK version 0.8.0
# 42
mtllib original-42.mtl
o Group42/mesh42/mesh42-geometry#mesh42-geometry
v -0.062283 -0.244738 -0.493449
v -0.056425 -0.269657 -0.493372
v -0.061408 -0.244738 -0.493372
v -0.057232 -0.269993 -0.493449
v -0.063138 -0.244738 -0.493681
v -0.035493 -0.296569 -0.493372
v -0.058021 -0.270322 -0.493681
v -0.036018 -0.297269 -0.493449
v -0.063932 -0.244738 -0.494056
v 0.003380 -0.309527 -0.493372
v -0.058754 -0.270627 -0.494056
v -0.036531 -0.297952 -0.493681
v 0.003380 -0.310402 -0.493449
v 0.042253 -0.296569 -0.493372
v -0.037007 -0.298588 -0.494056
v 0.003380 -0.311256 -0.493681
v 0.042778 -0.297269 -0.493449
v 0.063185 -0.269657 -0.493372
v 0.003380 -0.312050 -0.494056
v 0.043291 -0.297952 -0.493681
v 0.063992 -0.269993 -0.493449
v 0.068168 -0.244738 -0.493372
v 0.043767 -0.298588 -0.494056
v 0.064781 -0.270322 -0.493681
v 0.069043 -0.244738 -0.493449
v 0.065514 -0.270627 -0.494056
v 0.069898 -0.244738 -0.493681
v 0.070692 -0.244738 -0.494056
vn -0.14631795121431102 -0.029263990242729052 0.9888046703103297
vn -0.08263098889249533 -0.030385995915423767 0.9961168660989915
vn -0.08794897029079889 -0.01758999405809244 0.9959696635610066
vn 0.08794897029079889 0.01758999405809244 -0.9959696635610066
vn 0.08263098889249533 0.030385995915423767 -0.9961168660989915
vn 0.14631795121431102 0.029263990242729052 -0.9888046703103297
vn -0.16220901733349427 -0.06704500716436301 0.9844761052001376
vn 0.16220901733349427 0.06704500716436301 -0.9844761052001376
vn -0.3174458815549322 -0.06348897631106128 0.9461486469740289
vn 0.3174458815549322 0.06348897631106128 -0.9461486469740289
vn -0.05775297295631045 -0.0666359687967156 0.9961045335592198
vn 0.05775297295631045 0.0666359687967156 -0.9961045335592198
vn -0.31701799297139416 -0.13856299692792004 0.9382429791982152
vn 0.31701799297139416 0.13856299692792004 -0.9382429791982152
vn -0.10808094959478566 -0.13827693551242312 0.9844785408732801
vn 0.10808094959478566 0.13827693551242312 -0.9844785408732801
vn -0.4259829253211529 -0.08519698506416064 0.9007108420968465
vn 0.4259829253211529 0.08519698506416064 -0.9007108420968465
vn -0.00977300235007018 -0.0879580211508723 0.9960762395219998
vn 0.00977300235007018 0.0879580211508723 -0.9960762395219998
vn -0.37531614319120526 -0.2095010799291817 0.9029103444797748
vn 0.37531614319120526 0.2095010799291817 -0.9029103444797748
vn -0.20587887989019357 -0.2779038378708095 0.9382874526027907
vn 0.20587887989019357 0.2779038378708095 -0.9382874526027907
vn -0.009663996690265316 -0.17542893991893171 0.984444662846465
vn 0.009663996690265316 0.17542893991893171 -0.984444662846465
vn 0.043535017285364366 -0.07729403068921473 0.9960573954796871
vn -0.043535017285364366 0.07729403068921473 -0.9960573954796871
vn -0.2114309941483302 -0.37501398962092575 0.9025859750195796
vn 0.2114309941483302 0.37501398962092575 -0.9025859750195796
vn -0.009120999276846163 -0.34576197258643626 0.9382779256091067
vn 0.009120999276846163 0.34576197258643626 -0.9382779256091067
vn 0.09399495532787414 -0.14879592928311489 0.9843905321576825
vn -0.09399495532787414 0.14879592928311489 -0.9843905321576825
vn 0.07729697730476053 -0.043177987322470045 0.9960727075421392
vn -0.07729697730476053 0.043177987322470045 -0.9960727075421392
vn 0.04745098930393135 -0.427054903736284 0.9029797964566378
vn -0.04745098930393135 0.427054903736284 -0.9029797964566378
vn 0.19251307200038364 -0.28777510762863 0.938149350870268
vn -0.19251307200038364 0.28777510762863 -0.938149350870268
vn 0.15689693849217595 -0.07970296875429062 0.9843936140912003
vn -0.15689693849217595 0.07970296875429062 -0.9843936140912003
vn 0.08794897029079889 -0.01758999405809244 0.9959696635610066
vn -0.08794897029079889 0.01758999405809244 -0.9959696635610066
vn 0.28072798473288973 -0.3236279823998166 0.9035799508597093
vn -0.28072798473288973 0.3236279823998166 -0.9035799508597093
vn 0.31190709636480396 -0.1505300465067921 0.93811228983312
vn -0.31190709636480396 0.1505300465067921 -0.93811228983312
vn 0.20436903948032142 -0.04087400789610314 0.9780401889392891
vn -0.20436903948032142 0.04087400789610314 -0.9780401889392891
vn 0.4016120111178254 -0.14754100408437784 0.9038470250211974
vn -0.4016120111178254 0.14754100408437784 -0.9038470250211974
vn 0.37247893266084353 -0.07449598653213277 0.9250458327642167
vn -0.37247893266084353 0.07449598653213277 -0.9250458327642167
vn 0.4259829253211529 -0.08519698506416064 0.9007108420968465
vn -0.4259829253211529 0.08519698506416064 -0.9007108420968465
usemtl material_0_0
f 1//1 2//2 3//3
f 3//4 2//5 1//6
f 1//1 4//7 2//2
f 2//5 4//8 1//6
f 5//9 4//7 1//1
f 1//6 4//8 5//10
f 2//2 4//7 6//11
f 6//12 4//8 2//5
f 5//9 7//13 4//7
f 4//8 7//14 5//10
f 4//7 8//15 6//11
f 6//12 8//16 4//8
f 9//17 7//13 5//9
f 5//10 7//14 9//18
f 4//7 7//13 8//15
f 8//16 7//14 4//8
f 6//11 8//15 10//19
f 10//20 8//16 6//12
f 9//17 11//21 7//13
f 7//14 11//22 9//18
f 7//13 12//23 8//15
f 8//16 12//24 7//14
f 8//15 13//25 10//19
f 10//20 13//26 8//16
f 7//13 11//21 12//23
f 12//24 11//22 7//14
f 8//15 12//23 13//25
f 13//26 12//24 8//16
f 14//27 10//19 13//25
f 13//26 10//20 14//28
f 11//21 15//29 12//23
f 12//24 15//30 11//22
f 12//23 16//31 13//25
f 13//26 16//32 12//24
f 14//27 13//25 17//33
f 17//34 13//26 14//28
f 12//23 15//29 16//31
f 16//32 15//30 12//24
f 17//33 13//25 16//31
f 16//32 13//26 17//34
f 18//35 14//27 17//33
f 17//34 14//28 18//36
f 15//29 19//37 16//31
f 16//32 19//38 15//30
f 17//33 16//31 20//39
f 20//40 16//32 17//34
f 18//35 17//33 21//41
f 21//42 17//34 18//36
f 20//39 16//31 19//37
f 19//38 16//32 20//40
f 21//41 17//33 20//39
f 20//40 17//34 21//42
f 22//43 18//35 21//41
f 21//42 18//36 22//44
f 20//39 19//37 23//45
f 23//46 19//38 20//40
f 21//41 20//39 24//47
f 24//48 20//40 21//42
f 22//43 21//41 25//49
f 25//50 21//42 22//44
f 24//47 20//39 23//45
f 23//46 20//40 24//48
f 25//49 21//41 24//47
f 24//48 21//42 25//50
f 24//47 23//45 26//51
f 26//52 23//46 24//48
f 25//49 24//47 27//53
f 27//54 24//48 25//50
f 27//53 24//47 26//51
f 26//52 24//48 27//54
f 27//53 26//51 28//55
f 28//56 26//52 27//54
