# SSTK version 0.8.0
# 178
mtllib original-178.mtl
o Group137/mesh173/mesh173-geometry#mesh173-geometry
v 0.061259 -0.224641 -0.031697
v 0.060976 -0.226796 -0.032888
v 0.081203 -0.227259 -0.031697
v 0.079699 -0.238722 -0.036704
v 0.061799 -0.220529 -0.029048
v 0.060056 -0.233804 -0.035945
v 0.082104 -0.220398 -0.026964
v 0.059967 -0.234483 -0.036181
v 0.062593 -0.214481 -0.024065
v 0.059877 -0.235168 -0.036409
v 0.063327 -0.208884 -0.017852
v 0.059787 -0.235861 -0.036629
v 0.083693 -0.208288 -0.013209
v 0.059695 -0.236560 -0.036841
v 0.075606 -0.204035 -0.007380
v 0.058862 -0.241326 -0.038021
v 0.084654 -0.200971 0.005716
v 0.077905 -0.252389 -0.039014
v 0.057767 -0.246912 -0.038834
v 0.057039 -0.252429 -0.039051
v 0.077546 -0.255120 -0.039051
v 0.056595 -0.258584 -0.038632
v 0.056079 -0.264107 -0.037649
v 0.075112 -0.273666 -0.035534
v 0.054794 -0.273898 -0.034358
v 0.053602 -0.282984 -0.029203
v 0.072926 -0.290325 -0.025480
v 0.052566 -0.290871 -0.022456
v 0.051735 -0.297205 -0.014549
v 0.071294 -0.302758 -0.009542
v 0.062454 -0.304243 -0.003710
v 0.070559 -0.308359 0.007906
vn -0.06631702106659984 -0.5052701605066712 0.860409273321955
vn -0.06280898669947617 -0.4207089109100596 0.9050188083518798
vn -0.06935500731175204 -0.4916420518313663 0.8680310915121826
vn 0.06935500731175204 0.4916420518313663 -0.8680310915121826
vn 0.06280898669947617 0.4207089109100596 -0.9050188083518798
vn 0.06631702106659984 0.5052701605066712 -0.860409273321955
vn -0.045417988700232906 -0.30042092525678543 0.952724762966872
vn 0.045417988700232906 0.30042092525678543 -0.952724762966872
vn -0.07564201197182435 -0.5742810908911885 0.815156129014363
vn 0.07564201197182435 0.5742810908911885 -0.815156129014363
vn -0.05353900980733026 -0.3575940655044448 0.9323411707872035
vn 0.05353900980733026 0.3575940655044448 -0.9323411707872035
vn -0.1025380378361328 -0.6671082461603199 0.7378702722712291
vn 0.1025380378361328 0.6671082461603199 -0.7378702722712291
vn -0.042863001528108895 -0.3163400112778382 0.9476770337856344
vn 0.042863001528108895 0.3163400112778382 -0.9476770337856344
vn -0.09881796126702304 -0.6811987329953534 0.7253987156705988
vn 0.09881796126702304 0.6811987329953534 -0.7253987156705988
vn -0.04034199185261284 -0.3039739386100378 0.9518258077711829
vn 0.04034199185261284 0.3039739386100378 -0.9518258077711829
vn -0.11419100878111763 -0.77940905993539 0.6160210473710962
vn 0.11419100878111763 0.77940905993539 -0.6160210473710962
vn -0.03827799881198492 -0.29141699095543694 0.9558299703343837
vn 0.03827799881198492 0.29141699095543694 -0.9558299703343837
vn -0.14691004407728026 -0.844239253296297 0.5154391546467171
vn 0.14691004407728026 0.844239253296297 -0.5154391546467171
vn -0.03472000247636955 -0.26018601855750845 0.9649340688229597
vn 0.03472000247636955 0.26018601855750845 -0.9649340688229597
vn -0.15366796655678308 -0.8875008068505581 0.43442890545394414
vn 0.15366796655678308 0.8875008068505581 -0.43442890545394414
vn -0.03437400834343218 -0.17835704329171878 0.9833652386873565
vn 0.03437400834343218 0.17835704329171878 -0.9833652386873565
vn -0.21632701330476067 -0.9068760557755998 0.36163302224151617
vn 0.21632701330476067 0.9068760557755998 -0.36163302224151617
vn -0.018641997591565915 -0.08815998861025938 0.995931871331586
vn 0.018641997591565915 0.08815998861025938 -0.995931871331586
vn -0.015242994577313264 -0.08884696839274125 0.9959286456989451
vn 0.015242994577313264 0.08884696839274125 -0.9959286456989451
vn 0.001802000010743524 0.004974000029654766 0.9999860059619166
vn -0.001802000010743524 -0.004974000029654766 -0.9999860059619166
vn -0.0042500011299267 0.10492302789536428 0.9944712643951378
vn 0.0042500011299267 -0.10492302789536428 -0.9944712643951378
vn -0.00028500000349438505 0.12186200149414979 0.9925470121696189
vn 0.00028500000349438505 -0.12186200149414979 -0.9925470121696189
vn 0.00912199920386387 0.22598998027638612 0.9740869149851071
vn -0.00912199920386387 -0.22598998027638612 -0.9740869149851071
vn 0.028159986835631628 0.37963282252739117 0.9247085677127163
vn -0.028159986835631628 -0.37963282252739117 -0.9247085677127163
vn 0.04831198218648169 0.4021968517026073 0.9142776628889739
vn -0.04831198218648169 -0.4021968517026073 -0.9142776628889739
vn 0.057161983757167384 0.549366843894961 0.8336237631220901
vn -0.057161983757167384 -0.549366843894961 -0.8336237631220901
vn 0.06645800567770704 0.6857390585847474 0.7248070619224444
vn -0.06645800567770704 -0.6857390585847474 -0.7248070619224444
vn 0.08469897960232835 0.7104788288986013 0.6986028317586441
vn -0.08469897960232835 -0.7104788288986013 -0.6986028317586441
vn 0.09276301224610986 0.8201001082655228 0.5646510745424167
vn -0.09276301224610986 -0.8201001082655228 -0.5646510745424167
vn 0.08328705216881872 0.884200553839969 0.45962228789531157
vn -0.08328705216881872 -0.884200553839969 -0.45962228789531157
vn 0.09171197201808548 0.9228627184286288 0.3740498858749661
vn -0.09171197201808548 -0.9228627184286288 -0.3740498858749661
vn 0.042826022190309156 0.9507324926221686 0.3070401590928999
vn -0.042826022190309156 -0.9507324926221686 -0.3070401590928999
usemtl material_0_0
f 1//1 2//2 3//3
f 3//4 2//5 1//6
f 2//2 4//7 3//3
f 3//4 4//8 2//5
f 5//9 1//1 3//3
f 3//4 1//6 5//10
f 2//2 6//11 4//7
f 4//8 6//12 2//5
f 7//13 5//9 3//3
f 3//4 5//10 7//14
f 6//11 8//15 4//7
f 4//8 8//16 6//12
f 9//17 5//9 7//13
f 7//14 5//10 9//18
f 8//15 10//19 4//7
f 4//8 10//20 8//16
f 7//13 11//21 9//17
f 9//18 11//22 7//14
f 10//19 12//23 4//7
f 4//8 12//24 10//20
f 13//25 11//21 7//13
f 7//14 11//22 13//26
f 12//23 14//27 4//7
f 4//8 14//28 12//24
f 13//25 15//29 11//21
f 11//22 15//30 13//26
f 14//27 16//31 4//7
f 4//8 16//32 14//28
f 17//33 15//29 13//25
f 13//26 15//30 17//34
f 4//7 16//31 18//35
f 18//36 16//32 4//8
f 16//31 19//37 18//35
f 18//36 19//38 16//32
f 19//37 20//39 18//35
f 18//36 20//40 19//38
f 18//35 20//39 21//41
f 21//42 20//40 18//36
f 20//39 22//43 21//41
f 21//42 22//44 20//40
f 21//41 22//43 23//45
f 23//46 22//44 21//42
f 21//41 23//45 24//47
f 24//48 23//46 21//42
f 23//45 25//49 24//47
f 24//48 25//50 23//46
f 24//47 25//49 26//51
f 26//52 25//50 24//48
f 24//47 26//51 27//53
f 27//54 26//52 24//48
f 26//51 28//55 27//53
f 27//54 28//56 26//52
f 27//53 28//55 29//57
f 29//58 28//56 27//54
f 27//53 29//57 30//59
f 30//60 29//58 27//54
f 30//59 29//57 31//61
f 31//62 29//58 30//60
f 30//59 31//61 32//63
f 32//64 31//62 30//60
