# SSTK version 0.8.0
# 192
mtllib original-192.mtl
o Group151/mesh187/mesh187-geometry#mesh187-geometry
v -0.032044 -0.240109 0.059506
v -0.035954 -0.247300 0.059452
v -0.035917 -0.261574 0.064316
v -0.030839 -0.228845 0.060752
v -0.037774 -0.261442 0.063928
v -0.032357 -0.244522 0.059753
v -0.033960 -0.232113 0.059452
v -0.031211 -0.235760 0.059749
v -0.042059 -0.261218 0.062781
v -0.032172 -0.249231 0.060531
v -0.030242 -0.218332 0.064316
v -0.036714 -0.231672 0.058684
v -0.029820 -0.231255 0.060523
v -0.038727 -0.247016 0.058684
v -0.031571 -0.253470 0.061662
v -0.033276 -0.217736 0.063635
v -0.036267 -0.217091 0.062781
v -0.041721 -0.246726 0.057658
v -0.031929 -0.261941 0.064943
v -0.028146 -0.227309 0.061653
v -0.039681 -0.231179 0.057658
v -0.046217 -0.261091 0.061305
v -0.030900 -0.256421 0.062680
v -0.026294 -0.219007 0.064943
v -0.039483 -0.216343 0.061641
v -0.049013 -0.261046 0.060089
v -0.044656 -0.246457 0.056437
v -0.030623 -0.257574 0.063125
v -0.026724 -0.224606 0.062680
v -0.042585 -0.230682 0.056437
v -0.030999 -0.262045 0.065051
v -0.026166 -0.223576 0.063119
v -0.042623 -0.215566 0.060284
v -0.051743 -0.261029 0.058708
v -0.045413 -0.230187 0.055018
v -0.029902 -0.259953 0.064133
v -0.025369 -0.219146 0.065051
v -0.045672 -0.214775 0.058708
v -0.047516 -0.246205 0.055018
v -0.030069 -0.262157 0.065144
v -0.024853 -0.221457 0.064130
v -0.050285 -0.245970 0.053398
v -0.048149 -0.229700 0.053398
v -0.029138 -0.262275 0.065222
v -0.024441 -0.219278 0.065144
v -0.054203 -0.261031 0.057281
v -0.048615 -0.213984 0.056912
v -0.023511 -0.219405 0.065222
v -0.052945 -0.245750 0.051583
v -0.050777 -0.229226 0.051583
v -0.057434 -0.261055 0.055108
v -0.051434 -0.213206 0.054902
v -0.060497 -0.261095 0.052683
v -0.054001 -0.237207 0.049171
v -0.054113 -0.212452 0.052683
v -0.054279 -0.237171 0.048931
v -0.060807 -0.261100 0.052415
v -0.054411 -0.212367 0.052415
v -0.061115 -0.261105 0.052144
v -0.054555 -0.237134 0.048689
v -0.054707 -0.212283 0.052144
v -0.061421 -0.261110 0.051870
v -0.055002 -0.212199 0.051870
v -0.057350 -0.249561 0.049325
v -0.054049 -0.224407 0.049325
v -0.054830 -0.237098 0.048444
vn 0.32553897005920573 -0.01026399905598947 0.9454729130420239
vn -0.24321700496478876 0.15902600324619762 0.9568470195321184
vn 0.09426900929883694 0.2572340253739511 0.9617400948674903
vn -0.09426900929883694 -0.2572340253739511 -0.9617400948674903
vn 0.24321700496478876 -0.15902600324619762 -0.9568470195321184
vn -0.32553897005920573 0.01026399905598947 -0.9454729130420239
vn -0.04882001018129214 -0.16947703534401592 0.9843242052783736
vn 0.04882001018129214 0.16947703534401592 -0.9843242052783736
vn -0.20094891501128667 0.31899686508445113 0.9262076082726157
vn 0.20094891501128667 -0.31899686508445113 -0.9262076082726157
vn 0.6384371109460149 0.07177401247270938 0.7663201331692087
vn -0.6384371109460149 -0.07177401247270938 -0.7663201331692087
vn -0.27688902283476174 -0.16718501378758166 0.9462460780359709
vn 0.27688902283476174 0.16718501378758166 -0.9462460780359709
vn 0.2295260458845564 -0.15174803033595197 0.9614001921935316
vn -0.2295260458845564 0.15174803033595197 -0.9614001921935316
vn -0.259580925122595 0.3221929070618581 0.9103897373935661
vn 0.259580925122595 -0.3221929070618581 -0.9103897373935661
vn 0.23413906145706306 0.2194390575985906 0.9471142485995276
vn -0.23413906145706306 -0.2194390575985906 -0.9471142485995276
vn -0.19163893495900217 -0.29292090058456743 0.9367346820783915
vn 0.19163893495900217 0.29292090058456743 -0.9367346820783915
vn -0.30258593081131413 -0.0771839823512672 0.9499917827768037
vn 0.30258593081131413 0.0771839823512672 -0.9499917827768037
vn -0.1791270763083299 -0.23343709944445923 0.9557304071421959
vn 0.1791270763083299 0.23343709944445923 -0.9557304071421959
vn -0.2838439873063553 0.15414799310642463 0.9463989576765665
vn 0.2838439873063553 -0.15414799310642463 -0.9463989576765665
vn 0.03975099087549898 0.3301509242166701 0.943090783521552
vn -0.03975099087549898 -0.3301509242166701 -0.943090783521552
vn -0.2876350477956008 -0.2549380423624209 0.9231861534035478
vn 0.2876350477956008 0.2549380423624209 -0.9231861534035478
vn -0.3347721031225449 -0.2451680755210954 0.9098462802672714
vn 0.3347721031225449 0.2451680755210954 -0.9098462802672714
vn -0.3358160170282232 0.23556101194459236 0.9119970462446354
vn 0.3358160170282232 -0.23556101194459236 -0.9119970462446354
vn 0.006052998769652463 0.3731039241619711 0.927769811419208
vn -0.006052998769652463 -0.3731039241619711 -0.927769811419208
vn -0.046054007613902465 -0.3291120544106197 0.9431671559295944
vn 0.046054007613902465 0.3291120544106197 -0.9431671559295944
vn -0.3661519928538116 -0.07604099851590805 0.9274429818990955
vn 0.3661519928538116 0.07604099851590805 -0.9274429818990955
vn -0.33968394257677403 0.3299089442292274 0.8807808511048906
vn 0.33968394257677403 -0.3299089442292274 -0.8807808511048906
vn 0.09867897833853578 0.361647920613046 0.9270777964930034
vn -0.09867897833853578 -0.361647920613046 -0.9270777964930034
vn -0.09011601384934548 -0.361956055626678 0.927829142592041
vn 0.09011601384934548 0.361956055626678 -0.927829142592041
vn -0.4055570189147742 -0.23027701073988993 0.8845880412563025
vn 0.4055570189147742 0.23027701073988993 -0.8845880412563025
vn -0.3778890439554892 0.33199103861670165 0.864281100531887
vn 0.3778890439554892 -0.33199103861670165 -0.864281100531887
vn -0.40386006827477156 0.17338302931135702 0.8982401518524509
vn 0.40386006827477156 -0.17338302931135702 -0.8982401518524509
vn 0.0028339995692363493 0.38840394096318787 0.9214848599356943
vn -0.0028339995692363493 -0.38840394096318787 -0.9214848599356943
vn 0.002628000776057942 -0.3749031107102173 0.927060273764184
vn -0.002628000776057942 0.3749031107102173 -0.927060273764184
vn -0.44127494167382647 -0.13059798273801704 0.8878178826513473
vn 0.44127494167382647 0.13059798273801704 -0.8878178826513473
vn -0.028205995522566522 0.4044459357980548 0.9141268548910576
vn 0.028205995522566522 -0.4044459357980548 -0.9141268548910576
vn -0.09723000056466323 -0.3759470021833124 0.9215260053517621
vn 0.09723000056466323 0.3759470021833124 -0.9215260053517621
vn -0.4626152760396105 -0.2197281311103869 0.8588985124993125
vn 0.4626152760396105 0.2197281311103869 -0.8588985124993125
vn -0.43718506774205007 0.33319305162843377 0.835375129441804
vn 0.43718506774205007 -0.33319305162843377 -0.835375129441804
vn -0.4791080284815358 -0.048209002865880875 0.8764310521011983
vn 0.4791080284815358 0.048209002865880875 -0.8764310521011983
vn -0.015626999758891022 0.41074799366256903 0.9116149859346926
vn 0.015626999758891022 -0.41074799366256903 -0.9116149859346926
vn -0.13149702697734109 -0.3833980786562329 0.9141741875478818
vn 0.13149702697734109 0.3833980786562329 -0.9141741875478818
vn -0.508792957651892 -0.20849598264635905 0.8352599304792307
vn 0.508792957651892 0.20849598264635905 -0.8352599304792307
vn -0.46248411703138936 0.17178704347063073 0.8698262201091178
vn 0.46248411703138936 -0.17178704347063073 -0.8698262201091178
vn -0.031878999488565214 0.41876699328172096 0.9075339854404325
vn 0.031878999488565214 -0.41876699328172096 -0.9075339854404325
vn -0.1209730260666051 -0.39276108463000764 0.9116491964371758
vn 0.1209730260666051 0.39276108463000764 -0.9116491964371758
vn -0.5040848778274835 0.23098394401758301 0.8321927983056169
vn 0.5040848778274835 -0.23098394401758301 -0.8321927983056169
vn -0.5438608035721975 -0.04625498329395211 0.8378996973733072
vn 0.5438608035721975 0.04625498329395211 -0.8378996973733072
vn -0.023282002843035388 0.41832905108341834 0.9079971108782582
vn 0.023282002843035388 -0.41832905108341834 -0.9079971108782582
vn -0.13885705452348288 -0.39629215560771225 0.9075633563629897
vn 0.13885705452348288 0.39629215560771225 -0.9075633563629897
vn -0.5043062173275331 0.3350511443881437 0.7958743429769488
vn 0.5043062173275331 -0.3350511443881437 -0.7958743429769488
vn -0.5781737748588869 -0.19247692504940392 0.7928856912499755
vn 0.5781737748588869 0.19247692504940392 -0.7928856912499755
vn -0.13043908410577892 -0.39809625668836923 0.9080225854836175
vn 0.13043908410577892 0.39809625668836923 -0.9080225854836175
vn -0.5514490998252551 0.21466403885923901 0.8061161459259795
vn 0.5514490998252551 -0.21466403885923901 -0.8061161459259795
vn -0.5939102968622757 -0.08827804412521775 0.7996733997116509
vn 0.5939102968622757 0.08827804412521775 -0.7996733997116509
vn -0.5572599356136335 0.3381389609310885 0.7583689123773026
vn 0.5572599356136335 -0.3381389609310885 -0.7583689123773026
vn -0.6308301729263448 -0.18216904993709782 0.7542332067542061
vn 0.6308301729263448 0.18216904993709782 -0.7542332067542061
vn -0.5416840569477896 0.282271029675437 0.7917710832396903
vn 0.5416840569477896 -0.282271029675437 -0.7917710832396903
vn -0.5548428899685626 0.07282298555840216 0.8287618356474279
vn 0.5548428899685626 -0.07282298555840216 -0.8287618356474279
vn -0.5968730626221345 -0.13302601395669122 0.791231083013596
vn 0.5968730626221345 0.13302601395669122 -0.791231083013596
vn -0.6535671392879169 0.11406402430927026 0.7482241594611758
vn 0.6535671392879169 -0.11406402430927026 -0.7482241594611758
vn -0.634044018274417 0.27803200801343847 0.7215860207975526
vn 0.634044018274417 -0.27803200801343847 -0.7215860207975526
vn -0.6773747046474201 -0.10570095391169894 0.7280046825714634
vn 0.6773747046474201 0.10570095391169894 -0.7280046825714634
vn -0.6311656916412364 0.2773078645200278 0.7243826460996851
vn 0.6311656916412364 -0.2773078645200278 -0.7243826460996851
vn -0.841730531936929 0.08400995328438812 0.5333217034345495
vn 0.841730531936929 -0.08400995328438812 -0.5333217034345495
vn -0.6901799265524367 -0.1037899889548777 0.7161559237881231
vn 0.6901799265524367 0.1037899889548777 -0.7161559237881231
vn -0.9555828378982857 0.28406995181137173 0.0785219866798062
vn 0.9555828378982857 -0.28406995181137173 -0.0785219866798062
vn -0.9965231241922003 -0.02785600347156859 0.07852200978584532
vn 0.9965231241922003 0.02785600347156859 -0.07852200978584532
vn -0.9694510389161891 0.2232330089611312 0.10164500408028472
vn 0.9694510389161891 -0.2232330089611312 -0.10164500408028472
vn -0.9942223617429011 0.03449901255229549 0.10164503698304522
vn 0.9942223617429011 -0.03449901255229549 -0.10164503698304522
vn -0.6567070161832312 0.08619300212405402 0.7492040184626348
vn 0.6567070161832312 -0.08619300212405402 -0.7492040184626348
usemtl material_0_0
f 1//1 2//2 3//3
f 3//4 2//5 1//6
f 4//7 2//2 1//1
f 1//6 2//5 4//8
f 2//2 5//9 3//3
f 3//4 5//10 2//5
f 1//1 3//3 6//11
f 6//12 3//4 1//6
f 4//7 7//13 2//2
f 2//5 7//14 4//8
f 4//7 1//1 8//15
f 8//16 1//6 4//8
f 2//2 9//17 5//9
f 5//10 9//18 2//5
f 6//11 3//3 10//19
f 10//20 3//4 6//12
f 11//21 7//13 4//7
f 4//8 7//14 11//22
f 12//23 2//2 7//13
f 7//14 2//5 12//24
f 4//7 8//15 13//25
f 13//26 8//16 4//8
f 14//27 9//17 2//2
f 2//5 9//18 14//28
f 10//19 3//3 15//29
f 15//30 3//4 10//20
f 16//31 7//13 11//21
f 11//22 7//14 16//32
f 11//21 4//7 13//25
f 13//26 4//8 11//22
f 12//23 14//27 2//2
f 2//5 14//28 12//24
f 17//33 12//23 7//13
f 7//14 12//24 17//34
f 18//35 9//17 14//27
f 14//28 9//18 18//36
f 15//29 3//3 19//37
f 19//38 3//4 15//30
f 17//33 7//13 16//31
f 16//32 7//14 17//34
f 11//21 13//25 20//39
f 20//40 13//26 11//22
f 21//41 14//27 12//23
f 12//24 14//28 21//42
f 17//33 21//41 12//23
f 12//24 21//42 17//34
f 18//35 22//43 9//17
f 9//18 22//44 18//36
f 21//41 18//35 14//27
f 14//28 18//36 21//42
f 15//29 19//37 23//45
f 23//46 19//38 15//30
f 11//21 20//39 24//47
f 24//48 20//40 11//22
f 25//49 21//41 17//33
f 17//34 21//42 25//50
f 18//35 26//51 22//43
f 22//44 26//52 18//36
f 21//41 27//53 18//35
f 18//36 27//54 21//42
f 23//45 19//37 28//55
f 28//56 19//38 23//46
f 24//47 20//39 29//57
f 29//58 20//40 24//48
f 25//49 30//59 21//41
f 21//42 30//60 25//50
f 27//53 26//51 18//35
f 18//36 26//52 27//54
f 30//59 27//53 21//41
f 21//42 27//54 30//60
f 28//55 19//37 31//61
f 31//62 19//38 28//56
f 24//47 29//57 32//63
f 32//64 29//58 24//48
f 33//65 30//59 25//49
f 25//50 30//60 33//66
f 27//53 34//67 26//51
f 26//52 34//68 27//54
f 35//69 27//53 30//59
f 30//60 27//54 35//70
f 28//55 31//61 36//71
f 36//72 31//62 28//56
f 24//47 32//63 37//73
f 37//74 32//64 24//48
f 38//75 30//59 33//65
f 33//66 30//60 38//76
f 39//77 34//67 27//53
f 27//54 34//68 39//78
f 35//69 39//77 27//53
f 27//54 39//78 35//70
f 38//75 35//69 30//59
f 30//60 35//70 38//76
f 36//71 31//61 40//79
f 40//80 31//62 36//72
f 37//73 32//63 41//81
f 41//82 32//64 37//74
f 42//83 34//67 39//77
f 39//78 34//68 42//84
f 43//85 39//77 35//69
f 35//70 39//78 43//86
f 38//75 43//85 35//69
f 35//70 43//86 38//76
f 36//71 40//79 44//87
f 44//88 40//80 36//72
f 37//73 41//81 45//89
f 45//90 41//82 37//74
f 42//83 46//91 34//67
f 34//68 46//92 42//84
f 43//85 42//83 39//77
f 39//78 42//84 43//86
f 47//93 43//85 38//75
f 38//76 43//86 47//94
f 45//89 41//81 48//95
f 48//96 41//82 45//90
f 49//97 46//91 42//83
f 42//84 46//92 49//98
f 43//85 49//97 42//83
f 42//84 49//98 43//86
f 47//93 50//99 43//85
f 43//86 50//100 47//94
f 49//97 51//101 46//91
f 46//92 51//102 49//98
f 50//99 49//97 43//85
f 43//86 49//98 50//100
f 52//103 50//99 47//93
f 47//94 50//100 52//104
f 49//97 53//105 51//101
f 51//102 53//106 49//98
f 54//107 49//97 50//99
f 50//100 49//98 54//108
f 55//109 50//99 52//103
f 52//104 50//100 55//110
f 54//107 53//105 49//97
f 49//98 53//106 54//108
f 55//109 54//107 50//99
f 50//100 54//108 55//110
f 56//111 53//105 54//107
f 54//108 53//106 56//112
f 55//109 56//111 54//107
f 54//108 56//112 55//110
f 56//111 57//113 53//105
f 53//106 57//114 56//112
f 58//115 56//111 55//109
f 55//110 56//112 58//116
f 56//111 59//117 57//113
f 57//114 59//118 56//112
f 58//115 60//119 56//111
f 56//112 60//120 58//116
f 60//119 59//117 56//111
f 56//112 59//118 60//120
f 61//121 60//119 58//115
f 58//116 60//120 61//122
f 60//119 62//123 59//117
f 59//118 62//124 60//120
f 63//125 60//119 61//121
f 61//122 60//120 63//126
f 60//119 64//127 62//123
f 62//124 64//128 60//120
f 60//119 63//125 65//129
f 65//130 63//126 60//120
f 66//131 64//127 60//119
f 60//120 64//128 66//132
f 65//129 66//131 60//119
f 60//120 66//132 65//130
