# SSTK version 0.8.0
# 37
mtllib original-37.mtl
o Group37/mesh37/mesh37-geometry#mesh37-geometry
v -0.048748 -0.244738 -0.498053
v -0.048962 -0.244738 -0.496887
v -0.044738 -0.264788 -0.498053
v -0.044936 -0.264870 -0.496887
v -0.049486 -0.244738 -0.495737
v -0.027897 -0.286441 -0.498053
v -0.045419 -0.265071 -0.495737
v -0.028025 -0.286612 -0.496887
v -0.050313 -0.244738 -0.494725
v 0.003380 -0.296867 -0.498053
v -0.046182 -0.265389 -0.494725
v -0.028339 -0.287031 -0.495737
v 0.003380 -0.297080 -0.496887
v -0.051374 -0.244738 -0.493963
v 0.034657 -0.286441 -0.498053
v -0.047162 -0.265798 -0.493963
v -0.028836 -0.287692 -0.494725
v 0.003380 -0.297604 -0.495737
v 0.034785 -0.286612 -0.496887
v -0.052554 -0.244738 -0.493512
v 0.051498 -0.264788 -0.498053
v -0.048252 -0.266252 -0.493512
v -0.029472 -0.288542 -0.493963
v 0.003380 -0.298431 -0.494725
v 0.035099 -0.287031 -0.495737
v 0.051696 -0.264870 -0.496887
v -0.053731 -0.244738 -0.493372
v 0.055508 -0.244738 -0.498053
v -0.049338 -0.266704 -0.493372
v -0.030181 -0.289486 -0.493512
v 0.003380 -0.299492 -0.493963
v 0.035596 -0.287692 -0.494725
v 0.052179 -0.265071 -0.495737
v 0.055722 -0.244738 -0.496887
v -0.030887 -0.290427 -0.493372
v 0.003380 -0.300673 -0.493512
v 0.036232 -0.288542 -0.493963
v 0.052942 -0.265389 -0.494725
v 0.056246 -0.244738 -0.495737
v 0.003380 -0.301849 -0.493372
v 0.036941 -0.289486 -0.493512
v 0.053922 -0.265798 -0.493963
v 0.057073 -0.244738 -0.494725
v 0.037647 -0.290427 -0.493372
v 0.055012 -0.266252 -0.493512
v 0.058134 -0.244738 -0.493963
v 0.056098 -0.266704 -0.493372
v 0.059314 -0.244738 -0.493512
v 0.060491 -0.244738 -0.493372
vn 0.9651002496984897 0.19302004993969793 0.1769880457917691
vn 0.9480268489817052 0.1896049697964047 0.25552895929487895
vn 0.9237423124535806 0.3379711143179038 0.180210060955613
vn -0.9237423124535806 -0.3379711143179038 -0.180210060955613
vn -0.9480268489817052 -0.1896049697964047 -0.25552895929487895
vn -0.9651002496984897 -0.19302004993969793 -0.1769880457917691
vn 0.8661970210646126 0.39967700971954545 0.2999350072939697
vn -0.8661970210646126 -0.39967700971954545 -0.2999350072939697
vn 0.858201104576102 0.1716400209151959 0.4837670589494386
vn -0.858201104576102 -0.1716400209151959 -0.4837670589494386
vn 0.6458611006416368 0.7419521156150684 0.17991802803581902
vn -0.6458611006416368 -0.7419521156150684 -0.17991802803581902
vn 0.7697010516211573 0.3584550240403246 0.5282710354292908
vn -0.7697010516211573 -0.3584550240403246 -0.5282710354292908
vn 0.5479421956027961 0.7808212787352873 0.30012910713920754
vn -0.5479421956027961 -0.7808212787352873 -0.30012910713920754
vn 0.7086429654586168 0.1417289930917037 0.6911859663095232
vn -0.7086429654586168 -0.1417289930917037 -0.6911859663095232
vn 0.1086420093359885 0.9777750840236387 0.17931201540890995
vn -0.1086420093359885 -0.9777750840236387 -0.17931201540890995
vn 0.6191251876986636 0.29219808858497726 0.7289062209807102
vn -0.6191251876986636 -0.29219808858497726 -0.7289062209807102
vn 0.484522966484094 0.6970409517835878 0.5285559634381998
vn -0.484522966484094 -0.6970409517835878 -0.5285559634381998
vn -0.0037399991054484208 0.9539227718360089 0.3000289282375896
vn 0.0037399991054484208 -0.9539227718360089 -0.3000289282375896
vn 0.5087818126714044 0.10175596253442798 0.8548606852484748
vn -0.5087818126714044 -0.10175596253442798 -0.8548606852484748
vn -0.48467102949247537 0.8561970521000203 0.1789430108887722
vn 0.48467102949247537 -0.8561970521000203 -0.1789430108887722
vn 0.4270861415880483 0.20597106828374567 0.8804392918841629
vn -0.4270861415880483 -0.20597106828374567 -0.8804392918841629
vn 0.3869091430053213 0.56447020863359 0.7291602695046125
vn -0.3869091430053213 -0.56447020863359 -0.7291602695046125
vn -0.0070589997657470975 0.8487999718325733 0.5286669824561867
vn 0.0070589997657470975 -0.8487999718325733 -0.5286669824561867
vn -0.5536738540034217 0.7769767951213468 0.29958692100283413
vn 0.5536738540034217 -0.7769767951213468 -0.29958692100283413
vn 0.27871308801161476 0.055743017602449055 0.9587553027543593
vn -0.27871308801161476 -0.055743017602449055 -0.9587553027543593
vn -0.8596614966433536 0.47837827636853847 0.17926610356555378
vn 0.8596614966433536 -0.47837827636853847 -0.17926610356555378
vn 0.21390902888563548 0.1087070146794699 0.9707861310920557
vn -0.21390902888563548 -0.1087070146794699 -0.9707861310920557
vn 0.2636911054292625 0.39378915744520593 0.8805663520689898
vn -0.2636911054292625 -0.39378915744520593 -0.8805663520689898
vn -0.010170002682008038 0.6840041803838961 0.7294071923574669
vn 0.010170002682008038 -0.6840041803838961 -0.7294071923574669
vn -0.49522896326243115 0.6896949488363613 0.528269960811351
vn 0.49522896326243115 -0.6896949488363613 -0.528269960811351
vn -0.8686534319753786 0.39470619628467724 0.29941314889610016
vn 0.8686534319753786 -0.39470619628467724 -0.29941314889610016
vn 0.11863997441529227 0.023727994883058233 0.9926537859342341
vn -0.11863997441529227 -0.023727994883058233 -0.9926537859342341
vn -0.9651002496984897 0.19302004993969793 0.1769880457917691
vn 0.9651002496984897 -0.19302004993969793 -0.1769880457917691
vn 0.10427996703809829 0.058249981587736886 0.9928406861725406
vn -0.10427996703809829 -0.058249981587736886 -0.9928406861725406
vn 0.12809599708953087 0.2028509953910224 0.9707949779425675
vn -0.12809599708953087 -0.2028509953910224 -0.9707949779425675
vn -0.012392998416044777 0.47333393950295616 0.8807958874250447
vn 0.012392998416044777 -0.47333393950295616 -0.8807958874250447
vn -0.40211806268900446 0.5537110863219038 0.729181113677157
vn 0.40211806268900446 -0.5537110863219038 -0.729181113677157
vn -0.7741733864167425 0.34909917424748516 0.5280012635437126
vn 0.7741733864167425 -0.34909917424748516 -0.5280012635437126
vn -0.9246455351563267 0.18492910703126525 0.33291419268047023
vn 0.9246455351563267 -0.18492910703126525 -0.33291419268047023
vn 0.05873299162074088 0.10427398512354422 0.992812858358378
vn -0.05873299162074088 -0.10427398512354422 -0.992812858358378
vn -0.013243002997362046 0.23912605412272095 0.970898219748759
vn 0.013243002997362046 -0.23912605412272095 -0.970898219748759
vn -0.2819659402717251 0.3804699194058262 0.8807598134304301
vn 0.2819659402717251 -0.3804699194058262 -0.8807598134304301
vn -0.6252571105210819 0.27877304927620716 0.72893012884643
vn 0.6252571105210819 -0.27877304927620716 -0.72893012884643
vn -0.8144390284426547 0.1628880056885378 0.5569170194492135
vn 0.8144390284426547 -0.1628880056885378 -0.5569170194492135
vn -0.013185000545839258 0.1186630049124703 0.9928470411023792
vn 0.013185000545839258 -0.1186630049124703 -0.9928470411023792
vn -0.14743206241176476 0.18846507978209082 0.9709504110281553
vn 0.14743206241176476 -0.18846507978209082 -0.9709504110281553
vn -0.43419203806995965 0.18968001663114442 0.8806240772131226
vn 0.43419203806995965 -0.18968001663114442 -0.8806240772131226
vn -0.6463010474300966 0.1292600094860045 0.7520550551910663
vn 0.6463010474300966 -0.1292600094860045 -0.7520550551910663
vn -0.07791703320446766 0.08989803831019183 0.9928984231252426
vn 0.07791703320446766 -0.08989803831019183 -0.9928984231252426
vn -0.22123292624062285 0.09135496954212098 0.9709326762896433
vn 0.22123292624062285 -0.09135496954212098 -0.9709326762896433
vn -0.4336690709350389 0.08673401418704031 0.8968881467035578
vn 0.4336690709350389 -0.08673401418704031 -0.8968881467035578
vn -0.11148096925071015 0.04099298869308973 0.992920726127182
vn 0.11148096925071015 -0.04099298869308973 -0.992920726127182
vn -0.19909094973063654 0.03981798994617759 0.9791717527645493
vn 0.19909094973063654 -0.03981798994617759 -0.9791717527645493
vn -0.11863997441529227 0.023727994883058233 0.9926537859342341
vn 0.11863997441529227 -0.023727994883058233 -0.9926537859342341
usemtl material_0_0
f 1//1 2//2 3//3
f 3//4 2//5 1//6
f 3//3 2//2 4//7
f 4//8 2//5 3//4
f 2//2 5//9 4//7
f 4//8 5//10 2//5
f 3//3 4//7 6//11
f 6//12 4//8 3//4
f 4//7 5//9 7//13
f 7//14 5//10 4//8
f 6//11 4//7 8//15
f 8//16 4//8 6//12
f 5//9 9//17 7//13
f 7//14 9//18 5//10
f 4//7 7//13 8//15
f 8//16 7//14 4//8
f 10//19 6//11 8//15
f 8//16 6//12 10//20
f 7//13 9//17 11//21
f 11//22 9//18 7//14
f 8//15 7//13 12//23
f 12//24 7//14 8//16
f 10//19 8//15 13//25
f 13//26 8//16 10//20
f 14//27 11//21 9//17
f 9//18 11//22 14//28
f 7//13 11//21 12//23
f 12//24 11//22 7//14
f 13//25 8//15 12//23
f 12//24 8//16 13//26
f 15//29 10//19 13//25
f 13//26 10//20 15//30
f 14//27 16//31 11//21
f 11//22 16//32 14//28
f 12//23 11//21 17//33
f 17//34 11//22 12//24
f 18//35 13//25 12//23
f 12//24 13//26 18//36
f 19//37 15//29 13//25
f 13//26 15//30 19//38
f 20//39 16//31 14//27
f 14//28 16//32 20//40
f 11//21 16//31 17//33
f 17//34 16//32 11//22
f 18//35 12//23 17//33
f 17//34 12//24 18//36
f 19//37 13//25 18//35
f 18//36 13//26 19//38
f 15//29 19//37 21//41
f 21//42 19//38 15//30
f 20//39 22//43 16//31
f 16//32 22//44 20//40
f 16//31 23//45 17//33
f 17//34 23//46 16//32
f 18//35 17//33 24//47
f 24//48 17//34 18//36
f 25//49 19//37 18//35
f 18//36 19//38 25//50
f 21//41 19//37 26//51
f 26//52 19//38 21//42
f 27//53 22//43 20//39
f 20//40 22//44 27//54
f 16//31 22//43 23//45
f 23//46 22//44 16//32
f 17//33 23//45 24//47
f 24//48 23//46 17//34
f 25//49 18//35 24//47
f 24//48 18//36 25//50
f 19//37 25//49 26//51
f 26//52 25//50 19//38
f 21//41 26//51 28//55
f 28//56 26//52 21//42
f 27//53 29//57 22//43
f 22//44 29//58 27//54
f 22//43 30//59 23//45
f 23//46 30//60 22//44
f 23//45 31//61 24//47
f 24//48 31//62 23//46
f 32//63 25//49 24//47
f 24//48 25//50 32//64
f 26//51 25//49 33//65
f 33//66 25//50 26//52
f 28//55 26//51 34//67
f 34//68 26//52 28//56
f 22//43 29//57 30//59
f 30//60 29//58 22//44
f 23//45 30//59 31//61
f 31//62 30//60 23//46
f 32//63 24//47 31//61
f 31//62 24//48 32//64
f 25//49 32//63 33//65
f 33//66 32//64 25//50
f 26//51 33//65 34//67
f 34//68 33//66 26//52
f 29//57 35//69 30//59
f 30//60 35//70 29//58
f 30//59 36//71 31//61
f 31//62 36//72 30//60
f 32//63 31//61 37//73
f 37//74 31//62 32//64
f 33//65 32//63 38//75
f 38//76 32//64 33//66
f 34//67 33//65 39//77
f 39//78 33//66 34//68
f 30//59 35//69 36//71
f 36//72 35//70 30//60
f 37//73 31//61 36//71
f 36//72 31//62 37//74
f 38//75 32//63 37//73
f 37//74 32//64 38//76
f 33//65 38//75 39//77
f 39//78 38//76 33//66
f 35//69 40//79 36//71
f 36//72 40//80 35//70
f 37//73 36//71 41//81
f 41//82 36//72 37//74
f 38//75 37//73 42//83
f 42//84 37//74 38//76
f 39//77 38//75 43//85
f 43//86 38//76 39//78
f 41//81 36//71 40//79
f 40//80 36//72 41//82
f 42//83 37//73 41//81
f 41//82 37//74 42//84
f 43//85 38//75 42//83
f 42//84 38//76 43//86
f 41//81 40//79 44//87
f 44//88 40//80 41//82
f 42//83 41//81 45//89
f 45//90 41//82 42//84
f 43//85 42//83 46//91
f 46//92 42//84 43//86
f 45//89 41//81 44//87
f 44//88 41//82 45//90
f 46//91 42//83 45//89
f 45//90 42//84 46//92
f 45//89 44//87 47//93
f 47//94 44//88 45//90
f 46//91 45//89 48//95
f 48//96 45//90 46//92
f 48//95 45//89 47//93
f 47//94 45//90 48//96
f 48//95 47//93 49//97
f 49//98 47//94 48//96
