# SSTK version 0.8.0
# 14
mtllib original-14.mtl
o Group14/mesh14/mesh14-geometry#mesh14-geometry
v 0.037753 0.261495 -0.090359
v 0.043041 0.243801 -0.085618
v 0.042188 0.467697 0.723717
v 0.042663 0.454181 0.727338
v 0.037753 0.478827 0.720735
v 0.040246 0.228123 -0.081417
v 0.032325 0.268557 -0.092251
v 0.037753 0.440489 0.731007
v 0.029991 0.488102 0.718249
v 0.030738 0.214551 -0.077780
v 0.019797 0.277230 -0.094575
v 0.027932 0.429536 0.733942
v 0.018111 0.495257 0.716332
v 0.017161 0.206373 -0.075589
v 0.003380 0.389330 0.310051
v 0.015577 0.423175 0.735646
v 0.003380 0.443663 0.512825
v 0.003380 0.334997 0.107278
v 0.003380 0.312654 0.330597
v 0.003380 0.497996 0.715598
v 0.003380 0.280664 -0.095495
v 0.003380 0.258321 0.127823
v 0.003380 0.366987 0.533370
v 0.003380 0.203988 -0.074950
v 0.003380 0.421320 0.736143
vn -0.9095132614064274 -0.40140011536782866 0.10799803104009648
vn -0.9988465229415255 -0.04624297791391971 0.012930993824035968
vn -0.9741854041184924 -0.21801109043690536 0.05860002430887728
vn 0.9741854041184924 0.21801109043690536 -0.05860002430887728
vn 0.9988465229415255 0.04624297791391971 -0.012930993824035968
vn 0.9095132614064274 0.40140011536782866 -0.10799803104009648
vn -0.9877382573581996 0.15075303927916175 -0.04057901057298428
vn 0.9877382573581996 -0.15075303927916175 0.04057901057298428
vn -0.8460769991260025 -0.5149359994680711 0.1378209998576308
vn 0.8460769991260025 0.5149359994680711 -0.1378209998576308
vn -0.9337480626745728 0.34583802321316764 -0.09225300619216029
vn 0.9337480626745728 -0.34583802321316764 0.09225300619216029
vn -0.7279488448912246 -0.6622558588888546 0.17750396217808093
vn 0.7279488448912246 0.6622558588888546 -0.17750396217808093
vn -0.8537500017629938 0.5029010010384906 -0.13491300027859524
vn 0.8537500017629938 -0.5029010010384906 0.13491300027859524
vn -0.6364098629437414 -0.7450838395398792 0.19958095701854894
vn 0.6364098629437414 0.7450838395398792 -0.19958095701854894
vn -0.7154533439739528 0.6749443244981229 -0.18049008677559342
vn 0.7154533439739528 -0.6749443244981229 0.18049008677559342
vn -0.3533400038081219 -0.9035820097383552 0.24226100261096778
vn 0.3533400038081219 0.9035820097383552 -0.24226100261096778
vn -0.5926438232280046 0.7779967679414926 -0.20855293779346445
vn 0.5926438232280046 -0.7779967679414926 0.20855293779346445
vn -0.2804619791779425 -0.9271519311663889 0.24845598155413154
vn 0.2804619791779425 0.9271519311663889 -0.24845598155413154
vn -0.3083370985955823 0.9189002938326588 -0.24607007868473413
vn 0.3083370985955823 -0.9189002938326588 0.24607007868473413
vn -0.20051900055443503 -0.9462700026164366 0.2537030007014886
vn 0.20051900055443503 0.9462700026164366 -0.2537030007014886
vn -0.23943890453369254 0.9378296260794311 -0.2512858998101955
vn 0.23943890453369254 -0.9378296260794311 0.2512858998101955
vn -0.18898208024662738 -0.948520402766036 0.2541551079207625
vn 0.18898208024662738 0.948520402766036 -0.2541551079207625
vn -0.21160399265850538 -0.944052967246555 0.2529579912237489
vn 0.21160399265850538 0.944052967246555 -0.2529579912237489
vn -0.16618299933410471 0.9525229961832404 -0.255113998977758
vn 0.16618299933410471 -0.9525229961832404 0.255113998977758
vn -0.17636900745502992 0.950784040189167 -0.25476201076866284
vn 0.17636900745502992 -0.950784040189167 0.25476201076866284
vn -0.15554294934666907 0.9541696892699204 -0.25566891674015224
vn 0.15554294934666907 -0.9541696892699204 0.25566891674015224
usemtl material_0_0
f 1//1 2//2 3//3
f 3//4 2//5 1//6
f 2//2 4//7 3//3
f 3//4 4//8 2//5
f 1//1 3//3 5//9
f 5//10 3//4 1//6
f 2//2 6//11 4//7
f 4//8 6//12 2//5
f 7//13 1//1 5//9
f 5//10 1//6 7//14
f 6//11 8//15 4//7
f 4//8 8//16 6//12
f 7//13 5//9 9//17
f 9//18 5//10 7//14
f 6//11 10//19 8//15
f 8//16 10//20 6//12
f 7//13 9//17 11//21
f 11//22 9//18 7//14
f 10//19 12//23 8//15
f 8//16 12//24 10//20
f 9//17 13//25 11//21
f 11//22 13//26 9//18
f 10//19 14//27 12//23
f 12//24 14//28 10//20
f 11//21 13//25 15//29
f 15//30 13//26 11//22
f 12//23 14//27 16//31
f 16//32 14//28 12//24
f 13//25 17//33 15//29
f 15//30 17//34 13//26
f 11//21 15//29 18//35
f 18//36 15//30 11//22
f 14//27 19//37 16//31
f 16//32 19//38 14//28
f 13//25 20//33 17//33
f 17//34 20//34 13//26
f 11//21 18//35 21//35
f 21//36 18//36 11//22
f 14//27 22//39 19//37
f 19//38 22//40 14//28
f 16//31 19//37 23//41
f 23//42 19//38 16//32
f 14//27 24//39 22//39
f 22//40 24//40 14//28
f 16//31 23//41 25//41
f 25//42 23//42 16//32
