# SSTK version 0.8.0
# 120
mtllib original-120.mtl
o mesh119/mesh119-geometry#mesh119-geometry
v -0.044526 -0.226605 -0.418485
v -0.043799 -0.234764 -0.418485
v -0.045181 -0.228441 -0.418485
v -0.043799 -0.224790 -0.418485
v -0.043799 -0.244738 -0.418485
v -0.045766 -0.230299 -0.418485
v -0.043799 -0.245716 -0.418485
v -0.046280 -0.232180 -0.418485
v -0.046722 -0.234082 -0.418485
v -0.047833 -0.245716 -0.418485
v -0.047092 -0.253474 -0.418485
v -0.047092 -0.236003 -0.418485
v -0.046722 -0.255394 -0.418485
v -0.047389 -0.251546 -0.418485
v -0.047389 -0.237931 -0.418485
v -0.046280 -0.257297 -0.418485
v -0.047611 -0.249610 -0.418485
v -0.047611 -0.239867 -0.418485
v -0.045766 -0.259177 -0.418485
v -0.047759 -0.247667 -0.418485
v -0.047759 -0.241810 -0.418485
v -0.045181 -0.261036 -0.418485
v -0.047833 -0.243760 -0.418485
v -0.043799 -0.254712 -0.418485
v -0.044526 -0.262872 -0.418485
v -0.043799 -0.264686 -0.418485
vn 0 0 -1
vn 0 0 1
usemtl material_0_0
f 1//1 2//1 3//1
f 3//2 2//2 1//2
f 4//1 2//1 1//1
f 1//2 2//2 4//2
f 3//1 2//1 5//1
f 5//2 2//2 3//2
f 3//1 5//1 6//1
f 6//2 5//2 3//2
f 6//1 5//1 7//1
f 7//2 5//2 6//2
f 6//1 7//1 8//1
f 8//2 7//2 6//2
f 8//1 7//1 9//1
f 9//2 7//2 8//2
f 9//1 7//1 10//1
f 10//2 7//2 9//2
f 7//1 11//1 10//1
f 10//2 11//2 7//2
f 9//1 10//1 12//1
f 12//2 10//2 9//2
f 7//1 13//1 11//1
f 11//2 13//2 7//2
f 10//1 11//1 14//1
f 14//2 11//2 10//2
f 12//1 10//1 15//1
f 15//2 10//2 12//2
f 7//1 16//1 13//1
f 13//2 16//2 7//2
f 10//1 14//1 17//1
f 17//2 14//2 10//2
f 15//1 10//1 18//1
f 18//2 10//2 15//2
f 7//1 19//1 16//1
f 16//2 19//2 7//2
f 10//1 17//1 20//1
f 20//2 17//2 10//2
f 18//1 10//1 21//1
f 21//2 10//2 18//2
f 7//1 22//1 19//1
f 19//2 22//2 7//2
f 21//1 10//1 23//1
f 23//2 10//2 21//2
f 7//1 24//1 22//1
f 22//2 24//2 7//2
f 24//1 25//1 22//1
f 22//2 25//2 24//2
f 24//1 26//1 25//1
f 25//2 26//2 24//2
