# SSTK version 0.8.0
# 182
mtllib original-182.mtl
o Group141/mesh177/mesh177-geometry#mesh177-geometry
v -0.046341 -0.124835 0.015862
v -0.068207 -0.141280 0.015862
v -0.058974 -0.132248 0.013387
v -0.068796 -0.142360 0.011177
v -0.047702 -0.125422 0.015609
v -0.066554 -0.140811 0.005533
v -0.075860 -0.155164 0.009227
v -0.057133 -0.131108 0.010707
v -0.073291 -0.153423 0.000927
v -0.079738 -0.168286 0.015862
v -0.049738 -0.126444 0.013371
v -0.053133 -0.129449 0.005140
v -0.058539 -0.137487 -0.005623
v -0.076437 -0.167692 -0.002562
v -0.079271 -0.169410 0.007758
v -0.061702 -0.148618 -0.015203
v -0.078892 -0.183560 0.006893
v -0.049181 -0.126578 0.009062
v -0.043654 -0.131315 -0.010994
v -0.040180 -0.139693 -0.022970
v -0.062142 -0.161764 -0.022459
v -0.075850 -0.182013 -0.004621
v -0.076437 -0.195598 0.015862
v -0.044417 -0.125163 0.005353
v -0.035593 -0.150755 -0.032040
v -0.075311 -0.196299 0.006625
v -0.076125 -0.195858 0.011242
v -0.028769 -0.125142 -0.005623
v -0.018658 -0.130768 -0.015203
v -0.030439 -0.163183 -0.037394
v -0.059956 -0.175423 -0.026743
v -0.071151 -0.194575 -0.007645
v -0.037154 -0.122916 0.005676
v -0.009044 -0.139746 -0.022459
v -0.061643 -0.190631 -0.022458
v -0.030760 -0.121239 0.009941
v -0.020754 -0.121819 0.005533
v -0.007069 -0.125962 0.000927
v -0.045796 -0.184060 -0.034375
v -0.000923 -0.150943 -0.026743
v 0.005252 -0.133818 -0.002562
v -0.025305 -0.175563 -0.039055
v -0.004814 -0.167066 -0.034375
v -0.026492 -0.120659 0.015862
v -0.004890 -0.124582 0.015862
v 0.011032 -0.160495 -0.022458
v 0.014971 -0.144352 -0.004621
v 0.013484 -0.136688 0.015862
v 0.020541 -0.156552 -0.007645
v 0.024964 -0.153940 0.011242
v 0.024700 -0.154827 0.006625
v 0.025002 -0.153538 0.015862
vn 0.3671611025596758 -0.33599009385262985 -0.8673542422793954
vn 0.7856500897471718 -0.5889970672829058 -0.1893050216248819
vn 0.6506388027748174 -0.7175767824842121 -0.24850092467304455
vn -0.6506388027748174 0.7175767824842121 0.24850092467304455
vn -0.7856500897471718 0.5889970672829058 0.1893050216248819
vn -0.3671611025596758 0.33599009385262985 0.8673542422793954
vn 0.8035511374671208 -0.5861851002813314 0.10340501768996307
vn -0.8035511374671208 0.5861851002813314 -0.10340501768996307
vn 0.5333050809783829 -0.6906471048695909 -0.4884590741688527
vn -0.5333050809783829 0.6906471048695909 0.4884590741688527
vn 0.7121392394429729 -0.6684032247375883 0.21469707218771597
vn -0.7121392394429729 0.6684032247375883 -0.21469707218771597
vn 0.9298200048643535 -0.35923100187931706 0.07992400041812232
vn -0.9298200048643535 0.35923100187931706 -0.07992400041812232
vn 0.5844473228458682 -0.8084994466111752 0.06892003807109477
vn -0.5844473228458682 0.8084994466111752 -0.06892003807109477
vn 0.8371179059782705 -0.4497179494894816 0.3114279650216585
vn -0.8371179059782705 0.4497179494894816 -0.3114279650216585
vn 0.9909981442155108 -0.12364801799394091 -0.05132100746851583
vn -0.9909981442155108 0.12364801799394091 0.05132100746851583
vn 0.5335481761304178 -0.8455432791236062 0.01956800645962484
vn -0.5335481761304178 0.8455432791236062 -0.01956800645962484
vn 0.5180400680057144 -0.824191108195695 0.22878703003401915
vn -0.5180400680057144 0.824191108195695 -0.22878703003401915
vn 0.6068082694456867 -0.6666152960022552 0.4329061922266258
vn -0.6068082694456867 0.6666152960022552 -0.4329061922266258
vn 0.9001658583580132 -0.19753896891704822 0.3881749389202899
vn -0.9001658583580132 0.19753896891704822 -0.3881749389202899
vn 0.979600698509319 -0.09189597171727307 0.17871094499831958
vn -0.979600698509319 0.09189597171727307 -0.17871094499831958
vn 0.6516841308757821 -0.4596730923147775 0.603331121165191
vn -0.6516841308757821 0.4596730923147775 -0.603331121165191
vn 0.9814819385312603 0.1538069903672992 0.11417799284920384
vn -0.9814819385312603 -0.1538069903672992 -0.11417799284920384
vn 0.4761720185161874 -0.8657620336655903 0.15400100598840605
vn -0.4761720185161874 0.8657620336655903 -0.15400100598840605
vn 0.3515089283600271 -0.8167818335341619 0.4575029067577144
vn -0.3515089283600271 0.8167818335341619 -0.4575029067577144
vn 0.2832480168582144 -0.6830550406537297 0.6732060400675416
vn -0.2832480168582144 0.6830550406537297 -0.6732060400675416
vn 0.6486936978070842 -0.22008989747147542 0.7285306606151636
vn -0.6486936978070842 0.22008989747147542 -0.7285306606151636
vn 0.8960588314679268 0.08752898353741892 0.43522091814300456
vn -0.8960588314679268 -0.08752898353741892 -0.43522091814300456
vn 0.983442201266876 0.17888503660981034 -0.029010005937057836
vn -0.983442201266876 -0.17888503660981034 0.029010005937057836
vn 0.3375908833012661 -0.8853836939397324 0.3195748895290515
vn -0.3375908833012661 0.8853836939397324 -0.3195748895290515
vn 0.20325307208920262 -0.49014617384360554 0.8476113006282865
vn -0.20325307208920262 0.49014617384360554 -0.8476113006282865
vn 0.9339699867096072 0.2638779962450161 0.24097399657094012
vn -0.9339699867096072 -0.2638779962450161 -0.24097399657094012
vn 0.9630084256056103 0.251155850196003 0.09764994175587964
vn -0.9630084256056103 -0.251155850196003 -0.09764994175587964
vn 0.10642899602407885 -0.9078749660840617 0.4055069848512729
vn -0.10642899602407885 0.9078749660840617 -0.4055069848512729
vn -0.09824598948650075 -0.8066779136757879 0.5827679376368405
vn 0.09824598948650075 0.8066779136757879 -0.5827679376368405
vn 0.11253404002380751 -0.2713780965182155 0.9558713399647831
vn -0.11253404002380751 0.2713780965182155 -0.9558713399647831
vn 0.6161312411396439 -0.03516101376121494 0.7868583079583041
vn -0.6161312411396439 0.03516101376121494 -0.7868583079583041
vn 0.8720779164754335 0.2210699788266921 0.4365869581852313
vn -0.8720779164754335 -0.2210699788266921 -0.4365869581852313
vn 0.17310392175825678 -0.9340125778329484 0.3124988587527351
vn -0.17310392175825678 0.9340125778329484 -0.3124988587527351
vn -0.2710139995257255 -0.6448019988715966 0.7146899987492925
vn 0.2710139995257255 0.6448019988715966 -0.7146899987492925
vn 0.7285441257361631 0.14113302435751557 0.6703021156844358
vn -0.7285441257361631 -0.14113302435751557 -0.6703021156844358
vn 0.042503984536096905 -0.9782346440962909 0.20310192610696273
vn -0.042503984536096905 0.9782346440962909 -0.20310192610696273
vn -0.11554898513774385 -0.9705188751689588 0.21152197279341084
vn 0.11554898513774385 0.9705188751689588 -0.21152197279341084
vn -0.3322680519353281 -0.8808741376854835 0.33713305269575433
vn 0.3322680519353281 0.8808741376854835 -0.33713305269575433
vn 0.39897594929794006 -0.006703999148052694 0.9169368834752097
vn -0.39897594929794006 0.006703999148052694 -0.9169368834752097
vn -0.4360280032795847 -0.4901470036866409 0.754742005676792
vn 0.4360280032795847 0.4901470036866409 -0.754742005676792
vn -0.5489078413480917 -0.752855782400619 0.36319189502593524
vn 0.5489078413480917 0.752855782400619 -0.36319189502593524
vn 0.047098987351427354 -0.11358096949749423 0.9924117334848876
vn -0.047098987351427354 0.11358096949749423 -0.9924117334848876
vn -0.2771509319579302 -0.28707892952055275 0.9169367748870063
vn 0.2771509319579302 0.28707892952055275 -0.9169367748870063
vn -0.09532199255125383 -0.9937189223478253 0.05862099541917951
vn 0.09532199255125383 0.9937189223478253 -0.05862099541917951
vn -0.37466796961948695 -0.9214849252800157 0.10241799169528365
vn 0.37466796961948695 0.9214849252800157 -0.10241799169528365
vn -0.6146261689656741 -0.4158481143199893 0.670302184271458
vn 0.6146261689656741 0.4158481143199893 -0.670302184271458
vn -0.7328420859664123 -0.5679960666290665 0.37459704394229604
vn 0.7328420859664123 0.5679960666290665 -0.37459704394229604
vn -0.727702791931609 -0.6724398077326755 0.13517896134896087
vn 0.727702791931609 0.6724398077326755 -0.13517896134896087
vn -0.7726080851869996 -0.4609430508231228 0.4365870481376539
vn 0.7726080851869996 0.4609430508231228 -0.4365870481376539
vn -0.8104285660975179 -0.5727104000475175 0.12332208614248028
vn 0.8104285660975179 0.5727104000475175 -0.12332208614248028
vn -0.8235082128900767 -0.5190301341776116 0.2290020592007039
vn 0.8235082128900767 0.5190301341776116 -0.2290020592007039
vn -0.8242851404833406 -0.5634250960248289 0.05573300949860535
vn 0.8242851404833406 0.5634250960248289 -0.05573300949860535
usemtl material_0_0
f 1//1 2//2 3//3
f 3//4 2//5 1//6
f 4//7 3//3 2//2
f 2//5 3//4 4//8
f 1//1 3//3 5//9
f 5//10 3//4 1//6
f 6//11 3//3 4//7
f 4//8 3//4 6//12
f 7//13 4//7 2//2
f 2//5 4//8 7//14
f 5//9 3//3 8//15
f 8//16 3//4 5//10
f 8//15 3//3 6//11
f 6//12 3//4 8//16
f 9//17 6//11 4//7
f 4//8 6//12 9//18
f 9//17 4//7 7//13
f 7//14 4//8 9//18
f 7//13 2//2 10//19
f 10//20 2//5 7//14
f 5//9 8//15 11//21
f 11//22 8//16 5//10
f 12//23 8//15 6//11
f 6//12 8//16 12//24
f 13//25 6//11 9//17
f 9//18 6//12 13//26
f 14//27 9//17 7//13
f 7//14 9//18 14//28
f 15//29 7//13 10//19
f 10//20 7//14 15//30
f 11//21 8//15 12//23
f 12//24 8//16 11//22
f 12//23 6//11 13//25
f 13//26 6//12 12//24
f 16//31 13//25 9//17
f 9//18 13//26 16//32
f 16//31 9//17 14//27
f 14//28 9//18 16//32
f 14//27 7//13 15//29
f 15//30 7//14 14//28
f 17//33 15//29 10//19
f 10//20 15//30 17//34
f 18//35 11//21 12//23
f 12//24 11//22 18//36
f 19//37 12//23 13//25
f 13//26 12//24 19//38
f 20//39 13//25 16//31
f 16//32 13//26 20//40
f 21//41 16//31 14//27
f 14//28 16//32 21//42
f 22//43 14//27 15//29
f 15//30 14//28 22//44
f 22//43 15//29 17//33
f 17//34 15//30 22//44
f 17//33 10//19 23//45
f 23//46 10//20 17//34
f 24//47 18//35 12//23
f 12//24 18//36 24//48
f 19//37 24//47 12//23
f 12//24 24//48 19//38
f 20//39 19//37 13//25
f 13//26 19//38 20//40
f 20//39 16//31 25//49
f 25//50 16//32 20//40
f 16//31 21//41 25//49
f 25//50 21//42 16//32
f 21//41 14//27 22//43
f 22//44 14//28 21//42
f 22//43 17//33 26//51
f 26//52 17//34 22//44
f 17//33 23//45 27//53
f 27//54 23//46 17//34
f 28//55 24//47 19//37
f 19//38 24//48 28//56
f 28//55 19//37 20//39
f 20//40 19//38 28//56
f 29//57 20//39 25//49
f 25//50 20//40 29//58
f 25//49 21//41 30//59
f 30//60 21//42 25//50
f 31//61 21//41 22//43
f 22//44 21//42 31//62
f 26//51 17//33 27//53
f 27//54 17//34 26//52
f 32//63 22//43 26//51
f 26//52 22//44 32//64
f 28//55 33//65 24//47
f 24//48 33//66 28//56
f 29//57 28//55 20//39
f 20//40 28//56 29//58
f 29//57 25//49 34//67
f 34//68 25//50 29//58
f 21//41 31//61 30//59
f 30//60 31//62 21//42
f 34//67 25//49 30//59
f 30//60 25//50 34//68
f 31//61 22//43 35//69
f 35//70 22//44 31//62
f 35//69 22//43 32//63
f 32//64 22//44 35//70
f 28//55 36//71 33//65
f 33//66 36//72 28//56
f 29//57 37//73 28//55
f 28//56 37//74 29//58
f 38//75 29//57 34//67
f 34//68 29//58 38//76
f 30//59 31//61 39//77
f 39//78 31//62 30//60
f 34//67 30//59 40//79
f 40//80 30//60 34//68
f 31//61 35//69 39//77
f 39//78 35//70 31//62
f 37//73 36//71 28//55
f 28//56 36//72 37//74
f 38//75 37//73 29//57
f 29//58 37//74 38//76
f 41//81 38//75 34//67
f 34//68 38//76 41//82
f 30//59 39//77 42//83
f 42//84 39//78 30//60
f 40//79 30//59 43//85
f 43//86 30//60 40//80
f 41//81 34//67 40//79
f 40//80 34//68 41//82
f 37//73 44//87 36//71
f 36//72 44//88 37//74
f 45//89 37//73 38//75
f 38//76 37//74 45//90
f 41//81 45//89 38//75
f 38//76 45//90 41//82
f 30//59 42//83 43//85
f 43//86 42//84 30//60
f 40//79 43//85 46//91
f 46//92 43//86 40//80
f 47//93 41//81 40//79
f 40//80 41//82 47//94
f 45//89 44//87 37//73
f 37//74 44//88 45//90
f 48//95 45//89 41//81
f 41//82 45//90 48//96
f 40//79 46//91 47//93
f 47//94 46//92 40//80
f 47//93 48//95 41//81
f 41//82 48//96 47//94
f 46//91 49//97 47//93
f 47//94 49//98 46//92
f 47//93 50//99 48//95
f 48//96 50//100 47//94
f 49//97 51//101 47//93
f 47//94 51//102 49//98
f 47//93 51//101 50//99
f 50//100 51//102 47//94
f 50//99 52//103 48//95
f 48//96 52//104 50//100
