# SSTK version 0.8.0
# 81
mtllib original-81.mtl
o Group81/mesh81/mesh81-geometry#mesh81-geometry
v 0.016821 0.238551 0.896439
v 0.003380 0.237856 0.893843
v 0.003380 0.237718 0.891977
v 0.017528 0.238451 0.894710
v 0.031338 0.241474 0.907345
v 0.003380 0.238354 0.890054
v 0.032808 0.241527 0.906189
v 0.018179 0.239120 0.892913
v 0.038327 0.246901 0.927599
v 0.003380 0.239701 0.888542
v 0.040165 0.247239 0.927508
v 0.034162 0.242338 0.904921
v 0.018607 0.240490 0.891484
v 0.031338 0.252328 0.947853
v 0.003380 0.241386 0.887728
v 0.032808 0.252951 0.948827
v 0.041857 0.248313 0.927221
v 0.035051 0.243800 0.903838
v 0.018741 0.242181 0.890696
v 0.016821 0.255250 0.958759
v 0.034162 0.254288 0.949520
v 0.017528 0.256027 0.960307
v 0.042969 0.249948 0.926783
v 0.035332 0.245521 0.903160
v 0.003380 0.255946 0.961356
v 0.035051 0.256096 0.949727
v 0.018179 0.257506 0.961528
v 0.003380 0.256760 0.963040
v 0.043320 0.251723 0.926307
v 0.035332 0.257925 0.949454
v 0.018607 0.259406 0.962081
v 0.003380 0.258272 0.964387
v 0.018741 0.261265 0.961918
v 0.003380 0.260194 0.965023
v 0.003380 0.262060 0.964886
vn 0.06471299684973904 -0.9943439515948405 0.0842159959003231
vn 0.03744699209842338 -0.9966137897075363 0.07320298455365926
vn 0.06244100834005872 -0.9964641330947338 -0.05621700750873777
vn -0.06244100834005872 0.9964641330947338 0.05621700750873777
vn -0.03744699209842338 0.9966137897075363 -0.07320298455365926
vn -0.06471299684973904 0.9943439515948405 -0.0842159959003231
vn 0.14327004897028423 -0.9851543367297506 -0.09457603232647191
vn -0.14327004897028423 0.9851543367297506 0.09457603232647191
vn 0.14192100282124764 -0.980576019492871 0.13538500269131828
vn -0.14192100282124764 0.980576019492871 -0.13538500269131828
vn 0.13012193527651966 -0.8910765567728387 -0.43479978372781536
vn -0.13012193527651966 0.8910765567728387 0.43479978372781536
vn 0.2951250361762816 -0.9553001171002179 0.017404002133373796
vn -0.2951250361762816 0.9553001171002179 -0.017404002133373796
vn 0.2843669244737189 -0.8509397739951061 -0.4416298827055479
vn -0.2843669244737189 0.8509397739951061 0.4416298827055479
vn 0.1873249871305865 -0.9540009344591842 0.2340759839187462
vn -0.1873249871305865 0.9540009344591842 -0.2340759839187462
vn 0.17711500582805792 -0.6439800211904848 -0.744258024490183
vn -0.17711500582805792 0.6439800211904848 0.744258024490183
vn 0.37398515483830086 -0.9008433729695026 0.22049109128829156
vn -0.37398515483830086 0.9008433729695026 -0.22049109128829156
vn 0.5685559956920513 -0.7923829939961141 -0.22107299832493008
vn -0.5685559956920513 0.7923829939961141 0.22107299832493008
vn 0.38084107043465826 -0.5814101075289021 -0.7189731329704985
vn -0.38084107043465826 0.5814101075289021 0.7189731329704985
vn 0.16459495012024858 -0.9245347198239561 0.3437208958369448
vn -0.16459495012024858 0.9245347198239561 -0.3437208958369448
vn 0.1927729844760886 -0.4270529656096394 -0.8834389288571078
vn -0.1927729844760886 0.4270529656096394 0.8834389288571078
vn 0.31691385146425566 -0.8433876047089611 0.4338927966368801
vn -0.31691385146425566 0.8433876047089611 -0.4338927966368801
vn 0.705490324443787 -0.6884063165871233 0.16846407747395145
vn -0.705490324443787 0.6884063165871233 -0.16846407747395145
vn 0.7525919413892709 -0.5030619608222905 -0.4248929669099745
vn -0.7525919413892709 0.5030619608222905 0.4248929669099745
vn 0.4777542235219044 -0.40207118811286885 -0.7810823654368905
vn -0.4777542235219044 0.40207118811286885 0.7810823654368905
vn 0.09194699640409096 -0.905991964568014 0.4131879838408378
vn -0.09194699640409096 0.905991964568014 -0.4131879838408378
vn 0.584866947837474 -0.5816909481207319 0.5653019495824172
vn -0.584866947837474 0.5816909481207319 -0.5653019495824172
vn 0.16974200422309624 -0.808546020116221 0.5634190140175833
vn -0.16974200422309624 0.808546020116221 -0.5634190140175833
vn 0.9263293517444586 -0.36577113889009455 0.09014103422822471
vn -0.9263293517444586 0.36577113889009455 -0.09014103422822471
vn 0.8550802554291845 -0.30482009105571867 -0.41943112529227483
vn -0.8550802554291845 0.30482009105571867 0.41943112529227483
vn 0.03744701592685586 -0.8996943826553973 0.43491118497515957
vn -0.03744701592685586 0.8996943826553973 -0.43491118497515957
vn 0.7604327737659604 -0.22692893248706425 0.6084778189736164
vn -0.7604327737659604 0.22692893248706425 -0.6084778189736164
vn 0.30475901016097035 -0.51855401728911 0.7988890266357593
vn -0.30475901016097035 0.51855401728911 -0.7988890266357593
vn 0.0867669888631974 -0.7539609032268626 0.651163916421163
vn -0.0867669888631974 0.7539609032268626 -0.651163916421163
vn 0.9764912999088424 -0.1518310466317247 0.15301004699382992
vn -0.9764912999088424 0.1518310466317247 -0.15301004699382992
vn 0.7409746458731113 -0.01357999350984441 0.6713956791263179
vn -0.7409746458731113 0.01357999350984441 -0.6713956791263179
vn 0.39092785147070486 -0.14598394453479785 0.9087706547212887
vn -0.39092785147070486 0.14598394453479785 -0.9087706547212887
vn 0.14904803767979583 -0.43489710994330816 0.8880592245040644
vn -0.14904803767979583 0.43489710994330816 -0.8880592245040644
vn 0.337527059600871 0.057953010233401187 0.9395301659031907
vn -0.337527059600871 -0.057953010233401187 -0.9395301659031907
vn 0.18657107793625935 -0.05624002349312201 0.9808304097218821
vn -0.18657107793625935 0.05624002349312201 -0.9808304097218821
vn 0.19277301692759213 0.07188000631185529 0.9786070859324706
vn -0.19277301692759213 -0.07188000631185529 -0.9786070859324706
usemtl material_0_0
f 1//1 2//2 3//3
f 3//4 2//5 1//6
f 4//7 1//1 3//3
f 3//4 1//6 4//8
f 5//9 1//1 4//7
f 4//8 1//6 5//10
f 4//7 3//3 6//11
f 6//12 3//4 4//8
f 7//13 5//9 4//7
f 4//8 5//10 7//14
f 8//15 4//7 6//11
f 6//12 4//8 8//16
f 9//17 5//9 7//13
f 7//14 5//10 9//18
f 7//13 4//7 8//15
f 8//16 4//8 7//14
f 8//15 6//11 10//19
f 10//20 6//12 8//16
f 11//21 9//17 7//13
f 7//14 9//18 11//22
f 12//23 7//13 8//15
f 8//16 7//14 12//24
f 13//25 8//15 10//19
f 10//20 8//16 13//26
f 11//21 14//27 9//17
f 9//18 14//28 11//22
f 11//21 7//13 12//23
f 12//24 7//14 11//22
f 12//23 8//15 13//25
f 13//26 8//16 12//24
f 15//29 13//25 10//19
f 10//20 13//26 15//30
f 11//21 16//31 14//27
f 14//28 16//32 11//22
f 17//33 11//21 12//23
f 12//24 11//22 17//34
f 18//35 12//23 13//25
f 13//26 12//24 18//36
f 19//37 13//25 15//29
f 15//30 13//26 19//38
f 17//33 16//31 11//21
f 11//22 16//32 17//34
f 16//31 20//39 14//27
f 14//28 20//40 16//32
f 18//35 17//33 12//23
f 12//24 17//34 18//36
f 18//35 13//25 19//37
f 19//38 13//26 18//36
f 17//33 21//41 16//31
f 16//32 21//42 17//34
f 16//31 22//43 20//39
f 20//40 22//44 16//32
f 18//35 23//45 17//33
f 17//34 23//46 18//36
f 24//47 18//35 19//37
f 19//38 18//36 24//48
f 23//45 21//41 17//33
f 17//34 21//42 23//46
f 21//41 22//43 16//31
f 16//32 22//44 21//42
f 22//43 25//49 20//39
f 20//40 25//50 22//44
f 24//47 23//45 18//35
f 18//36 23//46 24//48
f 23//45 26//51 21//41
f 21//42 26//52 23//46
f 21//41 27//53 22//43
f 22//44 27//54 21//42
f 22//43 28//55 25//49
f 25//50 28//56 22//44
f 24//47 29//57 23//45
f 23//46 29//58 24//48
f 29//57 26//51 23//45
f 23//46 26//52 29//58
f 27//53 21//41 26//51
f 26//52 21//42 27//54
f 27//53 28//55 22//43
f 22//44 28//56 27//54
f 29//57 30//59 26//51
f 26//52 30//60 29//58
f 31//61 27//53 26//51
f 26//52 27//54 31//62
f 32//63 28//55 27//53
f 27//54 28//56 32//64
f 31//61 26//51 30//59
f 30//60 26//52 31//62
f 31//61 32//63 27//53
f 27//54 32//64 31//62
f 33//65 31//61 30//59
f 30//60 31//62 33//66
f 34//67 32//63 31//61
f 31//62 32//64 34//68
f 33//65 34//67 31//61
f 31//62 34//68 33//66
f 35//69 34//67 33//65
f 33//66 34//68 35//70
