# SSTK version 0.8.0
# 148
mtllib original-148.mtl
o Group118/mesh147/mesh147-geometry#mesh147-geometry
v -0.032149 -0.200177 -0.036748
v -0.033081 -0.200564 -0.036435
v -0.031325 -0.205196 -0.036907
v -0.030384 -0.204805 -0.037223
v -0.029905 -0.209804 -0.038324
v -0.031211 -0.199788 -0.037041
v -0.028939 -0.209404 -0.038648
v -0.029438 -0.204413 -0.037519
v -0.028907 -0.214115 -0.040601
v -0.030269 -0.199397 -0.037315
v -0.027901 -0.213698 -0.040939
v -0.027967 -0.209001 -0.038952
v -0.028486 -0.204019 -0.037795
v -0.026888 -0.213278 -0.041255
v -0.026991 -0.208596 -0.039236
v -0.025870 -0.212856 -0.041551
vn 0.30460703761623 0.01841300227383999 0.952300117600501
vn 0.310242917269704 0.0207539944656781 0.9504307465553197
vn 0.3331708189768488 -0.04139197751031691 0.9419574882021381
vn -0.3331708189768488 0.04139197751031691 -0.9419574882021381
vn -0.310242917269704 -0.0207539944656781 -0.9504307465553197
vn -0.30460703761623 -0.01841300227383999 -0.952300117600501
vn 0.33574610794239107 -0.07604002444687201 0.9388783018494227
vn -0.33574610794239107 0.07604002444687201 -0.9388783018494227
vn 0.39274212432175354 -0.22589207150569493 0.8914742821944456
vn -0.39274212432175354 0.22589207150569493 -0.8914742821944456
vn 0.28763185577725303 0.011372994297416967 0.9576735198087314
vn -0.28763185577725303 -0.011372994297416967 -0.9576735198087314
vn 0.39328406970842766 -0.2593530459695536 0.8820791563458978
vn -0.39328406970842766 0.2593530459695536 -0.8820791563458978
vn 0.3190099156148703 -0.08297997804997335 0.9441117502617046
vn -0.3190099156148703 0.08297997804997335 -0.9441117502617046
vn 0.4238421822528133 -0.34438714808702225 0.8377083602159288
vn -0.4238421822528133 0.34438714808702225 -0.8377083602159288
vn 0.2762620704891051 0.006663001700084876 0.961059245217181
vn -0.2762620704891051 -0.006663001700084876 -0.961059245217181
vn 0.41389986173263527 -0.34852588357146297 0.8409617190683749
vn -0.41389986173263527 0.34852588357146297 -0.8409617190683749
vn 0.3775599743723625 -0.26587298195334047 0.8869949397934465
vn -0.3775599743723625 0.26587298195334047 -0.8869949397934465
vn 0.3214831364025911 -0.11740804981524833 0.9396083986679413
vn -0.3214831364025911 0.11740804981524833 -0.9396083986679413
vn 0.39890994265669993 -0.3547419490058487 0.8455938784458887
vn -0.39890994265669993 0.3547419490058487 -0.8455938784458887
vn 0.3782647729371816 -0.298758820662603 0.8761614740623289
vn -0.3782647729371816 0.298758820662603 -0.8761614740623289
vn 0.3938920211344739 -0.3568070191446597 0.8470760454502899
vn -0.3938920211344739 0.3568070191446597 -0.8470760454502899
usemtl material_0_0
f 1//1 2//2 3//3
f 3//4 2//5 1//6
f 1//1 3//3 4//7
f 4//8 3//4 1//6
f 4//7 3//3 5//9
f 5//10 3//4 4//8
f 6//11 1//1 4//7
f 4//8 1//6 6//12
f 4//7 5//9 7//13
f 7//14 5//10 4//8
f 6//11 4//7 8//15
f 8//16 4//8 6//12
f 7//13 5//9 9//17
f 9//18 5//10 7//14
f 8//15 4//7 7//13
f 7//14 4//8 8//16
f 10//19 6//11 8//15
f 8//16 6//12 10//20
f 7//13 9//17 11//21
f 11//22 9//18 7//14
f 8//15 7//13 12//23
f 12//24 7//14 8//16
f 10//19 8//15 13//25
f 13//26 8//16 10//20
f 12//23 7//13 11//21
f 11//22 7//14 12//24
f 13//25 8//15 12//23
f 12//24 8//16 13//26
f 12//23 11//21 14//27
f 14//28 11//22 12//24
f 13//25 12//23 15//29
f 15//30 12//24 13//26
f 15//29 12//23 14//27
f 14//28 12//24 15//30
f 15//29 14//27 16//31
f 16//32 14//28 15//30
