# SSTK version 0.8.0
# 210
mtllib original-210.mtl
o mesh204/mesh204-geometry#mesh204-geometry
v -0.006020 -0.202504 -0.041551
v -0.012716 -0.205924 -0.041551
v -0.013239 -0.204789 -0.041551
v -0.003744 -0.202203 -0.041551
v -0.019909 -0.208273 -0.041551
v -0.004834 -0.203529 -0.041551
v -0.021699 -0.209649 -0.041551
v 0.001485 -0.201512 -0.041551
v -0.019979 -0.209810 -0.041551
v 0.003363 -0.202719 -0.041551
v -0.025870 -0.212856 -0.041551
v 0.010086 -0.201993 -0.041551
v -0.026344 -0.215038 -0.041551
v 0.011561 -0.203523 -0.041551
v -0.031607 -0.219283 -0.041551
v 0.018421 -0.204169 -0.041551
v -0.031567 -0.221407 -0.041551
v 0.019445 -0.205911 -0.041551
v -0.035957 -0.226718 -0.041551
v 0.026158 -0.207952 -0.041551
v -0.035447 -0.228673 -0.041551
v 0.026711 -0.209791 -0.041551
v -0.038747 -0.234866 -0.041551
v 0.032993 -0.213192 -0.041551
v -0.037835 -0.236557 -0.041551
v 0.033081 -0.215014 -0.041551
v -0.039867 -0.243405 -0.041551
v 0.038654 -0.219682 -0.041551
v -0.038640 -0.244755 -0.041551
v 0.038309 -0.221380 -0.041551
v -0.039275 -0.251997 -0.041551
v 0.042919 -0.227166 -0.041551
v -0.037829 -0.252952 -0.041551
v 0.041679 -0.227680 -0.041551
v -0.036991 -0.260303 -0.041551
v 0.042195 -0.228643 -0.041551
v -0.035752 -0.259789 -0.041551
v 0.043260 -0.228201 -0.041551
v -0.035435 -0.260834 -0.041551
v 0.045616 -0.235348 -0.041551
v -0.036500 -0.261276 -0.041551
v 0.044589 -0.236524 -0.041551
v -0.033107 -0.267993 -0.041551
v 0.046604 -0.242802 -0.041551
v -0.031549 -0.268097 -0.041551
v 0.045400 -0.244722 -0.041551
v -0.028496 -0.273996 -0.041551
v 0.046286 -0.250321 -0.041551
v -0.026321 -0.274462 -0.041551
v 0.044595 -0.252920 -0.041551
v -0.022907 -0.279105 -0.041551
v 0.044656 -0.257715 -0.041551
v -0.019951 -0.279686 -0.041551
v 0.042207 -0.260803 -0.041551
v -0.016555 -0.283140 -0.041551
v 0.041763 -0.264710 -0.041551
v -0.012685 -0.283566 -0.041551
v 0.038327 -0.268069 -0.041551
v -0.009606 -0.286011 -0.041551
v 0.037045 -0.271919 -0.041551
v -0.004801 -0.285954 -0.041551
v 0.033104 -0.274439 -0.041551
v -0.001171 -0.287766 -0.041551
v 0.030994 -0.278049 -0.041551
v 0.003397 -0.286758 -0.041551
v 0.026739 -0.279667 -0.041551
v 0.007442 -0.287815 -0.041551
v 0.028178 -0.279944 -0.041551
v 0.011594 -0.285947 -0.041551
v 0.019476 -0.283553 -0.041551
v 0.010773 -0.287162 -0.041551
v 0.023849 -0.282858 -0.041551
v 0.015894 -0.286157 -0.041551
vn 0 0 -1
vn 0 0 1
usemtl material_0_0
f 1//1 2//1 3//1
f 3//2 2//2 1//2
f 4//1 2//1 1//1
f 1//2 2//2 4//2
f 3//1 2//1 5//1
f 5//2 2//2 3//2
f 4//1 6//1 2//1
f 2//2 6//2 4//2
f 2//1 7//1 5//1
f 5//2 7//2 2//2
f 8//1 6//1 4//1
f 4//2 6//2 8//2
f 2//1 9//1 7//1
f 7//2 9//2 2//2
f 8//1 10//1 6//1
f 6//2 10//2 8//2
f 7//1 9//1 11//1
f 11//2 9//2 7//2
f 8//1 12//1 10//1
f 10//2 12//2 8//2
f 9//1 13//1 11//1
f 11//2 13//2 9//2
f 12//1 14//1 10//1
f 10//2 14//2 12//2
f 11//1 13//1 15//1
f 15//2 13//2 11//2
f 12//1 16//1 14//1
f 14//2 16//2 12//2
f 13//1 17//1 15//1
f 15//2 17//2 13//2
f 14//1 16//1 18//1
f 18//2 16//2 14//2
f 15//1 17//1 19//1
f 19//2 17//2 15//2
f 16//1 20//1 18//1
f 18//2 20//2 16//2
f 17//1 21//1 19//1
f 19//2 21//2 17//2
f 18//1 20//1 22//1
f 22//2 20//2 18//2
f 19//1 21//1 23//1
f 23//2 21//2 19//2
f 20//1 24//1 22//1
f 22//2 24//2 20//2
f 21//1 25//1 23//1
f 23//2 25//2 21//2
f 22//1 24//1 26//1
f 26//2 24//2 22//2
f 23//1 25//1 27//1
f 27//2 25//2 23//2
f 24//1 28//1 26//1
f 26//2 28//2 24//2
f 25//1 29//1 27//1
f 27//2 29//2 25//2
f 26//1 28//1 30//1
f 30//2 28//2 26//2
f 27//1 29//1 31//1
f 31//2 29//2 27//2
f 28//1 32//1 30//1
f 30//2 32//2 28//2
f 29//1 33//1 31//1
f 31//2 33//2 29//2
f 30//1 32//1 34//1
f 34//2 32//2 30//2
f 31//1 33//1 35//1
f 35//2 33//2 31//2
f 32//1 36//1 34//1
f 34//2 36//2 32//2
f 33//1 37//1 35//1
f 35//2 37//2 33//2
f 32//1 38//1 36//1
f 36//2 38//2 32//2
f 37//1 39//1 35//1
f 35//2 39//2 37//2
f 38//1 40//1 36//1
f 36//2 40//2 38//2
f 35//1 39//1 41//1
f 41//2 39//2 35//2
f 36//1 40//1 42//1
f 42//2 40//2 36//2
f 39//1 43//1 41//1
f 41//2 43//2 39//2
f 40//1 44//1 42//1
f 42//2 44//2 40//2
f 39//1 45//1 43//1
f 43//2 45//2 39//2
f 42//1 44//1 46//1
f 46//2 44//2 42//2
f 43//1 45//1 47//1
f 47//2 45//2 43//2
f 44//1 48//1 46//1
f 46//2 48//2 44//2
f 45//1 49//1 47//1
f 47//2 49//2 45//2
f 46//1 48//1 50//1
f 50//2 48//2 46//2
f 47//1 49//1 51//1
f 51//2 49//2 47//2
f 48//1 52//1 50//1
f 50//2 52//2 48//2
f 49//1 53//1 51//1
f 51//2 53//2 49//2
f 50//1 52//1 54//1
f 54//2 52//2 50//2
f 51//1 53//1 55//1
f 55//2 53//2 51//2
f 52//1 56//1 54//1
f 54//2 56//2 52//2
f 53//1 57//1 55//1
f 55//2 57//2 53//2
f 54//1 56//1 58//1
f 58//2 56//2 54//2
f 55//1 57//1 59//1
f 59//2 57//2 55//2
f 56//1 60//1 58//1
f 58//2 60//2 56//2
f 57//1 61//1 59//1
f 59//2 61//2 57//2
f 58//1 60//1 62//1
f 62//2 60//2 58//2
f 61//1 63//1 59//1
f 59//2 63//2 61//2
f 60//1 64//1 62//1
f 62//2 64//2 60//2
f 61//1 65//1 63//1
f 63//2 65//2 61//2
f 62//1 64//1 66//1
f 66//2 64//2 62//2
f 65//1 67//1 63//1
f 63//2 67//2 65//2
f 64//1 68//1 66//1
f 66//2 68//2 64//2
f 69//1 67//1 65//1
f 65//2 67//2 69//2
f 66//1 68//1 70//1
f 70//2 68//2 66//2
f 69//1 71//1 67//1
f 67//2 71//2 69//2
f 68//1 72//1 70//1
f 70//2 72//2 68//2
f 70//1 71//1 69//1
f 69//2 71//2 70//2
f 72//1 73//1 70//1
f 70//2 73//2 72//2
f 70//1 73//1 71//1
f 71//2 73//2 70//2
