mtllib new-1.mtl
v -0.277790 0.665640 0.210244
v 0.296207 0.665640 0.210244
v -0.277790 0.357382 0.210244
v 0.296207 0.665640 0.252763
v 0.296207 0.357382 0.210244
v -0.277790 0.344627 0.210244
v -0.277790 0.357382 0.252763
v -0.277790 0.665640 0.252763
v 0.296207 0.344627 0.210244
v 0.296207 0.357382 0.252763
v 0.296207 0.344627 0.252763
v -0.277790 0.344627 0.252763
vn 0.000000 1.000000 0.000000
vn 0.000000 -1.000000 0.000000
vn 0.000000 0.000000 1.000000
vn 0.000000 0.000000 -1.000000
usemtl material-0
f 5//4 1//4 2//4
f 2//3 1//3 5//3
f 1//4 5//4 3//4
f 3//3 5//3 1//3
f 6//3 5//3 3//3
f 3//4 5//4 6//4
f 5//2 7//2 3//2
f 3//1 7//1 5//1
f 7//3 4//3 8//3
f 8//4 4//4 7//4
f 5//3 6//3 9//3
f 9//4 6//4 5//4
f 7//2 5//2 10//2
f 10//1 5//1 7//1
f 4//3 7//3 10//3
f 10//4 7//4 4//4
f 6//1 11//1 9//1
f 9//2 11//2 6//2
f 11//1 6//1 12//1
f 12//2 6//2 11//2