# SSTK version 0.8.0
# 10
mtllib original-10.mtl
o Gancio_Zoccoli1/Gancio_Zoccoli/mesh6/mesh6-geometry#mesh6-geometry
v -0.259720 -0.886278 0.226776
v -0.280979 -0.884152 0.226776
v -0.280979 -0.886278 0.226776
v -0.259720 -0.884152 0.226776
v -0.280979 -0.884152 0.224650
v -0.280979 -0.880963 0.228902
v -0.259720 -0.886278 0.224650
v -0.280979 -0.889467 0.226776
v -0.259720 -0.880963 0.228902
v -0.259720 -0.880963 0.226776
v -0.280979 -0.886278 0.224650
v -0.280979 -0.880963 0.226776
v -0.259720 -0.889467 0.226776
v -0.259720 -0.884152 0.224650
v -0.259720 -0.889467 0.228902
v -0.280979 -0.874585 0.222524
v -0.280979 -0.889467 0.228902
v -0.280979 -0.895844 0.224650
v -0.259720 -0.874585 0.222524
v -0.259720 -0.874585 0.224650
v -0.280979 -0.874585 0.224650
v -0.259720 -0.895844 0.224650
v -0.259720 -0.895844 0.222524
v -0.280979 -0.895844 0.222524
v -0.262214 -0.885215 0.222524
v -0.278485 -0.895844 0.222524
v -0.270350 -0.885215 0.222524
v -0.262214 -0.895844 0.222524
v -0.278485 -0.885215 0.222524
v -0.261846 -0.885215 0.222372
v -0.278853 -0.895844 0.222372
v -0.278853 -0.885215 0.222372
v -0.266498 -0.885215 0.222017
v -0.261846 -0.895844 0.222372
v -0.274201 -0.885215 0.222017
v -0.262909 -0.885215 0.220530
v -0.266498 -0.895844 0.222017
v -0.258324 -0.885215 0.219669
v -0.282376 -0.895844 0.219669
v -0.277790 -0.885215 0.220530
v -0.270350 -0.895844 0.222524
v -0.262909 -0.895844 0.220530
v -0.258324 -0.895844 0.219669
v -0.282376 -0.885215 0.219669
v -0.274201 -0.895844 0.222017
v -0.259827 -0.885215 0.218166
v -0.259827 -0.895844 0.218166
v -0.255621 -0.895844 0.216146
v -0.285078 -0.885215 0.216146
v -0.280872 -0.885215 0.218166
v -0.277790 -0.895844 0.220530
v -0.255621 -0.885215 0.216146
v -0.285078 -0.895844 0.216146
v -0.257462 -0.885215 0.215083
v -0.253922 -0.895844 0.212045
v -0.286777 -0.885215 0.212045
v -0.283237 -0.885215 0.215083
v -0.280872 -0.895844 0.218166
v -0.253922 -0.885215 0.212045
v -0.257462 -0.895844 0.215083
v -0.286777 -0.895844 0.212045
v -0.283237 -0.895844 0.215083
v -0.255975 -0.885215 0.211494
v -0.253342 -0.895844 0.207643
v -0.287357 -0.885215 0.207643
v -0.284724 -0.885215 0.211494
v -0.284724 -0.895844 0.211494
v -0.255468 -0.885215 0.207643
v -0.255975 -0.895844 0.211494
v -0.253342 -0.885215 0.207643
v -0.287357 -0.895844 0.207643
v -0.253922 -0.895844 0.203241
v -0.286777 -0.885215 0.203241
v -0.285231 -0.885215 0.207643
v -0.285231 -0.895844 0.207643
v -0.255975 -0.885215 0.203791
v -0.255468 -0.895844 0.207643
v -0.253922 -0.885215 0.203241
v -0.286777 -0.895844 0.203241
v -0.284724 -0.885215 0.203791
v -0.255621 -0.895844 0.199139
v -0.285078 -0.885215 0.199139
v -0.283237 -0.885215 0.200202
v -0.284724 -0.895844 0.203791
v -0.257462 -0.885215 0.200202
v -0.255975 -0.895844 0.203791
v -0.255621 -0.885215 0.199139
v -0.285078 -0.895844 0.199139
v -0.283237 -0.895844 0.200202
v -0.258324 -0.895844 0.195617
v -0.282376 -0.885215 0.195617
v -0.280872 -0.885215 0.197120
v -0.280872 -0.895844 0.197120
v -0.259827 -0.885215 0.197120
v -0.257462 -0.895844 0.200202
v -0.258324 -0.885215 0.195617
v -0.282376 -0.895844 0.195617
v -0.260145 -0.885215 0.194219
v -0.280554 -0.895844 0.194219
v -0.277790 -0.885215 0.194755
v -0.262909 -0.885215 0.194755
v -0.259827 -0.895844 0.197120
v -0.260145 -0.895844 0.194219
v -0.280554 -0.885215 0.194219
v -0.277790 -0.895844 0.194755
v -0.262909 -0.895844 0.194755
v -0.256816 -0.895844 0.188454
v -0.256816 -0.885215 0.188454
v -0.283883 -0.885215 0.188454
v -0.282042 -0.895844 0.187391
v -0.258657 -0.885215 0.187391
v -0.283883 -0.895844 0.188454
v -0.282042 -0.885215 0.187391
v -0.258657 -0.895844 0.187391
vn 0 0 1
vn 0 0 -1
vn 1 0 0
vn -1 0 0
vn 0 1 0
vn 0 -1 0
vn -0.5000001748438417 0 -0.8660253028382762
vn -0.38268289803626016 0 -0.9238797538373538
vn 0.38268289803626016 0 0.9238797538373538
vn 0.5000001748438417 0 0.8660253028382762
vn 0.5000001748438417 0 -0.8660253028382762
vn 0.38268289803626016 0 -0.9238797538373538
vn -0.38268289803626016 0 0.9238797538373538
vn -0.5000001748438417 0 0.8660253028382762
vn 0.2588189595935754 0 0.965925849201117
vn -0.2588189595935754 0 -0.965925849201117
vn -0.7071067811865475 0 -0.7071067811865475
vn 0.7071067811865475 0 0.7071067811865475
vn 0.7071067811865475 0 -0.7071067811865475
vn -0.7071067811865475 0 0.7071067811865475
vn -0.2588189595935754 0 0.965925849201117
vn 0.2588189595935754 0 -0.965925849201117
vn -0.8660253028382762 0 -0.5000001748438417
vn 0.8660253028382762 0 0.5000001748438417
vn 0.8660253028382762 0 -0.5000001748438417
vn -0.8660253028382762 0 0.5000001748438417
vn -0.965925849201117 0 -0.2588189595935754
vn 0.965925849201117 0 0.2588189595935754
vn 0.965925849201117 0 -0.2588189595935754
vn -0.965925849201117 0 0.2588189595935754
vn -0.6087613233345314 0 0.7933534213778813
vn 0.6087613233345314 0 -0.7933534213778813
vn 0.6087613233345314 0 0.7933534213778813
vn -0.6087613233345314 0 -0.7933534213778813
usemtl material_0_0
f 1//1 2//1 3//1
f 2//1 1//1 4//1
f 3//2 2//2 1//2
f 4//2 1//2 2//2
f 2//3 3//3 5//3
f 5//4 3//4 2//4
f 3//4 6//4 2//4
f 2//3 6//3 3//3
f 7//5 3//5 1//5
f 1//6 3//6 7//6
f 1//2 8//2 3//2
f 3//1 8//1 1//1
f 4//4 7//4 1//4
f 1//3 7//3 4//3
f 9//3 1//3 4//3
f 4//4 1//4 9//4
f 5//6 4//6 2//6
f 2//5 4//5 5//5
f 2//2 10//2 4//2
f 4//1 10//1 2//1
f 11//3 5//3 3//3
f 3//4 5//4 11//4
f 8//4 6//4 3//4
f 3//3 6//3 8//3
f 2//4 6//4 12//4
f 12//3 6//3 2//3
f 3//5 7//5 11//5
f 11//6 7//6 3//6
f 8//2 1//2 13//2
f 13//1 1//1 8//1
f 14//4 7//4 4//4
f 4//3 7//3 14//3
f 15//3 1//3 9//3
f 9//4 1//4 15//4
f 9//3 4//3 10//3
f 10//4 4//4 9//4
f 4//6 5//6 14//6
f 14//5 5//5 4//5
f 10//2 2//2 12//2
f 12//1 2//1 10//1
f 11//3 16//3 5//3
f 5//4 16//4 11//4
f 6//4 8//4 17//4
f 17//3 8//3 6//3
f 6//5 10//5 12//5
f 12//6 10//6 6//6
f 7//2 18//2 11//2
f 11//1 18//1 7//1
f 1//3 15//3 13//3
f 13//4 15//4 1//4
f 15//6 8//6 13//6
f 13//5 8//5 15//5
f 19//4 7//4 14//4
f 14//3 7//3 19//3
f 6//1 15//1 9//1
f 9//2 15//2 6//2
f 10//5 6//5 9//5
f 9//6 6//6 10//6
f 5//2 20//2 14//2
f 14//1 20//1 5//1
f 18//3 16//3 11//3
f 11//4 16//4 18//4
f 5//3 16//3 21//3
f 21//4 16//4 5//4
f 8//6 15//6 17//6
f 17//5 15//5 8//5
f 15//1 6//1 17//1
f 17//2 6//2 15//2
f 18//2 7//2 22//2
f 22//1 7//1 18//1
f 23//4 7//4 19//4
f 19//3 7//3 23//3
f 19//4 14//4 20//4
f 20//3 14//3 19//3
f 20//2 5//2 21//2
f 21//1 5//1 20//1
f 16//3 18//3 24//3
f 24//4 18//4 16//4
f 16//6 20//6 21//6
f 21//5 20//5 16//5
f 7//4 23//4 22//4
f 22//3 23//3 7//3
f 19//1 25//1 23//1
f 23//2 25//2 19//2
f 20//6 16//6 19//6
f 19//5 16//5 20//5
f 26//1 16//1 24//1
f 24//2 16//2 26//2
f 19//1 27//1 25//1
f 25//2 27//2 19//2
f 23//1 25//1 28//1
f 28//2 25//2 23//2
f 16//1 29//1 19//1
f 19//2 29//2 16//2
f 16//1 26//1 29//1
f 29//2 26//2 16//2
f 19//1 29//1 27//1
f 27//2 29//2 19//2
f 27//6 30//6 25//6
f 25//5 30//5 27//5
f 30//7 28//8 25//8
f 25//9 28//9 30//10
f 31//11 29//12 26//12
f 26//13 29//13 31//14
f 32//6 27//6 29//6
f 29//5 27//5 32//5
f 33//6 30//6 27//6
f 27//5 30//5 33//5
f 28//8 30//7 34//7
f 34//10 30//10 28//9
f 29//12 31//11 32//11
f 32//14 31//14 29//13
f 32//6 35//6 27//6
f 27//5 35//5 32//5
f 36//6 30//6 33//6
f 33//5 30//5 36//5
f 27//1 37//15 33//15
f 33//16 37//16 27//2
f 38//17 34//7 30//7
f 30//10 34//10 38//18
f 39//19 32//11 31//11
f 31//14 32//14 39//20
f 32//6 40//6 35//6
f 35//5 40//5 32//5
f 35//21 41//1 27//1
f 27//2 41//2 35//22
f 36//6 38//6 30//6
f 30//5 38//5 36//5
f 33//15 42//10 36//10
f 36//7 42//7 33//16
f 37//15 27//1 41//1
f 41//2 27//2 37//16
f 42//10 33//15 37//15
f 37//16 33//16 42//7
f 34//7 38//17 43//17
f 43//18 38//18 34//10
f 32//11 39//19 44//19
f 44//20 39//20 32//14
f 44//6 40//6 32//6
f 32//5 40//5 44//5
f 40//14 45//21 35//21
f 35//22 45//22 40//11
f 41//1 35//21 45//21
f 45//22 35//22 41//2
f 46//6 38//6 36//6
f 36//5 38//5 46//5
f 47//18 36//10 42//10
f 42//7 36//7 47//17
f 38//17 48//23 43//17
f 43//18 48//24 38//18
f 39//19 49//25 44//19
f 44//20 49//26 39//20
f 44//6 50//6 40//6
f 40//5 50//5 44//5
f 45//21 40//14 51//14
f 51//11 40//11 45//22
f 46//6 52//6 38//6
f 38//5 52//5 46//5
f 36//10 47//18 46//18
f 46//17 47//17 36//7
f 48//23 38//17 52//23
f 52//24 38//18 48//24
f 49//25 39//19 53//25
f 53//26 39//20 49//26
f 49//6 50//6 44//6
f 44//5 50//5 49//5
f 50//20 51//14 40//14
f 40//11 51//11 50//19
f 54//6 52//6 46//6
f 46//5 52//5 54//5
f 47//18 54//24 46//18
f 46//17 54//23 47//17
f 52//23 55//27 48//23
f 48//24 55//28 52//24
f 53//25 56//29 49//25
f 49//26 56//30 53//26
f 49//6 57//6 50//6
f 50//5 57//5 49//5
f 51//14 50//20 58//20
f 58//19 50//19 51//11
f 54//6 59//6 52//6
f 52//5 59//5 54//5
f 54//24 47//18 60//24
f 60//23 47//17 54//23
f 55//27 52//23 59//27
f 59//28 52//24 55//28
f 56//29 53//25 61//29
f 61//30 53//26 56//30
f 56//6 57//6 49//6
f 49//5 57//5 56//5
f 62//26 50//20 57//26
f 57//25 50//19 62//25
f 50//20 62//26 58//20
f 58//19 62//25 50//19
f 63//6 59//6 54//6
f 54//5 59//5 63//5
f 60//24 63//28 54//24
f 54//23 63//27 60//23
f 59//27 64//4 55//27
f 55//28 64//3 59//28
f 61//29 65//3 56//29
f 56//30 65//4 61//30
f 56//6 66//6 57//6
f 57//5 66//5 56//5
f 57//26 67//30 62//26
f 62//25 67//29 57//25
f 68//6 59//6 63//6
f 63//5 59//5 68//5
f 63//28 60//24 69//28
f 69//27 60//23 63//27
f 64//4 59//27 70//4
f 70//3 59//28 64//3
f 65//3 61//29 71//3
f 71//4 61//30 65//4
f 65//6 66//6 56//6
f 56//5 66//5 65//5
f 67//30 57//26 66//30
f 66//29 57//25 67//29
f 68//6 70//6 59//6
f 59//5 70//5 68//5
f 69//28 68//3 63//28
f 63//27 68//4 69//27
f 70//4 72//30 64//4
f 64//3 72//29 70//3
f 71//3 73//28 65//3
f 65//4 73//27 71//4
f 65//6 74//6 66//6
f 66//5 74//5 65//5
f 66//30 75//4 67//30
f 67//29 75//3 66//29
f 76//6 70//6 68//6
f 68//5 70//5 76//5
f 68//3 69//28 77//3
f 77//4 69//27 68//4
f 72//30 70//4 78//30
f 78//29 70//3 72//29
f 73//28 71//3 79//28
f 79//27 71//4 73//27
f 73//6 80//6 65//6
f 65//5 80//5 73//5
f 65//6 80//6 74//6
f 74//5 80//5 65//5
f 75//4 66//30 74//4
f 74//3 66//29 75//3
f 76//6 78//6 70//6
f 70//5 78//5 76//5
f 77//3 76//29 68//3
f 68//4 76//30 77//4
f 78//30 81//26 72//30
f 72//29 81//25 78//29
f 79//28 82//24 73//28
f 73//27 82//23 79//27
f 73//6 83//6 80//6
f 80//5 83//5 73//5
f 84//27 74//4 80//27
f 80//28 74//3 84//28
f 74//4 84//27 75//4
f 75//3 84//28 74//3
f 85//6 78//6 76//6
f 76//5 78//5 85//5
f 76//29 77//3 86//29
f 86//30 77//4 76//30
f 81//26 78//30 87//26
f 87//25 78//29 81//25
f 82//24 79//28 88//24
f 88//23 79//27 82//23
f 82//6 83//6 73//6
f 73//5 83//5 82//5
f 89//23 80//27 83//23
f 83//24 80//28 89//24
f 80//27 89//23 84//27
f 84//28 89//24 80//28
f 85//6 87//6 78//6
f 78//5 87//5 85//5
f 86//29 85//25 76//29
f 76//30 85//26 86//30
f 87//26 90//20 81//26
f 81//25 90//19 87//25
f 88//24 91//18 82//24
f 82//23 91//17 88//23
f 82//6 92//6 83//6
f 83//5 92//5 82//5
f 83//23 93//17 89//23
f 89//24 93//18 83//24
f 94//6 87//6 85//6
f 85//5 87//5 94//5
f 85//25 86//29 95//25
f 95//26 86//30 85//26
f 90//20 87//26 96//20
f 96//19 87//25 90//19
f 91//18 88//24 97//18
f 97//17 88//23 91//17
f 91//6 92//6 82//6
f 82//5 92//5 91//5
f 93//17 83//23 92//17
f 92//18 83//24 93//18
f 94//6 96//6 87//6
f 87//5 96//5 94//5
f 95//25 94//19 85//25
f 85//26 94//20 95//26
f 98//31 90//20 96//20
f 96//19 90//19 98//32
f 99//33 91//18 97//18
f 97//17 91//17 99//34
f 91//6 100//6 92//6
f 92//5 100//5 91//5
f 100//34 93//17 92//17
f 92//18 93//18 100//33
f 101//6 96//6 94//6
f 94//5 96//5 101//5
f 94//19 95//25 102//19
f 102//20 95//26 94//20
f 90//20 98//31 103//31
f 103//32 98//32 90//19
f 101//6 98//6 96//6
f 96//5 98//5 101//5
f 91//18 99//33 104//33
f 104//34 99//34 91//17
f 104//6 100//6 91//6
f 91//5 100//5 104//5
f 93//17 100//34 105//34
f 105//33 100//33 93//18
f 94//19 106//32 101//32
f 101//31 106//31 94//20
f 106//32 94//19 102//19
f 102//20 94//20 106//31
f 98//23 107//23 103//23
f 103//24 107//24 98//24
f 101//6 108//6 98//6
f 98//5 108//5 101//5
f 99//25 109//25 104//25
f 104//26 109//26 99//26
f 109//6 100//6 104//6
f 104//5 100//5 109//5
f 100//26 110//26 105//26
f 105//25 110//25 100//25
f 106//24 111//24 101//24
f 101//23 111//23 106//23
f 107//23 98//23 108//23
f 108//24 98//24 107//24
f 108//6 101//6 111//6
f 111//5 101//5 108//5
f 109//25 99//25 112//25
f 112//26 99//26 109//26
f 100//6 109//6 113//6
f 113//5 109//5 100//5
f 110//26 100//26 113//26
f 113//25 100//25 110//25
f 111//24 106//24 114//24
f 114//23 106//23 111//23
f 111//14 107//14 108//14
f 108//11 107//11 111//11
f 110//10 109//10 112//10
f 112//7 109//7 110//7
f 109//10 110//10 113//10
f 113//7 110//7 109//7
f 107//14 111//14 114//14
f 114//11 111//11 107//11
