mtllib new-0.mtl
v -0.190344 0.024689 0.005550
v -0.190344 0.024689 0.032834
v -0.192140 0.024689 0.019192
v -0.185079 0.024689 -0.007162
v -0.192140 0.016490 0.019192
v -0.190344 0.016490 0.005550
v -0.185079 0.016490 -0.007162
v -0.185079 0.024689 0.045546
v -0.190344 0.016490 0.032834
v -0.176702 0.016490 -0.018078
v -0.181609 0.024689 0.019192
v -0.176702 0.024689 -0.018078
v -0.139432 0.016490 -0.079028
v -0.176702 0.024689 0.056462
v -0.185079 0.016490 0.045546
v -0.165786 0.024689 -0.026454
v -0.165786 0.016490 -0.026454
v -0.180172 0.024689 0.008276
v -0.180172 0.024689 0.030108
v -0.175959 0.024689 -0.001896
v -0.153074 0.016490 -0.031720
v -0.177105 0.024689 0.000871
v -0.181609 0.032888 0.019192
v -0.180172 0.032888 0.030108
v -0.175959 0.024689 0.040280
v -0.153074 0.024689 -0.031720
v -0.169256 0.024689 -0.010631
v -0.139432 0.016490 -0.033516
v -0.180172 0.032888 0.008276
v -0.175959 0.032888 0.040280
v -0.165786 0.024689 0.064838
v -0.160521 0.024689 -0.017334
v -0.103877 0.024689 0.041545
v -0.175959 0.032888 -0.001896
v -0.139432 0.024689 -0.033516
v -0.177105 0.032888 0.000871
v -0.169256 0.032888 0.049015
v -0.169256 0.024689 0.049015
v -0.150349 0.024689 -0.021548
v -0.102906 0.024689 0.040280
v -0.103877 0.032888 0.041545
v -0.160521 0.032888 -0.017334
v -0.169256 0.032888 -0.010631
v -0.125791 0.016490 -0.031720
v -0.125791 0.024689 -0.031720
v -0.160521 0.024689 0.055718
v -0.150349 0.032888 -0.021548
v -0.102162 0.024689 0.056462
v -0.109609 0.024689 0.049015
v -0.102906 0.032888 0.040280
v -0.113079 0.016490 -0.026454
v -0.139432 0.024689 -0.022985
v -0.160521 0.032888 0.055718
v -0.139432 0.032888 -0.022985
v -0.098693 0.024689 0.030108
v -0.109609 0.032888 0.049015
v -0.098693 0.032888 0.030108
v -0.113079 0.024689 -0.026454
v -0.128516 0.024689 -0.021548
v -0.150349 0.032888 0.059932
v -0.086725 0.016490 0.019192
v -0.093786 0.024689 0.045546
v -0.118344 0.032888 0.055718
v -0.098693 0.032888 0.008276
v -0.102162 0.024689 -0.018078
v -0.118344 0.024689 -0.017334
v -0.128516 0.032888 -0.021548
v -0.139432 0.032888 0.061369
v -0.088521 0.016490 0.032834
v -0.093786 0.024689 -0.007162
v -0.088521 0.024689 0.005550
v -0.118344 0.024689 0.055718
v -0.097256 0.032888 0.019192
v -0.097256 0.024689 0.019192
v -0.128516 0.032888 0.059932
v -0.102906 0.032888 -0.001896
v -0.109609 0.024689 -0.010631
v -0.118344 0.032888 -0.017334
v -0.088521 0.024689 0.032834
v -0.086725 0.024689 0.019192
v -0.109609 0.032888 -0.010631
v -0.098693 0.024689 0.008276
v -0.102906 0.024689 -0.001896
vn 0.000000 -1.000000 0.000000
vn 0.965926 0.000000 -0.258819
vn 1.000000 0.000000 0.000000
vn 0.965926 0.000000 0.258819
vn 0.866025 0.000000 0.500000
vn 0.707107 0.000000 0.707107
vn 0.866025 0.000000 -0.500000
vn 0.500000 0.000000 0.866025
vn 0.707107 0.000000 -0.707107
vn 0.258819 0.000000 0.965926
vn 0.923880 0.000000 0.382683
vn 0.500000 0.000000 -0.866025
vn 0.793353 0.000000 0.608761
vn 0.000000 0.000000 1.000000
vn -0.485564 0.000000 0.874201
vn -0.258819 0.000000 0.965926
vn 0.258819 0.000000 -0.965926
vn 0.000000 1.000000 0.000000
vn -0.707107 0.000000 -0.707107
vn -0.793353 0.000000 -0.608761
vn 0.000000 0.000000 -1.000000
vn -0.965926 0.000000 -0.258819
vn -0.923880 0.000000 -0.382683
vn -0.500000 0.000000 0.866025
vn -0.258819 0.000000 -0.965926
vn -0.500000 0.000000 -0.866025
vn -0.707107 0.000000 0.707107
vn -0.866025 0.000000 -0.500000
vn -0.965926 0.000000 0.258819
vn -0.866025 0.000000 0.500000
vn -1.000000 0.000000 0.000000
vn 0.485564 0.000000 -0.874201
vt 0.695150 -0.235402
vt 0.688111 -0.226229
vt 0.656792 -0.175011
vt 0.678938 -0.219190
vt 0.668256 -0.214766
vt 0.092787 0.000000
vt 0.092787 0.006890
vt 0.102065 0.000000
vt 0.083508 0.000000
vt 0.083508 0.006890
vt 0.656792 -0.213256
vt 0.102065 0.006890
vt 0.108820 0.000000
vt 0.074229 0.006890
vt 0.074229 0.000000
vt 0.688449 -0.242152
vt 0.626914 -0.276331
vt 0.687486 -0.239827
vt 0.000000 0.000000
vt 0.000000 0.006890
vt 0.009279 0.000000
vt 0.108820 0.006890
vt 0.692234 -0.257548
vt 0.691027 -0.266721
vt 0.691027 -0.248375
vt 0.687486 -0.275269
vt 0.064951 0.006890
vt 0.626099 -0.275269
vt -0.413872 0.030512
vt -0.484262 0.030512
vt -0.413872 0.037402
vt 0.018557 0.000000
vt 0.018557 0.006890
vt 0.009279 0.006890
vt 0.475467 0.030512
vt 0.404583 0.030512
vt 0.475467 0.037402
vt -0.484262 0.037402
vt 0.064951 0.000000
vt 0.681854 -0.282609
vt 0.027836 0.000000
vt 0.027836 0.006890
vt 0.001343 0.000000
vt 0.001343 0.006890
vt 0.681854 -0.232487
vt 0.404583 0.037402
vt 0.055672 0.000000
vt 0.674513 -0.288241
vt 0.037115 0.006890
vt 0.674513 -0.226854
vt 0.665965 -0.223313
vt 0.111344 0.006890
vt 0.111344 0.000000
vt 0.037115 0.000000
vt 0.055672 0.006890
vt 0.665965 -0.291782
vt 0.656792 -0.222106
vt 0.631731 -0.282609
vt 0.639071 -0.288241
vt 0.622558 -0.266721
vt 0.622558 -0.248375
vt 0.046393 0.000000
vt 0.046393 0.006890
vt 0.656792 -0.292990
vt 0.647619 -0.223313
vt 0.647619 -0.291782
vt 0.626099 -0.239827
vt 0.621350 -0.257548
vt 0.639071 -0.226854
vt 0.631731 -0.232487
usemtl material-0
f 1//1 2//1 3//1
f 2//1 1//1 4//1
f 2//2 5//3 3//3
f 3//3 6//4 1//4
f 1//4 7//5 4//5
f 2//1 4//1 8//1
f 5//3 2//2 9//2
f 6//4 3//3 5//3
f 7//5 1//4 6//4
f 10//6 4//5 7//5
f 8//1 4//1 11//1
f 8//7 9//2 2//2
f 4//5 10//6 12//6
f 7//1 13//1 10//1
f 11//1 4//1 12//1
f 11//1 14//1 8//1
f 9//2 8//7 15//7
f 10//6 16//8 12//6
f 10//1 13//1 17//1
f 11//1 12//1 18//1
f 14//1 11//1 19//1
f 14//9 15//7 8//7
f 16//8 10//6 17//8
f 20//1 12//1 16//1
f 17//1 13//1 21//1
f 18//1 12//1 22//1
f 18//4 23//3 11//3
f 11//3 24//2 19//2
f 14//1 19//1 25//1
f 17//8 26//10 16//8
f 22//1 12//1 20//1
f 20//1 16//1 27//1
f 21//1 13//1 28//1
f 26//10 17//8 21//10
f 22//11 29//4 18//4
f 23//3 18//4 29//4
f 24//2 11//3 23//3
f 30//7 19//2 24//2
f 19//2 30//7 25//7
f 32//1 16//1 26//1
f 20//1 33//1 22//1
f 27//1 16//1 32//1
f 27//6 34//13 20//13
f 35//14 21//10 28//14
f 21//10 35//14 26//10
f 29//4 22//11 36//11
f 29//1 24//1 23//1
f 24//1 36//1 30//1
f 37//9 25//7 30//7
f 31//1 25//1 38//1
f 32//1 26//1 39//1
f 33//1 20//1 40//1
f 41//15 22//15 33//15
f 42//8 27//6 32//8
f 34//13 27//6 43//6
f 34//12 40//12 20//12
f 28//14 45//16 35//14
f 39//1 26//1 35//1
f 22//15 41//15 36//15
f 24//1 29//1 36//1
f 30//1 36//1 41//1
f 25//7 37//9 38//9
f 30//1 41//1 37//1
f 47//10 32//8 39//10
f 48//1 33//1 40//1
f 49//19 41//20 33//20
f 27//6 42//8 43//6
f 32//8 47//10 42//8
f 43//1 50//1 34//1
f 40//12 34//12 50//12
f 45//16 28//14 44//16
f 52//1 35//1 45//1
f 39//1 35//1 52//1
f 37//9 46//12 38//9
f 37//1 41//1 53//1
f 39//10 54//14 47//10
f 48//1 49//1 33//1
f 48//1 40//1 55//1
f 41//20 49//19 56//19
f 50//1 43//1 42//1
f 50//1 42//1 47//1
f 57//22 40//23 50//23
f 58//24 44//16 51//24
f 44//16 58//24 45//16
f 52//1 45//1 59//1
f 54//14 39//10 52//14
f 46//12 37//9 53//12
f 53//1 41//1 60//1
f 50//1 47//1 54//1
f 40//23 57//22 55//22
f 48//1 55//1 62//1
f 49//19 63//26 56//19
f 63//1 41//1 56//1
f 50//1 64//1 57//1
f 51//24 65//27 58//24
f 66//1 45//1 58//1
f 59//1 45//1 66//1
f 67//16 52//14 59//16
f 52//14 67//16 54//14
f 60//1 41//1 68//1
f 50//1 54//1 67//1
f 73//31 55//22 57//22
f 62//1 55//1 74//1
f 63//26 49//19 72//26
f 75//1 41//1 63//1
f 50//1 76//1 64//1
f 57//1 64//1 73//1
f 77//1 58//1 65//1
f 66//1 58//1 77//1
f 78//24 59//16 66//24
f 59//16 78//24 67//16
f 68//1 41//1 75//1
f 69//22 80//31 61//31
f 50//1 67//1 78//1
f 55//22 73//31 74//31
f 62//1 74//1 70//1
f 72//26 75//25 63//26
f 50//1 81//1 76//1
f 76//30 82//29 64//29
f 64//29 74//31 73//31
f 77//1 65//1 83//1
f 81//27 66//24 77//27
f 66//24 81//27 78//24
f 62//1 71//1 79//1
f 80//31 69//22 79//22
f 62//1 70//1 71//1
f 82//1 65//1 70//1
f 79//1 71//1 80//1
f 50//1 78//1 81//1
f 82//1 70//1 74//1
f 81//27 83//30 76//30
f 82//29 76//30 83//30
f 74//31 64//29 82//29
f 83//1 65//1 82//1
f 83//30 81//27 77//27
usemtl material-1
f 3//18 2//18 1//18
f 4//18 1//18 2//18
f 3//31 5//31 2//29
f 1//22 6//22 3//31
f 4//28 7//28 1//22
f 8//18 4//18 2//18
f 9//29 2//29 5//31
f 5//31 3//31 6//22
f 6//22 1//22 7//28
f 7//28 4//28 10//19
f 11//18 4//18 8//18
f 2//29 9//29 8//30
f 12//19 10//19 4//28
f 12//18 4//18 11//18
f 8//18 14//18 11//18
f 15//30 8//30 9//29
f 12//19 16//26 10//19
f 18//18 12//18 11//18
f 19//18 11//18 14//18
f 8//30 15//30 14//27
f 17//26 10//19 16//26
f 16//18 12//18 20//18
f 22//18 12//18 18//18
f 25//18 19//18 14//18
f 16//26 26//25 17//26
f 20//18 12//18 22//18
f 27//18 16//18 20//18
f 21//25 17//26 26//25
f 26//18 16//18 32//18
f 32//18 16//18 27//18
f 28//21 21//25 35//21
f 26//25 35//21 21//25
f 38//18 25//18 31//18
f 39//18 26//18 32//18
f 35//21 45//17 28//21
f 35//18 26//18 39//18
f 40//18 33//18 48//18
f 44//17 28//21 45//17
f 45//18 35//18 52//18
f 52//18 35//18 39//18
f 33//18 49//18 48//18
f 55//18 40//18 48//18
f 51//12 44//17 58//12
f 45//17 58//12 44//17
f 59//18 45//18 52//18
f 62//18 55//18 48//18
f 58//12 65//9 51//12
f 58//18 45//18 66//18
f 66//18 45//18 59//18
f 74//18 55//18 62//18
f 65//18 58//18 77//18
f 77//18 58//18 66//18
f 61//3 80//3 69//4
f 70//18 74//18 62//18
f 83//18 65//18 77//18
f 79//18 71//18 62//18
f 79//4 69//4 80//3
f 71//18 70//18 62//18
f 70//18 65//18 82//18
f 80//18 71//18 79//18
f 74//18 70//18 82//18
f 82//18 65//18 83//18
usemtl material-2
f 10/2/18 13/3/18 7/1/18
f 17/4/18 13/3/18 10/2/18
f 21/5/18 13/3/18 17/4/18
f 11/6/31 23/7/31 18/8/22
f 19/9/29 24/10/29 11/6/31
f 28/11/18 13/3/18 21/5/18
f 18/8/22 29/12/22 22/13/23
f 29/12/22 18/8/22 23/7/31
f 23/7/31 11/6/31 24/10/29
f 24/10/29 19/9/29 30/14/30
f 25/15/30 30/14/30 19/9/29
f 22/16/18 33/17/18 20/18/18
f 20/19/20 34/20/20 27/21/19
f 36/22/23 22/13/23 29/12/22
f 23/23/18 24/24/18 29/25/18
f 30/26/18 36/16/18 24/24/18
f 30/14/30 25/15/30 37/27/27
f 40/28/18 20/18/18 33/17/18
f 33/29/32 22/30/32 41/31/32
f 32/32/26 27/21/19 42/33/26
f 43/34/19 27/21/19 34/20/20
f 20/35/24 40/36/24 34/37/24
f 36/38/32 41/31/32 22/30/32
f 36/16/18 29/25/18 24/24/18
f 41/17/18 36/16/18 30/26/18
f 38/39/27 37/27/27 25/15/30
f 37/40/18 41/17/18 30/26/18
f 39/41/25 32/32/26 47/42/25
f 33/43/13 41/44/13 49/21/6
f 43/34/19 42/33/26 27/21/19
f 42/33/26 47/42/25 32/32/26
f 34/18/18 50/28/18 43/45/18
f 50/46/24 34/37/24 40/36/24
f 38/39/27 46/47/24 37/27/27
f 53/48/18 41/17/18 37/40/18
f 47/42/25 54/49/21 39/41/25
f 56/34/6 49/21/6 41/44/13
f 42/50/18 43/45/18 50/28/18
f 47/51/18 42/50/18 50/28/18
f 50/52/11 40/53/11 57/12/4
f 52/54/21 39/41/25 54/49/21
f 53/55/24 37/27/27 46/47/24
f 60/56/18 41/17/18 53/48/18
f 54/57/18 47/51/18 50/28/18
f 55/8/4 57/12/4 40/53/11
f 56/34/6 63/33/8 49/21/6
f 56/58/18 41/17/18 63/59/18
f 57/60/18 64/61/18 50/28/18
f 59/62/17 52/54/21 67/63/17
f 54/49/21 67/63/17 52/54/21
f 68/64/18 41/17/18 60/56/18
f 67/65/18 54/57/18 50/28/18
f 57/12/4 55/8/4 73/7/3
f 72/32/8 49/21/6 63/33/8
f 63/59/18 41/17/18 75/66/18
f 64/61/18 76/67/18 50/28/18
f 73/68/18 64/61/18 57/60/18
f 66/47/12 59/62/17 78/55/12
f 67/63/17 78/55/12 59/62/17
f 75/66/18 41/17/18 68/64/18
f 78/69/18 67/65/18 50/28/18
f 74/6/3 73/7/3 55/8/4
f 63/33/8 75/42/10 72/32/8
f 76/67/18 81/70/18 50/28/18
f 64/10/2 82/9/2 76/14/7
f 73/7/3 74/6/3 64/10/2
f 77/39/9 66/47/12 81/27/9
f 78/55/12 81/27/9 66/47/12
f 81/70/18 78/69/18 50/28/18
f 76/14/7 83/15/7 81/27/9
f 83/15/7 76/14/7 82/9/2
f 82/9/2 64/10/2 74/6/3
f 77/39/9 81/27/9 83/15/7