# SSTK version 0.8.0
# 83
mtllib original-83.mtl
o mesh68/mesh68-geometry#mesh68-geometry
v -0.689259 0.038255 0.161755
v -0.702324 0.018003 0.218203
v -0.689259 0.032592 0.206868
v -0.702324 0.026920 0.147165
v -0.642228 0.032592 0.206868
v -0.642228 0.038255 0.161755
v -0.702324 0.005040 0.216576
v -0.629164 0.018003 0.218203
v -0.629164 0.026920 0.147165
v -0.702324 0.013958 0.145538
v -0.629164 0.005040 0.216576
v -0.629164 0.013958 0.145538
vn -0.7071077965965472 0.7015995025949788 0.0880721406056084
vn 0.7071077965965472 -0.7015995025949788 -0.0880721406056084
vn 0 0.6135282430212381 0.7896727771775299
vn 0 -0.6135282430212381 -0.7896727771775299
vn 0 0.9922129567504305 0.12455299457085958
vn 0 -0.9922129567504305 -0.12455299457085958
vn 0 0.7896727771775301 -0.6135282430212377
vn 0 -0.7896727771775301 0.6135282430212377
vn -1 0 0
vn 1 0 0
vn 0 -0.12455299457085961 0.9922129567504305
vn 0 0.12455299457085961 -0.9922129567504305
vn 0.7071077965965465 0.7015995025949795 0.08807214060560813
vn -0.7071077965965465 -0.7015995025949795 -0.08807214060560813
usemtl material_0_0
f 1//1 2//1 3//1
f 3//2 2//2 1//2
f 1//1 4//1 2//1
f 2//2 4//2 1//2
f 5//3 3//3 2//3
f 2//4 3//4 5//4
f 3//5 6//5 1//5
f 1//6 6//6 3//6
f 6//7 4//7 1//7
f 1//8 4//8 6//8
f 4//9 7//9 2//9
f 2//10 7//10 4//10
f 5//5 6//5 3//5
f 3//6 6//6 5//6
f 8//3 5//3 2//3
f 2//4 5//4 8//4
f 9//7 4//7 6//7
f 6//8 4//8 9//8
f 4//9 10//9 7//9
f 7//10 10//10 4//10
f 11//11 2//11 7//11
f 7//12 2//12 11//12
f 5//13 9//13 6//13
f 6//14 9//14 5//14
f 5//13 8//13 9//13
f 9//14 8//14 5//14
f 8//11 2//11 11//11
f 11//12 2//12 8//12
f 9//12 10//12 4//12
f 4//11 10//11 9//11
f 7//6 10//6 11//6
f 11//5 10//5 7//5
f 8//10 12//10 9//10
f 9//9 12//9 8//9
f 8//10 11//10 12//10
f 12//9 11//9 8//9
f 12//12 10//12 9//12
f 9//11 10//11 12//11
f 11//6 10//6 12//6
f 12//5 10//5 11//5
