# SSTK version 0.8.0
# 47
mtllib original-47.mtl
o mesh33/mesh33-geometry#mesh33-geometry
v 0.846308 0.027802 0.288837
v 0.859372 0.035593 0.149127
v 0.846308 0.046570 0.163988
v 0.859372 0.012941 0.299814
v 0.786212 0.035593 0.149127
v 0.799277 0.027802 0.288837
v 0.859372 0.022674 0.147185
v 0.786212 0.012941 0.299814
v 0.786212 0.022674 0.147185
v 0.799277 0.046570 0.163988
v 0.859372 0.000022 0.297872
v 0.786212 0.000022 0.297872
vn 0.7071066342373077 0.6992505536903049 0.10511360987706884
vn -0.7071066342373077 -0.6992505536903049 -0.10511360987706884
vn 0 0.8043639964064067 -0.5941368203411687
vn 0 -0.8043639964064067 0.5941368203411687
vn 0 0.9888894110171358 0.14865306178542814
vn 0 -0.9888894110171358 -0.14865306178542814
vn 1 0 0
vn -1 0 0
vn 0 0.5941368203411687 0.8043639964064067
vn 0 -0.5941368203411687 -0.8043639964064067
vn 0 0.14865306178542814 -0.9888894110171358
vn 0 -0.14865306178542814 0.9888894110171358
vn -0.7071066342373079 0.6992505536903046 0.10511360987706912
vn 0.7071066342373079 -0.6992505536903046 -0.10511360987706912
usemtl material_0_0
f 1//1 2//1 3//1
f 3//2 2//2 1//2
f 4//1 2//1 1//1
f 1//2 2//2 4//2
f 3//3 2//3 5//3
f 5//4 2//4 3//4
f 1//5 3//5 6//5
f 6//6 3//6 1//6
f 4//7 7//7 2//7
f 2//8 7//8 4//8
f 4//9 1//9 8//9
f 8//10 1//10 4//10
f 2//11 9//11 5//11
f 5//12 9//12 2//12
f 3//3 5//3 10//3
f 10//4 5//4 3//4
f 6//5 3//5 10//5
f 10//6 3//6 6//6
f 1//9 6//9 8//9
f 8//10 6//10 1//10
f 4//7 11//7 7//7
f 7//8 11//8 4//8
f 7//11 9//11 2//11
f 2//12 9//12 7//12
f 4//12 8//12 11//12
f 11//11 8//11 4//11
f 5//8 9//8 12//8
f 12//7 9//7 5//7
f 8//13 10//13 5//13
f 5//14 10//14 8//14
f 8//13 6//13 10//13
f 10//14 6//14 8//14
f 11//6 9//6 7//6
f 7//5 9//5 11//5
f 11//12 8//12 12//12
f 12//11 8//11 11//11
f 12//6 9//6 11//6
f 11//5 9//5 12//5
f 5//8 12//8 8//8
f 8//7 12//7 5//7
