mtllib new-6.mtl
v -0.075997 -0.391599 -0.187241
v -0.066978 -0.391599 -0.186053
v -0.081304 -0.391599 -0.189439
v -0.075997 -0.417063 -0.187241
v 0.106717 -0.391599 -0.127415
v -0.058593 -0.391599 -0.197899
v -0.081304 -0.417063 -0.189439
v -0.099854 -0.391599 -0.179637
v -0.079859 -0.391599 -0.190203
v -0.057959 -0.391599 -0.187241
v -0.049555 -0.391599 -0.190722
v -0.066978 -0.417063 -0.186053
v -0.079859 -0.417063 -0.190203
v 0.106717 -0.417063 0.007390
v -0.058593 -0.417063 -0.197899
v -0.118195 -0.391599 -0.166404
v -0.042425 -0.391599 -0.201317
v -0.099854 -0.417063 -0.179637
v -0.057959 -0.417063 -0.187241
v -0.134526 -0.391599 -0.150759
v -0.042338 -0.391599 -0.196259
v -0.049555 -0.417063 -0.190722
v -0.118195 -0.417063 -0.166404
v -0.134526 -0.391599 -0.127415
v -0.040441 -0.391599 -0.198731
v -0.037689 -0.417063 -0.202319
v -0.040441 -0.417063 -0.198731
v -0.042338 -0.417063 -0.196259
v -0.134526 -0.417063 0.007390
v -0.134526 -0.417063 -0.150759
v 0.106717 -0.391599 0.006609
v -0.037689 -0.391599 -0.202319
v 0.106717 -0.391599 0.007390
v -0.134526 -0.391599 0.006609
v 0.106717 -0.417063 -0.150759
v -0.036466 -0.391599 -0.202577
v -0.036466 -0.417063 -0.202577
v -0.134526 -0.391599 0.007390
v 0.106717 -0.391599 -0.150759
v -0.013904 -0.391599 -0.204146
v 0.090386 -0.417063 -0.166404
v 0.090386 -0.391599 -0.166404
v 0.021746 -0.391599 -0.190722
v -0.013904 -0.417063 -0.204146
v 0.072045 -0.417063 -0.179637
v 0.072045 -0.391599 -0.179637
v 0.030150 -0.391599 -0.187241
v 0.008657 -0.417063 -0.202577
v 0.053496 -0.417063 -0.189439
v 0.053496 -0.391599 -0.189439
v 0.039169 -0.391599 -0.186053
v 0.030784 -0.391599 -0.197899
v 0.021746 -0.417063 -0.190722
v 0.014529 -0.417063 -0.196259
v 0.009880 -0.417063 -0.202319
v 0.048188 -0.417063 -0.187241
v 0.048188 -0.391599 -0.187241
v 0.030150 -0.417063 -0.187241
v 0.012632 -0.417063 -0.198731
v 0.039169 -0.417063 -0.186053
v 0.052050 -0.417063 -0.190203
v 0.052050 -0.391599 -0.190203
v 0.030784 -0.417063 -0.197899
vn 0.000000 0.000000 1.000000
vn -0.258819 0.000000 0.965926
vn 0.000000 -1.000000 0.000000
vn 0.000000 1.000000 0.000000
vn 0.258819 0.000000 0.965926
vn -0.382683 0.000000 0.923880
vn 0.382683 0.000000 0.923880
vn 0.500000 0.000000 0.866025
vn 0.000000 0.000000 -1.000000
vn -0.500000 0.000000 0.866025
vn -1.000000 0.000000 0.000000
vn 1.000000 0.000000 0.000000
vn -0.467211 0.000000 -0.884146
vn -0.527438 0.000000 -0.849594
vn 0.467211 0.000000 0.884146
vn 0.527438 0.000000 0.849594
vn -0.404733 0.000000 -0.914435
vn 0.404733 0.000000 0.914435
vn -0.274232 0.000000 -0.961664
vn 0.274232 0.000000 0.961664
vn -0.258819 0.000000 -0.965926
vn -0.500000 0.000000 -0.866025
vn 0.258819 0.000000 -0.965926
vn 0.707107 0.000000 0.707107
vn -0.639984 0.000000 -0.768388
vn 0.639984 0.000000 0.768388
vn 0.500000 0.000000 -0.866025
vn -0.691761 0.000000 -0.722126
vn 0.691761 0.000000 0.722126
vn -0.707107 0.000000 -0.707107
vn 0.000000 0.000000 0.000000
vn -0.138449 0.000000 -0.990370
vn 0.138449 0.000000 0.990370
vn 0.691761 0.000000 -0.722126
vn 0.639984 0.000000 -0.768388
vn -0.691761 0.000000 0.722126
vn -0.639984 0.000000 0.768388
vn 0.527438 0.000000 -0.849594
vn -0.527438 0.000000 0.849594
vn 0.467211 0.000000 -0.884146
vn -0.467211 0.000000 0.884146
vn 0.404733 0.000000 -0.914435
vn -0.404733 0.000000 0.914435
vn 0.274232 0.000000 -0.961664
vn -0.274232 0.000000 0.961664
vn 0.382683 0.000000 -0.923880
vn -0.382683 0.000000 -0.923880
usemtl material-0
f 4//2 2//1 1//2
f 1//4 5//4 2//4
f 2//3 5//3 1//3
f 6//4 1//4 2//4
f 2//3 1//3 6//3
f 7//6 1//2 3//6
f 1//4 9//4 3//4
f 3//3 9//3 1//3
f 2//1 4//2 12//1
f 1//2 7//6 4//2
f 8//4 5//4 1//4
f 1//3 5//3 8//3
f 2//4 5//4 10//4
f 10//3 5//3 2//3
f 9//4 1//4 6//4
f 6//3 1//3 9//3
f 6//4 2//4 10//4
f 10//3 2//3 6//3
f 3//13 13//17 7//13
f 7//15 13//18 3//15
f 13//17 3//13 9//17
f 9//18 3//15 13//18
f 12//1 10//5 2//1
f 14//3 4//3 12//3
f 12//4 4//4 14//4
f 14//3 7//3 4//3
f 4//4 7//4 14//4
f 16//4 5//4 8//4
f 8//3 5//3 16//3
f 10//4 5//4 11//4
f 11//3 5//3 10//3
f 15//19 9//17 6//19
f 6//20 9//18 15//20
f 6//4 10//4 17//4
f 17//3 10//3 6//3
f 9//17 15//19 13//17
f 13//18 15//20 9//18
f 10//5 12//1 19//5
f 19//5 11//8 10//5
f 17//4 10//4 11//4
f 11//3 10//3 17//3
f 14//3 12//3 19//3
f 19//4 12//4 14//4
f 14//3 18//3 7//3
f 7//4 18//4 14//4
f 20//4 5//4 16//4
f 16//3 5//3 20//3
f 18//14 16//25 8//14
f 8//16 16//26 18//16
f 11//4 5//4 21//4
f 21//3 5//3 11//3
f 11//8 19//5 22//8
f 17//4 11//4 21//4
f 21//3 11//3 17//3
f 14//3 19//3 22//3
f 22//4 19//4 14//4
f 14//3 23//3 18//3
f 18//4 23//4 14//4
f 5//4 20//4 24//4
f 24//3 20//3 5//3
f 23//25 20//28 16//25
f 16//26 20//29 23//26
f 16//25 18//14 23//25
f 23//26 18//16 16//26
f 21//4 5//4 25//4
f 25//3 5//3 21//3
f 22//8 21//24 11//8
f 17//4 21//4 25//4
f 25//3 21//3 17//3
f 14//3 22//3 28//3
f 28//4 22//4 14//4
f 29//3 23//3 14//3
f 14//4 23//4 29//4
f 30//11 24//11 20//11
f 20//12 24//12 30//12
f 24//4 31//31 5//4
f 5//3 31//31 24//3
f 20//28 23//25 30//28
f 30//29 23//26 20//29
f 25//4 5//4 32//4
f 32//3 5//3 25//3
f 32//4 17//4 25//4
f 25//3 17//3 32//3
f 14//3 28//3 27//3
f 27//4 28//4 14//4
f 23//3 29//3 30//3
f 30//4 29//4 23//4
f 33//1 29//1 14//1
f 14//9 29//9 33//9
f 30//11 34//11 24//11
f 24//12 34//12 30//12
f 31//31 24//4 34//31
f 34//31 24//3 31//31
f 31//12 35//12 5//12
f 5//11 35//11 31//11
f 32//4 5//4 36//4
f 36//3 5//3 32//3
f 14//3 27//3 26//3
f 26//4 27//4 14//4
f 29//11 34//11 30//11
f 30//12 34//12 29//12
f 29//1 33//1 38//1
f 38//9 33//9 29//9
f 35//12 33//12 14//12
f 14//11 33//11 35//11
f 33//12 35//12 31//12
f 31//11 35//11 33//11
f 5//12 35//12 39//12
f 39//11 35//11 5//11
f 36//4 5//4 40//4
f 40//3 5//3 36//3
f 14//3 26//3 37//3
f 37//4 26//4 14//4
f 34//11 29//11 38//11
f 38//12 29//12 34//12
f 14//3 41//3 35//3
f 35//4 41//4 14//4
f 35//34 42//35 39//34
f 39//36 42//37 35//36
f 42//4 5//4 39//4
f 39//3 5//3 42//3
f 40//4 5//4 43//4
f 43//3 5//3 40//3
f 44//9 36//32 40//9
f 40//1 36//33 44//1
f 14//3 37//3 44//3
f 44//4 37//4 14//4
f 14//3 45//3 41//3
f 41//4 45//4 14//4
f 42//35 35//34 41//35
f 41//37 35//36 42//37
f 46//4 5//4 42//4
f 42//3 5//3 46//3
f 43//4 5//4 47//4
f 47//3 5//3 43//3
f 14//3 44//3 48//3
f 48//4 44//4 14//4
f 14//3 49//3 45//3
f 45//4 49//4 14//4
f 46//38 41//35 45//38
f 45//39 41//37 46//39
f 41//35 46//38 42//35
f 42//37 46//39 41//37
f 50//4 5//4 46//4
f 46//3 5//3 50//3
f 47//4 5//4 51//4
f 51//3 5//3 47//3
f 53//10 47//2 43//10
f 14//3 48//3 55//3
f 55//4 48//4 14//4
f 14//3 56//3 49//3
f 49//4 56//4 14//4
f 57//4 5//4 50//4
f 50//3 5//3 57//3
f 51//4 5//4 57//4
f 57//3 5//3 51//3
f 58//2 51//1 47//2
f 47//2 53//10 58//2
f 14//3 55//3 59//3
f 59//4 55//4 14//4
f 14//3 60//3 56//3
f 56//4 60//4 14//4
f 50//7 56//5 49//7
f 56//5 50//7 57//5
f 60//1 57//5 51//1
f 51//1 58//2 60//1
f 53//3 63//3 58//3
f 58//4 63//4 53//4
f 14//3 53//3 58//3
f 58//4 53//4 14//4
f 14//3 54//3 53//3
f 53//4 54//4 14//4
f 14//3 59//3 54//3
f 54//4 59//4 14//4
f 14//3 58//3 60//3
f 60//4 58//4 14//4
f 57//5 60//1 56//5
f 60//3 61//3 56//3
f 56//4 61//4 60//4
f 62//42 49//40 61//42
f 61//43 49//41 62//43
f 58//3 63//3 60//3
f 60//4 63//4 58//4
f 52//44 61//42 63//44
f 63//45 61//43 52//45
f 60//3 63//3 61//3
f 61//4 63//4 60//4
usemtl material-1
f 1//23 2//9 4//23
f 3//46 1//23 7//46
f 12//9 4//23 2//9
f 4//23 7//46 1//23
f 2//9 10//21 12//9
f 19//21 12//9 10//21
f 10//21 11//22 19//21
f 22//22 19//21 11//22
f 11//22 21//30 22//22
f 43//27 47//23 53//27
f 47//23 51//9 58//23
f 58//23 53//27 47//23
f 49//47 56//21 50//47
f 57//21 50//47 56//21
f 51//9 57//21 60//9
f 60//9 58//23 51//9
f 56//21 60//9 57//21
usemtl material-2
f 31//31 38//3 34//31
f 34//31 38//4 31//31
f 38//3 31//31 33//3
f 33//4 31//31 38//4