# SSTK version 0.8.0
# 17
mtllib original-17.mtl
o Component_7_9/Component_7/mesh2/mesh2-geometry#mesh2-geometry
v 0.689014 0.411808 -0.003109
v 0.680737 0.424553 -0.006903
v 0.680737 0.424553 -0.003109
v 0.689014 0.411808 -0.006903
v 0.575598 0.363851 -0.003109
v 0.695913 0.398268 -0.003109
v 0.695913 0.398268 -0.006903
v 0.575598 0.363851 -0.006903
v 0.590774 0.337566 -0.006903
v 0.590774 0.337566 -0.003109
vn 0.8660253028382761 0.5000001748438414 0.0
vn 0.8386704474492974 0.544639220562746 0.0
vn -0.5000001748438414 0.8660253028382761 0.0
vn 0.0 0.0 1.0
vn 0.8910064413149866 0.4539906623876786 0.0
vn 0.0 0.0 -1.0
vn -0.8660253028382761 -0.5000001748438414 0.0
vn 0.5000001748438414 -0.8660253028382761 0.0
vn -0.8386704474492974 -0.544639220562746 0.0
vn -0.8910064413149866 -0.4539906623876786 0.0
usemtl material_0_0
f 1//1 2//2 3//2
f 2//2 1//1 4//1
f 2//3 5//3 3//3
f 3//4 6//4 1//4
f 6//5 4//1 1//1
f 7//6 2//6 4//6
f 5//3 2//3 8//3
f 6//4 3//4 5//4
f 4//1 6//5 7//5
f 2//6 7//6 9//6
f 2//6 9//6 8//6
f 9//7 5//7 8//7
f 6//4 5//4 10//4
f 6//8 9//8 7//8
f 5//7 9//7 10//7
f 9//8 6//8 10//8
usemtl material_1_0
f 3//9 2//9 1//7
f 4//7 1//7 2//9
f 3//8 5//8 2//8
f 1//6 6//6 3//6
f 1//7 4//7 6//10
f 4//4 2//4 7//4
f 8//8 2//8 5//8
f 5//6 3//6 6//6
f 7//10 6//10 4//7
f 9//4 7//4 2//4
f 8//4 9//4 2//4
f 8//1 5//1 9//1
f 10//6 5//6 6//6
f 7//3 9//3 6//3
f 10//1 9//1 5//1
f 10//3 6//3 9//3
