# SSTK version 0.8.0
# 16
mtllib original-16.mtl
o mesh27/mesh27-geometry#mesh27-geometry
v 0.007225 -0.755473 -0.147905
v -0.056193 -0.682137 -0.192274
v -0.056193 -0.756378 -0.149475
v 0.007225 -0.681232 -0.190704
v -0.055532 -0.693702 -0.212335
v 0.007886 -0.767038 -0.167965
v -0.055532 -0.767943 -0.169535
v 0.007886 -0.692797 -0.210765
vn -0.028562610065059744 0.4992381020991422 0.8659939345738616
vn -0.9995920037358212 -0.014265544778997925 -0.024745106578151217
vn 1.4325848858894015e-7 -0.866347425665138 0.4994418264856957
vn 0.9995920037358212 0.014265544778997925 0.024745106578151217
vn -1.4325848858894015e-7 0.866347425665138 -0.4994418264856957
vn 0.028562610065059744 -0.4992381020991422 -0.8659939345738616
usemtl material_0_0
f 1//1 2//1 3//1
f 2//1 1//1 4//1
f 5//2 3//2 2//2
f 3//3 6//3 1//3
f 6//4 4//4 1//4
f 4//5 5//5 2//5
f 3//2 5//2 7//2
f 6//3 3//3 7//3
f 4//4 6//4 8//4
f 5//5 4//5 8//5
usemtl material_1_0
f 3//6 2//6 1//6
f 4//6 1//6 2//6
f 2//4 3//4 5//4
f 1//5 6//5 3//5
f 1//2 4//2 6//2
f 2//3 5//3 4//3
f 7//4 5//4 3//4
f 7//5 3//5 6//5
f 8//2 6//2 4//2
f 8//3 4//3 5//3
f 8//6 7//6 5//6
f 5//1 7//1 8//1
f 7//6 8//6 6//6
f 6//1 8//1 7//1
