# SSTK version 0.8.0
# 2
mtllib original-2.mtl
o mesh1/mesh1-geometry#mesh1-geometry
v -0.115159 -0.328729 0.118410
v -0.114967 -0.334682 0.118410
v -0.115148 -0.335485 0.118410
v -0.111459 -0.328469 0.118410
v -0.115148 -0.335485 0.123711
v -0.115226 -0.343906 0.118410
v -0.115159 -0.328729 0.123711
v -0.114424 -0.334011 0.118410
v -0.114967 -0.334682 0.123711
v -0.114998 -0.336086 0.123711
v -0.117340 -0.343151 0.118410
v -0.114998 -0.336086 0.118410
v -0.111459 -0.328469 0.123711
v -0.117977 -0.329509 0.123711
v -0.113525 -0.333557 0.118410
v -0.115226 -0.343906 0.123711
v -0.117977 -0.329509 0.118410
v -0.112725 -0.344562 0.118410
v -0.109069 -0.328587 0.118410
v -0.117340 -0.343151 0.123711
v -0.112273 -0.333405 0.118410
v -0.113525 -0.333557 0.123711
v -0.114424 -0.334011 0.123711
v -0.114551 -0.336624 0.123711
v -0.112725 -0.344562 0.123711
v -0.119068 -0.342297 0.118410
v -0.114551 -0.336624 0.118410
v -0.109069 -0.328587 0.123711
v -0.110724 -0.333609 0.118410
v -0.120057 -0.330743 0.123711
v -0.119068 -0.342297 0.123711
v -0.112273 -0.333405 0.123711
v -0.120057 -0.330743 0.118410
v -0.113575 -0.337130 0.118410
v -0.110031 -0.345308 0.123711
v -0.110724 -0.333609 0.123711
v -0.106982 -0.328942 0.118410
v -0.109551 -0.334219 0.118410
v -0.113575 -0.337130 0.123711
v -0.120409 -0.341343 0.118410
v -0.111803 -0.337600 0.118410
v -0.110031 -0.345308 0.118410
v -0.111803 -0.337600 0.123711
v -0.109551 -0.334219 0.123711
v -0.106982 -0.328942 0.123711
v -0.108735 -0.335277 0.118410
v -0.121539 -0.332366 0.118410
v -0.120409 -0.341343 0.123711
v -0.121422 -0.340271 0.118410
v -0.108530 -0.346099 0.123711
v -0.107194 -0.338764 0.123711
v -0.108735 -0.335277 0.123711
v -0.105195 -0.329532 0.118410
v -0.108259 -0.336823 0.118410
v -0.121539 -0.332366 0.123711
v -0.121422 -0.340271 0.123711
v -0.107194 -0.338764 0.118410
v -0.108530 -0.346099 0.118410
v -0.108259 -0.336823 0.123711
v -0.105195 -0.329532 0.123711
v -0.100538 -0.336371 0.118410
v -0.122428 -0.334239 0.118410
v -0.122145 -0.339060 0.118410
v -0.122145 -0.339060 0.123711
v -0.107852 -0.346967 0.118410
v -0.107852 -0.346967 0.123711
v -0.104109 -0.339942 0.118410
v -0.100538 -0.336371 0.123711
v -0.103711 -0.330359 0.118410
v -0.122428 -0.334239 0.123711
v -0.107626 -0.347943 0.123711
v -0.104109 -0.339942 0.123711
v -0.105022 -0.354769 0.118410
v -0.103711 -0.330359 0.123711
v -0.102513 -0.331443 0.118410
v -0.100926 -0.334449 0.118410
v -0.122724 -0.336226 0.118410
v -0.122579 -0.337712 0.118410
v -0.122579 -0.337712 0.123711
v -0.107626 -0.347943 0.118410
v -0.105022 -0.354769 0.123711
v -0.102102 -0.341269 0.118410
v -0.102771 -0.353397 0.118410
v -0.102513 -0.331443 0.123711
v -0.101584 -0.332806 0.118410
v -0.100926 -0.334449 0.123711
v -0.122724 -0.336226 0.123711
v -0.107863 -0.348962 0.118410
v -0.107863 -0.348962 0.123711
v -0.102771 -0.353397 0.123711
v -0.102102 -0.341269 0.123711
v -0.101584 -0.332806 0.123711
v -0.107883 -0.355603 0.123711
v -0.100728 -0.342880 0.123711
v -0.101080 -0.351505 0.118410
v -0.107883 -0.355603 0.118410
v -0.108575 -0.349851 0.118410
v -0.108575 -0.349851 0.123711
v -0.101080 -0.351505 0.123711
v -0.100728 -0.342880 0.118410
v -0.109725 -0.350468 0.123711
v -0.111405 -0.355881 0.118410
v -0.099934 -0.344738 0.123711
v -0.100022 -0.349254 0.123711
v -0.100022 -0.349254 0.118410
v -0.109725 -0.350468 0.118410
v -0.111278 -0.350673 0.123711
v -0.111405 -0.355881 0.123711
v -0.111278 -0.350673 0.118410
v -0.099934 -0.344738 0.118410
v -0.114526 -0.355718 0.118410
v -0.112386 -0.350573 0.118410
v -0.099670 -0.346804 0.123711
v -0.099670 -0.346804 0.118410
v -0.112386 -0.350573 0.123711
v -0.114526 -0.355718 0.123711
v -0.114194 -0.349768 0.118410
v -0.113358 -0.350271 0.118410
v -0.113358 -0.350271 0.123711
v -0.114194 -0.349768 0.123711
v -0.117128 -0.355230 0.118410
v -0.114895 -0.349064 0.118410
v -0.114895 -0.349064 0.123711
v -0.117128 -0.355230 0.123711
v -0.115925 -0.346171 0.118410
v -0.115541 -0.347844 0.118410
v -0.115541 -0.347844 0.123711
v -0.115925 -0.346171 0.123711
v -0.119209 -0.354416 0.118410
v -0.119209 -0.354416 0.123711
v -0.120771 -0.353277 0.118410
v -0.120771 -0.353277 0.123711
v -0.121932 -0.351887 0.118410
v -0.123718 -0.346659 0.123711
v -0.121932 -0.351887 0.123711
v -0.122810 -0.350321 0.118410
v -0.123718 -0.346659 0.118410
v -0.123405 -0.348578 0.123711
v -0.122810 -0.350321 0.123711
v -0.123405 -0.348578 0.118410
vn 0 0 -1
vn 0 0 1
vn 0.9001646265555301 -0.43554981930675063 0
vn 0.9999419049030296 0.010778998974890298 0
vn -0.9999419049030296 -0.010778998974890298 0
vn -0.9001646265555301 0.43554981930675063 0
vn -0.16920595109974101 0.985580715168693 0
vn -0.010377001634144406 0.9999461574690335 0
vn 0.16920595109974101 -0.985580715168693 0
vn 0.010377001634144406 -0.9999461574690335 0
vn 0.8922196008192553 0.45160179795249755 0
vn -0.8922196008192553 -0.45160179795249755 0
vn -0.39196009369336804 0.9199822199107363 0
vn 0.39196009369336804 -0.9199822199107363 0
vn 0.6283288671257377 -0.7779478354854438 0
vn -0.6283288671257377 0.7779478354854438 0
vn -0.29515904191480064 -0.9554481356808108 0
vn -0.3903910558099189 -0.9206491316150885 0
vn 0.29515904191480064 0.9554481356808108 0
vn 0.3903910558099189 0.9206491316150885 0
vn 0.108520028690746 0.994094262820664 0
vn -0.108520028690746 -0.994094262820664 0
vn 0.2897891546574703 -0.9570905107892924 0
vn -0.2897891546574703 0.9570905107892924 0
vn 0.626939776739262 0.7790677225646845 0
vn -0.626939776739262 -0.7790677225646845 0
vn -0.2601739367621306 -0.9655617653105859 0
vn 0.2601739367621306 0.9655617653105859 0
vn -0.6311620176583356 0.7756510217007768 0
vn 0.6311620176583356 -0.7756510217007768 0
vn -0.005141998867904231 -0.999986779836435 0
vn 0.005141998867904231 0.999986779836435 0
vn -0.512970972382413 -0.8584059537847123 0
vn 0.512970972382413 0.8584059537847123 0
vn -0.36868099319838876 -0.9295559828510866 0
vn 0.36868099319838876 0.9295559828510866 0
vn 0.24127989307249606 0.9704555699252413 0
vn -0.24127989307249606 -0.9704555699252413 0
vn -0.3004549975000642 -0.9537959920639405 0
vn 0.3004549975000642 0.9537959920639405 0
vn 0.36053610053172 0.9327452600862581 0
vn -0.36053610053172 -0.9327452600862581 0
vn -0.6417140138186697 -0.7669440165153726 0
vn 0.6417140138186697 0.7669440165153726 0
vn -0.8301078351103013 0.5576028892397247 0
vn 0.8301078351103013 -0.5576028892397247 0
vn -0.6564518989956928 -0.7543678839299489 0
vn 0.6564518989956928 0.7543678839299489 0
vn 0.2506640362996644 0.9680741401906987 0
vn -0.2506640362996644 -0.9680741401906987 0
vn -0.641418883248304 -0.767190860355165 0
vn 0.641418883248304 0.767190860355165 0
vn 0.40200601209937614 0.9156370275583859 0
vn -0.40200601209937614 -0.9156370275583859 0
vn -0.887858230020569 -0.46011711920416787 0
vn 0.887858230020569 0.46011711920416787 0
vn -0.7974999737778026 -0.6033189801625707 0
vn 0.7974999737778026 0.6033189801625707 0
vn 0.3012560858000049 0.9535432715763139 0
vn -0.3012560858000049 -0.9535432715763139 0
vn -0.9555672804504378 -0.2947730865132606 0
vn 0.9555672804504378 0.2947730865132606 0
vn -0.956710616740847 0.29104088340875445 0
vn 0.956710616740847 -0.29104088340875445 0
vn -0.9110309502554339 -0.4123379774853162 0
vn 0.9110309502554339 0.4123379774853162 0
vn -0.9024646841730631 -0.4307638492496943 0
vn 0.9024646841730631 0.4307638492496943 0
vn 0.456765952193736 0.8895869068936152 0
vn -0.456765952193736 -0.8895869068936152 0
vn 0.5824881426906817 0.8128391991192109 0
vn -0.5824881426906817 -0.8128391991192109 0
vn 0.058448026511913935 -0.9982904528226554 0
vn -0.058448026511913935 0.9982904528226554 0
vn 0.9581758853178514 0.2861799657476943 0
vn 0.9802020192099994 0.1980000038804041 0
vn -0.9802020192099994 -0.1980000038804041 0
vn -0.9581758853178514 -0.2861799657476943 0
vn -0.9996760199010507 0.025453000506705615 0
vn 0.9996760199010507 -0.025453000506705615 0
vn -0.9792197749733632 -0.20280195339571086 0
vn 0.9792197749733632 0.20280195339571086 0
vn -0.9999997996555602 0.0006329998731819696 0
vn 0.9999997996555602 -0.0006329998731819696 0
vn 0.6626899140703298 0.7488939028924316 0
vn -0.6626899140703298 -0.7488939028924316 0
vn 0.7540611937420986 0.6568041687537021 0
vn -0.7540611937420986 -0.6568041687537021 0
vn -0.8994852511246239 0.43695112199108993 0
vn 0.8994852511246239 -0.43695112199108993 0
vn 0.6399322667286239 -0.7684313202880044 0
vn 0.40362110148710795 -0.9149262300504525 0
vn -0.6399322667286239 0.7684313202880044 0
vn -0.40362110148710795 0.9149262300504525 0
vn 0.8825805196984249 0.4701612768496127 0
vn -0.8825805196984249 -0.4701612768496127 0
vn 0.8499929921439399 0.5267939951311065 0
vn -0.8499929921439399 -0.5267939951311065 0
vn 0.8341073111833921 -0.551602205788204 0
vn -0.8341073111833921 0.551602205788204 0
vn -0.6393958006044507 0.7688777602255079 0
vn 0.6393958006044507 -0.7688777602255079 0
vn 0.1802079159415867 -0.9836285411841148 0
vn -0.1802079159415867 0.9836285411841148 0
vn 0.013346998996772854 -0.999910924841698 0
vn -0.013346998996772854 0.999910924841698 0
vn 0.9649762981077615 0.2623370810431511 0
vn -0.9649762981077615 -0.2623370810431511 0
vn 0.957929984240136 -0.28700199527824316 0
vn -0.957929984240136 0.28700199527824316 0
vn -0.3069589238112697 0.9517227637776806 0
vn 0.3069589238112697 -0.9517227637776806 0
vn -0.020560991783397542 0.9997886004635594 0
vn 0.020560991783397542 -0.9997886004635594 0
vn -0.11851798870357698 -0.9929519053577867 0
vn 0.11851798870357698 0.9929519053577867 0
vn 0.9999695249400908 -0.0078069962910960215 0
vn -0.9999695249400908 0.0078069962910960215 0
vn 0.19454992413050534 0.9808926174769663 0
vn -0.19454992413050534 -0.9808926174769663 0
vn -0.2754540671127389 -0.9613142342184738 0
vn 0.2754540671127389 0.9613142342184738 0
vn 0.40887514847792616 0.9125903313958317 0
vn -0.40887514847792616 -0.9125903313958317 0
vn 0.8050559127573029 0.5931989357159246 0
vn 0.6167539800011358 0.7871559744756808 0
vn -0.6167539800011358 -0.7871559744756808 0
vn -0.8050559127573029 -0.5931989357159246 0
vn -0.4806498000331424 -0.8769126351741663 0
vn 0.4806498000331424 0.8769126351741663 0
vn 0.9371447317395475 0.34894090011463486 0
vn -0.9371447317395475 -0.34894090011463486 0
vn 0.9746126032484472 0.22389790885420252 0
vn -0.9746126032484472 -0.22389790885420252 0
vn -0.683564821820308 -0.7298898097451224 0
vn 0.683564821820308 0.7298898097451224 0
vn -0.06252197416530038 0.9980435875984943 0
vn 0.06252197416530038 -0.9980435875984943 0
vn -0.8234548060974142 -0.5673818663960545 0
vn 0.8234548060974142 0.5673818663960545 0
vn -0.9130341703516488 -0.4078830761018118 0
vn 0.9130341703516488 0.4078830761018118 0
vn -0.9700125376950447 -0.24305488416079896 0
vn -0.9869536012012455 -0.1610049349426686 0
vn 0.9869536012012455 0.1610049349426686 0
vn 0.9700125376950447 0.24305488416079896 0
usemtl material_0_0
f 1//1 2//1 3//1
f 2//1 1//1 4//1
f 3//2 2//2 1//2
f 4//2 1//2 2//2
f 2//3 5//4 3//4
f 3//5 5//5 2//6
f 6//1 1//1 3//1
f 3//2 1//2 6//2
f 7//7 4//8 1//7
f 1//9 4//10 7//9
f 2//1 4//1 8//1
f 8//2 4//2 2//2
f 5//4 2//3 9//3
f 9//6 2//6 5//5
f 10//11 3//4 5//4
f 5//5 3//5 10//12
f 11//1 1//1 6//1
f 6//2 1//2 11//2
f 6//1 3//1 12//1
f 12//2 3//2 6//2
f 4//8 7//7 13//8
f 13//10 7//9 4//10
f 1//7 14//13 7//7
f 7//9 14//14 1//9
f 8//1 4//1 15//1
f 15//2 4//2 8//2
f 8//15 9//3 2//3
f 2//6 9//6 8//16
f 9//2 7//2 5//2
f 5//1 7//1 9//1
f 3//4 10//11 12//11
f 12//12 10//12 3//5
f 5//2 16//2 10//2
f 10//1 16//1 5//1
f 11//1 17//1 1//1
f 1//2 17//2 11//2
f 16//17 11//18 6//17
f 6//19 11//20 16//19
f 6//1 12//1 18//1
f 18//2 12//2 6//2
f 7//2 9//2 13//2
f 13//1 9//1 7//1
f 13//8 19//21 4//8
f 4//10 19//22 13//10
f 14//13 1//7 17//13
f 17//14 1//9 14//14
f 14//2 20//2 7//2
f 7//1 20//1 14//1
f 15//1 4//1 21//1
f 21//2 4//2 15//2
f 22//23 8//15 15//23
f 15//24 8//16 22//24
f 9//3 8//15 23//15
f 23//16 8//16 9//6
f 7//2 16//2 5//2
f 5//1 16//1 7//1
f 24//25 12//11 10//11
f 10//12 12//12 24//26
f 10//2 16//2 25//2
f 25//1 16//1 10//1
f 26//1 17//1 11//1
f 11//2 17//2 26//2
f 11//18 16//17 20//18
f 20//20 16//19 11//20
f 6//17 25//27 16//17
f 16//19 25//28 6//19
f 18//1 12//1 27//1
f 27//2 12//2 18//2
f 25//27 6//17 18//27
f 18//28 6//19 25//28
f 13//2 9//2 23//2
f 23//1 9//1 13//1
f 19//21 13//8 28//21
f 28//22 13//10 19//22
f 29//1 4//1 19//1
f 19//2 4//2 29//2
f 17//13 30//29 14//13
f 14//14 30//30 17//14
f 14//2 31//2 20//2
f 20//1 31//1 14//1
f 7//2 20//2 16//2
f 16//1 20//1 7//1
f 21//1 4//1 29//1
f 29//2 4//2 21//2
f 32//31 15//23 21//31
f 21//32 15//24 32//32
f 8//15 22//23 23//15
f 23//16 22//24 8//16
f 15//23 32//31 22//23
f 22//24 32//32 15//24
f 12//11 24//25 27//25
f 27//26 24//26 12//12
f 10//2 25//2 24//2
f 24//1 25//1 10//1
f 26//1 33//1 17//1
f 17//2 33//2 26//2
f 20//18 26//33 11//18
f 11//20 26//34 20//20
f 18//1 27//1 34//1
f 34//2 27//2 18//2
f 18//27 35//35 25//27
f 25//28 35//36 18//28
f 13//2 23//2 22//2
f 22//1 23//1 13//1
f 13//2 36//2 28//2
f 28//1 36//1 13//1
f 28//21 37//37 19//21
f 19//22 37//38 28//22
f 29//1 19//1 38//1
f 38//2 19//2 29//2
f 30//29 17//13 33//29
f 33//30 17//14 30//30
f 30//2 31//2 14//2
f 14//1 31//1 30//1
f 26//33 20//18 31//33
f 31//34 20//20 26//34
f 36//39 21//31 29//39
f 29//40 21//32 36//40
f 21//31 36//39 32//31
f 32//32 36//40 21//32
f 13//2 22//2 32//2
f 32//1 22//1 13//1
f 24//25 34//41 27//25
f 27//26 34//42 24//26
f 24//2 25//2 39//2
f 39//1 25//1 24//1
f 40//1 33//1 26//1
f 26//2 33//2 40//2
f 18//1 34//1 41//1
f 41//2 34//2 18//2
f 35//35 18//27 42//35
f 42//36 18//28 35//36
f 43//2 25//2 35//2
f 35//1 25//1 43//1
f 13//2 32//2 36//2
f 36//1 32//1 13//1
f 28//2 36//2 44//2
f 44//1 36//1 28//1
f 37//37 28//21 45//37
f 45//38 28//22 37//38
f 46//1 19//1 37//1
f 37//2 19//2 46//2
f 38//1 19//1 46//1
f 46//2 19//2 38//2
f 44//43 29//39 38//43
f 38//44 29//40 44//44
f 47//45 30//29 33//29
f 33//30 30//30 47//46
f 30//2 48//2 31//2
f 31//1 48//1 30//1
f 31//33 40//47 26//33
f 26//34 40//48 31//34
f 29//39 44//43 36//39
f 36//40 44//44 29//40
f 34//41 24//25 39//41
f 39//42 24//26 34//42
f 39//2 25//2 43//2
f 43//1 25//1 39//1
f 49//1 33//1 40//1
f 40//2 33//2 49//2
f 39//41 41//49 34//41
f 34//42 41//50 39//42
f 18//1 41//1 42//1
f 42//2 41//2 18//2
f 42//35 50//51 35//35
f 35//36 50//52 42//36
f 43//2 35//2 51//2
f 51//1 35//1 43//1
f 28//2 44//2 52//2
f 52//1 44//1 28//1
f 28//2 52//2 45//2
f 45//1 52//1 28//1
f 45//37 53//53 37//37
f 37//38 53//54 45//38
f 46//1 37//1 54//1
f 54//2 37//2 46//2
f 46//55 44//43 38//43
f 38//44 44//44 46//56
f 30//29 47//45 55//45
f 55//46 47//46 30//30
f 49//1 47//1 33//1
f 33//2 47//2 49//2
f 30//2 56//2 48//2
f 48//1 56//1 30//1
f 40//47 31//33 48//47
f 48//48 31//34 40//48
f 41//49 39//41 43//49
f 43//50 39//42 41//50
f 40//47 56//57 49//57
f 49//58 56//58 40//48
f 42//1 41//1 57//1
f 57//2 41//2 42//2
f 50//51 42//35 58//51
f 58//52 42//36 50//52
f 51//2 35//2 50//2
f 50//1 35//1 51//1
f 57//59 43//49 51//59
f 51//60 43//50 57//60
f 44//43 46//55 52//55
f 52//56 46//56 44//44
f 45//2 52//2 59//2
f 59//1 52//1 45//1
f 53//53 45//37 60//53
f 60//54 45//38 53//54
f 61//1 37//1 53//1
f 53//2 37//2 61//2
f 54//1 37//1 61//1
f 61//2 37//2 54//2
f 54//61 52//55 46//55
f 46//56 52//56 54//62
f 62//63 55//45 47//45
f 47//46 55//46 62//64
f 55//2 56//2 30//2
f 30//1 56//1 55//1
f 63//1 47//1 49//1
f 49//2 47//2 63//2
f 56//57 40//47 48//47
f 48//48 40//48 56//58
f 43//49 57//59 41//49
f 41//50 57//60 43//50
f 64//65 49//57 56//57
f 56//58 49//58 64//66
f 42//1 57//1 58//1
f 58//2 57//2 42//2
f 65//67 50//51 58//51
f 58//52 50//52 65//68
f 51//2 50//2 66//2
f 66//1 50//1 51//1
f 51//59 67//69 57//59
f 57//60 67//70 51//60
f 52//55 54//61 59//61
f 59//62 54//62 52//56
f 45//2 59//2 68//2
f 68//1 59//1 45//1
f 45//2 68//2 60//2
f 60//1 68//1 45//1
f 60//53 69//71 53//53
f 53//54 69//72 60//54
f 61//1 53//1 69//1
f 69//2 53//2 61//2
f 68//73 54//73 61//73
f 61//74 54//74 68//74
f 55//45 62//63 70//63
f 70//64 62//64 55//46
f 63//1 62//1 47//1
f 47//2 62//2 63//2
f 55//2 64//2 56//2
f 56//1 64//1 55//1
f 49//57 64//65 63//65
f 63//66 64//66 49//58
f 58//1 57//1 65//1
f 65//2 57//2 58//2
f 50//51 65//67 66//67
f 66//68 65//68 50//52
f 51//2 66//2 71//2
f 71//1 66//1 51//1
f 67//69 51//59 72//69
f 72//70 51//60 67//70
f 73//1 57//1 67//1
f 67//2 57//2 73//2
f 54//73 68//73 59//73
f 59//74 68//74 54//74
f 60//2 68//2 74//2
f 74//1 68//1 60//1
f 69//71 60//53 74//71
f 74//72 60//54 69//72
f 61//1 69//1 75//1
f 75//2 69//2 61//2
f 76//75 68//76 61//76
f 61//77 68//77 76//78
f 77//79 70//63 62//63
f 62//64 70//64 77//80
f 70//2 64//2 55//2
f 55//1 64//1 70//1
f 78//1 62//1 63//1
f 63//2 62//2 78//2
f 79//81 63//65 64//65
f 64//66 63//66 79//82
f 65//1 57//1 80//1
f 80//2 57//2 65//2
f 80//83 66//67 65//67
f 65//68 66//68 80//84
f 66//67 80//83 71//83
f 71//84 80//84 66//68
f 71//2 81//2 51//2
f 51//1 81//1 71//1
f 51//2 81//2 72//2
f 72//1 81//1 51//1
f 72//69 82//85 67//69
f 67//70 82//86 72//70
f 73//1 80//1 57//1
f 57//2 80//2 73//2
f 73//1 67//1 83//1
f 83//2 67//2 73//2
f 74//2 68//2 84//2
f 84//1 68//1 74//1
f 74//71 75//87 69//71
f 69//72 75//88 74//72
f 61//1 75//1 85//1
f 85//2 75//2 61//2
f 68//76 76//75 86//75
f 86//78 76//78 68//77
f 61//1 85//1 76//1
f 76//2 85//2 61//2
f 70//63 77//79 87//79
f 87//80 77//80 70//64
f 62//1 78//1 77//1
f 77//2 78//2 62//2
f 70//2 79//2 64//2
f 64//1 79//1 70//1
f 63//65 79//81 78//81
f 78//82 79//82 63//66
f 88//89 71//83 80//83
f 80//84 71//84 88//90
f 89//2 81//2 71//2
f 71//1 81//1 89//1
f 72//2 81//2 90//2
f 90//1 81//1 72//1
f 82//85 72//69 91//85
f 91//86 72//70 82//86
f 83//1 67//1 82//1
f 82//2 67//2 83//2
f 73//1 88//1 80//1
f 80//2 88//2 73//2
f 90//91 73//92 83//91
f 83//93 73//94 90//93
f 84//2 68//2 92//2
f 92//1 68//1 84//1
f 75//87 74//71 84//87
f 84//88 74//72 75//88
f 75//87 92//95 85//95
f 85//96 92//96 75//88
f 85//95 86//75 76//75
f 76//78 86//78 85//96
f 92//2 68//2 86//2
f 86//1 68//1 92//1
f 78//81 87//79 77//79
f 77//80 87//80 78//82
f 79//2 70//2 87//2
f 87//1 70//1 79//1
f 87//79 78//81 79//81
f 79//82 78//82 87//80
f 71//83 88//89 89//89
f 89//90 88//90 71//84
f 89//2 93//2 81//2
f 81//1 93//1 89//1
f 73//92 90//91 81//92
f 81//94 90//93 73//94
f 72//2 90//2 91//2
f 91//1 90//1 72//1
f 94//97 82//85 91//85
f 91//86 82//86 94//98
f 83//1 82//1 95//1
f 95//2 82//2 83//2
f 96//1 88//1 73//1
f 73//2 88//2 96//2
f 95//99 90//91 83//91
f 83//93 90//93 95//100
f 92//95 75//87 84//87
f 84//88 75//88 92//96
f 86//75 85//95 92//95
f 92//96 85//96 86//78
f 97//101 89//89 88//89
f 88//90 89//90 97//102
f 98//2 93//2 89//2
f 89//1 93//1 98//1
f 96//103 81//92 93//103
f 93//104 81//94 96//104
f 81//92 96//103 73//92
f 73//94 96//104 81//94
f 91//2 90//2 99//2
f 99//1 90//1 91//1
f 82//85 94//97 100//97
f 100//98 94//98 82//86
f 91//2 99//2 94//2
f 94//1 99//1 91//1
f 95//1 82//1 100//1
f 100//2 82//2 95//2
f 96//1 97//1 88//1
f 88//2 97//2 96//2
f 90//91 95//99 99//99
f 99//100 95//100 90//93
f 89//89 97//101 98//101
f 98//102 97//102 89//90
f 101//2 93//2 98//2
f 98//1 93//1 101//1
f 93//103 102//105 96//103
f 96//104 102//106 93//104
f 103//107 100//97 94//97
f 94//98 100//98 103//108
f 94//2 99//2 104//2
f 104//1 99//1 94//1
f 95//1 100//1 105//1
f 105//2 100//2 95//2
f 96//1 106//1 97//1
f 97//2 106//2 96//2
f 105//109 99//99 95//99
f 95//100 99//100 105//110
f 97//101 101//111 98//101
f 98//102 101//112 97//102
f 107//2 93//2 101//2
f 101//1 93//1 107//1
f 102//105 93//103 108//105
f 108//106 93//104 102//106
f 102//1 109//1 96//1
f 96//2 109//2 102//2
f 100//97 103//107 110//107
f 110//108 103//108 100//98
f 94//2 104//2 103//2
f 103//1 104//1 94//1
f 99//99 105//109 104//109
f 104//110 105//110 99//100
f 105//1 100//1 110//1
f 110//2 100//2 105//2
f 96//1 109//1 106//1
f 106//2 109//2 96//2
f 101//111 97//101 106//111
f 106//112 97//102 101//112
f 107//2 108//2 93//2
f 93//1 108//1 107//1
f 106//111 107//113 101//111
f 101//112 107//114 106//112
f 108//105 111//115 102//105
f 102//106 111//116 108//106
f 102//1 112//1 109//1
f 109//2 112//2 102//2
f 113//117 110//107 103//107
f 103//108 110//108 113//118
f 103//2 104//2 113//2
f 113//1 104//1 103//1
f 114//117 104//109 105//109
f 105//110 104//110 114//118
f 105//1 110//1 114//1
f 114//2 110//2 105//2
f 107//113 106//111 109//113
f 109//114 106//112 107//114
f 115//2 108//2 107//2
f 107//1 108//1 115//1
f 111//115 108//105 116//115
f 116//116 108//106 111//116
f 111//1 117//1 102//1
f 102//2 117//2 111//2
f 102//1 118//1 112//1
f 112//2 118//2 102//2
f 115//119 109//113 112//119
f 112//120 109//114 115//120
f 110//107 113//117 114//117
f 114//118 113//118 110//108
f 104//109 114//117 113//117
f 113//118 114//118 104//110
f 109//113 115//119 107//113
f 107//114 115//120 109//114
f 119//2 108//2 115//2
f 115//1 108//1 119//1
f 120//2 116//2 108//2
f 108//1 116//1 120//1
f 116//115 121//121 111//115
f 111//116 121//122 116//116
f 111//1 122//1 117//1
f 117//2 122//2 111//2
f 102//1 117//1 118//1
f 118//2 117//2 102//2
f 119//123 112//119 118//123
f 118//124 112//120 119//124
f 112//119 119//123 115//119
f 115//120 119//124 112//120
f 120//2 108//2 119//2
f 119//1 108//1 120//1
f 123//2 116//2 120//2
f 120//1 116//1 123//1
f 121//121 116//115 124//121
f 124//122 116//116 121//122
f 121//1 125//1 111//1
f 111//2 125//2 121//2
f 111//1 126//1 122//1
f 122//2 126//2 111//2
f 122//125 120//126 117//126
f 117//127 120//127 122//128
f 120//126 118//123 117//126
f 117//127 118//124 120//127
f 118//123 120//126 119//123
f 119//124 120//127 118//124
f 127//2 116//2 123//2
f 123//1 116//1 127//1
f 120//126 122//125 123//125
f 123//128 122//128 120//127
f 128//2 124//2 116//2
f 116//1 124//1 128//1
f 124//121 129//129 121//121
f 121//122 129//130 124//122
f 129//1 125//1 121//1
f 121//2 125//2 129//2
f 111//1 125//1 126//1
f 126//2 125//2 111//2
f 126//131 123//125 122//125
f 122//128 123//128 126//132
f 128//2 116//2 127//2
f 127//1 116//1 128//1
f 123//125 126//131 127//131
f 127//132 126//132 123//128
f 128//2 130//2 124//2
f 124//1 130//1 128//1
f 129//129 124//121 130//129
f 130//130 124//122 129//130
f 131//1 125//1 129//1
f 129//2 125//2 131//2
f 125//133 127//131 126//131
f 126//132 127//132 125//134
f 127//131 125//133 128//133
f 128//134 125//134 127//132
f 128//2 132//2 130//2
f 130//1 132//1 128//1
f 130//129 131//135 129//129
f 129//130 131//136 130//130
f 133//1 125//1 131//1
f 131//2 125//2 133//2
f 125//137 134//137 128//137
f 128//138 134//138 125//138
f 128//2 135//2 132//2
f 132//1 135//1 128//1
f 131//135 130//129 132//135
f 132//136 130//130 131//136
f 136//1 125//1 133//1
f 133//2 125//2 136//2
f 131//135 135//139 133//139
f 133//140 135//140 131//136
f 134//137 125//137 137//137
f 137//138 125//138 134//138
f 138//2 128//2 134//2
f 134//1 128//1 138//1
f 128//2 139//2 135//2
f 135//1 139//1 128//1
f 135//139 131//135 132//135
f 132//136 131//136 135//140
f 140//1 125//1 136//1
f 136//2 125//2 140//2
f 133//139 139//141 136//141
f 136//142 139//142 133//140
f 139//141 133//139 135//139
f 135//140 133//140 139//142
f 125//1 140//1 137//1
f 137//2 140//2 125//2
f 140//143 134//144 137//144
f 137//145 134//145 140//146
f 128//2 138//2 139//2
f 139//1 138//1 128//1
f 134//144 140//143 138//143
f 138//146 140//146 134//145
f 136//141 138//143 140//143
f 140//146 138//146 136//142
f 138//143 136//141 139//141
f 139//142 136//142 138//146
