mtllib new-2.mtl
v -0.700967 -0.116045 0.418688
v -0.022356 -0.116045 0.571144
v -0.700967 -0.117333 0.414922
v 0.596775 -0.116045 0.418688
v -0.700967 -0.118513 0.411121
v 0.596775 -0.117333 0.414922
v -0.262218 -0.116045 0.434110
v -0.700967 -0.119583 0.407288
v -0.265784 -0.116045 0.434344
v -0.053384 -0.116045 0.434110
v 0.596775 -0.118513 0.411121
v -0.700967 -0.120543 0.403425
v -0.269289 -0.116045 0.435041
v -0.049334 -0.116045 0.434376
v 0.596775 -0.119583 0.407288
v -0.700967 -0.121392 0.399537
v -0.289538 -0.116045 0.461431
v -0.700967 -0.124177 0.371863
v -0.272673 -0.116045 0.436190
v -0.045354 -0.116045 0.435168
v 0.596775 -0.120543 0.403425
v -0.700967 -0.122129 0.395626
v -0.022356 -0.116045 0.465138
v -0.289304 -0.116045 0.457865
v -0.700967 -0.124120 0.375842
v -0.275878 -0.116045 0.437771
v -0.041510 -0.116045 0.436472
v 0.596775 -0.121392 0.399537
v -0.700967 -0.122754 0.391695
v -0.022622 -0.116045 0.461089
v -0.288607 -0.116045 0.454360
v -0.700967 -0.123949 0.379818
v 0.596775 -0.124120 0.375842
v -0.278849 -0.116045 0.439756
v -0.037870 -0.116045 0.438267
v 0.596775 -0.122129 0.395626
v -0.700967 -0.123265 0.387748
v -0.023413 -0.116045 0.457108
v -0.287459 -0.116045 0.450976
v -0.700967 -0.123664 0.383788
v 0.596775 -0.123949 0.379818
v -0.623378 -0.124177 0.371863
v -0.281536 -0.116045 0.442112
v -0.034496 -0.116045 0.440522
v 0.596775 -0.122754 0.391695
v -0.024718 -0.116045 0.453264
v -0.285878 -0.116045 0.447770
v 0.596775 -0.123664 0.383788
v -0.283893 -0.116045 0.444799
v -0.031444 -0.116045 0.443198
v 0.596775 -0.123265 0.387748
v -0.026513 -0.116045 0.449624
v -0.028768 -0.116045 0.446250
vn 0.000000 1.000000 0.000000
vn 0.000000 0.946178 -0.323648
vn 0.000000 0.950718 -0.310057
vn 0.000000 0.959212 -0.282686
vn 0.000000 -1.000000 0.000000
vn 0.000000 0.966919 -0.255084
vn 0.000000 0.973832 -0.227271
vn 0.000000 0.979944 -0.199272
vn 0.000000 0.985252 -0.171110
vn 0.000000 0.999589 -0.028659
vn 0.000000 0.999897 -0.014337
vn 0.000000 0.989751 -0.142807
vn 0.000000 0.998358 -0.057287
vn 0.000000 0.993436 -0.114386
vn 0.000000 0.996306 -0.085872
vn 0.000000 -0.946178 0.323648
vn 0.000000 -0.950718 0.310057
vn 0.000000 -0.959212 0.282686
vn 0.000000 -0.966919 0.255084
vn 0.000000 -0.973832 0.227271
vn 0.000000 -0.979944 0.199272
vn 0.000000 -0.985252 0.171110
vn 0.000000 -0.999589 0.028659
vn 0.000000 -0.999897 0.014337
vn 0.000000 -0.989751 0.142807
vn 0.000000 -0.998358 0.057287
vn 0.000000 -0.993436 0.114386
vn 0.000000 -0.996306 0.085872
usemtl material-0
f 4//2 3//3 1//2
f 1//1 7//1 4//1
f 6//3 5//4 3//3
f 4//1 7//1 10//1
f 11//4 8//6 5//4
f 9//1 2//1 7//1
f 7//1 2//1 10//1
f 15//6 12//7 8//6
f 13//1 2//1 9//1
f 10//1 2//1 14//1
f 21//7 16//8 12//7
f 19//1 2//1 13//1
f 14//1 2//1 20//1
f 28//8 22//9 16//8
f 17//1 2//1 24//1
f 33//10 18//11 25//10
f 26//1 2//1 19//1
f 20//1 2//1 27//1
f 36//9 29//12 22//9
f 30//1 2//1 23//1
f 24//1 2//1 31//1
f 41//13 25//10 32//13
f 18//11 33//10 42//11
f 34//1 2//1 26//1
f 27//1 2//1 35//1
f 45//12 37//14 29//12
f 38//1 2//1 30//1
f 31//1 2//1 39//1
f 48//15 32//13 40//15
f 43//1 2//1 34//1
f 35//1 2//1 44//1
f 51//14 40//15 37//14
f 46//1 2//1 38//1
f 39//1 2//1 47//1
f 49//1 2//1 43//1
f 44//1 2//1 50//1
f 52//1 2//1 46//1
f 47//1 2//1 49//1
f 50//1 2//1 53//1
f 53//1 2//1 52//1
usemtl material-1
f 1//16 3//17 4//16
f 4//5 7//5 1//5
f 3//17 5//18 6//17
f 10//5 7//5 4//5
f 5//18 8//19 11//18
f 7//5 2//5 9//5
f 10//5 2//5 7//5
f 8//19 12//20 15//19
f 9//5 2//5 13//5
f 14//5 2//5 10//5
f 12//20 16//21 21//20
f 13//5 2//5 19//5
f 20//5 2//5 14//5
f 16//21 22//22 28//21
f 24//5 2//5 17//5
f 25//23 18//24 33//23
f 19//5 2//5 26//5
f 27//5 2//5 20//5
f 22//22 29//25 36//22
f 23//5 2//5 30//5
f 31//5 2//5 24//5
f 32//26 25//23 41//26
f 42//24 33//23 18//24
f 26//5 2//5 34//5
f 35//5 2//5 27//5
f 29//25 37//27 45//25
f 30//5 2//5 38//5
f 39//5 2//5 31//5
f 40//28 32//26 48//28
f 34//5 2//5 43//5
f 44//5 2//5 35//5
f 37//27 40//28 51//27
f 38//5 2//5 46//5
f 47//5 2//5 39//5
f 43//5 2//5 49//5
f 50//5 2//5 44//5
f 46//5 2//5 52//5
f 49//5 2//5 47//5
f 53//5 2//5 50//5
f 52//5 2//5 53//5