# SSTK version 0.8.0
# 236
mtllib original-236.mtl
o mesh183/mesh183-geometry#mesh183-geometry
v -0.587915 -0.120232 0.152846
v -0.587949 -0.120232 0.154445
v -0.587995 -0.120232 0.153746
v -0.587810 -0.120232 0.155058
v -0.587677 -0.120232 0.152067
v -0.587579 -0.120232 0.155585
v -0.587276 -0.120232 0.151437
v -0.587256 -0.120232 0.156026
v -0.586709 -0.120232 0.150987
v -0.586933 -0.120232 0.153169
v -0.586844 -0.120232 0.152699
v -0.586963 -0.120232 0.153718
v -0.586696 -0.120232 0.152308
v -0.586856 -0.120232 0.156373
v -0.586030 -0.120232 0.150717
v -0.586934 -0.120232 0.154275
v -0.586488 -0.120232 0.151997
v -0.586848 -0.120232 0.154749
v -0.586233 -0.120232 0.151759
v -0.586397 -0.120232 0.156622
v -0.585943 -0.120232 0.151589
v -0.586705 -0.120232 0.155142
v -0.585294 -0.120232 0.150627
v -0.586505 -0.120232 0.155454
v -0.585617 -0.120232 0.151487
v -0.586259 -0.120232 0.155690
v -0.585255 -0.120232 0.151453
v -0.585878 -0.120232 0.156771
v -0.584834 -0.120232 0.150657
v -0.585978 -0.120232 0.155860
v -0.584790 -0.120232 0.151528
v -0.585662 -0.120232 0.155961
v -0.584417 -0.120232 0.150749
v -0.585300 -0.120232 0.156821
v -0.584399 -0.120232 0.151754
v -0.585311 -0.120232 0.155995
v -0.584044 -0.120232 0.150902
v -0.584768 -0.120232 0.155904
v -0.584098 -0.120232 0.152129
v -0.584833 -0.120232 0.156785
v -0.583905 -0.120232 0.152652
v -0.584405 -0.120232 0.156676
v -0.583715 -0.120232 0.151115
v -0.584323 -0.120232 0.155632
v -0.582928 -0.120232 0.152502
v -0.584015 -0.120232 0.156496
v -0.583436 -0.120232 0.151385
v -0.584000 -0.120232 0.155172
v -0.583212 -0.120232 0.151706
v -0.583662 -0.120232 0.156243
v -0.583042 -0.120232 0.152078
v -0.583821 -0.120232 0.154516
v -0.582833 -0.120232 0.154645
v -0.583360 -0.120232 0.155927
v -0.583122 -0.120232 0.155555
v -0.582946 -0.120232 0.155127
vn 0 -1 0
vn 0 1 0
usemtl material_0_0
f 1//1 2//1 3//1
f 2//1 1//1 4//1
f 3//2 2//2 1//2
f 4//2 1//2 2//2
f 4//1 1//1 5//1
f 5//2 1//2 4//2
f 4//1 5//1 6//1
f 6//2 5//2 4//2
f 6//1 5//1 7//1
f 7//2 5//2 6//2
f 6//1 7//1 8//1
f 8//2 7//2 6//2
f 8//1 7//1 9//1
f 9//2 7//2 8//2
f 8//1 9//1 10//1
f 10//2 9//2 8//2
f 10//1 9//1 11//1
f 11//2 9//2 10//2
f 8//1 10//1 12//1
f 12//2 10//2 8//2
f 11//1 9//1 13//1
f 13//2 9//2 11//2
f 12//1 14//1 8//1
f 8//2 14//2 12//2
f 13//1 9//1 15//1
f 15//2 9//2 13//2
f 14//1 12//1 16//1
f 16//2 12//2 14//2
f 13//1 15//1 17//1
f 17//2 15//2 13//2
f 14//1 16//1 18//1
f 18//2 16//2 14//2
f 17//1 15//1 19//1
f 19//2 15//2 17//2
f 14//1 18//1 20//1
f 20//2 18//2 14//2
f 19//1 15//1 21//1
f 21//2 15//2 19//2
f 20//1 18//1 22//1
f 22//2 18//2 20//2
f 21//1 15//1 23//1
f 23//2 15//2 21//2
f 20//1 22//1 24//1
f 24//2 22//2 20//2
f 21//1 23//1 25//1
f 25//2 23//2 21//2
f 20//1 24//1 26//1
f 26//2 24//2 20//2
f 25//1 23//1 27//1
f 27//2 23//2 25//2
f 20//1 26//1 28//1
f 28//2 26//2 20//2
f 27//1 23//1 29//1
f 29//2 23//2 27//2
f 28//1 26//1 30//1
f 30//2 26//2 28//2
f 27//1 29//1 31//1
f 31//2 29//2 27//2
f 28//1 30//1 32//1
f 32//2 30//2 28//2
f 31//1 29//1 33//1
f 33//2 29//2 31//2
f 28//1 32//1 34//1
f 34//2 32//2 28//2
f 31//1 33//1 35//1
f 35//2 33//2 31//2
f 34//1 32//1 36//1
f 36//2 32//2 34//2
f 35//1 33//1 37//1
f 37//2 33//2 35//2
f 34//1 36//1 38//1
f 38//2 36//2 34//2
f 35//1 37//1 39//1
f 39//2 37//2 35//2
f 34//1 38//1 40//1
f 40//2 38//2 34//2
f 39//1 37//1 41//1
f 41//2 37//2 39//2
f 40//1 38//1 42//1
f 42//2 38//2 40//2
f 41//1 37//1 43//1
f 43//2 37//2 41//2
f 42//1 38//1 44//1
f 44//2 38//2 42//2
f 41//1 43//1 45//1
f 45//2 43//2 41//2
f 42//1 44//1 46//1
f 46//2 44//2 42//2
f 45//1 43//1 47//1
f 47//2 43//2 45//2
f 46//1 44//1 48//1
f 48//2 44//2 46//2
f 45//1 47//1 49//1
f 49//2 47//2 45//2
f 46//1 48//1 50//1
f 50//2 48//2 46//2
f 45//1 49//1 51//1
f 51//2 49//2 45//2
f 50//1 48//1 52//1
f 52//2 48//2 50//2
f 50//1 52//1 53//1
f 53//2 52//2 50//2
f 50//1 53//1 54//1
f 54//2 53//2 50//2
f 54//1 53//1 55//1
f 55//2 53//2 54//2
f 55//1 53//1 56//1
f 56//2 53//2 55//2
