# SSTK version 0.8.0
# 207
mtllib original-207.mtl
o mesh159/mesh159-geometry#mesh159-geometry
v 0.327365 -0.120232 0.237201
v 0.326278 -0.120232 0.241939
v 0.326278 -0.120232 0.237201
v 0.326692 -0.120232 0.244570
v 0.326917 -0.120232 0.244257
v 0.326247 -0.120232 0.242649
v 0.327085 -0.120232 0.243910
v 0.326151 -0.120232 0.243234
v 0.327295 -0.120232 0.243055
v 0.326074 -0.120232 0.245094
v 0.327365 -0.120232 0.241944
v 0.325992 -0.120232 0.243693
v 0.325769 -0.120232 0.244028
v 0.325680 -0.120232 0.245294
v 0.325471 -0.120232 0.244265
v 0.325229 -0.120232 0.245437
v 0.325087 -0.120232 0.244435
v 0.324721 -0.120232 0.245522
v 0.324617 -0.120232 0.244537
v 0.324156 -0.120232 0.245551
v 0.324061 -0.120232 0.244571
v 0.323415 -0.120232 0.244502
v 0.323107 -0.120232 0.245451
v 0.322876 -0.120232 0.244296
v 0.322662 -0.120232 0.245327
v 0.322463 -0.120232 0.243964
v 0.322269 -0.120232 0.245153
v 0.322193 -0.120232 0.243515
v 0.322044 -0.120232 0.242868
v 0.321928 -0.120232 0.244932
v 0.321994 -0.120232 0.241939
v 0.321994 -0.120232 0.237201
v 0.321640 -0.120232 0.244667
v 0.321404 -0.120232 0.244357
v 0.321221 -0.120232 0.244002
v 0.320986 -0.120232 0.243111
v 0.320908 -0.120232 0.241944
v 0.320908 -0.120232 0.237201
vn 0 -1 0
vn 0 1 0
usemtl material_0_0
f 1//1 2//1 3//1
f 2//1 1//1 4//1
f 3//2 2//2 1//2
f 4//2 1//2 2//2
f 4//1 1//1 5//1
f 5//2 1//2 4//2
f 4//1 6//1 2//1
f 2//2 6//2 4//2
f 5//1 1//1 7//1
f 7//2 1//2 5//2
f 4//1 8//1 6//1
f 6//2 8//2 4//2
f 7//1 1//1 9//1
f 9//2 1//2 7//2
f 10//1 8//1 4//1
f 4//2 8//2 10//2
f 9//1 1//1 11//1
f 11//2 1//2 9//2
f 10//1 12//1 8//1
f 8//2 12//2 10//2
f 10//1 13//1 12//1
f 12//2 13//2 10//2
f 14//1 13//1 10//1
f 10//2 13//2 14//2
f 14//1 15//1 13//1
f 13//2 15//2 14//2
f 16//1 15//1 14//1
f 14//2 15//2 16//2
f 16//1 17//1 15//1
f 15//2 17//2 16//2
f 18//1 17//1 16//1
f 16//2 17//2 18//2
f 18//1 19//1 17//1
f 17//2 19//2 18//2
f 20//1 19//1 18//1
f 18//2 19//2 20//2
f 20//1 21//1 19//1
f 19//2 21//2 20//2
f 20//1 22//1 21//1
f 21//2 22//2 20//2
f 23//1 22//1 20//1
f 20//2 22//2 23//2
f 23//1 24//1 22//1
f 22//2 24//2 23//2
f 25//1 24//1 23//1
f 23//2 24//2 25//2
f 25//1 26//1 24//1
f 24//2 26//2 25//2
f 27//1 26//1 25//1
f 25//2 26//2 27//2
f 27//1 28//1 26//1
f 26//2 28//2 27//2
f 27//1 29//1 28//1
f 28//2 29//2 27//2
f 30//1 29//1 27//1
f 27//2 29//2 30//2
f 30//1 31//1 29//1
f 29//2 31//2 30//2
f 30//1 32//1 31//1
f 31//2 32//2 30//2
f 33//1 32//1 30//1
f 30//2 32//2 33//2
f 34//1 32//1 33//1
f 33//2 32//2 34//2
f 35//1 32//1 34//1
f 34//2 32//2 35//2
f 36//1 32//1 35//1
f 35//2 32//2 36//2
f 37//1 32//1 36//1
f 36//2 32//2 37//2
f 32//1 37//1 38//1
f 38//2 37//2 32//2
