# SSTK version 0.8.0
# 19
mtllib original-19.mtl
o mesh13/mesh13-geometry#mesh13-geometry
v -0.301772 -0.120232 -0.054126
v -0.300170 -0.120232 -0.052674
v -0.301772 -0.120232 -0.047762
v -0.294993 -0.120232 -0.054126
v -0.300685 -0.120232 -0.047957
v -0.294993 -0.120232 -0.052674
v -0.300170 -0.120232 -0.049388
v -0.299332 -0.120232 -0.048061
v -0.299581 -0.120232 -0.049438
v -0.299050 -0.120232 -0.049455
v -0.298175 -0.120232 -0.047932
v -0.297449 -0.120232 -0.049297
v -0.297697 -0.120232 -0.047757
v -0.297299 -0.120232 -0.047488
v -0.296806 -0.120232 -0.049065
v -0.297000 -0.120232 -0.047177
v -0.296781 -0.120232 -0.046791
v -0.296188 -0.120232 -0.048683
v -0.296647 -0.120232 -0.046310
v -0.296602 -0.120232 -0.045713
v -0.296591 -0.120232 -0.042221
v -0.296005 -0.120232 -0.042725
v -0.296764 -0.120232 -0.044559
v -0.295645 -0.120232 -0.048160
v -0.297233 -0.120232 -0.043705
v -0.295548 -0.120232 -0.043333
v -0.297304 -0.120232 -0.041838
v -0.295246 -0.120232 -0.047521
v -0.297606 -0.120232 -0.043361
v -0.295204 -0.120232 -0.044045
v -0.298046 -0.120232 -0.043128
v -0.295000 -0.120232 -0.046719
v -0.298126 -0.120232 -0.041595
v -0.294990 -0.120232 -0.044841
v -0.299017 -0.120232 -0.042950
v -0.294918 -0.120232 -0.045704
v -0.299042 -0.120232 -0.041514
v -0.299922 -0.120232 -0.041563
v -0.299930 -0.120232 -0.043045
v -0.300789 -0.120232 -0.041709
v -0.300826 -0.120232 -0.043315
v -0.301614 -0.120232 -0.043651
v -0.302162 -0.120232 -0.043970
v -0.302278 -0.120232 -0.042219
v -0.302278 -0.120232 -0.043970
vn 0 -1 0
vn 0 1 0
usemtl material_0_0
f 1//1 2//1 3//1
f 2//1 1//1 4//1
f 3//2 2//2 1//2
f 4//2 1//2 2//2
f 3//1 2//1 5//1
f 5//2 2//2 3//2
f 2//1 4//1 6//1
f 6//2 4//2 2//2
f 7//1 5//1 2//1
f 2//2 5//2 7//2
f 5//1 7//1 8//1
f 8//2 7//2 5//2
f 8//1 7//1 9//1
f 9//2 7//2 8//2
f 8//1 9//1 10//1
f 10//2 9//2 8//2
f 8//1 10//1 11//1
f 11//2 10//2 8//2
f 11//1 10//1 12//1
f 12//2 10//2 11//2
f 11//1 12//1 13//1
f 13//2 12//2 11//2
f 13//1 12//1 14//1
f 14//2 12//2 13//2
f 14//1 12//1 15//1
f 15//2 12//2 14//2
f 14//1 15//1 16//1
f 16//2 15//2 14//2
f 16//1 15//1 17//1
f 17//2 15//2 16//2
f 17//1 15//1 18//1
f 18//2 15//2 17//2
f 17//1 18//1 19//1
f 19//2 18//2 17//2
f 19//1 18//1 20//1
f 20//2 18//2 19//2
f 20//1 18//1 21//1
f 21//2 18//2 20//2
f 21//1 18//1 22//1
f 22//2 18//2 21//2
f 21//1 23//1 20//1
f 20//2 23//2 21//2
f 22//1 18//1 24//1
f 24//2 18//2 22//2
f 21//1 25//1 23//1
f 23//2 25//2 21//2
f 22//1 24//1 26//1
f 26//2 24//2 22//2
f 27//1 25//1 21//1
f 21//2 25//2 27//2
f 26//1 24//1 28//1
f 28//2 24//2 26//2
f 27//1 29//1 25//1
f 25//2 29//2 27//2
f 26//1 28//1 30//1
f 30//2 28//2 26//2
f 27//1 31//1 29//1
f 29//2 31//2 27//2
f 30//1 28//1 32//1
f 32//2 28//2 30//2
f 33//1 31//1 27//1
f 27//2 31//2 33//2
f 30//1 32//1 34//1
f 34//2 32//2 30//2
f 33//1 35//1 31//1
f 31//2 35//2 33//2
f 34//1 32//1 36//1
f 36//2 32//2 34//2
f 37//1 35//1 33//1
f 33//2 35//2 37//2
f 38//1 35//1 37//1
f 37//2 35//2 38//2
f 38//1 39//1 35//1
f 35//2 39//2 38//2
f 40//1 39//1 38//1
f 38//2 39//2 40//2
f 40//1 41//1 39//1
f 39//2 41//2 40//2
f 40//1 42//1 41//1
f 41//2 42//2 40//2
f 40//1 43//1 42//1
f 42//2 43//2 40//2
f 44//1 43//1 40//1
f 40//2 43//2 44//2
f 43//1 44//1 45//1
f 45//2 44//2 43//2
