# SSTK version 0.8.0
# 290
mtllib original-290.mtl
o mesh222/mesh222-geometry#mesh222-geometry
v 0.323617 -0.120232 0.308936
v 0.324765 -0.120232 0.309959
v 0.323617 -0.120232 0.317607
v 0.326604 -0.120232 0.308936
v 0.324765 -0.120232 0.316584
v 0.326586 -0.120232 0.309959
v 0.326746 -0.120232 0.317607
v 0.327469 -0.120232 0.310004
v 0.326616 -0.120232 0.316584
v 0.327496 -0.120232 0.308967
v 0.327381 -0.120232 0.316544
v 0.328071 -0.120232 0.310137
v 0.327488 -0.120232 0.317570
v 0.328148 -0.120232 0.309060
v 0.327961 -0.120232 0.316424
v 0.328662 -0.120232 0.310506
v 0.328139 -0.120232 0.317459
v 0.328838 -0.120232 0.309301
v 0.328400 -0.120232 0.316232
v 0.329156 -0.120232 0.311116
v 0.328701 -0.120232 0.317277
v 0.329419 -0.120232 0.309681
v 0.328739 -0.120232 0.315975
v 0.329352 -0.120232 0.311520
v 0.329174 -0.120232 0.317025
v 0.329491 -0.120232 0.312004
v 0.329102 -0.120232 0.315496
v 0.330019 -0.120232 0.310342
v 0.329375 -0.120232 0.314878
v 0.329603 -0.120232 0.313207
v 0.329586 -0.120232 0.316684
v 0.329964 -0.120232 0.316238
v 0.329546 -0.120232 0.314115
v 0.330292 -0.120232 0.315672
v 0.330446 -0.120232 0.311163
v 0.330555 -0.120232 0.314975
v 0.330701 -0.120232 0.312129
v 0.330728 -0.120232 0.314156
v 0.330786 -0.120232 0.313224
vn 0 -1 0
vn 0 1 0
usemtl material_0_0
f 1//1 2//1 3//1
f 2//1 1//1 4//1
f 3//2 2//2 1//2
f 4//2 1//2 2//2
f 5//1 3//1 2//1
f 2//2 3//2 5//2
f 2//1 4//1 6//1
f 6//2 4//2 2//2
f 3//1 5//1 7//1
f 7//2 5//2 3//2
f 6//1 4//1 8//1
f 8//2 4//2 6//2
f 7//1 5//1 9//1
f 9//2 5//2 7//2
f 8//1 4//1 10//1
f 10//2 4//2 8//2
f 7//1 9//1 11//1
f 11//2 9//2 7//2
f 8//1 10//1 12//1
f 12//2 10//2 8//2
f 7//1 11//1 13//1
f 13//2 11//2 7//2
f 12//1 10//1 14//1
f 14//2 10//2 12//2
f 13//1 11//1 15//1
f 15//2 11//2 13//2
f 12//1 14//1 16//1
f 16//2 14//2 12//2
f 13//1 15//1 17//1
f 17//2 15//2 13//2
f 16//1 14//1 18//1
f 18//2 14//2 16//2
f 17//1 15//1 19//1
f 19//2 15//2 17//2
f 16//1 18//1 20//1
f 20//2 18//2 16//2
f 17//1 19//1 21//1
f 21//2 19//2 17//2
f 20//1 18//1 22//1
f 22//2 18//2 20//2
f 21//1 19//1 23//1
f 23//2 19//2 21//2
f 20//1 22//1 24//1
f 24//2 22//2 20//2
f 21//1 23//1 25//1
f 25//2 23//2 21//2
f 24//1 22//1 26//1
f 26//2 22//2 24//2
f 25//1 23//1 27//1
f 27//2 23//2 25//2
f 26//1 22//1 28//1
f 28//2 22//2 26//2
f 25//1 27//1 29//1
f 29//2 27//2 25//2
f 26//1 28//1 30//1
f 30//2 28//2 26//2
f 25//1 29//1 31//1
f 31//2 29//2 25//2
f 30//1 28//1 32//1
f 32//2 28//2 30//2
f 31//1 29//1 33//1
f 33//2 29//2 31//2
f 32//1 28//1 34//1
f 34//2 28//2 32//2
f 31//1 30//1 32//1
f 32//2 30//2 31//2
f 31//1 33//1 30//1
f 30//2 33//2 31//2
f 34//1 28//1 35//1
f 35//2 28//2 34//2
f 34//1 35//1 36//1
f 36//2 35//2 34//2
f 36//1 35//1 37//1
f 37//2 35//2 36//2
f 36//1 37//1 38//1
f 38//2 37//2 36//2
f 38//1 37//1 39//1
f 39//2 37//2 38//2
