# SSTK version 0.8.0
# 3
mtllib original-3.mtl
o mesh2/mesh2-geometry#mesh2-geometry
v -0.612699 -0.120232 -0.046831
v -0.613137 -0.120232 -0.044494
v -0.613268 -0.120232 -0.046594
v -0.613009 -0.120232 -0.045046
v -0.613605 -0.120232 -0.042256
v -0.612625 -0.120232 -0.045438
v -0.613761 -0.120232 -0.046262
v -0.613061 -0.120232 -0.044005
v -0.612056 -0.120232 -0.046974
v -0.614160 -0.120232 -0.045854
v -0.612721 -0.120232 -0.041879
v -0.612056 -0.120232 -0.045672
v -0.614209 -0.120232 -0.042794
v -0.612833 -0.120232 -0.043658
v -0.611338 -0.120232 -0.047021
v -0.614445 -0.120232 -0.045390
v -0.612437 -0.120232 -0.043407
v -0.611370 -0.120232 -0.045750
v -0.614557 -0.120232 -0.043479
v -0.611866 -0.120232 -0.041671
v -0.610653 -0.120232 -0.045684
v -0.614616 -0.120232 -0.044870
v -0.611858 -0.120232 -0.043206
v -0.609842 -0.120232 -0.046837
v -0.614673 -0.120232 -0.044294
v -0.611114 -0.120232 -0.041503
v -0.609942 -0.120232 -0.045486
v -0.611110 -0.120232 -0.043034
v -0.609267 -0.120232 -0.045174
v -0.610483 -0.120232 -0.041297
v -0.608578 -0.120232 -0.046374
v -0.610242 -0.120232 -0.042838
v -0.608658 -0.120232 -0.044766
v -0.610078 -0.120232 -0.041047
v -0.608578 -0.120232 -0.044766
v -0.609373 -0.120232 -0.042509
v -0.609859 -0.120232 -0.040709
v -0.609786 -0.120232 -0.040239
v -0.609657 -0.120232 -0.038120
v -0.609146 -0.120232 -0.038472
v -0.609910 -0.120232 -0.039615
v -0.608750 -0.120232 -0.042015
v -0.610230 -0.120232 -0.037864
v -0.608759 -0.120232 -0.038876
v -0.610314 -0.120232 -0.039223
v -0.608478 -0.120232 -0.039355
v -0.610911 -0.120232 -0.037708
v -0.608375 -0.120232 -0.041335
v -0.610922 -0.120232 -0.039011
v -0.608307 -0.120232 -0.039886
v -0.611690 -0.120232 -0.038927
v -0.608250 -0.120232 -0.040447
v -0.611746 -0.120232 -0.037656
v -0.612612 -0.120232 -0.037716
v -0.612645 -0.120232 -0.039063
v -0.613421 -0.120232 -0.037896
v -0.613489 -0.120232 -0.039375
v -0.614181 -0.120232 -0.039759
v -0.614633 -0.120232 -0.040095
v -0.614713 -0.120232 -0.038408
v -0.614713 -0.120232 -0.040095
vn 0 -1 0
vn 0 1 0
usemtl material_0_0
f 1//1 2//1 3//1
f 2//1 1//1 4//1
f 3//2 2//2 1//2
f 4//2 1//2 2//2
f 5//1 3//1 2//1
f 2//2 3//2 5//2
f 4//1 1//1 6//1
f 6//2 1//2 4//2
f 5//1 7//1 3//1
f 3//2 7//2 5//2
f 5//1 2//1 8//1
f 8//2 2//2 5//2
f 6//1 1//1 9//1
f 9//2 1//2 6//2
f 5//1 10//1 7//1
f 7//2 10//2 5//2
f 5//1 8//1 11//1
f 11//2 8//2 5//2
f 6//1 9//1 12//1
f 12//2 9//2 6//2
f 13//1 10//1 5//1
f 5//2 10//2 13//2
f 11//1 8//1 14//1
f 14//2 8//2 11//2
f 12//1 9//1 15//1
f 15//2 9//2 12//2
f 13//1 16//1 10//1
f 10//2 16//2 13//2
f 11//1 14//1 17//1
f 17//2 14//2 11//2
f 12//1 15//1 18//1
f 18//2 15//2 12//2
f 19//1 16//1 13//1
f 13//2 16//2 19//2
f 11//1 17//1 20//1
f 20//2 17//2 11//2
f 18//1 15//1 21//1
f 21//2 15//2 18//2
f 19//1 22//1 16//1
f 16//2 22//2 19//2
f 20//1 17//1 23//1
f 23//2 17//2 20//2
f 21//1 15//1 24//1
f 24//2 15//2 21//2
f 22//1 19//1 25//1
f 25//2 19//2 22//2
f 20//1 23//1 26//1
f 26//2 23//2 20//2
f 21//1 24//1 27//1
f 27//2 24//2 21//2
f 26//1 23//1 28//1
f 28//2 23//2 26//2
f 27//1 24//1 29//1
f 29//2 24//2 27//2
f 26//1 28//1 30//1
f 30//2 28//2 26//2
f 29//1 24//1 31//1
f 31//2 24//2 29//2
f 30//1 28//1 32//1
f 32//2 28//2 30//2
f 29//1 31//1 33//1
f 33//2 31//2 29//2
f 30//1 32//1 34//1
f 34//2 32//2 30//2
f 33//1 31//1 35//1
f 35//2 31//2 33//2
f 34//1 32//1 36//1
f 36//2 32//2 34//2
f 34//1 36//1 37//1
f 37//2 36//2 34//2
f 37//1 36//1 38//1
f 38//2 36//2 37//2
f 38//1 36//1 39//1
f 39//2 36//2 38//2
f 39//1 36//1 40//1
f 40//2 36//2 39//2
f 39//1 41//1 38//1
f 38//2 41//2 39//2
f 40//1 36//1 42//1
f 42//2 36//2 40//2
f 43//1 41//1 39//1
f 39//2 41//2 43//2
f 40//1 42//1 44//1
f 44//2 42//2 40//2
f 43//1 45//1 41//1
f 41//2 45//2 43//2
f 44//1 42//1 46//1
f 46//2 42//2 44//2
f 47//1 45//1 43//1
f 43//2 45//2 47//2
f 46//1 42//1 48//1
f 48//2 42//2 46//2
f 47//1 49//1 45//1
f 45//2 49//2 47//2
f 46//1 48//1 50//1
f 50//2 48//2 46//2
f 47//1 51//1 49//1
f 49//2 51//2 47//2
f 50//1 48//1 52//1
f 52//2 48//2 50//2
f 53//1 51//1 47//1
f 47//2 51//2 53//2
f 54//1 51//1 53//1
f 53//2 51//2 54//2
f 54//1 55//1 51//1
f 51//2 55//2 54//2
f 56//1 55//1 54//1
f 54//2 55//2 56//2
f 56//1 57//1 55//1
f 55//2 57//2 56//2
f 56//1 58//1 57//1
f 57//2 58//2 56//2
f 56//1 59//1 58//1
f 58//2 59//2 56//2
f 60//1 59//1 56//1
f 56//2 59//2 60//2
f 59//1 60//1 61//1
f 61//2 60//2 59//2
