# SSTK version 0.8.0
# 124
mtllib original-124.mtl
o mesh91/mesh91-geometry#mesh91-geometry
v -0.153858 -0.120232 0.012968
v -0.153918 -0.120232 0.015235
v -0.153918 -0.120232 0.013818
v -0.153747 -0.120232 0.018723
v -0.154042 -0.120232 0.016558
v -0.153677 -0.120232 0.012228
v -0.154223 -0.120232 0.017176
v -0.152929 -0.120232 0.017957
v -0.154518 -0.120232 0.017700
v -0.153375 -0.120232 0.011596
v -0.154794 -0.120232 0.019289
v -0.152953 -0.120232 0.011073
v -0.154923 -0.120232 0.018117
v -0.152424 -0.120232 0.010663
v -0.154923 -0.120232 0.020688
v -0.152396 -0.120232 0.016958
v -0.155436 -0.120232 0.020388
v -0.154794 -0.120232 0.019517
v -0.152215 -0.120232 0.013980
v -0.155436 -0.120232 0.018418
v -0.154518 -0.120232 0.021106
v -0.151803 -0.120232 0.010370
v -0.152215 -0.120232 0.015645
v -0.156070 -0.120232 0.020206
v -0.153752 -0.120232 0.020083
v -0.152068 -0.120232 0.012743
v -0.156070 -0.120232 0.018600
v -0.154223 -0.120232 0.021629
v -0.151881 -0.120232 0.012293
v -0.156839 -0.120232 0.020145
v -0.154042 -0.120232 0.022248
v -0.151616 -0.120232 0.011953
v -0.156839 -0.120232 0.018661
v -0.153918 -0.120232 0.023570
v -0.151089 -0.120232 0.010194
v -0.157039 -0.120232 0.020145
v -0.153918 -0.120232 0.024988
v -0.150912 -0.120232 0.011563
v -0.157039 -0.120232 0.018661
v -0.153858 -0.120232 0.025837
v -0.150284 -0.120232 0.010136
v -0.153677 -0.120232 0.026578
v -0.149941 -0.120232 0.011449
v -0.152929 -0.120232 0.020849
v -0.149180 -0.120232 0.010136
v -0.153375 -0.120232 0.027210
v -0.149180 -0.120232 0.011449
v -0.152953 -0.120232 0.027733
v -0.152424 -0.120232 0.028143
v -0.152396 -0.120232 0.021848
v -0.152215 -0.120232 0.024826
v -0.152215 -0.120232 0.023161
v -0.151803 -0.120232 0.028436
v -0.152068 -0.120232 0.026063
v -0.151881 -0.120232 0.026513
v -0.151616 -0.120232 0.026853
v -0.151089 -0.120232 0.028611
v -0.150917 -0.120232 0.027243
v -0.150284 -0.120232 0.028670
v -0.149941 -0.120232 0.027357
v -0.149180 -0.120232 0.028670
v -0.149180 -0.120232 0.027357
vn 0 -1 0
vn 0 1 0
usemtl material_0_0
f 1//1 2//1 3//1
f 4//1 2//1 1//1
f 3//2 2//2 1//2
f 1//2 2//2 4//2
f 4//1 5//1 2//1
f 2//2 5//2 4//2
f 4//1 1//1 6//1
f 6//2 1//2 4//2
f 4//1 7//1 5//1
f 5//2 7//2 4//2
f 4//1 6//1 8//1
f 8//2 6//2 4//2
f 4//1 9//1 7//1
f 7//2 9//2 4//2
f 8//1 6//1 10//1
f 10//2 6//2 8//2
f 11//1 9//1 4//1
f 4//2 9//2 11//2
f 8//1 10//1 12//1
f 12//2 10//2 8//2
f 11//1 13//1 9//1
f 9//2 13//2 11//2
f 8//1 12//1 14//1
f 14//2 12//2 8//2
f 15//1 13//1 11//1
f 11//2 13//2 15//2
f 8//1 14//1 16//1
f 16//2 14//2 8//2
f 17//1 13//1 15//1
f 15//2 13//2 17//2
f 18//1 15//1 11//1
f 11//2 15//2 18//2
f 16//1 14//1 19//1
f 19//2 14//2 16//2
f 17//1 20//1 13//1
f 13//2 20//2 17//2
f 15//1 18//1 21//1
f 21//2 18//2 15//2
f 19//1 14//1 22//1
f 22//2 14//2 19//2
f 23//1 16//1 19//1
f 19//2 16//2 23//2
f 24//1 20//1 17//1
f 17//2 20//2 24//2
f 21//1 18//1 25//1
f 25//2 18//2 21//2
f 19//1 22//1 26//1
f 26//2 22//2 19//2
f 24//1 27//1 20//1
f 20//2 27//2 24//2
f 21//1 25//1 28//1
f 28//2 25//2 21//2
f 26//1 22//1 29//1
f 29//2 22//2 26//2
f 30//1 27//1 24//1
f 24//2 27//2 30//2
f 28//1 25//1 31//1
f 31//2 25//2 28//2
f 29//1 22//1 32//1
f 32//2 22//2 29//2
f 30//1 33//1 27//1
f 27//2 33//2 30//2
f 31//1 25//1 34//1
f 34//2 25//2 31//2
f 32//1 22//1 35//1
f 35//2 22//2 32//2
f 36//1 33//1 30//1
f 30//2 33//2 36//2
f 34//1 25//1 37//1
f 37//2 25//2 34//2
f 32//1 35//1 38//1
f 38//2 35//2 32//2
f 33//1 36//1 39//1
f 39//2 36//2 33//2
f 37//1 25//1 40//1
f 40//2 25//2 37//2
f 38//1 35//1 41//1
f 41//2 35//2 38//2
f 40//1 25//1 42//1
f 42//2 25//2 40//2
f 38//1 41//1 43//1
f 43//2 41//2 38//2
f 42//1 25//1 44//1
f 44//2 25//2 42//2
f 43//1 41//1 45//1
f 45//2 41//2 43//2
f 42//1 44//1 46//1
f 46//2 44//2 42//2
f 43//1 45//1 47//1
f 47//2 45//2 43//2
f 46//1 44//1 48//1
f 48//2 44//2 46//2
f 48//1 44//1 49//1
f 49//2 44//2 48//2
f 49//1 44//1 50//1
f 50//2 44//2 49//2
f 49//1 50//1 51//1
f 51//2 50//2 49//2
f 51//1 50//1 52//1
f 52//2 50//2 51//2
f 49//1 51//1 53//1
f 53//2 51//2 49//2
f 53//1 51//1 54//1
f 54//2 51//2 53//2
f 53//1 54//1 55//1
f 55//2 54//2 53//2
f 53//1 55//1 56//1
f 56//2 55//2 53//2
f 53//1 56//1 57//1
f 57//2 56//2 53//2
f 57//1 56//1 58//1
f 58//2 56//2 57//2
f 57//1 58//1 59//1
f 59//2 58//2 57//2
f 59//1 58//1 60//1
f 60//2 58//2 59//2
f 59//1 60//1 61//1
f 61//2 60//2 59//2
f 61//1 60//1 62//1
f 62//2 60//2 61//2
