# SSTK version 0.8.0
# 21
mtllib original-21.mtl
o mesh14/mesh14-geometry#mesh14-geometry
v -0.249042 -0.120232 -0.054716
v -0.247531 -0.120232 -0.053373
v -0.249042 -0.120232 -0.043354
v -0.242243 -0.120232 -0.054716
v -0.247531 -0.120232 -0.043354
v -0.242243 -0.120232 -0.053373
v -0.247531 -0.120232 -0.050168
v -0.247531 -0.120232 -0.048825
v -0.242464 -0.120232 -0.050168
v -0.242464 -0.120232 -0.048825
vn 0 -1 0
vn 0 1 0
usemtl material_0_0
f 1//1 2//1 3//1
f 2//1 1//1 4//1
f 3//2 2//2 1//2
f 4//2 1//2 2//2
f 2//1 5//1 3//1
f 3//2 5//2 2//2
f 2//1 4//1 6//1
f 6//2 4//2 2//2
f 5//1 2//1 7//1
f 7//2 2//2 5//2
f 5//1 7//1 8//1
f 8//2 7//2 5//2
f 9//1 8//1 7//1
f 7//2 8//2 9//2
f 8//1 9//1 10//1
f 10//2 9//2 8//2
