# SSTK version 0.8.0
# 12
mtllib original-12.mtl
o mesh8/mesh8-geometry#mesh8-geometry
v -0.436163 -0.120232 -0.053780
v -0.434596 -0.120232 -0.052388
v -0.436163 -0.120232 -0.042001
v -0.429114 -0.120232 -0.053780
v -0.434596 -0.120232 -0.042001
v -0.429114 -0.120232 -0.052388
v -0.434596 -0.120232 -0.049065
v -0.434596 -0.120232 -0.047673
v -0.429343 -0.120232 -0.049065
v -0.429343 -0.120232 -0.047673
vn 0 -1 0
vn 0 1 0
usemtl material_0_0
f 1//1 2//1 3//1
f 2//1 1//1 4//1
f 3//2 2//2 1//2
f 4//2 1//2 2//2
f 2//1 5//1 3//1
f 3//2 5//2 2//2
f 2//1 4//1 6//1
f 6//2 4//2 2//2
f 5//1 2//1 7//1
f 7//2 2//2 5//2
f 5//1 7//1 8//1
f 8//2 7//2 5//2
f 9//1 8//1 7//1
f 7//2 8//2 9//2
f 8//1 9//1 10//1
f 10//2 9//2 8//2
