# SSTK version 0.8.0
# 302
mtllib original-302.mtl
o mesh231/mesh231-geometry#mesh231-geometry
v 0.498738 -0.120232 0.285008
v 0.499947 -0.120232 0.286086
v 0.498738 -0.120232 0.294141
v 0.505341 -0.120232 0.285008
v 0.499947 -0.120232 0.293063
v 0.505341 -0.120232 0.286086
v 0.505553 -0.120232 0.294141
v 0.499947 -0.120232 0.288883
v 0.505553 -0.120232 0.293063
v 0.499947 -0.120232 0.289954
v 0.504999 -0.120232 0.288883
v 0.504999 -0.120232 0.289954
vn 0 -1 0
vn 0 1 0
usemtl material_0_0
f 1//1 2//1 3//1
f 2//1 1//1 4//1
f 3//2 2//2 1//2
f 4//2 1//2 2//2
f 5//1 3//1 2//1
f 2//2 3//2 5//2
f 2//1 4//1 6//1
f 6//2 4//2 2//2
f 3//1 5//1 7//1
f 7//2 5//2 3//2
f 5//1 2//1 8//1
f 8//2 2//2 5//2
f 7//1 5//1 9//1
f 9//2 5//2 7//2
f 5//1 8//1 10//1
f 10//2 8//2 5//2
f 11//1 10//1 8//1
f 8//2 10//2 11//2
f 10//1 11//1 12//1
f 12//2 11//2 10//2
