# SSTK version 0.8.0
# 91
mtllib original-91.mtl
o __1_2/__2/mesh70/mesh70-geometry#mesh70-geometry
v 0.444167 -0.120232 -0.007256
v 0.438630 -0.120232 -0.005502
v 0.438630 -0.120232 -0.007256
v 0.444167 -0.120232 -0.005502
v 0.438630 -0.120232 0.000035
v 0.438630 -0.120232 -0.012792
v 0.436811 -0.120232 0.000035
v 0.436811 -0.120232 -0.005502
v 0.436811 -0.120232 -0.007256
v 0.436811 -0.120232 -0.012792
v 0.431274 -0.120232 -0.005502
v 0.431274 -0.120232 -0.007256
vn 0 -1 0
vn 0 1 0
usemtl material_0_0
f 1//1 2//1 3//1
f 2//1 1//1 4//1
f 3//2 2//2 1//2
f 4//2 1//2 2//2
f 5//1 3//1 2//1
f 2//2 3//2 5//2
f 5//1 6//1 3//1
f 3//2 6//2 5//2
f 7//1 6//1 5//1
f 5//2 6//2 7//2
f 8//1 6//1 7//1
f 7//2 6//2 8//2
f 9//1 6//1 8//1
f 8//2 6//2 9//2
f 6//1 9//1 10//1
f 10//2 9//2 6//2
f 11//1 9//1 8//1
f 8//2 9//2 11//2
f 9//1 11//1 12//1
f 12//2 11//2 9//2
