# SSTK version 0.8.0
# 235
mtllib original-235.mtl
o mesh182/mesh182-geometry#mesh182-geometry
v -0.593502 -0.120232 0.151285
v -0.593354 -0.120232 0.153191
v -0.593385 -0.120232 0.153724
v -0.593099 -0.120232 0.150997
v -0.593650 -0.120232 0.156023
v -0.593261 -0.120232 0.152729
v -0.593903 -0.120232 0.151735
v -0.593237 -0.120232 0.156372
v -0.593106 -0.120232 0.152340
v -0.593986 -0.120232 0.155580
v -0.593354 -0.120232 0.154257
v -0.592889 -0.120232 0.152022
v -0.594189 -0.120232 0.152291
v -0.593261 -0.120232 0.154719
v -0.592654 -0.120232 0.150792
v -0.594226 -0.120232 0.155049
v -0.593106 -0.120232 0.155110
v -0.592624 -0.120232 0.151775
v -0.594360 -0.120232 0.152954
v -0.592764 -0.120232 0.156621
v -0.592167 -0.120232 0.150668
v -0.594369 -0.120232 0.154430
v -0.592889 -0.120232 0.155429
v -0.592328 -0.120232 0.151599
v -0.594417 -0.120232 0.153724
v -0.592624 -0.120232 0.155676
v -0.591999 -0.120232 0.151494
v -0.592231 -0.120232 0.156771
v -0.591639 -0.120232 0.150627
v -0.592328 -0.120232 0.155853
v -0.591639 -0.120232 0.151458
v -0.591999 -0.120232 0.155959
v -0.591056 -0.120232 0.150677
v -0.591639 -0.120232 0.156821
v -0.591283 -0.120232 0.151494
v -0.591639 -0.120232 0.155995
v -0.590957 -0.120232 0.151600
v -0.591280 -0.120232 0.155959
v -0.590528 -0.120232 0.150827
v -0.590893 -0.120232 0.156730
v -0.590662 -0.120232 0.151777
v -0.590954 -0.120232 0.155853
v -0.590397 -0.120232 0.152025
v -0.590658 -0.120232 0.155675
v -0.590057 -0.120232 0.151077
v -0.590207 -0.120232 0.156458
v -0.590179 -0.120232 0.152341
v -0.590394 -0.120232 0.155426
v -0.590023 -0.120232 0.152724
v -0.590177 -0.120232 0.155104
v -0.589641 -0.120232 0.151428
v -0.589630 -0.120232 0.156022
v -0.589929 -0.120232 0.153174
v -0.590022 -0.120232 0.154707
v -0.589898 -0.120232 0.153690
v -0.589929 -0.120232 0.154236
v -0.589302 -0.120232 0.151866
v -0.589209 -0.120232 0.155440
v -0.589059 -0.120232 0.152381
v -0.588951 -0.120232 0.154662
v -0.588914 -0.120232 0.152972
v -0.588865 -0.120232 0.153640
vn 0 -1 0
vn 0 1 0
usemtl material_0_0
f 1//1 2//1 3//1
f 2//1 1//1 4//1
f 3//2 2//2 1//2
f 4//2 1//2 2//2
f 5//1 1//1 3//1
f 3//2 1//2 5//2
f 2//1 4//1 6//1
f 6//2 4//2 2//2
f 5//1 7//1 1//1
f 1//2 7//2 5//2
f 5//1 3//1 8//1
f 8//2 3//2 5//2
f 6//1 4//1 9//1
f 9//2 4//2 6//2
f 10//1 7//1 5//1
f 5//2 7//2 10//2
f 8//1 3//1 11//1
f 11//2 3//2 8//2
f 9//1 4//1 12//1
f 12//2 4//2 9//2
f 10//1 13//1 7//1
f 7//2 13//2 10//2
f 8//1 11//1 14//1
f 14//2 11//2 8//2
f 12//1 4//1 15//1
f 15//2 4//2 12//2
f 16//1 13//1 10//1
f 10//2 13//2 16//2
f 8//1 14//1 17//1
f 17//2 14//2 8//2
f 12//1 15//1 18//1
f 18//2 15//2 12//2
f 16//1 19//1 13//1
f 13//2 19//2 16//2
f 8//1 17//1 20//1
f 20//2 17//2 8//2
f 18//1 15//1 21//1
f 21//2 15//2 18//2
f 22//1 19//1 16//1
f 16//2 19//2 22//2
f 20//1 17//1 23//1
f 23//2 17//2 20//2
f 18//1 21//1 24//1
f 24//2 21//2 18//2
f 19//1 22//1 25//1
f 25//2 22//2 19//2
f 20//1 23//1 26//1
f 26//2 23//2 20//2
f 24//1 21//1 27//1
f 27//2 21//2 24//2
f 20//1 26//1 28//1
f 28//2 26//2 20//2
f 27//1 21//1 29//1
f 29//2 21//2 27//2
f 28//1 26//1 30//1
f 30//2 26//2 28//2
f 27//1 29//1 31//1
f 31//2 29//2 27//2
f 28//1 30//1 32//1
f 32//2 30//2 28//2
f 31//1 29//1 33//1
f 33//2 29//2 31//2
f 28//1 32//1 34//1
f 34//2 32//2 28//2
f 31//1 33//1 35//1
f 35//2 33//2 31//2
f 34//1 32//1 36//1
f 36//2 32//2 34//2
f 35//1 33//1 37//1
f 37//2 33//2 35//2
f 34//1 36//1 38//1
f 38//2 36//2 34//2
f 37//1 33//1 39//1
f 39//2 33//2 37//2
f 34//1 38//1 40//1
f 40//2 38//2 34//2
f 37//1 39//1 41//1
f 41//2 39//2 37//2
f 40//1 38//1 42//1
f 42//2 38//2 40//2
f 41//1 39//1 43//1
f 43//2 39//2 41//2
f 40//1 42//1 44//1
f 44//2 42//2 40//2
f 43//1 39//1 45//1
f 45//2 39//2 43//2
f 40//1 44//1 46//1
f 46//2 44//2 40//2
f 43//1 45//1 47//1
f 47//2 45//2 43//2
f 46//1 44//1 48//1
f 48//2 44//2 46//2
f 47//1 45//1 49//1
f 49//2 45//2 47//2
f 46//1 48//1 50//1
f 50//2 48//2 46//2
f 49//1 45//1 51//1
f 51//2 45//2 49//2
f 46//1 50//1 52//1
f 52//2 50//2 46//2
f 49//1 51//1 53//1
f 53//2 51//2 49//2
f 52//1 50//1 54//1
f 54//2 50//2 52//2
f 53//1 51//1 55//1
f 55//2 51//2 53//2
f 52//1 54//1 56//1
f 56//2 54//2 52//2
f 52//1 55//1 51//1
f 51//2 55//2 52//2
f 52//1 56//1 55//1
f 55//2 56//2 52//2
f 52//1 51//1 57//1
f 57//2 51//2 52//2
f 52//1 57//1 58//1
f 58//2 57//2 52//2
f 58//1 57//1 59//1
f 59//2 57//2 58//2
f 58//1 59//1 60//1
f 60//2 59//2 58//2
f 60//1 59//1 61//1
f 61//2 59//2 60//2
f 60//1 61//1 62//1
f 62//2 61//2 60//2
