# SSTK version 0.8.0
# 132
mtllib original-132.mtl
o mesh97/mesh97-geometry#mesh97-geometry
v -0.314992 -0.120232 0.012020
v -0.313161 -0.120232 0.013680
v -0.314992 -0.120232 0.019295
v -0.307242 -0.120232 0.012020
v -0.313749 -0.120232 0.019073
v -0.307242 -0.120232 0.013680
v -0.313161 -0.120232 0.017436
v -0.312203 -0.120232 0.018954
v -0.312488 -0.120232 0.017379
v -0.311881 -0.120232 0.017360
v -0.310880 -0.120232 0.019101
v -0.310050 -0.120232 0.017541
v -0.310333 -0.120232 0.019301
v -0.309879 -0.120232 0.019608
v -0.309315 -0.120232 0.017806
v -0.309537 -0.120232 0.019964
v -0.309286 -0.120232 0.020405
v -0.308608 -0.120232 0.018243
v -0.309133 -0.120232 0.020955
v -0.309083 -0.120232 0.021638
v -0.309069 -0.120232 0.025629
v -0.308400 -0.120232 0.025053
v -0.309267 -0.120232 0.022957
v -0.307988 -0.120232 0.018840
v -0.309803 -0.120232 0.023934
v -0.307877 -0.120232 0.024358
v -0.309884 -0.120232 0.026068
v -0.307532 -0.120232 0.019571
v -0.310230 -0.120232 0.024326
v -0.307484 -0.120232 0.023545
v -0.310733 -0.120232 0.024593
v -0.307251 -0.120232 0.020488
v -0.310824 -0.120232 0.026346
v -0.307239 -0.120232 0.022634
v -0.311843 -0.120232 0.024797
v -0.307157 -0.120232 0.021648
v -0.311871 -0.120232 0.026438
v -0.312878 -0.120232 0.026382
v -0.312886 -0.120232 0.024688
v -0.313868 -0.120232 0.026215
v -0.313911 -0.120232 0.024380
v -0.314812 -0.120232 0.023996
v -0.315438 -0.120232 0.023630
v -0.315571 -0.120232 0.025632
v -0.315571 -0.120232 0.023630
vn 0 -1 0
vn 0 1 0
usemtl material_0_0
f 1//1 2//1 3//1
f 2//1 1//1 4//1
f 3//2 2//2 1//2
f 4//2 1//2 2//2
f 3//1 2//1 5//1
f 5//2 2//2 3//2
f 2//1 4//1 6//1
f 6//2 4//2 2//2
f 7//1 5//1 2//1
f 2//2 5//2 7//2
f 5//1 7//1 8//1
f 8//2 7//2 5//2
f 8//1 7//1 9//1
f 9//2 7//2 8//2
f 8//1 9//1 10//1
f 10//2 9//2 8//2
f 8//1 10//1 11//1
f 11//2 10//2 8//2
f 11//1 10//1 12//1
f 12//2 10//2 11//2
f 11//1 12//1 13//1
f 13//2 12//2 11//2
f 13//1 12//1 14//1
f 14//2 12//2 13//2
f 14//1 12//1 15//1
f 15//2 12//2 14//2
f 14//1 15//1 16//1
f 16//2 15//2 14//2
f 16//1 15//1 17//1
f 17//2 15//2 16//2
f 17//1 15//1 18//1
f 18//2 15//2 17//2
f 17//1 18//1 19//1
f 19//2 18//2 17//2
f 19//1 18//1 20//1
f 20//2 18//2 19//2
f 20//1 18//1 21//1
f 21//2 18//2 20//2
f 21//1 18//1 22//1
f 22//2 18//2 21//2
f 21//1 23//1 20//1
f 20//2 23//2 21//2
f 22//1 18//1 24//1
f 24//2 18//2 22//2
f 21//1 25//1 23//1
f 23//2 25//2 21//2
f 22//1 24//1 26//1
f 26//2 24//2 22//2
f 27//1 25//1 21//1
f 21//2 25//2 27//2
f 26//1 24//1 28//1
f 28//2 24//2 26//2
f 27//1 29//1 25//1
f 25//2 29//2 27//2
f 26//1 28//1 30//1
f 30//2 28//2 26//2
f 27//1 31//1 29//1
f 29//2 31//2 27//2
f 30//1 28//1 32//1
f 32//2 28//2 30//2
f 33//1 31//1 27//1
f 27//2 31//2 33//2
f 30//1 32//1 34//1
f 34//2 32//2 30//2
f 33//1 35//1 31//1
f 31//2 35//2 33//2
f 34//1 32//1 36//1
f 36//2 32//2 34//2
f 37//1 35//1 33//1
f 33//2 35//2 37//2
f 38//1 35//1 37//1
f 37//2 35//2 38//2
f 38//1 39//1 35//1
f 35//2 39//2 38//2
f 40//1 39//1 38//1
f 38//2 39//2 40//2
f 40//1 41//1 39//1
f 39//2 41//2 40//2
f 40//1 42//1 41//1
f 41//2 42//2 40//2
f 40//1 43//1 42//1
f 42//2 43//2 40//2
f 44//1 43//1 40//1
f 40//2 43//2 44//2
f 43//1 44//1 45//1
f 45//2 44//2 43//2
