# SSTK version 0.8.0
# 297
mtllib original-297.mtl
o mesh227/mesh227-geometry#mesh227-geometry
v 0.433239 -0.120232 0.287445
v 0.433198 -0.120232 0.291476
v 0.433113 -0.120232 0.289661
v 0.433455 -0.120232 0.293019
v 0.433618 -0.120232 0.285708
v 0.433883 -0.120232 0.294291
v 0.434246 -0.120232 0.284382
v 0.434482 -0.120232 0.295291
v 0.435120 -0.120232 0.283399
v 0.434915 -0.120232 0.288090
v 0.435080 -0.120232 0.286787
v 0.434860 -0.120232 0.289661
v 0.435354 -0.120232 0.285753
v 0.434910 -0.120232 0.291223
v 0.435650 -0.120232 0.283044
v 0.435107 -0.120232 0.295919
v 0.435739 -0.120232 0.284986
v 0.435060 -0.120232 0.292501
v 0.436245 -0.120232 0.282790
v 0.435309 -0.120232 0.293493
v 0.436118 -0.120232 0.284552
v 0.435840 -0.120232 0.296367
v 0.436556 -0.120232 0.284242
v 0.435658 -0.120232 0.294200
v 0.436904 -0.120232 0.282637
v 0.436081 -0.120232 0.294693
v 0.437053 -0.120232 0.284056
v 0.436680 -0.120232 0.296637
v 0.437628 -0.120232 0.282587
v 0.436550 -0.120232 0.295046
v 0.437609 -0.120232 0.283994
v 0.437065 -0.120232 0.295258
v 0.438179 -0.120232 0.284064
v 0.437628 -0.120232 0.296726
v 0.438674 -0.120232 0.282699
v 0.437628 -0.120232 0.295328
v 0.438701 -0.120232 0.284275
v 0.438190 -0.120232 0.295258
v 0.439583 -0.120232 0.283035
v 0.438355 -0.120232 0.296675
v 0.439173 -0.120232 0.284626
v 0.438706 -0.120232 0.295045
v 0.439597 -0.120232 0.285118
v 0.439017 -0.120232 0.296522
v 0.440350 -0.120232 0.283583
v 0.439175 -0.120232 0.294691
v 0.439946 -0.120232 0.285823
v 0.439614 -0.120232 0.296267
v 0.440196 -0.120232 0.286816
v 0.439597 -0.120232 0.294195
v 0.440345 -0.120232 0.288095
v 0.439946 -0.120232 0.293487
v 0.440395 -0.120232 0.289661
v 0.440145 -0.120232 0.295909
v 0.440971 -0.120232 0.284329
v 0.440196 -0.120232 0.292495
v 0.441017 -0.120232 0.294922
v 0.440345 -0.120232 0.291220
v 0.441460 -0.120232 0.285267
v 0.441642 -0.120232 0.293595
v 0.441831 -0.120232 0.286388
v 0.442017 -0.120232 0.291863
v 0.442065 -0.120232 0.287813
v 0.442142 -0.120232 0.289661
vn 0 -1 0
vn 0 1 0
usemtl material_0_0
f 1//1 2//1 3//1
f 2//1 1//1 4//1
f 3//2 2//2 1//2
f 4//2 1//2 2//2
f 4//1 1//1 5//1
f 5//2 1//2 4//2
f 4//1 5//1 6//1
f 6//2 5//2 4//2
f 6//1 5//1 7//1
f 7//2 5//2 6//2
f 6//1 7//1 8//1
f 8//2 7//2 6//2
f 8//1 7//1 9//1
f 9//2 7//2 8//2
f 8//1 9//1 10//1
f 10//2 9//2 8//2
f 10//1 9//1 11//1
f 11//2 9//2 10//2
f 8//1 10//1 12//1
f 12//2 10//2 8//2
f 11//1 9//1 13//1
f 13//2 9//2 11//2
f 14//1 8//1 12//1
f 12//2 8//2 14//2
f 13//1 9//1 15//1
f 15//2 9//2 13//2
f 8//1 14//1 16//1
f 16//2 14//2 8//2
f 13//1 15//1 17//1
f 17//2 15//2 13//2
f 16//1 14//1 18//1
f 18//2 14//2 16//2
f 17//1 15//1 19//1
f 19//2 15//2 17//2
f 16//1 18//1 20//1
f 20//2 18//2 16//2
f 17//1 19//1 21//1
f 21//2 19//2 17//2
f 16//1 20//1 22//1
f 22//2 20//2 16//2
f 21//1 19//1 23//1
f 23//2 19//2 21//2
f 22//1 20//1 24//1
f 24//2 20//2 22//2
f 23//1 19//1 25//1
f 25//2 19//2 23//2
f 22//1 24//1 26//1
f 26//2 24//2 22//2
f 23//1 25//1 27//1
f 27//2 25//2 23//2
f 22//1 26//1 28//1
f 28//2 26//2 22//2
f 27//1 25//1 29//1
f 29//2 25//2 27//2
f 28//1 26//1 30//1
f 30//2 26//2 28//2
f 27//1 29//1 31//1
f 31//2 29//2 27//2
f 28//1 30//1 32//1
f 32//2 30//2 28//2
f 31//1 29//1 33//1
f 33//2 29//2 31//2
f 28//1 32//1 34//1
f 34//2 32//2 28//2
f 33//1 29//1 35//1
f 35//2 29//2 33//2
f 34//1 32//1 36//1
f 36//2 32//2 34//2
f 33//1 35//1 37//1
f 37//2 35//2 33//2
f 34//1 36//1 38//1
f 38//2 36//2 34//2
f 37//1 35//1 39//1
f 39//2 35//2 37//2
f 34//1 38//1 40//1
f 40//2 38//2 34//2
f 37//1 39//1 41//1
f 41//2 39//2 37//2
f 40//1 38//1 42//1
f 42//2 38//2 40//2
f 41//1 39//1 43//1
f 43//2 39//2 41//2
f 40//1 42//1 44//1
f 44//2 42//2 40//2
f 43//1 39//1 45//1
f 45//2 39//2 43//2
f 44//1 42//1 46//1
f 46//2 42//2 44//2
f 43//1 45//1 47//1
f 47//2 45//2 43//2
f 44//1 46//1 48//1
f 48//2 46//2 44//2
f 47//1 45//1 49//1
f 49//2 45//2 47//2
f 48//1 46//1 50//1
f 50//2 46//2 48//2
f 49//1 45//1 51//1
f 51//2 45//2 49//2
f 48//1 50//1 52//1
f 52//2 50//2 48//2
f 51//1 45//1 53//1
f 53//2 45//2 51//2
f 48//1 52//1 54//1
f 54//2 52//2 48//2
f 53//1 45//1 55//1
f 55//2 45//2 53//2
f 54//1 52//1 56//1
f 56//2 52//2 54//2
f 57//1 53//1 55//1
f 55//2 53//2 57//2
f 54//1 56//1 57//1
f 57//2 56//2 54//2
f 57//1 58//1 53//1
f 53//2 58//2 57//2
f 57//1 55//1 59//1
f 59//2 55//2 57//2
f 57//1 56//1 58//1
f 58//2 56//2 57//2
f 57//1 59//1 60//1
f 60//2 59//2 57//2
f 60//1 59//1 61//1
f 61//2 59//2 60//2
f 60//1 61//1 62//1
f 62//2 61//2 60//2
f 62//1 61//1 63//1
f 63//2 61//2 62//2
f 62//1 63//1 64//1
f 64//2 63//2 62//2
