# SSTK version 0.8.0
# 166
mtllib original-166.mtl
o O1/O/mesh125/mesh125-geometry#mesh125-geometry
v -0.006100 -0.120232 0.063412
v -0.005934 -0.120232 0.068651
v -0.006050 -0.120232 0.070563
v -0.004791 -0.120232 0.062287
v -0.006202 -0.120232 0.077009
v -0.005588 -0.120232 0.067033
v -0.006909 -0.120232 0.076102
v -0.005939 -0.120232 0.072125
v -0.005010 -0.120232 0.065710
v -0.007167 -0.120232 0.064820
v -0.005372 -0.120232 0.077801
v -0.004201 -0.120232 0.064682
v -0.007494 -0.120232 0.075082
v -0.005606 -0.120232 0.073512
v -0.003305 -0.120232 0.061484
v -0.007929 -0.120232 0.066476
v -0.005052 -0.120232 0.074724
v -0.003232 -0.120232 0.063911
v -0.008278 -0.120232 0.072866
v -0.004419 -0.120232 0.078481
v -0.001642 -0.120232 0.061002
v -0.008387 -0.120232 0.068378
v -0.004276 -0.120232 0.075761
v -0.002174 -0.120232 0.063360
v -0.008539 -0.120232 0.070526
v -0.003370 -0.120232 0.079025
v -0.001026 -0.120232 0.063030
v -0.003333 -0.120232 0.076591
v 0.000199 -0.120232 0.060841
v -0.002253 -0.120232 0.079414
v 0.000212 -0.120232 0.062920
v -0.002276 -0.120232 0.077184
v 0.001432 -0.120232 0.060917
v -0.001107 -0.120232 0.077540
v 0.001928 -0.120232 0.063149
v -0.001067 -0.120232 0.079648
v 0.002602 -0.120232 0.061143
v 0.000174 -0.120232 0.077659
v 0.003467 -0.120232 0.063835
v 0.000187 -0.120232 0.079725
v 0.003710 -0.120232 0.061520
v 0.001477 -0.120232 0.077539
v 0.004743 -0.120232 0.064937
v 0.001355 -0.120232 0.079655
v 0.004755 -0.120232 0.062049
v 0.002484 -0.120232 0.079444
v 0.005670 -0.120232 0.066412
v 0.002659 -0.120232 0.077180
v 0.005710 -0.120232 0.062712
v 0.003571 -0.120232 0.079092
v 0.006235 -0.120232 0.068215
v 0.003721 -0.120232 0.076581
v 0.006543 -0.120232 0.063494
v 0.004618 -0.120232 0.078599
v 0.006423 -0.120232 0.070302
v 0.004662 -0.120232 0.075742
v 0.006439 -0.120232 0.077206
v 0.005587 -0.120232 0.077969
v 0.007174 -0.120232 0.076310
v 0.006313 -0.120232 0.071963
v 0.005433 -0.120232 0.074683
v 0.007256 -0.120232 0.064396
v 0.005983 -0.120232 0.073423
v 0.007793 -0.120232 0.075281
v 0.007849 -0.120232 0.065416
v 0.008283 -0.120232 0.074149
v 0.008314 -0.120232 0.066532
v 0.008633 -0.120232 0.072944
v 0.008647 -0.120232 0.067721
v 0.008843 -0.120232 0.071666
v 0.008847 -0.120232 0.068981
v 0.008913 -0.120232 0.070314
vn 0 -1 0
vn 0 1 0
usemtl material_0_0
f 1//1 2//1 3//1
f 2//1 1//1 4//1
f 3//2 2//2 1//2
f 4//2 1//2 2//2
f 5//1 1//1 3//1
f 3//2 1//2 5//2
f 2//1 4//1 6//1
f 6//2 4//2 2//2
f 7//1 1//1 5//1
f 5//2 1//2 7//2
f 5//1 3//1 8//1
f 8//2 3//2 5//2
f 6//1 4//1 9//1
f 9//2 4//2 6//2
f 7//1 10//1 1//1
f 1//2 10//2 7//2
f 5//1 8//1 11//1
f 11//2 8//2 5//2
f 9//1 4//1 12//1
f 12//2 4//2 9//2
f 13//1 10//1 7//1
f 7//2 10//2 13//2
f 11//1 8//1 14//1
f 14//2 8//2 11//2
f 12//1 4//1 15//1
f 15//2 4//2 12//2
f 13//1 16//1 10//1
f 10//2 16//2 13//2
f 11//1 14//1 17//1
f 17//2 14//2 11//2
f 12//1 15//1 18//1
f 18//2 15//2 12//2
f 19//1 16//1 13//1
f 13//2 16//2 19//2
f 11//1 17//1 20//1
f 20//2 17//2 11//2
f 18//1 15//1 21//1
f 21//2 15//2 18//2
f 19//1 22//1 16//1
f 16//2 22//2 19//2
f 20//1 17//1 23//1
f 23//2 17//2 20//2
f 18//1 21//1 24//1
f 24//2 21//2 18//2
f 22//1 19//1 25//1
f 25//2 19//2 22//2
f 20//1 23//1 26//1
f 26//2 23//2 20//2
f 24//1 21//1 27//1
f 27//2 21//2 24//2
f 26//1 23//1 28//1
f 28//2 23//2 26//2
f 27//1 21//1 29//1
f 29//2 21//2 27//2
f 26//1 28//1 30//1
f 30//2 28//2 26//2
f 27//1 29//1 31//1
f 31//2 29//2 27//2
f 30//1 28//1 32//1
f 32//2 28//2 30//2
f 31//1 29//1 33//1
f 33//2 29//2 31//2
f 30//1 32//1 34//1
f 34//2 32//2 30//2
f 31//1 33//1 35//1
f 35//2 33//2 31//2
f 30//1 34//1 36//1
f 36//2 34//2 30//2
f 35//1 33//1 37//1
f 37//2 33//2 35//2
f 36//1 34//1 38//1
f 38//2 34//2 36//2
f 35//1 37//1 39//1
f 39//2 37//2 35//2
f 36//1 38//1 40//1
f 40//2 38//2 36//2
f 39//1 37//1 41//1
f 41//2 37//2 39//2
f 40//1 38//1 42//1
f 42//2 38//2 40//2
f 39//1 41//1 43//1
f 43//2 41//2 39//2
f 40//1 42//1 44//1
f 44//2 42//2 40//2
f 43//1 41//1 45//1
f 45//2 41//2 43//2
f 44//1 42//1 46//1
f 46//2 42//2 44//2
f 43//1 45//1 47//1
f 47//2 45//2 43//2
f 46//1 42//1 48//1
f 48//2 42//2 46//2
f 47//1 45//1 49//1
f 49//2 45//2 47//2
f 46//1 48//1 50//1
f 50//2 48//2 46//2
f 47//1 49//1 51//1
f 51//2 49//2 47//2
f 50//1 48//1 52//1
f 52//2 48//2 50//2
f 51//1 49//1 53//1
f 53//2 49//2 51//2
f 50//1 52//1 54//1
f 54//2 52//2 50//2
f 51//1 53//1 55//1
f 55//2 53//2 51//2
f 54//1 52//1 56//1
f 56//2 52//2 54//2
f 55//1 53//1 57//1
f 57//2 53//2 55//2
f 54//1 56//1 58//1
f 58//2 56//2 54//2
f 57//1 53//1 59//1
f 59//2 53//2 57//2
f 57//1 60//1 55//1
f 55//2 60//2 57//2
f 58//1 56//1 61//1
f 61//2 56//2 58//2
f 59//1 53//1 62//1
f 62//2 53//2 59//2
f 57//1 63//1 60//1
f 60//2 63//2 57//2
f 58//1 61//1 63//1
f 63//2 61//2 58//2
f 59//1 62//1 64//1
f 64//2 62//2 59//2
f 58//1 63//1 57//1
f 57//2 63//2 58//2
f 64//1 62//1 65//1
f 65//2 62//2 64//2
f 64//1 65//1 66//1
f 66//2 65//2 64//2
f 66//1 65//1 67//1
f 67//2 65//2 66//2
f 66//1 67//1 68//1
f 68//2 67//2 66//2
f 68//1 67//1 69//1
f 69//2 67//2 68//2
f 68//1 69//1 70//1
f 70//2 69//2 68//2
f 70//1 69//1 71//1
f 71//2 69//2 70//2
f 70//1 71//1 72//1
f 72//2 71//2 70//2
