# SSTK version 0.8.0
# 5
mtllib original-5.mtl
o mesh5/mesh5-geometry#mesh5-geometry
v 0.007652 -0.155683 0.494104
v 0.001124 -0.155685 0.494101
v 0.004388 -0.169483 0.503765
v 0.004391 -0.159703 0.488362
v 0.004391 -0.173502 0.498024
vn -0.0004900002019217749 0.573577236362624 0.8191513375600487
vn 0.0004900002019217749 -0.573577236362624 -0.8191513375600487
vn 0.000010000000425375029 0.819160034845021 -0.5735650243980226
vn -0.000010000000425375029 -0.819160034845021 0.5735650243980226
vn -0.9727344490901985 -0.1956920903467537 -0.12446805746417712
vn -0.8926331742714696 -0.38046707427973553 -0.24176604720071543
vn 0.8926331742714696 0.38046707427973553 0.24176604720071543
vn 0.9727344490901985 0.1956920903467537 0.12446805746417712
vn 0.9713288621849567 -0.20442497099557383 -0.12136998277966399
vn 0.9817408960817499 -0.15553898353604395 0.1095099884082588
vn -0.9713288621849567 0.20442497099557383 0.12136998277966399
vn -0.9817408960817499 0.15553898353604395 -0.1095099884082588
vn 0.906712520317922 -0.24190387202453978 -0.3454778172303641
vn -0.906712520317922 0.24190387202453978 0.3454778172303641
vn -0.9999998747655235 -0.0002869999640577051 -0.0004099999486538647
vn 0.9999998747655235 0.0002869999640577051 0.0004099999486538647
usemtl material_0_0
f 1//1 2//1 3//1
f 3//2 2//2 1//2
f 1//3 4//3 2//3
f 2//4 4//4 1//4
f 4//5 3//5 2//6
f 2//7 3//8 4//8
f 1//9 3//10 5//9
f 5//11 3//12 1//11
f 4//13 1//9 5//9
f 5//11 1//11 4//14
f 4//5 5//15 3//5
f 3//8 5//16 4//8
