# SSTK version 0.8.0
# 25
mtllib original-25.mtl
o mesh25/mesh25-geometry#mesh25-geometry
v -0.120333 -0.216111 0.407805
v -0.120336 -0.212092 0.413545
v -0.120333 -0.229910 0.417467
v -0.120336 -0.225891 0.423208
vn 0.9999998747655235 0.0002869999640577051 0.0004099999486538647
vn -0.9999998747655235 -0.0002869999640577051 -0.0004099999486538647
usemtl material_0_0
f 1//1 2//1 3//1
f 3//2 2//2 1//2
f 1//2 4//2 2//2
f 2//1 4//1 1//1
f 2//1 4//1 3//1
f 3//2 4//2 2//2
f 1//2 3//2 4//2
f 4//1 3//1 1//1
