# SSTK version 0.8.0
# 10
mtllib original-10.mtl
o mesh10/mesh10-geometry#mesh10-geometry
v 0.124218 -0.215085 0.409274
v 0.124215 -0.211065 0.415015
v 0.124218 -0.228884 0.418936
v 0.124215 -0.224864 0.424677
vn 0.9999998747655235 0.0002869999640577051 0.0004099999486538647
vn -0.9999998747655235 -0.0002869999640577051 -0.0004099999486538647
usemtl material_0_0
f 1//1 2//1 3//1
f 3//2 2//2 1//2
f 1//2 4//2 2//2
f 2//1 4//1 1//1
f 2//1 4//1 3//1
f 3//2 4//2 2//2
f 1//2 3//2 4//2
f 4//1 3//1 1//1
