# SSTK version 0.8.0
# 34
mtllib original-34.mtl
o mesh34/mesh34-geometry#mesh34-geometry
v -0.094854 -0.292781 0.298309
v -0.094858 -0.288761 0.304050
v -0.094854 -0.306580 0.307971
v -0.094858 -0.302560 0.313712
vn 0.9999998747655235 0.0002869999640577051 0.0004099999486538647
vn -0.9999998747655235 -0.0002869999640577051 -0.0004099999486538647
usemtl material_0_0
f 1//1 2//1 3//1
f 3//2 2//2 1//2
f 1//2 4//2 2//2
f 2//1 4//1 1//1
f 2//1 4//1 3//1
f 3//2 4//2 2//2
f 1//2 3//2 4//2
f 4//1 3//1 1//1
