# SSTK version 0.8.0
# 116
mtllib original-116.mtl
o #ID251
v -0.151855 0.231171 0.179305
v -0.153014 0.262804 0.181179
v -0.153014 0.230789 0.181179
v -0.151855 0.262804 0.179305
v -0.151855 0.262804 0.179305
v -0.151855 0.231171 0.179305
v -0.153014 0.262804 0.181179
v -0.153014 0.230789 0.181179
v -0.153014 0.208636 0.167986
v -0.151855 0.209017 0.166112
v -0.151855 0.209017 0.166112
v -0.153014 0.208636 0.167986
v -0.153014 0.231552 0.177431
v -0.153014 0.262804 0.177431
v -0.153014 0.262804 0.177431
v -0.153014 0.231552 0.177431
v -0.154889 0.230935 0.180463
v -0.154889 0.262804 0.180463
v -0.154889 0.262804 0.180463
v -0.154889 0.230935 0.180463
v -0.151855 0.188772 0.166112
v -0.153014 0.188772 0.167986
v -0.151855 0.188772 0.166112
v -0.153014 0.188772 0.167986
v -0.153014 0.209398 0.164238
v -0.153014 0.209398 0.164238
v -0.154889 0.208781 0.167270
v -0.154889 0.208781 0.167270
v -0.154889 0.262804 0.178147
v -0.154889 0.231406 0.178147
v -0.154889 0.262804 0.178147
v -0.154889 0.231406 0.178147
v -0.154889 0.209253 0.164953
v -0.154889 0.188772 0.167270
v -0.154889 0.188772 0.164953
v -0.154889 0.188772 0.164953
v -0.154889 0.209253 0.164953
v -0.154889 0.188772 0.167270
v -0.153014 0.188772 0.164238
v -0.153014 0.188772 0.164238
vn 0.9972800234158953 -0.019923377255824107 0.0709620598229333
vn 0.1596669289317729 -0.8941350498635986 0.41836465482987006
vn 0.33005998435277994 -0.2551611554258569 0.908819669401353
vn 0.5003369780357976 -0.865830761991052 0
vn -0.5003369780357976 0.865830761991052 0
vn -0.9972800234158953 0.019923377255824107 -0.0709620598229333
vn -0.1596669289317729 0.8941350498635986 -0.41836465482987006
vn -0.33005998435277994 0.2551611554258569 -0.908819669401353
vn 0.3886164265851167 -0.24906287124743637 0.8870991822531445
vn 0.9972800234158955 0.019923377255824028 -0.07096205982293041
vn -0.9972800234158955 -0.019923377255824028 0.07096205982293041
vn -0.3886164265851167 0.24906287124743637 -0.8870991822531445
vn 0.38861642658511925 0.2490628712474363 -0.8870991822531434
vn 0.1596669289317741 -0.8941350498635986 -0.41836465482986945
vn -0.1596669289317741 0.8941350498635986 0.41836465482986945
vn -0.38861642658511925 -0.2490628712474363 0.8870991822531434
vn -0.8156311112093054 -0.15639346057317677 0.557034088649357
vn -0.40968568519967813 -0.8763217565370149 0.25341234848039856
vn 0.40968568519967813 0.8763217565370149 -0.25341234848039856
vn 0.8156311112093054 0.15639346057317677 -0.557034088649357
vn 0.8032113110998462 -0.5956942082320978 0
vn 0.2709079976260015 -0.6501792379609971 0.7098421059268937
vn -0.8032113110998462 0.5956942082320978 0
vn -0.2709079976260015 0.6501792379609971 -0.7098421059268937
vn 0.3300599843527826 0.2551611554258569 -0.908819669401352
vn -0.3300599843527826 -0.2551611554258569 0.908819669401352
vn -0.8853548006759504 -0.12567115849277868 0.44760879888931027
vn 0.8853548006759504 0.12567115849277868 -0.44760879888931027
vn -0.40968568519967735 -0.8763217565370149 -0.25341234848039973
vn -0.8853548006759491 0.12567115849277874 -0.44760879888931276
vn 0.40968568519967735 0.8763217565370149 0.25341234848039973
vn 0.8853548006759491 -0.12567115849277874 0.44760879888931276
vn -0.815631111209304 0.15639346057317688 -0.5570340886493594
vn -0.6707060068385569 -0.614848485590113 0.41486719821916795
vn -0.6707060068385556 -0.614848485590113 -0.4148671982191698
vn 0.6707060068385556 0.614848485590113 0.4148671982191698
vn 0.815631111209304 -0.15639346057317688 0.5570340886493594
vn 0.6707060068385569 0.614848485590113 -0.41486719821916795
vn 0.27090799762600354 -0.6501792379609971 -0.709842105926893
vn -0.27090799762600354 0.6501792379609971 0.709842105926893
usemtl material_0_0
f 1//1 2//2 3//3
f 2//2 1//1 4//4
f 5//5 6//6 7//7
f 8//8 7//7 6//6
f 9//9 1//1 3//3
f 1//1 9//9 10//10
f 11//11 12//12 6//6
f 8//8 6//6 12//12
f 13//13 4//4 1//1
f 4//4 13//13 14//14
f 15//15 16//16 5//5
f 6//6 5//5 16//16
f 2//2 17//17 3//3
f 17//17 2//2 18//18
f 19//19 7//7 20//20
f 8//8 20//20 7//7
f 21//21 9//9 22//22
f 9//9 21//21 10//10
f 11//11 23//23 12//12
f 24//24 12//12 23//23
f 10//10 13//13 1//1
f 13//13 10//10 25//25
f 26//26 11//11 16//16
f 6//6 16//16 11//11
f 3//3 27//27 9//9
f 27//27 3//3 17//17
f 20//20 8//8 28//28
f 12//12 28//28 8//8
f 29//29 13//13 30//30
f 13//13 29//29 14//14
f 15//15 31//31 16//16
f 32//32 16//16 31//31
f 29//29 17//17 18//18
f 17//17 29//29 30//30
f 17//17 30//30 27//27
f 27//27 30//30 33//33
f 27//27 33//33 34//34
f 34//34 33//33 35//35
f 36//36 37//37 38//38
f 38//38 37//37 28//28
f 37//37 32//32 28//28
f 28//28 32//32 20//20
f 32//32 31//31 20//20
f 19//19 20//20 31//31
f 39//39 34//34 35//35
f 34//34 39//39 22//22
f 22//22 39//39 21//21
f 23//23 40//40 24//24
f 24//24 40//40 38//38
f 36//36 38//38 40//40
f 39//39 10//10 21//21
f 10//10 39//39 25//25
f 26//26 40//40 11//11
f 23//23 11//11 40//40
f 9//9 34//34 22//22
f 34//34 9//9 27//27
f 28//28 12//12 38//38
f 24//24 38//38 12//12
f 30//30 25//25 33//33
f 25//25 30//30 13//13
f 16//16 32//32 26//26
f 37//37 26//26 32//32
f 33//33 39//39 35//35
f 39//39 33//33 25//25
f 26//26 37//37 40//40
f 36//36 40//40 37//37
