# SSTK version 0.8.0
# 285
mtllib original-285.mtl
o #ID689
v -0.259494 -0.166839 0.169403
v -0.261090 -0.116646 0.168042
v -0.261090 -0.167220 0.168042
v -0.259494 -0.116646 0.169403
v -0.259494 -0.116646 0.169403
v -0.259494 -0.166839 0.169403
v -0.261090 -0.116646 0.168042
v -0.261090 -0.167220 0.168042
v -0.249857 -0.189374 0.168042
v -0.248262 -0.188992 0.169403
v -0.248262 -0.188992 0.169403
v -0.249857 -0.189374 0.168042
v -0.257899 -0.166457 0.168042
v -0.257899 -0.116646 0.168042
v -0.257899 -0.116646 0.168042
v -0.257899 -0.166457 0.168042
v -0.260480 -0.167074 0.165839
v -0.260480 -0.116646 0.165839
v -0.260480 -0.116646 0.165839
v -0.260480 -0.167074 0.165839
v -0.248262 -0.220748 0.169403
v -0.249857 -0.220748 0.168042
v -0.248262 -0.220748 0.169403
v -0.249857 -0.220748 0.168042
v -0.246666 -0.188611 0.168042
v -0.246666 -0.188611 0.168042
v -0.249248 -0.189228 0.165839
v -0.249248 -0.189228 0.165839
v -0.258508 -0.116646 0.165839
v -0.258508 -0.166603 0.165839
v -0.258508 -0.116646 0.165839
v -0.258508 -0.166603 0.165839
v -0.247276 -0.188757 0.165839
v -0.249248 -0.220748 0.165839
v -0.247276 -0.220748 0.165839
v -0.247276 -0.220748 0.165839
v -0.247276 -0.188757 0.165839
v -0.249248 -0.220748 0.165839
v -0.246666 -0.220748 0.168042
v -0.246666 -0.220748 0.168042
vn -0.09767336980495588 -0.023346879190521946 0.9949446396976104
vn -0.4774216343560735 -0.8686926511359019 0.13206688044795353
vn -0.9422107512960173 -0.22521681744399902 0.2480247674781513
vn 0 -0.8972879413873834 0.44144575005405995
vn 0 0.8972879413873834 -0.44144575005405995
vn 0.09767336980495588 0.023346879190521946 -0.9949446396976104
vn 0.4774216343560735 0.8686926511359019 -0.13206688044795353
vn 0.9422107512960173 0.22521681744399902 -0.2480247674781513
vn -0.929294633057064 -0.22212945949745969 0.2950762413253618
vn 0.09767336980514736 0.023346879190521926 0.9949446396975914
vn -0.09767336980514736 -0.023346879190521926 -0.9949446396975914
vn 0.929294633057064 0.22212945949745969 -0.2950762413253618
vn 0.9292946330571072 0.22212945949745644 0.2950762413252283
vn 0.4774216343560972 -0.8686926511358988 0.13206688044788667
vn -0.4774216343560972 0.8686926511358988 -0.13206688044788667
vn -0.9292946330571072 -0.22212945949745644 -0.2950762413252283
vn -0.6767389205199545 -0.16176102486223454 -0.7182324166236207
vn -0.3009535104167588 -0.8860355621137326 -0.35265842856457
vn 0.3009535104167588 0.8860355621137326 0.35265842856457
vn 0.6767389205199545 0.16176102486223454 0.7182324166236207
vn 0 -0.6568457313895579 0.7540249897419293
vn -0.7704578955678145 -0.600808640267068 0.21312815144333086
vn 0 0.6568457313895579 -0.7540249897419293
vn 0.7704578955678145 0.600808640267068 -0.21312815144333086
vn 0.9422107512960534 0.22521681744399621 0.24802476747801713
vn -0.9422107512960534 -0.22521681744399621 -0.24802476747801713
vn -0.5668149077449252 -0.1354859269330552 -0.8126280969553064
vn 0.5668149077449252 0.1354859269330552 0.8126280969553064
vn 0.3009535104166923 -0.8860355621137376 -0.3526584285646138
vn 0.5668149077447824 0.1354859269330585 -0.8126280969554055
vn -0.3009535104166923 0.8860355621137376 0.3526584285646138
vn -0.5668149077447824 -0.1354859269330585 0.8126280969554055
vn 0.6767389205198335 0.16176102486223867 -0.7182324166237336
vn -0.5021925082621218 -0.6336437539678604 -0.5884711358281868
vn 0.5021925082620162 -0.6336437539678704 -0.5884711358282659
vn -0.5021925082620162 0.6336437539678704 0.5884711358282659
vn -0.6767389205198335 -0.16176102486223867 0.7182324166237336
vn 0.5021925082621218 0.6336437539678604 0.5884711358281868
vn 0.7704578955678489 -0.6008086402670628 0.2131281514432218
vn -0.7704578955678489 0.6008086402670628 -0.2131281514432218
usemtl material_0_0
f 1//1 2//2 3//3
f 2//2 1//1 4//4
f 5//5 6//6 7//7
f 8//8 7//7 6//6
f 9//9 1//1 3//3
f 1//1 9//9 10//10
f 11//11 12//12 6//6
f 8//8 6//6 12//12
f 13//13 4//4 1//1
f 4//4 13//13 14//14
f 15//15 16//16 5//5
f 6//6 5//5 16//16
f 2//2 17//17 3//3
f 17//17 2//2 18//18
f 19//19 7//7 20//20
f 8//8 20//20 7//7
f 21//21 9//9 22//22
f 9//9 21//21 10//10
f 11//11 23//23 12//12
f 24//24 12//12 23//23
f 10//10 13//13 1//1
f 13//13 10//10 25//25
f 26//26 11//11 16//16
f 6//6 16//16 11//11
f 3//3 27//27 9//9
f 27//27 3//3 17//17
f 20//20 8//8 28//28
f 12//12 28//28 8//8
f 29//29 13//13 30//30
f 13//13 29//29 14//14
f 15//15 31//31 16//16
f 32//32 16//16 31//31
f 29//29 17//17 18//18
f 17//17 29//29 30//30
f 17//17 30//30 27//27
f 27//27 30//30 33//33
f 27//27 33//33 34//34
f 34//34 33//33 35//35
f 36//36 37//37 38//38
f 38//38 37//37 28//28
f 37//37 32//32 28//28
f 28//28 32//32 20//20
f 32//32 31//31 20//20
f 19//19 20//20 31//31
f 35//35 22//22 34//34
f 22//22 35//35 39//39
f 22//22 39//39 21//21
f 23//23 40//40 24//24
f 40//40 36//36 24//24
f 38//38 24//24 36//36
f 39//39 10//10 21//21
f 10//10 39//39 25//25
f 26//26 40//40 11//11
f 23//23 11//11 40//40
f 9//9 34//34 22//22
f 34//34 9//9 27//27
f 28//28 12//12 38//38
f 24//24 38//38 12//12
f 30//30 25//25 33//33
f 25//25 30//30 13//13
f 16//16 32//32 26//26
f 37//37 26//26 32//32
f 33//33 39//39 35//35
f 39//39 33//33 25//25
f 26//26 37//37 40//40
f 36//36 40//40 37//37
