# SSTK version 0.8.0
# 32
mtllib original-32.mtl
o #ID172
v 0.346476 0.346943 -0.274978
v 0.346476 0.343147 -0.273915
v 0.340153 0.354307 -0.267861
v 0.340153 0.354307 -0.267861
v 0.346476 0.343147 -0.273915
v 0.346476 0.346943 -0.274978
v 0.346476 0.346943 -0.274978
v 0.346476 -0.192519 -0.273915
v 0.346476 0.343147 -0.273915
v 0.346476 -0.196314 -0.274978
v 0.346476 0.349722 -0.277883
v 0.346476 -0.199093 -0.277883
v 0.346476 0.350739 -0.281851
v 0.346476 -0.200110 -0.281851
v 0.346476 0.350739 -0.337025
v 0.346476 -0.200110 -0.337025
v 0.346476 -0.199093 -0.340993
v 0.346476 0.349722 -0.340993
v 0.346476 -0.196314 -0.343898
v 0.346476 0.346943 -0.343898
v 0.346476 0.343147 -0.344961
v 0.346476 -0.192519 -0.344961
v 0.346476 -0.192519 -0.344961
v 0.346476 0.343147 -0.344961
v 0.346476 -0.196314 -0.343898
v 0.346476 0.346943 -0.343898
v 0.346476 0.349722 -0.340993
v 0.346476 -0.199093 -0.340993
v 0.346476 0.350739 -0.337025
v 0.346476 -0.200110 -0.337025
v 0.346476 -0.200110 -0.281851
v 0.346476 0.350739 -0.281851
v 0.346476 -0.199093 -0.277883
v 0.346476 0.349722 -0.277883
v 0.346476 -0.196314 -0.274978
v 0.346476 0.346943 -0.274978
v 0.346476 -0.192519 -0.273915
v 0.346476 0.343147 -0.273915
v 0.340153 0.354307 -0.267861
v 0.346476 -0.192519 -0.273915
v 0.340153 -0.203678 -0.267861
v 0.346476 0.343147 -0.273915
v 0.346476 0.343147 -0.273915
v 0.340153 0.354307 -0.267861
v 0.346476 -0.192519 -0.273915
v 0.340153 -0.203678 -0.267861
v 0.340153 0.358261 -0.269106
v 0.340153 0.358261 -0.269106
v 0.340153 0.362215 -0.341726
v 0.346476 0.350739 -0.281851
v 0.340153 0.362215 -0.277150
v 0.346476 0.350739 -0.337025
v 0.346476 0.350739 -0.337025
v 0.340153 0.362215 -0.341726
v 0.346476 0.350739 -0.281851
v 0.340153 0.362215 -0.277150
v 0.340153 0.362215 -0.341726
v 0.346476 0.349722 -0.340993
v 0.346476 0.350739 -0.337025
v 0.346476 0.350739 -0.337025
v 0.346476 0.349722 -0.340993
v 0.340153 0.362215 -0.341726
v 0.340153 0.361155 -0.346371
v 0.346476 0.346943 -0.343898
v 0.346476 0.346943 -0.343898
v 0.340153 0.361155 -0.346371
v 0.340153 0.354307 -0.351015
v 0.346476 0.343147 -0.344961
v 0.346476 0.343147 -0.344961
v 0.340153 0.354307 -0.351015
v 0.346476 -0.192519 -0.344961
v 0.340153 0.354307 -0.351015
v 0.340153 -0.203678 -0.351015
v 0.346476 0.343147 -0.344961
v 0.346476 0.343147 -0.344961
v 0.346476 -0.192519 -0.344961
v 0.340153 0.354307 -0.351015
v 0.340153 -0.203678 -0.351015
v 0.340153 -0.203678 -0.351015
v 0.346476 -0.196314 -0.343898
v 0.346476 -0.192519 -0.344961
v 0.346476 -0.192519 -0.344961
v 0.346476 -0.196314 -0.343898
v 0.340153 -0.203678 -0.351015
v 0.340153 -0.210527 -0.346371
v 0.346476 -0.199093 -0.340993
v 0.346476 -0.199093 -0.340993
v 0.340153 -0.210527 -0.346371
v 0.340153 -0.211586 -0.341726
v 0.346476 -0.200110 -0.337025
v 0.346476 -0.200110 -0.337025
v 0.340153 -0.211586 -0.341726
v 0.346476 -0.200110 -0.281851
v 0.340153 -0.211586 -0.341726
v 0.340153 -0.211586 -0.277150
v 0.346476 -0.200110 -0.337025
v 0.346476 -0.200110 -0.337025
v 0.346476 -0.200110 -0.281851
v 0.340153 -0.211586 -0.341726
v 0.340153 -0.211586 -0.277150
v 0.346476 -0.200110 -0.281851
v 0.340153 -0.211586 -0.277150
v 0.346476 -0.199093 -0.277883
v 0.346476 -0.199093 -0.277883
v 0.340153 -0.211586 -0.277150
v 0.346476 -0.200110 -0.281851
v 0.340153 -0.210527 -0.272506
v 0.346476 -0.196314 -0.274978
v 0.346476 -0.196314 -0.274978
v 0.340153 -0.210527 -0.272506
v 0.340153 -0.203678 -0.267861
v 0.346476 -0.192519 -0.273915
v 0.346476 -0.192519 -0.273915
v 0.340153 -0.203678 -0.267861
v 0.346476 0.349722 -0.277883
v 0.340153 0.361155 -0.272506
v 0.340153 0.361155 -0.272506
v 0.346476 0.349722 -0.277883
v 0.346476 0.350739 -0.281851
v 0.340153 0.362215 -0.277150
v 0.340153 0.362215 -0.277150
v 0.346476 0.350739 -0.281851
v 0.340153 0.358261 -0.349771
v 0.340153 0.358261 -0.349771
v 0.340153 -0.207632 -0.349771
v 0.340153 -0.207632 -0.349771
v 0.340153 -0.207632 -0.269106
v 0.340153 -0.207632 -0.269106
vt 0.05120001 8.758787
vt 0.05166854 8.758207
vt 0.0484639 8.758589
vt 0.06724882 8.770965
vt 0.1413499 8.714056
vt 0.06771735 8.770385
vt 0.141925 8.713837
vt 0.06701236 8.77175
vt 0.1424524 8.714038
vt 0.06707132 8.77253
vt 0.142791 8.714604
vt 0.06983507 8.78189
vt 0.1455548 8.723964
vt 0.1456137 8.724745
vt 0.07017366 8.782456
vt 0.1453773 8.72553
vt 0.07070114 8.782657
vt 0.07127619 8.782438
vt 0.1449088 8.726109
vt 0.04694759 8.745462
vt 0.1237848 8.688751
vt 0.1236482 8.686786
vt 0.05015222 8.74508
vt 0.05184553 8.759538
vt 0.04910942 8.75934
vt 0.04862823 8.759967
vt 0.09894154 8.787303
vt 0.09888719 8.775702
vt 0.09570682 8.776347
vt 0.1016509 8.785063
vt 0.1025559 8.787147
vt 0.1056039 8.785473
vt 0.1052653 8.784907
vt 0.1042851 8.780596
vt 0.1074823 8.778446
vt 0.1069548 8.778246
vt 0.098465 8.761376
vt 0.1010632 8.75894
vt 0.1004881 8.759158
vt 0.1659473 8.683309
vt 0.08971652 8.742074
vt 0.1664171 8.683398
vt 0.09231469 8.739638
vt 0.164488 8.685683
vt 0.1644866 8.685015
vt 0.1640181 8.685594
vt 0.1616038 8.683934
vt 0.1611301 8.683989
vt 0.1608937 8.684774
vt 0.1588026 8.682395
vt 0.158357 8.682569
vt 0.1584159 8.683349
vt 0.154225 8.673004
vt 0.1574343 8.682191
vt 0.1541996 8.671235
vt 0.1569887 8.682364
vt 0.1497522 8.679312
vt 0.1497268 8.677543
vt 0.1494136 8.678746
vt 0.1391873 8.688787
vt 0.1391222 8.686908
vt 0.1386598 8.688586
vt 0.127951 8.693585
vt 0.1272393 8.691839
vt 0.1273759 8.693804
vt 0.06730132 8.771726
vt 0.06753778 8.770941
vt 0.0640929 8.772251
vt 0.08810766 8.77634
vt 0.0880487 8.77556
vt 0.08492729 8.776985
vt 0.06953363 8.772126
vt 0.06631633 8.772555
vt 0.06608874 8.773436
vt 0.1023161 8.788081
vt 0.1049858 8.785731
vt 0.1019378 8.787405
vt 0.1044156 8.782458
vt 0.1070445 8.780037
vt 0.1038474 8.782186
vt 0.09926126 8.76275
vt 0.1012844 8.760532
vt 0.09865539 8.762954
vt 0.1642003 8.685347
vt 0.1646815 8.68472
vt 0.164199 8.684679
vt 0.1586383 8.68363
vt 0.1585513 8.68273
vt 0.1581646 8.683684
vt 0.1609319 8.685588
vt 0.1611595 8.684707
vt 0.1604493 8.685546
vt 0.1497796 8.678436
vt 0.1500928 8.677234
vt 0.1497145 8.676557
vt 0.139645 8.688211
vt 0.1401074 8.686533
vt 0.1395392 8.68626
vt 0.1285828 8.693324
vt 0.128477 8.691373
vt 0.1278711 8.691578
vt 0.08893575 8.775731
vt 0.08572733 8.776257
vt 0.08581434 8.777156
vn -0.8479329808501401 -0.22319588098849913 -0.48082560112411177
vn -0.8133194261848031 -0.1569317906724958 -0.5602534462783311
vn -0.8177114928598076 -0.17094060887583334 -0.5496610070599371
vn 0.8177114928598076 0.17094060887583334 0.5496610070599371
vn 0.8133194261848031 0.1569317906724958 0.5602534462783311
vn 0.8479329808501401 0.22319588098849913 0.48082560112411177
vn -1 0 0
vn 1 0 0
vn -0.691534058227513 0 -0.7223438560072251
vn 0.691534058227513 0 0.7223438560072251
vn -0.8791478968024768 -0.2983869172305384 -0.3715699438510027
vn 0.8791478968024768 0.2983869172305384 0.3715699438510027
vn -0.8758458924197202 -0.4825908958232675 0
vn 0.8758458924197202 0.4825908958232675 0
vn -0.8898799858414898 -0.44434373866922633 0.10330659564715305
vn -0.8928393093594842 -0.38877695277129554 0.22735533566719962
vn -0.8891155301981832 -0.44335071706684637 0.11363853059907428
vn 0.8891155301981832 0.44335071706684637 -0.11363853059907428
vn 0.8928393093594842 0.38877695277129554 -0.22735533566719962
vn 0.8898799858414898 0.44434373866922633 -0.10330659564715305
vn -0.8954974197831537 -0.40178247487095775 0.19145551454132254
vn -0.8479329808501417 -0.22319588098849913 0.48082560112410944
vn 0.8479329808501417 0.22319588098849913 -0.48082560112410944
vn 0.8954974197831537 0.40178247487095775 -0.19145551454132254
vn -0.817711492859809 -0.17094060887583326 0.5496610070599347
vn -0.8133194261848048 -0.15693179067249574 0.5602534462783287
vn 0.8133194261848048 0.15693179067249574 -0.5602534462783287
vn 0.817711492859809 0.17094060887583326 -0.5496610070599347
vn -0.691534058227515 0 0.722343856007223
vn 0.691534058227515 0 -0.722343856007223
vn -0.817711492859809 0.17094060887583337 0.5496610070599347
vn -0.8479329808501417 0.22319588098849924 0.48082560112410944
vn -0.8133194261848048 0.15693179067249585 0.5602534462783287
vn 0.8133194261848048 -0.15693179067249585 -0.5602534462783287
vn 0.8479329808501417 -0.22319588098849924 -0.48082560112410944
vn 0.817711492859809 -0.17094060887583337 -0.5496610070599347
vn -0.8954974197831537 0.40178247487095786 0.19145551454132248
vn -0.8928393093594842 0.38877695277129565 0.22735533566719957
vn 0.8928393093594842 -0.38877695277129565 -0.22735533566719957
vn 0.8954974197831537 -0.40178247487095786 -0.19145551454132248
vn -0.8898799858414898 0.44434373866922644 0.103306595647153
vn -0.8891155301981832 0.4433507170668465 0.11363853059907422
vn 0.8891155301981832 -0.4433507170668465 -0.11363853059907422
vn 0.8898799858414898 -0.44434373866922644 -0.103306595647153
vn -0.8758458924197202 0.4825908958232676 0
vn 0.8758458924197202 -0.4825908958232676 0
vn -0.8891155301981828 0.44335071706684637 -0.1136385305990768
vn -0.8898799858414893 0.44434373866922633 -0.1033065956471556
vn -0.8928393093594835 0.3887769527712956 -0.2273553356672022
vn 0.8928393093594835 -0.3887769527712956 0.2273553356672022
vn 0.8898799858414893 -0.44434373866922633 0.1033065956471556
vn 0.8891155301981828 -0.44335071706684637 0.1136385305990768
vn -0.895497419783153 0.40178247487095775 -0.19145551454132506
vn -0.8479329808501401 0.22319588098849913 -0.48082560112411177
vn 0.8479329808501401 -0.22319588098849913 0.48082560112411177
vn 0.895497419783153 -0.40178247487095775 0.19145551454132506
vn -0.8177114928598076 0.17094060887583334 -0.5496610070599371
vn -0.8133194261848031 0.1569317906724958 -0.5602534462783311
vn 0.8133194261848031 -0.1569317906724958 0.5602534462783311
vn 0.8177114928598076 -0.17094060887583334 0.5496610070599371
vn -0.8928393093594835 -0.3887769527712956 -0.22735533566720215
vn -0.895497419783153 -0.40178247487095775 -0.191455514541325
vn 0.895497419783153 0.40178247487095775 0.191455514541325
vn 0.8928393093594835 0.3887769527712956 0.22735533566720215
vn -0.889115530198183 -0.44335071706684637 -0.11363853059907678
vn -0.8898799858414895 -0.44434373866922633 -0.10330659564715557
vn 0.8898799858414895 0.44434373866922633 0.10330659564715557
vn 0.889115530198183 0.44335071706684637 0.11363853059907678
vn -0.8791478968024781 -0.29838691723053834 0.37156994385100023
vn 0.8791478968024781 0.29838691723053834 -0.37156994385100023
vn -0.8791478968024781 0.29838691723053845 0.37156994385100023
vn 0.8791478968024781 -0.29838691723053845 -0.37156994385100023
vn -0.8791478968024768 0.2983869172305384 -0.3715699438510027
vn 0.8791478968024768 -0.2983869172305384 0.3715699438510027
usemtl material_0_0
f 1/1/1 2/2/2 3/3/3
f 4/3/4 5/2/5 6/1/6
f 7/4/7 8/5/7 9/6/7
f 8/5/7 7/4/7 10/7/7
f 10/7/7 7/4/7 11/8/7
f 10/7/7 11/8/7 12/9/7
f 12/9/7 11/8/7 13/10/7
f 12/9/7 13/10/7 14/11/7
f 14/11/7 13/10/7 15/12/7
f 14/11/7 15/12/7 16/13/7
f 16/13/7 15/12/7 17/14/7
f 17/14/7 15/12/7 18/15/7
f 17/14/7 18/15/7 19/16/7
f 19/16/7 18/15/7 20/17/7
f 19/16/7 20/17/7 21/18/7
f 19/16/7 21/18/7 22/19/7
f 23/19/8 24/18/8 25/16/8
f 24/18/8 26/17/8 25/16/8
f 26/17/8 27/15/8 25/16/8
f 25/16/8 27/15/8 28/14/8
f 27/15/8 29/12/8 28/14/8
f 28/14/8 29/12/8 30/13/8
f 30/13/8 29/12/8 31/11/8
f 29/12/8 32/10/8 31/11/8
f 31/11/8 32/10/8 33/9/8
f 32/10/8 34/8/8 33/9/8
f 33/9/8 34/8/8 35/7/8
f 34/8/8 36/4/8 35/7/8
f 35/7/8 36/4/8 37/5/8
f 38/6/8 37/5/8 36/4/8
f 39/20/9 40/21/9 41/22/9
f 40/21/9 39/20/9 42/23/9
f 43/23/10 44/20/10 45/21/10
f 46/22/10 45/21/10 44/20/10
f 1/24/1 3/25/3 47/26/11
f 48/26/12 4/25/4 6/24/6
f 49/27/13 50/28/13 51/29/13
f 50/28/13 49/27/13 52/30/13
f 53/30/14 54/27/14 55/28/14
f 56/29/14 55/28/14 54/27/14
f 57/31/15 58/32/16 59/33/17
f 60/33/18 61/32/19 62/31/20
f 63/34/21 64/35/22 58/36/16
f 61/36/19 65/35/23 66/34/24
f 67/37/25 68/38/26 64/39/22
f 65/39/23 69/38/27 70/37/28
f 71/40/29 72/41/29 73/42/29
f 72/41/29 71/40/29 74/43/29
f 75/43/30 76/40/30 77/41/30
f 78/42/30 77/41/30 76/40/30
f 79/44/31 80/45/32 81/46/33
f 82/46/34 83/45/35 84/44/36
f 85/47/37 86/48/38 80/49/32
f 83/49/35 87/48/39 88/47/40
f 89/50/41 90/51/42 86/52/38
f 87/52/39 91/51/43 92/50/44
f 93/53/45 94/54/45 95/55/45
f 94/54/45 93/53/45 96/56/45
f 97/56/46 98/53/46 99/54/46
f 100/55/46 99/54/46 98/53/46
f 101/57/47 102/58/48 103/59/49
f 104/59/50 105/58/51 106/57/52
f 103/60/49 107/61/53 108/62/54
f 109/62/55 110/61/56 104/60/50
f 108/63/54 111/64/57 112/65/58
f 113/65/59 114/64/60 109/63/55
f 115/66/61 1/67/1 116/68/62
f 117/68/63 6/67/6 118/66/64
f 119/69/65 115/70/61 120/71/66
f 121/71/67 118/70/64 122/69/68
f 1/72/1 47/73/11 116/74/62
f 117/74/63 48/73/12 6/72/6
f 63/75/21 58/76/16 57/77/15
f 62/77/20 61/76/19 66/75/24
f 123/78/69 64/79/22 63/80/21
f 66/80/24 65/79/23 124/78/70
f 67/81/25 64/82/22 123/83/69
f 124/83/70 65/82/23 70/81/28
f 79/84/31 125/85/71 80/86/32
f 83/86/35 126/85/72 84/84/36
f 85/87/37 89/88/41 86/89/38
f 87/89/39 92/88/44 88/87/40
f 125/90/71 85/91/37 80/92/32
f 83/92/35 88/91/40 126/90/72
f 103/93/49 102/94/48 107/95/53
f 110/95/56 105/94/51 104/93/50
f 108/96/54 107/97/53 127/98/73
f 128/98/74 110/97/56 109/96/55
f 108/99/54 127/100/73 111/101/57
f 114/101/60 128/100/74 109/99/55
f 115/102/61 116/103/62 120/104/66
f 121/104/67 117/103/63 118/102/64
