# SSTK version 0.8.0
# 30
mtllib original-30.mtl
o #ID156
v -0.190876 -0.324973 -0.024943
v -0.186069 -0.324973 -0.030610
v -0.192268 -0.324973 -0.030610
v -0.187460 -0.324973 -0.024943
v -0.187460 -0.324973 -0.024943
v -0.190876 -0.324973 -0.024943
v -0.186069 -0.324973 -0.030610
v -0.192268 -0.324973 -0.030610
v -0.184513 -0.334825 -0.032033
v -0.187460 -0.324973 -0.024943
v -0.186603 -0.334825 -0.023520
v -0.186069 -0.324973 -0.030610
v -0.186069 -0.324973 -0.030610
v -0.184513 -0.334825 -0.032033
v -0.187460 -0.324973 -0.024943
v -0.186603 -0.334825 -0.023520
v -0.193823 -0.334825 -0.032033
v -0.186069 -0.324973 -0.030610
v -0.184513 -0.334825 -0.032033
v -0.192268 -0.324973 -0.030610
v -0.192268 -0.324973 -0.030610
v -0.193823 -0.334825 -0.032033
v -0.186069 -0.324973 -0.030610
v -0.184513 -0.334825 -0.032033
v -0.190876 -0.324973 -0.024943
v -0.193823 -0.334825 -0.032033
v -0.191735 -0.334825 -0.023520
v -0.192268 -0.324973 -0.030610
v -0.192268 -0.324973 -0.030610
v -0.190876 -0.324973 -0.024943
v -0.193823 -0.334825 -0.032033
v -0.191735 -0.334825 -0.023520
v -0.187460 -0.324973 -0.024943
v -0.191735 -0.334825 -0.023520
v -0.186603 -0.334825 -0.023520
v -0.190876 -0.324973 -0.024943
v -0.190876 -0.324973 -0.024943
v -0.187460 -0.324973 -0.024943
v -0.191735 -0.334825 -0.023520
v -0.186603 -0.334825 -0.023520
v -0.202817 -0.334825 0.041428
v -0.208618 -0.334825 0.012552
v -0.209849 -0.334825 0.030866
v -0.203257 -0.334825 0.008994
v -0.202400 -0.334825 0.015399
v -0.193825 -0.334825 0.046801
v -0.201772 -0.334825 0.017643
v -0.199360 -0.334825 0.023042
v -0.198472 -0.334825 0.024375
v -0.194899 -0.334825 0.027914
v -0.193835 -0.334825 0.028551
v -0.189645 -0.334825 0.029759
v -0.191735 -0.334825 0.038280
v -0.186603 -0.334825 0.038280
v -0.188693 -0.334825 0.029759
v -0.184503 -0.334825 0.028551
v -0.184513 -0.334825 0.046801
v -0.175521 -0.334825 0.041428
v -0.183439 -0.334825 0.027914
v -0.179866 -0.334825 0.024375
v -0.178978 -0.334825 0.023042
v -0.176566 -0.334825 0.017643
v -0.175938 -0.334825 0.015399
v -0.175078 -0.334825 0.008994
v -0.168487 -0.334825 0.030866
v -0.169720 -0.334825 0.012552
v -0.169720 -0.334825 0.001734
v -0.213979 -0.334825 -0.001944
v -0.213979 -0.334825 0.016114
v -0.210116 -0.334825 -0.015575
v -0.208618 -0.334825 0.001734
v -0.202833 -0.334825 -0.026746
v -0.203257 -0.334825 0.005417
v -0.202391 -0.334825 -0.000984
v -0.193823 -0.334825 -0.032033
v -0.201931 -0.334825 -0.002603
v -0.199527 -0.334825 -0.008018
v -0.198465 -0.334825 -0.009648
v -0.194901 -0.334825 -0.013195
v -0.193837 -0.334825 -0.013820
v -0.191735 -0.334825 -0.023520
v -0.189645 -0.334825 -0.015006
v -0.186603 -0.334825 -0.023520
v -0.188693 -0.334825 -0.015006
v -0.184498 -0.334825 -0.013820
v -0.184513 -0.334825 -0.032033
v -0.175505 -0.334825 -0.026746
v -0.183434 -0.334825 -0.013195
v -0.179873 -0.334825 -0.009648
v -0.178809 -0.334825 -0.008018
v -0.176404 -0.334825 -0.002600
v -0.175947 -0.334825 -0.000984
v -0.175078 -0.334825 0.005417
v -0.168220 -0.334825 -0.015575
v -0.164359 -0.334825 0.016114
v -0.164359 -0.334825 -0.001944
v -0.164359 -0.334825 -0.001944
v -0.164359 -0.334825 0.016114
v -0.168220 -0.334825 -0.015575
v -0.168487 -0.334825 0.030866
v -0.169720 -0.334825 0.001734
v -0.175078 -0.334825 0.005417
v -0.175505 -0.334825 -0.026746
v -0.175947 -0.334825 -0.000984
v -0.176404 -0.334825 -0.002600
v -0.178809 -0.334825 -0.008018
v -0.179873 -0.334825 -0.009648
v -0.183434 -0.334825 -0.013195
v -0.184498 -0.334825 -0.013820
v -0.184513 -0.334825 -0.032033
v -0.186603 -0.334825 -0.023520
v -0.188693 -0.334825 -0.015006
v -0.189645 -0.334825 -0.015006
v -0.191735 -0.334825 -0.023520
v -0.193837 -0.334825 -0.013820
v -0.193823 -0.334825 -0.032033
v -0.194901 -0.334825 -0.013195
v -0.198465 -0.334825 -0.009648
v -0.199527 -0.334825 -0.008018
v -0.201931 -0.334825 -0.002603
v -0.202391 -0.334825 -0.000984
v -0.202833 -0.334825 -0.026746
v -0.203257 -0.334825 0.005417
v -0.208618 -0.334825 0.001734
v -0.208618 -0.334825 0.012552
v -0.209849 -0.334825 0.030866
v -0.210116 -0.334825 -0.015575
v -0.213979 -0.334825 -0.001944
v -0.213979 -0.334825 0.016114
v -0.169720 -0.334825 0.012552
v -0.175078 -0.334825 0.008994
v -0.175521 -0.334825 0.041428
v -0.175938 -0.334825 0.015399
v -0.176566 -0.334825 0.017643
v -0.178978 -0.334825 0.023042
v -0.179866 -0.334825 0.024375
v -0.183439 -0.334825 0.027914
v -0.184503 -0.334825 0.028551
v -0.184513 -0.334825 0.046801
v -0.186603 -0.334825 0.038280
v -0.188693 -0.334825 0.029759
v -0.189645 -0.334825 0.029759
v -0.191735 -0.334825 0.038280
v -0.193825 -0.334825 0.046801
v -0.193835 -0.334825 0.028551
v -0.194899 -0.334825 0.027914
v -0.198472 -0.334825 0.024375
v -0.199360 -0.334825 0.023042
v -0.201772 -0.334825 0.017643
v -0.202400 -0.334825 0.015399
v -0.202817 -0.334825 0.041428
v -0.203257 -0.334825 0.008994
v -0.193823 -0.338501 -0.032033
v -0.184513 -0.334825 -0.032033
v -0.184513 -0.338501 -0.032033
v -0.193823 -0.334825 -0.032033
v -0.193823 -0.334825 -0.032033
v -0.193823 -0.338501 -0.032033
v -0.184513 -0.334825 -0.032033
v -0.184513 -0.338501 -0.032033
v -0.209849 -0.334825 0.030866
v -0.202817 -0.338501 0.041428
v -0.202817 -0.334825 0.041428
v -0.209849 -0.338501 0.030866
v -0.209849 -0.338501 0.030866
v -0.209849 -0.334825 0.030866
v -0.202817 -0.338501 0.041428
v -0.202817 -0.334825 0.041428
v -0.193825 -0.334825 0.046801
v -0.193825 -0.338501 0.046801
v -0.193825 -0.334825 0.046801
v -0.193825 -0.338501 0.046801
v -0.192268 -0.324973 0.045374
v -0.191735 -0.334825 0.038280
v -0.193825 -0.334825 0.046801
v -0.190876 -0.324973 0.039704
v -0.190876 -0.324973 0.039704
v -0.192268 -0.324973 0.045374
v -0.191735 -0.334825 0.038280
v -0.193825 -0.334825 0.046801
v -0.190876 -0.324973 0.039704
v -0.186603 -0.334825 0.038280
v -0.191735 -0.334825 0.038280
v -0.187460 -0.324973 0.039704
v -0.187460 -0.324973 0.039704
v -0.190876 -0.324973 0.039704
v -0.186603 -0.334825 0.038280
v -0.191735 -0.334825 0.038280
v -0.186603 -0.334825 0.038280
v -0.186069 -0.324973 0.045374
v -0.184513 -0.334825 0.046801
v -0.187460 -0.324973 0.039704
v -0.187460 -0.324973 0.039704
v -0.186603 -0.334825 0.038280
v -0.186069 -0.324973 0.045374
v -0.184513 -0.334825 0.046801
v -0.175521 -0.338498 0.041428
v -0.184513 -0.334825 0.046801
v -0.184513 -0.338501 0.046801
v -0.175521 -0.334825 0.041428
v -0.175521 -0.334825 0.041428
v -0.175521 -0.338498 0.041428
v -0.184513 -0.334825 0.046801
v -0.184513 -0.338501 0.046801
v -0.168487 -0.334825 0.030866
v -0.168487 -0.338498 0.030866
v -0.168487 -0.338498 0.030866
v -0.168487 -0.334825 0.030866
v -0.164359 -0.334825 0.016114
v -0.164359 -0.338498 0.016114
v -0.164359 -0.338498 0.016114
v -0.164359 -0.334825 0.016114
v -0.164359 -0.334825 -0.001944
v -0.164359 -0.338498 -0.001944
v -0.164359 -0.338498 -0.001944
v -0.164359 -0.334825 -0.001944
v -0.168220 -0.334825 -0.015575
v -0.168220 -0.338498 -0.015575
v -0.168220 -0.338498 -0.015575
v -0.168220 -0.334825 -0.015575
v -0.175505 -0.334825 -0.026746
v -0.175505 -0.338498 -0.026746
v -0.175505 -0.338498 -0.026746
v -0.175505 -0.334825 -0.026746
v -0.202833 -0.334825 -0.026746
v -0.202833 -0.338501 -0.026746
v -0.202833 -0.334825 -0.026746
v -0.202833 -0.338501 -0.026746
v -0.210116 -0.338501 -0.015575
v -0.210116 -0.334825 -0.015575
v -0.210116 -0.338501 -0.015575
v -0.210116 -0.334825 -0.015575
v -0.213979 -0.338501 -0.001944
v -0.213979 -0.334825 -0.001944
v -0.213979 -0.338501 -0.001944
v -0.213979 -0.334825 -0.001944
v -0.213979 -0.338501 0.016114
v -0.213979 -0.334825 0.016114
v -0.213979 -0.338501 0.016114
v -0.213979 -0.334825 0.016114
v -0.184513 -0.334825 0.046801
v -0.192268 -0.324973 0.045374
v -0.193825 -0.334825 0.046801
v -0.186069 -0.324973 0.045374
v -0.186069 -0.324973 0.045374
v -0.184513 -0.334825 0.046801
v -0.192268 -0.324973 0.045374
v -0.193825 -0.334825 0.046801
v -0.186069 -0.324973 0.045374
v -0.190876 -0.324973 0.039704
v -0.192268 -0.324973 0.045374
v -0.187460 -0.324973 0.039704
v -0.187460 -0.324973 0.039704
v -0.186069 -0.324973 0.045374
v -0.190876 -0.324973 0.039704
v -0.192268 -0.324973 0.045374
vt 0.09976136 8.61531
vt 0.1010846 8.616092
vt 0.09974407 8.616323
vt 0.1005001 8.615183
vt 0.0429087 8.690983
vt 0.04056203 8.690926
vt 0.04203026 8.689616
vt 0.04114652 8.691835
vt 0.08047892 8.615459
vt 0.08073008 8.615965
vt 0.08249226 8.615112
vt 0.07938957 8.616195
vt 0.07097065 8.664584
vt 0.07204271 8.664861
vt 0.07206773 8.663339
vt 0.07095336 8.665598
vt 0.07389437 8.607179
vt 0.07425273 8.606061
vt 0.07536261 8.60587
vt 0.07315565 8.607306
vt 0.094652 8.6037
vt 0.09484391 8.608815
vt 0.09366037 8.605754
vt 0.09618145 8.609219
vt 0.09604595 8.6081
vt 0.09632721 8.602454
vt 0.09606944 8.607696
vt 0.09632046 8.60669
vt 0.09644571 8.606431
vt 0.09704111 8.605698
vt 0.09723934 8.60555
vt 0.09808483 8.605189
vt 0.09720602 8.603821
vt 0.0983159 8.60363
vt 0.09829074 8.605154
vt 0.09925731 8.605203
vt 0.09834106 8.602107
vt 0.1005546 8.602683
vt 0.0995193 8.605271
vt 0.1004693 8.605738
vt 0.1007281 8.605931
vt 0.10152 8.606757
vt 0.1017683 8.607115
vt 0.102275 8.608169
vt 0.1026048 8.604213
vt 0.1032556 8.607366
vt 0.1037974 8.609201
vt 0.09441076 8.611474
vt 0.09350619 8.60841
vt 0.09592903 8.613642
vt 0.09538579 8.61065
vt 0.09806338 8.615266
vt 0.09636063 8.609826
vt 0.09686865 8.610879
vt 0.1002767 8.615828
vt 0.09704911 8.611137
vt 0.09784027 8.611966
vt 0.09815153 8.612203
vt 0.09909984 8.612672
vt 0.09936126 8.612738
vt 0.1003017 8.614306
vt 0.1003272 8.612783
vt 0.1014116 8.614114
vt 0.1005331 8.612748
vt 0.1013808 8.612391
vt 0.10229 8.615481
vt 0.1039731 8.614248
vt 0.1015796 8.612245
vt 0.102172 8.61151
vt 0.1023205 8.611194
vt 0.102569 8.610185
vt 0.1025869 8.609894
vt 0.1024542 8.608776
vt 0.1049888 8.612082
vt 0.1042364 8.606562
vt 0.105141 8.609626
vt 0.07742428 8.61121
vt 0.07893227 8.61125
vt 0.07943761 8.610863
vt 0.07691893 8.611597
vt 0.07821113 8.642075
vt 0.07970811 8.639635
vt 0.07920276 8.640021
vt 0.07871648 8.641689
vt 0.08478516 8.608082
vt 0.0836153 8.608942
vt 0.0852905 8.607696
vt 0.08310995 8.609329
vt 0.04608917 8.662832
vt 0.04791404 8.66298
vt 0.04703523 8.661612
vt 0.04667437 8.663742
vt 0.07698727 8.603436
vt 0.07933682 8.602482
vt 0.07822694 8.602673
vt 0.077726 8.603309
vt 0.0639551 8.672248
vt 0.06236086 8.672061
vt 0.06398026 8.670725
vt 0.06234427 8.673075
vt 0.06342906 8.621647
vt 0.06071065 8.621457
vt 0.06121599 8.62107
vt 0.06292415 8.622033
vt 0.04983784 8.653668
vt 0.05138319 8.655584
vt 0.04933293 8.654055
vt 0.0518881 8.655198
vt 0.04887999 8.670707
vt 0.0500067 8.673442
vt 0.04837508 8.671093
vt 0.05051161 8.673056
vt 0.05941354 8.674465
vt 0.05981321 8.677915
vt 0.05890863 8.674851
vt 0.06031812 8.677528
vt 0.07710053 8.666464
vt 0.07644341 8.669306
vt 0.07659563 8.66685
vt 0.07694832 8.66892
vt 0.09105725 8.64806
vt 0.08953669 8.650613
vt 0.09055234 8.648446
vt 0.0900416 8.650227
vt 0.09061298 8.620734
vt 0.09280104 8.619115
vt 0.09111833 8.620347
vt 0.09229613 8.619501
vt 0.05824306 8.635984
vt 0.06096169 8.636159
vt 0.05874841 8.635598
vt 0.06045634 8.636546
vt 0.04350362 8.668896
vt 0.04187462 8.666885
vt 0.04136927 8.667272
vt 0.04400897 8.668509
vt 0.038516 8.681707
vt 0.03750308 8.679152
vt 0.03699773 8.679538
vt 0.03902135 8.68132
vt 0.04626831 8.680812
vt 0.04586909 8.677362
vt 0.04536374 8.677749
vt 0.04677366 8.680426
vt 0.06255404 8.666715
vt 0.06321357 8.663672
vt 0.06270822 8.664058
vt 0.06305939 8.666328
vt 0.07634339 8.596566
vt 0.07483489 8.596526
vt 0.07684874 8.596179
vt 0.07432954 8.596912
vt 0.07386225 8.592352
vt 0.07090234 8.593919
vt 0.0718484 8.592699
vt 0.07224285 8.593688
vt 0.09727841 8.603201
vt 0.09652311 8.604343
vt 0.0959379 8.603432
vt 0.09726183 8.604215
vn 0 1 0
vn 0 -1 0
vn 0.9643700152658785 0.11814602285101476 0.23671077487215655
vn -0.9643700152658785 -0.11814602285101476 -0.23671077487215655
vn 0 0.1429862318959545 -0.9897246776190823
vn 0 -0.1429862318959545 0.9897246776190823
vn -0.9643837587873445 0.11814825815260964 0.23665366019290096
vn 0.9643837587873445 -0.11814825815260964 -0.23665366019290096
vn 0 0.1429862318959546 0.9897246776190823
vn 0 -0.1429862318959546 -0.9897246776190823
vn -0.2669776561100128 0 -0.9637027192749866
vn 0.26703636362007316 0 -0.9636864534196629
vn 0.2670121919800181 0 -0.9636931510257951
vn -0.26698005171993655 0 -0.9637020556082778
vn 0.26698005171993655 0 0.9637020556082778
vn 0.2669776561100128 0 0.9637027192749866
vn -0.26703636362007316 0 0.9636864534196629
vn -0.2670121919800181 0 0.9636931510257951
vn -0.9102507035668023 -0.0000037666451694278545 0.41405755233053537
vn -0.6952118668528093 0 0.7188048832520769
vn -0.6952130102626048 0 0.7188037773701579
vn -0.9102504517934655 -0.000003766628896256462 0.41405810582043256
vn 0.9102504517934655 0.000003766628896256462 -0.41405810582043256
vn 0.9102507035668023 0.0000037666451694278545 -0.41405755233053537
vn 0.6952118668528093 0 -0.7188048832520769
vn 0.6952130102626048 0 -0.7188037773701579
vn -0.27107261159228074 0 0.9625589017013663
vn -0.27107022030043193 0 0.9625595751257557
vn 0.27107261159228074 0 -0.9625589017013663
vn 0.27107022030043193 0 -0.9625595751257557
vn -0.9643773721972433 0.11821830290174673 -0.2366447059474826
vn 0.9643773721972433 -0.11821830290174673 0.2366447059474826
vn 0.964419321349918 0.11810674898142928 -0.23652942407235802
vn -0.964419321349918 -0.11810674898142928 0.23652942407235802
vn 0.6951360941013146 0 0.7188781612189706
vn 0.2710705434658378 0 0.9625594841178051
vn 0.2710460659691625 0 0.9625663769957066
vn 0.6951512793881904 0 0.7188634771394092
vn -0.6951512793881904 0 -0.7188634771394092
vn -0.6951360941013146 0 -0.7188781612189706
vn -0.2710705434658378 0 -0.9625594841178051
vn -0.2710460659691625 0 -0.9625663769957066
vn 0.9102514257693327 0.0000037503598994962135 0.41405596466037253
vn 0.9102517283498404 0.000003750375957818008 0.4140552994734676
vn -0.9102517283498404 -0.000003750375957818008 -0.4140552994734676
vn -0.9102514257693327 -0.0000037503598994962135 -0.41405596466037253
vn 0.9908361372062231 0.0000074770770904520645 0.1350694234471433
vn 0.9908361600729159 0.000007477077263009381 0.13506925570259148
vn -0.9908361600729159 -0.000007477077263009381 -0.13506925570259148
vn -0.9908361372062231 -0.0000074770770904520645 -0.1350694234471433
vn 0.9906219633781111 0.0000074948457331403385 -0.13663134931897325
vn 0.9906219865060818 0.000007494845908121895 -0.1366311816335184
vn -0.9906219865060818 -0.000007494845908121895 0.1366311816335184
vn -0.9906219633781111 -0.0000074948457331403385 0.13663134931897325
vn 0.9114856735384952 0.0000037597659699092815 -0.4113318209425817
vn 0.9114859738575273 0.000003759782012443929 -0.41133115545367954
vn -0.9114859738575273 -0.000003759782012443929 0.41133115545367954
vn -0.9114856735384952 -0.0000037597659699092815 0.4113318209425817
vn 0.696248292227744 0 -0.7178010278412466
vn 0.696232406851558 0 -0.7178164359010502
vn -0.696232406851558 0 0.7178164359010502
vn -0.696248292227744 0 0.7178010278412466
vn -0.6962688450592087 0 -0.7177810915591994
vn -0.6962676474652056 0 -0.7177822532587915
vn 0.6962688450592087 0 0.7177810915591994
vn 0.6962676474652056 0 0.7177822532587915
vn -0.9114809556341913 -0.0000037361062816857417 -0.41134227536471724
vn -0.9114812385067014 -0.0000037361226784994886 -0.4113416485554691
vn 0.9114809556341913 0.0000037361062816857417 0.41134227536471724
vn 0.9114812385067014 0.0000037361226784994886 0.4113416485554691
vn -0.9906111731867847 -0.00000746874248617421 -0.13670955892592077
vn -0.9906112078983493 -0.000007468743751424525 -0.13670930740220755
vn 0.9906111731867847 0.00000746874248617421 0.13670955892592077
vn 0.9906112078983493 0.000007468743751424525 0.13670930740220755
vn -0.9908262147387719 -0.000007489747042372021 0.13514219226555682
vn -0.9908262490570618 -0.00000748974730178715 0.13514194065284385
vn 0.9908262147387719 0.000007489747042372021 -0.13514219226555682
vn 0.9908262490570618 0.00000748974730178715 -0.13514194065284385
vn 0 0.14335730119581314 0.989670997955307
vn 0 -0.14335730119581314 -0.989670997955307
usemtl material_0_0
f 1/1/1 2/2/1 3/3/1
f 2/2/1 1/1/1 4/4/1
f 5/4/2 6/1/2 7/2/2
f 8/3/2 7/2/2 6/1/2
f 9/5/3 10/6/3 11/7/3
f 10/6/3 9/5/3 12/8/3
f 13/8/4 14/5/4 15/6/4
f 16/7/4 15/6/4 14/5/4
f 17/9/5 18/10/5 19/11/5
f 18/10/5 17/9/5 20/12/5
f 21/12/6 22/9/6 23/10/6
f 24/11/6 23/10/6 22/9/6
f 25/13/7 26/14/7 27/15/7
f 26/14/7 25/13/7 28/16/7
f 29/16/8 30/13/8 31/14/8
f 32/15/8 31/14/8 30/13/8
f 33/17/9 34/18/9 35/19/9
f 34/18/9 33/17/9 36/20/9
f 37/20/10 38/17/10 39/18/10
f 40/19/10 39/18/10 38/17/10
f 41/21/1 42/22/1 43/23/1
f 42/22/1 41/21/1 44/24/1
f 44/24/1 41/21/1 45/25/1
f 45/25/1 41/21/1 46/26/1
f 45/25/1 46/26/1 47/27/1
f 47/27/1 46/26/1 48/28/1
f 48/28/1 46/26/1 49/29/1
f 49/29/1 46/26/1 50/30/1
f 50/30/1 46/26/1 51/31/1
f 51/31/1 46/26/1 52/32/1
f 52/32/1 46/26/1 53/33/1
f 52/32/1 53/33/1 54/34/1
f 52/32/1 54/34/1 55/35/1
f 55/35/1 54/34/1 56/36/1
f 56/36/1 54/34/1 57/37/1
f 56/36/1 57/37/1 58/38/1
f 56/36/1 58/38/1 59/39/1
f 59/39/1 58/38/1 60/40/1
f 60/40/1 58/38/1 61/41/1
f 61/41/1 58/38/1 62/42/1
f 62/42/1 58/38/1 63/43/1
f 63/43/1 58/38/1 64/44/1
f 64/44/1 58/38/1 65/45/1
f 64/44/1 65/45/1 66/46/1
f 66/46/1 65/45/1 67/47/1
f 43/23/1 68/48/1 69/49/1
f 68/48/1 43/23/1 70/50/1
f 70/50/1 43/23/1 71/51/1
f 70/50/1 71/51/1 72/52/1
f 71/51/1 43/23/1 42/22/1
f 72/52/1 71/51/1 73/53/1
f 72/52/1 73/53/1 74/54/1
f 72/52/1 74/54/1 75/55/1
f 75/55/1 74/54/1 76/56/1
f 75/55/1 76/56/1 77/57/1
f 75/55/1 77/57/1 78/58/1
f 75/55/1 78/58/1 79/59/1
f 75/55/1 79/59/1 80/60/1
f 75/55/1 80/60/1 81/61/1
f 81/61/1 80/60/1 82/62/1
f 81/61/1 82/62/1 83/63/1
f 83/63/1 82/62/1 84/64/1
f 83/63/1 84/64/1 85/65/1
f 83/63/1 85/65/1 86/66/1
f 86/66/1 85/65/1 87/67/1
f 87/67/1 85/65/1 88/68/1
f 87/67/1 88/68/1 89/69/1
f 87/67/1 89/69/1 90/70/1
f 87/67/1 90/70/1 91/71/1
f 87/67/1 91/71/1 92/72/1
f 87/67/1 92/72/1 93/73/1
f 87/67/1 93/73/1 94/74/1
f 94/74/1 93/73/1 67/47/1
f 94/74/1 67/47/1 65/45/1
f 94/74/1 65/45/1 95/75/1
f 94/74/1 95/75/1 96/76/1
f 97/76/2 98/75/2 99/74/2
f 98/75/2 100/45/2 99/74/2
f 100/45/2 101/47/2 99/74/2
f 101/47/2 102/73/2 99/74/2
f 99/74/2 102/73/2 103/67/2
f 102/73/2 104/72/2 103/67/2
f 104/72/2 105/71/2 103/67/2
f 105/71/2 106/70/2 103/67/2
f 106/70/2 107/69/2 103/67/2
f 107/69/2 108/68/2 103/67/2
f 108/68/2 109/65/2 103/67/2
f 103/67/2 109/65/2 110/66/2
f 110/66/2 109/65/2 111/63/2
f 109/65/2 112/64/2 111/63/2
f 112/64/2 113/62/2 111/63/2
f 111/63/2 113/62/2 114/61/2
f 113/62/2 115/60/2 114/61/2
f 114/61/2 115/60/2 116/55/2
f 115/60/2 117/59/2 116/55/2
f 117/59/2 118/58/2 116/55/2
f 118/58/2 119/57/2 116/55/2
f 119/57/2 120/56/2 116/55/2
f 120/56/2 121/54/2 116/55/2
f 116/55/2 121/54/2 122/52/2
f 121/54/2 123/53/2 122/52/2
f 123/53/2 124/51/2 122/52/2
f 125/22/2 126/23/2 124/51/2
f 122/52/2 124/51/2 127/50/2
f 124/51/2 126/23/2 127/50/2
f 127/50/2 126/23/2 128/48/2
f 129/49/2 128/48/2 126/23/2
f 101/47/2 100/45/2 130/46/2
f 130/46/2 100/45/2 131/44/2
f 100/45/2 132/38/2 131/44/2
f 131/44/2 132/38/2 133/43/2
f 133/43/2 132/38/2 134/42/2
f 134/42/2 132/38/2 135/41/2
f 135/41/2 132/38/2 136/40/2
f 136/40/2 132/38/2 137/39/2
f 137/39/2 132/38/2 138/36/2
f 132/38/2 139/37/2 138/36/2
f 139/37/2 140/34/2 138/36/2
f 138/36/2 140/34/2 141/35/2
f 141/35/2 140/34/2 142/32/2
f 140/34/2 143/33/2 142/32/2
f 143/33/2 144/26/2 142/32/2
f 142/32/2 144/26/2 145/31/2
f 145/31/2 144/26/2 146/30/2
f 146/30/2 144/26/2 147/29/2
f 147/29/2 144/26/2 148/28/2
f 148/28/2 144/26/2 149/27/2
f 149/27/2 144/26/2 150/25/2
f 144/26/2 151/21/2 150/25/2
f 150/25/2 151/21/2 152/24/2
f 152/24/2 151/21/2 125/22/2
f 126/23/2 125/22/2 151/21/2
f 153/77/11 154/78/12 155/79/13
f 154/78/12 153/77/11 156/80/14
f 157/80/15 158/77/16 159/78/17
f 160/79/18 159/78/17 158/77/16
f 161/81/19 162/82/20 163/83/21
f 162/82/20 161/81/19 164/84/22
f 165/84/23 166/81/24 167/82/25
f 168/83/26 167/82/25 166/81/24
f 169/85/27 162/86/20 170/87/28
f 162/86/20 169/85/27 163/88/21
f 168/88/26 171/85/29 167/86/25
f 172/87/30 167/86/25 171/85/29
f 173/89/31 174/90/31 175/91/31
f 174/90/31 173/89/31 176/92/31
f 177/92/32 178/89/32 179/90/32
f 180/91/32 179/90/32 178/89/32
f 181/93/5 182/94/5 183/95/5
f 182/94/5 181/93/5 184/96/5
f 185/96/6 186/93/6 187/94/6
f 188/95/6 187/94/6 186/93/6
f 189/97/33 190/98/33 191/99/33
f 190/98/33 189/97/33 192/100/33
f 193/100/34 194/97/34 195/98/34
f 196/99/34 195/98/34 194/97/34
f 197/101/35 198/102/36 199/103/37
f 198/102/36 197/101/35 200/104/38
f 201/104/39 202/101/40 203/102/41
f 204/103/42 203/102/41 202/101/40
f 197/105/35 205/106/43 200/107/38
f 205/106/43 197/105/35 206/108/44
f 207/108/45 202/105/40 208/106/46
f 201/107/39 208/106/46 202/105/40
f 206/109/44 209/110/47 205/111/43
f 209/110/47 206/109/44 210/112/48
f 211/112/49 207/109/45 212/110/50
f 208/111/46 212/110/50 207/109/45
f 210/113/48 213/114/51 209/115/47
f 213/114/51 210/113/48 214/116/52
f 215/116/53 211/113/49 216/114/54
f 212/115/50 216/114/54 211/113/49
f 214/117/52 217/118/55 213/119/51
f 217/118/55 214/117/52 218/120/56
f 219/120/57 215/117/53 220/118/58
f 216/119/54 220/118/58 215/117/53
f 218/121/56 221/122/59 217/123/55
f 221/122/59 218/121/56 222/124/60
f 223/124/61 219/121/57 224/122/62
f 220/123/58 224/122/62 219/121/57
f 154/125/12 222/126/60 155/127/13
f 222/126/60 154/125/12 221/128/59
f 224/128/62 159/125/17 223/126/61
f 160/127/18 223/126/61 159/125/17
f 225/129/63 153/130/11 226/131/64
f 153/130/11 225/129/63 156/132/14
f 157/132/15 227/129/65 158/130/16
f 228/131/66 158/130/16 227/129/65
f 225/133/63 229/134/67 230/135/68
f 229/134/67 225/133/63 226/136/64
f 228/136/66 227/133/65 231/134/69
f 232/135/70 231/134/69 227/133/65
f 230/137/68 233/138/71 234/139/72
f 233/138/71 230/137/68 229/140/67
f 231/140/69 232/137/70 235/138/73
f 236/139/74 235/138/73 232/137/70
f 234/141/72 237/142/75 238/143/76
f 237/142/75 234/141/72 233/144/71
f 235/144/73 236/141/74 239/142/77
f 240/143/78 239/142/77 236/141/74
f 238/145/76 164/146/22 161/147/19
f 164/146/22 238/145/76 237/148/75
f 239/148/77 240/145/78 165/146/23
f 166/147/24 165/146/23 240/145/78
f 198/149/36 170/150/28 199/151/37
f 170/150/28 198/149/36 169/152/27
f 171/152/29 203/149/41 172/150/30
f 204/151/42 172/150/30 203/149/41
f 241/153/79 242/154/79 243/155/79
f 242/154/79 241/153/79 244/156/79
f 245/156/80 246/153/80 247/154/80
f 248/155/80 247/154/80 246/153/80
f 249/157/1 250/158/1 251/159/1
f 250/158/1 249/157/1 252/160/1
f 253/160/2 254/157/2 255/158/2
f 256/159/2 255/158/2 254/157/2
