# SSTK version 0.8.0
# 2
mtllib original-2.mtl
o group_0/ID10#ID10
v 0.386590 -0.543080 0.239788
v 0.386590 -0.438745 0.259704
v 0.386590 -0.543080 0.259704
v 0.386590 -0.438745 0.239788
v 0.386590 -0.438745 0.239788
v 0.386590 -0.543080 0.239788
v 0.386590 -0.438745 0.259704
v 0.386590 -0.543080 0.259704
v 0.386590 -0.438745 0.259704
v -0.379869 -0.543080 0.259704
v 0.386590 -0.543080 0.259704
v -0.379869 -0.438745 0.259704
v -0.379869 -0.438745 0.259704
v 0.386590 -0.438745 0.259704
v -0.379869 -0.543080 0.259704
v 0.386590 -0.543080 0.259704
v 0.386590 -0.543080 0.239788
v -0.379869 -0.543080 0.259704
v -0.379869 -0.543080 0.239788
v 0.386590 -0.543080 0.259704
v 0.386590 -0.543080 0.259704
v 0.386590 -0.543080 0.239788
v -0.379869 -0.543080 0.259704
v -0.379869 -0.543080 0.239788
v -0.379869 -0.543080 0.239788
v 0.386590 -0.438745 0.239788
v 0.386590 -0.543080 0.239788
v -0.379869 -0.438745 0.239788
v -0.379869 -0.438745 0.239788
v -0.379869 -0.543080 0.239788
v 0.386590 -0.438745 0.239788
v 0.386590 -0.543080 0.239788
v -0.379869 -0.438745 0.259704
v 0.386590 -0.438745 0.239788
v -0.379869 -0.438745 0.239788
v 0.386590 -0.438745 0.259704
v 0.386590 -0.438745 0.259704
v -0.379869 -0.438745 0.259704
v 0.386590 -0.438745 0.239788
v -0.379869 -0.438745 0.239788
v -0.379869 -0.438745 0.239788
v -0.379869 -0.543080 0.259704
v -0.379869 -0.438745 0.259704
v -0.379869 -0.543080 0.239788
v -0.379869 -0.543080 0.239788
v -0.379869 -0.438745 0.239788
v -0.379869 -0.543080 0.259704
v -0.379869 -0.438745 0.259704
vt 1.521201 9.289666
vt 1.538772 9.294688
vt 1.523865 9.290427
vt 1.536109 9.293927
vt 1.55586 9.299571
vt 1.49329 9.462076
vt 1.540952 9.295311
vt 1.508197 9.466337
vt 1.521193 9.289664
vt 1.476194 9.45719
vt 1.473531 9.456429
vt 1.523857 9.290425
vt 1.490561 9.461296
vt 1.553131 9.298792
vt 1.538223 9.294531
vt 1.505468 9.465557
vt 1.491507 9.461566
vt 1.536505 9.29404
vt 1.488843 9.460805
vt 1.539169 9.294801
vt 1.488447 9.460692
vt 1.476202 9.457192
vt 1.49111 9.461453
vt 1.473539 9.456431
vn 1 0 0
vn -1 0 0
vn 0 0 1
vn 0 0 -1
vn 0 -1 0
vn 0 1 0
usemtl material_0_0
f 1/1/1 2/2/1 3/3/1
f 2/2/1 1/1/1 4/4/1
f 5/4/2 6/1/2 7/2/2
f 8/3/2 7/2/2 6/1/2
f 9/5/3 10/6/3 11/7/3
f 10/6/3 9/5/3 12/8/3
f 13/8/4 14/5/4 15/6/4
f 16/7/4 15/6/4 14/5/4
f 17/9/5 18/10/5 19/11/5
f 18/10/5 17/9/5 20/12/5
f 21/12/6 22/9/6 23/10/6
f 24/11/6 23/10/6 22/9/6
f 25/13/4 26/14/4 27/15/4
f 26/14/4 25/13/4 28/16/4
f 29/16/3 30/13/3 31/14/3
f 32/15/3 31/14/3 30/13/3
f 33/17/6 34/18/6 35/19/6
f 34/18/6 33/17/6 36/20/6
f 37/20/5 38/17/5 39/18/5
f 40/19/5 39/18/5 38/17/5
f 41/21/2 42/22/2 43/23/2
f 42/22/2 41/21/2 44/24/2
f 45/24/1 46/21/1 47/22/1
f 48/23/1 47/22/1 46/21/1
