# SSTK version 0.8.0
# 26
mtllib original-26.mtl
o #ID124
v 0.164969 -0.258613 -0.449726
v 0.164506 -0.271106 -0.439709
v 0.167474 -0.259630 -0.449726
v 0.167474 -0.259630 -0.449726
v 0.164506 -0.271106 -0.439709
v 0.164969 -0.258613 -0.449726
v 0.202306 -0.259630 -0.449726
v 0.164506 -0.271106 -0.439709
v 0.205274 -0.271106 -0.439709
v 0.167474 -0.259630 -0.449726
v 0.167474 -0.259630 -0.449726
v 0.202306 -0.259630 -0.449726
v 0.164506 -0.271106 -0.439709
v 0.205274 -0.271106 -0.439709
v 0.204811 -0.258613 -0.449726
v 0.167474 -0.259630 -0.449726
v 0.202306 -0.259630 -0.449726
v 0.164969 -0.258613 -0.449726
v 0.206645 -0.255834 -0.449726
v 0.163135 -0.255834 -0.449726
v 0.207316 -0.252038 -0.449726
v 0.162464 -0.252038 -0.449726
v 0.207316 0.374110 -0.449726
v 0.162464 0.374110 -0.449726
v 0.206645 0.377906 -0.449726
v 0.163135 0.377906 -0.449726
v 0.204811 0.380685 -0.449726
v 0.164969 0.380685 -0.449726
v 0.202306 0.381702 -0.449726
v 0.167474 0.381702 -0.449726
v 0.167474 0.381702 -0.449726
v 0.202306 0.381702 -0.449726
v 0.164969 0.380685 -0.449726
v 0.204811 0.380685 -0.449726
v 0.163135 0.377906 -0.449726
v 0.206645 0.377906 -0.449726
v 0.162464 0.374110 -0.449726
v 0.207316 0.374110 -0.449726
v 0.162464 -0.252038 -0.449726
v 0.207316 -0.252038 -0.449726
v 0.163135 -0.255834 -0.449726
v 0.206645 -0.255834 -0.449726
v 0.164969 -0.258613 -0.449726
v 0.204811 -0.258613 -0.449726
v 0.167474 -0.259630 -0.449726
v 0.202306 -0.259630 -0.449726
v 0.161574 -0.270047 -0.439709
v 0.161574 -0.270047 -0.439709
v 0.204811 -0.258613 -0.449726
v 0.202306 -0.259630 -0.449726
v 0.205274 -0.271106 -0.439709
v 0.205274 -0.271106 -0.439709
v 0.202306 -0.259630 -0.449726
v 0.204811 -0.258613 -0.449726
v 0.205274 0.393178 -0.439709
v 0.167474 0.381702 -0.449726
v 0.202306 0.381702 -0.449726
v 0.164506 0.393178 -0.439709
v 0.164506 0.393178 -0.439709
v 0.205274 0.393178 -0.439709
v 0.167474 0.381702 -0.449726
v 0.202306 0.381702 -0.449726
v 0.164506 0.393178 -0.439709
v 0.164969 0.380685 -0.449726
v 0.167474 0.381702 -0.449726
v 0.167474 0.381702 -0.449726
v 0.164969 0.380685 -0.449726
v 0.164506 0.393178 -0.439709
v 0.161574 0.392119 -0.439709
v 0.163135 0.377906 -0.449726
v 0.163135 0.377906 -0.449726
v 0.161574 0.392119 -0.439709
v 0.158642 0.385270 -0.439709
v 0.162464 0.374110 -0.449726
v 0.162464 0.374110 -0.449726
v 0.158642 0.385270 -0.439709
v 0.158642 -0.263198 -0.439709
v 0.162464 0.374110 -0.449726
v 0.158642 0.385270 -0.439709
v 0.162464 -0.252038 -0.449726
v 0.162464 -0.252038 -0.449726
v 0.158642 -0.263198 -0.439709
v 0.162464 0.374110 -0.449726
v 0.158642 0.385270 -0.439709
v 0.162464 -0.252038 -0.449726
v 0.158642 -0.263198 -0.439709
v 0.163135 -0.255834 -0.449726
v 0.163135 -0.255834 -0.449726
v 0.158642 -0.263198 -0.439709
v 0.162464 -0.252038 -0.449726
v 0.206645 -0.255834 -0.449726
v 0.208206 -0.270047 -0.439709
v 0.208206 -0.270047 -0.439709
v 0.206645 -0.255834 -0.449726
v 0.207316 -0.252038 -0.449726
v 0.211138 -0.263198 -0.439709
v 0.211138 -0.263198 -0.439709
v 0.207316 -0.252038 -0.449726
v 0.207316 0.374110 -0.449726
v 0.211138 -0.263198 -0.439709
v 0.211138 0.385270 -0.439709
v 0.207316 -0.252038 -0.449726
v 0.207316 -0.252038 -0.449726
v 0.207316 0.374110 -0.449726
v 0.211138 -0.263198 -0.439709
v 0.211138 0.385270 -0.439709
v 0.207316 0.374110 -0.449726
v 0.211138 0.385270 -0.439709
v 0.206645 0.377906 -0.449726
v 0.206645 0.377906 -0.449726
v 0.211138 0.385270 -0.439709
v 0.207316 0.374110 -0.449726
v 0.208206 0.392119 -0.439709
v 0.204811 0.380685 -0.449726
v 0.204811 0.380685 -0.449726
v 0.208206 0.392119 -0.439709
v 0.205274 0.393178 -0.439709
v 0.202306 0.381702 -0.449726
v 0.202306 0.381702 -0.449726
v 0.205274 0.393178 -0.439709
v 0.159428 0.389224 -0.439709
v 0.159428 0.389224 -0.439709
v 0.159428 -0.267152 -0.439709
v 0.159428 -0.267152 -0.439709
v 0.210352 -0.267152 -0.439709
v 0.210352 -0.267152 -0.439709
v 0.210352 0.389224 -0.439709
v 0.210352 0.389224 -0.439709
vt 0.09844951 8.693518
vt 0.09956503 8.690522
vt 0.09913106 8.693318
vt 0.1161635 8.67424
vt 0.1090652 8.672742
vt 0.1178811 8.671224
vt 0.1086313 8.675538
vt 0.1255146 8.685785
vt 0.1175804 8.687068
vt 0.1251127 8.685771
vt 0.1168989 8.687269
vt 0.1255292 8.686009
vt 0.1161203 8.687629
vt 0.1251526 8.686383
vt 0.1154534 8.688053
vt 0.03908226 8.752227
vt 0.02938305 8.753897
vt 0.03841531 8.752651
vt 0.02900642 8.754272
vt 0.03763676 8.753011
vt 0.02902102 8.754495
vt 0.03695522 8.753212
vt 0.02942294 8.754509
vt 0.09932611 8.691441
vt 0.09966194 8.688666
vt 0.1004416 8.688445
vt 0.1249185 8.665538
vt 0.1245166 8.665525
vt 0.1262341 8.662508
vt 0.06914669 8.755873
vt 0.06305184 8.757774
vt 0.07058411 8.756476
vt 0.06033082 8.757392
vt 0.04506577 8.75912
vt 0.04738486 8.759488
vt 0.04778678 8.759502
vt 0.01530626 8.778306
vt 0.01809917 8.778453
vt 0.01811377 8.778677
vt -0.002117214 8.804314
vt -0.00460275 8.803556
vt -0.001740584 8.803939
vt 0.0890006 8.74468
vt 0.0027244 8.813255
vt -0.0001377665 8.812871
vt 0.08879475 8.747411
vt 0.08244368 8.747232
vt 0.08264953 8.744501
vt 0.08311062 8.746808
vt 0.08505905 8.728379
vt 0.08617343 8.725243
vt 0.0858376 8.728018
vt 0.1396734 8.675634
vt 0.1396588 8.67541
vt 0.1414628 8.672382
vt 0.1464839 8.707724
vt 0.1468605 8.70735
vt 0.1483426 8.704709
vt 0.05780198 8.794517
vt 0.145731 8.725658
vt 0.05659268 8.793849
vt 0.1438723 8.728673
vt 0.06380992 8.794388
vt 0.06260061 8.79372
vt 0.06314297 8.794813
vt 0.07482549 8.780503
vt 0.07616477 8.781126
vt 0.07694332 8.780765
vt 0.0746589 8.762315
vt 0.07609632 8.762918
vt 0.07677787 8.762717
vt 0.1239376 8.666071
vt 0.1252533 8.66304
vt 0.1257417 8.663043
vt 0.0464395 8.758699
vt 0.04595108 8.758697
vt 0.04875859 8.759067
vt 0.01813716 8.775601
vt 0.01807089 8.775376
vt 0.02093006 8.775747
vt -0.001415488 8.80294
vt -0.004274659 8.802569
vt -0.003901024 8.802183
vt 0.08280045 8.746626
vt 0.08233937 8.74432
vt 0.08305279 8.743875
vt 0.08613332 8.724413
vt 0.08638565 8.721662
vt 0.0872477 8.721278
vt 0.1380532 8.673149
vt 0.1398426 8.669897
vt 0.1399089 8.670122
vt 0.1467417 8.705376
vt 0.1485974 8.702348
vt 0.1482238 8.702735
vt 0.06422764 8.794617
vt 0.06368528 8.793524
vt 0.06297186 8.793969
vt 0.07390366 8.761431
vt 0.07602263 8.761834
vt 0.07468335 8.76121
vt 0.07501626 8.777858
vt 0.07713409 8.778121
vt 0.07587831 8.777473
vn 0.47410902278917005 0.49786351030573983 0.7261904430767073
vn 0.22179669022202483 0.6049228468087825 0.764770931465961
vn 0.24404482489126794 0.6010850090571188 0.7610117839630302
vn -0.24404482489126794 -0.6010850090571188 -0.7610117839630302
vn -0.22179669022202483 -0.6049228468087825 -0.764770931465961
vn -0.47410902278917005 -0.49786351030573983 -0.7261904430767073
vn 0 0.6575585149084313 0.7534034772095349
vn 0 -0.6575585149084313 -0.7534034772095349
vn 0 0 1
vn 0 0 -1
vn 0.37217402491802903 0.5442322470598535 0.7518628574657062
vn -0.37217402491802903 -0.5442322470598535 -0.7518628574657062
vn -0.4741090227891722 0.49786351030574 0.726190443076706
vn -0.24404482489127008 0.6010850090571188 0.7610117839630294
vn -0.22179669022202697 0.6049228468087825 0.7647709314659602
vn 0.22179669022202697 -0.6049228468087825 -0.7647709314659602
vn 0.24404482489127008 -0.6010850090571188 -0.7610117839630294
vn 0.4741090227891722 -0.49786351030574 -0.726190443076706
vn 0 -0.6575585149084313 0.7534034772095349
vn 0 0.6575585149084313 -0.7534034772095349
vn 0.22179669022202475 -0.6049228468087825 0.764770931465961
vn 0.47410902278917005 -0.49786351030573983 0.7261904430767073
vn 0.2440448248912679 -0.6010850090571188 0.7610117839630302
vn -0.2440448248912679 0.6010850090571188 -0.7610117839630302
vn -0.47410902278917005 0.49786351030573983 -0.7261904430767073
vn -0.22179669022202475 0.6049228468087825 -0.764770931465961
vn 0.37217402491802903 -0.5442322470598535 0.7518628574657062
vn 0.795172511895365 -0.23369302357210803 0.5595428911707677
vn -0.795172511895365 0.23369302357210803 -0.5595428911707677
vn -0.37217402491802903 0.5442322470598535 -0.7518628574657062
vn 0.848068912579873 -0.16670231190006474 0.5029805748960544
vn 0.8555983188662583 -0.15130074122333184 0.49503495074439235
vn -0.8555983188662583 0.15130074122333184 -0.49503495074439235
vn -0.848068912579873 0.16670231190006474 -0.5029805748960544
vn 0.9342998269156039 0 0.3564881953522059
vn -0.9342998269156039 0 -0.3564881953522059
vn 0.8555983188662583 0.15130074122333184 0.49503495074439235
vn 0.848068912579873 0.16670231190006474 0.5029805748960544
vn 0.795172511895365 0.23369302357210803 0.5595428911707677
vn -0.795172511895365 -0.23369302357210803 -0.5595428911707677
vn -0.848068912579873 -0.16670231190006474 -0.5029805748960544
vn -0.8555983188662583 -0.15130074122333184 -0.49503495074439235
vn -0.7951725118953666 0.23369302357210808 0.5595428911707654
vn -0.37217402491803114 0.5442322470598535 0.7518628574657051
vn 0.37217402491803114 -0.5442322470598535 -0.7518628574657051
vn 0.7951725118953666 -0.23369302357210808 -0.5595428911707654
vn -0.8555983188662597 0.1513007412233319 0.4950349507443899
vn -0.8480689125798744 0.1667023119000648 0.5029805748960521
vn 0.8480689125798744 -0.1667023119000648 -0.5029805748960521
vn 0.8555983188662597 -0.1513007412233319 -0.4950349507443899
vn -0.934299826915605 0 0.35648819535220316
vn 0.934299826915605 0 -0.35648819535220316
vn -0.8555983188662597 -0.15130074122333179 0.4950349507443899
vn -0.8480689125798744 -0.16670231190006468 0.5029805748960521
vn -0.7951725118953666 -0.23369302357210797 0.5595428911707654
vn 0.7951725118953666 0.23369302357210797 -0.5595428911707654
vn 0.8480689125798744 0.16670231190006468 -0.5029805748960521
vn 0.8555983188662597 0.15130074122333179 -0.4950349507443899
vn -0.3721740249180312 -0.5442322470598534 0.7518628574657052
vn -0.4741090227891722 -0.49786351030573983 0.726190443076706
vn 0.4741090227891722 0.49786351030573983 -0.726190443076706
vn 0.3721740249180312 0.5442322470598534 -0.7518628574657052
vn -0.22179669022202703 -0.6049228468087825 0.7647709314659602
vn -0.24404482489127016 -0.6010850090571188 0.7610117839630294
vn 0.24404482489127016 0.6010850090571188 -0.7610117839630294
vn 0.22179669022202703 0.6049228468087825 -0.7647709314659602
vn 0.6652678748714898 -0.3606249593163989 0.6537341152043524
vn -0.6652678748714898 0.3606249593163989 -0.6537341152043524
vn 0.6652678748714898 0.3606249593163989 0.6537341152043524
vn -0.6652678748714898 -0.3606249593163989 -0.6537341152043524
vn -0.6652678748714916 0.36062495931639893 0.6537341152043505
vn 0.6652678748714916 -0.36062495931639893 -0.6537341152043505
vn -0.6652678748714916 -0.3606249593163988 0.6537341152043505
vn 0.6652678748714916 0.3606249593163988 -0.6537341152043505
usemtl material_0_0
f 1/1/1 2/2/2 3/3/3
f 4/3/4 5/2/5 6/1/6
f 7/4/7 8/5/7 9/6/7
f 8/5/7 7/4/7 10/7/7
f 11/7/8 12/4/8 13/5/8
f 14/6/8 13/5/8 12/4/8
f 15/8/9 16/9/9 17/10/9
f 16/9/9 15/8/9 18/11/9
f 18/11/9 15/8/9 19/12/9
f 18/11/9 19/12/9 20/13/9
f 20/13/9 19/12/9 21/14/9
f 20/13/9 21/14/9 22/15/9
f 22/15/9 21/14/9 23/16/9
f 22/15/9 23/16/9 24/17/9
f 24/17/9 23/16/9 25/18/9
f 24/17/9 25/18/9 26/19/9
f 26/19/9 25/18/9 27/20/9
f 26/19/9 27/20/9 28/21/9
f 28/21/9 27/20/9 29/22/9
f 28/21/9 29/22/9 30/23/9
f 31/23/10 32/22/10 33/21/10
f 32/22/10 34/20/10 33/21/10
f 33/21/10 34/20/10 35/19/10
f 34/20/10 36/18/10 35/19/10
f 35/19/10 36/18/10 37/17/10
f 36/18/10 38/16/10 37/17/10
f 37/17/10 38/16/10 39/15/10
f 38/16/10 40/14/10 39/15/10
f 39/15/10 40/14/10 41/13/10
f 40/14/10 42/12/10 41/13/10
f 41/13/10 42/12/10 43/11/10
f 42/12/10 44/8/10 43/11/10
f 43/11/10 44/8/10 45/9/10
f 46/10/10 45/9/10 44/8/10
f 1/24/1 47/25/11 2/26/2
f 5/26/5 48/25/12 6/24/6
f 49/27/13 50/28/14 51/29/15
f 52/29/16 53/28/17 54/27/18
f 55/30/19 56/31/19 57/32/19
f 56/31/19 55/30/19 58/33/19
f 59/33/20 60/30/20 61/31/20
f 62/32/20 61/31/20 60/30/20
f 63/34/21 64/35/22 65/36/23
f 66/36/24 67/35/25 68/34/26
f 69/37/27 70/38/28 64/39/22
f 67/39/25 71/38/29 72/37/30
f 70/40/28 73/41/31 74/42/32
f 75/42/33 76/41/34 71/40/29
f 77/43/35 78/44/35 79/45/35
f 78/44/35 77/43/35 80/46/35
f 81/46/36 82/43/36 83/44/36
f 84/45/36 83/44/36 82/43/36
f 85/47/37 86/48/38 87/49/39
f 88/49/40 89/48/41 90/47/42
f 87/50/39 47/51/11 1/52/1
f 6/52/6 48/51/12 88/50/40
f 91/53/43 49/54/13 92/55/44
f 93/55/45 54/54/18 94/53/46
f 95/56/47 91/57/43 96/58/48
f 97/58/49 94/57/46 98/56/50
f 99/59/51 100/60/51 101/61/51
f 100/60/51 99/59/51 102/62/51
f 103/62/52 104/59/52 105/60/52
f 106/61/52 105/60/52 104/59/52
f 107/63/53 108/64/54 109/65/55
f 110/65/56 111/64/57 112/63/58
f 113/66/59 114/67/60 109/68/55
f 110/68/56 115/67/61 116/66/62
f 117/69/63 118/70/64 114/71/60
f 115/71/61 119/70/65 120/69/66
f 49/72/13 51/73/15 92/74/44
f 93/74/45 52/73/16 54/72/18
f 63/75/21 69/76/27 64/77/22
f 67/77/25 72/76/30 68/75/26
f 69/78/27 121/79/67 70/80/28
f 71/80/29 122/79/68 72/78/30
f 70/81/28 121/82/67 73/83/31
f 76/83/34 122/82/68 71/81/29
f 87/84/39 86/85/38 123/86/69
f 124/86/70 89/85/41 88/84/40
f 87/87/39 123/88/69 47/89/11
f 48/89/12 124/88/70 88/87/40
f 91/90/43 92/91/44 125/92/71
f 126/92/72 93/91/45 94/90/46
f 91/93/43 125/94/71 96/95/48
f 97/95/49 126/94/72 94/93/46
f 109/96/55 108/97/54 127/98/73
f 128/98/74 111/97/57 110/96/56
f 117/99/63 114/100/60 113/101/59
f 116/101/62 115/100/61 120/99/66
f 113/102/59 109/103/55 127/104/73
f 128/104/74 110/103/56 116/102/62
