# SSTK version 0.8.0
# 8
mtllib original-8.mtl
o CGM_LCD_Monitor_Pillar__2_1/CGM_LCD_Monitor_Pillar__2/mesh6/mesh6-geometry#mesh6-geometry
v -0.021058 0.389529 -0.262555
v 0.003734 -0.382294 -0.269198
v -0.021058 -0.382294 -0.262555
v 0.003734 0.389529 -0.269198
v -0.019405 -0.382294 -0.259692
v -0.039207 0.389529 -0.244406
v -0.019405 0.389529 -0.259692
v 0.028526 -0.382294 -0.262555
v -0.036345 -0.382294 -0.242753
v 0.003734 -0.382294 -0.265892
v -0.039207 -0.382294 -0.244406
v -0.036345 0.389529 -0.242753
v 0.003734 0.389529 -0.265892
v 0.028526 0.389529 -0.262555
v -0.045850 -0.382294 -0.219613
v -0.042545 0.389529 -0.219613
v 0.026873 0.389529 -0.259692
v 0.046675 0.389529 -0.244406
v 0.026873 -0.382294 -0.259692
v -0.042545 -0.382294 -0.219613
v -0.045850 0.389529 -0.219613
v 0.043813 0.389529 -0.242753
v 0.046675 -0.382294 -0.244406
v 0.043813 -0.382294 -0.242753
v -0.045850 -0.050068 -0.213002
v -0.045850 -0.382294 -0.171682
v -0.042545 0.389529 -0.170029
v 0.053318 0.389529 -0.219613
v 0.050013 0.389529 -0.219613
v -0.042545 0.197854 -0.213002
v -0.045850 -0.057517 -0.210747
v -0.045850 0.197854 -0.213002
v -0.042545 -0.382294 -0.170029
v -0.045850 -0.062464 -0.204738
v -0.045850 0.389529 -0.171682
v -0.042545 0.210250 -0.204738
v 0.050013 -0.382294 -0.219613
v 0.053318 -0.382294 -0.219613
v -0.042545 0.205303 -0.210747
v -0.042545 -0.050068 -0.213002
v -0.045850 0.205303 -0.210747
v -0.045850 -0.042618 -0.210747
v -0.054114 -0.382294 -0.170029
v -0.042545 -0.062464 -0.170029
v -0.045850 -0.062464 -0.171682
v -0.054114 0.389529 -0.171682
v -0.045850 0.210250 -0.171682
v -0.042545 0.210250 -0.170029
v 0.053318 0.197854 -0.213002
v 0.053318 0.389529 -0.171682
v 0.050013 -0.050068 -0.213002
v -0.042545 -0.057517 -0.210747
v -0.042545 0.190405 -0.210747
v -0.042545 -0.042618 -0.210747
v -0.045850 0.210250 -0.204738
v -0.045850 0.190405 -0.210747
v -0.054114 -0.382294 -0.171682
v -0.042545 -0.062464 -0.204738
v -0.054114 -0.062464 -0.171682
v -0.054114 0.389529 -0.170029
v -0.054114 0.210250 -0.170029
v 0.053318 0.205303 -0.210747
v 0.053318 -0.050068 -0.213002
v 0.050013 -0.382294 -0.170029
v 0.050013 0.389529 -0.170029
v 0.053318 0.210250 -0.204738
v 0.050013 -0.057517 -0.210747
v 0.050013 0.197854 -0.213002
v -0.045850 -0.037671 -0.204738
v -0.054114 -0.062464 -0.170029
v -0.054114 0.210250 -0.171682
v 0.053318 -0.057517 -0.210747
v 0.053318 0.190405 -0.210747
v 0.053318 -0.382294 -0.171682
v 0.050013 -0.062464 -0.204738
v 0.061582 0.389529 -0.170029
v 0.050013 0.210250 -0.170029
v 0.053318 0.210250 -0.171682
v 0.050013 0.205303 -0.210747
v 0.050013 -0.042618 -0.210747
v -0.042545 0.185458 -0.204738
v -0.045850 0.185458 -0.204738
v -0.042545 -0.037671 -0.204738
v 0.050013 0.210250 -0.204738
v 0.050013 0.190405 -0.210747
v 0.053318 -0.062464 -0.204738
v 0.053318 -0.042618 -0.210747
v 0.053318 -0.062464 -0.171682
v 0.061582 -0.382294 -0.170029
v 0.050013 -0.062464 -0.170029
v 0.061582 0.389529 -0.171682
v 0.061582 0.210250 -0.171682
v -0.045850 -0.037671 -0.171682
v -0.042545 -0.037671 -0.170029
v 0.053318 0.185458 -0.204738
v 0.050013 0.185458 -0.204738
v 0.061582 -0.382294 -0.171682
v 0.061582 -0.062464 -0.170029
v 0.061582 0.210250 -0.170029
v 0.050013 -0.037671 -0.204738
v -0.042545 0.185458 -0.170029
v -0.045850 0.185458 -0.171682
v 0.053318 -0.037671 -0.204738
v 0.061582 -0.062464 -0.171682
v -0.054114 0.185458 -0.171682
v -0.054114 -0.037671 -0.170029
v 0.053318 0.185458 -0.171682
v 0.050013 -0.037671 -0.170029
v 0.053318 -0.037671 -0.171682
v -0.054114 -0.037671 -0.171682
v -0.054114 0.185458 -0.170029
v 0.050013 0.185458 -0.170029
v 0.061582 -0.037671 -0.171682
v 0.061582 0.185458 -0.170029
v 0.061582 -0.037671 -0.170029
v 0.061582 0.185458 -0.171682
vn -0.5000001748438421 0 -0.866025302838276
vn 0 0 -1
vn 0 -1 0
vn -0.8660253028382763 0 -0.5000001748438414
vn 0 1 0
vn 0.5000001748438414 0 -0.8660253028382763
vn 0.5000001748438421 0 0.866025302838276
vn 0.8660253028382763 0 0.5000001748438414
vn 0 0 1
vn -0.9914448886106774 0 -0.13052598533534068
vn 0.866025302838276 0 -0.5000001748438421
vn -0.5000001748438414 0 0.8660253028382763
vn 0.9914448886106774 0 0.13052598533534068
vn -1 0 0
vn -0.866025302838276 0 0.5000001748438421
vn 0.9914448886106774 0 -0.13052598533534157
vn 1 0 0
vn -0.9914448886106774 0 0.13052598533534157
vn 0 0.5547001962252289 0.8320502943378437
vn 0 -0.5547001962252289 0.8320502943378437
vn 0 0.9412795543079266 0.3376281988250846
vn 0 -0.9412795543079266 0.3376281988250846
vn 0 -0.5547001962252289 -0.8320502943378437
vn 0 0.5547001962252289 -0.8320502943378437
vn 0 -0.9412795543079266 -0.3376281988250846
vn 0 0.9412795543079266 -0.3376281988250846
usemtl material_0_0
f 1//1 2//2 3//1
f 2//2 1//1 4//2
f 5//3 3//3 2//3
f 3//1 6//4 1//1
f 1//5 7//5 4//5
f 4//2 8//6 2//2
f 9//3 3//3 5//3
f 5//3 2//3 10//3
f 6//4 3//1 11//4
f 6//5 12//5 1//5
f 1//5 12//5 7//5
f 4//5 7//5 13//5
f 8//6 4//2 14//6
f 10//3 2//3 8//3
f 9//3 11//3 3//3
f 7//7 9//8 5//7
f 13//9 5//7 10//9
f 15//10 6//4 11//4
f 6//5 16//5 12//5
f 9//8 7//7 12//8
f 5//7 13//9 7//7
f 4//5 13//5 17//5
f 4//5 17//5 14//5
f 18//11 8//6 14//6
f 10//3 8//3 19//3
f 20//3 11//3 9//3
f 10//9 17//12 13//9
f 6//4 15//10 21//10
f 20//3 15//3 11//3
f 21//5 16//5 6//5
f 16//13 9//8 12//8
f 14//5 17//5 22//5
f 8//6 18//11 23//11
f 14//5 22//5 18//5
f 19//3 8//3 24//3
f 17//12 10//9 19//12
f 9//8 16//13 20//13
f 15//10 25//14 21//10
f 15//3 20//3 26//3
f 21//5 27//5 16//5
f 17//12 24//15 22//15
f 28//16 23//11 18//11
f 24//3 8//3 23//3
f 18//5 22//5 29//5
f 24//15 17//12 19//12
f 16//13 30//17 20//13
f 15//10 31//14 25//14
f 32//14 21//10 25//14
f 33//3 26//3 20//3
f 26//14 34//14 15//10
f 35//5 27//5 21//5
f 27//17 36//17 16//13
f 37//18 22//15 24//15
f 23//11 28//16 38//16
f 18//5 29//5 28//5
f 24//3 23//3 37//3
f 22//15 37//18 29//18
f 16//13 39//17 30//17
f 40//17 20//13 30//17
f 15//10 34//14 31//14
f 31//19 40//9 25//9
f 41//14 21//10 32//14
f 42//14 32//14 25//14
f 43//3 26//3 33//3
f 20//13 44//17 33//17
f 34//14 26//14 45//14
f 46//5 27//5 35//5
f 21//10 47//14 35//14
f 36//17 27//17 48//17
f 16//13 36//17 39//17
f 28//16 49//17 38//16
f 37//3 23//3 38//3
f 28//5 29//5 50//5
f 37//18 51//14 29//18
f 39//20 32//9 30//9
f 52//17 20//13 40//17
f 53//17 40//17 30//17
f 34//21 52//19 31//19
f 40//9 31//19 52//19
f 54//20 25//9 40//9
f 55//14 21//10 41//14
f 32//9 39//20 41//20
f 42//14 56//14 32//14
f 25//9 54//20 42//20
f 26//3 43//3 57//3
f 44//9 43//9 33//9
f 44//17 20//13 58//17
f 26//2 59//2 45//2
f 45//5 44//5 34//21
f 27//5 46//5 60//5
f 47//2 46//2 35//2
f 47//14 21//10 55//14
f 27//9 61//9 48//9
f 48//3 55//22 36//22
f 55//22 39//20 36//22
f 28//16 62//17 49//17
f 63//17 38//16 49//17
f 37//3 38//3 64//3
f 65//5 50//5 29//5
f 50//17 66//17 28//16
f 37//18 67//14 51//14
f 68//14 29//18 51//14
f 56//19 30//9 32//9
f 58//17 20//13 52//17
f 53//17 54//17 40//17
f 30//9 56//19 53//19
f 52//19 34//21 58//21
f 39//20 55//22 41//20
f 69//14 56//14 42//14
f 54//20 69//22 42//20
f 43//14 59//14 57//14
f 59//2 26//2 57//2
f 43//9 44//9 70//9
f 34//21 44//5 58//21
f 59//5 44//5 45//5
f 46//14 61//14 60//14
f 61//9 27//9 60//9
f 46//2 47//2 71//2
f 48//3 47//3 55//22
f 61//3 47//3 48//3
f 28//16 66//17 62//17
f 62//20 68//9 49//9
f 72//17 38//16 63//17
f 73//17 63//17 49//17
f 64//3 38//3 74//3
f 64//14 75//14 37//18
f 50//5 65//5 76//5
f 29//18 77//14 65//14
f 66//17 50//17 78//17
f 37//18 75//14 67//14
f 67//19 63//9 51//9
f 79//14 29//18 68//14
f 80//14 68//14 51//14
f 81//17 54//17 53//17
f 82//21 53//19 56//19
f 69//14 82//14 56//14
f 69//22 54//20 83//22
f 59//14 43//14 70//14
f 44//5 59//5 70//5
f 61//14 46//14 71//14
f 47//3 61//3 71//3
f 84//22 62//20 66//22
f 68//9 62//20 79//20
f 85//19 49//9 68//9
f 86//17 38//16 72//17
f 63//9 67//19 72//19
f 73//17 87//17 63//17
f 49//9 85//19 73//19
f 38//16 88//17 74//17
f 64//3 74//3 89//3
f 75//14 64//14 90//14
f 77//9 76//9 65//9
f 50//5 76//5 91//5
f 77//14 29//18 84//14
f 50//2 92//2 78//2
f 66//22 78//3 84//22
f 75//21 72//19 67//19
f 87//20 51//9 63//9
f 84//14 29//18 79//14
f 80//14 85//14 68//14
f 51//9 87//20 80//20
f 81//17 83//17 54//17
f 53//19 82//21 81//21
f 93//14 82//14 69//14
f 94//3 69//22 83//22
f 62//20 84//22 79//20
f 88//17 38//16 86//17
f 72//19 75//21 86//21
f 95//17 87//17 73//17
f 96//21 73//19 85//19
f 88//2 97//2 74//2
f 89//3 74//3 97//3
f 98//9 64//9 89//9
f 64//9 98//9 90//9
f 90//5 88//5 75//21
f 76//9 77//9 99//9
f 76//17 92//17 91//17
f 92//2 50//2 91//2
f 78//3 77//3 84//22
f 99//3 78//3 92//3
f 100//14 85//14 80//14
f 87//20 100//22 80//20
f 101//17 83//17 81//17
f 82//21 101//5 81//21
f 82//14 93//14 102//14
f 94//3 93//3 69//22
f 83//17 101//17 94//17
f 86//21 75//21 88//5
f 95//17 103//17 87//17
f 73//19 96//21 95//21
f 100//14 96//14 85//14
f 97//2 88//2 104//2
f 97//17 98//17 89//17
f 88//5 90//5 98//5
f 77//3 78//3 99//3
f 92//17 76//17 99//17
f 100//22 87//20 103//22
f 102//5 101//5 82//21
f 93//2 105//2 102//2
f 106//3 93//3 94//3
f 101//9 106//9 94//9
f 107//17 103//17 95//17
f 95//21 96//21 107//5
f 108//14 96//14 100//14
f 88//5 98//5 104//5
f 98//17 97//17 104//17
f 103//22 109//3 100//22
f 105//5 101//5 102//5
f 105//2 93//2 110//2
f 93//3 106//3 110//3
f 106//9 101//9 111//9
f 103//17 107//17 109//17
f 112//5 107//5 96//21
f 96//14 108//14 112//14
f 109//3 108//3 100//22
f 101//5 105//5 111//5
f 106//14 105//14 110//14
f 105//14 106//14 111//14
f 107//2 113//2 109//2
f 107//5 112//5 114//5
f 108//9 114//9 112//9
f 108//3 109//3 115//3
f 113//2 107//2 116//2
f 115//3 109//3 113//3
f 107//5 114//5 116//5
f 114//9 108//9 115//9
f 114//17 113//17 116//17
f 113//17 114//17 115//17
usemtl material_1_0
f 3//7 2//9 1//7
f 4//9 1//7 2//9
f 2//5 3//5 5//5
f 1//7 6//8 3//7
f 4//3 7//3 1//3
f 2//9 8//12 4//9
f 5//5 3//5 9//5
f 10//5 2//5 5//5
f 11//8 3//7 6//8
f 1//3 12//3 6//3
f 7//3 12//3 1//3
f 13//3 7//3 4//3
f 14//12 4//9 8//12
f 8//5 2//5 10//5
f 3//5 11//5 9//5
f 5//1 9//4 7//1
f 10//2 5//1 13//2
f 11//8 6//8 15//13
f 12//3 16//3 6//3
f 12//4 7//1 9//4
f 7//1 13//2 5//1
f 17//3 13//3 4//3
f 14//3 17//3 4//3
f 14//12 8//12 18//15
f 19//5 8//5 10//5
f 9//5 11//5 20//5
f 13//2 17//6 10//2
f 21//13 15//13 6//8
f 11//5 15//5 20//5
f 6//3 16//3 21//3
f 12//4 9//4 16//10
f 22//3 17//3 14//3
f 23//15 18//15 8//12
f 18//3 22//3 14//3
f 24//5 8//5 19//5
f 19//6 10//2 17//6
f 20//10 16//10 9//4
f 21//13 25//17 15//13
f 26//5 20//5 15//5
f 16//3 27//3 21//3
f 22//11 24//11 17//6
f 18//15 23//15 28//18
f 23//5 8//5 24//5
f 29//3 22//3 18//3
f 19//6 17//6 24//11
f 20//10 30//14 16//10
f 25//17 31//17 15//13
f 25//17 21//13 32//17
f 20//5 26//5 33//5
f 15//13 34//17 26//17
f 21//3 27//3 35//3
f 16//10 36//14 27//14
f 24//11 22//11 37//16
f 38//18 28//18 23//15
f 28//3 29//3 18//3
f 37//5 23//5 24//5
f 29//16 37//16 22//11
f 30//14 39//14 16//10
f 30//14 20//10 40//14
f 31//17 34//17 15//13
f 25//2 40//2 31//23
f 32//17 21//13 41//17
f 25//17 32//17 42//17
f 33//5 26//5 43//5
f 33//14 44//14 20//10
f 45//17 26//17 34//17
f 35//3 27//3 46//3
f 35//17 47//17 21//13
f 48//14 27//14 36//14
f 39//14 36//14 16//10
f 38//18 49//14 28//18
f 38//5 23//5 37//5
f 50//3 29//3 28//3
f 29//16 51//17 37//16
f 30//2 32//2 39//24
f 40//14 20//10 52//14
f 30//14 40//14 53//14
f 31//23 52//23 34//25
f 52//23 31//23 40//2
f 40//2 25//2 54//24
f 41//17 21//13 55//17
f 41//24 39//24 32//2
f 32//17 56//17 42//17
f 42//24 54//24 25//2
f 57//5 43//5 26//5
f 33//2 43//2 44//2
f 58//14 20//10 44//14
f 45//9 59//9 26//9
f 34//25 44//3 45//3
f 60//3 46//3 27//3
f 35//9 46//9 47//9
f 55//17 21//13 47//17
f 48//2 61//2 27//2
f 36//26 55//26 48//5
f 36//26 39//24 55//26
f 49//14 62//14 28//18
f 49//14 38//18 63//14
f 64//5 38//5 37//5
f 29//3 50//3 65//3
f 28//18 66//14 50//14
f 51//17 67//17 37//16
f 51//17 29//16 68//17
f 32//2 30//2 56//23
f 52//14 20//10 58//14
f 40//14 54//14 53//14
f 53//23 56//23 30//2
f 58//25 34//25 52//23
f 41//24 55//26 39//24
f 42//17 56//17 69//17
f 42//24 69//26 54//24
f 57//17 59//17 43//17
f 57//9 26//9 59//9
f 70//2 44//2 43//2
f 58//25 44//3 34//25
f 45//3 44//3 59//3
f 60//17 61//17 46//17
f 60//2 27//2 61//2
f 71//9 47//9 46//9
f 55//26 47//5 48//5
f 48//5 47//5 61//5
f 62//14 66//14 28//18
f 49//2 68//2 62//24
f 63//14 38//18 72//14
f 49//14 63//14 73//14
f 74//5 38//5 64//5
f 37//16 75//17 64//17
f 76//3 65//3 50//3
f 65//17 77//17 29//16
f 78//14 50//14 66//14
f 67//17 75//17 37//16
f 51//2 63//2 67//23
f 68//17 29//16 79//17
f 51//17 68//17 80//17
f 53//14 54//14 81//14
f 56//23 53//23 82//25
f 56//17 82//17 69//17
f 83//26 54//24 69//26
f 70//17 43//17 59//17
f 70//3 59//3 44//3
f 71//17 46//17 61//17
f 71//5 61//5 47//5
f 66//26 62//24 84//26
f 79//24 62//24 68//2
f 68//2 49//2 85//23
f 72//14 38//18 86//14
f 72//23 67//23 63//2
f 63//14 87//14 73//14
f 73//23 85//23 49//2
f 74//14 88//14 38//18
f 89//5 74//5 64//5
f 90//17 64//17 75//17
f 65//2 76//2 77//2
f 91//3 76//3 50//3
f 84//17 29//16 77//17
f 78//9 92//9 50//9
f 84//26 78//5 66//26
f 67//23 72//23 75//25
f 63//2 51//2 87//24
f 79//17 29//16 84//17
f 68//17 85//17 80//17
f 80//24 87//24 51//2
f 54//14 83//14 81//14
f 81//25 82//25 53//23
f 69//17 82//17 93//17
f 83//26 69//26 94//5
f 79//24 84//26 62//24
f 86//14 38//18 88//14
f 86//25 75//25 72//23
f 73//14 87//14 95//14
f 85//23 73//23 96//25
f 74//9 97//9 88//9
f 97//5 74//5 89//5
f 89//2 64//2 98//2
f 90//2 98//2 64//2
f 75//25 88//3 90//3
f 99//2 77//2 76//2
f 91//14 92//14 76//14
f 91//9 50//9 92//9
f 84//26 77//5 78//5
f 92//5 78//5 99//5
f 80//17 85//17 100//17
f 80//24 100//26 87//24
f 81//14 83//14 101//14
f 81//25 101//3 82//25
f 102//17 93//17 82//17
f 69//26 93//5 94//5
f 94//14 101//14 83//14
f 88//3 75//25 86//25
f 87//14 103//14 95//14
f 95//25 96//25 73//23
f 85//17 96//17 100//17
f 104//9 88//9 97//9
f 89//14 98//14 97//14
f 98//3 90//3 88//3
f 99//5 78//5 77//5
f 99//14 76//14 92//14
f 103//26 87//24 100//26
f 82//25 101//3 102//3
f 102//9 105//9 93//9
f 94//5 93//5 106//5
f 94//2 106//2 101//2
f 95//14 103//14 107//14
f 107//3 96//25 95//25
f 100//17 96//17 108//17
f 104//3 98//3 88//3
f 104//14 97//14 98//14
f 100//26 109//5 103//26
f 102//3 101//3 105//3
f 110//9 93//9 105//9
f 110//5 106//5 93//5
f 111//2 101//2 106//2
f 109//14 107//14 103//14
f 96//25 107//3 112//3
f 112//17 108//17 96//17
f 100//26 108//5 109//5
f 111//3 105//3 101//3
f 110//17 105//17 106//17
f 111//17 106//17 105//17
f 109//9 113//9 107//9
f 114//3 112//3 107//3
f 112//2 114//2 108//2
f 115//5 109//5 108//5
f 116//9 107//9 113//9
f 113//5 109//5 115//5
f 116//3 114//3 107//3
f 115//2 108//2 114//2
f 116//14 113//14 114//14
f 115//14 114//14 113//14
