# SSTK version 0.8.0
# 87
mtllib original-87.mtl
o mesh80/mesh80-geometry#mesh80-geometry
v -0.561140 0.017958 0.030823
v -0.553594 0.005920 0.026189
v -0.554566 0.005920 0.024950
v -0.560352 0.017958 0.031827
v -0.555633 0.005920 0.023947
v -0.552634 0.005920 0.028315
v -0.614992 0.017958 0.031827
v -0.562004 0.017958 0.030012
v -0.559575 0.017958 0.033549
v -0.615769 0.017958 0.033549
v -0.614204 0.017958 0.030823
v -0.557791 0.005920 0.023023
v -0.552334 0.005920 0.030628
v -0.621051 0.005920 0.026189
v -0.620078 0.005920 0.024950
v -0.613340 0.017958 0.030012
v -0.563752 0.017958 0.029263
v -0.559331 0.017958 0.035423
v -0.616013 0.017958 0.035423
v -0.622010 0.005920 0.028315
v -0.560554 0.005920 0.022717
v -0.552334 0.005920 0.084783
v -0.619011 0.005920 0.023947
v -0.611592 0.017958 0.029263
v -0.565990 0.017958 0.029015
v -0.559331 0.017958 0.079289
v -0.600605 0.017958 0.044334
v -0.622311 0.005920 0.030628
v -0.614090 0.005920 0.022717
v -0.597429 0.017958 0.058036
v -0.552634 0.005920 0.087096
v -0.601693 0.017958 0.044404
v -0.599197 0.017958 0.044404
v -0.616013 0.017958 0.079289
v -0.616853 0.005920 0.023023
v -0.609354 0.017958 0.029015
v -0.598364 0.017958 0.058438
v -0.596618 0.017958 0.057502
v -0.559575 0.017958 0.081162
v -0.602681 0.017958 0.044614
v -0.597910 0.017958 0.044615
v -0.622311 0.005920 0.084783
v -0.605921 0.017958 0.057661
v -0.599462 0.017958 0.058691
v -0.604687 0.017958 0.058146
v -0.596011 0.017958 0.056889
v -0.553594 0.005920 0.089223
v -0.603569 0.017958 0.044963
v -0.595739 0.017958 0.045308
v -0.615769 0.017958 0.081162
v -0.605921 0.017958 0.055340
v -0.600764 0.017958 0.058775
v -0.603474 0.017958 0.058494
v -0.595556 0.017958 0.056155
v -0.600746 0.017958 0.057175
v -0.560352 0.017958 0.082884
v -0.604358 0.017958 0.045453
v -0.595739 0.017958 0.047498
v -0.622010 0.005920 0.087096
v -0.604651 0.017958 0.056119
v -0.605790 0.017958 0.055340
v -0.602195 0.017958 0.058705
v -0.595272 0.017958 0.055354
v -0.598592 0.017958 0.056811
v -0.599214 0.017958 0.057013
v -0.602004 0.017958 0.057055
v -0.554566 0.005920 0.090462
v -0.605005 0.017958 0.046051
v -0.602840 0.017958 0.049947
v -0.596790 0.017958 0.046881
v -0.614992 0.017958 0.082884
v -0.603347 0.017958 0.056697
v -0.605334 0.017958 0.050286
v -0.595177 0.017958 0.054545
v -0.597345 0.017958 0.055775
v -0.598064 0.017958 0.056529
v -0.561140 0.017958 0.083888
v -0.605467 0.017958 0.046729
v -0.600615 0.017958 0.045935
v -0.601878 0.017958 0.050268
v -0.603460 0.017958 0.049510
v -0.595870 0.017958 0.047498
v -0.597961 0.017958 0.046379
v -0.621051 0.005920 0.089223
v -0.604943 0.017958 0.050797
v -0.605613 0.017958 0.049703
v -0.595374 0.017958 0.053213
v -0.597165 0.017958 0.055318
v -0.597645 0.017958 0.056179
v -0.562004 0.017958 0.084700
v -0.614204 0.017958 0.083888
v -0.605745 0.017958 0.047486
v -0.603006 0.017958 0.046552
v -0.601957 0.017958 0.046089
v -0.599273 0.017958 0.046046
v -0.600175 0.017958 0.050586
v -0.603797 0.017958 0.048920
v -0.603683 0.017958 0.047259
v -0.603853 0.017958 0.047679
v -0.604436 0.017958 0.051237
v -0.605781 0.017958 0.049048
v -0.595619 0.017958 0.052672
v -0.597219 0.017958 0.054002
v -0.597105 0.017958 0.054807
v -0.555633 0.005920 0.091464
v -0.613340 0.017958 0.084700
v -0.605837 0.017958 0.048321
v -0.603401 0.017958 0.046883
v -0.598303 0.017958 0.050970
v -0.603909 0.017958 0.048143
v -0.620078 0.005920 0.090462
v -0.603810 0.017958 0.051607
v -0.595963 0.017958 0.052214
v -0.598131 0.017958 0.053050
v -0.597559 0.017958 0.053440
v -0.563752 0.017958 0.085449
v -0.611592 0.017958 0.085449
v -0.619011 0.005920 0.091464
v -0.596941 0.017958 0.051487
v -0.600460 0.017958 0.052448
v -0.598939 0.017958 0.052757
v -0.602196 0.017958 0.052140
v -0.557791 0.005920 0.092388
v -0.616853 0.005920 0.092388
v -0.565990 0.017958 0.085696
v -0.614090 0.005920 0.092694
v -0.560554 0.005920 0.092694
v -0.609354 0.017958 0.085696
vn 0.5952519451618494 0.5907687901353286 -0.5446717895972536
vn 0.6746004375545318 0.5878260501484931 -0.4465140360817963
vn -0.5952519451618494 -0.5907687901353286 0.5446717895972536
vn -0.6746004375545318 -0.5878260501484931 0.4465140360817963
vn 0.7114526396732375 0.5830882269300721 -0.39222858273910555
vn -0.7114526396732375 -0.5830882269300721 0.39222858273910555
vn 0.4827274479513135 0.5841318016971272 -0.6525061296574003
vn -0.4827274479513135 -0.5841318016971272 0.6525061296574003
vn 0.7818530794473296 0.5651847416965349 -0.26319568748774863
vn -0.7818530794473296 -0.5651847416965349 0.26319568748774863
vn 0 1 0
vn 0 -1 0
vn 0.4066372095905941 0.5734356556895586 -0.711208639261547
vn -0.4066372095905941 -0.5734356556895586 0.711208639261547
vn 0.8136924250209497 0.5504028258824935 -0.1869795890574471
vn -0.8136924250209497 -0.5504028258824935 0.1869795890574471
vn 0.25273014232776597 0.5409199168233296 -0.8022051600076064
vn -0.25273014232776597 -0.5409199168233296 0.8022051600076064
vn 0.8493170931869323 0.5227948932518969 -0.07311617338344129
vn -0.8493170931869323 -0.5227948932518969 0.07311617338344129
vn -0.6901943031302189 0.5612563638329515 -0.45675279745569713
vn -0.7286380954754531 0.5547835181304861 -0.40162392089200233
vn -0.8018708517569898 0.5330466119239656 -0.26993415237590995
vn 0.8018708517569898 -0.5330466119239656 0.26993415237590995
vn 0.7286380954754531 -0.5547835181304861 0.40162392089200233
vn 0.6901943031302189 -0.5612563638329515 0.45675279745569713
vn -0.6074600136667321 0.5675433015742745 -0.5557759734229123
vn 0.6074600136667321 -0.5675433015742745 0.5557759734229123
vn 0.17510838866065812 0.5200126765740614 -0.8360166675509217
vn -0.17510838866065812 -0.5200126765740614 0.8360166675509217
vn 0.8535916546676606 0.5180381199410408 -0.05493444611240692
vn -0.8535916546676606 -0.5180381199410408 0.05493444611240692
vn -0.8347546952940411 0.5161295225182775 -0.1918200059159822
vn 0.8347546952940411 -0.5161295225182775 0.1918200059159822
vn -0.4908815851175686 0.5652036216046001 -0.6630083977729901
vn 0.4908815851175686 -0.5652036216046001 0.6630083977729901
vn 0.0640348923329132 0.4851345196955865 -0.8720917557021423
vn -0.0640348923329132 -0.4851345196955865 0.8720917557021423
vn 0.8521914772844141 0.5203531507411676 0.05479310684335585
vn -0.8521914772844141 -0.5203531507411676 -0.05479310684335585
vn -0.8710012046719408 0.4855222578694463 -0.07500025715544435
vn 0.8710012046719408 -0.4855222578694463 0.07500025715544435
vn -0.4124022318070946 0.5572800710855035 -0.7206686628204834
vn 0.4124022318070946 -0.5572800710855035 0.7206686628204834
vn 0.048107290247840405 0.4799689370326132 -0.875965471984366
vn -0.048107290247840405 -0.4799689370326132 0.875965471984366
vn 0.8474407872385221 0.5258596349780137 0.07290923415689024
vn -0.8474407872385221 -0.5258596349780137 -0.07290923415689024
vn -0.8752762016417219 0.4803294687606997 -0.05634866706235131
vn 0.8752762016417219 -0.4803294687606997 0.05634866706235131
vn -0.2549586824707134 0.5304490370147921 -0.808467618005123
vn 0.2549586824707134 -0.5304490370147921 0.808467618005123
vn -0.04820691156349964 0.4778223688858801 -0.8771327593185624
vn 0.04820691156349964 -0.4778223688858801 0.8771327593185624
vn 0.8089150743193797 0.557851391852616 0.1856292734106659
vn -0.8089150743193797 -0.557851391852616 -0.1856292734106659
vn -0.8739096742498789 0.48282722649217713 0.05621165902499694
vn 0.8739096742498789 -0.48282722649217713 -0.05621165902499694
vn -0.1762651715407526 0.512584757459541 -0.8403496032734545
vn 0.1762651715407526 -0.512584757459541 0.8403496032734545
vn -0.06418169741195359 0.48228917809956345 -0.8736577467208587
vn 0.06418169741195359 -0.48228917809956345 0.8736577467208587
vn 0.7751993893223995 0.5754160676644771 0.26069571509276684
vn -0.7751993893223995 -0.5754160676644771 -0.26069571509276684
vn -0.8691667416706126 0.48882952731015006 0.0747988529552823
vn 0.8691667416706126 -0.48882952731015006 -0.0747988529552823
vn 0.7020856618446298 0.5978201007748656 0.3868938491908572
vn -0.7020856618446298 -0.5978201007748656 -0.3868938491908572
vn -0.8300341053560714 0.5241741824609989 0.19048572226571175
vn 0.8300341053560714 -0.5241741824609989 -0.19048572226571175
vn 0.664411400200237 0.6044146250371734 0.4395912332214255
vn -0.664411400200237 -0.6044146250371734 -0.4395912332214255
vn -0.7952600534604954 0.5440866502631269 0.2674531068719521
vn 0.7952600534604954 -0.5440866502631269 -0.2674531068719521
vn 0.5841771135463062 0.6108072801049005 0.5344638122263843
vn -0.5841771135463062 -0.6108072801049005 -0.5344638122263843
vn -0.719274867276194 0.5706103755476902 0.39629214554686465
vn 0.719274867276194 -0.5706103755476902 -0.39629214554686465
vn -0.6799935949999426 0.5790232756700854 0.44982302852492817
vn 0.6799935949999426 -0.5790232756700854 -0.44982302852492817
vn 0.4721669115793181 0.6083092374146946 0.6379798423818742
vn -0.4721669115793181 -0.6083092374146946 -0.6379798423818742
vn -0.596357831747228 0.588845548331625 0.5455440007220068
vn 0.596357831747228 -0.588845548331625 -0.5455440007220068
vn 0.39712728688717513 0.6002279905110719 0.6942739210258957
vn -0.39712728688717513 -0.6002279905110719 -0.6942739210258957
vn 0.246314000959651 0.5726717265665474 0.781905689020446
vn -0.246314000959651 -0.5726717265665474 -0.781905689020446
vn -0.4803094448221048 0.5905909243225939 0.6484637208992231
vn -0.40289372691278785 0.5851768939149545 0.7037362060050414
vn 0.40289372691278785 -0.5851768939149545 -0.7037362060050414
vn 0.4803094448221048 -0.5905909243225939 -0.6484637208992231
vn 0.17063461699449584 0.5541338131899517 0.8147512163615992
vn -0.17063461699449584 -0.5541338131899517 -0.8147512163615992
vn -0.24856150203520114 0.5629718723016232 0.7882130744305181
vn -0.1718069309615034 0.5472576890395766 0.8191406474230486
vn 0.1718069309615034 -0.5472576890395766 -0.8191406474230486
vn 0.24856150203520114 -0.5629718723016232 -0.7882130744305181
vn 0.062424599296373125 0.5224717161048698 0.8503684350169163
vn -0.062424599296373125 -0.5224717161048698 -0.8503684350169163
vn -0.06257570978814388 0.5198350194346826 0.8519717325791115
vn 0.06257570978814388 -0.5198350194346826 -0.8519717325791115
vn 0.04689864194620992 0.5177236070707346 0.8542615431267341
vn -0.04689864194620992 -0.5177236070707346 -0.8542615431267341
vn -0.04700113934837282 0.5157340751802899 0.855458506648853
vn 0.04700113934837282 -0.5157340751802899 -0.855458506648853
usemtl material_0_0
f 1//1 2//2 3//1
f 3//3 2//4 1//3
f 4//5 2//2 1//1
f 1//3 2//4 4//6
f 1//1 3//1 5//7
f 5//8 3//3 1//3
f 4//5 6//9 2//2
f 2//4 6//10 4//6
f 7//11 4//11 1//11
f 1//12 4//12 7//12
f 8//13 1//1 5//7
f 5//8 1//3 8//14
f 9//15 6//9 4//5
f 4//6 6//10 9//16
f 10//11 4//11 7//11
f 7//12 4//12 10//12
f 7//11 1//11 11//11
f 11//12 1//12 7//12
f 11//11 1//11 8//11
f 8//12 1//12 11//12
f 8//13 5//7 12//17
f 12//18 5//8 8//14
f 9//15 13//19 6//9
f 6//10 13//20 9//16
f 10//11 9//11 4//11
f 4//12 9//12 10//12
f 7//21 14//22 10//23
f 10//24 14//25 7//26
f 11//27 15//27 7//21
f 7//26 15//28 11//28
f 11//11 8//11 16//11
f 16//12 8//12 11//12
f 17//29 8//13 12//17
f 12//18 8//14 17//30
f 18//31 13//19 9//15
f 9//16 13//20 18//32
f 19//11 9//11 10//11
f 10//12 9//12 19//12
f 7//21 15//27 14//22
f 14//25 15//28 7//26
f 10//23 14//22 20//33
f 20//34 14//25 10//24
f 15//27 11//27 16//35
f 16//36 11//28 15//28
f 16//11 8//11 17//11
f 17//12 8//12 16//12
f 17//29 12//17 21//37
f 21//38 12//18 17//30
f 18//31 22//39 13//19
f 13//20 22//40 18//32
f 19//11 18//11 9//11
f 9//12 18//12 19//12
f 10//23 20//33 19//41
f 19//42 20//34 10//24
f 15//27 16//35 23//43
f 23//44 16//36 15//28
f 16//11 17//11 24//11
f 24//12 17//12 16//12
f 25//45 17//29 21//37
f 21//38 17//30 25//46
f 22//39 18//31 26//47
f 26//48 18//32 22//40
f 19//11 27//11 18//11
f 18//12 27//12 19//12
f 19//41 20//33 28//49
f 28//50 20//34 19//42
f 23//43 16//35 24//51
f 24//52 16//36 23//44
f 24//11 17//11 25//11
f 25//12 17//12 24//12
f 29//53 25//45 21//37
f 21//38 25//46 29//54
f 30//11 26//11 18//11
f 18//12 26//12 30//12
f 26//47 31//55 22//39
f 22//40 31//56 26//48
f 19//11 32//11 27//11
f 27//12 32//12 19//12
f 33//11 18//11 27//11
f 27//12 18//12 33//12
f 28//49 34//57 19//41
f 19//42 34//58 28//50
f 23//43 24//51 35//59
f 35//60 24//52 23//44
f 24//11 25//11 36//11
f 36//12 25//12 24//12
f 25//45 29//53 36//61
f 36//62 29//54 25//46
f 37//11 26//11 30//11
f 30//12 26//12 37//12
f 30//11 18//11 38//11
f 38//12 18//12 30//12
f 39//63 31//55 26//47
f 26//48 31//56 39//64
f 19//11 40//11 32//11
f 32//12 40//12 19//12
f 27//12 33//12 32//12
f 41//11 18//11 33//11
f 33//12 18//12 41//12
f 34//57 28//49 42//65
f 42//66 28//50 34//58
f 34//11 43//11 19//11
f 19//12 43//12 34//12
f 35//59 24//51 36//61
f 36//62 24//52 35//60
f 35//59 36//61 29//53
f 29//54 36//62 35//60
f 44//11 26//11 37//11
f 37//12 26//12 44//12
f 30//12 37//12 45//12
f 38//11 18//11 46//11
f 46//12 18//12 38//12
f 38//12 30//12 43//12
f 39//63 47//67 31//55
f 31//56 47//68 39//64
f 34//11 39//11 26//11
f 26//12 39//12 34//12
f 19//11 48//11 40//11
f 40//12 48//12 19//12
f 32//12 33//12 40//12
f 49//11 18//11 41//11
f 41//12 18//12 49//12
f 33//12 41//12 40//12
f 34//57 42//65 50//69
f 50//70 42//66 34//58
f 34//11 26//11 43//11
f 43//12 26//12 34//12
f 19//11 43//11 51//11
f 51//12 43//12 19//12
f 26//11 44//11 52//11
f 52//12 44//12 26//12
f 37//12 44//12 53//12
f 45//12 37//12 53//12
f 43//12 30//12 45//12
f 46//11 18//11 54//11
f 54//12 18//12 46//12
f 38//12 55//12 46//12
f 55//12 38//12 43//12
f 56//71 47//67 39//63
f 39//64 47//68 56//72
f 50//11 39//11 34//11
f 34//12 39//12 50//12
f 19//11 57//11 48//11
f 48//12 57//12 19//12
f 40//12 41//12 48//12
f 58//11 18//11 49//11
f 49//12 18//12 58//12
f 41//12 49//12 48//12
f 50//69 42//65 59//73
f 59//74 42//66 50//70
f 43//11 26//11 45//11
f 45//12 26//12 43//12
f 51//12 60//12 43//12
f 19//11 51//11 61//11
f 61//12 51//12 19//12
f 52//12 62//12 44//12
f 62//11 26//11 52//11
f 52//12 26//12 62//12
f 53//12 44//12 62//12
f 45//11 26//11 53//11
f 53//12 26//12 45//12
f 54//11 18//11 63//11
f 63//12 18//12 54//12
f 54//12 46//12 64//12
f 65//12 46//12 55//12
f 66//12 55//12 43//12
f 56//71 67//75 47//67
f 47//68 67//76 56//72
f 50//11 56//11 39//11
f 39//12 56//12 50//12
f 19//11 68//11 57//11
f 57//12 68//12 19//12
f 48//12 49//12 57//12
f 69//11 18//11 58//11
f 58//12 18//12 69//12
f 49//12 58//12 70//12
f 50//69 59//73 71//77
f 71//78 59//74 50//70
f 60//12 72//12 43//12
f 61//12 60//12 51//12
f 19//11 61//11 73//11
f 73//12 61//12 19//12
f 53//11 26//11 62//11
f 62//12 26//12 53//12
f 63//11 18//11 74//11
f 74//12 18//12 63//12
f 63//12 54//12 75//12
f 64//12 46//12 65//12
f 76//12 54//12 64//12
f 65//11 66//11 55//11
f 55//12 66//12 65//12
f 72//12 66//12 43//12
f 77//75 67//75 56//71
f 56//72 67//76 77//76
f 71//11 56//11 50//11
f 50//12 56//12 71//12
f 19//11 78//11 68//11
f 68//12 78//12 19//12
f 57//12 79//12 68//12
f 57//12 49//12 79//12
f 80//11 18//11 69//11
f 69//12 18//12 80//12
f 69//11 58//11 81//11
f 81//12 58//12 69//12
f 82//12 70//12 58//12
f 83//12 49//12 70//12
f 71//77 59//73 84//79
f 84//80 59//74 71//78
f 72//11 76//11 60//11
f 60//12 76//12 72//12
f 60//11 75//11 61//11
f 61//12 75//12 60//12
f 73//11 61//11 85//11
f 85//12 61//12 73//12
f 19//11 73//11 86//11
f 86//12 73//12 19//12
f 74//11 18//11 87//11
f 87//12 18//12 74//12
f 74//12 63//12 88//12
f 75//12 54//12 89//12
f 88//12 63//12 75//12
f 72//11 65//11 64//11
f 64//12 65//12 72//12
f 89//12 54//12 76//12
f 72//11 64//11 76//11
f 76//12 64//12 72//12
f 66//11 65//11 72//11
f 72//12 65//12 66//12
f 90//81 67//75 77//75
f 77//76 67//76 90//82
f 91//11 77//11 56//11
f 56//12 77//12 91//12
f 91//11 56//11 71//11
f 71//12 56//12 91//12
f 19//11 92//11 78//11
f 78//12 92//12 19//12
f 68//12 93//12 78//12
f 79//12 94//12 68//12
f 79//12 49//12 95//12
f 96//11 18//11 80//11
f 80//12 18//12 96//12
f 69//12 80//12 86//12
f 81//11 58//11 97//11
f 97//12 58//12 81//12
f 81//12 69//12 86//12
f 98//11 82//11 70//11
f 70//12 82//12 98//12
f 99//11 58//11 82//11
f 82//12 58//12 99//12
f 95//12 49//12 83//12
f 93//11 70//11 83//11
f 83//12 70//12 93//12
f 71//77 84//79 91//83
f 91//84 84//80 71//78
f 60//11 76//11 89//11
f 89//12 76//12 60//12
f 60//11 89//11 75//11
f 75//12 89//12 60//12
f 61//11 75//11 88//11
f 88//12 75//12 61//12
f 85//11 61//11 100//11
f 100//12 61//12 85//12
f 73//12 96//12 85//12
f 86//12 80//12 73//12
f 19//11 86//11 101//11
f 101//12 86//12 19//12
f 87//11 18//11 102//11
f 102//12 18//12 87//12
f 87//12 74//12 103//12
f 104//12 74//12 88//12
f 90//81 105//85 67//75
f 67//76 105//86 90//82
f 106//11 90//11 77//11
f 77//12 90//12 106//12
f 106//11 77//11 91//11
f 91//12 77//12 106//12
f 19//11 107//11 92//11
f 92//12 107//12 19//12
f 78//12 98//12 92//12
f 93//12 108//12 78//12
f 94//12 93//12 68//12
f 94//11 95//11 79//11
f 79//12 95//12 94//12
f 109//11 18//11 96//11
f 96//12 18//12 109//12
f 80//12 96//12 73//12
f 97//11 58//11 110//11
f 110//12 58//12 97//12
f 97//12 81//12 101//12
f 101//12 81//12 86//12
f 82//11 98//11 99//11
f 99//12 98//12 82//12
f 98//11 70//11 108//11
f 108//12 70//12 98//12
f 110//11 58//11 99//11
f 99//12 58//12 110//12
f 94//11 83//11 95//11
f 95//12 83//12 94//12
f 108//11 70//11 93//11
f 93//12 70//12 108//12
f 93//11 83//11 94//11
f 94//12 83//12 93//12
f 91//83 84//79 111//83
f 111//84 84//80 91//84
f 112//11 61//11 88//11
f 88//12 61//12 112//12
f 100//11 61//11 112//11
f 112//12 61//12 100//12
f 85//12 109//12 100//12
f 96//12 109//12 85//12
f 19//11 101//11 107//11
f 107//12 101//12 19//12
f 102//11 18//11 113//11
f 113//12 18//12 102//12
f 102//12 87//12 114//12
f 103//12 74//12 104//12
f 115//12 87//12 103//12
f 112//11 88//11 104//11
f 104//12 88//12 112//12
f 116//87 105//85 90//81
f 90//82 105//86 116//88
f 117//11 90//11 106//11
f 106//12 90//12 117//12
f 118//89 106//90 91//83
f 91//84 106//91 118//92
f 92//12 110//12 107//12
f 98//12 99//12 92//12
f 108//12 98//12 78//12
f 119//11 18//11 109//11
f 109//12 18//12 119//12
f 110//12 97//12 107//12
f 107//12 97//12 101//12
f 99//12 110//12 92//12
f 111//83 118//89 91//83
f 91//84 118//92 111//84
f 100//12 119//12 112//12
f 109//12 119//12 100//12
f 113//11 18//11 119//11
f 119//12 18//12 113//12
f 113//12 102//12 120//12
f 114//12 87//12 115//12
f 121//12 102//12 114//12
f 112//11 104//11 103//11
f 103//12 104//12 112//12
f 122//11 103//11 115//11
f 115//12 103//12 122//12
f 116//87 123//93 105//85
f 105//86 123//94 116//88
f 117//11 116//11 90//11
f 90//12 116//12 117//12
f 124//95 117//96 106//90
f 106//91 117//97 124//98
f 118//89 124//95 106//90
f 106//91 124//98 118//92
f 112//12 119//12 122//12
f 119//12 113//12 122//12
f 120//12 102//12 121//12
f 122//12 113//12 120//12
f 122//11 115//11 114//11
f 114//12 115//12 122//12
f 122//11 114//11 121//11
f 121//12 114//12 122//12
f 112//11 103//11 122//11
f 122//12 103//12 112//12
f 125//99 123//93 116//87
f 116//88 123//94 125//100
f 117//11 125//11 116//11
f 116//12 125//12 117//12
f 124//95 126//101 117//96
f 117//97 126//102 124//98
f 122//11 121//11 120//11
f 120//12 121//12 122//12
f 125//99 127//103 123//93
f 123//94 127//104 125//100
f 125//11 117//11 128//11
f 128//12 117//12 125//12
f 126//101 128//105 117//96
f 117//97 128//106 126//102
f 125//99 126//101 127//103
f 127//104 126//102 125//100
f 126//101 125//99 128//105
f 128//106 125//100 126//102
usemtl material_1_0
f 32//11 33//11 27//11
f 45//11 37//11 30//11
f 43//11 30//11 38//11
f 40//11 33//11 32//11
f 40//11 41//11 33//11
f 53//11 44//11 37//11
f 53//11 37//11 45//11
f 45//11 30//11 43//11
f 46//11 55//11 38//11
f 43//11 38//11 55//11
f 48//11 41//11 40//11
f 48//11 49//11 41//11
f 43//11 60//11 51//11
f 44//11 62//11 52//11
f 62//11 44//11 53//11
f 64//11 46//11 54//11
f 55//11 46//11 65//11
f 43//11 55//11 66//11
f 57//11 49//11 48//11
f 70//11 58//11 49//11
f 43//11 72//11 60//11
f 51//11 60//11 61//11
f 75//11 54//11 63//11
f 65//11 46//11 64//11
f 64//11 54//11 76//11
f 43//11 66//11 72//11
f 68//11 79//11 57//11
f 79//11 49//11 57//11
f 58//11 70//11 82//11
f 70//11 49//11 83//11
f 88//11 63//11 74//11
f 89//11 54//11 75//11
f 75//11 63//11 88//11
f 76//11 54//11 89//11
f 78//11 93//11 68//11
f 68//11 94//11 79//11
f 95//11 49//11 79//11
f 86//11 80//11 69//11
f 86//11 69//11 81//11
f 83//11 49//11 95//11
f 85//11 96//11 73//11
f 73//11 80//11 86//11
f 103//11 74//11 87//11
f 88//11 74//11 104//11
f 92//11 98//11 78//11
f 78//11 108//11 93//11
f 68//11 93//11 94//11
f 73//11 96//11 80//11
f 101//11 81//11 97//11
f 86//11 81//11 101//11
f 100//11 109//11 85//11
f 85//11 109//11 96//11
f 114//11 87//11 102//11
f 104//11 74//11 103//11
f 103//11 87//11 115//11
f 107//11 110//11 92//11
f 92//11 99//11 98//11
f 78//11 98//11 108//11
f 107//11 97//11 110//11
f 101//11 97//11 107//11
f 92//11 110//11 99//11
f 112//11 119//11 100//11
f 100//11 119//11 109//11
f 120//11 102//11 113//11
f 115//11 87//11 114//11
f 114//11 102//11 121//11
f 122//11 119//11 112//11
f 122//11 113//11 119//11
f 121//11 102//11 120//11
f 120//11 113//11 122//11
