# SSTK version 0.8.0
# 134
mtllib original-134.mtl
o mesh126/mesh126-geometry#mesh126-geometry
v -0.087792 0.017958 0.160109
v -0.079673 0.005920 0.166124
v -0.086044 0.017958 0.159360
v -0.081832 0.005920 0.167048
v -0.078606 0.005920 0.165122
v -0.135632 0.017958 0.160109
v -0.090030 0.017958 0.160356
v -0.143051 0.005920 0.166124
v -0.144118 0.005920 0.165122
v -0.085180 0.017958 0.158548
v -0.137380 0.017958 0.159360
v -0.084594 0.005920 0.167354
v -0.140893 0.005920 0.167048
v -0.145091 0.005920 0.163883
v -0.084392 0.017958 0.157545
v -0.133394 0.017958 0.160356
v -0.138130 0.005920 0.167354
v -0.138244 0.017958 0.158548
v -0.077634 0.005920 0.163883
v -0.139032 0.017958 0.157545
v -0.146050 0.005920 0.161757
v -0.083615 0.017958 0.155822
v -0.076674 0.005920 0.161757
v -0.139809 0.017958 0.155822
v -0.146351 0.005920 0.159443
v -0.083371 0.017958 0.153949
v -0.140053 0.017958 0.153949
v -0.076374 0.005920 0.159443
v -0.129829 0.005920 0.150832
v -0.083371 0.017958 0.110083
v -0.131667 0.017958 0.151364
v -0.146351 0.005920 0.105288
v -0.092896 0.005920 0.150832
v -0.076374 0.005920 0.105288
v -0.130471 0.017958 0.151364
v -0.140053 0.017958 0.110083
v -0.129829 0.005920 0.113899
v -0.092896 -0.000647 0.150832
v -0.083615 0.017958 0.108209
v -0.128160 0.017958 0.145998
v -0.130241 0.017958 0.145998
v -0.146050 0.005920 0.102975
v -0.092896 0.005920 0.113899
v -0.129829 -0.000647 0.113899
v -0.129829 -0.000647 0.150832
v -0.076674 0.005920 0.102975
v -0.131596 0.017958 0.123111
v -0.139809 0.017958 0.108209
v -0.127710 -0.000647 0.148713
v -0.092896 -0.000647 0.113899
v -0.084392 0.017958 0.106487
v -0.130645 0.017958 0.110929
v -0.130400 0.017958 0.123111
v -0.130170 0.017958 0.117745
v -0.145091 0.005920 0.100849
v -0.095014 -0.000647 0.148713
v -0.077634 0.005920 0.100849
v -0.130645 0.017958 0.113263
v -0.128687 0.017958 0.110929
v -0.128089 0.017958 0.117745
v -0.139032 0.017958 0.106487
v -0.095014 -0.000647 0.116018
v -0.127710 -0.000647 0.116018
v -0.095014 0.005920 0.148713
v -0.085180 0.017958 0.105483
v -0.128687 0.017958 0.113263
v -0.144118 0.005920 0.099610
v -0.127710 0.005920 0.116018
v -0.127710 0.005920 0.148713
v -0.078606 0.005920 0.099610
v -0.138244 0.017958 0.105483
v -0.095014 0.005920 0.116018
v -0.079673 0.005920 0.098607
v -0.137380 0.017958 0.104672
v -0.086044 0.017958 0.104672
v -0.143051 0.005920 0.098607
v -0.081832 0.005920 0.097683
v -0.087792 0.017958 0.103923
v -0.135632 0.017958 0.103923
v -0.140893 0.005920 0.097683
v -0.138130 0.005920 0.097377
v -0.084594 0.005920 0.097377
v -0.090030 0.017958 0.103675
v -0.133394 0.017958 0.103675
vn 0.246314000959651 0.5726717265665474 0.781905689020446
vn 0.39712728688717513 0.6002279905110719 0.6942739210258957
vn 0.4721669115793181 0.6083092374146946 0.6379798423818742
vn -0.4721669115793181 -0.6083092374146946 -0.6379798423818742
vn -0.39712728688717513 -0.6002279905110719 -0.6942739210258957
vn -0.246314000959651 -0.5726717265665474 -0.781905689020446
vn 0.17063461699449584 0.5541338131899517 0.8147512163615992
vn -0.17063461699449584 -0.5541338131899517 -0.8147512163615992
vn 0.5841771135463062 0.6108072801049005 0.5344638122263843
vn -0.5841771135463062 -0.6108072801049005 -0.5344638122263843
vn 0 1 0
vn 0 -1 0
vn 0.062424599296373125 0.5224717161048698 0.8503684350169163
vn -0.062424599296373125 -0.5224717161048698 -0.8503684350169163
vn 0.04689864194620992 0.5177236070707346 0.8542615431267341
vn -0.04689864194620992 -0.5177236070707346 -0.8542615431267341
vn 0.664411400200237 0.6044146250371734 0.4395912332214255
vn -0.664411400200237 -0.6044146250371734 -0.4395912332214255
vn -0.24856150203520114 0.5629718723016232 0.7882130744305181
vn -0.1718069309615034 0.5472576890395766 0.8191406474230486
vn -0.40289372691278785 0.5851768939149545 0.7037362060050414
vn 0.40289372691278785 -0.5851768939149545 -0.7037362060050414
vn 0.1718069309615034 -0.5472576890395766 -0.8191406474230486
vn 0.24856150203520114 -0.5629718723016232 -0.7882130744305181
vn -0.06257570978814388 0.5198350194346826 0.8519717325791115
vn 0.06257570978814388 -0.5198350194346826 -0.8519717325791115
vn -0.4803094448221048 0.5905909243225939 0.6484637208992231
vn 0.4803094448221048 -0.5905909243225939 -0.6484637208992231
vn -0.596357831747228 0.588845548331625 0.5455440007220068
vn 0.596357831747228 -0.588845548331625 -0.5455440007220068
vn -0.6799935949999426 0.5790232756700854 0.44982302852492817
vn 0.6799935949999426 -0.5790232756700854 -0.44982302852492817
vn 0.7020856618446298 0.5978201007748656 0.3868938491908572
vn -0.7020856618446298 -0.5978201007748656 -0.3868938491908572
vn -0.04700113934837282 0.5157340751802899 0.855458506648853
vn 0.04700113934837282 -0.5157340751802899 -0.855458506648853
vn -0.719274867276194 0.5706103755476902 0.39629214554686465
vn 0.719274867276194 -0.5706103755476902 -0.39629214554686465
vn 0.7751993893223995 0.5754160676644771 0.26069571509276684
vn -0.7751993893223995 -0.5754160676644771 -0.26069571509276684
vn -0.7952600534604954 0.5440866502631269 0.2674531068719521
vn 0.7952600534604954 -0.5440866502631269 -0.2674531068719521
vn 0.8089150743193797 0.557851391852616 0.1856292734106659
vn -0.8089150743193797 -0.557851391852616 -0.1856292734106659
vn -0.8300341053560714 0.5241741824609989 0.19048572226571175
vn 0.8300341053560714 -0.5241741824609989 -0.19048572226571175
vn 0.8474407872385221 0.5258596349780137 0.07290923415689024
vn -0.8474407872385221 -0.5258596349780137 -0.07290923415689024
vn -0.8691667416706126 0.48882952731015006 0.0747988529552823
vn 0.8691667416706126 -0.48882952731015006 -0.0747988529552823
vn 0.8521914772844141 0.5203531507411676 0.05479310684335585
vn -0.8521914772844141 -0.5203531507411676 -0.05479310684335585
vn -0.8739096742498789 0.48282722649217713 0.05621165902499694
vn 0.8739096742498789 -0.48282722649217713 -0.05621165902499694
vn 0.8535916546676606 0.5180381199410408 -0.05493444611240692
vn -0.8535916546676606 -0.5180381199410408 0.05493444611240692
vn -0.8752762016417219 0.4803294687606997 -0.05634866706235131
vn 0.8752762016417219 -0.4803294687606997 0.05634866706235131
vn 0.8493170931869323 0.5227948932518969 -0.07311617338344129
vn -0.8493170931869323 -0.5227948932518969 0.07311617338344129
vn -0.8710012046719408 0.4855222578694463 -0.07500025715544435
vn 0.8710012046719408 -0.4855222578694463 0.07500025715544435
vn 0 0 1
vn 0 0 -1
vn 0.8136924250209497 0.5504028258824935 -0.1869795890574471
vn -0.8136924250209497 -0.5504028258824935 0.1869795890574471
vn -0.8347546952940411 0.5161295225182775 -0.1918200059159822
vn 0.8347546952940411 -0.5161295225182775 0.1918200059159822
vn -1 0 0
vn 1 0 0
vn 0.7818530794473296 0.5651847416965349 -0.26319568748774863
vn -0.7818530794473296 -0.5651847416965349 0.26319568748774863
vn -0.8018708517569898 0.5330466119239656 -0.26993415237590995
vn 0.8018708517569898 -0.5330466119239656 0.26993415237590995
vn 0.7114526396732375 0.5830882269300721 -0.39222858273910555
vn -0.7114526396732375 -0.5830882269300721 0.39222858273910555
vn -0.7286380954754531 0.5547835181304861 -0.40162392089200233
vn 0.7286380954754531 -0.5547835181304861 0.40162392089200233
vn 0.6746004375545318 0.5878260501484931 -0.4465140360817963
vn -0.6746004375545318 -0.5878260501484931 0.4465140360817963
vn -0.6901943031302189 0.5612563638329515 -0.45675279745569713
vn 0.6901943031302189 -0.5612563638329515 0.45675279745569713
vn 0.5952519451618494 0.5907687901353286 -0.5446717895972536
vn -0.5952519451618494 -0.5907687901353286 0.5446717895972536
vn -0.6074600136667321 0.5675433015742745 -0.5557759734229123
vn 0.6074600136667321 -0.5675433015742745 0.5557759734229123
vn 0.4827274479513135 0.5841318016971272 -0.6525061296574003
vn -0.4827274479513135 -0.5841318016971272 0.6525061296574003
vn -0.4908815851175686 0.5652036216046001 -0.6630083977729901
vn 0.4908815851175686 -0.5652036216046001 0.6630083977729901
vn 0.4066372095905941 0.5734356556895586 -0.711208639261547
vn -0.4066372095905941 -0.5734356556895586 0.711208639261547
vn -0.4124022318070946 0.5572800710855035 -0.7206686628204834
vn 0.4124022318070946 -0.5572800710855035 0.7206686628204834
vn 0.25273014232776597 0.5409199168233296 -0.8022051600076064
vn -0.25273014232776597 -0.5409199168233296 0.8022051600076064
vn -0.2549586824707134 0.5304490370147921 -0.808467618005123
vn 0.2549586824707134 -0.5304490370147921 0.808467618005123
vn 0.17510838866065812 0.5200126765740614 -0.8360166675509217
vn -0.17510838866065812 -0.5200126765740614 0.8360166675509217
vn -0.1762651715407526 0.512584757459541 -0.8403496032734545
vn 0.1762651715407526 -0.512584757459541 0.8403496032734545
vn 0.0640348923329132 0.4851345196955865 -0.8720917557021423
vn -0.0640348923329132 -0.4851345196955865 0.8720917557021423
vn -0.06418169741195359 0.48228917809956345 -0.8736577467208587
vn 0.06418169741195359 -0.48228917809956345 0.8736577467208587
vn -0.04820691156349964 0.4778223688858801 -0.8771327593185624
vn 0.04820691156349964 -0.4778223688858801 0.8771327593185624
vn 0.048107290247840405 0.4799689370326132 -0.875965471984366
vn -0.048107290247840405 -0.4799689370326132 0.875965471984366
usemtl material_0_0
f 1//1 2//2 3//3
f 3//4 2//5 1//6
f 1//1 4//7 2//2
f 2//5 4//8 1//6
f 3//3 2//2 5//9
f 5//10 2//5 3//4
f 6//11 1//11 3//11
f 3//12 1//12 6//12
f 7//13 4//7 1//1
f 1//6 4//8 7//14
f 4//12 8//12 2//12
f 2//11 8//11 4//11
f 2//12 9//12 5//12
f 5//11 9//11 2//11
f 3//3 5//9 10//9
f 10//10 5//10 3//4
f 6//11 7//11 1//11
f 1//12 7//12 6//12
f 6//11 3//11 11//11
f 11//12 3//12 6//12
f 7//13 12//15 4//7
f 4//8 12//16 7//14
f 4//12 13//12 8//12
f 8//11 13//11 4//11
f 2//12 8//12 9//12
f 9//11 8//11 2//11
f 5//12 9//12 14//12
f 14//11 9//11 5//11
f 10//9 5//9 15//17
f 15//18 5//10 10//10
f 11//11 3//11 10//11
f 10//12 3//12 11//12
f 7//11 6//11 16//11
f 16//12 6//12 7//12
f 13//19 6//20 11//21
f 11//22 6//23 13//24
f 7//13 17//25 12//15
f 12//16 17//26 7//14
f 12//12 13//12 4//12
f 4//11 13//11 12//11
f 8//27 13//19 11//21
f 11//22 13//24 8//28
f 9//29 8//27 18//29
f 18//30 8//28 9//30
f 18//29 14//31 9//29
f 9//30 14//32 18//30
f 5//12 14//12 19//12
f 19//11 14//11 5//11
f 15//17 5//9 19//33
f 19//34 5//10 15//18
f 18//11 10//11 15//11
f 15//12 10//12 18//12
f 11//11 10//11 18//11
f 18//12 10//12 11//12
f 17//25 16//35 6//20
f 6//23 16//36 17//26
f 17//25 7//13 16//35
f 16//36 7//14 17//26
f 13//19 17//25 6//20
f 6//23 17//26 13//24
f 13//12 12//12 17//12
f 17//11 12//11 13//11
f 8//27 11//21 18//29
f 18//30 11//22 8//28
f 20//37 14//31 18//29
f 18//30 14//32 20//38
f 19//12 14//12 21//12
f 21//11 14//11 19//11
f 15//17 19//33 22//39
f 22//40 19//34 15//18
f 18//11 15//11 20//11
f 20//12 15//12 18//12
f 20//37 21//41 14//31
f 14//32 21//42 20//38
f 19//12 21//12 23//12
f 23//11 21//11 19//11
f 22//39 19//33 23//43
f 23//44 19//34 22//40
f 24//11 15//11 22//11
f 22//12 15//12 24//12
f 20//11 15//11 24//11
f 24//12 15//12 20//12
f 24//45 21//41 20//37
f 20//38 21//42 24//46
f 23//12 21//12 25//12
f 25//11 21//11 23//11
f 22//39 23//43 26//47
f 26//48 23//44 22//40
f 24//11 22//11 27//11
f 27//12 22//12 24//12
f 24//45 25//49 21//41
f 21//42 25//50 24//46
f 23//12 25//12 28//12
f 28//11 25//11 23//11
f 26//47 23//43 28//51
f 28//52 23//44 26//48
f 27//11 22//11 26//11
f 26//12 22//12 27//12
f 27//53 25//49 24//45
f 24//46 25//50 27//54
f 28//12 25//12 29//12
f 29//11 25//11 28//11
f 28//51 30//55 26//47
f 26//48 30//56 28//52
f 27//11 26//11 31//11
f 31//12 26//12 27//12
f 27//53 32//57 25//49
f 25//50 32//58 27//54
f 29//12 25//12 32//12
f 32//11 25//11 29//11
f 33//12 28//12 29//12
f 29//11 28//11 33//11
f 30//55 28//51 34//59
f 34//60 28//52 30//56
f 30//11 35//11 26//11
f 26//12 35//12 30//12
f 31//11 26//11 35//11
f 35//12 26//12 31//12
f 27//11 31//11 36//11
f 36//12 31//12 27//12
f 32//57 27//53 36//61
f 36//62 27//54 32//58
f 29//12 32//12 37//12
f 37//11 32//11 29//11
f 28//12 33//12 34//12
f 34//11 33//11 28//11
f 29//63 38//63 33//63
f 33//64 38//64 29//64
f 30//55 34//59 39//65
f 39//66 34//60 30//56
f 35//11 30//11 40//11
f 40//12 30//12 35//12
f 35//12 31//12 40//12
f 36//11 31//11 41//11
f 41//12 31//12 36//12
f 36//61 42//67 32//57
f 32//58 42//68 36//62
f 37//12 32//12 43//12
f 43//11 32//11 37//11
f 44//69 29//69 37//69
f 37//70 29//70 44//70
f 34//12 33//12 43//12
f 43//11 33//11 34//11
f 38//63 29//63 45//63
f 45//64 29//64 38//64
f 38//70 43//70 33//70
f 33//69 43//69 38//69
f 39//65 34//59 46//71
f 46//72 34//60 39//66
f 36//11 30//11 39//11
f 39//12 30//12 36//12
f 40//11 30//11 41//11
f 41//12 30//12 40//12
f 41//12 40//12 31//12
f 36//11 41//11 47//11
f 47//12 41//12 36//12
f 48//73 42//67 36//61
f 36//62 42//68 48//74
f 34//12 32//12 42//12
f 42//11 32//11 34//11
f 34//12 43//12 32//12
f 32//11 43//11 34//11
f 43//64 44//64 37//64
f 37//63 44//63 43//63
f 29//69 44//69 45//69
f 45//70 44//70 29//70
f 45//12 49//12 38//12
f 38//11 49//11 45//11
f 43//70 38//70 50//70
f 50//69 38//69 43//69
f 34//12 42//12 46//12
f 46//11 42//11 34//11
f 39//65 46//71 51//75
f 51//76 46//72 39//66
f 36//11 52//11 30//11
f 30//12 52//12 36//12
f 36//11 39//11 48//11
f 48//12 39//12 36//12
f 41//11 30//11 53//11
f 53//12 30//12 41//12
f 47//11 41//11 53//11
f 53//12 41//12 47//12
f 36//11 47//11 54//11
f 54//12 47//12 36//12
f 48//73 55//77 42//67
f 42//68 55//78 48//74
f 44//64 43//64 50//64
f 50//63 43//63 44//63
f 49//12 45//12 44//12
f 44//11 45//11 49//11
f 56//12 38//12 49//12
f 49//11 38//11 56//11
f 38//12 56//12 50//12
f 50//11 56//11 38//11
f 46//12 42//12 55//12
f 55//11 42//11 46//11
f 51//75 46//71 57//79
f 57//80 46//72 51//76
f 48//11 39//11 51//11
f 51//12 39//12 48//12
f 36//11 58//11 52//11
f 52//12 58//12 36//12
f 59//11 30//11 52//11
f 52//12 30//12 59//12
f 53//11 30//11 60//11
f 60//12 30//12 53//12
f 53//12 47//12 60//12
f 54//12 60//12 47//12
f 36//11 54//11 58//11
f 58//12 54//12 36//12
f 61//81 55//77 48//73
f 48//74 55//78 61//82
f 50//12 62//12 44//12
f 44//11 62//11 50//11
f 49//12 44//12 63//12
f 63//11 44//11 49//11
f 49//64 64//64 56//64
f 56//63 64//63 49//63
f 50//12 56//12 62//12
f 62//11 56//11 50//11
f 46//12 55//12 57//12
f 57//11 55//11 46//11
f 51//75 57//79 65//83
f 65//84 57//80 51//76
f 48//11 51//11 61//11
f 61//12 51//12 48//12
f 52//12 59//12 58//12
f 66//11 30//11 59//11
f 59//12 30//12 66//12
f 60//11 30//11 54//11
f 54//12 30//12 60//12
f 58//11 54//11 66//11
f 66//12 54//12 58//12
f 61//81 67//85 55//77
f 55//78 67//86 61//82
f 63//12 44//12 62//12
f 62//11 44//11 63//11
f 68//70 49//70 63//70
f 63//69 49//69 68//69
f 64//64 49//64 69//64
f 69//63 49//63 64//63
f 64//69 62//69 56//69
f 56//70 62//70 64//70
f 57//12 55//12 67//12
f 67//11 55//11 57//11
f 65//83 57//79 70//83
f 70//84 57//80 65//84
f 61//11 51//11 65//11
f 65//12 51//12 61//12
f 66//12 58//12 59//12
f 54//11 30//11 66//11
f 66//12 30//12 54//12
f 71//85 67//85 61//81
f 61//82 67//86 71//86
f 62//63 68//63 63//63
f 63//64 68//64 62//64
f 49//70 68//70 69//70
f 69//69 68//69 49//69
f 68//12 64//12 69//12
f 69//11 64//11 68//11
f 62//69 64//69 72//69
f 72//70 64//70 62//70
f 57//12 67//12 70//12
f 70//11 67//11 57//11
f 65//83 70//83 73//87
f 73//88 70//84 65//84
f 61//11 65//11 71//11
f 71//12 65//12 61//12
f 67//85 71//85 74//89
f 74//90 71//86 67//86
f 68//63 62//63 72//63
f 72//64 62//64 68//64
f 64//12 68//12 72//12
f 72//11 68//11 64//11
f 70//12 67//12 73//12
f 73//11 67//11 70//11
f 75//91 65//83 73//87
f 73//88 65//84 75//92
f 71//11 65//11 75//11
f 75//12 65//12 71//12
f 71//11 75//11 74//11
f 74//12 75//12 71//12
f 67//85 74//89 76//93
f 76//94 74//90 67//86
f 73//12 67//12 76//12
f 76//11 67//11 73//11
f 75//91 73//87 77//95
f 77//96 73//88 75//92
f 74//11 75//11 78//11
f 78//12 75//12 74//12
f 76//93 74//89 79//97
f 79//98 74//90 76//94
f 73//12 76//12 80//12
f 80//11 76//11 73//11
f 73//12 80//12 77//12
f 77//11 80//11 73//11
f 78//99 75//91 77//95
f 77//96 75//92 78//100
f 74//11 78//11 79//11
f 79//12 78//12 74//12
f 76//93 79//97 80//101
f 80//102 79//98 76//94
f 77//12 80//12 81//12
f 81//11 80//11 77//11
f 78//99 77//95 82//103
f 82//104 77//96 78//100
f 79//11 78//11 83//11
f 83//12 78//12 79//12
f 80//101 79//97 84//105
f 84//106 79//98 80//102
f 80//101 84//105 81//107
f 81//108 84//106 80//102
f 77//12 81//12 82//12
f 82//11 81//11 77//11
f 83//109 78//99 82//103
f 82//104 78//100 83//110
f 79//11 83//11 84//11
f 84//12 83//12 79//12
f 83//109 81//107 84//105
f 84//106 81//108 83//110
f 81//107 83//109 82//103
f 82//104 83//110 81//108
usemtl material_1_0
f 40//11 31//11 35//11
f 31//11 40//11 41//11
f 60//11 47//11 53//11
f 47//11 60//11 54//11
f 58//11 59//11 52//11
f 59//11 58//11 66//11
