# SSTK version 0.8.0
# 16
mtllib original-16.mtl
o mesh13/mesh13-geometry#mesh13-geometry
v -0.643049 0.017958 0.197355
v -0.645517 0.017958 0.194486
v -0.644508 0.017958 0.197355
v -0.646796 0.017958 0.187063
v -0.649968 0.017958 0.194486
v -0.650978 0.017958 0.197355
v -0.641577 0.017958 0.197355
v -0.645939 0.017958 0.193311
v -0.649554 0.017958 0.193311
v -0.652367 0.017958 0.197355
v -0.641577 0.017958 0.186600
v -0.640278 0.017958 0.197355
v -0.647743 0.017958 0.188259
v -0.648621 0.017958 0.187063
v -0.635822 0.017958 0.197467
v -0.662646 0.017958 0.184743
v -0.635266 0.017958 0.197507
v -0.640278 0.017958 0.186600
v -0.636307 0.017958 0.197348
v -0.662646 0.017958 0.244937
v -0.634496 0.017958 0.197445
v -0.637525 0.017958 0.196043
v -0.582621 0.017958 0.184743
v -0.636720 0.017958 0.197149
v -0.668944 0.005920 0.179948
v -0.637333 0.017958 0.196505
v -0.637640 0.017958 0.195486
v -0.636379 0.017958 0.187415
v -0.582865 0.017958 0.182869
v -0.633697 0.017958 0.197286
v -0.637064 0.017958 0.196871
v -0.668944 0.005920 0.250431
v -0.668643 0.005920 0.177635
v -0.635404 0.017958 0.196335
v -0.636158 0.017958 0.195834
v -0.637679 0.017958 0.194832
v -0.633697 0.017958 0.189634
v -0.637679 0.017958 0.187415
v -0.575624 0.005920 0.179948
v -0.662403 0.017958 0.182869
v -0.633697 0.017958 0.196118
v -0.634264 0.017958 0.196273
v -0.652422 0.005920 0.241820
v -0.662403 0.017958 0.246810
v -0.575924 0.005920 0.177635
v -0.634928 0.017958 0.196366
v -0.635740 0.017958 0.196239
v -0.635977 0.017958 0.196074
v -0.636352 0.017958 0.195195
v -0.638557 0.017958 0.190726
v -0.633697 0.017958 0.190726
v -0.636379 0.017958 0.189634
v -0.637679 0.017958 0.189634
v -0.575624 0.005920 0.250431
v -0.583642 0.017958 0.181147
v -0.582621 0.017958 0.244937
v -0.592145 0.005920 0.241820
v -0.652422 0.005920 0.188559
v -0.668643 0.005920 0.252745
v -0.667684 0.005920 0.175509
v -0.576884 0.005920 0.175509
v -0.636379 0.017958 0.194244
v -0.637679 0.017958 0.190726
v -0.638557 0.017958 0.189634
v -0.661626 0.017958 0.181147
v -0.633766 0.017958 0.196118
v -0.594264 0.005920 0.239701
v -0.592145 -0.000647 0.241820
v -0.592145 0.005920 0.188559
v -0.652422 -0.000647 0.188559
v -0.650303 0.005920 0.239701
v -0.661626 0.017958 0.248533
v -0.582865 0.017958 0.246810
v -0.636379 0.017958 0.190726
v -0.575924 0.005920 0.252745
v -0.584430 0.017958 0.180143
v -0.652422 -0.000647 0.241820
v -0.650303 0.005920 0.190678
v -0.667684 0.005920 0.254871
v -0.666712 0.005920 0.174270
v -0.577856 0.005920 0.174270
v -0.660838 0.017958 0.180143
v -0.594264 0.005920 0.190678
v -0.650303 -0.000647 0.239701
v -0.594264 -0.000647 0.239701
v -0.592145 -0.000647 0.188559
v -0.660838 0.017958 0.249536
v -0.583642 0.017958 0.248533
v -0.576884 0.005920 0.254871
v -0.585294 0.017958 0.179332
v -0.594264 -0.000647 0.190678
v -0.650303 -0.000647 0.190678
v -0.666712 0.005920 0.256110
v -0.659974 0.017958 0.179332
v -0.578923 0.005920 0.173267
v -0.665645 0.005920 0.257112
v -0.584430 0.017958 0.249536
v -0.577856 0.005920 0.256110
v -0.665645 0.005920 0.173267
v -0.581081 0.005920 0.172343
v -0.587042 0.017958 0.178583
v -0.659974 0.017958 0.250348
v -0.658225 0.017958 0.178583
v -0.663486 0.005920 0.172343
v -0.578923 0.005920 0.257112
v -0.663486 0.005920 0.258036
v -0.585294 0.017958 0.250348
v -0.660724 0.005920 0.172037
v -0.583844 0.005920 0.172037
v -0.589280 0.017958 0.178335
v -0.658225 0.017958 0.251097
v -0.655988 0.017958 0.178335
v -0.581081 0.005920 0.258036
v -0.587042 0.017958 0.251097
v -0.660724 0.005920 0.258342
v -0.655988 0.017958 0.251344
v -0.583844 0.005920 0.258342
v -0.589280 0.017958 0.251344
vn 0 1 0
vn 0 -1 0
vn -0.8753334797627699 0.4802557145694658 -0.05608696666581496
vn -0.8739839254836966 0.4827279588423746 0.05590899523317132
vn -0.8710565680631893 0.4854587592722265 -0.07476796292429605
vn 0.8710565680631893 -0.4854587592722265 0.07476796292429605
vn 0.8739839254836966 -0.4827279588423746 -0.05590899523317132
vn 0.8753334797627699 -0.4802557145694658 0.05608696666581496
vn -0.8692379482455742 0.48874397090018495 0.07452999556248421
vn 0.8692379482455742 -0.48874397090018495 -0.07452999556248421
vn -0.8350836225418704 0.5159207668036081 -0.19094791369146702
vn 0.8350836225418704 -0.5159207668036081 0.19094791369146702
vn 0.8536501864858792 0.517969113153991 -0.05467501194414038
vn 0.8493730282017331 0.5227360173564042 -0.07288700242006717
vn 0.8139969444699444 0.5502269624640682 -0.1861699872996701
vn -0.8139969444699444 -0.5502269624640682 0.1861699872996701
vn -0.8493730282017331 -0.5227360173564042 0.07288700242006717
vn -0.8536501864858792 -0.517969113153991 0.05467501194414038
vn -0.8304558166930928 0.5238818843633025 0.18944895818284138
vn 0.8304558166930928 -0.5238818843633025 -0.18944895818284138
vn -0.8022651477993161 0.5328820981715457 -0.26908604957305476
vn 0.8022651477993161 -0.5328820981715457 0.26908604957305476
vn 0.8522674287170448 0.5202602617071055 0.05449302741168897
vn -0.8522674287170448 -0.5202602617071055 -0.05449302741168897
vn 0.7822148543222747 0.5650508947663438 -0.26240695112999
vn -0.7822148543222747 -0.5650508947663438 0.26240695112999
vn -0.7957609037340241 0.5438489342086948 0.2664449677672216
vn 0.7957609037340241 -0.5438489342086948 -0.2664449677672216
vn -0.7288078879119064 0.5547479146817189 -0.40136493827148206
vn 0.7288078879119064 -0.5547479146817189 0.40136493827148206
vn 0.8475125356200411 0.5257807119074762 0.07264396019598787
vn -0.8475125356200411 -0.5257807119074762 -0.07264396019598787
vn 0.7115800143276636 0.5830670117400544 -0.39202900789350414
vn -0.7115800143276636 -0.5830670117400544 0.39202900789350414
vn 0 0 1
vn 0 0 -1
vn -1 0 0
vn 1 0 0
vn -0.719511685592889 0.5705487506856552 0.3959508269802171
vn 0.719511685592889 -0.5705487506856552 -0.3959508269802171
vn -0.6903791689792973 0.5612321373688784 -0.4565031117350849
vn 0.6903791689792973 -0.5612321373688784 0.4565031117350849
vn 0.6747392442114553 0.5878132127499198 -0.4463211615390557
vn -0.6747392442114553 -0.5878132127499198 0.4463211615390557
vn 0.8093093041862429 0.5576012095794725 0.18466006940616206
vn -0.8093093041862429 -0.5576012095794725 -0.18466006940616206
vn -0.6802489182075553 0.5789789303841566 0.4494939459533007
vn 0.6802489182075553 -0.5789789303841566 -0.4494939459533007
vn 0.7756628223336752 0.5752178682457871 0.259752940503336
vn -0.7756628223336752 -0.5752178682457871 -0.259752940503336
vn -0.6074801470815923 0.5675431374121421 -0.5557541345578179
vn 0.6074801470815923 -0.5675431374121421 0.5557541345578179
vn 0.5952466648601504 0.5907686673813832 -0.5446776933318388
vn -0.5952466648601504 -0.5907686673813832 0.5446776933318388
vn -0.5964070254519686 0.5888420251291283 0.5454940232792307
vn 0.5964070254519686 -0.5888420251291283 -0.5454940232792307
vn 0.7022751684635434 0.5977791433967726 0.3866130927417264
vn -0.7022751684635434 -0.5977791433967726 -0.3866130927417264
vn 0.6646159549307319 0.6043869590150106 0.4393199702086155
vn -0.6646159549307319 -0.6043869590150106 -0.4393199702086155
vn -0.49045187882652147 0.5651748603650902 -0.6633508361092458
vn 0.49045187882652147 -0.5651748603650902 0.6633508361092458
vn 0.48214012288957764 0.584068148869353 -0.6529971664382246
vn -0.48214012288957764 -0.584068148869353 0.6529971664382246
vn 0.40601386677915785 0.5733288118799543 -0.7116507664939005
vn -0.40601386677915785 -0.5733288118799543 0.7116507664939005
vn -0.4799991260338671 0.5905791550689797 0.648704170330925
vn 0.4799991260338671 -0.5905791550689797 -0.648704170330925
vn 0.5841980943672783 0.610807098665511 0.534441086329879
vn -0.5841980943672783 -0.610807098665511 -0.534441086329879
vn -0.4119471215586104 0.557220164426222 -0.72097521274756
vn 0.4119471215586104 -0.557220164426222 0.72097521274756
vn 0.25167197589574014 0.540659948217485 -0.8027129231189694
vn -0.25167197589574014 -0.540659948217485 0.8027129231189694
vn -0.40256602103548417 0.5851440305758244 0.7039510367839065
vn 0.40256602103548417 -0.5851440305758244 -0.7039510367839065
vn -0.2540631145969721 0.530266239180353 -0.8088693648462714
vn 0.2540631145969721 -0.530266239180353 0.8088693648462714
vn 0.1740209668106374 0.5196939008837289 -0.8364418404734092
vn -0.1740209668106374 -0.5196939008837289 0.8364418404734092
vn -0.2477230818286451 0.562820185912483 0.788585260487892
vn 0.2477230818286451 -0.562820185912483 -0.788585260487892
vn 0.47169915132347057 0.6082751951377554 0.6383582047885368
vn -0.47169915132347057 -0.6082751951377554 -0.6383582047885368
vn -0.17534502277959943 0.5123550665615881 -0.840682109215542
vn 0.17534502277959943 -0.5123550665615881 0.840682109215542
vn 0.06383899403150121 0.48507195464916986 -0.872140918460933
vn -0.06383899403150121 -0.48507195464916986 0.872140918460933
vn 0.39663301002965906 0.6001590151762213 0.6946160175647554
vn -0.39663301002965906 -0.6001590151762213 -0.6946160175647554
vn -0.1709469833468585 0.5470609467069664 0.8194519201714562
vn 0.1709469833468585 -0.5470609467069664 -0.8194519201714562
vn -0.06401201334253744 0.4822421005175894 -0.8736961821115039
vn 0.06401201334253744 -0.4822421005175894 0.8736961821115039
vn -0.04801599351762524 0.47776793549918317 -0.8771728815777218
vn 0.04801599351762524 -0.47776793549918317 0.8771728815777218
vn 0.047886023365966854 0.4798962341651846 -0.87601742745237
vn -0.047886023365966854 -0.4798962341651846 0.87601742745237
vn 0.24531885667679293 0.57245166555523 0.7823795429085773
vn -0.24531885667679293 -0.57245166555523 -0.7823795429085773
vn -0.06240799418775655 0.5197909515903116 0.8520109206496705
vn 0.06240799418775655 -0.5197909515903116 -0.8520109206496705
vn 0.16961202562736133 0.5538580836846395 0.8151521231646043
vn -0.16961202562736133 -0.5538580836846395 -0.8151521231646043
vn -0.04681200256995561 0.5156840283107961 0.8554990469664713
vn 0.04681200256995561 -0.5156840283107961 -0.8554990469664713
vn 0.06222998783310513 0.5224128978604523 0.8504188337303781
vn -0.06222998783310513 -0.5224128978604523 -0.8504188337303781
vn 0.04667898173447134 0.5176557974408084 0.8543146657058823
vn -0.04667898173447134 -0.5176557974408084 -0.8543146657058823
usemtl material_0_0
f 1//1 2//1 3//1
f 2//1 1//1 4//1
f 2//1 4//1 8//1
f 9//1 5//1 2//1
f 8//1 4//1 13//1
f 2//1 8//1 9//1
f 14//1 6//1 5//1
f 14//1 5//1 9//1
f 6//1 14//1 10//1
f 12//1 11//1 7//1
f 13//1 4//1 14//1
f 14//1 9//1 13//1
f 11//1 12//1 18//1
f 21//1 15//1 17//1
f 15//1 21//1 19//1
f 19//1 21//1 30//1
f 19//1 30//1 24//1
f 26//1 34//1 22//1
f 22//1 35//1 27//1
f 24//1 30//1 41//1
f 24//1 42//1 31//1
f 31//1 46//1 26//1
f 34//1 26//1 46//1
f 22//1 34//1 47//1
f 22//1 48//1 35//1
f 27//1 35//1 49//1
f 27//1 49//1 36//1
f 38//1 52//1 28//1
f 24//1 41//1 42//1
f 31//1 42//1 46//1
f 22//1 47//1 48//1
f 36//1 49//1 62//1
f 64//1 51//1 37//1
f 53//1 37//1 52//1
f 52//1 38//1 53//1
f 42//1 41//1 66//1
f 36//1 62//1 63//1
f 63//1 64//1 50//1
f 64//1 74//1 51//1
f 64//1 37//1 53//1
f 63//1 62//1 74//1
f 64//1 63//1 74//1
usemtl material_1_0
f 3//2 2//2 1//2
f 4//2 1//2 2//2
f 5//1 3//1 2//1
f 2//2 3//2 5//2
f 6//1 1//1 3//1
f 3//2 1//2 6//2
f 7//1 4//1 1//1
f 1//2 4//2 7//2
f 8//2 4//2 2//2
f 3//1 5//1 6//1
f 6//2 5//2 3//2
f 2//2 5//2 9//2
f 10//1 1//1 6//1
f 6//2 1//2 10//2
f 4//1 7//1 11//1
f 11//2 7//2 4//2
f 1//1 12//1 7//1
f 7//2 12//2 1//2
f 13//2 4//2 8//2
f 9//2 8//2 2//2
f 5//2 6//2 14//2
f 9//2 5//2 14//2
f 15//1 1//1 10//1
f 10//2 1//2 15//2
f 10//2 14//2 6//2
f 7//2 11//2 12//2
f 16//1 4//1 11//1
f 11//2 4//2 16//2
f 1//1 15//1 12//1
f 12//2 15//2 1//2
f 14//2 4//2 13//2
f 13//1 9//1 8//1
f 8//2 9//2 13//2
f 13//2 9//2 14//2
f 10//1 17//1 15//1
f 15//2 17//2 10//2
f 16//1 10//1 14//1
f 14//2 10//2 16//2
f 18//2 12//2 11//2
f 16//1 14//1 4//1
f 4//2 14//2 16//2
f 16//1 11//1 18//1
f 18//2 11//2 16//2
f 12//1 15//1 19//1
f 19//2 15//2 12//2
f 10//1 20//1 17//1
f 17//2 20//2 10//2
f 17//2 15//2 21//2
f 20//1 10//1 16//1
f 16//2 10//2 20//2
f 12//1 22//1 18//1
f 18//2 22//2 12//2
f 16//1 18//1 23//1
f 23//2 18//2 16//2
f 19//2 21//2 15//2
f 12//1 19//1 24//1
f 24//2 19//2 12//2
f 20//1 21//1 17//1
f 17//2 21//2 20//2
f 25//3 20//4 16//5
f 16//6 20//7 25//8
f 12//1 26//1 22//1
f 22//2 26//2 12//2
f 18//1 22//1 27//1
f 27//2 22//2 18//2
f 28//1 23//1 18//1
f 18//2 23//2 28//2
f 16//1 23//1 29//1
f 29//2 23//2 16//2
f 30//2 21//2 19//2
f 24//2 30//2 19//2
f 12//1 24//1 31//1
f 31//2 24//2 12//2
f 20//1 30//1 21//1
f 21//2 30//2 20//2
f 20//4 25//3 32//9
f 32//10 25//8 20//7
f 16//5 33//11 25//3
f 25//8 33//12 16//6
f 12//1 31//1 26//1
f 26//2 31//2 12//2
f 22//2 34//2 26//2
f 27//2 35//2 22//2
f 18//1 27//1 36//1
f 36//2 27//2 18//2
f 37//1 23//1 28//1
f 28//2 23//2 37//2
f 18//1 38//1 28//1
f 28//2 38//2 18//2
f 23//13 39//14 29//15
f 29//16 39//17 23//18
f 16//1 29//1 40//1
f 40//2 29//2 16//2
f 41//2 30//2 24//2
f 31//2 42//2 24//2
f 20//1 23//1 30//1
f 30//2 23//2 20//2
f 43//2 32//2 25//2
f 25//1 32//1 43//1
f 20//4 32//9 44//19
f 44//20 32//10 20//7
f 40//21 33//11 16//5
f 16//6 33//12 40//22
f 45//2 25//2 33//2
f 33//1 25//1 45//1
f 26//2 46//2 31//2
f 46//2 26//2 34//2
f 47//2 34//2 22//2
f 35//2 48//2 22//2
f 49//2 35//2 27//2
f 36//2 49//2 27//2
f 18//1 36//1 50//1
f 50//2 36//2 18//2
f 51//1 23//1 37//1
f 37//2 23//2 51//2
f 28//1 52//1 37//1
f 37//2 52//2 28//2
f 18//1 53//1 38//1
f 38//2 53//2 18//2
f 28//2 52//2 38//2
f 23//13 54//23 39//14
f 39//17 54//24 23//18
f 29//15 39//14 45//25
f 45//26 39//17 29//16
f 40//1 29//1 55//1
f 55//2 29//2 40//2
f 30//1 23//1 41//1
f 41//2 23//2 30//2
f 42//2 41//2 24//2
f 46//2 42//2 31//2
f 20//1 56//1 23//1
f 23//2 56//2 20//2
f 32//2 43//2 57//2
f 57//1 43//1 32//1
f 43//2 25//2 58//2
f 58//1 25//1 43//1
f 44//19 32//9 59//27
f 59//28 32//10 44//20
f 44//1 56//1 20//1
f 20//2 56//2 44//2
f 40//21 60//29 33//11
f 33//12 60//30 40//22
f 39//2 25//2 45//2
f 45//1 25//1 39//1
f 45//2 33//2 61//2
f 61//1 33//1 45//1
f 42//1 34//1 46//1
f 46//2 34//2 42//2
f 34//1 42//1 47//1
f 47//2 42//2 34//2
f 48//2 47//2 22//2
f 48//1 23//1 35//1
f 35//2 23//2 48//2
f 35//1 23//1 49//1
f 49//2 23//2 35//2
f 62//2 49//2 36//2
f 63//1 50//1 36//1
f 36//2 50//2 63//2
f 18//1 50//1 64//1
f 64//2 50//2 18//2
f 62//1 23//1 51//1
f 51//2 23//2 62//2
f 37//2 51//2 64//2
f 52//2 37//2 53//2
f 18//1 64//1 53//1
f 53//2 64//2 18//2
f 53//2 38//2 52//2
f 54//23 23//13 56//31
f 56//32 23//18 54//24
f 54//2 57//2 39//2
f 39//1 57//1 54//1
f 29//15 45//25 55//33
f 55//34 45//26 29//16
f 40//1 55//1 65//1
f 65//2 55//2 40//2
f 41//1 23//1 66//1
f 66//2 23//2 41//2
f 66//2 41//2 42//2
f 57//1 67//1 43//1
f 43//2 67//2 57//2
f 43//35 68//35 57//35
f 57//36 68//36 43//36
f 54//2 32//2 57//2
f 57//1 32//1 54//1
f 58//2 25//2 69//2
f 69//1 25//1 58//1
f 70//37 43//37 58//37
f 58//38 43//38 70//38
f 43//1 71//1 58//1
f 58//2 71//2 43//2
f 54//2 59//2 32//2
f 32//1 59//1 54//1
f 44//19 59//27 72//39
f 72//40 59//28 44//20
f 44//1 73//1 56//1
f 56//2 73//2 44//2
f 65//41 60//29 40//21
f 40//22 60//30 65//42
f 61//2 33//2 60//2
f 60//1 33//1 61//1
f 69//2 25//2 39//2
f 39//1 25//1 69//1
f 55//33 45//25 61//43
f 61//44 45//26 55//34
f 47//1 42//1 66//1
f 66//2 42//2 47//2
f 47//1 66//1 48//1
f 48//2 66//2 47//2
f 66//1 23//1 48//1
f 48//2 23//2 66//2
f 49//1 23//1 62//1
f 62//2 23//2 49//2
f 63//2 62//2 36//2
f 50//2 64//2 63//2
f 62//1 51//1 74//1
f 74//2 51//2 62//2
f 51//2 74//2 64//2
f 53//2 37//2 64//2
f 56//31 75//45 54//23
f 54//24 75//46 56//32
f 39//2 57//2 69//2
f 69//1 57//1 39//1
f 65//1 55//1 76//1
f 76//2 55//2 65//2
f 67//1 57//1 69//1
f 69//2 57//2 67//2
f 71//1 43//1 67//1
f 67//2 43//2 71//2
f 68//35 43//35 77//35
f 77//36 43//36 68//36
f 68//38 69//38 57//38
f 57//37 69//37 68//37
f 69//36 70//36 58//36
f 58//35 70//35 69//35
f 58//1 78//1 69//1
f 69//2 78//2 58//2
f 43//37 70//37 77//37
f 77//38 70//38 43//38
f 58//1 71//1 78//1
f 78//2 71//2 58//2
f 75//2 59//2 54//2
f 54//1 59//1 75//1
f 72//39 59//27 79//47
f 79//48 59//28 72//40
f 72//1 73//1 44//1
f 44//2 73//2 72//2
f 73//49 75//45 56//31
f 56//32 75//46 73//50
f 65//41 80//51 60//29
f 60//30 80//52 65//42
f 61//2 60//2 81//2
f 81//1 60//1 61//1
f 55//33 61//43 76//53
f 76//54 61//44 55//34
f 74//2 62//2 63//2
f 74//2 63//2 64//2
f 65//1 76//1 82//1
f 82//2 76//2 65//2
f 67//1 69//1 83//1
f 83//2 69//2 67//2
f 67//36 84//36 71//36
f 71//35 84//35 67//35
f 71//2 83//2 67//2
f 67//1 83//1 71//1
f 85//2 68//2 77//2
f 77//1 68//1 85//1
f 69//38 68//38 86//38
f 86//37 68//37 69//37
f 70//36 69//36 86//36
f 86//35 69//35 70//35
f 83//1 69//1 78//1
f 78//2 69//2 83//2
f 84//2 77//2 70//2
f 70//1 77//1 84//1
f 84//38 78//38 71//38
f 71//37 78//37 84//37
f 83//2 71//2 78//2
f 78//1 71//1 83//1
f 75//2 79//2 59//2
f 59//1 79//1 75//1
f 72//39 79//47 87//55
f 87//56 79//48 72//40
f 72//1 88//1 73//1
f 73//2 88//2 72//2
f 73//49 89//57 75//45
f 75//46 89//58 73//50
f 82//51 80//51 65//41
f 65//42 80//52 82//52
f 81//2 60//2 80//2
f 80//1 60//1 81//1
f 76//53 61//43 81//53
f 81//54 61//44 76//54
f 82//1 76//1 90//1
f 90//2 76//2 82//2
f 91//37 67//37 83//37
f 83//38 67//38 91//38
f 84//36 67//36 85//36
f 85//35 67//35 84//35
f 68//2 85//2 86//2
f 86//1 85//1 68//1
f 77//2 84//2 85//2
f 85//1 84//1 77//1
f 86//2 91//2 70//2
f 70//1 91//1 86//1
f 78//35 91//35 83//35
f 83//36 91//36 78//36
f 84//2 70//2 92//2
f 92//1 70//1 84//1
f 78//38 84//38 92//38
f 92//37 84//37 78//37
f 89//2 79//2 75//2
f 75//1 79//1 89//1
f 87//55 79//47 93//55
f 93//56 79//48 87//56
f 87//1 88//1 72//1
f 72//2 88//2 87//2
f 88//59 89//57 73//49
f 73//50 89//58 88//60
f 80//51 82//51 94//61
f 94//62 82//52 80//52
f 81//2 80//2 95//2
f 95//1 80//1 81//1
f 95//63 76//53 81//53
f 81//54 76//54 95//64
f 95//63 90//65 76//53
f 76//54 90//66 95//64
f 82//1 90//1 94//1
f 94//2 90//2 82//2
f 67//37 91//37 85//37
f 85//38 91//38 67//38
f 86//2 85//2 91//2
f 91//1 85//1 86//1
f 92//2 70//2 91//2
f 91//1 70//1 92//1
f 91//35 78//35 92//35
f 92//36 78//36 91//36
f 89//2 93//2 79//2
f 79//1 93//1 89//1
f 87//55 93//55 96//67
f 96//68 93//56 87//56
f 87//1 97//1 88//1
f 88//2 97//2 87//2
f 88//59 98//69 89//57
f 89//58 98//70 88//60
f 80//51 94//61 99//71
f 99//72 94//62 80//52
f 95//2 80//2 99//2
f 99//1 80//1 95//1
f 90//65 95//63 100//73
f 100//74 95//64 90//66
f 94//1 90//1 101//1
f 101//2 90//2 94//2
f 98//2 93//2 89//2
f 89//1 93//1 98//1
f 98//2 96//2 93//2
f 93//1 96//1 98//1
f 87//55 96//67 102//75
f 102//76 96//68 87//56
f 102//1 97//1 87//1
f 87//2 97//2 102//2
f 97//69 98//69 88//59
f 88//60 98//70 97//70
f 99//71 94//61 103//77
f 103//78 94//62 99//72
f 95//2 99//2 104//2
f 104//1 99//1 95//1
f 95//2 104//2 100//2
f 100//1 104//1 95//1
f 101//79 90//65 100//73
f 100//74 90//66 101//80
f 94//1 101//1 103//1
f 103//2 101//2 94//2
f 105//2 96//2 98//2
f 98//1 96//1 105//1
f 96//67 106//81 102//75
f 102//76 106//82 96//68
f 102//1 107//1 97//1
f 97//2 107//2 102//2
f 97//69 107//83 98//69
f 98//70 107//84 97//70
f 99//71 103//77 104//85
f 104//86 103//78 99//72
f 100//2 104//2 108//2
f 108//1 104//1 100//1
f 101//79 100//73 109//87
f 109//88 100//74 101//80
f 103//1 101//1 110//1
f 110//2 101//2 103//2
f 105//2 106//2 96//2
f 96//1 106//1 105//1
f 107//83 105//89 98//69
f 98//70 105//90 107//84
f 106//81 111//91 102//75
f 102//76 111//92 106//82
f 111//1 107//1 102//1
f 102//2 107//2 111//2
f 104//85 103//77 112//93
f 112//94 103//78 104//86
f 104//85 112//93 108//95
f 108//96 112//94 104//86
f 100//2 108//2 109//2
f 109//1 108//1 100//1
f 110//97 101//79 109//87
f 109//88 101//80 110//98
f 103//1 110//1 112//1
f 112//2 110//2 103//2
f 113//2 106//2 105//2
f 105//1 106//1 113//1
f 114//99 105//89 107//83
f 107//84 105//90 114//100
f 106//81 115//101 111//91
f 111//92 115//102 106//82
f 111//1 114//1 107//1
f 107//2 114//2 111//2
f 110//97 108//95 112//93
f 112//94 108//96 110//98
f 108//95 110//97 109//87
f 109//88 110//98 108//96
f 113//2 115//2 106//2
f 106//1 115//1 113//1
f 114//99 113//103 105//89
f 105//90 113//104 114//100
f 115//101 116//105 111//91
f 111//92 116//106 115//102
f 116//1 114//1 111//1
f 111//2 114//2 116//2
f 115//2 113//2 117//2
f 117//1 113//1 115//1
f 118//107 113//103 114//99
f 114//100 113//104 118//108
f 115//101 118//107 116//105
f 116//106 118//108 115//102
f 114//1 116//1 118//1
f 118//2 116//2 114//2
f 118//107 117//109 113//103
f 113//104 117//110 118//108
f 118//107 115//101 117//109
f 117//110 115//102 118//108
