# SSTK version 0.8.0
# 34
mtllib original-34.mtl
o mesh30/mesh30-geometry#mesh30-geometry
v 0.637125 0.017958 0.147144
v 0.632653 0.017958 0.147144
v 0.637125 0.017958 0.148361
v 0.632653 0.017958 0.144241
v 0.632653 0.017958 0.148361
v 0.639330 0.017958 0.145596
v 0.631284 0.017958 0.143025
v 0.639330 0.017958 0.153317
v 0.640629 0.017958 0.145596
v 0.637857 0.017958 0.144241
v 0.632653 0.017958 0.153317
v 0.640629 0.017958 0.153317
v 0.643201 0.017958 0.145596
v 0.639247 0.017958 0.144304
v 0.637857 0.017958 0.143025
v 0.631284 0.017958 0.153317
v 0.643201 0.017958 0.153317
v 0.644500 0.017958 0.145596
v 0.647092 0.017958 0.145382
v 0.639247 0.017958 0.142956
v 0.623390 0.017958 0.127177
v 0.613536 0.017958 0.110083
v 0.649656 0.017958 0.153317
v 0.644500 0.017958 0.153317
v 0.644500 0.017958 0.146453
v 0.646416 0.017958 0.145453
v 0.640712 0.017958 0.144304
v 0.613536 0.017958 0.153949
v 0.670218 0.017958 0.153949
v 0.648357 0.017958 0.153317
v 0.644500 0.017958 0.147552
v 0.645119 0.017958 0.146004
v 0.645758 0.017958 0.145665
v 0.647680 0.017958 0.145429
v 0.670218 0.017958 0.110083
v 0.640712 0.017958 0.142956
v 0.623390 0.017958 0.125759
v 0.607238 0.005920 0.105288
v 0.648357 0.017958 0.148921
v 0.645613 0.017958 0.146882
v 0.649000 0.017958 0.146135
v 0.648195 0.017958 0.145570
v 0.630909 0.017958 0.127177
v 0.623390 0.017958 0.116449
v 0.669974 0.017958 0.155822
v 0.607238 0.005920 0.159443
v 0.607539 0.005920 0.102975
v 0.677215 0.005920 0.159443
v 0.649656 0.017958 0.148306
v 0.648067 0.017958 0.147193
v 0.646181 0.017958 0.146685
v 0.648634 0.017958 0.145806
v 0.649287 0.017958 0.146553
v 0.628073 0.017958 0.125759
v 0.626281 0.017958 0.116449
v 0.623390 0.017958 0.115180
v 0.613780 0.017958 0.155822
v 0.676915 0.005920 0.161757
v 0.613780 0.017958 0.108209
v 0.677215 0.005920 0.105288
v 0.649615 0.017958 0.147639
v 0.648295 0.017958 0.147922
v 0.647856 0.017958 0.146940
v 0.647569 0.017958 0.146761
v 0.646726 0.017958 0.146619
v 0.630909 0.017958 0.125759
v 0.626281 0.017958 0.125759
v 0.624649 0.017958 0.115082
v 0.669197 0.017958 0.157545
v 0.675955 0.005920 0.163883
v 0.607539 0.005920 0.161757
v 0.608498 0.005920 0.100849
v 0.669974 0.017958 0.108209
v 0.649492 0.017958 0.147055
v 0.647196 0.017958 0.146655
v 0.628073 0.017958 0.113240
v 0.625666 0.017958 0.114798
v 0.614557 0.017958 0.157545
v 0.614557 0.017958 0.106487
v 0.669197 0.017958 0.106487
v 0.676915 0.005920 0.102975
v 0.626627 0.017958 0.113240
v 0.626342 0.017958 0.114205
v 0.615345 0.017958 0.158548
v 0.674983 0.005920 0.165122
v 0.608498 0.005920 0.163883
v 0.609471 0.005920 0.099610
v 0.626537 0.017958 0.113784
v 0.668409 0.017958 0.158548
v 0.615345 0.017958 0.105483
v 0.668409 0.017958 0.105483
v 0.675955 0.005920 0.100849
v 0.616209 0.017958 0.159360
v 0.609471 0.005920 0.165122
v 0.667545 0.017958 0.159360
v 0.616209 0.017958 0.104672
v 0.610538 0.005920 0.166124
v 0.673916 0.005920 0.166124
v 0.667545 0.017958 0.104672
v 0.610538 0.005920 0.098607
v 0.674983 0.005920 0.099610
v 0.617957 0.017958 0.160109
v 0.612696 0.005920 0.167048
v 0.665797 0.017958 0.160109
v 0.665797 0.017958 0.103923
v 0.617957 0.017958 0.103923
v 0.673916 0.005920 0.098607
v 0.671757 0.005920 0.167048
v 0.671757 0.005920 0.097683
v 0.612696 0.005920 0.097683
v 0.663559 0.017958 0.160356
v 0.615459 0.005920 0.167354
v 0.668995 0.005920 0.097377
v 0.663559 0.017958 0.103675
v 0.620195 0.017958 0.103675
v 0.620195 0.017958 0.160356
v 0.668995 0.005920 0.167354
v 0.615459 0.005920 0.097377
vn 0 1 0
vn 0 -1 0
vn -0.8752762016417219 0.4803294687606997 -0.05634866706235131
vn -0.8739096742498789 0.48282722649217713 0.05621165902499694
vn -0.8710012046719408 0.4855222578694463 -0.07500025715544435
vn 0.8710012046719408 -0.4855222578694463 0.07500025715544435
vn 0.8739096742498789 -0.48282722649217713 -0.05621165902499694
vn 0.8752762016417219 -0.4803294687606997 0.05634866706235131
vn -0.8691667416706126 0.48882952731015006 0.0747988529552823
vn 0.8691667416706126 -0.48882952731015006 -0.0747988529552823
vn -0.8347546952940411 0.5161295225182775 -0.1918200059159822
vn 0.8347546952940411 -0.5161295225182775 0.1918200059159822
vn 0.8521914772844141 0.5203531507411676 0.05479310684335585
vn 0.8535916546676606 0.5180381199410408 -0.05493444611240692
vn 0.8474407872385221 0.5258596349780137 0.07290923415689024
vn -0.8474407872385221 -0.5258596349780137 -0.07290923415689024
vn -0.8535916546676606 -0.5180381199410408 0.05493444611240692
vn -0.8521914772844141 -0.5203531507411676 -0.05479310684335585
vn 0.7751993893223995 0.5754160676644771 0.26069571509276684
vn 0.8089150743193797 0.557851391852616 0.1856292734106659
vn -0.8089150743193797 -0.557851391852616 -0.1856292734106659
vn -0.7751993893223995 -0.5754160676644771 -0.26069571509276684
vn -0.8300341053560714 0.5241741824609989 0.19048572226571175
vn 0.8300341053560714 -0.5241741824609989 -0.19048572226571175
vn -0.8018708517569898 0.5330466119239656 -0.26993415237590995
vn 0.8018708517569898 -0.5330466119239656 0.26993415237590995
vn 0.8493170931869323 0.5227948932518969 -0.07311617338344129
vn -0.8493170931869323 -0.5227948932518969 0.07311617338344129
vn 0.7020856618446298 0.5978201007748656 0.3868938491908572
vn -0.7020856618446298 -0.5978201007748656 -0.3868938491908572
vn -0.7952600534604954 0.5440866502631269 0.2674531068719521
vn 0.7952600534604954 -0.5440866502631269 -0.2674531068719521
vn -0.7286380954754531 0.5547835181304861 -0.40162392089200233
vn 0.7286380954754531 -0.5547835181304861 0.40162392089200233
vn 0.8136924250209497 0.5504028258824935 -0.1869795890574471
vn -0.8136924250209497 -0.5504028258824935 0.1869795890574471
vn 0.664411400200237 0.6044146250371734 0.4395912332214255
vn -0.664411400200237 -0.6044146250371734 -0.4395912332214255
vn -0.719274867276194 0.5706103755476902 0.39629214554686465
vn 0.719274867276194 -0.5706103755476902 -0.39629214554686465
vn -0.6901943031302189 0.5612563638329515 -0.45675279745569713
vn 0.6901943031302189 -0.5612563638329515 0.45675279745569713
vn 0.7818530794473296 0.5651847416965349 -0.26319568748774863
vn -0.7818530794473296 -0.5651847416965349 0.26319568748774863
vn 0.5841771135463062 0.6108072801049005 0.5344638122263843
vn -0.5841771135463062 -0.6108072801049005 -0.5344638122263843
vn -0.6799935949999426 0.5790232756700854 0.44982302852492817
vn 0.6799935949999426 -0.5790232756700854 -0.44982302852492817
vn -0.6074600136667321 0.5675433015742745 -0.5557759734229123
vn 0.6074600136667321 -0.5675433015742745 0.5557759734229123
vn 0.7114526396732375 0.5830882269300721 -0.39222858273910555
vn -0.7114526396732375 -0.5830882269300721 0.39222858273910555
vn -0.596357831747228 0.588845548331625 0.5455440007220068
vn 0.596357831747228 -0.588845548331625 -0.5455440007220068
vn 0.6746004375545318 0.5878260501484931 -0.4465140360817963
vn -0.6746004375545318 -0.5878260501484931 0.4465140360817963
vn 0.4721669115793181 0.6083092374146946 0.6379798423818742
vn -0.4721669115793181 -0.6083092374146946 -0.6379798423818742
vn -0.4908815851175686 0.5652036216046001 -0.6630083977729901
vn 0.4908815851175686 -0.5652036216046001 0.6630083977729901
vn 0.5952519451618494 0.5907687901353286 -0.5446717895972536
vn -0.5952519451618494 -0.5907687901353286 0.5446717895972536
vn -0.4803094448221048 0.5905909243225939 0.6484637208992231
vn -0.40289372691278785 0.5851768939149545 0.7037362060050414
vn 0.40289372691278785 -0.5851768939149545 -0.7037362060050414
vn 0.4803094448221048 -0.5905909243225939 -0.6484637208992231
vn 0.39712728688717513 0.6002279905110719 0.6942739210258957
vn -0.39712728688717513 -0.6002279905110719 -0.6942739210258957
vn -0.4124022318070946 0.5572800710855035 -0.7206686628204834
vn 0.4124022318070946 -0.5572800710855035 0.7206686628204834
vn -0.24856150203520114 0.5629718723016232 0.7882130744305181
vn 0.24856150203520114 -0.5629718723016232 -0.7882130744305181
vn 0.246314000959651 0.5726717265665474 0.781905689020446
vn -0.246314000959651 -0.5726717265665474 -0.781905689020446
vn -0.2549586824707134 0.5304490370147921 -0.808467618005123
vn 0.2549586824707134 -0.5304490370147921 0.808467618005123
vn 0.4066372095905941 0.5734356556895586 -0.711208639261547
vn 0.4827274479513135 0.5841318016971272 -0.6525061296574003
vn -0.4827274479513135 -0.5841318016971272 0.6525061296574003
vn -0.4066372095905941 -0.5734356556895586 0.711208639261547
vn -0.1718069309615034 0.5472576890395766 0.8191406474230486
vn 0.1718069309615034 -0.5472576890395766 -0.8191406474230486
vn 0.17063461699449584 0.5541338131899517 0.8147512163615992
vn -0.17063461699449584 -0.5541338131899517 -0.8147512163615992
vn 0.17510838866065812 0.5200126765740614 -0.8360166675509217
vn 0.25273014232776597 0.5409199168233296 -0.8022051600076064
vn -0.25273014232776597 -0.5409199168233296 0.8022051600076064
vn -0.17510838866065812 -0.5200126765740614 0.8360166675509217
vn -0.1762651715407526 0.512584757459541 -0.8403496032734545
vn 0.1762651715407526 -0.512584757459541 0.8403496032734545
vn -0.06257570978814388 0.5198350194346826 0.8519717325791115
vn 0.06257570978814388 -0.5198350194346826 -0.8519717325791115
vn 0.062424599296373125 0.5224717161048698 0.8503684350169163
vn -0.062424599296373125 -0.5224717161048698 -0.8503684350169163
vn 0.0640348923329132 0.4851345196955865 -0.8720917557021423
vn -0.0640348923329132 -0.4851345196955865 0.8720917557021423
vn -0.06418169741195359 0.48228917809956345 -0.8736577467208587
vn 0.06418169741195359 -0.48228917809956345 0.8736577467208587
vn -0.04700113934837282 0.5157340751802899 0.855458506648853
vn 0.04700113934837282 -0.5157340751802899 -0.855458506648853
vn 0.04689864194620992 0.5177236070707346 0.8542615431267341
vn -0.04689864194620992 -0.5177236070707346 -0.8542615431267341
vn 0.048107290247840405 0.4799689370326132 -0.875965471984366
vn -0.048107290247840405 -0.4799689370326132 0.875965471984366
vn -0.04820691156349964 0.4778223688858801 -0.8771327593185624
vn 0.04820691156349964 -0.4778223688858801 0.8771327593185624
usemtl material_0_0
f 1//1 2//1 3//1
f 2//1 5//1 3//1
f 7//1 2//1 4//1
f 7//1 5//1 2//1
f 7//1 4//1 10//1
f 7//1 11//1 5//1
f 12//1 6//1 8//1
f 6//1 12//1 9//1
f 7//1 10//1 15//1
f 11//1 7//1 16//1
f 24//1 13//1 17//1
f 13//1 25//1 18//1
f 27//1 20//1 14//1
f 13//1 24//1 31//1
f 13//1 31//1 25//1
f 26//1 34//1 19//1
f 20//1 27//1 36//1
f 23//1 39//1 30//1
f 25//1 31//1 40//1
f 25//1 41//1 32//1
f 33//1 42//1 26//1
f 26//1 42//1 34//1
f 43//1 37//1 21//1
f 39//1 23//1 49//1
f 25//1 40//1 51//1
f 32//1 52//1 33//1
f 41//1 25//1 53//1
f 32//1 41//1 52//1
f 33//1 52//1 42//1
f 37//1 43//1 54//1
f 39//1 49//1 62//1
f 25//1 51//1 65//1
f 25//1 65//1 53//1
f 66//1 54//1 43//1
f 37//1 54//1 67//1
f 56//1 44//1 55//1
f 62//1 49//1 61//1
f 62//1 61//1 50//1
f 50//1 74//1 63//1
f 75//1 53//1 65//1
f 76//1 67//1 54//1
f 67//1 76//1 55//1
f 55//1 68//1 56//1
f 50//1 61//1 74//1
f 63//1 74//1 53//1
f 63//1 53//1 64//1
f 64//1 53//1 75//1
f 55//1 76//1 77//1
f 55//1 77//1 68//1
f 88//1 76//1 82//1
f 77//1 76//1 83//1
f 83//1 76//1 88//1
usemtl material_1_0
f 3//2 2//2 1//2
f 1//1 4//1 2//1
f 2//2 4//2 1//2
f 3//2 5//2 2//2
f 3//1 6//1 1//1
f 1//2 6//2 3//2
f 4//1 1//1 6//1
f 6//2 1//2 4//2
f 4//2 2//2 7//2
f 2//2 5//2 7//2
f 5//1 8//1 3//1
f 3//2 8//2 5//2
f 3//1 8//1 6//1
f 6//2 8//2 3//2
f 4//1 6//1 9//1
f 9//2 6//2 4//2
f 10//2 4//2 7//2
f 5//2 11//2 7//2
f 8//1 5//1 11//1
f 11//2 5//2 8//2
f 8//2 6//2 12//2
f 9//2 12//2 6//2
f 4//1 9//1 13//1
f 13//2 9//2 4//2
f 4//1 14//1 10//1
f 10//2 14//2 4//2
f 15//2 10//2 7//2
f 16//2 7//2 11//2
f 11//1 12//1 8//1
f 8//2 12//2 11//2
f 17//1 9//1 12//1
f 12//2 9//2 17//2
f 9//1 17//1 13//1
f 13//2 17//2 9//2
f 4//1 13//1 18//1
f 18//2 13//2 4//2
f 4//1 19//1 14//1
f 14//2 19//2 4//2
f 10//1 14//1 20//1
f 20//2 14//2 10//2
f 10//1 20//1 15//1
f 15//2 20//2 10//2
f 21//1 7//1 15//1
f 15//2 7//2 21//2
f 22//1 16//1 7//1
f 7//2 16//2 22//2
f 16//1 12//1 11//1
f 11//2 12//2 16//2
f 12//1 23//1 17//1
f 17//2 23//2 12//2
f 17//2 13//2 24//2
f 18//2 25//2 13//2
f 4//1 18//1 26//1
f 26//2 18//2 4//2
f 4//1 26//1 19//1
f 19//2 26//2 4//2
f 19//1 27//1 14//1
f 14//2 27//2 19//2
f 14//2 20//2 27//2
f 21//1 15//1 20//1
f 20//2 15//2 21//2
f 22//1 7//1 21//1
f 21//2 7//2 22//2
f 28//1 16//1 22//1
f 22//2 16//2 28//2
f 29//1 12//1 16//1
f 16//2 12//2 29//2
f 12//1 29//1 23//1
f 23//2 29//2 12//2
f 17//1 23//1 30//1
f 30//2 23//2 17//2
f 31//2 24//2 13//2
f 17//1 30//1 24//1
f 24//2 30//2 17//2
f 25//2 31//2 13//2
f 32//1 18//1 25//1
f 25//2 18//2 32//2
f 18//1 33//1 26//1
f 26//2 33//2 18//2
f 19//2 34//2 26//2
f 19//1 35//1 27//1
f 27//2 35//2 19//2
f 36//2 27//2 20//2
f 21//1 20//1 36//1
f 36//2 20//2 21//2
f 22//1 21//1 37//1
f 37//2 21//2 22//2
f 28//1 29//1 16//1
f 16//2 29//2 28//2
f 38//3 28//4 22//5
f 22//6 28//7 38//8
f 23//1 29//1 35//1
f 35//2 29//2 23//2
f 30//2 39//2 23//2
f 30//1 31//1 24//1
f 24//2 31//2 30//2
f 40//2 31//2 25//2
f 18//1 32//1 33//1
f 33//2 32//2 18//2
f 32//2 41//2 25//2
f 26//2 42//2 33//2
f 34//2 42//2 26//2
f 34//1 35//1 19//1
f 19//2 35//2 34//2
f 27//1 35//1 36//1
f 36//2 35//2 27//2
f 36//1 43//1 21//1
f 21//2 43//2 36//2
f 21//2 37//2 43//2
f 22//1 37//1 44//1
f 44//2 37//2 22//2
f 28//1 45//1 29//1
f 29//2 45//2 28//2
f 28//4 38//3 46//9
f 46//10 38//8 28//7
f 22//5 47//11 38//3
f 38//8 47//12 22//6
f 48//13 35//14 29//15
f 29//16 35//17 48//18
f 23//1 35//1 49//1
f 49//2 35//2 23//2
f 49//2 23//2 39//2
f 31//1 30//1 39//1
f 39//2 30//2 31//2
f 31//1 50//1 40//1
f 40//2 50//2 31//2
f 51//2 40//2 25//2
f 33//2 52//2 32//2
f 53//2 25//2 41//2
f 52//2 41//2 32//2
f 42//2 52//2 33//2
f 42//1 35//1 34//1
f 34//2 35//2 42//2
f 36//1 35//1 43//1
f 43//2 35//2 36//2
f 54//2 43//2 37//2
f 37//1 55//1 44//1
f 44//2 55//2 37//2
f 22//1 44//1 56//1
f 56//2 44//2 22//2
f 57//1 45//1 28//1
f 28//2 45//2 57//2
f 45//19 58//20 29//15
f 29//16 58//21 45//22
f 28//4 46//9 57//23
f 57//24 46//10 28//7
f 59//25 47//11 22//5
f 22//6 47//12 59//26
f 35//14 48//13 60//27
f 60//28 48//18 35//17
f 29//15 58//20 48//13
f 48//18 58//21 29//16
f 49//1 35//1 61//1
f 61//2 35//2 49//2
f 62//2 49//2 39//2
f 31//1 39//1 62//1
f 62//2 39//2 31//2
f 31//1 62//1 50//1
f 50//2 62//2 31//2
f 40//1 50//1 63//1
f 63//2 50//2 40//2
f 40//1 64//1 51//1
f 51//2 64//2 40//2
f 65//2 51//2 25//2
f 53//2 65//2 25//2
f 53//1 35//1 41//1
f 41//2 35//2 53//2
f 41//1 35//1 52//1
f 52//2 35//2 41//2
f 52//1 35//1 42//1
f 42//2 35//2 52//2
f 43//1 35//1 66//1
f 66//2 35//2 43//2
f 43//2 54//2 66//2
f 67//2 54//2 37//2
f 55//1 37//1 67//1
f 67//2 37//2 55//2
f 55//2 44//2 56//2
f 22//1 56//1 68//1
f 68//2 56//2 22//2
f 57//1 69//1 45//1
f 45//2 69//2 57//2
f 45//19 70//29 58//20
f 58//21 70//30 45//22
f 57//23 46//9 71//31
f 71//32 46//10 57//24
f 59//25 72//33 47//11
f 47//12 72//34 59//26
f 22//1 73//1 59//1
f 59//2 73//2 22//2
f 35//14 60//27 73//35
f 73//36 60//28 35//17
f 61//1 35//1 74//1
f 74//2 35//2 61//2
f 61//2 49//2 62//2
f 50//2 61//2 62//2
f 63//2 74//2 50//2
f 40//1 63//1 64//1
f 64//2 63//2 40//2
f 51//1 64//1 75//1
f 75//2 64//2 51//2
f 51//1 75//1 65//1
f 65//2 75//2 51//2
f 65//2 53//2 75//2
f 74//1 35//1 53//1
f 53//2 35//2 74//2
f 66//1 35//1 76//1
f 76//2 35//2 66//2
f 76//1 54//1 66//1
f 66//2 54//2 76//2
f 54//2 67//2 76//2
f 55//2 76//2 67//2
f 56//2 68//2 55//2
f 22//1 68//1 77//1
f 77//2 68//2 22//2
f 78//1 69//1 57//1
f 57//2 69//2 78//2
f 69//37 70//29 45//19
f 45//22 70//30 69//38
f 57//23 71//31 78//39
f 78//40 71//32 57//24
f 79//41 72//33 59//25
f 59//26 72//34 79//42
f 22//1 35//1 73//1
f 73//2 35//2 22//2
f 59//1 73//1 80//1
f 80//2 73//2 59//2
f 73//35 60//27 81//43
f 81//44 60//28 73//36
f 74//2 61//2 50//2
f 53//2 74//2 63//2
f 64//2 53//2 63//2
f 75//2 53//2 64//2
f 76//1 35//1 82//1
f 82//2 35//2 76//2
f 77//2 76//2 55//2
f 68//2 77//2 55//2
f 22//1 77//1 83//1
f 83//2 77//2 22//2
f 84//1 69//1 78//1
f 78//2 69//2 84//2
f 69//37 85//45 70//29
f 70//30 85//46 69//38
f 78//39 71//31 86//47
f 86//48 71//32 78//40
f 79//41 87//49 72//33
f 72//34 87//50 79//42
f 59//1 80//1 79//1
f 79//2 80//2 59//2
f 22//1 82//1 35//1
f 35//2 82//2 22//2
f 73//35 81//43 80//51
f 80//52 81//44 73//36
f 82//2 76//2 88//2
f 83//2 76//2 77//2
f 22//1 83//1 88//1
f 88//2 83//2 22//2
f 84//1 89//1 69//1
f 69//2 89//2 84//2
f 78//39 86//47 84//53
f 84//54 86//48 78//40
f 89//45 85//45 69//37
f 69//38 85//46 89//46
f 90//49 87//49 79//41
f 79//42 87//50 90//50
f 79//1 80//1 91//1
f 91//2 80//2 79//2
f 22//1 88//1 82//1
f 82//2 88//2 22//2
f 80//51 81//43 92//55
f 92//56 81//44 80//52
f 88//2 76//2 83//2
f 93//1 89//1 84//1
f 84//2 89//2 93//2
f 84//53 86//47 94//53
f 94//54 86//48 84//54
f 95//57 85//45 89//45
f 89//46 85//46 95//58
f 87//49 90//49 96//59
f 96//60 90//50 87//50
f 79//1 91//1 90//1
f 90//2 91//2 79//2
f 80//51 92//55 91//61
f 91//62 92//56 80//52
f 93//1 95//1 89//1
f 89//2 95//2 93//2
f 97//63 93//64 84//53
f 84//54 93//65 97//66
f 94//53 97//63 84//53
f 84//54 97//66 94//54
f 95//57 98//67 85//45
f 85//46 98//68 95//58
f 90//1 99//1 96//1
f 96//2 99//2 90//2
f 87//49 96//59 100//69
f 100//70 96//60 87//50
f 90//1 91//1 99//1
f 99//2 91//2 90//2
f 91//61 92//55 101//61
f 101//62 92//56 91//62
f 102//1 95//1 93//1
f 93//2 95//2 102//2
f 97//63 103//71 93//64
f 93//65 103//72 97//66
f 104//73 98//67 95//57
f 95//58 98//68 104//74
f 96//1 99//1 105//1
f 105//2 99//2 96//2
f 100//69 96//59 106//75
f 106//76 96//60 100//70
f 99//77 91//61 107//78
f 107//79 91//62 99//80
f 91//61 101//61 107//78
f 107//79 101//62 91//62
f 102//1 104//1 95//1
f 95//2 104//2 102//2
f 103//71 102//81 93//64
f 93//65 102//82 103//72
f 104//73 108//83 98//67
f 98//68 108//84 104//74
f 105//85 99//77 109//86
f 109//87 99//80 105//88
f 96//1 105//1 106//1
f 106//2 105//2 96//2
f 100//69 106//75 110//89
f 110//90 106//76 100//70
f 99//77 107//78 109//86
f 109//87 107//79 99//80
f 102//1 111//1 104//1
f 104//2 111//2 102//2
f 103//71 112//91 102//81
f 102//82 112//92 103//72
f 111//93 108//83 104//73
f 104//74 108//84 111//94
f 105//85 109//86 113//95
f 113//96 109//87 105//88
f 106//1 105//1 114//1
f 114//2 105//2 106//2
f 110//89 106//75 115//97
f 115//98 106//76 110//90
f 111//1 102//1 116//1
f 116//2 102//2 111//2
f 112//91 116//99 102//81
f 102//82 116//100 112//92
f 111//93 117//101 108//83
f 108//84 117//102 111//94
f 114//103 105//85 113//95
f 113//96 105//88 114//104
f 106//1 114//1 115//1
f 115//2 114//2 106//2
f 110//89 115//97 118//105
f 118//106 115//98 110//90
f 112//91 111//93 116//99
f 116//100 111//94 112//92
f 111//93 112//91 117//101
f 117//102 112//92 111//94
f 118//105 114//103 113//95
f 113//96 114//104 118//106
f 114//103 118//105 115//97
f 115//98 118//106 114//104
