# SSTK version 0.8.0
# 51
mtllib original-51.mtl
o mesh46/mesh46-geometry#mesh46-geometry
v -0.538058 0.017958 -0.178167
v -0.529939 0.005920 -0.172152
v -0.536310 0.017958 -0.178916
v -0.532097 0.005920 -0.171228
v -0.528872 0.005920 -0.173154
v -0.585898 0.017958 -0.178167
v -0.540296 0.017958 -0.177919
v -0.593317 0.005920 -0.172152
v -0.594384 0.005920 -0.173154
v -0.535446 0.017958 -0.179728
v -0.587646 0.017958 -0.178916
v -0.534860 0.005920 -0.170922
v -0.591159 0.005920 -0.171228
v -0.595357 0.005920 -0.174393
v -0.534658 0.017958 -0.180731
v -0.583660 0.017958 -0.177919
v -0.588396 0.005920 -0.170922
v -0.588510 0.017958 -0.179728
v -0.527900 0.005920 -0.174393
v -0.589298 0.017958 -0.180731
v -0.596316 0.005920 -0.176519
v -0.533881 0.017958 -0.182454
v -0.526940 0.005920 -0.176519
v -0.590075 0.017958 -0.182454
v -0.596617 0.005920 -0.178833
v -0.533637 0.017958 -0.184327
v -0.526640 0.005920 -0.178833
v -0.590319 0.017958 -0.184327
v -0.580095 0.005920 -0.187444
v -0.533637 0.017958 -0.228193
v -0.596617 0.005920 -0.232988
v -0.543162 0.005920 -0.187444
v -0.526640 0.005920 -0.232988
v -0.566394 0.017958 -0.214845
v -0.580266 0.017958 -0.214845
v -0.590319 0.017958 -0.228193
v -0.580095 0.005920 -0.224377
v -0.543162 -0.000647 -0.187444
v -0.533881 0.017958 -0.230067
v -0.566394 0.017958 -0.215950
v -0.596316 0.005920 -0.235301
v -0.543162 0.005920 -0.224377
v -0.580095 -0.000647 -0.224377
v -0.580095 -0.000647 -0.187444
v -0.526940 0.005920 -0.235301
v -0.571572 0.017958 -0.215950
v -0.572910 0.017958 -0.214845
v -0.580266 0.017958 -0.224470
v -0.590075 0.017958 -0.230067
v -0.577976 -0.000647 -0.189562
v -0.543162 -0.000647 -0.224377
v -0.534658 0.017958 -0.231789
v -0.569962 0.017958 -0.224671
v -0.570195 0.017958 -0.217130
v -0.578986 0.017958 -0.214845
v -0.578986 0.017958 -0.219480
v -0.571446 0.017958 -0.224483
v -0.595357 0.005920 -0.237427
v -0.545280 -0.000647 -0.189562
v -0.527900 0.005920 -0.237427
v -0.570692 0.017958 -0.224624
v -0.569262 0.017958 -0.224626
v -0.568766 0.017958 -0.218445
v -0.572910 0.017958 -0.216196
v -0.578986 0.017958 -0.220618
v -0.574119 0.017958 -0.224470
v -0.589298 0.017958 -0.231789
v -0.545280 -0.000647 -0.222258
v -0.577976 -0.000647 -0.222258
v -0.545280 0.005920 -0.189562
v -0.535446 0.017958 -0.232793
v -0.568642 0.017958 -0.224492
v -0.567942 0.017958 -0.219305
v -0.571549 0.017958 -0.217359
v -0.574804 0.017958 -0.220618
v -0.578986 0.017958 -0.223333
v -0.572671 0.017958 -0.224070
v -0.594384 0.005920 -0.238666
v -0.577976 0.005920 -0.222258
v -0.577976 0.005920 -0.189562
v -0.528872 0.005920 -0.238666
v -0.568101 0.017958 -0.224269
v -0.567350 0.017958 -0.220094
v -0.570279 0.017958 -0.218517
v -0.574804 0.017958 -0.219480
v -0.568234 0.017958 -0.221163
v -0.574119 0.017958 -0.223333
v -0.588510 0.017958 -0.232793
v -0.545280 0.005920 -0.222258
v -0.529939 0.005920 -0.239669
v -0.567641 0.017958 -0.223956
v -0.566940 0.017958 -0.220996
v -0.569233 0.017958 -0.219595
v -0.568579 0.017958 -0.220427
v -0.568120 0.017958 -0.221956
v -0.572671 0.017958 -0.222712
v -0.587646 0.017958 -0.233604
v -0.536310 0.017958 -0.233604
v -0.567274 0.017958 -0.223568
v -0.566801 0.017958 -0.222020
v -0.571945 0.017958 -0.223084
v -0.593317 0.005920 -0.239669
v -0.532097 0.005920 -0.240593
v -0.567011 0.017958 -0.223115
v -0.566853 0.017958 -0.222599
v -0.568243 0.017958 -0.222624
v -0.572606 0.017958 -0.222712
v -0.571268 0.017958 -0.223346
v -0.569994 0.017958 -0.223552
v -0.538058 0.017958 -0.234353
v -0.585898 0.017958 -0.234353
v -0.591159 0.005920 -0.240593
v -0.568614 0.017958 -0.223129
v -0.570607 0.017958 -0.223501
v -0.569206 0.017958 -0.223447
v -0.588396 0.005920 -0.240899
v -0.534860 0.005920 -0.240899
v -0.540296 0.017958 -0.234601
v -0.583660 0.017958 -0.234601
vn 0.246314000959651 0.5726717265665474 0.781905689020446
vn 0.39712728688717513 0.6002279905110719 0.6942739210258957
vn 0.4721669115793181 0.6083092374146946 0.6379798423818742
vn -0.4721669115793181 -0.6083092374146946 -0.6379798423818742
vn -0.39712728688717513 -0.6002279905110719 -0.6942739210258957
vn -0.246314000959651 -0.5726717265665474 -0.781905689020446
vn 0.17063461699449584 0.5541338131899517 0.8147512163615992
vn -0.17063461699449584 -0.5541338131899517 -0.8147512163615992
vn 0.5841771135463062 0.6108072801049005 0.5344638122263843
vn -0.5841771135463062 -0.6108072801049005 -0.5344638122263843
vn 0 1 0
vn 0 -1 0
vn 0.062424599296373125 0.5224717161048698 0.8503684350169163
vn -0.062424599296373125 -0.5224717161048698 -0.8503684350169163
vn 0.04689864194620992 0.5177236070707346 0.8542615431267341
vn -0.04689864194620992 -0.5177236070707346 -0.8542615431267341
vn 0.664411400200237 0.6044146250371734 0.4395912332214255
vn -0.664411400200237 -0.6044146250371734 -0.4395912332214255
vn -0.24856150203520114 0.5629718723016232 0.7882130744305181
vn -0.1718069309615034 0.5472576890395766 0.8191406474230486
vn -0.40289372691278785 0.5851768939149545 0.7037362060050414
vn 0.40289372691278785 -0.5851768939149545 -0.7037362060050414
vn 0.1718069309615034 -0.5472576890395766 -0.8191406474230486
vn 0.24856150203520114 -0.5629718723016232 -0.7882130744305181
vn -0.06257570978814388 0.5198350194346826 0.8519717325791115
vn 0.06257570978814388 -0.5198350194346826 -0.8519717325791115
vn -0.4803094448221048 0.5905909243225939 0.6484637208992231
vn 0.4803094448221048 -0.5905909243225939 -0.6484637208992231
vn -0.596357831747228 0.588845548331625 0.5455440007220068
vn 0.596357831747228 -0.588845548331625 -0.5455440007220068
vn -0.6799935949999426 0.5790232756700854 0.44982302852492817
vn 0.6799935949999426 -0.5790232756700854 -0.44982302852492817
vn 0.7020856618446298 0.5978201007748656 0.3868938491908572
vn -0.7020856618446298 -0.5978201007748656 -0.3868938491908572
vn -0.04700113934837282 0.5157340751802899 0.855458506648853
vn 0.04700113934837282 -0.5157340751802899 -0.855458506648853
vn -0.719274867276194 0.5706103755476902 0.39629214554686465
vn 0.719274867276194 -0.5706103755476902 -0.39629214554686465
vn 0.7751993893223995 0.5754160676644771 0.26069571509276684
vn -0.7751993893223995 -0.5754160676644771 -0.26069571509276684
vn -0.7952600534604954 0.5440866502631269 0.2674531068719521
vn 0.7952600534604954 -0.5440866502631269 -0.2674531068719521
vn 0.8089150743193797 0.557851391852616 0.1856292734106659
vn -0.8089150743193797 -0.557851391852616 -0.1856292734106659
vn -0.8300341053560714 0.5241741824609989 0.19048572226571175
vn 0.8300341053560714 -0.5241741824609989 -0.19048572226571175
vn 0.8474407872385221 0.5258596349780137 0.07290923415689024
vn -0.8474407872385221 -0.5258596349780137 -0.07290923415689024
vn -0.8691667416706126 0.48882952731015006 0.0747988529552823
vn 0.8691667416706126 -0.48882952731015006 -0.0747988529552823
vn 0.8521914772844141 0.5203531507411676 0.05479310684335585
vn -0.8521914772844141 -0.5203531507411676 -0.05479310684335585
vn -0.8739096742498789 0.48282722649217713 0.05621165902499694
vn 0.8739096742498789 -0.48282722649217713 -0.05621165902499694
vn 0.8535916546676606 0.5180381199410408 -0.05493444611240692
vn -0.8535916546676606 -0.5180381199410408 0.05493444611240692
vn -0.8752762016417219 0.4803294687606997 -0.05634866706235131
vn 0.8752762016417219 -0.4803294687606997 0.05634866706235131
vn 0.8493170931869323 0.5227948932518969 -0.07311617338344129
vn -0.8493170931869323 -0.5227948932518969 0.07311617338344129
vn -0.8710012046719408 0.4855222578694463 -0.07500025715544435
vn 0.8710012046719408 -0.4855222578694463 0.07500025715544435
vn 0 0 1
vn 0 0 -1
vn 0.8136924250209497 0.5504028258824935 -0.1869795890574471
vn -0.8136924250209497 -0.5504028258824935 0.1869795890574471
vn -0.8347546952940411 0.5161295225182775 -0.1918200059159822
vn 0.8347546952940411 -0.5161295225182775 0.1918200059159822
vn -1 0 0
vn 1 0 0
vn 0.7818530794473296 0.5651847416965349 -0.26319568748774863
vn -0.7818530794473296 -0.5651847416965349 0.26319568748774863
vn -0.8018708517569898 0.5330466119239656 -0.26993415237590995
vn 0.8018708517569898 -0.5330466119239656 0.26993415237590995
vn 0.7114526396732375 0.5830882269300721 -0.39222858273910555
vn -0.7114526396732375 -0.5830882269300721 0.39222858273910555
vn -0.7286380954754531 0.5547835181304861 -0.40162392089200233
vn 0.7286380954754531 -0.5547835181304861 0.40162392089200233
vn 0.6746004375545318 0.5878260501484931 -0.4465140360817963
vn -0.6746004375545318 -0.5878260501484931 0.4465140360817963
vn -0.6901943031302189 0.5612563638329515 -0.45675279745569713
vn 0.6901943031302189 -0.5612563638329515 0.45675279745569713
vn 0.5952519451618494 0.5907687901353286 -0.5446717895972536
vn -0.5952519451618494 -0.5907687901353286 0.5446717895972536
vn -0.6074600136667321 0.5675433015742745 -0.5557759734229123
vn 0.6074600136667321 -0.5675433015742745 0.5557759734229123
vn 0.4827274479513135 0.5841318016971272 -0.6525061296574003
vn -0.4827274479513135 -0.5841318016971272 0.6525061296574003
vn -0.4908815851175686 0.5652036216046001 -0.6630083977729901
vn 0.4908815851175686 -0.5652036216046001 0.6630083977729901
vn 0.4066372095905941 0.5734356556895586 -0.711208639261547
vn -0.4066372095905941 -0.5734356556895586 0.711208639261547
vn -0.4124022318070946 0.5572800710855035 -0.7206686628204834
vn 0.4124022318070946 -0.5572800710855035 0.7206686628204834
vn 0.25273014232776597 0.5409199168233296 -0.8022051600076064
vn -0.25273014232776597 -0.5409199168233296 0.8022051600076064
vn -0.2549586824707134 0.5304490370147921 -0.808467618005123
vn 0.2549586824707134 -0.5304490370147921 0.808467618005123
vn 0.17510838866065812 0.5200126765740614 -0.8360166675509217
vn -0.17510838866065812 -0.5200126765740614 0.8360166675509217
vn -0.1762651715407526 0.512584757459541 -0.8403496032734545
vn 0.1762651715407526 -0.512584757459541 0.8403496032734545
vn 0.0640348923329132 0.4851345196955865 -0.8720917557021423
vn -0.0640348923329132 -0.4851345196955865 0.8720917557021423
vn -0.06418169741195359 0.48228917809956345 -0.8736577467208587
vn 0.06418169741195359 -0.48228917809956345 0.8736577467208587
vn -0.04820691156349964 0.4778223688858801 -0.8771327593185624
vn 0.04820691156349964 -0.4778223688858801 0.8771327593185624
vn 0.048107290247840405 0.4799689370326132 -0.875965471984366
vn -0.048107290247840405 -0.4799689370326132 0.875965471984366
usemtl material_0_0
f 1//1 2//2 3//3
f 3//4 2//5 1//6
f 1//1 4//7 2//2
f 2//5 4//8 1//6
f 3//3 2//2 5//9
f 5//10 2//5 3//4
f 6//11 1//11 3//11
f 3//12 1//12 6//12
f 7//13 4//7 1//1
f 1//6 4//8 7//14
f 4//12 8//12 2//12
f 2//11 8//11 4//11
f 2//12 9//12 5//12
f 5//11 9//11 2//11
f 3//3 5//9 10//9
f 10//10 5//10 3//4
f 6//11 7//11 1//11
f 1//12 7//12 6//12
f 6//11 3//11 11//11
f 11//12 3//12 6//12
f 7//13 12//15 4//7
f 4//8 12//16 7//14
f 4//12 13//12 8//12
f 8//11 13//11 4//11
f 2//12 8//12 9//12
f 9//11 8//11 2//11
f 5//12 9//12 14//12
f 14//11 9//11 5//11
f 10//9 5//9 15//17
f 15//18 5//10 10//10
f 11//11 3//11 10//11
f 10//12 3//12 11//12
f 7//11 6//11 16//11
f 16//12 6//12 7//12
f 13//19 6//20 11//21
f 11//22 6//23 13//24
f 7//13 17//25 12//15
f 12//16 17//26 7//14
f 12//12 13//12 4//12
f 4//11 13//11 12//11
f 8//27 13//19 11//21
f 11//22 13//24 8//28
f 9//29 8//27 18//29
f 18//30 8//28 9//30
f 18//29 14//31 9//29
f 9//30 14//32 18//30
f 5//12 14//12 19//12
f 19//11 14//11 5//11
f 15//17 5//9 19//33
f 19//34 5//10 15//18
f 18//11 10//11 15//11
f 15//12 10//12 18//12
f 11//11 10//11 18//11
f 18//12 10//12 11//12
f 17//25 16//35 6//20
f 6//23 16//36 17//26
f 17//25 7//13 16//35
f 16//36 7//14 17//26
f 13//19 17//25 6//20
f 6//23 17//26 13//24
f 13//12 12//12 17//12
f 17//11 12//11 13//11
f 8//27 11//21 18//29
f 18//30 11//22 8//28
f 20//37 14//31 18//29
f 18//30 14//32 20//38
f 19//12 14//12 21//12
f 21//11 14//11 19//11
f 15//17 19//33 22//39
f 22//40 19//34 15//18
f 18//11 15//11 20//11
f 20//12 15//12 18//12
f 20//37 21//41 14//31
f 14//32 21//42 20//38
f 19//12 21//12 23//12
f 23//11 21//11 19//11
f 22//39 19//33 23//43
f 23//44 19//34 22//40
f 20//11 15//11 22//11
f 22//12 15//12 20//12
f 24//45 21//41 20//37
f 20//38 21//42 24//46
f 23//12 21//12 25//12
f 25//11 21//11 23//11
f 22//39 23//43 26//47
f 26//48 23//44 22//40
f 20//11 22//11 24//11
f 24//12 22//12 20//12
f 24//45 25//49 21//41
f 21//42 25//50 24//46
f 23//12 25//12 27//12
f 27//11 25//11 23//11
f 26//47 23//43 27//51
f 27//52 23//44 26//48
f 24//11 22//11 26//11
f 26//12 22//12 24//12
f 28//53 25//49 24//45
f 24//46 25//50 28//54
f 27//12 25//12 29//12
f 29//11 25//11 27//11
f 27//51 30//55 26//47
f 26//48 30//56 27//52
f 24//11 26//11 28//11
f 28//12 26//12 24//12
f 28//53 31//57 25//49
f 25//50 31//58 28//54
f 29//12 25//12 31//12
f 31//11 25//11 29//11
f 32//12 27//12 29//12
f 29//11 27//11 32//11
f 30//55 27//51 33//59
f 33//60 27//52 30//56
f 30//11 34//11 26//11
f 26//12 34//12 30//12
f 28//11 26//11 35//11
f 35//12 26//12 28//12
f 31//57 28//53 36//61
f 36//62 28//54 31//58
f 29//12 31//12 37//12
f 37//11 31//11 29//11
f 27//12 32//12 33//12
f 33//11 32//11 27//11
f 29//63 38//63 32//63
f 32//64 38//64 29//64
f 30//55 33//59 39//65
f 39//66 33//60 30//56
f 34//11 30//11 40//11
f 40//12 30//12 34//12
f 35//11 26//11 34//11
f 34//12 26//12 35//12
f 28//11 35//11 36//11
f 36//12 35//12 28//12
f 36//61 41//67 31//57
f 31//58 41//68 36//62
f 37//12 31//12 42//12
f 42//11 31//11 37//11
f 43//69 29//69 37//69
f 37//70 29//70 43//70
f 33//12 32//12 42//12
f 42//11 32//11 33//11
f 38//63 29//63 44//63
f 44//64 29//64 38//64
f 38//70 42//70 32//70
f 32//69 42//69 38//69
f 39//65 33//59 45//71
f 45//72 33//60 39//66
f 36//11 30//11 39//11
f 39//12 30//12 36//12
f 40//11 30//11 46//11
f 46//12 30//12 40//12
f 34//12 47//12 40//12
f 35//11 34//11 47//11
f 47//12 34//12 35//12
f 36//11 35//11 48//11
f 48//12 35//12 36//12
f 49//73 41//67 36//61
f 36//62 41//68 49//74
f 33//12 31//12 41//12
f 41//11 31//11 33//11
f 33//12 42//12 31//12
f 31//11 42//11 33//11
f 42//64 43//64 37//64
f 37//63 43//63 42//63
f 29//69 43//69 44//69
f 44//70 43//70 29//70
f 44//12 50//12 38//12
f 38//11 50//11 44//11
f 42//70 38//70 51//70
f 51//69 38//69 42//69
f 33//12 41//12 45//12
f 45//11 41//11 33//11
f 39//65 45//71 52//75
f 52//76 45//72 39//66
f 36//11 53//11 30//11
f 30//12 53//12 36//12
f 36//11 39//11 49//11
f 49//12 39//12 36//12
f 46//11 30//11 54//11
f 54//12 30//12 46//12
f 46//12 40//12 47//12
f 35//11 47//11 55//11
f 55//12 47//12 35//12
f 48//12 56//12 35//12
f 36//11 48//11 57//11
f 57//12 48//12 36//12
f 49//73 58//77 41//67
f 41//68 58//78 49//74
f 43//64 42//64 51//64
f 51//63 42//63 43//63
f 50//12 44//12 43//12
f 43//11 44//11 50//11
f 59//12 38//12 50//12
f 50//11 38//11 59//11
f 38//12 59//12 51//12
f 51//11 59//11 38//11
f 45//12 41//12 58//12
f 58//11 41//11 45//11
f 52//75 45//71 60//79
f 60//80 45//72 52//76
f 49//11 39//11 52//11
f 52//12 39//12 49//12
f 36//11 61//11 53//11
f 53//12 61//12 36//12
f 62//11 30//11 53//11
f 53//12 30//12 62//12
f 54//11 30//11 63//11
f 63//12 30//12 54//12
f 54//12 46//12 64//12
f 64//12 46//12 47//12
f 64//11 55//11 47//11
f 47//12 55//12 64//12
f 55//12 35//12 56//12
f 65//12 56//12 48//12
f 66//11 57//11 48//11
f 48//12 57//12 66//12
f 36//11 57//11 61//11
f 61//12 57//12 36//12
f 67//81 58//77 49//73
f 49//74 58//78 67//82
f 51//12 68//12 43//12
f 43//11 68//11 51//11
f 50//12 43//12 69//12
f 69//11 43//11 50//11
f 50//64 70//64 59//64
f 59//63 70//63 50//63
f 51//12 59//12 68//12
f 68//11 59//11 51//11
f 45//12 58//12 60//12
f 60//11 58//11 45//11
f 52//75 60//79 71//83
f 71//84 60//80 52//76
f 49//11 52//11 67//11
f 67//12 52//12 49//12
f 53//12 62//12 61//12
f 72//11 30//11 62//11
f 62//12 30//12 72//12
f 63//11 30//11 73//11
f 73//12 30//12 63//12
f 63//12 54//12 74//12
f 74//12 54//12 64//12
f 55//11 64//11 56//11
f 56//12 64//12 55//12
f 75//12 56//12 65//12
f 76//12 65//12 48//12
f 66//11 77//11 57//11
f 57//12 77//12 66//12
f 66//12 76//12 48//12
f 61//12 72//12 57//12
f 67//81 78//85 58//77
f 58//78 78//86 67//82
f 69//12 43//12 68//12
f 68//11 43//11 69//11
f 79//70 50//70 69//70
f 69//69 50//69 79//69
f 70//64 50//64 80//64
f 80//63 50//63 70//63
f 70//69 68//69 59//69
f 59//70 68//70 70//70
f 60//12 58//12 78//12
f 78//11 58//11 60//11
f 71//83 60//79 81//83
f 81//84 60//80 71//84
f 67//11 52//11 71//11
f 71//12 52//12 67//12
f 62//12 72//12 61//12
f 82//11 30//11 72//11
f 72//12 30//12 82//12
f 73//11 30//11 83//11
f 83//12 30//12 73//12
f 73//12 63//12 84//12
f 84//12 63//12 74//12
f 56//11 64//11 74//11
f 74//12 64//12 56//12
f 85//12 56//12 75//12
f 75//11 86//11 65//11
f 65//12 86//12 75//12
f 65//11 86//11 76//11
f 76//12 86//12 65//12
f 87//11 77//11 66//11
f 66//12 77//12 87//12
f 57//12 82//12 77//12
f 87//12 76//12 66//12
f 72//12 82//12 57//12
f 88//85 78//85 67//81
f 67//82 78//86 88//86
f 68//63 79//63 69//63
f 69//64 79//64 68//64
f 50//70 79//70 80//70
f 80//69 79//69 50//69
f 79//12 70//12 80//12
f 80//11 70//11 79//11
f 68//69 70//69 89//69
f 89//70 70//70 68//70
f 60//12 78//12 81//12
f 81//11 78//11 60//11
f 71//83 81//83 90//87
f 90//88 81//84 71//84
f 67//11 71//11 88//11
f 88//12 71//12 67//12
f 91//11 30//11 82//11
f 82//12 30//12 91//12
f 83//11 30//11 92//11
f 92//12 30//12 83//12
f 83//12 73//12 93//12
f 93//12 73//12 84//12
f 56//11 74//11 84//11
f 84//12 74//12 56//12
f 56//11 84//11 85//11
f 85//12 84//12 56//12
f 85//11 93//11 75//11
f 75//12 93//12 85//12
f 75//11 94//11 86//11
f 86//12 94//12 75//12
f 76//11 86//11 95//11
f 95//12 86//12 76//12
f 77//11 87//11 96//11
f 96//12 87//12 77//12
f 82//12 91//12 77//12
f 76//11 96//11 87//11
f 87//12 96//12 76//12
f 78//85 88//85 97//89
f 97//90 88//86 78//86
f 79//63 68//63 89//63
f 89//64 68//64 79//64
f 70//12 79//12 89//12
f 89//11 79//11 70//11
f 81//12 78//12 90//12
f 90//11 78//11 81//11
f 98//91 71//83 90//87
f 90//88 71//84 98//92
f 88//11 71//11 98//11
f 98//12 71//12 88//12
f 99//11 30//11 91//11
f 91//12 30//12 99//12
f 92//11 30//11 100//11
f 100//12 30//12 92//12
f 92//12 83//12 94//12
f 94//12 83//12 93//12
f 93//11 85//11 84//11
f 84//12 85//12 93//12
f 75//11 93//11 94//11
f 94//12 93//12 75//12
f 86//12 92//12 94//12
f 95//12 100//12 86//12
f 76//11 95//11 96//11
f 96//12 95//12 76//12
f 77//12 101//12 96//12
f 91//12 99//12 77//12
f 88//11 98//11 97//11
f 97//12 98//12 88//12
f 78//85 97//89 102//93
f 102//94 97//90 78//86
f 90//12 78//12 102//12
f 102//11 78//11 90//11
f 98//91 90//87 103//95
f 103//96 90//88 98//92
f 104//11 30//11 99//11
f 99//12 30//12 104//12
f 100//11 30//11 105//11
f 105//12 30//12 100//12
f 100//12 92//12 86//12
f 106//12 100//12 95//12
f 96//11 95//11 106//11
f 106//12 95//12 96//12
f 107//12 96//12 101//12
f 108//12 101//12 77//12
f 99//12 109//12 77//12
f 97//11 98//11 110//11
f 110//12 98//12 97//12
f 102//93 97//89 111//97
f 111//98 97//90 102//94
f 90//12 102//12 112//12
f 112//11 102//11 90//11
f 90//12 112//12 103//12
f 103//11 112//11 90//11
f 110//99 98//91 103//95
f 103//96 98//92 110//100
f 105//11 30//11 104//11
f 104//12 30//12 105//12
f 99//12 104//12 113//12
f 105//12 100//12 106//12
f 96//11 106//11 107//11
f 107//12 106//12 96//12
f 107//11 113//11 101//11
f 101//12 113//12 107//12
f 101//11 113//11 108//11
f 108//12 113//12 101//12
f 114//12 108//12 77//12
f 109//12 114//12 77//12
f 109//12 99//12 115//12
f 97//11 110//11 111//11
f 111//12 110//12 97//12
f 102//93 111//97 112//101
f 112//102 111//98 102//94
f 103//12 112//12 116//12
f 116//11 112//11 103//11
f 110//99 103//95 117//103
f 117//104 103//96 110//100
f 104//12 105//12 106//12
f 113//12 104//12 106//12
f 115//12 99//12 113//12
f 113//11 107//11 106//11
f 106//12 107//12 113//12
f 108//11 113//11 115//11
f 115//12 113//12 108//12
f 108//11 115//11 114//11
f 114//12 115//12 108//12
f 114//11 115//11 109//11
f 109//12 115//12 114//12
f 111//11 110//11 118//11
f 118//12 110//12 111//12
f 112//101 111//97 119//105
f 119//106 111//98 112//102
f 112//101 119//105 116//107
f 116//108 119//106 112//102
f 103//12 116//12 117//12
f 117//11 116//11 103//11
f 118//109 110//99 117//103
f 117//104 110//100 118//110
f 111//11 118//11 119//11
f 119//12 118//12 111//12
f 118//109 116//107 119//105
f 119//106 116//108 118//110
f 116//107 118//109 117//103
f 117//104 118//110 116//108
usemtl material_1_0
f 40//11 47//11 34//11
f 47//11 40//11 46//11
f 35//11 56//11 48//11
f 64//11 46//11 54//11
f 47//11 46//11 64//11
f 56//11 35//11 55//11
f 48//11 56//11 65//11
f 61//11 62//11 53//11
f 74//11 54//11 63//11
f 64//11 54//11 74//11
f 65//11 56//11 75//11
f 48//11 65//11 76//11
f 48//11 76//11 66//11
f 57//11 72//11 61//11
f 61//11 72//11 62//11
f 84//11 63//11 73//11
f 74//11 63//11 84//11
f 75//11 56//11 85//11
f 77//11 82//11 57//11
f 66//11 76//11 87//11
f 57//11 82//11 72//11
f 93//11 73//11 83//11
f 84//11 73//11 93//11
f 77//11 91//11 82//11
f 94//11 83//11 92//11
f 93//11 83//11 94//11
f 94//11 92//11 86//11
f 86//11 100//11 95//11
f 96//11 101//11 77//11
f 77//11 99//11 91//11
f 86//11 92//11 100//11
f 95//11 100//11 106//11
f 101//11 96//11 107//11
f 77//11 101//11 108//11
f 77//11 109//11 99//11
f 113//11 104//11 99//11
f 106//11 100//11 105//11
f 77//11 108//11 114//11
f 77//11 114//11 109//11
f 115//11 99//11 109//11
f 106//11 105//11 104//11
f 106//11 104//11 113//11
f 113//11 99//11 115//11
