# SSTK version 0.8.0
# 17
mtllib original-17.mtl
o mesh14/mesh14-geometry#mesh14-geometry
v -0.099987 0.017958 0.246810
v -0.093047 0.005920 0.252745
v -0.099744 0.017958 0.244937
v -0.094006 0.005920 0.254871
v -0.092746 0.005920 0.250431
v -0.564399 0.017958 0.246810
v -0.100765 0.017958 0.248533
v -0.569680 0.005920 0.254871
v -0.570640 0.005920 0.252745
v -0.099744 0.017958 0.184743
v -0.563622 0.017958 0.248533
v -0.564643 0.017958 0.244937
v -0.094979 0.005920 0.256110
v -0.568708 0.005920 0.256110
v -0.570941 0.005920 0.250431
v -0.092746 0.005920 0.179948
v -0.101552 0.017958 0.249536
v -0.562834 0.017958 0.249536
v -0.109268 0.005920 0.241820
v -0.099987 0.017958 0.182869
v -0.564643 0.017958 0.184743
v -0.570941 0.005920 0.179948
v -0.102417 0.017958 0.250348
v -0.567641 0.005920 0.257112
v -0.554419 0.005920 0.241820
v -0.109268 0.005920 0.188559
v -0.093047 0.005920 0.177635
v -0.561970 0.017958 0.250348
v -0.096046 0.005920 0.257112
v -0.111387 0.005920 0.239701
v -0.109268 -0.000647 0.241820
v -0.554419 0.005920 0.188559
v -0.100765 0.017958 0.181147
v -0.564399 0.017958 0.182869
v -0.570640 0.005920 0.177635
v -0.560222 0.017958 0.251097
v -0.104165 0.017958 0.251097
v -0.565483 0.005920 0.258036
v -0.552300 0.005920 0.239701
v -0.554419 -0.000647 0.241820
v -0.109268 -0.000647 0.188559
v -0.111387 0.005920 0.190678
v -0.554419 -0.000647 0.188559
v -0.552300 0.005920 0.190678
v -0.094006 0.005920 0.175509
v -0.098204 0.005920 0.258036
v -0.552300 -0.000647 0.239701
v -0.111387 -0.000647 0.239701
v -0.111387 -0.000647 0.190678
v -0.101552 0.017958 0.180143
v -0.563622 0.017958 0.181147
v -0.569680 0.005920 0.175509
v -0.557984 0.017958 0.251344
v -0.562720 0.005920 0.258342
v -0.106402 0.017958 0.251344
v -0.094979 0.005920 0.174270
v -0.100967 0.005920 0.258342
v -0.552300 -0.000647 0.190678
v -0.568708 0.005920 0.174270
v -0.096046 0.005920 0.173267
v -0.562834 0.017958 0.180143
v -0.102417 0.017958 0.179332
v -0.567641 0.005920 0.173267
v -0.098204 0.005920 0.172343
v -0.561970 0.017958 0.179332
v -0.565483 0.005920 0.172343
v -0.104165 0.017958 0.178583
v -0.560222 0.017958 0.178583
v -0.562720 0.005920 0.172037
v -0.100967 0.005920 0.172037
v -0.557984 0.017958 0.178335
v -0.106402 0.017958 0.178335
vn 0.7756628223336752 0.5752178682457871 0.259752940503336
vn 0.8093093041862429 0.5576012095794725 0.18466006940616206
vn 0.8475125356200411 0.5257807119074762 0.07264396019598787
vn -0.8475125356200411 -0.5257807119074762 -0.07264396019598787
vn -0.8093093041862429 -0.5576012095794725 -0.18466006940616206
vn -0.7756628223336752 -0.5752178682457871 -0.259752940503336
vn 0.7022751684635434 0.5977791433967726 0.3866130927417264
vn -0.7022751684635434 -0.5977791433967726 -0.3866130927417264
vn 0.8522674287170448 0.5202602617071055 0.05449302741168897
vn -0.8522674287170448 -0.5202602617071055 -0.05449302741168897
vn 0 1 0
vn 0 -1 0
vn 0.6646159549307319 0.6043869590150106 0.4393199702086155
vn -0.6646159549307319 -0.6043869590150106 -0.4393199702086155
vn 0.8536501864858792 0.517969113153991 -0.05467501194414038
vn -0.8536501864858792 -0.517969113153991 0.05467501194414038
vn 0.5841980943672783 0.610807098665511 0.534441086329879
vn -0.5841980943672783 -0.610807098665511 -0.534441086329879
vn 0.8493730282017331 0.5227360173564042 -0.07288700242006717
vn -0.8493730282017331 -0.5227360173564042 0.07288700242006717
vn -0.8304558166930928 0.5238818843633025 0.18944895818284138
vn -0.7957609037340241 0.5438489342086948 0.2664449677672216
vn -0.719511685592889 0.5705487506856552 0.3959508269802171
vn 0.719511685592889 -0.5705487506856552 -0.3959508269802171
vn 0.7957609037340241 -0.5438489342086948 -0.2664449677672216
vn 0.8304558166930928 -0.5238818843633025 -0.18944895818284138
vn -0.8739839254836966 0.4827279588423746 0.05590899523317132
vn -0.8692379482455742 0.48874397090018495 0.07452999556248421
vn 0.8692379482455742 -0.48874397090018495 -0.07452999556248421
vn 0.8739839254836966 -0.4827279588423746 -0.05590899523317132
vn -0.5964070254519686 0.5888420251291283 0.5454940232792307
vn -0.6802489182075553 0.5789789303841566 0.4494939459533007
vn 0.5964070254519686 -0.5888420251291283 -0.5454940232792307
vn 0.6802489182075553 -0.5789789303841566 -0.4494939459533007
vn 0.8139969444699444 0.5502269624640682 -0.1861699872996701
vn -0.8139969444699444 -0.5502269624640682 0.1861699872996701
vn -0.8753334797627699 0.4802557145694658 -0.05608696666581496
vn 0.8753334797627699 -0.4802557145694658 0.05608696666581496
vn 0.47169915132347057 0.6082751951377554 0.6383582047885368
vn -0.47169915132347057 -0.6082751951377554 -0.6383582047885368
vn -0.4799991260338671 0.5905791550689797 0.648704170330925
vn 0.4799991260338671 -0.5905791550689797 -0.648704170330925
vn 0.7822148543222747 0.5650508947663438 -0.26240695112999
vn -0.7822148543222747 -0.5650508947663438 0.26240695112999
vn -0.8710565680631893 0.4854587592722265 -0.07476796292429605
vn 0.8710565680631893 -0.4854587592722265 0.07476796292429605
vn 0.39663301002965906 0.6001590151762213 0.6946160175647554
vn -0.39663301002965906 -0.6001590151762213 -0.6946160175647554
vn -0.40256602103548417 0.5851440305758244 0.7039510367839065
vn 0.40256602103548417 -0.5851440305758244 -0.7039510367839065
vn 0 0 1
vn 0 0 -1
vn 1 0 0
vn -1 0 0
vn 0.7115800143276636 0.5830670117400544 -0.39202900789350414
vn -0.7115800143276636 -0.5830670117400544 0.39202900789350414
vn -0.8350836225418704 0.5159207668036081 -0.19094791369146702
vn 0.8350836225418704 -0.5159207668036081 0.19094791369146702
vn 0.24531885667679293 0.57245166555523 0.7823795429085773
vn -0.24531885667679293 -0.57245166555523 -0.7823795429085773
vn -0.2477230818286451 0.562820185912483 0.788585260487892
vn 0.2477230818286451 -0.562820185912483 -0.788585260487892
vn 0.6747392442114553 0.5878132127499198 -0.4463211615390557
vn -0.6747392442114553 -0.5878132127499198 0.4463211615390557
vn -0.8022651477993161 0.5328820981715457 -0.26908604957305476
vn 0.8022651477993161 -0.5328820981715457 0.26908604957305476
vn -0.1709469833468585 0.5470609467069664 0.8194519201714562
vn 0.1709469833468585 -0.5470609467069664 -0.8194519201714562
vn 0.16961202562736133 0.5538580836846395 0.8151521231646043
vn -0.16961202562736133 -0.5538580836846395 -0.8151521231646043
vn 0.5952466648601504 0.5907686673813832 -0.5446776933318388
vn -0.5952466648601504 -0.5907686673813832 0.5446776933318388
vn -0.7288078879119064 0.5547479146817189 -0.40136493827148206
vn 0.7288078879119064 -0.5547479146817189 0.40136493827148206
vn -0.06240799418775655 0.5197909515903116 0.8520109206496705
vn 0.06240799418775655 -0.5197909515903116 -0.8520109206496705
vn 0.06222998783310513 0.5224128978604523 0.8504188337303781
vn -0.06222998783310513 -0.5224128978604523 -0.8504188337303781
vn -0.6903791689792973 0.5612321373688784 -0.4565031117350849
vn 0.6903791689792973 -0.5612321373688784 0.4565031117350849
vn -0.04681200256995561 0.5156840283107961 0.8554990469664713
vn 0.04681200256995561 -0.5156840283107961 -0.8554990469664713
vn 0.04667898173447134 0.5176557974408084 0.8543146657058823
vn -0.04667898173447134 -0.5176557974408084 -0.8543146657058823
vn 0.48214012288957764 0.584068148869353 -0.6529971664382246
vn -0.48214012288957764 -0.584068148869353 0.6529971664382246
vn -0.6074801470815923 0.5675431374121421 -0.5557541345578179
vn 0.6074801470815923 -0.5675431374121421 0.5557541345578179
vn 0.40601386677915785 0.5733288118799543 -0.7116507664939005
vn -0.40601386677915785 -0.5733288118799543 0.7116507664939005
vn 0.25167197589574014 0.540659948217485 -0.8027129231189694
vn -0.25167197589574014 -0.540659948217485 0.8027129231189694
vn -0.49045187882652147 0.5651748603650902 -0.6633508361092458
vn 0.49045187882652147 -0.5651748603650902 0.6633508361092458
vn -0.4119471215586104 0.557220164426222 -0.72097521274756
vn 0.4119471215586104 -0.557220164426222 0.72097521274756
vn 0.1740209668106374 0.5196939008837289 -0.8364418404734092
vn -0.1740209668106374 -0.5196939008837289 0.8364418404734092
vn -0.2540631145969721 0.530266239180353 -0.8088693648462714
vn 0.2540631145969721 -0.530266239180353 0.8088693648462714
vn -0.17534502277959943 0.5123550665615881 -0.840682109215542
vn 0.17534502277959943 -0.5123550665615881 0.840682109215542
vn 0.06383899403150121 0.48507195464916986 -0.872140918460933
vn -0.06383899403150121 -0.48507195464916986 0.872140918460933
vn -0.06401201334253744 0.4822421005175894 -0.8736961821115039
vn 0.06401201334253744 -0.4822421005175894 0.8736961821115039
vn -0.04801599351762524 0.47776793549918317 -0.8771728815777218
vn 0.04801599351762524 -0.47776793549918317 0.8771728815777218
vn 0.047886023365966854 0.4798962341651846 -0.87601742745237
vn -0.047886023365966854 -0.4798962341651846 0.87601742745237
usemtl material_0_0
f 1//1 2//2 3//3
f 3//4 2//5 1//6
f 1//1 4//7 2//2
f 2//5 4//8 1//6
f 3//3 2//2 5//9
f 5//10 2//5 3//4
f 6//11 1//11 3//11
f 3//12 1//12 6//12
f 7//13 4//7 1//1
f 1//6 4//8 7//14
f 4//12 8//12 2//12
f 2//11 8//11 4//11
f 2//12 9//12 5//12
f 5//11 9//11 2//11
f 5//9 10//15 3//3
f 3//4 10//16 5//10
f 11//11 1//11 6//11
f 6//12 1//12 11//12
f 6//11 3//11 12//11
f 12//12 3//12 6//12
f 7//13 13//17 4//7
f 4//8 13//18 7//14
f 11//11 7//11 1//11
f 1//12 7//12 11//12
f 4//12 14//12 8//12
f 8//11 14//11 4//11
f 2//12 8//12 9//12
f 9//11 8//11 2//11
f 5//12 9//12 15//12
f 15//11 9//11 5//11
f 10//15 5//9 16//19
f 16//20 5//10 10//16
f 12//11 3//11 10//11
f 10//12 3//12 12//12
f 6//21 9//22 11//23
f 11//24 9//25 6//26
f 12//27 15//28 6//21
f 6//26 15//29 12//30
f 17//17 13//17 7//13
f 7//14 13//18 17//18
f 13//12 14//12 4//12
f 4//11 14//11 13//11
f 18//11 7//11 11//11
f 11//12 7//12 18//12
f 18//31 8//32 14//31
f 14//33 8//34 18//33
f 11//23 9//22 8//32
f 8//34 9//25 11//24
f 6//21 15//28 9//22
f 9//25 15//29 6//26
f 5//12 15//12 19//12
f 19//11 15//11 5//11
f 5//12 19//12 16//12
f 16//11 19//11 5//11
f 10//15 16//19 20//35
f 20//36 16//20 10//16
f 12//11 10//11 21//11
f 21//12 10//12 12//12
f 12//27 22//37 15//28
f 15//29 22//38 12//30
f 17//17 23//39 13//17
f 13//18 23//40 17//18
f 18//11 17//11 7//11
f 7//12 17//12 18//12
f 13//12 24//12 14//12
f 14//11 24//11 13//11
f 11//23 8//32 18//31
f 18//33 8//34 11//24
f 18//31 14//31 24//41
f 24//42 14//33 18//33
f 15//12 25//12 19//12
f 19//11 25//11 15//11
f 16//12 19//12 26//12
f 26//11 19//11 16//11
f 20//35 16//19 27//43
f 27//44 16//20 20//36
f 21//11 10//11 20//11
f 20//12 10//12 21//12
f 22//37 12//27 21//45
f 21//46 12//30 22//38
f 25//12 15//12 22//12
f 22//11 15//11 25//11
f 28//11 23//11 17//11
f 17//12 23//12 28//12
f 23//39 29//47 13//17
f 13//18 29//48 23//40
f 28//11 17//11 18//11
f 18//12 17//12 28//12
f 29//12 24//12 13//12
f 13//11 24//11 29//11
f 18//31 24//41 28//49
f 28//50 24//42 18//33
f 19//11 30//11 25//11
f 25//12 30//12 19//12
f 25//51 31//51 19//51
f 19//52 31//52 25//52
f 31//53 26//53 19//53
f 19//54 26//54 31//54
f 30//11 19//11 26//11
f 26//12 19//12 30//12
f 16//12 26//12 32//12
f 32//11 26//11 16//11
f 16//12 22//12 27//12
f 27//11 22//11 16//11
f 20//35 27//43 33//55
f 33//56 27//44 20//36
f 21//11 20//11 34//11
f 34//12 20//12 21//12
f 21//45 35//57 22//37
f 22//38 35//58 21//46
f 25//12 22//12 32//12
f 32//11 22//11 25//11
f 36//11 23//11 28//11
f 28//12 23//12 36//12
f 37//59 29//47 23//39
f 23//40 29//48 37//60
f 29//12 38//12 24//12
f 24//11 38//11 29//11
f 24//41 38//61 28//49
f 28//50 38//62 24//42
f 39//11 25//11 30//11
f 30//12 25//12 39//12
f 31//51 25//51 40//51
f 40//52 25//52 31//52
f 26//53 31//53 41//53
f 41//54 31//54 26//54
f 30//11 26//11 42//11
f 42//12 26//12 30//12
f 26//52 43//52 32//52
f 32//51 43//51 26//51
f 32//11 44//11 26//11
f 26//12 44//12 32//12
f 32//12 22//12 16//12
f 16//11 22//11 32//11
f 27//12 22//12 35//12
f 35//11 22//11 27//11
f 33//55 27//43 45//63
f 45//64 27//44 33//56
f 34//11 20//11 33//11
f 33//12 20//12 34//12
f 34//65 35//57 21//45
f 21//46 35//58 34//66
f 43//54 25//54 32//54
f 32//53 25//53 43//53
f 25//11 39//11 32//11
f 32//12 39//12 25//12
f 36//11 37//11 23//11
f 23//12 37//12 36//12
f 38//61 36//67 28//49
f 28//50 36//68 38//62
f 37//59 46//69 29//47
f 29//48 46//70 37//60
f 46//12 38//12 29//12
f 29//11 38//11 46//11
f 39//12 42//12 30//12
f 30//11 42//11 39//11
f 30//52 47//52 39//52
f 39//51 47//51 30//51
f 25//54 43//54 40//54
f 40//53 43//53 25//53
f 48//12 31//12 40//12
f 40//11 31//11 48//11
f 31//12 48//12 41//12
f 41//11 48//11 31//11
f 43//52 26//52 41//52
f 41//51 26//51 43//51
f 42//11 26//11 44//11
f 44//12 26//12 42//12
f 49//54 30//54 42//54
f 42//53 30//53 49//53
f 32//11 39//11 44//11
f 44//12 39//12 32//12
f 27//12 35//12 45//12
f 45//11 35//11 27//11
f 33//55 45//63 50//71
f 50//72 45//64 33//56
f 34//11 33//11 51//11
f 51//12 33//12 34//12
f 34//65 52//73 35//57
f 35//58 52//74 34//66
f 53//11 37//11 36//11
f 36//12 37//12 53//12
f 38//61 54//75 36//67
f 36//68 54//76 38//62
f 55//77 46//69 37//59
f 37//60 46//70 55//78
f 46//12 54//12 38//12
f 38//11 54//11 46//11
f 42//12 39//12 44//12
f 44//11 39//11 42//11
f 47//52 30//52 48//52
f 48//51 30//51 47//51
f 47//53 44//53 39//53
f 39//54 44//54 47//54
f 47//12 40//12 43//12
f 43//11 40//11 47//11
f 40//12 47//12 48//12
f 48//11 47//11 40//11
f 41//12 48//12 49//12
f 49//11 48//11 41//11
f 49//12 43//12 41//12
f 41//11 43//11 49//11
f 44//51 49//51 42//51
f 42//52 49//52 44//52
f 30//54 49//54 48//54
f 48//53 49//53 30//53
f 45//12 35//12 52//12
f 52//11 35//11 45//11
f 50//71 45//63 56//71
f 56//72 45//64 50//72
f 51//11 33//11 50//11
f 50//12 33//12 51//12
f 51//79 52//73 34//65
f 34//66 52//74 51//80
f 37//11 53//11 55//11
f 55//12 53//12 37//12
f 54//75 53//81 36//67
f 36//68 53//82 54//76
f 55//77 57//83 46//69
f 46//70 57//84 55//78
f 54//12 46//12 57//12
f 57//11 46//11 54//11
f 44//53 47//53 58//53
f 58//54 47//54 44//54
f 47//12 43//12 58//12
f 58//11 43//11 47//11
f 58//12 43//12 49//12
f 49//11 43//11 58//11
f 49//51 44//51 58//51
f 58//52 44//52 49//52
f 45//12 52//12 59//12
f 59//11 52//11 45//11
f 45//12 59//12 56//12
f 56//11 59//11 45//11
f 60//85 50//71 56//71
f 56//72 50//72 60//86
f 51//11 50//11 61//11
f 61//12 50//12 51//12
f 51//79 59//87 52//73
f 52//74 59//88 51//80
f 54//75 55//77 53//81
f 53//82 55//78 54//76
f 55//77 54//75 57//83
f 57//84 54//76 55//78
f 56//12 59//12 60//12
f 60//11 59//11 56//11
f 60//85 62//89 50//71
f 50//72 62//90 60//86
f 61//11 50//11 62//11
f 62//12 50//12 61//12
f 61//87 59//87 51//79
f 51//80 59//88 61//88
f 60//12 59//12 63//12
f 63//11 59//11 60//11
f 62//89 60//85 64//91
f 64//92 60//86 62//90
f 61//11 62//11 65//11
f 65//12 62//12 61//12
f 59//87 61//87 65//93
f 65//94 61//88 59//88
f 59//87 65//93 63//95
f 63//96 65//94 59//88
f 60//12 63//12 66//12
f 66//11 63//11 60//11
f 60//12 66//12 64//12
f 64//11 66//11 60//11
f 67//97 62//89 64//91
f 64//92 62//90 67//98
f 65//11 62//11 67//11
f 67//12 62//12 65//12
f 63//95 65//93 68//99
f 68//100 65//94 63//96
f 63//95 68//99 66//101
f 66//102 68//100 63//96
f 64//12 66//12 69//12
f 69//11 66//11 64//11
f 67//97 64//91 70//103
f 70//104 64//92 67//98
f 65//11 67//11 68//11
f 68//12 67//12 65//12
f 66//101 68//99 71//105
f 71//106 68//100 66//102
f 66//101 71//105 69//107
f 69//108 71//106 66//102
f 64//12 69//12 70//12
f 70//11 69//11 64//11
f 72//109 67//97 70//103
f 70//104 67//98 72//110
f 68//11 67//11 72//11
f 72//12 67//12 68//12
f 68//11 72//11 71//11
f 71//12 72//12 68//12
f 72//109 69//107 71//105
f 71//106 69//108 72//110
f 69//107 72//109 70//103
f 70//104 72//110 69//108
