# SSTK version 0.8.0
# 123
mtllib original-123.mtl
o mesh115/mesh115-geometry#mesh115-geometry
v -0.494394 0.017958 -0.087227
v -0.496179 0.017958 -0.078767
v -0.494394 0.017958 -0.078767
v -0.496179 0.017958 -0.085015
v -0.501543 0.017958 -0.078767
v -0.454330 0.017958 -0.113897
v -0.496104 0.017958 -0.087227
v -0.492339 0.017958 -0.078767
v -0.502808 0.017958 -0.079417
v -0.492339 0.017958 -0.077279
v -0.496672 0.017958 -0.095685
v -0.511011 0.017958 -0.113897
v -0.502808 0.017958 -0.077279
v -0.494394 0.017958 -0.073383
v -0.495024 0.017958 -0.099422
v -0.497769 0.017958 -0.095685
v -0.501944 0.017958 -0.099832
v -0.496179 0.017958 -0.077279
v -0.454330 0.017958 -0.070031
v -0.494394 0.017958 -0.077279
v -0.494331 0.017958 -0.099753
v -0.495805 0.017958 -0.099188
v -0.496672 0.017958 -0.099051
v -0.511011 0.017958 -0.070031
v -0.501944 0.017958 -0.101673
v -0.496179 0.017958 -0.073383
v -0.447332 0.005920 -0.064537
v -0.493725 0.017958 -0.100181
v -0.500075 0.017958 -0.099242
v -0.497769 0.017958 -0.099004
v -0.517309 0.005920 -0.118692
v -0.501163 0.017958 -0.101296
v -0.501219 0.017958 -0.105843
v -0.447332 0.005920 -0.118692
v -0.447633 0.005920 -0.062224
v -0.493233 0.017958 -0.100688
v -0.498959 0.017958 -0.099068
v -0.517309 0.005920 -0.064537
v -0.517009 0.005920 -0.121005
v -0.500279 0.017958 -0.100892
v -0.501795 0.017958 -0.101673
v -0.500345 0.017958 -0.105172
v -0.501714 0.017958 -0.106699
v -0.454574 0.017958 -0.068158
v -0.454574 0.017958 -0.115771
v -0.492881 0.017958 -0.101256
v -0.496672 0.017958 -0.100399
v -0.497769 0.017958 -0.100380
v -0.510768 0.017958 -0.068158
v -0.510768 0.017958 -0.115771
v -0.499150 0.017958 -0.100562
v -0.497769 0.017958 -0.104406
v -0.499043 0.017958 -0.104695
v -0.494272 0.017958 -0.105173
v -0.497769 0.017958 -0.105987
v -0.501879 0.017958 -0.107735
v -0.447633 0.005920 -0.121005
v -0.448592 0.005920 -0.060097
v -0.492670 0.017958 -0.101885
v -0.494957 0.017958 -0.100966
v -0.495685 0.017958 -0.100597
v -0.517009 0.005920 -0.062224
v -0.516049 0.005920 -0.123131
v -0.498457 0.017958 -0.104550
v -0.495501 0.017958 -0.105578
v -0.498906 0.017958 -0.106310
v -0.496672 0.017958 -0.105829
v -0.499619 0.017958 -0.106703
v -0.501811 0.017958 -0.108396
v -0.455351 0.017958 -0.066436
v -0.455351 0.017958 -0.117493
v -0.497769 0.017958 -0.113694
v -0.492600 0.017958 -0.102575
v -0.494507 0.017958 -0.101536
v -0.496672 0.017958 -0.104248
v -0.509991 0.017958 -0.066436
v -0.509991 0.017958 -0.117493
v -0.493358 0.017958 -0.104555
v -0.496068 0.017958 -0.105703
v -0.497769 0.017958 -0.109827
v -0.496672 0.017958 -0.109836
v -0.499996 0.017958 -0.107235
v -0.500121 0.017958 -0.107977
v -0.501608 0.017958 -0.109004
v -0.448592 0.005920 -0.123131
v -0.497769 0.017958 -0.111166
v -0.496672 0.017958 -0.113694
v -0.449565 0.005920 -0.058858
v -0.492789 0.017958 -0.103697
v -0.494357 0.017958 -0.102333
v -0.516049 0.005920 -0.060097
v -0.515077 0.005920 -0.124370
v -0.493223 0.017958 -0.108665
v -0.499952 0.017958 -0.108721
v -0.501269 0.017958 -0.109558
v -0.509203 0.017958 -0.065432
v -0.456138 0.017958 -0.118497
v -0.498687 0.017958 -0.111037
v -0.496672 0.017958 -0.111184
v -0.456138 0.017958 -0.065432
v -0.493026 0.017958 -0.104159
v -0.494493 0.017958 -0.103090
v -0.509203 0.017958 -0.118497
v -0.500796 0.017958 -0.110059
v -0.493093 0.017958 -0.108665
v -0.494678 0.017958 -0.109422
v -0.499443 0.017958 -0.109283
v -0.449565 0.005920 -0.124370
v -0.499497 0.017958 -0.110810
v -0.494748 0.017958 -0.110961
v -0.457003 0.017958 -0.064620
v -0.495616 0.017958 -0.103973
v -0.494901 0.017958 -0.103611
v -0.515077 0.005920 -0.058858
v -0.508339 0.017958 -0.119308
v -0.498685 0.017958 -0.109654
v -0.493093 0.017958 -0.110487
v -0.495555 0.017958 -0.109691
v -0.500200 0.017958 -0.110484
v -0.508339 0.017958 -0.064620
v -0.450632 0.005920 -0.125373
v -0.450632 0.005920 -0.057856
v -0.514010 0.005920 -0.057856
v -0.457003 0.017958 -0.119308
v -0.514010 0.005920 -0.125373
v -0.458751 0.017958 -0.063871
v -0.506591 0.017958 -0.063871
v -0.458751 0.017958 -0.120057
v -0.506591 0.017958 -0.120057
v -0.511852 0.005920 -0.056932
v -0.452790 0.005920 -0.126297
v -0.452790 0.005920 -0.056932
v -0.511852 0.005920 -0.126297
v -0.460988 0.017958 -0.063624
v -0.509089 0.005920 -0.056626
v -0.455553 0.005920 -0.126603
v -0.460988 0.017958 -0.120305
v -0.504353 0.017958 -0.120305
v -0.455553 0.005920 -0.056626
v -0.504353 0.017958 -0.063624
v -0.509089 0.005920 -0.126603
vn 0 1 0
vn 0 -1 0
vn 0.8521914772844141 0.5203531507411676 0.05479310684335585
vn 0.8535916546676606 0.5180381199410408 -0.05493444611240692
vn 0.8474407872385221 0.5258596349780137 0.07290923415689024
vn -0.8474407872385221 -0.5258596349780137 -0.07290923415689024
vn -0.8535916546676606 -0.5180381199410408 0.05493444611240692
vn -0.8521914772844141 -0.5203531507411676 -0.05479310684335585
vn -0.8752762016417219 0.4803294687606997 -0.05634866706235131
vn -0.8739096742498789 0.48282722649217713 0.05621165902499694
vn -0.8710012046719408 0.4855222578694463 -0.07500025715544435
vn 0.8710012046719408 -0.4855222578694463 0.07500025715544435
vn 0.8739096742498789 -0.48282722649217713 -0.05621165902499694
vn 0.8752762016417219 -0.4803294687606997 0.05634866706235131
vn 0.8493170931869323 0.5227948932518969 -0.07311617338344129
vn -0.8493170931869323 -0.5227948932518969 0.07311617338344129
vn 0.8089150743193797 0.557851391852616 0.1856292734106659
vn -0.8089150743193797 -0.557851391852616 -0.1856292734106659
vn -0.8691667416706126 0.48882952731015006 0.0747988529552823
vn 0.8691667416706126 -0.48882952731015006 -0.0747988529552823
vn -0.8347546952940411 0.5161295225182775 -0.1918200059159822
vn 0.8347546952940411 -0.5161295225182775 0.1918200059159822
vn 0.8136924250209497 0.5504028258824935 -0.1869795890574471
vn -0.8136924250209497 -0.5504028258824935 0.1869795890574471
vn 0.7751993893223995 0.5754160676644771 0.26069571509276684
vn -0.7751993893223995 -0.5754160676644771 -0.26069571509276684
vn -0.8300341053560714 0.5241741824609989 0.19048572226571175
vn 0.8300341053560714 -0.5241741824609989 -0.19048572226571175
vn -0.8018708517569898 0.5330466119239656 -0.26993415237590995
vn 0.8018708517569898 -0.5330466119239656 0.26993415237590995
vn 0.7818530794473296 0.5651847416965349 -0.26319568748774863
vn -0.7818530794473296 -0.5651847416965349 0.26319568748774863
vn 0.7020856618446298 0.5978201007748656 0.3868938491908572
vn -0.7020856618446298 -0.5978201007748656 -0.3868938491908572
vn -0.7952600534604954 0.5440866502631269 0.2674531068719521
vn 0.7952600534604954 -0.5440866502631269 -0.2674531068719521
vn -0.7286380954754531 0.5547835181304861 -0.40162392089200233
vn 0.7286380954754531 -0.5547835181304861 0.40162392089200233
vn 0.7114526396732375 0.5830882269300721 -0.39222858273910555
vn -0.7114526396732375 -0.5830882269300721 0.39222858273910555
vn 0.664411400200237 0.6044146250371734 0.4395912332214255
vn -0.664411400200237 -0.6044146250371734 -0.4395912332214255
vn -0.719274867276194 0.5706103755476902 0.39629214554686465
vn 0.719274867276194 -0.5706103755476902 -0.39629214554686465
vn -0.6901943031302189 0.5612563638329515 -0.45675279745569713
vn 0.6901943031302189 -0.5612563638329515 0.45675279745569713
vn 0.6746004375545318 0.5878260501484931 -0.4465140360817963
vn -0.6746004375545318 -0.5878260501484931 0.4465140360817963
vn 0.5841771135463062 0.6108072801049005 0.5344638122263843
vn -0.5841771135463062 -0.6108072801049005 -0.5344638122263843
vn -0.6799935949999426 0.5790232756700854 0.44982302852492817
vn 0.6799935949999426 -0.5790232756700854 -0.44982302852492817
vn -0.6074600136667321 0.5675433015742745 -0.5557759734229123
vn 0.6074600136667321 -0.5675433015742745 0.5557759734229123
vn 0.5952519451618494 0.5907687901353286 -0.5446717895972536
vn -0.5952519451618494 -0.5907687901353286 0.5446717895972536
vn -0.596357831747228 0.588845548331625 0.5455440007220068
vn 0.596357831747228 -0.588845548331625 -0.5455440007220068
vn 0.4721669115793181 0.6083092374146946 0.6379798423818742
vn -0.4721669115793181 -0.6083092374146946 -0.6379798423818742
vn -0.4908815851175686 0.5652036216046001 -0.6630083977729901
vn 0.4908815851175686 -0.5652036216046001 0.6630083977729901
vn 0.4827274479513135 0.5841318016971272 -0.6525061296574003
vn -0.4827274479513135 -0.5841318016971272 0.6525061296574003
vn 0.39712728688717513 0.6002279905110719 0.6942739210258957
vn -0.39712728688717513 -0.6002279905110719 -0.6942739210258957
vn -0.4803094448221048 0.5905909243225939 0.6484637208992231
vn 0.4803094448221048 -0.5905909243225939 -0.6484637208992231
vn -0.4124022318070946 0.5572800710855035 -0.7206686628204834
vn 0.4124022318070946 -0.5572800710855035 0.7206686628204834
vn -0.40289372691278785 0.5851768939149545 0.7037362060050414
vn 0.40289372691278785 -0.5851768939149545 -0.7037362060050414
vn 0.4066372095905941 0.5734356556895586 -0.711208639261547
vn -0.4066372095905941 -0.5734356556895586 0.711208639261547
vn 0.246314000959651 0.5726717265665474 0.781905689020446
vn -0.246314000959651 -0.5726717265665474 -0.781905689020446
vn -0.2549586824707134 0.5304490370147921 -0.808467618005123
vn 0.2549586824707134 -0.5304490370147921 0.808467618005123
vn -0.24856150203520114 0.5629718723016232 0.7882130744305181
vn 0.24856150203520114 -0.5629718723016232 -0.7882130744305181
vn 0.25273014232776597 0.5409199168233296 -0.8022051600076064
vn -0.25273014232776597 -0.5409199168233296 0.8022051600076064
vn 0.17063461699449584 0.5541338131899517 0.8147512163615992
vn -0.17063461699449584 -0.5541338131899517 -0.8147512163615992
vn -0.1718069309615034 0.5472576890395766 0.8191406474230486
vn 0.1718069309615034 -0.5472576890395766 -0.8191406474230486
vn 0.17510838866065812 0.5200126765740614 -0.8360166675509217
vn -0.17510838866065812 -0.5200126765740614 0.8360166675509217
vn -0.1762651715407526 0.512584757459541 -0.8403496032734545
vn 0.1762651715407526 -0.512584757459541 0.8403496032734545
vn 0.062424599296373125 0.5224717161048698 0.8503684350169163
vn -0.062424599296373125 -0.5224717161048698 -0.8503684350169163
vn -0.06257570978814388 0.5198350194346826 0.8519717325791115
vn 0.06257570978814388 -0.5198350194346826 -0.8519717325791115
vn 0.0640348923329132 0.4851345196955865 -0.8720917557021423
vn -0.0640348923329132 -0.4851345196955865 0.8720917557021423
vn -0.06418169741195359 0.48228917809956345 -0.8736577467208587
vn 0.06418169741195359 -0.48228917809956345 0.8736577467208587
vn 0.04689864194620992 0.5177236070707346 0.8542615431267341
vn -0.04689864194620992 -0.5177236070707346 -0.8542615431267341
vn -0.04700113934837282 0.5157340751802899 0.855458506648853
vn 0.04700113934837282 -0.5157340751802899 -0.855458506648853
vn 0.048107290247840405 0.4799689370326132 -0.875965471984366
vn -0.048107290247840405 -0.4799689370326132 0.875965471984366
vn -0.04820691156349964 0.4778223688858801 -0.8771327593185624
vn 0.04820691156349964 -0.4778223688858801 0.8771327593185624
usemtl material_0_0
f 1//1 2//1 3//1
f 2//1 1//1 4//1
f 5//1 3//1 2//1
f 7//1 4//1 1//1
f 5//1 8//1 3//1
f 9//1 4//1 7//1
f 9//1 5//1 4//1
f 5//1 10//1 8//1
f 13//1 5//1 9//1
f 13//1 10//1 5//1
f 18//1 10//1 13//1
f 23//1 16//1 11//1
f 18//1 20//1 10//1
f 20//1 26//1 14//1
f 17//1 15//1 21//1
f 29//1 22//1 15//1
f 16//1 23//1 30//1
f 17//1 32//1 25//1
f 26//1 20//1 18//1
f 17//1 21//1 28//1
f 29//1 15//1 17//1
f 37//1 22//1 29//1
f 37//1 23//1 22//1
f 30//1 23//1 37//1
f 17//1 40//1 32//1
f 25//1 32//1 41//1
f 47//1 28//1 36//1
f 17//1 28//1 48//1
f 17//1 51//1 40//1
f 42//1 54//1 33//1
f 55//1 43//1 33//1
f 60//1 36//1 46//1
f 28//1 47//1 48//1
f 47//1 36//1 61//1
f 17//1 48//1 51//1
f 53//1 54//1 42//1
f 33//1 54//1 65//1
f 43//1 55//1 66//1
f 33//1 67//1 55//1
f 43//1 68//1 56//1
f 74//1 46//1 59//1
f 61//1 36//1 60//1
f 60//1 46//1 74//1
f 47//1 52//1 48//1
f 52//1 78//1 64//1
f 64//1 78//1 53//1
f 53//1 78//1 54//1
f 33//1 65//1 79//1
f 43//1 66//1 68//1
f 33//1 79//1 67//1
f 55//1 67//1 81//1
f 56//1 68//1 82//1
f 56//1 83//1 69//1
f 90//1 59//1 73//1
f 74//1 59//1 90//1
f 52//1 47//1 75//1
f 75//1 78//1 52//1
f 55//1 81//1 80//1
f 56//1 82//1 83//1
f 69//1 83//1 94//1
f 69//1 94//1 84//1
f 86//1 99//1 72//1
f 72//1 99//1 87//1
f 102//1 73//1 89//1
f 90//1 73//1 102//1
f 75//1 101//1 78//1
f 104//1 80//1 81//1
f 84//1 94//1 107//1
f 84//1 107//1 95//1
f 98//1 99//1 86//1
f 112//1 89//1 101//1
f 102//1 89//1 113//1
f 112//1 101//1 75//1
f 104//1 116//1 80//1
f 81//1 117//1 104//1
f 117//1 93//1 105//1
f 93//1 117//1 106//1
f 95//1 107//1 116//1
f 95//1 116//1 104//1
f 109//1 110//1 98//1
f 98//1 110//1 99//1
f 113//1 89//1 112//1
f 118//1 117//1 81//1
f 104//1 117//1 119//1
f 106//1 117//1 118//1
f 119//1 117//1 109//1
f 109//1 117//1 110//1
usemtl material_1_0
f 3//2 2//2 1//2
f 4//2 1//2 2//2
f 2//2 3//2 5//2
f 3//1 6//1 1//1
f 1//2 6//2 3//2
f 1//2 4//2 7//2
f 4//1 5//1 2//1
f 2//2 5//2 4//2
f 3//2 8//2 5//2
f 8//1 6//1 3//1
f 3//2 6//2 8//2
f 1//1 6//1 7//1
f 7//2 6//2 1//2
f 7//2 4//2 9//2
f 4//2 5//2 9//2
f 8//2 10//2 5//2
f 10//1 6//1 8//1
f 8//2 6//2 10//2
f 7//1 6//1 11//1
f 11//2 6//2 7//2
f 12//1 9//1 7//1
f 7//2 9//2 12//2
f 9//2 5//2 13//2
f 5//2 10//2 13//2
f 14//1 6//1 10//1
f 10//2 6//2 14//2
f 11//1 6//1 15//1
f 15//2 6//2 11//2
f 16//1 7//1 11//1
f 11//2 7//2 16//2
f 12//1 13//1 9//1
f 9//2 13//2 12//2
f 12//1 7//1 17//1
f 17//2 7//2 12//2
f 13//2 10//2 18//2
f 6//1 14//1 19//1
f 19//2 14//2 6//2
f 14//1 10//1 20//1
f 20//2 10//2 14//2
f 15//1 6//1 21//1
f 21//2 6//2 15//2
f 11//1 15//1 22//1
f 22//2 15//2 11//2
f 17//1 7//1 16//1
f 16//2 7//2 17//2
f 11//2 16//2 23//2
f 24//1 13//1 12//1
f 12//2 13//2 24//2
f 12//1 17//1 25//1
f 25//2 17//2 12//2
f 10//2 20//2 18//2
f 13//1 26//1 18//1
f 18//2 26//2 13//2
f 26//1 19//1 14//1
f 14//2 19//2 26//2
f 27//3 6//4 19//5
f 19//6 6//7 27//8
f 14//2 26//2 20//2
f 21//1 6//1 28//1
f 28//2 6//2 21//2
f 21//2 15//2 17//2
f 15//2 22//2 29//2
f 11//1 22//1 23//1
f 23//2 22//2 11//2
f 17//1 16//1 29//1
f 29//2 16//2 17//2
f 30//2 23//2 16//2
f 24//1 26//1 13//1
f 13//2 26//2 24//2
f 31//9 24//10 12//11
f 12//12 24//13 31//14
f 25//2 32//2 17//2
f 12//1 25//1 33//1
f 33//2 25//2 12//2
f 18//2 20//2 26//2
f 24//1 19//1 26//1
f 26//2 19//2 24//2
f 6//4 27//3 34//15
f 34//16 27//8 6//7
f 19//5 35//17 27//3
f 27//8 35//18 19//6
f 28//1 6//1 36//1
f 36//2 6//2 28//2
f 28//2 21//2 17//2
f 17//2 15//2 29//2
f 29//2 22//2 37//2
f 22//2 23//2 37//2
f 29//1 16//1 37//1
f 37//2 16//2 29//2
f 37//2 23//2 30//2
f 37//1 16//1 30//1
f 30//2 16//2 37//2
f 24//10 31//9 38//19
f 38//20 31//14 24//13
f 12//11 39//21 31//9
f 31//14 39//22 12//12
f 32//2 40//2 17//2
f 41//2 32//2 25//2
f 33//1 25//1 42//1
f 42//2 25//2 33//2
f 12//1 33//1 43//1
f 43//2 33//2 12//2
f 24//1 44//1 19//1
f 19//2 44//2 24//2
f 6//4 34//15 45//23
f 45//24 34//16 6//7
f 44//25 35//17 19//5
f 19//6 35//18 44//26
f 36//1 6//1 46//1
f 46//2 6//2 36//2
f 36//2 28//2 47//2
f 48//2 28//2 17//2
f 24//10 38//19 49//27
f 49//28 38//20 24//13
f 50//29 39//21 12//11
f 12//12 39//22 50//30
f 40//2 51//2 17//2
f 40//1 52//1 32//1
f 32//2 52//2 40//2
f 32//1 52//1 41//1
f 41//2 52//2 32//2
f 41//1 52//1 25//1
f 25//2 52//2 41//2
f 42//1 25//1 53//1
f 53//2 25//2 42//2
f 33//2 54//2 42//2
f 33//2 43//2 55//2
f 12//1 43//1 56//1
f 56//2 43//2 12//2
f 49//1 44//1 24//1
f 24//2 44//2 49//2
f 45//23 34//15 57//31
f 57//32 34//16 45//24
f 12//1 6//1 45//1
f 45//2 6//2 12//2
f 44//25 58//33 35//17
f 35//18 58//34 44//26
f 46//1 6//1 59//1
f 59//2 6//2 46//2
f 46//2 36//2 60//2
f 48//2 47//2 28//2
f 61//2 36//2 47//2
f 51//2 48//2 17//2
f 49//27 38//19 62//35
f 62//36 38//20 49//28
f 50//29 63//37 39//21
f 39//22 63//38 50//30
f 12//1 45//1 50//1
f 50//2 45//2 12//2
f 51//1 52//1 40//1
f 40//2 52//2 51//2
f 64//1 25//1 52//1
f 52//2 25//2 64//2
f 53//1 25//1 64//1
f 64//2 25//2 53//2
f 42//2 54//2 53//2
f 65//2 54//2 33//2
f 66//2 55//2 43//2
f 55//2 67//2 33//2
f 56//2 68//2 43//2
f 12//1 56//1 69//1
f 69//2 56//2 12//2
f 49//1 70//1 44//1
f 44//2 70//2 49//2
f 45//23 57//31 71//39
f 71//40 57//32 45//24
f 12//1 72//1 6//1
f 6//2 72//2 12//2
f 70//41 58//33 44//25
f 44//26 58//34 70//42
f 59//1 6//1 73//1
f 73//2 6//2 59//2
f 59//2 46//2 74//2
f 60//2 36//2 61//2
f 74//2 46//2 60//2
f 48//2 52//2 47//2
f 61//1 75//1 47//1
f 47//2 75//2 61//2
f 52//1 51//1 48//1
f 48//2 51//2 52//2
f 49//27 62//35 76//43
f 76//44 62//36 49//28
f 77//45 63//37 50//29
f 50//30 63//38 77//46
f 50//1 45//1 71//1
f 71//2 45//2 50//2
f 64//2 78//2 52//2
f 53//2 78//2 64//2
f 54//2 78//2 53//2
f 54//1 6//1 65//1
f 65//2 6//2 54//2
f 79//2 65//2 33//2
f 80//1 66//1 55//1
f 55//2 66//2 80//2
f 68//2 66//2 43//2
f 67//2 79//2 33//2
f 81//2 67//2 55//2
f 82//2 68//2 56//2
f 69//2 83//2 56//2
f 12//1 69//1 84//1
f 84//2 69//2 12//2
f 76//1 70//1 49//1
f 49//2 70//2 76//2
f 71//39 57//31 85//47
f 85//48 57//32 71//40
f 12//1 86//1 72//1
f 72//2 86//2 12//2
f 87//1 6//1 72//1
f 72//2 6//2 87//2
f 70//41 88//49 58//33
f 58//34 88//50 70//42
f 73//1 6//1 89//1
f 89//2 6//2 73//2
f 73//2 59//2 90//2
f 90//2 59//2 74//2
f 75//1 61//1 60//1
f 60//2 61//2 75//2
f 75//1 60//1 74//1
f 74//2 60//2 75//2
f 75//2 47//2 52//2
f 76//43 62//35 91//51
f 91//52 62//36 76//44
f 77//45 92//53 63//37
f 63//38 92//54 77//46
f 50//1 71//1 77//1
f 77//2 71//2 50//2
f 52//2 78//2 75//2
f 78//1 6//1 54//1
f 54//2 6//2 78//2
f 65//1 6//1 79//1
f 79//2 6//2 65//2
f 66//1 80//1 68//1
f 68//2 80//2 66//2
f 80//2 81//2 55//2
f 79//1 6//1 67//1
f 67//2 6//2 79//2
f 67//1 93//1 81//1
f 81//2 93//2 67//2
f 68//1 80//1 82//1
f 82//2 80//2 68//2
f 83//2 82//2 56//2
f 94//2 83//2 69//2
f 84//2 94//2 69//2
f 12//1 84//1 95//1
f 95//2 84//2 12//2
f 96//1 70//1 76//1
f 76//2 70//2 96//2
f 71//39 85//47 97//55
f 97//56 85//48 71//40
f 12//1 98//1 86//1
f 86//2 98//2 12//2
f 72//2 99//2 86//2
f 99//1 6//1 87//1
f 87//2 6//2 99//2
f 87//2 99//2 72//2
f 100//49 88//49 70//41
f 70//42 88//50 100//50
f 89//1 6//1 101//1
f 101//2 6//2 89//2
f 89//2 73//2 102//2
f 102//2 73//2 90//2
f 75//1 74//1 90//1
f 90//2 74//2 75//2
f 76//43 91//51 96//57
f 96//58 91//52 76//44
f 103//53 92//53 77//45
f 77//46 92//54 103//54
f 77//1 71//1 97//1
f 97//2 71//2 77//2
f 78//2 101//2 75//2
f 101//1 6//1 78//1
f 78//2 6//2 101//2
f 81//2 80//2 104//2
f 67//1 6//1 105//1
f 105//2 6//2 67//2
f 93//1 67//1 105//1
f 105//2 67//2 93//2
f 81//1 93//1 106//1
f 106//2 93//2 81//2
f 82//1 80//1 83//1
f 83//2 80//2 82//2
f 83//1 80//1 94//1
f 94//2 80//2 83//2
f 107//2 94//2 84//2
f 95//2 107//2 84//2
f 12//1 95//1 104//1
f 104//2 95//2 12//2
f 96//1 100//1 70//1
f 70//2 100//2 96//2
f 97//55 85//47 108//55
f 108//56 85//48 97//56
f 12//1 109//1 98//1
f 98//2 109//2 12//2
f 86//2 99//2 98//2
f 110//1 6//1 99//1
f 99//2 6//2 110//2
f 111//59 88//49 100//49
f 100//50 88//50 111//60
f 101//2 89//2 112//2
f 113//2 89//2 102//2
f 75//1 90//1 102//1
f 102//2 90//2 75//2
f 96//57 91//51 114//57
f 114//58 91//52 96//58
f 92//53 103//53 115//61
f 115//62 103//54 92//54
f 77//1 97//1 103//1
f 103//2 97//2 77//2
f 75//2 101//2 112//2
f 80//2 116//2 104//2
f 104//2 117//2 81//2
f 105//1 6//1 117//1
f 117//2 6//2 105//2
f 105//2 93//2 117//2
f 106//2 117//2 93//2
f 81//1 106//1 118//1
f 118//2 106//2 81//2
f 94//1 80//1 107//1
f 107//2 80//2 94//2
f 116//2 107//2 95//2
f 104//2 116//2 95//2
f 12//1 104//1 119//1
f 119//2 104//2 12//2
f 120//1 100//1 96//1
f 96//2 100//2 120//2
f 97//55 108//55 121//63
f 121//64 108//56 97//56
f 12//1 119//1 109//1
f 109//2 119//2 12//2
f 98//2 110//2 109//2
f 99//2 110//2 98//2
f 117//1 6//1 110//1
f 110//2 6//2 117//2
f 111//59 122//65 88//49
f 88//50 122//66 111//60
f 120//1 111//1 100//1
f 100//2 111//2 120//2
f 112//2 89//2 113//2
f 75//1 102//1 113//1
f 113//2 102//2 75//2
f 114//57 123//67 96//57
f 96//58 123//68 114//58
f 103//1 124//1 115//1
f 115//2 124//2 103//2
f 92//53 115//61 125//69
f 125//70 115//62 92//54
f 103//1 97//1 124//1
f 124//2 97//2 103//2
f 75//1 113//1 112//1
f 112//2 113//2 75//2
f 107//1 80//1 116//1
f 116//2 80//2 107//2
f 81//2 117//2 118//2
f 119//2 117//2 104//2
f 118//2 117//2 106//2
f 123//67 120//71 96//57
f 96//58 120//72 123//68
f 124//73 97//55 121//63
f 121//64 97//56 124//74
f 109//2 117//2 119//2
f 110//2 117//2 109//2
f 126//75 122//65 111//59
f 111//60 122//66 126//76
f 127//1 111//1 120//1
f 120//2 111//2 127//2
f 115//1 124//1 128//1
f 128//2 124//2 115//2
f 125//69 115//61 129//77
f 129//78 115//62 125//70
f 123//67 130//79 120//71
f 120//72 130//80 123//68
f 124//73 121//63 131//81
f 131//82 121//64 124//74
f 126//75 132//83 122//65
f 122//66 132//84 126//76
f 127//1 126//1 111//1
f 111//2 126//2 127//2
f 130//79 127//85 120//71
f 120//72 127//86 130//80
f 128//87 124//73 131//81
f 131//82 124//74 128//88
f 115//1 128//1 129//1
f 129//2 128//2 115//2
f 125//69 129//77 133//89
f 133//90 129//78 125//70
f 134//91 132//83 126//75
f 126//76 132//84 134//92
f 127//1 134//1 126//1
f 126//2 134//2 127//2
f 130//79 135//93 127//85
f 127//86 135//94 130//80
f 128//87 131//81 136//95
f 136//96 131//82 128//88
f 129//1 128//1 137//1
f 137//2 128//2 129//2
f 133//89 129//77 138//97
f 138//98 129//78 133//90
f 134//91 139//99 132//83
f 132//84 139//100 134//92
f 134//1 127//1 140//1
f 140//2 127//2 134//2
f 135//93 140//101 127//85
f 127//86 140//102 135//94
f 137//103 128//87 136//95
f 136//96 128//88 137//104
f 129//1 137//1 138//1
f 138//2 137//2 129//2
f 133//89 138//97 141//105
f 141//106 138//98 133//90
f 134//91 135//93 139//99
f 139//100 135//94 134//92
f 135//93 134//91 140//101
f 140//102 134//92 135//94
f 141//105 137//103 136//95
f 136//96 137//104 141//106
f 137//103 141//105 138//97
f 138//98 141//106 137//104
