# SSTK version 0.8.0
# 169
mtllib original-169.mtl
o #ID56
v -0.370487 0.010486 -0.058853
v -0.370322 0.006170 -0.058618
v -0.370487 0.006170 -0.058853
v -0.370322 0.010486 -0.058618
v -0.370684 0.010486 -0.059065
v -0.370487 0.006170 -0.058853
v -0.370684 0.006170 -0.059065
v -0.370487 0.010486 -0.058853
v -0.404051 0.010486 -0.059679
v -0.372296 0.010486 -0.059697
v -0.403753 0.010486 -0.059697
v -0.371998 0.010486 -0.059679
v -0.404343 0.010486 -0.059624
v -0.371706 0.010486 -0.059624
v -0.404626 0.010486 -0.059533
v -0.371424 0.010486 -0.059533
v -0.404893 0.010486 -0.059408
v -0.371156 0.010486 -0.059408
v -0.405141 0.010486 -0.059251
v -0.370908 0.010486 -0.059251
v -0.405365 0.010486 -0.059065
v -0.370684 0.010486 -0.059065
v -0.405562 0.010486 -0.058853
v -0.370487 0.010486 -0.058853
v -0.405728 0.010486 -0.058618
v -0.370322 0.010486 -0.058618
v -0.405859 0.010486 -0.058365
v -0.370190 0.010486 -0.058365
v -0.405955 0.010486 -0.058098
v -0.370094 0.010486 -0.058098
v -0.406013 0.010486 -0.057821
v -0.370036 0.010486 -0.057821
v -0.406033 0.010486 -0.057539
v -0.370016 0.010486 -0.057539
v -0.406033 0.010486 -0.042650
v -0.370016 0.010486 -0.042650
v -0.406013 0.010486 -0.042368
v -0.370036 0.010486 -0.042368
v -0.405955 0.010486 -0.042091
v -0.370094 0.010486 -0.042091
v -0.405859 0.010486 -0.041824
v -0.370190 0.010486 -0.041824
v -0.405728 0.010486 -0.041571
v -0.370322 0.010486 -0.041571
v -0.405562 0.010486 -0.041336
v -0.370487 0.010486 -0.041336
v -0.405365 0.010486 -0.041124
v -0.370684 0.010486 -0.041124
v -0.405141 0.010486 -0.040938
v -0.370908 0.010486 -0.040938
v -0.404893 0.010486 -0.040781
v -0.371156 0.010486 -0.040781
v -0.404626 0.010486 -0.040656
v -0.371424 0.010486 -0.040656
v -0.404343 0.010486 -0.040565
v -0.371706 0.010486 -0.040565
v -0.404051 0.010486 -0.040510
v -0.371998 0.010486 -0.040510
v -0.403753 0.010486 -0.040492
v -0.372296 0.010486 -0.040492
v -0.370322 0.010486 -0.058618
v -0.370190 0.006170 -0.058365
v -0.370322 0.006170 -0.058618
v -0.370190 0.010486 -0.058365
v -0.370684 0.010486 -0.059065
v -0.370908 0.006170 -0.059251
v -0.370908 0.010486 -0.059251
v -0.370684 0.006170 -0.059065
v -0.371998 0.010486 -0.059679
v -0.372296 0.006170 -0.059697
v -0.372296 0.010486 -0.059697
v -0.371998 0.006170 -0.059679
v -0.372296 0.010486 -0.059697
v -0.403753 0.006170 -0.059697
v -0.403753 0.010486 -0.059697
v -0.372296 0.006170 -0.059697
v -0.403753 0.010486 -0.059697
v -0.404051 0.006170 -0.059679
v -0.404051 0.010486 -0.059679
v -0.403753 0.006170 -0.059697
v -0.404051 0.010486 -0.059679
v -0.404343 0.006170 -0.059624
v -0.404343 0.010486 -0.059624
v -0.404051 0.006170 -0.059679
v -0.404343 0.010486 -0.059624
v -0.404626 0.006170 -0.059533
v -0.404626 0.010486 -0.059533
v -0.404343 0.006170 -0.059624
v -0.404626 0.010486 -0.059533
v -0.404893 0.006170 -0.059408
v -0.404893 0.010486 -0.059408
v -0.404626 0.006170 -0.059533
v -0.404893 0.010486 -0.059408
v -0.405141 0.006170 -0.059251
v -0.405141 0.010486 -0.059251
v -0.404893 0.006170 -0.059408
v -0.405141 0.010486 -0.059251
v -0.405365 0.006170 -0.059065
v -0.405365 0.010486 -0.059065
v -0.405141 0.006170 -0.059251
v -0.405562 0.010486 -0.058853
v -0.405365 0.006170 -0.059065
v -0.405562 0.006170 -0.058853
v -0.405365 0.010486 -0.059065
v -0.405728 0.010486 -0.058618
v -0.405562 0.006170 -0.058853
v -0.405728 0.006170 -0.058618
v -0.405562 0.010486 -0.058853
v -0.405859 0.010486 -0.058365
v -0.405728 0.006170 -0.058618
v -0.405859 0.006170 -0.058365
v -0.405728 0.010486 -0.058618
v -0.405955 0.010486 -0.058098
v -0.405859 0.006170 -0.058365
v -0.405955 0.006170 -0.058098
v -0.405859 0.010486 -0.058365
v -0.406013 0.010486 -0.057821
v -0.405955 0.006170 -0.058098
v -0.406013 0.006170 -0.057821
v -0.405955 0.010486 -0.058098
v -0.406033 0.010486 -0.057539
v -0.406013 0.006170 -0.057821
v -0.406033 0.006170 -0.057539
v -0.406013 0.010486 -0.057821
v -0.406033 0.010486 -0.042650
v -0.406033 0.006170 -0.057539
v -0.406033 0.006170 -0.042650
v -0.406033 0.010486 -0.057539
v -0.406013 0.010486 -0.042368
v -0.406033 0.006170 -0.042650
v -0.406013 0.006170 -0.042368
v -0.406033 0.010486 -0.042650
v -0.405955 0.010486 -0.042091
v -0.406013 0.006170 -0.042368
v -0.405955 0.006170 -0.042091
v -0.406013 0.010486 -0.042368
v -0.405859 0.010486 -0.041824
v -0.405955 0.006170 -0.042091
v -0.405859 0.006170 -0.041824
v -0.405955 0.010486 -0.042091
v -0.405728 0.010486 -0.041571
v -0.405859 0.006170 -0.041824
v -0.405728 0.006170 -0.041571
v -0.405859 0.010486 -0.041824
v -0.405562 0.010486 -0.041336
v -0.405728 0.006170 -0.041571
v -0.405562 0.006170 -0.041336
v -0.405728 0.010486 -0.041571
v -0.405365 0.010486 -0.041124
v -0.405562 0.006170 -0.041336
v -0.405365 0.006170 -0.041124
v -0.405562 0.010486 -0.041336
v -0.405141 0.006170 -0.040938
v -0.405365 0.010486 -0.041124
v -0.405365 0.006170 -0.041124
v -0.405141 0.010486 -0.040938
v -0.404983 0.006170 -0.040838
v -0.405141 0.010486 -0.040938
v -0.405141 0.006170 -0.040938
v -0.404893 0.010486 -0.040781
v -0.404893 0.006170 -0.040781
v -0.404626 0.006170 -0.040656
v -0.404893 0.010486 -0.040781
v -0.404893 0.006170 -0.040781
v -0.404626 0.010486 -0.040656
v -0.404343 0.006170 -0.040565
v -0.404626 0.010486 -0.040656
v -0.404626 0.006170 -0.040656
v -0.404343 0.010486 -0.040565
v -0.404051 0.006170 -0.040510
v -0.404343 0.010486 -0.040565
v -0.404343 0.006170 -0.040565
v -0.404051 0.010486 -0.040510
v -0.403753 0.006170 -0.040492
v -0.404051 0.010486 -0.040510
v -0.404051 0.006170 -0.040510
v -0.403753 0.010486 -0.040492
v -0.394185 0.006170 -0.040492
v -0.403753 0.010486 -0.040492
v -0.403753 0.006170 -0.040492
v -0.372296 0.010486 -0.040492
v -0.388941 0.006170 -0.040492
v -0.372296 0.006170 -0.040492
v -0.371998 0.006170 -0.040510
v -0.372296 0.010486 -0.040492
v -0.372296 0.006170 -0.040492
v -0.371998 0.010486 -0.040510
v -0.371706 0.006170 -0.040565
v -0.371998 0.010486 -0.040510
v -0.371998 0.006170 -0.040510
v -0.371706 0.010486 -0.040565
v -0.371424 0.006170 -0.040656
v -0.371706 0.010486 -0.040565
v -0.371706 0.006170 -0.040565
v -0.371424 0.010486 -0.040656
v -0.371156 0.006170 -0.040781
v -0.371424 0.010486 -0.040656
v -0.371424 0.006170 -0.040656
v -0.371156 0.010486 -0.040781
v -0.370908 0.006170 -0.040938
v -0.371156 0.010486 -0.040781
v -0.371156 0.006170 -0.040781
v -0.370908 0.010486 -0.040938
v -0.370684 0.006170 -0.041124
v -0.370908 0.010486 -0.040938
v -0.370908 0.006170 -0.040938
v -0.370684 0.010486 -0.041124
v -0.370487 0.010486 -0.041336
v -0.370684 0.006170 -0.041124
v -0.370487 0.006170 -0.041336
v -0.370684 0.010486 -0.041124
v -0.370322 0.010486 -0.041571
v -0.370487 0.006170 -0.041336
v -0.370322 0.006170 -0.041571
v -0.370487 0.010486 -0.041336
v -0.370190 0.010486 -0.041824
v -0.370322 0.006170 -0.041571
v -0.370190 0.006170 -0.041824
v -0.370322 0.010486 -0.041571
v -0.370094 0.010486 -0.042091
v -0.370190 0.006170 -0.041824
v -0.370094 0.006170 -0.042091
v -0.370190 0.010486 -0.041824
v -0.370036 0.010486 -0.042368
v -0.370094 0.006170 -0.042091
v -0.370036 0.006170 -0.042368
v -0.370094 0.010486 -0.042091
v -0.370016 0.010486 -0.042650
v -0.370036 0.006170 -0.042368
v -0.370016 0.006170 -0.042650
v -0.370036 0.010486 -0.042368
v -0.370016 0.010486 -0.057539
v -0.370016 0.006170 -0.042650
v -0.370016 0.006170 -0.057539
v -0.370016 0.010486 -0.042650
v -0.370036 0.010486 -0.057821
v -0.370016 0.006170 -0.057539
v -0.370036 0.006170 -0.057821
v -0.370016 0.010486 -0.057539
v -0.370094 0.010486 -0.058098
v -0.370036 0.006170 -0.057821
v -0.370094 0.006170 -0.058098
v -0.370036 0.010486 -0.057821
v -0.370190 0.010486 -0.058365
v -0.370094 0.006170 -0.058098
v -0.370190 0.006170 -0.058365
v -0.370094 0.010486 -0.058098
v -0.370908 0.010486 -0.059251
v -0.371156 0.006170 -0.059408
v -0.371156 0.010486 -0.059408
v -0.370908 0.006170 -0.059251
v -0.371156 0.010486 -0.059408
v -0.371424 0.006170 -0.059533
v -0.371424 0.010486 -0.059533
v -0.371156 0.006170 -0.059408
v -0.371424 0.010486 -0.059533
v -0.371706 0.006170 -0.059624
v -0.371706 0.010486 -0.059624
v -0.371424 0.006170 -0.059533
v -0.371706 0.010486 -0.059624
v -0.371998 0.006170 -0.059679
v -0.371998 0.010486 -0.059679
v -0.371706 0.006170 -0.059624
vn 0.8169865460452611 0 -0.5766567294162398
vn -0.8169865460452611 0 0.5766567294162398
vn 0.7335878398478825 0 -0.6795946447900527
vn -0.7335878398478825 0 0.6795946447900527
vn 0 1 0
vn 0 -1 0
vn 0.8868765330855201 0 -0.4620065097617224
vn -0.8868765330855201 0 0.4620065097617224
vn 0.6387564490292464 0 -0.7694089932042306
vn -0.6387564490292464 0 0.7694089932042306
vn 0.06192772635187028 0 -0.9980806363760836
vn -0.06192772635187028 0 0.9980806363760836
vn 0 0 -1
vn 0 0 1
vn -0.06192772635187072 0 -0.9980806363760836
vn 0.06192772635187072 0 0.9980806363760836
vn -0.18504858698184465 0 -0.9827293729486376
vn 0.18504858698184465 0 0.9827293729486376
vn -0.30593699108087513 0 -0.9520517619795579
vn 0.30593699108087513 0 0.9520517619795579
vn -0.42301210465599515 0 -0.9061240308669145
vn 0.42301210465599515 0 0.9061240308669145
vn -0.534568796439618 0 -0.8451249622825598
vn 0.534568796439618 0 0.8451249622825598
vn -0.6387564490292467 0 -0.7694089932042301
vn 0.6387564490292467 0 0.7694089932042301
vn -0.7335878398478827 0 -0.6795946447900525
vn 0.7335878398478827 0 0.6795946447900525
vn -0.8169865460452616 0 -0.5766567294162395
vn 0.8169865460452616 0 0.5766567294162395
vn -0.8868765330855203 0 -0.46200650976172203
vn 0.8868765330855203 0 0.46200650976172203
vn -0.941311386276551 0 -0.3375394407563624
vn 0.941311386276551 0 0.3375394407563624
vn -0.9786294673834396 0 -0.20563162589642014
vn 0.9786294673834396 0 0.20563162589642014
vn -0.9976116907061352 0 -0.06907180731996436
vn 0.9976116907061352 0 0.06907180731996436
vn -1 0 0
vn 1 0 0
vn -0.9976116907061352 0 0.0690718073199648
vn 0.9976116907061352 0 -0.0690718073199648
vn -0.9786294673834396 0 0.20563162589642056
vn 0.9786294673834396 0 -0.20563162589642056
vn -0.9413113862765508 0 0.33753944075636283
vn 0.9413113862765508 0 -0.33753944075636283
vn -0.5345687964396175 0 0.8451249622825601
vn 0.5345687964396175 0 -0.8451249622825601
vn -0.4230121046559947 0 0.9061240308669147
vn 0.4230121046559947 0 -0.9061240308669147
vn -0.30593699108087463 0 0.9520517619795579
vn 0.30593699108087463 0 -0.9520517619795579
vn -0.18504858698184423 0 0.9827293729486378
vn 0.18504858698184423 0 -0.9827293729486378
usemtl material_0_2
f 1//1 2//1 3//1
f 3//2 2//2 1//2
f 2//1 1//1 4//1
f 4//2 1//2 2//2
f 5//3 6//3 7//3
f 7//4 6//4 5//4
f 6//3 5//3 8//3
f 8//4 5//4 6//4
f 9//5 10//5 11//5
f 11//6 10//6 9//6
f 10//5 9//5 12//5
f 12//6 9//6 10//6
f 12//5 9//5 13//5
f 13//6 9//6 12//6
f 12//5 13//5 14//5
f 14//6 13//6 12//6
f 14//5 13//5 15//5
f 15//6 13//6 14//6
f 14//5 15//5 16//5
f 16//6 15//6 14//6
f 16//5 15//5 17//5
f 17//6 15//6 16//6
f 16//5 17//5 18//5
f 18//6 17//6 16//6
f 18//5 17//5 19//5
f 19//6 17//6 18//6
f 18//5 19//5 20//5
f 20//6 19//6 18//6
f 20//5 19//5 21//5
f 21//6 19//6 20//6
f 20//5 21//5 22//5
f 22//6 21//6 20//6
f 22//5 21//5 23//5
f 23//6 21//6 22//6
f 22//5 23//5 24//5
f 24//6 23//6 22//6
f 24//5 23//5 25//5
f 25//6 23//6 24//6
f 24//5 25//5 26//5
f 26//6 25//6 24//6
f 26//5 25//5 27//5
f 27//6 25//6 26//6
f 26//5 27//5 28//5
f 28//6 27//6 26//6
f 28//5 27//5 29//5
f 29//6 27//6 28//6
f 28//5 29//5 30//5
f 30//6 29//6 28//6
f 30//5 29//5 31//5
f 31//6 29//6 30//6
f 30//5 31//5 32//5
f 32//6 31//6 30//6
f 32//5 31//5 33//5
f 33//6 31//6 32//6
f 32//5 33//5 34//5
f 34//6 33//6 32//6
f 34//5 33//5 35//5
f 35//6 33//6 34//6
f 34//5 35//5 36//5
f 36//6 35//6 34//6
f 36//5 35//5 37//5
f 37//6 35//6 36//6
f 36//5 37//5 38//5
f 38//6 37//6 36//6
f 38//5 37//5 39//5
f 39//6 37//6 38//6
f 38//5 39//5 40//5
f 40//6 39//6 38//6
f 40//5 39//5 41//5
f 41//6 39//6 40//6
f 40//5 41//5 42//5
f 42//6 41//6 40//6
f 42//5 41//5 43//5
f 43//6 41//6 42//6
f 42//5 43//5 44//5
f 44//6 43//6 42//6
f 44//5 43//5 45//5
f 45//6 43//6 44//6
f 44//5 45//5 46//5
f 46//6 45//6 44//6
f 46//5 45//5 47//5
f 47//6 45//6 46//6
f 46//5 47//5 48//5
f 48//6 47//6 46//6
f 48//5 47//5 49//5
f 49//6 47//6 48//6
f 48//5 49//5 50//5
f 50//6 49//6 48//6
f 50//5 49//5 51//5
f 51//6 49//6 50//6
f 50//5 51//5 52//5
f 52//6 51//6 50//6
f 52//5 51//5 53//5
f 53//6 51//6 52//6
f 52//5 53//5 54//5
f 54//6 53//6 52//6
f 54//5 53//5 55//5
f 55//6 53//6 54//6
f 54//5 55//5 56//5
f 56//6 55//6 54//6
f 56//5 55//5 57//5
f 57//6 55//6 56//6
f 56//5 57//5 58//5
f 58//6 57//6 56//6
f 58//5 57//5 59//5
f 59//6 57//6 58//6
f 58//5 59//5 60//5
f 60//6 59//6 58//6
f 61//7 62//7 63//7
f 63//8 62//8 61//8
f 62//7 61//7 64//7
f 64//8 61//8 62//8
f 65//9 66//9 67//9
f 67//10 66//10 65//10
f 66//9 65//9 68//9
f 68//10 65//10 66//10
f 69//11 70//11 71//11
f 71//12 70//12 69//12
f 70//11 69//11 72//11
f 72//12 69//12 70//12
f 73//13 74//13 75//13
f 75//14 74//14 73//14
f 74//13 73//13 76//13
f 76//14 73//14 74//14
f 77//15 78//15 79//15
f 79//16 78//16 77//16
f 78//15 77//15 80//15
f 80//16 77//16 78//16
f 81//17 82//17 83//17
f 83//18 82//18 81//18
f 82//17 81//17 84//17
f 84//18 81//18 82//18
f 85//19 86//19 87//19
f 87//20 86//20 85//20
f 86//19 85//19 88//19
f 88//20 85//20 86//20
f 89//21 90//21 91//21
f 91//22 90//22 89//22
f 90//21 89//21 92//21
f 92//22 89//22 90//22
f 93//23 94//23 95//23
f 95//24 94//24 93//24
f 94//23 93//23 96//23
f 96//24 93//24 94//24
f 97//25 98//25 99//25
f 99//26 98//26 97//26
f 98//25 97//25 100//25
f 100//26 97//26 98//26
f 101//27 102//27 103//27
f 103//28 102//28 101//28
f 102//27 101//27 104//27
f 104//28 101//28 102//28
f 105//29 106//29 107//29
f 107//30 106//30 105//30
f 106//29 105//29 108//29
f 108//30 105//30 106//30
f 109//31 110//31 111//31
f 111//32 110//32 109//32
f 110//31 109//31 112//31
f 112//32 109//32 110//32
f 113//33 114//33 115//33
f 115//34 114//34 113//34
f 114//33 113//33 116//33
f 116//34 113//34 114//34
f 117//35 118//35 119//35
f 119//36 118//36 117//36
f 118//35 117//35 120//35
f 120//36 117//36 118//36
f 121//37 122//37 123//37
f 123//38 122//38 121//38
f 122//37 121//37 124//37
f 124//38 121//38 122//38
f 125//39 126//39 127//39
f 127//40 126//40 125//40
f 126//39 125//39 128//39
f 128//40 125//40 126//40
f 129//41 130//41 131//41
f 131//42 130//42 129//42
f 130//41 129//41 132//41
f 132//42 129//42 130//42
f 133//43 134//43 135//43
f 135//44 134//44 133//44
f 134//43 133//43 136//43
f 136//44 133//44 134//44
f 137//45 138//45 139//45
f 139//46 138//46 137//46
f 138//45 137//45 140//45
f 140//46 137//46 138//46
f 141//8 142//8 143//8
f 143//7 142//7 141//7
f 142//8 141//8 144//8
f 144//7 141//7 142//7
f 145//2 146//2 147//2
f 147//1 146//1 145//1
f 146//2 145//2 148//2
f 148//1 145//1 146//1
f 149//4 150//4 151//4
f 151//3 150//3 149//3
f 150//4 149//4 152//4
f 152//3 149//3 150//3
f 153//10 154//10 155//10
f 155//9 154//9 153//9
f 154//10 153//10 156//10
f 156//9 153//9 154//9
f 157//47 158//47 159//47
f 159//48 158//48 157//48
f 158//47 157//47 160//47
f 160//48 157//48 158//48
f 160//47 157//47 161//47
f 161//48 157//48 160//48
f 162//49 163//49 164//49
f 164//50 163//50 162//50
f 163//49 162//49 165//49
f 165//50 162//50 163//50
f 166//51 167//51 168//51
f 168//52 167//52 166//52
f 167//51 166//51 169//51
f 169//52 166//52 167//52
f 170//53 171//53 172//53
f 172//54 171//54 170//54
f 171//53 170//53 173//53
f 173//54 170//54 171//54
f 174//12 175//12 176//12
f 176//11 175//11 174//11
f 175//12 174//12 177//12
f 177//11 174//11 175//11
f 178//14 179//14 180//14
f 180//13 179//13 178//13
f 179//14 178//14 181//14
f 181//13 178//13 179//13
f 181//14 178//14 182//14
f 182//13 178//13 181//13
f 181//14 182//14 183//14
f 183//13 182//13 181//13
f 184//16 185//16 186//16
f 186//15 185//15 184//15
f 185//16 184//16 187//16
f 187//15 184//15 185//15
f 188//18 189//18 190//18
f 190//17 189//17 188//17
f 189//18 188//18 191//18
f 191//17 188//17 189//17
f 192//20 193//20 194//20
f 194//19 193//19 192//19
f 193//20 192//20 195//20
f 195//19 192//19 193//19
f 196//22 197//22 198//22
f 198//21 197//21 196//21
f 197//22 196//22 199//22
f 199//21 196//21 197//21
f 200//24 201//24 202//24
f 202//23 201//23 200//23
f 201//24 200//24 203//24
f 203//23 200//23 201//23
f 204//26 205//26 206//26
f 206//25 205//25 204//25
f 205//26 204//26 207//26
f 207//25 204//25 205//25
f 208//28 209//28 210//28
f 210//27 209//27 208//27
f 209//28 208//28 211//28
f 211//27 208//27 209//27
f 212//30 213//30 214//30
f 214//29 213//29 212//29
f 213//30 212//30 215//30
f 215//29 212//29 213//29
f 216//32 217//32 218//32
f 218//31 217//31 216//31
f 217//32 216//32 219//32
f 219//31 216//31 217//31
f 220//34 221//34 222//34
f 222//33 221//33 220//33
f 221//34 220//34 223//34
f 223//33 220//33 221//33
f 224//36 225//36 226//36
f 226//35 225//35 224//35
f 225//36 224//36 227//36
f 227//35 224//35 225//35
f 228//38 229//38 230//38
f 230//37 229//37 228//37
f 229//38 228//38 231//38
f 231//37 228//37 229//37
f 232//40 233//40 234//40
f 234//39 233//39 232//39
f 233//40 232//40 235//40
f 235//39 232//39 233//39
f 236//42 237//42 238//42
f 238//41 237//41 236//41
f 237//42 236//42 239//42
f 239//41 236//41 237//41
f 240//44 241//44 242//44
f 242//43 241//43 240//43
f 241//44 240//44 243//44
f 243//43 240//43 241//43
f 244//46 245//46 246//46
f 246//45 245//45 244//45
f 245//46 244//46 247//46
f 247//45 244//45 245//45
f 248//48 249//48 250//48
f 250//47 249//47 248//47
f 249//48 248//48 251//48
f 251//47 248//47 249//47
f 252//50 253//50 254//50
f 254//49 253//49 252//49
f 253//50 252//50 255//50
f 255//49 252//49 253//49
f 256//52 257//52 258//52
f 258//51 257//51 256//51
f 257//52 256//52 259//52
f 259//51 256//51 257//51
f 260//54 261//54 262//54
f 262//53 261//53 260//53
f 261//54 260//54 263//54
f 263//53 260//53 261//53
