# SSTK version 0.8.0
# 340
mtllib original-340.mtl
o instance_30/__/ID1012#ID1012
v -0.308229 0.010523 -0.031764
v -0.308433 0.010523 -0.030328
v -0.308544 0.010523 -0.031615
v -0.308362 0.010523 -0.030619
v -0.308147 0.010523 -0.030883
v -0.307873 0.010523 -0.031853
v -0.307816 0.010523 -0.031071
v -0.307476 0.010523 -0.031883
v -0.307395 0.010523 -0.031133
v -0.307028 0.010523 -0.031855
v -0.306990 0.010523 -0.031073
v -0.306632 0.010523 -0.031770
v -0.306678 0.010523 -0.030890
v -0.306452 0.010523 -0.030553
v -0.306289 0.010523 -0.031629
v -0.306306 0.010523 -0.030029
v -0.305358 0.010523 -0.030125
v -0.305997 0.010523 -0.031432
v -0.305757 0.010523 -0.031181
v -0.305571 0.010523 -0.030880
v -0.305438 0.010523 -0.030528
v -0.309293 0.010523 -0.030596
v -0.309288 0.010523 -0.029963
v -0.309325 0.010523 -0.030282
v -0.309198 0.010523 -0.030888
v -0.309178 0.010523 -0.029662
v -0.309040 0.010523 -0.031158
v -0.308978 0.010523 -0.029357
v -0.308818 0.010523 -0.031407
v -0.308671 0.010523 -0.029026
v -0.308577 0.010523 -0.028443
v -0.308225 0.010523 -0.028677
v -0.308388 0.010523 -0.030075
v -0.308251 0.010523 -0.029842
v -0.307721 0.010523 -0.029391
v -0.307192 0.010523 -0.027977
v -0.306701 0.010523 -0.028727
v -0.306472 0.010523 -0.027495
v -0.305627 0.010523 -0.028013
v -0.306052 0.010523 -0.027121
v -0.305855 0.010523 -0.026810
v -0.305789 0.010523 -0.026514
v -0.309140 0.010523 -0.026237
v -0.308927 0.010523 -0.027382
v -0.308094 0.010523 -0.025516
v -0.308985 0.010523 -0.027694
v -0.308752 0.010523 -0.027086
v -0.308374 0.010523 -0.026749
v -0.307704 0.010523 -0.026316
v -0.306959 0.010523 -0.024775
v -0.306534 0.010523 -0.025566
v -0.306371 0.010523 -0.024275
v -0.306206 0.010523 -0.025775
v -0.306235 0.010523 -0.024047
v -0.306189 0.010523 -0.023798
v -0.306078 0.010523 -0.025232
v -0.305974 0.010523 -0.026015
v -0.305599 0.010523 -0.025469
v -0.305835 0.010523 -0.026267
v -0.305315 0.010523 -0.027704
v -0.305298 0.010523 -0.025703
v -0.305097 0.010523 -0.027385
v -0.305020 0.010523 -0.026150
v -0.304970 0.010523 -0.027047
v -0.304928 0.010523 -0.026681
v -0.308580 0.010523 -0.024107
v -0.309413 0.010523 -0.023569
v -0.309497 0.010523 -0.023976
v -0.309272 0.010523 -0.023209
v -0.309073 0.010523 -0.022896
v -0.308818 0.010523 -0.022631
v -0.308509 0.010523 -0.022419
v -0.308396 0.010523 -0.023547
v -0.308151 0.010523 -0.022268
v -0.308129 0.010523 -0.023183
v -0.307742 0.010523 -0.022177
v -0.307765 0.010523 -0.022983
v -0.307288 0.010523 -0.022917
v -0.307283 0.010523 -0.022147
v -0.306828 0.010523 -0.022983
v -0.306750 0.010523 -0.022200
v -0.306480 0.010523 -0.023180
v -0.306255 0.010523 -0.022357
v -0.306262 0.010523 -0.023467
v -0.305835 0.010523 -0.022614
v -0.305724 0.010523 -0.024912
v -0.305526 0.010523 -0.022965
v -0.305472 0.010523 -0.024568
v -0.305336 0.010523 -0.023375
v -0.305322 0.010523 -0.024201
v -0.305272 0.010523 -0.023809
v -0.309735 0.010523 -0.028056
v -0.309764 0.010523 -0.027215
v -0.309811 0.010523 -0.027592
v -0.309624 0.010523 -0.026853
v -0.309507 0.010523 -0.028474
v -0.309409 0.010523 -0.026522
v -0.309146 0.010523 -0.028809
v -0.308942 0.010523 -0.027965
v -0.308811 0.010523 -0.028210
v -0.308577 0.010523 -0.028443
v -0.308671 0.010523 -0.029026
v -0.308811 0.010523 -0.028210
v -0.308942 0.010523 -0.027965
v -0.309146 0.010523 -0.028809
v -0.308985 0.010523 -0.027694
v -0.309140 0.010523 -0.026237
v -0.309409 0.010523 -0.026522
v -0.309507 0.010523 -0.028474
v -0.309624 0.010523 -0.026853
v -0.309735 0.010523 -0.028056
v -0.309764 0.010523 -0.027215
v -0.309811 0.010523 -0.027592
v -0.305272 0.010523 -0.023809
v -0.305322 0.010523 -0.024201
v -0.305336 0.010523 -0.023375
v -0.305472 0.010523 -0.024568
v -0.305526 0.010523 -0.022965
v -0.305724 0.010523 -0.024912
v -0.305835 0.010523 -0.022614
v -0.306078 0.010523 -0.025232
v -0.306189 0.010523 -0.023798
v -0.306255 0.010523 -0.022357
v -0.306262 0.010523 -0.023467
v -0.306480 0.010523 -0.023180
v -0.306750 0.010523 -0.022200
v -0.306828 0.010523 -0.022983
v -0.307283 0.010523 -0.022147
v -0.307288 0.010523 -0.022917
v -0.307742 0.010523 -0.022177
v -0.307765 0.010523 -0.022983
v -0.308129 0.010523 -0.023183
v -0.308151 0.010523 -0.022268
v -0.308396 0.010523 -0.023547
v -0.308509 0.010523 -0.022419
v -0.308580 0.010523 -0.024107
v -0.308818 0.010523 -0.022631
v -0.309073 0.010523 -0.022896
v -0.309272 0.010523 -0.023209
v -0.309413 0.010523 -0.023569
v -0.309497 0.010523 -0.023976
v -0.304928 0.010523 -0.026681
v -0.304970 0.010523 -0.027047
v -0.305020 0.010523 -0.026150
v -0.305097 0.010523 -0.027385
v -0.305298 0.010523 -0.025703
v -0.305315 0.010523 -0.027704
v -0.305599 0.010523 -0.025469
v -0.305627 0.010523 -0.028013
v -0.305789 0.010523 -0.026514
v -0.305835 0.010523 -0.026267
v -0.305974 0.010523 -0.026015
v -0.306206 0.010523 -0.025775
v -0.306235 0.010523 -0.024047
v -0.306371 0.010523 -0.024275
v -0.306534 0.010523 -0.025566
v -0.306959 0.010523 -0.024775
v -0.307704 0.010523 -0.026316
v -0.308094 0.010523 -0.025516
v -0.308374 0.010523 -0.026749
v -0.308752 0.010523 -0.027086
v -0.308927 0.010523 -0.027382
v -0.305855 0.010523 -0.026810
v -0.306052 0.010523 -0.027121
v -0.306472 0.010523 -0.027495
v -0.306701 0.010523 -0.028727
v -0.307192 0.010523 -0.027977
v -0.307721 0.010523 -0.029391
v -0.308225 0.010523 -0.028677
v -0.308251 0.010523 -0.029842
v -0.308388 0.010523 -0.030075
v -0.308433 0.010523 -0.030328
v -0.308544 0.010523 -0.031615
v -0.308818 0.010523 -0.031407
v -0.308978 0.010523 -0.029357
v -0.309040 0.010523 -0.031158
v -0.309178 0.010523 -0.029662
v -0.309198 0.010523 -0.030888
v -0.309288 0.010523 -0.029963
v -0.309293 0.010523 -0.030596
v -0.309325 0.010523 -0.030282
v -0.305438 0.010523 -0.030528
v -0.305571 0.010523 -0.030880
v -0.305358 0.010523 -0.030125
v -0.305757 0.010523 -0.031181
v -0.305997 0.010523 -0.031432
v -0.306289 0.010523 -0.031629
v -0.306306 0.010523 -0.030029
v -0.306452 0.010523 -0.030553
v -0.306632 0.010523 -0.031770
v -0.306678 0.010523 -0.030890
v -0.306990 0.010523 -0.031073
v -0.307028 0.010523 -0.031855
v -0.307395 0.010523 -0.031133
v -0.307476 0.010523 -0.031883
v -0.307816 0.010523 -0.031071
v -0.307873 0.010523 -0.031853
v -0.308147 0.010523 -0.030883
v -0.308229 0.010523 -0.031764
v -0.308362 0.010523 -0.030619
vn 0 -1 0
vn 0 1 0
usemtl material_0_0
f 1//1 2//1 3//1
f 2//1 1//1 4//1
f 4//1 1//1 5//1
f 5//1 1//1 6//1
f 5//1 6//1 7//1
f 7//1 6//1 8//1
f 7//1 8//1 9//1
f 9//1 8//1 10//1
f 9//1 10//1 11//1
f 11//1 10//1 12//1
f 11//1 12//1 13//1
f 13//1 12//1 14//1
f 14//1 12//1 15//1
f 14//1 15//1 16//1
f 16//1 15//1 17//1
f 17//1 15//1 18//1
f 17//1 18//1 19//1
f 17//1 19//1 20//1
f 17//1 20//1 21//1
f 22//1 23//1 24//1
f 23//1 22//1 25//1
f 23//1 25//1 26//1
f 26//1 25//1 27//1
f 26//1 27//1 28//1
f 28//1 27//1 29//1
f 28//1 29//1 30//1
f 30//1 29//1 3//1
f 30//1 3//1 31//1
f 31//1 3//1 2//1
f 31//1 2//1 32//1
f 32//1 2//1 33//1
f 32//1 33//1 34//1
f 32//1 34//1 35//1
f 32//1 35//1 36//1
f 36//1 35//1 37//1
f 36//1 37//1 38//1
f 38//1 37//1 39//1
f 38//1 39//1 40//1
f 40//1 39//1 41//1
f 41//1 39//1 42//1
f 43//1 44//1 45//1
f 44//1 43//1 46//1
f 45//1 44//1 47//1
f 45//1 47//1 48//1
f 45//1 48//1 49//1
f 45//1 49//1 50//1
f 50//1 49//1 51//1
f 50//1 51//1 52//1
f 52//1 51//1 53//1
f 52//1 53//1 54//1
f 54//1 53//1 55//1
f 55//1 53//1 56//1
f 56//1 53//1 57//1
f 56//1 57//1 58//1
f 58//1 57//1 59//1
f 58//1 59//1 42//1
f 58//1 42//1 39//1
f 58//1 39//1 60//1
f 58//1 60//1 61//1
f 61//1 60//1 62//1
f 61//1 62//1 63//1
f 63//1 62//1 64//1
f 63//1 64//1 65//1
f 66//1 67//1 68//1
f 67//1 66//1 69//1
f 69//1 66//1 70//1
f 70//1 66//1 71//1
f 71//1 66//1 72//1
f 72//1 66//1 73//1
f 72//1 73//1 74//1
f 74//1 73//1 75//1
f 74//1 75//1 76//1
f 76//1 75//1 77//1
f 76//1 77//1 78//1
f 76//1 78//1 79//1
f 79//1 78//1 80//1
f 79//1 80//1 81//1
f 81//1 80//1 82//1
f 81//1 82//1 83//1
f 83//1 82//1 84//1
f 83//1 84//1 55//1
f 83//1 55//1 85//1
f 85//1 55//1 56//1
f 85//1 56//1 86//1
f 85//1 86//1 87//1
f 87//1 86//1 88//1
f 87//1 88//1 89//1
f 89//1 88//1 90//1
f 89//1 90//1 91//1
f 92//1 93//1 94//1
f 93//1 92//1 95//1
f 95//1 92//1 96//1
f 95//1 96//1 97//1
f 97//1 96//1 98//1
f 97//1 98//1 43//1
f 43//1 98//1 46//1
f 46//1 98//1 99//1
f 99//1 98//1 30//1
f 99//1 30//1 100//1
f 100//1 30//1 31//1
usemtl material_1_0
f 101//2 102//2 103//2
f 103//2 102//2 104//2
f 102//2 105//2 104//2
f 104//2 105//2 106//2
f 106//2 105//2 107//2
f 107//2 105//2 108//2
f 105//2 109//2 108//2
f 108//2 109//2 110//2
f 109//2 111//2 110//2
f 110//2 111//2 112//2
f 113//2 112//2 111//2
f 114//2 115//2 116//2
f 115//2 117//2 116//2
f 116//2 117//2 118//2
f 117//2 119//2 118//2
f 118//2 119//2 120//2
f 119//2 121//2 120//2
f 121//2 122//2 120//2
f 120//2 122//2 123//2
f 122//2 124//2 123//2
f 124//2 125//2 123//2
f 123//2 125//2 126//2
f 125//2 127//2 126//2
f 126//2 127//2 128//2
f 127//2 129//2 128//2
f 128//2 129//2 130//2
f 129//2 131//2 130//2
f 131//2 132//2 130//2
f 130//2 132//2 133//2
f 132//2 134//2 133//2
f 133//2 134//2 135//2
f 134//2 136//2 135//2
f 135//2 136//2 137//2
f 137//2 136//2 138//2
f 138//2 136//2 139//2
f 139//2 136//2 140//2
f 141//2 140//2 136//2
f 142//2 143//2 144//2
f 143//2 145//2 144//2
f 144//2 145//2 146//2
f 145//2 147//2 146//2
f 146//2 147//2 148//2
f 147//2 149//2 148//2
f 149//2 150//2 148//2
f 150//2 151//2 148//2
f 151//2 152//2 148//2
f 148//2 152//2 121//2
f 152//2 153//2 121//2
f 121//2 153//2 122//2
f 122//2 153//2 154//2
f 154//2 153//2 155//2
f 153//2 156//2 155//2
f 155//2 156//2 157//2
f 156//2 158//2 157//2
f 157//2 158//2 159//2
f 158//2 160//2 159//2
f 160//2 161//2 159//2
f 161//2 162//2 159//2
f 106//2 107//2 162//2
f 159//2 162//2 107//2
f 150//2 149//2 163//2
f 163//2 149//2 164//2
f 164//2 149//2 165//2
f 149//2 166//2 165//2
f 165//2 166//2 167//2
f 166//2 168//2 167//2
f 167//2 168//2 169//2
f 168//2 170//2 169//2
f 170//2 171//2 169//2
f 171//2 172//2 169//2
f 169//2 172//2 101//2
f 172//2 173//2 101//2
f 101//2 173//2 102//2
f 173//2 174//2 102//2
f 102//2 174//2 175//2
f 174//2 176//2 175//2
f 175//2 176//2 177//2
f 176//2 178//2 177//2
f 177//2 178//2 179//2
f 178//2 180//2 179//2
f 181//2 179//2 180//2
f 182//2 183//2 184//2
f 183//2 185//2 184//2
f 185//2 186//2 184//2
f 186//2 187//2 184//2
f 184//2 187//2 188//2
f 188//2 187//2 189//2
f 187//2 190//2 189//2
f 189//2 190//2 191//2
f 191//2 190//2 192//2
f 190//2 193//2 192//2
f 192//2 193//2 194//2
f 193//2 195//2 194//2
f 194//2 195//2 196//2
f 195//2 197//2 196//2
f 196//2 197//2 198//2
f 197//2 199//2 198//2
f 198//2 199//2 200//2
f 200//2 199//2 172//2
f 173//2 172//2 199//2
