# SSTK version 0.8.0
# 482
mtllib original-482.mtl
o instance_76/ä/ID744#ID744
v 0.119964 0.010529 0.106636
v 0.122659 0.010529 0.103564
v 0.122659 0.010529 0.106636
v 0.121312 0.010529 0.100619
v 0.119964 0.010529 0.103564
v 0.117269 0.010529 0.102925
v 0.117269 0.010529 0.105101
v 0.125355 0.010529 0.102925
v 0.125355 0.010529 0.105101
vn 0 -1 0
vn 0 1 0
usemtl material_0_2
f 1//1 2//1 3//1
f 3//2 2//2 1//2
f 2//1 1//1 4//1
f 4//2 1//2 2//2
f 4//1 1//1 5//1
f 5//2 1//2 4//2
f 4//1 5//1 6//1
f 6//2 5//2 4//2
f 6//1 5//1 7//1
f 7//2 5//2 6//2
f 2//1 8//1 9//1
f 9//2 8//2 2//2
f 8//1 2//1 4//1
f 4//2 2//2 8//2
