# SSTK version 0.8.0
# 20
mtllib original-20.mtl
o #ID1835
v -0.446327 -0.000304 -0.062876
v -0.445448 -0.003541 -0.062933
v -0.446327 -0.003541 -0.062876
v -0.445448 -0.000304 -0.062933
v -0.445448 -0.000304 -0.062933
v -0.407860 -0.003541 -0.062933
v -0.445448 -0.003541 -0.062933
v 0.395961 -0.003541 -0.062933
v 0.433549 -0.003541 -0.062933
v 0.433549 -0.000304 -0.062933
v -0.407860 -0.003541 -0.062933
v -0.407860 -0.003541 -0.028406
v -0.445448 -0.003541 -0.062933
v 0.433549 -0.003541 -0.062933
v 0.395961 -0.003541 -0.028406
v 0.395961 -0.003541 -0.062933
v 0.433549 -0.003541 0.155761
v 0.434429 -0.003541 0.155703
v 0.434429 -0.003541 -0.062876
v 0.435119 -0.003541 0.155566
v 0.435119 -0.003541 -0.062738
v 0.435786 -0.003541 0.155339
v 0.435786 -0.003541 -0.062512
v 0.436417 -0.003541 -0.062201
v 0.436417 -0.003541 0.155028
v 0.437002 -0.003541 -0.061809
v 0.437002 -0.003541 0.154637
v 0.437531 -0.003541 -0.061345
v 0.437531 -0.003541 0.154173
v 0.437996 -0.003541 0.153643
v 0.437996 -0.003541 -0.060816
v 0.438387 -0.003541 0.153058
v 0.438387 -0.003541 -0.060231
v 0.438698 -0.003541 -0.059599
v 0.438698 -0.003541 0.152426
v 0.438925 -0.003541 -0.058932
v 0.438925 -0.003541 0.151760
v 0.439062 -0.003541 -0.058242
v 0.439062 -0.003541 0.151069
v 0.439120 -0.003541 -0.057363
v 0.439120 -0.003541 0.150190
v -0.450961 -0.003541 -0.058242
v -0.451018 -0.003541 0.150190
v -0.451018 -0.003541 -0.057363
v -0.450961 -0.003541 0.151069
v -0.450823 -0.003541 -0.058932
v -0.450823 -0.003541 0.151760
v -0.450597 -0.003541 -0.059599
v -0.450597 -0.003541 0.152426
v -0.450286 -0.003541 -0.060231
v -0.450286 -0.003541 0.153058
v -0.449895 -0.003541 -0.060816
v -0.449895 -0.003541 0.153643
v -0.449430 -0.003541 0.154173
v -0.449430 -0.003541 -0.061345
v -0.448901 -0.003541 -0.061809
v -0.448901 -0.003541 0.154637
v -0.448316 -0.003541 0.155028
v -0.448316 -0.003541 -0.062201
v -0.447684 -0.003541 -0.062512
v -0.447684 -0.003541 0.155339
v -0.447018 -0.003541 0.155566
v -0.447018 -0.003541 -0.062738
v -0.446327 -0.003541 0.155703
v -0.446327 -0.003541 -0.062876
v -0.445448 -0.003541 0.155761
v -0.447018 -0.000304 -0.062738
v -0.447018 -0.003541 -0.062738
v 0.433549 -0.000304 -0.062933
v 0.434429 -0.003541 -0.062876
v 0.433549 -0.003541 -0.062933
v 0.434429 -0.000304 -0.062876
v -0.451018 -0.000304 0.150190
v -0.450961 -0.003541 0.151069
v -0.450961 -0.000304 0.151069
v -0.451018 -0.003541 0.150190
v -0.451018 -0.000304 -0.057363
v -0.451018 -0.003541 0.150190
v -0.451018 -0.000304 0.150190
v -0.451018 -0.003541 -0.057363
v -0.450961 -0.000304 -0.058242
v -0.451018 -0.003541 -0.057363
v -0.451018 -0.000304 -0.057363
v -0.450961 -0.003541 -0.058242
v -0.450823 -0.000304 -0.058932
v -0.450823 -0.003541 -0.058932
v -0.450597 -0.000304 -0.059599
v -0.450597 -0.003541 -0.059599
v -0.450286 -0.000304 -0.060231
v -0.450286 -0.003541 -0.060231
v -0.449895 -0.000304 -0.060816
v -0.449895 -0.003541 -0.060816
v -0.449430 -0.000304 -0.061345
v -0.449430 -0.003541 -0.061345
v -0.448901 -0.003541 -0.061809
v -0.448901 -0.000304 -0.061809
v -0.448316 -0.003541 -0.062201
v -0.448316 -0.000304 -0.062201
v -0.447684 -0.003541 -0.062512
v -0.447684 -0.000304 -0.062512
v 0.435119 -0.003541 -0.062738
v 0.435119 -0.000304 -0.062738
v 0.435786 -0.003541 -0.062512
v 0.435786 -0.000304 -0.062512
v 0.436417 -0.003541 -0.062201
v 0.436417 -0.000304 -0.062201
v 0.437002 -0.003541 -0.061809
v 0.437002 -0.000304 -0.061809
v 0.437531 -0.003541 -0.061345
v 0.437531 -0.000304 -0.061345
v 0.437996 -0.000304 -0.060816
v 0.437996 -0.003541 -0.060816
v 0.438387 -0.000304 -0.060231
v 0.438387 -0.003541 -0.060231
v 0.438698 -0.000304 -0.059599
v 0.438698 -0.003541 -0.059599
v 0.438925 -0.000304 -0.058932
v 0.438925 -0.003541 -0.058932
v 0.439062 -0.000304 -0.058242
v 0.439062 -0.003541 -0.058242
v 0.439120 -0.000304 -0.057363
v 0.439120 -0.003541 -0.057363
v 0.439120 -0.003541 -0.057363
v 0.439120 -0.000304 0.150190
v 0.439120 -0.003541 0.150190
v 0.439120 -0.000304 -0.057363
v 0.439120 -0.003541 0.150190
v 0.439062 -0.000304 0.151069
v 0.439062 -0.003541 0.151069
v 0.439120 -0.000304 0.150190
v 0.438925 -0.000304 0.151760
v 0.438925 -0.003541 0.151760
v 0.438698 -0.000304 0.152426
v 0.438698 -0.003541 0.152426
v 0.438387 -0.000304 0.153058
v 0.438387 -0.003541 0.153058
v 0.437996 -0.000304 0.153643
v 0.437996 -0.003541 0.153643
v 0.437531 -0.000304 0.154173
v 0.437531 -0.003541 0.154173
v 0.437002 -0.003541 0.154637
v 0.437002 -0.000304 0.154637
v 0.436417 -0.003541 0.155028
v 0.436417 -0.000304 0.155028
v 0.435786 -0.003541 0.155339
v 0.435786 -0.000304 0.155339
v 0.435119 -0.003541 0.155566
v 0.435119 -0.000304 0.155566
v 0.434429 -0.003541 0.155703
v 0.434429 -0.000304 0.155703
v 0.433549 -0.003541 0.155761
v 0.433549 -0.000304 0.155761
v 0.433549 -0.000304 0.155761
v -0.445448 -0.003541 0.155761
v 0.433549 -0.003541 0.155761
v -0.445448 -0.000304 0.155761
v -0.445448 -0.000304 0.155761
v -0.446327 -0.003541 0.155703
v -0.445448 -0.003541 0.155761
v -0.446327 -0.000304 0.155703
v -0.447018 -0.003541 0.155566
v -0.447018 -0.000304 0.155566
v -0.447684 -0.003541 0.155339
v -0.447684 -0.000304 0.155339
v -0.448316 -0.003541 0.155028
v -0.448316 -0.000304 0.155028
v -0.448901 -0.003541 0.154637
v -0.448901 -0.000304 0.154637
v -0.449430 -0.003541 0.154173
v -0.449430 -0.000304 0.154173
v -0.449895 -0.000304 0.153643
v -0.449895 -0.003541 0.153643
v -0.450286 -0.000304 0.153058
v -0.450286 -0.003541 0.153058
v -0.450597 -0.000304 0.152426
v -0.450597 -0.003541 0.152426
v -0.450823 -0.000304 0.151760
v -0.450823 -0.003541 0.151760
vn -0.1305261948688555 0 -0.9914448610250887
vn -0.06540313151333016 0 -0.9978589230889555
vn 0.1305261948688555 0 0.9914448610250887
vn 0.06540313151333016 0 0.9978589230889555
vn 0 0 -1
vn 0 0 1
vn 0 -1 0
vn 0 1 0
vn -0.25881900959356163 0 -0.9659258358036645
vn 0.25881900959356163 0 0.9659258358036645
vn 0.06540313151333016 0 -0.9978589230889555
vn 0.1305261948688555 0 -0.9914448610250887
vn -0.06540313151333016 0 0.9978589230889555
vn -0.1305261948688555 0 0.9914448610250887
vn -0.9978589230889555 0 0.06540313151333016
vn -0.9914448610250887 0 0.1305261948688555
vn 0.9978589230889555 0 -0.06540313151333016
vn 0.9914448610250887 0 -0.1305261948688555
vn -1 0 0
vn 1 0 0
vn -0.9914448610250887 0 -0.1305261948688555
vn -0.9978589230889555 0 -0.06540313151333016
vn 0.9914448610250887 0 0.1305261948688555
vn 0.9978589230889555 0 0.06540313151333016
vn -0.9659258358036645 0 -0.25881900959356163
vn 0.9659258358036645 0 0.25881900959356163
vn -0.9238795391929066 0 -0.38268341623423263
vn 0.9238795391929066 0 0.38268341623423263
vn -0.866025402838329 0 -0.5000000016387101
vn 0.866025402838329 0 0.5000000016387101
vn -0.7933533393698233 0 -0.608761430209528
vn 0.7933533393698233 0 0.608761430209528
vn -0.7071067811865476 0 -0.7071067811865476
vn 0.7071067811865476 0 0.7071067811865476
vn -0.608761430209528 0 -0.7933533393698233
vn 0.608761430209528 0 0.7933533393698233
vn -0.5000000016387101 0 -0.866025402838329
vn 0.5000000016387101 0 0.866025402838329
vn -0.38268341623423263 0 -0.9238795391929066
vn 0.38268341623423263 0 0.9238795391929066
vn 0.25881900959356163 0 -0.9659258358036645
vn -0.25881900959356163 0 0.9659258358036645
vn 0.38268341623423263 0 -0.9238795391929066
vn -0.38268341623423263 0 0.9238795391929066
vn 0.5000000016387101 0 -0.866025402838329
vn -0.5000000016387101 0 0.866025402838329
vn 0.608761430209528 0 -0.7933533393698233
vn -0.608761430209528 0 0.7933533393698233
vn 0.7071067811865476 0 -0.7071067811865476
vn -0.7071067811865476 0 0.7071067811865476
vn 0.7933533393698233 0 -0.608761430209528
vn -0.7933533393698233 0 0.608761430209528
vn 0.866025402838329 0 -0.5000000016387101
vn -0.866025402838329 0 0.5000000016387101
vn 0.9238795391929066 0 -0.38268341623423263
vn -0.9238795391929066 0 0.38268341623423263
vn 0.9659258358036645 0 -0.25881900959356163
vn -0.9659258358036645 0 0.25881900959356163
usemtl material_0_2
f 1//1 2//2 3//1
f 3//3 2//4 1//3
f 2//2 1//1 4//2
f 4//4 1//3 2//4
f 5//5 6//5 7//5
f 7//6 6//6 5//6
f 6//5 5//5 8//5
f 8//6 5//6 6//6
f 8//5 5//5 9//5
f 9//6 5//6 8//6
f 9//5 5//5 10//5
f 10//6 5//6 9//6
f 11//7 12//7 13//7
f 13//8 12//8 11//8
f 14//7 15//7 16//7
f 16//8 15//8 14//8
f 15//7 14//7 17//7
f 17//8 14//8 15//8
f 17//7 14//7 18//7
f 18//8 14//8 17//8
f 18//7 14//7 19//7
f 19//8 14//8 18//8
f 18//7 19//7 20//7
f 20//8 19//8 18//8
f 20//7 19//7 21//7
f 21//8 19//8 20//8
f 20//7 21//7 22//7
f 22//8 21//8 20//8
f 22//7 21//7 23//7
f 23//8 21//8 22//8
f 22//7 23//7 24//7
f 24//8 23//8 22//8
f 22//7 24//7 25//7
f 25//8 24//8 22//8
f 25//7 24//7 26//7
f 26//8 24//8 25//8
f 25//7 26//7 27//7
f 27//8 26//8 25//8
f 27//7 26//7 28//7
f 28//8 26//8 27//8
f 27//7 28//7 29//7
f 29//8 28//8 27//8
f 29//7 28//7 30//7
f 30//8 28//8 29//8
f 30//7 28//7 31//7
f 31//8 28//8 30//8
f 30//7 31//7 32//7
f 32//8 31//8 30//8
f 32//7 31//7 33//7
f 33//8 31//8 32//8
f 32//7 33//7 34//7
f 34//8 33//8 32//8
f 32//7 34//7 35//7
f 35//8 34//8 32//8
f 35//7 34//7 36//7
f 36//8 34//8 35//8
f 35//7 36//7 37//7
f 37//8 36//8 35//8
f 37//7 36//7 38//7
f 38//8 36//8 37//8
f 37//7 38//7 39//7
f 39//8 38//8 37//8
f 39//7 38//7 40//7
f 40//8 38//8 39//8
f 39//7 40//7 41//7
f 41//8 40//8 39//8
f 42//7 43//7 44//7
f 44//8 43//8 42//8
f 43//7 42//7 45//7
f 45//8 42//8 43//8
f 45//7 42//7 46//7
f 46//8 42//8 45//8
f 45//7 46//7 47//7
f 47//8 46//8 45//8
f 47//7 46//7 48//7
f 48//8 46//8 47//8
f 47//7 48//7 49//7
f 49//8 48//8 47//8
f 49//7 48//7 50//7
f 50//8 48//8 49//8
f 49//7 50//7 51//7
f 51//8 50//8 49//8
f 51//7 50//7 52//7
f 52//8 50//8 51//8
f 51//7 52//7 53//7
f 53//8 52//8 51//8
f 53//7 52//7 54//7
f 54//8 52//8 53//8
f 54//7 52//7 55//7
f 55//8 52//8 54//8
f 54//7 55//7 56//7
f 56//8 55//8 54//8
f 54//7 56//7 57//7
f 57//8 56//8 54//8
f 57//7 56//7 58//7
f 58//8 56//8 57//8
f 58//7 56//7 59//7
f 59//8 56//8 58//8
f 58//7 59//7 60//7
f 60//8 59//8 58//8
f 58//7 60//7 61//7
f 61//8 60//8 58//8
f 61//7 60//7 62//7
f 62//8 60//8 61//8
f 62//7 60//7 63//7
f 63//8 60//8 62//8
f 62//7 63//7 64//7
f 64//8 63//8 62//8
f 64//7 63//7 65//7
f 65//8 63//8 64//8
f 64//7 65//7 13//7
f 13//8 65//8 64//8
f 64//7 13//7 66//7
f 66//8 13//8 64//8
f 66//7 13//7 12//7
f 12//8 13//8 66//8
f 66//7 12//7 17//7
f 17//8 12//8 66//8
f 17//7 12//7 15//7
f 15//8 12//8 17//8
f 67//9 3//1 68//9
f 68//10 3//3 67//10
f 3//1 67//9 1//1
f 1//3 67//10 3//3
f 69//11 70//12 71//11
f 71//13 70//14 69//13
f 70//12 69//11 72//12
f 72//14 69//13 70//14
f 73//15 74//16 75//16
f 75//18 74//18 73//17
f 74//16 73//15 76//15
f 76//17 73//17 74//18
f 77//19 78//19 79//19
f 79//20 78//20 77//20
f 78//19 77//19 80//19
f 80//20 77//20 78//20
f 81//21 82//22 83//22
f 83//24 82//24 81//23
f 82//22 81//21 84//21
f 84//23 81//23 82//24
f 85//25 84//21 81//21
f 81//23 84//23 85//26
f 84//21 85//25 86//25
f 86//26 85//26 84//23
f 87//27 86//25 85//25
f 85//26 86//26 87//28
f 86//25 87//27 88//27
f 88//28 87//28 86//26
f 89//29 88//27 87//27
f 87//28 88//28 89//30
f 88//27 89//29 90//29
f 90//30 89//30 88//28
f 91//31 90//29 89//29
f 89//30 90//30 91//32
f 90//29 91//31 92//31
f 92//32 91//32 90//30
f 93//33 92//31 91//31
f 91//32 92//32 93//34
f 92//31 93//33 94//33
f 94//34 93//34 92//32
f 93//33 95//35 94//33
f 94//34 95//36 93//34
f 95//35 93//33 96//35
f 96//36 93//34 95//36
f 96//35 97//37 95//35
f 95//36 97//38 96//36
f 97//37 96//35 98//37
f 98//38 96//36 97//38
f 98//37 99//39 97//37
f 97//38 99//40 98//38
f 99//39 98//37 100//39
f 100//40 98//38 99//40
f 100//39 68//9 99//39
f 99//40 68//10 100//40
f 68//9 100//39 67//9
f 67//10 100//40 68//10
f 72//12 101//41 70//12
f 70//14 101//42 72//14
f 101//41 72//12 102//41
f 102//42 72//14 101//42
f 102//41 103//43 101//41
f 101//42 103//44 102//42
f 103//43 102//41 104//43
f 104//44 102//42 103//44
f 104//43 105//45 103//43
f 103//44 105//46 104//44
f 105//45 104//43 106//45
f 106//46 104//44 105//46
f 106//45 107//47 105//45
f 105//46 107//48 106//46
f 107//47 106//45 108//47
f 108//48 106//46 107//48
f 108//47 109//49 107//47
f 107//48 109//50 108//48
f 109//49 108//47 110//49
f 110//50 108//48 109//50
f 109//49 111//51 112//51
f 112//52 111//52 109//50
f 111//51 109//49 110//49
f 110//50 109//50 111//52
f 112//51 113//53 114//53
f 114//54 113//54 112//52
f 113//53 112//51 111//51
f 111//52 112//52 113//54
f 114//53 115//55 116//55
f 116//56 115//56 114//54
f 115//55 114//53 113//53
f 113//54 114//54 115//56
f 116//55 117//57 118//57
f 118//58 117//58 116//56
f 117//57 116//55 115//55
f 115//56 116//56 117//58
f 118//57 119//18 120//18
f 120//16 119//16 118//58
f 119//18 118//57 117//57
f 117//58 118//58 119//16
f 120//18 121//17 122//17
f 122//15 121//15 120//16
f 121//17 120//18 119//18
f 119//16 120//16 121//15
f 123//20 124//20 125//20
f 125//19 124//19 123//19
f 124//20 123//20 126//20
f 126//19 123//19 124//19
f 127//24 128//23 129//23
f 129//21 128//21 127//22
f 128//23 127//24 130//24
f 130//22 127//22 128//21
f 129//23 131//26 132//26
f 132//25 131//25 129//21
f 131//26 129//23 128//23
f 128//21 129//21 131//25
f 132//26 133//28 134//28
f 134//27 133//27 132//25
f 133//28 132//26 131//26
f 131//25 132//25 133//27
f 134//28 135//30 136//30
f 136//29 135//29 134//27
f 135//30 134//28 133//28
f 133//27 134//27 135//29
f 136//30 137//32 138//32
f 138//31 137//31 136//29
f 137//32 136//30 135//30
f 135//29 136//29 137//31
f 138//32 139//34 140//34
f 140//33 139//33 138//31
f 139//34 138//32 137//32
f 137//31 138//31 139//33
f 139//34 141//36 140//34
f 140//33 141//35 139//33
f 141//36 139//34 142//36
f 142//35 139//33 141//35
f 142//36 143//38 141//36
f 141//35 143//37 142//35
f 143//38 142//36 144//38
f 144//37 142//35 143//37
f 144//38 145//40 143//38
f 143//37 145//39 144//37
f 145//40 144//38 146//40
f 146//39 144//37 145//39
f 146//40 147//10 145//40
f 145//39 147//9 146//39
f 147//10 146//40 148//10
f 148//9 146//39 147//9
f 148//10 149//3 147//10
f 147//9 149//1 148//9
f 149//3 148//10 150//3
f 150//1 148//9 149//1
f 150//3 151//4 149//3
f 149//1 151//2 150//1
f 151//4 150//3 152//4
f 152//2 150//1 151//2
f 153//6 154//6 155//6
f 155//5 154//5 153//5
f 154//6 153//6 156//6
f 156//5 153//5 154//5
f 157//13 158//14 159//13
f 159//11 158//12 157//11
f 158//14 157//13 160//14
f 160//12 157//11 158//12
f 160//14 161//42 158//14
f 158//12 161//41 160//12
f 161//42 160//14 162//42
f 162//41 160//12 161//41
f 162//42 163//44 161//42
f 161//41 163//43 162//41
f 163//44 162//42 164//44
f 164//43 162//41 163//43
f 164//44 165//46 163//44
f 163//43 165//45 164//43
f 165//46 164//44 166//46
f 166//45 164//43 165//45
f 166//46 167//48 165//46
f 165//45 167//47 166//45
f 167//48 166//46 168//48
f 168//47 166//45 167//47
f 168//48 169//50 167//48
f 167//47 169//49 168//47
f 169//50 168//48 170//50
f 170//49 168//47 169//49
f 171//52 169//50 170//50
f 170//49 169//49 171//51
f 169//50 171//52 172//52
f 172//51 171//51 169//49
f 173//54 172//52 171//52
f 171//51 172//51 173//53
f 172//52 173//54 174//54
f 174//53 173//53 172//51
f 175//56 174//54 173//54
f 173//53 174//53 175//55
f 174//54 175//56 176//56
f 176//55 175//55 174//53
f 177//58 176//56 175//56
f 175//55 176//55 177//57
f 176//56 177//58 178//58
f 178//57 177//57 176//55
f 75//16 178//58 177//58
f 177//57 178//57 75//18
f 178//58 75//16 74//16
f 74//18 75//18 178//57
