# SSTK version 0.8.0
# 301
mtllib original-301.mtl
o instance_17/_0/ID806#ID806
v 0.241671 0.010550 -0.016982
v 0.244099 0.010550 -0.017786
v 0.244099 0.010550 -0.016982
v 0.241671 0.010550 -0.017786
v 0.241671 0.010550 -0.018999
v 0.244099 0.010550 -0.019811
v 0.244099 0.010550 -0.018999
v 0.241671 0.010550 -0.019811
v 0.244099 0.010550 -0.013743
v 0.245312 0.010550 -0.016982
v 0.245312 0.010550 -0.013743
v 0.245312 0.010550 -0.017786
v 0.245312 0.010550 -0.018999
v 0.245312 0.010550 -0.019811
v 0.245312 0.010550 -0.022844
v 0.244705 0.010550 -0.025879
v 0.244099 0.010550 -0.022844
v 0.241671 0.010550 -0.022845
v 0.247739 0.010550 -0.022845
v 0.247739 0.010550 -0.019811
v 0.247739 0.010550 -0.018999
v 0.247739 0.010550 -0.017786
v 0.247739 0.010550 -0.016982
v 0.245312 0.010550 -0.017786
v 0.245312 0.010550 -0.016982
v 0.247739 0.010550 -0.017786
v 0.247739 0.010550 -0.016982
v 0.245312 0.010550 -0.019811
v 0.245312 0.010550 -0.018999
v 0.247739 0.010550 -0.019811
v 0.247739 0.010550 -0.018999
v 0.245312 0.010550 -0.022844
v 0.247739 0.010550 -0.022845
v 0.244705 0.010550 -0.025879
v 0.244099 0.010550 -0.019811
v 0.244099 0.010550 -0.018999
v 0.244099 0.010550 -0.022844
v 0.244099 0.010550 -0.017786
v 0.244099 0.010550 -0.016982
v 0.244099 0.010550 -0.013743
v 0.241671 0.010550 -0.022845
v 0.245312 0.010550 -0.013743
v 0.241671 0.010550 -0.019811
v 0.241671 0.010550 -0.018999
v 0.241671 0.010550 -0.017786
v 0.241671 0.010550 -0.016982
vn 0 -1 0
vn 0 1 0
usemtl material_0_0
f 1//1 2//1 3//1
f 2//1 1//1 4//1
f 5//1 6//1 7//1
f 6//1 5//1 8//1
f 9//1 10//1 11//1
f 10//1 9//1 12//1
f 12//1 9//1 13//1
f 13//1 9//1 14//1
f 14//1 9//1 15//1
f 15//1 9//1 16//1
f 16//1 9//1 17//1
f 16//1 17//1 18//1
f 17//1 9//1 3//1
f 17//1 3//1 2//1
f 17//1 2//1 7//1
f 17//1 7//1 6//1
f 16//1 19//1 15//1
f 13//1 20//1 21//1
f 20//1 13//1 14//1
f 10//1 22//1 23//1
f 22//1 10//1 12//1
usemtl material_1_0
f 24//2 25//2 26//2
f 27//2 26//2 25//2
f 28//2 29//2 30//2
f 31//2 30//2 29//2
f 32//2 33//2 34//2
f 35//2 36//2 37//2
f 36//2 38//2 37//2
f 38//2 39//2 37//2
f 39//2 40//2 37//2
f 41//2 37//2 34//2
f 37//2 40//2 34//2
f 34//2 40//2 32//2
f 32//2 40//2 28//2
f 28//2 40//2 29//2
f 29//2 40//2 24//2
f 24//2 40//2 25//2
f 42//2 25//2 40//2
f 43//2 44//2 35//2
f 36//2 35//2 44//2
f 45//2 46//2 38//2
f 39//2 38//2 46//2
