# SSTK version 0.8.0
# 448
mtllib original-448.mtl
o #ID1524
v -0.209791 0.010502 -0.046080
v -0.209369 0.010502 -0.045705
v -0.209791 0.010502 -0.042898
v -0.207644 0.010502 -0.046080
v -0.207644 0.010502 -0.045705
v -0.207876 0.010502 -0.044719
v -0.209369 0.010502 -0.044344
v -0.209369 0.010502 -0.044719
v -0.207876 0.010502 -0.044344
v -0.209369 0.010502 -0.042898
v -0.209369 0.010502 -0.044344
v -0.209369 0.010502 -0.044719
v -0.209369 0.010502 -0.042898
v -0.209369 0.010502 -0.045705
v -0.209791 0.010502 -0.042898
v -0.207876 0.010502 -0.044344
v -0.207876 0.010502 -0.044719
v -0.207644 0.010502 -0.045705
v -0.207644 0.010502 -0.046080
v -0.209791 0.010502 -0.046080
vn 0 -1 0
vn 0 1 0
usemtl material_0_0
f 1//1 2//1 3//1
f 2//1 1//1 4//1
f 2//1 4//1 5//1
f 6//1 7//1 8//1
f 7//1 6//1 9//1
f 2//1 10//1 3//1
f 10//1 2//1 8//1
f 10//1 8//1 7//1
usemtl material_1_0
f 11//2 12//2 13//2
f 12//2 14//2 13//2
f 15//2 13//2 14//2
f 16//2 17//2 11//2
f 12//2 11//2 17//2
f 18//2 19//2 14//2
f 19//2 20//2 14//2
f 15//2 14//2 20//2
