# SSTK version 0.8.0
# 236
mtllib original-236.mtl
o #ID568
v -0.397690 0.010486 0.080352
v -0.397690 0.006170 0.108405
v -0.397690 0.010486 0.108405
v -0.397690 0.006170 0.080352
v -0.397690 0.010486 0.108405
v -0.397671 0.006170 0.108686
v -0.397671 0.010486 0.108686
v -0.397690 0.006170 0.108405
v -0.397671 0.010486 0.108686
v -0.397690 0.010486 0.080352
v -0.397690 0.010486 0.108405
v -0.397671 0.010486 0.080070
v -0.397612 0.010486 0.108963
v -0.397612 0.010486 0.079793
v -0.397515 0.010486 0.109231
v -0.397515 0.010486 0.079526
v -0.397381 0.010486 0.109484
v -0.397381 0.010486 0.079273
v -0.397213 0.010486 0.109718
v -0.397213 0.010486 0.079038
v -0.397014 0.010486 0.109931
v -0.397014 0.010486 0.078826
v -0.396787 0.010486 0.110117
v -0.396787 0.010486 0.078640
v -0.396536 0.010486 0.078483
v -0.396536 0.010486 0.110274
v -0.396265 0.010486 0.078358
v -0.396265 0.010486 0.110398
v -0.395979 0.010486 0.110489
v -0.395979 0.010486 0.078267
v -0.395683 0.010486 0.110544
v -0.395683 0.010486 0.078212
v -0.395381 0.010486 0.110563
v -0.395381 0.010486 0.078194
v -0.365365 0.010486 0.110563
v -0.365365 0.010486 0.078194
v -0.365063 0.010486 0.110544
v -0.365063 0.010486 0.078212
v -0.364767 0.010486 0.110489
v -0.364767 0.010486 0.078267
v -0.364481 0.010486 0.110398
v -0.364481 0.010486 0.078358
v -0.364210 0.010486 0.110274
v -0.364210 0.010486 0.078483
v -0.363959 0.010486 0.078640
v -0.363959 0.010486 0.110117
v -0.363732 0.010486 0.078826
v -0.363732 0.010486 0.109931
v -0.363533 0.010486 0.109718
v -0.363533 0.010486 0.079038
v -0.363365 0.010486 0.109484
v -0.363365 0.010486 0.079273
v -0.363231 0.010486 0.109231
v -0.363231 0.010486 0.079526
v -0.363134 0.010486 0.108963
v -0.363134 0.010486 0.079793
v -0.363075 0.010486 0.108686
v -0.363075 0.010486 0.080070
v -0.363056 0.010486 0.108405
v -0.363056 0.010486 0.080352
v -0.397671 0.010486 0.080070
v -0.397690 0.006170 0.080352
v -0.397690 0.010486 0.080352
v -0.397671 0.006170 0.080070
v -0.397671 0.010486 0.108686
v -0.397612 0.006170 0.108963
v -0.397612 0.010486 0.108963
v -0.397671 0.006170 0.108686
v -0.363075 0.006170 0.080070
v -0.363056 0.010486 0.080352
v -0.363056 0.006170 0.080352
v -0.363075 0.010486 0.080070
v -0.363134 0.006170 0.079793
v -0.363075 0.010486 0.080070
v -0.363075 0.006170 0.080070
v -0.363134 0.010486 0.079793
v -0.363231 0.006170 0.079526
v -0.363134 0.010486 0.079793
v -0.363134 0.006170 0.079793
v -0.363231 0.010486 0.079526
v -0.363365 0.006170 0.079273
v -0.363231 0.010486 0.079526
v -0.363231 0.006170 0.079526
v -0.363365 0.010486 0.079273
v -0.363533 0.006170 0.079038
v -0.363365 0.010486 0.079273
v -0.363365 0.006170 0.079273
v -0.363533 0.010486 0.079038
v -0.363732 0.006170 0.078826
v -0.363533 0.010486 0.079038
v -0.363533 0.006170 0.079038
v -0.363732 0.010486 0.078826
v -0.363959 0.010486 0.078640
v -0.363732 0.006170 0.078826
v -0.363959 0.006170 0.078640
v -0.363732 0.010486 0.078826
v -0.364210 0.010486 0.078483
v -0.363959 0.006170 0.078640
v -0.364210 0.006170 0.078483
v -0.363959 0.010486 0.078640
v -0.364481 0.010486 0.078358
v -0.364210 0.006170 0.078483
v -0.364481 0.006170 0.078358
v -0.364210 0.010486 0.078483
v -0.364767 0.010486 0.078267
v -0.364481 0.006170 0.078358
v -0.364767 0.006170 0.078267
v -0.364481 0.010486 0.078358
v -0.365063 0.010486 0.078212
v -0.364767 0.006170 0.078267
v -0.365063 0.006170 0.078212
v -0.364767 0.010486 0.078267
v -0.365365 0.010486 0.078194
v -0.365063 0.006170 0.078212
v -0.365365 0.006170 0.078194
v -0.365063 0.010486 0.078212
v -0.395381 0.010486 0.078194
v -0.365365 0.006170 0.078194
v -0.395381 0.006170 0.078194
v -0.365365 0.010486 0.078194
v -0.395683 0.010486 0.078212
v -0.395381 0.006170 0.078194
v -0.395683 0.006170 0.078212
v -0.395381 0.010486 0.078194
v -0.395979 0.010486 0.078267
v -0.395683 0.006170 0.078212
v -0.395979 0.006170 0.078267
v -0.395683 0.010486 0.078212
v -0.396265 0.010486 0.078358
v -0.395979 0.006170 0.078267
v -0.396265 0.006170 0.078358
v -0.395979 0.010486 0.078267
v -0.396536 0.010486 0.078483
v -0.396265 0.006170 0.078358
v -0.396536 0.006170 0.078483
v -0.396265 0.010486 0.078358
v -0.396787 0.010486 0.078640
v -0.396536 0.006170 0.078483
v -0.396787 0.006170 0.078640
v -0.396536 0.010486 0.078483
v -0.397014 0.010486 0.078826
v -0.396787 0.006170 0.078640
v -0.397014 0.006170 0.078826
v -0.396787 0.010486 0.078640
v -0.397014 0.010486 0.078826
v -0.397213 0.006170 0.079038
v -0.397213 0.010486 0.079038
v -0.397014 0.006170 0.078826
v -0.397213 0.010486 0.079038
v -0.397381 0.006170 0.079273
v -0.397381 0.010486 0.079273
v -0.397213 0.006170 0.079038
v -0.397381 0.010486 0.079273
v -0.397515 0.006170 0.079526
v -0.397515 0.010486 0.079526
v -0.397381 0.006170 0.079273
v -0.397515 0.010486 0.079526
v -0.397612 0.006170 0.079793
v -0.397612 0.010486 0.079793
v -0.397515 0.006170 0.079526
v -0.397612 0.010486 0.079793
v -0.397671 0.006170 0.080070
v -0.397671 0.010486 0.080070
v -0.397612 0.006170 0.079793
v -0.397612 0.010486 0.108963
v -0.397515 0.006170 0.109231
v -0.397515 0.010486 0.109231
v -0.397612 0.006170 0.108963
v -0.397515 0.010486 0.109231
v -0.397381 0.006170 0.109484
v -0.397381 0.010486 0.109484
v -0.397515 0.006170 0.109231
v -0.397381 0.010486 0.109484
v -0.397213 0.006170 0.109718
v -0.397213 0.010486 0.109718
v -0.397381 0.006170 0.109484
v -0.397213 0.010486 0.109718
v -0.397014 0.006170 0.109931
v -0.397014 0.010486 0.109931
v -0.397213 0.006170 0.109718
v -0.396787 0.010486 0.110117
v -0.397014 0.006170 0.109931
v -0.396787 0.006170 0.110117
v -0.397014 0.010486 0.109931
v -0.396536 0.010486 0.110274
v -0.396627 0.006170 0.110217
v -0.396536 0.006170 0.110274
v -0.396787 0.006170 0.110117
v -0.396787 0.010486 0.110117
v -0.396265 0.010486 0.110398
v -0.396536 0.006170 0.110274
v -0.396265 0.006170 0.110398
v -0.396536 0.010486 0.110274
v -0.395979 0.010486 0.110489
v -0.396265 0.006170 0.110398
v -0.395979 0.006170 0.110489
v -0.396265 0.010486 0.110398
v -0.395683 0.010486 0.110544
v -0.395979 0.006170 0.110489
v -0.395683 0.006170 0.110544
v -0.395979 0.010486 0.110489
v -0.395381 0.010486 0.110563
v -0.395683 0.006170 0.110544
v -0.395381 0.006170 0.110563
v -0.395683 0.010486 0.110544
v -0.365365 0.010486 0.110563
v -0.395381 0.006170 0.110563
v -0.365365 0.006170 0.110563
v -0.395381 0.010486 0.110563
v -0.365063 0.010486 0.110544
v -0.365365 0.006170 0.110563
v -0.365063 0.006170 0.110544
v -0.365365 0.010486 0.110563
v -0.364767 0.010486 0.110489
v -0.365063 0.006170 0.110544
v -0.364767 0.006170 0.110489
v -0.365063 0.010486 0.110544
v -0.364481 0.010486 0.110398
v -0.364767 0.006170 0.110489
v -0.364481 0.006170 0.110398
v -0.364767 0.010486 0.110489
v -0.364210 0.010486 0.110274
v -0.364481 0.006170 0.110398
v -0.364210 0.006170 0.110274
v -0.364481 0.010486 0.110398
v -0.363959 0.010486 0.110117
v -0.364210 0.006170 0.110274
v -0.363959 0.006170 0.110117
v -0.364210 0.010486 0.110274
v -0.363732 0.010486 0.109931
v -0.363959 0.006170 0.110117
v -0.363732 0.006170 0.109931
v -0.363959 0.010486 0.110117
v -0.363533 0.006170 0.109718
v -0.363732 0.010486 0.109931
v -0.363732 0.006170 0.109931
v -0.363533 0.010486 0.109718
v -0.363365 0.006170 0.109484
v -0.363533 0.010486 0.109718
v -0.363533 0.006170 0.109718
v -0.363365 0.010486 0.109484
v -0.363231 0.006170 0.109231
v -0.363365 0.010486 0.109484
v -0.363365 0.006170 0.109484
v -0.363231 0.010486 0.109231
v -0.363134 0.006170 0.108963
v -0.363231 0.010486 0.109231
v -0.363231 0.006170 0.109231
v -0.363134 0.010486 0.108963
v -0.363075 0.006170 0.108686
v -0.363134 0.010486 0.108963
v -0.363134 0.006170 0.108963
v -0.363075 0.010486 0.108686
v -0.363056 0.006170 0.108405
v -0.363075 0.010486 0.108686
v -0.363075 0.006170 0.108686
v -0.363056 0.010486 0.108405
v -0.363056 0.006170 0.080352
v -0.363056 0.010486 0.108405
v -0.363056 0.006170 0.108405
v -0.363056 0.010486 0.080352
vn -1 0 0
vn 1 0 0
vn -0.9975498203951213 0 0.06995967288131948
vn 0.9975498203951213 0 -0.06995967288131948
vn 0 1 0
vn 0 -1 0
vn -0.9975498203951213 0 -0.06995967288131948
vn 0.9975498203951213 0 0.06995967288131948
vn -0.978091941091655 0 0.20817337671171665
vn 0.978091941091655 0 -0.20817337671171665
vn 0.9399202223712402 0 -0.3413941645336052
vn -0.9399202223712402 0 0.3413941645336052
vn 0.8844256886407418 0 -0.46668104876065997
vn -0.8844256886407418 0 0.46668104876065997
vn 0.8134773791442317 0 -0.581596555715929
vn -0.8134773791442317 0 0.581596555715929
vn 0.7292224654980453 0 -0.6842766953601096
vn -0.7292224654980453 0 0.6842766953601096
vn 0.633896510512944 0 -0.7734178779673462
vn -0.633896510512944 0 0.7734178779673462
vn 0.5296731846231816 0 -0.8482018141286526
vn -0.5296731846231816 0 0.8482018141286526
vn 0.4185678274304451 0 -0.9081855393256143
vn -0.4185678274304451 0 0.9081855393256143
vn 0.3023944249568754 0 -0.9531828847367123
vn -0.3023944249568754 0 0.9531828847367123
vn 0.18276810427547094 0 -0.983156050716035
vn -0.18276810427547094 0 0.983156050716035
vn 0.061140974302411485 0 -0.9981291405731785
vn -0.061140974302411485 0 0.9981291405731785
vn 0 0 -1
vn 0 0 1
vn -0.061140974302411485 0 -0.9981291405731785
vn 0.061140974302411485 0 0.9981291405731785
vn -0.18276810427547094 0 -0.983156050716035
vn 0.18276810427547094 0 0.983156050716035
vn -0.3023944249568754 0 -0.9531828847367123
vn 0.3023944249568754 0 0.9531828847367123
vn -0.4185678274304451 0 -0.9081855393256143
vn 0.4185678274304451 0 0.9081855393256143
vn -0.5296731846231816 0 -0.8482018141286526
vn 0.5296731846231816 0 0.8482018141286526
vn -0.633896510512944 0 -0.7734178779673462
vn 0.633896510512944 0 0.7734178779673462
vn -0.7292224654980453 0 -0.6842766953601096
vn 0.7292224654980453 0 0.6842766953601096
vn -0.8134773791442317 0 -0.581596555715929
vn 0.8134773791442317 0 0.581596555715929
vn -0.8844256886407418 0 -0.46668104876065997
vn 0.8844256886407418 0 0.46668104876065997
vn -0.9399202223712402 0 -0.3413941645336052
vn 0.9399202223712402 0 0.3413941645336052
vn -0.978091941091655 0 -0.20817337671171665
vn 0.978091941091655 0 0.20817337671171665
usemtl material_0_2
f 1//1 2//1 3//1
f 3//2 2//2 1//2
f 2//1 1//1 4//1
f 4//2 1//2 2//2
f 5//3 6//3 7//3
f 7//4 6//4 5//4
f 6//3 5//3 8//3
f 8//4 5//4 6//4
f 9//5 10//5 11//5
f 11//6 10//6 9//6
f 10//5 9//5 12//5
f 12//6 9//6 10//6
f 12//5 9//5 13//5
f 13//6 9//6 12//6
f 12//5 13//5 14//5
f 14//6 13//6 12//6
f 14//5 13//5 15//5
f 15//6 13//6 14//6
f 14//5 15//5 16//5
f 16//6 15//6 14//6
f 16//5 15//5 17//5
f 17//6 15//6 16//6
f 16//5 17//5 18//5
f 18//6 17//6 16//6
f 18//5 17//5 19//5
f 19//6 17//6 18//6
f 18//5 19//5 20//5
f 20//6 19//6 18//6
f 20//5 19//5 21//5
f 21//6 19//6 20//6
f 20//5 21//5 22//5
f 22//6 21//6 20//6
f 22//5 21//5 23//5
f 23//6 21//6 22//6
f 22//5 23//5 24//5
f 24//6 23//6 22//6
f 24//5 23//5 25//5
f 25//6 23//6 24//6
f 25//5 23//5 26//5
f 26//6 23//6 25//6
f 25//5 26//5 27//5
f 27//6 26//6 25//6
f 27//5 26//5 28//5
f 28//6 26//6 27//6
f 27//5 28//5 29//5
f 29//6 28//6 27//6
f 27//5 29//5 30//5
f 30//6 29//6 27//6
f 30//5 29//5 31//5
f 31//6 29//6 30//6
f 30//5 31//5 32//5
f 32//6 31//6 30//6
f 32//5 31//5 33//5
f 33//6 31//6 32//6
f 32//5 33//5 34//5
f 34//6 33//6 32//6
f 34//5 33//5 35//5
f 35//6 33//6 34//6
f 34//5 35//5 36//5
f 36//6 35//6 34//6
f 36//5 35//5 37//5
f 37//6 35//6 36//6
f 36//5 37//5 38//5
f 38//6 37//6 36//6
f 38//5 37//5 39//5
f 39//6 37//6 38//6
f 38//5 39//5 40//5
f 40//6 39//6 38//6
f 40//5 39//5 41//5
f 41//6 39//6 40//6
f 40//5 41//5 42//5
f 42//6 41//6 40//6
f 42//5 41//5 43//5
f 43//6 41//6 42//6
f 42//5 43//5 44//5
f 44//6 43//6 42//6
f 44//5 43//5 45//5
f 45//6 43//6 44//6
f 45//5 43//5 46//5
f 46//6 43//6 45//6
f 45//5 46//5 47//5
f 47//6 46//6 45//6
f 47//5 46//5 48//5
f 48//6 46//6 47//6
f 47//5 48//5 49//5
f 49//6 48//6 47//6
f 47//5 49//5 50//5
f 50//6 49//6 47//6
f 50//5 49//5 51//5
f 51//6 49//6 50//6
f 50//5 51//5 52//5
f 52//6 51//6 50//6
f 52//5 51//5 53//5
f 53//6 51//6 52//6
f 52//5 53//5 54//5
f 54//6 53//6 52//6
f 54//5 53//5 55//5
f 55//6 53//6 54//6
f 54//5 55//5 56//5
f 56//6 55//6 54//6
f 56//5 55//5 57//5
f 57//6 55//6 56//6
f 56//5 57//5 58//5
f 58//6 57//6 56//6
f 58//5 57//5 59//5
f 59//6 57//6 58//6
f 58//5 59//5 60//5
f 60//6 59//6 58//6
f 61//7 62//7 63//7
f 63//8 62//8 61//8
f 62//7 61//7 64//7
f 64//8 61//8 62//8
f 65//9 66//9 67//9
f 67//10 66//10 65//10
f 66//9 65//9 68//9
f 68//10 65//10 66//10
f 69//4 70//4 71//4
f 71//3 70//3 69//3
f 70//4 69//4 72//4
f 72//3 69//3 70//3
f 73//10 74//10 75//10
f 75//9 74//9 73//9
f 74//10 73//10 76//10
f 76//9 73//9 74//9
f 77//11 78//11 79//11
f 79//12 78//12 77//12
f 78//11 77//11 80//11
f 80//12 77//12 78//12
f 81//13 82//13 83//13
f 83//14 82//14 81//14
f 82//13 81//13 84//13
f 84//14 81//14 82//14
f 85//15 86//15 87//15
f 87//16 86//16 85//16
f 86//15 85//15 88//15
f 88//16 85//16 86//16
f 89//17 90//17 91//17
f 91//18 90//18 89//18
f 90//17 89//17 92//17
f 92//18 89//18 90//18
f 93//19 94//19 95//19
f 95//20 94//20 93//20
f 94//19 93//19 96//19
f 96//20 93//20 94//20
f 97//21 98//21 99//21
f 99//22 98//22 97//22
f 98//21 97//21 100//21
f 100//22 97//22 98//22
f 101//23 102//23 103//23
f 103//24 102//24 101//24
f 102//23 101//23 104//23
f 104//24 101//24 102//24
f 105//25 106//25 107//25
f 107//26 106//26 105//26
f 106//25 105//25 108//25
f 108//26 105//26 106//26
f 109//27 110//27 111//27
f 111//28 110//28 109//28
f 110//27 109//27 112//27
f 112//28 109//28 110//28
f 113//29 114//29 115//29
f 115//30 114//30 113//30
f 114//29 113//29 116//29
f 116//30 113//30 114//30
f 117//31 118//31 119//31
f 119//32 118//32 117//32
f 118//31 117//31 120//31
f 120//32 117//32 118//32
f 121//33 122//33 123//33
f 123//34 122//34 121//34
f 122//33 121//33 124//33
f 124//34 121//34 122//34
f 125//35 126//35 127//35
f 127//36 126//36 125//36
f 126//35 125//35 128//35
f 128//36 125//36 126//36
f 129//37 130//37 131//37
f 131//38 130//38 129//38
f 130//37 129//37 132//37
f 132//38 129//38 130//38
f 133//39 134//39 135//39
f 135//40 134//40 133//40
f 134//39 133//39 136//39
f 136//40 133//40 134//40
f 137//41 138//41 139//41
f 139//42 138//42 137//42
f 138//41 137//41 140//41
f 140//42 137//42 138//42
f 141//43 142//43 143//43
f 143//44 142//44 141//44
f 142//43 141//43 144//43
f 144//44 141//44 142//44
f 145//45 146//45 147//45
f 147//46 146//46 145//46
f 146//45 145//45 148//45
f 148//46 145//46 146//46
f 149//47 150//47 151//47
f 151//48 150//48 149//48
f 150//47 149//47 152//47
f 152//48 149//48 150//48
f 153//49 154//49 155//49
f 155//50 154//50 153//50
f 154//49 153//49 156//49
f 156//50 153//50 154//50
f 157//51 158//51 159//51
f 159//52 158//52 157//52
f 158//51 157//51 160//51
f 160//52 157//52 158//52
f 161//53 162//53 163//53
f 163//54 162//54 161//54
f 162//53 161//53 164//53
f 164//54 161//54 162//54
f 165//12 166//12 167//12
f 167//11 166//11 165//11
f 166//12 165//12 168//12
f 168//11 165//11 166//11
f 169//14 170//14 171//14
f 171//13 170//13 169//13
f 170//14 169//14 172//14
f 172//13 169//13 170//13
f 173//16 174//16 175//16
f 175//15 174//15 173//15
f 174//16 173//16 176//16
f 176//15 173//15 174//15
f 177//18 178//18 179//18
f 179//17 178//17 177//17
f 178//18 177//18 180//18
f 180//17 177//17 178//17
f 181//20 182//20 183//20
f 183//19 182//19 181//19
f 182//20 181//20 184//20
f 184//19 181//19 182//19
f 185//22 186//22 187//22
f 187//21 186//21 185//21
f 186//22 185//22 188//22
f 188//21 185//21 186//21
f 188//22 185//22 189//22
f 189//21 185//21 188//21
f 190//24 191//24 192//24
f 192//23 191//23 190//23
f 191//24 190//24 193//24
f 193//23 190//23 191//23
f 194//26 195//26 196//26
f 196//25 195//25 194//25
f 195//26 194//26 197//26
f 197//25 194//25 195//25
f 198//28 199//28 200//28
f 200//27 199//27 198//27
f 199//28 198//28 201//28
f 201//27 198//27 199//27
f 202//30 203//30 204//30
f 204//29 203//29 202//29
f 203//30 202//30 205//30
f 205//29 202//29 203//29
f 206//32 207//32 208//32
f 208//31 207//31 206//31
f 207//32 206//32 209//32
f 209//31 206//31 207//31
f 210//34 211//34 212//34
f 212//33 211//33 210//33
f 211//34 210//34 213//34
f 213//33 210//33 211//33
f 214//36 215//36 216//36
f 216//35 215//35 214//35
f 215//36 214//36 217//36
f 217//35 214//35 215//35
f 218//38 219//38 220//38
f 220//37 219//37 218//37
f 219//38 218//38 221//38
f 221//37 218//37 219//37
f 222//40 223//40 224//40
f 224//39 223//39 222//39
f 223//40 222//40 225//40
f 225//39 222//39 223//39
f 226//42 227//42 228//42
f 228//41 227//41 226//41
f 227//42 226//42 229//42
f 229//41 226//41 227//41
f 230//44 231//44 232//44
f 232//43 231//43 230//43
f 231//44 230//44 233//44
f 233//43 230//43 231//43
f 234//46 235//46 236//46
f 236//45 235//45 234//45
f 235//46 234//46 237//46
f 237//45 234//45 235//45
f 238//48 239//48 240//48
f 240//47 239//47 238//47
f 239//48 238//48 241//48
f 241//47 238//47 239//47
f 242//50 243//50 244//50
f 244//49 243//49 242//49
f 243//50 242//50 245//50
f 245//49 242//49 243//49
f 246//52 247//52 248//52
f 248//51 247//51 246//51
f 247//52 246//52 249//52
f 249//51 246//51 247//51
f 250//54 251//54 252//54
f 252//53 251//53 250//53
f 251//54 250//54 253//54
f 253//53 250//53 251//53
f 254//8 255//8 256//8
f 256//7 255//7 254//7
f 255//8 254//8 257//8
f 257//7 254//7 255//7
f 258//2 259//2 260//2
f 260//1 259//1 258//1
f 259//2 258//2 261//2
f 261//1 258//1 259//1
