# SSTK version 0.8.0
# 379
mtllib original-379.mtl
o #ID1197
v 0.011127 0.010523 -0.030030
v 0.011970 0.010523 -0.029430
v 0.011033 0.010523 -0.029541
v 0.011284 0.010523 -0.030458
v 0.011504 0.010523 -0.030825
v 0.011785 0.010523 -0.031132
v 0.012123 0.010523 -0.031373
v 0.012159 0.010523 -0.030102
v 0.012511 0.010523 -0.031546
v 0.012303 0.010523 -0.030361
v 0.012482 0.010523 -0.030569
v 0.012920 0.010523 -0.030843
v 0.012950 0.010523 -0.031649
v 0.013454 0.010523 -0.030934
v 0.013439 0.010523 -0.031684
v 0.013956 0.010523 -0.031647
v 0.014010 0.010523 -0.030833
v 0.014418 0.010523 -0.031536
v 0.014472 0.010523 -0.030531
v 0.014825 0.010523 -0.031350
v 0.014784 0.010523 -0.030096
v 0.014888 0.010523 -0.029597
v 0.015176 0.010523 -0.031091
v 0.013001 0.010523 -0.026733
v 0.012968 0.010523 -0.025960
v 0.012963 0.010523 -0.026233
v 0.013844 0.010523 -0.025960
v 0.013115 0.010523 -0.027160
v 0.013260 0.010523 -0.027455
v 0.013474 0.010523 -0.027753
v 0.013920 0.010523 -0.026750
v 0.014130 0.010523 -0.028389
v 0.014123 0.010523 -0.027181
v 0.014705 0.010523 -0.027763
v 0.014521 0.010523 -0.028764
v 0.014746 0.010523 -0.029055
v 0.015260 0.010523 -0.028306
v 0.014852 0.010523 -0.029314
v 0.015460 0.010523 -0.030779
v 0.015597 0.010523 -0.028761
v 0.015663 0.010523 -0.030436
v 0.015768 0.010523 -0.029190
v 0.015784 0.010523 -0.030063
v 0.015825 0.010523 -0.029658
v 0.015825 0.010523 -0.029658
v 0.015784 0.010523 -0.030063
v 0.015768 0.010523 -0.029190
v 0.015663 0.010523 -0.030436
v 0.015597 0.010523 -0.028761
v 0.015460 0.010523 -0.030779
v 0.015260 0.010523 -0.028306
v 0.015176 0.010523 -0.031091
v 0.014888 0.010523 -0.029597
v 0.014852 0.010523 -0.029314
v 0.014746 0.010523 -0.029055
v 0.014705 0.010523 -0.027763
v 0.014521 0.010523 -0.028764
v 0.014130 0.010523 -0.028389
v 0.014123 0.010523 -0.027181
v 0.013920 0.010523 -0.026750
v 0.013474 0.010523 -0.027753
v 0.013844 0.010523 -0.025960
v 0.013260 0.010523 -0.027455
v 0.013115 0.010523 -0.027160
v 0.013001 0.010523 -0.026733
v 0.012968 0.010523 -0.025960
v 0.012963 0.010523 -0.026233
v 0.014825 0.010523 -0.031350
v 0.014784 0.010523 -0.030096
v 0.014472 0.010523 -0.030531
v 0.014418 0.010523 -0.031536
v 0.014010 0.010523 -0.030833
v 0.013956 0.010523 -0.031647
v 0.013454 0.010523 -0.030934
v 0.013439 0.010523 -0.031684
v 0.012950 0.010523 -0.031649
v 0.012920 0.010523 -0.030843
v 0.012511 0.010523 -0.031546
v 0.012482 0.010523 -0.030569
v 0.012303 0.010523 -0.030361
v 0.012159 0.010523 -0.030102
v 0.012123 0.010523 -0.031373
v 0.011970 0.010523 -0.029430
v 0.011785 0.010523 -0.031132
v 0.011504 0.010523 -0.030825
v 0.011284 0.010523 -0.030458
v 0.011127 0.010523 -0.030030
v 0.011033 0.010523 -0.029541
vn 0 -1 0
vn 0 1 0
usemtl material_0_0
f 1//1 2//1 3//1
f 2//1 1//1 4//1
f 2//1 4//1 5//1
f 2//1 5//1 6//1
f 2//1 6//1 7//1
f 2//1 7//1 8//1
f 8//1 7//1 9//1
f 8//1 9//1 10//1
f 10//1 9//1 11//1
f 11//1 9//1 12//1
f 12//1 9//1 13//1
f 12//1 13//1 14//1
f 14//1 13//1 15//1
f 14//1 15//1 16//1
f 14//1 16//1 17//1
f 17//1 16//1 18//1
f 17//1 18//1 19//1
f 19//1 18//1 20//1
f 19//1 20//1 21//1
f 21//1 20//1 22//1
f 22//1 20//1 23//1
f 24//1 25//1 26//1
f 25//1 24//1 27//1
f 27//1 24//1 28//1
f 27//1 28//1 29//1
f 27//1 29//1 30//1
f 27//1 30//1 31//1
f 31//1 30//1 32//1
f 31//1 32//1 33//1
f 33//1 32//1 34//1
f 34//1 32//1 35//1
f 34//1 35//1 36//1
f 34//1 36//1 37//1
f 37//1 36//1 38//1
f 37//1 38//1 22//1
f 37//1 22//1 23//1
f 37//1 23//1 39//1
f 37//1 39//1 40//1
f 40//1 39//1 41//1
f 40//1 41//1 42//1
f 42//1 41//1 43//1
f 42//1 43//1 44//1
usemtl material_1_0
f 45//2 46//2 47//2
f 46//2 48//2 47//2
f 47//2 48//2 49//2
f 48//2 50//2 49//2
f 49//2 50//2 51//2
f 50//2 52//2 51//2
f 52//2 53//2 51//2
f 53//2 54//2 51//2
f 54//2 55//2 51//2
f 51//2 55//2 56//2
f 55//2 57//2 56//2
f 57//2 58//2 56//2
f 56//2 58//2 59//2
f 59//2 58//2 60//2
f 58//2 61//2 60//2
f 60//2 61//2 62//2
f 61//2 63//2 62//2
f 63//2 64//2 62//2
f 64//2 65//2 62//2
f 62//2 65//2 66//2
f 67//2 66//2 65//2
f 52//2 68//2 53//2
f 53//2 68//2 69//2
f 69//2 68//2 70//2
f 68//2 71//2 70//2
f 70//2 71//2 72//2
f 71//2 73//2 72//2
f 72//2 73//2 74//2
f 73//2 75//2 74//2
f 75//2 76//2 74//2
f 74//2 76//2 77//2
f 76//2 78//2 77//2
f 77//2 78//2 79//2
f 79//2 78//2 80//2
f 80//2 78//2 81//2
f 78//2 82//2 81//2
f 81//2 82//2 83//2
f 82//2 84//2 83//2
f 84//2 85//2 83//2
f 85//2 86//2 83//2
f 86//2 87//2 83//2
f 88//2 83//2 87//2
