# SSTK version 0.8.0
# 178
mtllib original-178.mtl
o #ID110
v -0.287993 0.006170 -0.040656
v -0.288275 0.010486 -0.040565
v -0.288275 0.006170 -0.040565
v -0.287993 0.010486 -0.040656
v -0.287725 0.006170 -0.040781
v -0.287993 0.010486 -0.040656
v -0.287993 0.006170 -0.040656
v -0.287725 0.010486 -0.040781
v -0.320620 0.010486 -0.059679
v -0.288865 0.010486 -0.059697
v -0.320323 0.010486 -0.059697
v -0.288568 0.010486 -0.059679
v -0.320913 0.010486 -0.059624
v -0.288275 0.010486 -0.059624
v -0.321195 0.010486 -0.059533
v -0.287993 0.010486 -0.059533
v -0.321462 0.010486 -0.059408
v -0.287725 0.010486 -0.059408
v -0.321710 0.010486 -0.059251
v -0.287477 0.010486 -0.059251
v -0.321934 0.010486 -0.059065
v -0.287253 0.010486 -0.059065
v -0.322131 0.010486 -0.058853
v -0.287057 0.010486 -0.058853
v -0.322297 0.010486 -0.058618
v -0.286891 0.010486 -0.058618
v -0.322429 0.010486 -0.058365
v -0.286759 0.010486 -0.058365
v -0.322524 0.010486 -0.058098
v -0.286663 0.010486 -0.058098
v -0.322583 0.010486 -0.057821
v -0.286605 0.010486 -0.057821
v -0.322602 0.010486 -0.057539
v -0.286586 0.010486 -0.057539
v -0.322602 0.010486 -0.042650
v -0.286586 0.010486 -0.042650
v -0.322583 0.010486 -0.042368
v -0.286605 0.010486 -0.042368
v -0.322524 0.010486 -0.042091
v -0.286663 0.010486 -0.042091
v -0.322429 0.010486 -0.041824
v -0.286759 0.010486 -0.041824
v -0.322297 0.010486 -0.041571
v -0.286891 0.010486 -0.041571
v -0.322131 0.010486 -0.041336
v -0.287057 0.010486 -0.041336
v -0.321934 0.010486 -0.041124
v -0.287253 0.010486 -0.041124
v -0.321710 0.010486 -0.040938
v -0.287477 0.010486 -0.040938
v -0.321462 0.010486 -0.040781
v -0.287725 0.010486 -0.040781
v -0.321195 0.010486 -0.040656
v -0.287993 0.010486 -0.040656
v -0.320913 0.010486 -0.040565
v -0.288275 0.010486 -0.040565
v -0.320620 0.010486 -0.040510
v -0.288568 0.010486 -0.040510
v -0.320323 0.010486 -0.040492
v -0.288865 0.010486 -0.040492
v -0.288275 0.006170 -0.040565
v -0.288568 0.010486 -0.040510
v -0.288568 0.006170 -0.040510
v -0.288275 0.010486 -0.040565
v -0.287477 0.006170 -0.040938
v -0.287725 0.010486 -0.040781
v -0.287725 0.006170 -0.040781
v -0.287477 0.010486 -0.040938
v -0.288568 0.010486 -0.059679
v -0.288865 0.006170 -0.059697
v -0.288865 0.010486 -0.059697
v -0.288568 0.006170 -0.059679
v -0.288865 0.010486 -0.059697
v -0.320323 0.006170 -0.059697
v -0.320323 0.010486 -0.059697
v -0.288865 0.006170 -0.059697
v -0.320323 0.010486 -0.059697
v -0.320620 0.006170 -0.059679
v -0.320620 0.010486 -0.059679
v -0.320323 0.006170 -0.059697
v -0.320620 0.010486 -0.059679
v -0.320913 0.006170 -0.059624
v -0.320913 0.010486 -0.059624
v -0.320620 0.006170 -0.059679
v -0.320913 0.010486 -0.059624
v -0.321195 0.006170 -0.059533
v -0.321195 0.010486 -0.059533
v -0.320913 0.006170 -0.059624
v -0.321195 0.010486 -0.059533
v -0.321462 0.006170 -0.059408
v -0.321462 0.010486 -0.059408
v -0.321195 0.006170 -0.059533
v -0.321462 0.010486 -0.059408
v -0.321710 0.006170 -0.059251
v -0.321710 0.010486 -0.059251
v -0.321462 0.006170 -0.059408
v -0.321710 0.010486 -0.059251
v -0.321934 0.006170 -0.059065
v -0.321934 0.010486 -0.059065
v -0.321710 0.006170 -0.059251
v -0.322131 0.010486 -0.058853
v -0.321934 0.006170 -0.059065
v -0.322131 0.006170 -0.058853
v -0.321934 0.010486 -0.059065
v -0.322297 0.010486 -0.058618
v -0.322131 0.006170 -0.058853
v -0.322297 0.006170 -0.058618
v -0.322131 0.010486 -0.058853
v -0.322429 0.010486 -0.058365
v -0.322297 0.006170 -0.058618
v -0.322429 0.006170 -0.058365
v -0.322297 0.010486 -0.058618
v -0.322524 0.010486 -0.058098
v -0.322429 0.006170 -0.058365
v -0.322524 0.006170 -0.058098
v -0.322429 0.010486 -0.058365
v -0.322583 0.010486 -0.057821
v -0.322524 0.006170 -0.058098
v -0.322583 0.006170 -0.057821
v -0.322524 0.010486 -0.058098
v -0.322602 0.010486 -0.057539
v -0.322583 0.006170 -0.057821
v -0.322602 0.006170 -0.057539
v -0.322583 0.010486 -0.057821
v -0.322602 0.010486 -0.042650
v -0.322602 0.006170 -0.057539
v -0.322602 0.006170 -0.042650
v -0.322602 0.010486 -0.057539
v -0.322583 0.010486 -0.042368
v -0.322602 0.006170 -0.042650
v -0.322583 0.006170 -0.042368
v -0.322602 0.010486 -0.042650
v -0.322524 0.010486 -0.042091
v -0.322583 0.006170 -0.042368
v -0.322524 0.006170 -0.042091
v -0.322583 0.010486 -0.042368
v -0.322429 0.010486 -0.041824
v -0.322524 0.006170 -0.042091
v -0.322429 0.006170 -0.041824
v -0.322524 0.010486 -0.042091
v -0.322297 0.010486 -0.041571
v -0.322429 0.006170 -0.041824
v -0.322297 0.006170 -0.041571
v -0.322429 0.010486 -0.041824
v -0.322131 0.010486 -0.041336
v -0.322297 0.006170 -0.041571
v -0.322131 0.006170 -0.041336
v -0.322297 0.010486 -0.041571
v -0.321934 0.010486 -0.041124
v -0.322131 0.006170 -0.041336
v -0.321934 0.006170 -0.041124
v -0.322131 0.010486 -0.041336
v -0.321710 0.006170 -0.040938
v -0.321934 0.010486 -0.041124
v -0.321934 0.006170 -0.041124
v -0.321710 0.010486 -0.040938
v -0.321552 0.006170 -0.040838
v -0.321710 0.010486 -0.040938
v -0.321710 0.006170 -0.040938
v -0.321462 0.010486 -0.040781
v -0.321462 0.006170 -0.040781
v -0.321195 0.006170 -0.040656
v -0.321462 0.010486 -0.040781
v -0.321462 0.006170 -0.040781
v -0.321195 0.010486 -0.040656
v -0.320913 0.006170 -0.040565
v -0.321195 0.010486 -0.040656
v -0.321195 0.006170 -0.040656
v -0.320913 0.010486 -0.040565
v -0.320620 0.006170 -0.040510
v -0.320913 0.010486 -0.040565
v -0.320913 0.006170 -0.040565
v -0.320620 0.010486 -0.040510
v -0.320323 0.006170 -0.040492
v -0.320620 0.010486 -0.040510
v -0.320620 0.006170 -0.040510
v -0.320323 0.010486 -0.040492
v -0.314402 0.006170 -0.040492
v -0.320323 0.010486 -0.040492
v -0.320323 0.006170 -0.040492
v -0.288865 0.010486 -0.040492
v -0.305510 0.006170 -0.040492
v -0.288865 0.006170 -0.040492
v -0.288568 0.006170 -0.040510
v -0.288865 0.010486 -0.040492
v -0.288865 0.006170 -0.040492
v -0.288568 0.010486 -0.040510
v -0.287253 0.006170 -0.041124
v -0.287477 0.010486 -0.040938
v -0.287477 0.006170 -0.040938
v -0.287253 0.010486 -0.041124
v -0.287057 0.010486 -0.041336
v -0.287253 0.006170 -0.041124
v -0.287057 0.006170 -0.041336
v -0.287253 0.010486 -0.041124
v -0.286891 0.010486 -0.041571
v -0.287057 0.006170 -0.041336
v -0.286891 0.006170 -0.041571
v -0.287057 0.010486 -0.041336
v -0.286759 0.010486 -0.041824
v -0.286891 0.006170 -0.041571
v -0.286759 0.006170 -0.041824
v -0.286891 0.010486 -0.041571
v -0.286663 0.010486 -0.042091
v -0.286759 0.006170 -0.041824
v -0.286663 0.006170 -0.042091
v -0.286759 0.010486 -0.041824
v -0.286605 0.010486 -0.042368
v -0.286663 0.006170 -0.042091
v -0.286605 0.006170 -0.042368
v -0.286663 0.010486 -0.042091
v -0.286586 0.010486 -0.042650
v -0.286605 0.006170 -0.042368
v -0.286586 0.006170 -0.042650
v -0.286605 0.010486 -0.042368
v -0.286586 0.010486 -0.057539
v -0.286586 0.006170 -0.042650
v -0.286586 0.006170 -0.057539
v -0.286586 0.010486 -0.042650
v -0.286605 0.010486 -0.057821
v -0.286586 0.006170 -0.057539
v -0.286605 0.006170 -0.057821
v -0.286586 0.010486 -0.057539
v -0.286663 0.010486 -0.058098
v -0.286605 0.006170 -0.057821
v -0.286663 0.006170 -0.058098
v -0.286605 0.010486 -0.057821
v -0.286759 0.010486 -0.058365
v -0.286663 0.006170 -0.058098
v -0.286759 0.006170 -0.058365
v -0.286663 0.010486 -0.058098
v -0.286891 0.010486 -0.058618
v -0.286759 0.006170 -0.058365
v -0.286891 0.006170 -0.058618
v -0.286759 0.010486 -0.058365
v -0.287057 0.010486 -0.058853
v -0.286891 0.006170 -0.058618
v -0.287057 0.006170 -0.058853
v -0.286891 0.010486 -0.058618
v -0.287253 0.010486 -0.059065
v -0.287057 0.006170 -0.058853
v -0.287253 0.006170 -0.059065
v -0.287057 0.010486 -0.058853
v -0.287253 0.010486 -0.059065
v -0.287477 0.006170 -0.059251
v -0.287477 0.010486 -0.059251
v -0.287253 0.006170 -0.059065
v -0.287477 0.010486 -0.059251
v -0.287725 0.006170 -0.059408
v -0.287725 0.010486 -0.059408
v -0.287477 0.006170 -0.059251
v -0.287725 0.010486 -0.059408
v -0.287993 0.006170 -0.059533
v -0.287993 0.010486 -0.059533
v -0.287725 0.006170 -0.059408
v -0.287993 0.010486 -0.059533
v -0.288275 0.006170 -0.059624
v -0.288275 0.010486 -0.059624
v -0.287993 0.006170 -0.059533
v -0.288275 0.010486 -0.059624
v -0.288568 0.006170 -0.059679
v -0.288568 0.010486 -0.059679
v -0.288275 0.006170 -0.059624
vn 0.30593699108087513 0 0.9520517619795579
vn -0.30593699108087513 0 -0.9520517619795579
vn 0.42301210465599515 0 0.9061240308669145
vn -0.42301210465599515 0 -0.9061240308669145
vn 0 1 0
vn 0 -1 0
vn 0.18504858698184465 0 0.9827293729486376
vn -0.18504858698184465 0 -0.9827293729486376
vn 0.534568796439618 0 0.8451249622825598
vn -0.534568796439618 0 -0.8451249622825598
vn 0.06192772635187028 0 -0.9980806363760836
vn -0.06192772635187028 0 0.9980806363760836
vn 0 0 -1
vn 0 0 1
vn -0.06192772635187072 0 -0.9980806363760836
vn 0.06192772635187072 0 0.9980806363760836
vn -0.6387564490292467 0 -0.7694089932042301
vn 0.6387564490292467 0 0.7694089932042301
vn -0.7335878398478827 0 -0.6795946447900525
vn 0.7335878398478827 0 0.6795946447900525
vn -0.8169865460452616 0 -0.5766567294162395
vn 0.8169865460452616 0 0.5766567294162395
vn -0.8868765330855203 0 -0.46200650976172203
vn 0.8868765330855203 0 0.46200650976172203
vn -0.941311386276551 0 -0.3375394407563624
vn 0.941311386276551 0 0.3375394407563624
vn -0.9786294673834396 0 -0.20563162589642014
vn 0.9786294673834396 0 0.20563162589642014
vn -0.9976116907061352 0 -0.06907180731996436
vn 0.9976116907061352 0 0.06907180731996436
vn -1 0 0
vn 1 0 0
vn -0.9976116907061352 0 0.0690718073199648
vn 0.9976116907061352 0 -0.0690718073199648
vn -0.9786294673834396 0 0.20563162589642056
vn 0.9786294673834396 0 -0.20563162589642056
vn -0.9413113862765508 0 0.33753944075636283
vn 0.9413113862765508 0 -0.33753944075636283
vn -0.8868765330855201 0 0.4620065097617224
vn 0.8868765330855201 0 -0.4620065097617224
vn -0.8169865460452611 0 0.5766567294162398
vn 0.8169865460452611 0 -0.5766567294162398
vn -0.7335878398478825 0 0.6795946447900527
vn 0.7335878398478825 0 -0.6795946447900527
vn -0.6387564490292464 0 0.7694089932042306
vn 0.6387564490292464 0 -0.7694089932042306
vn -0.5345687964396175 0 0.8451249622825601
vn 0.5345687964396175 0 -0.8451249622825601
vn -0.4230121046559947 0 0.9061240308669147
vn 0.4230121046559947 0 -0.9061240308669147
vn -0.30593699108087463 0 0.9520517619795579
vn 0.30593699108087463 0 -0.9520517619795579
vn -0.18504858698184423 0 0.9827293729486378
vn 0.18504858698184423 0 -0.9827293729486378
usemtl material_0_2
f 1//1 2//1 3//1
f 3//2 2//2 1//2
f 2//1 1//1 4//1
f 4//2 1//2 2//2
f 5//3 6//3 7//3
f 7//4 6//4 5//4
f 6//3 5//3 8//3
f 8//4 5//4 6//4
f 9//5 10//5 11//5
f 11//6 10//6 9//6
f 10//5 9//5 12//5
f 12//6 9//6 10//6
f 12//5 9//5 13//5
f 13//6 9//6 12//6
f 12//5 13//5 14//5
f 14//6 13//6 12//6
f 14//5 13//5 15//5
f 15//6 13//6 14//6
f 14//5 15//5 16//5
f 16//6 15//6 14//6
f 16//5 15//5 17//5
f 17//6 15//6 16//6
f 16//5 17//5 18//5
f 18//6 17//6 16//6
f 18//5 17//5 19//5
f 19//6 17//6 18//6
f 18//5 19//5 20//5
f 20//6 19//6 18//6
f 20//5 19//5 21//5
f 21//6 19//6 20//6
f 20//5 21//5 22//5
f 22//6 21//6 20//6
f 22//5 21//5 23//5
f 23//6 21//6 22//6
f 22//5 23//5 24//5
f 24//6 23//6 22//6
f 24//5 23//5 25//5
f 25//6 23//6 24//6
f 24//5 25//5 26//5
f 26//6 25//6 24//6
f 26//5 25//5 27//5
f 27//6 25//6 26//6
f 26//5 27//5 28//5
f 28//6 27//6 26//6
f 28//5 27//5 29//5
f 29//6 27//6 28//6
f 28//5 29//5 30//5
f 30//6 29//6 28//6
f 30//5 29//5 31//5
f 31//6 29//6 30//6
f 30//5 31//5 32//5
f 32//6 31//6 30//6
f 32//5 31//5 33//5
f 33//6 31//6 32//6
f 32//5 33//5 34//5
f 34//6 33//6 32//6
f 34//5 33//5 35//5
f 35//6 33//6 34//6
f 34//5 35//5 36//5
f 36//6 35//6 34//6
f 36//5 35//5 37//5
f 37//6 35//6 36//6
f 36//5 37//5 38//5
f 38//6 37//6 36//6
f 38//5 37//5 39//5
f 39//6 37//6 38//6
f 38//5 39//5 40//5
f 40//6 39//6 38//6
f 40//5 39//5 41//5
f 41//6 39//6 40//6
f 40//5 41//5 42//5
f 42//6 41//6 40//6
f 42//5 41//5 43//5
f 43//6 41//6 42//6
f 42//5 43//5 44//5
f 44//6 43//6 42//6
f 44//5 43//5 45//5
f 45//6 43//6 44//6
f 44//5 45//5 46//5
f 46//6 45//6 44//6
f 46//5 45//5 47//5
f 47//6 45//6 46//6
f 46//5 47//5 48//5
f 48//6 47//6 46//6
f 48//5 47//5 49//5
f 49//6 47//6 48//6
f 48//5 49//5 50//5
f 50//6 49//6 48//6
f 50//5 49//5 51//5
f 51//6 49//6 50//6
f 50//5 51//5 52//5
f 52//6 51//6 50//6
f 52//5 51//5 53//5
f 53//6 51//6 52//6
f 52//5 53//5 54//5
f 54//6 53//6 52//6
f 54//5 53//5 55//5
f 55//6 53//6 54//6
f 54//5 55//5 56//5
f 56//6 55//6 54//6
f 56//5 55//5 57//5
f 57//6 55//6 56//6
f 56//5 57//5 58//5
f 58//6 57//6 56//6
f 58//5 57//5 59//5
f 59//6 57//6 58//6
f 58//5 59//5 60//5
f 60//6 59//6 58//6
f 61//7 62//7 63//7
f 63//8 62//8 61//8
f 62//7 61//7 64//7
f 64//8 61//8 62//8
f 65//9 66//9 67//9
f 67//10 66//10 65//10
f 66//9 65//9 68//9
f 68//10 65//10 66//10
f 69//11 70//11 71//11
f 71//12 70//12 69//12
f 70//11 69//11 72//11
f 72//12 69//12 70//12
f 73//13 74//13 75//13
f 75//14 74//14 73//14
f 74//13 73//13 76//13
f 76//14 73//14 74//14
f 77//15 78//15 79//15
f 79//16 78//16 77//16
f 78//15 77//15 80//15
f 80//16 77//16 78//16
f 81//8 82//8 83//8
f 83//7 82//7 81//7
f 82//8 81//8 84//8
f 84//7 81//7 82//7
f 85//2 86//2 87//2
f 87//1 86//1 85//1
f 86//2 85//2 88//2
f 88//1 85//1 86//1
f 89//4 90//4 91//4
f 91//3 90//3 89//3
f 90//4 89//4 92//4
f 92//3 89//3 90//3
f 93//10 94//10 95//10
f 95//9 94//9 93//9
f 94//10 93//10 96//10
f 96//9 93//9 94//9
f 97//17 98//17 99//17
f 99//18 98//18 97//18
f 98//17 97//17 100//17
f 100//18 97//18 98//18
f 101//19 102//19 103//19
f 103//20 102//20 101//20
f 102//19 101//19 104//19
f 104//20 101//20 102//20
f 105//21 106//21 107//21
f 107//22 106//22 105//22
f 106//21 105//21 108//21
f 108//22 105//22 106//22
f 109//23 110//23 111//23
f 111//24 110//24 109//24
f 110//23 109//23 112//23
f 112//24 109//24 110//24
f 113//25 114//25 115//25
f 115//26 114//26 113//26
f 114//25 113//25 116//25
f 116//26 113//26 114//26
f 117//27 118//27 119//27
f 119//28 118//28 117//28
f 118//27 117//27 120//27
f 120//28 117//28 118//28
f 121//29 122//29 123//29
f 123//30 122//30 121//30
f 122//29 121//29 124//29
f 124//30 121//30 122//30
f 125//31 126//31 127//31
f 127//32 126//32 125//32
f 126//31 125//31 128//31
f 128//32 125//32 126//32
f 129//33 130//33 131//33
f 131//34 130//34 129//34
f 130//33 129//33 132//33
f 132//34 129//34 130//34
f 133//35 134//35 135//35
f 135//36 134//36 133//36
f 134//35 133//35 136//35
f 136//36 133//36 134//36
f 137//37 138//37 139//37
f 139//38 138//38 137//38
f 138//37 137//37 140//37
f 140//38 137//38 138//38
f 141//39 142//39 143//39
f 143//40 142//40 141//40
f 142//39 141//39 144//39
f 144//40 141//40 142//40
f 145//41 146//41 147//41
f 147//42 146//42 145//42
f 146//41 145//41 148//41
f 148//42 145//42 146//42
f 149//43 150//43 151//43
f 151//44 150//44 149//44
f 150//43 149//43 152//43
f 152//44 149//44 150//44
f 153//45 154//45 155//45
f 155//46 154//46 153//46
f 154//45 153//45 156//45
f 156//46 153//46 154//46
f 157//47 158//47 159//47
f 159//48 158//48 157//48
f 158//47 157//47 160//47
f 160//48 157//48 158//48
f 160//47 157//47 161//47
f 161//48 157//48 160//48
f 162//49 163//49 164//49
f 164//50 163//50 162//50
f 163//49 162//49 165//49
f 165//50 162//50 163//50
f 166//51 167//51 168//51
f 168//52 167//52 166//52
f 167//51 166//51 169//51
f 169//52 166//52 167//52
f 170//53 171//53 172//53
f 172//54 171//54 170//54
f 171//53 170//53 173//53
f 173//54 170//54 171//54
f 174//12 175//12 176//12
f 176//11 175//11 174//11
f 175//12 174//12 177//12
f 177//11 174//11 175//11
f 178//14 179//14 180//14
f 180//13 179//13 178//13
f 179//14 178//14 181//14
f 181//13 178//13 179//13
f 181//14 178//14 182//14
f 182//13 178//13 181//13
f 181//14 182//14 183//14
f 183//13 182//13 181//13
f 184//16 185//16 186//16
f 186//15 185//15 184//15
f 185//16 184//16 187//16
f 187//15 184//15 185//15
f 188//18 189//18 190//18
f 190//17 189//17 188//17
f 189//18 188//18 191//18
f 191//17 188//17 189//17
f 192//20 193//20 194//20
f 194//19 193//19 192//19
f 193//20 192//20 195//20
f 195//19 192//19 193//19
f 196//22 197//22 198//22
f 198//21 197//21 196//21
f 197//22 196//22 199//22
f 199//21 196//21 197//21
f 200//24 201//24 202//24
f 202//23 201//23 200//23
f 201//24 200//24 203//24
f 203//23 200//23 201//23
f 204//26 205//26 206//26
f 206//25 205//25 204//25
f 205//26 204//26 207//26
f 207//25 204//25 205//25
f 208//28 209//28 210//28
f 210//27 209//27 208//27
f 209//28 208//28 211//28
f 211//27 208//27 209//27
f 212//30 213//30 214//30
f 214//29 213//29 212//29
f 213//30 212//30 215//30
f 215//29 212//29 213//29
f 216//32 217//32 218//32
f 218//31 217//31 216//31
f 217//32 216//32 219//32
f 219//31 216//31 217//31
f 220//34 221//34 222//34
f 222//33 221//33 220//33
f 221//34 220//34 223//34
f 223//33 220//33 221//33
f 224//36 225//36 226//36
f 226//35 225//35 224//35
f 225//36 224//36 227//36
f 227//35 224//35 225//35
f 228//38 229//38 230//38
f 230//37 229//37 228//37
f 229//38 228//38 231//38
f 231//37 228//37 229//37
f 232//40 233//40 234//40
f 234//39 233//39 232//39
f 233//40 232//40 235//40
f 235//39 232//39 233//39
f 236//42 237//42 238//42
f 238//41 237//41 236//41
f 237//42 236//42 239//42
f 239//41 236//41 237//41
f 240//44 241//44 242//44
f 242//43 241//43 240//43
f 241//44 240//44 243//44
f 243//43 240//43 241//43
f 244//46 245//46 246//46
f 246//45 245//45 244//45
f 245//46 244//46 247//46
f 247//45 244//45 245//45
f 248//48 249//48 250//48
f 250//47 249//47 248//47
f 249//48 248//48 251//48
f 251//47 248//47 249//47
f 252//50 253//50 254//50
f 254//49 253//49 252//49
f 253//50 252//50 255//50
f 255//49 252//49 253//49
f 256//52 257//52 258//52
f 258//51 257//51 256//51
f 257//52 256//52 259//52
f 259//51 256//51 257//51
f 260//54 261//54 262//54
f 262//53 261//53 260//53
f 261//54 260//54 263//54
f 263//53 260//53 261//53
