# SSTK version 0.8.0
# 39
mtllib original-39.mtl
o #ID1953
v 0.289237 0.010486 0.078826
v 0.289052 0.006170 0.079038
v 0.289052 0.010486 0.079038
v 0.289237 0.006170 0.078826
v 0.288895 0.006170 0.079273
v 0.288895 0.010486 0.079273
v 0.288624 0.010486 0.108686
v 0.288606 0.010486 0.080352
v 0.288606 0.010486 0.108405
v 0.288624 0.010486 0.080070
v 0.288679 0.010486 0.108963
v 0.288679 0.010486 0.079793
v 0.288770 0.010486 0.109231
v 0.288770 0.010486 0.079526
v 0.288895 0.010486 0.109484
v 0.288895 0.010486 0.079273
v 0.289052 0.010486 0.109718
v 0.289052 0.010486 0.079038
v 0.289237 0.010486 0.109931
v 0.289237 0.010486 0.078826
v 0.289450 0.010486 0.110117
v 0.289450 0.010486 0.078640
v 0.289685 0.010486 0.078483
v 0.289685 0.010486 0.110274
v 0.289937 0.010486 0.078358
v 0.289937 0.010486 0.110398
v 0.290205 0.010486 0.110489
v 0.290205 0.010486 0.078267
v 0.290482 0.010486 0.110544
v 0.290482 0.010486 0.078212
v 0.290763 0.010486 0.110563
v 0.290763 0.010486 0.078194
v 0.318816 0.010486 0.110563
v 0.318816 0.010486 0.078194
v 0.319098 0.010486 0.110544
v 0.319098 0.010486 0.078212
v 0.319375 0.010486 0.110489
v 0.319375 0.010486 0.078267
v 0.319642 0.010486 0.110398
v 0.319642 0.010486 0.078358
v 0.319896 0.010486 0.110274
v 0.319896 0.010486 0.078483
v 0.320130 0.010486 0.078640
v 0.320130 0.010486 0.110117
v 0.320342 0.010486 0.078826
v 0.320342 0.010486 0.109931
v 0.320529 0.010486 0.109718
v 0.320529 0.010486 0.079038
v 0.320685 0.010486 0.109484
v 0.320685 0.010486 0.079273
v 0.320810 0.010486 0.109231
v 0.320810 0.010486 0.079526
v 0.320901 0.010486 0.108963
v 0.320901 0.010486 0.079793
v 0.320956 0.010486 0.108686
v 0.320956 0.010486 0.080070
v 0.320974 0.010486 0.108405
v 0.320974 0.010486 0.080352
v 0.289450 0.006170 0.078640
v 0.289450 0.010486 0.078640
v 0.288770 0.006170 0.079526
v 0.288770 0.010486 0.079526
v 0.320956 0.006170 0.080070
v 0.320974 0.010486 0.080352
v 0.320974 0.006170 0.080352
v 0.320956 0.010486 0.080070
v 0.320901 0.006170 0.079793
v 0.320901 0.010486 0.079793
v 0.320810 0.006170 0.079526
v 0.320810 0.010486 0.079526
v 0.320685 0.006170 0.079273
v 0.320685 0.010486 0.079273
v 0.320529 0.006170 0.079038
v 0.320529 0.010486 0.079038
v 0.320342 0.006170 0.078826
v 0.320342 0.010486 0.078826
v 0.320130 0.010486 0.078640
v 0.320130 0.006170 0.078640
v 0.319896 0.010486 0.078483
v 0.319896 0.006170 0.078483
v 0.319642 0.010486 0.078358
v 0.319642 0.006170 0.078358
v 0.319375 0.010486 0.078267
v 0.319375 0.006170 0.078267
v 0.319098 0.010486 0.078212
v 0.319098 0.006170 0.078212
v 0.318816 0.010486 0.078194
v 0.318816 0.006170 0.078194
v 0.290763 0.010486 0.078194
v 0.290763 0.006170 0.078194
v 0.290482 0.010486 0.078212
v 0.290482 0.006170 0.078212
v 0.290205 0.010486 0.078267
v 0.290205 0.006170 0.078267
v 0.289937 0.010486 0.078358
v 0.289937 0.006170 0.078358
v 0.289685 0.010486 0.078483
v 0.289685 0.006170 0.078483
v 0.288679 0.006170 0.079793
v 0.288679 0.010486 0.079793
v 0.288624 0.006170 0.080070
v 0.288624 0.010486 0.080070
v 0.288606 0.006170 0.080352
v 0.288606 0.010486 0.080352
v 0.288606 0.006170 0.108405
v 0.288606 0.010486 0.108405
v 0.288624 0.006170 0.108686
v 0.288624 0.010486 0.108686
v 0.288679 0.006170 0.108963
v 0.288679 0.010486 0.108963
v 0.288770 0.006170 0.109231
v 0.288770 0.010486 0.109231
v 0.288895 0.006170 0.109484
v 0.288895 0.010486 0.109484
v 0.289052 0.006170 0.109718
v 0.289052 0.010486 0.109718
v 0.289237 0.006170 0.109931
v 0.289237 0.010486 0.109931
v 0.289450 0.010486 0.110117
v 0.289450 0.006170 0.110117
v 0.289685 0.010486 0.110274
v 0.289599 0.006170 0.110217
v 0.289685 0.006170 0.110274
v 0.289937 0.010486 0.110398
v 0.289937 0.006170 0.110398
v 0.290205 0.010486 0.110489
v 0.290205 0.006170 0.110489
v 0.290482 0.010486 0.110544
v 0.290482 0.006170 0.110544
v 0.290763 0.010486 0.110563
v 0.290763 0.006170 0.110563
v 0.318816 0.010486 0.110563
v 0.304790 0.006170 0.110563
v 0.318816 0.006170 0.110563
v 0.319098 0.010486 0.110544
v 0.319098 0.006170 0.110544
v 0.319375 0.010486 0.110489
v 0.319375 0.006170 0.110489
v 0.319642 0.010486 0.110398
v 0.319642 0.006170 0.110398
v 0.319896 0.010486 0.110274
v 0.319896 0.006170 0.110274
v 0.320130 0.010486 0.110117
v 0.320130 0.006170 0.110117
v 0.320342 0.010486 0.109931
v 0.320342 0.006170 0.109931
v 0.320529 0.006170 0.109718
v 0.320529 0.010486 0.109718
v 0.320685 0.006170 0.109484
v 0.320685 0.010486 0.109484
v 0.320810 0.006170 0.109231
v 0.320810 0.010486 0.109231
v 0.320901 0.006170 0.108963
v 0.320901 0.010486 0.108963
v 0.320956 0.006170 0.108686
v 0.320956 0.010486 0.108686
v 0.320974 0.006170 0.108405
v 0.320974 0.010486 0.108405
vn -0.7071067811865476 0 -0.7071067811865476
vn -0.7933533393698233 0 -0.608761430209528
vn 0.7071067811865476 0 0.7071067811865476
vn 0.7933533393698233 0 0.608761430209528
vn -0.866025402838329 0 -0.5000000016387101
vn 0.866025402838329 0 0.5000000016387101
vn 0 1 0
vn 0 -1 0
vn -0.608761430209528 0 -0.7933533393698233
vn 0.608761430209528 0 0.7933533393698233
vn -0.9238795391929066 0 -0.38268341623423263
vn 0.9238795391929066 0 0.38268341623423263
vn 0.9914448610250887 0 -0.1305261948688555
vn 0.9994645875820491 0 -0.03271907959347842
vn -0.9914448610250887 0 0.1305261948688555
vn -0.9994645875820491 0 0.03271907959347842
vn 0.9659258358036645 0 -0.25881900959356163
vn -0.9659258358036645 0 0.25881900959356163
vn 0.9238795391929066 0 -0.38268341623423263
vn -0.9238795391929066 0 0.38268341623423263
vn 0.866025402838329 0 -0.5000000016387101
vn -0.866025402838329 0 0.5000000016387101
vn 0.7933533393698233 0 -0.608761430209528
vn -0.7933533393698233 0 0.608761430209528
vn 0.7071067811865476 0 -0.7071067811865476
vn -0.7071067811865476 0 0.7071067811865476
vn 0.608761430209528 0 -0.7933533393698233
vn -0.608761430209528 0 0.7933533393698233
vn 0.5000000016387101 0 -0.866025402838329
vn -0.5000000016387101 0 0.866025402838329
vn 0.38268341623423263 0 -0.9238795391929066
vn -0.38268341623423263 0 0.9238795391929066
vn 0.25881900959356163 0 -0.9659258358036645
vn -0.25881900959356163 0 0.9659258358036645
vn 0.1305261948688555 0 -0.9914448610250887
vn -0.1305261948688555 0 0.9914448610250887
vn 0.03271907959347842 0 -0.9994645875820491
vn -0.03271907959347842 0 0.9994645875820491
vn -0.03271907959347842 0 -0.9994645875820491
vn 0.03271907959347842 0 0.9994645875820491
vn -0.1305261948688555 0 -0.9914448610250887
vn 0.1305261948688555 0 0.9914448610250887
vn -0.25881900959356163 0 -0.9659258358036645
vn 0.25881900959356163 0 0.9659258358036645
vn -0.38268341623423263 0 -0.9238795391929066
vn 0.38268341623423263 0 0.9238795391929066
vn -0.5000000016387101 0 -0.866025402838329
vn 0.5000000016387101 0 0.866025402838329
vn -0.9659258358036645 0 -0.25881900959356163
vn 0.9659258358036645 0 0.25881900959356163
vn -0.9914448610250887 0 -0.1305261948688555
vn 0.9914448610250887 0 0.1305261948688555
vn -0.9994645875820491 0 -0.03271907959347842
vn 0.9994645875820491 0 0.03271907959347842
vn -0.555570215874808 0 0.8314696237583302
vn 0.555570215874808 0 -0.8314696237583302
vn 0 0 1
vn 0 0 -1
usemtl material_0_2
f 1//1 2//2 3//2
f 3//4 2//4 1//3
f 2//2 1//1 4//1
f 4//3 1//3 2//4
f 3//2 5//5 6//5
f 6//6 5//6 3//4
f 5//5 3//2 2//2
f 2//4 3//4 5//6
f 7//7 8//7 9//7
f 9//8 8//8 7//8
f 8//7 7//7 10//7
f 10//8 7//8 8//8
f 10//7 7//7 11//7
f 11//8 7//8 10//8
f 10//7 11//7 12//7
f 12//8 11//8 10//8
f 12//7 11//7 13//7
f 13//8 11//8 12//8
f 12//7 13//7 14//7
f 14//8 13//8 12//8
f 14//7 13//7 15//7
f 15//8 13//8 14//8
f 14//7 15//7 16//7
f 16//8 15//8 14//8
f 16//7 15//7 17//7
f 17//8 15//8 16//8
f 16//7 17//7 18//7
f 18//8 17//8 16//8
f 18//7 17//7 19//7
f 19//8 17//8 18//8
f 18//7 19//7 20//7
f 20//8 19//8 18//8
f 20//7 19//7 21//7
f 21//8 19//8 20//8
f 20//7 21//7 22//7
f 22//8 21//8 20//8
f 22//7 21//7 23//7
f 23//8 21//8 22//8
f 23//7 21//7 24//7
f 24//8 21//8 23//8
f 23//7 24//7 25//7
f 25//8 24//8 23//8
f 25//7 24//7 26//7
f 26//8 24//8 25//8
f 25//7 26//7 27//7
f 27//8 26//8 25//8
f 25//7 27//7 28//7
f 28//8 27//8 25//8
f 28//7 27//7 29//7
f 29//8 27//8 28//8
f 28//7 29//7 30//7
f 30//8 29//8 28//8
f 30//7 29//7 31//7
f 31//8 29//8 30//8
f 30//7 31//7 32//7
f 32//8 31//8 30//8
f 32//7 31//7 33//7
f 33//8 31//8 32//8
f 32//7 33//7 34//7
f 34//8 33//8 32//8
f 34//7 33//7 35//7
f 35//8 33//8 34//8
f 34//7 35//7 36//7
f 36//8 35//8 34//8
f 36//7 35//7 37//7
f 37//8 35//8 36//8
f 36//7 37//7 38//7
f 38//8 37//8 36//8
f 38//7 37//7 39//7
f 39//8 37//8 38//8
f 38//7 39//7 40//7
f 40//8 39//8 38//8
f 40//7 39//7 41//7
f 41//8 39//8 40//8
f 40//7 41//7 42//7
f 42//8 41//8 40//8
f 42//7 41//7 43//7
f 43//8 41//8 42//8
f 43//7 41//7 44//7
f 44//8 41//8 43//8
f 43//7 44//7 45//7
f 45//8 44//8 43//8
f 45//7 44//7 46//7
f 46//8 44//8 45//8
f 45//7 46//7 47//7
f 47//8 46//8 45//8
f 45//7 47//7 48//7
f 48//8 47//8 45//8
f 48//7 47//7 49//7
f 49//8 47//8 48//8
f 48//7 49//7 50//7
f 50//8 49//8 48//8
f 50//7 49//7 51//7
f 51//8 49//8 50//8
f 50//7 51//7 52//7
f 52//8 51//8 50//8
f 52//7 51//7 53//7
f 53//8 51//8 52//8
f 52//7 53//7 54//7
f 54//8 53//8 52//8
f 54//7 53//7 55//7
f 55//8 53//8 54//8
f 54//7 55//7 56//7
f 56//8 55//8 54//8
f 56//7 55//7 57//7
f 57//8 55//8 56//8
f 56//7 57//7 58//7
f 58//8 57//8 56//8
f 1//1 59//9 4//1
f 4//3 59//10 1//3
f 59//9 1//1 60//9
f 60//10 1//3 59//10
f 6//5 61//11 62//11
f 62//12 61//12 6//6
f 61//11 6//5 5//5
f 5//6 6//6 61//12
f 63//13 64//14 65//14
f 65//16 64//16 63//15
f 64//14 63//13 66//13
f 66//15 63//15 64//16
f 67//17 66//13 63//13
f 63//15 66//15 67//18
f 66//13 67//17 68//17
f 68//18 67//18 66//15
f 69//19 68//17 67//17
f 67//18 68//18 69//20
f 68//17 69//19 70//19
f 70//20 69//20 68//18
f 71//21 70//19 69//19
f 69//20 70//20 71//22
f 70//19 71//21 72//21
f 72//22 71//22 70//20
f 73//23 72//21 71//21
f 71//22 72//22 73//24
f 72//21 73//23 74//23
f 74//24 73//24 72//22
f 75//25 74//23 73//23
f 73//24 74//24 75//26
f 74//23 75//25 76//25
f 76//26 75//26 74//24
f 77//27 75//25 78//27
f 78//28 75//26 77//28
f 75//25 77//27 76//25
f 76//26 77//28 75//26
f 79//29 78//27 80//29
f 80//30 78//28 79//30
f 78//27 79//29 77//27
f 77//28 79//30 78//28
f 81//31 80//29 82//31
f 82//32 80//30 81//32
f 80//29 81//31 79//29
f 79//30 81//32 80//30
f 83//33 82//31 84//33
f 84//34 82//32 83//34
f 82//31 83//33 81//31
f 81//32 83//34 82//32
f 85//35 84//33 86//35
f 86//36 84//34 85//36
f 84//33 85//35 83//33
f 83//34 85//36 84//34
f 87//37 86//35 88//37
f 88//38 86//36 87//38
f 86//35 87//37 85//35
f 85//36 87//38 86//36
f 89//39 88//37 90//39
f 90//40 88//38 89//40
f 88//37 89//39 87//37
f 87//38 89//40 88//38
f 91//41 90//39 92//41
f 92//42 90//40 91//42
f 90//39 91//41 89//39
f 89//40 91//42 90//40
f 93//43 92//41 94//43
f 94//44 92//42 93//44
f 92//41 93//43 91//41
f 91//42 93//44 92//42
f 95//45 94//43 96//45
f 96//46 94//44 95//46
f 94//43 95//45 93//43
f 93//44 95//46 94//44
f 97//47 96//45 98//47
f 98//48 96//46 97//48
f 96//45 97//47 95//45
f 95//46 97//48 96//46
f 60//9 98//47 59//9
f 59//10 98//48 60//10
f 98//47 60//9 97//47
f 97//48 60//10 98//48
f 62//11 99//49 100//49
f 100//50 99//50 62//12
f 99//49 62//11 61//11
f 61//12 62//12 99//50
f 100//49 101//51 102//51
f 102//52 101//52 100//50
f 101//51 100//49 99//49
f 99//50 100//50 101//52
f 102//51 103//53 104//53
f 104//54 103//54 102//52
f 103//53 102//51 101//51
f 101//52 102//52 103//54
f 104//53 105//16 106//16
f 106//14 105//14 104//54
f 105//16 104//53 103//53
f 103//54 104//54 105//14
f 106//16 107//15 108//15
f 108//13 107//13 106//14
f 107//15 106//16 105//16
f 105//14 106//14 107//13
f 108//15 109//18 110//18
f 110//17 109//17 108//13
f 109//18 108//15 107//15
f 107//13 108//13 109//17
f 110//18 111//20 112//20
f 112//19 111//19 110//17
f 111//20 110//18 109//18
f 109//17 110//17 111//19
f 112//20 113//22 114//22
f 114//21 113//21 112//19
f 113//22 112//20 111//20
f 111//19 112//19 113//21
f 114//22 115//24 116//24
f 116//23 115//23 114//21
f 115//24 114//22 113//22
f 113//21 114//21 115//23
f 116//24 117//26 118//26
f 118//25 117//25 116//23
f 117//26 116//24 115//24
f 115//23 116//23 117//25
f 119//28 117//26 120//28
f 120//27 117//25 119//27
f 117//26 119//28 118//26
f 118//25 119//27 117//25
f 121//30 122//55 123//30
f 123//29 122//56 121//29
f 122//55 121//30 120//28
f 120//27 121//29 122//56
f 120//28 121//30 119//28
f 119//27 121//29 120//27
f 124//32 123//30 125//32
f 125//31 123//29 124//31
f 123//30 124//32 121//30
f 121//29 124//31 123//29
f 126//34 125//32 127//34
f 127//33 125//31 126//33
f 125//32 126//34 124//32
f 124//31 126//33 125//31
f 128//36 127//34 129//36
f 129//35 127//33 128//35
f 127//34 128//36 126//34
f 126//33 128//35 127//33
f 130//38 129//36 131//38
f 131//37 129//35 130//37
f 129//36 130//38 128//36
f 128//35 130//37 129//35
f 132//40 133//57 134//40
f 134//39 133//58 132//39
f 133//57 132//40 131//38
f 131//37 132//39 133//58
f 131//38 132//40 130//38
f 130//37 132//39 131//37
f 135//42 134//40 136//42
f 136//41 134//39 135//41
f 134//40 135//42 132//40
f 132//39 135//41 134//39
f 137//44 136//42 138//44
f 138//43 136//41 137//43
f 136//42 137//44 135//42
f 135//41 137//43 136//41
f 139//46 138//44 140//46
f 140//45 138//43 139//45
f 138//44 139//46 137//44
f 137//43 139//45 138//43
f 141//48 140//46 142//48
f 142//47 140//45 141//47
f 140//46 141//48 139//46
f 139//45 141//47 140//45
f 143//10 142//48 144//10
f 144//9 142//47 143//9
f 142//48 143//10 141//48
f 141//47 143//9 142//47
f 145//3 144//10 146//3
f 146//1 144//9 145//1
f 144//10 145//3 143//10
f 143//9 145//1 144//9
f 147//4 145//3 146//3
f 146//1 145//1 147//2
f 145//3 147//4 148//4
f 148//2 147//2 145//1
f 149//6 148//4 147//4
f 147//2 148//2 149//5
f 148//4 149//6 150//6
f 150//5 149//5 148//2
f 151//12 150//6 149//6
f 149//5 150//5 151//11
f 150//6 151//12 152//12
f 152//11 151//11 150//5
f 153//50 152//12 151//12
f 151//11 152//11 153//49
f 152//12 153//50 154//50
f 154//49 153//49 152//11
f 155//52 154//50 153//50
f 153//49 154//49 155//51
f 154//50 155//52 156//52
f 156//51 155//51 154//49
f 157//54 156//52 155//52
f 155//51 156//51 157//53
f 156//52 157//54 158//54
f 158//53 157//53 156//51
f 65//14 158//54 157//54
f 157//53 158//53 65//16
f 158//54 65//14 64//14
f 64//16 65//16 158//53
