# SSTK version 0.8.0
# 375
mtllib original-375.mtl
o #ID1177
v 0.079955 0.010529 0.025436
v 0.077645 0.010529 0.026409
v 0.077645 0.010529 0.025436
v 0.079955 0.010529 0.026409
v 0.077645 0.010529 0.023127
v 0.076661 0.010529 0.025436
v 0.076661 0.010529 0.023127
v 0.076661 0.010529 0.026409
v 0.076661 0.010529 0.028736
v 0.077645 0.010529 0.028736
v 0.074351 0.010529 0.026409
v 0.074351 0.010529 0.025436
v 0.076661 0.010529 0.026409
v 0.076661 0.010529 0.025436
v 0.074351 0.010529 0.026409
v 0.074351 0.010529 0.025436
v 0.077645 0.010529 0.026409
v 0.077645 0.010529 0.025436
v 0.077645 0.010529 0.028736
v 0.077645 0.010529 0.023127
v 0.076661 0.010529 0.028736
v 0.076661 0.010529 0.023127
v 0.079955 0.010529 0.026409
v 0.079955 0.010529 0.025436
vn 0 -1 0
vn 0 1 0
usemtl material_0_0
f 1//1 2//1 3//1
f 2//1 1//1 4//1
f 5//1 6//1 7//1
f 6//1 5//1 8//1
f 8//1 5//1 9//1
f 9//1 5//1 10//1
f 10//1 5//1 3//1
f 10//1 3//1 2//1
f 6//1 11//1 12//1
f 11//1 6//1 8//1
usemtl material_1_0
f 13//2 14//2 15//2
f 16//2 15//2 14//2
f 17//2 18//2 19//2
f 18//2 20//2 19//2
f 19//2 20//2 21//2
f 21//2 20//2 13//2
f 13//2 20//2 14//2
f 22//2 14//2 20//2
f 23//2 24//2 17//2
f 18//2 17//2 24//2
