# SSTK version 0.8.0
# 210
mtllib original-210.mtl
o #ID297
v -0.373115 0.010486 -0.003572
v -0.373314 0.006170 -0.003360
v -0.373115 0.006170 -0.003572
v -0.373314 0.010486 -0.003360
v -0.372947 0.010486 -0.003807
v -0.373115 0.006170 -0.003572
v -0.372947 0.006170 -0.003807
v -0.373115 0.010486 -0.003572
v -0.405298 0.010486 -0.035079
v -0.374949 0.010486 -0.035097
v -0.404997 0.010486 -0.035097
v -0.374647 0.010486 -0.035079
v -0.405595 0.010486 -0.035023
v -0.374350 0.010486 -0.035023
v -0.405881 0.010486 -0.034933
v -0.374064 0.010486 -0.034933
v -0.406152 0.010486 -0.034808
v -0.373793 0.010486 -0.034808
v -0.406404 0.010486 -0.034651
v -0.373542 0.010486 -0.034651
v -0.406631 0.010486 -0.034465
v -0.373314 0.010486 -0.034465
v -0.406830 0.010486 -0.034253
v -0.373115 0.010486 -0.034253
v -0.406998 0.010486 -0.034018
v -0.372947 0.010486 -0.034018
v -0.407132 0.010486 -0.033765
v -0.372813 0.010486 -0.033765
v -0.407229 0.010486 -0.033498
v -0.372716 0.010486 -0.033498
v -0.407288 0.010486 -0.033221
v -0.372657 0.010486 -0.033221
v -0.407308 0.010486 -0.032939
v -0.372637 0.010486 -0.032939
v -0.407308 0.010486 -0.004886
v -0.372637 0.010486 -0.004886
v -0.407288 0.010486 -0.004604
v -0.372657 0.010486 -0.004604
v -0.407229 0.010486 -0.004328
v -0.372716 0.010486 -0.004328
v -0.407132 0.010486 -0.004060
v -0.372813 0.010486 -0.004060
v -0.406998 0.010486 -0.003807
v -0.372947 0.010486 -0.003807
v -0.406830 0.010486 -0.003572
v -0.373115 0.010486 -0.003572
v -0.406631 0.010486 -0.003360
v -0.373314 0.010486 -0.003360
v -0.406404 0.010486 -0.003174
v -0.373542 0.010486 -0.003174
v -0.406152 0.010486 -0.003017
v -0.373793 0.010486 -0.003017
v -0.405881 0.010486 -0.002892
v -0.374064 0.010486 -0.002892
v -0.405595 0.010486 -0.002802
v -0.374350 0.010486 -0.002802
v -0.405298 0.010486 -0.002747
v -0.374647 0.010486 -0.002747
v -0.404997 0.010486 -0.002728
v -0.374949 0.010486 -0.002728
v -0.373314 0.006170 -0.003360
v -0.373542 0.010486 -0.003174
v -0.373542 0.006170 -0.003174
v -0.373314 0.010486 -0.003360
v -0.372813 0.010486 -0.004060
v -0.372947 0.006170 -0.003807
v -0.372813 0.006170 -0.004060
v -0.372947 0.010486 -0.003807
v -0.372657 0.010486 -0.033221
v -0.372637 0.006170 -0.032939
v -0.372657 0.006170 -0.033221
v -0.372637 0.010486 -0.032939
v -0.372716 0.010486 -0.033498
v -0.372657 0.006170 -0.033221
v -0.372716 0.006170 -0.033498
v -0.372657 0.010486 -0.033221
v -0.372813 0.010486 -0.033765
v -0.372716 0.006170 -0.033498
v -0.372813 0.006170 -0.033765
v -0.372716 0.010486 -0.033498
v -0.372947 0.010486 -0.034018
v -0.372813 0.006170 -0.033765
v -0.372947 0.006170 -0.034018
v -0.372813 0.010486 -0.033765
v -0.373115 0.010486 -0.034253
v -0.372947 0.006170 -0.034018
v -0.373115 0.006170 -0.034253
v -0.372947 0.010486 -0.034018
v -0.373314 0.010486 -0.034465
v -0.373115 0.006170 -0.034253
v -0.373314 0.006170 -0.034465
v -0.373115 0.010486 -0.034253
v -0.373314 0.010486 -0.034465
v -0.373542 0.006170 -0.034651
v -0.373542 0.010486 -0.034651
v -0.373314 0.006170 -0.034465
v -0.373542 0.010486 -0.034651
v -0.373793 0.006170 -0.034808
v -0.373793 0.010486 -0.034808
v -0.373542 0.006170 -0.034651
v -0.373793 0.010486 -0.034808
v -0.374064 0.006170 -0.034933
v -0.374064 0.010486 -0.034933
v -0.373793 0.006170 -0.034808
v -0.374064 0.010486 -0.034933
v -0.374350 0.006170 -0.035023
v -0.374350 0.010486 -0.035023
v -0.374064 0.006170 -0.034933
v -0.374350 0.010486 -0.035023
v -0.374647 0.006170 -0.035079
v -0.374647 0.010486 -0.035079
v -0.374350 0.006170 -0.035023
v -0.374647 0.010486 -0.035079
v -0.374949 0.006170 -0.035097
v -0.374949 0.010486 -0.035097
v -0.374647 0.006170 -0.035079
v -0.374949 0.010486 -0.035097
v -0.404997 0.006170 -0.035097
v -0.404997 0.010486 -0.035097
v -0.374949 0.006170 -0.035097
v -0.404997 0.010486 -0.035097
v -0.405298 0.006170 -0.035079
v -0.405298 0.010486 -0.035079
v -0.404997 0.006170 -0.035097
v -0.405298 0.010486 -0.035079
v -0.405595 0.006170 -0.035023
v -0.405595 0.010486 -0.035023
v -0.405298 0.006170 -0.035079
v -0.405595 0.010486 -0.035023
v -0.405881 0.006170 -0.034933
v -0.405881 0.010486 -0.034933
v -0.405595 0.006170 -0.035023
v -0.405881 0.010486 -0.034933
v -0.406152 0.006170 -0.034808
v -0.406152 0.010486 -0.034808
v -0.405881 0.006170 -0.034933
v -0.406152 0.010486 -0.034808
v -0.406404 0.006170 -0.034651
v -0.406404 0.010486 -0.034651
v -0.406152 0.006170 -0.034808
v -0.406404 0.010486 -0.034651
v -0.406631 0.006170 -0.034465
v -0.406631 0.010486 -0.034465
v -0.406404 0.006170 -0.034651
v -0.406830 0.010486 -0.034253
v -0.406631 0.006170 -0.034465
v -0.406830 0.006170 -0.034253
v -0.406631 0.010486 -0.034465
v -0.406998 0.010486 -0.034018
v -0.406830 0.006170 -0.034253
v -0.406998 0.006170 -0.034018
v -0.406830 0.010486 -0.034253
v -0.407132 0.010486 -0.033765
v -0.406998 0.006170 -0.034018
v -0.407132 0.006170 -0.033765
v -0.406998 0.010486 -0.034018
v -0.407229 0.010486 -0.033498
v -0.407132 0.006170 -0.033765
v -0.407229 0.006170 -0.033498
v -0.407132 0.010486 -0.033765
v -0.407288 0.010486 -0.033221
v -0.407229 0.006170 -0.033498
v -0.407288 0.006170 -0.033221
v -0.407229 0.010486 -0.033498
v -0.407308 0.010486 -0.032939
v -0.407288 0.006170 -0.033221
v -0.407308 0.006170 -0.032939
v -0.407288 0.010486 -0.033221
v -0.407308 0.010486 -0.004886
v -0.407308 0.006170 -0.032939
v -0.407308 0.006170 -0.004886
v -0.407308 0.010486 -0.032939
v -0.407288 0.010486 -0.004604
v -0.407308 0.006170 -0.004886
v -0.407288 0.006170 -0.004604
v -0.407308 0.010486 -0.004886
v -0.407229 0.010486 -0.004328
v -0.407288 0.006170 -0.004604
v -0.407229 0.006170 -0.004328
v -0.407288 0.010486 -0.004604
v -0.407132 0.010486 -0.004060
v -0.407229 0.006170 -0.004328
v -0.407132 0.006170 -0.004060
v -0.407229 0.010486 -0.004328
v -0.406998 0.010486 -0.003807
v -0.407132 0.006170 -0.004060
v -0.406998 0.006170 -0.003807
v -0.407132 0.010486 -0.004060
v -0.406830 0.010486 -0.003572
v -0.406998 0.006170 -0.003807
v -0.406830 0.006170 -0.003572
v -0.406998 0.010486 -0.003807
v -0.406631 0.010486 -0.003360
v -0.406830 0.006170 -0.003572
v -0.406631 0.006170 -0.003360
v -0.406830 0.010486 -0.003572
v -0.406404 0.006170 -0.003174
v -0.406631 0.010486 -0.003360
v -0.406631 0.006170 -0.003360
v -0.406404 0.010486 -0.003174
v -0.406244 0.006170 -0.003074
v -0.406404 0.010486 -0.003174
v -0.406404 0.006170 -0.003174
v -0.406152 0.010486 -0.003017
v -0.406152 0.006170 -0.003017
v -0.405881 0.006170 -0.002892
v -0.406152 0.010486 -0.003017
v -0.406152 0.006170 -0.003017
v -0.405881 0.010486 -0.002892
v -0.405595 0.006170 -0.002802
v -0.405881 0.010486 -0.002892
v -0.405881 0.006170 -0.002892
v -0.405595 0.010486 -0.002802
v -0.405298 0.006170 -0.002747
v -0.405595 0.010486 -0.002802
v -0.405595 0.006170 -0.002802
v -0.405298 0.010486 -0.002747
v -0.404997 0.006170 -0.002728
v -0.405298 0.010486 -0.002747
v -0.405298 0.006170 -0.002747
v -0.404997 0.010486 -0.002728
v -0.374949 0.006170 -0.002728
v -0.404997 0.010486 -0.002728
v -0.404997 0.006170 -0.002728
v -0.374949 0.010486 -0.002728
v -0.374647 0.006170 -0.002747
v -0.374949 0.010486 -0.002728
v -0.374949 0.006170 -0.002728
v -0.374647 0.010486 -0.002747
v -0.374350 0.006170 -0.002802
v -0.374647 0.010486 -0.002747
v -0.374647 0.006170 -0.002747
v -0.374350 0.010486 -0.002802
v -0.374064 0.006170 -0.002892
v -0.374350 0.010486 -0.002802
v -0.374350 0.006170 -0.002802
v -0.374064 0.010486 -0.002892
v -0.373793 0.006170 -0.003017
v -0.374064 0.010486 -0.002892
v -0.374064 0.006170 -0.002892
v -0.373793 0.010486 -0.003017
v -0.373542 0.006170 -0.003174
v -0.373793 0.010486 -0.003017
v -0.373793 0.006170 -0.003017
v -0.373542 0.010486 -0.003174
v -0.372716 0.010486 -0.004328
v -0.372813 0.006170 -0.004060
v -0.372716 0.006170 -0.004328
v -0.372813 0.010486 -0.004060
v -0.372657 0.010486 -0.004604
v -0.372716 0.006170 -0.004328
v -0.372657 0.006170 -0.004604
v -0.372716 0.010486 -0.004328
v -0.372637 0.010486 -0.004886
v -0.372657 0.006170 -0.004604
v -0.372637 0.006170 -0.004886
v -0.372657 0.010486 -0.004604
v -0.372637 0.010486 -0.032939
v -0.372637 0.006170 -0.004886
v -0.372637 0.006170 -0.032939
v -0.372637 0.010486 -0.004886
vn 0.72886577654517 0 0.6846566145019022
vn -0.72886577654517 0 -0.6846566145019022
vn 0.8131898752683516 0 0.5819984765968405
vn -0.8131898752683516 0 -0.5819984765968405
vn 0 1 0
vn 0 -1 0
vn 0.6335004837889444 0 0.7737422936864531
vn -0.6335004837889444 0 -0.7737422936864531
vn 0.8842243912041625 0 0.4670623363102915
vn -0.8842243912041625 0 -0.4670623363102915
vn 0.9975447163834721 0 -0.07003241260600808
vn -0.9975447163834721 0 0.07003241260600808
vn 0.9780476327600158 0 -0.20838144843658488
vn -0.9780476327600158 0 0.20838144843658488
vn 0.9398057215316139 0 -0.34170924157306937
vn -0.9398057215316139 0 0.34170924157306937
vn 0.8842243912041625 0 -0.4670623363102919
vn -0.8842243912041625 0 0.4670623363102919
vn 0.8131898752683512 0 -0.5819984765968408
vn -0.8131898752683512 0 0.5819984765968408
vn 0.7288657765451698 0 -0.6846566145019024
vn -0.7288657765451698 0 0.6846566145019024
vn 0.6335004837889441 0 -0.7737422936864535
vn -0.6335004837889441 0 0.7737422936864535
vn 0.5292752592655013 0 -0.8484501752780986
vn -0.5292752592655013 0 0.8484501752780986
vn 0.4182073827663079 0 -0.9083515756576607
vn -0.4182073827663079 0 0.9083515756576607
vn 0.302107615876019 0 -0.9532738265733032
vn -0.302107615876019 0 0.9532738265733032
vn 0.18258369935206567 0 -0.9831903135868022
vn -0.18258369935206567 0 0.9831903135868022
vn 0.061077395425492245 0 -0.9981330331013186
vn -0.061077395425492245 0 0.9981330331013186
vn 0 0 -1
vn 0 0 1
vn -0.06107739542549269 0 -0.9981330331013186
vn 0.06107739542549269 0 0.9981330331013186
vn -0.18258369935206611 0 -0.9831903135868022
vn 0.18258369935206611 0 0.9831903135868022
vn -0.3021076158760194 0 -0.9532738265733028
vn 0.3021076158760194 0 0.9532738265733028
vn -0.41820738276630837 0 -0.9083515756576604
vn 0.41820738276630837 0 0.9083515756576604
vn -0.5292752592655018 0 -0.8484501752780984
vn 0.5292752592655018 0 0.8484501752780984
vn -0.9398057215316142 0 -0.3417092415730689
vn 0.9398057215316142 0 0.3417092415730689
vn -0.978047632760016 0 -0.2083814484365845
vn 0.978047632760016 0 0.2083814484365845
vn -0.9975447163834721 0 -0.07003241260600764
vn 0.9975447163834721 0 0.07003241260600764
vn -1 0 0
vn 1 0 0
usemtl material_0_2
f 1//1 2//1 3//1
f 3//2 2//2 1//2
f 2//1 1//1 4//1
f 4//2 1//2 2//2
f 5//3 6//3 7//3
f 7//4 6//4 5//4
f 6//3 5//3 8//3
f 8//4 5//4 6//4
f 9//5 10//5 11//5
f 11//6 10//6 9//6
f 10//5 9//5 12//5
f 12//6 9//6 10//6
f 12//5 9//5 13//5
f 13//6 9//6 12//6
f 12//5 13//5 14//5
f 14//6 13//6 12//6
f 14//5 13//5 15//5
f 15//6 13//6 14//6
f 14//5 15//5 16//5
f 16//6 15//6 14//6
f 16//5 15//5 17//5
f 17//6 15//6 16//6
f 16//5 17//5 18//5
f 18//6 17//6 16//6
f 18//5 17//5 19//5
f 19//6 17//6 18//6
f 18//5 19//5 20//5
f 20//6 19//6 18//6
f 20//5 19//5 21//5
f 21//6 19//6 20//6
f 20//5 21//5 22//5
f 22//6 21//6 20//6
f 22//5 21//5 23//5
f 23//6 21//6 22//6
f 22//5 23//5 24//5
f 24//6 23//6 22//6
f 24//5 23//5 25//5
f 25//6 23//6 24//6
f 24//5 25//5 26//5
f 26//6 25//6 24//6
f 26//5 25//5 27//5
f 27//6 25//6 26//6
f 26//5 27//5 28//5
f 28//6 27//6 26//6
f 28//5 27//5 29//5
f 29//6 27//6 28//6
f 28//5 29//5 30//5
f 30//6 29//6 28//6
f 30//5 29//5 31//5
f 31//6 29//6 30//6
f 30//5 31//5 32//5
f 32//6 31//6 30//6
f 32//5 31//5 33//5
f 33//6 31//6 32//6
f 32//5 33//5 34//5
f 34//6 33//6 32//6
f 34//5 33//5 35//5
f 35//6 33//6 34//6
f 34//5 35//5 36//5
f 36//6 35//6 34//6
f 36//5 35//5 37//5
f 37//6 35//6 36//6
f 36//5 37//5 38//5
f 38//6 37//6 36//6
f 38//5 37//5 39//5
f 39//6 37//6 38//6
f 38//5 39//5 40//5
f 40//6 39//6 38//6
f 40//5 39//5 41//5
f 41//6 39//6 40//6
f 40//5 41//5 42//5
f 42//6 41//6 40//6
f 42//5 41//5 43//5
f 43//6 41//6 42//6
f 42//5 43//5 44//5
f 44//6 43//6 42//6
f 44//5 43//5 45//5
f 45//6 43//6 44//6
f 44//5 45//5 46//5
f 46//6 45//6 44//6
f 46//5 45//5 47//5
f 47//6 45//6 46//6
f 46//5 47//5 48//5
f 48//6 47//6 46//6
f 48//5 47//5 49//5
f 49//6 47//6 48//6
f 48//5 49//5 50//5
f 50//6 49//6 48//6
f 50//5 49//5 51//5
f 51//6 49//6 50//6
f 50//5 51//5 52//5
f 52//6 51//6 50//6
f 52//5 51//5 53//5
f 53//6 51//6 52//6
f 52//5 53//5 54//5
f 54//6 53//6 52//6
f 54//5 53//5 55//5
f 55//6 53//6 54//6
f 54//5 55//5 56//5
f 56//6 55//6 54//6
f 56//5 55//5 57//5
f 57//6 55//6 56//6
f 56//5 57//5 58//5
f 58//6 57//6 56//6
f 58//5 57//5 59//5
f 59//6 57//6 58//6
f 58//5 59//5 60//5
f 60//6 59//6 58//6
f 61//7 62//7 63//7
f 63//8 62//8 61//8
f 62//7 61//7 64//7
f 64//8 61//8 62//8
f 65//9 66//9 67//9
f 67//10 66//10 65//10
f 66//9 65//9 68//9
f 68//10 65//10 66//10
f 69//11 70//11 71//11
f 71//12 70//12 69//12
f 70//11 69//11 72//11
f 72//12 69//12 70//12
f 73//13 74//13 75//13
f 75//14 74//14 73//14
f 74//13 73//13 76//13
f 76//14 73//14 74//14
f 77//15 78//15 79//15
f 79//16 78//16 77//16
f 78//15 77//15 80//15
f 80//16 77//16 78//16
f 81//17 82//17 83//17
f 83//18 82//18 81//18
f 82//17 81//17 84//17
f 84//18 81//18 82//18
f 85//19 86//19 87//19
f 87//20 86//20 85//20
f 86//19 85//19 88//19
f 88//20 85//20 86//20
f 89//21 90//21 91//21
f 91//22 90//22 89//22
f 90//21 89//21 92//21
f 92//22 89//22 90//22
f 93//23 94//23 95//23
f 95//24 94//24 93//24
f 94//23 93//23 96//23
f 96//24 93//24 94//24
f 97//25 98//25 99//25
f 99//26 98//26 97//26
f 98//25 97//25 100//25
f 100//26 97//26 98//26
f 101//27 102//27 103//27
f 103//28 102//28 101//28
f 102//27 101//27 104//27
f 104//28 101//28 102//28
f 105//29 106//29 107//29
f 107//30 106//30 105//30
f 106//29 105//29 108//29
f 108//30 105//30 106//30
f 109//31 110//31 111//31
f 111//32 110//32 109//32
f 110//31 109//31 112//31
f 112//32 109//32 110//32
f 113//33 114//33 115//33
f 115//34 114//34 113//34
f 114//33 113//33 116//33
f 116//34 113//34 114//34
f 117//35 118//35 119//35
f 119//36 118//36 117//36
f 118//35 117//35 120//35
f 120//36 117//36 118//36
f 121//37 122//37 123//37
f 123//38 122//38 121//38
f 122//37 121//37 124//37
f 124//38 121//38 122//38
f 125//39 126//39 127//39
f 127//40 126//40 125//40
f 126//39 125//39 128//39
f 128//40 125//40 126//40
f 129//41 130//41 131//41
f 131//42 130//42 129//42
f 130//41 129//41 132//41
f 132//42 129//42 130//42
f 133//43 134//43 135//43
f 135//44 134//44 133//44
f 134//43 133//43 136//43
f 136//44 133//44 134//44
f 137//45 138//45 139//45
f 139//46 138//46 137//46
f 138//45 137//45 140//45
f 140//46 137//46 138//46
f 141//8 142//8 143//8
f 143//7 142//7 141//7
f 142//8 141//8 144//8
f 144//7 141//7 142//7
f 145//2 146//2 147//2
f 147//1 146//1 145//1
f 146//2 145//2 148//2
f 148//1 145//1 146//1
f 149//4 150//4 151//4
f 151//3 150//3 149//3
f 150//4 149//4 152//4
f 152//3 149//3 150//3
f 153//10 154//10 155//10
f 155//9 154//9 153//9
f 154//10 153//10 156//10
f 156//9 153//9 154//9
f 157//47 158//47 159//47
f 159//48 158//48 157//48
f 158//47 157//47 160//47
f 160//48 157//48 158//48
f 161//49 162//49 163//49
f 163//50 162//50 161//50
f 162//49 161//49 164//49
f 164//50 161//50 162//50
f 165//51 166//51 167//51
f 167//52 166//52 165//52
f 166//51 165//51 168//51
f 168//52 165//52 166//52
f 169//53 170//53 171//53
f 171//54 170//54 169//54
f 170//53 169//53 172//53
f 172//54 169//54 170//54
f 173//12 174//12 175//12
f 175//11 174//11 173//11
f 174//12 173//12 176//12
f 176//11 173//11 174//11
f 177//14 178//14 179//14
f 179//13 178//13 177//13
f 178//14 177//14 180//14
f 180//13 177//13 178//13
f 181//16 182//16 183//16
f 183//15 182//15 181//15
f 182//16 181//16 184//16
f 184//15 181//15 182//15
f 185//18 186//18 187//18
f 187//17 186//17 185//17
f 186//18 185//18 188//18
f 188//17 185//17 186//17
f 189//20 190//20 191//20
f 191//19 190//19 189//19
f 190//20 189//20 192//20
f 192//19 189//19 190//19
f 193//22 194//22 195//22
f 195//21 194//21 193//21
f 194//22 193//22 196//22
f 196//21 193//21 194//21
f 197//24 198//24 199//24
f 199//23 198//23 197//23
f 198//24 197//24 200//24
f 200//23 197//23 198//23
f 201//26 202//26 203//26
f 203//25 202//25 201//25
f 202//26 201//26 204//26
f 204//25 201//25 202//25
f 204//26 201//26 205//26
f 205//25 201//25 204//25
f 206//28 207//28 208//28
f 208//27 207//27 206//27
f 207//28 206//28 209//28
f 209//27 206//27 207//27
f 210//30 211//30 212//30
f 212//29 211//29 210//29
f 211//30 210//30 213//30
f 213//29 210//29 211//29
f 214//32 215//32 216//32
f 216//31 215//31 214//31
f 215//32 214//32 217//32
f 217//31 214//31 215//31
f 218//34 219//34 220//34
f 220//33 219//33 218//33
f 219//34 218//34 221//34
f 221//33 218//33 219//33
f 222//36 223//36 224//36
f 224//35 223//35 222//35
f 223//36 222//36 225//36
f 225//35 222//35 223//35
f 226//38 227//38 228//38
f 228//37 227//37 226//37
f 227//38 226//38 229//38
f 229//37 226//37 227//37
f 230//40 231//40 232//40
f 232//39 231//39 230//39
f 231//40 230//40 233//40
f 233//39 230//39 231//39
f 234//42 235//42 236//42
f 236//41 235//41 234//41
f 235//42 234//42 237//42
f 237//41 234//41 235//41
f 238//44 239//44 240//44
f 240//43 239//43 238//43
f 239//44 238//44 241//44
f 241//43 238//43 239//43
f 242//46 243//46 244//46
f 244//45 243//45 242//45
f 243//46 242//46 245//46
f 245//45 242//45 243//45
f 246//48 247//48 248//48
f 248//47 247//47 246//47
f 247//48 246//48 249//48
f 249//47 246//47 247//47
f 250//50 251//50 252//50
f 252//49 251//49 250//49
f 251//50 250//50 253//50
f 253//49 250//49 251//49
f 254//52 255//52 256//52
f 256//51 255//51 254//51
f 255//52 254//52 257//52
f 257//51 254//51 255//51
f 258//54 259//54 260//54
f 260//53 259//53 258//53
f 259//54 258//54 261//54
f 261//53 258//53 259//53
