# SSTK version 0.8.0
# 292
mtllib original-292.mtl
o #ID758
v -0.353269 0.010529 -0.015027
v -0.352291 0.010529 -0.014354
v -0.353362 0.010529 -0.014464
v -0.353100 0.010529 -0.015519
v -0.352855 0.010529 -0.015940
v -0.352534 0.010529 -0.016290
v -0.352144 0.010529 -0.016565
v -0.352174 0.010529 -0.015066
v -0.352032 0.010529 -0.015357
v -0.351693 0.010529 -0.016761
v -0.351834 0.010529 -0.015604
v -0.351589 0.010529 -0.015802
v -0.351181 0.010529 -0.016879
v -0.351307 0.010529 -0.015943
v -0.350630 0.010529 -0.016056
v -0.350606 0.010529 -0.016918
v -0.349985 0.010529 -0.015949
v -0.350027 0.010529 -0.016876
v -0.349512 0.010529 -0.016749
v -0.349475 0.010529 -0.015630
v -0.349061 0.010529 -0.016537
v -0.349142 0.010529 -0.015156
v -0.349032 0.010529 -0.014585
v -0.348673 0.010529 -0.016241
v -0.348861 0.010529 -0.012524
v -0.348446 0.010529 -0.013055
v -0.348361 0.010529 -0.015882
v -0.348169 0.010529 -0.013561
v -0.348139 0.010529 -0.015483
v -0.348013 0.010529 -0.014057
v -0.348005 0.010529 -0.015043
v -0.347961 0.010529 -0.014562
v -0.351388 0.010529 -0.011534
v -0.352112 0.010529 -0.009398
v -0.352174 0.010529 -0.010848
v -0.351672 0.010529 -0.009963
v -0.350467 0.010529 -0.011031
v -0.350229 0.010529 -0.012551
v -0.349504 0.010529 -0.011879
v -0.349518 0.010529 -0.013332
v -0.349153 0.010529 -0.013977
v -0.353534 0.010529 -0.008766
v -0.347949 0.010529 -0.008397
v -0.353559 0.010529 -0.008397
v -0.353437 0.010529 -0.009120
v -0.353159 0.010529 -0.009689
v -0.352751 0.010529 -0.010249
v -0.347949 0.010529 -0.009398
v -0.347949 0.010529 -0.009398
v -0.352112 0.010529 -0.009398
v -0.347949 0.010529 -0.008397
v -0.352174 0.010529 -0.010848
v -0.352751 0.010529 -0.010249
v -0.353159 0.010529 -0.009689
v -0.353437 0.010529 -0.009120
v -0.353534 0.010529 -0.008766
v -0.353559 0.010529 -0.008397
v -0.349032 0.010529 -0.014585
v -0.349153 0.010529 -0.013977
v -0.348861 0.010529 -0.012524
v -0.349504 0.010529 -0.011879
v -0.349518 0.010529 -0.013332
v -0.350229 0.010529 -0.012551
v -0.350467 0.010529 -0.011031
v -0.351388 0.010529 -0.011534
v -0.351672 0.010529 -0.009963
v -0.347961 0.010529 -0.014562
v -0.348005 0.010529 -0.015043
v -0.348013 0.010529 -0.014057
v -0.348139 0.010529 -0.015483
v -0.348169 0.010529 -0.013561
v -0.348361 0.010529 -0.015882
v -0.348446 0.010529 -0.013055
v -0.348673 0.010529 -0.016241
v -0.349061 0.010529 -0.016537
v -0.349142 0.010529 -0.015156
v -0.349475 0.010529 -0.015630
v -0.349512 0.010529 -0.016749
v -0.349985 0.010529 -0.015949
v -0.350027 0.010529 -0.016876
v -0.350606 0.010529 -0.016918
v -0.350630 0.010529 -0.016056
v -0.351181 0.010529 -0.016879
v -0.351307 0.010529 -0.015943
v -0.351589 0.010529 -0.015802
v -0.351693 0.010529 -0.016761
v -0.351834 0.010529 -0.015604
v -0.352032 0.010529 -0.015357
v -0.352144 0.010529 -0.016565
v -0.352174 0.010529 -0.015066
v -0.352291 0.010529 -0.014354
v -0.352534 0.010529 -0.016290
v -0.352855 0.010529 -0.015940
v -0.353100 0.010529 -0.015519
v -0.353269 0.010529 -0.015027
v -0.353362 0.010529 -0.014464
vn 0 -1 0
vn 0 1 0
usemtl material_0_0
f 1//1 2//1 3//1
f 2//1 1//1 4//1
f 2//1 4//1 5//1
f 2//1 5//1 6//1
f 2//1 6//1 7//1
f 2//1 7//1 8//1
f 8//1 7//1 9//1
f 9//1 7//1 10//1
f 9//1 10//1 11//1
f 11//1 10//1 12//1
f 12//1 10//1 13//1
f 12//1 13//1 14//1
f 14//1 13//1 15//1
f 15//1 13//1 16//1
f 15//1 16//1 17//1
f 17//1 16//1 18//1
f 17//1 18//1 19//1
f 17//1 19//1 20//1
f 20//1 19//1 21//1
f 20//1 21//1 22//1
f 22//1 21//1 23//1
f 23//1 21//1 24//1
f 23//1 24//1 25//1
f 25//1 24//1 26//1
f 26//1 24//1 27//1
f 26//1 27//1 28//1
f 28//1 27//1 29//1
f 28//1 29//1 30//1
f 30//1 29//1 31//1
f 30//1 31//1 32//1
f 33//1 34//1 35//1
f 34//1 33//1 36//1
f 36//1 33//1 37//1
f 37//1 33//1 38//1
f 37//1 38//1 39//1
f 39//1 38//1 40//1
f 39//1 40//1 41//1
f 39//1 41//1 25//1
f 25//1 41//1 23//1
f 42//1 43//1 44//1
f 43//1 42//1 45//1
f 43//1 45//1 34//1
f 34//1 45//1 46//1
f 34//1 46//1 47//1
f 34//1 47//1 35//1
f 43//1 34//1 48//1
usemtl material_1_0
f 49//2 50//2 51//2
f 52//2 53//2 50//2
f 53//2 54//2 50//2
f 54//2 55//2 50//2
f 50//2 55//2 51//2
f 55//2 56//2 51//2
f 57//2 51//2 56//2
f 58//2 59//2 60//2
f 60//2 59//2 61//2
f 59//2 62//2 61//2
f 62//2 63//2 61//2
f 61//2 63//2 64//2
f 63//2 65//2 64//2
f 64//2 65//2 66//2
f 66//2 65//2 50//2
f 52//2 50//2 65//2
f 67//2 68//2 69//2
f 68//2 70//2 69//2
f 69//2 70//2 71//2
f 70//2 72//2 71//2
f 71//2 72//2 73//2
f 72//2 74//2 73//2
f 73//2 74//2 60//2
f 60//2 74//2 58//2
f 74//2 75//2 58//2
f 58//2 75//2 76//2
f 76//2 75//2 77//2
f 75//2 78//2 77//2
f 77//2 78//2 79//2
f 78//2 80//2 79//2
f 80//2 81//2 79//2
f 79//2 81//2 82//2
f 81//2 83//2 82//2
f 82//2 83//2 84//2
f 84//2 83//2 85//2
f 83//2 86//2 85//2
f 85//2 86//2 87//2
f 87//2 86//2 88//2
f 86//2 89//2 88//2
f 88//2 89//2 90//2
f 90//2 89//2 91//2
f 89//2 92//2 91//2
f 92//2 93//2 91//2
f 93//2 94//2 91//2
f 94//2 95//2 91//2
f 96//2 91//2 95//2
