# SSTK version 0.8.0
# 7
mtllib original-7.mtl
o mesh6/mesh6-geometry#mesh6-geometry
v 0.687847 -0.391815 0.019862
v 0.779895 -0.444923 0.017920
v 0.765723 -0.469453 0.017022
v 0.687847 -0.392075 0.026944
v 0.779895 -0.445183 0.025001
v 0.673675 -0.416345 0.018965
v 0.673675 -0.416605 0.026046
v 0.765723 -0.469713 0.024103
vn 0 0.03656101546015771 -0.9993314225763754
vn 0.4999987739038556 0.8654446086516618 0.03173098565145779
vn 0.866021388375173 -0.49967122408210773 -0.018320008215774407
vn -0.8660256674583319 0.49966380813612987 0.018319992965380533
vn -0.49999995662575564 -0.865443924924041 -0.03173099724738371
vn 0 -0.03656101546015771 0.9993314225763754
vn -0.4999987739038556 -0.8654446086516618 -0.03173098565145779
vn -0.866021388375173 0.49967122408210773 0.018320008215774407
vn 0.8660256674583319 -0.49966380813612987 -0.018319992965380533
vn 0.49999995662575564 0.865443924924041 0.03173099724738371
usemtl material_0_0
f 1//1 2//1 3//1
f 2//2 1//2 4//2
f 2//3 5//3 3//3
f 6//1 1//1 3//1
f 1//4 7//4 4//4
f 2//2 4//2 5//2
f 5//3 8//3 3//3
f 1//4 6//4 7//4
f 3//5 8//5 6//5
f 7//6 8//6 4//6
f 4//6 8//6 5//6
f 6//5 8//5 7//5
usemtl material_1_0
f 3//6 2//6 1//6
f 4//7 1//7 2//7
f 3//8 5//8 2//8
f 3//6 1//6 6//6
f 4//9 7//9 1//9
f 5//7 4//7 2//7
f 3//8 8//8 5//8
f 7//9 6//9 1//9
f 6//10 8//10 3//10
f 4//1 8//1 7//1
f 5//1 8//1 4//1
f 7//10 8//10 6//10
