# SSTK version 0.8.0
# 34
mtllib original-34.mtl
o mesh32/mesh32-geometry#mesh32-geometry
v -0.346406 -0.780729 0.005634
v -0.346284 -0.777041 0.005769
v -0.335884 -0.779231 0.005689
v -0.346406 -0.780987 0.012715
v -0.345259 -0.784235 0.005506
v -0.345259 -0.784494 0.012587
v -0.346284 -0.777301 0.012850
v -0.342981 -0.787138 0.005399
v -0.335884 -0.779489 0.012770
v -0.344908 -0.773620 0.005894
v -0.339846 -0.789086 0.005328
v -0.342981 -0.787396 0.012481
v -0.344908 -0.773878 0.012975
v -0.336234 -0.789846 0.005300
v -0.339846 -0.789345 0.012409
v -0.342443 -0.771132 0.013076
v -0.342443 -0.770874 0.005995
v -0.332580 -0.789326 0.005319
v -0.336234 -0.790106 0.012382
v -0.339188 -0.769394 0.013139
v -0.339188 -0.769135 0.006058
v -0.329324 -0.787588 0.005383
v -0.332580 -0.789585 0.012401
v -0.335533 -0.768874 0.013158
v -0.335533 -0.768614 0.006077
v -0.326859 -0.784842 0.005484
v -0.329324 -0.787847 0.012464
v -0.331921 -0.769634 0.013130
v -0.331921 -0.769374 0.006049
v -0.325483 -0.781419 0.005609
v -0.326859 -0.785101 0.012565
v -0.328787 -0.771582 0.013059
v -0.328787 -0.771323 0.005978
v -0.325361 -0.777733 0.005743
v -0.325483 -0.781678 0.012690
v -0.326509 -0.774485 0.012953
v -0.326509 -0.774225 0.005872
v -0.325361 -0.777991 0.012825
vn 0 0.03656800610347499 -0.9993311667958806
vn -0.9994558817698733 0.03296199610077738 0.0012029998576917418
vn 0.000004000000325822039 0.03654300297662869 -0.9993320814010976
vn -0.9505045599497582 -0.31050385624761545 -0.011332994753221299
vn -0.9994555450474397 0.03297198499113936 0.0012089994496629712
vn -0.000014999997564638094 0.03657699406145117 -0.9993308377511567
vn -0.9504738163513679 -0.3105959399872794 -0.011387997799634052
vn 0 -0.03657100209182482 0.9993310571607388
vn -0.000004000000764320218 -0.0365400069820652 0.9993321909524132
vn -0.9278673141490177 0.372660126171933 0.013663004625897923
vn 0.00001999999870167013 0.036546997627496906 -0.9993319351268706
vn -0.7868300558248078 -0.6167590437584389 -0.02251100159713311
vn -0.7867087569298462 -0.6169098093927886 -0.02261899301138819
vn -0.00000599999719912996 -0.03655798293429885 0.9993315335001569
vn -0.000011000001030799147 -0.03657000342693862 0.9993310936463219
vn 0.000003999998180397242 0.03658498335745828 -0.9993305454036391
vn -0.9279112471334192 0.37255309922319785 0.013598003621597582
vn -0.000029000006949011503 0.03656600876198464 -0.9993312394607796
vn -0.5282006420266618 -0.8485494249191573 -0.03111197891471902
vn -0.5284299789156442 -0.8484119661483632 -0.030965998764456673
vn 0.000002000000480079173 -0.03656600877728752 0.9993312398790001
vn 0.0000019999995781711336 -0.03655099229086655 0.9993317892264577
vn -0.000012000005512173802 0.03656001679375618 -0.999331459040513
vn -0.7444140147032936 0.6672740131796627 0.024355000481047797
vn 0.000030000009381649406 0.036564011434354296 -0.999331312512436
vn -0.2060719586626905 -0.9778798038407536 -0.03585299280801585
vn -0.20607003620486 -0.9778801718057382 -0.03585400629926263
vn -0.000010000004228092685 -0.03656101545832966 0.9993314225264088
vn -0.000005999997637813395 -0.03655598560798441 0.9993316065652226
vn -0.000010000004228092685 0.03656101545832966 -0.9993314225264088
vn 0.000005999997637813395 0.03655598560798441 -0.9993316065652226
vn 0.14108201984396343 -0.9893331391551571 -0.03627400510213868
vn 0.14108104486526074 -0.989333314618432 -0.036273011535200364
vn 0.00001000000386247724 -0.036562014121989284 0.9993313859893241
vn 0.000007999998020032735 -0.03655199095352957 0.9993317526694191
vn -0.47111282806952476 0.8814806783076519 0.03231898820533284
vn -0.4713592298447151 0.8813544297670332 0.03216901568629143
vn -0.00001000000386247724 0.036562014121989284 -0.9993313859893241
vn -0.0000019999995781711336 0.03655099229086655 -0.9993317892264577
vn 0.47111282806952476 -0.8814806783076519 -0.03231898820533284
vn -0.0000010000002766066148 -0.036565010114120874 0.9993312764215649
vn -0.000007999998312444534 -0.036550992289770025 0.9993317891964778
vn -0.14107501959130092 0.9893341373903252 0.03627400503742584
vn 0.000010000004228092685 0.03656101545832966 -0.9993314225264088
vn 0.000011000001030799147 0.03657000342693862 -0.9993310936463219
vn 0.7443941393297528 -0.6672921248984133 -0.024466004579351438
vn 0.000008999996127509498 -0.03655698427037386 0.9993315700107025
vn -0.00001999999870167013 -0.036546997627496906 0.9993319351268706
vn 0.20607003620486 0.9778801718057382 0.03585400629926263
vn -0.000013000001217905174 0.03657000342606094 -0.999331093622338
vn 0.000004000000764320218 0.0365400069820652 -0.9993321909524132
vn 0.9279111671154244 -0.3725510670958944 -0.013659002459966076
vn -9.99999947481004e-7 -0.03657399807917024 0.9993309475161393
vn 0.000014999997564638094 -0.03657699406145117 0.9993308377511567
vn 0.5282006584597546 0.8485494513187682 0.031110979883304697
vn 0.5282018112341754 0.848548696750388 0.03111198888137052
vn 0.000011999998783968183 0.03654799629637243 -0.9993318987317078
vn 0 0.03657100209182482 -0.9993310571607388
vn 0.9994555193249766 -0.032972984142075744 -0.0012029994214332064
vn 0.9994558745378123 -0.032961995862264434 -0.0012089998482336542
vn 0 -0.03656800610347499 0.9993311667958806
vn -0.000004000000325822039 -0.03654300297662869 0.9993320814010976
vn 0.7868490874559203 0.6167310685478118 0.02261200251325638
vn 0.7868482213121092 0.6167321734645824 0.022612006359944252
vn 0.950492793985937 0.31053793269261837 0.011385997532147927
vn 0.9504619783085569 0.3106339929107111 0.011337999741244172
vn 0.9994558817698733 -0.03296199610077738 -0.0012029998576917418
vn 0.9505045599497582 0.31050385624761545 0.011332994753221299
vn 0.9994555450474397 -0.03297198499113936 -0.0012089994496629712
vn 0.9504738163513679 0.3105959399872794 0.011387997799634052
vn 0.9278673141490177 -0.372660126171933 -0.013663004625897923
vn 0.7868300558248078 0.6167590437584389 0.02251100159713311
vn 0.7867087569298462 0.6169098093927886 0.02261899301138819
vn 0.00000599999719912996 0.03655798293429885 -0.9993315335001569
vn -0.000003999998180397242 -0.03658498335745828 0.9993305454036391
vn 0.9279112471334192 -0.37255309922319785 -0.013598003621597582
vn 0.000029000006949011503 -0.03656600876198464 0.9993312394607796
vn 0.5282006420266618 0.8485494249191573 0.03111197891471902
vn 0.5284299789156442 0.8484119661483632 0.030965998764456673
vn -0.000002000000480079173 0.03656600877728752 -0.9993312398790001
vn 0.000012000005512173802 -0.03656001679375618 0.999331459040513
vn 0.7444140147032936 -0.6672740131796627 -0.024355000481047797
vn -0.000030000009381649406 -0.036564011434354296 0.999331312512436
vn 0.2060719586626905 0.9778798038407536 0.03585299280801585
vn 0.000010000004228092685 -0.03656101545832966 0.9993314225264088
vn -0.14108201984396343 0.9893331391551571 0.03627400510213868
vn -0.14108104486526074 0.989333314618432 0.036273011535200364
vn -0.000007999998020032735 0.03655199095352957 -0.9993317526694191
vn 0.4713592298447151 -0.8813544297670332 -0.03216901568629143
vn 0.0000010000002766066148 0.036565010114120874 -0.9993312764215649
vn 0.000007999998312444534 0.036550992289770025 -0.9993317891964778
vn 0.14107501959130092 -0.9893341373903252 -0.03627400503742584
vn -0.7443941393297528 0.6672921248984133 0.024466004579351438
vn -0.000008999996127509498 0.03655698427037386 -0.9993315700107025
vn 0.000013000001217905174 -0.03657000342606094 0.999331093622338
vn -0.9279111671154244 0.3725510670958944 0.013659002459966076
vn 9.99999947481004e-7 0.03657399807917024 -0.9993309475161393
vn -0.5282006584597546 -0.8485494513187682 -0.031110979883304697
vn -0.5282018112341754 -0.848548696750388 -0.03111198888137052
vn -0.000011999998783968183 -0.03654799629637243 0.9993318987317078
vn -0.9994555193249766 0.032972984142075744 0.0012029994214332064
vn -0.9994558745378123 0.032961995862264434 0.0012089998482336542
vn -0.7868490874559203 -0.6167310685478118 -0.02261200251325638
vn -0.7868482213121092 -0.6167321734645824 -0.022612006359944252
vn -0.950492793985937 -0.31053793269261837 -0.011385997532147927
vn -0.9504619783085569 -0.3106339929107111 -0.011337999741244172
usemtl material_0_0
f 1//1 2//1 3//1
f 2//2 1//2 4//2
f 1//3 3//3 5//3
f 1//4 6//4 4//4
f 2//5 4//5 7//5
f 5//6 3//6 8//6
f 1//7 5//7 6//7
f 4//8 6//8 9//8
f 4//9 9//9 7//9
f 10//10 2//10 7//10
f 8//11 3//11 11//11
f 5//12 8//12 12//12
f 5//13 12//13 6//13
f 6//14 12//14 9//14
f 7//15 9//15 13//15
f 2//16 10//16 3//16
f 10//17 7//17 13//17
f 11//18 3//18 14//18
f 11//19 15//19 8//19
f 8//20 15//20 12//20
f 12//21 15//21 9//21
f 13//22 9//22 16//22
f 10//23 17//23 3//23
f 17//24 10//24 13//24
f 14//25 3//25 18//25
f 14//26 19//26 11//26
f 11//27 19//27 15//27
f 15//28 19//28 9//28
f 16//29 9//29 20//29
f 17//24 13//24 16//24
f 17//30 21//30 3//30
f 3//31 22//31 18//31
f 14//32 18//32 23//32
f 14//33 23//33 19//33
f 19//34 23//34 9//34
f 20//35 9//35 24//35
f 21//36 16//36 20//36
f 17//37 16//37 21//37
f 21//38 25//38 3//38
f 3//39 26//39 22//39
f 18//40 22//40 27//40
f 18//40 27//40 23//40
f 9//41 23//41 27//41
f 9//42 28//42 24//42
f 25//43 20//43 24//43
f 21//43 20//43 25//43
f 3//44 25//44 29//44
f 3//45 30//45 26//45
f 26//46 31//46 22//46
f 31//46 27//46 22//46
f 9//47 27//47 31//47
f 9//48 32//48 28//48
f 29//49 24//49 28//49
f 29//49 25//49 24//49
f 3//50 29//50 33//50
f 3//51 34//51 30//51
f 30//52 35//52 26//52
f 35//52 31//52 26//52
f 9//53 31//53 35//53
f 9//54 36//54 32//54
f 33//55 28//55 32//55
f 33//56 29//56 28//56
f 3//57 33//57 37//57
f 3//58 37//58 34//58
f 34//59 38//59 30//59
f 38//60 35//60 30//60
f 9//61 35//61 38//61
f 9//62 38//62 36//62
f 32//63 36//63 37//63
f 33//64 32//64 37//64
f 37//65 36//65 34//65
f 36//66 38//66 34//66
usemtl material_1_0
f 3//61 2//61 1//61
f 4//67 1//67 2//67
f 5//62 3//62 1//62
f 4//68 6//68 1//68
f 7//69 4//69 2//69
f 8//54 3//54 5//54
f 6//70 5//70 1//70
f 9//58 6//58 4//58
f 7//51 9//51 4//51
f 7//71 2//71 10//71
f 11//48 3//48 8//48
f 12//72 8//72 5//72
f 6//73 12//73 5//73
f 9//74 12//74 6//74
f 13//45 9//45 7//45
f 3//75 10//75 2//75
f 13//76 7//76 10//76
f 14//77 3//77 11//77
f 8//78 15//78 11//78
f 12//79 15//79 8//79
f 9//80 15//80 12//80
f 16//39 9//39 13//39
f 3//81 17//81 10//81
f 13//82 10//82 17//82
f 18//83 3//83 14//83
f 11//84 19//84 14//84
f 15//49 19//49 11//49
f 9//44 19//44 15//44
f 20//31 9//31 16//31
f 16//82 13//82 17//82
f 3//85 21//85 17//85
f 18//29 22//29 3//29
f 23//86 18//86 14//86
f 19//87 23//87 14//87
f 9//38 23//38 19//38
f 24//88 9//88 20//88
f 20//40 16//40 21//40
f 21//89 16//89 17//89
f 3//34 25//34 21//34
f 22//22 26//22 3//22
f 27//36 22//36 18//36
f 23//36 27//36 18//36
f 27//90 23//90 9//90
f 24//91 28//91 9//91
f 24//92 20//92 25//92
f 25//92 20//92 21//92
f 29//28 25//28 3//28
f 26//15 30//15 3//15
f 22//93 31//93 26//93
f 22//93 27//93 31//93
f 31//94 27//94 9//94
f 28//11 32//11 9//11
f 28//27 24//27 29//27
f 24//27 25//27 29//27
f 33//95 29//95 3//95
f 30//9 34//9 3//9
f 26//96 35//96 30//96
f 26//96 31//96 35//96
f 35//97 31//97 9//97
f 32//6 36//6 9//6
f 32//98 28//98 33//98
f 28//99 29//99 33//99
f 37//100 33//100 3//100
f 34//8 37//8 3//8
f 30//101 38//101 34//101
f 30//102 35//102 38//102
f 38//1 35//1 9//1
f 36//3 38//3 9//3
f 37//103 36//103 32//103
f 37//104 32//104 33//104
f 34//105 36//105 37//105
f 34//106 38//106 36//106
