# SSTK version 0.8.0
# 31
mtllib original-31.mtl
o mesh29/mesh29-geometry#mesh29-geometry
v 0.643995 -0.149614 0.028723
v 0.646185 -0.139220 0.029104
v 0.647684 -0.149735 0.028719
v 0.640570 -0.148238 0.028774
v 0.651193 -0.148589 0.028761
v 0.647684 -0.149995 0.035800
v 0.637822 -0.145775 0.028864
v 0.643995 -0.149873 0.035804
v 0.654097 -0.146312 0.028844
v 0.651193 -0.148849 0.035842
v 0.636083 -0.142522 0.028983
v 0.640570 -0.148498 0.035855
v 0.656047 -0.143180 0.028959
v 0.654097 -0.146572 0.035925
v 0.646185 -0.139479 0.036185
v 0.635562 -0.138870 0.029117
v 0.637822 -0.146035 0.035945
v 0.656808 -0.139570 0.029091
v 0.656047 -0.143440 0.036040
v 0.636322 -0.135261 0.029249
v 0.636083 -0.142782 0.036064
v 0.656287 -0.135919 0.029225
v 0.656808 -0.139830 0.036172
v 0.635562 -0.139129 0.036198
v 0.638273 -0.132128 0.029363
v 0.654548 -0.132664 0.029344
v 0.656287 -0.136177 0.036306
v 0.636322 -0.135519 0.036330
v 0.641177 -0.129852 0.029446
v 0.651800 -0.130201 0.029434
v 0.654548 -0.132924 0.036425
v 0.638273 -0.132387 0.036444
v 0.644685 -0.128705 0.029488
v 0.648375 -0.128826 0.029484
v 0.651800 -0.130461 0.036515
v 0.641177 -0.130110 0.036527
v 0.648375 -0.129086 0.036565
v 0.644685 -0.128964 0.036569
vn 0.00001699999330498745 0.036555985603360076 -0.999331606438807
vn 0.000006999996732272788 0.03655798293406122 -0.9993315334936614
vn 0.000008999996785516721 0.03655498694384041 -0.9993316430737774
vn -0.03297000788766321 -0.9987852389469122 -0.036620008760880396
vn -0.000019999998214140242 0.03657499673410897 -0.999330910766749
vn -0.37283400350743595 -0.9272750087233397 -0.03399800031983619
vn -0.000024000007209975246 0.03653701097628607 -0.9993323002149577
vn 0.3107068481883604 -0.9498675358938855 -0.03482698298350544
vn 0 0.036549993627070565 -0.9993318257545193
vn -0.6676750160208622 -0.7439530178511529 -0.027276000654487646
vn -0.3728348645017684 -0.9272746630034123 -0.0339979876442156
vn 0.000003000000500709126 0.036568006103310444 -0.9993311667913838
vn 0.6172291359771368 -0.7862551732139994 -0.028827006350662262
vn 0.6172302225115353 -0.7862542834447203 -0.02882801039249962
vn -0.000006000001878921883 -0.03656401145014996 0.9993313129441473
vn -0.000018000004317832557 -0.03656600877143696 0.999331239719107
vn -0.882053566041219 -0.4708327683564558 -0.01726299150683469
vn -0.667673946879529 -0.7439539408106548 -0.0272769978298285
vn 0.00002799999647030667 -0.036575995389212024 0.9993308740238583
vn 0.000007999998116536666 0.03657899138809934 -0.9993307647245878
vn 0.849046089633376 -0.5279640557369043 -0.019357002043509135
vn -0.000005000001565795736 -0.036564011450351055 0.9993313129496436
vn -0.0000029999991479373627 0.03655298961818481 -0.9993317161688469
vn -0.0000029999984899301396 0.036558981597785326 -0.9993314969796221
vn -0.9899912433012679 -0.14103403466066966 -0.005171001270830601
vn -0.000011999997468186803 -0.03655099228830798 0.9993317891565044
vn 0.000007000000144221006 0.03657200075349295 -0.9993310205892173
vn 0.9785548804509361 -0.20584797485176032 -0.007546999077990726
vn -0.000007000001680119605 -0.036566008776464785 0.999331239856515
vn -0.9785253598659774 0.20598807575490966 0.007552002777351484
vn -9.999995697632775e-7 0.036556984271836145 -0.9993315700506757
vn -0.000008999996785516721 -0.03655498694384041 0.9993316430737774
vn 0.00001600000013196 0.03654500030140489 -0.9993320082419908
vn 0.9900070521926783 0.14092400742944342 0.00514400027118913
vn 0.9900133415373364 0.14087904860081477 0.0051650017818355345
vn 0.000003000000463629107 -0.036541005647157065 0.9993321544398011
vn -0.9785389166275094 0.2059249824549863 0.007515999359629366
vn -0.8491344581905298 0.527825284813017 0.01926501039534462
vn 0.00001299999979161651 0.036572999413753124 -0.9993309839812243
vn -0.000007000003215767217 -0.036560016795492783 0.9993314590879812
vn 0.000011999997468186803 0.03655099228830798 -0.9993317891565044
vn 0.8820908932449562 0.47076294302591826 0.017259997911108882
vn 0.8820207987255227 0.47089689254275396 0.017187996077751302
vn 0.0000029999984899301396 -0.036558981597785326 0.9993314969796221
vn -0.000007999998116536666 -0.03657899138809934 0.9993307647245878
vn -0.849046089633376 0.5279640557369043 0.019357002043509135
vn -0.6170340488971736 0.7864080623193026 0.028833002284885775
vn -0.000006000002098303102 0.036563012786709384 -0.9993313494832228
vn 0.0000059999978571461465 0.0365549869446629 -0.9993316430962623
vn 0.6676739650913353 0.7439539611031121 0.027275998573901727
vn 0.6676749978090246 0.7439529975587182 0.027276999910490526
vn 0 -0.036549993627070565 0.9993318257545193
vn -0.000003000000500709126 -0.036568006103310444 0.9993311667913838
vn -0.6172289996157749 0.786259999510553 0.028697999982135493
vn -0.3109929229767033 0.9497797647690246 0.034666991414061966
vn -0.00002200001010191196 0.036560016787540964 -0.9993314588706262
vn 0.37283400350743595 0.9272750087233397 0.03399800031983619
vn 0.000019999998214140242 -0.03657499673410897 0.999330910766749
vn 0.000024000007209975246 -0.03653701097628607 0.9993323002149577
vn -0.3107068481883604 0.9498675358938855 0.03482698298350544
vn 0.032971006800831364 0.9987852060164494 0.036620007553499874
vn 0.03297000909500905 0.9987852755219477 0.03661901010161166
vn -0.000006999996732272788 -0.03655798293406122 0.9993315334936614
vn -0.00001699999330498745 -0.036555985603360076 0.999331606438807
vn 0.03297000788766321 0.9987852389469122 0.036620008760880396
vn 0.6676750160208622 0.7439530178511529 0.027276000654487646
vn 0.3728348645017684 0.9272746630034123 0.0339979876442156
vn -0.6172291359771368 0.7862551732139994 0.028827006350662262
vn -0.6172302225115353 0.7862542834447203 0.02882801039249962
vn 0.000006000001878921883 0.03656401145014996 -0.9993313129441473
vn 0.000018000004317832557 0.03656600877143696 -0.999331239719107
vn 0.882053566041219 0.4708327683564558 0.01726299150683469
vn 0.667673946879529 0.7439539408106548 0.0272769978298285
vn -0.00002799999647030667 0.036575995389212024 -0.9993308740238583
vn 0.000005000001565795736 0.036564011450351055 -0.9993313129496436
vn 0.0000029999991479373627 -0.03655298961818481 0.9993317161688469
vn -0.000007000000144221006 -0.03657200075349295 0.9993310205892173
vn -0.9785548804509361 0.20584797485176032 0.007546999077990726
vn 0.000007000001680119605 0.036566008776464785 -0.999331239856515
vn 0.9785253598659774 -0.20598807575490966 -0.007552002777351484
vn 9.999995697632775e-7 -0.036556984271836145 0.9993315700506757
vn 0.9899912433012679 0.14103403466066966 0.005171001270830601
vn -0.00001600000013196 -0.03654500030140489 0.9993320082419908
vn -0.9900070521926783 -0.14092400742944342 -0.00514400027118913
vn -0.9900133415373364 -0.14087904860081477 -0.0051650017818355345
vn -0.000003000000463629107 0.036541005647157065 -0.9993321544398011
vn 0.9785389166275094 -0.2059249824549863 -0.007515999359629366
vn 0.8491344581905298 -0.527825284813017 -0.01926501039534462
vn -0.00001299999979161651 -0.036572999413753124 0.9993309839812243
vn 0.000007000003215767217 0.036560016795492783 -0.9993314590879812
vn -0.8820908932449562 -0.47076294302591826 -0.017259997911108882
vn -0.8820207987255227 -0.47089689254275396 -0.017187996077751302
vn 0.6170340488971736 -0.7864080623193026 -0.028833002284885775
vn 0.000006000002098303102 -0.036563012786709384 0.9993313494832228
vn -0.0000059999978571461465 -0.0365549869446629 0.9993316430962623
vn -0.6676739650913353 -0.7439539611031121 -0.027275998573901727
vn -0.6676749978090246 -0.7439529975587182 -0.027276999910490526
vn 0.6172289996157749 -0.786259999510553 -0.028697999982135493
vn 0.3109929229767033 -0.9497797647690246 -0.034666991414061966
vn 0.00002200001010191196 -0.036560016787540964 0.9993314588706262
vn -0.032971006800831364 -0.9987852060164494 -0.036620007553499874
vn -0.03297000909500905 -0.9987852755219477 -0.03661901010161166
usemtl material_0_0
f 1//1 2//1 3//1
f 4//2 2//2 1//2
f 2//3 5//3 3//3
f 3//4 6//4 1//4
f 7//5 2//5 4//5
f 1//6 8//6 4//6
f 2//7 9//7 5//7
f 3//8 5//8 10//8
f 3//8 10//8 6//8
f 1//4 6//4 8//4
f 11//9 2//9 7//9
f 4//10 12//10 7//10
f 4//11 8//11 12//11
f 2//12 13//12 9//12
f 5//13 9//13 14//13
f 5//14 14//14 10//14
f 15//15 6//15 10//15
f 8//16 6//16 15//16
f 11//17 7//17 17//17
f 7//18 12//18 17//18
f 12//19 8//19 15//19
f 2//20 18//20 13//20
f 13//21 19//21 9//21
f 19//21 14//21 9//21
f 15//22 10//22 14//22
f 16//23 20//23 2//23
f 16//24 2//24 11//24
f 16//25 11//25 21//25
f 11//17 17//17 21//17
f 17//26 12//26 15//26
f 2//27 22//27 18//27
f 18//28 23//28 13//28
f 23//28 19//28 13//28
f 15//29 14//29 19//29
f 20//30 16//30 24//30
f 20//31 25//31 2//31
f 16//25 21//25 24//25
f 21//32 17//32 15//32
f 2//33 26//33 22//33
f 22//34 27//34 18//34
f 27//35 23//35 18//35
f 15//36 19//36 23//36
f 20//37 24//37 28//37
f 25//38 20//38 28//38
f 25//39 29//39 2//39
f 24//40 21//40 15//40
f 2//41 30//41 26//41
f 26//42 31//42 22//42
f 31//43 27//43 22//43
f 15//44 23//44 27//44
f 24//45 15//45 28//45
f 25//46 28//46 32//46
f 25//47 32//47 29//47
f 29//48 33//48 2//48
f 2//49 34//49 30//49
f 26//50 30//50 35//50
f 26//51 35//51 31//51
f 15//52 27//52 31//52
f 28//53 15//53 32//53
f 29//54 32//54 36//54
f 29//55 36//55 33//55
f 33//56 34//56 2//56
f 30//57 34//57 37//57
f 30//57 37//57 35//57
f 15//58 31//58 35//58
f 32//59 15//59 36//59
f 33//60 36//60 38//60
f 34//61 33//61 38//61
f 34//62 38//62 37//62
f 15//63 35//63 37//63
f 36//32 15//32 38//32
f 38//64 15//64 37//64
usemtl material_1_0
f 3//64 2//64 1//64
f 1//63 2//63 4//63
f 3//32 5//32 2//32
f 1//65 6//65 3//65
f 4//58 2//58 7//58
f 4//57 8//57 1//57
f 5//59 9//59 2//59
f 10//60 5//60 3//60
f 6//60 10//60 3//60
f 8//65 6//65 1//65
f 7//52 2//52 11//52
f 7//66 12//66 4//66
f 12//67 8//67 4//67
f 9//53 13//53 2//53
f 14//68 9//68 5//68
f 10//69 14//69 5//69
f 10//70 6//70 15//70
f 15//71 6//71 8//71
f 11//44 2//44 16//44
f 17//72 7//72 11//72
f 17//73 12//73 7//73
f 15//74 8//74 12//74
f 13//45 18//45 2//45
f 9//46 19//46 13//46
f 9//46 14//46 19//46
f 14//75 10//75 15//75
f 2//76 20//76 16//76
f 21//72 17//72 11//72
f 15//41 12//41 17//41
f 18//77 22//77 2//77
f 13//78 23//78 18//78
f 13//78 19//78 23//78
f 19//79 14//79 15//79
f 24//80 16//80 20//80
f 2//81 25//81 20//81
f 21//82 11//82 16//82
f 24//82 21//82 16//82
f 15//3 17//3 21//3
f 22//83 26//83 2//83
f 18//84 27//84 22//84
f 18//85 23//85 27//85
f 23//86 19//86 15//86
f 28//87 24//87 20//87
f 28//88 20//88 25//88
f 2//89 29//89 25//89
f 15//90 21//90 24//90
f 26//26 30//26 2//26
f 22//91 31//91 26//91
f 22//92 27//92 31//92
f 27//24 23//24 15//24
f 32//21 28//21 25//21
f 29//93 32//93 25//93
f 2//94 33//94 29//94
f 28//20 15//20 24//20
f 30//95 34//95 2//95
f 35//96 30//96 26//96
f 31//97 35//97 26//97
f 31//9 27//9 15//9
f 32//12 15//12 28//12
f 36//98 32//98 29//98
f 33//99 36//99 29//99
f 2//100 34//100 33//100
f 37//6 34//6 30//6
f 35//6 37//6 30//6
f 35//5 31//5 15//5
f 36//7 15//7 32//7
f 38//8 36//8 33//8
f 38//101 33//101 34//101
f 37//102 38//102 34//102
f 37//2 35//2 15//2
f 38//3 15//3 36//3
f 37//1 15//1 38//1
