mtllib new-9.mtl
v -0.038876 -0.136270 0.710648
v -0.055024 -0.136270 0.462524
v -0.055024 -0.136270 0.599054
v -0.055024 -0.136270 0.654745
v -0.077988 -0.168967 0.583833
v -0.066039 -0.136270 0.640634
v -0.363683 -0.136270 0.599054
v -0.073359 -0.136270 0.610553
v -0.208706 -0.136270 0.640634
v -0.208706 -0.136270 0.610553
v -0.071745 -0.132346 0.639431
v -0.210686 -0.136270 0.610553
v -0.204460 -0.132346 0.611448
v -0.078555 -0.132346 0.611448
v -0.204460 -0.132346 0.639431
vn 0.000000 1.000000 0.000000
vn 0.000000 -1.000000 0.000000
vn 0.000000 -0.422018 0.906588
vn -0.580935 -0.801577 0.141383
vn 0.000000 -0.293190 -0.956054
vn 0.000000 -0.222444 0.974945
vn 0.000000 0.422018 -0.906588
vn 0.000000 0.222444 -0.974945
vn 0.580935 0.801577 -0.141383
vn 0.000000 0.293190 0.956054
usemtl material-0
f 3//1 1//1 2//1
f 3//1 6//1 4//1
f 3//1 8//1 6//1
f 3//1 10//1 8//1
f 3//1 12//1 10//1
usemtl material-1
f 2//2 1//2 3//2
f 4//2 6//2 3//2
f 3//3 7//3 5//3
f 6//2 8//2 3//2
f 8//2 10//2 3//2
f 6//4 11//4 8//4
f 10//2 12//2 3//2
f 10//6 8//6 13//6
f 14//4 8//4 11//4
f 15//5 11//5 9//5
f 14//6 13//6 8//6
f 14//2 11//2 13//2
f 15//2 13//2 11//2
usemtl material-4
f 5//7 7//7 3//7
f 13//8 8//8 10//8
f 8//8 13//8 14//8
usemtl material-9
f 8//9 11//9 6//9
f 11//9 8//9 14//9
f 9//10 11//10 15//10
f 13//1 11//1 14//1
f 11//1 13//1 15//1