# SSTK version 0.8.0
# 327
mtllib original-327.mtl
o mesh270/mesh270-geometry#mesh270-geometry
v -0.512695 -0.131764 0.315199
v -0.515176 -0.131973 0.317444
v -0.514953 -0.131974 0.317618
v -0.515378 -0.131971 0.317238
v -0.514712 -0.131974 0.317756
v -0.515555 -0.131970 0.317003
v -0.514458 -0.131975 0.317857
v -0.515704 -0.131969 0.316743
v -0.514194 -0.131975 0.317918
v -0.515823 -0.131967 0.316462
v -0.513926 -0.131975 0.317938
v -0.515909 -0.131965 0.316166
v -0.462396 -0.131764 0.315199
v -0.515962 -0.131963 0.315859
v -0.461164 -0.131975 0.317938
v -0.512695 -0.131531 0.274560
v -0.515979 -0.131962 0.315547
v -0.460896 -0.131975 0.317918
v -0.462396 -0.131648 0.294880
v -0.515979 -0.131712 0.272039
v -0.460633 -0.131975 0.317857
v -0.459111 -0.131712 0.272039
v -0.462396 -0.131531 0.274560
v -0.515962 -0.131710 0.271727
v -0.460379 -0.131974 0.317756
v -0.459111 -0.131962 0.315547
v -0.461164 -0.131698 0.269649
v -0.515909 -0.131708 0.271421
v -0.460138 -0.131974 0.317618
v -0.459129 -0.131963 0.315859
v -0.459129 -0.131710 0.271727
v -0.513926 -0.131698 0.269649
v -0.460896 -0.131698 0.269669
v -0.515823 -0.131706 0.271125
v -0.459915 -0.131973 0.317444
v -0.459181 -0.131965 0.316166
v -0.459181 -0.131708 0.271421
v -0.514194 -0.131698 0.269669
v -0.460633 -0.131698 0.269730
v -0.515704 -0.131705 0.270844
v -0.459713 -0.131971 0.317238
v -0.459268 -0.131967 0.316462
v -0.459268 -0.131706 0.271125
v -0.514458 -0.131698 0.269730
v -0.460379 -0.131699 0.269831
v -0.515555 -0.131703 0.270584
v -0.459536 -0.131970 0.317003
v -0.459386 -0.131969 0.316743
v -0.459386 -0.131705 0.270844
v -0.514712 -0.131699 0.269831
v -0.460138 -0.131700 0.269969
v -0.515378 -0.131702 0.270349
v -0.459536 -0.131703 0.270584
v -0.514953 -0.131700 0.269969
v -0.459915 -0.131701 0.270143
v -0.515176 -0.131701 0.270143
v -0.459713 -0.131702 0.270349
vn -0.03632203488695347 0.997964255759233 0.05242188482486338
vn -0.04165708623780262 0.9980478275291258 0.04653193667330768
vn -0.03012487964185441 0.9978503873734121 0.05819876326259248
vn -0.046211655532574815 0.9981085923002745 0.04054282759382926
vn -0.022964750723441854 0.997696165334151 0.06383558491735324
vn -0.050050237824486886 0.9981520579264387 0.03445929411534208
vn -0.014720302784766218 0.997487994291855 0.06928934932251093
vn -0.05322176572491493 0.9981822124595301 0.02827922174529875
vn -0.005247756070951412 0.9972076708839207 0.07449377280340755
vn -0.05576023309759729 0.9982018990959302 0.021994659492249272
vn 0 0.9970433332107019 0.07684134108728972
vn -0.05768619789730109 0.998212973035241 0.015593685782994627
vn 0 0.9999834708282482 0.005749614794923561
vn -0.05900664065028632 0.9982164683169158 0.009060835506275995
vn 0.005247756070951412 0.9972076708839207 0.07449377280340755
vn -0.05935894120901858 0.9982202033841339 0.005739482057017681
vn 0.014720302784766218 0.997487994291855 0.06928934932251093
vn 0.05935894120901858 0.9982202033841339 0.005739482057017681
vn -0.05691029878328137 0.9983760722504368 0.0025369765841025006
vn 0.022964750723441854 0.997696165334151 0.06383558491735324
vn 0 0.9994216756692034 -0.03400462031198061
vn -0.05200215676428117 0.9986420317226015 -0.003141364165119796
vn 0.03012487964185441 0.9978503873734121 0.05819876326259248
vn 0.05900664065028632 0.9982164683169158 0.009060835506275995
vn 0.05691029878328137 0.9983760722504368 0.0025369765841025006
vn 0.002976867699664421 0.9994423443243988 -0.033258662481355325
vn -0.047241351983876315 0.9988512370196693 -0.008028758746665096
vn 0.03632203488695347 0.997964255759233 0.05242188482486338
vn 0.05768619789730109 0.998212973035241 0.015593685782994627
vn 0.05200215676428117 0.9986420317226015 -0.003141364165119796
vn -0.002976867699664421 0.9994423443243988 -0.033258662481355325
vn 0.008632795242592374 0.9994656829435059 -0.03152496573465465
vn -0.042575059195220616 0.9990177154752063 -0.012286923993542816
vn 0.04165708623780262 0.9980478275291258 0.04653193667330768
vn 0.05576023309759729 0.9982018990959302 0.021994659492249272
vn 0.047241351983876315 0.9988512370196693 -0.008028758746665096
vn -0.008632795242592374 0.9994656829435059 -0.03152496573465465
vn 0.013963105266429587 0.9994649140967334 -0.02957899898455117
vn -0.037955430076353595 0.9991507706893771 -0.016035047818543015
vn 0.046211655532574815 0.9981085923002745 0.04054282759382926
vn 0.05322176572491493 0.9981822124595301 0.02827922174529875
vn 0.042575059195220616 0.9990177154752063 -0.012286923993542816
vn -0.013963105266429587 0.9994649140967334 -0.02957899898455117
vn 0.019040646316999144 0.9994428608492041 -0.02741207189158346
vn -0.03333737536496725 0.9992565831759624 -0.01936234446744885
vn 0.050050237824486886 0.9981520579264387 0.03445929411534208
vn 0.037955430076353595 0.9991507706893771 -0.016035047818543015
vn -0.019040646316999144 0.9994428608492041 -0.02741207189158346
vn 0.023927114480245315 0.999400899423419 -0.02500670758637359
vn -0.02867646393256443 0.9993391634735851 -0.022335997050490407
vn 0.03333737536496725 0.9992565831759624 -0.01936234446744885
vn -0.023927114480245315 0.999400899423419 -0.02500670758637359
vn 0.02867646393256443 0.9993391634735851 -0.022335997050490407
vn 0.03632203488695347 -0.997964255759233 -0.05242188482486338
vn 0.04165708623780262 -0.9980478275291258 -0.04653193667330768
vn 0.03012487964185441 -0.9978503873734121 -0.05819876326259248
vn 0.046211655532574815 -0.9981085923002745 -0.04054282759382926
vn 0.022964750723441854 -0.997696165334151 -0.06383558491735324
vn 0.050050237824486886 -0.9981520579264387 -0.03445929411534208
vn 0.014720302784766218 -0.997487994291855 -0.06928934932251093
vn 0.05322176572491493 -0.9981822124595301 -0.02827922174529875
vn 0.005247756070951412 -0.9972076708839207 -0.07449377280340755
vn 0.05576023309759729 -0.9982018990959302 -0.021994659492249272
vn 0 -0.9970433332107019 -0.07684134108728972
vn 0.05768619789730109 -0.998212973035241 -0.015593685782994627
vn 0 -0.9999834708282482 -0.005749614794923561
vn 0.05900664065028632 -0.9982164683169158 -0.009060835506275995
vn -0.005247756070951412 -0.9972076708839207 -0.07449377280340755
vn 0.05935894120901858 -0.9982202033841339 -0.005739482057017681
vn -0.014720302784766218 -0.997487994291855 -0.06928934932251093
vn -0.05935894120901858 -0.9982202033841339 -0.005739482057017681
vn 0.05691029878328137 -0.9983760722504368 -0.0025369765841025006
vn -0.022964750723441854 -0.997696165334151 -0.06383558491735324
vn 0 -0.9994216756692034 0.03400462031198061
vn 0.05200215676428117 -0.9986420317226015 0.003141364165119796
vn -0.03012487964185441 -0.9978503873734121 -0.05819876326259248
vn -0.05900664065028632 -0.9982164683169158 -0.009060835506275995
vn -0.05691029878328137 -0.9983760722504368 -0.0025369765841025006
vn -0.002976867699664421 -0.9994423443243988 0.033258662481355325
vn 0.047241351983876315 -0.9988512370196693 0.008028758746665096
vn -0.03632203488695347 -0.997964255759233 -0.05242188482486338
vn -0.05768619789730109 -0.998212973035241 -0.015593685782994627
vn -0.05200215676428117 -0.9986420317226015 0.003141364165119796
vn 0.002976867699664421 -0.9994423443243988 0.033258662481355325
vn -0.008632795242592374 -0.9994656829435059 0.03152496573465465
vn 0.042575059195220616 -0.9990177154752063 0.012286923993542816
vn -0.04165708623780262 -0.9980478275291258 -0.04653193667330768
vn -0.05576023309759729 -0.9982018990959302 -0.021994659492249272
vn -0.047241351983876315 -0.9988512370196693 0.008028758746665096
vn 0.008632795242592374 -0.9994656829435059 0.03152496573465465
vn -0.013963105266429587 -0.9994649140967334 0.02957899898455117
vn 0.037955430076353595 -0.9991507706893771 0.016035047818543015
vn -0.046211655532574815 -0.9981085923002745 -0.04054282759382926
vn -0.05322176572491493 -0.9981822124595301 -0.02827922174529875
vn -0.042575059195220616 -0.9990177154752063 0.012286923993542816
vn 0.013963105266429587 -0.9994649140967334 0.02957899898455117
vn -0.019040646316999144 -0.9994428608492041 0.02741207189158346
vn 0.03333737536496725 -0.9992565831759624 0.01936234446744885
vn -0.050050237824486886 -0.9981520579264387 -0.03445929411534208
vn -0.037955430076353595 -0.9991507706893771 0.016035047818543015
vn 0.019040646316999144 -0.9994428608492041 0.02741207189158346
vn -0.023927114480245315 -0.999400899423419 0.02500670758637359
vn 0.02867646393256443 -0.9993391634735851 0.022335997050490407
vn -0.03333737536496725 -0.9992565831759624 0.01936234446744885
vn 0.023927114480245315 -0.999400899423419 0.02500670758637359
vn -0.02867646393256443 -0.9993391634735851 0.022335997050490407
usemtl material_0_0
f 1//1 2//1 3//1
f 1//2 4//2 2//2
f 1//3 3//3 5//3
f 1//4 6//4 4//4
f 1//5 5//5 7//5
f 1//6 8//6 6//6
f 1//7 7//7 9//7
f 1//8 10//8 8//8
f 1//9 9//9 11//9
f 1//10 12//10 10//10
f 11//11 13//11 1//11
f 1//12 14//12 12//12
f 13//11 11//11 15//11
f 13//13 16//13 1//13
f 1//14 17//14 14//14
f 13//15 15//15 18//15
f 16//13 13//13 19//13
f 20//16 1//16 16//16
f 1//16 20//16 17//16
f 13//17 18//17 21//17
f 13//18 22//18 19//18
f 16//13 19//13 23//13
f 24//19 20//19 16//19
f 13//20 21//20 25//20
f 22//18 13//18 26//18
f 19//18 22//18 23//18
f 27//21 16//21 23//21
f 28//22 24//22 16//22
f 13//23 25//23 29//23
f 13//24 30//24 26//24
f 31//25 23//25 22//25
f 16//21 27//21 32//21
f 23//26 33//26 27//26
f 34//27 28//27 16//27
f 13//28 29//28 35//28
f 13//29 36//29 30//29
f 37//30 23//30 31//30
f 16//31 32//31 38//31
f 39//32 33//32 23//32
f 40//33 34//33 16//33
f 13//34 35//34 41//34
f 13//35 42//35 36//35
f 43//36 23//36 37//36
f 16//37 38//37 44//37
f 45//38 39//38 23//38
f 46//39 40//39 16//39
f 13//40 41//40 47//40
f 13//41 48//41 42//41
f 49//42 23//42 43//42
f 16//43 44//43 50//43
f 51//44 45//44 23//44
f 16//45 52//45 46//45
f 13//46 47//46 48//46
f 53//47 23//47 49//47
f 16//48 50//48 54//48
f 55//49 51//49 23//49
f 16//50 56//50 52//50
f 53//51 57//51 23//51
f 16//52 54//52 56//52
f 57//53 55//53 23//53
usemtl material_1_0
f 3//54 2//54 1//54
f 2//55 4//55 1//55
f 5//56 3//56 1//56
f 4//57 6//57 1//57
f 7//58 5//58 1//58
f 6//59 8//59 1//59
f 9//60 7//60 1//60
f 8//61 10//61 1//61
f 11//62 9//62 1//62
f 10//63 12//63 1//63
f 1//64 13//64 11//64
f 12//65 14//65 1//65
f 15//64 11//64 13//64
f 1//66 16//66 13//66
f 14//67 17//67 1//67
f 18//68 15//68 13//68
f 19//66 13//66 16//66
f 16//69 1//69 20//69
f 17//69 20//69 1//69
f 21//70 18//70 13//70
f 19//71 22//71 13//71
f 23//66 19//66 16//66
f 16//72 20//72 24//72
f 25//73 21//73 13//73
f 26//71 13//71 22//71
f 23//71 22//71 19//71
f 23//74 16//74 27//74
f 16//75 24//75 28//75
f 29//76 25//76 13//76
f 26//77 30//77 13//77
f 22//78 23//78 31//78
f 32//74 27//74 16//74
f 27//79 33//79 23//79
f 16//80 28//80 34//80
f 35//81 29//81 13//81
f 30//82 36//82 13//82
f 31//83 23//83 37//83
f 38//84 32//84 16//84
f 23//85 33//85 39//85
f 16//86 34//86 40//86
f 41//87 35//87 13//87
f 36//88 42//88 13//88
f 37//89 23//89 43//89
f 44//90 38//90 16//90
f 23//91 39//91 45//91
f 16//92 40//92 46//92
f 47//93 41//93 13//93
f 42//94 48//94 13//94
f 43//95 23//95 49//95
f 50//96 44//96 16//96
f 23//97 45//97 51//97
f 46//98 52//98 16//98
f 48//99 47//99 13//99
f 49//100 23//100 53//100
f 54//101 50//101 16//101
f 23//102 51//102 55//102
f 52//103 56//103 16//103
f 23//104 57//104 53//104
f 56//105 54//105 16//105
f 23//106 55//106 57//106
