# SSTK version 0.8.0
# 220
mtllib original-220.mtl
o mesh183/mesh183-geometry#mesh183-geometry
v -0.452903 -0.131038 0.189397
v -0.455138 -0.131045 0.190579
v -0.455138 -0.131043 0.190195
v -0.454733 -0.131046 0.190746
v -0.454363 -0.131047 0.190998
v -0.454281 -0.131050 0.191481
v -0.454281 -0.131092 0.198678
v -0.452559 -0.131092 0.198725
v -0.452508 -0.131095 0.199204
v -0.452559 -0.131038 0.189397
v -0.452353 -0.131097 0.199546
v -0.452559 -0.131079 0.196517
v -0.451736 -0.131101 0.200339
v -0.452559 -0.131080 0.196661
v -0.454363 -0.131096 0.199373
v -0.452096 -0.131098 0.199752
v -0.450600 -0.131068 0.194590
v -0.454632 -0.131098 0.199708
v -0.451736 -0.131098 0.199820
v -0.450995 -0.131076 0.195951
v -0.455138 -0.131101 0.200339
v -0.450110 -0.131071 0.195086
v -0.450796 -0.131095 0.199300
v -0.455138 -0.131098 0.199820
v -0.450498 -0.131067 0.194406
v -0.448958 -0.131093 0.198923
v -0.448272 -0.131063 0.193662
v -0.450666 -0.131097 0.199628
v -0.450559 -0.131066 0.194237
v -0.449187 -0.131067 0.194407
v -0.447750 -0.131101 0.200339
v -0.450840 -0.131066 0.194181
v -0.448272 -0.131066 0.194181
v -0.450748 -0.131098 0.199772
v -0.448378 -0.131097 0.199596
v -0.451176 -0.131066 0.194181
v -0.450995 -0.131101 0.200339
v -0.447874 -0.131098 0.199820
v -0.451176 -0.131063 0.193662
v -0.450995 -0.131098 0.199820
v -0.447750 -0.131098 0.199820
vn 0 -0.9999834708282481 -0.005749614794923561
vn 0 0.9999834708282481 0.005749614794923561
usemtl material_0_0
f 1//1 2//1 3//1
f 2//1 1//1 4//1
f 3//2 2//2 1//2
f 4//2 1//2 2//2
f 4//1 1//1 5//1
f 5//2 1//2 4//2
f 5//1 1//1 6//1
f 6//2 1//2 5//2
f 6//1 1//1 7//1
f 7//2 1//2 6//2
f 8//1 7//1 1//1
f 1//2 7//2 8//2
f 9//1 7//1 8//1
f 8//2 7//2 9//2
f 8//1 1//1 10//1
f 10//2 1//2 8//2
f 11//1 7//1 9//1
f 9//2 7//2 11//2
f 8//1 10//1 12//1
f 12//2 10//2 8//2
f 13//1 7//1 11//1
f 11//2 7//2 13//2
f 8//1 12//1 14//1
f 14//2 12//2 8//2
f 13//1 15//1 7//1
f 7//2 15//2 13//2
f 13//1 11//1 16//1
f 16//2 11//2 13//2
f 17//1 14//1 12//1
f 12//2 14//2 17//2
f 13//1 18//1 15//1
f 15//2 18//2 13//2
f 13//1 16//1 19//1
f 19//2 16//2 13//2
f 14//1 17//1 20//1
f 20//2 17//2 14//2
f 21//1 18//1 13//1
f 13//2 18//2 21//2
f 20//1 17//1 22//1
f 22//2 17//2 20//2
f 20//1 23//1 14//1
f 14//2 23//2 20//2
f 18//1 21//1 24//1
f 24//2 21//2 18//2
f 22//1 17//1 25//1
f 25//2 17//2 22//2
f 23//1 20//1 26//1
f 26//2 20//2 23//2
f 25//1 27//1 22//1
f 22//2 27//2 25//2
f 23//1 26//1 28//1
f 28//2 26//2 23//2
f 29//1 27//1 25//1
f 25//2 27//2 29//2
f 22//1 27//1 30//1
f 30//2 27//2 22//2
f 31//1 28//1 26//1
f 26//2 28//2 31//2
f 32//1 27//1 29//1
f 29//2 27//2 32//2
f 30//1 27//1 33//1
f 33//2 27//2 30//2
f 31//1 34//1 28//1
f 28//2 34//2 31//2
f 31//1 26//1 35//1
f 35//2 26//2 31//2
f 36//1 27//1 32//1
f 32//2 27//2 36//2
f 37//1 34//1 31//1
f 31//2 34//2 37//2
f 31//1 35//1 38//1
f 38//2 35//2 31//2
f 27//1 36//1 39//1
f 39//2 36//2 27//2
f 34//1 37//1 40//1
f 40//2 37//2 34//2
f 31//1 38//1 41//1
f 41//2 38//2 31//2
