# SSTK version 0.8.0
# 183
mtllib original-183.mtl
o B1/B/mesh147/mesh147-geometry#mesh147-geometry
v -0.237547 -0.131259 0.227891
v -0.238475 -0.131262 0.228314
v -0.238475 -0.131260 0.227947
v -0.237894 -0.131262 0.228314
v -0.237246 -0.131262 0.228412
v -0.236393 -0.131259 0.227835
v -0.236853 -0.131264 0.228708
v -0.236678 -0.131267 0.229197
v -0.236619 -0.131271 0.229986
v -0.236619 -0.131317 0.237970
v -0.235248 -0.131314 0.237422
v -0.235131 -0.131320 0.238379
v -0.235248 -0.131261 0.228201
v -0.234779 -0.131323 0.238993
v -0.233909 -0.131259 0.227778
v -0.235248 -0.131288 0.232954
v -0.236740 -0.131323 0.238928
v -0.233793 -0.131261 0.228145
v -0.235248 -0.131290 0.233320
v -0.234216 -0.131325 0.239303
v -0.231874 -0.131260 0.227966
v -0.233445 -0.131288 0.232954
v -0.232570 -0.131328 0.239914
v -0.232598 -0.131262 0.228305
v -0.233462 -0.131290 0.233320
v -0.236922 -0.131324 0.239199
v -0.233365 -0.131325 0.239407
v -0.231744 -0.131264 0.228788
v -0.232610 -0.131291 0.233426
v -0.237232 -0.131325 0.239393
v -0.232135 -0.131324 0.239214
v -0.231139 -0.131261 0.228201
v -0.232402 -0.131288 0.232814
v -0.238241 -0.131326 0.239548
v -0.231442 -0.131328 0.239773
v -0.231232 -0.131269 0.229592
v -0.231878 -0.131293 0.233743
v -0.238620 -0.131328 0.239914
v -0.231256 -0.131321 0.238635
v -0.231061 -0.131275 0.230718
v -0.231657 -0.131285 0.232395
v -0.238620 -0.131326 0.239548
v -0.230529 -0.131325 0.239351
v -0.230593 -0.131263 0.228530
v -0.231298 -0.131296 0.234226
v -0.230729 -0.131315 0.237671
v -0.230497 -0.131286 0.232541
v -0.231465 -0.131289 0.233048
v -0.230553 -0.131308 0.236321
v -0.231210 -0.131281 0.231696
v -0.230152 -0.131265 0.228976
v -0.230736 -0.131291 0.233367
v -0.230131 -0.131293 0.233778
v -0.229813 -0.131281 0.231705
v -0.230884 -0.131299 0.234816
v -0.230636 -0.131303 0.235514
v -0.229862 -0.131322 0.238759
v -0.229837 -0.131268 0.229481
v -0.229650 -0.131296 0.234282
v -0.229648 -0.131272 0.230043
v -0.229385 -0.131318 0.238047
v -0.229585 -0.131275 0.230662
v -0.229293 -0.131299 0.234879
v -0.229100 -0.131313 0.237214
v -0.229076 -0.131303 0.235539
v -0.229004 -0.131307 0.236260
vn 0 -0.9999834708282481 -0.005749614794923561
vn 0 0.9999834708282481 0.005749614794923561
usemtl material_0_0
f 1//1 2//1 3//1
f 2//1 1//1 4//1
f 3//2 2//2 1//2
f 4//2 1//2 2//2
f 4//1 1//1 5//1
f 5//2 1//2 4//2
f 5//1 1//1 6//1
f 6//2 1//2 5//2
f 5//1 6//1 7//1
f 7//2 6//2 5//2
f 7//1 6//1 8//1
f 8//2 6//2 7//2
f 8//1 6//1 9//1
f 9//2 6//2 8//2
f 9//1 6//1 10//1
f 10//2 6//2 9//2
f 11//1 10//1 6//1
f 6//2 10//2 11//2
f 12//1 10//1 11//1
f 11//2 10//2 12//2
f 11//1 6//1 13//1
f 13//2 6//2 11//2
f 14//1 10//1 12//1
f 12//2 10//2 14//2
f 15//1 13//1 6//1
f 6//2 13//2 15//2
f 11//1 13//1 16//1
f 16//2 13//2 11//2
f 14//1 17//1 10//1
f 10//2 17//2 14//2
f 13//1 15//1 18//1
f 18//2 15//2 13//2
f 11//1 16//1 19//1
f 19//2 16//2 11//2
f 20//1 17//1 14//1
f 14//2 17//2 20//2
f 18//1 15//1 21//1
f 21//2 15//2 18//2
f 22//1 19//1 16//1
f 16//2 19//2 22//2
f 23//1 17//1 20//1
f 20//2 17//2 23//2
f 18//1 21//1 24//1
f 24//2 21//2 18//2
f 19//1 22//1 25//1
f 25//2 22//2 19//2
f 23//1 26//1 17//1
f 17//2 26//2 23//2
f 23//1 20//1 27//1
f 27//2 20//2 23//2
f 24//1 21//1 28//1
f 28//2 21//2 24//2
f 25//1 22//1 29//1
f 29//2 22//2 25//2
f 23//1 30//1 26//1
f 26//2 30//2 23//2
f 23//1 27//1 31//1
f 31//2 27//2 23//2
f 28//1 21//1 32//1
f 32//2 21//2 28//2
f 29//1 22//1 33//1
f 33//2 22//2 29//2
f 23//1 34//1 30//1
f 30//2 34//2 23//2
f 23//1 31//1 35//1
f 35//2 31//2 23//2
f 28//1 32//1 36//1
f 36//2 32//2 28//2
f 29//1 33//1 37//1
f 37//2 33//2 29//2
f 38//1 34//1 23//1
f 23//2 34//2 38//2
f 35//1 31//1 39//1
f 39//2 31//2 35//2
f 36//1 32//1 40//1
f 40//2 32//2 36//2
f 37//1 33//1 41//1
f 41//2 33//2 37//2
f 34//1 38//1 42//1
f 42//2 38//2 34//2
f 35//1 39//1 43//1
f 43//2 39//2 35//2
f 40//1 32//1 44//1
f 44//2 32//2 40//2
f 37//1 41//1 45//1
f 45//2 41//2 37//2
f 43//1 39//1 46//1
f 46//2 39//2 43//2
f 47//1 40//1 44//1
f 44//2 40//2 47//2
f 45//1 41//1 48//1
f 48//2 41//2 45//2
f 43//1 46//1 49//1
f 49//2 46//2 43//2
f 47//1 50//1 40//1
f 40//2 50//2 47//2
f 47//1 44//1 51//1
f 51//2 44//2 47//2
f 50//1 48//1 41//1
f 41//2 48//2 50//2
f 45//1 48//1 52//1
f 52//2 48//2 45//2
f 49//1 53//1 43//1
f 43//2 53//2 49//2
f 48//1 50//1 47//1
f 47//2 50//2 48//2
f 47//1 51//1 54//1
f 54//2 51//2 47//2
f 45//1 52//1 55//1
f 55//2 52//2 45//2
f 56//1 53//1 49//1
f 49//2 53//2 56//2
f 43//1 53//1 57//1
f 57//2 53//2 43//2
f 54//1 51//1 58//1
f 58//2 51//2 54//2
f 55//1 52//1 56//1
f 56//2 52//2 55//2
f 56//1 52//1 53//1
f 53//2 52//2 56//2
f 57//1 53//1 59//1
f 59//2 53//2 57//2
f 54//1 58//1 60//1
f 60//2 58//2 54//2
f 57//1 59//1 61//1
f 61//2 59//2 57//2
f 54//1 60//1 62//1
f 62//2 60//2 54//2
f 61//1 59//1 63//1
f 63//2 59//2 61//2
f 61//1 63//1 64//1
f 64//2 63//2 61//2
f 64//1 63//1 65//1
f 65//2 63//2 64//2
f 64//1 65//1 66//1
f 66//2 65//2 64//2
