# SSTK version 0.8.0
# 6
mtllib original-6.mtl
o mesh4/mesh4-geometry#mesh4-geometry
v 0.498263 -0.131529 0.274314
v 0.498415 -0.131522 0.272966
v 0.498364 -0.131519 0.272540
v 0.498778 -0.131530 0.274442
v 0.498364 -0.131488 0.267123
v 0.498570 -0.131524 0.273343
v 0.498152 -0.131488 0.267123
v 0.498364 -0.131500 0.269180
v 0.498843 -0.131525 0.273650
v 0.497856 -0.131527 0.273927
v 0.498364 -0.131496 0.268553
v 0.499197 -0.131530 0.274368
v 0.497818 -0.131493 0.267944
v 0.499937 -0.131500 0.269180
v 0.499181 -0.131526 0.273752
v 0.497611 -0.131524 0.273397
v 0.500137 -0.131496 0.268553
v 0.499572 -0.131525 0.273574
v 0.497529 -0.131520 0.272763
v 0.499564 -0.131528 0.274147
v 0.497529 -0.131500 0.269180
v 0.499877 -0.131526 0.273777
v 0.497413 -0.131496 0.268560
v 0.499937 -0.131522 0.273040
v 0.496954 -0.131498 0.268948
v 0.500137 -0.131523 0.273259
v 0.496954 -0.131500 0.269180
vn 0 0.9999834708282482 0.005749614794923561
vn 0 -0.9999834708282482 -0.005749614794923561
usemtl material_0_0
f 1//1 2//1 3//1
f 2//1 1//1 4//1
f 3//2 2//2 1//2
f 4//2 1//2 2//2
f 5//1 1//1 3//1
f 3//2 1//2 5//2
f 2//1 4//1 6//1
f 6//2 4//2 2//2
f 7//1 1//1 5//1
f 5//2 1//2 7//2
f 5//1 3//1 8//1
f 8//2 3//2 5//2
f 6//1 4//1 9//1
f 9//2 4//2 6//2
f 7//1 10//1 1//1
f 1//2 10//2 7//2
f 5//1 8//1 11//1
f 11//2 8//2 5//2
f 9//1 4//1 12//1
f 12//2 4//2 9//2
f 13//1 10//1 7//1
f 7//2 10//2 13//2
f 14//1 11//1 8//1
f 8//2 11//2 14//2
f 9//1 12//1 15//1
f 15//2 12//2 9//2
f 13//1 16//1 10//1
f 10//2 16//2 13//2
f 11//1 14//1 17//1
f 17//2 14//2 11//2
f 15//1 12//1 18//1
f 18//2 12//2 15//2
f 13//1 19//1 16//1
f 16//2 19//2 13//2
f 18//1 12//1 20//1
f 20//2 12//2 18//2
f 13//1 21//1 19//1
f 19//2 21//2 13//2
f 18//1 20//1 22//1
f 22//2 20//2 18//2
f 23//1 21//1 13//1
f 13//2 21//2 23//2
f 18//1 22//1 24//1
f 24//2 22//2 18//2
f 25//1 21//1 23//1
f 23//2 21//2 25//2
f 24//1 22//1 26//1
f 26//2 22//2 24//2
f 21//1 25//1 27//1
f 27//2 25//2 21//2
