# SSTK version 0.8.0
# 422
mtllib original-422.mtl
o mesh365/mesh365-geometry#mesh365-geometry
v 0.475635 -0.130844 0.121122
v 0.475617 -0.131134 0.171636
v 0.475617 -0.130846 0.121434
v 0.475617 -0.131384 0.215144
v 0.478902 -0.130665 0.123955
v 0.475635 -0.131386 0.215456
v 0.478902 -0.131187 0.214796
v 0.475687 -0.130842 0.120816
v 0.513803 -0.131187 0.214796
v 0.475773 -0.130840 0.120520
v 0.475687 -0.131388 0.215763
v 0.513803 -0.130665 0.123955
v 0.515034 -0.131398 0.217535
v 0.475892 -0.130839 0.120239
v 0.475773 -0.131390 0.216059
v 0.513803 -0.131070 0.194476
v 0.515034 -0.130832 0.119044
v 0.477670 -0.131398 0.217535
v 0.515302 -0.131398 0.217514
v 0.476041 -0.130837 0.119979
v 0.475892 -0.131391 0.216339
v 0.517087 -0.131259 0.193390
v 0.513803 -0.130782 0.144275
v 0.477670 -0.130832 0.119044
v 0.515302 -0.130832 0.119064
v 0.477402 -0.131398 0.217514
v 0.515566 -0.131398 0.217453
v 0.476218 -0.130836 0.119744
v 0.476041 -0.131393 0.216599
v 0.517087 -0.131384 0.215144
v 0.517087 -0.131134 0.171636
v 0.477402 -0.130832 0.119064
v 0.515566 -0.130832 0.119125
v 0.477139 -0.131398 0.217453
v 0.515820 -0.131397 0.217353
v 0.476420 -0.130835 0.119538
v 0.476218 -0.131394 0.216835
v 0.517070 -0.131386 0.215456
v 0.517087 -0.131094 0.164594
v 0.477139 -0.130832 0.119125
v 0.515820 -0.130833 0.119226
v 0.476884 -0.131397 0.217353
v 0.516061 -0.131396 0.217214
v 0.476643 -0.130834 0.119364
v 0.476420 -0.131395 0.217041
v 0.517018 -0.131388 0.215763
v 0.517070 -0.130844 0.121122
v 0.476884 -0.130833 0.119226
v 0.516061 -0.130834 0.119364
v 0.476643 -0.131396 0.217214
v 0.516284 -0.131395 0.217041
v 0.516931 -0.131390 0.216059
v 0.517018 -0.130842 0.120816
v 0.516284 -0.130835 0.119538
v 0.516486 -0.131394 0.216835
v 0.516812 -0.131391 0.216339
v 0.516931 -0.130840 0.120520
v 0.516486 -0.130836 0.119744
v 0.516663 -0.131393 0.216599
v 0.516812 -0.130839 0.120239
v 0.516663 -0.130837 0.119979
vn 0 -0.9999834708282482 -0.005749614794923561
vn 0 0.9999834708282482 0.005749614794923561
vn 0.05950949093062902 -0.998211300157678 -0.005728937658533248
vn 0.05935894120901858 -0.9982202033841339 -0.005739482057017681
vn 0.05200215676428117 -0.9986420317226015 0.003141364165119796
vn 0.05900664065028632 -0.9982164683169158 -0.009060835506275995
vn 0.047241351983876315 -0.9988512370196693 0.008028758746665096
vn 0.05768619789730109 -0.998212973035241 -0.015593685782994627
vn 0 -0.9970433332107019 -0.07684134108728972
vn 0.042575059195220616 -0.9990177154752063 0.012286923993542816
vn 0.05576023309759729 -0.9982018990959302 -0.021994659492249272
vn 0 -0.9994216756692034 0.03400462031198061
vn -0.005247756070951412 -0.9972076708839207 -0.07449377280340755
vn 0.037955430076353595 -0.9991507706893771 0.016035047818543015
vn 0.05322176572491493 -0.9981822124595301 -0.02827922174529875
vn -0.05935894120901858 -0.9982202033841339 -0.005739482057017681
vn -0.002976867699664421 -0.9994423443243988 0.033258662481355325
vn 0.005247756070951412 -0.9972076708839207 -0.07449377280340755
vn -0.014720302784766218 -0.997487994291855 -0.06928934932251093
vn 0.03333737536496725 -0.9992565831759624 0.01936234446744885
vn 0.050050237824486886 -0.9981520579264387 -0.03445929411534208
vn 0.002976867699664421 -0.9994423443243988 0.033258662481355325
vn -0.008632795242592374 -0.9994656829435059 0.03152496573465465
vn 0.014720302784766218 -0.997487994291855 -0.06928934932251093
vn -0.022964750723441854 -0.997696165334151 -0.06383558491735324
vn 0.02867646393256443 -0.9993391634735851 0.022335997050490407
vn 0.046211655532574815 -0.9981085923002745 -0.04054282759382926
vn -0.05900664065028632 -0.9982164683169158 -0.009060835506275995
vn -0.059490272965316525 -0.9982124484177478 -0.005728459335388748
vn 0.008632795242592374 -0.9994656829435059 0.03152496573465465
vn -0.013963105266429587 -0.9994649140967334 0.02957899898455117
vn 0.022964750723441854 -0.997696165334151 -0.06383558491735324
vn -0.03012487964185441 -0.9978503873734121 -0.05819876326259248
vn 0.023927114480245315 -0.999400899423419 0.02500670758637359
vn 0.04165708623780262 -0.9980478275291258 -0.04653193667330768
vn -0.05768619789730109 -0.998212973035241 -0.015593685782994627
vn 0.013963105266429587 -0.9994649140967334 0.02957899898455117
vn -0.019040646316999144 -0.9994428608492041 0.02741207189158346
vn 0.03012487964185441 -0.9978503873734121 -0.05819876326259248
vn -0.03632203488695347 -0.997964255759233 -0.05242188482486338
vn 0.019040646316999144 -0.9994428608492041 0.02741207189158346
vn 0.03632203488695347 -0.997964255759233 -0.05242188482486338
vn -0.05576023309759729 -0.9982018990959302 -0.021994659492249272
vn -0.05200215676428117 -0.9986420317226015 0.003141364165119796
vn -0.023927114480245315 -0.999400899423419 0.02500670758637359
vn -0.04165708623780262 -0.9980478275291258 -0.04653193667330768
vn -0.05322176572491493 -0.9981822124595301 -0.02827922174529875
vn -0.047241351983876315 -0.9988512370196693 0.008028758746665096
vn -0.02867646393256443 -0.9993391634735851 0.022335997050490407
vn -0.046211655532574815 -0.9981085923002745 -0.04054282759382926
vn -0.050050237824486886 -0.9981520579264387 -0.03445929411534208
vn -0.042575059195220616 -0.9990177154752063 0.012286923993542816
vn -0.03333737536496725 -0.9992565831759624 0.01936234446744885
vn -0.037955430076353595 -0.9991507706893771 0.016035047818543015
vn -0.05950949093062902 0.998211300157678 0.005728937658533248
vn -0.05935894120901858 0.9982202033841339 0.005739482057017681
vn -0.05200215676428117 0.9986420317226015 -0.003141364165119796
vn -0.05900664065028632 0.9982164683169158 0.009060835506275995
vn -0.047241351983876315 0.9988512370196693 -0.008028758746665096
vn -0.05768619789730109 0.998212973035241 0.015593685782994627
vn 0 0.9970433332107019 0.07684134108728972
vn -0.042575059195220616 0.9990177154752063 -0.012286923993542816
vn -0.05576023309759729 0.9982018990959302 0.021994659492249272
vn 0 0.9994216756692034 -0.03400462031198061
vn 0.005247756070951412 0.9972076708839207 0.07449377280340755
vn -0.037955430076353595 0.9991507706893771 -0.016035047818543015
vn -0.05322176572491493 0.9981822124595301 0.02827922174529875
vn 0.05935894120901858 0.9982202033841339 0.005739482057017681
vn 0.002976867699664421 0.9994423443243988 -0.033258662481355325
vn -0.005247756070951412 0.9972076708839207 0.07449377280340755
vn 0.014720302784766218 0.997487994291855 0.06928934932251093
vn -0.03333737536496725 0.9992565831759624 -0.01936234446744885
vn -0.050050237824486886 0.9981520579264387 0.03445929411534208
vn -0.002976867699664421 0.9994423443243988 -0.033258662481355325
vn 0.008632795242592374 0.9994656829435059 -0.03152496573465465
vn -0.014720302784766218 0.997487994291855 0.06928934932251093
vn 0.022964750723441854 0.997696165334151 0.06383558491735324
vn -0.02867646393256443 0.9993391634735851 -0.022335997050490407
vn -0.046211655532574815 0.9981085923002745 0.04054282759382926
vn 0.05900664065028632 0.9982164683169158 0.009060835506275995
vn 0.059490272965316525 0.9982124484177478 0.005728459335388748
vn -0.008632795242592374 0.9994656829435059 -0.03152496573465465
vn 0.013963105266429587 0.9994649140967334 -0.02957899898455117
vn -0.022964750723441854 0.997696165334151 0.06383558491735324
vn 0.03012487964185441 0.9978503873734121 0.05819876326259248
vn -0.023927114480245315 0.999400899423419 -0.02500670758637359
vn -0.04165708623780262 0.9980478275291258 0.04653193667330768
vn 0.05768619789730109 0.998212973035241 0.015593685782994627
vn -0.013963105266429587 0.9994649140967334 -0.02957899898455117
vn 0.019040646316999144 0.9994428608492041 -0.02741207189158346
vn -0.03012487964185441 0.9978503873734121 0.05819876326259248
vn 0.03632203488695347 0.997964255759233 0.05242188482486338
vn -0.019040646316999144 0.9994428608492041 -0.02741207189158346
vn -0.03632203488695347 0.997964255759233 0.05242188482486338
vn 0.05576023309759729 0.9982018990959302 0.021994659492249272
vn 0.05200215676428117 0.9986420317226015 -0.003141364165119796
vn 0.023927114480245315 0.999400899423419 -0.02500670758637359
vn 0.04165708623780262 0.9980478275291258 0.04653193667330768
vn 0.05322176572491493 0.9981822124595301 0.02827922174529875
vn 0.047241351983876315 0.9988512370196693 -0.008028758746665096
vn 0.02867646393256443 0.9993391634735851 -0.022335997050490407
vn 0.046211655532574815 0.9981085923002745 0.04054282759382926
vn 0.050050237824486886 0.9981520579264387 0.03445929411534208
vn 0.042575059195220616 0.9990177154752063 -0.012286923993542816
vn 0.03333737536496725 0.9992565831759624 -0.01936234446744885
vn 0.037955430076353595 0.9991507706893771 -0.016035047818543015
usemtl material_0_0
f 1//1 2//1 3//1
f 2//1 1//1 4//1
f 3//2 2//2 1//2
f 4//2 1//2 2//2
f 2//3 3//3 5//3
f 1//3 5//3 3//3
f 4//1 1//1 6//1
f 6//2 1//2 4//2
f 4//4 2//4 7//4
f 5//4 7//4 2//4
f 5//5 1//5 8//5
f 6//1 1//1 8//1
f 8//2 1//2 6//2
f 6//6 4//6 7//6
f 7//1 5//1 9//1
f 5//7 8//7 10//7
f 6//1 8//1 11//1
f 11//2 8//2 6//2
f 11//8 6//8 7//8
f 12//1 9//1 5//1
f 9//9 13//9 7//9
f 11//1 8//1 10//1
f 10//2 8//2 11//2
f 5//10 10//10 14//10
f 15//11 11//11 7//11
f 16//1 9//1 12//1
f 12//12 5//12 17//12
f 18//9 7//9 13//9
f 19//13 13//13 9//13
f 11//1 10//1 15//1
f 15//2 10//2 11//2
f 15//1 10//1 14//1
f 14//2 10//2 15//2
f 5//14 14//14 20//14
f 21//15 15//15 7//15
f 16//16 22//16 9//16
f 23//1 16//1 12//1
f 24//12 17//12 5//12
f 17//17 25//17 12//17
f 18//18 26//18 7//18
f 18//1 17//1 13//1
f 13//2 17//2 18//2
f 13//1 25//1 19//1
f 19//2 25//2 13//2
f 27//19 19//19 9//19
f 15//1 14//1 21//1
f 21//2 14//2 15//2
f 21//1 14//1 20//1
f 20//2 14//2 21//2
f 20//20 28//20 5//20
f 29//21 21//21 7//21
f 30//16 9//16 22//16
f 23//16 22//16 16//16
f 12//16 31//16 23//16
f 18//1 24//1 17//1
f 17//2 24//2 18//2
f 32//22 24//22 5//22
f 12//23 25//23 33//23
f 13//1 17//1 25//1
f 25//2 17//2 13//2
f 26//24 34//24 7//24
f 26//1 24//1 18//1
f 18//2 24//2 26//2
f 19//1 25//1 33//1
f 33//2 25//2 19//2
f 19//1 33//1 27//1
f 27//2 33//2 19//2
f 35//25 27//25 9//25
f 21//1 20//1 29//1
f 29//2 20//2 21//2
f 28//26 36//26 5//26
f 29//1 20//1 28//1
f 28//2 20//2 29//2
f 37//27 29//27 7//27
f 30//28 38//28 9//28
f 30//1 31//1 22//1
f 22//2 31//2 30//2
f 31//16 22//16 23//16
f 31//29 12//29 39//29
f 26//1 32//1 24//1
f 24//2 32//2 26//2
f 40//30 32//30 5//30
f 12//31 33//31 41//31
f 34//32 42//32 7//32
f 34//1 32//1 26//1
f 26//2 32//2 34//2
f 27//1 33//1 41//1
f 41//2 33//2 27//2
f 27//1 41//1 35//1
f 35//2 41//2 27//2
f 43//33 35//33 9//33
f 36//34 44//34 5//34
f 37//1 28//1 36//1
f 36//2 28//2 37//2
f 29//1 28//1 37//1
f 37//2 28//2 29//2
f 45//35 37//35 7//35
f 38//36 46//36 9//36
f 38//1 39//1 30//1
f 30//2 39//2 38//2
f 30//1 39//1 31//1
f 31//2 39//2 30//2
f 47//29 39//29 12//29
f 34//1 40//1 32//1
f 32//2 40//2 34//2
f 48//37 40//37 5//37
f 12//38 41//38 49//38
f 42//39 50//39 7//39
f 42//1 40//1 34//1
f 34//2 40//2 42//2
f 35//1 41//1 49//1
f 49//2 41//2 35//2
f 35//1 49//1 43//1
f 43//2 49//2 35//2
f 51//40 43//40 9//40
f 44//41 48//41 5//41
f 45//1 36//1 44//1
f 44//2 36//2 45//2
f 37//1 36//1 45//1
f 45//2 36//2 37//2
f 50//42 45//42 7//42
f 46//43 52//43 9//43
f 46//1 47//1 38//1
f 38//2 47//2 46//2
f 38//1 47//1 39//1
f 39//2 47//2 38//2
f 47//44 12//44 53//44
f 42//1 48//1 40//1
f 40//2 48//2 42//2
f 12//45 49//45 54//45
f 50//1 48//1 42//1
f 42//2 48//2 50//2
f 43//1 49//1 54//1
f 54//2 49//2 43//2
f 43//1 54//1 51//1
f 51//2 54//2 43//2
f 55//46 51//46 9//46
f 50//1 44//1 48//1
f 48//2 44//2 50//2
f 45//1 44//1 50//1
f 50//2 44//2 45//2
f 52//47 56//47 9//47
f 52//1 53//1 46//1
f 46//2 53//2 52//2
f 46//1 53//1 47//1
f 47//2 53//2 46//2
f 53//48 12//48 57//48
f 12//49 54//49 58//49
f 51//1 54//1 58//1
f 58//2 54//2 51//2
f 51//1 58//1 55//1
f 55//2 58//2 51//2
f 59//50 55//50 9//50
f 56//51 59//51 9//51
f 56//1 57//1 52//1
f 52//2 57//2 56//2
f 52//1 57//1 53//1
f 53//2 57//2 52//2
f 57//52 12//52 60//52
f 12//53 58//53 61//53
f 55//1 58//1 61//1
f 61//2 58//2 55//2
f 55//1 61//1 59//1
f 59//2 61//2 55//2
f 59//1 60//1 56//1
f 56//2 60//2 59//2
f 56//1 60//1 57//1
f 57//2 60//2 56//2
f 60//54 12//54 61//54
f 59//1 61//1 60//1
f 60//2 61//2 59//2
usemtl material_1_0
f 5//55 3//55 2//55
f 3//55 5//55 1//55
f 7//56 2//56 4//56
f 2//56 7//56 5//56
f 8//57 1//57 5//57
f 7//58 4//58 6//58
f 9//2 5//2 7//2
f 10//59 8//59 5//59
f 7//60 6//60 11//60
f 5//2 9//2 12//2
f 7//61 13//61 9//61
f 14//62 10//62 5//62
f 7//63 11//63 15//63
f 12//2 9//2 16//2
f 17//64 5//64 12//64
f 13//61 7//61 18//61
f 9//65 13//65 19//65
f 20//66 14//66 5//66
f 7//67 15//67 21//67
f 9//68 22//68 16//68
f 12//2 16//2 23//2
f 5//64 17//64 24//64
f 12//69 25//69 17//69
f 7//70 26//70 18//70
f 9//71 19//71 27//71
f 5//72 28//72 20//72
f 7//73 21//73 29//73
f 22//68 9//68 30//68
f 16//68 22//68 23//68
f 23//68 31//68 12//68
f 5//74 24//74 32//74
f 33//75 25//75 12//75
f 7//76 34//76 26//76
f 9//77 27//77 35//77
f 5//78 36//78 28//78
f 7//79 29//79 37//79
f 9//80 38//80 30//80
f 23//68 22//68 31//68
f 39//81 12//81 31//81
f 5//82 32//82 40//82
f 41//83 33//83 12//83
f 7//84 42//84 34//84
f 9//85 35//85 43//85
f 5//86 44//86 36//86
f 7//87 37//87 45//87
f 9//88 46//88 38//88
f 12//81 39//81 47//81
f 5//89 40//89 48//89
f 49//90 41//90 12//90
f 7//91 50//91 42//91
f 9//92 43//92 51//92
f 5//93 48//93 44//93
f 7//94 45//94 50//94
f 9//95 52//95 46//95
f 53//96 12//96 47//96
f 54//97 49//97 12//97
f 9//98 51//98 55//98
f 9//99 56//99 52//99
f 57//100 12//100 53//100
f 58//101 54//101 12//101
f 9//102 55//102 59//102
f 9//103 59//103 56//103
f 60//104 12//104 57//104
f 61//105 58//105 12//105
f 61//106 12//106 60//106
