# SSTK version 0.8.0
# 227
mtllib original-227.mtl
o mesh189/mesh189-geometry#mesh189-geometry
v -0.474465 -0.131344 0.242565
v -0.476297 -0.131349 0.243460
v -0.476297 -0.131344 0.242565
v -0.474677 -0.131349 0.243460
v -0.476297 -0.131372 0.247421
v -0.476297 -0.131332 0.240520
v -0.476434 -0.131383 0.249426
v -0.476708 -0.131332 0.240520
v -0.475832 -0.131383 0.249318
v -0.477013 -0.131336 0.241250
v -0.476136 -0.131376 0.248068
v -0.477127 -0.131383 0.249299
v -0.475935 -0.131377 0.248230
v -0.477527 -0.131341 0.241990
v -0.475654 -0.131377 0.248284
v -0.477622 -0.131381 0.248918
v -0.475247 -0.131381 0.248995
v -0.477919 -0.131377 0.248284
v -0.475147 -0.131376 0.248082
v -0.478018 -0.131372 0.247395
v -0.474760 -0.131378 0.248522
v -0.478018 -0.131349 0.243460
v -0.474595 -0.131372 0.247477
v -0.478147 -0.131344 0.242624
v -0.474396 -0.131375 0.247933
v -0.478766 -0.131349 0.243460
v -0.478766 -0.131347 0.243037
vn 0 -0.9999834708282481 -0.005749614794923561
vn 0 0.9999834708282481 0.005749614794923561
usemtl material_0_0
f 1//1 2//1 3//1
f 2//1 1//1 4//1
f 3//2 2//2 1//2
f 4//2 1//2 2//2
f 5//1 3//1 2//1
f 2//2 3//2 5//2
f 5//1 6//1 3//1
f 3//2 6//2 5//2
f 7//1 6//1 5//1
f 5//2 6//2 7//2
f 7//1 8//1 6//1
f 6//2 8//2 7//2
f 7//1 5//1 9//1
f 9//2 5//2 7//2
f 7//1 10//1 8//1
f 8//2 10//2 7//2
f 9//1 5//1 11//1
f 11//2 5//2 9//2
f 12//1 10//1 7//1
f 7//2 10//2 12//2
f 9//1 11//1 13//1
f 13//2 11//2 9//2
f 12//1 14//1 10//1
f 10//2 14//2 12//2
f 9//1 13//1 15//1
f 15//2 13//2 9//2
f 16//1 14//1 12//1
f 12//2 14//2 16//2
f 9//1 15//1 17//1
f 17//2 15//2 9//2
f 18//1 14//1 16//1
f 16//2 14//2 18//2
f 17//1 15//1 19//1
f 19//2 15//2 17//2
f 20//1 14//1 18//1
f 18//2 14//2 20//2
f 17//1 19//1 21//1
f 21//2 19//2 17//2
f 22//1 14//1 20//1
f 20//2 14//2 22//2
f 21//1 19//1 23//1
f 23//2 19//2 21//2
f 22//1 24//1 14//1
f 14//2 24//2 22//2
f 21//1 23//1 25//1
f 25//2 23//2 21//2
f 26//1 24//1 22//1
f 22//2 24//2 26//2
f 24//1 26//1 27//1
f 27//2 26//2 24//2
