# SSTK version 0.8.0
# 134
mtllib original-134.mtl
o mesh101/mesh101-geometry#mesh101-geometry
v 0.236789 -0.130063 0.019685
v 0.235605 -0.130067 0.020366
v 0.235605 -0.130066 0.020161
v 0.236296 -0.130069 0.020654
v 0.236296 -0.130085 0.023431
v 0.236997 -0.130086 0.023684
v 0.237040 -0.130088 0.024014
v 0.236997 -0.130063 0.019685
v 0.237168 -0.130089 0.024218
v 0.236997 -0.130073 0.021357
v 0.236261 -0.130087 0.023838
v 0.237017 -0.130071 0.020959
v 0.236155 -0.130089 0.024106
v 0.237324 -0.130069 0.020759
v 0.238061 -0.130091 0.024564
v 0.237329 -0.130067 0.020366
v 0.235939 -0.130090 0.024275
v 0.237667 -0.130090 0.024335
v 0.237520 -0.130068 0.020526
v 0.235605 -0.130091 0.024564
v 0.238061 -0.130090 0.024335
v 0.237701 -0.130064 0.019838
v 0.235605 -0.130090 0.024335
v 0.237726 -0.130068 0.020449
v 0.237992 -0.130064 0.019744
v 0.238088 -0.130068 0.020562
v 0.238344 -0.130064 0.019850
v 0.238631 -0.130069 0.020748
v 0.238877 -0.130065 0.020032
vn 0 -0.9999834708282481 -0.005749614794923561
vn 0 0.9999834708282481 0.005749614794923561
usemtl material_0_0
f 1//1 2//1 3//1
f 2//1 1//1 4//1
f 3//2 2//2 1//2
f 4//2 1//2 2//2
f 4//1 1//1 5//1
f 5//2 1//2 4//2
f 6//1 5//1 1//1
f 1//2 5//2 6//2
f 7//1 5//1 6//1
f 6//2 5//2 7//2
f 6//1 1//1 8//1
f 8//2 1//2 6//2
f 9//1 5//1 7//1
f 7//2 5//2 9//2
f 6//1 8//1 10//1
f 10//2 8//2 6//2
f 9//1 11//1 5//1
f 5//2 11//2 9//2
f 12//1 10//1 8//1
f 8//2 10//2 12//2
f 9//1 13//1 11//1
f 11//2 13//2 9//2
f 10//1 12//1 14//1
f 14//2 12//2 10//2
f 15//1 13//1 9//1
f 9//2 13//2 15//2
f 14//1 12//1 16//1
f 16//2 12//2 14//2
f 15//1 17//1 13//1
f 13//2 17//2 15//2
f 15//1 9//1 18//1
f 18//2 9//2 15//2
f 14//1 16//1 19//1
f 19//2 16//2 14//2
f 20//1 17//1 15//1
f 15//2 17//2 20//2
f 15//1 18//1 21//1
f 21//2 18//2 15//2
f 19//1 16//1 22//1
f 22//2 16//2 19//2
f 17//1 20//1 23//1
f 23//2 20//2 17//2
f 19//1 22//1 24//1
f 24//2 22//2 19//2
f 24//1 22//1 25//1
f 25//2 22//2 24//2
f 24//1 25//1 26//1
f 26//2 25//2 24//2
f 26//1 25//1 27//1
f 27//2 25//2 26//2
f 26//1 27//1 28//1
f 28//2 27//2 26//2
f 28//1 27//1 29//1
f 29//2 27//2 28//2
