# SSTK version 0.8.0
# 32
mtllib original-32.mtl
o mesh20/mesh20-geometry#mesh20-geometry
v 0.364592 -0.130394 0.077298
v 0.362674 -0.130397 0.077841
v 0.362674 -0.130396 0.077643
v 0.363297 -0.130398 0.077974
v 0.363684 -0.130399 0.078207
v 0.363751 -0.130402 0.078735
v 0.363751 -0.130420 0.081842
v 0.363751 -0.130422 0.082166
v 0.363751 -0.130429 0.083328
v 0.362975 -0.130424 0.082428
v 0.364592 -0.130422 0.082152
v 0.362537 -0.130427 0.083038
v 0.364646 -0.130424 0.082444
v 0.362287 -0.130425 0.082624
v 0.364809 -0.130424 0.082561
v 0.362052 -0.130428 0.083256
v 0.365420 -0.130425 0.082737
v 0.361836 -0.130424 0.082535
v 0.365160 -0.130424 0.082525
v 0.361649 -0.130429 0.083328
v 0.365420 -0.130424 0.082469
v 0.361480 -0.130423 0.082269
v 0.361250 -0.130420 0.081856
v 0.361142 -0.130428 0.083225
v 0.361173 -0.130417 0.081329
v 0.361173 -0.130394 0.077298
v 0.360719 -0.130426 0.082913
v 0.360433 -0.130424 0.082441
v 0.360338 -0.130420 0.081856
v 0.360338 -0.130402 0.078651
v 0.360255 -0.130400 0.078260
v 0.360006 -0.130399 0.078059
v 0.359570 -0.130398 0.077918
v 0.359570 -0.130396 0.077700
vn 0 -0.9999834708282481 -0.005749614794923561
vn 0 0.9999834708282481 0.005749614794923561
usemtl material_0_0
f 1//1 2//1 3//1
f 2//1 1//1 4//1
f 3//2 2//2 1//2
f 4//2 1//2 2//2
f 4//1 1//1 5//1
f 5//2 1//2 4//2
f 5//1 1//1 6//1
f 6//2 1//2 5//2
f 6//1 1//1 7//1
f 7//2 1//2 6//2
f 7//1 1//1 8//1
f 8//2 1//2 7//2
f 8//1 1//1 9//1
f 9//2 1//2 8//2
f 8//1 10//1 7//1
f 7//2 10//2 8//2
f 9//1 1//1 11//1
f 11//2 1//2 9//2
f 12//1 10//1 8//1
f 8//2 10//2 12//2
f 9//1 11//1 13//1
f 13//2 11//2 9//2
f 12//1 14//1 10//1
f 10//2 14//2 12//2
f 9//1 13//1 15//1
f 15//2 13//2 9//2
f 16//1 14//1 12//1
f 12//2 14//2 16//2
f 9//1 15//1 17//1
f 17//2 15//2 9//2
f 16//1 18//1 14//1
f 14//2 18//2 16//2
f 17//1 15//1 19//1
f 19//2 15//2 17//2
f 20//1 18//1 16//1
f 16//2 18//2 20//2
f 17//1 19//1 21//1
f 21//2 19//2 17//2
f 20//1 22//1 18//1
f 18//2 22//2 20//2
f 20//1 23//1 22//1
f 22//2 23//2 20//2
f 24//1 23//1 20//1
f 20//2 23//2 24//2
f 24//1 25//1 23//1
f 23//2 25//2 24//2
f 24//1 26//1 25//1
f 25//2 26//2 24//2
f 27//1 26//1 24//1
f 24//2 26//2 27//2
f 28//1 26//1 27//1
f 27//2 26//2 28//2
f 29//1 26//1 28//1
f 28//2 26//2 29//2
f 30//1 26//1 29//1
f 29//2 26//2 30//2
f 31//1 26//1 30//1
f 30//2 26//2 31//2
f 32//1 26//1 31//1
f 31//2 26//2 32//2
f 33//1 26//1 32//1
f 32//2 26//2 33//2
f 26//1 33//1 34//1
f 34//2 33//2 26//2
