# SSTK version 0.8.0
# 15
mtllib original-15.mtl
o _9_1/_9/mesh14/mesh14-geometry#mesh14-geometry
v -0.123865 -0.130551 0.104655
v -0.123902 -0.130562 0.106684
v -0.124001 -0.130557 0.105768
v -0.123606 -0.130567 0.107534
v -0.123457 -0.130545 0.103627
v -0.123129 -0.130572 0.108311
v -0.122822 -0.130540 0.102772
v -0.122759 -0.130556 0.105580
v -0.122698 -0.130550 0.104616
v -0.122549 -0.130575 0.108866
v -0.122517 -0.130546 0.103782
v -0.122654 -0.130563 0.106744
v -0.122009 -0.130536 0.102180
v -0.122340 -0.130568 0.107725
v -0.122230 -0.130542 0.103098
v -0.121868 -0.130577 0.109199
v -0.121851 -0.130539 0.102609
v -0.122053 -0.130571 0.108213
v -0.121412 -0.130535 0.101955
v -0.121706 -0.130573 0.108561
v -0.121380 -0.130537 0.102316
v -0.121085 -0.130577 0.109310
v -0.120782 -0.130535 0.101880
v -0.121300 -0.130574 0.108770
v -0.120818 -0.130537 0.102218
v -0.120834 -0.130575 0.108840
v -0.120257 -0.130537 0.102325
v -0.119935 -0.130576 0.109028
v -0.119810 -0.130536 0.102030
v -0.119766 -0.130573 0.108547
v -0.119731 -0.130539 0.102649
v -0.118741 -0.130571 0.108184
v -0.118984 -0.130538 0.102481
v -0.118653 -0.130568 0.107669
v -0.119224 -0.130543 0.103258
v -0.118156 -0.130584 0.110509
v -0.118862 -0.130547 0.104103
v -0.118798 -0.130590 0.111555
v -0.118572 -0.130561 0.106498
v -0.118302 -0.130542 0.103232
v -0.119009 -0.130579 0.109513
v -0.118645 -0.130554 0.105183
v -0.119442 -0.130585 0.110695
v -0.117765 -0.130549 0.104284
v -0.119591 -0.130596 0.112473
v -0.117697 -0.130578 0.109382
v -0.120056 -0.130591 0.111742
v -0.117439 -0.130555 0.105498
v -0.120532 -0.130600 0.113255
v -0.117422 -0.130571 0.108175
v -0.120861 -0.130597 0.112661
v -0.117330 -0.130563 0.106886
v -0.121623 -0.130604 0.113900
v -0.121856 -0.130601 0.113453
v -0.122864 -0.130607 0.114410
v -0.123041 -0.130605 0.114119
vn 0 -0.9999834708282481 -0.005749614794923561
vn 0 0.9999834708282481 0.005749614794923561
usemtl material_0_0
f 1//1 2//1 3//1
f 2//1 1//1 4//1
f 3//2 2//2 1//2
f 4//2 1//2 2//2
f 4//1 1//1 5//1
f 5//2 1//2 4//2
f 4//1 5//1 6//1
f 6//2 5//2 4//2
f 6//1 5//1 7//1
f 7//2 5//2 6//2
f 6//1 7//1 8//1
f 8//2 7//2 6//2
f 7//1 9//1 8//1
f 8//2 9//2 7//2
f 6//1 8//1 10//1
f 10//2 8//2 6//2
f 9//1 7//1 11//1
f 11//2 7//2 9//2
f 10//1 8//1 12//1
f 12//2 8//2 10//2
f 11//1 7//1 13//1
f 13//2 7//2 11//2
f 10//1 12//1 14//1
f 14//2 12//2 10//2
f 11//1 13//1 15//1
f 15//2 13//2 11//2
f 10//1 14//1 16//1
f 16//2 14//2 10//2
f 15//1 13//1 17//1
f 17//2 13//2 15//2
f 16//1 14//1 18//1
f 18//2 14//2 16//2
f 17//1 13//1 19//1
f 19//2 13//2 17//2
f 16//1 18//1 20//1
f 20//2 18//2 16//2
f 17//1 19//1 21//1
f 21//2 19//2 17//2
f 16//1 20//1 22//1
f 22//2 20//2 16//2
f 21//1 19//1 23//1
f 23//2 19//2 21//2
f 22//1 20//1 24//1
f 24//2 20//2 22//2
f 21//1 23//1 25//1
f 25//2 23//2 21//2
f 22//1 24//1 26//1
f 26//2 24//2 22//2
f 25//1 23//1 27//1
f 27//2 23//2 25//2
f 22//1 26//1 28//1
f 28//2 26//2 22//2
f 27//1 23//1 29//1
f 29//2 23//2 27//2
f 28//1 26//1 30//1
f 30//2 26//2 28//2
f 27//1 29//1 31//1
f 31//2 29//2 27//2
f 28//1 30//1 32//1
f 32//2 30//2 28//2
f 31//1 29//1 33//1
f 33//2 29//2 31//2
f 32//1 30//1 34//1
f 34//2 30//2 32//2
f 31//1 33//1 35//1
f 35//2 33//2 31//2
f 36//1 32//1 34//1
f 34//2 32//2 36//2
f 35//1 33//1 37//1
f 37//2 33//2 35//2
f 38//1 32//1 36//1
f 36//2 32//2 38//2
f 36//1 34//1 39//1
f 39//2 34//2 36//2
f 37//1 33//1 40//1
f 40//2 33//2 37//2
f 38//1 41//1 32//1
f 32//2 41//2 38//2
f 36//1 39//1 40//1
f 40//2 39//2 36//2
f 37//1 40//1 42//1
f 42//2 40//2 37//2
f 38//1 43//1 41//1
f 41//2 43//2 38//2
f 42//1 40//1 39//1
f 39//2 40//2 42//2
f 36//1 40//1 44//1
f 44//2 40//2 36//2
f 45//1 43//1 38//1
f 38//2 43//2 45//2
f 36//1 44//1 46//1
f 46//2 44//2 36//2
f 45//1 47//1 43//1
f 43//2 47//2 45//2
f 46//1 44//1 48//1
f 48//2 44//2 46//2
f 49//1 47//1 45//1
f 45//2 47//2 49//2
f 46//1 48//1 50//1
f 50//2 48//2 46//2
f 49//1 51//1 47//1
f 47//2 51//2 49//2
f 50//1 48//1 52//1
f 52//2 48//2 50//2
f 53//1 51//1 49//1
f 49//2 51//2 53//2
f 53//1 54//1 51//1
f 51//2 54//2 53//2
f 55//1 54//1 53//1
f 53//2 54//2 55//2
f 54//1 55//1 56//1
f 56//2 55//2 54//2
