# SSTK version 0.8.0
# 263
mtllib original-263.mtl
o mesh218/mesh218-geometry#mesh218-geometry
v 0.089066 -0.130768 0.142401
v 0.086659 -0.130776 0.143751
v 0.086659 -0.130774 0.143352
v 0.086953 -0.130776 0.143855
v 0.087447 -0.130778 0.144155
v 0.087612 -0.130781 0.144590
v 0.087612 -0.130799 0.147777
v 0.089334 -0.130800 0.147869
v 0.089386 -0.130802 0.148328
v 0.089334 -0.130768 0.142401
v 0.089541 -0.130804 0.148657
v 0.089334 -0.130776 0.143863
v 0.090287 -0.130809 0.149438
v 0.089334 -0.130780 0.144542
v 0.087461 -0.130804 0.148616
v 0.089801 -0.130805 0.148854
v 0.090808 -0.130771 0.142905
v 0.087209 -0.130805 0.148843
v 0.090164 -0.130806 0.148919
v 0.090144 -0.130777 0.144009
v 0.086809 -0.130806 0.148919
v 0.090287 -0.130806 0.148919
v 0.090814 -0.130776 0.143831
v 0.086727 -0.130809 0.149438
v 0.091413 -0.130770 0.142665
v 0.086727 -0.130806 0.148919
v 0.091193 -0.130777 0.143945
v 0.091463 -0.130779 0.144285
v 0.091929 -0.130769 0.142585
v 0.091626 -0.130782 0.144853
v 0.091680 -0.130787 0.145647
v 0.091680 -0.130795 0.147071
v 0.093444 -0.130803 0.148414
v 0.093573 -0.130804 0.148707
v 0.092394 -0.130770 0.142660
v 0.094197 -0.130809 0.149438
v 0.092770 -0.130771 0.142885
v 0.091577 -0.130802 0.148231
v 0.093815 -0.130805 0.148866
v 0.093402 -0.130800 0.147959
v 0.091316 -0.130804 0.148723
v 0.094197 -0.130806 0.148919
v 0.093055 -0.130773 0.143260
v 0.090877 -0.130809 0.149438
v 0.093251 -0.130776 0.143785
v 0.090877 -0.130806 0.148919
v 0.093402 -0.130785 0.145400
vn 0 -0.9999834708282481 -0.005749614794923561
vn 0 0.9999834708282481 0.005749614794923561
usemtl material_0_0
f 1//1 2//1 3//1
f 2//1 1//1 4//1
f 3//2 2//2 1//2
f 4//2 1//2 2//2
f 4//1 1//1 5//1
f 5//2 1//2 4//2
f 5//1 1//1 6//1
f 6//2 1//2 5//2
f 6//1 1//1 7//1
f 7//2 1//2 6//2
f 8//1 7//1 1//1
f 1//2 7//2 8//2
f 9//1 7//1 8//1
f 8//2 7//2 9//2
f 8//1 1//1 10//1
f 10//2 1//2 8//2
f 11//1 7//1 9//1
f 9//2 7//2 11//2
f 8//1 10//1 12//1
f 12//2 10//2 8//2
f 13//1 7//1 11//1
f 11//2 7//2 13//2
f 8//1 12//1 14//1
f 14//2 12//2 8//2
f 13//1 15//1 7//1
f 7//2 15//2 13//2
f 13//1 11//1 16//1
f 16//2 11//2 13//2
f 17//1 14//1 12//1
f 12//2 14//2 17//2
f 13//1 18//1 15//1
f 15//2 18//2 13//2
f 13//1 16//1 19//1
f 19//2 16//2 13//2
f 14//1 17//1 20//1
f 20//2 17//2 14//2
f 13//1 21//1 18//1
f 18//2 21//2 13//2
f 13//1 19//1 22//1
f 22//2 19//2 13//2
f 20//1 17//1 23//1
f 23//2 17//2 20//2
f 24//1 21//1 13//1
f 13//2 21//2 24//2
f 23//1 17//1 25//1
f 25//2 17//2 23//2
f 21//1 24//1 26//1
f 26//2 24//2 21//2
f 23//1 25//1 27//1
f 27//2 25//2 23//2
f 27//1 25//1 28//1
f 28//2 25//2 27//2
f 28//1 25//1 29//1
f 29//2 25//2 28//2
f 28//1 29//1 30//1
f 30//2 29//2 28//2
f 30//1 29//1 31//1
f 31//2 29//2 30//2
f 31//1 29//1 32//1
f 32//2 29//2 31//2
f 33//1 32//1 29//1
f 29//2 32//2 33//2
f 34//1 32//1 33//1
f 33//2 32//2 34//2
f 33//1 29//1 35//1
f 35//2 29//2 33//2
f 36//1 32//1 34//1
f 34//2 32//2 36//2
f 33//1 35//1 37//1
f 37//2 35//2 33//2
f 36//1 38//1 32//1
f 32//2 38//2 36//2
f 36//1 34//1 39//1
f 39//2 34//2 36//2
f 33//1 37//1 40//1
f 40//2 37//2 33//2
f 36//1 41//1 38//1
f 38//2 41//2 36//2
f 36//1 39//1 42//1
f 42//2 39//2 36//2
f 40//1 37//1 43//1
f 43//2 37//2 40//2
f 44//1 41//1 36//1
f 36//2 41//2 44//2
f 40//1 43//1 45//1
f 45//2 43//2 40//2
f 41//1 44//1 46//1
f 46//2 44//2 41//2
f 40//1 45//1 47//1
f 47//2 45//2 40//2
