# SSTK version 0.8.0
# 352
mtllib original-352.mtl
o mesh295/mesh295-geometry#mesh295-geometry
v -0.152394 -0.130898 0.164594
v -0.154652 -0.131108 0.167013
v -0.154411 -0.131108 0.167151
v -0.154876 -0.131107 0.166839
v -0.154157 -0.131109 0.167252
v -0.155078 -0.131105 0.166633
v -0.153894 -0.131109 0.167313
v -0.155255 -0.131104 0.166398
v -0.153626 -0.131109 0.167333
v -0.155404 -0.131103 0.166138
v -0.117493 -0.130898 0.164594
v -0.155523 -0.131101 0.165857
v -0.116261 -0.131109 0.167333
v -0.152394 -0.130665 0.123955
v -0.155609 -0.131099 0.165561
v -0.115993 -0.131109 0.167313
v -0.117493 -0.130665 0.123955
v -0.155679 -0.130846 0.121434
v -0.155661 -0.131098 0.165255
v -0.115730 -0.131109 0.167252
v -0.117493 -0.130782 0.144275
v -0.116261 -0.130832 0.119044
v -0.155679 -0.131096 0.164943
v -0.155661 -0.130844 0.121122
v -0.115476 -0.131108 0.167151
v -0.114208 -0.130971 0.143188
v -0.153626 -0.130832 0.119044
v -0.115993 -0.130832 0.119064
v -0.155609 -0.130842 0.120816
v -0.115235 -0.131108 0.167013
v -0.114208 -0.131096 0.164943
v -0.114208 -0.130846 0.121434
v -0.153894 -0.130832 0.119064
v -0.115730 -0.130832 0.119125
v -0.155523 -0.130840 0.120520
v -0.115012 -0.131107 0.166839
v -0.114226 -0.131098 0.165255
v -0.114226 -0.130844 0.121122
v -0.154157 -0.130832 0.119125
v -0.115476 -0.130833 0.119226
v -0.155404 -0.130839 0.120239
v -0.114810 -0.131105 0.166633
v -0.114278 -0.131099 0.165561
v -0.114278 -0.130842 0.120816
v -0.154411 -0.130833 0.119226
v -0.115235 -0.130834 0.119364
v -0.155255 -0.130837 0.119979
v -0.114633 -0.131104 0.166398
v -0.114365 -0.131101 0.165857
v -0.114365 -0.130840 0.120520
v -0.154652 -0.130834 0.119364
v -0.115012 -0.130835 0.119538
v -0.155078 -0.130836 0.119744
v -0.114483 -0.131103 0.166138
v -0.114483 -0.130839 0.120239
v -0.154876 -0.130835 0.119538
v -0.114810 -0.130836 0.119744
v -0.114633 -0.130837 0.119979
vn -0.03012487964185441 0.9978503873734121 0.05819876326259248
vn -0.03632203488695347 0.997964255759233 0.05242188482486338
vn -0.022964750723441854 0.997696165334151 0.06383558491735324
vn -0.04165708623780262 0.9980478275291258 0.04653193667330768
vn -0.014720302784766218 0.997487994291855 0.06928934932251093
vn -0.046211655532574815 0.9981085923002745 0.04054282759382926
vn -0.005247756070951412 0.9972076708839207 0.07449377280340755
vn -0.050050237824486886 0.9981520579264387 0.03445929411534208
vn 0 0.9970433332107019 0.07684134108728972
vn -0.05322176572491493 0.9981822124595301 0.02827922174529875
vn 0 0.9999834708282482 0.005749614794923561
vn -0.05576023309759729 0.9982018990959302 0.021994659492249272
vn 0.005247756070951412 0.9972076708839207 0.07449377280340755
vn -0.05935894120901858 0.9982202033841339 0.005739482057017681
vn -0.05768619789730109 0.998212973035241 0.015593685782994627
vn 0.014720302784766218 0.997487994291855 0.06928934932251093
vn 0 0.9994216756692034 -0.03400462031198061
vn -0.05691029878328137 0.9983760722504368 0.0025369765841025006
vn -0.05900664065028632 0.9982164683169158 0.009060835506275995
vn 0.022964750723441854 0.997696165334151 0.06383558491735324
vn 0.05935894120901858 0.9982202033841339 0.005739482057017681
vn 0.002976867699664421 0.9994423443243988 -0.033258662481355325
vn -0.05200215676428117 0.9986420317226015 -0.003141364165119796
vn 0.03012487964185441 0.9978503873734121 0.05819876326259248
vn -0.002976867699664421 0.9994423443243988 -0.033258662481355325
vn 0.008632795242592374 0.9994656829435059 -0.03152496573465465
vn -0.047241351983876315 0.9988512370196693 -0.008028758746665096
vn 0.03632203488695347 0.997964255759233 0.05242188482486338
vn 0.05900664065028632 0.9982164683169158 0.009060835506275995
vn 0.05691029878328137 0.9983760722504368 0.0025369765841025006
vn -0.008632795242592374 0.9994656829435059 -0.03152496573465465
vn 0.013963105266429587 0.9994649140967334 -0.02957899898455117
vn -0.042575059195220616 0.9990177154752063 -0.012286923993542816
vn 0.04165708623780262 0.9980478275291258 0.04653193667330768
vn 0.05768619789730109 0.998212973035241 0.015593685782994627
vn 0.05200215676428117 0.9986420317226015 -0.003141364165119796
vn -0.013963105266429587 0.9994649140967334 -0.02957899898455117
vn 0.019040646316999144 0.9994428608492041 -0.02741207189158346
vn -0.037955430076353595 0.9991507706893771 -0.016035047818543015
vn 0.046211655532574815 0.9981085923002745 0.04054282759382926
vn 0.05576023309759729 0.9982018990959302 0.021994659492249272
vn 0.047241351983876315 0.9988512370196693 -0.008028758746665096
vn -0.019040646316999144 0.9994428608492041 -0.02741207189158346
vn 0.023927114480245315 0.999400899423419 -0.02500670758637359
vn -0.03333737536496725 0.9992565831759624 -0.01936234446744885
vn 0.050050237824486886 0.9981520579264387 0.03445929411534208
vn 0.05322176572491493 0.9981822124595301 0.02827922174529875
vn 0.042575059195220616 0.9990177154752063 -0.012286923993542816
vn -0.023927114480245315 0.999400899423419 -0.02500670758637359
vn 0.02867646393256443 0.9993391634735851 -0.022335997050490407
vn -0.02867646393256443 0.9993391634735851 -0.022335997050490407
vn 0.037955430076353595 0.9991507706893771 -0.016035047818543015
vn 0.03333737536496725 0.9992565831759624 -0.01936234446744885
vn 0.03012487964185441 -0.9978503873734121 -0.05819876326259248
vn 0.03632203488695347 -0.997964255759233 -0.05242188482486338
vn 0.022964750723441854 -0.997696165334151 -0.06383558491735324
vn 0.04165708623780262 -0.9980478275291258 -0.04653193667330768
vn 0.014720302784766218 -0.997487994291855 -0.06928934932251093
vn 0.046211655532574815 -0.9981085923002745 -0.04054282759382926
vn 0.005247756070951412 -0.9972076708839207 -0.07449377280340755
vn 0.050050237824486886 -0.9981520579264387 -0.03445929411534208
vn 0 -0.9970433332107019 -0.07684134108728972
vn 0.05322176572491493 -0.9981822124595301 -0.02827922174529875
vn 0 -0.9999834708282482 -0.005749614794923561
vn 0.05576023309759729 -0.9982018990959302 -0.021994659492249272
vn -0.005247756070951412 -0.9972076708839207 -0.07449377280340755
vn 0.05935894120901858 -0.9982202033841339 -0.005739482057017681
vn 0.05768619789730109 -0.998212973035241 -0.015593685782994627
vn -0.014720302784766218 -0.997487994291855 -0.06928934932251093
vn 0 -0.9994216756692034 0.03400462031198061
vn 0.05691029878328137 -0.9983760722504368 -0.0025369765841025006
vn 0.05900664065028632 -0.9982164683169158 -0.009060835506275995
vn -0.022964750723441854 -0.997696165334151 -0.06383558491735324
vn -0.05935894120901858 -0.9982202033841339 -0.005739482057017681
vn -0.002976867699664421 -0.9994423443243988 0.033258662481355325
vn 0.05200215676428117 -0.9986420317226015 0.003141364165119796
vn -0.03012487964185441 -0.9978503873734121 -0.05819876326259248
vn 0.002976867699664421 -0.9994423443243988 0.033258662481355325
vn -0.008632795242592374 -0.9994656829435059 0.03152496573465465
vn 0.047241351983876315 -0.9988512370196693 0.008028758746665096
vn -0.03632203488695347 -0.997964255759233 -0.05242188482486338
vn -0.05900664065028632 -0.9982164683169158 -0.009060835506275995
vn -0.05691029878328137 -0.9983760722504368 -0.0025369765841025006
vn 0.008632795242592374 -0.9994656829435059 0.03152496573465465
vn -0.013963105266429587 -0.9994649140967334 0.02957899898455117
vn 0.042575059195220616 -0.9990177154752063 0.012286923993542816
vn -0.04165708623780262 -0.9980478275291258 -0.04653193667330768
vn -0.05768619789730109 -0.998212973035241 -0.015593685782994627
vn -0.05200215676428117 -0.9986420317226015 0.003141364165119796
vn 0.013963105266429587 -0.9994649140967334 0.02957899898455117
vn -0.019040646316999144 -0.9994428608492041 0.02741207189158346
vn 0.037955430076353595 -0.9991507706893771 0.016035047818543015
vn -0.046211655532574815 -0.9981085923002745 -0.04054282759382926
vn -0.05576023309759729 -0.9982018990959302 -0.021994659492249272
vn -0.047241351983876315 -0.9988512370196693 0.008028758746665096
vn 0.019040646316999144 -0.9994428608492041 0.02741207189158346
vn -0.023927114480245315 -0.999400899423419 0.02500670758637359
vn 0.03333737536496725 -0.9992565831759624 0.01936234446744885
vn -0.050050237824486886 -0.9981520579264387 -0.03445929411534208
vn -0.05322176572491493 -0.9981822124595301 -0.02827922174529875
vn -0.042575059195220616 -0.9990177154752063 0.012286923993542816
vn 0.023927114480245315 -0.999400899423419 0.02500670758637359
vn -0.02867646393256443 -0.9993391634735851 0.022335997050490407
vn 0.02867646393256443 -0.9993391634735851 0.022335997050490407
vn -0.037955430076353595 -0.9991507706893771 0.016035047818543015
vn -0.03333737536496725 -0.9992565831759624 0.01936234446744885
usemtl material_0_0
f 1//1 2//1 3//1
f 1//2 4//2 2//2
f 1//3 3//3 5//3
f 1//4 6//4 4//4
f 1//5 5//5 7//5
f 1//6 8//6 6//6
f 1//7 7//7 9//7
f 1//8 10//8 8//8
f 9//9 11//9 1//9
f 1//10 12//10 10//10
f 11//9 9//9 13//9
f 11//11 14//11 1//11
f 1//12 15//12 12//12
f 11//13 13//13 16//13
f 14//11 11//11 17//11
f 18//14 1//14 14//14
f 1//15 19//15 15//15
f 11//16 16//16 20//16
f 17//11 11//11 21//11
f 22//17 14//17 17//17
f 1//14 18//14 23//14
f 24//18 18//18 14//18
f 1//19 23//19 19//19
f 11//20 20//20 25//20
f 11//21 26//21 21//21
f 21//21 26//21 17//21
f 14//17 22//17 27//17
f 17//22 28//22 22//22
f 29//23 24//23 14//23
f 11//24 25//24 30//24
f 26//21 11//21 31//21
f 17//21 26//21 32//21
f 14//25 27//25 33//25
f 34//26 28//26 17//26
f 35//27 29//27 14//27
f 11//28 30//28 36//28
f 11//29 37//29 31//29
f 38//30 17//30 32//30
f 14//31 33//31 39//31
f 40//32 34//32 17//32
f 41//33 35//33 14//33
f 11//34 36//34 42//34
f 11//35 43//35 37//35
f 44//36 17//36 38//36
f 14//37 39//37 45//37
f 46//38 40//38 17//38
f 47//39 41//39 14//39
f 11//40 42//40 48//40
f 11//41 49//41 43//41
f 50//42 17//42 44//42
f 14//43 45//43 51//43
f 52//44 46//44 17//44
f 14//45 53//45 47//45
f 11//46 48//46 54//46
f 11//47 54//47 49//47
f 55//48 17//48 50//48
f 14//49 51//49 56//49
f 57//50 52//50 17//50
f 14//51 56//51 53//51
f 58//52 17//52 55//52
f 58//53 57//53 17//53
usemtl material_1_0
f 3//54 2//54 1//54
f 2//55 4//55 1//55
f 5//56 3//56 1//56
f 4//57 6//57 1//57
f 7//58 5//58 1//58
f 6//59 8//59 1//59
f 9//60 7//60 1//60
f 8//61 10//61 1//61
f 1//62 11//62 9//62
f 10//63 12//63 1//63
f 13//62 9//62 11//62
f 1//64 14//64 11//64
f 12//65 15//65 1//65
f 16//66 13//66 11//66
f 17//64 11//64 14//64
f 14//67 1//67 18//67
f 15//68 19//68 1//68
f 20//69 16//69 11//69
f 21//64 11//64 17//64
f 17//70 14//70 22//70
f 23//67 18//67 1//67
f 14//71 18//71 24//71
f 19//72 23//72 1//72
f 25//73 20//73 11//73
f 21//74 26//74 11//74
f 17//74 26//74 21//74
f 27//70 22//70 14//70
f 22//75 28//75 17//75
f 14//76 24//76 29//76
f 30//77 25//77 11//77
f 31//74 11//74 26//74
f 32//74 26//74 17//74
f 33//78 27//78 14//78
f 17//79 28//79 34//79
f 14//80 29//80 35//80
f 36//81 30//81 11//81
f 31//82 37//82 11//82
f 32//83 17//83 38//83
f 39//84 33//84 14//84
f 17//85 34//85 40//85
f 14//86 35//86 41//86
f 42//87 36//87 11//87
f 37//88 43//88 11//88
f 38//89 17//89 44//89
f 45//90 39//90 14//90
f 17//91 40//91 46//91
f 14//92 41//92 47//92
f 48//93 42//93 11//93
f 43//94 49//94 11//94
f 44//95 17//95 50//95
f 51//96 45//96 14//96
f 17//97 46//97 52//97
f 47//98 53//98 14//98
f 54//99 48//99 11//99
f 49//100 54//100 11//100
f 50//101 17//101 55//101
f 56//102 51//102 14//102
f 17//103 52//103 57//103
f 53//104 56//104 14//104
f 55//105 17//105 58//105
f 17//106 57//106 58//106
