# SSTK version 0.8.0
# 8
mtllib original-8.mtl
o _2_1/_2/mesh6/mesh6-geometry#mesh6-geometry
v -0.425408 -0.130549 0.104345
v -0.425492 -0.130558 0.105853
v -0.425759 -0.130558 0.105853
v -0.425121 -0.130552 0.104854
v -0.424678 -0.130542 0.103166
v -0.424555 -0.130547 0.104047
v -0.423653 -0.130538 0.102406
v -0.423777 -0.130544 0.103457
v -0.422899 -0.130543 0.103260
v -0.422419 -0.130536 0.102152
v -0.422313 -0.130543 0.103345
v -0.421582 -0.130537 0.102256
v -0.421784 -0.130545 0.103598
v -0.421314 -0.130547 0.104020
v -0.420862 -0.130539 0.102568
v -0.420978 -0.130550 0.104534
v -0.420776 -0.130553 0.105142
v -0.420259 -0.130542 0.103088
v -0.420709 -0.130557 0.105841
v -0.420572 -0.130574 0.108648
v -0.420050 -0.130569 0.107927
v -0.420806 -0.130563 0.106765
v -0.419773 -0.130546 0.103816
v -0.421097 -0.130568 0.107697
v -0.419677 -0.130565 0.107172
v -0.421582 -0.130574 0.108637
v -0.419477 -0.130551 0.104648
v -0.422113 -0.130582 0.110162
v -0.419453 -0.130561 0.106385
v -0.422260 -0.130579 0.109586
v -0.419378 -0.130556 0.105565
v -0.424167 -0.130592 0.111801
v -0.424912 -0.130600 0.113226
v -0.425977 -0.130607 0.114410
v -0.425977 -0.130605 0.114100
v -0.419362 -0.130607 0.114410
v -0.420572 -0.130600 0.113226
v -0.419921 -0.130599 0.113092
v -0.419564 -0.130597 0.112688
v -0.419314 -0.130591 0.111714
v -0.419039 -0.130591 0.111714
vn 0 -0.9999834708282481 -0.005749614794923561
vn 0 0.9999834708282481 0.005749614794923561
usemtl material_0_0
f 1//1 2//1 3//1
f 2//1 1//1 4//1
f 4//1 1//1 5//1
f 4//1 5//1 6//1
f 6//1 5//1 7//1
f 6//1 7//1 8//1
f 8//1 7//1 9//1
f 9//1 7//1 10//1
f 9//1 10//1 11//1
f 11//1 10//1 12//1
f 11//1 12//1 13//1
f 13//1 12//1 14//1
f 14//1 12//1 15//1
f 14//1 15//1 16//1
f 16//1 15//1 17//1
f 17//1 15//1 18//1
f 17//1 18//1 19//1
f 19//1 18//1 20//1
f 20//1 18//1 21//1
f 20//1 22//1 19//1
f 21//1 18//1 23//1
f 20//1 24//1 22//1
f 21//1 23//1 25//1
f 20//1 26//1 24//1
f 25//1 23//1 27//1
f 28//1 26//1 20//1
f 25//1 27//1 29//1
f 28//1 30//1 26//1
f 29//1 27//1 31//1
f 28//1 32//1 30//1
f 33//1 32//1 28//1
f 34//1 32//1 33//1
f 32//1 34//1 35//1
f 33//1 36//1 34//1
f 36//1 33//1 37//1
f 36//1 37//1 38//1
f 36//1 38//1 39//1
f 36//1 39//1 40//1
f 36//1 40//1 41//1
usemtl material_1_0
f 3//2 2//2 1//2
f 4//2 1//2 2//2
f 5//2 1//2 4//2
f 6//2 5//2 4//2
f 7//2 5//2 6//2
f 8//2 7//2 6//2
f 9//2 7//2 8//2
f 10//2 7//2 9//2
f 11//2 10//2 9//2
f 12//2 10//2 11//2
f 13//2 12//2 11//2
f 14//2 12//2 13//2
f 15//2 12//2 14//2
f 16//2 15//2 14//2
f 17//2 15//2 16//2
f 18//2 15//2 17//2
f 19//2 18//2 17//2
f 20//2 18//2 19//2
f 21//2 18//2 20//2
f 19//2 22//2 20//2
f 23//2 18//2 21//2
f 22//2 24//2 20//2
f 25//2 23//2 21//2
f 24//2 26//2 20//2
f 27//2 23//2 25//2
f 20//2 26//2 28//2
f 29//2 27//2 25//2
f 26//2 30//2 28//2
f 31//2 27//2 29//2
f 30//2 32//2 28//2
f 28//2 32//2 33//2
f 33//2 32//2 34//2
f 35//2 34//2 32//2
f 34//2 36//2 33//2
f 37//2 33//2 36//2
f 38//2 37//2 36//2
f 39//2 38//2 36//2
f 40//2 39//2 36//2
f 41//2 40//2 36//2
