# SSTK version 0.8.0
# 308
mtllib original-308.mtl
o mesh253/mesh253-geometry#mesh253-geometry
v 0.017576 -0.130093 0.025022
v 0.016241 -0.130102 0.026584
v 0.016056 -0.130099 0.026089
v 0.017133 -0.130100 0.026195
v 0.017901 -0.130097 0.025706
v 0.018834 -0.130085 0.023669
v 0.017901 -0.130138 0.032855
v 0.019623 -0.130138 0.032791
v 0.019752 -0.130141 0.033342
v 0.019623 -0.130085 0.023669
v 0.021036 -0.130145 0.034093
v 0.017778 -0.130141 0.033358
v 0.020137 -0.130142 0.033526
v 0.017407 -0.130142 0.033526
v 0.021036 -0.130142 0.033526
v 0.016564 -0.130145 0.034093
v 0.016564 -0.130142 0.033526
vn 0 -0.9999834708282481 -0.005749614794923561
vn 0 0.9999834708282481 0.005749614794923561
usemtl material_0_0
f 1//1 2//1 3//1
f 2//1 1//1 4//1
f 3//2 2//2 1//2
f 4//2 1//2 2//2
f 4//1 1//1 5//1
f 5//2 1//2 4//2
f 5//1 1//1 6//1
f 6//2 1//2 5//2
f 5//1 6//1 7//1
f 7//2 6//2 5//2
f 8//1 7//1 6//1
f 6//2 7//2 8//2
f 9//1 7//1 8//1
f 8//2 7//2 9//2
f 8//1 6//1 10//1
f 10//2 6//2 8//2
f 11//1 7//1 9//1
f 9//2 7//2 11//2
f 11//1 12//1 7//1
f 7//2 12//2 11//2
f 11//1 9//1 13//1
f 13//2 9//2 11//2
f 11//1 14//1 12//1
f 12//2 14//2 11//2
f 11//1 13//1 15//1
f 15//2 13//2 11//2
f 16//1 14//1 11//1
f 11//2 14//2 16//2
f 14//1 16//1 17//1
f 17//2 16//2 14//2
