# SSTK version 0.8.0
# 23
mtllib original-23.mtl
o mesh35/mesh35-geometry#mesh35-geometry
v -0.029258 0.135171 -0.171085
v -0.029874 0.132638 -0.175903
v -0.029874 0.134012 -0.170774
v -0.029258 0.133796 -0.176213
v -0.030321 0.131416 -0.175576
v -0.030678 0.130236 -0.169763
v -0.028483 0.136244 -0.171372
v -0.030678 0.128862 -0.174891
v -0.030321 0.132790 -0.170447
v -0.028483 0.134870 -0.176501
v -0.030590 0.130150 -0.175236
v -0.027563 0.137216 -0.171633
v -0.030590 0.131524 -0.170108
v -0.027563 0.135841 -0.176761
v -0.026513 0.138067 -0.171861
v -0.026513 0.136693 -0.176990
v -0.025351 0.138785 -0.172053
v -0.010630 0.074133 -0.160227
v -0.025351 0.137411 -0.177182
v -0.024098 0.139357 -0.172206
v -0.010630 0.075507 -0.155098
v -0.011813 0.128862 -0.174891
v -0.024098 0.137982 -0.177335
v -0.022775 0.139772 -0.172318
v -0.010134 0.073225 -0.159983
v -0.011813 0.130236 -0.169763
v -0.020009 0.138734 -0.177536
v -0.022775 0.138398 -0.177446
v -0.021404 0.140024 -0.172385
v -0.010134 0.074599 -0.154855
v -0.020009 0.140109 -0.172408
v -0.009545 0.072365 -0.159753
v -0.021404 0.138650 -0.177514
v -0.000133 0.128862 -0.174891
v -0.009545 0.073739 -0.154624
v -0.000133 0.130236 -0.169763
v -0.008870 0.071561 -0.159537
v 0.014811 0.138734 -0.177536
v -0.008870 0.072935 -0.154409
v 0.014811 0.140109 -0.172408
v -0.008114 0.070820 -0.159339
v 0.019643 0.077163 -0.161038
v -0.008114 0.072194 -0.154210
v 0.019643 0.078537 -0.155910
v 0.007125 0.078537 -0.155910
v -0.007285 0.070149 -0.159159
v 0.023207 0.067846 -0.158542
v -0.007285 0.071524 -0.154031
v 0.023207 0.069220 -0.153413
v 0.064215 0.015384 -0.138988
v 0.007125 0.077163 -0.161038
v -0.000133 0.069220 -0.153413
v -0.006390 0.069555 -0.159000
v 0.043801 0.014009 -0.144117
v -0.000133 0.067846 -0.158542
v -0.006390 0.070929 -0.153871
v 0.043801 0.015384 -0.138988
v 0.064215 0.014009 -0.144117
v -0.001234 0.069269 -0.153426
v -0.005438 0.069043 -0.158863
v -0.005438 0.070417 -0.153734
v -0.001234 0.067894 -0.158555
v -0.002325 0.069415 -0.153465
v -0.004436 0.068617 -0.158749
v -0.004436 0.069992 -0.153620
v -0.002325 0.068040 -0.158594
v -0.003396 0.069656 -0.153530
v -0.003396 0.068282 -0.158659
vn -0.6884049702973914 0.5256049773217224 0.4998379784334913
vn -0.7321842050478492 0.1187310332505713 -0.6706781878231174
vn -0.7321841050296208 0.4381630628531813 0.5214590748017454
vn -0.6884049650723982 0.20526798958531842 -0.6956749647035402
vn 0.7321841050296208 -0.4381630628531813 -0.5214590748017454
vn 0.7321842050478492 -0.1187310332505713 0.6706781878231174
vn 0.6884049702973914 -0.5256049773217224 -0.4998379784334913
vn 0.6884049650723982 -0.20526798958531842 0.6956749647035402
vn -0.7636929994795432 0.0279329999809638 -0.6449749995604495
vn 0.7636929994795432 -0.0279329999809638 0.6449749995604495
vn -0.7773055734560156 0.06595296380851876 0.6256566566728808
vn 0.7773055734560156 -0.06595296380851876 -0.6256566566728808
vn -0.6328323029808778 0.6075462908747036 0.4800112298147917
vn 0.6328323029808778 -0.6075462908747036 -0.4800112298147917
vn -0.7773058372018598 -0.2557109464441606 -0.5748108796121968
vn 0.7773058372018598 0.2557109464441606 0.5748108796121968
vn -0.7636931468058932 0.34667806664245104 0.5445981046889207
vn 0.7636931468058932 -0.34667806664245104 -0.5445981046889207
vn -0.6328321338838789 0.28614506053771405 -0.7194751522143378
vn 0.6328321338838789 -0.28614506053771405 0.7194751522143378
vn -0.782617846566221 -0.06573598711232939 -0.6190218786395345
vn 0.782617846566221 0.06573598711232939 0.6190218786395345
vn -0.5661378312750996 0.6825157965912124 0.46223386224138713
vn 0.5661378312750996 -0.6825157965912124 -0.46223386224138713
vn -0.7826181836867702 0.25258205928303673 0.568956133538572
vn 0.7826181836867702 -0.25258205928303673 -0.568956133538572
vn -0.5661380331697453 0.3599590210898198 -0.7415640434478677
vn 0.5661380331697453 -0.3599590210898198 0.7415640434478677
vn -0.4892169560558443 0.7490589327154098 0.4467409598712719
vn 0.4892169560558443 -0.7490589327154098 -0.4467409598712719
vn -0.48921691988119625 0.4253329303434446 -0.7614188753028216
vn 0.48921691988119625 -0.4253329303434446 0.7614188753028216
vn -0.40321498362725433 0.8057809672808615 0.43374498238756864
vn 0.40321498362725433 -0.8057809672808615 -0.43374498238756864
vn -0.7303589742205197 -0.44223198439053785 -0.520582981624983
vn 0.7303589742205197 0.44223198439053785 0.520582981624983
vn -0.4032149471857 0.48095393700321476 -0.7785248980264798
vn 0.4032149471857 -0.48095393700321476 0.7785248980264798
vn -0.30953415512911664 0.8514084267000422 0.42342921220985985
vn 0.30953415512911664 -0.8514084267000422 -0.42342921220985985
vn -0.7303589929717553 -0.1226929988193254 0.6719539935337867
vn 0.7303589929717553 0.1226929988193254 -0.6719539935337867
vn 0.4899902861078616 -0.5326893110400428 -0.6900374029164076
vn -0.4899902861078616 0.5326893110400428 0.6900374029164076
vn -0.3095341331769347 0.5256272261509 -0.7924043409316447
vn 0.3095341331769347 -0.5256272261509 0.7924043409316447
vn -0.20983103714250992 0.8848501566286672 0.41594607362724506
vn 0.20983103714250992 -0.8848501566286672 -0.41594607362724506
vn -0.6910929998334466 -0.5214769998743239 -0.5004519998793913
vn 0.6910929998334466 0.5214769998743239 0.5004519998793913
vn 0.48999029966051927 -0.11630407112740489 0.8639345283514174
vn -0.48999029966051927 0.11630407112740489 -0.8639345283514174
vn -0.026594006203943574 0.5852091365196518 -0.8104461890637455
vn 0.026594006203943574 -0.5852091365196518 0.8104461890637455
vn -0.2098309545206144 0.5583298789859203 -0.8026448260323713
vn 0.2098309545206144 -0.5583298789859203 0.8026448260323713
vn -0.10597504210124323 0.9052693596409562 0.41140816344221076
vn 0.10597504210124323 -0.9052693596409562 -0.41140816344221076
vn -0.6910928755708122 -0.20138596374106482 0.6941428750216689
vn 0.6910928755708122 0.20138596374106482 -0.6941428750216689
vn -0.026594006351699936 0.9120292178286282 0.4092620977479667
vn 0.026594006351699936 -0.9120292178286282 -0.4092620977479667
vn -0.6519549411173882 -0.5822969474086889 -0.4856799561348456
vn 0.6519549411173882 0.5822969474086889 0.4856799561348456
vn -0.10597497733333246 0.5782818763130377 -0.8089248269815139
vn 0.10597497733333246 -0.5782818763130377 0.8089248269815139
vn -0.4246869190217677 -0.7353688597817175 -0.5280848993061015
vn 0.4246869190217677 0.7353688597817175 0.5280848993061015
vn -0.6519546389313221 -0.26144485520534333 0.7117596058098453
vn 0.6519546389313221 0.26144485520534333 -0.7117596058098453
vn -0.42468706116216093 -0.37280605369041353 0.8250191188167869
vn 0.42468706116216093 0.37280605369041353 -0.8250191188167869
vn -0.6067281233754461 -0.6396341300667351 -0.47196309597158165
vn 0.6067281233754461 0.6396341300667351 0.47196309597158165
vn 0.4222060265861033 0.37644502370455585 -0.8246400519271733
vn -0.4222060265861033 -0.37644502370455585 0.8246400519271733
vn -0.6067280603242439 -0.31795803161313807 0.7285490724363594
vn 0.6067280603242439 0.31795803161313807 -0.7285490724363594
vn 0.42220593667629186 0.7383308892629264 0.5259369211184088
vn -0.42220593667629186 -0.7383308892629264 -0.5259369211184088
vn -0.5557222451822079 -0.6929113057094173 -0.4593982026844645
vn 0.5557222451822079 0.6929113057094173 0.4593982026844645
vn -0.4892910938005367 0.11062302120720975 -0.8650761658411725
vn 0.4892910938005367 -0.11062302120720975 0.8650761658411725
vn -0.5557220813243755 -0.37038005420142134 0.7443061089217639
vn 0.5557220813243755 0.37038005420142134 -0.7443061089217639
vn -0.4892912778595437 0.5283403000347672 0.6938663940340006
vn 0.4892912778595437 -0.5283403000347672 -0.6938663940340006
vn 0.42762499483364863 0.7317769911590362 0.5306969935883844
vn -0.42762499483364863 -0.7317769911590362 -0.5306969935883844
vn -0.49931478162622595 -0.7415616756802966 -0.44807480403587163
vn 0.49931478162622595 0.7415616756802966 0.44807480403587163
vn -0.4993149140863854 -0.41817392804774584 0.7588248694343277
vn 0.4993149140863854 0.41817392804774584 -0.7588248694343277
vn 0.4886410669347908 -0.105900014506344 0.8660341186306606
vn -0.4886410669347908 0.105900014506344 -0.8660341186306606
vn 0.42762484345897467 0.3683888651435447 -0.8254856978136803
vn -0.42762484345897467 -0.3683888651435447 0.8254856978136803
vn -0.019464008560263115 -0.5855032575040967 0.8104363564295826
vn 0.019464008560263115 0.5855032575040967 -0.8104363564295826
vn -0.4379550382674181 -0.7850380685946667 -0.43807603827799096
vn 0.4379550382674181 0.7850380685946667 0.43807603827799096
vn -0.01946399651024199 -0.9122788364348052 -0.4091069266499986
vn 0.01946399651024199 0.9122788364348052 0.4091069266499986
vn -0.4379549895184234 -0.4608249889710758 0.7719039815260221
vn 0.4379549895184234 0.4608249889710758 -0.7719039815260221
vn 0.4886409008826238 -0.5247288935624277 -0.6970578586067072
vn -0.4886409008826238 0.5247288935624277 0.6970578586067072
vn -0.07769696222728134 -0.5817897171603797 0.8096196063998805
vn 0.07769696222728134 0.5817897171603797 -0.8096196063998805
vn -0.3721670465128821 -0.8228251028354534 -0.4294770536754014
vn 0.3721670465128821 0.8228251028354534 0.4294770536754014
vn -0.372166871250568 -0.4978488277714684 0.7833507290033872
vn 0.372166871250568 0.4978488277714684 -0.7833507290033872
vn -0.07769704269216694 -0.9086544992780704 -0.41025622542334517
vn 0.07769704269216694 0.9086544992780704 0.41025622542334517
vn -0.15455803550043928 -0.5710501311645199 0.8062341851839513
vn 0.15455803550043928 0.5710501311645199 -0.8062341851839513
vn -0.3025489575000433 -0.8544528799724489 -0.422343940672084
vn 0.3025489575000433 0.8544528799724489 0.422343940672084
vn -0.30254899013599545 -0.528805982759339 0.7929869741462459
vn 0.30254899013599545 0.528805982759339 -0.7929869741462459
vn -0.15455801669837177 -0.8976610969828612 -0.41269404458726083
vn 0.15455801669837177 0.8976610969828612 0.41269404458726083
vn -0.22976898976999546 -0.5533109753649361 0.8006579643523061
vn 0.22976898976999546 0.5533109753649361 -0.8006579643523061
vn -0.22976903519073882 -0.879510134703144 -0.41673506382589726
vn 0.22976903519073882 0.879510134703144 0.41673506382589726
usemtl material_0_0
f 1//1 2//2 3//3
f 2//2 1//1 4//4
f 3//5 2//6 1//7
f 4//8 1//7 2//6
f 5//9 3//3 2//2
f 2//6 3//5 5//10
f 6//11 1//1 3//3
f 3//5 1//7 6//12
f 7//13 4//4 1//1
f 1//7 4//8 7//14
f 4//4 8//15 2//2
f 2//6 8//16 4//8
f 3//3 5//9 9//17
f 9//18 5//10 3//5
f 2//2 8//15 5//9
f 5//10 8//16 2//6
f 6//11 7//13 1//1
f 1//7 7//14 6//12
f 6//11 3//3 9//17
f 9//18 3//5 6//12
f 4//4 7//13 10//19
f 10//20 7//14 4//8
f 10//19 8//15 4//4
f 4//8 8//16 10//20
f 11//21 9//17 5//9
f 5//10 9//18 11//22
f 5//9 8//15 11//21
f 11//22 8//16 5//10
f 6//11 12//23 7//13
f 7//14 12//24 6//12
f 6//11 9//17 13//25
f 13//26 9//18 6//12
f 12//23 10//19 7//13
f 7//14 10//20 12//24
f 14//27 8//15 10//19
f 10//20 8//16 14//28
f 9//17 11//21 13//25
f 13//26 11//22 9//18
f 8//15 13//25 11//21
f 11//22 13//26 8//16
f 6//11 15//29 12//23
f 12//24 15//30 6//12
f 13//25 8//15 6//11
f 6//12 8//16 13//26
f 10//19 12//23 14//27
f 14//28 12//24 10//20
f 16//31 8//15 14//27
f 14//28 8//16 16//32
f 6//11 17//33 15//29
f 15//30 17//34 6//12
f 16//31 12//23 15//29
f 15//30 12//24 16//32
f 18//35 6//11 8//15
f 8//16 6//12 18//36
f 12//23 16//31 14//27
f 14//28 16//32 12//24
f 19//37 8//15 16//31
f 16//32 8//16 19//38
f 6//11 20//39 17//33
f 17//34 20//40 6//12
f 19//37 15//29 17//33
f 17//34 15//30 19//38
f 15//29 19//37 16//31
f 16//32 19//38 15//30
f 6//11 18//35 21//41
f 21//42 18//36 6//12
f 22//43 18//35 8//15
f 8//16 18//36 22//44
f 23//45 8//15 19//37
f 19//38 8//16 23//46
f 6//11 24//47 20//39
f 20//40 24//48 6//12
f 23//45 17//33 20//39
f 20//40 17//34 23//46
f 17//33 23//45 19//37
f 19//38 23//46 17//34
f 25//49 21//41 18//35
f 18//36 21//42 25//50
f 21//41 26//51 6//11
f 6//12 26//52 21//42
f 22//43 25//49 18//35
f 18//36 25//50 22//44
f 22//43 8//15 27//53
f 27//54 8//16 22//44
f 28//55 8//15 23//45
f 23//46 8//16 28//56
f 6//11 29//57 24//47
f 24//48 29//58 6//12
f 28//55 20//39 24//47
f 24//48 20//40 28//56
f 20//39 28//55 23//45
f 23//46 28//56 20//40
f 21//41 25//49 30//59
f 30//60 25//50 21//42
f 30//59 26//51 21//41
f 21//42 26//52 30//60
f 6//11 26//51 31//61
f 31//62 26//52 6//12
f 22//43 32//63 25//49
f 25//50 32//64 22//44
f 27//53 8//15 33//65
f 33//66 8//16 27//54
f 27//53 34//67 22//43
f 22//44 34//68 27//54
f 33//65 8//15 28//55
f 28//56 8//16 33//66
f 6//11 31//61 29//57
f 29//58 31//62 6//12
f 33//65 24//47 29//57
f 29//58 24//48 33//66
f 24//47 33//65 28//55
f 28//56 33//66 24//48
f 32//63 30//59 25//49
f 25//50 30//60 32//64
f 35//69 26//51 30//59
f 30//60 26//52 35//70
f 36//71 31//61 26//51
f 26//52 31//62 36//72
f 22//43 37//73 32//63
f 32//64 37//74 22//44
f 29//57 27//53 33//65
f 33//66 27//54 29//58
f 38//75 34//67 27//53
f 27//54 34//68 38//76
f 36//71 22//43 34//67
f 34//68 22//44 36//72
f 27//53 29//57 31//61
f 31//62 29//58 27//54
f 30//59 32//63 35//69
f 35//70 32//64 30//60
f 39//77 26//51 35//69
f 35//70 26//52 39//78
f 36//71 40//79 31//61
f 31//62 40//80 36//72
f 22//43 36//71 26//51
f 26//52 36//72 22//44
f 22//43 41//81 37//73
f 37//74 41//82 22//44
f 37//73 35//69 32//63
f 32//64 35//70 37//74
f 38//75 42//83 34//67
f 34//68 42//84 38//76
f 31//61 38//75 27//53
f 27//54 38//76 31//62
f 42//83 36//71 34//67
f 34//68 36//72 42//84
f 43//85 26//51 39//77
f 39//78 26//52 43//86
f 35//69 37//73 39//77
f 39//78 37//74 35//70
f 44//87 40//79 36//71
f 36//72 40//80 44//88
f 38//75 31//61 40//79
f 40//80 31//62 38//76
f 45//89 22//43 26//51
f 26//52 22//44 45//90
f 22//43 46//91 41//81
f 41//82 46//92 22//44
f 41//81 39//77 37//73
f 37//74 39//78 41//82
f 38//75 47//67 42//83
f 42//84 47//68 38//76
f 36//71 42//83 44//87
f 44//88 42//84 36//72
f 48//93 26//51 43//85
f 43//86 26//52 48//94
f 39//77 41//81 43//85
f 43//86 41//82 39//78
f 49//71 40//79 44//87
f 44//88 40//80 49//72
f 50//95 38//75 40//79
f 40//80 38//76 50//96
f 22//43 45//89 51//97
f 51//98 45//90 22//44
f 52//99 45//89 26//51
f 26//52 45//90 52//100
f 22//43 53//101 46//91
f 46//92 53//102 22//44
f 48//93 41//81 46//91
f 46//92 41//82 48//94
f 38//75 54//67 47//67
f 47//68 54//68 38//76
f 55//103 42//83 47//67
f 47//68 42//84 55//104
f 42//83 45//89 44//87
f 44//88 45//90 42//84
f 56//105 26//51 48//93
f 48//94 26//52 56//106
f 41//81 48//93 43//85
f 43//86 48//94 41//82
f 57//71 40//79 49//71
f 49//72 40//80 57//72
f 44//87 52//99 49//71
f 49//72 52//100 44//88
f 38//75 50//95 58//107
f 58//108 50//96 38//76
f 40//79 57//71 50//95
f 50//96 57//72 40//80
f 45//89 42//83 51//97
f 51//98 42//84 45//90
f 51//97 55//103 22//43
f 22//44 55//104 51//98
f 52//99 44//87 45//89
f 45//90 44//88 52//100
f 52//99 26//51 59//109
f 59//110 26//52 52//100
f 22//43 60//111 53//101
f 53//102 60//112 22//44
f 56//105 46//91 53//101
f 53//102 46//92 56//106
f 46//91 56//105 48//93
f 48//94 56//106 46//92
f 54//67 38//75 58//107
f 58//108 38//76 54//68
f 54//67 49//71 47//67
f 47//68 49//72 54//68
f 42//83 55//103 51//97
f 51//98 55//104 42//84
f 49//71 55//103 47//67
f 47//68 55//104 49//72
f 61//113 26//51 56//105
f 56//106 26//52 61//114
f 49//71 54//67 57//71
f 57//72 54//68 49//72
f 55//103 49//71 52//99
f 52//100 49//72 55//104
f 50//95 54//67 58//107
f 58//108 54//68 50//96
f 54//67 50//95 57//71
f 57//72 50//96 54//68
f 22//43 55//103 62//115
f 62//116 55//104 22//44
f 59//109 26//51 63//117
f 63//118 26//52 59//110
f 62//115 52//99 59//109
f 59//110 52//100 62//116
f 22//43 64//119 60//111
f 60//112 64//120 22//44
f 61//113 53//101 60//111
f 60//112 53//102 61//114
f 53//101 61//113 56//105
f 56//106 61//114 53//102
f 65//121 26//51 61//113
f 61//114 26//52 65//122
f 52//99 62//115 55//103
f 55//104 62//116 52//100
f 22//43 62//115 66//123
f 66//124 62//116 22//44
f 63//117 26//51 67//125
f 67//126 26//52 63//118
f 66//123 59//109 63//117
f 63//118 59//110 66//124
f 59//109 66//123 62//115
f 62//116 66//124 59//110
f 22//43 68//127 64//119
f 64//120 68//128 22//44
f 65//121 60//111 64//119
f 64//120 60//112 65//122
f 60//111 65//121 61//113
f 61//114 65//122 60//112
f 67//125 26//51 65//121
f 65//122 26//52 67//126
f 22//43 66//123 68//127
f 68//128 66//124 22//44
f 68//127 63//117 67//125
f 67//126 63//118 68//128
f 63//117 68//127 66//123
f 66//124 68//128 63//118
f 67//125 64//119 68//127
f 68//128 64//120 67//126
f 64//119 67//125 65//121
f 65//122 67//126 64//120
