# SSTK version 0.8.0
# 7
mtllib original-7.mtl
o staticmesh1/mesh10/mesh10-geometry#mesh10-geometry
v 0.534823 -0.809984 -0.241215
v 0.070734 -0.809984 -0.033229
v -0.518750 -0.809984 -0.241215
v 0.534823 -0.809984 0.236945
v -0.088653 -0.809984 -0.033229
v -0.023820 -0.799990 -0.241215
v 0.534823 0.368072 -0.241215
v 0.070734 -0.809984 0.080233
v -0.518750 -0.809984 0.236945
v -0.088653 -0.804581 -0.033229
v -0.112552 -0.779920 -0.241215
v 0.067084 -0.796410 -0.241215
v 0.534823 0.368072 0.236945
v 0.355067 -0.484816 -0.241215
v -0.088653 -0.809984 0.080233
v 0.070734 -0.804581 0.080233
v -0.518750 0.368072 0.236945
v 0.070734 -0.804581 -0.033229
v -0.193067 -0.737568 -0.241215
v -0.112552 -0.779920 0.236945
v -0.023820 -0.799990 0.236945
v 0.153963 -0.769425 -0.241215
v 0.649062 0.320072 0.309884
v 0.008037 0.905664 0.309884
v 0.355067 -0.484816 0.236945
v 0.334997 -0.573549 -0.241215
v 0.353813 -0.452959 -0.241215
v -0.518750 0.368072 -0.241215
v -0.335414 -0.512007 0.236945
v -0.088653 -0.804581 0.080233
v -0.259877 -0.675821 -0.241215
v 0.067084 -0.796410 0.236945
v 0.230898 -0.720873 -0.241215
v 0.534823 0.368072 -0.346573
v 0.534823 0.368072 0.309884
v -0.271309 0.283490 0.236945
v 0.353813 -0.452959 0.236945
v 0.334997 -0.573549 0.236945
v 0.292646 -0.654063 -0.241215
v 0.351487 -0.393912 -0.241215
v 0.008037 0.905664 -0.346573
v -0.632988 0.320072 0.309884
v -0.271309 0.283490 -0.241215
v -0.308429 -0.598886 0.236945
v -0.338994 -0.421103 0.236945
v -0.308429 -0.598886 -0.241215
v -0.259877 -0.675821 0.236945
v -0.193067 -0.737568 0.236945
v 0.153963 -0.769425 0.236945
v 0.649062 0.320072 -0.346573
v 0.008037 0.974246 0.309884
v 0.285194 0.283490 0.236945
v 0.351487 -0.393912 0.236945
v 0.292646 -0.654063 0.236945
v 0.324502 -0.307033 -0.241215
v -0.518750 0.368072 -0.346573
v -0.518750 0.368072 0.309884
v -0.632988 0.320072 -0.346573
v -0.338994 -0.421103 -0.241215
v -0.335414 -0.512007 -0.241215
v -0.337739 -0.452959 0.236945
v 0.230898 -0.720873 0.236945
v 0.008037 0.974246 -0.346573
v 0.285194 0.283490 -0.241215
v -0.318924 -0.332370 0.236945
v -0.271309 0.283490 -0.212850
v 0.324502 -0.307033 0.236945
v 0.285194 0.102491 -0.241215
v -0.318924 -0.332370 -0.241215
v -0.337739 -0.452959 -0.241215
v 0.285194 0.283490 -0.212850
v -0.276572 -0.251856 0.236945
v -0.271309 0.102491 0.236945
v 0.285194 0.102491 0.236945
v 0.275950 -0.230098 -0.241215
v 0.275950 -0.230098 0.236945
v -0.276572 -0.251856 -0.241215
v -0.271309 0.102491 -0.212850
v 0.285194 0.102491 -0.212850
v 0.209140 -0.168350 -0.241215
v -0.271309 0.102491 -0.241215
v -0.214825 -0.185046 -0.241215
v -0.214825 -0.185046 0.236945
v 0.209140 -0.168350 0.236945
v 0.128626 -0.125999 -0.241215
v -0.137890 -0.136494 0.236945
v 0.128626 -0.125999 0.236945
v 0.039893 -0.105929 -0.241215
v -0.137890 -0.136494 -0.241215
v 0.039893 -0.105929 0.236945
v -0.051010 -0.109509 0.236945
v -0.051010 -0.109509 -0.241215
vt 3.905671 0
vt 2.966305 0.280658
vt 1.773125 0
vt 3.905671 0.645232
vt 2.643689 0.280658
vt -1.773125 1.308897
vt -2.774918 1.329127
vt -3.905671 1.308897
vt 3.69341 0
vt 1.308897 0.645232
vt 1.308897 0
vt 2.966305 0.433764
vt 1.773125 0.645232
vt 2.966305 1.308897
vt 2.643689 1.319833
vt 2.643689 1.308897
vt -2.595313 1.36975
vt -2.958916 1.336373
vt 3.69341 0.645232
vt -3.541826 1.967073
vt -3.905671 3.69341
vt 2.643689 0.433764
vt -1.319833 0.433764
vt -1.308897 0.280658
vt -1.308897 0.433764
vt -3.69341 0.645232
vt -1.308897 0
vt -1.308897 0.645232
vt 2.966305 1.319833
vt 1.319833 0.280658
vt 1.308897 0.433764
vt 1.308897 0.280658
vt -2.432343 1.455475
vt -2.229188 0.645232
vt -2.41333 0
vt -2.229188 0
vt -2.825068 0.645232
vt -3.009209 0
vt -2.825068 0
vt -3.13477 1.390994
vt 2.170028 0
vt 2.420841 0.743657
vt 2.170028 0.645232
vt 0.095535 0.645232
vt -1.427948 0.743657
vt 0.095535 0
vt -3.905671 0
vt -1.773125 0.645232
vt -3.905671 0.645232
vt 3.905671 3.69341
vt 3.541826 1.967073
vt 3.905671 1.308897
vt -3.501202 1.787469
vt -3.539286 2.031554
vt -2.643689 1.308897
vt -2.966305 1.319833
vt -2.966305 1.308897
vt -1.319833 0.280658
vt -3.69341 0
vt 1.773125 1.308897
vt 2.144217 1.912036
vt 1.773125 3.69341
vt 1.319833 0.433764
vt -2.297112 1.580458
vt -1.475119 0
vt -1.65926 0.645232
vt -1.65926 0
vt -2.41333 0.645232
vt -3.009209 0.645232
vt -3.22215 0.645232
vt -3.406291 0
vt -3.22215 0
vt -3.290495 1.489268
vt 2.170028 -0.14217
vt 2.170028 0.743657
vt 0.095535 0.743657
vt 0.095535 -0.14217
vt -1.773125 0
vt 2.273973 3.522207
vt 3.539286 2.031554
vt 3.501202 1.787469
vt -3.415478 1.624498
vt -2.515831 0
vt -2.699973 0.645232
vt -2.699973 0
vt -3.53458 2.151072
vt -1.826183 0
vt -1.890714 0.645232
vt -1.890714 0
vt 2.774918 1.329127
vt -2.643689 1.319833
vt 3.87901 0
vt 5.402492 -0.14217
vt 3.87901 0.645232
vt 2.814585 0.743657
vt 3.065398 0
vt 3.065398 0.645232
vt -1.773125 3.69341
vt -2.273973 3.522207
vt 2.198838 1.736183
vt 2.136971 2.096035
vt -2.198838 1.736183
vt -0.614248 0.645232
vt -0.798389 0
vt -0.614248 0
vt -1.475119 0.645232
vt 2.595313 1.36975
vt 2.958916 1.336373
vt -3.406291 0.645232
vt -3.393372 0.645232
vt -3.577514 0
vt -3.393372 0
vt 2.420841 -0.14217
vt 2.839398 4.920373
vt 4.136903 3.596253
vt 2.839398 4.781555
vt -1.427948 -0.14217
vt 3.400395 3.522207
vt 3.53458 2.151072
vt -1.826183 0.645232
vt 3.415478 1.624498
vt -2.515831 0.645232
vt -3.027755 0
vt -3.211897 0.645232
vt -3.211897 0
vt -3.479959 2.326926
vt -2.010324 0.645232
vt -2.010324 0
vt 3.87901 -0.14217
vt 3.87901 0.743657
vt 2.814585 -0.14217
vt 3.065398 0.743657
vt -2.136971 2.096035
vt 2.297112 1.580458
vt 1.005809 0.645232
vt 1.189951 0
vt 1.189951 0.645232
vt 2.13951 2.031554
vt -2.144217 1.912036
vt 0.294758 0
vt 0.110617 0.645232
vt 0.110617 0
vt -0.798389 0.645232
vt 2.432343 1.455475
vt 3.13477 1.390994
vt -3.577514 0.645232
vt -3.327068 0
vt -3.511209 0.645232
vt -3.511209 0
vt -2.839398 4.920373
vt -4.136903 3.596253
vt 1.527098 -0.14217
vt -0.326766 0.743657
vt -0.326766 -0.14217
vt 1.527098 0.743657
vt 5.402492 0.743657
vt -2.839398 4.781555
vt -3.400395 3.522207
vt 2.177595 2.275639
vt 2.273973 0.038276
vt 3.400395 0.645232
vt 2.273973 0.645232
vt 3.479959 2.326926
vt 3.290495 1.489268
vt -3.027755 0.645232
vt -3.400395 3.155847
vt -1.005809 0
vt -1.189951 0.645232
vt -1.189951 0
vt -1.005809 0.645232
vt 3.065398 -0.14217
vt -5.501642 0.743657
vt -3.647779 -0.14217
vt -3.647779 0.743657
vt 1.541894 3.596253
vt -2.177595 2.275639
vt 0.294758 0.645232
vt 1.005809 0
vt 1.945794 0
vt 1.826183 0.645232
vt 1.826183 0
vt 1.945794 0.645232
vt 2.010324 0.645232
vt -3.327068 0.645232
vt -5.501642 -0.14217
vt 3.400395 0.038276
vt 2.273973 0
vt 3.400395 0
vt 2.515831 0.645232
vt 2.699973 0
vt 2.699973 0.645232
vt 2.263319 2.43861
vt 3.155847 0.645232
vt 3.522207 0.038276
vt 3.522207 0.645232
vt 3.400395 3.155847
vt -3.381684 2.48265
vt -0.294758 0.645232
vt -0.110617 0
vt -0.110617 0.645232
vt -1.541894 3.596253
vt -2.263319 2.43861
vt 2.515831 0
vt -2.13951 2.031554
vt 2.010324 0
vt -3.155847 0
vt -3.522207 0.038276
vt -3.522207 0
vt 3.211897 0
vt 3.027755 0.645232
vt 3.027755 0
vt 3.211897 0.645232
vt 2.273973 3.155847
vt -2.273973 3.155847
vt -3.155847 0.038276
vt -3.522207 0.645232
vt 3.155847 0.038276
vt 3.381684 2.48265
vt -3.155847 0.645232
vt -3.246454 2.607634
vt -0.294758 0
vt 3.522207 0
vt 3.511209 0
vt 3.327068 0.645232
vt 3.327068 0
vt 2.388302 2.57384
vt -2.273973 0.645232
vt -3.400395 0.038276
vt -2.273973 0.038276
vt 3.246454 2.607634
vt -3.400395 0.645232
vt -3.083484 2.693358
vt 0.798389 0
vt 0.614248 0.645232
vt 0.614248 0
vt 0.798389 0.645232
vt -2.388302 2.57384
vt 3.155847 0
vt -3.400395 0
vt 3.511209 0.645232
vt 2.544027 2.672114
vt 3.083484 2.693358
vt -2.903879 2.733981
vt 1.65926 0.645232
vt 1.475119 0
vt 1.65926 0
vt -2.544027 2.672114
vt -2.273973 0
vt 3.577514 0
vt 3.393372 0.645232
vt 3.393372 0
vt 3.577514 0.645232
vt 2.903879 2.733981
vt 1.475119 0.645232
vt 2.719881 2.726736
vt -2.719881 2.726736
vt 2.41333 0.645232
vt 2.229188 0
vt 2.41333 0
vt 3.22215 0
vt 3.406291 0.645232
vt 3.22215 0.645232
vt 2.229188 0.645232
vt 3.009209 0.645232
vt 2.825068 0
vt 3.009209 0
vt 3.406291 0
vt 2.825068 0.645232
vn 0 -1 0
vn 0 1 0
vn 0 0 -1
vn 0 0 1
vn 1 0 0
vn -1 0 0
vn 0.3460331110121113 0.9382223009944286 0
vn 0.09141300605437501 0.9958130659536975 0
vn -0.3460331110121113 -0.9382223009944286 0
vn -0.09141300605437501 -0.9958130659536975 0
vn -0.16943700341839157 0.9855410198832902 0
vn 0.16943700341839157 -0.9855410198832902 0
vn -0.38736806332519297 -0.9219251507121872 0
vn 0.38736806332519297 0.9219251507121872 0
vn -0.7142488408421629 -0.699891844041368 0
vn 0.7142488408421629 0.699891844041368 0
vn 0.5770721300048439 0.8166931839875198 0
vn -0.5770721300048439 -0.8166931839875198 0
vn -0.4187408885485681 0.9081057582999659 0
vn 0.4187408885485681 -0.9081057582999659 0
vn -0.9382223009944286 0.3460331110121113 0
vn -0.9958130659536975 0.09141300605437501 0
vn 0.9958130659536975 -0.09141300605437501 0
vn 0.9382223009944286 -0.3460331110121113 0
vn -0.9992255289267263 -0.03934898144937958 0
vn 0.9992255289267263 0.03934898144937958 0
vn 0.7142488408421629 -0.699891844041368 0
vn -0.7142488408421629 0.699891844041368 0
vn 0.38736806332519297 -0.9219251507121872 0
vn -0.38736806332519297 0.9219251507121872 0
vn 0.7687851617239699 0.6395071345286535 0
vn -0.7687851617239699 -0.6395071345286535 0
vn -0.6395071345286535 0.7687851617239699 0
vn 0.6395071345286535 -0.7687851617239699 0
vn -0.8166931839875198 0.5770721300048439 0
vn 0.8166931839875198 -0.5770721300048439 0
vn -0.9855410198832902 -0.16943700341839157 0
vn 0.9855410198832902 0.16943700341839157 0
vn 0.9081057582999659 0.4187408885485681 0
vn -0.9081057582999659 -0.4187408885485681 0
usemtl material_0_0
f 1/1/1 2/2/1 3/3/1
f 2/2/1 1/1/1 4/4/1
f 3/3/2 2/2/2 1/1/2
f 4/4/2 1/1/2 2/2/2
f 5/5/1 3/3/1 2/2/1
f 2/2/2 3/3/2 5/5/2
f 3/6/3 6/7/3 1/8/3
f 1/8/4 6/7/4 3/6/4
f 7/9/5 4/10/5 1/11/5
f 1/11/6 4/10/6 7/9/6
f 2/2/1 4/4/1 8/12/1
f 8/12/2 4/4/2 2/2/2
f 3/3/1 5/5/1 9/13/1
f 9/13/2 5/5/2 3/3/2
f 2/14/4 10/15/4 5/16/4
f 5/16/3 10/15/3 2/14/3
f 6/7/3 3/6/3 11/17/3
f 11/17/4 3/6/4 6/7/4
f 1/8/3 6/7/3 12/18/3
f 12/18/4 6/7/4 1/8/4
f 4/10/5 7/9/5 13/19/5
f 13/19/6 7/9/6 4/10/6
f 1/8/3 14/20/3 7/21/3
f 7/21/4 14/20/4 1/8/4
f 8/12/1 4/4/1 15/22/1
f 15/22/2 4/4/2 8/12/2
f 16/23/6 2/24/6 8/25/6
f 8/25/5 2/24/5 16/23/5
f 9/13/1 5/5/1 15/22/1
f 15/22/2 5/5/2 9/13/2
f 17/26/6 3/27/6 9/28/6
f 9/28/5 3/27/5 17/26/5
f 10/15/4 2/14/4 18/29/4
f 18/29/3 2/14/3 10/15/3
f 10/30/5 15/31/5 5/32/5
f 5/32/6 15/31/6 10/30/6
f 11/17/3 3/6/3 19/33/3
f 19/33/4 3/6/4 11/17/4
f 20/34/7 6/35/8 11/36/7
f 11/36/9 6/35/10 20/34/9
f 21/37/8 12/38/11 6/39/8
f 6/39/10 12/38/12 21/37/10
f 1/8/3 12/18/3 22/40/3
f 22/40/4 12/18/4 1/8/4
f 7/41/13 23/42/13 13/43/13
f 13/43/14 23/42/14 7/41/14
f 13/44/15 24/45/15 7/46/15
f 7/46/16 24/45/16 13/44/16
f 7/47/2 17/48/2 13/49/2
f 13/49/1 17/48/1 7/47/1
f 13/50/4 25/51/4 4/52/4
f 4/52/3 25/51/3 13/50/3
f 1/8/3 26/53/3 14/20/3
f 14/20/4 26/53/4 1/8/4
f 27/54/3 7/21/3 14/20/3
f 14/20/4 7/21/4 27/54/4
f 9/13/1 15/22/1 4/4/1
f 4/4/2 15/22/2 9/13/2
f 15/55/3 16/56/3 8/57/3
f 8/57/4 16/56/4 15/55/4
f 2/24/6 16/23/6 18/58/6
f 18/58/5 16/23/5 2/24/5
f 3/27/6 17/26/6 28/59/6
f 28/59/5 17/26/5 3/27/5
f 9/60/4 29/61/4 17/62/4
f 17/62/3 29/61/3 9/60/3
f 16/12/1 10/5/1 18/2/1
f 18/2/2 10/5/2 16/12/2
f 15/31/5 10/30/5 30/63/5
f 30/63/6 10/30/6 15/31/6
f 19/33/3 3/6/3 31/64/3
f 31/64/4 3/6/4 19/33/4
f 19/65/17 20/66/7 11/67/7
f 11/67/9 20/66/9 19/65/18
f 6/35/8 20/34/7 21/68/8
f 21/68/10 20/34/9 6/35/10
f 12/38/11 21/37/8 32/69/11
f 32/69/12 21/37/10 12/38/12
f 32/70/11 22/71/19 12/72/11
f 12/72/12 22/71/20 32/70/12
f 1/8/3 22/40/3 33/73/3
f 33/73/4 22/40/4 1/8/4
f 34/74/13 23/42/13 7/41/13
f 7/41/14 23/42/14 34/74/14
f 13/43/13 23/42/13 35/75/13
f 35/75/14 23/42/14 13/43/14
f 24/45/15 13/44/15 35/76/15
f 35/76/16 13/44/16 24/45/16
f 7/46/15 24/45/15 34/77/15
f 34/77/16 24/45/16 7/46/16
f 17/48/2 7/47/2 28/78/2
f 28/78/1 7/47/1 17/48/1
f 17/62/4 36/79/4 13/50/4
f 13/50/3 36/79/3 17/62/3
f 13/50/4 37/80/4 25/51/4
f 25/51/3 37/80/3 13/50/3
f 38/81/4 4/52/4 25/51/4
f 25/51/3 4/52/3 38/81/3
f 1/8/3 39/82/3 26/53/3
f 26/53/4 39/82/4 1/8/4
f 26/83/21 25/84/22 14/85/22
f 14/85/23 25/84/23 26/83/24
f 40/86/3 7/21/3 27/54/3
f 27/54/4 7/21/4 40/86/4
f 14/87/22 37/88/25 27/89/25
f 27/89/26 37/88/26 14/87/23
f 21/90/4 9/60/4 4/52/4
f 4/52/3 9/60/3 21/90/3
f 16/56/3 15/55/3 30/91/3
f 30/91/4 15/55/4 16/56/4
f 28/92/27 41/93/27 17/94/27
f 17/94/28 41/93/28 28/92/28
f 42/95/29 28/96/29 17/97/29
f 17/97/30 28/96/30 42/95/30
f 28/98/3 43/99/3 3/6/3
f 3/6/4 43/99/4 28/98/4
f 29/61/4 9/60/4 44/100/4
f 44/100/3 9/60/3 29/61/3
f 17/62/4 29/61/4 45/101/4
f 45/101/3 29/61/3 17/62/3
f 10/5/1 16/12/1 30/22/1
f 30/22/2 16/12/2 10/5/2
f 31/64/3 3/6/3 46/102/3
f 46/102/4 3/6/4 31/64/4
f 47/103/31 19/104/17 31/105/31
f 31/105/32 19/104/18 47/103/32
f 20/66/7 19/65/17 48/106/17
f 48/106/18 19/65/18 20/66/9
f 20/107/4 9/60/4 21/90/4
f 21/90/3 9/60/3 20/107/3
f 21/90/4 4/52/4 32/108/4
f 32/108/3 4/52/3 21/90/3
f 22/71/19 32/70/11 49/109/19
f 49/109/20 32/70/12 22/71/20
f 49/110/19 33/111/33 22/112/19
f 22/112/20 33/111/34 49/110/20
f 1/8/3 33/73/3 39/82/3
f 39/82/4 33/73/4 1/8/4
f 23/42/13 34/74/13 50/113/13
f 50/113/14 34/74/14 23/42/14
f 51/114/4 35/50/4 23/115/4
f 23/115/3 35/50/3 51/114/3
f 51/114/4 24/116/4 35/50/4
f 35/50/3 24/116/3 51/114/3
f 34/77/15 24/45/15 41/117/15
f 41/117/16 24/45/16 34/77/16
f 43/99/3 28/98/3 7/21/3
f 7/21/4 28/98/4 43/99/4
f 36/79/4 17/62/4 45/101/4
f 45/101/3 17/62/3 36/79/3
f 13/50/4 36/79/4 52/118/4
f 52/118/3 36/79/3 13/50/3
f 13/50/4 53/119/4 37/80/4
f 37/80/3 53/119/3 13/50/3
f 37/88/25 14/87/22 25/120/22
f 25/120/23 14/87/23 37/88/26
f 54/121/4 4/52/4 38/81/4
f 38/81/3 4/52/3 54/121/3
f 25/84/22 26/83/21 38/122/21
f 38/122/24 26/83/24 25/84/23
f 39/123/35 38/124/21 26/125/21
f 26/125/24 38/124/24 39/123/36
f 55/126/3 7/21/3 40/86/3
f 40/86/4 7/21/4 55/126/4
f 27/89/25 53/127/37 40/128/37
f 40/128/38 53/127/38 27/89/26
f 53/127/37 27/89/25 37/88/25
f 37/88/26 27/89/26 53/127/38
f 41/93/27 28/92/27 56/129/27
f 56/129/28 28/92/28 41/93/28
f 17/94/27 41/93/27 57/130/27
f 57/130/28 41/93/28 17/94/28
f 58/131/29 28/96/29 42/95/29
f 42/95/30 28/96/30 58/131/30
f 42/95/29 17/97/29 57/132/29
f 57/132/30 17/97/30 42/95/30
f 3/6/3 43/99/3 59/133/3
f 59/133/4 43/99/4 3/6/4
f 44/100/4 9/60/4 47/134/4
f 47/134/3 9/60/3 44/100/3
f 44/135/39 60/136/38 29/137/38
f 29/137/37 60/136/37 44/135/40
f 45/101/4 29/61/4 61/138/4
f 61/138/3 29/61/3 45/101/3
f 46/102/3 3/6/3 60/139/3
f 60/139/4 3/6/4 46/102/4
f 46/140/39 47/141/31 31/142/31
f 31/142/32 47/141/32 46/140/40
f 19/104/17 47/103/31 48/143/17
f 48/143/18 47/103/32 19/104/18
f 48/144/4 9/60/4 20/107/4
f 20/107/3 9/60/3 48/144/3
f 32/108/4 4/52/4 49/145/4
f 49/145/3 4/52/3 32/108/3
f 33/111/33 49/110/19 62/146/33
f 62/146/34 49/110/20 33/111/34
f 33/147/33 54/148/35 39/149/35
f 39/149/36 54/148/36 33/147/34
f 34/21/3 63/150/3 50/151/3
f 50/151/4 63/150/4 34/21/4
f 63/152/16 23/153/16 50/154/16
f 50/154/15 23/153/15 63/152/15
f 23/153/16 63/152/16 51/155/16
f 51/155/15 63/152/15 23/153/15
f 51/114/4 57/62/4 24/116/4
f 24/116/3 57/62/3 51/114/3
f 57/130/27 41/93/27 24/156/27
f 24/156/28 41/93/28 57/130/28
f 41/157/3 63/150/3 34/21/3
f 34/21/4 63/150/4 41/157/4
f 43/99/3 7/21/3 64/158/3
f 64/158/4 7/21/4 43/99/4
f 36/79/4 45/101/4 65/159/4
f 65/159/3 45/101/3 36/79/3
f 66/160/1 52/161/1 36/162/1
f 36/162/2 52/161/2 66/160/2
f 13/50/4 52/118/4 67/163/4
f 67/163/3 52/118/3 13/50/3
f 13/50/4 67/163/4 53/119/4
f 53/119/3 67/163/3 13/50/3
f 62/164/4 4/52/4 54/121/4
f 54/121/3 4/52/3 62/164/3
f 38/124/21 39/123/35 54/165/35
f 54/165/36 39/123/36 38/124/24
f 68/166/3 7/21/3 55/126/3
f 55/126/4 7/21/4 68/166/4
f 40/167/37 67/168/40 55/169/40
f 55/169/39 67/168/39 40/167/38
f 67/168/40 40/167/37 53/170/37
f 53/170/38 40/167/38 67/168/39
f 28/96/29 58/131/29 56/171/29
f 56/171/30 58/131/30 28/96/30
f 56/98/3 63/150/3 41/157/3
f 41/157/4 63/150/4 56/98/4
f 51/172/28 58/173/28 42/174/28
f 42/174/27 58/173/27 51/172/27
f 57/62/4 51/114/4 42/175/4
f 42/175/3 51/114/3 57/62/3
f 59/133/3 43/99/3 69/176/3
f 69/176/4 43/99/4 59/133/4
f 60/139/3 3/6/3 59/133/3
f 59/133/4 3/6/4 60/139/4
f 47/134/4 9/60/4 48/144/4
f 48/144/3 9/60/3 47/134/3
f 47/141/31 46/140/39 44/177/39
f 44/177/40 46/140/40 47/141/32
f 60/136/38 44/135/39 46/178/39
f 46/178/40 44/135/40 60/136/37
f 70/179/26 29/180/38 60/181/38
f 60/181/37 29/180/37 70/179/25
f 29/180/38 70/179/26 61/182/26
f 61/182/25 70/179/25 29/180/37
f 70/179/26 45/183/23 61/182/26
f 61/182/25 45/183/22 70/179/25
f 49/145/4 4/52/4 62/164/4
f 62/164/3 4/52/3 49/145/3
f 54/148/35 33/147/33 62/184/33
f 62/184/34 33/147/34 54/148/36
f 58/173/28 51/172/28 63/185/28
f 63/185/27 51/172/27 58/173/27
f 64/158/3 7/21/3 68/166/3
f 68/166/4 7/21/4 64/158/4
f 71/186/1 43/187/1 64/188/1
f 64/188/2 43/187/2 71/186/2
f 45/189/23 69/190/24 65/191/24
f 65/191/21 69/190/21 45/189/22
f 36/79/4 65/159/4 72/192/4
f 72/192/3 65/159/3 36/79/3
f 52/161/1 66/160/1 71/186/1
f 71/186/2 66/160/2 52/161/2
f 73/193/5 66/194/5 36/195/5
f 36/195/6 66/194/6 73/193/6
f 74/196/4 67/163/4 52/118/4
f 52/118/3 67/163/3 74/196/3
f 75/197/3 68/166/3 55/126/3
f 55/126/4 68/166/4 75/197/4
f 76/198/32 55/199/40 67/200/40
f 67/200/39 55/199/39 76/198/31
f 63/150/3 56/98/3 58/201/3
f 58/201/4 56/98/4 63/150/4
f 69/176/3 43/99/3 77/202/3
f 77/202/4 43/99/4 69/176/4
f 69/190/24 45/189/23 59/203/23
f 59/203/22 45/189/22 69/190/21
f 60/139/3 59/133/3 70/204/3
f 70/204/4 59/133/4 60/139/4
f 45/183/23 70/179/26 59/205/23
f 59/205/22 70/179/25 45/183/22
f 68/206/6 71/207/6 64/208/6
f 64/208/5 71/207/5 68/206/5
f 43/187/1 71/186/1 66/160/1
f 66/160/2 71/186/2 43/187/2
f 77/209/36 65/210/24 69/211/24
f 69/211/21 65/210/21 77/209/35
f 65/210/24 77/209/36 72/212/36
f 72/212/35 77/209/35 65/210/21
f 36/79/4 72/192/4 73/213/4
f 73/213/3 72/192/3 36/79/3
f 71/158/3 78/214/3 66/99/3
f 66/99/4 78/214/4 71/158/4
f 79/215/6 52/216/6 71/207/6
f 71/207/5 52/216/5 79/215/5
f 66/194/5 73/193/5 78/217/5
f 78/217/6 73/193/6 66/194/6
f 74/196/4 76/218/4 67/163/4
f 67/163/3 76/218/3 74/196/3
f 52/216/6 79/215/6 74/219/6
f 74/219/5 79/215/5 52/216/5
f 80/220/3 68/166/3 75/197/3
f 75/197/4 68/166/4 80/220/4
f 55/199/40 76/198/32 75/221/32
f 75/221/31 76/198/31 55/199/39
f 81/214/3 77/202/3 43/99/3
f 43/99/4 77/202/4 81/214/4
f 71/207/6 68/206/6 79/215/6
f 79/215/5 68/206/5 71/207/5
f 78/217/5 43/222/5 66/194/5
f 66/194/6 43/222/6 78/217/6
f 82/223/34 72/224/36 77/225/36
f 77/225/35 72/224/35 82/223/33
f 83/226/4 73/213/4 72/192/4
f 72/192/3 73/213/3 83/226/3
f 78/214/3 71/158/3 79/166/3
f 79/166/4 71/158/4 78/214/4
f 73/227/2 79/228/2 78/229/2
f 78/229/1 79/228/1 73/227/1
f 74/196/4 84/230/4 76/218/4
f 76/218/3 84/230/3 74/196/3
f 79/228/2 73/227/2 74/231/2
f 74/231/1 73/227/1 79/228/1
f 85/232/3 68/166/3 80/220/3
f 80/220/4 68/166/4 85/232/4
f 75/233/32 84/234/18 80/235/18
f 80/235/17 84/234/17 75/233/31
f 84/234/18 75/233/32 76/236/32
f 76/236/31 75/233/31 84/234/17
f 77/202/3 81/214/3 82/237/3
f 82/237/4 81/214/4 77/202/4
f 43/222/5 78/217/5 81/238/5
f 81/238/6 78/217/6 43/222/6
f 68/239/2 78/229/2 79/228/2
f 79/228/1 78/229/1 68/239/1
f 72/224/36 82/223/34 83/240/34
f 83/240/33 82/223/33 72/224/35
f 73/213/4 83/226/4 86/241/4
f 86/241/3 83/226/3 73/213/3
f 74/196/4 87/242/4 84/230/4
f 84/230/3 87/242/3 74/196/3
f 73/213/4 86/241/4 74/196/4
f 74/196/3 86/241/3 73/213/3
f 88/243/3 68/166/3 85/232/3
f 85/232/4 68/166/4 88/243/4
f 84/244/18 85/245/9 80/246/18
f 80/246/17 85/245/7 84/244/17
f 82/237/3 81/214/3 89/247/3
f 89/247/4 81/214/4 82/237/4
f 78/229/2 68/239/2 81/248/2
f 81/248/1 68/239/1 78/229/1
f 89/249/20 83/250/34 82/251/34
f 82/251/33 83/250/33 89/249/19
f 83/250/34 89/249/20 86/252/20
f 86/252/19 89/249/19 83/250/33
f 74/196/4 90/253/4 87/242/4
f 87/242/3 90/253/3 74/196/3
f 85/245/9 84/244/18 87/254/9
f 87/254/7 84/244/17 85/245/7
f 74/196/4 86/241/4 91/255/4
f 91/255/3 86/241/3 74/196/3
f 92/256/3 68/166/3 88/243/3
f 88/243/4 68/166/4 92/256/4
f 87/257/9 88/258/10 85/259/9
f 85/259/7 88/258/8 87/257/7
f 89/247/3 81/214/3 68/166/3
f 68/166/4 81/214/4 89/247/4
f 89/260/20 91/261/12 86/262/20
f 86/262/19 91/261/11 89/260/19
f 74/196/4 91/255/4 90/253/4
f 90/253/3 91/255/3 74/196/3
f 88/258/10 87/257/9 90/263/10
f 90/263/8 87/257/7 88/258/8
f 89/247/3 68/166/3 92/256/3
f 92/256/4 68/166/4 89/247/4
f 90/264/10 92/265/12 88/266/10
f 88/266/8 92/265/11 90/264/8
f 91/261/12 89/260/20 92/267/12
f 92/267/11 89/260/19 91/261/11
f 92/265/12 90/264/10 91/268/12
f 91/268/11 90/264/8 92/265/11
