# SSTK version 0.8.0
# 15
mtllib original-15.mtl
o Group8/mesh24/mesh24-geometry#mesh24-geometry
v 0.001833 -0.614501 -0.561562
v 0.001921 -0.614024 -0.558524
v 0.005145 -0.614786 -0.561613
v 0.001260 -0.623795 -0.546697
v 0.005233 -0.614309 -0.558574
v 0.004995 -0.616030 -0.564423
v 0.001683 -0.615745 -0.564372
v 0.001940 -0.614348 -0.555464
v 0.004572 -0.624081 -0.546748
v 0.001481 -0.617672 -0.566762
v 0.001889 -0.615449 -0.552592
v 0.005251 -0.614633 -0.555515
v 0.004792 -0.617957 -0.566813
v 0.001240 -0.620150 -0.568570
v 0.001374 -0.622439 -0.546913
v 0.005201 -0.615734 -0.552642
v 0.004551 -0.620435 -0.568620
v 0.000976 -0.623011 -0.569671
v 0.001596 -0.619637 -0.548165
v 0.004685 -0.622724 -0.546964
v 0.004288 -0.623296 -0.569722
v 0.000814 -0.624862 -0.569866
v 0.001772 -0.617253 -0.550102
v 0.004908 -0.619922 -0.548216
v 0.004126 -0.625147 -0.569916
v 0.004432 -0.625752 -0.546481
v 0.005083 -0.617538 -0.550153
v 0.003220 -0.637787 -0.557949
v 0.001120 -0.625467 -0.546431
v 0.004164 -0.628800 -0.546802
v 0.000709 -0.626059 -0.569992
v 0.003308 -0.637310 -0.554911
v 0.004021 -0.626344 -0.570042
v 0.003901 -0.631661 -0.547903
v -0.000092 -0.637502 -0.557899
v 0.003458 -0.636066 -0.552101
v 0.003201 -0.637464 -0.561009
v 0.000853 -0.628515 -0.546751
v 0.003660 -0.634139 -0.549711
v 0.003767 -0.629372 -0.569560
v -0.000004 -0.637025 -0.554860
v 0.000146 -0.635781 -0.552050
v 0.000590 -0.631376 -0.547853
v 0.000456 -0.629087 -0.569509
v -0.000111 -0.637178 -0.560958
v 0.003252 -0.636362 -0.563881
v 0.000349 -0.633854 -0.549660
v 0.003545 -0.632174 -0.568308
v -0.000060 -0.636077 -0.563831
v 0.000233 -0.631889 -0.568257
v 0.000058 -0.634273 -0.566320
v 0.003369 -0.634558 -0.566371
vt -1.691168 -0.357195
vt -1.683463 -0.406609
vt -1.69962 -0.351811
vt -1.709177 -0.348798
vt -1.684398 -0.364583
vt -1.719188 -0.348361
vt -1.679771 -0.373471
vt -1.728971 -0.350531
vt -1.681051 -0.402822
vt -1.737859 -0.355158
vt 0 0.025591
vt 0 0.036417
vt 0.00555 0.025591
vt -1.678038 -0.393265
vt -1.742346 -0.35927
vt -1.740514 -0.416007
vt 0.00555 0.036417
vt -1.686435 -0.411274
vt -1.693823 -0.418044
vt -1.677601 -0.383254
vt 0.130083 0.036417
vt 0.130083 0.025591
vt 0.126143 0.036417
vt -1.732062 -0.421391
vt -1.745247 -0.361928
vt 0.0156 0.025591
vt -1.702711 -0.422671
vt 0.126143 0.025591
vt 0.065847 0.025591
vt 0.055797 0.025591
vt 0.065847 0.036417
vt -1.722505 -0.424404
vt -1.747284 -0.408619
vt 0.0156 0.036417
vt 0.025649 0.025591
vt -1.712494 -0.424841
vt 0.116093 0.025591
vt 0.055797 0.036417
vt 0.075896 0.025591
vt 0.045748 0.025591
vt 0.045748 0.036417
vt -1.750631 -0.37038
vt 0.025649 0.036417
vt 0.035698 0.025591
vt 0.116093 0.036417
vt 0.075896 0.036417
vt -1.751912 -0.399731
vt 0.035698 0.036417
vt 0.106044 0.025591
vt 0.085945 0.036417
vt 0.085945 0.025591
vt -1.753644 -0.379937
vt 0.106044 0.036417
vt 0.095995 0.036417
vt -1.754081 -0.389948
vt 0.095995 0.025591
vn 0.07795323166259885 0.955555670266464 -0.2843178761438779
vn 0.08537835326402818 0.9959954823966093 -0.026524250026508073
vn -0.07795323166259885 -0.955555670266464 0.2843178761438779
vn -0.08537835326402818 -0.9959954823966093 0.026524250026508073
vn -0.9961957922071812 0.08580132972177963 0.015234021356195594
vn 0.9961957922071812 -0.08580132972177963 -0.015234021356195594
vn 0.06521546369864864 0.8499965399832622 -0.5227359039812102
vn -0.06521546369864864 -0.8499965399832622 0.5227359039812102
vn 0.0869857165587814 0.9685597089053598 0.2330784747674487
vn -0.0869857165587814 -0.9685597089053598 -0.2330784747674487
vn 0.048033496896320645 0.6865114604199407 -0.7255307008583382
vn -0.048033496896320645 -0.6865114604199407 0.7255307008583382
vn 0.08266438096993328 0.8751186150168899 0.476795563915792
vn -0.08266438096993328 -0.8751186150168899 -0.476795563915792
vn 0.027578073307616992 0.47624133791015133 -0.8788820386935832
vn -0.027578073307616992 -0.47624133791015133 0.8788820386935832
vn 0.028443604874438456 0.15491021164013735 0.987519006232971
vn 0.038952202818775206 0.28204884622379234 0.9586089788017806
vn -0.038952202818775206 -0.28204884622379234 -0.9586089788017806
vn -0.028443604874438456 -0.15491021164013735 -0.987519006232971
vn 0.0052436577798054326 0.23351678828097855 -0.9723386311589315
vn -0.0052436577798054326 -0.23351678828097855 0.9723386311589315
vn 0.07271057772883512 0.7220388584374672 0.6880211179845123
vn -0.07271057772883512 -0.7220388584374672 -0.6880211179845123
vn 0.05780029360377851 0.5197542105832693 0.8523583088351281
vn -0.05780029360377851 -0.5197542105832693 -0.8523583088351281
vn -0.08499474301237889 -0.9952504656941037 0.04745950058659579
vn 0.08499474301237889 0.9952504656941037 -0.04745950058659579
vn -0.0061556499098870425 0.10509666563307317 -0.9944429590715584
vn 0.0061556499098870425 -0.10509666563307317 0.9944429590715584
vn 0.017448854347925792 0.025121838741907317 0.9995321058876351
vn -0.017448854347925792 -0.025121838741907317 -0.9995321058876351
usemtl material_0_0
f 1//1 2//2 3//1
f 3//3 2//4 1//3
f 2//5 1//5 4//5
f 4//6 1//6 2//6
f 5//2 3//1 2//2
f 2//4 3//3 5//4
f 3//1 6//7 1//1
f 1//3 6//8 3//3
f 1//5 7//5 4//5
f 4//6 7//6 1//6
f 8//5 2//5 4//5
f 4//6 2//6 8//6
f 3//5 9//5 5//5
f 2//2 8//9 5//2
f 5//4 8//10 2//4
f 6//5 9//5 3//5
f 7//7 1//1 6//7
f 6//8 1//3 7//8
f 7//5 10//5 4//5
f 4//6 10//6 7//6
f 11//5 8//5 4//5
f 4//6 8//6 11//6
f 5//5 9//5 12//5
f 12//9 5//2 8//9
f 8//10 5//4 12//10
f 13//5 9//5 6//5
f 7//7 6//7 10//11
f 10//12 6//8 7//8
f 10//5 14//5 4//5
f 4//6 14//6 10//6
f 8//9 11//13 12//9
f 12//10 11//14 8//10
f 15//5 11//5 4//5
f 4//6 11//6 15//6
f 12//5 9//5 16//5
f 17//5 9//5 13//5
f 13//11 10//11 6//7
f 6//8 10//12 13//12
f 10//11 13//11 14//15
f 14//16 13//12 10//12
f 14//5 18//5 4//5
f 4//6 18//6 14//6
f 16//13 12//9 11//13
f 11//14 12//10 16//14
f 19//5 11//5 15//5
f 15//6 11//6 19//6
f 4//17 9//17 15//18
f 15//19 9//20 4//20
f 16//5 9//5 20//5
f 21//5 9//5 17//5
f 17//15 14//15 13//11
f 13//12 14//16 17//16
f 14//15 17//15 18//21
f 18//22 17//16 14//16
f 22//5 4//5 18//5
f 18//6 4//6 22//6
f 11//13 23//23 16//13
f 16//14 23//24 11//14
f 23//5 11//5 19//5
f 19//6 11//6 23//6
f 19//25 15//18 24//25
f 24//26 15//19 19//26
f 9//27 4//27 25//27
f 25//28 4//28 9//28
f 20//18 15//18 9//17
f 9//20 15//19 20//19
f 16//5 20//5 24//5
f 9//5 21//5 25//5
f 21//21 18//21 17//15
f 17//16 18//22 21//22
f 22//27 25//27 4//27
f 4//28 25//28 22//28
f 22//29 18//21 25//29
f 25//30 18//22 22//30
f 27//23 16//13 23//23
f 23//24 16//14 27//24
f 23//23 19//25 27//23
f 27//24 19//26 23//24
f 20//18 24//25 15//18
f 15//19 24//26 20//19
f 24//25 27//23 19//25
f 19//26 27//24 24//26
f 16//5 24//5 27//5
f 21//21 25//29 18//21
f 18//22 25//30 21//22
usemtl material_1_0
f 5/1/6 9/2/6 3/3/6
f 3/3/6 9/2/6 6/4/6
f 12/5/6 9/2/6 5/1/6
f 6/4/6 9/2/6 13/6/6
f 16/7/6 9/2/6 12/5/6
f 13/6/6 9/2/6 17/8/6
f 20/9/6 9/2/6 16/7/6
f 17/8/6 9/2/6 21/10/6
f 9/11/17 4/12/17 26/13/31
f 24/14/6 20/9/6 16/7/6
f 25/15/6 21/10/6 9/2/6
f 9/2/6 28/16/6 25/15/6
f 29/17/31 26/13/31 4/12/17
f 26/18/6 30/19/6 9/2/6
f 27/20/6 24/14/6 16/7/6
f 22/21/29 25/22/29 31/23/32
f 32/24/6 28/16/6 9/2/6
f 25/15/6 28/16/6 33/25/6
f 26/13/31 29/17/31 30/26/22
f 30/19/6 34/27/6 9/2/6
f 33/28/32 31/23/32 25/22/29
f 28/29/4 32/30/3 35/31/4
f 36/32/6 32/24/6 9/2/6
f 28/16/6 37/33/6 33/25/6
f 38/34/22 30/26/22 29/17/31
f 30/26/22 38/34/22 34/35/16
f 34/27/6 39/36/6 9/2/6
f 33/28/32 40/37/19 31/23/32
f 41/38/3 35/31/4 32/30/3
f 28/29/4 35/31/4 37/39/10
f 36/40/8 42/41/8 32/30/3
f 39/36/6 36/32/6 9/2/6
f 33/25/6 37/33/6 40/42/6
f 43/43/16 34/35/16 38/34/22
f 34/35/16 43/43/16 39/44/12
f 44/45/19 31/23/32 40/37/19
f 41/38/3 32/30/3 42/41/8
f 45/46/10 37/39/10 35/31/4
f 36/40/8 39/44/12 42/41/8
f 37/33/6 46/47/6 40/42/6
f 47/48/12 39/44/12 43/43/16
f 40/37/19 48/49/26 44/45/19
f 45/46/10 49/50/14 37/39/10
f 47/48/12 42/41/8 39/44/12
f 46/51/14 37/39/10 49/50/14
f 40/42/6 46/47/6 48/52/6
f 50/53/26 44/45/19 48/49/26
f 49/50/14 51/54/24 46/51/14
f 52/55/6 48/52/6 46/47/6
f 48/49/26 52/56/24 50/53/26
f 52/56/24 46/51/14 51/54/24
f 51/54/24 50/53/26 52/56/24
usemtl material_2_0
f 26//32 4//20 9//20
f 25//5 28//5 9//5
f 4//20 26//32 29//32
f 9//5 30//5 26//5
f 31//31 25//30 22//30
f 9//5 28//5 32//5
f 33//5 28//5 25//5
f 30//21 29//32 26//32
f 9//5 34//5 30//5
f 25//30 31//31 33//31
f 35//2 32//1 28//2
f 9//5 32//5 36//5
f 33//5 37//5 28//5
f 29//32 30//21 38//21
f 34//15 38//21 30//21
f 9//5 39//5 34//5
f 31//31 40//18 33//31
f 32//1 35//2 41//1
f 37//9 35//2 28//2
f 32//1 42//7 36//7
f 9//5 36//5 39//5
f 40//5 37//5 33//5
f 38//21 34//15 43//15
f 39//11 43//15 34//15
f 40//18 31//31 44//18
f 42//7 32//1 41//1
f 35//2 37//9 45//9
f 42//7 39//11 36//7
f 40//5 46//5 37//5
f 43//15 39//11 47//11
f 44//18 48//25 40//18
f 37//9 49//13 45//9
f 39//11 42//7 47//11
f 49//13 37//9 46//13
f 48//5 46//5 40//5
f 48//25 44//18 50//25
f 46//13 51//23 49//13
f 46//5 48//5 52//5
f 50//25 52//23 48//25
f 51//23 46//13 52//23
f 52//23 50//25 51//23
