# SSTK version 0.8.0
# 4
mtllib original-4.mtl
o mesh4/mesh4-geometry#mesh4-geometry
v 0.022910 0.793126 -0.331888
v 0.022910 0.796910 -0.315499
v 0.022910 0.792822 -0.323187
v 0.022910 0.797740 -0.339272
v 0.019706 0.794567 -0.313314
v 0.019706 0.789700 -0.322466
v 0.019706 0.795555 -0.341615
v 0.022910 0.804294 -0.310885
v 0.019706 0.803357 -0.307821
v 0.019706 0.790062 -0.332825
v 0.019706 0.804707 -0.346482
v 0.022910 0.805428 -0.343360
v -0.021945 0.794567 -0.313314
v -0.021945 0.803357 -0.307821
v -0.021945 0.790062 -0.332825
v -0.021945 0.804707 -0.346482
v 0.022910 0.812995 -0.310581
v 0.019706 0.813716 -0.307459
v -0.021945 0.789700 -0.322466
v -0.021945 0.813716 -0.307459
v -0.021945 0.795555 -0.341615
v 0.022910 0.814129 -0.343056
v 0.019706 0.815066 -0.346120
v -0.025149 0.792822 -0.323187
v -0.025149 0.796910 -0.315499
v -0.025149 0.812995 -0.310581
v -0.025149 0.793126 -0.331888
v -0.025149 0.797740 -0.339272
v -0.021945 0.815066 -0.346120
v 0.022910 0.820683 -0.314669
v 0.019706 0.822868 -0.312325
v -0.025149 0.804294 -0.310885
v -0.025149 0.820683 -0.314669
v 0.022910 0.821513 -0.338442
v -0.025149 0.805428 -0.343360
v 0.019706 0.823857 -0.340627
v -0.021945 0.822868 -0.312325
v -0.025149 0.814129 -0.343056
v -0.021945 0.823857 -0.340627
v 0.022910 0.825297 -0.322053
v 0.019706 0.828361 -0.321116
v -0.025149 0.825297 -0.322053
v -0.025149 0.821513 -0.338442
v 0.022910 0.825601 -0.330754
v -0.021945 0.828723 -0.331475
v -0.021945 0.828361 -0.321116
v 0.019706 0.828723 -0.331475
v -0.025149 0.825601 -0.330754
vn 1 0 0
vn 0.7071109062590206 -0.5171439314427507 0.4822409360698056
vn 0.707109205837752 -0.6889822005610253 0.15906004630198858
vn 0.7071028848871952 -0.676214889915606 -0.20673396634474667
vn 0.7071048619466278 -0.48225090584654784 -0.5171428990343231
vn 0.7071070228922367 -0.20673900669307207 0.6762090218919292
vn 0.7071040449615658 -0.15906201011403778 -0.6889870438095872
vn 0 -0.7313559477987397 0.6819959513218588
vn 0 -0.9743712199365581 0.22494605077516572
vn 0 -0.2923719065274008 0.9563046942651348
vn 0 -0.956307101968641 -0.2923640311740474
vn 0 -0.6820047554573497 -0.7313477377647111
vn 0 -0.22495006755251548 -0.9743702926034429
vn 0.7071040449615658 0.15906201011403778 0.6889870438095872
vn 0 0.22495006755251548 0.9743702926034429
vn 0.7071070228922367 0.20673900669307207 -0.6762090218919292
vn 0 0.2923719065274008 -0.9563046942651348
vn -0.7071109062590206 -0.5171439314427507 0.4822409360698056
vn -0.707109205837752 -0.6889822005610253 0.15906004630198858
vn -0.7071070228922367 -0.20673900669307207 0.6762090218919292
vn -0.7071040449615658 0.15906201011403778 0.6889870438095872
vn -0.7071078426200856 -0.6762118494965598 -0.20672695398909705
vn -0.7071152729854394 -0.48224818617435944 -0.5171311996411239
vn -0.7071098555975757 -0.15906296751695942 -0.6889808592997881
vn 0.7071048619466278 0.48225090584654784 0.5171428990343231
vn 0 0.6820047554573497 0.7313477377647111
vn -0.7071048619466278 0.48225090584654784 0.5171428990343231
vn 0.7071091502288905 0.5171471098705009 -0.48224010245433185
vn -0.7071128917767339 0.2067389683587067 -0.6762028965074928
vn 0 0.7313588394923498 -0.6819928503264555
vn -1 0 0.000003999999999968
vn 0.7071028848871952 0.676214889915606 0.20673396634474667
vn 0 0.956307101968641 0.2923640311740474
vn -0.7071028848871952 0.676214889915606 0.20673396634474667
vn 0.7071063567557531 0.6889853476131761 -0.15905908024993895
vn -0.7071198390878277 0.5171438823187516 -0.4822278902642338
vn 0 0.9743723664298488 -0.22494108459304724
vn -0.7071109931219315 0.6889819932982723 -0.1590529984528915
vn -1 0 0
vn -0.7071109062590206 0.5171439314427507 -0.4822409360698056
vn -0.707109205837752 0.6889822005610253 -0.15906004630198858
vn -0.7071070228922367 0.20673900669307207 -0.6762090218919292
vn 0 0.7313559477987397 -0.6819959513218588
vn 0 0.9743712199365581 -0.22494605077516572
vn -0.7071040449615658 -0.15906201011403778 -0.6889870438095872
vn 0.707109205837752 0.6889822005610253 -0.15906004630198858
vn 0.7071109062590206 0.5171439314427507 -0.4822409360698056
vn 0.7071078426200856 0.6762118494965598 0.20672695398909705
vn 0.7071152729854394 0.48224818617435944 0.5171311996411239
vn 0.7071098555975757 0.15906296751695942 0.6889808592997881
vn -0.7071048619466278 -0.48225090584654784 -0.5171428990343231
vn -0.7071091502288905 -0.5171471098705009 0.48224010245433185
vn 0.7071128917767339 -0.2067389683587067 0.6762028965074928
vn 0 -0.7313588394923498 0.6819928503264555
vn 1 0 -0.000003999999999968
vn -0.7071028848871952 -0.676214889915606 -0.20673396634474667
vn -0.7071063567557531 -0.6889853476131761 0.15905908024993895
vn 0.7071198390878277 -0.5171438823187516 0.4822278902642338
vn 0 -0.9743723664298488 0.22494108459304724
vn 0.7071109931219315 -0.6889819932982723 0.1590529984528915
usemtl material_0_0
f 1//1 2//1 3//1
f 2//1 1//1 4//1
f 5//2 3//3 2//2
f 6//3 1//4 3//3
f 1//4 7//5 4//5
f 2//1 4//1 8//1
f 3//3 5//2 6//3
f 2//2 9//6 5//2
f 1//4 6//3 10//4
f 7//5 1//4 10//4
f 11//7 4//5 7//5
f 8//1 4//1 12//1
f 9//6 2//2 8//6
f 13//8 6//9 5//8
f 14//10 5//8 9//10
f 6//9 15//11 10//11
f 15//11 7//12 10//11
f 4//5 11//7 12//7
f 7//12 16//13 11//13
f 8//1 12//1 17//1
f 8//6 18//14 9//6
f 6//9 13//8 19//9
f 5//8 14//10 13//8
f 9//10 20//15 14//10
f 15//11 6//9 19//9
f 7//12 15//11 21//12
f 11//7 22//16 12//7
f 16//13 7//12 21//12
f 16//13 23//17 11//13
f 17//1 12//1 22//1
f 18//14 8//6 17//14
f 20//15 9//10 18//15
f 13//18 24//19 19//19
f 14//20 25//18 13//18
f 26//21 14//20 20//21
f 19//19 27//22 15//22
f 27//22 21//23 15//22
f 22//16 11//7 23//16
f 28//23 16//24 21//23
f 23//17 16//13 29//17
f 17//1 22//1 30//1
f 30//25 18//14 17//14
f 31//26 20//15 18//15
f 24//19 13//18 25//18
f 27//22 19//19 24//19
f 25//18 14//20 32//20
f 14//20 26//21 32//20
f 20//21 33//27 26//21
f 21//23 27//22 28//23
f 23//16 34//28 22//16
f 16//24 28//23 35//24
f 35//24 29//29 16//24
f 29//17 36//30 23//17
f 30//1 22//1 34//1
f 18//14 30//25 31//25
f 20//15 31//26 37//26
f 25//31 27//31 24//31
f 28//31 25//31 32//31
f 35//31 32//31 26//31
f 33//27 20//21 37//27
f 38//31 26//31 33//31
f 27//31 25//31 28//31
f 34//28 23//16 36//28
f 28//31 32//31 35//31
f 29//29 35//24 38//29
f 36//30 29//17 39//30
f 30//1 34//1 40//1
f 40//32 31//25 30//25
f 41//33 37//26 31//26
f 35//31 26//31 38//31
f 37//27 42//34 33//27
f 38//31 33//31 43//31
f 36//28 44//35 34//28
f 43//36 29//29 38//29
f 29//29 43//36 39//36
f 45//37 36//30 39//30
f 40//1 34//1 44//1
f 31//25 40//32 41//32
f 37//26 41//33 46//33
f 42//34 37//27 46//34
f 43//31 33//31 42//31
f 44//35 36//28 47//35
f 48//38 39//36 43//36
f 36//30 45//37 47//37
f 39//36 48//38 45//38
f 44//35 41//32 40//32
f 47//37 46//33 41//33
f 46//34 48//38 42//34
f 43//31 42//31 48//31
f 41//32 44//35 47//35
f 46//33 47//37 45//37
f 48//38 46//34 45//38
usemtl material_1_0
f 3//39 2//39 1//39
f 4//39 1//39 2//39
f 2//40 3//41 5//40
f 3//41 1//34 6//41
f 4//27 7//27 1//34
f 8//39 4//39 2//39
f 6//41 5//40 3//41
f 5//40 9//42 2//40
f 10//34 6//41 1//34
f 10//34 1//34 7//27
f 7//27 4//27 11//21
f 12//39 4//39 8//39
f 8//42 2//40 9//42
f 5//43 6//44 13//43
f 9//17 5//43 14//17
f 10//33 15//33 6//44
f 10//33 7//26 15//33
f 12//21 11//21 4//27
f 11//15 16//15 7//26
f 17//39 12//39 8//39
f 9//42 18//45 8//42
f 19//44 13//43 6//44
f 13//43 14//17 5//43
f 14//17 20//13 9//17
f 19//44 6//44 15//33
f 21//26 15//33 7//26
f 12//21 22//20 11//21
f 21//26 7//26 16//15
f 11//15 23//10 16//15
f 22//39 12//39 17//39
f 17//45 8//42 18//45
f 18//13 9//17 20//13
f 19//46 24//46 13//47
f 13//47 25//47 14//16
f 20//7 14//16 26//7
f 15//48 27//48 19//46
f 15//48 21//49 27//48
f 23//20 11//21 22//20
f 21//49 16//50 28//49
f 29//10 16//15 23//10
f 30//39 22//39 17//39
f 17//45 18//45 30//51
f 18//13 20//13 31//12
f 25//47 13//47 24//46
f 24//46 19//46 27//48
f 32//16 14//16 25//47
f 32//16 26//7 14//16
f 26//7 33//5 20//7
f 28//49 27//48 21//49
f 22//20 34//52 23//20
f 35//50 28//49 16//50
f 16//50 29//53 35//50
f 23//10 36//54 29//10
f 34//39 22//39 30//39
f 31//51 30//51 18//45
f 37//12 31//12 20//13
f 24//55 27//55 25//55
f 32//55 25//55 28//55
f 26//55 32//55 35//55
f 37//5 20//7 33//5
f 33//55 26//55 38//55
f 28//55 25//55 27//55
f 36//52 23//20 34//52
f 35//55 32//55 28//55
f 38//53 35//50 29//53
f 39//54 29//10 36//54
f 40//39 34//39 30//39
f 30//51 31//51 40//56
f 31//12 37//12 41//11
f 38//55 26//55 35//55
f 33//5 42//4 37//5
f 43//55 33//55 38//55
f 34//52 44//57 36//52
f 38//53 29//53 43//58
f 39//58 43//58 29//53
f 39//54 36//54 45//59
f 44//39 34//39 40//39
f 41//56 40//56 31//51
f 46//11 41//11 37//12
f 46//4 37//5 42//4
f 42//55 33//55 43//55
f 47//57 36//52 44//57
f 43//58 39//58 48//60
f 47//59 45//59 36//54
f 45//60 48//60 39//58
f 40//56 41//56 44//57
f 41//11 46//11 47//59
f 42//4 48//60 46//4
f 48//55 42//55 43//55
f 47//57 44//57 41//56
f 45//59 47//59 46//11
f 45//60 46//4 48//60
