mtllib new-0.mtl
v -0.239981 -0.209182 0.583667
v 0.076218 -0.215554 0.583667
v -0.239981 -0.215554 0.368102
v -0.239981 -0.215554 0.583667
v 0.076218 -0.215554 0.368102
vn 1.000000 0.000000 0.000000
vn -1.000000 0.000000 0.000000
vn 0.000000 -1.000000 0.000000
vn 0.000000 1.000000 0.000000
vt -9.275045 6.362779
vt -9.275045 10.135745
vt -6.702866 6.362779
vt -6.702866 10.135745
usemtl material-0
f 1//2 3//2 4//2
f 4//1 3//1 1//1
f 3//3 2//3 4//3
f 2//3 3//3 5//3
usemtl material-5
f 4/1/4 2/2/4 3/3/4
f 5/4/4 3/3/4 2/2/4