# SSTK version 0.8.0
# 1
mtllib original-1.mtl
o Group1/mesh1/mesh1-geometry#mesh1-geometry
v 0.892227 0.045078 0.276108
v 0.892227 0.012356 0.179251
v 0.892227 0.012356 0.276108
v 0.892227 0.045078 0.179251
v 0.905861 0.012356 0.148984
v 0.848598 0.012356 0.276108
v 0.848598 0.045078 0.179251
v 0.905861 0.012356 0.306375
v 0.834964 0.012356 0.148984
v 0.848598 0.045078 0.276108
v 0.848598 0.012356 0.179251
v 0.834964 0.012356 0.306375
vn -1 0 0
vn 0 0 -1
vn 0 -1 0
vn 0 0 1
vn 1 0 0
vn 0 1 0
vn 0.9230770710058602 0.384615029585743 0
vn 0 0.6003839308357755 -0.7997119078731935
vn 0 0.600383930835775 0.7997119078731937
vn -0.9230770710058602 0.384615029585743 0
vn -0.9230770710058602 -0.384615029585743 0
vn 0 -0.6003839308357755 0.7997119078731935
vn 0 -0.600383930835775 -0.7997119078731937
vn 0.9230770710058602 -0.384615029585743 0
usemtl material_0_0
f 1//1 2//1 3//1
f 2//1 1//1 4//1
f 6//2 1//2 3//2
f 1//3 7//3 4//3
f 7//4 2//4 4//4
f 1//2 6//2 10//2
f 7//3 1//3 10//3
f 2//4 7//4 11//4
f 6//5 7//5 10//5
f 7//5 6//5 11//5
usemtl material_1_0
f 3//5 2//5 1//5
f 4//5 1//5 2//5
f 2//6 3//6 5//6
f 3//4 1//4 6//4
f 4//7 1//7 5//7
f 4//6 7//6 1//6
f 4//2 2//2 7//2
f 5//6 3//6 8//6
f 9//6 2//6 5//6
f 10//4 6//4 1//4
f 6//6 8//6 3//6
f 8//7 5//7 1//7
f 5//8 9//8 4//8
f 10//6 1//6 7//6
f 7//8 4//8 9//8
f 11//2 7//2 2//2
f 2//6 9//6 11//6
f 10//1 7//1 6//1
f 10//9 12//9 1//9
f 8//6 6//6 12//6
f 8//9 1//9 12//9
f 10//10 7//10 12//10
f 9//10 12//10 7//10
f 11//1 6//1 7//1
f 11//6 9//6 6//6
f 9//6 12//6 6//6
usemtl material_2_0
f 5//3 3//3 2//3
f 5//11 1//11 4//11
f 8//3 3//3 5//3
f 5//3 2//3 9//3
f 3//3 8//3 6//3
f 1//11 5//11 8//11
f 4//12 9//12 5//12
f 9//12 4//12 7//12
f 11//3 9//3 2//3
f 1//13 12//13 10//13
f 12//3 6//3 8//3
f 12//13 1//13 8//13
f 12//14 7//14 10//14
f 7//14 12//14 9//14
f 6//3 9//3 11//3
f 6//3 12//3 9//3
