# SSTK version 0.8.0
# 22
mtllib original-22.mtl
o Componente_12_1/Componente_12/mesh77/mesh77-geometry#mesh77-geometry
v 0.45367 -0.30789 0.058453
v 0.472159 -0.308327 0.058453
v 0.453351 -0.313163 0.058453
v 0.466718 -0.307588 0.058453
v 0.474913 -0.308327 0.058453
v 0.453351 -0.313163 0.070585
v 0.454627 -0.305103 0.058453
v 0.472159 -0.308327 0.070585
v 0.518439 -0.30826 0.058453
v 0.474913 -0.308327 0.070585
v 0.45367 -0.30789 0.070585
v 0.454358 -0.31936 0.070585
v 0.489959 -0.276152 0.058453
v 0.466718 -0.307588 0.070585
v 0.518507 -0.313936 0.058453
v 0.491638 -0.307991 0.058453
v 0.491638 -0.307991 0.070585
v 0.454358 -0.31936 0.058453
v 0.518507 -0.313936 0.070585
v 0.454627 -0.305103 0.070585
v 0.467927 -0.288847 0.058453
v 0.489959 -0.276152 0.070585
v 0.518439 -0.30826 0.070585
v 0.507692 -0.307655 0.058453
v 0.455618 -0.320909 0.070585
v 0.518574 -0.319679 0.070585
v 0.48472 -0.264599 0.058453
v 0.49137 -0.273264 0.070585
v 0.518574 -0.319679 0.058453
v 0.517902 -0.307118 0.070585
v 0.49184 -0.291467 0.058453
v 0.512831 -0.307387 0.058453
v 0.507692 -0.307655 0.070585
v 0.455618 -0.320909 0.058453
v 0.489959 -0.320754 0.070585
v 0.518204 -0.320619 0.070585
v 0.467927 -0.288847 0.070585
v 0.49137 -0.273264 0.058453
v 0.48472 -0.264599 0.070585
v 0.518204 -0.320619 0.058453
v 0.517902 -0.307118 0.058453
v 0.512831 -0.307387 0.070585
v 0.49184 -0.291467 0.070585
v 0.507692 -0.302214 0.058453
v 0.489959 -0.320754 0.058453
v 0.457381 -0.321425 0.058453
v 0.47367 -0.321089 0.070585
v 0.493116 -0.27098 0.058453
v 0.493116 -0.27098 0.070585
v 0.510245 -0.320754 0.058453
v 0.492982 -0.275346 0.058453
v 0.507759 -0.291601 0.058453
v 0.507692 -0.302214 0.070585
v 0.47367 -0.321089 0.058453
v 0.457381 -0.321425 0.070585
v 0.510245 -0.320754 0.070585
v 0.517096 -0.320888 0.070585
v 0.490496 -0.255799 0.058453
v 0.50833 -0.270678 0.058453
v 0.50833 -0.270678 0.070585
v 0.517096 -0.320888 0.058453
v 0.492982 -0.275346 0.070585
v 0.507826 -0.280988 0.058453
v 0.507759 -0.291601 0.070585
v 0.508364 -0.320955 0.058453
v 0.491101 -0.322299 0.070585
v 0.508364 -0.320955 0.070585
v 0.490496 -0.255799 0.070585
v 0.508834 -0.260367 0.058453
v 0.493519 -0.271786 0.058453
v 0.493519 -0.271786 0.070585
v 0.508834 -0.260367 0.070585
v 0.507826 -0.280988 0.070585
v 0.491101 -0.322299 0.058453
v 0.492579 -0.254389 0.070585
v 0.508313 -0.258872 0.058453
v 0.507826 -0.322836 0.058453
v 0.490362 -0.330292 0.070585
v 0.507826 -0.322836 0.070585
v 0.508313 -0.258872 0.070585
v 0.492579 -0.254389 0.058453
v 0.498439 -0.255262 0.070585
v 0.506752 -0.257882 0.058453
v 0.508196 -0.329922 0.058453
v 0.490362 -0.330292 0.058453
v 0.508196 -0.329922 0.070585
v 0.506752 -0.257882 0.070585
v 0.498439 -0.255262 0.058453
v 0.489623 -0.337681 0.070585
v 0.508565 -0.337009 0.070585
v 0.508565 -0.337009 0.058453
v 0.489623 -0.337681 0.058453
v 0.491974 -0.338789 0.058453
v 0.508145 -0.338184 0.070585
v 0.508145 -0.338184 0.058453
v 0.491974 -0.338789 0.070585
v 0.506886 -0.338755 0.058453
v 0.506886 -0.338755 0.070585
v 0.499027 -0.339158 0.058453
v 0.499027 -0.339158 0.070585
vn 0.0 0.0 -1.0
vn 0.0 0.0 1.0
vn -0.9987313310310526 -0.05035601669058004 0.0
vn -0.9809316678404081 0.19435293418890084 0.0
vn 0.9987313310310526 0.05035601669058004 0.0
vn 0.9809316678404081 -0.19435293418890084 0.0
vn 0.13456706629414508 0.9909044881667392 0.0
vn 0.06743696867064612 0.99772353648519 0.0
vn -0.06743696867064612 -0.99772353648519 0.0
vn -0.13456706629414508 -0.9909044881667392 0.0
vn -0.010038996064608901 0.9999496080093311 0.0
vn 0.010038996064608901 -0.9999496080093311 0.0
vn -0.9123097239802787 -0.409500876105324 0.0
vn 0.9123097239802787 0.409500876105324 0.0
vn -0.8736002870930567 0.48664415992686993 0.0
vn 0.8736002870930567 -0.48664415992686993 0.0
vn -0.02007600916891624 0.9997984566180574 0.0
vn 0.02007600916891624 -0.9997984566180574 0.0
vn 0.8548859509073208 -0.5188159702064751 0.0
vn 0.8041046650225299 -0.5944877523456685 0.0
vn -0.8548859509073208 0.5188159702064751 0.0
vn -0.8041046650225299 0.5944877523456685 0.0
vn 0.9746068468025364 0.2239229648017759 0.0
vn 0.9999308017852366 0.011763997668040621 0.0
vn -0.9746068468025364 -0.2239229648017759 0.0
vn -0.9999308017852366 -0.011763997668040621 0.0
vn -0.7759210437848376 -0.6308300355974246 0.0
vn 0.7759210437848376 0.6308300355974246 0.0
vn -0.7986731293235596 0.6017650974396179 0.0
vn 0.7986731293235596 -0.6017650974396179 0.0
vn 0.8506509114634072 -0.5257309452814004 0.0
vn -0.8506509114634072 0.5257309452814004 0.0
vn 0.9048187701896339 0.4257968918539901 0.0
vn -0.9048187701896339 -0.4257968918539901 0.0
vn -0.9999256504700504 0.012193995737516374 0.0
vn -0.9991408700467511 0.04144299460971727 0.0
vn 0.9999256504700504 -0.012193995737516374 0.0
vn 0.9991408700467511 -0.04144299460971727 0.0
vn 0.9836067258796635 -0.18032694974486974 0.0
vn -0.9836067258796635 0.18032694974486974 0.0
vn -0.8290969019866573 0.5591049339042959 0.0
vn 0.8290969019866573 -0.5591049339042959 0.0
vn -0.052215990309966265 0.9986358146771773 0.0
vn -0.05256098505573144 0.9986177160705547 0.0
vn 0.05256098505573144 -0.9986177160705547 0.0
vn 0.052215990309966265 -0.9986358146771773 0.0
vn -0.13175294472319538 -0.9912825841084703 0.0
vn -0.28105306693659005 -0.9596922285636874 0.0
vn 0.28105306693659005 0.9596922285636874 0.0
vn 0.13175294472319538 0.9912825841084703 0.0
vn 0.930751554213851 -0.36565221772676376 0.0
vn -0.930751554213851 0.36565221772676376 0.0
vn 0.7943579465142924 -0.6074499590991808 0.0
vn -0.7943579465142924 0.6074499590991808 0.0
vn -0.05290597341909331 0.9985994982857633 0.0
vn 0.05290597341909331 -0.9985994982857633 0.0
vn -0.9939270482004934 0.1100410053364387 0.0
vn 0.9939270482004934 -0.1100410053364387 0.0
vn 0.9999949913750432 -0.003164999972701876 0.0
vn 1.0 0.0 0.0
vn -0.9999949913750432 0.003164999972701876 0.0
vn -1.0 0.0 0.0
vn 0.020613989879151865 -0.999787509134447 0.0
vn -0.020613989879151865 0.999787509134447 0.0
vn 0.10889898045209026 -0.9940528215625644 0.0
vn 0.23560002562150412 -0.9718501056887048 0.0
vn -0.23560002562150412 0.9718501056887048 0.0
vn -0.10889898045209026 0.9940528215625644 0.0
vn -0.7122102317333051 0.7019662284001928 0.0
vn 0.7122102317333051 -0.7019662284001928 0.0
vn 0.9999799716800675 -0.0063289998207595646 0.0
vn -0.9999799716800675 0.0063289998207595646 0.0
vn -0.8041761206839256 -0.5943910892011691 0.0
vn 0.8041761206839256 0.5943910892011691 0.0
vn -0.8944269909998285 -0.4472139954999093 0.0
vn 0.8944269909998285 0.4472139954999093 0.0
vn 0.04355100892355908 -0.9990512047046137 0.0
vn -0.04355100892355908 0.9990512047046137 0.0
vn -0.9887990393492585 0.1492530059395235 0.0
vn 0.9887990393492585 -0.1492530059395235 0.0
vn 0.9996198202763694 -0.02757199504277632 0.0
vn -0.9996198202763694 0.02757199504277632 0.0
vn 0.10653301770738699 -0.9943091652691117 0.0
vn -0.10653301770738699 0.9943091652691117 0.0
vn -0.5608479019455678 0.8279188552528894 0.0
vn 0.5608479019455678 -0.8279188552528894 0.0
vn 0.9897678645042527 0.14268698046665312 0.0
vn 0.9988084714037502 -0.04880202303290105 0.0
vn -0.9897678645042527 -0.14268698046665312 0.0
vn -0.9988084714037502 0.04880202303290105 0.0
vn 0.9615239853766626 -0.2747209958219058 0.0
vn 0.9936102155856191 -0.11286602448876974 0.0
vn -0.9615239853766626 0.2747209958219058 0.0
vn -0.9936102155856191 0.11286602448876974 0.0
vn -0.9957548496161353 0.09204498609890706 0.0
vn -0.9954030084440036 0.09577500081245933 0.0
vn 0.9957548496161353 -0.09204498609890706 0.0
vn 0.9954030084440036 -0.09577500081245933 0.0
vn 0.9443536515618974 0.3289318786340272 0.0
vn -0.9443536515618974 -0.3289318786340272 0.0
vn 0.22466903046669523 0.9744351321402339 0.0
vn 0.14737006326148694 0.9890814245825797 0.0
vn -0.14737006326148694 -0.9890814245825797 0.0
vn -0.22466903046669523 -0.9744351321402339 0.0
vn 0.4216981313800732 0.9067362824937328 0.0
vn 0.5357001712997996 0.844408270014787 0.0
vn -0.5357001712997996 -0.844408270014787 0.0
vn -0.4216981313800732 -0.9067362824937328 0.0
vn 0.9986438549070449 0.052061992435913675 0.0
vn -0.9986438549070449 -0.052061992435913675 0.0
vn -0.9950371605069696 0.09950401605074537 0.0
vn 0.9950371605069696 -0.09950401605074537 0.0
vn 0.9894379566166096 -0.14495699364414336 0.0
vn -0.9894379566166096 0.14495699364414336 0.0
vn -0.2439450161557471 -0.9697890642262225 0.0
vn -0.4264189044316454 -0.9045257972790579 0.0
vn 0.4264189044316454 0.9045257972790579 0.0
vn 0.2439450161557471 0.9697890642262225 0.0
vn 0.941742047341374 -0.33633601690761206 0.0
vn -0.941742047341374 0.33633601690761206 0.0
vn -0.0005479999177167225 -0.9999998498480339 0.0
vn 0.0005479999177167225 0.9999998498480339 0.0
vn 0.2361770118762794 -0.9717100488629269 0.0
vn 0.4128879273176929 -0.9107818396714439 0.0
vn -0.4128879273176929 0.9107818396714439 0.0
vn -0.2361770118762794 0.9717100488629269 0.0
usemtl material_0_0
f 1//1 2//1 3//1
f 2//1 1//1 4//1
f 3//2 2//2 1//2
f 4//2 1//2 2//2
f 5//1 3//1 2//1
f 2//2 3//2 5//2
f 6//3 1//4 3//3
f 3//5 1//6 6//5
f 4//1 1//1 7//1
f 7//2 1//2 4//2
f 4//7 8//8 2//8
f 2//9 8//9 4//10
f 9//1 3//1 5//1
f 5//2 3//2 9//2
f 2//8 10//11 5//11
f 5//12 10//12 2//9
f 1//4 6//3 11//4
f 11//6 6//5 1//6
f 3//3 12//13 6//3
f 6//5 12//14 3//5
f 11//4 7//15 1//4
f 1//6 7//16 11//6
f 4//1 7//1 13//1
f 13//2 7//2 4//2
f 8//8 4//7 14//7
f 14//10 4//10 8//9
f 10//11 2//8 8//8
f 8//9 2//9 10//12
f 15//1 3//1 9//1
f 9//2 3//2 15//2
f 9//1 5//1 16//1
f 16//2 5//2 9//2
f 17//17 5//11 10//11
f 10//12 5//12 17//18
f 6//2 8//2 11//2
f 11//1 8//1 6//1
f 12//13 3//3 18//13
f 18//14 3//5 12//14
f 12//2 19//2 6//2
f 6//1 19//1 12//1
f 7//15 11//4 20//15
f 20//16 11//6 7//16
f 13//1 7//1 21//1
f 21//2 7//2 13//2
f 22//19 4//20 13//19
f 13//21 4//22 22//21
f 4//20 22//19 14//20
f 14//22 22//21 4//22
f 11//2 8//2 14//2
f 14//1 8//1 11//1
f 8//2 6//2 10//2
f 10//1 6//1 8//1
f 15//1 18//1 3//1
f 3//2 18//2 15//2
f 23//23 15//24 9//23
f 9//25 15//26 23//25
f 5//11 17//17 16//17
f 16//18 17//18 5//12
f 9//1 16//1 24//1
f 24//2 16//2 9//2
f 10//2 23//2 17//2
f 17//1 23//1 10//1
f 18//13 25//27 12//13
f 12//14 25//28 18//14
f 12//2 26//2 19//2
f 19//1 26//1 12//1
f 6//2 19//2 23//2
f 23//1 19//1 6//1
f 11//2 14//2 20//2
f 20//1 14//1 11//1
f 20//15 21//29 7//15
f 7//16 21//30 20//16
f 13//1 21//1 27//1
f 27//2 21//2 13//2
f 13//19 28//31 22//19
f 22//21 28//32 13//21
f 20//2 14//2 22//2
f 22//1 14//1 20//1
f 6//2 23//2 10//2
f 10//1 23//1 6//1
f 29//1 18//1 15//1
f 15//2 18//2 29//2
f 15//24 23//23 19//24
f 19//26 23//25 15//26
f 9//23 30//33 23//23
f 23//25 30//34 9//25
f 17//35 31//36 16//35
f 16//37 31//38 17//37
f 31//1 24//1 16//1
f 16//2 24//2 31//2
f 9//1 24//1 32//1
f 32//2 24//2 9//2
f 17//2 23//2 33//2
f 33//1 23//1 17//1
f 25//27 18//13 34//27
f 34//28 18//14 25//28
f 25//2 35//2 12//2
f 12//1 35//1 25//1
f 12//2 36//2 26//2
f 26//1 36//1 12//1
f 29//39 19//24 26//39
f 26//40 19//26 29//40
f 21//29 20//15 37//29
f 37//30 20//16 21//30
f 37//29 27//41 21//29
f 21//30 27//42 37//30
f 13//1 27//1 38//1
f 38//2 27//2 13//2
f 28//31 13//19 38//31
f 38//32 13//21 28//32
f 39//2 22//2 28//2
f 28//1 22//1 39//1
f 20//2 22//2 37//2
f 37//1 22//1 20//1
f 40//1 18//1 29//1
f 29//2 18//2 40//2
f 19//24 29//39 15//24
f 15//26 29//40 19//26
f 30//33 9//23 41//33
f 41//34 9//25 30//34
f 42//2 23//2 30//2
f 30//1 23//1 42//1
f 31//36 17//35 43//36
f 43//38 17//37 31//38
f 24//1 31//1 44//1
f 44//2 31//2 24//2
f 24//43 42//44 32//44
f 32//45 42//45 24//46
f 9//1 32//1 41//1
f 41//2 32//2 9//2
f 33//2 23//2 42//2
f 42//1 23//1 33//1
f 33//2 43//2 17//2
f 17//1 43//1 33//1
f 45//1 34//1 18//1
f 18//2 34//2 45//2
f 46//47 25//48 34//48
f 34//49 25//49 46//50
f 25//2 47//2 35//2
f 35//1 47//1 25//1
f 12//2 35//2 36//2
f 36//1 35//1 12//1
f 40//51 26//39 36//51
f 36//52 26//40 40//52
f 26//39 40//51 29//39
f 29//40 40//52 26//40
f 27//41 37//29 39//41
f 39//42 37//30 27//42
f 38//1 27//1 48//1
f 48//2 27//2 38//2
f 38//31 49//53 28//31
f 28//32 49//54 38//32
f 37//2 22//2 39//2
f 39//1 22//1 37//1
f 39//2 28//2 49//2
f 49//1 28//1 39//1
f 50//1 18//1 40//1
f 40//2 18//2 50//2
f 32//44 30//55 41//55
f 41//56 30//56 32//45
f 30//55 32//44 42//44
f 42//45 32//45 30//56
f 43//36 51//57 31//36
f 31//38 51//58 43//38
f 44//1 31//1 52//1
f 52//2 31//2 44//2
f 53//59 24//60 44//59
f 44//61 24//62 53//61
f 42//44 24//43 33//43
f 33//46 24//46 42//45
f 43//2 33//2 53//2
f 53//1 33//1 43//1
f 54//1 34//1 45//1
f 45//2 34//2 54//2
f 45//1 18//1 50//1
f 50//2 18//2 45//2
f 25//48 46//47 55//47
f 55//50 46//50 25//49
f 34//1 54//1 46//1
f 46//2 54//2 34//2
f 47//2 25//2 55//2
f 55//1 25//1 47//1
f 47//63 45//63 35//63
f 35//64 45//64 47//64
f 56//2 36//2 35//2
f 35//1 36//1 56//1
f 57//65 40//66 36//66
f 36//67 40//67 57//68
f 39//41 58//69 27//41
f 27//42 58//70 39//42
f 48//1 27//1 59//1
f 59//2 27//2 48//2
f 49//53 38//31 48//53
f 48//54 38//32 49//54
f 39//2 49//2 60//2
f 60//1 49//1 39//1
f 40//1 61//1 50//1
f 50//2 61//2 40//2
f 51//57 43//36 62//57
f 62//58 43//38 51//58
f 63//1 31//1 51//1
f 51//2 31//2 63//2
f 52//1 31//1 63//1
f 63//2 31//2 52//2
f 64//71 44//59 52//71
f 52//72 44//61 64//72
f 24//60 53//59 33//60
f 33//62 53//61 24//62
f 44//59 64//71 53//59
f 53//61 64//72 44//61
f 43//2 53//2 64//2
f 64//1 53//1 43//1
f 45//63 47//63 54//63
f 54//64 47//64 45//64
f 65//1 45//1 50//1
f 50//2 45//2 65//2
f 54//63 55//47 46//47
f 46//50 55//50 54//64
f 55//47 54//63 47//63
f 47//64 54//64 55//50
f 45//73 66//73 35//73
f 35//74 66//74 45//74
f 36//2 56//2 57//2
f 57//1 56//1 36//1
f 35//2 67//2 56//2
f 56//1 67//1 35//1
f 40//66 57//65 61//65
f 61//68 57//68 40//67
f 58//69 39//41 68//69
f 68//70 39//42 58//70
f 69//1 27//1 58//1
f 58//2 27//2 69//2
f 59//1 27//1 69//1
f 69//2 27//2 59//2
f 59//1 70//1 48//1
f 48//2 70//2 59//2
f 48//75 71//75 49//75
f 49//76 71//76 48//76
f 71//2 60//2 49//2
f 49//1 60//1 71//1
f 39//2 60//2 72//2
f 72//1 60//1 39//1
f 61//65 56//77 50//77
f 50//78 56//78 61//68
f 43//2 73//2 62//2
f 62//1 73//1 43//1
f 62//57 70//79 51//57
f 51//58 70//80 62//58
f 63//1 51//1 59//1
f 59//2 51//2 63//2
f 73//81 52//71 63//81
f 63//82 52//72 73//82
f 52//71 73//81 64//71
f 64//72 73//82 52//72
f 43//2 64//2 73//2
f 73//1 64//1 43//1
f 65//1 74//1 45//1
f 45//2 74//2 65//2
f 50//77 67//83 65//83
f 65//84 67//84 50//78
f 66//73 45//73 74//73
f 74//74 45//74 66//74
f 66//2 67//2 35//2
f 35//1 67//1 66//1
f 56//77 61//65 57//65
f 57//68 61//68 56//78
f 67//83 50//77 56//77
f 56//78 50//78 67//84
f 39//2 72//2 68//2
f 68//1 72//1 39//1
f 75//85 58//69 68//69
f 68//70 58//70 75//86
f 69//1 58//1 76//1
f 76//2 58//2 69//2
f 72//87 59//88 69//87
f 69//89 59//90 72//89
f 59//1 51//1 70//1
f 70//2 51//2 59//2
f 71//75 48//75 70//75
f 70//76 48//76 71//76
f 62//2 60//2 71//2
f 71//1 60//1 62//1
f 59//88 72//87 60//88
f 60//90 72//89 59//90
f 62//2 73//2 60//2
f 60//1 73//1 62//1
f 70//79 62//57 71//79
f 71//80 62//58 70//80
f 60//88 63//81 59//88
f 59//90 63//82 60//90
f 63//81 60//88 73//81
f 73//82 60//90 63//82
f 77//1 74//1 65//1
f 65//2 74//2 77//2
f 67//91 77//92 65//91
f 65//93 77//94 67//93
f 74//95 78//96 66//95
f 66//97 78//98 74//97
f 66//2 79//2 67//2
f 67//1 79//1 66//1
f 68//2 72//2 80//2
f 80//1 72//1 68//1
f 58//69 75//85 81//85
f 81//86 75//86 58//70
f 68//2 82//2 75//2
f 75//1 82//1 68//1
f 76//1 58//1 83//1
f 83//2 58//2 76//2
f 80//99 69//87 76//99
f 76//100 69//89 80//100
f 69//87 80//99 72//87
f 72//89 80//100 69//89
f 84//1 74//1 77//1
f 77//2 74//2 84//2
f 77//92 67//91 79//92
f 79//94 67//93 77//94
f 78//96 74//95 85//96
f 85//98 74//97 78//98
f 78//2 86//2 66//2
f 66//1 86//1 78//1
f 66//2 86//2 79//2
f 79//1 86//1 66//1
f 68//2 80//2 87//2
f 87//1 80//1 68//1
f 82//101 81//102 75//102
f 75//103 81//103 82//104
f 88//1 58//1 81//1
f 81//2 58//2 88//2
f 68//2 87//2 82//2
f 82//1 87//1 68//1
f 83//1 58//1 88//1
f 88//2 58//2 83//2
f 83//105 80//106 76//106
f 76//107 80//107 83//108
f 84//1 85//1 74//1
f 74//2 85//2 84//2
f 79//92 84//109 77//92
f 77//94 84//110 79//94
f 85//96 89//111 78//96
f 78//98 89//112 85//98
f 78//2 90//2 86//2
f 86//1 90//1 78//1
f 84//109 79//92 86//109
f 86//110 79//94 84//110
f 80//106 83//105 87//105
f 87//108 83//108 80//107
f 81//102 82//101 88//101
f 88//104 82//104 81//103
f 87//105 88//101 82//101
f 82//104 88//104 87//108
f 88//101 87//105 83//105
f 83//108 87//108 88//104
f 91//1 85//1 84//1
f 84//2 85//2 91//2
f 89//111 85//96 92//111
f 92//112 85//98 89//112
f 89//2 90//2 78//2
f 78//1 90//1 89//1
f 91//113 86//109 90//113
f 90//114 86//110 91//114
f 86//109 91//113 84//109
f 84//110 91//114 86//110
f 91//1 92//1 85//1
f 85//2 92//2 91//2
f 93//115 89//116 92//116
f 92//117 89//117 93//118
f 89//2 94//2 90//2
f 90//1 94//1 89//1
f 90//113 95//119 91//113
f 91//114 95//120 90//114
f 95//1 92//1 91//1
f 91//2 92//2 95//2
f 89//116 93//115 96//115
f 96//118 93//118 89//117
f 97//1 93//1 92//1
f 92//2 93//2 97//2
f 89//2 98//2 94//2
f 94//1 98//1 89//1
f 95//119 90//113 94//119
f 94//120 90//114 95//120
f 97//1 92//1 95//1
f 95//2 92//2 97//2
f 99//121 96//115 93//115
f 93//118 96//118 99//122
f 96//2 98//2 89//2
f 89//1 98//1 96//1
f 93//1 97//1 99//1
f 99//2 97//2 93//2
f 98//123 95//124 94//124
f 94//125 95//125 98//126
f 95//124 98//123 97//123
f 97//126 98//126 95//125
f 96//115 99//121 100//121
f 100//122 99//122 96//118
f 98//2 96//2 100//2
f 100//1 96//1 98//1
f 97//123 100//121 99//121
f 99//122 100//122 97//126
f 100//121 97//123 98//123
f 98//126 97//126 100//122
