# SSTK version 0.8.0
# 7
mtllib original-7.mtl
o mesh7/mesh7-geometry#mesh7-geometry
v -0.011089 -0.333841 -0.186308
v 0.001071 -0.254575 -0.185111
v -0.011089 -0.254575 -0.186308
v 0.001071 -0.333841 -0.185111
v 0.001071 -0.253367 -0.186325
v -0.022781 -0.333841 -0.189855
v 0.013231 -0.333841 -0.186308
v 0.013231 -0.254575 -0.186308
v -0.010852 -0.253367 -0.187499
v -0.022781 -0.254575 -0.189855
v 0.024923 -0.333841 -0.189855
v 0.012994 -0.253367 -0.187499
v -0.033557 -0.333841 -0.195615
v 0.035699 -0.333841 -0.195615
v 0.024923 -0.254575 -0.189855
v 0.024459 -0.253367 -0.190977
v -0.022317 -0.253367 -0.190977
v -0.033557 -0.254575 -0.195615
v 0.035699 -0.254575 -0.195615
v -0.043002 -0.333841 -0.203366
v 0.045144 -0.333841 -0.203366
v 0.045144 -0.254575 -0.203366
v 0.035025 -0.253367 -0.196624
v -0.032883 -0.253367 -0.196624
v -0.043002 -0.254575 -0.203366
v -0.050754 -0.333841 -0.212811
v 0.052896 -0.333841 -0.212811
v 0.052896 -0.254575 -0.212811
v 0.044286 -0.253367 -0.204225
v -0.042144 -0.253367 -0.204225
v -0.050754 -0.254575 -0.212811
v -0.056513 -0.254575 -0.223587
v 0.058656 -0.333841 -0.223587
v 0.058656 -0.254575 -0.223587
v 0.051886 -0.253367 -0.213486
v -0.049744 -0.253367 -0.213486
v -0.056513 -0.333841 -0.223587
v -0.060060 -0.333841 -0.235280
v -0.055392 -0.253367 -0.224052
v 0.062203 -0.333841 -0.235280
v 0.062202 -0.254575 -0.235280
v 0.057534 -0.253367 -0.224052
v -0.060060 -0.254575 -0.235280
v -0.061258 -0.333841 -0.247440
v 0.063400 -0.333841 -0.247439
v 0.061012 -0.253367 -0.235517
v -0.058870 -0.253367 -0.235517
v 0.063400 -0.254575 -0.247439
v -0.061258 -0.254575 -0.247440
v -0.060044 -0.253367 -0.247440
v -0.060060 -0.333841 -0.259599
v 0.062203 -0.333841 -0.259599
v 0.062203 -0.254575 -0.259599
v 0.062186 -0.253367 -0.247439
v -0.058870 -0.253367 -0.259363
v -0.060060 -0.254575 -0.259599
v 0.061012 -0.253367 -0.259362
v -0.056513 -0.333841 -0.271292
v 0.058656 -0.333841 -0.271292
v 0.058656 -0.254575 -0.271292
v 0.057534 -0.253367 -0.270827
v -0.055392 -0.253367 -0.270827
v -0.056513 -0.254575 -0.271292
v -0.050753 -0.333841 -0.282068
v 0.052896 -0.333841 -0.282068
v 0.052896 -0.254575 -0.282068
v 0.051886 -0.253367 -0.281393
v -0.049744 -0.253367 -0.281393
v -0.050753 -0.254575 -0.282068
v -0.043002 -0.333841 -0.291513
v 0.045144 -0.333841 -0.291513
v 0.044286 -0.253367 -0.290654
v -0.042144 -0.253367 -0.290654
v -0.043002 -0.254575 -0.291513
v 0.045144 -0.254575 -0.291513
v -0.033557 -0.254575 -0.299264
v 0.035699 -0.333841 -0.299264
v 0.035025 -0.253367 -0.298255
v -0.032882 -0.253367 -0.298255
v -0.033557 -0.333841 -0.299264
v 0.035699 -0.254575 -0.299264
v -0.022781 -0.254575 -0.305024
v -0.022316 -0.253367 -0.303902
v 0.024923 -0.333841 -0.305024
v 0.024459 -0.253367 -0.303902
v -0.022781 -0.333841 -0.305024
v 0.024923 -0.254575 -0.305024
v -0.011089 -0.254575 -0.308571
v -0.010852 -0.253367 -0.307380
v 0.012994 -0.253367 -0.307380
v -0.011089 -0.333841 -0.308571
v 0.013231 -0.333841 -0.308571
v 0.013231 -0.254575 -0.308571
v 0.001071 -0.254575 -0.309769
v 0.001071 -0.253367 -0.308554
v 0.001071 -0.333841 -0.309769
vn -0.19509295172679128 0 0.980784757317592
vn 0 0 1
vn 0 0.7088192031259937 0.7053902021433464
vn -0.13761307339553946 0.7088243780494564 0.6918313689862836
vn -0.3826841051430464 0 0.9238792538372458
vn 9.999999999995e-7 -1 0
vn 0.19509006590875128 0 0.9807853313461202
vn 0.13761899948296538 0.708806997337012 0.691847997400727
vn 0 1 0
vn -0.2699390886212873 0.7088212327067578 0.6516942139518973
vn -0.555569201488041 0 0.8314703015489732
vn 0.38268083737560327 0 0.9238806073868567
vn 0.26994703613659743 0.7087980948836178 0.6517160872423058
vn 0.5555680482052526 0 0.8314710721446693
vn -0.3918930203884308 0.7088200368767178 0.5865100305134783
vn -0.707107781185531 0 0.70710578118615
vn 0.7071052811843601 0 0.707108281185553
vn 0.39190304652300934 0.7087970841416612 0.5865310696274006
vn 0.49880098562979325 0.7087969795799137 0.4988029856297356
vn -0.49878571068890937 0.7088205888622042 0.4987847106894893
vn -0.8314698396094834 0 0.555569892830578
vn 0.8314686070708945 0 0.5555717374521371
vn 0.5865300957835985 0.7087951157501503 0.39190806400074757
vn -0.5865119881028976 0.7088189856219613 0.39189199205066694
vn -0.9238797538373538 0 0.38268289803626016
vn 0.9238792538372458 0 0.3826841051430464
vn -0.6517030212073942 0.7088120230658068 0.269942008784318
vn 0.6517189570523739 0.7087939532911888 0.2699509822105008
vn -0.9807855226872256 0 0.19508910396827864
vn 0.9807849486613035 0 0.1950919897880076
vn -0.6918551747110959 0.7088001789901421 0.1376180347520674
vn 0.6918609593884547 0.7087939583945048 0.13762099192178565
vn -1 0 -9.999999999995e-7
vn 1 0 0.000001999999999996
vn -0.7054152621810338 0.7087942634369041 -0.0000010000003716692072
vn 0.7054152621810338 0.7087942634369041 0.0000010000003716692072
vn -0.9807851400041463 0 -0.19509102784866092
vn 0.9807855607469484 0 -0.1950889126277918
vn -0.6918549842862438 0.7087999839013805 -0.13761999687430587
vn 0.6918612450292759 0.708794251026262 -0.13761804873874794
vn -0.9238792538372458 0 -0.3826841051430464
vn 0.9238801073899822 0 -0.382682044482198
vn 0.6517180957866 0.7087951041755224 -0.269950039676045
vn -0.6517037065792702 0.7088106808676318 -0.26994387846144036
vn -0.8314690690111041 0 -0.5555710461118432
vn 0.8314703015489732 0 -0.555569201488041
vn 0.5865301397842257 0.7087961689231583 -0.3919060934006389
vn -0.586512829986964 0.7088177945343068 -0.39189288640163356
vn -0.7071067811865475 0 -0.7071067811865475
vn 0.707107781185531 0 -0.70710578118615
vn 0.49880223443361366 0.7087973331298633 -0.49880123443314367
vn -0.498785313025291 0.7088204448381302 -0.498785313025291
vn -0.555569892830578 0 -0.8314698396094834
vn 0.555569892830578 0 -0.8314698396094834
vn 0.3919019125984371 0.7088028419235166 -0.5865248691938247
vn -0.3918899636716061 0.7088259342914844 -0.5865049456307008
vn -0.3826808373754119 -9.99999575038771e-7 -0.9238806073863948
vn -0.2699339931624371 0.7088279820450332 -0.6516889834923925
vn 0.3826841051430464 0 -0.9238792538372458
vn 0.26994498151484314 0.7088109514623997 -0.6517029553730124
vn -0.19508795068762494 0 -0.9807857520868168
vn -0.13760995148527613 0.7088187501042216 -0.6918377560909124
vn 0.19509295172679128 0 -0.980784757317592
vn 0.13761790686821396 0.708813520316283 -0.6918415318019364
vn 0 0 -1
vn 0 0.7088132176818888 -0.7053962166325018
vn 0 -0.7088192031259937 -0.7053902021433464
vn 0.13761307339553946 -0.7088243780494564 -0.6918313689862836
vn -9.999999999995e-7 1 0
vn -0.19509006590875128 0 -0.9807853313461202
vn -0.13761899948296538 -0.708806997337012 -0.691847997400727
vn 0 -1 0
vn 0.2699390886212873 -0.7088212327067578 -0.6516942139518973
vn 0.555569201488041 0 -0.8314703015489732
vn -0.38268083737560327 0 -0.9238806073868567
vn -0.26994703613659743 -0.7087980948836178 -0.6517160872423058
vn -0.5555680482052526 0 -0.8314710721446693
vn 0.3918930203884308 -0.7088200368767178 -0.5865100305134783
vn -0.7071052811843601 0 -0.707108281185553
vn -0.39190304652300934 -0.7087970841416612 -0.5865310696274006
vn -0.49880098562979325 -0.7087969795799137 -0.4988029856297356
vn 0.49878571068890937 -0.7088205888622042 -0.4987847106894893
vn 0.8314698396094834 0 -0.555569892830578
vn -0.8314686070708945 0 -0.5555717374521371
vn -0.5865300957835985 -0.7087951157501503 -0.39190806400074757
vn 0.5865119881028976 -0.7088189856219613 -0.39189199205066694
vn 0.9238797538373538 0 -0.38268289803626016
vn 0.6517030212073942 -0.7088120230658068 -0.269942008784318
vn -0.6517189570523739 -0.7087939532911888 -0.2699509822105008
vn 0.9807855226872256 0 -0.19508910396827864
vn -0.9807849486613035 0 -0.1950919897880076
vn 0.6918551747110959 -0.7088001789901421 -0.1376180347520674
vn -0.6918609593884547 -0.7087939583945048 -0.13762099192178565
vn 1 0 9.999999999995e-7
vn -1 0 -0.000001999999999996
vn 0.7054152621810338 -0.7087942634369041 0.0000010000003716692072
vn -0.7054152621810338 -0.7087942634369041 -0.0000010000003716692072
vn 0.9807851400041463 0 0.19509102784866092
vn -0.9807855607469484 0 0.1950889126277918
vn 0.6918549842862438 -0.7087999839013805 0.13761999687430587
vn -0.6918612450292759 -0.708794251026262 0.13761804873874794
vn -0.9238801073899822 0 0.382682044482198
vn -0.6517180957866 -0.7087951041755224 0.269950039676045
vn 0.6517037065792702 -0.7088106808676318 0.26994387846144036
vn 0.8314690690111041 0 0.5555710461118432
vn -0.8314703015489732 0 0.555569201488041
vn -0.5865301397842257 -0.7087961689231583 0.3919060934006389
vn 0.586512829986964 -0.7088177945343068 0.39189288640163356
vn 0.7071067811865475 0 0.7071067811865475
vn -0.49880223443361366 -0.7087973331298633 0.49880123443314367
vn 0.498785313025291 -0.7088204448381302 0.498785313025291
vn 0.555569892830578 0 0.8314698396094834
vn -0.555569892830578 0 0.8314698396094834
vn -0.3919019125984371 -0.7088028419235166 0.5865248691938247
vn 0.3918899636716061 -0.7088259342914844 0.5865049456307008
vn 0.3826808373754119 9.99999575038771e-7 0.9238806073863948
vn 0.2699339931624371 -0.7088279820450332 0.6516889834923925
vn -0.26994498151484314 -0.7088109514623997 0.6517029553730124
vn 0.19508795068762494 0 0.9807857520868168
vn 0.13760995148527613 -0.7088187501042216 0.6918377560909124
vn -0.13761790686821396 -0.708813520316283 0.6918415318019364
vn 0 -0.7088132176818888 0.7053962166325018
usemtl material_0_0
f 1//1 2//2 3//1
f 2//2 1//1 4//2
f 5//3 3//4 2//3
f 3//1 6//5 1//1
f 1//6 7//6 4//6
f 4//2 8//7 2//2
f 3//4 5//3 9//4
f 8//8 5//3 2//3
f 6//5 3//1 10//5
f 6//6 11//6 1//6
f 1//6 11//6 7//6
f 8//7 4//2 7//7
f 12//9 9//9 5//9
f 9//4 10//10 3//4
f 5//3 8//8 12//8
f 10//5 13//11 6//5
f 6//6 14//6 11//6
f 15//12 7//7 11//12
f 7//7 15//12 8//7
f 16//9 9//9 12//9
f 10//10 9//4 17//10
f 15//13 12//8 8//8
f 13//11 10//5 18//11
f 13//6 14//6 6//6
f 19//14 11//12 14//14
f 11//12 19//14 15//12
f 16//9 17//9 9//9
f 12//8 15//13 16//13
f 17//10 18//15 10//10
f 18//11 20//16 13//11
f 13//6 21//6 14//6
f 14//14 22//17 19//14
f 19//18 16//13 15//13
f 23//9 17//9 16//9
f 18//15 17//10 24//15
f 20//16 18//11 25//16
f 20//6 21//6 13//6
f 22//17 14//14 21//17
f 22//19 23//18 19//18
f 16//13 19//18 23//18
f 23//9 24//9 17//9
f 24//15 25//20 18//15
f 25//16 26//21 20//16
f 20//6 27//6 21//6
f 21//17 28//22 22//17
f 23//18 22//19 29//19
f 29//9 24//9 23//9
f 25//20 24//15 30//20
f 26//21 25//16 31//21
f 26//6 27//6 20//6
f 28//22 21//17 27//22
f 28//23 29//19 22//19
f 29//9 30//9 24//9
f 30//20 31//24 25//20
f 32//25 26//21 31//21
f 26//6 33//6 27//6
f 27//22 34//26 28//22
f 29//19 28//23 35//23
f 35//9 30//9 29//9
f 31//24 30//20 36//24
f 26//21 32//25 37//25
f 36//24 32//27 31//24
f 37//6 33//6 26//6
f 34//26 27//22 33//26
f 34//28 35//23 28//23
f 35//9 36//9 30//9
f 32//25 38//29 37//25
f 32//27 36//24 39//27
f 37//6 40//6 33//6
f 33//26 41//30 34//26
f 35//23 34//28 42//28
f 42//9 36//9 35//9
f 38//29 32//25 43//29
f 38//6 40//6 37//6
f 42//9 39//9 36//9
f 39//27 43//31 32//27
f 41//30 33//26 40//30
f 41//32 42//28 34//28
f 43//29 44//33 38//29
f 38//6 45//6 40//6
f 46//9 39//9 42//9
f 43//31 39//27 47//31
f 40//30 48//34 41//30
f 42//28 41//32 46//32
f 44//33 43//29 49//33
f 44//6 45//6 38//6
f 48//34 40//30 45//34
f 46//9 47//9 39//9
f 50//35 43//31 47//31
f 48//36 46//32 41//32
f 43//31 50//35 49//35
f 49//33 51//37 44//33
f 44//6 52//6 45//6
f 45//34 53//38 48//34
f 54//9 47//9 46//9
f 54//9 50//9 47//9
f 46//32 48//36 54//36
f 55//39 49//35 50//35
f 51//37 49//33 56//37
f 51//6 52//6 44//6
f 53//38 45//34 52//38
f 57//40 48//36 53//40
f 57//9 50//9 54//9
f 48//36 57//40 54//36
f 49//35 55//39 56//39
f 57//9 55//9 50//9
f 56//37 58//41 51//37
f 51//6 59//6 52//6
f 52//38 60//42 53//38
f 53//40 61//43 57//40
f 62//44 56//39 55//39
f 61//9 55//9 57//9
f 58//41 56//37 63//41
f 58//6 59//6 51//6
f 60//42 52//38 59//42
f 61//43 53//40 60//43
f 56//39 62//44 63//44
f 61//9 62//9 55//9
f 63//41 64//45 58//41
f 58//6 65//6 59//6
f 59//42 66//46 60//42
f 60//43 67//47 61//43
f 68//48 63//44 62//44
f 67//9 62//9 61//9
f 64//45 63//41 69//45
f 64//6 65//6 58//6
f 66//46 59//42 65//46
f 67//47 60//43 66//47
f 63//44 68//48 69//48
f 67//9 68//9 62//9
f 69//45 70//49 64//45
f 64//6 71//6 65//6
f 71//50 66//46 65//46
f 66//47 72//51 67//47
f 73//52 69//48 68//48
f 72//9 68//9 67//9
f 70//49 69//45 74//49
f 70//6 71//6 64//6
f 66//46 71//50 75//50
f 72//51 66//47 75//51
f 69//48 73//52 74//52
f 72//9 73//9 68//9
f 76//53 70//49 74//49
f 70//6 77//6 71//6
f 77//54 75//50 71//50
f 75//51 78//55 72//51
f 79//56 74//52 73//52
f 78//9 73//9 72//9
f 70//49 76//53 80//53
f 74//52 79//56 76//56
f 80//6 77//6 70//6
f 75//50 77//54 81//54
f 78//55 75//51 81//55
f 78//9 79//9 73//9
f 82//57 80//53 76//53
f 83//58 76//56 79//56
f 80//6 84//6 77//6
f 84//59 81//54 77//54
f 81//55 85//60 78//55
f 85//9 79//9 78//9
f 80//53 82//57 86//57
f 76//56 83//58 82//58
f 85//9 83//9 79//9
f 86//6 84//6 80//6
f 81//54 84//59 87//59
f 85//60 81//55 87//60
f 88//61 86//57 82//57
f 89//62 82//58 83//58
f 90//9 83//9 85//9
f 91//6 84//6 86//6
f 92//63 87//59 84//59
f 87//60 90//64 85//60
f 86//57 88//61 91//61
f 82//58 89//62 88//62
f 90//9 89//9 83//9
f 91//6 92//6 84//6
f 87//59 92//63 93//63
f 90//64 87//60 93//64
f 94//65 91//61 88//61
f 95//66 88//62 89//62
f 89//9 90//9 95//9
f 92//6 91//6 96//6
f 96//65 93//63 92//63
f 93//64 95//66 90//64
f 91//61 94//65 96//65
f 88//62 95//66 94//66
f 93//63 96//65 94//65
f 95//66 93//64 94//66
usemtl material_1_0
f 3//63 2//65 1//63
f 4//65 1//63 2//65
f 2//67 3//68 5//67
f 1//63 6//59 3//63
f 4//69 7//69 1//69
f 2//65 8//70 4//65
f 9//68 5//67 3//68
f 2//67 5//67 8//71
f 10//59 3//63 6//59
f 1//69 11//69 6//69
f 7//69 11//69 1//69
f 7//70 4//65 8//70
f 5//72 9//72 12//72
f 3//68 10//73 9//68
f 12//71 8//71 5//67
f 6//59 13//74 10//59
f 11//69 14//69 6//69
f 11//75 7//70 15//75
f 8//70 15//75 7//70
f 12//72 9//72 16//72
f 17//73 9//68 10//73
f 8//71 12//71 15//76
f 18//74 10//59 13//74
f 6//69 14//69 13//69
f 14//77 11//75 19//77
f 15//75 19//77 11//75
f 9//72 17//72 16//72
f 16//76 15//76 12//71
f 10//73 18//78 17//73
f 13//74 20//50 18//74
f 14//69 21//69 13//69
f 19//77 22//79 14//77
f 15//76 16//76 19//80
f 16//72 17//72 23//72
f 24//78 17//73 18//78
f 25//50 18//74 20//50
f 13//69 21//69 20//69
f 21//79 14//77 22//79
f 19//80 23//80 22//81
f 23//80 19//80 16//76
f 17//72 24//72 23//72
f 18//78 25//82 24//78
f 20//50 26//83 25//50
f 21//69 27//69 20//69
f 22//79 28//84 21//79
f 29//81 22//81 23//80
f 23//72 24//72 29//72
f 30//82 24//78 25//82
f 31//83 25//50 26//83
f 20//69 27//69 26//69
f 27//84 21//79 28//84
f 22//81 29//81 28//85
f 24//72 30//72 29//72
f 25//82 31//86 30//82
f 31//83 26//83 32//87
f 27//69 33//69 26//69
f 28//84 34//41 27//84
f 35//85 28//85 29//81
f 29//72 30//72 35//72
f 36//86 30//82 31//86
f 37//87 32//87 26//83
f 31//86 32//88 36//86
f 26//69 33//69 37//69
f 33//41 27//84 34//41
f 28//85 35//85 34//89
f 30//72 36//72 35//72
f 37//87 38//90 32//87
f 39//88 36//86 32//88
f 33//69 40//69 37//69
f 34//41 41//91 33//41
f 42//89 34//89 35//85
f 35//72 36//72 42//72
f 43//90 32//87 38//90
f 37//69 40//69 38//69
f 36//72 39//72 42//72
f 32//88 43//92 39//88
f 40//91 33//41 41//91
f 34//89 42//89 41//93
f 38//90 44//94 43//90
f 40//69 45//69 38//69
f 42//72 39//72 46//72
f 47//92 39//88 43//92
f 41//91 48//95 40//91
f 46//93 41//93 42//89
f 49//94 43//90 44//94
f 38//69 45//69 44//69
f 45//95 40//91 48//95
f 39//72 47//72 46//72
f 47//92 43//92 50//96
f 41//93 46//93 48//97
f 49//96 50//96 43//92
f 44//94 51//98 49//94
f 45//69 52//69 44//69
f 48//95 53//99 45//95
f 46//72 47//72 54//72
f 47//72 50//72 54//72
f 54//97 48//97 46//93
f 50//96 49//96 55//100
f 56//98 49//94 51//98
f 44//69 52//69 51//69
f 52//99 45//95 53//99
f 53//101 48//97 57//101
f 54//72 50//72 57//72
f 54//97 57//101 48//97
f 56//100 55//100 49//96
f 50//72 55//72 57//72
f 51//98 58//26 56//98
f 52//69 59//69 51//69
f 53//99 60//102 52//99
f 57//101 61//103 53//101
f 55//100 56//100 62//104
f 57//72 55//72 61//72
f 63//26 56//98 58//26
f 51//69 59//69 58//69
f 59//102 52//99 60//102
f 60//103 53//101 61//103
f 63//104 62//104 56//100
f 55//72 62//72 61//72
f 58//26 64//105 63//26
f 59//69 65//69 58//69
f 60//102 66//106 59//102
f 61//103 67//107 60//103
f 62//104 63//104 68//108
f 61//72 62//72 67//72
f 69//105 63//26 64//105
f 58//69 65//69 64//69
f 65//106 59//102 66//106
f 66//107 60//103 67//107
f 69//108 68//108 63//104
f 62//72 68//72 67//72
f 64//105 70//109 69//105
f 65//69 71//69 64//69
f 65//106 66//106 71//16
f 67//107 72//110 66//107
f 68//108 69//108 73//111
f 67//72 68//72 72//72
f 74//109 69//105 70//109
f 64//69 71//69 70//69
f 75//16 71//16 66//106
f 75//110 66//107 72//110
f 74//111 73//111 69//108
f 68//72 73//72 72//72
f 74//109 70//109 76//112
f 71//69 77//69 70//69
f 71//16 75//16 77//113
f 72//110 78//114 75//110
f 73//111 74//111 79//115
f 72//72 73//72 78//72
f 80//112 76//112 70//109
f 76//115 79//115 74//111
f 70//69 77//69 80//69
f 81//113 77//113 75//16
f 81//114 75//110 78//114
f 73//72 79//72 78//72
f 76//112 80//112 82//116
f 79//115 76//115 83//117
f 77//69 84//69 80//69
f 77//113 81//113 84//5
f 78//114 85//118 81//114
f 78//72 79//72 85//72
f 86//116 82//116 80//112
f 82//117 83//117 76//115
f 79//72 83//72 85//72
f 80//69 84//69 86//69
f 87//5 84//5 81//113
f 87//118 81//114 85//118
f 82//116 86//116 88//119
f 83//117 82//117 89//120
f 85//72 83//72 90//72
f 86//69 84//69 91//69
f 84//5 87//5 92//1
f 85//118 90//121 87//118
f 91//119 88//119 86//116
f 88//120 89//120 82//117
f 83//72 89//72 90//72
f 84//69 92//69 91//69
f 93//1 92//1 87//5
f 93//121 87//118 90//121
f 88//119 91//119 94//2
f 89//120 88//120 95//122
f 95//72 90//72 89//72
f 96//69 91//69 92//69
f 92//1 93//1 96//2
f 90//121 95//122 93//121
f 96//2 94//2 91//119
f 94//122 95//122 88//120
f 94//2 96//2 93//1
f 94//122 93//121 95//122
