# SSTK version 0.8.0
# 39
mtllib original-39.mtl
o mesh39/mesh39-geometry#mesh39-geometry
v -0.354325 -0.146199 0.046800
v -0.277491 -0.163922 0.046800
v -0.354325 -0.163922 0.046800
v -0.277491 -0.146199 0.046800
v -0.354325 -0.163922 0.101242
v -0.358889 -0.163922 0.051363
v -0.277491 -0.146199 0.101242
v -0.272927 -0.163922 0.051363
v -0.277491 -0.163922 0.101242
v -0.358889 -0.163922 0.096679
v -0.358889 -0.146199 0.051363
v -0.272927 -0.146199 0.096679
v -0.354325 -0.146199 0.101242
v -0.272927 -0.146199 0.051363
v -0.358889 -0.146199 0.096679
v -0.272927 -0.163922 0.096679
vn 0 0 -1
vn 0 0 1
vn 0 -1 0
vn 0 1 0
vn -0.7071067811865476 0 -0.7071067811865476
vn 0.7071067811865476 0 0.7071067811865476
vn 0.7071067811865476 0 -0.7071067811865476
vn -0.7071067811865476 0 0.7071067811865476
vn -1 0 0
vn 1 0 0
usemtl material_0_0
f 1//1 2//1 3//1
f 2//1 1//1 4//1
f 3//2 2//2 1//2
f 4//2 1//2 2//2
f 2//3 5//3 3//3
f 3//4 5//4 2//4
f 6//5 1//5 3//5
f 3//6 1//6 6//6
f 7//4 4//4 1//4
f 1//3 4//3 7//3
f 4//7 8//7 2//7
f 2//8 8//8 4//8
f 2//3 9//3 5//3
f 5//4 9//4 2//4
f 3//3 5//3 10//3
f 10//4 5//4 3//4
f 1//5 6//5 11//5
f 11//6 6//6 1//6
f 3//3 10//3 6//3
f 6//4 10//4 3//4
f 12//4 4//4 7//4
f 7//3 4//3 12//3
f 7//4 1//4 13//4
f 13//3 1//3 7//3
f 8//7 4//7 14//7
f 14//8 4//8 8//8
f 8//3 9//3 2//3
f 2//4 9//4 8//4
f 7//2 5//2 9//2
f 9//1 5//1 7//1
f 5//8 15//8 10//8
f 10//7 15//7 5//7
f 10//9 11//9 6//9
f 6//10 11//10 10//10
f 13//4 1//4 11//4
f 11//3 1//3 13//3
f 4//4 12//4 14//4
f 14//3 12//3 4//3
f 9//6 12//6 7//6
f 7//5 12//5 9//5
f 5//2 7//2 13//2
f 13//1 7//1 5//1
f 12//10 8//10 14//10
f 14//9 8//9 12//9
f 9//3 8//3 16//3
f 16//4 8//4 9//4
f 15//8 5//8 13//8
f 13//7 5//7 15//7
f 11//9 10//9 15//9
f 15//10 10//10 11//10
f 13//4 11//4 15//4
f 15//3 11//3 13//3
f 12//6 9//6 16//6
f 16//5 9//5 12//5
f 8//10 12//10 16//10
f 16//9 12//9 8//9
