# SSTK version 0.8.0
# 77
mtllib original-77.mtl
o mesh77/mesh77-geometry#mesh77-geometry
v -0.804522 0.025618 -0.040804
v -0.804522 0.027371 -0.109331
v -0.804522 0.018373 -0.041769
v -0.804522 0.034616 -0.108366
v -0.804431 0.025473 -0.039717
v -0.691969 0.034616 -0.108366
v -0.804431 0.027515 -0.110419
v -0.804431 0.018228 -0.040682
v -0.691969 0.025618 -0.040804
v -0.692060 0.034761 -0.109454
v -0.804431 0.034761 -0.109454
v -0.804160 0.025331 -0.038648
v -0.692060 0.025473 -0.039717
v -0.692060 0.027515 -0.110419
v -0.691969 0.027371 -0.109331
v -0.804160 0.027658 -0.111488
v -0.804160 0.018086 -0.039613
v -0.691969 0.018373 -0.041769
v -0.692331 0.034903 -0.110523
v -0.692331 0.027658 -0.111488
v -0.804160 0.034903 -0.110523
v -0.803713 0.025194 -0.037616
v -0.692331 0.025331 -0.038648
v -0.692060 0.018228 -0.040682
v -0.803713 0.027795 -0.112520
v -0.803713 0.017948 -0.038581
v -0.692778 0.035041 -0.111555
v -0.692778 0.027795 -0.112520
v -0.803713 0.035041 -0.111555
v -0.803099 0.025063 -0.036638
v -0.692778 0.025194 -0.037616
v -0.692331 0.018086 -0.039613
v -0.803099 0.027925 -0.113497
v -0.803099 0.017818 -0.037603
v -0.693392 0.035171 -0.112532
v -0.693392 0.027925 -0.113497
v -0.803099 0.035171 -0.112532
v -0.802327 0.024943 -0.035732
v -0.693392 0.025063 -0.036638
v -0.692778 0.017948 -0.038581
v -0.802327 0.028046 -0.114403
v -0.802327 0.017698 -0.036697
v -0.694164 0.024943 -0.035732
v -0.694164 0.035291 -0.113438
v -0.694164 0.028046 -0.114403
v -0.802327 0.035291 -0.113438
v -0.801411 0.017588 -0.035878
v -0.801411 0.024834 -0.034913
v -0.693392 0.017818 -0.037603
v -0.801411 0.035400 -0.114258
v -0.695080 0.024834 -0.034913
v -0.694164 0.017698 -0.036697
v -0.695080 0.035400 -0.114258
v -0.695080 0.028155 -0.115223
v -0.801411 0.028155 -0.115223
v -0.800366 0.017493 -0.035159
v -0.800366 0.024738 -0.034194
v -0.800366 0.035496 -0.114976
v -0.696125 0.035496 -0.114976
v -0.696125 0.024738 -0.034194
v -0.695080 0.017588 -0.035878
v -0.696125 0.028251 -0.115941
v -0.800366 0.028251 -0.115941
v -0.799211 0.017412 -0.034554
v -0.799211 0.024657 -0.033589
v -0.799211 0.035577 -0.115582
v -0.697280 0.035577 -0.115582
v -0.697280 0.028332 -0.116547
v -0.697280 0.024657 -0.033589
v -0.696125 0.017493 -0.035159
v -0.799211 0.028332 -0.116547
v -0.797965 0.017348 -0.034072
v -0.698526 0.024593 -0.033107
v -0.797965 0.035641 -0.116064
v -0.698526 0.035641 -0.116064
v -0.698526 0.028396 -0.117029
v -0.797965 0.024593 -0.033107
v -0.697280 0.017412 -0.034554
v -0.797965 0.028396 -0.117029
v -0.796649 0.017301 -0.033721
v -0.796649 0.024546 -0.032756
v -0.698526 0.017348 -0.034072
v -0.796649 0.035688 -0.116414
v -0.699841 0.035688 -0.116414
v -0.699841 0.028442 -0.117379
v -0.699841 0.024546 -0.032756
v -0.796649 0.028442 -0.117379
v -0.795287 0.017273 -0.033509
v -0.795287 0.024518 -0.032544
v -0.699841 0.017301 -0.033721
v -0.795287 0.035716 -0.116627
v -0.701204 0.035716 -0.116627
v -0.701204 0.028471 -0.117592
v -0.701204 0.024518 -0.032544
v -0.795287 0.028471 -0.117592
v -0.793900 0.017263 -0.033437
v -0.793900 0.024509 -0.032472
v -0.701204 0.017273 -0.033509
v -0.793900 0.035725 -0.116698
v -0.702590 0.035725 -0.116698
v -0.702590 0.028480 -0.117663
v -0.702590 0.024509 -0.032472
v -0.793900 0.028480 -0.117663
v -0.702590 0.017263 -0.033437
vt 5.104618 6.863683
vt 3.824465 6.952762
vt 5.086592 6.495378
vt 3.84249 7.321067
vt 4.746356 6.624051
vt 4.784708 6.985015
vt 4.764321 6.992378
vt 0.241955 0.660545
vt 0.19955 0.660545
vt 0.19955 0.590671
vt -3.949802 -12.862819
vt -3.949802 -9.398052
vt -1.847194 -9.398052
vt 4.152787 7.213236
vt 4.114435 6.852272
vt 4.134822 6.844909
vt 4.766743 6.616688
vt 0.241955 0.590671
vt 0.199585 0.589547
vt -3.948104 -12.918591
vt -1.847194 -12.862819
vt 0.24192 0.66167
vt -1.848892 -9.34228
vt 4.1324 7.220599
vt 4.000927 6.928233
vt 4.039018 7.289489
vt 4.018417 7.296729
vt 0.24192 0.589547
vt -1.848892 -12.918591
vt 0.199585 0.66167
vt -3.948104 -9.34228
vt -3.678465 7.38454
vt -3.640113 7.023576
vt -3.658078 7.391903
vt -5.104618 6.863683
vt -3.824465 6.952762
vt -3.84249 7.321067
vt 4.663285 7.070084
vt 4.625194 6.708829
vt 4.645795 6.701589
vt 4.021528 6.920993
vt 0.199687 0.588441
vt -3.943041 -12.97341
vt -5.25903 6.813711
vt -5.220678 6.452747
vt -5.238643 6.821074
vt 0.241818 0.662775
vt -1.853955 -9.287461
vt -3.6605 7.016213
vt -3.223715 7.201392
vt -3.261806 7.562647
vt -3.244316 7.194151
vt -5.086592 6.495378
vt 4.642685 7.077325
vt 3.175245 7.269915
vt 3.212839 7.631724
vt 3.191833 7.63872
vt 0.241818 0.588441
vt -1.853955 -12.97341
vt -5.241065 6.445384
vt 0.199687 0.662775
vt -3.943041 -9.287461
vt -3.241206 7.569887
vt 5.041911 7.02256
vt 5.004316 6.660751
vt 5.025323 6.653755
vt 3.196251 7.262919
vt 0.199855 0.587374
vt -3.934698 -13.026336
vt -5.440497 6.796926
vt -5.402406 6.435671
vt -5.419896 6.804166
vt 0.24165 0.663843
vt -1.862298 -9.234535
vt -2.736027 7.416195
vt -2.773622 7.778003
vt -2.757034 7.409199
vt 5.020904 7.029556
vt 2.310472 7.607752
vt 2.347376 7.970325
vt 2.325807 7.976958
vt 0.24165 0.587374
vt -1.862298 -13.026336
vt -5.423006 6.42843
vt 0.199855 0.663843
vt -3.934698 -9.234535
vt -2.752615 7.785
vt 5.286209 7.066449
vt 5.249305 6.703877
vt 5.270873 6.697243
vt 2.33204 7.601119
vt 0.200087 0.586363
vt -3.923218 -13.076464
vt -5.481129 6.87628
vt -5.443534 6.514472
vt -5.460122 6.883277
vt 0.241418 0.664854
vt -1.873777 -9.184407
vt -2.202851 7.640852
vt -2.239755 8.003425
vt -2.22442 7.634219
vt 5.26464 7.073083
vt 1.442416 7.909024
vt 1.478476 8.272515
vt 1.456239 8.278672
vt 0.241418 0.586363
vt -1.873777 -13.076464
vt -5.464541 6.507476
vt 0.200087 0.664854
vt -3.923218 -9.184407
vt -2.218187 8.010058
vt 5.404948 7.185298
vt 5.368888 6.821807
vt 5.391125 6.81565
vt 1.464653 7.902867
vt 0.241128 0.585426
vt 0.200377 0.585426
vt -3.908799 -13.122937
vt -1.888197 -13.122937
vt -5.393829 7.033349
vt -5.356925 6.670777
vt -5.372261 7.039983
vt 0.241128 0.665791
vt -1.888197 -9.137934
vt -1.648299 7.852016
vt -1.684359 8.215507
vt -1.670536 7.845859
vt 5.382711 7.191455
vt 0.620517 8.147921
vt 0.609692 8.523582
vt 0.597557 8.153495
vt 0.200723 0.584578
vt -3.891685 -13.164959
vt -5.199065 7.242305
vt -5.163006 6.878815
vt -5.176828 7.248463
vt -5.378494 6.664143
vt 0.200377 0.665791
vt -3.908799 -9.137934
vt -1.662122 8.221664
vt 5.390416 7.362906
vt 5.401241 6.987246
vt 5.413375 7.357332
vt 0.632651 8.518007
vt 0.240783 0.584578
vt -1.90531 -13.164959
vt -5.185242 6.872657
vt 0.240783 0.666638
vt -1.90531 -9.095912
vt -1.091558 8.03356
vt -1.126652 8.398073
vt -1.114517 8.027986
vt 5.378281 6.99282
vt 0.200723 0.666638
vt -3.891685 -9.095912
vt -0.183789 8.327506
vt -0.197135 8.70289
vt -0.207473 8.3324
vt 0.201116 0.583835
vt -3.872172 -13.201811
vt -4.919375 7.477267
vt -4.884281 7.112754
vt -4.896415 7.482841
vt -1.103692 8.403647
vt 5.304996 7.566035
vt 5.318343 7.190651
vt 5.328681 7.561141
vt 0.240389 0.667382
vt -1.924824 -9.05906
vt -0.17345 8.697997
vt 0.240389 0.583835
vt -1.924824 -13.201811
vt -4.90724 7.10718
vt -0.545899 8.176738
vt -0.579922 8.542334
vt -0.569584 8.171844
vt 5.294658 7.195545
vt 0.201116 0.667382
vt -3.872172 -9.05906
vt -0.556237 8.547228
vt -0.939877 8.440955
vt -0.955758 8.815921
vt -0.964242 8.445082
vt 0.201551 0.583209
vt -3.850591 -13.232863
vt -4.575309 7.716804
vt -4.541286 7.351207
vt -4.551624 7.721698
vt 5.142509 7.782871
vt 5.158389 7.407905
vt 5.166873 7.778744
vt 0.239954 0.668008
vt -1.946404 -9.028008
vt -0.019275 8.278474
vt -0.052123 8.645185
vt -0.043639 8.274346
vt -0.931393 8.811793
vt 0.239954 0.583209
vt -1.946404 -13.232863
vt -4.56497 7.346314
vt 5.134025 7.412033
vt 0.201551 0.668008
vt -3.850591 -9.028008
vt -0.027758 8.649313
vt -1.645146 8.492169
vt -1.663501 8.866579
vt -1.670105 8.495457
vt 0.239484 0.58271
vt -1.969682 -13.257584
vt -4.183357 7.945352
vt -4.150509 7.578641
vt -4.158992 7.94948
vt 4.916217 7.999699
vt 4.934573 7.625288
vt 4.941176 7.99641
vt 0.239484 0.668506
vt -1.969682 -9.003288
vt 0.484383 8.339238
vt 0.452821 8.707072
vt 0.459424 8.33595
vt -1.638543 8.863291
vt 0.202021 0.58271
vt -3.827313 -13.257584
vt -3.755454 8.15263
vt -3.723892 7.784796
vt -3.730495 8.155918
vt -4.174873 7.574513
vt 4.909614 7.628577
vt 0.202021 0.668506
vt -3.827313 -9.003288
vt 0.477779 8.71036
vt -2.300501 8.486958
vt -2.32122 8.860685
vt -2.325934 8.48935
vt 0.202516 0.582348
vt -3.802736 -13.27555
vt -3.748851 7.781508
vt 4.636102 8.206571
vt 4.65682 7.832845
vt 4.661535 8.20418
vt 0.238989 0.668869
vt -1.99426 -8.985322
vt 0.96378 8.361283
vt 0.933631 8.730227
vt 0.938346 8.358891
vt -2.295786 8.858294
vt 0.238989 0.582348
vt -1.99426 -13.27555
vt -3.299381 8.332247
vt -3.269232 7.963303
vt -3.273947 8.334638
vt 4.631387 7.835236
vt 0.202516 0.668869
vt -3.802736 -8.985322
vt 0.959065 8.732618
vt -2.908554 8.431412
vt -2.931491 8.804341
vt -2.934318 8.432864
vt 0.20303 0.582128
vt -3.77728 -13.286454
vt -3.294666 7.960912
vt 4.308982 8.396328
vt 4.331919 8.023399
vt 4.334746 8.394876
vt 0.238475 0.669089
vt -2.019716 -8.974418
vt 1.419098 8.347479
vt 1.390507 8.717504
vt 1.393334 8.346027
vt -2.905727 8.802889
vt 0.238475 0.582128
vt -2.019716 -13.286454
vt -2.819526 8.480261
vt -2.790935 8.110236
vt -2.793762 8.481713
vt 4.306155 8.024851
vt 0.20303 0.669089
vt -3.77728 -8.974418
vt 1.416271 8.718956
vt -3.472317 8.331116
vt -3.497308 8.703151
vt -3.49825 8.331603
vt 0.203552 0.582054
vt -3.751381 -13.290109
vt -2.816699 8.108784
vt 3.938915 8.563559
vt 3.963906 8.191525
vt 3.964848 8.563073
vt 0.237953 0.669162
vt -2.045615 -8.970762
vt 1.851102 8.300683
vt 1.824227 8.671744
vt 1.825169 8.300196
vt -3.471375 8.702664
vt 0.237953 0.582054
vt -2.045615 -13.290109
vt -2.3177 8.593992
vt -2.290825 8.222931
vt -2.291767 8.594479
vt 3.937973 8.192011
vt 0.203552 0.669162
vt -3.751381 -8.970762
vt 1.85016 8.672231
vt -2.045615 8.265738
vt -3.751381 8.637294
vt -3.751381 8.265738
vt -2.045615 8.637294
vt -2.316758 8.222445
vt 2.045615 8.637294
vt 3.751381 8.265738
vt 3.751381 8.637294
vt 2.045615 8.265738
vn -0.9991465633960275 -0.005452997617165981 0.04094398210842543
vn -0.9991465633960275 0.005452997617165981 -0.04094398210842543
vn 0.9991465633960275 0.005452997617165981 -0.04094398210842543
vn 0.9991465633960275 -0.005452997617165981 0.04094398210842543
vn -0.9865100611517874 -0.021610001339560803 0.1622680100586697
vn 0.9865100611517874 0.021610001339560803 -0.1622680100586697
vn 0 0.9912483778619711 0.13201005032197674
vn 0 -0.9912483778619711 -0.13201005032197674
vn -0.9865100611517874 0.021610001339560803 -0.1622680100586697
vn 0.9865100611517874 -0.021610001339560803 0.1622680100586697
vn -0.9474183436372223 -0.04224301532192463 0.31719711505026926
vn 0.9474183436372223 0.04224301532192463 -0.31719711505026926
vn -0.9474183436372223 0.04224301532192463 -0.31719711505026926
vn 0.9474183436372223 -0.04224301532192463 0.31719711505026926
vn -0.8864237032395765 -0.06110397954336873 0.45882384639314305
vn 0.8864237032395765 0.06110397954336873 -0.45882384639314305
vn -0.8864237032395765 0.06110397954336873 -0.45882384639314305
vn 0.8864237032395765 -0.06110397954336873 0.45882384639314305
vn -0.8084816930009644 -0.07769097049895721 0.5833707784807399
vn 0.8084816930009644 0.07769097049895721 -0.5833707784807399
vn -0.8084816930009644 0.07769097049895721 -0.5833707784807399
vn 0.8084816930009644 -0.07769097049895721 0.5833707784807399
vn -0.7186580703303975 -0.0917950089833813 0.6892780674551674
vn 0.7186580703303975 0.0917950089833813 -0.6892780674551674
vn -0.7186580703303975 0.0917950089833813 -0.6892780674551674
vn 0.7186580703303975 -0.0917950089833813 0.6892780674551674
vn -0.6213130245921914 -0.10343800409417973 0.7767050307427625
vn 0.6213130245921914 0.10343800409417973 -0.7767050307427625
vn -0.6213130245921914 0.10343800409417973 -0.7767050307427625
vn 0.6213130245921914 -0.10343800409417973 0.7767050307427625
vn -0.5197460603703276 -0.11277901309967785 0.8468440983639116
vn 0.5197460603703276 0.11277901309967785 -0.8468440983639116
vn -0.5197460603703276 0.11277901309967785 -0.8468440983639116
vn 0.5197460603703276 -0.11277901309967785 0.8468440983639116
vn -0.4161851117321915 -0.12003403222524088 0.9013222419757615
vn 0.4161851117321915 0.12003403222524088 -0.9013222419757615
vn -0.4161851117321915 0.12003403222524088 -0.9013222419757615
vn 0.4161851117321915 -0.12003403222524088 0.9013222419757615
vn -0.311967017398869 -0.12542200699497366 0.9417780525243762
vn 0.311967017398869 0.12542200699497366 -0.9417780525243762
vn -0.311967017398869 0.12542200699497366 -0.9417780525243762
vn 0.311967017398869 -0.12542200699497366 0.9417780525243762
vn -0.20776196338756678 -0.12912897724450625 0.9696188291308762
vn 0.20776196338756678 0.12912897724450625 -0.9696188291308762
vn -0.20776196338756678 0.12912897724450625 -0.9696188291308762
vn 0.20776196338756678 -0.12912897724450625 0.9696188291308762
vn -0.10379097794883065 -0.1312969721049765 0.9858947905392799
vn 0.10379097794883065 0.1312969721049765 -0.9858947905392799
vn -0.10379097794883065 0.1312969721049765 -0.9858947905392799
vn 0.10379097794883065 -0.1312969721049765 0.9858947905392799
vn -0.02590898937092997 -0.1319659458614437 0.9909155934804293
vn 0.02590898937092997 0.1319659458614437 -0.9909155934804293
vn -0.02590898937092997 0.1319659458614437 -0.9909155934804293
vn 0.02590898937092997 -0.1319659458614437 0.9909155934804293
usemtl material_0_0
f 1/1/1 2/2/2 3/3/1
f 2/2/2 1/1/1 4/4/2
f 3/3/3 2/2/4 1/1/3
f 4/4/4 1/1/3 2/2/4
f 3/5/1 5/6/5 1/7/1
f 1/7/3 5/6/6 3/5/3
f 6/8/7 4/9/7 1/10/7
f 1/11/8 4/12/8 6/13/8
f 4/14/2 7/15/9 2/16/2
f 2/16/4 7/15/10 4/14/4
f 5/6/5 3/5/1 8/17/5
f 8/17/6 3/5/3 5/6/6
f 9/18/7 1/10/7 5/19/7
f 5/20/8 1/11/8 9/21/8
f 10/22/7 4/9/7 6/8/7
f 6/13/8 4/12/8 10/23/8
f 6/8/7 1/10/7 9/18/7
f 9/21/8 1/11/8 6/13/8
f 7/15/9 4/14/2 11/24/9
f 11/24/10 4/14/4 7/15/10
f 8/25/5 12/26/11 5/27/5
f 5/27/6 12/26/12 8/25/6
f 9/18/7 5/19/7 13/28/7
f 13/29/8 5/20/8 9/21/8
f 10/22/7 11/30/7 4/9/7
f 4/12/8 11/31/8 10/23/8
f 6/32/3 14/33/6 10/34/6
f 10/34/5 14/33/5 6/32/1
f 9/35/4 15/36/3 6/37/3
f 6/37/1 15/36/1 9/35/2
f 11/38/9 16/39/13 7/40/9
f 7/40/10 16/39/14 11/38/10
f 12/26/11 8/25/5 17/41/11
f 17/41/12 8/25/6 12/26/12
f 13/28/7 5/19/7 12/42/7
f 12/43/8 5/20/8 13/29/8
f 13/44/10 18/45/4 9/46/4
f 9/46/2 18/45/2 13/44/9
f 19/47/7 11/30/7 10/22/7
f 10/23/8 11/31/8 19/48/8
f 14/33/6 6/32/3 15/49/3
f 15/49/1 6/32/1 14/33/5
f 20/50/12 10/51/6 14/52/6
f 14/52/5 10/51/5 20/50/11
f 15/36/3 9/35/4 18/53/4
f 18/53/2 9/35/2 15/36/1
f 16/39/13 11/38/9 21/54/13
f 21/54/14 11/38/10 16/39/14
f 17/55/11 22/56/15 12/57/11
f 12/57/12 22/56/16 17/55/12
f 13/28/7 12/42/7 23/58/7
f 23/59/8 12/43/8 13/29/8
f 18/45/4 13/44/10 24/60/10
f 24/60/9 13/44/9 18/45/2
f 19/47/7 21/61/7 11/30/7
f 11/31/8 21/62/8 19/48/8
f 10/51/6 20/50/12 19/63/12
f 19/63/11 20/50/11 10/51/5
f 21/64/13 25/65/17 16/66/13
f 16/66/14 25/65/18 21/64/14
f 22/56/15 17/55/11 26/67/15
f 26/67/16 17/55/12 22/56/16
f 23/58/7 12/42/7 22/68/7
f 22/69/8 12/43/8 23/59/8
f 23/70/14 24/71/10 13/72/10
f 13/72/9 24/71/9 23/70/13
f 27/73/7 21/61/7 19/47/7
f 19/48/8 21/62/8 27/74/8
f 28/75/16 19/76/12 20/77/12
f 20/77/11 19/76/11 28/75/15
f 25/65/17 21/64/13 29/78/17
f 29/78/18 21/64/14 25/65/18
f 26/79/15 30/80/19 22/81/15
f 22/81/16 30/80/20 26/79/16
f 23/58/7 22/68/7 31/82/7
f 31/83/8 22/69/8 23/59/8
f 24/71/10 23/70/14 32/84/14
f 32/84/13 23/70/13 24/71/9
f 27/73/7 29/85/7 21/61/7
f 21/62/8 29/86/8 27/74/8
f 19/76/12 28/75/16 27/87/16
f 27/87/15 28/75/15 19/76/11
f 29/88/17 33/89/21 25/90/17
f 25/90/18 33/89/22 29/88/18
f 30/80/19 26/79/15 34/91/19
f 34/91/20 26/79/16 30/80/20
f 31/82/7 22/68/7 30/92/7
f 30/93/8 22/69/8 31/83/8
f 31/94/18 32/95/14 23/96/14
f 23/96/13 32/95/13 31/94/17
f 35/97/7 29/85/7 27/73/7
f 27/74/8 29/86/8 35/98/8
f 36/99/20 27/100/16 28/101/16
f 28/101/15 27/100/15 36/99/19
f 33/89/21 29/88/17 37/102/21
f 37/102/22 29/88/18 33/89/22
f 34/103/19 38/104/23 30/105/19
f 30/105/20 38/104/24 34/103/20
f 31/82/7 30/92/7 39/106/7
f 39/107/8 30/93/8 31/83/8
f 32/95/14 31/94/18 40/108/18
f 40/108/17 31/94/17 32/95/13
f 35/97/7 37/109/7 29/85/7
f 29/86/8 37/110/8 35/98/8
f 27/100/16 36/99/20 35/111/20
f 35/111/19 36/99/19 27/100/15
f 37/112/21 41/113/25 33/114/21
f 33/114/22 41/113/26 37/112/22
f 38/104/23 34/103/19 42/115/23
f 42/115/24 34/103/20 38/104/24
f 43/116/7 30/92/7 38/117/7
f 38/118/8 30/93/8 43/119/8
f 39/106/7 30/92/7 43/116/7
f 43/119/8 30/93/8 39/107/8
f 39/120/22 40/121/18 31/122/18
f 31/122/17 40/121/17 39/120/21
f 44/123/7 37/109/7 35/97/7
f 35/98/8 37/110/8 44/124/8
f 45/125/24 35/126/20 36/127/20
f 36/127/19 35/126/19 45/125/23
f 41/113/25 37/112/21 46/128/25
f 46/128/26 37/112/22 41/113/26
f 47/129/27 38/130/23 42/131/23
f 42/131/24 38/130/24 47/129/28
f 43/116/7 38/117/7 48/132/7
f 48/133/8 38/118/8 43/119/8
f 43/134/26 49/135/22 39/136/22
f 39/136/21 49/135/21 43/134/25
f 40/121/18 39/120/22 49/137/22
f 49/137/21 39/120/21 40/121/17
f 44/123/7 46/138/7 37/109/7
f 37/110/8 46/139/8 44/124/8
f 35/126/20 45/125/24 44/140/24
f 44/140/23 45/125/23 35/126/19
f 50/141/29 41/142/25 46/143/25
f 46/143/26 41/142/26 50/141/30
f 38/130/23 47/129/27 48/144/27
f 48/144/28 47/129/28 38/130/24
f 43/116/7 48/132/7 51/145/7
f 51/146/8 48/133/8 43/119/8
f 49/135/22 43/134/26 52/147/26
f 52/147/25 43/134/25 49/135/21
f 53/148/7 46/138/7 44/123/7
f 44/124/8 46/139/8 53/149/8
f 54/150/28 44/151/24 45/152/24
f 45/152/23 44/151/23 54/150/27
f 41/142/25 50/141/29 55/153/29
f 55/153/30 50/141/30 41/142/26
f 53/148/7 50/154/7 46/138/7
f 46/139/8 50/155/8 53/149/8
f 56/156/31 48/157/27 47/158/27
f 47/158/28 48/157/28 56/156/32
f 51/145/7 48/132/7 57/159/7
f 57/160/8 48/133/8 51/146/8
f 51/161/30 52/162/26 43/163/26
f 43/163/25 52/162/25 51/161/29
f 44/151/24 54/150/28 53/164/28
f 53/164/27 54/150/27 44/151/23
f 58/165/33 55/166/29 50/167/29
f 50/167/30 55/166/30 58/165/34
f 59/168/7 50/154/7 53/148/7
f 53/149/8 50/155/8 59/169/8
f 48/157/27 56/156/31 57/170/31
f 57/170/32 56/156/32 48/157/28
f 51/145/7 57/159/7 60/171/7
f 60/172/8 57/160/8 51/146/8
f 52/162/26 51/161/30 61/173/30
f 61/173/29 51/161/29 52/162/25
f 62/174/32 53/175/28 54/176/28
f 54/176/27 53/175/27 62/174/31
f 55/166/29 58/165/33 63/177/33
f 63/177/34 58/165/34 55/166/30
f 59/168/7 58/178/7 50/154/7
f 50/155/8 58/179/8 59/169/8
f 53/175/28 62/174/32 59/180/32
f 59/180/31 62/174/31 53/175/27
f 64/181/35 57/182/31 56/183/31
f 56/183/32 57/182/32 64/181/36
f 60/171/7 57/159/7 65/184/7
f 65/185/8 57/160/8 60/172/8
f 60/186/34 61/187/30 51/188/30
f 51/188/29 61/187/29 60/186/33
f 66/189/37 63/190/33 58/191/33
f 58/191/34 63/190/34 66/189/38
f 67/192/7 58/178/7 59/168/7
f 59/169/8 58/179/8 67/193/8
f 68/194/36 59/195/32 62/196/32
f 62/196/31 59/195/31 68/194/35
f 57/182/31 64/181/35 65/197/35
f 65/197/36 64/181/36 57/182/32
f 60/171/7 65/184/7 69/198/7
f 69/199/8 65/185/8 60/172/8
f 61/187/30 60/186/34 70/200/34
f 70/200/33 60/186/33 61/187/29
f 63/190/33 66/189/37 71/201/37
f 71/201/38 66/189/38 63/190/34
f 67/192/7 66/202/7 58/178/7
f 58/179/8 66/203/8 67/193/8
f 59/195/32 68/194/36 67/204/36
f 67/204/35 68/194/35 59/195/31
f 72/205/39 65/206/35 64/207/35
f 64/207/36 65/206/36 72/205/40
f 69/198/7 65/184/7 73/208/7
f 73/209/8 65/185/8 69/199/8
f 69/210/38 70/211/34 60/212/34
f 60/212/33 70/211/33 69/210/37
f 74/213/41 71/214/37 66/215/37
f 66/215/38 71/214/38 74/213/42
f 75/216/7 66/202/7 67/192/7
f 67/193/8 66/203/8 75/217/8
f 76/218/40 67/219/36 68/220/36
f 68/220/35 67/219/35 76/218/39
f 65/206/35 72/205/39 77/221/39
f 77/221/40 72/205/40 65/206/36
f 73/208/7 65/184/7 77/222/7
f 77/223/8 65/185/8 73/209/8
f 73/224/42 78/225/38 69/226/38
f 69/226/37 78/225/37 73/224/41
f 70/211/34 69/210/38 78/227/38
f 78/227/37 69/210/37 70/211/33
f 71/214/37 74/213/41 79/228/41
f 79/228/42 74/213/42 71/214/38
f 75/216/7 74/229/7 66/202/7
f 66/203/8 74/230/8 75/217/8
f 67/219/36 76/218/40 75/231/40
f 75/231/39 76/218/39 67/219/35
f 80/232/43 77/233/39 72/234/39
f 72/234/40 77/233/40 80/232/44
f 73/208/7 77/222/7 81/235/7
f 81/236/8 77/223/8 73/209/8
f 78/225/38 73/224/42 82/237/42
f 82/237/41 73/224/41 78/225/37
f 83/238/45 79/239/41 74/240/41
f 74/240/42 79/239/42 83/238/46
f 84/241/7 74/229/7 75/216/7
f 75/217/8 74/230/8 84/242/8
f 85/243/44 75/244/40 76/245/40
f 76/245/39 75/244/39 85/243/43
f 77/233/39 80/232/43 81/246/43
f 81/246/44 80/232/44 77/233/40
f 73/208/7 81/235/7 86/247/7
f 86/248/8 81/236/8 73/209/8
f 86/249/46 82/250/42 73/251/42
f 73/251/41 82/250/41 86/249/45
f 79/239/41 83/238/45 87/252/45
f 87/252/46 83/238/46 79/239/42
f 84/241/7 83/253/7 74/229/7
f 74/230/8 83/254/8 84/242/8
f 75/244/40 85/243/44 84/255/44
f 84/255/43 85/243/43 75/244/39
f 88/256/47 81/257/43 80/258/43
f 80/258/44 81/257/44 88/256/48
f 86/247/7 81/235/7 89/259/7
f 89/260/8 81/236/8 86/248/8
f 82/250/42 86/249/46 90/261/46
f 90/261/45 86/249/45 82/250/41
f 91/262/49 87/263/45 83/264/45
f 83/264/46 87/263/46 91/262/50
f 92/265/7 83/253/7 84/241/7
f 84/242/8 83/254/8 92/266/8
f 93/267/48 84/268/44 85/269/44
f 85/269/43 84/268/43 93/267/47
f 81/257/43 88/256/47 89/270/47
f 89/270/48 88/256/48 81/257/44
f 86/247/7 89/259/7 94/271/7
f 94/272/8 89/260/8 86/248/8
f 94/273/50 90/274/46 86/275/46
f 86/275/45 90/274/45 94/273/49
f 87/263/45 91/262/49 95/276/49
f 95/276/50 91/262/50 87/263/46
f 92/265/7 91/277/7 83/253/7
f 83/254/8 91/278/8 92/266/8
f 84/268/44 93/267/48 92/279/48
f 92/279/47 93/267/47 84/268/43
f 96/280/51 89/281/47 88/282/47
f 88/282/48 89/281/48 96/280/52
f 94/271/7 89/259/7 97/283/7
f 97/284/8 89/260/8 94/272/8
f 90/274/46 94/273/50 98/285/50
f 98/285/49 94/273/49 90/274/45
f 99/286/53 95/287/49 91/288/49
f 91/288/50 95/287/50 99/286/54
f 100/289/7 91/277/7 92/265/7
f 92/266/8 91/278/8 100/290/8
f 101/291/52 92/292/48 93/293/48
f 93/293/47 92/292/47 101/291/51
f 89/281/47 96/280/51 97/294/51
f 97/294/52 96/280/52 89/281/48
f 94/271/7 97/283/7 102/295/7
f 102/296/8 97/284/8 94/272/8
f 102/297/54 98/298/50 94/299/50
f 94/299/49 98/298/49 102/297/53
f 95/287/49 99/286/53 103/300/53
f 103/300/54 99/286/54 95/287/50
f 91/277/7 100/289/7 99/301/7
f 99/302/8 100/290/8 91/278/8
f 92/292/48 101/291/52 100/303/52
f 100/303/51 101/291/51 92/292/47
f 104/304/54 97/305/51 96/306/51
f 96/306/52 97/305/52 104/304/53
f 97/305/51 104/304/54 102/307/54
f 102/307/53 104/304/53 97/305/52
f 98/298/50 102/297/54 104/308/54
f 104/308/53 102/297/53 98/298/49
f 100/309/52 103/310/53 99/311/53
f 99/311/54 103/310/54 100/309/51
f 103/310/53 100/309/52 101/312/52
f 101/312/51 100/309/51 103/310/54
