# SSTK version 0.8.0
# 19
mtllib original-19.mtl
o mesh19/mesh19-geometry#mesh19-geometry
v -0.523322 0.044786 -0.184732
v -0.524698 0.037512 -0.185484
v -0.524698 0.044758 -0.184519
v -0.523322 0.037541 -0.185697
v -0.526027 0.037466 -0.185134
v -0.424910 0.044786 -0.184732
v -0.521921 0.044795 -0.184803
v -0.526027 0.044711 -0.184169
v -0.426310 0.044795 -0.184803
v -0.423534 0.044758 -0.184519
v -0.521921 0.037550 -0.185768
v -0.527285 0.037402 -0.184652
v -0.426310 0.037550 -0.185768
v -0.424910 0.037541 -0.185697
v -0.527285 0.044647 -0.183687
v -0.422205 0.044711 -0.184169
v -0.423534 0.037512 -0.185484
v -0.528452 0.037321 -0.184046
v -0.528452 0.044566 -0.183081
v -0.420946 0.044647 -0.183687
v -0.422205 0.037466 -0.185134
v -0.529507 0.037225 -0.183328
v -0.529507 0.044470 -0.182363
v -0.419780 0.044566 -0.183081
v -0.420946 0.037402 -0.184652
v -0.530432 0.037116 -0.182508
v -0.530432 0.044361 -0.181543
v -0.418725 0.044470 -0.182363
v -0.419780 0.037321 -0.184046
v -0.531211 0.044241 -0.180637
v -0.531211 0.036995 -0.181602
v -0.417800 0.044361 -0.181543
v -0.418725 0.037225 -0.183328
v -0.531832 0.044110 -0.179660
v -0.417020 0.044241 -0.180637
v -0.531832 0.036865 -0.180625
v -0.417800 0.037116 -0.182508
v -0.532283 0.043973 -0.178628
v -0.416399 0.044110 -0.179660
v -0.417020 0.036995 -0.181602
v -0.532283 0.036728 -0.179593
v -0.532557 0.043831 -0.177559
v -0.415948 0.043973 -0.178628
v -0.416399 0.036865 -0.180625
v -0.532557 0.036585 -0.178524
v -0.532649 0.043686 -0.176471
v -0.415675 0.043831 -0.177559
v -0.415948 0.036728 -0.179593
v -0.532649 0.036441 -0.177436
v -0.532649 0.038789 -0.139702
v -0.415583 0.043686 -0.176471
v -0.415675 0.036585 -0.178524
v -0.532649 0.031544 -0.140667
v -0.532557 0.038644 -0.138614
v -0.415583 0.038789 -0.139702
v -0.415583 0.036441 -0.177436
v -0.532557 0.031399 -0.139579
v -0.532283 0.038502 -0.137545
v -0.415675 0.038644 -0.138614
v -0.415583 0.031544 -0.140667
v -0.532283 0.031257 -0.138510
v -0.531832 0.038364 -0.136513
v -0.415948 0.038502 -0.137545
v -0.415675 0.031399 -0.139579
v -0.531832 0.031119 -0.137478
v -0.531211 0.038234 -0.135536
v -0.416399 0.038364 -0.136513
v -0.415948 0.031257 -0.138510
v -0.531211 0.030989 -0.136501
v -0.530432 0.038114 -0.134630
v -0.417020 0.038234 -0.135536
v -0.416399 0.031119 -0.137478
v -0.530432 0.030868 -0.135594
v -0.417800 0.038114 -0.134630
v -0.529507 0.030759 -0.134775
v -0.529507 0.038004 -0.133810
v -0.417020 0.030989 -0.136501
v -0.418725 0.038004 -0.133810
v -0.417800 0.030868 -0.135594
v -0.528452 0.030663 -0.134056
v -0.528452 0.037909 -0.133091
v -0.419780 0.037909 -0.133091
v -0.418725 0.030759 -0.134775
v -0.527285 0.030583 -0.133451
v -0.527285 0.037828 -0.132486
v -0.420946 0.037828 -0.132486
v -0.419780 0.030663 -0.134056
v -0.526027 0.030519 -0.132969
v -0.422205 0.037764 -0.132004
v -0.526027 0.037764 -0.132004
v -0.420946 0.030583 -0.133451
v -0.524698 0.030472 -0.132619
v -0.524698 0.037717 -0.131654
v -0.422205 0.030519 -0.132969
v -0.423534 0.037717 -0.131654
v -0.523322 0.030444 -0.132406
v -0.424910 0.037689 -0.131441
v -0.423534 0.030472 -0.132619
v -0.523322 0.037689 -0.131441
v -0.521921 0.030434 -0.132335
v -0.521921 0.037679 -0.131370
v -0.424910 0.030444 -0.132406
v -0.426310 0.037679 -0.131370
v -0.426310 0.030434 -0.132335
vt -0.912243 8.690023
vt -0.889029 8.317093
vt -0.886229 8.688571
vt -0.915043 8.318544
vt -0.58581 8.32515
vt -0.606809 8.69888
vt -0.61148 8.327541
vt 0.342569 0.739524
vt 0.305492 0.739524
vt 0.304974 0.739304
vt 1.277617 -5.492688
vt 1.303326 -5.481784
vt 3.141768 -5.481784
vt -1.202766 8.659852
vt -1.177508 8.287817
vt -1.176576 8.659365
vt -0.581139 8.696489
vt 0.342041 0.739598
vt 3.115611 -5.478129
vt 0.343087 0.739304
vt 3.167477 -5.492688
vt -1.203699 8.288304
vt 0.30602 0.739598
vt 1.329483 -5.478129
vt -0.26732 8.310173
vt -0.285948 8.684591
vt -0.292495 8.313461
vt 0.304473 0.738942
vt 1.252795 -5.510654
vt -3.262563 8.576853
vt -3.23544 8.205792
vt -3.236373 8.57734
vt -3.504912 8.443502
vt -3.476098 8.073476
vt -3.478898 8.444954
vt -3.115611 8.637294
vt -1.329483 8.265738
vt -1.329483 8.637294
vt -0.260773 8.681302
vt 0.343588 0.738942
vt 3.192299 -5.510654
vt -3.261631 8.205305
vt -3.115611 8.265738
vt -3.502112 8.072024
vt 0.066613 8.270296
vt 0.050476 8.645273
vt 0.042058 8.274423
vt 0.303999 0.738444
vt 1.229285 -5.535375
vt -3.712074 8.296562
vt -3.681733 7.927614
vt -3.686405 8.298953
vt 0.075031 8.641146
vt 0.344062 0.738444
vt 3.215808 -5.535375
vt -3.707403 7.925223
vt 0.415202 8.203999
vt 0.401626 8.579398
vt 0.391357 8.208893
vt 0.30356 0.737817
vt 1.20749 -5.566427
vt -3.880756 8.140329
vt -3.849035 7.772488
vt -3.855582 8.143617
vt 0.425471 8.574504
vt 0.344502 0.737817
vt 3.237603 -5.566427
vt -3.87421 7.769199
vt 0.775913 8.110866
vt 0.764895 8.486543
vt 0.752826 8.11644
vt 0.303162 0.737074
vt 1.187782 -5.603279
vt -4.005529 7.98046
vt -3.972556 7.613738
vt -3.980974 7.984588
vt 0.787981 8.480968
vt 0.344899 0.737074
vt 3.257311 -5.603279
vt -3.997111 7.60961
vt 1.121184 7.998904
vt 1.15728 8.36241
vt 1.13495 8.368567
vt 0.302814 0.736227
vt 1.170499 -5.645301
vt -4.078584 7.824737
vt -4.04447 7.459127
vt -4.054739 7.829631
vt 1.143514 7.992746
vt 0.345248 0.736227
vt 0.30252 0.735289
vt 1.155936 -5.691774
vt 3.274595 -5.645301
vt -4.068315 7.454233
vt 1.487519 7.861845
vt 1.524441 8.22443
vt 1.502812 8.231063
vt 0.345541 0.735289
vt 3.289158 -5.691774
vt -4.089711 7.683749
vt -4.054556 7.319221
vt -4.066624 7.689323
vt 1.509148 7.855211
vt 0.302286 0.734278
vt 1.144342 -5.741902
vt -4.026791 7.571145
vt -3.990695 7.207639
vt -4.004461 7.577303
vt -4.077642 7.313646
vt 1.838847 7.715756
vt 1.87645 8.077572
vt 1.85541 8.084569
vt 0.345775 0.734278
vt 3.300751 -5.741902
vt -4.013025 7.201482
vt 1.859887 7.708759
vt 0.302116 0.733211
vt 1.135916 -5.794828
vt -3.877194 7.502826
vt -3.840271 7.140241
vt -3.855565 7.50946
vt 2.158777 7.576044
vt 2.19687 7.937303
vt 2.176257 7.944543
vt 0.345945 0.733211
vt 3.309177 -5.794828
vt -3.861901 7.133607
vt 2.17939 7.568803
vt 0.302013 0.732106
vt 1.130802 -5.849646
vt -3.63038 7.494339
vt -3.592778 7.132523
vt -3.60934 7.501336
vt 2.429773 7.460746
vt 2.468125 7.82171
vt 2.447737 7.829073
vt 0.346048 0.732106
vt 3.314291 -5.849646
vt -3.613818 7.125526
vt 2.450162 7.453383
vt 0.301978 0.730981
vt 1.129088 -5.905419
vt -3.281572 7.5563
vt -3.243479 7.195041
vt -3.260959 7.56354
vt 2.552187 7.413825
vt 3.257107 7.533205
vt 2.570212 7.78213
vt 0.346083 0.730981
vt 3.316006 -5.905419
vt -3.264092 7.187801
vt 3.239082 7.1649
vt 0.301978 0.692953
vt 1.129088 -7.791069
vt -2.835426 7.689067
vt -2.797074 7.328102
vt -2.815037 7.69643
vt 3.321302 7.138788
vt 3.359654 7.499752
vt 3.339266 7.507115
vt 0.346083 0.692953
vt 3.316006 -7.791069
vt -2.817463 7.320739
vt 3.341691 7.131425
vt 0.302013 0.691828
vt 1.130802 -7.846842
vt -3.257107 7.533205
vt -2.552187 7.413825
vt -2.570212 7.78213
vt 3.436807 7.127135
vt 3.4749 7.488394
vt 3.454287 7.495634
vt 0.346048 0.691828
vt 3.314291 -7.846842
vt -3.239082 7.1649
vt 3.45742 7.119894
vt 0.302116 0.690723
vt 1.135916 -7.90166
vt -2.992354 7.632395
vt -2.954001 7.271431
vt -2.971965 7.639758
vt 3.461495 7.176178
vt 3.499098 7.537994
vt 3.478058 7.544991
vt 0.345945 0.690723
vt 3.309177 -7.90166
vt -2.97439 7.264068
vt 3.482535 7.169181
vt 0.302286 0.689655
vt 1.144342 -7.954586
vt -2.390197 7.869396
vt -2.352104 7.508137
vt -2.369584 7.876637
vt 3.404394 7.273927
vt 3.441317 7.636512
vt 3.419687 7.643146
vt 0.345775 0.689655
vt 3.300751 -7.954586
vt -2.372717 7.500897
vt 3.426024 7.267293
vt 0.30252 0.688645
vt 1.155936 -8.004715
vt -1.745168 8.121227
vt -1.707565 7.759411
vt -1.724128 8.128224
vt 3.279403 7.403777
vt 3.315499 7.767283
vt 3.293169 7.773441
vt 0.345541 0.688645
vt 3.289158 -8.004715
vt -1.728605 7.752414
vt 3.301733 7.39762
vt 0.345248 0.687707
vt 0.302814 0.687707
vt 1.170499 -8.051187
vt 3.274595 -8.051187
vt -1.088564 8.358116
vt -1.051641 7.995531
vt -1.066935 8.36475
vt 3.12463 7.543756
vt 3.113612 7.919433
vt 3.101544 7.54933
vt 0.303162 0.68686
vt 1.187782 -8.093209
vt -0.445988 8.558548
vt -0.409892 8.195042
vt -0.423658 8.564705
vt -1.073271 7.988897
vt 3.136699 7.913858
vt 0.344899 0.68686
vt 3.257311 -8.093209
vt -0.432222 8.188884
vt 2.908115 7.692353
vt 2.89454 8.067751
vt 2.884271 7.697247
vt 0.30356 0.686117
vt 1.20749 -8.130062
vt 0.165031 8.711078
vt 0.200186 8.34655
vt 0.188117 8.716652
vt 2.918385 8.062857
vt 0.344502 0.686117
vt 3.237603 -8.130062
vt 0.177099 8.340975
vt 2.662732 7.833909
vt 2.646596 8.208886
vt 2.638177 7.838036
vt 0.303999 0.68549
vt 1.229285 -8.161114
vt 0.734728 8.812623
vt 0.768843 8.447013
vt 0.758573 8.817517
vt 2.671151 8.204759
vt 0.344062 0.68549
vt 3.215808 -8.161114
vt 0.744998 8.442119
vt 2.39593 7.962295
vt 2.377302 8.336712
vt 2.370755 7.965583
vt 0.343588 0.684992
vt 3.192299 -8.185834
vt 1.259347 8.865444
vt 1.292321 8.498722
vt 1.283902 8.869572
vt 2.402477 8.333424
vt 0.304473 0.684992
vt 1.252795 -8.185834
vt 1.739052 8.874398
vt 1.770774 8.506557
vt 1.764227 8.877686
vt 1.267766 8.494594
vt 2.112399 8.073803
vt 2.091401 8.447533
vt 2.086729 8.076194
vt 0.304974 0.68463
vt 1.277617 -8.2038
vt 1.745599 8.503269
vt 2.11707 8.445142
vt 0.343087 0.68463
vt 3.167477 -8.2038
vt 2.176143 8.845069
vt 2.206484 8.476121
vt 2.201813 8.84746
vt 1.814608 8.166203
vt 1.791394 8.539134
vt 1.788594 8.167655
vt 0.342569 0.68441
vt 3.141768 -8.214704
vt 2.180814 8.47373
vt 1.817408 8.537682
vt 0.305492 0.68441
vt 1.303326 -8.214704
vt 2.573733 8.78275
vt 2.602547 8.412724
vt 2.599747 8.784202
vt 1.503354 8.237987
vt 1.478096 8.610022
vt 1.477163 8.238474
vt 0.30602 0.684336
vt 1.329483 -8.21836
vt 2.576533 8.411272
vt 1.504287 8.609535
vt 0.342041 0.684336
vt 3.115611 -8.21836
vt 2.934852 8.692047
vt 2.961976 8.320986
vt 2.961043 8.692534
vt 3.115611 8.265738
vt 1.329483 8.637294
vt 1.329483 8.265738
vt 3.115611 8.637294
vt 2.935785 8.320499
vn -0.10278503130061642 0.13131103998750054 -0.9859983002611782
vn -0.20581301260049042 0.12918400790903276 -0.9700270593879684
vn 0.20581301260049042 -0.12918400790903276 0.9700270593879684
vn 0.10278503130061642 -0.13131103998750054 0.9859983002611782
vn -0.3092048980188304 0.12554095859440173 -0.9426726890901017
vn 0.3092048980188304 -0.12554095859440173 0.9426726890901017
vn 0 0.9912483778619711 0.13201005032197674
vn 0 -0.9912483778619711 -0.13201005032197674
vn -0.025654002220495083 0.13196701142247114 -0.9909220857697603
vn 0.025654002220495083 -0.13196701142247114 0.9909220857697603
vn -0.4128079821580266 0.12023699480323696 -0.9028469609780524
vn 0.4128079821580266 -0.12023699480323696 0.9028469609780524
vn 0.10278503130061642 0.13131103998750054 -0.9859983002611782
vn 0.025654002220495083 0.13196701142247114 -0.9909220857697603
vn -0.025654002220495083 -0.13196701142247114 0.9909220857697603
vn -0.10278503130061642 -0.13131103998750054 0.9859983002611782
vn 0.20581301260049042 0.12918400790903276 -0.9700270593879684
vn -0.20581301260049042 -0.12918400790903276 0.9700270593879684
vn -0.516020027160973 0.1130770059518649 -0.8490800446917538
vn 0.516020027160973 -0.1130770059518649 0.8490800446917538
vn 0.3092048980188304 0.12554095859440173 -0.9426726890901017
vn -0.3092048980188304 -0.12554095859440173 0.9426726890901017
vn -0.6175641213186308 0.10382902039690156 -0.7796371531573948
vn 0.6175641213186308 -0.10382902039690156 0.7796371531573948
vn 0.4128079821580266 0.12023699480323696 -0.9028469609780524
vn -0.4128079821580266 -0.12023699480323696 0.9028469609780524
vn -0.7152398015746254 0.09225897440505755 -0.6927628078103046
vn 0.7152398015746254 -0.09225897440505755 0.6927628078103046
vn 0.516020027160973 0.1130770059518649 -0.8490800446917538
vn -0.516020027160973 -0.1130770059518649 0.8490800446917538
vn -0.8057251634796379 0.07818801586415454 -0.5871061191223759
vn 0.8057251634796379 -0.07818801586415454 0.5871061191223759
vn 0.6175641213186308 0.10382902039690156 -0.7796371531573948
vn -0.6175641213186308 -0.10382902039690156 0.7796371531573948
vn -0.8845528184022097 0.06157498735871797 -0.4623579050783942
vn 0.8845528184022097 -0.06157498735871797 0.4623579050783942
vn 0.7152398015746254 0.09225897440505755 -0.6927628078103046
vn -0.7152398015746254 -0.09225897440505755 0.6927628078103046
vn 0.8057251634796379 0.07818801586415454 -0.5871061191223759
vn -0.8057251634796379 -0.07818801586415454 0.5871061191223759
vn -0.9464623237895486 0.042615014578812054 -0.319989109469893
vn 0.9464623237895486 -0.042615014578812054 0.319989109469893
vn 0.8845528184022097 0.06157498735871797 -0.4623579050783942
vn -0.8845528184022097 -0.06157498735871797 0.4623579050783942
vn -0.9862492916270549 0.02181700645113704 -0.16381804843985734
vn 0.9862492916270549 -0.02181700645113704 0.16381804843985734
vn 0.9464623237895486 0.042615014578812054 -0.319989109469893
vn -0.9464623237895486 -0.042615014578812054 0.319989109469893
vn -0.9991295884835854 0.005506997731805775 -0.041348982969391136
vn 0.9991295884835854 -0.005506997731805775 0.041348982969391136
vn 0.9862492916270549 0.02181700645113704 -0.16381804843985734
vn -0.9862492916270549 -0.02181700645113704 0.16381804843985734
vn -0.9991295884835854 -0.005506997731805775 0.041348982969391136
vn 0.9991295884835854 0.005506997731805775 -0.041348982969391136
usemtl material_0_0
f 1/1/1 2/2/2 3/3/2
f 2/2/2 1/1/1 4/4/1
f 3/3/3 2/2/3 1/1/4
f 4/4/4 1/1/4 2/2/3
f 5/5/5 3/6/2 2/7/2
f 2/7/3 3/6/3 5/5/6
f 6/8/7 1/9/7 3/10/7
f 3/11/8 1/12/8 6/13/8
f 7/14/9 4/15/1 1/16/1
f 1/16/4 4/15/4 7/14/10
f 3/6/2 5/5/5 8/17/5
f 8/17/6 5/5/6 3/6/3
f 9/18/7 1/9/7 6/8/7
f 6/13/8 1/12/8 9/19/8
f 6/8/7 3/10/7 10/20/7
f 10/21/8 3/11/8 6/13/8
f 4/15/1 7/14/9 11/22/9
f 11/22/10 7/14/10 4/15/4
f 1/9/7 9/18/7 7/23/7
f 7/24/8 9/19/8 1/12/8
f 12/25/11 8/26/5 5/27/5
f 5/27/6 8/26/6 12/25/12
f 10/20/7 3/10/7 8/28/7
f 8/29/8 3/11/8 10/21/8
f 6/30/13 13/31/14 9/32/14
f 9/32/15 13/31/15 6/30/16
f 10/33/17 14/34/13 6/35/13
f 6/35/16 14/34/16 10/33/18
f 9/36/14 11/37/9 7/38/9
f 7/38/10 11/37/10 9/36/15
f 8/26/5 12/25/11 15/39/11
f 15/39/12 12/25/12 8/26/6
f 10/20/7 8/28/7 16/40/7
f 16/41/8 8/29/8 10/21/8
f 13/31/14 6/30/13 14/42/13
f 14/42/16 6/30/16 13/31/15
f 11/37/9 9/36/14 13/43/14
f 13/43/15 9/36/15 11/37/10
f 14/34/13 10/33/17 17/44/17
f 17/44/18 10/33/18 14/34/16
f 18/45/19 15/46/11 12/47/11
f 12/47/12 15/46/12 18/45/20
f 16/40/7 8/28/7 15/48/7
f 15/49/8 8/29/8 16/41/8
f 16/50/21 17/51/17 10/52/17
f 10/52/18 17/51/18 16/50/22
f 15/46/11 18/45/19 19/53/19
f 19/53/20 18/45/20 15/46/12
f 16/40/7 15/48/7 20/54/7
f 20/55/8 15/49/8 16/41/8
f 17/51/17 16/50/21 21/56/21
f 21/56/22 16/50/22 17/51/18
f 22/57/23 19/58/19 18/59/19
f 18/59/20 19/58/20 22/57/24
f 20/54/7 15/48/7 19/60/7
f 19/61/8 15/49/8 20/55/8
f 20/62/25 21/63/21 16/64/21
f 16/64/22 21/63/22 20/62/26
f 19/58/19 22/57/23 23/65/23
f 23/65/24 22/57/24 19/58/20
f 20/54/7 19/60/7 24/66/7
f 24/67/8 19/61/8 20/55/8
f 21/63/21 20/62/25 25/68/25
f 25/68/26 20/62/26 21/63/22
f 26/69/27 23/70/23 22/71/23
f 22/71/24 23/70/24 26/69/28
f 24/66/7 19/60/7 23/72/7
f 23/73/8 19/61/8 24/67/8
f 24/74/29 25/75/25 20/76/25
f 20/76/26 25/75/26 24/74/30
f 23/70/23 26/69/27 27/77/27
f 27/77/28 26/69/28 23/70/24
f 24/66/7 23/72/7 28/78/7
f 28/79/8 23/73/8 24/67/8
f 25/75/25 24/74/29 29/80/29
f 29/80/30 24/74/30 25/75/26
f 26/81/27 30/82/31 27/83/27
f 27/83/28 30/82/32 26/81/28
f 28/78/7 23/72/7 27/84/7
f 27/85/8 23/73/8 28/79/8
f 28/86/33 29/87/29 24/88/29
f 24/88/30 29/87/30 28/86/34
f 30/82/31 26/81/27 31/89/31
f 31/89/32 26/81/28 30/82/32
f 32/90/7 27/84/7 30/91/7
f 30/92/8 27/85/8 32/93/8
f 28/78/7 27/84/7 32/90/7
f 32/93/8 27/85/8 28/79/8
f 29/87/29 28/86/33 33/94/33
f 33/94/34 28/86/34 29/87/30
f 31/95/31 34/96/35 30/97/31
f 30/97/32 34/96/36 31/95/32
f 32/90/7 30/91/7 35/98/7
f 35/99/8 30/92/8 32/93/8
f 32/100/37 33/101/33 28/102/33
f 28/102/34 33/101/34 32/100/38
f 34/96/35 31/95/31 36/103/35
f 36/103/36 31/95/32 34/96/36
f 35/98/7 30/91/7 34/104/7
f 34/105/8 30/92/8 35/99/8
f 35/106/39 37/107/37 32/108/37
f 32/108/38 37/107/38 35/106/40
f 33/101/33 32/100/37 37/109/37
f 37/109/38 32/100/38 33/101/34
f 36/110/35 38/111/41 34/112/35
f 34/112/36 38/111/42 36/110/36
f 35/98/7 34/104/7 39/113/7
f 39/114/8 34/105/8 35/99/8
f 37/107/37 35/106/39 40/115/39
f 40/115/40 35/106/40 37/107/38
f 38/111/41 36/110/35 41/116/41
f 41/116/42 36/110/36 38/111/42
f 39/113/7 34/104/7 38/117/7
f 38/118/8 34/105/8 39/114/8
f 39/119/43 40/120/39 35/121/39
f 35/121/40 40/120/40 39/119/44
f 41/122/41 42/123/45 38/124/41
f 38/124/42 42/123/46 41/122/42
f 39/113/7 38/117/7 43/125/7
f 43/126/8 38/118/8 39/114/8
f 40/120/39 39/119/43 44/127/43
f 44/127/44 39/119/44 40/120/40
f 42/123/45 41/122/41 45/128/45
f 45/128/46 41/122/42 42/123/46
f 43/125/7 38/117/7 42/129/7
f 42/130/8 38/118/8 43/126/8
f 43/131/47 44/132/43 39/133/43
f 39/133/44 44/132/44 43/131/48
f 45/134/45 46/135/49 42/136/45
f 42/136/46 46/135/50 45/134/46
f 43/125/7 42/129/7 47/137/7
f 47/138/8 42/130/8 43/126/8
f 44/132/43 43/131/47 48/139/47
f 48/139/48 43/131/48 44/132/44
f 46/135/49 45/134/45 49/140/49
f 49/140/50 45/134/46 46/135/50
f 47/137/7 42/129/7 46/141/7
f 46/142/8 42/130/8 47/138/8
f 47/143/51 48/144/47 43/145/47
f 43/145/48 48/144/48 47/143/52
f 49/146/49 50/147/53 46/148/49
f 46/148/50 50/147/54 49/146/50
f 47/137/7 46/141/7 51/149/7
f 51/150/8 46/142/8 47/138/8
f 48/144/47 47/143/51 52/151/51
f 52/151/52 47/143/52 48/144/48
f 50/147/53 49/146/49 53/152/53
f 53/152/54 49/146/50 50/147/54
f 51/149/7 46/141/7 50/153/7
f 50/154/8 46/142/8 51/150/8
f 51/155/54 52/156/51 47/157/51
f 47/157/52 52/156/52 51/155/53
f 53/158/53 54/159/52 50/160/53
f 50/160/54 54/159/51 53/158/54
f 51/149/7 50/153/7 55/161/7
f 55/162/8 50/154/8 51/150/8
f 52/156/51 51/155/54 56/163/54
f 56/163/53 51/155/53 52/156/52
f 54/159/52 53/158/53 57/164/52
f 57/164/51 53/158/54 54/159/51
f 55/161/7 50/153/7 54/165/7
f 54/166/8 50/154/8 55/162/8
f 55/167/50 56/168/54 51/169/54
f 51/169/53 56/168/53 55/167/49
f 57/170/52 58/171/48 54/172/52
f 54/172/51 58/171/47 57/170/51
f 55/161/7 54/165/7 59/173/7
f 59/174/8 54/166/8 55/162/8
f 56/168/54 55/167/50 60/175/50
f 60/175/49 55/167/49 56/168/53
f 58/171/48 57/170/52 61/176/48
f 61/176/47 57/170/51 58/171/47
f 59/173/7 54/165/7 58/177/7
f 58/178/8 54/166/8 59/174/8
f 59/179/46 60/180/50 55/181/50
f 55/181/49 60/180/49 59/179/45
f 61/182/48 62/183/44 58/184/48
f 58/184/47 62/183/43 61/182/47
f 59/173/7 58/177/7 63/185/7
f 63/186/8 58/178/8 59/174/8
f 60/180/50 59/179/46 64/187/46
f 64/187/45 59/179/45 60/180/49
f 62/183/44 61/182/48 65/188/44
f 65/188/43 61/182/47 62/183/43
f 63/185/7 58/177/7 62/189/7
f 62/190/8 58/178/8 63/186/8
f 63/191/42 64/192/46 59/193/46
f 59/193/45 64/192/45 63/191/41
f 65/194/44 66/195/40 62/196/44
f 62/196/43 66/195/39 65/194/43
f 63/185/7 62/189/7 67/197/7
f 67/198/8 62/190/8 63/186/8
f 64/192/46 63/191/42 68/199/42
f 68/199/41 63/191/41 64/192/45
f 66/195/40 65/194/44 69/200/40
f 69/200/39 65/194/43 66/195/39
f 67/197/7 62/189/7 66/201/7
f 66/202/8 62/190/8 67/198/8
f 67/203/36 68/204/42 63/205/42
f 63/205/41 68/204/41 67/203/35
f 69/206/40 70/207/38 66/208/40
f 66/208/39 70/207/37 69/206/39
f 67/197/7 66/201/7 71/209/7
f 71/210/8 66/202/8 67/198/8
f 68/204/42 67/203/36 72/211/36
f 72/211/35 67/203/35 68/204/41
f 70/207/38 69/206/40 73/212/38
f 73/212/37 69/206/39 70/207/37
f 74/213/7 66/201/7 70/214/7
f 70/215/8 66/202/8 74/216/8
f 71/209/7 66/201/7 74/213/7
f 74/216/8 66/202/8 71/210/8
f 71/217/32 72/218/36 67/219/36
f 67/219/35 72/218/35 71/217/31
f 75/220/34 70/221/38 73/222/38
f 73/222/37 70/221/37 75/220/33
f 74/213/7 70/214/7 76/223/7
f 76/224/8 70/215/8 74/216/8
f 74/225/28 77/226/32 71/227/32
f 71/227/31 77/226/31 74/225/27
f 72/218/36 71/217/32 77/228/32
f 77/228/31 71/217/31 72/218/35
f 70/221/38 75/220/34 76/229/34
f 76/229/33 75/220/33 70/221/37
f 74/213/7 76/223/7 78/230/7
f 78/231/8 76/224/8 74/216/8
f 77/226/32 74/225/28 79/232/28
f 79/232/27 74/225/27 77/226/31
f 80/233/30 76/234/34 75/235/34
f 75/235/33 76/234/33 80/233/29
f 78/230/7 76/223/7 81/236/7
f 81/237/8 76/224/8 78/231/8
f 78/238/24 79/239/28 74/240/28
f 74/240/27 79/239/27 78/238/23
f 76/234/34 80/233/30 81/241/30
f 81/241/29 80/233/29 76/234/33
f 78/230/7 81/236/7 82/242/7
f 82/243/8 81/237/8 78/231/8
f 79/239/28 78/238/24 83/244/24
f 83/244/23 78/238/23 79/239/27
f 84/245/26 81/246/30 80/247/30
f 80/247/29 81/246/29 84/245/25
f 82/242/7 81/236/7 85/248/7
f 85/249/8 81/237/8 82/243/8
f 82/250/20 83/251/24 78/252/24
f 78/252/23 83/251/23 82/250/19
f 81/246/30 84/245/26 85/253/26
f 85/253/25 84/245/25 81/246/29
f 82/242/7 85/248/7 86/254/7
f 86/255/8 85/249/8 82/243/8
f 83/251/24 82/250/20 87/256/20
f 87/256/19 82/250/19 83/251/23
f 88/257/22 85/258/26 84/259/26
f 84/259/25 85/258/25 88/257/21
f 86/254/7 85/248/7 89/260/7
f 89/261/8 85/249/8 86/255/8
f 86/262/12 87/263/20 82/264/20
f 82/264/19 87/263/19 86/262/11
f 85/258/26 88/257/22 90/265/22
f 90/265/21 88/257/21 85/258/25
f 89/260/7 85/248/7 90/266/7
f 90/267/8 85/249/8 89/261/8
f 89/268/6 91/269/12 86/270/12
f 86/270/11 91/269/11 89/268/5
f 87/263/20 86/262/12 91/271/12
f 91/271/11 86/262/11 87/263/19
f 92/272/18 90/273/22 88/274/22
f 88/274/21 90/273/21 92/272/17
f 89/260/7 90/266/7 93/275/7
f 93/276/8 90/267/8 89/261/8
f 91/269/12 89/268/6 94/277/6
f 94/277/5 89/268/5 91/269/11
f 90/273/22 92/272/18 93/278/18
f 93/278/17 92/272/17 90/273/21
f 89/260/7 93/275/7 95/279/7
f 95/280/8 93/276/8 89/261/8
f 95/281/3 94/282/6 89/283/6
f 89/283/5 94/282/5 95/281/2
f 96/284/16 93/285/18 92/286/18
f 92/286/17 93/285/17 96/284/13
f 95/279/7 93/275/7 97/287/7
f 97/288/8 93/276/8 95/280/8
f 94/282/6 95/281/3 98/289/3
f 98/289/2 95/281/2 94/282/5
f 93/285/18 96/284/16 99/290/16
f 99/290/13 96/284/13 93/285/17
f 97/287/7 93/275/7 99/291/7
f 99/292/8 93/276/8 97/288/8
f 97/293/4 98/294/3 95/295/3
f 95/295/2 98/294/2 97/293/1
f 100/296/15 99/297/16 96/298/16
f 96/298/13 99/297/13 100/296/14
f 97/287/7 99/291/7 101/299/7
f 101/300/8 99/292/8 97/288/8
f 98/294/3 97/293/4 102/301/4
f 102/301/1 97/293/1 98/294/2
f 99/297/16 100/296/15 101/302/15
f 101/302/14 100/296/14 99/297/13
f 97/287/7 101/299/7 103/303/7
f 103/304/8 101/300/8 97/288/8
f 103/305/10 102/306/4 97/307/4
f 97/307/1 102/306/1 103/305/9
f 104/308/10 101/309/15 100/310/15
f 100/310/14 101/309/14 104/308/9
f 101/309/15 104/308/10 103/311/10
f 103/311/9 104/308/9 101/309/14
f 102/306/4 103/305/10 104/312/10
f 104/312/9 103/305/9 102/306/1
