# SSTK version 0.8.0
# 9
mtllib original-9.mtl
o mesh9/mesh9-geometry#mesh9-geometry
v -0.408901 -0.036036 0.366779
v -0.410216 -0.028837 0.368094
v -0.410216 -0.036082 0.367129
v -0.408901 -0.028790 0.367744
v -0.411579 -0.028865 0.368307
v -0.407654 -0.035971 0.366297
v -0.538082 -0.028837 0.368094
v -0.411579 -0.036111 0.367342
v -0.536720 -0.028865 0.368307
v -0.407654 -0.028726 0.367262
v -0.539398 -0.028790 0.367744
v -0.412965 -0.028875 0.368378
v -0.535333 -0.028875 0.368378
v -0.406499 -0.035891 0.365691
v -0.538082 -0.036082 0.367129
v -0.536720 -0.036111 0.367342
v -0.412965 -0.036120 0.367413
v -0.535333 -0.036120 0.367413
v -0.406499 -0.028646 0.366656
v -0.540644 -0.028726 0.367262
v -0.539398 -0.036036 0.366779
v -0.405455 -0.035795 0.364973
v -0.405455 -0.028550 0.365938
v -0.541799 -0.028646 0.366656
v -0.540644 -0.035971 0.366297
v -0.404539 -0.035686 0.364153
v -0.404539 -0.028441 0.365118
v -0.542844 -0.028550 0.365938
v -0.541799 -0.035891 0.365691
v -0.403767 -0.035565 0.363247
v -0.403767 -0.028320 0.364212
v -0.543760 -0.028441 0.365118
v -0.542844 -0.035795 0.364973
v -0.403152 -0.035435 0.362270
v -0.403152 -0.028190 0.363235
v -0.544532 -0.028320 0.364212
v -0.543760 -0.035686 0.364153
v -0.402706 -0.035298 0.361238
v -0.544532 -0.035565 0.363247
v -0.402706 -0.028052 0.362203
v -0.545146 -0.028190 0.363235
v -0.545146 -0.035435 0.362270
v -0.402435 -0.035155 0.360169
v -0.402435 -0.027910 0.361134
v -0.545593 -0.028052 0.362203
v -0.545593 -0.035298 0.361238
v -0.402344 -0.035010 0.359081
v -0.402344 -0.027765 0.360046
v -0.545864 -0.027910 0.361134
v -0.545864 -0.035155 0.360169
v -0.402344 -0.024421 0.279565
v -0.402344 -0.017176 0.280530
v -0.545955 -0.027765 0.360046
v -0.545955 -0.035010 0.359081
v -0.402435 -0.024276 0.278477
v -0.402435 -0.017031 0.279442
v -0.545955 -0.017176 0.280530
v -0.545955 -0.024421 0.279565
v -0.402706 -0.024134 0.277408
v -0.402706 -0.016888 0.278373
v -0.545864 -0.017031 0.279442
v -0.545864 -0.024276 0.278477
v -0.403152 -0.023996 0.276376
v -0.403152 -0.016751 0.277341
v -0.545593 -0.016888 0.278373
v -0.545593 -0.024134 0.277408
v -0.403767 -0.023866 0.275399
v -0.403767 -0.016621 0.276364
v -0.545146 -0.016751 0.277341
v -0.545146 -0.023996 0.276376
v -0.404539 -0.023745 0.274493
v -0.404539 -0.016500 0.275458
v -0.544532 -0.016621 0.276364
v -0.544532 -0.023866 0.275399
v -0.405455 -0.023636 0.273673
v -0.405455 -0.016391 0.274638
v -0.543760 -0.016500 0.275458
v -0.543760 -0.023745 0.274493
v -0.406499 -0.023540 0.272955
v -0.406499 -0.016295 0.273920
v -0.542844 -0.016391 0.274638
v -0.407654 -0.023460 0.272349
v -0.542844 -0.023636 0.273673
v -0.407654 -0.016215 0.273314
v -0.541799 -0.016295 0.273920
v -0.408901 -0.023396 0.271867
v -0.541799 -0.023540 0.272955
v -0.408901 -0.016150 0.272832
v -0.540644 -0.016215 0.273314
v -0.410216 -0.023349 0.271517
v -0.540644 -0.023460 0.272349
v -0.410216 -0.016104 0.272482
v -0.539398 -0.016150 0.272832
v -0.411579 -0.023321 0.271304
v -0.538082 -0.016104 0.272482
v -0.539398 -0.023396 0.271867
v -0.411579 -0.016075 0.272269
v -0.412965 -0.023311 0.271233
v -0.536720 -0.016075 0.272269
v -0.538082 -0.023349 0.271517
v -0.412965 -0.016066 0.272198
v -0.535333 -0.023311 0.271233
v -0.535333 -0.016066 0.272198
v -0.536720 -0.023321 0.271304
vt -0.005826 8.270122
vt -0.035974 8.639066
vt -0.031259 8.267731
vt -0.01054 8.641457
vt 1.349573 8.715197
vt 1.378163 8.345172
vt 1.375336 8.716649
vt -1.432772 8.086652
vt -1.464334 8.454486
vt -1.45773 8.083364
vt 0.3486 0.168142
vt 0.299931 0.16778
vt 0.348105 0.16778
vt 3.416261 -33.832374
vt 1.027581 -33.832374
vt 3.440838 -33.814408
vt 1.3524 8.34372
vt 0.300445 0.16756
vt 0.347591 0.16756
vt 3.390805 -33.843278
vt 1.053037 -33.843278
vt -1.439375 8.457774
vt 0.299436 0.168142
vt 1.003004 -33.814408
vt 2.694118 8.688074
vt 2.720993 8.317012
vt 2.720051 8.68856
vt 0.300967 0.167486
vt 1.078936 -33.846933
vt -2.901267 7.790263
vt -2.934115 8.156974
vt -2.925631 7.786136
vt 0.34907 0.168641
vt 3.464116 -33.789687
vt 4.299665 8.238202
vt 4.320383 7.864476
vt 4.325098 8.235811
vt 3.013509 8.46933
vt 3.036446 8.096401
vt 3.039273 8.467878
vt 2.69506 8.316526
vt 0.347069 0.167486
vt 3.364906 -33.846933
vt 1.717719 8.605255
vt 1.742711 8.233221
vt 1.743652 8.604768
vt -2.90975 8.161102
vt 0.298966 0.168641
vt 0.979726 -33.789687
vt 4.29495 7.866867
vt 3.010682 8.097853
vt 1.716777 8.233707
vt 1.078936 8.637294
vt 3.364906 8.265738
vt 3.364906 8.637294
vt 1.078936 8.265738
vt -4.403994 7.379575
vt -4.438017 7.745171
vt -4.427679 7.374681
vt 0.349505 0.169267
vt 3.485697 -33.758635
vt 5.574287 7.912998
vt 5.592643 7.538588
vt 5.599246 7.90971
vt -4.414333 7.750065
vt 0.298531 0.169267
vt 0.958145 -33.758635
vt 5.567684 7.541876
vt -5.924385 6.860235
vt -5.959479 7.224748
vt -5.947345 6.854661
vt 0.349899 0.17001
vt 3.505211 -33.721783
vt 6.830599 7.496908
vt 6.84648 7.121942
vt 6.854963 7.492781
vt -5.93652 7.230322
vt 0.298137 0.17001
vt 0.938631 -33.721783
vt 6.822115 7.126069
vt -7.432971 6.250275
vt -7.469031 6.613765
vt -7.455208 6.244117
vt 0.350244 0.170858
vt 3.522324 -33.679761
vt 8.054621 6.997905
vt 8.067967 6.622521
vt 8.078305 6.993012
vt -7.446794 6.619922
vt 0.297792 0.170858
vt 0.921518 -33.679761
vt 8.044282 6.627415
vt -8.884494 5.585828
vt -8.921397 5.9484
vt -8.906062 5.579194
vt 0.350535 0.171795
vt 3.536743 -33.633288
vt 9.222622 6.432515
vt 9.233447 6.056854
vt 9.245582 6.42694
vt -8.899829 5.955034
vt 0.297501 0.171795
vt 0.907099 -33.633288
vt 9.210488 6.062428
vt -10.217746 4.924442
vt -10.255341 5.286251
vt -10.238753 4.917446
vt 0.350766 0.172806
vt 3.548223 -33.58316
vt 10.285088 5.46054
vt 10.321148 5.824031
vt 10.298911 5.830188
vt 10.307325 5.454383
vt -10.234334 5.293247
vt 0.29727 0.172806
vt 0.895619 -33.58316
vt 11.256738 5.230137
vt 11.219834 4.867564
vt 11.241402 4.860931
vt -11.360562 4.341621
vt -11.398653 4.702877
vt -11.381162 4.334381
vt 0.350934 0.173873
vt 3.556566 -33.530234
vt 11.235169 5.23677
vt -11.378052 4.710117
vt 0.297102 0.173873
vt 0.887276 -33.530234
vt 11.994158 4.707145
vt 11.956563 4.345337
vt 11.97757 4.33834
vt -12.241203 3.917251
vt -12.279555 4.278215
vt -12.26159 3.909888
vt 0.351036 0.174979
vt 3.561629 -33.475415
vt 11.973151 4.714141
vt -12.259167 4.285578
vt 0.297 0.174979
vt 0.882213 -33.475415
vt 12.472994 4.32529
vt 12.434903 3.964034
vt 12.455503 3.956794
vt -11.089473 4.319986
vt -12.592951 4.149976
vt -12.574926 3.781671
vt 0.351071 0.176103
vt 3.563327 -33.419643
vt 12.452393 4.33253
vt -11.107498 4.688291
vt 0.296965 0.176103
vt 0.880515 -33.419643
vt 12.643159 4.146898
vt 12.604807 3.785934
vt 12.625194 3.778571
vt -11.323461 4.248698
vt -11.361813 4.609662
vt -11.343848 4.241335
vt 0.351071 0.258341
vt 3.563327 -29.341808
vt 12.622772 4.154261
vt -11.341425 4.617025
vt 0.296965 0.258341
vt 0.880515 -29.341808
vt 12.592951 4.149976
vt 11.089473 4.319986
vt 12.574926 3.781671
vt -11.58126 4.264055
vt -11.619351 4.62531
vt -11.601861 4.256814
vt 0.351036 0.259466
vt 3.561629 -29.286035
vt 11.107498 4.688291
vt -11.598751 4.632551
vt 0.297 0.259466
vt 0.882213 -29.286035
vt 10.998209 4.740979
vt 10.959857 4.380016
vt 10.980244 4.372653
vt -11.538852 4.484453
vt -11.576447 4.846262
vt -11.559859 4.477457
vt 0.350934 0.260571
vt 3.556566 -29.231217
vt 10.977821 4.748342
vt -11.55544 4.853258
vt 0.297102 0.260571
vt 0.887276 -29.231217
vt 10.54501 5.002897
vt 10.506919 4.641642
vt 10.52752 4.634402
vt -11.227123 4.865322
vt -11.264027 5.227895
vt -11.248692 4.858689
vt 0.350766 0.261638
vt 3.548223 -29.178291
vt 10.52441 5.010138
vt -11.242459 5.234528
vt 0.29727 0.261638
vt 0.895619 -29.178291
vt 9.83763 5.425367
vt 9.800035 5.063559
vt 9.821042 5.056563
vt -10.692094 5.347843
vt -10.728154 5.711333
vt -10.714331 5.341685
vt 0.350535 0.262649
vt 3.536743 -29.128163
vt 9.816623 5.432364
vt -10.705917 5.717491
vt 0.297501 0.262649
vt 0.907099 -29.128163
vt 8.928687 5.946158
vt 8.891783 5.583586
vt 8.913351 5.576952
vt -9.983194 5.874829
vt -10.018288 6.239341
vt -10.006154 5.869254
vt 0.350244 0.263587
vt 3.522324 -29.08169
vt 8.907118 5.952792
vt -9.995328 6.244915
vt 0.297792 0.263587
vt 0.921518 -29.08169
vt 7.876037 6.501068
vt 7.839977 6.137577
vt 7.862214 6.13142
vt -9.144857 6.400013
vt -9.17888 6.76561
vt -9.168542 6.39512
vt 0.349899 0.264434
vt 3.505211 -29.039668
vt 7.8538 6.507225
vt -9.155195 6.770504
vt 0.298137 0.264434
vt 0.938631 -29.039668
vt 6.709226 7.042723
vt 6.720051 6.667062
vt 6.732186 7.037149
vt -8.212439 6.890548
vt -8.245288 7.257259
vt -8.236804 6.88642
vt 0.349505 0.265177
vt 3.485697 -29.002816
vt 6.697092 6.672636
vt -8.220923 7.261387
vt 0.298531 0.265177
vt 0.958145 -29.002816
vt 5.514907 7.522663
vt 5.528254 7.147279
vt 5.538592 7.517769
vt -7.211462 7.325307
vt -7.243024 7.693141
vt -7.236421 7.322019
vt 0.34907 0.265803
vt 3.464116 -28.971763
vt 5.504569 7.152173
vt -7.218066 7.696429
vt 0.298966 0.265803
vt 0.979726 -28.971763
vt 4.300075 7.92558
vt 4.315955 7.550614
vt 4.324439 7.921453
vt -6.158692 7.691642
vt -6.188841 8.060586
vt -6.184126 7.689251
vt 0.3486 0.266302
vt 3.440838 -28.947043
vt 4.291591 7.554741
vt -6.163407 8.062977
vt 0.299436 0.266302
vt 1.003004 -28.947043
vt 3.083153 8.241206
vt 3.101509 7.866795
vt 3.108112 8.237917
vt -5.063899 7.98215
vt -5.09249 8.352176
vt -5.089663 7.980699
vt 0.348105 0.266664
vt 0.299931 0.266664
vt 1.027581 -28.929077
vt 3.416261 -28.929077
vt 3.07655 7.870084
vt -5.066726 8.353627
vt 0.347591 0.266884
vt 3.390805 -28.918173
vt 1.874283 8.466232
vt 1.895001 8.092506
vt 1.899716 8.463841
vt -3.931666 8.19213
vt -3.958542 8.563191
vt -3.9576 8.191643
vt 0.300445 0.266884
vt 1.053037 -28.918173
vt 1.869568 8.094897
vt -3.932608 8.563678
vt 0.347069 0.266958
vt 3.364906 -28.914517
vt 0.677881 8.600947
vt 0.700817 8.228018
vt 0.703644 8.599495
vt -1.078936 8.265738
vt -3.364906 8.637294
vt -3.364906 8.265738
vt 0.300967 0.266958
vt 1.078936 -28.914517
vt 0.675054 8.229469
vt -1.078936 8.637294
vt -0.505162 8.646983
vt -0.480171 8.274948
vt -0.479229 8.646496
vt -0.506104 8.275435
vn 0.311967017398869 -0.12542200699497366 0.9417780525243762
vn 0.20776196338756678 -0.12912897724450625 0.9696188291308762
vn -0.20776196338756678 0.12912897724450625 -0.9696188291308762
vn -0.311967017398869 0.12542200699497366 -0.9417780525243762
vn 0.10379097794883065 -0.1312969721049765 0.9858947905392799
vn -0.10379097794883065 0.1312969721049765 -0.9858947905392799
vn 0.4161851117321915 -0.12003403222524088 0.9013222419757615
vn -0.4161851117321915 0.12003403222524088 -0.9013222419757615
vn 0 0.9912483778619711 0.13201005032197674
vn 0 -0.9912483778619711 -0.13201005032197674
vn 0.02590898937092997 -0.1319659458614437 0.9909155934804293
vn -0.02590898937092997 0.1319659458614437 -0.9909155934804293
vn 0.5197460603703276 -0.11277901309967785 0.8468440983639116
vn -0.5197460603703276 0.11277901309967785 -0.8468440983639116
vn -0.311967017398869 -0.12542200699497366 0.9417780525243762
vn -0.20776196338756678 -0.12912897724450625 0.9696188291308762
vn 0.20776196338756678 0.12912897724450625 -0.9696188291308762
vn 0.311967017398869 0.12542200699497366 -0.9417780525243762
vn -0.10379097794883065 -0.1312969721049765 0.9858947905392799
vn 0.10379097794883065 0.1312969721049765 -0.9858947905392799
vn -0.02590898937092997 -0.1319659458614437 0.9909155934804293
vn 0.02590898937092997 0.1319659458614437 -0.9909155934804293
vn 0.6213130245921914 -0.10343800409417973 0.7767050307427625
vn -0.6213130245921914 0.10343800409417973 -0.7767050307427625
vn -0.4161851117321915 -0.12003403222524088 0.9013222419757615
vn 0.4161851117321915 0.12003403222524088 -0.9013222419757615
vn 0.7186580703303975 -0.0917950089833813 0.6892780674551674
vn -0.7186580703303975 0.0917950089833813 -0.6892780674551674
vn -0.5197460603703276 -0.11277901309967785 0.8468440983639116
vn 0.5197460603703276 0.11277901309967785 -0.8468440983639116
vn 0.8084816930009644 -0.07769097049895721 0.5833707784807399
vn -0.8084816930009644 0.07769097049895721 -0.5833707784807399
vn -0.6213130245921914 -0.10343800409417973 0.7767050307427625
vn 0.6213130245921914 0.10343800409417973 -0.7767050307427625
vn 0.8864237032395765 -0.06110397954336873 0.45882384639314305
vn -0.8864237032395765 0.06110397954336873 -0.45882384639314305
vn -0.7186580703303975 -0.0917950089833813 0.6892780674551674
vn 0.7186580703303975 0.0917950089833813 -0.6892780674551674
vn 0.9474183436372223 -0.04224301532192463 0.31719711505026926
vn -0.9474183436372223 0.04224301532192463 -0.31719711505026926
vn -0.8084816930009644 -0.07769097049895721 0.5833707784807399
vn 0.8084816930009644 0.07769097049895721 -0.5833707784807399
vn -0.8864237032395765 -0.06110397954336873 0.45882384639314305
vn 0.8864237032395765 0.06110397954336873 -0.45882384639314305
vn 0.9865100611517874 -0.021610001339560803 0.1622680100586697
vn -0.9865100611517874 0.021610001339560803 -0.1622680100586697
vn -0.9474183436372223 -0.04224301532192463 0.31719711505026926
vn 0.9474183436372223 0.04224301532192463 -0.31719711505026926
vn 0.9991465633960275 -0.005452997617165981 0.04094398210842543
vn -0.9991465633960275 0.005452997617165981 -0.04094398210842543
vn -0.9865100611517874 -0.021610001339560803 0.1622680100586697
vn 0.9865100611517874 0.021610001339560803 -0.1622680100586697
vn 0.9991465633960275 0.005452997617165981 -0.04094398210842543
vn -0.9991465633960275 -0.005452997617165981 0.04094398210842543
usemtl material_0_0
f 1/1/1 2/2/2 3/3/2
f 2/2/2 1/1/1 4/4/1
f 3/3/3 2/2/3 1/1/4
f 4/4/4 1/1/4 2/2/3
f 5/5/5 3/6/2 2/7/2
f 2/7/3 3/6/3 5/5/6
f 6/8/7 4/9/1 1/10/1
f 1/10/4 4/9/4 6/8/8
f 4/11/9 7/12/9 2/13/9
f 2/14/10 7/15/10 4/16/10
f 3/6/2 5/5/5 8/17/5
f 8/17/6 5/5/6 3/6/3
f 2/13/9 9/18/9 5/19/9
f 5/20/10 9/21/10 2/14/10
f 4/9/1 6/8/7 10/22/7
f 10/22/8 6/8/8 4/9/4
f 4/11/9 11/23/9 7/12/9
f 7/15/10 11/24/10 4/16/10
f 2/13/9 7/12/9 9/18/9
f 9/21/10 7/15/10 2/14/10
f 12/25/11 8/26/5 5/27/5
f 5/27/6 8/26/6 12/25/12
f 5/19/9 9/18/9 13/28/9
f 13/29/10 9/21/10 5/20/10
f 14/30/13 10/31/7 6/32/7
f 6/32/8 10/31/8 14/30/14
f 10/33/9 11/23/9 4/11/9
f 4/16/10 11/24/10 10/34/10
f 11/35/15 15/36/16 7/37/16
f 7/37/17 15/36/17 11/35/18
f 7/38/16 16/39/19 9/40/19
f 9/40/20 16/39/20 7/38/17
f 8/26/5 12/25/11 17/41/11
f 17/41/12 12/25/12 8/26/6
f 5/19/9 13/28/9 12/42/9
f 12/43/10 13/29/10 5/20/10
f 9/44/19 18/45/21 13/46/21
f 13/46/22 18/45/22 9/44/20
f 10/31/7 14/30/13 19/47/13
f 19/47/14 14/30/14 10/31/8
f 10/33/9 20/48/9 11/23/9
f 11/24/10 20/49/10 10/34/10
f 15/36/16 11/35/15 21/50/15
f 21/50/18 11/35/18 15/36/17
f 16/39/19 7/38/16 15/51/16
f 15/51/17 7/38/17 16/39/20
f 18/45/21 9/44/19 16/52/19
f 16/52/20 9/44/20 18/45/22
f 13/53/21 17/54/11 12/55/11
f 12/55/12 17/54/12 13/53/22
f 17/54/11 13/53/21 18/56/21
f 18/56/22 13/53/22 17/54/12
f 22/57/23 19/58/13 14/59/13
f 14/59/14 19/58/14 22/57/24
f 19/60/9 20/48/9 10/33/9
f 10/34/10 20/49/10 19/61/10
f 20/62/25 21/63/15 11/64/15
f 11/64/18 21/63/18 20/62/26
f 19/58/13 22/57/23 23/65/23
f 23/65/24 22/57/24 19/58/14
f 19/60/9 24/66/9 20/48/9
f 20/49/10 24/67/10 19/61/10
f 21/63/15 20/62/25 25/68/25
f 25/68/26 20/62/26 21/63/18
f 26/69/27 23/70/23 22/71/23
f 22/71/24 23/70/24 26/69/28
f 23/72/9 24/66/9 19/60/9
f 19/61/10 24/67/10 23/73/10
f 24/74/29 25/75/25 20/76/25
f 20/76/26 25/75/26 24/74/30
f 23/70/23 26/69/27 27/77/27
f 27/77/28 26/69/28 23/70/24
f 23/72/9 28/78/9 24/66/9
f 24/67/10 28/79/10 23/73/10
f 25/75/25 24/74/29 29/80/29
f 29/80/30 24/74/30 25/75/26
f 30/81/31 27/82/27 26/83/27
f 26/83/28 27/82/28 30/81/32
f 27/84/9 28/78/9 23/72/9
f 23/73/10 28/79/10 27/85/10
f 28/86/33 29/87/29 24/88/29
f 24/88/30 29/87/30 28/86/34
f 27/82/27 30/81/31 31/89/31
f 31/89/32 30/81/32 27/82/28
f 27/84/9 32/90/9 28/78/9
f 28/79/10 32/91/10 27/85/10
f 29/87/29 28/86/33 33/92/33
f 33/92/34 28/86/34 29/87/30
f 34/93/35 31/94/31 30/95/31
f 30/95/32 31/94/32 34/93/36
f 31/96/9 32/90/9 27/84/9
f 27/85/10 32/91/10 31/97/10
f 32/98/37 33/99/33 28/100/33
f 28/100/34 33/99/34 32/98/38
f 31/94/31 34/93/35 35/101/35
f 35/101/36 34/93/36 31/94/32
f 31/96/9 36/102/9 32/90/9
f 32/91/10 36/103/10 31/97/10
f 33/99/33 32/98/37 37/104/37
f 37/104/38 32/98/38 33/99/34
f 38/105/39 35/106/35 34/107/35
f 34/107/36 35/106/36 38/105/40
f 35/108/9 36/102/9 31/96/9
f 31/97/10 36/103/10 35/109/10
f 39/110/41 32/111/37 36/112/41
f 36/112/42 32/111/38 39/110/42
f 32/111/37 39/110/41 37/113/37
f 37/113/38 39/110/42 32/111/38
f 35/106/35 38/105/39 40/114/39
f 40/114/40 38/105/40 35/106/36
f 35/108/9 41/115/9 36/102/9
f 36/103/10 41/116/10 35/109/10
f 36/117/41 42/118/43 39/119/41
f 39/119/42 42/118/44 36/117/42
f 43/120/45 40/121/39 38/122/39
f 38/122/40 40/121/40 43/120/46
f 40/123/9 41/115/9 35/108/9
f 35/109/10 41/116/10 40/124/10
f 42/118/43 36/117/41 41/125/43
f 41/125/44 36/117/42 42/118/44
f 40/121/39 43/120/45 44/126/45
f 44/126/46 43/120/46 40/121/40
f 40/123/9 45/127/9 41/115/9
f 41/116/10 45/128/10 40/124/10
f 41/129/43 46/130/47 42/131/43
f 42/131/44 46/130/48 41/129/44
f 47/132/49 44/133/45 43/134/45
f 43/134/46 44/133/46 47/132/50
f 44/135/9 45/127/9 40/123/9
f 40/124/10 45/128/10 44/136/10
f 46/130/47 41/129/43 45/137/47
f 45/137/48 41/129/44 46/130/48
f 44/133/45 47/132/49 48/138/49
f 48/138/50 47/132/50 44/133/46
f 44/135/9 49/139/9 45/127/9
f 45/128/10 49/140/10 44/136/10
f 45/141/47 50/142/51 46/143/47
f 46/143/48 50/142/52 45/141/48
f 51/144/53 48/145/49 47/146/49
f 47/146/50 48/145/50 51/144/54
f 48/147/9 49/139/9 44/135/9
f 44/136/10 49/140/10 48/148/10
f 50/142/51 45/141/47 49/149/51
f 49/149/52 45/141/48 50/142/52
f 48/145/49 51/144/53 52/150/53
f 52/150/54 51/144/54 48/145/50
f 48/147/9 53/151/9 49/139/9
f 49/140/10 53/152/10 48/148/10
f 49/153/51 54/154/54 50/155/51
f 50/155/52 54/154/53 49/153/52
f 55/156/52 52/157/53 51/158/53
f 51/158/54 52/157/54 55/156/51
f 52/159/9 53/151/9 48/147/9
f 48/148/10 53/152/10 52/160/10
f 54/154/54 49/153/51 53/161/54
f 53/161/53 49/153/52 54/154/53
f 52/157/53 55/156/52 56/162/52
f 56/162/51 55/156/51 52/157/54
f 52/159/9 57/163/9 53/151/9
f 53/152/10 57/164/10 52/160/10
f 53/165/54 58/166/50 54/167/54
f 54/167/53 58/166/49 53/165/53
f 59/168/48 56/169/52 55/170/52
f 55/170/51 56/169/51 59/168/47
f 56/171/9 57/163/9 52/159/9
f 52/160/10 57/164/10 56/172/10
f 58/166/50 53/165/54 57/173/50
f 57/173/49 53/165/53 58/166/49
f 56/169/52 59/168/48 60/174/48
f 60/174/47 59/168/47 56/169/51
f 56/171/9 61/175/9 57/163/9
f 57/164/10 61/176/10 56/172/10
f 57/177/50 62/178/46 58/179/50
f 58/179/49 62/178/45 57/177/49
f 63/180/44 60/181/48 59/182/48
f 59/182/47 60/181/47 63/180/43
f 60/183/9 61/175/9 56/171/9
f 56/172/10 61/176/10 60/184/10
f 62/178/46 57/177/50 61/185/46
f 61/185/45 57/177/49 62/178/45
f 60/181/48 63/180/44 64/186/44
f 64/186/43 63/180/43 60/181/47
f 60/183/9 65/187/9 61/175/9
f 61/176/10 65/188/10 60/184/10
f 61/189/46 66/190/40 62/191/46
f 62/191/45 66/190/39 61/189/45
f 67/192/42 64/193/44 63/194/44
f 63/194/43 64/193/43 67/192/41
f 64/195/9 65/187/9 60/183/9
f 60/184/10 65/188/10 64/196/10
f 66/190/40 61/189/46 65/197/40
f 65/197/39 61/189/45 66/190/39
f 64/193/44 67/192/42 68/198/42
f 68/198/41 67/192/41 64/193/43
f 64/195/9 69/199/9 65/187/9
f 65/188/10 69/200/10 64/196/10
f 65/201/40 70/202/36 66/203/40
f 66/203/39 70/202/35 65/201/39
f 71/204/38 68/205/42 67/206/42
f 67/206/41 68/205/41 71/204/37
f 68/207/9 69/199/9 64/195/9
f 64/196/10 69/200/10 68/208/10
f 70/202/36 65/201/40 69/209/36
f 69/209/35 65/201/39 70/202/35
f 68/205/42 71/204/38 72/210/38
f 72/210/37 71/204/37 68/205/41
f 68/207/9 73/211/9 69/199/9
f 69/200/10 73/212/10 68/208/10
f 69/213/36 74/214/32 70/215/36
f 70/215/35 74/214/31 69/213/35
f 75/216/34 72/217/38 71/218/38
f 71/218/37 72/217/37 75/216/33
f 72/219/9 73/211/9 68/207/9
f 68/208/10 73/212/10 72/220/10
f 74/214/32 69/213/36 73/221/32
f 73/221/31 69/213/35 74/214/31
f 72/217/38 75/216/34 76/222/34
f 76/222/33 75/216/33 72/217/37
f 72/219/9 77/223/9 73/211/9
f 73/212/10 77/224/10 72/220/10
f 73/225/32 78/226/28 74/227/32
f 74/227/31 78/226/27 73/225/31
f 79/228/30 76/229/34 75/230/34
f 75/230/33 76/229/33 79/228/29
f 76/231/9 77/223/9 72/219/9
f 72/220/10 77/224/10 76/232/10
f 78/226/28 73/225/32 77/233/28
f 77/233/27 73/225/31 78/226/27
f 76/229/34 79/228/30 80/234/30
f 80/234/29 79/228/29 76/229/33
f 76/231/9 81/235/9 77/223/9
f 77/224/10 81/236/10 76/232/10
f 81/237/24 78/238/28 77/239/28
f 77/239/27 78/238/27 81/237/23
f 82/240/26 80/241/30 79/242/30
f 79/242/29 80/241/29 82/240/25
f 80/243/9 81/235/9 76/231/9
f 76/232/10 81/236/10 80/244/10
f 78/238/28 81/237/24 83/245/24
f 83/245/23 81/237/23 78/238/27
f 80/241/30 82/240/26 84/246/26
f 84/246/25 82/240/25 80/241/29
f 80/243/9 85/247/9 81/235/9
f 81/236/10 85/248/10 80/244/10
f 85/249/14 83/250/24 81/251/24
f 81/251/23 83/250/23 85/249/13
f 86/252/18 84/253/26 82/254/26
f 82/254/25 84/253/25 86/252/15
f 84/255/9 85/247/9 80/243/9
f 80/244/10 85/248/10 84/256/10
f 83/250/24 85/249/14 87/257/14
f 87/257/13 85/249/13 83/250/23
f 84/253/26 86/252/18 88/258/18
f 88/258/15 86/252/15 84/253/25
f 84/255/9 89/259/9 85/247/9
f 85/248/10 89/260/10 84/256/10
f 89/261/8 87/262/14 85/263/14
f 85/263/13 87/262/13 89/261/7
f 90/264/17 88/265/18 86/266/18
f 86/266/15 88/265/15 90/264/16
f 88/267/9 89/259/9 84/255/9
f 84/256/10 89/260/10 88/268/10
f 87/262/14 89/261/8 91/269/8
f 91/269/7 89/261/7 87/262/13
f 88/265/18 90/264/17 92/270/17
f 92/270/16 90/264/16 88/265/15
f 88/267/9 93/271/9 89/259/9
f 89/260/10 93/272/10 88/268/10
f 93/273/4 91/274/8 89/275/8
f 89/275/7 91/274/7 93/273/1
f 94/276/20 92/277/17 90/278/17
f 90/278/16 92/277/16 94/276/19
f 92/279/9 95/280/9 88/267/9
f 88/268/10 95/281/10 92/282/10
f 88/267/9 95/280/9 93/271/9
f 93/272/10 95/281/10 88/268/10
f 91/274/8 93/273/4 96/283/4
f 96/283/1 93/273/1 91/274/7
f 92/277/17 94/276/20 97/284/20
f 97/284/19 94/276/19 92/277/16
f 97/285/9 95/280/9 92/279/9
f 92/282/10 95/281/10 97/286/10
f 95/287/3 96/288/4 93/289/4
f 93/289/1 96/288/1 95/287/2
f 98/290/22 97/291/20 94/292/20
f 94/292/19 97/291/19 98/290/21
f 97/285/9 99/293/9 95/280/9
f 95/281/10 99/294/10 97/286/10
f 96/288/4 95/287/3 100/295/3
f 100/295/2 95/287/2 96/288/1
f 97/291/20 98/290/22 101/296/22
f 101/296/21 98/290/21 97/291/19
f 101/297/9 99/293/9 97/285/9
f 97/286/10 99/294/10 101/298/10
f 99/299/6 100/300/3 95/301/3
f 95/301/2 100/300/2 99/299/5
f 102/302/12 101/303/22 98/304/22
f 98/304/21 101/303/21 102/302/11
f 99/293/9 101/297/9 103/305/9
f 103/306/10 101/298/10 99/294/10
f 100/300/3 99/299/6 104/307/6
f 104/307/5 99/299/5 100/300/2
f 101/303/22 102/302/12 103/308/12
f 103/308/11 102/302/11 101/303/21
f 103/309/12 104/310/6 99/311/6
f 99/311/5 104/310/5 103/309/11
f 104/310/6 103/309/12 102/312/12
f 102/312/11 103/309/11 104/310/5
