# SSTK version 0.8.0
# 59
mtllib original-59.mtl
o mesh59/mesh59-geometry#mesh59-geometry
v -0.821326 -0.035298 0.361238
v -0.821773 -0.028190 0.363235
v -0.821773 -0.035435 0.362270
v -0.821326 -0.028052 0.362203
v -0.822388 -0.028320 0.364212
v -0.821055 -0.035155 0.360169
v -0.932709 -0.028190 0.363235
v -0.822388 -0.035565 0.363247
v -0.932094 -0.028320 0.364212
v -0.821055 -0.027910 0.361134
v -0.933155 -0.028052 0.362203
v -0.823159 -0.028441 0.365118
v -0.931322 -0.028441 0.365118
v -0.820964 -0.035010 0.359081
v -0.933155 -0.035298 0.361238
v -0.932709 -0.035435 0.362270
v -0.823159 -0.035686 0.364153
v -0.932094 -0.035565 0.363247
v -0.820964 -0.027765 0.360046
v -0.933426 -0.027910 0.361134
v -0.933426 -0.035155 0.360169
v -0.824075 -0.028550 0.365938
v -0.930406 -0.028550 0.365938
v -0.931322 -0.035686 0.364153
v -0.820964 -0.024421 0.279565
v -0.824075 -0.035795 0.364973
v -0.930406 -0.035795 0.364973
v -0.820964 -0.017176 0.280530
v -0.933517 -0.027765 0.360046
v -0.933517 -0.035010 0.359081
v -0.825120 -0.028646 0.366656
v -0.929362 -0.028646 0.366656
v -0.929362 -0.035891 0.365691
v -0.821055 -0.024276 0.278477
v -0.825120 -0.035891 0.365691
v -0.821055 -0.017031 0.279442
v -0.933517 -0.017176 0.280530
v -0.933517 -0.024421 0.279565
v -0.826275 -0.028726 0.367262
v -0.928206 -0.028726 0.367262
v -0.928206 -0.035971 0.366297
v -0.821326 -0.024134 0.277408
v -0.826275 -0.035971 0.366297
v -0.821326 -0.016888 0.278373
v -0.933426 -0.017031 0.279442
v -0.933426 -0.024276 0.278477
v -0.827521 -0.028790 0.367744
v -0.926960 -0.028790 0.367744
v -0.926960 -0.036036 0.366779
v -0.821773 -0.023996 0.276376
v -0.827521 -0.036036 0.366779
v -0.821773 -0.016751 0.277341
v -0.933155 -0.016888 0.278373
v -0.933155 -0.024134 0.277408
v -0.828837 -0.028837 0.368094
v -0.925645 -0.028837 0.368094
v -0.925645 -0.036082 0.367129
v -0.822388 -0.023866 0.275399
v -0.828837 -0.036082 0.367129
v -0.822388 -0.016621 0.276364
v -0.932709 -0.016751 0.277341
v -0.932709 -0.023996 0.276376
v -0.830200 -0.028865 0.368307
v -0.924282 -0.028865 0.368307
v -0.924282 -0.036111 0.367342
v -0.823159 -0.023745 0.274493
v -0.830200 -0.036111 0.367342
v -0.823159 -0.016500 0.275458
v -0.932094 -0.016621 0.276364
v -0.932094 -0.023866 0.275399
v -0.831586 -0.028875 0.368378
v -0.922896 -0.028875 0.368378
v -0.922896 -0.036120 0.367413
v -0.824075 -0.023636 0.273673
v -0.831586 -0.036120 0.367413
v -0.824075 -0.016391 0.274638
v -0.931322 -0.016500 0.275458
v -0.931322 -0.023745 0.274493
v -0.825120 -0.023540 0.272955
v -0.825120 -0.016295 0.273920
v -0.930406 -0.016391 0.274638
v -0.826275 -0.023460 0.272349
v -0.930406 -0.023636 0.273673
v -0.826275 -0.016215 0.273314
v -0.929362 -0.016295 0.273920
v -0.827521 -0.023396 0.271867
v -0.929362 -0.023540 0.272955
v -0.827521 -0.016150 0.272832
v -0.928206 -0.016215 0.273314
v -0.828837 -0.023349 0.271517
v -0.928206 -0.023460 0.272349
v -0.828837 -0.016104 0.272482
v -0.926960 -0.016150 0.272832
v -0.830200 -0.023321 0.271304
v -0.925645 -0.016104 0.272482
v -0.926960 -0.023396 0.271867
v -0.830200 -0.016075 0.272269
v -0.831586 -0.023311 0.271233
v -0.924282 -0.016075 0.272269
v -0.925645 -0.023349 0.271517
v -0.831586 -0.016066 0.272198
v -0.922896 -0.023311 0.271233
v -0.922896 -0.016066 0.272198
v -0.924282 -0.023321 0.271304
vt -13.277727 3.905329
vt -13.315322 4.267137
vt -13.298734 3.898333
vt -13.294315 4.274134
vt -13.031143 4.684395
vt -12.994239 4.321823
vt -13.009575 4.691029
vt -13.251193 3.677141
vt -13.289285 4.038397
vt -13.271794 3.669901
vt 0.193219 0.173873
vt 0.151256 0.172806
vt 0.193051 0.172806
vt -4.272076 -33.58316
vt -6.344476 -33.58316
vt -4.263734 -33.530234
vt -13.015808 4.31519
vt 0.151488 0.171795
vt 0.19282 0.171795
vt -4.283556 -33.633288
vt -6.332997 -33.633288
vt -13.268684 4.045637
vt 0.151088 0.173873
vt -6.352819 -33.530234
vt -12.488203 5.223986
vt -12.452143 4.860495
vt -12.465966 5.230143
vt 0.151778 0.170858
vt -6.318577 -33.679761
vt -12.881075 3.686158
vt -12.919427 4.047122
vt -12.901463 3.678795
vt 0.193321 0.174979
vt -4.25867 -33.475415
vt 9.123608 5.28884
vt 9.161203 5.650648
vt 9.140196 5.657644
vt 7.414999 6.03779
vt 7.451902 6.400362
vt 7.430334 6.406996
vt -12.47438 4.854338
vt 0.192529 0.170858
vt -4.297976 -33.679761
vt 5.638298 6.747209
vt 5.674358 7.1107
vt 5.652121 7.116857
vt -12.89904 4.054485
vt 0.150986 0.174979
vt -6.357883 -33.475415
vt 9.144615 5.281843
vt 10.722632 4.940471
vt 10.684541 4.579215
vt 10.705141 4.571975
vt 7.436567 6.031156
vt -11.742382 5.820762
vt -11.707288 5.456249
vt -11.719422 5.826336
vt 0.152124 0.17001
vt -6.301464 -33.721783
vt 5.660535 6.741052
vt -11.089473 4.319986
vt -12.592951 4.149976
vt -12.574926 3.781671
vt 0.193356 0.176103
vt -4.256973 -33.419643
vt 10.702031 4.947711
vt -11.730247 5.450675
vt 0.192184 0.17001
vt -4.315089 -33.721783
vt 3.868765 7.732336
vt 3.87959 7.356675
vt 3.891725 7.726762
vt 3.856631 7.36225
vt -11.107498 4.688291
vt 0.150952 0.176103
vt -6.35958 -33.419643
vt 12.05076 4.360846
vt 12.012407 3.999882
vt 12.032795 3.992519
vt -10.844218 6.421516
vt -10.810195 6.05592
vt -10.820533 6.42641
vt 0.152517 0.169267
vt -6.28195 -33.758635
vt 2.137056 7.847971
vt 2.123709 8.223355
vt 2.113371 7.852865
vt -10.683588 4.479791
vt -10.72194 4.840755
vt -10.703975 4.472428
vt 0.193356 0.258341
vt -4.256973 -29.341808
vt 12.030372 4.368209
vt -10.833879 6.051026
vt 0.19179 0.169267
vt -4.334602 -33.758635
vt 2.147394 8.218462
vt -10.701553 4.848118
vt 0.150952 0.258341
vt -6.35958 -29.341808
vt 12.592951 4.149976
vt 11.089473 4.319986
vt 12.574926 3.781671
vt -9.834047 6.988123
vt -9.801199 6.621411
vt -9.809683 6.99225
vt 0.152952 0.168641
vt -6.26037 -33.789687
vt 0.458467 8.204074
vt 0.442587 8.579041
vt 0.434103 8.208202
vt -9.690628 4.928535
vt -9.72872 5.28979
vt -9.711229 4.921295
vt 0.193321 0.259466
vt -4.25867 -29.286035
vt 11.107498 4.688291
vt -9.825563 6.617284
vt 0.191355 0.168641
vt -4.356183 -33.789687
vt 0.466951 8.574913
vt -9.708119 5.297031
vt 0.150986 0.259466
vt -6.357883 -29.286035
vt 11.590608 4.527032
vt 11.552256 4.166068
vt 11.572643 4.158705
vt -8.740977 7.495785
vt -8.709415 7.127952
vt -8.716018 7.499074
vt 0.153422 0.168142
vt -6.237092 -33.814408
vt -1.144132 8.42616
vt -1.162487 8.80057
vt -1.16909 8.429448
vt -8.478871 5.503567
vt -8.516466 5.865375
vt -8.499878 5.49657
vt 0.193219 0.260571
vt -4.263734 -29.231217
vt 11.570221 4.534395
vt -8.734374 7.124663
vt 0.190885 0.168142
vt -4.379461 -33.814408
vt -1.137528 8.797282
vt -8.495459 5.872371
vt 0.151088 0.260571
vt -6.352819 -29.231217
vt 12.295372 4.387717
vt 12.257281 4.026461
vt 12.277882 4.019221
vt -7.584001 7.929416
vt -7.553852 7.560472
vt -7.558567 7.931807
vt 0.153917 0.16778
vt -6.212514 -33.832374
vt -2.66764 8.521476
vt -2.688358 8.895202
vt -2.693073 8.523867
vt -7.117378 6.129327
vt -7.154281 6.491899
vt -7.138946 6.122694
vt 0.193051 0.261638
vt -4.272076 -29.178291
vt 12.274771 4.394957
vt -7.579286 7.55808
vt 0.19039 0.16778
vt -4.404038 -33.832374
vt -2.662925 8.892811
vt -7.132713 6.498533
vt 0.151256 0.261638
vt -6.344476 -29.178291
vt 12.670585 4.481864
vt 12.63299 4.120056
vt 12.653997 4.11306
vt -6.373944 8.279963
vt -6.345353 7.909938
vt -6.34818 8.281415
vt 0.154431 0.16756
vt -6.187059 -33.843278
vt -4.114047 8.499344
vt -4.136984 8.872273
vt -4.139811 8.500795
vt -5.672922 6.737622
vt -5.708981 7.101113
vt -5.695159 6.731465
vt 0.19282 0.262649
vt -4.283556 -29.128163
vt 12.649578 4.488861
vt -6.371117 7.908486
vt 0.189876 0.16756
vt -4.429494 -33.843278
vt -4.11122 8.870821
vt -5.686745 7.10727
vt 0.151488 0.262649
vt -6.332997 -29.128163
vt 12.733522 4.775933
vt 12.696618 4.41336
vt 12.718187 4.406727
vt -5.115497 8.541473
vt -5.088621 8.170412
vt -5.089563 8.54196
vt 0.154953 0.167486
vt -6.161159 -33.846933
vt -5.487493 8.368945
vt -5.512484 8.740979
vt -5.513426 8.369432
vt -4.200292 7.278815
vt -4.235386 7.643327
vt -4.223251 7.273241
vt 0.192529 0.263587
vt -4.297976 -29.08169
vt 12.711954 4.782566
vt -5.114555 8.169925
vt 0.189354 0.167486
vt -4.455393 -33.846933
vt -5.486551 8.740493
vt -4.212426 7.648901
vt 0.151778 0.263587
vt -6.318577 -29.08169
vt 12.522826 5.214399
vt 12.486767 4.850908
vt 12.509004 4.844751
vt -6.161159 8.637294
vt -4.455393 8.265738
vt -4.455393 8.637294
vt -6.161159 8.265738
vt -2.738657 7.723668
vt -2.77268 8.089265
vt -2.762341 7.718774
vt 0.192184 0.264434
vt -4.315089 -29.039668
vt 12.50059 5.220556
vt -2.748995 8.094158
vt 0.152124 0.264434
vt -6.301464 -29.039668
vt 12.063083 5.742901
vt 12.073908 5.36724
vt 12.086043 5.737327
vt -1.312507 8.0594
vt -1.345355 8.426111
vt -1.336872 8.055272
vt 0.19179 0.265177
vt -4.334602 -29.002816
vt 12.050949 5.372814
vt -1.320991 8.430239
vt 0.152517 0.265177
vt -6.28195 -29.002816
vt 11.445819 6.297213
vt 11.459165 5.921829
vt 11.469503 6.292319
vt 0.065181 8.284008
vt 0.033619 8.651842
vt 0.040222 8.28072
vt 0.191355 0.265803
vt -4.356183 -28.971763
vt 11.43548 5.926723
vt 0.058578 8.65513
vt 0.152952 0.265803
vt -6.26037 -28.971763
vt 10.688087 6.843448
vt 10.703967 6.468482
vt 10.712451 6.83932
vt 1.389334 8.401292
vt 1.359186 8.770236
vt 1.363901 8.398901
vt 0.190885 0.266302
vt -4.379461 -28.947043
vt 10.679603 6.472609
vt 1.384619 8.772628
vt 0.153422 0.266302
vt -6.237092 -28.947043
vt 9.819927 7.353633
vt 9.838283 6.979223
vt 9.844886 7.350345
vt 2.659617 8.417384
vt 2.631026 8.787409
vt 2.633854 8.415932
vt 0.19039 0.266664
vt 0.153917 0.266664
vt -6.212514 -28.929077
vt -4.404038 -28.929077
vt 9.813324 6.982511
vt 2.65679 8.788861
vt 0.189876 0.266884
vt -4.429494 -28.918173
vt 8.862306 7.809232
vt 8.883025 7.435505
vt 8.88774 7.806841
vt 3.877948 8.338731
vt 3.851073 8.709792
vt 3.852015 8.338244
vt 0.154431 0.266884
vt -6.187059 -28.918173
vt 8.857591 7.437897
vt 3.877006 8.710278
vt 0.189354 0.266958
vt -4.455393 -28.914517
vt 7.828374 8.198004
vt 7.851311 7.825075
vt 7.854138 8.196552
vt 6.161159 8.265738
vt 4.455393 8.637294
vt 4.455393 8.265738
vt 0.154953 0.266958
vt -6.161159 -28.914517
vt 7.825547 7.826527
vt 6.161159 8.637294
vt 6.725041 8.511259
vt 6.750033 8.139224
vt 6.750974 8.510772
vt 6.724099 8.139711
vn 0.9474183436372223 -0.04224301532192463 0.31719711505026926
vn 0.8864237032395765 -0.06110397954336873 0.45882384639314305
vn -0.8864237032395765 0.06110397954336873 -0.45882384639314305
vn -0.9474183436372223 0.04224301532192463 -0.31719711505026926
vn 0.8084816930009644 -0.07769097049895721 0.5833707784807399
vn -0.8084816930009644 0.07769097049895721 -0.5833707784807399
vn 0.9865100611517874 -0.021610001339560803 0.1622680100586697
vn -0.9865100611517874 0.021610001339560803 -0.1622680100586697
vn 0 0.9912483778619711 0.13201005032197674
vn 0 -0.9912483778619711 -0.13201005032197674
vn 0.7186580703303975 -0.0917950089833813 0.6892780674551674
vn -0.7186580703303975 0.0917950089833813 -0.6892780674551674
vn 0.9991465633960275 -0.005452997617165981 0.04094398210842543
vn -0.9991465633960275 0.005452997617165981 -0.04094398210842543
vn -0.9474183436372223 -0.04224301532192463 0.31719711505026926
vn -0.8864237032395765 -0.06110397954336873 0.45882384639314305
vn 0.9474183436372223 0.04224301532192463 -0.31719711505026926
vn 0.8864237032395765 0.06110397954336873 -0.45882384639314305
vn -0.8084816930009644 -0.07769097049895721 0.5833707784807399
vn 0.8084816930009644 0.07769097049895721 -0.5833707784807399
vn -0.7186580703303975 -0.0917950089833813 0.6892780674551674
vn 0.7186580703303975 0.0917950089833813 -0.6892780674551674
vn -0.9865100611517874 -0.021610001339560803 0.1622680100586697
vn 0.9865100611517874 0.021610001339560803 -0.1622680100586697
vn 0.6213130245921914 -0.10343800409417973 0.7767050307427625
vn -0.6213130245921914 0.10343800409417973 -0.7767050307427625
vn 0.9991465633960275 0.005452997617165981 -0.04094398210842543
vn -0.9991465633960275 -0.005452997617165981 0.04094398210842543
vn -0.6213130245921914 -0.10343800409417973 0.7767050307427625
vn 0.6213130245921914 0.10343800409417973 -0.7767050307427625
vn 0.5197460603703276 -0.11277901309967785 0.8468440983639116
vn -0.5197460603703276 0.11277901309967785 -0.8468440983639116
vn -0.5197460603703276 -0.11277901309967785 0.8468440983639116
vn 0.5197460603703276 0.11277901309967785 -0.8468440983639116
vn 0.4161851117321915 -0.12003403222524088 0.9013222419757615
vn -0.4161851117321915 0.12003403222524088 -0.9013222419757615
vn -0.4161851117321915 -0.12003403222524088 0.9013222419757615
vn 0.4161851117321915 0.12003403222524088 -0.9013222419757615
vn 0.311967017398869 -0.12542200699497366 0.9417780525243762
vn -0.311967017398869 0.12542200699497366 -0.9417780525243762
vn -0.311967017398869 -0.12542200699497366 0.9417780525243762
vn 0.311967017398869 0.12542200699497366 -0.9417780525243762
vn 0.20776196338756678 -0.12912897724450625 0.9696188291308762
vn -0.20776196338756678 0.12912897724450625 -0.9696188291308762
vn -0.20776196338756678 -0.12912897724450625 0.9696188291308762
vn 0.20776196338756678 0.12912897724450625 -0.9696188291308762
vn 0.10379097794883065 -0.1312969721049765 0.9858947905392799
vn -0.10379097794883065 0.1312969721049765 -0.9858947905392799
vn -0.10379097794883065 -0.1312969721049765 0.9858947905392799
vn 0.10379097794883065 0.1312969721049765 -0.9858947905392799
vn 0.02590898937092997 -0.1319659458614437 0.9909155934804293
vn -0.02590898937092997 0.1319659458614437 -0.9909155934804293
vn -0.02590898937092997 -0.1319659458614437 0.9909155934804293
vn 0.02590898937092997 0.1319659458614437 -0.9909155934804293
usemtl material_0_0
f 1/1/1 2/2/2 3/3/2
f 2/2/2 1/1/1 4/4/1
f 3/3/3 2/2/3 1/1/4
f 4/4/4 1/1/4 2/2/3
f 5/5/5 3/6/2 2/7/2
f 2/7/3 3/6/3 5/5/6
f 6/8/7 4/9/1 1/10/1
f 1/10/4 4/9/4 6/8/8
f 4/11/9 7/12/9 2/13/9
f 2/14/10 7/15/10 4/16/10
f 3/6/2 5/5/5 8/17/5
f 8/17/6 5/5/6 3/6/3
f 2/13/9 9/18/9 5/19/9
f 5/20/10 9/21/10 2/14/10
f 4/9/1 6/8/7 10/22/7
f 10/22/8 6/8/8 4/9/4
f 4/11/9 11/23/9 7/12/9
f 7/15/10 11/24/10 4/16/10
f 2/13/9 7/12/9 9/18/9
f 9/21/10 7/15/10 2/14/10
f 12/25/11 8/26/5 5/27/5
f 5/27/6 8/26/6 12/25/12
f 5/19/9 9/18/9 13/28/9
f 13/29/10 9/21/10 5/20/10
f 14/30/13 10/31/7 6/32/7
f 6/32/8 10/31/8 14/30/14
f 10/33/9 11/23/9 4/11/9
f 4/16/10 11/24/10 10/34/10
f 15/35/15 7/36/16 11/37/15
f 11/37/17 7/36/18 15/35/17
f 16/38/16 9/39/19 7/40/16
f 7/40/18 9/39/20 16/38/18
f 8/26/5 12/25/11 17/41/11
f 17/41/12 12/25/12 8/26/6
f 5/19/9 13/28/9 12/42/9
f 12/43/10 13/29/10 5/20/10
f 18/44/19 13/45/21 9/46/19
f 9/46/20 13/45/22 18/44/20
f 10/31/7 14/30/13 19/47/13
f 19/47/14 14/30/14 10/31/8
f 10/33/9 20/48/9 11/23/9
f 11/24/10 20/49/10 10/34/10
f 7/36/16 15/35/15 16/50/16
f 16/50/18 15/35/17 7/36/18
f 11/51/15 21/52/23 15/53/15
f 15/53/17 21/52/24 11/51/17
f 9/39/19 16/38/16 18/54/19
f 18/54/20 16/38/18 9/39/20
f 22/55/25 17/56/11 12/57/11
f 12/57/12 17/56/12 22/55/26
f 12/42/9 13/28/9 23/58/9
f 23/59/10 13/29/10 12/43/10
f 13/45/21 18/44/19 24/60/21
f 24/60/22 18/44/20 13/45/22
f 25/61/27 19/62/13 14/63/13
f 14/63/14 19/62/14 25/61/28
f 19/64/9 20/48/9 10/33/9
f 10/34/10 20/49/10 19/65/10
f 21/52/23 11/51/15 20/66/23
f 20/66/24 11/51/17 21/52/24
f 17/56/11 22/55/25 26/67/25
f 26/67/26 22/55/26 17/56/12
f 12/42/9 23/58/9 22/68/9
f 22/69/10 23/59/10 12/43/10
f 13/70/21 27/71/29 23/72/29
f 23/72/30 27/71/30 13/70/22
f 27/71/29 13/70/21 24/73/21
f 24/73/22 13/70/22 27/71/30
f 19/62/13 25/61/27 28/74/27
f 28/74/28 25/61/28 19/62/14
f 19/64/9 29/75/9 20/48/9
f 20/49/10 29/76/10 19/65/10
f 20/77/23 30/78/28 21/79/23
f 21/79/24 30/78/27 20/77/24
f 31/80/31 26/81/25 22/82/25
f 22/82/26 26/81/26 31/80/32
f 22/68/9 23/58/9 32/83/9
f 32/84/10 23/59/10 22/69/10
f 33/85/33 23/86/29 27/87/29
f 27/87/30 23/86/30 33/85/34
f 34/88/24 28/89/27 25/90/27
f 25/90/28 28/89/28 34/88/23
f 28/91/9 29/75/9 19/64/9
f 19/65/10 29/76/10 28/92/10
f 30/78/28 20/77/23 29/93/28
f 29/93/27 20/77/24 30/78/27
f 26/81/25 31/80/31 35/94/31
f 35/94/32 31/80/32 26/81/26
f 22/68/9 32/83/9 31/95/9
f 31/96/10 32/84/10 22/69/10
f 23/86/29 33/85/33 32/97/33
f 32/97/34 33/85/34 23/86/30
f 28/89/27 34/88/24 36/98/24
f 36/98/23 34/88/23 28/89/28
f 28/91/9 37/99/9 29/75/9
f 29/76/10 37/100/10 28/92/10
f 29/101/28 38/102/14 30/103/28
f 30/103/27 38/102/13 29/101/27
f 39/104/35 35/105/31 31/106/31
f 31/106/32 35/105/32 39/104/36
f 31/95/9 32/83/9 40/107/9
f 40/108/10 32/84/10 31/96/10
f 41/109/37 32/110/33 33/111/33
f 33/111/34 32/110/34 41/109/38
f 42/112/17 36/113/24 34/114/24
f 34/114/23 36/113/23 42/112/15
f 36/115/9 37/99/9 28/91/9
f 28/92/10 37/100/10 36/116/10
f 38/102/14 29/101/28 37/117/14
f 37/117/13 29/101/27 38/102/13
f 35/105/31 39/104/35 43/118/35
f 43/118/36 39/104/36 35/105/32
f 31/95/9 40/107/9 39/119/9
f 39/120/10 40/108/10 31/96/10
f 32/110/33 41/109/37 40/121/37
f 40/121/38 41/109/38 32/110/34
f 36/113/24 42/112/17 44/122/17
f 44/122/15 42/112/15 36/113/23
f 36/115/9 45/123/9 37/99/9
f 37/100/10 45/124/10 36/116/10
f 37/125/14 46/126/8 38/127/14
f 38/127/13 46/126/7 37/125/13
f 47/128/39 43/129/35 39/130/35
f 39/130/36 43/129/36 47/128/40
f 39/119/9 40/107/9 48/131/9
f 48/132/10 40/108/10 39/120/10
f 49/133/41 40/134/37 41/135/37
f 41/135/38 40/134/38 49/133/42
f 50/136/18 44/137/17 42/138/17
f 42/138/15 44/137/15 50/136/16
f 44/139/9 45/123/9 36/115/9
f 36/116/10 45/124/10 44/140/10
f 46/126/8 37/125/14 45/141/8
f 45/141/7 37/125/13 46/126/7
f 43/129/35 47/128/39 51/142/39
f 51/142/40 47/128/40 43/129/36
f 39/119/9 48/131/9 47/143/9
f 47/144/10 48/132/10 39/120/10
f 40/134/37 49/133/41 48/145/41
f 48/145/42 49/133/42 40/134/38
f 44/137/17 50/136/18 52/146/18
f 52/146/16 50/136/16 44/137/15
f 44/139/9 53/147/9 45/123/9
f 45/124/10 53/148/10 44/140/10
f 45/149/8 54/150/4 46/151/8
f 46/151/7 54/150/1 45/149/7
f 55/152/43 51/153/39 47/154/39
f 47/154/40 51/153/40 55/152/44
f 47/143/9 48/131/9 56/155/9
f 56/156/10 48/132/10 47/144/10
f 57/157/45 48/158/41 49/159/41
f 49/159/42 48/158/42 57/157/46
f 58/160/20 52/161/18 50/162/18
f 50/162/16 52/161/16 58/160/19
f 52/163/9 53/147/9 44/139/9
f 44/140/10 53/148/10 52/164/10
f 54/150/4 45/149/8 53/165/4
f 53/165/1 45/149/7 54/150/1
f 51/153/39 55/152/43 59/166/43
f 59/166/44 55/152/44 51/153/40
f 47/143/9 56/155/9 55/167/9
f 55/168/10 56/156/10 47/144/10
f 48/158/41 57/157/45 56/169/45
f 56/169/46 57/157/46 48/158/42
f 52/161/18 58/160/20 60/170/20
f 60/170/19 58/160/19 52/161/16
f 52/163/9 61/171/9 53/147/9
f 53/148/10 61/172/10 52/164/10
f 53/173/4 62/174/3 54/175/4
f 54/175/1 62/174/2 53/173/1
f 63/176/47 59/177/43 55/178/43
f 55/178/44 59/177/44 63/176/48
f 55/167/9 56/155/9 64/179/9
f 64/180/10 56/156/10 55/168/10
f 65/181/49 56/182/45 57/183/45
f 57/183/46 56/182/46 65/181/50
f 66/184/22 60/185/20 58/186/20
f 58/186/19 60/185/19 66/184/21
f 60/187/9 61/171/9 52/163/9
f 52/164/10 61/172/10 60/188/10
f 62/174/3 53/173/4 61/189/3
f 61/189/2 53/173/1 62/174/2
f 59/177/43 63/176/47 67/190/47
f 67/190/48 63/176/48 59/177/44
f 55/167/9 64/179/9 63/191/9
f 63/192/10 64/180/10 55/168/10
f 56/182/45 65/181/49 64/193/49
f 64/193/50 65/181/50 56/182/46
f 60/185/20 66/184/22 68/194/22
f 68/194/21 66/184/21 60/185/19
f 60/187/9 69/195/9 61/171/9
f 61/172/10 69/196/10 60/188/10
f 61/197/3 70/198/6 62/199/3
f 62/199/2 70/198/5 61/197/2
f 71/200/51 67/201/47 63/202/47
f 63/202/48 67/201/48 71/200/52
f 63/191/9 64/179/9 72/203/9
f 72/204/10 64/180/10 63/192/10
f 73/205/53 64/206/49 65/207/49
f 65/207/50 64/206/50 73/205/54
f 74/208/30 68/209/22 66/210/22
f 66/210/21 68/209/21 74/208/29
f 68/211/9 69/195/9 60/187/9
f 60/188/10 69/196/10 68/212/10
f 70/198/6 61/197/3 69/213/6
f 69/213/5 61/197/2 70/198/5
f 67/201/47 71/200/51 75/214/51
f 75/214/52 71/200/52 67/201/48
f 63/191/9 72/203/9 71/215/9
f 71/216/10 72/204/10 63/192/10
f 64/206/49 73/205/53 72/217/53
f 72/217/54 73/205/54 64/206/50
f 68/209/22 74/208/30 76/218/30
f 76/218/29 74/208/29 68/209/21
f 68/211/9 77/219/9 69/195/9
f 69/196/10 77/220/10 68/212/10
f 69/221/6 78/222/12 70/223/6
f 70/223/5 78/222/11 69/221/5
f 72/224/53 75/225/51 71/226/51
f 71/226/52 75/225/52 72/224/54
f 75/225/51 72/224/53 73/227/53
f 73/227/54 72/224/54 75/225/52
f 79/228/34 76/229/30 74/230/30
f 74/230/29 76/229/29 79/228/33
f 76/231/9 77/219/9 68/211/9
f 68/212/10 77/220/10 76/232/10
f 78/222/12 69/221/6 77/233/12
f 77/233/11 69/221/5 78/222/11
f 76/229/30 79/228/34 80/234/34
f 80/234/33 79/228/33 76/229/29
f 76/231/9 81/235/9 77/219/9
f 77/220/10 81/236/10 76/232/10
f 81/237/26 78/238/12 77/239/12
f 77/239/11 78/238/11 81/237/25
f 82/240/38 80/241/34 79/242/34
f 79/242/33 80/241/33 82/240/37
f 80/243/9 81/235/9 76/231/9
f 76/232/10 81/236/10 80/244/10
f 78/238/12 81/237/26 83/245/26
f 83/245/25 81/237/25 78/238/11
f 80/241/34 82/240/38 84/246/38
f 84/246/37 82/240/37 80/241/33
f 80/243/9 85/247/9 81/235/9
f 81/236/10 85/248/10 80/244/10
f 85/249/32 83/250/26 81/251/26
f 81/251/25 83/250/25 85/249/31
f 86/252/42 84/253/38 82/254/38
f 82/254/37 84/253/37 86/252/41
f 84/255/9 85/247/9 80/243/9
f 80/244/10 85/248/10 84/256/10
f 83/250/26 85/249/32 87/257/32
f 87/257/31 85/249/31 83/250/25
f 84/253/38 86/252/42 88/258/42
f 88/258/41 86/252/41 84/253/37
f 84/255/9 89/259/9 85/247/9
f 85/248/10 89/260/10 84/256/10
f 89/261/36 87/262/32 85/263/32
f 85/263/31 87/262/31 89/261/35
f 90/264/46 88/265/42 86/266/42
f 86/266/41 88/265/41 90/264/45
f 88/267/9 89/259/9 84/255/9
f 84/256/10 89/260/10 88/268/10
f 87/262/32 89/261/36 91/269/36
f 91/269/35 89/261/35 87/262/31
f 88/265/42 90/264/46 92/270/46
f 92/270/45 90/264/45 88/265/41
f 88/267/9 93/271/9 89/259/9
f 89/260/10 93/272/10 88/268/10
f 93/273/40 91/274/36 89/275/36
f 89/275/35 91/274/35 93/273/39
f 94/276/50 92/277/46 90/278/46
f 90/278/45 92/277/45 94/276/49
f 92/279/9 95/280/9 88/267/9
f 88/268/10 95/281/10 92/282/10
f 88/267/9 95/280/9 93/271/9
f 93/272/10 95/281/10 88/268/10
f 91/274/36 93/273/40 96/283/40
f 96/283/39 93/273/39 91/274/35
f 92/277/46 94/276/50 97/284/50
f 97/284/49 94/276/49 92/277/45
f 97/285/9 95/280/9 92/279/9
f 92/282/10 95/281/10 97/286/10
f 95/287/44 96/288/40 93/289/40
f 93/289/39 96/288/39 95/287/43
f 98/290/54 97/291/50 94/292/50
f 94/292/49 97/291/49 98/290/53
f 97/285/9 99/293/9 95/280/9
f 95/281/10 99/294/10 97/286/10
f 96/288/40 95/287/44 100/295/44
f 100/295/43 95/287/43 96/288/39
f 97/291/50 98/290/54 101/296/54
f 101/296/53 98/290/53 97/291/49
f 101/297/9 99/293/9 97/285/9
f 97/286/10 99/294/10 101/298/10
f 99/299/48 100/300/44 95/301/44
f 95/301/43 100/300/43 99/299/47
f 102/302/52 101/303/54 98/304/54
f 98/304/53 101/303/53 102/302/51
f 99/293/9 101/297/9 103/305/9
f 103/306/10 101/298/10 99/294/10
f 100/300/44 99/299/48 104/307/48
f 104/307/47 99/299/47 100/300/43
f 101/303/54 102/302/52 103/308/52
f 103/308/51 102/302/51 101/303/53
f 103/309/52 104/310/48 99/311/48
f 99/311/47 104/310/47 103/309/51
f 104/310/48 103/309/52 102/312/52
f 102/312/51 103/309/51 104/310/47
