# SSTK version 0.8.0
# 76
mtllib original-76.mtl
o mesh76/mesh76-geometry#mesh76-geometry
v 0.909918 0.030434 -0.132335
v 0.814307 0.037679 -0.131370
v 0.814307 0.030434 -0.132335
v 0.909918 0.037679 -0.131370
v 0.812907 0.037689 -0.131441
v 0.911319 0.030444 -0.132406
v 0.911319 0.037689 -0.131441
v 0.812907 0.030444 -0.132406
v 0.811531 0.037717 -0.131654
v 0.912695 0.030472 -0.132619
v 0.811531 0.030472 -0.132619
v 0.912695 0.037717 -0.131654
v 0.810202 0.037764 -0.132004
v 0.914024 0.037764 -0.132004
v 0.914024 0.030519 -0.132969
v 0.810202 0.030519 -0.132969
v 0.808943 0.037828 -0.132486
v 0.915282 0.030583 -0.133451
v 0.808943 0.030583 -0.133451
v 0.915282 0.037828 -0.132486
v 0.807777 0.037909 -0.133091
v 0.916449 0.037909 -0.133091
v 0.916449 0.030663 -0.134056
v 0.807777 0.030663 -0.134056
v 0.806722 0.038004 -0.133810
v 0.917504 0.038004 -0.133810
v 0.917504 0.030759 -0.134775
v 0.806722 0.030759 -0.134775
v 0.805797 0.038114 -0.134630
v 0.918429 0.038114 -0.134630
v 0.918429 0.030868 -0.135594
v 0.805797 0.030868 -0.135594
v 0.805017 0.030989 -0.136501
v 0.805017 0.038234 -0.135536
v 0.919208 0.030989 -0.136501
v 0.919208 0.038234 -0.135536
v 0.804396 0.031119 -0.137478
v 0.919829 0.038364 -0.136513
v 0.919829 0.031119 -0.137478
v 0.804396 0.038364 -0.136513
v 0.803945 0.031257 -0.138510
v 0.920280 0.038502 -0.137545
v 0.920280 0.031257 -0.138510
v 0.803945 0.038502 -0.137545
v 0.803672 0.031399 -0.139579
v 0.920554 0.038644 -0.138614
v 0.920554 0.031399 -0.139579
v 0.803672 0.038644 -0.138614
v 0.803580 0.031544 -0.140667
v 0.920646 0.038789 -0.139702
v 0.920646 0.031544 -0.140667
v 0.803580 0.038789 -0.139702
v 0.803580 0.036441 -0.177436
v 0.920646 0.043686 -0.176471
v 0.920646 0.036441 -0.177436
v 0.803580 0.043686 -0.176471
v 0.803672 0.036585 -0.178524
v 0.920554 0.043831 -0.177559
v 0.920554 0.036585 -0.178524
v 0.803672 0.043831 -0.177559
v 0.803945 0.036728 -0.179593
v 0.920280 0.043973 -0.178628
v 0.920280 0.036728 -0.179593
v 0.803945 0.043973 -0.178628
v 0.804396 0.036865 -0.180625
v 0.919829 0.044110 -0.179660
v 0.919829 0.036865 -0.180625
v 0.804396 0.044110 -0.179660
v 0.805017 0.036995 -0.181602
v 0.919208 0.044241 -0.180637
v 0.919208 0.036995 -0.181602
v 0.805017 0.044241 -0.180637
v 0.805797 0.037116 -0.182508
v 0.918429 0.044361 -0.181543
v 0.918429 0.037116 -0.182508
v 0.805797 0.044361 -0.181543
v 0.806722 0.044470 -0.182363
v 0.917504 0.044470 -0.182363
v 0.917504 0.037225 -0.183328
v 0.806722 0.037225 -0.183328
v 0.807777 0.044566 -0.183081
v 0.916449 0.044566 -0.183081
v 0.916449 0.037321 -0.184046
v 0.807777 0.037321 -0.184046
v 0.808943 0.044647 -0.183687
v 0.915282 0.044647 -0.183687
v 0.915282 0.037402 -0.184652
v 0.808943 0.037402 -0.184652
v 0.810202 0.044711 -0.184169
v 0.914024 0.044711 -0.184169
v 0.914024 0.037466 -0.185134
v 0.810202 0.037466 -0.185134
v 0.811531 0.044758 -0.184519
v 0.912695 0.044758 -0.184519
v 0.912695 0.037512 -0.185484
v 0.811531 0.037512 -0.185484
v 0.812907 0.044786 -0.184732
v 0.911319 0.044786 -0.184732
v 0.911319 0.037541 -0.185697
v 0.812907 0.037541 -0.185697
v 0.814307 0.044795 -0.184803
v 0.909918 0.044795 -0.184803
v 0.909918 0.037550 -0.185768
v 0.814307 0.037550 -0.185768
vt 28.077838 8.265738
vt 26.29171 8.637294
vt 26.29171 8.265738
vt 28.077838 8.637294
vt 26.406885 8.146661
vt 26.432143 7.774626
vt 26.433076 8.146174
vt 27.890765 8.784347
vt 27.863641 9.155408
vt 27.864574 8.78386
vt 0.845992 0.68441
vt 0.809443 0.684336
vt 0.845464 0.684336
vt 28.077838 -8.21836
vt 26.29171 -8.21836
vt 28.103994 -8.214704
vt 26.405952 7.775113
vt 0.808915 0.68441
vt 26.265553 -8.214704
vt 27.889832 9.155895
vt 26.45064 7.162906
vt 26.473854 6.789975
vt 26.476654 7.161454
vt 0.808397 0.68463
vt 26.239844 -8.2038
vt 27.261793 9.788951
vt 27.232979 10.158978
vt 27.235779 9.787499
vt 26.44784 6.791427
vt 0.84651 0.68463
vt 28.129704 -8.2038
vt 27.258993 10.16043
vt 26.200716 6.201672
vt 26.221715 5.827942
vt 26.226386 6.199281
vt 0.847011 0.684992
vt 28.154525 -8.185834
vt 26.3158 10.721982
vt 26.285459 11.09093
vt 26.29013 10.719591
vt 26.196045 5.830333
vt 0.807896 0.684992
vt 26.215022 -8.185834
vt 26.311128 11.093321
vt 25.63481 5.298776
vt 25.653438 4.924358
vt 25.659985 5.295487
vt 0.807422 0.68549
vt 26.191512 -8.161114
vt 25.028282 11.544494
vt 24.99656 11.912335
vt 25.003107 11.541205
vt 25.628263 4.927646
vt 0.847485 0.68549
vt 28.178035 -8.161114
vt 25.021735 11.915623
vt 24.719018 4.498688
vt 24.735155 4.12371
vt 24.743573 4.49456
vt 0.847925 0.686117
vt 28.19983 -8.130062
vt 23.364743 12.20892
vt 23.331769 12.575643
vt 23.340188 12.204793
vt 24.7106 4.127838
vt 0.806983 0.686117
vt 26.169717 -8.130062
vt 23.356324 12.57977
vt 23.409257 3.857302
vt 23.422833 3.481904
vt 23.433102 3.852408
vt 0.848322 0.68686
vt 28.219538 -8.093209
vt 21.28356 12.657461
vt 21.249445 13.023072
vt 21.259715 12.652568
vt 23.398988 3.486798
vt 0.806585 0.68686
vt 26.150009 -8.093209
vt 21.27329 13.027966
vt 21.65507 3.442502
vt 21.666088 3.066825
vt 21.678157 3.436928
vt 0.848671 0.687707
vt 28.236822 -8.051187
vt 18.741643 12.823481
vt 18.706488 13.188009
vt 18.718557 12.817906
vt 21.643001 3.072399
vt 0.806237 0.687707
vt 26.132726 -8.051187
vt 18.729575 13.193583
vt 19.42976 3.323793
vt 19.393663 2.960287
vt 19.415993 2.95413
vt 0.805943 0.688645
vt 26.118163 -8.004715
vt 15.704368 12.638532
vt 15.668272 13.002038
vt 15.682038 12.632374
vt 19.407429 3.329951
vt 0.848964 0.688645
vt 28.251385 -8.004715
vt 15.690602 13.008195
vt 16.653625 3.584216
vt 16.616703 3.221631
vt 16.638332 3.214997
vt 0.849198 0.689655
vt 28.262978 -7.954586
vt 12.160667 12.047827
vt 12.123744 12.410412
vt 12.139038 12.041193
vt 16.631996 3.590849
vt 0.805709 0.689655
vt 26.106569 -7.954586
vt 12.145374 12.417046
vt 13.348611 4.262744
vt 13.311008 3.900927
vt 13.332048 3.893931
vt 0.849368 0.690723
vt 28.271404 -7.90166
vt 8.141948 11.034661
vt 8.104345 11.396478
vt 8.120908 11.027665
vt 13.327571 4.26974
vt 0.805539 0.690723
vt 26.098143 -7.90166
vt 8.125385 11.403474
vt 9.566243 5.348805
vt 9.52815 4.987546
vt 9.548763 4.980306
vt 0.849471 0.691828
vt 28.276518 -7.846842
vt 3.739239 9.647725
vt 3.701146 10.008984
vt 3.718626 9.640485
vt 9.54563 5.356046
vt 0.805436 0.691828
vt 26.093029 -7.846842
vt 3.721759 10.016225
vt 5.422299 6.754869
vt 5.383947 6.393905
vt 5.404335 6.386542
vt 0.849506 0.692953
vt 28.278232 -7.791069
vt -0.891357 8.016314
vt -0.929709 8.377279
vt -0.911746 8.008951
vt 5.40191 6.762232
vt 0.805401 0.692953
vt 26.091315 -7.791069
vt -0.90932 8.384642
vt 3.257107 7.533205
vt 2.552187 7.413825
vt 3.239082 7.1649
vt 0.849506 0.730981
vt 28.278232 -5.905419
vt -2.552187 7.413825
vt -3.257107 7.533205
vt -3.239082 7.1649
vt 2.570212 7.78213
vt 0.805401 0.730981
vt 26.091315 -5.905419
vt -2.570212 7.78213
vt 0.405481 8.566593
vt 0.367129 8.205629
vt 0.387517 8.198266
vt 0.849471 0.732106
vt 28.276518 -5.849646
vt -4.859718 6.583219
vt -4.898071 6.944184
vt -4.880107 6.575856
vt 0.385092 8.573956
vt 0.805436 0.732106
vt 26.093029 -5.849646
vt -4.877682 6.951547
vt -3.894473 10.076891
vt -3.932567 9.715632
vt -3.911953 9.708391
vt 0.849368 0.733211
vt 28.271404 -5.794828
vt -9.334822 5.055453
vt -9.372916 5.416712
vt -9.355435 5.048212
vt -3.915086 10.084131
vt 0.805539 0.733211
vt 26.098143 -5.794828
vt -9.352302 5.423952
vt -7.973063 11.352823
vt -8.010666 10.991006
vt -7.989626 10.98401
vt 0.849198 0.734278
vt 28.262978 -5.741902
vt -13.44229 3.857272
vt -13.479893 4.219089
vt -13.46333 3.850276
vt -7.994103 11.359819
vt 0.805709 0.734278
vt 26.106569 -5.741902
vt -13.458853 4.226085
vt -11.687867 12.276726
vt -11.72479 11.914141
vt -11.70316 11.907507
vt 0.848964 0.735289
vt 28.251385 -5.691774
vt -17.05258 3.087944
vt -17.089503 3.450529
vt -17.074209 3.08131
vt -11.709497 12.28336
vt 0.805943 0.735289
vt 26.118163 -5.691774
vt -17.067873 3.457163
vt -14.95698 12.8059
vt -14.993076 12.442394
vt -14.970746 12.436236
vt 0.848671 0.736227
vt 28.236822 -5.645301
vt -20.104955 2.764149
vt -20.141051 3.127656
vt -20.127285 2.757992
vt -14.97931 12.812057
vt 0.806237 0.736227
vt 26.132726 -5.645301
vt -20.118721 3.133813
vt -17.776563 12.963474
vt -17.765545 12.587797
vt -17.753476 12.957899
vt 0.848322 0.737074
vt 28.219538 -5.603279
vt -22.596013 2.84229
vt -22.631168 3.206818
vt -22.6191 2.836715
vt -17.788632 12.593371
vt 0.806585 0.737074
vt 26.150009 -5.603279
vt -22.608082 3.212392
vt -20.113091 12.789846
vt -20.099516 12.414448
vt -20.089246 12.784952
vt 0.847925 0.737817
vt 28.19983 -5.566427
vt -24.559187 3.248678
vt -24.593301 3.614289
vt -24.583032 3.243784
vt -20.123361 12.419342
vt 0.806983 0.737817
vt 26.169717 -5.566427
vt -24.569457 3.619183
vt -22.021946 12.355472
vt -22.005809 11.980494
vt -21.997391 12.351344
vt 0.847485 0.738444
vt 28.178035 -5.535375
vt -26.044978 3.903539
vt -26.077952 4.270262
vt -26.069533 3.899412
vt -22.030364 11.984622
vt 0.807422 0.738444
vt 26.191512 -5.535375
vt -26.053397 4.274389
vt -23.543456 11.722527
vt -23.524828 11.34811
vt -23.518281 11.719239
vt 0.847011 0.738942
vt 28.154525 -5.510654
vt -27.106543 4.734551
vt -27.138264 5.102392
vt -27.131718 4.731263
vt -23.550003 11.351398
vt 0.807896 0.738942
vt 26.215022 -5.510654
vt -27.11309 5.10568
vt -24.716124 10.944741
vt -24.695126 10.571011
vt -24.690455 10.94235
vt 0.84651 0.739304
vt 28.129704 -5.492688
vt -27.791049 5.681753
vt -27.82139 6.050701
vt -27.816719 5.679362
vt -24.720796 10.573402
vt 0.808397 0.739304
vt 26.239844 -5.492688
vt -27.79572 6.053092
vt -25.57149 10.066251
vt -25.548275 9.69332
vt -25.545475 10.064799
vt 0.845992 0.739524
vt 28.103994 -5.481784
vt -28.135344 6.697248
vt -28.164158 7.067275
vt -28.161358 6.695796
vt -25.574289 9.694772
vt 0.808915 0.739524
vt 26.265553 -5.481784
vt -28.138144 7.068727
vt -26.131555 9.123213
vt -26.106297 8.751178
vt -26.105365 9.122726
vt 0.845464 0.739598
vt 28.077838 -5.478129
vt -28.164229 7.742431
vt -28.191352 8.113492
vt -28.19042 7.741944
vt -26.132488 8.751665
vt 0.809443 0.739598
vt 26.29171 -5.478129
vt -28.165162 8.113979
vt -28.077838 8.637294
vt -26.29171 8.265738
vt -26.29171 8.637294
vt -28.077838 8.265738
vn 0.025654002220495083 -0.13196701142247114 0.9909220857697603
vn -0.025654002220495083 -0.13196701142247114 0.9909220857697603
vn 0.025654002220495083 0.13196701142247114 -0.9909220857697603
vn -0.025654002220495083 0.13196701142247114 -0.9909220857697603
vn -0.10278503130061642 -0.13131103998750054 0.9859983002611782
vn 0.10278503130061642 0.13131103998750054 -0.9859983002611782
vn 0.10278503130061642 -0.13131103998750054 0.9859983002611782
vn -0.10278503130061642 0.13131103998750054 -0.9859983002611782
vn 0 0.9912483778619711 0.13201005032197674
vn 0 -0.9912483778619711 -0.13201005032197674
vn -0.20581301260049042 -0.12918400790903276 0.9700270593879684
vn 0.20581301260049042 0.12918400790903276 -0.9700270593879684
vn 0.20581301260049042 -0.12918400790903276 0.9700270593879684
vn -0.20581301260049042 0.12918400790903276 -0.9700270593879684
vn -0.3092048980188304 -0.12554095859440173 0.9426726890901017
vn 0.3092048980188304 0.12554095859440173 -0.9426726890901017
vn 0.3092048980188304 -0.12554095859440173 0.9426726890901017
vn -0.3092048980188304 0.12554095859440173 -0.9426726890901017
vn -0.4128079821580266 -0.12023699480323696 0.9028469609780524
vn 0.4128079821580266 0.12023699480323696 -0.9028469609780524
vn 0.4128079821580266 -0.12023699480323696 0.9028469609780524
vn -0.4128079821580266 0.12023699480323696 -0.9028469609780524
vn -0.516020027160973 -0.1130770059518649 0.8490800446917538
vn 0.516020027160973 0.1130770059518649 -0.8490800446917538
vn 0.516020027160973 -0.1130770059518649 0.8490800446917538
vn -0.516020027160973 0.1130770059518649 -0.8490800446917538
vn -0.6175641213186308 -0.10382902039690156 0.7796371531573948
vn 0.6175641213186308 0.10382902039690156 -0.7796371531573948
vn 0.6175641213186308 -0.10382902039690156 0.7796371531573948
vn -0.6175641213186308 0.10382902039690156 -0.7796371531573948
vn -0.7152398015746254 -0.09225897440505755 0.6927628078103046
vn 0.7152398015746254 0.09225897440505755 -0.6927628078103046
vn 0.7152398015746254 -0.09225897440505755 0.6927628078103046
vn -0.7152398015746254 0.09225897440505755 -0.6927628078103046
vn -0.8057251634796379 -0.07818801586415454 0.5871061191223759
vn 0.8057251634796379 0.07818801586415454 -0.5871061191223759
vn 0.8057251634796379 -0.07818801586415454 0.5871061191223759
vn -0.8057251634796379 0.07818801586415454 -0.5871061191223759
vn -0.8845528184022097 -0.06157498735871797 0.4623579050783942
vn 0.8845528184022097 0.06157498735871797 -0.4623579050783942
vn 0.8845528184022097 -0.06157498735871797 0.4623579050783942
vn -0.8845528184022097 0.06157498735871797 -0.4623579050783942
vn -0.9464623237895486 -0.042615014578812054 0.319989109469893
vn 0.9464623237895486 0.042615014578812054 -0.319989109469893
vn 0.9464623237895486 -0.042615014578812054 0.319989109469893
vn -0.9464623237895486 0.042615014578812054 -0.319989109469893
vn -0.9862492916270549 -0.02181700645113704 0.16381804843985734
vn 0.9862492916270549 0.02181700645113704 -0.16381804843985734
vn 0.9862492916270549 -0.02181700645113704 0.16381804843985734
vn -0.9862492916270549 0.02181700645113704 -0.16381804843985734
vn -0.9991295884835854 -0.005506997731805775 0.041348982969391136
vn 0.9991295884835854 0.005506997731805775 -0.041348982969391136
vn 0.9991295884835854 -0.005506997731805775 0.041348982969391136
vn -0.9991295884835854 0.005506997731805775 -0.041348982969391136
usemtl material_0_0
f 1/1/1 2/2/2 3/3/2
f 2/2/2 1/1/1 4/4/1
f 3/3/3 2/2/3 1/1/4
f 4/4/4 1/1/4 2/2/3
f 5/5/5 3/6/2 2/7/2
f 2/7/3 3/6/3 5/5/6
f 6/8/7 4/9/1 1/10/1
f 1/10/4 4/9/4 6/8/8
f 7/11/9 2/12/9 4/13/9
f 4/14/10 2/15/10 7/16/10
f 3/6/2 5/5/5 8/17/5
f 8/17/6 5/5/6 3/6/3
f 7/11/9 5/18/9 2/12/9
f 2/15/10 5/19/10 7/16/10
f 4/9/1 6/8/7 7/20/7
f 7/20/8 6/8/8 4/9/4
f 9/21/11 8/22/5 5/23/5
f 5/23/6 8/22/6 9/21/12
f 7/11/9 9/24/9 5/18/9
f 5/19/10 9/25/10 7/16/10
f 10/26/13 7/27/7 6/28/7
f 6/28/8 7/27/8 10/26/14
f 8/22/5 9/21/11 11/29/11
f 11/29/12 9/21/12 8/22/6
f 12/30/9 9/24/9 7/11/9
f 7/16/10 9/25/10 12/31/10
f 7/27/7 10/26/13 12/32/13
f 12/32/14 10/26/14 7/27/8
f 13/33/15 11/34/11 9/35/11
f 9/35/12 11/34/12 13/33/16
f 14/36/9 9/24/9 12/30/9
f 12/31/10 9/25/10 14/37/10
f 15/38/17 12/39/13 10/40/13
f 10/40/14 12/39/14 15/38/18
f 11/34/11 13/33/15 16/41/15
f 16/41/16 13/33/16 11/34/12
f 14/36/9 13/42/9 9/24/9
f 9/25/10 13/43/10 14/37/10
f 12/39/13 15/38/17 14/44/17
f 14/44/18 15/38/18 12/39/14
f 17/45/19 16/46/15 13/47/15
f 13/47/16 16/46/16 17/45/20
f 14/36/9 17/48/9 13/42/9
f 13/43/10 17/49/10 14/37/10
f 18/50/21 14/51/17 15/52/17
f 15/52/18 14/51/18 18/50/22
f 16/46/15 17/45/19 19/53/19
f 19/53/20 17/45/20 16/46/16
f 20/54/9 17/48/9 14/36/9
f 14/37/10 17/49/10 20/55/10
f 14/51/17 18/50/21 20/56/21
f 20/56/22 18/50/22 14/51/18
f 21/57/23 19/58/19 17/59/19
f 17/59/20 19/58/20 21/57/24
f 22/60/9 17/48/9 20/54/9
f 20/55/10 17/49/10 22/61/10
f 23/62/25 20/63/21 18/64/21
f 18/64/22 20/63/22 23/62/26
f 19/58/19 21/57/23 24/65/23
f 24/65/24 21/57/24 19/58/20
f 22/60/9 21/66/9 17/48/9
f 17/49/10 21/67/10 22/61/10
f 20/63/21 23/62/25 22/68/25
f 22/68/26 23/62/26 20/63/22
f 25/69/27 24/70/23 21/71/23
f 21/71/24 24/70/24 25/69/28
f 26/72/9 21/66/9 22/60/9
f 22/61/10 21/67/10 26/73/10
f 27/74/29 22/75/25 23/76/25
f 23/76/26 22/75/26 27/74/30
f 24/70/23 25/69/27 28/77/27
f 28/77/28 25/69/28 24/70/24
f 26/72/9 25/78/9 21/66/9
f 21/67/10 25/79/10 26/73/10
f 22/75/25 27/74/29 26/80/29
f 26/80/30 27/74/30 22/75/26
f 29/81/31 28/82/27 25/83/27
f 25/83/28 28/82/28 29/81/32
f 30/84/9 25/78/9 26/72/9
f 26/73/10 25/79/10 30/85/10
f 31/86/33 26/87/29 27/88/29
f 27/88/30 26/87/30 31/86/34
f 28/82/27 29/81/31 32/89/31
f 32/89/32 29/81/32 28/82/28
f 30/84/9 29/90/9 25/78/9
f 25/79/10 29/91/10 30/85/10
f 26/87/29 31/86/33 30/92/33
f 30/92/34 31/86/34 26/87/30
f 29/93/31 33/94/35 32/95/31
f 32/95/32 33/94/36 29/93/32
f 30/84/9 34/96/9 29/90/9
f 29/91/10 34/97/10 30/85/10
f 35/98/37 30/99/33 31/100/33
f 31/100/34 30/99/34 35/98/38
f 33/94/35 29/93/31 34/101/35
f 34/101/36 29/93/32 33/94/36
f 36/102/9 34/96/9 30/84/9
f 30/85/10 34/97/10 36/103/10
f 30/99/33 35/98/37 36/104/37
f 36/104/38 35/98/38 30/99/34
f 34/105/35 37/106/39 33/107/35
f 33/107/36 37/106/40 34/105/36
f 38/108/9 34/96/9 36/102/9
f 36/103/10 34/97/10 38/109/10
f 39/110/41 36/111/37 35/112/37
f 35/112/38 36/111/38 39/110/42
f 37/106/39 34/105/35 40/113/39
f 40/113/40 34/105/36 37/106/40
f 38/108/9 40/114/9 34/96/9
f 34/97/10 40/115/10 38/109/10
f 36/111/37 39/110/41 38/116/41
f 38/116/42 39/110/42 36/111/38
f 40/117/39 41/118/43 37/119/39
f 37/119/40 41/118/44 40/117/40
f 42/120/9 40/114/9 38/108/9
f 38/109/10 40/115/10 42/121/10
f 43/122/45 38/123/41 39/124/41
f 39/124/42 38/123/42 43/122/46
f 41/118/43 40/117/39 44/125/43
f 44/125/44 40/117/40 41/118/44
f 42/120/9 44/126/9 40/114/9
f 40/115/10 44/127/10 42/121/10
f 38/123/41 43/122/45 42/128/45
f 42/128/46 43/122/46 38/123/42
f 44/129/43 45/130/47 41/131/43
f 41/131/44 45/130/48 44/129/44
f 46/132/9 44/126/9 42/120/9
f 42/121/10 44/127/10 46/133/10
f 47/134/49 42/135/45 43/136/45
f 43/136/46 42/135/46 47/134/50
f 45/130/47 44/129/43 48/137/47
f 48/137/48 44/129/44 45/130/48
f 46/132/9 48/138/9 44/126/9
f 44/127/10 48/139/10 46/133/10
f 42/135/45 47/134/49 46/140/49
f 46/140/50 47/134/50 42/135/46
f 48/141/47 49/142/51 45/143/47
f 45/143/48 49/142/52 48/141/48
f 50/144/9 48/138/9 46/132/9
f 46/133/10 48/139/10 50/145/10
f 51/146/53 46/147/49 47/148/49
f 47/148/50 46/147/50 51/146/54
f 49/142/51 48/141/47 52/149/51
f 52/149/52 48/141/48 49/142/52
f 50/144/9 52/150/9 48/138/9
f 48/139/10 52/151/10 50/145/10
f 46/147/49 51/146/53 50/152/53
f 50/152/54 51/146/54 46/147/50
f 52/153/51 53/154/54 49/155/51
f 49/155/52 53/154/53 52/153/52
f 54/156/9 52/150/9 50/144/9
f 50/145/10 52/151/10 54/157/10
f 55/158/52 50/159/53 51/160/53
f 51/160/54 50/159/54 55/158/51
f 53/154/54 52/153/51 56/161/54
f 56/161/53 52/153/52 53/154/53
f 54/156/9 56/162/9 52/150/9
f 52/151/10 56/163/10 54/157/10
f 50/159/53 55/158/52 54/164/52
f 54/164/51 55/158/51 50/159/54
f 56/165/54 57/166/50 53/167/54
f 53/167/53 57/166/49 56/165/53
f 58/168/9 56/162/9 54/156/9
f 54/157/10 56/163/10 58/169/10
f 59/170/48 54/171/52 55/172/52
f 55/172/51 54/171/51 59/170/47
f 57/166/50 56/165/54 60/173/50
f 60/173/49 56/165/53 57/166/49
f 58/168/9 60/174/9 56/162/9
f 56/163/10 60/175/10 58/169/10
f 54/171/52 59/170/48 58/176/48
f 58/176/47 59/170/47 54/171/51
f 60/177/50 61/178/46 57/179/50
f 57/179/49 61/178/45 60/177/49
f 62/180/9 60/174/9 58/168/9
f 58/169/10 60/175/10 62/181/10
f 63/182/44 58/183/48 59/184/48
f 59/184/47 58/183/47 63/182/43
f 61/178/46 60/177/50 64/185/46
f 64/185/45 60/177/49 61/178/45
f 62/180/9 64/186/9 60/174/9
f 60/175/10 64/187/10 62/181/10
f 58/183/48 63/182/44 62/188/44
f 62/188/43 63/182/43 58/183/47
f 64/189/46 65/190/42 61/191/46
f 61/191/45 65/190/41 64/189/45
f 66/192/9 64/186/9 62/180/9
f 62/181/10 64/187/10 66/193/10
f 67/194/40 62/195/44 63/196/44
f 63/196/43 62/195/43 67/194/39
f 65/190/42 64/189/46 68/197/42
f 68/197/41 64/189/45 65/190/41
f 66/192/9 68/198/9 64/186/9
f 64/187/10 68/199/10 66/193/10
f 62/195/44 67/194/40 66/200/40
f 66/200/39 67/194/39 62/195/43
f 68/201/42 69/202/38 65/203/42
f 65/203/41 69/202/37 68/201/41
f 70/204/9 68/198/9 66/192/9
f 66/193/10 68/199/10 70/205/10
f 71/206/36 66/207/40 67/208/40
f 67/208/39 66/207/39 71/206/35
f 69/202/38 68/201/42 72/209/38
f 72/209/37 68/201/41 69/202/37
f 70/204/9 72/210/9 68/198/9
f 68/199/10 72/211/10 70/205/10
f 66/207/40 71/206/36 70/212/36
f 70/212/35 71/206/35 66/207/39
f 72/213/38 73/214/34 69/215/38
f 69/215/37 73/214/33 72/213/37
f 74/216/9 72/210/9 70/204/9
f 70/205/10 72/211/10 74/217/10
f 75/218/32 70/219/36 71/220/36
f 71/220/35 70/219/35 75/218/31
f 73/214/34 72/213/38 76/221/34
f 76/221/33 72/213/37 73/214/33
f 74/216/9 76/222/9 72/210/9
f 72/211/10 76/223/10 74/217/10
f 70/219/36 75/218/32 74/224/32
f 74/224/31 75/218/31 70/219/35
f 77/225/30 73/226/34 76/227/34
f 76/227/33 73/226/33 77/225/29
f 78/228/9 76/222/9 74/216/9
f 74/217/10 76/223/10 78/229/10
f 79/230/28 74/231/32 75/232/32
f 75/232/31 74/231/31 79/230/27
f 73/226/34 77/225/30 80/233/30
f 80/233/29 77/225/29 73/226/33
f 78/228/9 77/234/9 76/222/9
f 76/223/10 77/235/10 78/229/10
f 74/231/32 79/230/28 78/236/28
f 78/236/27 79/230/27 74/231/31
f 81/237/26 80/238/30 77/239/30
f 77/239/29 80/238/29 81/237/25
f 82/240/9 77/234/9 78/228/9
f 78/229/10 77/235/10 82/241/10
f 83/242/24 78/243/28 79/244/28
f 79/244/27 78/243/27 83/242/23
f 80/238/30 81/237/26 84/245/26
f 84/245/25 81/237/25 80/238/29
f 82/240/9 81/246/9 77/234/9
f 77/235/10 81/247/10 82/241/10
f 78/243/28 83/242/24 82/248/24
f 82/248/23 83/242/23 78/243/27
f 85/249/22 84/250/26 81/251/26
f 81/251/25 84/250/25 85/249/21
f 86/252/9 81/246/9 82/240/9
f 82/241/10 81/247/10 86/253/10
f 87/254/20 82/255/24 83/256/24
f 83/256/23 82/255/23 87/254/19
f 84/250/26 85/249/22 88/257/22
f 88/257/21 85/249/21 84/250/25
f 86/252/9 85/258/9 81/246/9
f 81/247/10 85/259/10 86/253/10
f 82/255/24 87/254/20 86/260/20
f 86/260/19 87/254/19 82/255/23
f 89/261/18 88/262/22 85/263/22
f 85/263/21 88/262/21 89/261/17
f 90/264/9 85/258/9 86/252/9
f 86/253/10 85/259/10 90/265/10
f 91/266/16 86/267/20 87/268/20
f 87/268/19 86/267/19 91/266/15
f 88/262/22 89/261/18 92/269/18
f 92/269/17 89/261/17 88/262/21
f 90/264/9 89/270/9 85/258/9
f 85/259/10 89/271/10 90/265/10
f 86/267/20 91/266/16 90/272/16
f 90/272/15 91/266/15 86/267/19
f 93/273/14 92/274/18 89/275/18
f 89/275/17 92/274/17 93/273/13
f 94/276/9 89/270/9 90/264/9
f 90/265/10 89/271/10 94/277/10
f 95/278/12 90/279/16 91/280/16
f 91/280/15 90/279/15 95/278/11
f 92/274/18 93/273/14 96/281/14
f 96/281/13 93/273/13 92/274/17
f 94/276/9 93/282/9 89/270/9
f 89/271/10 93/283/10 94/277/10
f 90/279/16 95/278/12 94/284/12
f 94/284/11 95/278/11 90/279/15
f 97/285/8 96/286/14 93/287/14
f 93/287/13 96/286/13 97/285/7
f 98/288/9 93/282/9 94/276/9
f 94/277/10 93/283/10 98/289/10
f 99/290/6 94/291/12 95/292/12
f 95/292/11 94/291/11 99/290/5
f 96/286/14 97/285/8 100/293/8
f 100/293/7 97/285/7 96/286/13
f 98/288/9 97/294/9 93/282/9
f 93/283/10 97/295/10 98/289/10
f 94/291/12 99/290/6 98/296/6
f 98/296/5 99/290/5 94/291/11
f 101/297/4 100/298/8 97/299/8
f 97/299/7 100/298/7 101/297/1
f 102/300/9 97/294/9 98/288/9
f 98/289/10 97/295/10 102/301/10
f 103/302/3 98/303/6 99/304/6
f 99/304/5 98/303/5 103/302/2
f 100/298/8 101/297/4 104/305/4
f 104/305/1 101/297/1 100/298/7
f 97/294/9 102/300/9 101/306/9
f 101/307/10 102/301/10 97/295/10
f 98/303/6 103/302/3 102/308/3
f 102/308/2 103/302/2 98/303/5
f 102/309/3 104/310/4 101/311/4
f 101/311/1 104/310/1 102/309/2
f 104/310/4 102/309/3 103/312/3
f 103/312/2 102/309/2 104/310/1
