# SSTK version 0.8.0
# 61
mtllib original-61.mtl
o mesh61/mesh61-geometry#mesh61-geometry
v -0.498667 0.005276 0.056576
v -0.499113 0.012384 0.058573
v -0.499113 0.005138 0.057608
v -0.498667 0.012521 0.057541
v -0.499728 0.012253 0.059551
v -0.498396 0.005418 0.055507
v -0.610049 0.012384 0.058573
v -0.499728 0.005008 0.058586
v -0.609434 0.012253 0.059551
v -0.498396 0.012663 0.056472
v -0.610495 0.012521 0.057541
v -0.500500 0.012133 0.060457
v -0.608662 0.012133 0.060457
v -0.498305 0.005563 0.054420
v -0.610495 0.005276 0.056576
v -0.610049 0.005138 0.057608
v -0.500500 0.004888 0.059492
v -0.609434 0.005008 0.058586
v -0.498305 0.012808 0.055385
v -0.610766 0.012663 0.056472
v -0.610766 0.005418 0.055507
v -0.501416 0.012024 0.061276
v -0.607746 0.012024 0.061276
v -0.608662 0.004888 0.059492
v -0.498305 0.014561 -0.013142
v -0.501416 0.004778 0.060311
v -0.607746 0.004778 0.060311
v -0.498305 0.021806 -0.012177
v -0.610857 0.012808 0.055385
v -0.610857 0.005563 0.054420
v -0.502460 0.011928 0.061995
v -0.606702 0.011928 0.061995
v -0.606702 0.004683 0.061030
v -0.498396 0.014705 -0.014230
v -0.502460 0.004683 0.061030
v -0.498396 0.021951 -0.013265
v -0.610857 0.021806 -0.012177
v -0.610857 0.014561 -0.013142
v -0.503615 0.011847 0.062600
v -0.605547 0.011847 0.062600
v -0.605547 0.004602 0.061635
v -0.498667 0.014848 -0.015298
v -0.503615 0.004602 0.061635
v -0.498667 0.022093 -0.014334
v -0.610766 0.021951 -0.013265
v -0.610766 0.014705 -0.014230
v -0.504862 0.011783 0.063082
v -0.604301 0.011783 0.063082
v -0.604301 0.004538 0.062117
v -0.499113 0.014985 -0.016331
v -0.504862 0.004538 0.062117
v -0.499113 0.022230 -0.015366
v -0.610495 0.022093 -0.014334
v -0.610495 0.014848 -0.015298
v -0.506177 0.011736 0.063433
v -0.602985 0.011736 0.063433
v -0.602985 0.004491 0.062468
v -0.499728 0.015115 -0.017308
v -0.506177 0.004491 0.062468
v -0.499728 0.022361 -0.016343
v -0.610049 0.022230 -0.015366
v -0.610049 0.014985 -0.016331
v -0.507540 0.011708 0.063645
v -0.601622 0.011708 0.063645
v -0.601622 0.004463 0.062680
v -0.500500 0.015236 -0.018214
v -0.609434 0.022361 -0.016343
v -0.507540 0.004463 0.062680
v -0.500500 0.022481 -0.017249
v -0.609434 0.015115 -0.017308
v -0.508926 0.011699 0.063717
v -0.600236 0.011699 0.063717
v -0.600236 0.004453 0.062752
v -0.501416 0.015345 -0.019034
v -0.608662 0.022481 -0.017249
v -0.608662 0.015236 -0.018214
v -0.508926 0.004453 0.062752
v -0.501416 0.022590 -0.018069
v -0.502460 0.015441 -0.019752
v -0.607746 0.022590 -0.018069
v -0.502460 0.022686 -0.018787
v -0.607746 0.015345 -0.019034
v -0.503615 0.015522 -0.020358
v -0.606702 0.022686 -0.018787
v -0.503615 0.022767 -0.019393
v -0.606702 0.015441 -0.019752
v -0.504862 0.015586 -0.020840
v -0.605547 0.022767 -0.019393
v -0.504862 0.022831 -0.019875
v -0.605547 0.015522 -0.020358
v -0.506177 0.015632 -0.021190
v -0.604301 0.022831 -0.019875
v -0.506177 0.022878 -0.020225
v -0.602985 0.022878 -0.020225
v -0.604301 0.015586 -0.020840
v -0.507540 0.015661 -0.021403
v -0.507540 0.022906 -0.020438
v -0.602985 0.015632 -0.021190
v -0.508926 0.015670 -0.021474
v -0.601622 0.022906 -0.020438
v -0.508926 0.022915 -0.020509
v -0.601622 0.015661 -0.021403
v -0.600236 0.015670 -0.021474
v -0.600236 0.022915 -0.020509
vt -5.681558 6.435199
vt -5.719153 6.797007
vt -5.702565 6.428203
vt -5.698146 6.804004
vt -5.02134 7.147913
vt -4.984437 6.78534
vt -4.999772 7.154546
vt -6.271367 6.130266
vt -6.309458 6.491522
vt -6.291968 6.123026
vt 0.314781 0.48896
vt 0.272818 0.487893
vt 0.314613 0.487893
vt 1.755565 -17.959199
vt -0.316835 -17.959199
vt 1.763908 -17.906273
vt -5.006005 6.778707
vt 0.273049 0.486882
vt 0.314381 0.486882
vt 1.744086 -18.009327
vt -0.305355 -18.009327
vt -6.288858 6.498762
vt 0.27265 0.48896
vt -0.325178 -17.906273
vt -4.255058 7.503695
vt -4.218999 7.140205
vt -4.232822 7.509852
vt 0.27334 0.485945
vt -0.290936 -18.0558
vt -6.71555 5.912867
vt -6.753902 6.273831
vt -6.735937 5.905504
vt 0.314883 0.490066
vt 1.768971 -17.851455
vt 6.244515 6.247709
vt 6.282109 6.609517
vt 6.261103 6.616514
vt 5.740522 6.552797
vt 5.777426 6.915369
vt 5.755858 6.922002
vt -4.241236 7.134047
vt 0.31409 0.485945
vt 1.729666 -18.0558
vt 5.142395 6.884522
vt 5.178455 7.248012
vt 5.156218 7.25417
vt -6.733514 6.281194
vt 0.272548 0.490066
vt -0.330241 -17.851455
vt 6.265521 6.240713
vt 6.657285 6.369275
vt 6.619194 6.008019
vt 6.639795 6.000779
vt 5.762091 6.546163
vt -3.453721 7.833102
vt -3.418627 7.468589
vt -3.430762 7.838676
vt 0.273685 0.485098
vt -0.273823 -18.097822
vt 5.164632 6.878364
vt -5.621383 6.301575
vt -6.901535 6.212496
vt -6.88351 5.844191
vt 0.314917 0.491191
vt 1.770669 -17.795682
vt 6.636684 6.376515
vt -3.441587 7.463015
vt 0.313745 0.485098
vt 1.712553 -18.097822
vt 4.494664 7.580379
vt 4.50549 7.204718
vt 4.517624 7.574805
vt 4.48253 7.210292
vt -5.639408 6.66988
vt 0.272513 0.491191
vt -0.331939 -17.795682
vt 6.871622 6.231316
vt 6.83327 5.870352
vt 6.853657 5.862989
vt -2.642251 8.116214
vt -2.608228 7.750617
vt -2.618566 8.121108
vt 0.274079 0.484354
vt -0.254309 -18.134674
vt 3.810486 7.502206
vt 3.79714 7.87759
vt 3.786801 7.5071
vt -5.727027 6.269877
vt -5.765379 6.630841
vt -5.747414 6.262514
vt 0.314917 0.561064
vt 1.770669 -14.330915
vt 6.851234 6.238679
vt -2.631913 7.745724
vt 0.313352 0.484354
vt 1.693039 -18.134674
vt 3.820824 7.872696
vt -5.744991 6.638204
vt 0.272513 0.561064
vt -0.331939 -14.330915
vt 6.901535 6.212496
vt 5.621383 6.301575
vt 6.88351 5.844191
vt -1.83703 8.342821
vt -1.804181 7.97611
vt -1.812665 8.346949
vt 0.274514 0.483728
vt -0.232728 -18.165726
vt 3.097953 7.756944
vt 3.082072 8.13191
vt 3.073588 7.761072
vt -5.841982 6.281177
vt -5.880074 6.642433
vt -5.862583 6.273937
vt 0.314883 0.562189
vt 1.768971 -14.275143
vt 5.639408 6.66988
vt -1.828546 7.971982
vt 0.312917 0.483728
vt 1.671459 -18.165726
vt 3.106437 8.127783
vt -5.859473 6.649673
vt 0.272548 0.562189
vt -0.330241 -14.275143
vt 5.647659 6.673356
vt 5.609307 6.312392
vt 5.629694 6.305029
vt -1.047381 8.50942
vt -1.015819 8.141586
vt -1.022422 8.512708
vt 0.274984 0.48323
vt -0.20945 -18.190447
vt 2.379489 7.961922
vt 2.361134 8.336332
vt 2.354531 7.96521
vt -5.805297 6.393988
vt -5.842892 6.755797
vt -5.826304 6.386992
vt 0.314781 0.563295
vt 1.763908 -14.220324
vt 5.627272 6.680719
vt -1.040778 8.138298
vt 0.312447 0.48323
vt 1.648181 -18.190447
vt 2.386093 8.333044
vt -5.821885 6.762793
vt 0.27265 0.563295
vt -0.325178 -14.220324
vt 5.532247 6.76468
vt 5.494156 6.403424
vt 5.514756 6.396184
vt -0.277502 8.616358
vt -0.247353 8.247414
vt -0.252068 8.618749
vt 0.275479 0.482867
vt -0.184873 -18.208413
vt 1.661426 8.114466
vt 1.640707 8.488192
vt 1.635992 8.116857
vt -5.632902 6.585897
vt -5.669806 6.948469
vt -5.65447 6.579263
vt 0.314613 0.564362
vt 1.755565 -14.167398
vt 5.511646 6.77192
vt -0.272787 8.245023
vt 0.311951 0.482867
vt 1.623603 -18.208413
vt 1.666141 8.485801
vt -5.648237 6.955103
vt 0.272818 0.564362
vt -0.316835 -14.167398
vt 5.279935 6.943287
vt 5.24234 6.581479
vt 5.263347 6.574482
vt 0.471736 8.665729
vt 0.500327 8.295704
vt 0.4975 8.667181
vt 0.275993 0.482647
vt -0.159417 -18.219317
vt 0.946362 8.214181
vt 0.923425 8.58711
vt 0.920598 8.215633
vt -5.348278 6.827514
vt -5.384338 7.191004
vt -5.370515 6.821357
vt 0.314381 0.565373
vt 0.273049 0.565373
vt -0.305355 -14.11727
vt 1.744086 -14.11727
vt 5.258928 6.950283
vt 0.474563 8.294252
vt 0.311438 0.482647
vt 1.598147 -18.219317
vt 0.949189 8.585658
vt -5.362101 7.197162
vt 0.31409 0.56631
vt 1.729666 -14.070798
vt 4.876816 6.81844
vt 4.91372 7.181013
vt 4.892152 7.187646
vt 4.898385 6.811807
vt 1.20132 8.660051
vt 1.228195 8.28899
vt 1.227253 8.660538
vt 0.276515 0.482574
vt -0.133518 -18.222972
vt 0.234503 8.261532
vt 0.209511 8.633567
vt 0.208569 8.262019
vt -4.976531 7.090358
vt -5.011624 7.45487
vt -4.99949 7.084784
vt 0.27334 0.56631
vt -0.290936 -14.070798
vt 4.460941 7.446687
vt 4.424882 7.083197
vt 4.447119 7.07704
vt 1.202262 8.288503
vt 0.310916 0.482574
vt 1.572248 -18.222972
vt 0.235445 8.63308
vt -4.988665 7.460444
vt 0.313745 0.567158
vt 1.712553 -14.028776
vt 4.438705 7.452845
vt -0.133518 8.637294
vt 1.572248 8.265738
vt 1.572248 8.637294
vt -0.133518 8.265738
vt -4.540174 7.351437
vt -4.574196 7.717034
vt -4.563858 7.346543
vt 0.273685 0.567158
vt -0.273823 -14.028776
vt 3.924762 7.718741
vt 3.935588 7.34308
vt 3.947722 7.713167
vt -4.550512 7.721927
vt 0.313352 0.567901
vt 1.693039 -13.991923
vt 3.912628 7.348654
vt -4.057104 7.594463
vt -4.089953 7.961175
vt -4.081469 7.590336
vt 0.274079 0.567901
vt -0.254309 -13.991923
vt 3.371939 7.965445
vt 3.385285 7.590061
vt 3.395623 7.960551
vt -4.065588 7.965302
vt 0.312917 0.568527
vt 1.671459 -13.960871
vt 3.361601 7.594955
vt -3.540253 7.808991
vt -3.571815 8.176824
vt -3.565211 7.805702
vt 0.274514 0.568527
vt -0.232728 -13.960871
vt 2.796181 8.18034
vt 2.812062 7.805374
vt 2.820546 8.176213
vt -3.546856 8.180113
vt 0.312447 0.569026
vt 1.648181 -13.936151
vt 2.787698 7.809502
vt -2.998147 7.98879
vt -3.028295 8.357734
vt -3.023581 7.986399
vt 0.274984 0.569026
vt -0.20945 -13.936151
vt 2.208144 8.356489
vt 2.2265 7.982078
vt 2.233103 8.3532
vt -3.002862 8.360125
vt 0.275479 0.569388
vt -0.184873 -13.918185
vt 2.201541 7.985367
vt -2.435818 8.130247
vt -2.464408 8.500273
vt -2.461581 8.128796
vt 0.311951 0.569388
vt 1.623603 -13.918185
vt 1.614223 8.490682
vt 1.634941 8.116956
vt 1.639656 8.488291
vt -2.438645 8.501724
vt 0.311438 0.569608
vt 1.598147 -13.907281
vt 1.609508 8.119347
vt -1.855717 8.231099
vt -1.882593 8.60216
vt -1.881651 8.230612
vt 0.275993 0.569608
vt -0.159417 -13.907281
vt 1.01772 8.581796
vt 1.040657 8.208867
vt 1.043484 8.580344
vt -1.856659 8.602647
vt 0.310916 0.569682
vt 1.572248 -13.903625
vt 1.014893 8.210319
vt 0.133518 8.265738
vt -1.572248 8.637294
vt -1.572248 8.265738
vt 0.276515 0.569682
vt -0.133518 -13.903625
vt 0.419895 8.629618
vt 0.444886 8.257583
vt 0.445828 8.629131
vt 0.133518 8.637294
vt 0.418953 8.25807
vn 0.9474183436372223 -0.04224301532192463 0.31719711505026926
vn 0.8864237032395765 -0.06110397954336873 0.45882384639314305
vn -0.8864237032395765 0.06110397954336873 -0.45882384639314305
vn -0.9474183436372223 0.04224301532192463 -0.31719711505026926
vn 0.8084816930009644 -0.07769097049895721 0.5833707784807399
vn -0.8084816930009644 0.07769097049895721 -0.5833707784807399
vn 0.9865100611517874 -0.021610001339560803 0.1622680100586697
vn -0.9865100611517874 0.021610001339560803 -0.1622680100586697
vn 0 0.9912483778619711 0.13201005032197674
vn 0 -0.9912483778619711 -0.13201005032197674
vn 0.7186580703303975 -0.0917950089833813 0.6892780674551674
vn -0.7186580703303975 0.0917950089833813 -0.6892780674551674
vn 0.9991465633960275 -0.005452997617165981 0.04094398210842543
vn -0.9991465633960275 0.005452997617165981 -0.04094398210842543
vn -0.9474183436372223 -0.04224301532192463 0.31719711505026926
vn -0.8864237032395765 -0.06110397954336873 0.45882384639314305
vn 0.9474183436372223 0.04224301532192463 -0.31719711505026926
vn 0.8864237032395765 0.06110397954336873 -0.45882384639314305
vn -0.8084816930009644 -0.07769097049895721 0.5833707784807399
vn 0.8084816930009644 0.07769097049895721 -0.5833707784807399
vn -0.7186580703303975 -0.0917950089833813 0.6892780674551674
vn 0.7186580703303975 0.0917950089833813 -0.6892780674551674
vn -0.9865100611517874 -0.021610001339560803 0.1622680100586697
vn 0.9865100611517874 0.021610001339560803 -0.1622680100586697
vn 0.6213130245921914 -0.10343800409417973 0.7767050307427625
vn -0.6213130245921914 0.10343800409417973 -0.7767050307427625
vn 0.9991465633960275 0.005452997617165981 -0.04094398210842543
vn -0.9991465633960275 -0.005452997617165981 0.04094398210842543
vn -0.6213130245921914 -0.10343800409417973 0.7767050307427625
vn 0.6213130245921914 0.10343800409417973 -0.7767050307427625
vn 0.5197460603703276 -0.11277901309967785 0.8468440983639116
vn -0.5197460603703276 0.11277901309967785 -0.8468440983639116
vn -0.5197460603703276 -0.11277901309967785 0.8468440983639116
vn 0.5197460603703276 0.11277901309967785 -0.8468440983639116
vn 0.4161851117321915 -0.12003403222524088 0.9013222419757615
vn -0.4161851117321915 0.12003403222524088 -0.9013222419757615
vn -0.4161851117321915 -0.12003403222524088 0.9013222419757615
vn 0.4161851117321915 0.12003403222524088 -0.9013222419757615
vn 0.311967017398869 -0.12542200699497366 0.9417780525243762
vn -0.311967017398869 0.12542200699497366 -0.9417780525243762
vn -0.311967017398869 -0.12542200699497366 0.9417780525243762
vn 0.311967017398869 0.12542200699497366 -0.9417780525243762
vn 0.20776196338756678 -0.12912897724450625 0.9696188291308762
vn -0.20776196338756678 0.12912897724450625 -0.9696188291308762
vn -0.20776196338756678 -0.12912897724450625 0.9696188291308762
vn 0.20776196338756678 0.12912897724450625 -0.9696188291308762
vn 0.10379097794883065 -0.1312969721049765 0.9858947905392799
vn -0.10379097794883065 0.1312969721049765 -0.9858947905392799
vn -0.10379097794883065 -0.1312969721049765 0.9858947905392799
vn 0.10379097794883065 0.1312969721049765 -0.9858947905392799
vn 0.02590898937092997 -0.1319659458614437 0.9909155934804293
vn -0.02590898937092997 0.1319659458614437 -0.9909155934804293
vn -0.02590898937092997 -0.1319659458614437 0.9909155934804293
vn 0.02590898937092997 0.1319659458614437 -0.9909155934804293
usemtl material_0_0
f 1/1/1 2/2/2 3/3/2
f 2/2/2 1/1/1 4/4/1
f 3/3/3 2/2/3 1/1/4
f 4/4/4 1/1/4 2/2/3
f 5/5/5 3/6/2 2/7/2
f 2/7/3 3/6/3 5/5/6
f 6/8/7 4/9/1 1/10/1
f 1/10/4 4/9/4 6/8/8
f 4/11/9 7/12/9 2/13/9
f 2/14/10 7/15/10 4/16/10
f 3/6/2 5/5/5 8/17/5
f 8/17/6 5/5/6 3/6/3
f 2/13/9 9/18/9 5/19/9
f 5/20/10 9/21/10 2/14/10
f 4/9/1 6/8/7 10/22/7
f 10/22/8 6/8/8 4/9/4
f 4/11/9 11/23/9 7/12/9
f 7/15/10 11/24/10 4/16/10
f 2/13/9 7/12/9 9/18/9
f 9/21/10 7/15/10 2/14/10
f 12/25/11 8/26/5 5/27/5
f 5/27/6 8/26/6 12/25/12
f 5/19/9 9/18/9 13/28/9
f 13/29/10 9/21/10 5/20/10
f 14/30/13 10/31/7 6/32/7
f 6/32/8 10/31/8 14/30/14
f 10/33/9 11/23/9 4/11/9
f 4/16/10 11/24/10 10/34/10
f 15/35/15 7/36/16 11/37/15
f 11/37/17 7/36/18 15/35/17
f 16/38/16 9/39/19 7/40/16
f 7/40/18 9/39/20 16/38/18
f 8/26/5 12/25/11 17/41/11
f 17/41/12 12/25/12 8/26/6
f 5/19/9 13/28/9 12/42/9
f 12/43/10 13/29/10 5/20/10
f 18/44/19 13/45/21 9/46/19
f 9/46/20 13/45/22 18/44/20
f 10/31/7 14/30/13 19/47/13
f 19/47/14 14/30/14 10/31/8
f 10/33/9 20/48/9 11/23/9
f 11/24/10 20/49/10 10/34/10
f 7/36/16 15/35/15 16/50/16
f 16/50/18 15/35/17 7/36/18
f 11/51/15 21/52/23 15/53/15
f 15/53/17 21/52/24 11/51/17
f 9/39/19 16/38/16 18/54/19
f 18/54/20 16/38/18 9/39/20
f 22/55/25 17/56/11 12/57/11
f 12/57/12 17/56/12 22/55/26
f 12/42/9 13/28/9 23/58/9
f 23/59/10 13/29/10 12/43/10
f 13/45/21 18/44/19 24/60/21
f 24/60/22 18/44/20 13/45/22
f 25/61/27 19/62/13 14/63/13
f 14/63/14 19/62/14 25/61/28
f 19/64/9 20/48/9 10/33/9
f 10/34/10 20/49/10 19/65/10
f 21/52/23 11/51/15 20/66/23
f 20/66/24 11/51/17 21/52/24
f 17/56/11 22/55/25 26/67/25
f 26/67/26 22/55/26 17/56/12
f 12/42/9 23/58/9 22/68/9
f 22/69/10 23/59/10 12/43/10
f 13/70/21 27/71/29 23/72/29
f 23/72/30 27/71/30 13/70/22
f 27/71/29 13/70/21 24/73/21
f 24/73/22 13/70/22 27/71/30
f 19/62/13 25/61/27 28/74/27
f 28/74/28 25/61/28 19/62/14
f 19/64/9 29/75/9 20/48/9
f 20/49/10 29/76/10 19/65/10
f 20/77/23 30/78/28 21/79/23
f 21/79/24 30/78/27 20/77/24
f 31/80/31 26/81/25 22/82/25
f 22/82/26 26/81/26 31/80/32
f 22/68/9 23/58/9 32/83/9
f 32/84/10 23/59/10 22/69/10
f 33/85/33 23/86/29 27/87/29
f 27/87/30 23/86/30 33/85/34
f 34/88/24 28/89/27 25/90/27
f 25/90/28 28/89/28 34/88/23
f 28/91/9 29/75/9 19/64/9
f 19/65/10 29/76/10 28/92/10
f 30/78/28 20/77/23 29/93/28
f 29/93/27 20/77/24 30/78/27
f 26/81/25 31/80/31 35/94/31
f 35/94/32 31/80/32 26/81/26
f 22/68/9 32/83/9 31/95/9
f 31/96/10 32/84/10 22/69/10
f 23/86/29 33/85/33 32/97/33
f 32/97/34 33/85/34 23/86/30
f 28/89/27 34/88/24 36/98/24
f 36/98/23 34/88/23 28/89/28
f 28/91/9 37/99/9 29/75/9
f 29/76/10 37/100/10 28/92/10
f 29/101/28 38/102/14 30/103/28
f 30/103/27 38/102/13 29/101/27
f 39/104/35 35/105/31 31/106/31
f 31/106/32 35/105/32 39/104/36
f 31/95/9 32/83/9 40/107/9
f 40/108/10 32/84/10 31/96/10
f 41/109/37 32/110/33 33/111/33
f 33/111/34 32/110/34 41/109/38
f 42/112/17 36/113/24 34/114/24
f 34/114/23 36/113/23 42/112/15
f 36/115/9 37/99/9 28/91/9
f 28/92/10 37/100/10 36/116/10
f 38/102/14 29/101/28 37/117/14
f 37/117/13 29/101/27 38/102/13
f 35/105/31 39/104/35 43/118/35
f 43/118/36 39/104/36 35/105/32
f 31/95/9 40/107/9 39/119/9
f 39/120/10 40/108/10 31/96/10
f 32/110/33 41/109/37 40/121/37
f 40/121/38 41/109/38 32/110/34
f 36/113/24 42/112/17 44/122/17
f 44/122/15 42/112/15 36/113/23
f 36/115/9 45/123/9 37/99/9
f 37/100/10 45/124/10 36/116/10
f 37/125/14 46/126/8 38/127/14
f 38/127/13 46/126/7 37/125/13
f 47/128/39 43/129/35 39/130/35
f 39/130/36 43/129/36 47/128/40
f 39/119/9 40/107/9 48/131/9
f 48/132/10 40/108/10 39/120/10
f 49/133/41 40/134/37 41/135/37
f 41/135/38 40/134/38 49/133/42
f 50/136/18 44/137/17 42/138/17
f 42/138/15 44/137/15 50/136/16
f 44/139/9 45/123/9 36/115/9
f 36/116/10 45/124/10 44/140/10
f 46/126/8 37/125/14 45/141/8
f 45/141/7 37/125/13 46/126/7
f 43/129/35 47/128/39 51/142/39
f 51/142/40 47/128/40 43/129/36
f 39/119/9 48/131/9 47/143/9
f 47/144/10 48/132/10 39/120/10
f 40/134/37 49/133/41 48/145/41
f 48/145/42 49/133/42 40/134/38
f 44/137/17 50/136/18 52/146/18
f 52/146/16 50/136/16 44/137/15
f 44/139/9 53/147/9 45/123/9
f 45/124/10 53/148/10 44/140/10
f 45/149/8 54/150/4 46/151/8
f 46/151/7 54/150/1 45/149/7
f 55/152/43 51/153/39 47/154/39
f 47/154/40 51/153/40 55/152/44
f 47/143/9 48/131/9 56/155/9
f 56/156/10 48/132/10 47/144/10
f 57/157/45 48/158/41 49/159/41
f 49/159/42 48/158/42 57/157/46
f 58/160/20 52/161/18 50/162/18
f 50/162/16 52/161/16 58/160/19
f 52/163/9 53/147/9 44/139/9
f 44/140/10 53/148/10 52/164/10
f 54/150/4 45/149/8 53/165/4
f 53/165/1 45/149/7 54/150/1
f 51/153/39 55/152/43 59/166/43
f 59/166/44 55/152/44 51/153/40
f 47/143/9 56/155/9 55/167/9
f 55/168/10 56/156/10 47/144/10
f 48/158/41 57/157/45 56/169/45
f 56/169/46 57/157/46 48/158/42
f 52/161/18 58/160/20 60/170/20
f 60/170/19 58/160/19 52/161/16
f 52/163/9 61/171/9 53/147/9
f 53/148/10 61/172/10 52/164/10
f 53/173/4 62/174/3 54/175/4
f 54/175/1 62/174/2 53/173/1
f 63/176/47 59/177/43 55/178/43
f 55/178/44 59/177/44 63/176/48
f 55/167/9 56/155/9 64/179/9
f 64/180/10 56/156/10 55/168/10
f 65/181/49 56/182/45 57/183/45
f 57/183/46 56/182/46 65/181/50
f 66/184/22 60/185/20 58/186/20
f 58/186/19 60/185/19 66/184/21
f 60/187/9 67/188/9 52/163/9
f 52/164/10 67/189/10 60/190/10
f 52/163/9 67/188/9 61/171/9
f 61/172/10 67/189/10 52/164/10
f 62/174/3 53/173/4 61/191/3
f 61/191/2 53/173/1 62/174/2
f 59/177/43 63/176/47 68/192/47
f 68/192/48 63/176/48 59/177/44
f 55/167/9 64/179/9 63/193/9
f 63/194/10 64/180/10 55/168/10
f 56/182/45 65/181/49 64/195/49
f 64/195/50 65/181/50 56/182/46
f 60/185/20 66/184/22 69/196/22
f 69/196/21 66/184/21 60/185/19
f 69/197/9 67/188/9 60/187/9
f 60/190/10 67/189/10 69/198/10
f 70/199/6 61/200/3 67/201/6
f 67/201/5 61/200/2 70/199/5
f 61/200/3 70/199/6 62/202/3
f 62/202/2 70/199/5 61/200/2
f 71/203/51 68/204/47 63/205/47
f 63/205/48 68/204/48 71/203/52
f 63/193/9 64/179/9 72/206/9
f 72/207/10 64/180/10 63/194/10
f 73/208/53 64/209/49 65/210/49
f 65/210/50 64/209/50 73/208/54
f 74/211/30 69/212/22 66/213/22
f 66/213/21 69/212/21 74/211/29
f 69/197/9 75/214/9 67/188/9
f 67/189/10 75/215/10 69/198/10
f 67/216/6 76/217/12 70/218/6
f 70/218/5 76/217/11 67/216/5
f 68/204/47 71/203/51 77/219/51
f 77/219/52 71/203/52 68/204/48
f 63/193/9 72/206/9 71/220/9
f 71/221/10 72/207/10 63/194/10
f 64/209/49 73/208/53 72/222/53
f 72/222/54 73/208/54 64/209/50
f 69/212/22 74/211/30 78/223/30
f 78/223/29 74/211/29 69/212/21
f 78/224/9 75/214/9 69/197/9
f 69/198/10 75/215/10 78/225/10
f 76/217/12 67/216/6 75/226/12
f 75/226/11 67/216/5 76/217/11
f 72/227/53 77/228/51 71/229/51
f 71/229/52 77/228/52 72/227/54
f 77/228/51 72/227/53 73/230/53
f 73/230/54 72/227/54 77/228/52
f 79/231/34 78/232/30 74/233/30
f 74/233/29 78/232/29 79/231/33
f 78/224/9 80/234/9 75/214/9
f 75/215/10 80/235/10 78/225/10
f 80/236/26 76/237/12 75/238/12
f 75/238/11 76/237/11 80/236/25
f 78/232/30 79/231/34 81/239/34
f 81/239/33 79/231/33 78/232/29
f 81/240/9 80/234/9 78/224/9
f 78/225/10 80/235/10 81/241/10
f 76/237/12 80/236/26 82/242/26
f 82/242/25 80/236/25 76/237/11
f 83/243/38 81/244/34 79/245/34
f 79/245/33 81/244/33 83/243/37
f 81/240/9 84/246/9 80/234/9
f 80/235/10 84/247/10 81/241/10
f 84/248/32 82/249/26 80/250/26
f 80/250/25 82/249/25 84/248/31
f 81/244/34 83/243/38 85/251/38
f 85/251/37 83/243/37 81/244/33
f 85/252/9 84/246/9 81/240/9
f 81/241/10 84/247/10 85/253/10
f 82/249/26 84/248/32 86/254/32
f 86/254/31 84/248/31 82/249/25
f 87/255/42 85/256/38 83/257/38
f 83/257/37 85/256/37 87/255/41
f 85/252/9 88/258/9 84/246/9
f 84/247/10 88/259/10 85/253/10
f 88/260/36 86/261/32 84/262/32
f 84/262/31 86/261/31 88/260/35
f 85/256/38 87/255/42 89/263/42
f 89/263/41 87/255/41 85/256/37
f 89/264/9 88/258/9 85/252/9
f 85/253/10 88/259/10 89/265/10
f 86/261/32 88/260/36 90/266/36
f 90/266/35 88/260/35 86/261/31
f 91/267/46 89/268/42 87/269/42
f 87/269/41 89/268/41 91/267/45
f 89/264/9 92/270/9 88/258/9
f 88/259/10 92/271/10 89/265/10
f 92/272/40 90/273/36 88/274/36
f 88/274/35 90/273/35 92/272/39
f 89/268/42 91/267/46 93/275/46
f 93/275/45 91/267/45 89/268/41
f 89/264/9 94/276/9 92/270/9
f 92/271/10 94/277/10 89/265/10
f 90/273/36 92/272/40 95/278/40
f 95/278/39 92/272/39 90/273/35
f 96/279/50 93/280/46 91/281/46
f 91/281/45 93/280/45 96/279/49
f 93/282/9 94/276/9 89/264/9
f 89/265/10 94/277/10 93/283/10
f 94/284/44 95/285/40 92/286/40
f 92/286/39 95/285/39 94/284/43
f 93/280/46 96/279/50 97/287/50
f 97/287/49 96/279/49 93/280/45
f 97/288/9 94/276/9 93/282/9
f 93/283/10 94/277/10 97/289/10
f 95/285/40 94/284/44 98/290/44
f 98/290/43 94/284/43 95/285/39
f 99/291/54 97/292/50 96/293/50
f 96/293/49 97/292/49 99/291/53
f 97/288/9 100/294/9 94/276/9
f 94/277/10 100/295/10 97/289/10
f 100/296/48 98/297/44 94/298/44
f 94/298/43 98/297/43 100/296/47
f 97/292/50 99/291/54 101/299/54
f 101/299/53 99/291/53 97/292/49
f 101/300/9 100/294/9 97/288/9
f 97/289/10 100/295/10 101/301/10
f 98/297/44 100/296/48 102/302/48
f 102/302/47 100/296/47 98/297/43
f 103/303/52 101/304/54 99/305/54
f 99/305/53 101/304/53 103/303/51
f 100/294/9 101/300/9 104/306/9
f 104/307/10 101/301/10 100/295/10
f 104/308/52 102/309/48 100/310/48
f 100/310/47 102/309/47 104/308/51
f 101/304/54 103/303/52 104/311/52
f 104/311/51 103/303/51 101/304/53
f 102/309/48 104/308/52 103/312/52
f 103/312/51 104/308/51 102/309/47
