# SSTK version 0.8.0
# 44
mtllib original-44.mtl
o mesh44/mesh44-geometry#mesh44-geometry
v 0.338572 0.027925 -0.113497
v 0.339186 0.035041 -0.111555
v 0.339186 0.027795 -0.112520
v 0.338572 0.035171 -0.112532
v 0.339633 0.034903 -0.110523
v 0.337800 0.028046 -0.114403
v 0.228251 0.035041 -0.111555
v 0.339633 0.027658 -0.111488
v 0.227804 0.034903 -0.110523
v 0.337800 0.035291 -0.113438
v 0.228865 0.035171 -0.112532
v 0.339904 0.034761 -0.109454
v 0.227533 0.034761 -0.109454
v 0.336884 0.028155 -0.115223
v 0.228865 0.027925 -0.113497
v 0.228251 0.027795 -0.112520
v 0.339904 0.027515 -0.110419
v 0.227804 0.027658 -0.111488
v 0.336884 0.035400 -0.114258
v 0.229637 0.035291 -0.113438
v 0.229637 0.028046 -0.114403
v 0.339995 0.034616 -0.108366
v 0.227442 0.034616 -0.108366
v 0.227533 0.027515 -0.110419
v 0.335839 0.028251 -0.115941
v 0.339995 0.027371 -0.109331
v 0.335839 0.035496 -0.114976
v 0.230553 0.035400 -0.114258
v 0.339995 0.025618 -0.040804
v 0.227442 0.025618 -0.040804
v 0.227442 0.027371 -0.109331
v 0.334684 0.028332 -0.116547
v 0.230553 0.028155 -0.115223
v 0.339995 0.018373 -0.041769
v 0.334684 0.035577 -0.115582
v 0.231598 0.035496 -0.114976
v 0.339904 0.025473 -0.039717
v 0.227533 0.025473 -0.039717
v 0.227442 0.018373 -0.041769
v 0.333438 0.028396 -0.117029
v 0.231598 0.028251 -0.115941
v 0.339904 0.018228 -0.040682
v 0.333438 0.035641 -0.116064
v 0.232753 0.035577 -0.115582
v 0.339633 0.025331 -0.038648
v 0.227804 0.025331 -0.038648
v 0.227533 0.018228 -0.040682
v 0.332122 0.028442 -0.117379
v 0.232753 0.028332 -0.116547
v 0.339633 0.018086 -0.039613
v 0.332122 0.035688 -0.116414
v 0.233999 0.035641 -0.116064
v 0.339186 0.025194 -0.037616
v 0.228251 0.025194 -0.037616
v 0.227804 0.018086 -0.039613
v 0.330760 0.028471 -0.117592
v 0.233999 0.028396 -0.117029
v 0.339186 0.017948 -0.038581
v 0.330760 0.035716 -0.116627
v 0.235315 0.035688 -0.116414
v 0.338572 0.025063 -0.036638
v 0.228865 0.025063 -0.036638
v 0.228251 0.017948 -0.038581
v 0.329373 0.028480 -0.117663
v 0.235315 0.028442 -0.117379
v 0.338572 0.017818 -0.037603
v 0.329373 0.035725 -0.116698
v 0.236677 0.035716 -0.116627
v 0.337800 0.024943 -0.035732
v 0.228865 0.017818 -0.037603
v 0.238064 0.028480 -0.117663
v 0.236677 0.028471 -0.117592
v 0.337800 0.017698 -0.036697
v 0.229637 0.024943 -0.035732
v 0.238064 0.035725 -0.116698
v 0.336884 0.024834 -0.034913
v 0.230553 0.024834 -0.034913
v 0.229637 0.017698 -0.036697
v 0.336884 0.017588 -0.035878
v 0.230553 0.017588 -0.035878
v 0.335839 0.024738 -0.034194
v 0.231598 0.024738 -0.034194
v 0.231598 0.017493 -0.035159
v 0.335839 0.017493 -0.035159
v 0.334684 0.024657 -0.033589
v 0.232753 0.024657 -0.033589
v 0.232753 0.017412 -0.034554
v 0.334684 0.017412 -0.034554
v 0.333438 0.024593 -0.033107
v 0.233999 0.017348 -0.034072
v 0.333438 0.017348 -0.034072
v 0.233999 0.024593 -0.033107
v 0.332122 0.024546 -0.032756
v 0.235315 0.024546 -0.032756
v 0.235315 0.017301 -0.033721
v 0.332122 0.017301 -0.033721
v 0.330760 0.024518 -0.032544
v 0.236677 0.024518 -0.032544
v 0.236677 0.017273 -0.033509
v 0.330760 0.017273 -0.033509
v 0.329373 0.024509 -0.032472
v 0.238064 0.024509 -0.032472
v 0.238064 0.017263 -0.033437
v 0.329373 0.017263 -0.033437
vt -12.334 4.524888
vt -12.370904 4.88746
vt -12.355569 4.518255
vt -12.349336 4.894094
vt -10.316942 5.265734
vt -10.279347 4.903926
vt -10.295935 5.272731
vt -14.021323 4.425999
vt -14.057383 4.789489
vt -14.04356 4.419841
vt 0.63021 0.664854
vt 0.588647 0.663843
vt 0.630441 0.663843
vt 17.41593 -9.234535
vt 15.34353 -9.234535
vt 17.404451 -9.184407
vt -10.300354 4.89693
vt 0.588478 0.662775
vt 0.63061 0.662775
vt 17.424273 -9.287461
vt 15.335188 -9.287461
vt -14.035146 4.795647
vt 0.588878 0.664854
vt 15.35501 -9.184407
vt -7.922502 5.924603
vt -7.88441 5.563347
vt -7.901901 5.931843
vt 0.588376 0.66167
vt 15.330124 -9.34228
vt -15.347293 4.57252
vt -15.382387 4.937033
vt -15.370252 4.566946
vt 0.629919 0.665791
vt 17.390031 -9.137934
vt -4.881844 9.819841
vt -4.84494 10.182413
vt -4.866508 10.189047
vt -2.539005 9.173021
vt -2.50141 9.534829
vt -2.522417 9.541825
vt -7.905011 5.556107
vt 0.630712 0.66167
vt 17.429336 -9.34228
vt -0.035501 8.346873
vt 0.00259 8.708129
vt -0.01801 8.715369
vt -15.359427 4.942607
vt 0.589169 0.665791
vt 15.369429 -9.137934
vt -4.860276 9.813207
vt -6.968076 10.611315
vt -7.004135 10.247824
vt -6.981899 10.241667
vt -2.517998 9.166024
vt -5.255849 6.81486
vt -5.217497 6.453896
vt -5.235462 6.822223
vt 0.588342 0.660545
vt 15.328427 -9.398052
vt -0.0149 8.339633
vt -16.338158 4.913727
vt -16.372181 5.279324
vt -16.361843 4.908834
vt 0.629574 0.666638
vt 17.372918 -9.095912
vt -6.990313 10.617472
vt -5.237884 6.446533
vt 0.630746 0.660545
vt 17.431034 -9.398052
vt 2.537051 7.421952
vt 2.575403 7.782916
vt 2.555016 7.790279
vt -16.348497 5.284217
vt 0.589514 0.666638
vt 15.386543 -9.095912
vt -8.865319 10.823946
vt -8.854494 10.448285
vt -8.84236 10.818372
vt -5.104618 6.863683
vt -3.824465 6.952762
vt -3.84249 7.321067
vt 0.588342 0.590671
vt 15.328427 -12.862819
vt 2.557439 7.414589
vt -17.028658 5.397076
vt -17.061506 5.763787
vt -17.053022 5.392949
vt 0.629181 0.667382
vt 17.353404 -9.05906
vt -8.877453 10.45386
vt -5.086592 6.495378
vt 0.630746 0.590671
vt 17.431034 -12.862819
vt 3.824465 6.952762
vt 5.104618 6.863683
vt 3.84249 7.321067
vt -17.037142 5.767915
vt 0.589908 0.667382
vt 15.406056 -9.05906
vt -10.487263 10.829046
vt -10.473917 10.453662
vt -10.463578 10.824152
vt -3.681646 7.383391
vt -3.643294 7.022427
vt -3.661259 7.390754
vt 0.588376 0.589547
vt 15.330124 -12.918591
vt 5.086592 6.495378
vt -17.453651 5.975895
vt -17.485213 6.343729
vt -17.47861 5.972607
vt 0.628745 0.668008
vt 17.331824 -9.028008
vt -10.497601 10.458555
vt -3.663681 7.015064
vt 0.630712 0.589547
vt 17.429336 -12.918591
vt 6.32374 6.054371
vt 6.362092 6.415335
vt 6.341705 6.422698
vt -17.460254 6.347017
vt 0.590343 0.668008
vt 15.427637 -9.028008
vt -11.866875 10.664269
vt -11.850994 10.289303
vt -11.84251 10.660142
vt -0.779802 8.434971
vt -0.741711 8.073715
vt -0.759201 8.442211
vt 0.588478 0.588441
vt 15.335188 -12.97341
vt 6.344127 6.047008
vt -17.643255 6.611886
vt -17.673404 6.98083
vt -17.668689 6.609495
vt 0.628276 0.668506
vt 17.308546 -9.003288
vt -11.875358 10.293431
vt -0.762311 8.066475
vt 0.63061 0.588441
vt 17.424273 -12.97341
vt 8.661622 5.290189
vt 8.699713 5.651444
vt 8.679112 5.658685
vt -17.64797 6.983221
vt 0.590812 0.668506
vt 15.450915 -9.003288
vt -13.021816 10.363042
vt -13.003461 9.988631
vt -12.996857 10.359753
vt 2.062192 9.388549
vt 2.099787 9.026741
vt 2.083199 9.395546
vt 0.588647 0.587374
vt 15.34353 -13.026336
vt 8.682223 5.282948
vt -17.620546 7.274561
vt -17.649137 7.644587
vt -17.64631 7.27311
vt 0.62778 0.668869
vt 17.283968 -8.985322
vt -13.028419 9.99192
vt 2.07878 9.019745
vt 0.630441 0.587374
vt 17.41593 -13.026336
vt 10.718565 4.757646
vt 10.75616 5.119455
vt 10.735153 5.126451
vt -17.623373 7.646039
vt 0.591308 0.668869
vt 15.475492 -8.985322
vt -13.970933 9.955968
vt -13.950215 9.582241
vt -13.9455 9.953577
vt 4.73732 10.149313
vt 4.774223 9.786741
vt 4.758888 10.155947
vt 0.588878 0.586363
vt 15.35501 -13.076464
vt 10.739572 4.75065
vt -17.400786 7.93929
vt -17.427662 8.310351
vt -17.42672 7.938803
vt 0.627267 0.669089
vt 17.258513 -8.974418
vt -13.975648 9.584633
vt 4.752655 9.780107
vt 0.63021 0.586363
vt 17.404451 -13.076464
vt 12.441621 4.491788
vt 12.478524 4.85436
vt 12.456956 4.860994
vt -17.401728 8.310838
vt 0.591821 0.669089
vt 15.500948 -8.974418
vt -14.730662 9.469245
vt -14.707726 9.096316
vt -14.704898 9.467793
vt 7.173959 10.668323
vt 7.210018 10.304832
vt 7.196196 10.67448
vt 0.629919 0.585426
vt 17.390031 -13.122937
vt 12.463189 4.485154
vt -15.526847 8.265738
vt -17.232613 8.637294
vt -17.232613 8.265738
vt 0.626744 0.669162
vt 17.232613 -8.970762
vt -14.733489 9.097768
vt 7.187782 10.298675
vt 0.589169 0.585426
vt 15.369429 -13.122937
vt 13.81544 4.483006
vt 13.8515 4.846497
vt 13.829263 4.852654
vt -15.526847 8.637294
vt 0.592344 0.669162
vt 15.526847 -8.970762
vt -15.312974 8.924953
vt -15.287982 8.552918
vt -15.28704 8.924466
vt 9.33636 10.938307
vt 9.371454 10.573794
vt 9.35932 10.943881
vt 0.589514 0.584578
vt 15.386543 -13.164959
vt 13.837677 4.476849
vt -15.313916 8.553405
vt 9.348495 10.56822
vt 0.629574 0.584578
vt 17.372918 -13.164959
vt 14.865427 5.062542
vt 14.876252 4.686881
vt 14.888386 5.056968
vt 14.853292 4.692455
vt 11.216951 10.979814
vt 11.250974 10.614218
vt 11.240635 10.984708
vt 0.589908 0.583835
vt 15.406056 -13.201811
vt 15.608471 5.064496
vt 15.595124 5.43988
vt 15.584786 5.06939
vt 11.227289 10.609324
vt 0.629181 0.583835
vt 17.353404 -13.201811
vt 15.618809 5.434986
vt 12.826026 10.82675
vt 12.858875 10.460039
vt 12.850391 10.830878
vt 0.590343 0.583209
vt 15.427637 -13.232863
vt 16.069506 5.559557
vt 16.053625 5.934523
vt 16.045142 5.563684
vt 12.83451 10.455911
vt 0.628745 0.583209
vt 17.331824 -13.232863
vt 16.07799 5.930395
vt 14.182579 10.515973
vt 14.214141 10.148139
vt 14.207538 10.519261
vt 0.628276 0.58271
vt 17.308546 -13.257584
vt 16.292887 6.128826
vt 16.274532 6.503236
vt 16.267929 6.132114
vt 14.189183 10.144851
vt 0.590812 0.58271
vt 15.450915 -13.257584
vt 16.299491 6.499948
vt 15.307654 10.081644
vt 15.337803 9.7127
vt 15.333088 10.084035
vt 0.591308 0.582348
vt 15.475492 -13.27555
vt 16.306534 6.737562
vt 16.285815 7.111288
vt 16.281101 6.739953
vt 15.312369 9.710309
vt 0.62778 0.582348
vt 17.283968 -13.27555
vt 16.311249 7.108897
vt 16.220118 9.553178
vt 16.248709 9.183153
vt 16.245882 9.55463
vt 0.591821 0.582128
vt 15.500948 -13.286454
vt 16.13109 7.358495
vt 16.108154 7.731424
vt 16.105327 7.359947
vt 16.222945 9.181701
vt 0.627267 0.582128
vt 17.258513 -13.286454
vt 16.133917 7.729972
vt 16.934188 8.955386
vt 16.961064 8.584325
vt 16.960122 8.955873
vt 0.592344 0.582054
vt 15.526847 -13.290109
vt 15.779572 7.969723
vt 15.75458 8.341758
vt 15.753638 7.97021
vt 16.93513 8.583838
vt 0.626744 0.582054
vt 17.232613 -13.290109
vt 15.780514 8.341271
vt 15.526847 8.637294
vt 17.232613 8.265738
vt 17.232613 8.637294
vt 15.526847 8.265738
vn 0.8084816930009644 0.07769097049895721 -0.5833707784807399
vn 0.8864237032395765 0.06110397954336873 -0.45882384639314305
vn -0.8864237032395765 -0.06110397954336873 0.45882384639314305
vn -0.8084816930009644 -0.07769097049895721 0.5833707784807399
vn 0.9474183436372223 0.04224301532192463 -0.31719711505026926
vn -0.9474183436372223 -0.04224301532192463 0.31719711505026926
vn 0.7186580703303975 0.0917950089833813 -0.6892780674551674
vn -0.7186580703303975 -0.0917950089833813 0.6892780674551674
vn 0 0.9912483778619711 0.13201005032197674
vn 0 -0.9912483778619711 -0.13201005032197674
vn 0.9865100611517874 0.021610001339560803 -0.1622680100586697
vn -0.9865100611517874 -0.021610001339560803 0.1622680100586697
vn 0.6213130245921914 0.10343800409417973 -0.7767050307427625
vn -0.6213130245921914 -0.10343800409417973 0.7767050307427625
vn -0.8084816930009644 0.07769097049895721 -0.5833707784807399
vn -0.8864237032395765 0.06110397954336873 -0.45882384639314305
vn 0.8084816930009644 -0.07769097049895721 0.5833707784807399
vn 0.8864237032395765 -0.06110397954336873 0.45882384639314305
vn -0.9474183436372223 0.04224301532192463 -0.31719711505026926
vn 0.9474183436372223 -0.04224301532192463 0.31719711505026926
vn -0.9865100611517874 0.021610001339560803 -0.1622680100586697
vn 0.9865100611517874 -0.021610001339560803 0.1622680100586697
vn -0.7186580703303975 0.0917950089833813 -0.6892780674551674
vn 0.7186580703303975 -0.0917950089833813 0.6892780674551674
vn 0.9991465633960275 0.005452997617165981 -0.04094398210842543
vn -0.9991465633960275 -0.005452997617165981 0.04094398210842543
vn 0.5197460603703276 0.11277901309967785 -0.8468440983639116
vn -0.5197460603703276 -0.11277901309967785 0.8468440983639116
vn -0.9991465633960275 0.005452997617165981 -0.04094398210842543
vn 0.9991465633960275 -0.005452997617165981 0.04094398210842543
vn -0.6213130245921914 0.10343800409417973 -0.7767050307427625
vn 0.6213130245921914 -0.10343800409417973 0.7767050307427625
vn 0.4161851117321915 0.12003403222524088 -0.9013222419757615
vn -0.4161851117321915 -0.12003403222524088 0.9013222419757615
vn -0.5197460603703276 0.11277901309967785 -0.8468440983639116
vn 0.5197460603703276 -0.11277901309967785 0.8468440983639116
vn 0.311967017398869 0.12542200699497366 -0.9417780525243762
vn -0.311967017398869 -0.12542200699497366 0.9417780525243762
vn -0.4161851117321915 0.12003403222524088 -0.9013222419757615
vn 0.4161851117321915 -0.12003403222524088 0.9013222419757615
vn 0.20776196338756678 0.12912897724450625 -0.9696188291308762
vn -0.20776196338756678 -0.12912897724450625 0.9696188291308762
vn -0.311967017398869 0.12542200699497366 -0.9417780525243762
vn 0.311967017398869 -0.12542200699497366 0.9417780525243762
vn 0.10379097794883065 0.1312969721049765 -0.9858947905392799
vn -0.10379097794883065 -0.1312969721049765 0.9858947905392799
vn -0.20776196338756678 0.12912897724450625 -0.9696188291308762
vn 0.20776196338756678 -0.12912897724450625 0.9696188291308762
vn 0.02590898937092997 0.1319659458614437 -0.9909155934804293
vn -0.02590898937092997 -0.1319659458614437 0.9909155934804293
vn -0.10379097794883065 0.1312969721049765 -0.9858947905392799
vn 0.10379097794883065 -0.1312969721049765 0.9858947905392799
vn -0.02590898937092997 0.1319659458614437 -0.9909155934804293
vn 0.02590898937092997 -0.1319659458614437 0.9909155934804293
usemtl material_0_0
f 1/1/1 2/2/2 3/3/2
f 2/2/2 1/1/1 4/4/1
f 3/3/3 2/2/3 1/1/4
f 4/4/4 1/1/4 2/2/3
f 5/5/5 3/6/2 2/7/2
f 2/7/3 3/6/3 5/5/6
f 6/8/7 4/9/1 1/10/1
f 1/10/4 4/9/4 6/8/8
f 4/11/9 7/12/9 2/13/9
f 2/14/10 7/15/10 4/16/10
f 3/6/2 5/5/5 8/17/5
f 8/17/6 5/5/6 3/6/3
f 2/13/9 9/18/9 5/19/9
f 5/20/10 9/21/10 2/14/10
f 4/9/1 6/8/7 10/22/7
f 10/22/8 6/8/8 4/9/4
f 4/11/9 11/23/9 7/12/9
f 7/15/10 11/24/10 4/16/10
f 2/13/9 7/12/9 9/18/9
f 9/21/10 7/15/10 2/14/10
f 12/25/11 8/26/5 5/27/5
f 5/27/6 8/26/6 12/25/12
f 5/19/9 9/18/9 13/28/9
f 13/29/10 9/21/10 5/20/10
f 14/30/13 10/31/7 6/32/7
f 6/32/8 10/31/8 14/30/14
f 10/33/9 11/23/9 4/11/9
f 4/16/10 11/24/10 10/34/10
f 15/35/15 7/36/16 11/37/15
f 11/37/17 7/36/18 15/35/17
f 16/38/16 9/39/19 7/40/16
f 7/40/18 9/39/20 16/38/18
f 8/26/5 12/25/11 17/41/11
f 17/41/12 12/25/12 8/26/6
f 5/19/9 13/28/9 12/42/9
f 12/43/10 13/29/10 5/20/10
f 18/44/19 13/45/21 9/46/19
f 9/46/20 13/45/22 18/44/20
f 10/31/7 14/30/13 19/47/13
f 19/47/14 14/30/14 10/31/8
f 10/33/9 20/48/9 11/23/9
f 11/24/10 20/49/10 10/34/10
f 7/36/16 15/35/15 16/50/16
f 16/50/18 15/35/17 7/36/18
f 11/51/15 21/52/23 15/53/15
f 15/53/17 21/52/24 11/51/17
f 9/39/19 16/38/16 18/54/19
f 18/54/20 16/38/18 9/39/20
f 22/55/25 17/56/11 12/57/11
f 12/57/12 17/56/12 22/55/26
f 12/42/9 13/28/9 23/58/9
f 23/59/10 13/29/10 12/43/10
f 13/45/21 18/44/19 24/60/21
f 24/60/22 18/44/20 13/45/22
f 25/61/27 19/62/13 14/63/13
f 14/63/14 19/62/14 25/61/28
f 19/64/9 20/48/9 10/33/9
f 10/34/10 20/49/10 19/65/10
f 21/52/23 11/51/15 20/66/23
f 20/66/24 11/51/17 21/52/24
f 17/56/11 22/55/25 26/67/25
f 26/67/26 22/55/26 17/56/12
f 12/42/9 23/58/9 22/68/9
f 22/69/10 23/59/10 12/43/10
f 24/70/21 23/71/29 13/72/21
f 13/72/22 23/71/30 24/70/22
f 19/62/13 25/61/27 27/73/27
f 27/73/28 25/61/28 19/62/14
f 19/64/9 28/74/9 20/48/9
f 20/49/10 28/75/10 19/65/10
f 28/76/31 21/77/23 20/78/23
f 20/78/24 21/77/24 28/76/32
f 29/79/30 26/80/25 22/81/25
f 22/81/26 26/80/26 29/79/29
f 22/68/9 23/58/9 30/82/9
f 30/83/10 23/59/10 22/69/10
f 23/71/29 24/70/21 31/84/29
f 31/84/30 24/70/22 23/71/30
f 32/85/33 27/86/27 25/87/27
f 25/87/28 27/86/28 32/85/34
f 27/88/9 28/74/9 19/64/9
f 19/65/10 28/75/10 27/89/10
f 21/77/23 28/76/31 33/90/31
f 33/90/32 28/76/32 21/77/24
f 26/80/25 29/79/30 34/91/30
f 34/91/29 29/79/29 26/80/26
f 22/68/9 30/82/9 29/92/9
f 29/93/10 30/83/10 22/69/10
f 31/94/29 30/95/26 23/96/29
f 23/96/30 30/95/25 31/94/30
f 27/86/27 32/85/33 35/97/33
f 35/97/34 32/85/34 27/86/28
f 27/88/9 36/98/9 28/74/9
f 28/75/10 36/99/10 27/89/10
f 36/100/35 33/101/31 28/102/31
f 28/102/32 33/101/32 36/100/36
f 37/103/22 34/104/30 29/105/30
f 29/105/29 34/104/29 37/103/21
f 29/92/9 30/82/9 38/106/9
f 38/107/10 30/83/10 29/93/10
f 30/95/26 31/94/29 39/108/26
f 39/108/25 31/94/30 30/95/25
f 40/109/37 35/110/33 32/111/33
f 32/111/34 35/110/34 40/109/38
f 35/112/9 36/98/9 27/88/9
f 27/89/10 36/99/10 35/113/10
f 33/101/31 36/100/35 41/114/35
f 41/114/36 36/100/36 33/101/32
f 34/104/30 37/103/22 42/115/22
f 42/115/21 37/103/21 34/104/29
f 29/92/9 38/106/9 37/116/9
f 37/117/10 38/107/10 29/93/10
f 39/118/26 38/119/12 30/120/26
f 30/120/25 38/119/11 39/118/25
f 35/110/33 40/109/37 43/121/37
f 43/121/38 40/109/38 35/110/34
f 35/112/9 44/122/9 36/98/9
f 36/99/10 44/123/10 35/113/10
f 44/124/39 41/125/35 36/126/35
f 36/126/36 41/125/36 44/124/40
f 45/127/20 42/128/22 37/129/22
f 37/129/21 42/128/21 45/127/19
f 37/116/9 38/106/9 46/130/9
f 46/131/10 38/107/10 37/117/10
f 38/119/12 39/118/26 47/132/12
f 47/132/11 39/118/25 38/119/11
f 48/133/41 43/134/37 40/135/37
f 40/135/38 43/134/38 48/133/42
f 43/136/9 44/122/9 35/112/9
f 35/113/10 44/123/10 43/137/10
f 41/125/35 44/124/39 49/138/39
f 49/138/40 44/124/40 41/125/36
f 42/128/22 45/127/20 50/139/20
f 50/139/19 45/127/19 42/128/21
f 37/116/9 46/130/9 45/140/9
f 45/141/10 46/131/10 37/117/10
f 47/142/12 46/143/6 38/144/12
f 38/144/11 46/143/5 47/142/11
f 43/134/37 48/133/41 51/145/41
f 51/145/42 48/133/42 43/134/38
f 43/136/9 52/146/9 44/122/9
f 44/123/10 52/147/10 43/137/10
f 52/148/43 49/149/39 44/150/39
f 44/150/40 49/149/40 52/148/44
f 53/151/18 50/152/20 45/153/20
f 45/153/19 50/152/19 53/151/16
f 45/140/9 46/130/9 54/154/9
f 54/155/10 46/131/10 45/141/10
f 46/143/6 47/142/12 55/156/6
f 55/156/5 47/142/11 46/143/5
f 56/157/45 51/158/41 48/159/41
f 48/159/42 51/158/42 56/157/46
f 51/160/9 52/146/9 43/136/9
f 43/137/10 52/147/10 51/161/10
f 49/149/39 52/148/43 57/162/43
f 57/162/44 52/148/44 49/149/40
f 50/152/20 53/151/18 58/163/18
f 58/163/16 53/151/16 50/152/19
f 45/140/9 54/154/9 53/164/9
f 53/165/10 54/155/10 45/141/10
f 55/166/6 54/167/3 46/168/6
f 46/168/5 54/167/2 55/166/5
f 51/158/41 56/157/45 59/169/45
f 59/169/46 56/157/46 51/158/42
f 51/160/9 60/170/9 52/146/9
f 52/147/10 60/171/10 51/161/10
f 60/172/47 57/173/43 52/174/43
f 52/174/44 57/173/44 60/172/48
f 61/175/17 58/176/18 53/177/18
f 53/177/16 58/176/16 61/175/15
f 53/164/9 54/154/9 62/178/9
f 62/179/10 54/155/10 53/165/10
f 54/167/3 55/166/6 63/180/3
f 63/180/2 55/166/5 54/167/2
f 64/181/49 59/182/45 56/183/45
f 56/183/46 59/182/46 64/181/50
f 59/184/9 60/170/9 51/160/9
f 51/161/10 60/171/10 59/185/10
f 57/173/43 60/172/47 65/186/47
f 65/186/48 60/172/48 57/173/44
f 58/176/18 61/175/17 66/187/17
f 66/187/15 61/175/15 58/176/16
f 53/164/9 62/178/9 61/188/9
f 61/189/10 62/179/10 53/165/10
f 63/190/3 62/191/4 54/192/3
f 54/192/2 62/191/1 63/190/2
f 59/182/45 64/181/49 67/193/49
f 67/193/50 64/181/50 59/182/46
f 59/184/9 68/194/9 60/170/9
f 60/171/10 68/195/10 59/185/10
f 68/196/51 65/197/47 60/198/47
f 60/198/48 65/197/48 68/196/52
f 69/199/24 66/200/17 61/201/17
f 61/201/15 66/200/15 69/199/23
f 61/188/9 62/178/9 69/202/9
f 69/203/10 62/179/10 61/189/10
f 62/191/4 63/190/3 70/204/4
f 70/204/1 63/190/2 62/191/1
f 71/205/53 67/206/49 64/207/49
f 64/207/50 67/206/50 71/205/54
f 67/208/9 68/194/9 59/184/9
f 59/185/10 68/195/10 67/209/10
f 65/197/47 68/196/51 72/210/51
f 72/210/52 68/196/52 65/197/48
f 66/200/17 69/199/24 73/211/24
f 73/211/23 69/199/23 66/200/15
f 69/202/9 62/178/9 74/212/9
f 74/213/10 62/179/10 69/203/10
f 70/214/4 74/215/8 62/216/4
f 62/216/1 74/215/7 70/214/1
f 67/206/49 71/205/53 75/217/53
f 75/217/54 71/205/54 67/206/50
f 68/194/9 67/208/9 75/218/9
f 75/219/10 67/209/10 68/195/10
f 75/220/53 72/221/51 68/222/51
f 68/222/52 72/221/52 75/220/54
f 76/223/32 73/224/24 69/225/24
f 69/225/23 73/224/23 76/223/31
f 69/202/9 74/212/9 77/226/9
f 77/227/10 74/213/10 69/203/10
f 74/215/8 70/214/4 78/228/8
f 78/228/7 70/214/1 74/215/7
f 72/221/51 75/220/53 71/229/53
f 71/229/54 75/220/54 72/221/52
f 73/224/24 76/223/32 79/230/32
f 79/230/31 76/223/31 73/224/23
f 69/202/9 77/226/9 76/231/9
f 76/232/10 77/227/10 69/203/10
f 74/233/8 80/234/14 77/235/14
f 77/235/13 80/234/13 74/233/7
f 80/234/14 74/233/8 78/236/8
f 78/236/7 74/233/7 80/234/13
f 81/237/36 79/238/32 76/239/32
f 76/239/31 79/238/31 81/237/35
f 76/231/9 77/226/9 82/240/9
f 82/241/10 77/227/10 76/232/10
f 83/242/28 77/243/14 80/244/14
f 80/244/13 77/243/13 83/242/27
f 79/238/32 81/237/36 84/245/36
f 84/245/35 81/237/35 79/238/31
f 76/231/9 82/240/9 81/246/9
f 81/247/10 82/241/10 76/232/10
f 77/243/14 83/242/28 82/248/28
f 82/248/27 83/242/27 77/243/13
f 85/249/40 84/250/36 81/251/36
f 81/251/35 84/250/35 85/249/39
f 81/246/9 82/240/9 86/252/9
f 86/253/10 82/241/10 81/247/10
f 87/254/34 82/255/28 83/256/28
f 83/256/27 82/255/27 87/254/33
f 84/250/36 85/249/40 88/257/40
f 88/257/39 85/249/39 84/250/35
f 81/246/9 86/252/9 85/258/9
f 85/259/10 86/253/10 81/247/10
f 82/255/28 87/254/34 86/260/34
f 86/260/33 87/254/33 82/255/27
f 89/261/44 88/262/40 85/263/40
f 85/263/39 88/262/39 89/261/43
f 85/258/9 86/252/9 89/264/9
f 89/265/10 86/253/10 85/259/10
f 90/266/38 86/267/34 87/268/34
f 87/268/33 86/267/33 90/266/37
f 88/262/40 89/261/44 91/269/44
f 91/269/43 89/261/43 88/262/39
f 89/264/9 86/252/9 92/270/9
f 92/271/10 86/253/10 89/265/10
f 86/267/34 90/266/38 92/272/38
f 92/272/37 90/266/37 86/267/33
f 93/273/48 91/274/44 89/275/44
f 89/275/43 91/274/43 93/273/47
f 89/264/9 92/270/9 94/276/9
f 94/277/10 92/271/10 89/265/10
f 95/278/42 92/279/38 90/280/38
f 90/280/37 92/279/37 95/278/41
f 91/274/44 93/273/48 96/281/48
f 96/281/47 93/273/47 91/274/43
f 89/264/9 94/276/9 93/282/9
f 93/283/10 94/277/10 89/265/10
f 92/279/38 95/278/42 94/284/42
f 94/284/41 95/278/41 92/279/37
f 97/285/52 96/286/48 93/287/48
f 93/287/47 96/286/47 97/285/51
f 93/282/9 94/276/9 98/288/9
f 98/289/10 94/277/10 93/283/10
f 99/290/46 94/291/42 95/292/42
f 95/292/41 94/291/41 99/290/45
f 96/286/48 97/285/52 100/293/52
f 100/293/51 97/285/51 96/286/47
f 93/282/9 98/288/9 97/294/9
f 97/295/10 98/289/10 93/283/10
f 94/291/42 99/290/46 98/296/46
f 98/296/45 99/290/45 94/291/41
f 101/297/54 100/298/52 97/299/52
f 97/299/51 100/298/51 101/297/53
f 97/294/9 98/288/9 102/300/9
f 102/301/10 98/289/10 97/295/10
f 103/302/50 98/303/46 99/304/46
f 99/304/45 98/303/45 103/302/49
f 100/298/52 101/297/54 104/305/54
f 104/305/53 101/297/53 100/298/51
f 97/294/9 102/300/9 101/306/9
f 101/307/10 102/301/10 97/295/10
f 98/303/46 103/302/50 102/308/50
f 102/308/49 103/302/49 98/303/45
f 102/309/50 104/310/54 101/311/54
f 101/311/53 104/310/53 102/309/49
f 104/310/54 102/309/50 103/312/50
f 103/312/49 102/309/49 104/310/53
