# SSTK version 0.8.0
# 25
mtllib original-25.mtl
o mesh52/mesh52-geometry#mesh52-geometry
v 0.248348 0.250624 0.476764
v 0.262528 0.240200 0.476764
v 0.245899 0.240065 0.476764
v 0.265086 0.251571 0.476764
v 0.316509 0.240200 0.476764
v 0.245899 0.240065 0.480340
v 0.252430 0.259909 0.476764
v 0.262528 0.240200 0.480340
v 0.333224 0.236363 0.476764
v 0.316509 0.240200 0.480340
v 0.248348 0.250624 0.480340
v 0.245083 0.228234 0.480340
v 0.270931 0.260477 0.476764
v 0.265086 0.251571 0.480340
v 0.245083 0.228234 0.476764
v 0.332493 0.247655 0.476764
v 0.314865 0.252165 0.476764
v 0.333224 0.236363 0.480340
v 0.252430 0.259909 0.480340
v 0.258144 0.267921 0.476764
v 0.333224 0.227047 0.476764
v 0.314865 0.252165 0.480340
v 0.245925 0.216306 0.480340
v 0.262528 0.227047 0.480340
v 0.279654 0.266459 0.476764
v 0.270931 0.260477 0.480340
v 0.262528 0.227047 0.476764
v 0.333224 0.227047 0.480340
v 0.330301 0.257051 0.476764
v 0.332493 0.247655 0.480340
v 0.310663 0.260659 0.476764
v 0.245925 0.216306 0.476764
v 0.263088 0.218667 0.480340
v 0.258144 0.267921 0.480340
v 0.284963 0.268000 0.476764
v 0.263088 0.218667 0.476764
v 0.330301 0.257051 0.480340
v 0.310663 0.260659 0.480340
v 0.248451 0.205822 0.480340
v 0.264766 0.211337 0.480340
v 0.265177 0.274374 0.480340
v 0.265177 0.274374 0.476764
v 0.279654 0.266459 0.480340
v 0.326739 0.264849 0.476764
v 0.307227 0.264039 0.480340
v 0.264766 0.211337 0.476764
v 0.248451 0.205822 0.476764
v 0.284963 0.268000 0.480340
v 0.291300 0.268514 0.476764
v 0.307227 0.264039 0.476764
v 0.326739 0.264849 0.480340
v 0.252661 0.196783 0.480340
v 0.267563 0.205057 0.480340
v 0.273215 0.278984 0.480340
v 0.291300 0.268514 0.480340
v 0.321898 0.271346 0.476764
v 0.302945 0.266505 0.476764
v 0.302945 0.266505 0.480340
v 0.267563 0.205057 0.476764
v 0.252661 0.196783 0.476764
v 0.271479 0.199828 0.480340
v 0.273215 0.278984 0.476764
v 0.315961 0.276415 0.480340
v 0.321898 0.271346 0.480340
v 0.315961 0.276415 0.476764
v 0.297682 0.268012 0.476764
v 0.271479 0.199828 0.476764
v 0.258555 0.189188 0.476764
v 0.276383 0.195713 0.480340
v 0.282257 0.281750 0.480340
v 0.309110 0.279931 0.480340
v 0.297682 0.268012 0.480340
v 0.276383 0.195713 0.476764
v 0.258555 0.189188 0.480340
v 0.288759 0.191009 0.476764
v 0.282143 0.192773 0.480340
v 0.282257 0.281750 0.476764
v 0.309110 0.279931 0.476764
v 0.282143 0.192773 0.476764
v 0.265973 0.183174 0.476764
v 0.288759 0.191009 0.480340
v 0.296232 0.190421 0.476764
v 0.292304 0.282672 0.480340
v 0.301255 0.281987 0.480340
v 0.301255 0.281987 0.476764
v 0.265973 0.183174 0.480340
v 0.331305 0.184027 0.476764
v 0.296232 0.190421 0.480340
v 0.292304 0.282672 0.476764
v 0.274756 0.178878 0.476764
v 0.331305 0.184027 0.480340
v 0.323816 0.181059 0.476764
v 0.307329 0.191699 0.480340
v 0.307329 0.191699 0.476764
v 0.274756 0.178878 0.480340
v 0.323816 0.181059 0.480340
v 0.317148 0.194988 0.476764
v 0.284903 0.176300 0.476764
v 0.315778 0.178273 0.476764
v 0.315778 0.178273 0.480340
v 0.317148 0.194988 0.480340
v 0.325003 0.199052 0.476764
v 0.284903 0.176300 0.480340
v 0.331305 0.202751 0.476764
v 0.325003 0.199052 0.480340
v 0.296414 0.175441 0.476764
v 0.306690 0.176172 0.476764
v 0.306690 0.176172 0.480340
v 0.331305 0.202751 0.480340
v 0.330301 0.202751 0.480340
v 0.330301 0.202751 0.476764
v 0.296414 0.175441 0.480340
vn 0 0 -1
vn 0 0 1
vn -0.9890078561819494 0.14786297849828473 0
vn -0.9489059623678137 0.3155589874854041 0
vn 0.9890078561819494 -0.14786297849828473 0
vn 0.9489059623678137 -0.3155589874854041 0
vn 0.9206542065225558 -0.3903790875704323 0
vn 0.9756307337884588 -0.21941894012913676 0
vn -0.9756307337884588 0.21941894012913676 0
vn -0.9206542065225558 0.3903790875704323 0
vn 0 1 0
vn 0 -1 0
vn -0.9999996863681475 -0.0007919997516035728 0
vn 0.9999996863681475 0.0007919997516035728 0
vn -0.8693778466469777 0.49414791283528076 0
vn 0.8693778466469777 -0.49414791283528076 0
vn -0.990691540943367 -0.1361259369233392 0
vn -0.9559421694938195 -0.29355505204892995 0
vn 0.990691540943367 0.1361259369233392 0
vn 0.9559421694938195 0.29355505204892995 0
vn 0.7142498305867456 -0.6998908339925628 0
vn -0.7142498305867456 0.6998908339925628 0
vn 0.9892284251783822 0.1463800629153356 0
vn 0.9994780572156228 0.03230500184931604 0
vn -0.9994780572156228 -0.03230500184931604 0
vn -0.9892284251783822 -0.1463800629153356 0
vn -0.9882484847585042 -0.15285592030575887 0
vn 0.9882484847585042 0.15285592030575887 0
vn -0.7492032207119298 0.6623401951224697 0
vn 0.7492032207119298 -0.6623401951224697 0
vn 1 0 0
vn -1 0 0
vn -0.8100520215198422 -0.5863580155771873 0
vn 0.8100520215198422 0.5863580155771873 0
vn 0.4276259046796307 -0.9039557985028512 0
vn -0.4276259046796307 0.9039557985028512 0
vn 0.9464153092275297 0.3229521055199349 0
vn -0.9464153092275297 -0.3229521055199349 0
vn -0.9440304998340732 -0.32985817464939426 0
vn 0.9440304998340732 0.32985817464939426 0
vn 0.9893791217901038 0.14535801789320968 0
vn 0.9977791537966929 0.06660901026704703 0
vn -0.9977791537966929 -0.06660901026704703 0
vn -0.9893791217901038 -0.14535801789320968 0
vn -0.5904263708596142 0.8070915069516873 0
vn 0.5904263708596142 -0.8070915069516873 0
vn 0.1807309226065172 -0.9835325788268515 0
vn -0.1807309226065172 0.9835325788268515 0
vn -0.6050309589289874 -0.7962019459518233 0
vn 0.6050309589289874 0.7962019459518233 0
vn 0.9485791466309015 0.3165400489306063 0
vn -0.9485791466309015 -0.3165400489306063 0
vn 0.8605481555591529 0.5093690920773857 0
vn -0.8605481555591529 -0.5093690920773857 0
vn -0.8536159100011452 -0.5209029450799031 0
vn 0.8536159100011452 0.5209029450799031 0
vn -0.39748403832998386 0.9176090884864251 0
vn 0.39748403832998386 -0.9176090884864251 0
vn 0.001177000361733462 -0.9999993073348344 0
vn -0.001177000361733462 0.9999993073348344 0
vn 0.7301620345658716 0.6832740323461935 0
vn -0.7301620345658716 -0.6832740323461935 0
vn -0.3900899040712481 -0.9207767735676681 0
vn 0.3900899040712481 0.9207767735676681 0
vn 0.862333946899202 0.5063399688205984 0
vn -0.862333946899202 -0.5063399688205984 0
vn -0.7145902583426471 -0.69954325290277 0
vn 0.7145902583426471 0.69954325290277 0
vn 0.7264457758580962 0.6872237879598818 0
vn -0.7264457758580962 -0.6872237879598818 0
vn -0.19295203728142446 0.9812081895851399 0
vn 0.19295203728142446 -0.9812081895851399 0
vn -0.1777619141303505 -0.9840735246335579 0
vn 0.1777619141303505 0.9840735246335579 0
vn 0.5567680189167507 0.8306680282227774 0
vn -0.5567680189167507 -0.8306680282227774 0
vn 0.5522888718883268 0.8336528066217492 0
vn -0.5522888718883268 -0.8336528066217492 0
vn 0.3570190407412302 0.9340971065944975 0
vn -0.3570190407412302 -0.9340971065944975 0
vn -0.5380018011707111 -0.8429436884733585 0
vn 0.5380018011707111 0.8429436884733585 0
vn 0.35811013480324433 0.9336793514645176 0
vn -0.35811013480324433 -0.9336793514645176 0
vn -0.007562003082707899 0.9999714076459271 0
vn 0.007562003082707899 -0.9999714076459271 0
vn 0.16537398799078945 0.9862309283813918 0
vn -0.16537398799078945 -0.9862309283813918 0
vn 0.16872502740145287 0.9856631600746673 0
vn -0.01809700426813372 0.9998362358089047 0
vn 0.01809700426813372 -0.9998362358089047 0
vn -0.16872502740145287 -0.9856631600746673 0
vn -0.3446108632176002 -0.9387456273945676 0
vn 0.3446108632176002 0.9387456273945676 0
vn -0.21718795610154035 0.976129802702712 0
vn 0.21718795610154035 -0.976129802702712 0
vn 0.3684569287268039 -0.9296448201723123 0
vn 0.34805086962417126 -0.9374756488324687 0
vn -0.34805086962417126 0.9374756488324687 0
vn -0.3684569287268039 0.9296448201723123 0
vn -0.16091893904512436 -0.9869676261441364 0
vn 0.16091893904512436 0.9869676261441364 0
vn 0.2767399556351294 -0.9609448459485416 0
vn -0.2767399556351294 0.9609448459485416 0
vn -0.3897168802957506 0.9209347171284986 0
vn 0.3897168802957506 -0.9209347171284986 0
vn -0.517165317940406 0.855885526177186 0
vn 0.517165317940406 -0.855885526177186 0
vn -0.0017520008151115608 -0.9999984652453942 0
vn 0.0017520008151115608 0.9999984652453942 0
vn 0.14852705182161727 -0.988908345033643 0
vn -0.14852705182161727 0.988908345033643 0
vn -0.5725133016590556 0.8198954320054765 0
vn 0.5725133016590556 -0.8198954320054765 0
usemtl material_0_0
f 1//1 2//1 3//1
f 2//1 1//1 4//1
f 3//2 2//2 1//2
f 4//2 1//2 2//2
f 5//1 3//1 2//1
f 2//2 3//2 5//2
f 6//3 1//4 3//3
f 3//5 1//6 6//5
f 4//1 1//1 7//1
f 7//2 1//2 4//2
f 4//7 8//8 2//8
f 2//9 8//9 4//10
f 9//1 3//1 5//1
f 5//2 3//2 9//2
f 2//11 10//11 5//11
f 5//12 10//12 2//12
f 1//4 6//3 11//4
f 11//6 6//5 1//6
f 3//3 12//13 6//3
f 6//5 12//14 3//5
f 11//4 7//15 1//4
f 1//6 7//16 11//6
f 4//1 7//1 13//1
f 13//2 7//2 4//2
f 8//8 4//7 14//7
f 14//10 4//10 8//9
f 10//11 2//11 8//11
f 8//12 2//12 10//12
f 9//1 15//1 3//1
f 3//2 15//2 9//2
f 9//1 5//1 16//1
f 16//2 5//2 9//2
f 10//17 17//18 5//17
f 5//19 17//20 10//19
f 6//2 8//2 11//2
f 11//1 8//1 6//1
f 12//13 3//3 15//13
f 15//14 3//5 12//14
f 12//2 18//2 6//2
f 6//1 18//1 12//1
f 7//15 11//4 19//15
f 19//16 11//6 7//16
f 13//1 7//1 20//1
f 20//2 7//2 13//2
f 13//21 14//7 4//7
f 4//10 14//10 13//22
f 11//2 8//2 14//2
f 14//1 8//1 11//1
f 8//2 6//2 10//2
f 10//1 6//1 8//1
f 21//1 15//1 9//1
f 9//2 15//2 21//2
f 16//1 5//1 17//1
f 17//2 5//2 16//2
f 16//23 18//24 9//24
f 9//25 18//25 16//26
f 17//18 10//17 22//18
f 22//20 10//19 17//20
f 15//13 23//27 12//13
f 12//14 23//28 15//14
f 24//2 18//2 12//2
f 12//1 18//1 24//1
f 6//2 18//2 10//2
f 10//1 18//1 6//1
f 11//2 14//2 19//2
f 19//1 14//1 11//1
f 19//15 20//29 7//15
f 7//16 20//30 19//16
f 13//1 20//1 25//1
f 25//2 20//2 13//2
f 14//7 13//21 26//21
f 26//22 13//22 14//10
f 27//1 15//1 21//1
f 21//2 15//2 27//2
f 9//24 28//31 21//31
f 21//32 28//32 9//25
f 16//1 17//1 29//1
f 29//2 17//2 16//2
f 18//24 16//23 30//23
f 30//26 16//26 18//25
f 28//31 9//24 18//24
f 18//25 9//25 28//32
f 10//2 30//2 22//2
f 22//1 30//1 10//1
f 22//18 31//33 17//18
f 17//20 31//34 22//20
f 23//27 15//13 32//27
f 32//28 15//14 23//28
f 23//2 33//2 12//2
f 12//1 33//1 23//1
f 18//2 24//2 28//2
f 28//1 24//1 18//1
f 12//2 33//2 24//2
f 24//1 33//1 12//1
f 10//2 18//2 30//2
f 30//1 18//1 10//1
f 19//2 14//2 26//2
f 26//1 14//1 19//1
f 20//29 19//15 34//29
f 34//30 19//16 20//30
f 25//1 20//1 35//1
f 35//2 20//2 25//2
f 25//35 26//21 13//21
f 13//22 26//22 25//36
f 36//1 15//1 27//1
f 27//2 15//2 36//2
f 21//12 24//12 27//12
f 27//11 24//11 21//11
f 24//12 21//12 28//12
f 28//11 21//11 24//11
f 29//1 17//1 31//1
f 31//2 17//2 29//2
f 29//37 30//23 16//23
f 16//26 30//26 29//38
f 22//2 30//2 37//2
f 37//1 30//1 22//1
f 31//33 22//18 38//33
f 38//34 22//20 31//34
f 36//1 32//1 15//1
f 15//2 32//2 36//2
f 32//27 39//39 23//27
f 23//28 39//40 32//28
f 23//2 40//2 33//2
f 33//1 40//1 23//1
f 33//41 27//42 24//42
f 24//43 27//43 33//44
f 19//2 26//2 34//2
f 34//1 26//1 19//1
f 41//45 20//29 34//29
f 34//30 20//30 41//46
f 35//1 20//1 42//1
f 42//2 20//2 35//2
f 35//47 43//35 25//35
f 25//36 43//36 35//48
f 26//21 25//35 43//35
f 43//36 25//36 26//22
f 27//42 33//41 36//41
f 36//44 33//44 27//43
f 29//1 31//1 44//1
f 44//2 31//2 29//2
f 30//23 29//37 37//37
f 37//38 29//38 30//26
f 22//2 37//2 38//2
f 38//1 37//1 22//1
f 45//49 31//33 38//33
f 38//34 31//34 45//50
f 46//1 32//1 36//1
f 36//2 32//2 46//2
f 39//39 32//27 47//39
f 47//40 32//28 39//40
f 39//2 40//2 23//2
f 23//1 40//1 39//1
f 40//51 36//41 33//41
f 33//44 36//44 40//52
f 34//2 26//2 43//2
f 43//1 26//1 34//1
f 20//29 41//45 42//45
f 42//46 41//46 20//30
f 34//2 48//2 41//2
f 41//1 48//1 34//1
f 35//1 42//1 49//1
f 49//2 42//2 35//2
f 43//35 35//47 48//47
f 48//48 35//48 43//36
f 44//1 31//1 50//1
f 50//2 31//2 44//2
f 51//53 29//37 44//53
f 44//54 29//38 51//54
f 29//37 51//53 37//37
f 37//38 51//54 29//38
f 38//2 37//2 51//2
f 51//1 37//1 38//1
f 31//33 45//49 50//49
f 50//50 45//50 31//34
f 38//2 51//2 45//2
f 45//1 51//1 38//1
f 46//1 47//1 32//1
f 32//2 47//2 46//2
f 36//41 40//51 46//51
f 46//52 40//52 36//44
f 47//39 52//55 39//39
f 39//40 52//56 47//40
f 39//2 53//2 40//2
f 40//1 53//1 39//1
f 34//2 43//2 48//2
f 48//1 43//1 34//1
f 54//57 42//45 41//45
f 41//46 42//46 54//58
f 41//2 48//2 55//2
f 55//1 48//1 41//1
f 49//1 42//1 56//1
f 56//2 42//2 49//2
f 49//59 48//47 35//47
f 35//48 48//48 49//60
f 44//1 50//1 57//1
f 57//2 50//2 44//2
f 56//61 51//53 44//53
f 44//54 51//54 56//62
f 58//63 50//49 45//49
f 45//50 50//50 58//64
f 45//2 51//2 58//2
f 58//1 51//1 45//1
f 59//1 47//1 46//1
f 46//2 47//2 59//2
f 40//51 59//65 46//51
f 46//52 59//66 40//52
f 52//55 47//39 60//55
f 60//56 47//40 52//56
f 52//2 61//2 39//2
f 39//1 61//1 52//1
f 39//2 61//2 53//2
f 53//1 61//1 39//1
f 59//65 40//51 53//65
f 53//66 40//52 59//66
f 42//45 54//57 62//57
f 62//58 54//58 42//46
f 41//2 63//2 54//2
f 54//1 63//1 41//1
f 48//47 49//59 55//59
f 55//60 49//60 48//48
f 41//2 55//2 64//2
f 64//1 55//1 41//1
f 56//1 42//1 65//1
f 65//2 42//2 56//2
f 56//1 66//1 49//1
f 49//2 66//2 56//2
f 50//49 58//63 57//63
f 57//64 58//64 50//50
f 44//1 57//1 56//1
f 56//2 57//2 44//2
f 51//53 56//61 64//61
f 64//62 56//62 51//54
f 58//2 51//2 64//2
f 64//1 51//1 58//1
f 67//1 47//1 59//1
f 59//2 47//2 67//2
f 67//1 60//1 47//1
f 47//2 60//2 67//2
f 68//67 52//55 60//55
f 60//56 52//56 68//68
f 52//2 69//2 61//2
f 61//1 69//1 52//1
f 67//69 53//65 61//69
f 61//70 53//66 67//70
f 53//65 67//69 59//65
f 59//66 67//70 53//66
f 70//71 62//57 54//57
f 54//58 62//58 70//72
f 65//1 42//1 62//1
f 62//2 42//2 65//2
f 41//2 64//2 63//2
f 63//1 64//1 41//1
f 54//2 63//2 71//2
f 71//1 63//1 54//1
f 66//73 55//59 49//59
f 49//60 55//60 66//74
f 72//2 64//2 55//2
f 55//1 64//1 72//1
f 65//75 64//61 56//61
f 56//62 64//62 65//76
f 56//1 57//1 66//1
f 66//2 57//2 56//2
f 72//73 57//63 58//63
f 58//64 57//64 72//74
f 58//2 64//2 72//2
f 72//1 64//1 58//1
f 73//1 60//1 67//1
f 67//2 60//2 73//2
f 52//55 68//67 74//67
f 74//68 68//68 52//56
f 75//1 68//1 60//1
f 60//2 68//2 75//2
f 52//2 76//2 69//2
f 69//1 76//1 52//1
f 69//77 67//69 61//69
f 61//70 67//70 69//78
f 62//57 70//71 77//71
f 77//72 70//72 62//58
f 54//2 71//2 70//2
f 70//1 71//1 54//1
f 65//1 62//1 78//1
f 78//2 62//2 65//2
f 64//61 65//75 63//75
f 63//76 65//76 64//62
f 63//75 78//79 71//79
f 71//80 78//80 63//76
f 55//59 66//73 72//73
f 72//74 66//74 55//60
f 57//63 72//73 66//73
f 66//74 72//74 57//64
f 79//1 60//1 73//1
f 73//2 60//2 79//2
f 67//69 69//77 73//77
f 73//78 69//78 67//70
f 80//81 74//67 68//67
f 68//68 74//68 80//82
f 74//2 81//2 52//2
f 52//1 81//1 74//1
f 68//1 75//1 82//1
f 82//2 75//2 68//2
f 75//1 60//1 79//1
f 79//2 60//2 75//2
f 52//2 81//2 76//2
f 76//1 81//1 52//1
f 76//83 73//77 69//77
f 69//78 73//78 76//84
f 83//85 77//71 70//71
f 70//72 77//72 83//86
f 78//1 62//1 77//1
f 77//2 62//2 78//2
f 70//2 71//2 84//2
f 84//1 71//1 70//1
f 78//79 63//75 65//75
f 65//76 63//76 78//80
f 85//87 71//79 78//79
f 78//80 71//80 85//88
f 73//77 76//83 79//83
f 79//84 76//84 73//78
f 74//67 80//81 86//81
f 86//82 80//82 74//68
f 87//1 80//1 68//1
f 68//2 80//2 87//2
f 81//2 74//2 88//2
f 88//1 74//1 81//1
f 75//89 88//90 82//90
f 82//91 88//91 75//92
f 87//1 68//1 82//1
f 82//2 68//2 87//2
f 79//83 81//89 75//89
f 75//92 81//92 79//84
f 81//89 79//83 76//83
f 76//84 79//84 81//92
f 77//71 83//85 89//85
f 89//86 83//86 77//72
f 70//2 84//2 83//2
f 83//1 84//1 70//1
f 78//1 77//1 85//1
f 85//2 77//2 78//2
f 71//79 85//87 84//87
f 84//88 85//88 71//80
f 90//93 86//81 80//81
f 80//82 86//82 90//94
f 86//2 91//2 74//2
f 74//1 91//1 86//1
f 92//1 80//1 87//1
f 87//2 80//2 92//2
f 74//2 91//2 88//2
f 88//1 91//1 74//1
f 88//90 75//89 81//89
f 81//92 75//92 88//91
f 93//95 82//90 88//90
f 88//91 82//91 93//96
f 87//1 82//1 94//1
f 94//2 82//2 87//2
f 84//87 89//85 83//85
f 83//86 89//86 84//88
f 85//1 77//1 89//1
f 89//2 77//2 85//2
f 89//85 84//87 85//87
f 85//88 84//88 89//86
f 86//81 90//93 95//93
f 95//94 90//94 86//82
f 92//1 90//1 80//1
f 80//2 90//2 92//2
f 86//2 96//2 91//2
f 91//1 96//1 86//1
f 87//97 96//98 92//98
f 92//99 96//99 87//100
f 88//2 91//2 93//2
f 93//1 91//1 88//1
f 82//90 93//95 94//95
f 94//96 93//96 82//91
f 87//1 94//1 97//1
f 97//2 94//2 87//2
f 98//101 95//93 90//93
f 90//94 95//94 98//102
f 95//2 96//2 86//2
f 86//1 96//1 95//1
f 99//1 90//1 92//1
f 92//2 90//2 99//2
f 96//98 87//97 91//97
f 91//100 87//100 96//99
f 100//103 92//98 96//98
f 96//99 92//99 100//104
f 93//2 91//2 101//2
f 101//1 91//1 93//1
f 101//105 94//95 93//95
f 93//96 94//96 101//106
f 94//95 101//105 97//105
f 97//106 101//106 94//96
f 87//1 97//1 102//1
f 102//2 97//2 87//2
f 95//93 98//101 103//101
f 103//102 98//102 95//94
f 99//1 98//1 90//1
f 90//2 98//2 99//2
f 95//2 100//2 96//2
f 96//1 100//1 95//1
f 92//98 100//103 99//103
f 99//104 100//104 92//99
f 104//31 91//31 87//31
f 87//32 91//32 104//32
f 101//2 91//2 105//2
f 105//1 91//1 101//1
f 105//107 97//105 101//105
f 101//106 97//106 105//108
f 97//105 105//107 102//107
f 102//108 105//108 97//106
f 87//1 102//1 104//1
f 104//2 102//2 87//2
f 106//109 103//101 98//101
f 98//102 103//102 106//110
f 103//2 100//2 95//2
f 95//1 100//1 103//1
f 107//1 98//1 99//1
f 99//2 98//2 107//2
f 108//111 99//103 100//103
f 100//104 99//104 108//112
f 91//31 104//31 109//31
f 109//32 104//32 91//32
f 105//2 91//2 109//2
f 109//1 91//1 105//1
f 110//113 102//107 105//107
f 105//108 102//108 110//114
f 104//1 102//1 111//1
f 111//2 102//2 104//2
f 103//101 106//109 112//109
f 112//110 106//110 103//102
f 98//1 107//1 106//1
f 106//2 107//2 98//2
f 103//2 108//2 100//2
f 100//1 108//1 103//1
f 99//103 108//111 107//111
f 107//112 108//112 99//104
f 111//11 109//11 104//11
f 104//12 109//12 111//12
f 105//2 109//2 110//2
f 110//1 109//1 105//1
f 102//107 110//113 111//113
f 111//114 110//114 102//108
f 107//111 112//109 106//109
f 106//110 112//110 107//112
f 108//2 103//2 112//2
f 112//1 103//1 108//1
f 112//109 107//111 108//111
f 108//112 107//112 112//110
f 109//11 111//11 110//11
f 110//12 111//12 109//12
