# SSTK version 0.8.0
# 83
mtllib original-83.mtl
o Group_12_71/Group_12/mesh3/mesh3-geometry#mesh3-geometry
v 0.881823 0.089272 -0.152856
v 0.873304 0.084066 -0.230991
v 0.873304 0.058295 -0.154275
v 0.881823 0.109618 -0.213421
v 0.873304 0.054258 -0.155632
v 0.945715 0.089272 -0.152856
v 0.954233 0.084066 -0.230991
v 0.873304 0.080029 -0.232348
v 0.954233 0.058295 -0.154275
v 0.945715 0.109618 -0.213421
v 0.954233 0.080029 -0.232348
v 0.954233 0.054258 -0.155632
vn -0.9615239609927853 0.26042001334831955 0.08748193576051046
vn 0.9615239609927853 -0.26042001334831955 -0.08748193576051046
vn -1 0 0
vn 1 0 0
vn 0 -0.045766906815324145 0.9989521461214032
vn 0 0.045766906815324145 -0.9989521461214032
vn 0 0.9479433185232277 0.3184391070003346
vn 0 -0.9479433185232277 -0.3184391070003346
vn 0 0.5666067717101703 -0.8239883289538626
vn 0 -0.5666067717101703 0.8239883289538626
vn 0 -0.3184391070003346 0.9479433185232277
vn 0 0.3184391070003346 -0.9479433185232277
vn 0.9615239609927853 0.26042001334831955 0.08748193576051046
vn -0.9615239609927853 -0.26042001334831955 -0.08748193576051046
usemtl material_0_0
f 1//1 2//1 3//1
f 2//1 1//1 4//1
f 3//2 2//2 1//2
f 4//2 1//2 2//2
f 2//3 5//3 3//3
f 3//4 5//4 2//4
f 3//5 6//5 1//5
f 1//6 6//6 3//6
f 6//7 4//7 1//7
f 1//8 4//8 6//8
f 4//9 7//9 2//9
f 2//10 7//10 4//10
f 5//3 2//3 8//3
f 8//4 2//4 5//4
f 5//11 9//11 3//11
f 3//12 9//12 5//12
f 6//5 3//5 9//5
f 9//6 3//6 6//6
f 4//7 6//7 10//7
f 10//8 6//8 4//8
f 7//9 4//9 10//9
f 10//10 4//10 7//10
f 11//12 2//12 7//12
f 7//11 2//11 11//11
f 2//12 11//12 8//12
f 8//11 11//11 2//11
f 11//8 5//8 8//8
f 8//7 5//7 11//7
f 9//11 5//11 12//11
f 12//12 5//12 9//12
f 7//13 6//13 9//13
f 9//14 6//14 7//14
f 6//13 7//13 10//13
f 10//14 7//14 6//14
f 9//4 11//4 7//4
f 7//3 11//3 9//3
f 5//8 11//8 12//8
f 12//7 11//7 5//7
f 11//4 9//4 12//4
f 12//3 9//3 11//3
