mtllib new-0.mtl
v -0.064094 -0.602602 0.022592
v -0.073382 -0.608638 0.053798
v -0.063324 -0.609080 0.084812
v -0.067831 -0.619453 0.081537
v -0.037433 -0.602502 0.104174
v -0.075549 -0.622870 0.058688
v -0.152508 -0.616471 0.210647
v -0.157600 -0.613412 0.243532
v -0.253262 -0.635731 0.341417
v -0.069832 -0.677803 0.080168
v -0.141245 -0.612622 0.257758
v -0.161581 -0.652489 0.212445
v -0.076192 -0.677803 0.060781
v -0.227688 -0.629839 0.366107
v -0.127050 -0.617858 0.270485
v -0.265922 -0.658160 0.356055
v -0.009966 -0.614252 0.123491
v -0.291095 -0.647941 0.406448
v -0.326818 -0.665483 0.444167
v -0.234543 -0.641357 0.414036
v 0.019330 -0.609080 0.120642
v -0.215906 -0.643891 0.404582
v -0.334963 -0.682636 0.458112
v -0.123781 -0.651673 0.279700
v -0.303719 -0.664129 0.474507
v -0.331762 -0.677860 0.477331
v -0.280110 -0.666467 0.484656
v 0.012903 -0.677803 0.125397
v -0.007917 -0.676789 0.125542
v -0.207913 -0.657923 0.395311
v -0.328265 -0.689103 0.485515
v -0.278150 -0.679410 0.489264
v -0.300137 -0.680264 0.498940
v -0.307738 -0.688047 0.497069
v -0.281550 -0.696999 0.480678
v -0.265174 -0.683332 0.462751
vn 0.184818 -0.979743 0.077116
vn -0.184818 0.979743 -0.077116
vn 0.261637 -0.965164 0.002091
vn -0.261637 0.965164 -0.002091
vn 0.918950 -0.268687 -0.288684
vn 0.906279 -0.299570 -0.298189
vn 0.935074 -0.188743 -0.300022
vn -0.935074 0.188743 0.300022
vn -0.906279 0.299570 0.298189
vn -0.918950 0.268687 0.288684
vn 0.030882 -0.977714 -0.207659
vn -0.030882 0.977714 0.207659
vn 0.731768 -0.472838 0.490856
vn 0.556744 -0.760391 0.334427
vn 0.794411 -0.260656 0.548607
vn -0.794411 0.260656 -0.548607
vn -0.556744 0.760391 -0.334427
vn -0.731768 0.472838 -0.490856
vn 0.947872 -0.095696 -0.303941
vn -0.947872 0.095696 0.303941
vn 0.203235 -0.978139 0.044046
vn -0.203235 0.978139 -0.044046
vn 0.677590 -0.635329 0.370443
vn -0.677590 0.635329 -0.370443
vn 0.949085 -0.024050 -0.314102
vn -0.949085 0.024050 0.314102
vn -0.034677 -0.990219 -0.135144
vn 0.034677 0.990219 0.135144
vn 0.813517 -0.042576 0.579981
vn -0.813517 0.042576 -0.579981
vn 0.817243 -0.041526 0.574795
vn -0.817243 0.041526 -0.574795
vn 0.949925 -0.022997 -0.311632
vn -0.949925 0.022997 0.311632
vn 0.081862 -0.986916 -0.138907
vn -0.081862 0.986916 0.138907
vn -0.286093 -0.904558 -0.316110
vn 0.286093 0.904558 0.316110
vn 0.818472 -0.032507 0.573626
vn -0.818472 0.032507 -0.573626
vn -0.374830 -0.404910 -0.833997
vn 0.374830 0.404910 0.833997
vn 0.290455 -0.952897 -0.087313
vn -0.290455 0.952897 0.087313
vn 0.823036 -0.011214 0.567879
vn -0.823036 0.011214 -0.567879
vn -0.081492 -0.943933 -0.319920
vn 0.081492 0.943933 0.319920
vn 0.077334 -0.866926 -0.492401
vn -0.077334 0.866926 0.492401
vn -0.686998 -0.411652 -0.598813
vn 0.686998 0.411652 0.598813
vn 0.577310 -0.813185 -0.073779
vn -0.577310 0.813185 0.073779
vn 0.817279 0.076280 0.571171
vn -0.817279 -0.076280 -0.571171
vn -0.804201 -0.046372 -0.592546
vn 0.804201 0.046372 0.592546
vn 0.229297 -0.907092 -0.352997
vn -0.229297 0.907092 0.352997
vn 0.687924 -0.518006 -0.508360
vn 0.979822 -0.156535 -0.124277
vn -0.979822 0.156535 0.124277
vn -0.687924 0.518006 0.508360
vn -0.270120 -0.718131 -0.641345
vn 0.270120 0.718131 0.641345
vn 0.001600 -0.029405 -0.999566
vn -0.001600 0.029405 0.999566
vn -0.802119 -0.045815 -0.595404
vn 0.802119 0.045815 0.595404
vn -0.799531 -0.060631 -0.597556
vn 0.799531 0.060631 0.597556
vn 0.967431 0.155486 -0.199752
vn -0.967431 -0.155486 0.199752
vn -0.636200 -0.257479 -0.727293
vn 0.636200 0.257479 0.727293
vn -0.008548 -0.033052 -0.999417
vn 0.008548 0.033052 0.999417
vn 0.348194 -0.660717 -0.664991
vn -0.348194 0.660717 0.664991
vn 0.490702 -0.370667 -0.788554
vn 0.460675 -0.424201 -0.779636
vn -0.460675 0.424201 0.779636
vn -0.490702 0.370667 0.788554
vn -0.363892 -0.360812 -0.858718
vn 0.363892 0.360812 0.858718
vn -0.615654 0.438561 -0.654702
vn -0.522517 0.468503 -0.712377
vn -0.348567 0.486840 -0.800929
vn 0.348567 -0.486840 0.800929
vn 0.522517 -0.468503 0.712377
vn 0.615654 -0.438561 0.654702
vn -0.324951 0.508919 -0.797125
vn 0.324951 -0.508919 0.797125
vn -0.808781 0.376751 -0.451589
vn 0.808781 -0.376751 0.451589
usemtl material-0
f 2//5 3//6 4//7
f 4//8 3//9 2//10
f 5//11 3//3 1//1
f 1//2 3//4 5//12
f 3//13 7//14 4//15
f 4//16 7//17 3//18
f 8//21 3//3 5//11
f 5//12 3//4 8//22
f 8//21 7//14 3//3
f 3//4 7//17 8//22
f 7//14 9//23 4//15
f 4//16 9//24 7//17
f 4//7 10//25 6//19
f 6//20 10//26 4//8
f 11//27 8//21 5//11
f 5//12 8//22 11//28
f 9//23 7//14 8//21
f 8//22 7//17 9//24
f 4//15 9//23 12//29
f 12//30 9//24 4//16
f 4//15 12//29 10//31
f 10//32 12//30 4//16
f 6//19 10//25 13//33
f 13//34 10//26 6//20
f 14//35 8//21 11//27
f 11//28 8//22 14//36
f 15//37 11//27 5//11
f 5//12 11//28 15//38
f 14//35 9//23 8//21
f 8//22 9//24 14//36
f 9//23 16//39 12//29
f 12//30 16//40 9//24
f 14//35 11//27 15//37
f 15//38 11//28 14//36
f 15//37 5//11 17//41
f 17//42 5//12 15//38
f 18//43 9//23 14//35
f 14//36 9//24 18//44
f 9//23 19//45 16//39
f 16//40 19//46 9//24
f 20//47 14//35 15//37
f 15//38 14//36 20//48
f 17//41 5//11 21//49
f 21//50 5//12 17//42
f 17//41 22//51 15//37
f 15//38 22//52 17//42
f 19//53 9//23 18//43
f 18//44 9//24 19//54
f 20//47 18//43 14//35
f 14//36 18//44 20//48
f 16//39 19//45 23//55
f 23//56 19//46 16//40
f 20//47 15//37 22//51
f 22//52 15//38 20//48
f 17//41 24//57 22//51
f 22//52 24//58 17//42
f 25//59 19//53 18//43
f 18//44 19//54 25//60
f 25//59 18//43 20//47
f 20//48 18//44 25//60
f 19//53 26//61 23//62
f 23//63 26//64 19//54
f 27//65 20//47 22//51
f 22//52 20//48 27//66
f 17//41 29//69 24//57
f 24//58 29//70 17//42
f 22//51 24//57 30//71
f 30//72 24//58 22//52
f 26//61 19//53 25//59
f 25//60 19//54 26//64
f 27//65 25//59 20//47
f 20//48 25//60 27//66
f 26//61 31//73 23//62
f 23//63 31//74 26//64
f 22//51 32//75 27//65
f 27//66 32//76 22//52
f 28//67 29//77 17//41
f 17//42 29//78 28//68
f 22//51 30//71 32//75
f 32//76 30//72 22//52
f 33//79 26//61 25//59
f 25//60 26//64 33//80
f 33//79 25//59 27//65
f 27//66 25//60 33//80
f 34//81 31//82 26//61
f 26//64 31//83 34//84
f 32//75 33//85 27//65
f 27//66 33//86 32//76
f 33//79 34//81 26//61
f 26//64 34//84 33//80
f 32//87 35//88 33//89
f 33//90 35//91 32//92
f 35//88 34//93 33//89
f 33//90 34//94 35//91
f 32//87 36//95 35//88
f 35//91 36//96 32//92