# SSTK version 0.8.0
# 35
mtllib original-35.mtl
o mesh35/mesh35-geometry#mesh35-geometry
v 0.517048 -0.757282 -0.131925
v 0.481690 -0.761797 -0.132411
v 0.494702 -0.709289 -0.133019
v 0.483715 -0.717710 -0.106700
v 0.516024 -0.713251 -0.120478
v 0.514685 -0.719717 -0.099622
vn -0.8613460615285354 -0.4079430291405955 -0.3027630216272717
vn 0.015695001281104536 -0.015474001263065406 -0.9997570816051752
vn 0.8613460615285354 0.4079430291405955 0.3027630216272717
vn -0.015695001281104536 0.015474001263065406 0.9997570816051752
vn 0.9226504292216928 -0.2250111046763153 0.31318714569626005
vn -0.9226504292216928 0.2250111046763153 -0.31318714569626005
vn -0.5247220786883783 -0.22560603383233457 0.8208341230939359
vn 0.5247220786883783 0.22560603383233457 -0.8208341230939359
vn -0.9978051151332465 -0.006061000699357697 -0.06594100760870251
vn 0.9978051151332465 0.006061000699357697 0.06594100760870251
usemtl material_0_0
f 1//1 2//2 3//1
f 3//3 2//4 1//3
f 3//5 4//5 2//5
f 2//6 4//6 3//6
f 1//1 5//7 3//1
f 3//3 5//8 1//3
f 5//9 1//9 6//9
f 6//10 1//10 5//10
