# SSTK version 0.8.0
# 13
mtllib original-13.mtl
o mesh13/mesh13-geometry#mesh13-geometry
v 0.002662 -0.420173 -0.005845
v -0.018363 -0.420173 -0.001376
v -0.019656 -0.605749 -0.001463
v -0.036968 -0.605749 0.011704
v 0.001515 -0.605749 -0.006450
v -0.035752 -0.420173 0.011258
v -0.035747 -0.709346 0.009740
v -0.017741 -0.709347 -0.002761
v 0.023686 -0.420173 -0.001376
v -0.047428 -0.605749 0.030775
v -0.047112 -0.709347 0.028483
v 0.003793 -0.709346 -0.006857
v 0.022885 -0.605749 -0.002395
v -0.046498 -0.420173 0.029872
v -0.041879 -0.771563 0.017788
v -0.018363 -0.771586 -0.001376
v 0.041075 -0.420173 0.011258
v -0.049227 -0.605749 0.052451
v -0.049870 -0.709347 0.050229
v -0.048745 -0.771586 0.051248
v 0.025131 -0.709347 -0.001841
v 0.015581 -0.771563 -0.005186
v 0.040758 -0.605749 0.010001
v -0.048745 -0.420173 0.051248
v 0.041075 -0.771586 0.011258
v 0.051821 -0.420173 0.029872
v -0.042055 -0.605749 0.072985
v -0.043546 -0.709346 0.071217
v -0.037786 -0.771582 0.079536
v 0.042583 -0.709347 0.011421
v 0.055187 -0.771582 0.042363
v 0.052043 -0.605749 0.028595
v -0.042103 -0.420173 0.071690
v -0.008085 -0.771586 0.096405
v 0.053134 -0.709346 0.030635
v 0.047426 -0.771586 0.071690
v 0.054068 -0.420173 0.051248
v -0.027149 -0.605749 0.088826
v -0.029231 -0.709347 0.087817
v 0.022204 -0.771583 0.094724
v 0.054957 -0.709347 0.052479
v 0.047737 -0.709347 0.073175
v 0.054790 -0.605749 0.050172
v -0.027721 -0.420173 0.087663
v -0.009402 -0.709347 0.097160
v 0.032724 -0.709346 0.089147
v 0.047426 -0.420173 0.071690
v -0.007090 -0.605749 0.097236
v 0.012513 -0.709346 0.097631
v 0.048524 -0.605749 0.071000
v 0.034327 -0.605749 0.087479
v -0.008085 -0.420173 0.096405
v 0.014655 -0.605749 0.096759
v 0.033044 -0.420173 0.087663
v 0.013408 -0.420173 0.096405
vn 0.07802899923800781 -0.0028589999720804358 0.9969469902643142
vn 0.4767748824876405 -0.002858999295332524 0.8790207833446977
vn 0.41677186306545916 -0.004555998503081378 0.9089997013391072
vn -0.41677186306545916 0.004555998503081378 -0.9089997013391072
vn -0.4767748824876405 0.002858999295332524 -0.8790207833446977
vn -0.07802899923800781 0.0028589999720804358 -0.9969469902643142
vn 0.7504628848028303 -0.004554999300800828 0.6608968985513425
vn -0.7504628848028303 0.004554999300800828 -0.6608968985513425
vn 0.011019998883800902 -0.004555999538529665 0.9999288987187069
vn -0.011019998883800902 0.004555999538529665 -0.9999288987187069
vn 0.7930876915579467 -0.002858998888098382 0.609100763112841
vn -0.7930876915579467 0.002858998888098382 -0.609100763112841
vn 0.7051220905158235 0.0051670006632827505 0.7090670910222393
vn -0.7051220905158235 -0.0051670006632827505 -0.7090670910222393
vn 0.40534000740880477 0.012538000229169573 0.9140800167075549
vn -0.40534000740880477 -0.012538000229169573 -0.9140800167075549
vn -0.33421098125794996 -0.002859999839615503 0.9424939471463546
vn 0.33421098125794996 0.002859999839615503 -0.9424939471463546
vn 0.9543937816743351 -0.0045549989580053905 0.29851593171195107
vn -0.9543937816743351 0.0045549989580053905 -0.29851593171195107
vn 0.9423413880251662 0.007316003012489232 0.33457313776620556
vn -0.9423413880251662 -0.007316003012489232 -0.33457313776620556
vn -0.026999990468937543 0.007317997416729072 0.9996086471357107
vn 0.026999990468937543 -0.007317997416729072 -0.9996086471357107
vn -0.39664287090902894 -0.0045549985175349795 0.9179617012411514
vn 0.39664287090902894 0.0045549985175349795 -0.9179617012411514
vn 0.9722648821950465 -0.0028589996535878983 0.23386497166363546
vn -0.9722648821950465 0.0028589996535878983 -0.23386497166363546
vn 0.7948762601038242 0.023963007841308507 0.6062981983962635
vn -0.7948762601038242 -0.023963007841308507 -0.6062981983962635
vn 0.32021507882447375 0.02709800667047324 0.9469572331039682
vn -0.32021507882447375 -0.02709800667047324 -0.9469572331039682
vn -0.6886680864743354 -0.002860000359123118 0.72507109104537
vn 0.6886680864743354 0.002860000359123118 -0.72507109104537
vn 0.9933002831303531 -0.004556001298642796 -0.11547203291415296
vn -0.9933002831303531 0.004556001298642796 0.11547203291415296
vn 0.9945992471594356 0.012536003115215966 -0.10303002560311908
vn -0.9945992471594356 -0.012536003115215966 0.10303002560311908
vn 0.999561784939807 0.027096994169960392 -0.011915997436219804
vn -0.999561784939807 -0.027096994169960392 0.011915997436219804
vn -0.45646991426651345 0.0051689990291664475 0.88972383289342
vn 0.45646991426651345 -0.0051689990291664475 -0.88972383289342
vn -0.33099594358240825 0.023963995915385172 0.9433278392116702
vn 0.33099594358240825 -0.023963995915385172 -0.9433278392116702
vn -0.7357259923495534 -0.0045549999526348335 0.6772639929574704
vn 0.7357259923495534 0.0045549999526348335 -0.6772639929574704
vn 0.9833306441041876 -0.0028589989652455503 -0.1818039341998958
vn -0.9833306441041876 0.0028589989652455503 0.1818039341998958
vn 0.0008539995848004478 0.9999995138178545 0.0004929997603122022
vn 0.0018569994450942941 0.9999977011822316 0.0010719996796667117
vn -0.0018569994450942941 -0.9999977011822316 -0.0010719996796667117
vn -0.0008539995848004478 -0.9999995138178545 -0.0004929997603122022
vn -0.00020799989643271733 0.9999995020803719 0.000975999514030443
vn -0.0004459998670186925 0.9999977018362297 0.002096999374749323
vn 0.00020799989643271733 -0.9999995020803719 -0.000975999514030443
vn 0.0004459998670186925 -0.9999977018362297 -0.002096999374749323
vn -0.9240429496331923 -0.0028589998441645 0.3822779791631748
vn 0.9240429496331923 0.0028589998441645 -0.3822779791631748
vn 0.8604543328663927 -0.004556001762487344 -0.5095071971026425
vn -0.8604543328663927 0.004556001762487344 0.5095071971026425
vn 0.8922581544476693 0.00516500089404882 -0.45149607815284915
vn -0.8922581544476693 -0.00516500089404882 0.45149607815284915
vn 0.8222533376855368 0.023956009838328008 -0.5686172335214793
vn -0.8222533376855368 -0.023956009838328008 0.5686172335214793
vn -0.00014899999779502353 0.9999999852015002 -0.00008599999872732903
vn 0.00014899999779502353 -0.9999999852015002 0.00008599999872732903
vn -0.7440870255538091 0.01253900043062063 0.6679650229395891
vn 0.7440870255538091 -0.01253900043062063 -0.6679650229395891
vn -0.8016489028297374 0.027091996716098004 0.5971809276139126
vn 0.8016489028297374 -0.027091996716098004 -0.5971809276139126
vn 0.000030999999663696507 0.9999999891515002 -0.00014399999843781603
vn -0.000030999999663696507 -0.9999999891515002 0.00014399999843781603
vn -0.9475837774045424 -0.004555998929757251 0.3194749249526334
vn 0.9475837774045424 0.004555998929757251 -0.3194749249526334
vn 0.8243647116665391 -0.002859998999674055 -0.566051802015209
vn -0.8243647116665391 0.002859998999674055 0.566051802015209
vn 0.000144999998459375 0.9999999893750001 -0.000014999999840625002
vn -0.000144999998459375 -0.9999999893750001 0.000014999999840625002
vn -0.9590250031748524 0.007315000024216308 0.28322700093762304
vn 0.9590250031748524 -0.007315000024216308 -0.28322700093762304
vn -0.9994418031754475 0.023956995282041572 -0.023283995414578453
vn 0.9994418031754475 -0.023956995282041572 0.023283995414578453
vn -0.00011899999847620503 0.9999999871950002 0.00010699999862986502
vn 0.00011899999847620503 -0.9999999871950002 -0.00010699999862986502
vn -0.9996419863184001 -0.002859999960856611 -0.026602999635898048
vn 0.9996419863184001 0.002859999960856611 0.026602999635898048
vn 0.5788302415861389 -0.004556001901536633 -0.8154353403379114
vn -0.5788302415861389 0.004556001901536633 0.8154353403379114
vn 0.6093939061481658 0.007314998873428083 -0.7928338778968531
vn -0.6093939061481658 -0.007314998873428083 0.7928338778968531
vn -0.000088999999643911 0.999999995999 0.000008999999963991
vn 0.000088999999643911 -0.999999995999 -0.000008999999963991
vn 0.2975429755309594 0.027092997771953235 -0.9543239215192669
vn -0.2975429755309594 -0.027092997771953235 0.9543239215192669
vn -0.9872347768232635 0.005165998832161521 -0.15918796401357496
vn 0.9872347768232635 -0.005165998832161521 0.15918796401357496
vn -0.8652088529136424 0.012535997868868007 -0.5012549147861705
vn -0.8156719221767456 0.02709399741496183 -0.577879944864477
vn 0.8156719221767456 -0.02709399741496183 0.577879944864477
vn 0.8652088529136424 -0.012535997868868007 0.5012549147861705
vn 0.00005899999981444501 0.9999999968550002 -0.00005299999983331501
vn -0.00005899999981444501 -0.9999999968550002 0.00005299999983331501
vn -0.995603123720621 -0.004556000566160558 -0.09356101162654695
vn 0.995603123720621 0.004556000566160558 0.09356101162654695
vn 0.5228679418084614 -0.0028589996818133667 -0.852408905132861
vn -0.5228679418084614 0.0028589996818133667 0.852408905132861
vn -0.28669810854263433 0.02395800907039614 -0.9577213625890668
vn 0.20936101191463086 0.012536000713417553 -0.9777580556437236
vn -0.20936101191463086 -0.012536000713417553 0.9777580556437236
vn 0.28669810854263433 -0.02395800907039614 0.9577213625890668
vn -0.5657140312803097 0.007316000404527279 -0.8245690455933098
vn 0.5657140312803097 -0.007316000404527279 0.8245690455933098
vn -0.9023937715838614 -0.0028599992760699245 -0.4309028909287967
vn 0.9023937715838614 0.0028599992760699245 0.4309028909287967
vn 0.19712495681140513 -0.004555999001814898 -0.9803677852087946
vn -0.19712495681140513 0.004555999001814898 0.9803677852087946
vn -0.15367694489007436 0.005164998147785512 -0.9881076456557688
vn 0.15367694489007436 -0.005164998147785512 0.9881076456557688
vn -0.8714702826814759 -0.004555001477519734 -0.4904271590813547
vn 0.8714702826814759 0.004555001477519734 0.4904271590813547
vn -0.5966560865962841 -0.00455600066123976 -0.8024841164693431
vn 0.5966560865962841 0.00455600066123976 0.8024841164693431
vn 0.13095895619305783 -0.0028589990436392486 -0.991383668373296
vn -0.13095895619305783 0.0028589990436392486 0.991383668373296
vn -0.21867100171427134 -0.004556000035716763 -0.9757880076496902
vn 0.21867100171427134 0.004556000035716763 0.9757880076496902
vn -0.6491160295633411 -0.0028600001302558488 -0.7606840346445944
vn 0.6491160295633411 0.0028600001302558488 0.7606840346445944
vn -0.2836010299304035 -0.002859000301730331 -0.9589381012034557
vn 0.2836010299304035 0.002859000301730331 0.9589381012034557
usemtl material_0_0
f 1//1 2//2 3//3
f 3//4 2//5 1//6
f 2//2 4//7 3//3
f 3//4 4//8 2//5
f 1//1 3//3 5//9
f 5//10 3//4 1//6
f 2//2 6//11 4//7
f 4//8 6//12 2//5
f 3//3 4//7 7//13
f 7//14 4//8 3//4
f 5//9 3//3 8//15
f 8//16 3//4 5//10
f 9//17 1//1 5//9
f 5//10 1//6 9//18
f 6//11 10//19 4//7
f 4//8 10//20 6//12
f 4//7 11//21 7//13
f 7//14 11//22 4//8
f 8//15 3//3 7//13
f 7//14 3//4 8//16
f 12//23 5//9 8//15
f 8//16 5//10 12//24
f 9//17 5//9 13//25
f 13//26 5//10 9//18
f 14//27 10//19 6//11
f 6//12 10//20 14//28
f 10//19 11//21 4//7
f 4//8 11//22 10//20
f 7//13 11//21 15//29
f 15//30 11//22 7//14
f 8//15 7//13 15//29
f 15//30 7//14 8//16
f 13//25 5//9 12//23
f 12//24 5//10 13//26
f 12//23 8//15 16//31
f 16//32 8//16 12//24
f 17//33 9//17 13//25
f 13//26 9//18 17//34
f 14//27 18//35 10//19
f 10//20 18//36 14//28
f 10//19 19//37 11//21
f 11//22 19//38 10//20
f 11//21 20//39 15//29
f 15//30 20//40 11//22
f 8//15 15//29 16//31
f 16//32 15//30 8//16
f 21//41 13//25 12//23
f 12//24 13//26 21//42
f 22//43 12//23 16//31
f 16//32 12//24 22//44
f 17//33 13//25 23//45
f 23//46 13//26 17//34
f 24//47 18//35 14//27
f 14//28 18//36 24//48
f 18//35 19//37 10//19
f 10//20 19//38 18//36
f 19//37 20//39 11//21
f 11//22 20//40 19//38
f 20//49 16//49 15//50
f 15//51 16//52 20//52
f 23//45 13//25 21//41
f 21//42 13//26 23//46
f 21//41 12//23 22//43
f 22//44 12//24 21//42
f 25//53 22//54 16//53
f 16//55 22//56 25//55
f 17//33 23//45 26//57
f 26//58 23//46 17//34
f 24//47 27//59 18//35
f 18//36 27//60 24//48
f 18//35 28//61 19//37
f 19//38 28//62 18//36
f 19//37 29//63 20//39
f 20//40 29//64 19//38
f 29//65 16//49 20//49
f 20//52 16//52 29//66
f 30//67 23//45 21//41
f 21//42 23//46 30//68
f 30//67 21//41 22//43
f 22//44 21//42 30//68
f 30//67 22//43 25//69
f 25//70 22//44 30//68
f 31//71 25//53 16//53
f 16//55 25//55 31//72
f 26//57 23//45 32//73
f 32//74 23//46 26//58
f 33//75 27//59 24//47
f 24//48 27//60 33//76
f 27//59 28//61 18//35
f 18//36 28//62 27//60
f 28//61 29//63 19//37
f 19//38 29//64 28//62
f 34//77 16//77 29//77
f 29//78 16//78 34//78
f 23//45 30//67 32//73
f 32//74 30//68 23//46
f 35//79 30//67 25//69
f 25//70 30//68 35//80
f 35//79 25//69 31//81
f 31//82 25//70 35//80
f 36//83 31//83 16//83
f 16//84 31//84 36//84
f 26//57 32//73 37//85
f 37//86 32//74 26//58
f 33//75 38//87 27//59
f 27//60 38//88 33//76
f 27//59 39//89 28//61
f 28//62 39//90 27//60
f 28//61 39//89 29//63
f 29//64 39//90 28//62
f 34//91 40//91 16//91
f 16//92 40//92 34//92
f 34//93 29//63 39//89
f 39//90 29//64 34//94
f 32//73 30//67 35//79
f 35//80 30//68 32//74
f 35//79 31//81 41//95
f 41//96 31//82 35//80
f 42//97 31//81 36//98
f 36//99 31//82 42//100
f 40//101 36//101 16//101
f 16//102 36//102 40//102
f 37//85 32//73 43//103
f 43//104 32//74 37//86
f 44//105 38//87 33//75
f 33//76 38//88 44//106
f 38//87 39//89 27//59
f 27//60 39//90 38//88
f 40//107 34//93 45//108
f 45//109 34//94 40//110
f 34//93 39//89 45//108
f 45//109 39//90 34//94
f 32//73 35//79 43//103
f 43//104 35//80 32//74
f 41//95 31//81 42//97
f 42//100 31//82 41//96
f 43//103 35//79 41//95
f 41//96 35//80 43//104
f 46//111 42//97 36//98
f 36//99 42//100 46//112
f 36//98 40//107 46//111
f 46//112 40//110 36//99
f 37//85 43//103 47//113
f 47//114 43//104 37//86
f 48//115 38//87 44//105
f 44//106 38//88 48//116
f 45//108 39//89 38//87
f 38//88 39//90 45//109
f 40//107 45//108 49//117
f 49//118 45//109 40//110
f 50//119 41//95 42//97
f 42//100 41//96 50//120
f 43//103 41//95 50//119
f 50//120 41//96 43//104
f 51//121 42//97 46//111
f 46//112 42//100 51//122
f 46//111 40//107 49//117
f 49//118 40//110 46//112
f 47//113 43//103 50//119
f 50//120 43//104 47//114
f 48//115 45//108 38//87
f 38//88 45//109 48//116
f 48//115 44//105 52//123
f 52//124 44//106 48//116
f 49//117 45//108 48//115
f 48//116 45//109 49//118
f 50//119 42//97 51//121
f 51//122 42//100 50//120
f 51//121 46//111 53//125
f 53//126 46//112 51//122
f 46//111 49//117 53//125
f 53//126 49//118 46//112
f 47//113 50//119 54//127
f 54//128 50//120 47//114
f 53//125 48//115 52//123
f 52//124 48//116 53//126
f 53//125 49//117 48//115
f 48//116 49//118 53//126
f 54//127 50//119 51//121
f 51//122 50//120 54//128
f 51//121 53//125 55//129
f 55//130 53//126 51//122
f 53//125 52//123 55//129
f 55//130 52//124 53//126
f 51//121 55//129 54//127
f 54//128 55//130 51//122
