mtllib new-4.mtl
v -0.601552 -0.562153 -0.601858
v 0.623749 -0.562153 -0.601858
v -0.601552 -0.500453 0.538661
v 0.623749 -0.500453 0.538661
v 0.623749 -0.562153 0.579034
v -0.601552 -0.562153 0.538661
v 0.623749 -0.500453 0.579034
v -0.601552 -0.500453 0.579034
v 0.623749 -0.500453 0.633536
v -0.601552 -0.562153 0.579034
v -0.601552 -0.500453 0.633536
vn 0.000000 1.000000 0.000000
vn -1.000000 0.000000 0.000000
vn 1.000000 0.000000 0.000000
vn 0.000000 -1.000000 0.000000
usemtl material-1
f 5//4 1//4 2//4
f 2//1 1//1 5//1
f 3//2 1//2 6//2
f 6//3 1//3 3//3
f 1//4 5//4 6//4
f 6//1 5//1 1//1
f 6//2 8//2 3//2
f 3//3 8//3 6//3
f 7//3 5//3 4//3
f 4//2 5//2 7//2
f 6//4 5//4 10//4
f 10//1 5//1 6//1
f 8//2 6//2 10//2
f 10//3 6//3 8//3
f 9//4 8//4 7//4
f 7//1 8//1 9//1
f 8//4 9//4 11//4
f 11//1 9//1 8//1