# SSTK version 0.8.0
# 5
mtllib original-5.mtl
o Group5/mesh17/mesh17-geometry#mesh17-geometry
v 0.032077 0.116734 -0.228874
v 0.047289 0.116734 -0.236018
v 0.032077 0.116734 -0.268910
v 0.197091 0.116734 -0.228874
v 0.047289 0.116734 -0.263503
v 0.032077 0.133102 -0.228874
v 0.185041 0.116734 -0.236018
v 0.197091 0.116734 -0.268910
v 0.047289 0.097932 -0.263503
v 0.032077 0.133102 -0.268910
v 0.197091 0.133102 -0.228874
v 0.185041 0.116734 -0.263503
v 0.185041 0.097932 -0.236018
v 0.197091 0.133102 -0.268910
v 0.047289 0.097932 -0.236018
v 0.073044 0.097932 -0.244530
v 0.185041 0.097932 -0.263503
v 0.073044 0.097932 -0.257581
v 0.158426 0.097932 -0.257581
v 0.158426 0.097932 -0.244530
v 0.073044 0.133102 -0.257581
v 0.158426 0.133102 -0.244530
v 0.073044 0.133102 -0.244530
v 0.115735 0.133102 -0.244530
v 0.158426 0.133102 -0.257581
v 0.115735 0.133102 -0.257581
vn 0 1 0
vn 0 -1 0
vn 1 0 0
vn -1 0 0
vn 0 0 -1
vn 0 0 1
usemtl material_0_0
f 1//1 2//1 3//1
f 2//1 1//1 4//1
f 3//2 2//2 1//2
f 4//2 1//2 2//2
f 5//1 3//1 2//1
f 2//2 3//2 5//2
f 3//3 6//3 1//3
f 1//4 6//4 3//4
f 6//5 4//5 1//5
f 1//6 4//6 6//6
f 2//1 4//1 7//1
f 7//2 4//2 2//2
f 3//1 5//1 8//1
f 8//2 5//2 3//2
f 2//3 9//3 5//3
f 5//4 9//4 2//4
f 6//3 3//3 10//3
f 10//4 3//4 6//4
f 4//5 6//5 11//5
f 11//6 6//6 4//6
f 7//1 4//1 12//1
f 12//2 4//2 7//2
f 13//5 2//5 7//5
f 7//6 2//6 13//6
f 8//1 5//1 12//1
f 12//2 5//2 8//2
f 14//6 3//6 8//6
f 8//5 3//5 14//5
f 9//3 2//3 15//3
f 15//4 2//4 9//4
f 9//6 12//6 5//6
f 5//5 12//5 9//5
f 3//6 14//6 10//6
f 10//5 14//5 3//5
f 14//4 4//4 11//4
f 11//3 4//3 14//3
f 8//1 12//1 4//1
f 4//2 12//2 8//2
f 12//4 13//4 7//4
f 7//3 13//3 12//3
f 2//5 13//5 15//5
f 15//6 13//6 2//6
f 4//4 14//4 8//4
f 8//3 14//3 4//3
f 15//1 16//1 9//1
f 9//2 16//2 15//2
f 12//6 9//6 17//6
f 17//5 9//5 12//5
f 13//4 12//4 17//4
f 17//3 12//3 13//3
f 16//1 15//1 13//1
f 13//2 15//2 16//2
f 18//1 9//1 16//1
f 16//2 9//2 18//2
f 9//1 18//1 17//1
f 17//2 18//2 9//2
f 17//1 19//1 13//1
f 13//2 19//2 17//2
f 16//1 13//1 20//1
f 20//2 13//2 16//2
f 16//4 21//4 18//4
f 18//3 21//3 16//3
f 17//1 18//1 19//1
f 19//2 18//2 17//2
f 20//1 13//1 19//1
f 19//2 13//2 20//2
f 22//6 16//6 20//6
f 20//5 16//5 22//5
f 21//4 16//4 23//4
f 23//3 16//3 21//3
f 21//5 19//5 18//5
f 18//6 19//6 21//6
f 19//3 22//3 20//3
f 20//4 22//4 19//4
f 16//6 22//6 23//6
f 23//5 22//5 16//5
f 24//1 21//1 23//1
f 23//2 21//2 24//2
f 19//5 21//5 25//5
f 25//6 21//6 19//6
f 22//3 19//3 25//3
f 25//4 19//4 22//4
f 23//6 22//6 24//6
f 24//5 22//5 23//5
f 21//1 24//1 26//1
f 26//2 24//2 21//2
f 25//5 21//5 26//5
f 26//6 21//6 25//6
f 26//1 22//1 25//1
f 25//2 22//2 26//2
f 22//1 26//1 24//1
f 24//2 26//2 22//2
