# SSTK version 0.8.0
# 21
mtllib original-21.mtl
o mesh21/mesh21-geometry#mesh21-geometry
v 0.026887 0.509299 0.527250
v 0.026478 0.532714 0.551460
v 0.026478 0.508902 0.527648
v 0.026887 0.533112 0.551062
v 0.025816 0.532866 0.551308
v 0.025817 0.509053 0.527496
v 0.026478 0.509697 0.526852
v 0.025817 0.509545 0.527004
v 0.026478 0.533509 0.550664
v 0.025816 0.533357 0.550816
vn 0.621786974627983 -0.6499349734794039 -0.4369959821683795
vn 0.48662012992150927 -0.29616507907238476 0.8218802194317744
vn 0.0709940277644208 -0.9173793587697072 0.39163115315953273
vn -0.0709940277644208 0.9173793587697072 -0.39163115315953273
vn -0.48662012992150927 0.29616507907238476 -0.8218802194317744
vn -0.621786974627983 0.6499349734794039 0.4369959821683795
vn 0.6217892244727902 0.6499562346413924 0.4369611577478131
vn -0.6217892244727902 -0.6499562346413924 -0.4369611577478131
vn -0.5057168627803222 0.021611994135866952 0.8624287659911977
vn 0.5057168627803222 -0.021611994135866952 -0.8624287659911977
vn -0.7217122617690542 -0.6522192365635472 -0.2318220840831603
vn 0.7217122617690542 0.6522192365635472 0.2318220840831603
vn 0.48660724652186277 0.29618015004890064 -0.821882416376833
vn -0.48660724652186277 -0.29618015004890064 0.821882416376833
vn -0.5057129041638738 -0.02162199590248062 -0.862430836563335
vn 0.5057129041638738 0.02162199590248062 0.862430836563335
vn 0.07101598647909009 0.9173598253415863 -0.39167292542841947
vn -0.07101598647909009 -0.9173598253415863 0.39167292542841947
vn -0.7216778188758496 0.65226983629562 0.23178694182693202
vn 0.7216778188758496 -0.65226983629562 -0.23178694182693202
usemtl material_0_0
f 1//1 2//2 3//3
f 3//4 2//5 1//6
f 1//1 4//7 2//2
f 2//5 4//8 1//6
f 3//3 2//2 5//9
f 5//10 2//5 3//4
f 1//1 3//3 6//11
f 6//12 3//4 1//6
f 7//13 4//7 1//1
f 1//6 4//8 7//14
f 4//7 5//9 2//2
f 2//5 5//10 4//8
f 3//3 5//9 6//11
f 6//12 5//10 3//4
f 1//1 6//11 8//15
f 8//16 6//12 1//6
f 7//13 9//17 4//7
f 4//8 9//18 7//14
f 7//13 1//1 8//15
f 8//16 1//6 7//14
f 10//19 5//9 4//7
f 4//8 5//10 10//20
f 6//11 5//9 10//19
f 10//20 5//10 6//12
f 8//15 6//11 10//19
f 10//20 6//12 8//16
f 7//13 8//15 9//17
f 9//18 8//16 7//14
f 4//7 9//17 10//19
f 10//20 9//18 4//8
f 9//17 8//15 10//19
f 10//20 8//16 9//18
