mtllib new-0.mtl
v -0.395385 -0.631565 0.422427
v -0.395385 -0.811316 -0.494306
v -0.395385 -0.811316 0.422427
v 0.404510 -0.811316 -0.494306
v 0.404510 -0.811316 0.422427
v 0.404510 -0.631565 0.422427
vn 0.000000 -1.000000 0.000000
vn 0.000000 0.000000 -1.000000
vn 1.000000 0.000000 0.000000
vn -1.000000 0.000000 0.000000
vn 0.000000 1.000000 0.000000
vn 0.000000 0.000000 1.000000
usemtl material-0
f 2//3 1//3 3//3
f 1//2 5//2 3//2
f 5//5 2//5 3//5
f 3//1 2//1 5//1
f 2//5 5//5 4//5
f 4//1 5//1 2//1
f 5//2 1//2 6//2
usemtl material-5
f 3//4 1//4 2//4
f 3//6 5//6 1//6
f 6//6 1//6 5//6