mtllib new-1.mtl
v -0.531720 -0.755991 -0.480864
v 0.505809 -0.755991 0.421570
v 0.505809 -0.755991 -0.480864
v -0.531720 -0.701953 0.421570
v 0.505809 0.751668 -0.480864
v 0.505809 -0.701953 0.421570
v -0.531720 0.751668 -0.480864
v 0.505809 -0.701953 0.508030
v -0.531720 0.751668 0.508030
v 0.505809 0.751668 0.508030
vn 0.000000 -1.000000 0.000000
vn 0.000000 1.000000 0.000000
vn 0.000000 0.000000 -1.000000
vn 1.000000 0.000000 0.000000
vn 0.000000 0.000000 1.000000
vn -1.000000 0.000000 0.000000
usemtl material-0
f 3//5 5//5 1//5
f 3//6 2//6 5//6
f 7//4 4//4 1//4
f 7//5 1//5 5//5
f 6//6 5//6 2//6
f 9//4 4//4 7//4
f 7//1 5//1 9//1
f 8//6 5//6 6//6
f 10//1 9//1 5//1
f 10//6 5//6 8//6
usemtl material-2
f 1//3 5//3 3//3
f 5//4 2//4 3//4
f 1//6 4//6 7//6
f 5//3 1//3 7//3
f 2//4 5//4 6//4
f 7//6 4//6 9//6
f 9//2 5//2 7//2
f 6//4 5//4 8//4
f 5//2 9//2 10//2
f 8//4 5//4 10//4