mtllib new-0.mtl
v -0.531720 -0.755991 -0.480864
v 0.505809 -0.755991 0.421570
v -0.531720 -0.755991 0.421570
v 0.505809 -0.755991 -0.480864
v -0.531720 -0.701953 0.421570
v 0.505809 -0.701953 0.421570
vn 0.000000 -1.000000 0.000000
vn 0.000000 1.000000 0.000000
vn 0.000000 0.000000 -1.000000
vn 1.000000 0.000000 0.000000
vn 0.000000 0.000000 1.000000
vn -1.000000 0.000000 0.000000
usemtl material-0
f 1//1 2//1 3//1
f 2//1 1//1 4//1
f 3//2 2//2 1//2
f 4//2 1//2 2//2
f 3//3 5//3 2//3
f 3//4 1//4 5//4
f 6//3 2//3 5//3
usemtl material-1
f 2//5 5//5 3//5
f 5//5 2//5 6//5
usemtl material-2
f 5//6 1//6 3//6