# SSTK version 0.8.0
# 19
mtllib original-19.mtl
o mesh23/mesh23-geometry#mesh23-geometry
v -0.423639 0.022127 0.071629
v -0.268549 0.022127 -0.111216
v -0.305693 0.022127 -0.132661
v -0.386496 0.022127 0.093074
v -0.268549 -0.020763 -0.111216
v -0.423639 -0.020763 0.071629
v -0.305693 -0.020763 -0.132661
v -0.386496 -0.020763 0.093074
vn 0 1 0
vn 0 -1 0
vn -0.5000001748438417 0 0.8660253028382762
vn 0.5000001748438417 0 -0.8660253028382762
vn 0.8660253028382762 0 0.5000001748438417
vn -0.8660253028382762 0 -0.5000001748438417
usemtl material_0_0
f 1//1 2//1 3//1
f 2//1 1//1 4//1
f 3//2 2//2 1//2
f 4//2 1//2 2//2
f 3//3 5//3 2//3
f 2//4 5//4 3//4
f 6//5 3//5 1//5
f 1//6 3//6 6//6
f 4//4 6//4 1//4
f 1//3 6//3 4//3
f 5//6 4//6 2//6
f 2//5 4//5 5//5
f 5//3 3//3 7//3
f 7//4 3//4 5//4
f 3//5 6//5 7//5
f 7//6 6//6 3//6
f 6//4 4//4 8//4
f 8//3 4//3 6//3
f 4//6 5//6 8//6
f 8//5 5//5 4//5
