# SSTK version 0.8.0
# 25
mtllib original-25.mtl
o mesh24/mesh24-geometry#mesh24-geometry
v 0.016524 0.450145 0.668677
v 0.015931 0.450145 0.674693
v 0.014176 0.450145 0.656877
v 0.014176 0.450145 0.680477
v 0.015931 0.450145 0.662661
v 0.011327 0.450145 0.685808
v 0.011327 0.450145 0.651546
v 0.007492 0.450145 0.646873
v 0.002820 0.450145 0.643039
v -0.002511 0.450145 0.640189
v 0.007492 0.450145 0.690480
v 0.002820 0.450145 0.694315
v -0.002511 0.450145 0.697165
v -0.008296 0.450145 0.638435
v -0.014311 0.450145 0.637842
v -0.008296 0.450145 0.698919
v -0.014311 0.450145 0.699512
v -0.020327 0.450145 0.638435
v -0.020327 0.450145 0.698919
v -0.026111 0.450145 0.697165
v -0.026111 0.450145 0.640189
v -0.031442 0.450145 0.643039
v -0.036115 0.450145 0.646873
v -0.039949 0.450145 0.651546
v -0.031442 0.450145 0.694315
v -0.036115 0.450145 0.690480
v -0.039949 0.450145 0.685808
v -0.042799 0.450145 0.656877
v -0.044553 0.450145 0.662661
v -0.045146 0.450145 0.668677
v -0.044553 0.450145 0.674693
v -0.042799 0.450145 0.680477
vn 0 -1 0
vn 0 1 0
usemtl material_0_0
f 1//1 2//1 3//1
f 3//2 2//2 1//2
f 2//1 4//1 3//1
f 3//2 4//2 2//2
f 1//1 3//1 5//1
f 5//2 3//2 1//2
f 4//1 6//1 3//1
f 3//2 6//2 4//2
f 3//1 6//1 7//1
f 7//2 6//2 3//2
f 6//1 8//1 7//1
f 7//2 8//2 6//2
f 6//1 9//1 8//1
f 8//2 9//2 6//2
f 6//1 10//1 9//1
f 9//2 10//2 6//2
f 6//1 11//1 10//1
f 10//2 11//2 6//2
f 11//1 12//1 10//1
f 10//2 12//2 11//2
f 12//1 13//1 10//1
f 10//2 13//2 12//2
f 13//1 14//1 10//1
f 10//2 14//2 13//2
f 13//1 15//1 14//1
f 14//2 15//2 13//2
f 13//1 16//1 15//1
f 15//2 16//2 13//2
f 16//1 17//1 15//1
f 15//2 17//2 16//2
f 17//1 18//1 15//1
f 15//2 18//2 17//2
f 17//1 19//1 18//1
f 18//2 19//2 17//2
f 19//1 20//1 18//1
f 18//2 20//2 19//2
f 18//1 20//1 21//1
f 21//2 20//2 18//2
f 20//1 22//1 21//1
f 21//2 22//2 20//2
f 20//1 23//1 22//1
f 22//2 23//2 20//2
f 20//1 24//1 23//1
f 23//2 24//2 20//2
f 20//1 25//1 24//1
f 24//2 25//2 20//2
f 25//1 26//1 24//1
f 24//2 26//2 25//2
f 26//1 27//1 24//1
f 24//2 27//2 26//2
f 27//1 28//1 24//1
f 24//2 28//2 27//2
f 27//1 29//1 28//1
f 28//2 29//2 27//2
f 27//1 30//1 29//1
f 29//2 30//2 27//2
f 27//1 31//1 30//1
f 30//2 31//2 27//2
f 27//1 32//1 31//1
f 31//2 32//2 27//2
