mtllib new-3.mtl
v 0.491998 0.706178 0.504777
v -0.476267 0.706178 0.423666
v 0.491998 0.706178 0.423666
v -0.455989 -0.429378 0.423666
v 0.471720 -0.429378 0.423666
v 0.471720 0.685900 0.423666
v -0.455989 0.685900 0.423666
v 0.471720 -0.429378 0.403388
v -0.455989 0.685900 0.403388
v -0.455989 -0.429378 0.403388
v 0.471720 0.685900 0.403388
v -0.476267 -0.449656 0.403388
v -0.476267 0.706178 0.403388
v 0.491998 0.706178 0.403388
v 0.491998 -0.449656 0.403388
v -0.476267 -0.469934 0.403388
v -0.476267 0.706178 -0.569946
v 0.491998 -0.713267 0.403388
v -0.476267 -0.713267 0.403388
v 0.491998 0.706178 -0.569946
v 0.491998 -0.713267 -0.569946
v -0.476267 -0.713267 -0.569946
vn 0.000000 0.000000 1.000000
vn 1.000000 0.000000 0.000000
vn -1.000000 0.000000 0.000000
vn 0.000000 -1.000000 0.000000
vn 0.000000 1.000000 0.000000
vn 0.000000 0.000000 -1.000000
vt -43.089947 0.216667
vt -42.294109 0.216667
vt -42.294109 1.166667
vt -43.089947 1.166667
vt -43.089947 1.233333
vt -42.227444 1.166667
vt -42.294109 1.233333
vt -41.431610 1.166667
vt -42.210777 1.150000
vt -41.448277 1.150000
vt -43.073277 0.233333
vt -42.310780 0.233333
vt -43.073277 1.150000
vt -42.310780 1.150000
vt 43.089947 28.354725
vt 44.056610 28.354725
vt 44.039944 28.354725
vt 42.294109 28.354725
vt 43.089947 27.554724
vt -42.294109 0.000000
vt 44.256611 28.354725
vt 42.294109 27.554724
vt -41.494110 0.000000
vt -41.494110 1.166667
vt -40.698277 1.166667
vt 44.256611 27.554724
vt -40.698277 0.000000
usemtl material-0
f 2/5/5 1/3/5 3/7/5
f 3/6/6 6/9/6 2/8/6
f 7/10/6 2/8/6 6/9/6
f 13/4/1 10/11/1 9/13/1
f 8/12/1 14/3/1 11/14/1
f 11/14/1 14/3/1 9/13/1
f 12/1/1 10/11/1 13/4/1
f 13/4/1 9/13/1 14/3/1
f 8/12/1 15/2/1 14/3/1
f 13/15/3 16/16/3 12/17/3
f 14/18/5 17/19/5 13/15/5
f 18/20/2 14/3/2 15/2/2
f 13/15/3 19/21/3 16/16/3
f 17/19/5 14/18/5 20/22/5
f 17/19/3 19/21/3 13/15/3
f 21/23/2 14/3/2 18/20/2
f 14/3/2 21/23/2 20/24/2
f 21/23/6 17/25/6 20/24/6
f 19/21/3 17/19/3 22/26/3
f 17/25/6 21/23/6 22/27/6
usemtl material-1
f 3//4 1//4 2//4
f 2//1 6//1 3//1
f 6//1 2//1 7//1
f 9//3 4//3 7//3
f 7//2 4//2 9//2
f 8//2 6//2 5//2
f 5//3 6//3 8//3
f 6//5 9//5 7//5
f 7//4 9//4 6//4
f 4//3 9//3 10//3
f 10//2 9//2 4//2
f 6//2 8//2 11//2
f 11//3 8//3 6//3
f 9//5 6//5 11//5
f 11//4 6//4 9//4
f 9//6 10//6 13//6
f 11//6 14//6 8//6
f 9//6 14//6 11//6
f 13//6 10//6 12//6
f 14//6 9//6 13//6
f 14//6 15//6 8//6
f 12//2 16//2 13//2
f 13//4 17//4 14//4
f 15//3 14//3 18//3
f 16//2 19//2 13//2
f 20//4 14//4 17//4
f 13//2 19//2 17//2
f 18//3 14//3 21//3
f 20//3 21//3 14//3
f 20//1 17//1 21//1
f 22//2 17//2 19//2
f 22//1 21//1 17//1