mtllib new-0.mtl
v -0.056727 -0.771344 0.423796
v 0.402179 -0.771344 0.423796
v -0.413654 -0.771344 0.423796
v -0.413654 -0.771344 0.284931
v 0.402179 -0.771344 0.284931
v -0.413654 -0.771344 -0.409395
v 0.402179 -0.771344 -0.409395
vn 0.000000 1.000000 0.000000
vn 0.000000 -1.000000 0.000000
vt -1.328125 10.905370
vt -1.328125 11.525000
vt -1.328125 10.423440
vt -1.140625 10.423440
vt -1.140625 11.525000
vt -0.203125 10.423440
vt -0.203125 11.525000
usemtl material-2
f 1/1/1 2/2/1 3/3/1
f 3/3/2 2/2/2 1/1/2
f 3/3/1 2/2/1 4/4/1
f 4/4/2 2/2/2 3/3/2
f 2/2/1 5/5/1 4/4/1
f 4/4/2 5/5/2 2/2/2
f 4/4/1 5/5/1 6/6/1
f 6/6/2 5/5/2 4/4/2
f 7/7/1 6/6/1 5/5/1
f 5/5/2 6/6/2 7/7/2