# SSTK version 0.8.0
# 16
mtllib original-16.mtl
o #ID128
v 0.406583 -0.052164 0.107146
v 0.324145 0.000856 0.160338
v 0.324145 -0.052164 0.160338
v 0.406583 0.000856 0.107146
v 0.406583 0.000856 0.107146
v 0.406583 -0.052164 0.107146
v 0.324145 0.000856 0.160338
v 0.324145 -0.052164 0.160338
v 0.343820 -0.052164 0.284558
v 0.324145 0.000856 0.160338
v 0.343820 0.000856 0.284558
v 0.324145 -0.052164 0.160338
v 0.324145 -0.052164 0.160338
v 0.343820 -0.052164 0.284558
v 0.324145 0.000856 0.160338
v 0.343820 0.000856 0.284558
v 0.765264 -0.052164 0.164096
v 0.406583 0.000856 0.107146
v 0.406583 -0.052164 0.107146
v 0.765264 0.000856 0.164096
v 0.765264 0.000856 0.164096
v 0.765264 -0.052164 0.164096
v 0.406583 0.000856 0.107146
v 0.406583 -0.052164 0.107146
v 0.407249 -0.052164 0.373614
v 0.343820 0.000856 0.284558
v 0.407249 0.000856 0.373614
v 0.343820 -0.052164 0.284558
v 0.343820 -0.052164 0.284558
v 0.407249 -0.052164 0.373614
v 0.343820 0.000856 0.284558
v 0.407249 0.000856 0.373614
v 0.765264 -0.052164 0.164096
v 0.788875 0.000856 0.313170
v 0.765264 0.000856 0.164096
v 0.788875 -0.052164 0.313170
v 0.788875 -0.052164 0.313170
v 0.765264 -0.052164 0.164096
v 0.788875 0.000856 0.313170
v 0.765264 0.000856 0.164096
v 0.788875 0.000856 0.313170
v 0.407249 -0.052164 0.373614
v 0.407249 0.000856 0.373614
v 0.788875 -0.052164 0.313170
v 0.788875 -0.052164 0.313170
v 0.788875 0.000856 0.313170
v 0.407249 -0.052164 0.373614
v 0.407249 0.000856 0.373614
vn 0.5421684358181025 0 0.840269829996622
vn -0.5421684358181025 0 -0.840269829996622
vn 0.9876883459980479 0 -0.15643443092759468
vn -0.9876883459980479 0 0.15643443092759468
vn -0.15681015305254775 0 0.9876287642123616
vn 0.15681015305254775 0 -0.9876287642123616
vn 0.8145210315299664 0 -0.5801340269242615
vn -0.8145210315299664 0 0.5801340269242615
vn -0.9876883459980584 0 0.15643443092752776
vn 0.9876883459980584 0 -0.15643443092752776
vn -0.1564344309275278 0 -0.9876883459980585
vn 0.1564344309275278 0 0.9876883459980585
usemtl material_0_0
f 1//1 2//1 3//1
f 2//1 1//1 4//1
f 5//2 6//2 7//2
f 8//2 7//2 6//2
f 9//3 10//3 11//3
f 10//3 9//3 12//3
f 13//4 14//4 15//4
f 16//4 15//4 14//4
f 17//5 18//5 19//5
f 18//5 17//5 20//5
f 21//6 22//6 23//6
f 24//6 23//6 22//6
f 25//7 26//7 27//7
f 26//7 25//7 28//7
f 29//8 30//8 31//8
f 32//8 31//8 30//8
f 33//9 34//9 35//9
f 34//9 33//9 36//9
f 37//10 38//10 39//10
f 40//10 39//10 38//10
f 41//11 42//11 43//11
f 42//11 41//11 44//11
f 45//12 46//12 47//12
f 48//12 47//12 46//12
