# SSTK version 0.8.0
# 15
mtllib original-15.mtl
o #ID120
v 0.841624 0.000856 0.351494
v 0.788875 0.000856 0.313170
v 0.386261 0.000856 0.423617
v 0.805563 0.000856 0.123812
v 0.765264 0.000856 0.164096
v 0.406583 0.000856 0.107146
v 0.350227 0.000856 0.051517
v 0.271857 0.000856 0.124920
v 0.407249 0.000856 0.373614
v 0.299979 0.000856 0.302476
v 0.343820 0.000856 0.284558
v 0.324145 0.000856 0.160338
v 0.406583 0.000856 0.107146
v 0.324145 0.000856 0.160338
v 0.271857 0.000856 0.124920
v 0.343820 0.000856 0.284558
v 0.299979 0.000856 0.302476
v 0.407249 0.000856 0.373614
v 0.788875 0.000856 0.313170
v 0.386261 0.000856 0.423617
v 0.350227 0.000856 0.051517
v 0.805563 0.000856 0.123812
v 0.765264 0.000856 0.164096
v 0.841624 0.000856 0.351494
v 0.805563 0.000856 0.123812
v 0.350227 -0.052164 0.051517
v 0.350227 0.000856 0.051517
v 0.805563 -0.052164 0.123812
v 0.805563 -0.052164 0.123812
v 0.805563 0.000856 0.123812
v 0.350227 -0.052164 0.051517
v 0.350227 0.000856 0.051517
v 0.350227 0.000856 0.051517
v 0.271857 -0.052164 0.124920
v 0.271857 0.000856 0.124920
v 0.350227 -0.052164 0.051517
v 0.350227 -0.052164 0.051517
v 0.350227 0.000856 0.051517
v 0.271857 -0.052164 0.124920
v 0.271857 0.000856 0.124920
v 0.271857 -0.052164 0.124920
v 0.299979 0.000856 0.302476
v 0.271857 0.000856 0.124920
v 0.299979 -0.052164 0.302476
v 0.299979 -0.052164 0.302476
v 0.271857 -0.052164 0.124920
v 0.299979 0.000856 0.302476
v 0.271857 0.000856 0.124920
v 0.299979 -0.052164 0.302476
v 0.386261 0.000856 0.423617
v 0.299979 0.000856 0.302476
v 0.386261 -0.052164 0.423617
v 0.386261 -0.052164 0.423617
v 0.299979 -0.052164 0.302476
v 0.386261 0.000856 0.423617
v 0.299979 0.000856 0.302476
v 0.841624 -0.052164 0.351494
v 0.386261 0.000856 0.423617
v 0.386261 -0.052164 0.423617
v 0.841624 0.000856 0.351494
v 0.841624 0.000856 0.351494
v 0.841624 -0.052164 0.351494
v 0.386261 0.000856 0.423617
v 0.386261 -0.052164 0.423617
v 0.841624 -0.052164 0.351494
v 0.805563 0.000856 0.123812
v 0.841624 0.000856 0.351494
v 0.805563 -0.052164 0.123812
v 0.805563 -0.052164 0.123812
v 0.841624 -0.052164 0.351494
v 0.805563 0.000856 0.123812
v 0.841624 0.000856 0.351494
v 0.386261 -0.052164 0.423617
v 0.407249 -0.052164 0.373614
v 0.841624 -0.052164 0.351494
v 0.299979 -0.052164 0.302476
v 0.343820 -0.052164 0.284558
v 0.271857 -0.052164 0.124920
v 0.324145 -0.052164 0.160338
v 0.406583 -0.052164 0.107146
v 0.788875 -0.052164 0.313170
v 0.805563 -0.052164 0.123812
v 0.765264 -0.052164 0.164096
v 0.350227 -0.052164 0.051517
v 0.271857 -0.052164 0.124920
v 0.406583 -0.052164 0.107146
v 0.350227 -0.052164 0.051517
v 0.805563 -0.052164 0.123812
v 0.765264 -0.052164 0.164096
v 0.788875 -0.052164 0.313170
v 0.407249 -0.052164 0.373614
v 0.841624 -0.052164 0.351494
v 0.324145 -0.052164 0.160338
v 0.343820 -0.052164 0.284558
v 0.299979 -0.052164 0.302476
v 0.386261 -0.052164 0.423617
vn 0 1 0
vn 0 -1 0
vn 0.15681015305254775 0 -0.9876287642123616
vn -0.15681015305254775 0 0.9876287642123616
vn -0.6836015099485179 0 -0.7298554484253071
vn 0.6836015099485179 0 0.7298554484253071
vn -0.9876883459980584 0 0.15643443092752776
vn 0.9876883459980584 0 -0.15643443092752776
vn -0.8145210315299664 0 0.5801340269242615
vn 0.8145210315299664 0 -0.5801340269242615
vn 0.1564344309275278 0 0.9876883459980585
vn -0.1564344309275278 0 -0.9876883459980585
usemtl material_0_0
f 1//1 2//1 3//1
f 2//1 1//1 4//1
f 2//1 4//1 5//1
f 5//1 4//1 6//1
f 6//1 4//1 7//1
f 6//1 7//1 8//1
f 3//1 9//1 10//1
f 9//1 3//1 2//1
f 10//1 9//1 11//1
f 10//1 11//1 8//1
f 8//1 11//1 12//1
f 8//1 12//1 6//1
f 13//2 14//2 15//2
f 14//2 16//2 15//2
f 15//2 16//2 17//2
f 16//2 18//2 17//2
f 19//2 20//2 18//2
f 17//2 18//2 20//2
f 15//2 21//2 13//2
f 21//2 22//2 13//2
f 13//2 22//2 23//2
f 23//2 22//2 19//2
f 22//2 24//2 19//2
f 20//2 19//2 24//2
f 25//3 26//3 27//3
f 26//3 25//3 28//3
f 29//4 30//4 31//4
f 32//4 31//4 30//4
f 33//5 34//5 35//5
f 34//5 33//5 36//5
f 37//6 38//6 39//6
f 40//6 39//6 38//6
f 41//7 42//7 43//7
f 42//7 41//7 44//7
f 45//8 46//8 47//8
f 48//8 47//8 46//8
f 49//9 50//9 51//9
f 50//9 49//9 52//9
f 53//10 54//10 55//10
f 56//10 55//10 54//10
f 57//11 58//11 59//11
f 58//11 57//11 60//11
f 61//12 62//12 63//12
f 64//12 63//12 62//12
f 65//8 66//8 67//8
f 66//8 65//8 68//8
f 69//7 70//7 71//7
f 72//7 71//7 70//7
f 73//2 74//2 75//2
f 74//2 73//2 76//2
f 74//2 76//2 77//2
f 77//2 76//2 78//2
f 77//2 78//2 79//2
f 79//2 78//2 80//2
f 75//2 81//2 82//2
f 81//2 75//2 74//2
f 82//2 81//2 83//2
f 82//2 83//2 80//2
f 82//2 80//2 84//2
f 84//2 80//2 78//2
f 85//1 86//1 87//1
f 87//1 86//1 88//1
f 86//1 89//1 88//1
f 89//1 90//1 88//1
f 91//1 92//1 90//1
f 88//1 90//1 92//1
f 86//1 85//1 93//1
f 93//1 85//1 94//1
f 85//1 95//1 94//1
f 94//1 95//1 91//1
f 95//1 96//1 91//1
f 92//1 91//1 96//1
