mtllib new-4.mtl
v -0.220114 -0.021123 -0.077598
v -0.220114 0.000320 -0.077598
v 0.008314 -0.021123 0.112612
v 0.057920 -0.021123 0.102751
v 0.082508 -0.021123 0.133562
v 0.083404 -0.021123 0.025340
v 0.042844 -0.021123 0.015555
v 0.092328 -0.021123 0.022955
v 0.057382 -0.021123 0.059674
v 0.042844 0.000320 0.015555
v 0.083404 0.000320 0.025340
v 0.092328 0.000320 0.022955
v 0.057382 0.000320 0.059674
v 0.057920 0.000320 0.102751
v -0.050088 0.000320 -0.023616
v 0.008314 0.000320 0.112612
v -0.140504 0.000320 0.084413
v -0.220114 0.000320 -0.077598
v -0.195348 0.000320 0.074021
v 0.082508 0.000320 0.133562
v -0.050088 -0.021123 -0.023616
v -0.050088 0.000320 -0.023616
v 0.008314 0.000320 0.112612
v -0.140504 -0.021123 0.084413
v 0.008314 -0.021123 0.112612
v -0.195348 0.000320 0.074021
v -0.140504 0.000320 0.084413
v 0.042844 -0.021123 0.015555
v 0.042844 0.000320 0.015555
v 0.092328 -0.021123 0.022955
v 0.092328 0.000320 0.022955
v 0.082508 0.000320 0.133562
v 0.082508 -0.021123 0.133562
vn 0.123313 0.000000 -0.992368
vn 0.000000 -1.000000 0.000000
vn 0.000000 1.000000 0.000000
vn 0.345868 0.000000 -0.938283
vn -0.229176 0.000000 0.973385
vn -0.186173 0.000000 0.982517
vn 0.270266 0.000000 -0.962786
vn 0.147895 0.000000 -0.989003
vn -0.271735 0.000000 0.962372
usemtl material-0
f 3//2 4//2 5//2
f 6//2 7//2 8//2
f 7//2 6//2 9//2
f 10//3 11//3 12//3
f 11//3 10//3 13//3
f 14//3 10//3 15//3
f 16//3 15//3 17//3
f 17//3 15//3 18//3
f 17//3 18//3 19//3
f 16//3 20//3 14//3
f 2//1 21//4 1//1
f 21//4 2//1 22//4
f 23//5 24//6 25//5
f 24//6 23//5 26//6
f 26//6 23//5 27//6
f 22//4 28//7 21//4
f 28//7 22//4 29//7
f 29//7 30//8 28//7
f 30//8 29//7 31//8
f 32//9 25//5 33//9
f 25//5 32//9 23//5