mtllib new-11.mtl
v 0.566392 -0.021123 -0.064845
v 0.577032 -0.021123 -0.242066
v 0.602380 -0.021123 -0.151614
v 0.512939 -0.021123 -0.086628
v 0.535875 -0.021123 -0.144045
v 0.128015 -0.021123 -0.022464
v 0.284293 -0.021123 -0.049009
v 0.240905 -0.021123 -0.072284
v 0.219953 -0.021123 -0.116840
v 0.524771 -0.021123 -0.204868
v 0.501195 -0.021123 -0.297498
v 0.483026 -0.021123 -0.250476
v 0.407317 -0.021123 -0.294192
v 0.266307 -0.021123 -0.198032
v 0.104395 -0.021123 -0.148938
v 0.229703 -0.021123 -0.165102
v 0.108130 -0.021123 -0.030744
v 0.088245 -0.021123 -0.039025
v 0.099610 -0.021123 -0.144355
v 0.067021 -0.021123 -0.076515
v 0.456186 -0.013976 -0.019169
v 0.484467 0.021764 -0.018885
v 0.456186 0.014616 -0.019169
v 0.413257 0.014616 -0.019600
v 0.128015 0.021764 -0.022464
v 0.108130 -0.021123 -0.030744
v 0.108130 0.000320 -0.030744
v 0.108130 0.000320 -0.030744
v 0.088245 -0.021123 -0.039025
v 0.088245 0.000320 -0.039025
v 0.067021 0.000320 -0.076515
v 0.067021 -0.021123 -0.076515
v 0.073284 0.000320 -0.119138
v 0.073284 -0.021123 -0.119138
v 0.099610 0.000320 -0.144355
v 0.099610 -0.021123 -0.144355
v 0.104395 0.021764 -0.148938
v 0.104395 -0.021123 -0.148938
v 0.099610 0.021764 -0.144355
v 0.099610 0.000320 -0.144355
v 0.407317 -0.021123 -0.294192
v 0.407317 0.021764 -0.294192
v 0.501195 -0.021123 -0.297498
v 0.501195 0.021764 -0.297498
v 0.577032 -0.021123 -0.242066
v 0.088245 0.021764 -0.039025
v 0.099610 0.021764 -0.144355
v 0.067021 0.021764 -0.076515
v 0.108130 0.021764 -0.030744
v 0.066735 0.000320 -0.019529
v 0.108130 0.000320 -0.030744
v 0.066735 0.021764 -0.019529
v 0.066735 0.000320 -0.019529
v 0.088245 0.000320 -0.039025
v 0.108130 0.000320 -0.030744
v 0.067021 0.000320 -0.076515
v -0.047568 0.000320 0.028020
v 0.047093 0.000320 -0.122581
v -0.190942 0.000320 -0.078126
v -0.124652 0.000320 0.060086
v 0.073284 0.000320 -0.119138
v 0.099610 0.000320 -0.144355
v 0.047093 0.021764 -0.122581
v 0.099610 0.000320 -0.144355
v 0.047093 0.000320 -0.122581
v 0.088245 0.021764 -0.039025
v 0.066735 0.021764 -0.019529
v 0.108130 0.021764 -0.030744
v 0.067021 0.021764 -0.076515
v -0.047568 0.021764 0.028020
v 0.047093 0.021764 -0.122581
v -0.190942 0.021764 -0.078126
v -0.114872 0.021764 -0.018395
v -0.115525 0.021764 0.003039
v -0.133108 0.021764 -0.029677
v -0.151996 0.021764 -0.019525
v -0.124652 0.021764 0.060086
v 0.073284 0.021764 -0.119138
v 0.099610 0.021764 -0.144355
v -0.047568 0.000320 0.028020
v -0.047568 0.021764 0.028020
v -0.047568 0.021764 0.028020
v -0.124652 0.000320 0.060086
v -0.047568 0.000320 0.028020
v -0.233960 0.000320 -0.070092
v -0.231932 0.021764 -0.048745
v -0.190942 0.021764 -0.078126
v -0.190942 0.000320 -0.078126
v -0.233960 0.000320 -0.070092
v -0.190942 0.021764 -0.078126
v -0.190942 0.000320 -0.078126
v -0.190942 0.021764 -0.078126
v 0.411876 0.014616 0.005242
v 0.454751 -0.013976 0.006648
v 0.411876 -0.013976 0.005242
v 0.454751 0.014616 0.006648
v 0.456186 0.014616 -0.019169
v 0.411876 0.014616 0.005242
v 0.413257 0.014616 -0.019600
v 0.411876 -0.013976 0.005242
v 0.413257 0.014616 -0.019600
v 0.413257 -0.013976 -0.019600
v 0.454751 0.014616 0.006648
v 0.411876 -0.013976 0.005242
v 0.454751 -0.013976 0.006648
v 0.411876 0.014616 0.005242
v 0.411876 -0.013976 0.005242
v 0.456186 -0.013976 -0.019169
v 0.413257 -0.013976 -0.019600
v 0.423421 0.021764 -0.266907
v 0.423421 -0.021123 -0.266907
v 0.483026 0.021764 -0.250476
v 0.483026 -0.021123 -0.250476
v 0.524771 0.021764 -0.204868
v 0.524771 -0.021123 -0.204868
v 0.535875 -0.021123 -0.144045
v 0.535875 0.021764 -0.144045
v 0.240905 0.021764 -0.072284
v 0.240905 -0.021123 -0.072284
v 0.512939 -0.021123 -0.086628
v 0.512939 0.021764 -0.086628
v 0.284293 -0.021123 -0.049009
v 0.284293 0.021764 -0.049009
v 0.462985 0.021764 -0.050196
v 0.462985 -0.021123 -0.050196
vn 0.000000 -1.000000 0.000000
vn 0.247991 0.000000 0.968762
vn -0.010039 0.000000 0.999950
vn -0.200943 0.000000 0.979603
vn -0.384441 0.000000 0.923149
vn -0.663228 0.000000 0.748417
vn -0.983004 0.000000 0.183582
vn -0.888645 0.000000 -0.458595
vn -0.691715 0.000000 -0.722171
vn -0.569166 0.000000 -0.822222
vn -0.238829 0.000000 -0.971062
vn 0.293605 0.000000 -0.955927
vn 0.821696 0.000000 -0.569926
vn 0.000000 1.000000 0.000000
vn 0.261509 0.000000 0.965201
vn 0.323474 0.000000 0.946237
vn -0.284832 0.000000 -0.958578
vn -0.382991 0.000000 -0.923752
vn 0.384081 0.000000 0.923299
vn 0.265452 0.000000 0.964124
vn -0.241731 0.695980 -0.676150
vn -0.233711 0.696990 -0.677926
vn -0.183582 0.000000 -0.983004
vn -0.440784 0.653874 -0.614946
vn 0.032768 0.000000 -0.999463
vn 0.000000 1.000000 0.000000
vn -0.998459 0.000000 -0.055503
vn -0.032768 0.000000 0.999463
vn 0.000000 -1.000000 0.000000
vn 0.072022 0.000000 0.997403
vn -0.522081 0.000000 0.852896
vn -0.895659 0.000000 0.444741
vn -0.995030 0.000000 -0.099571
vn 0.725530 0.000000 -0.688190
vn -0.789773 0.000000 -0.613399
vn 0.240482 0.000000 -0.970654
vn -0.313032 0.000000 -0.949742
usemtl material-0
f 1//1 2//1 3//1
f 2//1 1//1 4//1
f 7//1 6//1 8//1
f 8//1 6//1 9//1
f 2//1 10//1 11//1
f 10//1 2//1 5//1
f 11//1 12//1 13//1
f 15//1 14//1 16//1
f 15//1 16//1 9//1
f 15//1 9//1 6//1
f 15//1 6//1 17//1
f 15//1 17//1 18//1
f 15//1 18//1 19//1
f 19//1 18//1 20//1
f 21//3 22//2 23//3
f 23//3 22//2 24//3
f 26//5 25//4 27//5
f 29//6 28//5 30//6
f 31//7 29//6 30//6
f 33//8 32//7 31//7
f 35//9 34//8 33//8
f 36//9 37//10 38//10
f 39//9 36//9 40//9
f 37//10 41//11 38//10
f 42//11 43//12 41//11
f 44//12 45//13 43//12
f 46//14 47//14 48//14
f 49//15 50//16 51//15
f 50//16 49//15 52//16
f 53//1 54//1 55//1
f 54//1 53//1 56//1
f 56//1 53//1 57//1
f 56//1 57//1 58//1
f 58//1 57//1 59//1
f 59//1 57//1 60//1
f 61//1 58//1 62//1
f 58//1 61//1 56//1
f 63//17 64//18 65//17
f 66//14 67//14 68//14
f 67//14 66//14 69//14
f 67//14 69//14 70//14
f 70//14 69//14 71//14
f 70//14 71//14 72//14
f 70//14 72//14 73//14
f 70//14 73//14 74//14
f 73//14 72//14 75//14
f 75//14 72//14 76//14
f 74//14 77//14 70//14
f 71//14 78//14 79//14
f 78//14 71//14 69//14
f 52//16 80//19 50//16
f 80//19 52//16 81//19
f 82//19 83//20 84//19
f 87//23 88//23 89//23
f 90//23 65//17 91//23
f 65//17 90//23 63//17
f 85//21 86//22 92//24
usemtl material-1
f 93//25 94//25 95//25
f 94//25 93//25 96//25
usemtl material-2
f 98//26 97//26 99//26
f 100//27 101//27 102//27
f 103//28 104//28 105//28
f 104//28 103//28 106//28
f 108//29 107//29 109//29
usemtl material-3
f 111//30 112//31 110//30
f 114//32 113//31 115//32
f 116//33 114//32 115//32
f 120//35 117//33 116//33
f 118//34 122//36 119//34
f 120//35 124//37 121//35
f 123//36 125//37 122//36