# SSTK version 0.8.0
# 72
mtllib original-72.mtl
o 组件_16_1/组件_16/mesh34/mesh34-geometry#mesh34-geometry
v 0.835448 0.009884 0.274079
v 0.835339 0.032732 0.147139
v 0.835339 0.010231 0.272284
v 0.835448 0.033032 0.145335
v 0.829706 -0.003346 0.135573
v 0.829834 -0.028221 0.273924
v 0.835767 0.009514 0.275744
v 0.829706 -0.027868 0.271963
v 0.830209 -0.028549 0.275751
v 0.835767 0.033265 0.143646
v 0.829834 -0.002993 0.133612
v 0.830209 -0.002665 0.131785
v 0.830806 -0.028832 0.277320
v 0.836274 0.009147 0.277164
v 0.830806 -0.002382 0.130216
v 0.836274 0.033415 0.142187
v 0.831584 -0.002166 0.129011
v 0.836935 0.008807 0.278244
v 0.831584 -0.029048 0.278525
v 0.836935 0.033473 0.141056
v 0.832489 -0.002030 0.128254
v 0.837705 0.008517 0.278909
v 0.832489 -0.029184 0.279281
v 0.837705 0.033433 0.140332
v 0.833461 -0.001983 0.127996
v 0.838531 0.008298 0.279114
v 0.833461 -0.029231 0.279540
v 0.838531 0.033299 0.140063
v 0.901060 -0.001983 0.127996
v 0.840605 0.007854 0.279034
v 0.901060 -0.029231 0.279540
v 0.845901 0.006930 0.278868
v 0.840605 0.032855 0.139984
v 0.902032 -0.002030 0.128254
v 0.895990 0.008298 0.279114
v 0.851220 0.006211 0.278739
v 0.845901 0.031931 0.139818
v 0.895990 0.033299 0.140063
v 0.902032 -0.029184 0.279281
v 0.893916 0.007854 0.279034
v 0.896816 0.008517 0.278909
v 0.856557 0.005696 0.278646
v 0.851220 0.031212 0.139688
v 0.896816 0.033433 0.140332
v 0.893916 0.032855 0.139984
v 0.902937 -0.002166 0.129011
v 0.888620 0.006930 0.278868
v 0.861906 0.005387 0.278590
v 0.856557 0.030697 0.139596
v 0.888620 0.031931 0.139818
v 0.902937 -0.029048 0.278525
v 0.897586 0.008807 0.278244
v 0.883301 0.006211 0.278739
v 0.867261 0.005284 0.278572
v 0.861906 0.030388 0.139540
v 0.897586 0.033473 0.141056
v 0.883301 0.031212 0.139688
v 0.903715 -0.002382 0.130216
v 0.877964 0.005696 0.278646
v 0.872615 0.005387 0.278590
v 0.867261 0.030285 0.139522
v 0.877964 0.030697 0.139596
v 0.903715 -0.028832 0.277320
v 0.898247 0.009147 0.277164
v 0.872615 0.030388 0.139540
v 0.898247 0.033415 0.142187
v 0.904312 -0.002665 0.131785
v 0.898754 0.033265 0.143646
v 0.904312 -0.028549 0.275751
v 0.898754 0.009514 0.275744
v 0.899073 0.033032 0.145335
v 0.904687 -0.002993 0.133612
v 0.899073 0.009884 0.274079
v 0.904687 -0.028221 0.273924
v 0.899182 0.010231 0.272284
v 0.899182 0.032732 0.147139
v 0.904815 -0.003346 0.135573
v 0.904815 -0.027868 0.271963
vn 0.2124350442211525 0.9617532754894356 0.17292191611273183
vn -0.2124350442211525 -0.9617532754894356 -0.17292191611273183
vn -0.9889364118462275 0.14599893632378225 0.02625040794031221
vn 0.9889364118462275 -0.14599893632378225 -0.02625040794031221
vn -0.9854359778053345 0.1448834407283379 0.08902090905828139
vn -0.9806617716918802 0.14398175669264288 0.1325584523213939
vn -0.9742237480860118 0.14270398143729365 0.1747102239343411
vn 0.9742237480860118 -0.14270398143729365 -0.1747102239343411
vn 0.9806617716918802 -0.14398175669264288 -0.1325584523213939
vn 0.9854359778053345 -0.1448834407283379 -0.08902090905828139
vn -0.9858012738934505 0.16456252007931052 -0.03339199567555978
vn -0.9858983447372938 0.16423508718224367 -0.03211370396738688
vn -0.9815767715384919 0.17668267911685967 -0.0727342593016536
vn 0.9815767715384919 -0.17668267911685967 0.0727342593016536
vn 0.9858983447372938 -0.16423508718224367 0.03211370396738688
vn 0.9858012738934505 -0.16456252007931052 0.03339199567555978
vn -0.9853093882678641 0.14492230408507564 0.09034896330274231
vn 0.9853093882678641 -0.14492230408507564 -0.09034896330274231
vn -0.9532212906280401 0.1393416655377186 0.2682406966487154
vn 0.9532212906280401 -0.1393416655377186 -0.2682406966487154
vn -0.9390740997457669 0.13703159450379362 0.31521766653286665
vn 0.9390740997457669 -0.13703159450379362 -0.31521766653286665
vn -0.9749975211435399 0.18955960095079738 -0.11596116354765969
vn 0.9749975211435399 -0.18955960095079738 0.11596116354765969
vn 0 -0.984217861151078 -0.17696101771632444
vn 0 0.984217861151078 0.17696101771632444
vn -0.8813439128283372 0.12880077956235644 0.4545803190906592
vn 0.8813439128283372 -0.12880077956235644 -0.4545803190906592
vn -0.9556058367272054 0.21460110381809056 -0.2019005969603728
vn 0.9556058367272054 -0.21460110381809056 0.2019005969603728
vn -0.8835253936657397 0.12906298712870948 0.4502506236544425
vn 0.8835253936657397 -0.12906298712870948 -0.4502506236544425
vn -0.9402385190540216 0.22860314714064944 -0.25237299460221735
vn 0.9402385190540216 -0.22860314714064944 0.25237299460221735
vn -0.8820194471703504 0.26502233520842117 -0.3896214273547907
vn -0.884523220672592 0.2638035045485447 -0.3847419694794047
vn 0.884523220672592 -0.2638035045485447 0.3847419694794047
vn 0.8820194471703504 -0.26502233520842117 0.3896214273547907
vn -0.7763077742385092 0.1144741462945148 0.6198724945397995
vn 0.7763077742385092 -0.1144741462945148 -0.6198724945397995
vn -0.7805465164575127 0.3022806589815601 -0.5471503804729698
vn 0.7805465164575127 -0.3022806589815601 0.5471503804729698
vn -0.7103330322242362 0.10558219108287709 0.6959018495860324
vn 0.7103330322242362 -0.10558219108287709 -0.6959018495860324
vn -0.7186060862198619 0.31704353958693643 -0.6189415859788056
vn 0.7186060862198619 -0.31704353958693643 0.6189415859788056
vn -0.5226957900988639 0.08070500907858974 0.8486906459497177
vn 0.5226957900988639 -0.08070500907858974 -0.8486906459497177
vn -0.5334577226985676 0.34198023798865074 -0.7736099630424133
vn 0.5334577226985676 -0.34198023798865074 0.7736099630424133
vn -0.39546146325944087 0.06395832297422566 0.9162530021773607
vn 0.39546146325944087 -0.06395832297422566 -0.9162530021773607
vn -0.40222930304290033 0.34775939239726994 -0.8469208893238519
vn 0.40222930304290033 -0.34775939239726994 0.8469208893238519
vn -0.24244992068416063 0.043420029294400184 0.9691917957846722
vn 0.24244992068416063 -0.043420029294400184 -0.9691917957846722
vn -0.2477752508938696 0.3450156307865681 -0.9053019604294618
vn 0.2477752508938696 -0.3450156307865681 0.9053019604294618
vn -0.2544379493048746 0.04533723824146604 0.9660258095838674
vn 0.2544379493048746 -0.04533723824146604 -0.9660258095838674
vn -0.2391877450826384 0.3448176731495699 -0.9076838628542423
vn 0.2391877450826384 -0.3448176731495699 0.9076838628542423
vn 0.03971807336327453 0.005975581471733731 0.9991930579594638
vn -0.004112033042982501 0.03827039301073247 0.9992589595310406
vn 0.036170781088651176 0.0066600311801529016 0.9993234304168578
vn -0.036170781088651176 -0.0066600311801529016 -0.9993234304168578
vn 0.004112033042982501 -0.03827039301073247 -0.9992589595310406
vn -0.03971807336327453 -0.005975581471733731 -0.9991930579594638
vn 0.19349793983976413 0.9656168143388568 0.17361657508384676
vn -0.19349793983976413 -0.9656168143388568 -0.17361657508384676
vn 0 0.3236158509658519 -0.9461885546780026
vn 0 -0.3236158509658519 0.9461885546780026
vn 0.029125647853801687 0.008549747521796453 0.9995391930556851
vn -0.029125647853801687 -0.008549747521796453 -0.9995391930556851
vn 0.05108799764680354 0.40306248748033535 -0.913745395437156
vn 0.04452184484724117 0.39325048384774575 -0.9183527983759359
vn 0.003602394446800194 0.3458936239637407 -0.938266819010179
vn -0.003602394446800194 -0.3458936239637407 0.938266819010179
vn -0.04452184484724117 -0.39325048384774575 0.9183527983759359
vn -0.05108799764680354 -0.40306248748033535 0.913745395437156
vn -0.031891089392900966 0.06445701826670157 0.9974107735599712
vn 0 0.01134990060943665 0.9999355878036124
vn 0 -0.01134990060943665 -0.9999355878036124
vn 0.031891089392900966 -0.06445701826670157 -0.9974107735599712
vn 0.02211789201408414 0.011516409615149655 0.9996890372322932
vn -0.02211789201408414 -0.011516409615149655 -0.9996890372322932
vn 0.1553440690361533 0.972269875074628 0.17481278625334704
vn -0.1553440690361533 -0.972269875074628 -0.17481278625334704
vn 0.032566495034063135 0.37578015485498223 -0.9261364362869879
vn -0.032566495034063135 -0.37578015485498223 0.9261364362869879
vn 0.24782334284702487 0.3449899808180917 -0.9052985716741515
vn 0.4004459958871429 0.347763227568219 -0.8477639659299572
vn 0.25629103617022614 0.3455743810717225 -0.9027143800370567
vn -0.25629103617022614 -0.3455743810717225 0.9027143800370567
vn -0.4004459958871429 -0.347763227568219 0.8477639659299572
vn -0.24782334284702487 -0.3449899808180917 0.9052985716741515
vn -0.05498111409696806 0.1031721934085187 0.9931427770466495
vn 0.05498111409696806 -0.1031721934085187 -0.9931427770466495
vn 0.39546118458325386 0.06398607288102164 0.9162511849734624
vn 0.23019020989579958 0.042132850993403435 0.9722331459764655
vn 0.24238110901691476 0.043452948825752964 0.9692075315586839
vn -0.24238110901691476 -0.043452948825752964 -0.9692075315586839
vn -0.23019020989579958 -0.042132850993403435 -0.9722331459764655
vn -0.39546118458325386 -0.06398607288102164 -0.9162511849734624
vn 0.01501396888998043 0.01565192054290452 0.9997647713944962
vn -0.01501396888998043 -0.01565192054290452 -0.9997647713944962
vn 0.11682900681663815 0.9774779808729407 0.17574919651252058
vn -0.11682900681663815 -0.9774779808729407 -0.17574919651252058
vn 0.022680366149684314 0.3622515685688519 -0.9318043797175041
vn -0.022680366149684314 -0.3622515685688519 0.9318043797175041
vn 0.5294676729496887 0.34228653780412277 -0.7762112530357368
vn -0.5294676729496887 -0.34228653780412277 0.7762112530357368
vn -0.031893160665284734 0.319344907701546 -0.9471017137709494
vn -0.029043958406624763 0.3198963293031441 -0.947007279263707
vn 0.029043958406624763 -0.3198963293031441 0.947007279263707
vn 0.031893160665284734 -0.319344907701546 0.9471017137709494
vn 0.5283717258821097 0.08145447702798898 0.8450967326054795
vn -0.5283717258821097 -0.08145447702798898 -0.8450967326054795
vn -0.2124350442211525 0.9617532754894356 0.17292191611273183
vn -0.19349793983976413 0.9656168143388568 0.17361657508384676
vn 0.19349793983976413 -0.9656168143388568 -0.17361657508384676
vn 0.2124350442211525 -0.9617532754894356 -0.17292191611273183
vn -0.04031681920922903 0.08000214200486558 0.9959790215478856
vn 0.04031681920922903 -0.08000214200486558 -0.9959790215478856
vn 0.007670928050491648 0.021108214150223435 0.9997477682686929
vn -0.007670928050491648 -0.021108214150223435 -0.9997477682686929
vn 0.07804001885238225 0.981216220260921 0.17642132681280853
vn -0.07804001885238225 -0.981216220260921 -0.17642132681280853
vn 0.01422849036552434 0.35160547549426424 -0.9360401378489978
vn -0.01422849036552434 -0.35160547549426424 0.9360401378489978
vn 0.7151808574305747 0.3177495429187177 -0.6225363998512973
vn -0.7151808574305747 -0.3177495429187177 0.6225363998512973
vn -0.023388621576592435 0.32138965842957273 -0.9466581536305856
vn 0.023388621576592435 -0.32138965842957273 0.9466581536305856
vn 0.7131173913946209 0.10595370905936495 0.6929916288290172
vn -0.7131173913946209 -0.10595370905936495 -0.6929916288290172
vn -0.1553440690361533 0.972269875074628 0.17481278625334704
vn 0.1553440690361533 -0.972269875074628 -0.17481278625334704
vn -0.028126784121940383 0.06210521698234149 0.9976732060341874
vn 0.028126784121940383 -0.06210521698234149 -0.9976732060341874
vn -0.00007664802209066263 0.028101739419557084 0.9996050651965886
vn 0.00007664802209066263 -0.028101739419557084 -0.9996050651965886
vn 0.03906598618718043 0.9834665417121327 0.17682593151458623
vn -0.03906598618718043 -0.9834665417121327 -0.17682593151458623
vn 0.006787931537827627 0.3431517497863338 -0.9392554501327183
vn -0.006787931537827627 -0.3431517497863338 0.9392554501327183
vn 0.7812522537187374 0.3020983820645753 -0.5462430627599396
vn -0.7812522537187374 -0.3020983820645753 0.5462430627599396
vn -0.01776216655477082 0.3236944136323672 -0.9459949429159114
vn 0.01776216655477082 -0.3236944136323672 0.9459949429159114
vn 0.7763039643988908 0.11445880480887823 0.6198800987774078
vn -0.7763039643988908 -0.11445880480887823 -0.6198800987774078
vn -0.11682900681663815 0.9774779808729407 0.17574919651252058
vn 0.11682900681663815 -0.9774779808729407 -0.17574919651252058
vn -0.017667345740974866 0.04806263164660738 0.9986880635782484
vn 0.017667345740974866 -0.04806263164660738 -0.9986880635782484
vn -0.008435169092587335 0.03694050793248652 0.999281865539483
vn 0.008435169092587335 -0.03694050793248652 -0.999281865539483
vn 0.00006289166718738072 0.33641563512838774 -0.9417136064036676
vn -0.00006289166718738072 -0.33641563512838774 0.9417136064036676
vn 0.884523646545107 0.2638011577367727 -0.3847425995120444
vn -0.884523646545107 -0.2638011577367727 0.3847425995120444
vn -0.012060999388135794 0.32688466467048605 -0.9449872741455428
vn 0.012060999388135794 -0.32688466467048605 0.9449872741455428
vn 0.8813429444488906 0.12880318542154273 0.4545815149073082
vn -0.8813429444488906 -0.12880318542154273 -0.4545815149073082
vn -0.07804001885238225 0.981216220260921 0.17642132681280853
vn 0.07804001885238225 -0.981216220260921 -0.17642132681280853
vn -0.03906598618718043 0.9834665417121327 0.17682593151458623
vn 0.03906598618718043 -0.9834665417121327 -0.17682593151458623
vn -0.006163567120292291 0.33106912718179615 -0.9435863730827387
vn 0.006163567120292291 -0.33106912718179615 0.9435863730827387
vn 0.8869902549062801 0.26253141103278255 -0.37990202147715474
vn -0.8869902549062801 -0.26253141103278255 0.37990202147715474
vn 0.8791405149043648 0.12846683087723576 0.45892072127770345
vn -0.8791405149043648 -0.12846683087723576 -0.45892072127770345
vn 0.9410900224138808 0.22788143614829154 -0.24983918982424078
vn -0.9410900224138808 -0.22788143614829154 0.24983918982424078
vn 0.954809884469714 0.21541593915627308 -0.20477806932470077
vn -0.954809884469714 -0.21541593915627308 0.20477806932470077
vn 0.9382365035794936 0.13692487341014514 0.31774808007687905
vn -0.9382365035794936 -0.13692487341014514 -0.31774808007687905
vn 0.9751551431186489 0.1892857671797585 -0.1150797340647664
vn -0.9751551431186489 -0.1892857671797585 0.1150797340647664
vn 0.9539687887498597 0.13946126191761432 0.2655072626416686
vn -0.9539687887498597 -0.13946126191761432 -0.2655072626416686
vn 0.9812994279192551 0.17733015970926844 -0.0748695346775167
vn -0.9812994279192551 -0.17733015970926844 0.0748695346775167
vn 0.974061324821664 0.14268747216605446 0.17562693635523718
vn -0.974061324821664 -0.14268747216605446 -0.17562693635523718
vn 0.9809416941204592 0.14403637802416402 0.13041056146556382
vn -0.9809416941204592 -0.14403637802416402 -0.13041056146556382
vn 0.9858022909287186 0.16455640666979 -0.03339209822123797
vn -0.9858022909287186 -0.16455640666979 0.03339209822123797
vn 0.9854349467382343 0.14488920487766593 0.08902294118333334
vn -0.9854349467382343 -0.14488920487766593 -0.08902294118333334
vn 0.9855389320473844 0.14497793299746933 0.08771779957729472
vn -0.9855389320473844 -0.14497793299746933 -0.08771779957729472
vn 0.9856825330216835 0.16501369301748256 -0.03464715302430744
vn -0.9856825330216835 -0.16501369301748256 0.03464715302430744
vn 0.9889364118462275 0.14599893632378225 0.02625040794031221
vn -0.9889364118462275 -0.14599893632378225 -0.02625040794031221
usemtl material_0_0
f 1//1 2//1 3//1
f 2//1 1//1 4//1
f 3//2 2//2 1//2
f 4//2 1//2 2//2
f 5//3 3//3 2//3
f 2//4 3//4 5//4
f 3//5 6//6 1//7
f 1//8 6//9 3//10
f 4//1 1//1 7//1
f 7//2 1//2 4//2
f 5//11 2//12 4//13
f 4//14 2//15 5//16
f 3//3 5//3 8//3
f 8//4 5//4 3//4
f 3//5 8//17 6//6
f 6//9 8//18 3//10
f 1//7 6//6 9//19
f 9//20 6//9 1//8
f 1//7 9//19 7//21
f 7//22 9//20 1//8
f 4//1 7//1 10//1
f 10//2 7//2 4//2
f 11//23 5//11 4//13
f 4//14 5//16 11//24
f 11//25 8//25 5//25
f 5//26 8//26 11//26
f 8//25 11//25 6//25
f 6//26 11//26 8//26
f 6//25 12//25 9//25
f 9//26 12//26 6//26
f 7//21 9//19 13//27
f 13//28 9//20 7//22
f 10//1 7//1 14//1
f 14//2 7//2 10//2
f 11//23 4//13 10//29
f 10//30 4//14 11//24
f 6//25 11//25 12//25
f 12//26 11//26 6//26
f 9//25 12//25 15//25
f 15//26 12//26 9//26
f 9//25 15//25 13//25
f 13//26 15//26 9//26
f 7//21 13//27 14//31
f 14//32 13//28 7//22
f 10//1 14//1 16//1
f 16//2 14//2 10//2
f 12//33 11//23 10//29
f 10//30 11//24 12//34
f 15//35 12//33 16//36
f 16//37 12//34 15//38
f 13//25 15//25 17//25
f 17//26 15//26 13//26
f 14//31 13//27 18//39
f 18//40 13//28 14//32
f 16//1 14//1 18//1
f 18//2 14//2 16//2
f 12//33 10//29 16//36
f 16//37 10//30 12//34
f 16//36 17//41 15//35
f 15//38 17//42 16//37
f 13//25 17//25 19//25
f 19//26 17//26 13//26
f 18//39 13//27 19//43
f 19//44 13//28 18//40
f 16//1 18//1 20//1
f 20//2 18//2 16//2
f 16//36 20//45 17//41
f 17//42 20//46 16//37
f 19//25 17//25 21//25
f 21//26 17//26 19//26
f 18//39 19//43 22//47
f 22//48 19//44 18//40
f 20//1 18//1 22//1
f 22//2 18//2 20//2
f 20//45 21//49 17//41
f 17//42 21//50 20//46
f 19//25 21//25 23//25
f 23//26 21//26 19//26
f 22//47 19//43 23//51
f 23//52 19//44 22//48
f 20//1 22//1 24//1
f 24//2 22//2 20//2
f 20//45 24//53 21//49
f 21//50 24//54 20//46
f 23//25 21//25 25//25
f 25//26 21//26 23//26
f 22//47 23//51 26//55
f 26//56 23//52 22//48
f 24//1 22//1 26//1
f 26//2 22//2 24//2
f 24//53 25//57 21//49
f 21//50 25//58 24//54
f 23//25 25//25 27//25
f 27//26 25//26 23//26
f 26//55 23//51 27//59
f 27//60 23//52 26//56
f 24//1 26//1 28//1
f 28//2 26//2 24//2
f 24//53 28//61 25//57
f 25//58 28//62 24//54
f 27//25 25//25 29//25
f 29//26 25//26 27//26
f 26//63 27//64 30//65
f 30//66 27//67 26//68
f 28//1 26//1 30//69
f 30//70 26//2 28//2
f 28//71 29//71 25//71
f 25//72 29//72 28//72
f 27//25 29//25 31//25
f 31//26 29//26 27//26
f 30//65 27//64 32//73
f 32//74 27//67 30//66
f 28//1 30//69 33//69
f 33//70 30//70 28//2
f 28//75 33//76 29//77
f 29//78 33//79 28//80
f 31//25 29//25 34//25
f 34//26 29//26 31//26
f 35//81 27//64 31//82
f 31//83 27//67 35//84
f 32//73 27//64 36//85
f 36//86 27//67 32//74
f 32//87 33//69 30//69
f 30//70 33//70 32//88
f 33//76 37//89 29//77
f 29//78 37//90 33//79
f 38//91 34//92 29//93
f 29//94 34//95 38//96
f 31//25 34//25 39//25
f 39//26 34//26 31//26
f 35//81 40//97 27//64
f 27//67 40//98 35//84
f 41//99 35//100 31//101
f 31//102 35//103 41//104
f 36//85 27//64 42//105
f 42//106 27//67 36//86
f 36//107 37//87 32//87
f 32//88 37//88 36//108
f 33//69 32//87 37//87
f 37//88 32//88 33//70
f 37//89 43//109 29//77
f 29//78 43//110 37//90
f 44//111 34//92 38//91
f 38//96 34//95 44//112
f 38//113 29//77 45//114
f 45//115 29//78 38//116
f 39//25 34//25 46//25
f 46//26 34//26 39//26
f 41//99 31//101 39//117
f 39//118 31//102 41//104
f 35//119 45//120 40//120
f 40//121 45//121 35//122
f 40//97 47//123 27//64
f 27//67 47//124 40//98
f 38//119 35//119 41//119
f 41//122 35//122 38//122
f 42//105 27//64 48//125
f 48//126 27//67 42//106
f 42//127 43//107 36//107
f 36//108 43//108 42//128
f 37//87 36//107 43//107
f 43//108 36//108 37//88
f 43//109 49//129 29//77
f 29//78 49//130 43//110
f 44//111 46//131 34//92
f 34//95 46//132 44//112
f 38//119 41//119 44//119
f 44//122 41//122 38//122
f 45//114 29//77 50//133
f 50//134 29//78 45//115
f 45//120 35//119 38//119
f 38//122 35//122 45//121
f 39//25 46//25 51//25
f 51//26 46//26 39//26
f 52//135 41//99 39//117
f 39//118 41//104 52//136
f 50//137 40//120 45//120
f 45//121 40//121 50//138
f 40//120 50//137 47//137
f 47//138 50//138 40//121
f 47//123 53//139 27//64
f 27//67 53//140 47//124
f 48//125 27//64 54//141
f 54//142 27//67 48//126
f 48//143 49//127 42//127
f 42//128 49//128 48//144
f 43//107 42//127 49//127
f 49//128 42//128 43//108
f 49//129 55//145 29//77
f 29//78 55//146 49//130
f 56//147 46//131 44//111
f 44//112 46//132 56//148
f 44//119 41//119 52//119
f 52//122 41//122 44//122
f 50//133 29//77 57//149
f 57//150 29//78 50//134
f 51//25 46//25 58//25
f 58//26 46//26 51//26
f 52//135 39//117 51//151
f 51//152 39//118 52//136
f 57//153 47//137 50//137
f 50//138 47//138 57//154
f 47//137 57//153 53//153
f 53//154 57//154 47//138
f 53//139 59//155 27//64
f 27//67 59//156 53//140
f 60//157 54//141 27//64
f 27//67 54//142 60//158
f 54//26 55//143 48//143
f 48//144 55//144 54//25
f 49//127 48//143 55//143
f 55//144 48//144 49//128
f 55//145 61//159 29//77
f 29//78 61//160 55//146
f 56//147 58//161 46//131
f 46//132 58//162 56//148
f 44//119 52//119 56//119
f 56//122 52//122 44//122
f 57//149 29//77 62//163
f 62//164 29//78 57//150
f 51//25 58//25 63//25
f 63//26 58//26 51//26
f 64//165 52//135 51//151
f 51//152 52//136 64//166
f 62//167 53//153 57//153
f 57//154 53//154 62//168
f 53//153 62//167 59//167
f 59//168 62//168 53//154
f 59//155 60//157 27//64
f 27//67 60//158 59//156
f 60//169 61//26 54//26
f 54//25 61//25 60//170
f 55//143 54//26 61//26
f 61//25 54//25 55//144
f 65//171 29//77 61//159
f 61//160 29//78 65//172
f 66//173 58//161 56//147
f 56//148 58//162 66//174
f 56//119 52//119 64//119
f 64//122 52//122 56//122
f 62//163 29//77 65//171
f 65//172 29//78 62//164
f 63//25 58//25 67//25
f 67//26 58//26 63//26
f 64//165 51//151 63//175
f 63//176 51//152 64//166
f 65//169 59//167 62//167
f 62//168 59//168 65//170
f 59//167 65//169 60//169
f 60//170 65//170 59//168
f 61//26 60//169 65//169
f 65//170 60//170 61//25
f 58//161 66//173 68//177
f 68//178 66//174 58//162
f 56//119 64//119 66//119
f 66//122 64//122 56//122
f 58//161 68//177 67//179
f 67//180 68//178 58//162
f 63//25 67//25 69//25
f 69//26 67//26 63//26
f 64//165 63//175 69//181
f 69//182 63//176 64//166
f 66//119 70//119 68//119
f 68//122 70//122 66//122
f 66//119 64//119 70//119
f 70//122 64//122 66//122
f 67//179 68//177 71//183
f 71//184 68//178 67//180
f 69//25 67//25 72//25
f 72//26 67//26 69//26
f 70//185 64//165 69//181
f 69//182 64//166 70//186
f 68//119 70//119 73//119
f 73//122 70//122 68//122
f 68//119 73//119 71//119
f 71//122 73//122 68//122
f 67//179 71//183 72//187
f 72//188 71//184 67//180
f 69//25 72//25 74//25
f 74//26 72//26 69//26
f 70//185 69//181 74//189
f 74//190 69//182 70//186
f 73//191 70//185 74//189
f 74//190 70//186 73//192
f 71//119 73//119 75//119
f 75//122 73//122 71//122
f 72//187 71//183 76//193
f 76//194 71//184 72//188
f 74//25 72//25 77//25
f 77//26 72//26 74//26
f 73//191 74//189 78//195
f 78//196 74//190 73//192
f 75//197 73//191 78//195
f 78//196 73//192 75//198
f 71//119 75//119 76//119
f 76//122 75//122 71//122
f 72//187 76//193 77//199
f 77//200 76//194 72//188
f 74//25 77//25 78//25
f 78//26 77//26 74//26
f 77//201 75//201 78//201
f 78//202 75//202 77//202
f 75//201 77//201 76//201
f 76//202 77//202 75//202
