mtllib new-3.mtl
v -0.222433 0.916700 0.255656
v -0.267340 0.916700 -0.266654
v -0.267340 0.916700 0.238656
v 0.294115 0.916700 -0.266654
v -0.176505 0.916700 0.269666
v -0.129756 0.916700 0.280627
v -0.082387 0.916700 0.288490
v -0.034604 0.916700 0.293222
v 0.013387 0.916700 0.294801
v 0.061379 0.916700 0.293222
v 0.109162 0.916700 0.288490
v 0.156531 0.916700 0.280627
v 0.203280 0.916700 0.269666
v 0.249208 0.916700 0.255656
v 0.294115 0.916700 0.238656
v 0.294115 0.916700 0.238656
v 0.249208 0.916700 0.255656
v 0.294115 0.916700 -0.266654
v 0.203280 0.916700 0.269666
v 0.156531 0.916700 0.280627
v 0.109162 0.916700 0.288490
v 0.061379 0.916700 0.293222
v 0.013387 0.916700 0.294801
v -0.034604 0.916700 0.293222
v -0.082387 0.916700 0.288490
v -0.129756 0.916700 0.280627
v -0.176505 0.916700 0.269666
v -0.222433 0.916700 0.255656
v -0.267340 0.916700 -0.266654
v -0.267340 0.916700 0.238656
v -0.267340 0.916700 -0.266654
v -0.267340 0.871784 0.238656
v -0.267340 0.916700 0.238656
v -0.267340 0.871784 0.227426
v -0.267340 -0.936101 0.227426
v -0.267340 -0.936101 -0.266654
v -0.267340 -0.936101 -0.266654
v -0.267340 0.916700 -0.266654
v -0.267340 -0.936101 0.227426
v -0.267340 0.871784 0.227426
v -0.267340 0.871784 0.238656
v -0.267340 0.916700 0.238656
v 0.294115 0.916700 0.238656
v 0.294115 0.916700 0.238656
v 0.294115 -0.936101 -0.266654
v 0.294115 0.871784 0.227426
v 0.294115 -0.936101 0.227426
v 0.294115 0.916700 -0.266654
v 0.294115 -0.936101 -0.266654
v 0.294115 0.871784 0.227426
v 0.294115 0.916700 -0.266654
v 0.294115 -0.936101 0.227426
v -0.267340 0.916700 -0.266654
v 0.294115 -0.936101 -0.266654
v -0.267340 -0.936101 -0.266654
v 0.294115 0.916700 -0.266654
v 0.294115 0.916700 -0.266654
v -0.267340 0.916700 -0.266654
v 0.294115 -0.936101 -0.266654
v -0.267340 -0.936101 -0.266654
vn 0.000000 1.000000 0.000000
vn -1.000000 0.000000 0.000000
vn -0.822814 0.000000 0.568312
vn -0.963255 0.000000 0.268590
vn 0.000000 0.000000 1.000000
vn 0.822814 0.000000 0.568312
vn 1.000000 0.000000 0.000000
vn 0.963255 0.000000 0.268590
vn 0.000000 0.000000 -1.000000
vn 0.000000 -1.000000 0.000000
vn 0.822814 0.000000 -0.568312
vn 0.963255 0.000000 -0.268590
vn -0.822814 0.000000 -0.568312
vn -0.963255 0.000000 -0.268590
usemtl material-0
f 1//1 2//1 3//1
f 2//1 1//1 4//1
f 4//1 1//1 5//1
f 4//1 5//1 6//1
f 4//1 6//1 7//1
f 4//1 7//1 8//1
f 4//1 8//1 9//1
f 4//1 9//1 10//1
f 4//1 10//1 11//1
f 4//1 11//1 12//1
f 4//1 12//1 13//1
f 4//1 13//1 14//1
f 4//1 14//1 15//1
f 31//2 32//3 33//3
f 32//3 31//2 34//4
f 34//4 31//2 35//3
f 35//3 31//2 36//2
f 45//7 46//8 47//6
f 43//6 46//8 48//7
f 48//7 46//8 45//7
f 53//9 54//9 55//9
f 54//9 53//9 56//9
usemtl material-1
f 16//10 17//10 18//10
f 17//10 19//10 18//10
f 19//10 20//10 18//10
f 20//10 21//10 18//10
f 21//10 22//10 18//10
f 22//10 23//10 18//10
f 23//10 24//10 18//10
f 24//10 25//10 18//10
f 25//10 26//10 18//10
f 26//10 27//10 18//10
f 27//10 28//10 18//10
f 18//10 28//10 29//10
f 30//10 29//10 28//10
f 37//7 38//7 39//11
f 39//11 38//7 40//12
f 40//12 38//7 41//11
f 42//11 41//11 38//7
f 49//2 50//14 51//2
f 51//2 50//14 44//13
f 52//13 50//14 49//2
f 57//5 58//5 59//5
f 60//5 59//5 58//5