mtllib new-0.mtl
v -0.593835 -0.158610 -0.185168
v -0.485016 -0.158609 -0.185247
v -0.485016 -0.158609 -0.185165
v -0.485017 -0.158610 -0.173190
v -0.485016 -0.158610 -0.185168
v -0.485017 -0.155489 -0.173601
v -0.485016 -0.146962 -0.188368
v -0.485016 -0.146552 -0.185247
v -0.485017 -0.152581 -0.174805
v -0.485017 -0.146963 -0.182126
v -0.485017 -0.150083 -0.176721
v -0.485017 -0.148167 -0.179218
vn 1.000000 0.000000 0.000074
vn 0.408996 -0.818079 0.404314
vn 0.000006 -1.000000 -0.000009
vn 0.707040 0.092281 0.701126
vn -1.000000 0.000000 -0.000074
vn -0.707040 -0.092281 -0.701126
vn 0.707108 -0.707100 -0.002676
vn 0.450190 0.231081 0.862514
vn 0.450320 0.862456 -0.231044
vn 0.319185 0.946223 -0.052762
vn 0.450201 0.446435 0.773315
vn 0.318789 0.924777 0.207753
vn 0.318311 0.697122 0.642416
vn 0.318534 0.839554 0.440096
vn -0.450201 -0.446435 -0.773315
vn -0.408996 0.818079 -0.404314
vn -0.000006 1.000000 0.000009
vn -0.707108 0.707100 0.002676
vn -0.450190 -0.231081 -0.862514
vn -0.450320 -0.862456 0.231044
vn -0.319185 -0.946223 0.052762
vn -0.318789 -0.924777 -0.207753
vn -0.318311 -0.697122 -0.642416
vn -0.318534 -0.839554 -0.440096
usemtl material-2
f 4//4 1//3 3//3
f 3//1 6//8 4//4
f 8//10 5//7 2//2
f 8//10 3//1 5//7
f 6//8 3//1 9//11
f 8//10 2//2 7//9
f 10//12 3//1 8//10
f 9//11 3//1 11//13
f 12//14 3//1 10//12
f 11//13 3//1 12//14
usemtl material-3
f 3//17 1//17 4//6
f 4//6 6//19 3//5
f 2//16 5//18 8//21
f 5//18 3//5 8//21
f 9//15 3//5 6//19
f 7//20 2//16 8//21
f 8//21 3//5 10//22
f 11//23 3//5 9//15
f 10//22 3//5 12//24
f 12//24 3//5 11//23