# SSTK version 0.8.0
# 2
mtllib original-2.mtl
o Component_7_2/Component_7/mesh1/mesh1-geometry#mesh1-geometry
v -0.272742 -0.146594 -0.004296
v -0.315539 -0.158609 0.003681
v -0.267721 -0.158609 0.003681
v -0.310518 -0.146594 -0.004296
v -0.267721 -0.158609 -0.072285
v -0.310518 -0.146594 -0.064309
v -0.315539 -0.158609 -0.072285
v -0.272742 -0.146594 -0.064309
vn 0.4230625134384236 0.8660839549346089 0.26630188269704397
vn -0.8065156521900709 -0.30298926863727893 0.5076711591799081
vn 0.8065156521900709 -0.30298926863727893 0.5076711591799081
vn -0.4230625134384236 0.8660839549346089 0.26630188269704397
vn -0.8065156521900709 0.30298926863727893 -0.5076711591799081
vn 0.8065156521900709 0.30298926863727893 -0.5076711591799081
vn -0.4230625134384236 -0.8660839549346089 -0.26630188269704397
vn 0.4230625134384236 -0.8660839549346089 -0.26630188269704397
vn 0.8065156521900707 -0.30298926863727865 -0.5076711591799082
vn -0.8065156521900707 0.30298926863727865 0.5076711591799082
vn -0.42306251343842355 0.866083954934609 -0.2663018826970436
vn 0.42306251343842355 -0.866083954934609 0.2663018826970436
vn -0.8065156521900707 -0.30298926863727865 -0.5076711591799082
vn 0.8065156521900707 0.30298926863727865 0.5076711591799082
vn 0.42306251343842355 0.866083954934609 -0.2663018826970436
vn -0.42306251343842355 -0.866083954934609 0.2663018826970436
usemtl material_0_0
f 1//1 2//2 3//3
f 2//2 1//1 4//4
f 3//5 2//6 1//7
f 4//8 1//7 2//6
f 2//2 5//9 3//3
f 3//5 5//10 2//6
f 5//9 1//1 3//3
f 3//5 1//7 5//10
f 1//1 6//11 4//4
f 4//8 6//12 1//7
f 4//4 7//13 2//2
f 2//6 7//14 4//8
f 5//9 2//2 7//13
f 7//14 2//6 5//10
f 1//1 5//9 8//15
f 8//16 5//10 1//7
f 6//11 1//1 8//15
f 8//16 1//7 6//12
f 7//13 4//4 6//11
f 6//12 4//8 7//14
f 6//11 5//9 7//13
f 7//14 5//10 6//12
f 5//9 6//11 8//15
f 8//16 6//12 5//10
