# SSTK version 0.8.0
# 39
mtllib original-39.mtl
o mesh38/mesh38-geometry#mesh38-geometry
v 0.352558 0.022009 -0.215123
v 0.354966 0.010931 -0.215440
v 0.352558 0.010931 -0.215123
v 0.354966 0.022009 -0.215440
v 0.352558 0.010931 -0.110023
v 0.351405 0.022009 -0.214731
v 0.352558 0.022009 -0.110023
v 0.442093 0.010931 -0.215440
v 0.351405 0.010931 -0.110414
v 0.354966 0.010931 -0.109706
v 0.351405 0.010931 -0.214731
v 0.354966 0.022009 -0.109706
v 0.442093 0.022009 -0.215440
v 0.350314 0.022009 -0.214193
v 0.351405 0.022009 -0.110414
v 0.442093 0.022009 -0.109706
v 0.444501 0.010931 -0.215123
v 0.442093 0.010931 -0.109706
v 0.350314 0.010931 -0.110952
v 0.350314 0.010931 -0.214193
v 0.444501 0.022009 -0.110023
v 0.444501 0.022009 -0.215123
v 0.444501 0.010931 -0.110023
v 0.349302 0.022009 -0.213517
v 0.350314 0.022009 -0.110952
v 0.445653 0.010931 -0.214731
v 0.349302 0.010931 -0.111628
v 0.349302 0.010931 -0.213517
v 0.349302 0.022009 -0.111628
v 0.445653 0.022009 -0.110414
v 0.445653 0.022009 -0.214731
v 0.445653 0.010931 -0.110414
v 0.348387 0.022009 -0.212715
v 0.446745 0.010931 -0.214193
v 0.446745 0.010931 -0.110952
v 0.348387 0.010931 -0.112430
v 0.348387 0.010931 -0.212715
v 0.348387 0.022009 -0.112430
v 0.446745 0.022009 -0.110952
v 0.446745 0.022009 -0.214193
v 0.347585 0.010931 -0.211800
v 0.347585 0.022009 -0.211800
v 0.447757 0.010931 -0.213517
v 0.447757 0.010931 -0.111628
v 0.447757 0.022009 -0.111628
v 0.347585 0.010931 -0.113345
v 0.347585 0.022009 -0.113345
v 0.447757 0.022009 -0.213517
v 0.346909 0.010931 -0.210788
v 0.346909 0.010931 -0.114357
v 0.346909 0.022009 -0.114357
v 0.448671 0.010931 -0.212715
v 0.448671 0.022009 -0.112430
v 0.346909 0.022009 -0.210788
v 0.448671 0.022009 -0.212715
v 0.448671 0.010931 -0.112430
v 0.346371 0.010931 -0.209696
v 0.346371 0.010931 -0.115449
v 0.346371 0.022009 -0.115449
v 0.346371 0.022009 -0.209696
v 0.449474 0.022009 -0.211800
v 0.449474 0.010931 -0.113345
v 0.449474 0.022009 -0.113345
v 0.449474 0.010931 -0.211800
v 0.345979 0.010931 -0.208544
v 0.345979 0.010931 -0.116601
v 0.345979 0.022009 -0.116601
v 0.345979 0.022009 -0.208544
v 0.450150 0.022009 -0.210788
v 0.450150 0.022009 -0.114357
v 0.450150 0.010931 -0.114357
v 0.450150 0.010931 -0.210788
v 0.345662 0.010931 -0.206136
v 0.345662 0.010931 -0.119009
v 0.345662 0.022009 -0.119009
v 0.345662 0.022009 -0.206136
v 0.450688 0.022009 -0.209696
v 0.450688 0.022009 -0.115449
v 0.450688 0.010931 -0.115449
v 0.450688 0.010931 -0.209696
v 0.451079 0.022009 -0.208544
v 0.451079 0.022009 -0.116601
v 0.451079 0.010931 -0.116601
v 0.451079 0.010931 -0.208544
v 0.451396 0.022009 -0.206136
v 0.451396 0.022009 -0.119009
v 0.451396 0.010931 -0.119009
v 0.451396 0.010931 -0.206136
vn -0.22707600898028865 0 -0.973877038514403
vn -0.06540299554311302 0 -0.9978589320009053
vn 0 -1 0
vn -0.38268289803626016 0 -0.9238797538373538
vn 0 1 0
vn 0.06540299554311302 0 -0.9978589320009053
vn -0.22707600898028865 0 0.973877038514403
vn -0.38268289803626016 0 0.9238797538373538
vn -0.06540299554311302 0 0.9978589320009053
vn -0.5000001748438417 0 -0.8660253028382762
vn 0.22707600898028865 0 -0.973877038514403
vn 0.06540299554311302 0 0.9978589320009053
vn -0.5000001748438417 0 0.8660253028382762
vn -0.6087613233345314 0 -0.7933534213778813
vn 0.22707600898028865 0 0.973877038514403
vn 0.38268289803626016 0 -0.9238797538373538
vn 0.38268289803626016 0 0.9238797538373538
vn -0.6087613233345314 0 0.7933534213778813
vn -0.7071067811865476 0 -0.7071067811865476
vn 0.5000001748438417 0 -0.8660253028382762
vn -0.7071067811865476 0 0.7071067811865476
vn 0.5000001748438417 0 0.8660253028382762
vn -0.7933534213778813 0 -0.6087613233345314
vn 0.6087613233345314 0 -0.7933534213778813
vn 0.6087613233345314 0 0.7933534213778813
vn -0.7933534213778813 0 0.6087613233345314
vn -0.8660253028382762 0 -0.5000001748438417
vn 0.7071067811865476 0 -0.7071067811865476
vn 0.7071067811865476 0 0.7071067811865476
vn -0.8660253028382762 0 0.5000001748438417
vn -0.9238797538373538 0 -0.38268289803626016
vn -0.9238797538373538 0 0.38268289803626016
vn 0.7933534213778813 0 -0.6087613233345314
vn 0.7933534213778813 0 0.6087613233345314
vn -0.973877038514403 0 -0.22707600898028865
vn -0.973877038514403 0 0.22707600898028865
vn 0.8660253028382762 0 -0.5000001748438417
vn 0.8660253028382762 0 0.5000001748438417
vn -0.9978589320009053 0 -0.06540299554311302
vn -0.9978589320009053 0 0.06540299554311302
vn 0.9238797538373538 0 -0.38268289803626016
vn 0.9238797538373538 0 0.38268289803626016
vn 0.973877038514403 0 -0.22707600898028865
vn 0.973877038514403 0 0.22707600898028865
vn 0.9978589320009053 0 -0.06540299554311302
vn 0.9978589320009053 0 0.06540299554311302
usemtl material_0_0
f 1//1 2//2 3//1
f 2//2 1//1 4//2
f 5//3 3//3 2//3
f 3//1 6//4 1//1
f 1//5 7//5 4//5
f 4//2 8//6 2//2
f 9//3 3//3 5//3
f 5//3 2//3 10//3
f 6//4 3//1 11//4
f 6//5 7//5 1//5
f 4//5 7//5 12//5
f 8//6 4//2 13//6
f 10//3 2//3 8//3
f 9//3 11//3 3//3
f 7//7 9//8 5//7
f 12//9 5//7 10//9
f 11//4 14//10 6//4
f 6//5 15//5 7//5
f 5//7 12//9 7//7
f 4//5 12//5 16//5
f 4//5 16//5 13//5
f 13//6 17//11 8//6
f 10//3 8//3 18//3
f 19//3 11//3 9//3
f 9//8 7//7 15//8
f 10//9 16//12 12//9
f 14//10 11//4 20//10
f 14//5 15//5 6//5
f 13//5 16//5 21//5
f 17//11 13//6 22//11
f 23//3 8//3 17//3
f 18//3 8//3 23//3
f 16//12 10//9 18//12
f 19//3 20//3 11//3
f 15//8 19//13 9//8
f 20//10 24//14 14//10
f 14//5 25//5 15//5
f 18//12 21//15 16//12
f 13//5 21//5 22//5
f 22//11 26//16 17//11
f 23//3 17//3 26//3
f 21//15 18//12 23//15
f 27//3 20//3 19//3
f 19//13 15//8 25//13
f 24//14 20//10 28//14
f 24//5 29//5 14//5
f 14//5 29//5 25//5
f 22//5 21//5 30//5
f 26//16 22//11 31//16
f 23//3 26//3 32//3
f 23//15 30//17 21//15
f 27//3 28//3 20//3
f 25//13 27//18 19//13
f 28//14 33//19 24//14
f 33//5 29//5 24//5
f 27//18 25//13 29//18
f 22//5 30//5 31//5
f 31//16 34//20 26//16
f 32//3 26//3 35//3
f 30//17 23//15 32//17
f 36//3 28//3 27//3
f 33//19 28//14 37//19
f 33//5 38//5 29//5
f 29//18 36//21 27//18
f 31//5 30//5 39//5
f 34//20 31//16 40//20
f 35//3 26//3 34//3
f 39//22 32//17 35//22
f 32//17 39//22 30//17
f 36//3 37//3 28//3
f 41//23 33//19 37//19
f 42//5 38//5 33//5
f 36//21 29//18 38//21
f 31//5 39//5 40//5
f 40//20 43//24 34//20
f 35//3 34//3 44//3
f 35//22 45//25 39//22
f 46//3 37//3 36//3
f 33//19 41//23 42//23
f 46//3 41//3 37//3
f 42//5 47//5 38//5
f 47//26 36//21 38//21
f 40//5 39//5 45//5
f 43//24 40//20 48//24
f 44//3 34//3 43//3
f 45//25 35//22 44//25
f 36//21 47//26 46//26
f 49//27 42//23 41//23
f 50//3 41//3 46//3
f 42//5 51//5 47//5
f 40//5 45//5 48//5
f 48//24 52//28 43//24
f 44//3 43//3 52//3
f 44//25 53//29 45//25
f 51//30 46//26 47//26
f 42//23 49//27 54//27
f 50//3 49//3 41//3
f 46//26 51//30 50//30
f 54//5 51//5 42//5
f 48//5 45//5 53//5
f 52//28 48//24 55//28
f 44//3 52//3 56//3
f 53//29 44//25 56//29
f 57//31 54//27 49//27
f 58//3 49//3 50//3
f 59//32 50//30 51//30
f 60//5 51//5 54//5
f 48//5 53//5 55//5
f 61//33 52//28 55//28
f 56//3 52//3 62//3
f 62//34 53//29 56//29
f 54//27 57//31 60//31
f 58//3 57//3 49//3
f 50//30 59//32 58//32
f 60//5 59//5 51//5
f 55//5 53//5 63//5
f 52//28 61//33 64//33
f 55//5 63//5 61//5
f 62//3 52//3 64//3
f 53//29 62//34 63//34
f 65//35 60//31 57//31
f 66//3 57//3 58//3
f 67//36 58//32 59//32
f 68//5 59//5 60//5
f 69//37 64//33 61//33
f 61//5 63//5 70//5
f 62//3 64//3 71//3
f 71//38 63//34 62//34
f 60//31 65//35 68//35
f 66//3 65//3 57//3
f 58//32 67//36 66//36
f 68//5 67//5 59//5
f 64//33 69//37 72//37
f 61//5 70//5 69//5
f 63//34 71//38 70//38
f 71//3 64//3 72//3
f 73//39 68//35 65//35
f 74//3 65//3 66//3
f 75//40 66//36 67//36
f 76//5 67//5 68//5
f 77//41 72//37 69//37
f 69//5 70//5 78//5
f 79//42 70//38 71//38
f 71//3 72//3 80//3
f 68//35 73//39 76//39
f 65//3 74//3 73//3
f 66//36 75//40 74//40
f 67//5 76//5 75//5
f 72//37 77//41 80//41
f 69//5 78//5 77//5
f 70//38 79//42 78//42
f 71//3 80//3 79//3
f 74//40 76//39 73//39
f 76//39 74//40 75//40
f 81//43 80//41 77//41
f 77//5 78//5 82//5
f 83//44 78//42 79//42
f 79//3 80//3 83//3
f 80//41 81//43 84//43
f 77//5 82//5 81//5
f 78//42 83//44 82//44
f 83//3 80//3 84//3
f 85//45 84//43 81//43
f 81//5 82//5 86//5
f 87//46 82//44 83//44
f 83//3 84//3 87//3
f 84//43 85//45 88//45
f 81//5 86//5 85//5
f 82//44 87//46 86//46
f 87//3 84//3 88//3
f 86//46 88//45 85//45
f 88//45 86//46 87//46
usemtl material_1_0
f 3//15 2//12 1//15
f 4//12 1//15 2//12
f 2//5 3//5 5//5
f 1//15 6//17 3//15
f 4//3 7//3 1//3
f 2//12 8//9 4//12
f 5//5 3//5 9//5
f 10//5 2//5 5//5
f 11//17 3//15 6//17
f 1//3 7//3 6//3
f 12//3 7//3 4//3
f 13//9 4//12 8//9
f 8//5 2//5 10//5
f 3//5 11//5 9//5
f 5//11 9//16 7//11
f 10//6 5//11 12//6
f 6//17 14//22 11//17
f 7//3 15//3 6//3
f 7//11 12//6 5//11
f 16//3 12//3 4//3
f 13//3 16//3 4//3
f 8//9 17//7 13//9
f 18//5 8//5 10//5
f 9//5 11//5 19//5
f 15//16 7//11 9//16
f 12//6 16//2 10//6
f 20//22 11//17 14//22
f 6//3 15//3 14//3
f 21//3 16//3 13//3
f 22//7 13//9 17//7
f 17//5 8//5 23//5
f 23//5 8//5 18//5
f 18//2 10//6 16//2
f 11//5 20//5 19//5
f 9//16 19//20 15//16
f 14//22 24//25 20//22
f 15//3 25//3 14//3
f 16//2 21//1 18//2
f 22//3 21//3 13//3
f 17//7 26//8 22//7
f 26//5 17//5 23//5
f 23//1 18//2 21//1
f 19//5 20//5 27//5
f 25//20 15//16 19//20
f 28//25 20//22 24//25
f 14//3 29//3 24//3
f 25//3 29//3 14//3
f 30//3 21//3 22//3
f 31//8 22//7 26//8
f 32//5 26//5 23//5
f 21//1 30//4 23//1
f 20//5 28//5 27//5
f 19//20 27//24 25//20
f 24//25 33//29 28//25
f 24//3 29//3 33//3
f 29//24 25//20 27//24
f 31//3 30//3 22//3
f 26//8 34//13 31//8
f 35//5 26//5 32//5
f 32//4 23//1 30//4
f 27//5 28//5 36//5
f 37//29 28//25 33//29
f 29//3 38//3 33//3
f 27//24 36//28 29//24
f 39//3 30//3 31//3
f 40//13 31//8 34//13
f 34//5 26//5 35//5
f 35//10 32//4 39//10
f 30//4 39//10 32//4
f 28//5 37//5 36//5
f 37//29 33//29 41//34
f 33//3 38//3 42//3
f 38//28 29//24 36//28
f 40//3 39//3 31//3
f 34//13 43//18 40//13
f 44//5 34//5 35//5
f 39//10 45//14 35//10
f 36//5 37//5 46//5
f 42//34 41//34 33//29
f 37//5 41//5 46//5
f 38//3 47//3 42//3
f 38//28 36//28 47//33
f 45//3 39//3 40//3
f 48//18 40//13 43//18
f 43//5 34//5 44//5
f 44//14 35//10 45//14
f 46//33 47//33 36//28
f 41//34 42//34 49//38
f 46//5 41//5 50//5
f 47//3 51//3 42//3
f 48//3 45//3 40//3
f 43//18 52//21 48//18
f 52//5 43//5 44//5
f 45//14 53//19 44//14
f 47//33 46//33 51//37
f 54//38 49//38 42//34
f 41//5 49//5 50//5
f 50//37 51//37 46//33
f 42//3 51//3 54//3
f 53//3 45//3 48//3
f 55//21 48//18 52//21
f 56//5 52//5 44//5
f 56//19 44//14 53//19
f 49//38 54//38 57//42
f 50//5 49//5 58//5
f 51//37 50//37 59//41
f 54//3 51//3 60//3
f 55//3 53//3 48//3
f 55//21 52//21 61//26
f 62//5 52//5 56//5
f 56//19 53//19 62//23
f 60//42 57//42 54//38
f 49//5 57//5 58//5
f 58//41 59//41 50//37
f 51//3 59//3 60//3
f 63//3 53//3 55//3
f 64//26 61//26 52//21
f 61//3 63//3 55//3
f 64//5 52//5 62//5
f 63//23 62//23 53//19
f 57//42 60//42 65//44
f 58//5 57//5 66//5
f 59//41 58//41 67//43
f 60//3 59//3 68//3
f 61//26 64//26 69//30
f 70//3 63//3 61//3
f 71//5 64//5 62//5
f 62//23 63//23 71//27
f 68//44 65//44 60//42
f 57//5 65//5 66//5
f 66//43 67//43 58//41
f 59//3 67//3 68//3
f 72//30 69//30 64//26
f 69//3 70//3 61//3
f 70//27 71//27 63//23
f 72//5 64//5 71//5
f 65//44 68//44 73//46
f 66//5 65//5 74//5
f 67//43 66//43 75//45
f 68//3 67//3 76//3
f 69//30 72//30 77//32
f 78//3 70//3 69//3
f 71//27 70//27 79//31
f 80//5 72//5 71//5
f 76//46 73//46 68//44
f 73//5 74//5 65//5
f 74//45 75//45 66//43
f 75//3 76//3 67//3
f 80//32 77//32 72//30
f 77//3 78//3 69//3
f 78//31 79//31 70//27
f 79//5 80//5 71//5
f 73//46 76//46 74//45
f 75//45 74//45 76//46
f 77//32 80//32 81//36
f 82//3 78//3 77//3
f 79//31 78//31 83//35
f 83//5 80//5 79//5
f 84//36 81//36 80//32
f 81//3 82//3 77//3
f 82//35 83//35 78//31
f 84//5 80//5 83//5
f 81//36 84//36 85//40
f 86//3 82//3 81//3
f 83//35 82//35 87//39
f 87//5 84//5 83//5
f 88//40 85//40 84//36
f 85//3 86//3 81//3
f 86//39 87//39 82//35
f 88//5 84//5 87//5
f 85//40 88//40 86//39
f 87//39 86//39 88//40
