# SSTK version 0.8.0
# 58
mtllib original-58.mtl
o mesh57/mesh57-geometry#mesh57-geometry
v 0.557447 0.022009 0.362202
v 0.557130 0.010931 0.364610
v 0.557130 0.022009 0.364610
v 0.557447 0.010931 0.362202
v 0.557130 0.010931 0.402395
v 0.557447 0.022009 0.404803
v 0.557839 0.022009 0.361050
v 0.557130 0.022009 0.402395
v 0.557839 0.022009 0.405955
v 0.557839 0.010931 0.361050
v 0.557447 0.010931 0.404803
v 0.557839 0.010931 0.405955
v 0.558377 0.022009 0.359958
v 0.558377 0.022009 0.407046
v 0.558377 0.010931 0.407046
v 0.558377 0.010931 0.359958
v 0.559053 0.022009 0.358946
v 0.559053 0.010931 0.408058
v 0.559053 0.010931 0.358946
v 0.559053 0.022009 0.408058
v 0.559855 0.022009 0.358031
v 0.559855 0.022009 0.408973
v 0.559855 0.010931 0.408973
v 0.559855 0.010931 0.358031
v 0.560770 0.010931 0.357229
v 0.560770 0.022009 0.409775
v 0.560770 0.022009 0.357229
v 0.560770 0.010931 0.409775
v 0.561782 0.010931 0.356553
v 0.561782 0.022009 0.356553
v 0.561782 0.022009 0.410452
v 0.561782 0.010931 0.410452
v 0.562873 0.010931 0.356015
v 0.562873 0.022009 0.410990
v 0.562873 0.022009 0.356015
v 0.562873 0.010931 0.410990
v 0.564026 0.010931 0.355624
v 0.564026 0.022009 0.411381
v 0.564026 0.022009 0.355624
v 0.564026 0.010931 0.411381
v 0.566434 0.010931 0.355307
v 0.566434 0.022009 0.355307
v 0.566434 0.022009 0.411698
v 0.566434 0.010931 0.411698
v 0.653561 0.010931 0.355307
v 0.653561 0.022009 0.411698
v 0.653561 0.022009 0.355307
v 0.653561 0.010931 0.411698
v 0.655969 0.010931 0.355624
v 0.655969 0.022009 0.411381
v 0.655969 0.010931 0.411381
v 0.655969 0.022009 0.355624
v 0.657121 0.010931 0.356015
v 0.657121 0.022009 0.410990
v 0.657121 0.022009 0.356015
v 0.657121 0.010931 0.410990
v 0.658213 0.010931 0.356553
v 0.658213 0.010931 0.410452
v 0.658213 0.022009 0.410452
v 0.658213 0.022009 0.356553
v 0.659225 0.010931 0.357229
v 0.659225 0.010931 0.409775
v 0.659225 0.022009 0.409775
v 0.659225 0.022009 0.357229
v 0.660139 0.010931 0.358031
v 0.660139 0.022009 0.408973
v 0.660139 0.022009 0.358031
v 0.660139 0.010931 0.408973
v 0.660942 0.022009 0.358946
v 0.660942 0.010931 0.408058
v 0.660942 0.022009 0.408058
v 0.660942 0.010931 0.358946
v 0.661618 0.022009 0.359958
v 0.661618 0.022009 0.407046
v 0.661618 0.010931 0.407046
v 0.661618 0.010931 0.359958
v 0.662156 0.022009 0.361050
v 0.662156 0.022009 0.405955
v 0.662156 0.010931 0.405955
v 0.662156 0.010931 0.361050
v 0.662547 0.022009 0.362202
v 0.662547 0.022009 0.404803
v 0.662547 0.010931 0.404803
v 0.662547 0.010931 0.362202
v 0.662864 0.022009 0.364610
v 0.662864 0.022009 0.402395
v 0.662864 0.010931 0.402395
v 0.662864 0.010931 0.364610
vn -0.973877038514403 0 -0.22707600898028865
vn -0.9978589320009053 0 -0.06540299554311302
vn -0.9978589320009053 0 0.06540299554311302
vn 0 1 0
vn -0.9238797538373538 0 -0.38268289803626016
vn 0 -1 0
vn -0.973877038514403 0 0.22707600898028865
vn -0.9238797538373538 0 0.38268289803626016
vn -0.8660253028382762 0 -0.5000001748438417
vn -0.8660253028382762 0 0.5000001748438417
vn -0.7933534213778813 0 -0.6087613233345314
vn -0.7933534213778813 0 0.6087613233345314
vn -0.7071067811865476 0 -0.7071067811865476
vn -0.7071067811865476 0 0.7071067811865476
vn -0.6087613233345314 0 -0.7933534213778813
vn -0.6087613233345314 0 0.7933534213778813
vn -0.5000001748438417 0 -0.8660253028382762
vn -0.5000001748438417 0 0.8660253028382762
vn -0.38268289803626016 0 -0.9238797538373538
vn -0.38268289803626016 0 0.9238797538373538
vn -0.22707600898028865 0 -0.973877038514403
vn -0.22707600898028865 0 0.973877038514403
vn -0.06540299554311302 0 -0.9978589320009053
vn -0.06540299554311302 0 0.9978589320009053
vn 0.06540299554311302 0 -0.9978589320009053
vn 0.06540299554311302 0 0.9978589320009053
vn 0.22707600898028865 0 -0.973877038514403
vn 0.22707600898028865 0 0.973877038514403
vn 0.38268289803626016 0 -0.9238797538373538
vn 0.38268289803626016 0 0.9238797538373538
vn 0.5000001748438417 0 -0.8660253028382762
vn 0.5000001748438417 0 0.8660253028382762
vn 0.6087613233345314 0 -0.7933534213778813
vn 0.6087613233345314 0 0.7933534213778813
vn 0.7071067811865476 0 -0.7071067811865476
vn 0.7071067811865476 0 0.7071067811865476
vn 0.7933534213778813 0 -0.6087613233345314
vn 0.7933534213778813 0 0.6087613233345314
vn 0.8660253028382762 0 -0.5000001748438417
vn 0.8660253028382762 0 0.5000001748438417
vn 0.9238797538373538 0 -0.38268289803626016
vn 0.9238797538373538 0 0.38268289803626016
vn 0.973877038514403 0 -0.22707600898028865
vn 0.973877038514403 0 0.22707600898028865
vn 0.9978589320009053 0 -0.06540299554311302
vn 0.9978589320009053 0 0.06540299554311302
usemtl material_0_0
f 1//1 2//2 3//2
f 2//2 1//1 4//1
f 5//3 3//2 2//2
f 3//4 6//4 1//4
f 7//5 4//1 1//1
f 4//6 5//6 2//6
f 3//2 5//3 8//3
f 6//4 3//4 8//4
f 1//4 6//4 9//4
f 4//1 7//5 10//5
f 1//4 9//4 7//4
f 5//6 4//6 11//6
f 11//7 8//3 5//3
f 8//3 11//7 6//7
f 6//7 12//8 9//8
f 13//9 10//5 7//5
f 11//6 4//6 10//6
f 7//4 9//4 14//4
f 12//8 6//7 11//7
f 15//10 9//8 12//8
f 10//5 13//9 16//9
f 7//4 14//4 13//4
f 11//6 10//6 12//6
f 9//8 15//10 14//10
f 12//6 16//6 15//6
f 17//11 16//9 13//9
f 12//6 10//6 16//6
f 13//4 14//4 17//4
f 18//12 14//10 15//10
f 15//6 16//6 19//6
f 16//9 17//11 19//11
f 17//4 14//4 20//4
f 14//10 18//12 20//12
f 15//6 19//6 18//6
f 21//13 19//11 17//11
f 17//4 20//4 22//4
f 23//14 20//12 18//12
f 18//6 19//6 24//6
f 19//11 21//13 24//13
f 17//4 22//4 21//4
f 20//12 23//14 22//14
f 18//6 24//6 23//6
f 21//13 25//15 24//13
f 21//4 22//4 26//4
f 23//14 26//16 22//14
f 23//6 24//6 25//6
f 25//15 21//13 27//15
f 21//4 26//4 27//4
f 26//16 23//14 28//16
f 23//6 25//6 28//6
f 27//15 29//17 25//15
f 27//4 26//4 30//4
f 28//16 31//18 26//16
f 28//6 25//6 29//6
f 29//17 27//15 30//17
f 30//4 26//4 31//4
f 31//18 28//16 32//18
f 28//6 29//6 32//6
f 30//17 33//19 29//17
f 30//4 31//4 34//4
f 32//18 34//20 31//18
f 32//6 29//6 33//6
f 33//19 30//17 35//19
f 30//4 34//4 35//4
f 34//20 32//18 36//20
f 32//6 33//6 36//6
f 35//19 37//21 33//19
f 35//4 34//4 38//4
f 36//20 38//22 34//20
f 36//6 33//6 37//6
f 37//21 35//19 39//21
f 35//4 38//4 39//4
f 38//22 36//20 40//22
f 36//6 37//6 40//6
f 39//21 41//23 37//21
f 39//4 38//4 42//4
f 40//22 43//24 38//22
f 40//6 37//6 41//6
f 41//23 39//21 42//23
f 42//4 38//4 43//4
f 43//24 40//22 44//24
f 40//6 41//6 44//6
f 42//23 45//25 41//23
f 42//4 43//4 46//4
f 44//24 46//26 43//24
f 44//6 41//6 45//6
f 45//25 42//23 47//25
f 42//4 46//4 47//4
f 46//26 44//24 48//26
f 44//6 45//6 48//6
f 47//25 49//27 45//25
f 47//4 46//4 50//4
f 48//26 50//28 46//26
f 48//6 45//6 51//6
f 49//27 47//25 52//27
f 51//6 45//6 49//6
f 47//4 50//4 52//4
f 50//28 48//26 51//28
f 52//27 53//29 49//27
f 51//6 49//6 53//6
f 52//4 50//4 54//4
f 51//28 54//30 50//28
f 53//29 52//27 55//29
f 51//6 53//6 56//6
f 52//4 54//4 55//4
f 54//30 51//28 56//30
f 55//29 57//31 53//29
f 56//6 53//6 58//6
f 55//4 54//4 59//4
f 56//30 59//32 54//30
f 57//31 55//29 60//31
f 58//6 53//6 57//6
f 59//32 56//30 58//32
f 55//4 59//4 60//4
f 60//31 61//33 57//31
f 58//6 57//6 62//6
f 58//32 63//34 59//32
f 60//4 59//4 63//4
f 61//33 60//31 64//33
f 62//6 57//6 61//6
f 63//34 58//32 62//34
f 60//4 63//4 64//4
f 64//33 65//35 61//33
f 62//6 61//6 65//6
f 62//34 66//36 63//34
f 64//4 63//4 66//4
f 65//35 64//33 67//35
f 62//6 65//6 68//6
f 66//36 62//34 68//36
f 64//4 66//4 67//4
f 69//37 65//35 67//35
f 68//6 65//6 70//6
f 70//38 66//36 68//36
f 67//4 66//4 71//4
f 65//35 69//37 72//37
f 67//4 71//4 69//4
f 70//6 65//6 72//6
f 66//36 70//38 71//38
f 73//39 72//37 69//37
f 69//4 71//4 74//4
f 70//6 72//6 75//6
f 75//40 71//38 70//38
f 72//37 73//39 76//39
f 69//4 74//4 73//4
f 71//38 75//40 74//40
f 75//6 72//6 76//6
f 77//41 76//39 73//39
f 73//4 74//4 78//4
f 79//42 74//40 75//40
f 75//6 76//6 80//6
f 76//39 77//41 80//41
f 73//4 78//4 77//4
f 74//40 79//42 78//42
f 75//6 80//6 79//6
f 81//43 80//41 77//41
f 77//4 78//4 82//4
f 83//44 78//42 79//42
f 79//6 80//6 83//6
f 80//41 81//43 84//43
f 77//4 82//4 81//4
f 78//42 83//44 82//44
f 83//6 80//6 84//6
f 85//45 84//43 81//43
f 81//4 82//4 86//4
f 87//46 82//44 83//44
f 83//6 84//6 87//6
f 84//43 85//45 88//45
f 81//4 86//4 85//4
f 82//44 87//46 86//46
f 87//6 84//6 88//6
f 86//46 88//45 85//45
f 88//45 86//46 87//46
usemtl material_1_0
f 3//46 2//46 1//44
f 4//44 1//44 2//46
f 2//46 3//46 5//45
f 1//6 6//6 3//6
f 1//44 4//44 7//42
f 2//4 5//4 4//4
f 8//45 5//45 3//46
f 8//6 3//6 6//6
f 9//6 6//6 1//6
f 10//42 7//42 4//44
f 7//6 9//6 1//6
f 11//4 4//4 5//4
f 5//45 8//45 11//43
f 6//43 11//43 8//45
f 9//41 12//41 6//43
f 7//42 10//42 13//40
f 10//4 4//4 11//4
f 14//6 9//6 7//6
f 11//43 6//43 12//41
f 12//41 9//41 15//39
f 16//40 13//40 10//42
f 13//6 14//6 7//6
f 12//4 10//4 11//4
f 14//39 15//39 9//41
f 15//4 16//4 12//4
f 13//40 16//40 17//38
f 16//4 10//4 12//4
f 17//6 14//6 13//6
f 15//39 14//39 18//37
f 19//4 16//4 15//4
f 19//38 17//38 16//40
f 20//6 14//6 17//6
f 20//37 18//37 14//39
f 18//4 19//4 15//4
f 17//38 19//38 21//36
f 22//6 20//6 17//6
f 18//37 20//37 23//35
f 24//4 19//4 18//4
f 24//36 21//36 19//38
f 21//6 22//6 17//6
f 22//35 23//35 20//37
f 23//4 24//4 18//4
f 24//36 25//34 21//36
f 26//6 22//6 21//6
f 22//35 26//33 23//35
f 25//4 24//4 23//4
f 27//34 21//36 25//34
f 27//6 26//6 21//6
f 28//33 23//35 26//33
f 28//4 25//4 23//4
f 25//34 29//32 27//34
f 30//6 26//6 27//6
f 26//33 31//31 28//33
f 29//4 25//4 28//4
f 30//32 27//34 29//32
f 31//6 26//6 30//6
f 32//31 28//33 31//31
f 32//4 29//4 28//4
f 29//32 33//30 30//32
f 34//6 31//6 30//6
f 31//31 34//29 32//31
f 33//4 29//4 32//4
f 35//30 30//32 33//30
f 35//6 34//6 30//6
f 36//29 32//31 34//29
f 36//4 33//4 32//4
f 33//30 37//28 35//30
f 38//6 34//6 35//6
f 34//29 38//27 36//29
f 37//4 33//4 36//4
f 39//28 35//30 37//28
f 39//6 38//6 35//6
f 40//27 36//29 38//27
f 40//4 37//4 36//4
f 37//28 41//26 39//28
f 42//6 38//6 39//6
f 38//27 43//25 40//27
f 41//4 37//4 40//4
f 42//26 39//28 41//26
f 43//6 38//6 42//6
f 44//25 40//27 43//25
f 44//4 41//4 40//4
f 41//26 45//24 42//26
f 46//6 43//6 42//6
f 43//25 46//23 44//25
f 45//4 41//4 44//4
f 47//24 42//26 45//24
f 47//6 46//6 42//6
f 48//23 44//25 46//23
f 48//4 45//4 44//4
f 45//24 49//22 47//24
f 50//6 46//6 47//6
f 46//23 50//21 48//23
f 51//4 45//4 48//4
f 52//22 47//24 49//22
f 49//4 45//4 51//4
f 52//6 50//6 47//6
f 51//21 48//23 50//21
f 49//22 53//20 52//22
f 53//4 49//4 51//4
f 54//6 50//6 52//6
f 50//21 54//19 51//21
f 55//20 52//22 53//20
f 56//4 53//4 51//4
f 55//6 54//6 52//6
f 56//19 51//21 54//19
f 53//20 57//18 55//20
f 58//4 53//4 56//4
f 59//6 54//6 55//6
f 54//19 59//17 56//19
f 60//18 55//20 57//18
f 57//4 53//4 58//4
f 58//17 56//19 59//17
f 60//6 59//6 55//6
f 57//18 61//16 60//18
f 62//4 57//4 58//4
f 59//17 63//15 58//17
f 63//6 59//6 60//6
f 64//16 60//18 61//16
f 61//4 57//4 62//4
f 62//15 58//17 63//15
f 64//6 63//6 60//6
f 61//16 65//14 64//16
f 65//4 61//4 62//4
f 63//15 66//13 62//15
f 66//6 63//6 64//6
f 67//14 64//16 65//14
f 68//4 65//4 62//4
f 68//13 62//15 66//13
f 67//6 66//6 64//6
f 67//14 65//14 69//12
f 70//4 65//4 68//4
f 68//13 66//13 70//11
f 71//6 66//6 67//6
f 72//12 69//12 65//14
f 69//6 71//6 67//6
f 72//4 65//4 70//4
f 71//11 70//11 66//13
f 69//12 72//12 73//10
f 74//6 71//6 69//6
f 75//4 72//4 70//4
f 70//11 71//11 75//9
f 76//10 73//10 72//12
f 73//6 74//6 69//6
f 74//9 75//9 71//11
f 76//4 72//4 75//4
f 73//10 76//10 77//8
f 78//6 74//6 73//6
f 75//9 74//9 79//5
f 80//4 76//4 75//4
f 80//8 77//8 76//10
f 77//6 78//6 73//6
f 78//5 79//5 74//9
f 79//4 80//4 75//4
f 77//8 80//8 81//7
f 82//6 78//6 77//6
f 79//5 78//5 83//1
f 83//4 80//4 79//4
f 84//7 81//7 80//8
f 81//6 82//6 77//6
f 82//1 83//1 78//5
f 84//4 80//4 83//4
f 81//7 84//7 85//3
f 86//6 82//6 81//6
f 83//1 82//1 87//2
f 87//4 84//4 83//4
f 88//3 85//3 84//7
f 85//6 86//6 81//6
f 86//2 87//2 82//1
f 88//4 84//4 87//4
f 85//3 88//3 86//2
f 87//2 86//2 88//3
