mtllib new-2.mtl
v 0.510375 -0.812973 0.239885
v 0.510375 -0.552576 0.256685
v 0.510375 -0.812973 0.256685
v 0.510375 -0.812973 -0.398509
v 0.510375 -0.680255 -0.415308
v 0.510375 -0.812973 -0.415308
v -0.494255 -0.812973 -0.398509
v -0.494255 -0.680255 -0.415308
v -0.494255 -0.812973 -0.415308
v 0.496492 -0.812973 0.256429
v 0.510375 -0.812973 0.256685
v 0.493575 -0.812973 0.256685
v 0.499321 -0.812973 0.255672
v 0.501975 -0.812973 0.254434
v 0.504373 -0.812973 0.252754
v 0.506444 -0.812973 0.250684
v 0.508124 -0.812973 0.248285
v 0.509361 -0.812973 0.245631
v 0.510120 -0.812973 0.242802
v 0.510375 -0.812973 0.239885
v 0.493575 -0.812973 -0.415308
v -0.474538 -0.812973 -0.415053
v -0.477455 -0.812973 -0.415308
v -0.471709 -0.812973 -0.414295
v -0.469055 -0.812973 -0.413058
v -0.466657 -0.812973 -0.411378
v -0.464586 -0.812973 -0.409308
v -0.462906 -0.812973 -0.406909
v -0.461669 -0.812973 -0.404254
v -0.460911 -0.812973 -0.401426
v -0.460655 -0.812973 -0.398509
v 0.490658 -0.812973 -0.415053
v 0.487829 -0.812973 -0.414295
v 0.485175 -0.812973 -0.413058
v -0.460655 -0.812973 0.239885
v 0.482776 -0.812973 -0.411378
v 0.480705 -0.812973 -0.409308
v 0.479026 -0.812973 -0.406909
v 0.477788 -0.812973 -0.404254
v 0.477030 -0.812973 -0.401426
v 0.476775 -0.812973 -0.398509
v 0.477030 -0.812973 -0.395591
v 0.476775 -0.812973 0.239885
v 0.477030 -0.812973 0.236968
v 0.477788 -0.812973 -0.392763
v 0.477788 -0.812973 0.234139
v 0.479026 -0.812973 -0.390109
v 0.479026 -0.812973 0.231485
v 0.480705 -0.812973 -0.387710
v 0.480705 -0.812973 0.229086
v 0.482776 -0.812973 -0.385639
v 0.482776 -0.812973 0.227015
v 0.485175 -0.812973 -0.383960
v 0.485175 -0.812973 0.225336
v 0.487829 -0.812973 -0.382722
v 0.487829 -0.812973 0.224098
v 0.490658 -0.812973 -0.381964
v 0.490658 -0.812973 0.223340
v 0.493575 -0.812973 -0.381709
v 0.493575 -0.812973 0.223085
v 0.496492 -0.812973 -0.381964
v 0.496492 -0.812973 0.223340
v 0.499321 -0.812973 -0.382722
v 0.499321 -0.812973 0.224098
v 0.501975 -0.812973 -0.383960
v 0.501975 -0.812973 0.225336
v 0.504373 -0.812973 -0.385639
v 0.504373 -0.812973 0.227015
v 0.506444 -0.812973 -0.387710
v 0.506444 -0.812973 0.229086
v 0.508124 -0.812973 -0.390109
v 0.508124 -0.812973 0.231485
v 0.509361 -0.812973 -0.392763
v 0.509361 -0.812973 0.234139
v 0.510120 -0.812973 -0.395591
v 0.510120 -0.812973 0.236968
v 0.510375 -0.812973 -0.398509
v 0.510375 -0.812973 0.239885
v -0.474538 -0.812973 0.256429
v 0.493575 -0.812973 0.256685
v -0.477455 -0.812973 0.256685
v -0.471709 -0.812973 0.255672
v -0.469055 -0.812973 0.254434
v -0.466657 -0.812973 0.252754
v -0.464586 -0.812973 0.250684
v -0.462906 -0.812973 0.248285
v -0.461669 -0.812973 0.245631
v -0.460911 -0.812973 0.242802
v 0.490658 -0.812973 0.256429
v 0.487829 -0.812973 0.255672
v 0.485175 -0.812973 0.254434
v 0.482776 -0.812973 0.252754
v 0.480705 -0.812973 0.250684
v 0.479026 -0.812973 0.248285
v 0.477788 -0.812973 0.245631
v 0.477030 -0.812973 0.242802
v -0.494000 -0.812973 -0.395591
v -0.494255 -0.812973 0.239885
v -0.494255 -0.812973 -0.398509
v -0.494000 -0.812973 0.236968
v -0.493242 -0.812973 0.234139
v -0.493242 -0.812973 -0.392763
v -0.492004 -0.812973 0.231485
v -0.492004 -0.812973 -0.390109
v -0.490325 -0.812973 0.229086
v -0.490325 -0.812973 -0.387710
v -0.488254 -0.812973 0.227015
v -0.488254 -0.812973 -0.385639
v -0.485855 -0.812973 0.225336
v -0.485855 -0.812973 -0.383960
v -0.483201 -0.812973 0.224098
v -0.483201 -0.812973 -0.382722
v -0.480373 -0.812973 -0.381964
v -0.480373 -0.812973 0.223340
v -0.477455 -0.812973 -0.381709
v -0.477455 -0.812973 0.223085
v -0.474538 -0.812973 -0.381964
v -0.474538 -0.812973 0.223340
v -0.471709 -0.812973 -0.382722
v -0.471709 -0.812973 0.224098
v -0.469055 -0.812973 -0.383960
v -0.469055 -0.812973 0.225336
v -0.466657 -0.812973 -0.385639
v -0.466657 -0.812973 0.227015
v -0.464586 -0.812973 -0.387710
v -0.464586 -0.812973 0.229086
v -0.462906 -0.812973 -0.390109
v -0.462906 -0.812973 0.231485
v -0.461669 -0.812973 -0.392763
v -0.461669 -0.812973 0.234139
v -0.460911 -0.812973 -0.395591
v -0.460911 -0.812973 0.236968
v 0.510375 -0.812973 -0.415308
v 0.496492 -0.812973 -0.415053
v 0.493575 -0.812973 -0.415308
v 0.499321 -0.812973 -0.414295
v 0.501975 -0.812973 -0.413058
v 0.504373 -0.812973 -0.411378
v 0.506444 -0.812973 -0.409308
v 0.508124 -0.812973 -0.406909
v 0.509361 -0.812973 -0.404254
v 0.510120 -0.812973 -0.401426
v 0.510375 -0.812973 -0.398509
v -0.494255 -0.812973 -0.415308
v 0.493575 -0.812973 -0.415308
v -0.477455 -0.812973 -0.415308
v 0.510375 -0.812973 -0.415308
v 0.510375 -0.680255 -0.415308
v -0.494255 -0.680255 -0.415308
v -0.494255 -0.812973 -0.415308
v -0.494000 -0.812973 -0.401426
v -0.494255 -0.812973 -0.398509
v -0.493242 -0.812973 -0.404254
v -0.492004 -0.812973 -0.406909
v -0.490325 -0.812973 -0.409308
v -0.488254 -0.812973 -0.411378
v -0.485855 -0.812973 -0.413058
v -0.483201 -0.812973 -0.414295
v -0.480373 -0.812973 -0.415053
v -0.477455 -0.812973 -0.415308
v -0.494255 -0.812973 0.256685
v -0.480373 -0.812973 0.256429
v -0.477455 -0.812973 0.256685
v -0.483201 -0.812973 0.255672
v -0.485855 -0.812973 0.254434
v -0.488254 -0.812973 0.252754
v -0.490325 -0.812973 0.250684
v -0.492004 -0.812973 0.248285
v -0.493242 -0.812973 0.245631
v -0.494000 -0.812973 0.242802
v -0.494255 -0.812973 0.239885
vn 0.000000 -1.000000 0.000000
vn -1.000000 0.000000 0.000000
vn 0.000000 0.000000 -1.000000
vn 1.000000 0.000000 0.000000
usemtl material-0
f 1//4 2//4 3//4
f 5//4 4//4 6//4
f 9//2 7//2 8//2
f 10//1 11//1 12//1
f 11//1 10//1 13//1
f 11//1 13//1 14//1
f 11//1 14//1 15//1
f 11//1 15//1 16//1
f 11//1 16//1 17//1
f 11//1 17//1 18//1
f 11//1 18//1 19//1
f 11//1 19//1 20//1
f 21//1 22//1 23//1
f 22//1 21//1 24//1
f 24//1 21//1 25//1
f 25//1 21//1 26//1
f 26//1 21//1 27//1
f 27//1 21//1 28//1
f 28//1 21//1 29//1
f 29//1 21//1 30//1
f 30//1 21//1 31//1
f 31//1 21//1 32//1
f 31//1 32//1 33//1
f 31//1 33//1 34//1
f 31//1 34//1 35//1
f 35//1 34//1 36//1
f 35//1 36//1 37//1
f 35//1 37//1 38//1
f 35//1 38//1 39//1
f 35//1 39//1 40//1
f 35//1 40//1 41//1
f 42//1 43//1 41//1
f 43//1 42//1 44//1
f 44//1 42//1 45//1
f 44//1 45//1 46//1
f 46//1 45//1 47//1
f 46//1 47//1 48//1
f 48//1 47//1 49//1
f 48//1 49//1 50//1
f 50//1 49//1 51//1
f 50//1 51//1 52//1
f 52//1 51//1 53//1
f 52//1 53//1 54//1
f 54//1 53//1 55//1
f 54//1 55//1 56//1
f 56//1 55//1 57//1
f 56//1 57//1 58//1
f 58//1 57//1 59//1
f 58//1 59//1 60//1
f 60//1 59//1 61//1
f 60//1 61//1 62//1
f 62//1 61//1 63//1
f 62//1 63//1 64//1
f 64//1 63//1 65//1
f 64//1 65//1 66//1
f 66//1 65//1 67//1
f 66//1 67//1 68//1
f 68//1 67//1 69//1
f 68//1 69//1 70//1
f 70//1 69//1 71//1
f 70//1 71//1 72//1
f 72//1 71//1 73//1
f 72//1 73//1 74//1
f 74//1 73//1 75//1
f 74//1 75//1 76//1
f 76//1 75//1 77//1
f 76//1 77//1 78//1
f 79//1 80//1 81//1
f 80//1 79//1 82//1
f 80//1 82//1 83//1
f 80//1 83//1 84//1
f 80//1 84//1 85//1
f 80//1 85//1 86//1
f 80//1 86//1 87//1
f 80//1 87//1 88//1
f 80//1 88//1 35//1
f 80//1 35//1 89//1
f 89//1 35//1 90//1
f 90//1 35//1 91//1
f 91//1 35//1 92//1
f 92//1 35//1 93//1
f 93//1 35//1 94//1
f 94//1 35//1 95//1
f 95//1 35//1 96//1
f 96//1 35//1 43//1
f 43//1 35//1 41//1
f 97//1 98//1 99//1
f 98//1 97//1 100//1
f 100//1 97//1 101//1
f 101//1 97//1 102//1
f 101//1 102//1 103//1
f 103//1 102//1 104//1
f 103//1 104//1 105//1
f 105//1 104//1 106//1
f 105//1 106//1 107//1
f 107//1 106//1 108//1
f 107//1 108//1 109//1
f 109//1 108//1 110//1
f 109//1 110//1 111//1
f 111//1 110//1 112//1
f 111//1 112//1 113//1
f 111//1 113//1 114//1
f 114//1 113//1 115//1
f 114//1 115//1 116//1
f 116//1 115//1 117//1
f 116//1 117//1 118//1
f 118//1 117//1 119//1
f 118//1 119//1 120//1
f 120//1 119//1 121//1
f 120//1 121//1 122//1
f 122//1 121//1 123//1
f 122//1 123//1 124//1
f 124//1 123//1 125//1
f 124//1 125//1 126//1
f 126//1 125//1 127//1
f 126//1 127//1 128//1
f 128//1 127//1 129//1
f 128//1 129//1 130//1
f 130//1 129//1 131//1
f 130//1 131//1 132//1
f 132//1 131//1 31//1
f 132//1 31//1 35//1
f 133//1 134//1 135//1
f 134//1 133//1 136//1
f 136//1 133//1 137//1
f 137//1 133//1 138//1
f 138//1 133//1 139//1
f 139//1 133//1 140//1
f 140//1 133//1 141//1
f 141//1 133//1 142//1
f 142//1 133//1 143//1
f 144//3 145//3 146//3
f 145//3 144//3 147//3
f 147//3 144//3 148//3
f 148//3 144//3 149//3
f 150//1 151//1 152//1
f 151//1 150//1 153//1
f 153//1 150//1 154//1
f 154//1 150//1 155//1
f 155//1 150//1 156//1
f 156//1 150//1 157//1
f 157//1 150//1 158//1
f 158//1 150//1 159//1
f 159//1 150//1 160//1
f 161//1 162//1 163//1
f 162//1 161//1 164//1
f 164//1 161//1 165//1
f 165//1 161//1 166//1
f 166//1 161//1 167//1
f 167//1 161//1 168//1
f 168//1 161//1 169//1
f 169//1 161//1 170//1
f 170//1 161//1 171//1