# SSTK version 0.8.0
# 10
mtllib original-10.mtl
o #ID127
v -0.494000 -0.829773 -0.401426
v -0.494000 -0.829773 -0.395591
v -0.494255 -0.829773 -0.398509
v -0.493242 -0.829773 -0.404254
v -0.493242 -0.829773 -0.392763
v -0.492004 -0.829773 -0.406909
v -0.492004 -0.829773 -0.390109
v -0.490325 -0.829773 -0.409308
v -0.490325 -0.829773 -0.387710
v -0.488254 -0.829773 -0.411378
v -0.488254 -0.829773 -0.385639
v -0.485855 -0.829773 -0.413058
v -0.485855 -0.829773 -0.383960
v -0.483201 -0.829773 -0.414295
v -0.483201 -0.829773 -0.382722
v -0.480373 -0.829773 -0.415053
v -0.480373 -0.829773 -0.381964
v -0.477455 -0.829773 -0.415308
v -0.477455 -0.829773 -0.381709
v -0.474538 -0.829773 -0.381964
v -0.474538 -0.829773 -0.415053
v -0.471709 -0.829773 -0.382722
v -0.471709 -0.829773 -0.414295
v -0.469055 -0.829773 -0.383960
v -0.469055 -0.829773 -0.413058
v -0.466657 -0.829773 -0.385639
v -0.466657 -0.829773 -0.411378
v -0.464586 -0.829773 -0.387710
v -0.464586 -0.829773 -0.409308
v -0.462906 -0.829773 -0.390109
v -0.462906 -0.829773 -0.406909
v -0.461669 -0.829773 -0.392763
v -0.461669 -0.829773 -0.404254
v -0.460911 -0.829773 -0.395591
v -0.460911 -0.829773 -0.401426
v -0.460655 -0.829773 -0.398509
v -0.460911 -0.829773 -0.395591
v -0.461669 -0.812973 -0.392763
v -0.461669 -0.829773 -0.392763
v -0.460911 -0.812973 -0.395591
v -0.462906 -0.812973 -0.390109
v -0.462906 -0.829773 -0.390109
v -0.464586 -0.812973 -0.387710
v -0.464586 -0.829773 -0.387710
v -0.466657 -0.812973 -0.385639
v -0.466657 -0.829773 -0.385639
v -0.469055 -0.829773 -0.383960
v -0.469055 -0.812973 -0.383960
v -0.471709 -0.829773 -0.382722
v -0.471709 -0.812973 -0.382722
v -0.474538 -0.829773 -0.381964
v -0.474538 -0.812973 -0.381964
v -0.477455 -0.829773 -0.381709
v -0.477455 -0.812973 -0.381709
v -0.480373 -0.829773 -0.381964
v -0.480373 -0.812973 -0.381964
v -0.483201 -0.829773 -0.382722
v -0.483201 -0.812973 -0.382722
v -0.485855 -0.829773 -0.383960
v -0.485855 -0.812973 -0.383960
v -0.488254 -0.829773 -0.385639
v -0.488254 -0.812973 -0.385639
v -0.490325 -0.812973 -0.387710
v -0.490325 -0.829773 -0.387710
v -0.492004 -0.812973 -0.390109
v -0.492004 -0.829773 -0.390109
v -0.493242 -0.812973 -0.392763
v -0.493242 -0.829773 -0.392763
v -0.494000 -0.812973 -0.395591
v -0.494000 -0.829773 -0.395591
v -0.494255 -0.812973 -0.398509
v -0.494255 -0.829773 -0.398509
v -0.494000 -0.812973 -0.401426
v -0.494000 -0.829773 -0.401426
v -0.493242 -0.812973 -0.404254
v -0.493242 -0.829773 -0.404254
v -0.492004 -0.812973 -0.406909
v -0.492004 -0.829773 -0.406909
v -0.490325 -0.812973 -0.409308
v -0.490325 -0.829773 -0.409308
v -0.488254 -0.829773 -0.411378
v -0.488254 -0.812973 -0.411378
v -0.485855 -0.829773 -0.413058
v -0.485855 -0.812973 -0.413058
v -0.483201 -0.829773 -0.414295
v -0.483201 -0.812973 -0.414295
v -0.480373 -0.829773 -0.415053
v -0.480373 -0.812973 -0.415053
v -0.477455 -0.829773 -0.415308
v -0.477455 -0.812973 -0.415308
v -0.474538 -0.829773 -0.415053
v -0.474538 -0.812973 -0.415053
v -0.471709 -0.829773 -0.414295
v -0.471709 -0.812973 -0.414295
v -0.469055 -0.829773 -0.413058
v -0.469055 -0.812973 -0.413058
v -0.466657 -0.829773 -0.411378
v -0.466657 -0.812973 -0.411378
v -0.464586 -0.829773 -0.409308
v -0.464586 -0.812973 -0.409308
v -0.462906 -0.812973 -0.406909
v -0.462906 -0.829773 -0.406909
v -0.461669 -0.812973 -0.404254
v -0.461669 -0.829773 -0.404254
v -0.460911 -0.812973 -0.401426
v -0.460911 -0.829773 -0.401426
v -0.460655 -0.812973 -0.398509
v -0.460655 -0.829773 -0.398509
vn 0 -1 0
vn 0.9848077506098836 0 0.1736481912911892
vn 0.9396926322790204 0 0.34202011174860136
vn 0.866025402838329 0 0.5000000016387101
vn 0.7660444300729436 0 0.6427876252341971
vn 0.6427876252341971 0 0.7660444300729436
vn 0.5000000016387101 0 0.866025402838329
vn 0.34202011174860136 0 0.9396926322790204
vn 0.1736481912911892 0 0.9848077506098836
vn 0 0 1
vn -0.1736481912911892 0 0.9848077506098836
vn -0.34202011174860136 0 0.9396926322790204
vn -0.5000000016387101 0 0.866025402838329
vn -0.6427876252341971 0 0.7660444300729436
vn -0.7660444300729436 0 0.6427876252341971
vn -0.866025402838329 0 0.5000000016387101
vn -0.9396926322790204 0 0.34202011174860136
vn -0.9848077506098836 0 0.1736481912911892
vn -1 0 0
vn -0.9848077506098836 0 -0.1736481912911892
vn -0.9396926322790204 0 -0.34202011174860136
vn -0.866025402838329 0 -0.5000000016387101
vn -0.7660444300729436 0 -0.6427876252341971
vn -0.6427876252341971 0 -0.7660444300729436
vn -0.5000000016387101 0 -0.866025402838329
vn -0.34202011174860136 0 -0.9396926322790204
vn -0.1736481912911892 0 -0.9848077506098836
vn 0 0 -1
vn 0.1736481912911892 0 -0.9848077506098836
vn 0.34202011174860136 0 -0.9396926322790204
vn 0.5000000016387101 0 -0.866025402838329
vn 0.6427876252341971 0 -0.7660444300729436
vn 0.7660444300729436 0 -0.6427876252341971
vn 0.866025402838329 0 -0.5000000016387101
vn 0.9396926322790204 0 -0.34202011174860136
vn 0.9848077506098836 0 -0.1736481912911892
vn 1 0 0
usemtl material_0_0
f 1//1 2//1 3//1
f 2//1 1//1 4//1
f 2//1 4//1 5//1
f 5//1 4//1 6//1
f 5//1 6//1 7//1
f 7//1 6//1 8//1
f 7//1 8//1 9//1
f 9//1 8//1 10//1
f 9//1 10//1 11//1
f 11//1 10//1 12//1
f 11//1 12//1 13//1
f 13//1 12//1 14//1
f 13//1 14//1 15//1
f 15//1 14//1 16//1
f 15//1 16//1 17//1
f 17//1 16//1 18//1
f 17//1 18//1 19//1
f 19//1 18//1 20//1
f 20//1 18//1 21//1
f 20//1 21//1 22//1
f 22//1 21//1 23//1
f 22//1 23//1 24//1
f 24//1 23//1 25//1
f 24//1 25//1 26//1
f 26//1 25//1 27//1
f 26//1 27//1 28//1
f 28//1 27//1 29//1
f 28//1 29//1 30//1
f 30//1 29//1 31//1
f 30//1 31//1 32//1
f 32//1 31//1 33//1
f 32//1 33//1 34//1
f 34//1 33//1 35//1
f 34//1 35//1 36//1
f 37//2 38//3 39//3
f 38//3 37//2 40//2
f 39//3 41//4 42//4
f 41//4 39//3 38//3
f 42//4 43//5 44//5
f 43//5 42//4 41//4
f 44//5 45//6 46//6
f 45//6 44//5 43//5
f 45//6 47//7 46//6
f 47//7 45//6 48//7
f 48//7 49//8 47//7
f 49//8 48//7 50//8
f 50//8 51//9 49//8
f 51//9 50//8 52//9
f 52//9 53//10 51//9
f 53//10 52//9 54//10
f 54//10 55//11 53//10
f 55//11 54//10 56//11
f 56//11 57//12 55//11
f 57//12 56//11 58//12
f 58//12 59//13 57//12
f 59//13 58//12 60//13
f 60//13 61//14 59//13
f 61//14 60//13 62//14
f 63//15 61//14 62//14
f 61//14 63//15 64//15
f 65//16 64//15 63//15
f 64//15 65//16 66//16
f 67//17 66//16 65//16
f 66//16 67//17 68//17
f 69//18 68//17 67//17
f 68//17 69//18 70//18
f 71//19 70//18 69//18
f 70//18 71//19 72//19
f 73//20 72//19 71//19
f 72//19 73//20 74//20
f 75//21 74//20 73//20
f 74//20 75//21 76//21
f 77//22 76//21 75//21
f 76//21 77//22 78//22
f 79//23 78//22 77//22
f 78//22 79//23 80//23
f 79//23 81//24 80//23
f 81//24 79//23 82//24
f 82//24 83//25 81//24
f 83//25 82//24 84//25
f 84//25 85//26 83//25
f 85//26 84//25 86//26
f 86//26 87//27 85//26
f 87//27 86//26 88//27
f 88//27 89//28 87//27
f 89//28 88//27 90//28
f 90//28 91//29 89//28
f 91//29 90//28 92//29
f 92//29 93//30 91//29
f 93//30 92//29 94//30
f 94//30 95//31 93//30
f 95//31 94//30 96//31
f 96//31 97//32 95//31
f 97//32 96//31 98//32
f 98//32 99//33 97//32
f 99//33 98//32 100//33
f 99//33 101//34 102//34
f 101//34 99//33 100//33
f 102//34 103//35 104//35
f 103//35 102//34 101//34
f 104//35 105//36 106//36
f 105//36 104//35 103//35
f 106//36 107//37 108//37
f 107//37 106//36 105//36
f 108//37 40//2 37//2
f 40//2 108//37 107//37
