# SSTK version 0.8.0
# 32
mtllib original-32.mtl
o #ID259
v 0.065686 0.724211 0.405716
v 0.066547 0.725007 0.404083
v 0.065307 0.724211 0.404302
v 0.066870 0.725007 0.405285
v 0.066305 0.724211 0.407043
v 0.067396 0.725007 0.406413
v 0.066547 0.725007 0.401603
v 0.066439 0.725007 0.402843
v 0.066870 0.725007 0.400401
v 0.067396 0.725007 0.399273
v 0.068110 0.725007 0.407433
v 0.068110 0.725007 0.398254
v 0.068989 0.725007 0.408313
v 0.068989 0.725007 0.397374
v 0.070009 0.725007 0.409027
v 0.070009 0.725007 0.396660
v 0.071137 0.725007 0.409553
v 0.071137 0.725007 0.396134
v 0.072339 0.725007 0.409875
v 0.072339 0.725007 0.395812
v 0.073579 0.725007 0.409983
v 0.073579 0.725007 0.395703
v 0.074819 0.725007 0.409875
v 0.074819 0.725007 0.395812
v 0.076021 0.725007 0.409553
v 0.076021 0.725007 0.396134
v 0.077149 0.725007 0.409027
v 0.077149 0.725007 0.396660
v 0.078169 0.725007 0.408313
v 0.078169 0.725007 0.397374
v 0.079049 0.725007 0.407433
v 0.079049 0.725007 0.398254
v 0.079763 0.725007 0.406413
v 0.079763 0.725007 0.399273
v 0.080288 0.725007 0.405285
v 0.080288 0.725007 0.400401
v 0.080611 0.725007 0.404083
v 0.080611 0.725007 0.401603
v 0.080719 0.725007 0.402843
v 0.065179 0.724211 0.402843
v 0.065307 0.724211 0.404302
v 0.065686 0.722531 0.405716
v 0.065686 0.724211 0.405716
v 0.065307 0.722531 0.404302
v 0.067144 0.724211 0.408243
v 0.066305 0.722531 0.407043
v 0.066305 0.724211 0.407043
v 0.068180 0.724211 0.409278
v 0.069379 0.724211 0.410118
v 0.070706 0.724211 0.410737
v 0.072120 0.724211 0.411116
v 0.073579 0.724211 0.411243
v 0.075038 0.724211 0.411116
v 0.076452 0.724211 0.410737
v 0.077779 0.724211 0.410118
v 0.078978 0.724211 0.409278
v 0.080014 0.724211 0.408243
v 0.080853 0.724211 0.407043
v 0.081473 0.724211 0.405716
v 0.081852 0.724211 0.404302
v 0.081979 0.724211 0.402843
v 0.081852 0.724211 0.401385
v 0.081473 0.724211 0.399970
v 0.080853 0.724211 0.398643
v 0.080014 0.724211 0.397444
v 0.078978 0.724211 0.396408
v 0.077779 0.724211 0.395569
v 0.076452 0.724211 0.394950
v 0.075038 0.724211 0.394571
v 0.073579 0.724211 0.394443
v 0.072120 0.724211 0.394571
v 0.070706 0.724211 0.394950
v 0.069379 0.724211 0.395569
v 0.068180 0.724211 0.396408
v 0.067144 0.724211 0.397444
v 0.066305 0.724211 0.398643
v 0.065686 0.724211 0.399970
v 0.065307 0.724211 0.401385
v 0.065179 0.724211 0.402843
v 0.065179 0.722531 0.402843
v 0.067144 0.722531 0.408243
v 0.067144 0.724211 0.408243
v 0.068180 0.722531 0.409278
v 0.068180 0.724211 0.409278
v 0.069379 0.724211 0.410118
v 0.069379 0.722531 0.410118
v 0.070706 0.724211 0.410737
v 0.070706 0.722531 0.410737
v 0.072120 0.724211 0.411116
v 0.072120 0.722531 0.411116
v 0.073579 0.724211 0.411243
v 0.073579 0.722531 0.411243
v 0.075038 0.724211 0.411116
v 0.075038 0.722531 0.411116
v 0.076452 0.724211 0.410737
v 0.076452 0.722531 0.410737
v 0.077779 0.724211 0.410118
v 0.077779 0.722531 0.410118
v 0.078978 0.724211 0.409278
v 0.078978 0.722531 0.409278
v 0.080014 0.722531 0.408243
v 0.080014 0.724211 0.408243
v 0.080853 0.722531 0.407043
v 0.080853 0.724211 0.407043
v 0.081473 0.722531 0.405716
v 0.081473 0.724211 0.405716
v 0.081852 0.722531 0.404302
v 0.081852 0.724211 0.404302
v 0.081979 0.722531 0.402843
v 0.081979 0.724211 0.402843
v 0.081852 0.722531 0.401385
v 0.081852 0.724211 0.401385
v 0.081473 0.722531 0.399970
v 0.081473 0.724211 0.399970
v 0.080853 0.722531 0.398643
v 0.080853 0.724211 0.398643
v 0.080014 0.722531 0.397444
v 0.080014 0.724211 0.397444
v 0.078978 0.722531 0.396408
v 0.078978 0.724211 0.396408
v 0.077779 0.724211 0.395569
v 0.077779 0.722531 0.395569
v 0.076452 0.724211 0.394950
v 0.076452 0.722531 0.394950
v 0.075038 0.724211 0.394571
v 0.075038 0.722531 0.394571
v 0.073579 0.724211 0.394443
v 0.073579 0.722531 0.394443
v 0.072120 0.724211 0.394571
v 0.072120 0.722531 0.394571
v 0.070706 0.724211 0.394950
v 0.070706 0.722531 0.394950
v 0.069379 0.724211 0.395569
v 0.069379 0.722531 0.395569
v 0.068180 0.724211 0.396408
v 0.068180 0.722531 0.396408
v 0.067144 0.722531 0.397444
v 0.067144 0.724211 0.397444
v 0.066305 0.722531 0.398643
v 0.066305 0.724211 0.398643
v 0.065686 0.722531 0.399970
v 0.065686 0.724211 0.399970
v 0.065307 0.722531 0.401385
v 0.065307 0.724211 0.401385
vn -0.5022716790395126 0.8451644647301255 0.18281189237100873
vn -0.28793568958790317 0.9563029654189479 0.05077082816406671
vn -0.5263859809990844 0.845164469492161 0.09281604664962625
vn -0.27474499356616466 0.9563029776057942 0.09999901765827521
vn -0.4628960758447642 0.8451644558969111 0.2672531860539677
vn -0.2532063906243499 0.9563029645903013 0.1461887945869655
vn -0.28793568958790317 0.9563029654189479 -0.05077082816406628
vn -0.29237758701978617 0.9563029575445676 0
vn -0.27474499356616466 0.9563029776057942 -0.09999901765827479
vn -0.2532063906243499 0.9563029645903013 -0.14618879458696504
vn -0.2239741917934144 0.9563029649603283 0.18793669311385613
vn -0.22397419179341446 0.9563029649603285 -0.18793669311385572
vn -0.1879366931138559 0.9563029649603283 0.22397419179341463
vn -0.18793669311385594 0.9563029649603285 -0.22397419179341424
vn -0.14618879458696526 0.9563029645903012 0.25320639062435013
vn -0.14618879458696526 0.9563029645903014 -0.2532063906243497
vn -0.099999017658275 0.9563029776057941 0.2747449935661649
vn -0.099999017658275 0.9563029776057943 -0.27474499356616444
vn -0.050770828164066494 0.9563029654189478 0.2879356895879034
vn -0.050770828164066494 0.956302965418948 -0.28793568958790294
vn 0 0.9563029575445675 0.2923775870197864
vn 0 0.9563029575445677 -0.29237758701978594
vn 0.050770828164066494 0.9563029654189478 0.2879356895879034
vn 0.050770828164066494 0.956302965418948 -0.28793568958790294
vn 0.099999017658275 0.9563029776057941 0.2747449935661649
vn 0.099999017658275 0.9563029776057943 -0.27474499356616444
vn 0.14618879458696526 0.9563029645903012 0.25320639062435013
vn 0.14618879458696526 0.9563029645903014 -0.2532063906243497
vn 0.1879366931138559 0.9563029649603283 0.22397419179341463
vn 0.18793669311385594 0.9563029649603285 -0.22397419179341424
vn 0.2239741917934144 0.9563029649603283 0.18793669311385613
vn 0.22397419179341446 0.9563029649603285 -0.18793669311385572
vn 0.2532063906243499 0.9563029645903013 0.1461887945869655
vn 0.2532063906243499 0.9563029645903013 -0.14618879458696504
vn 0.27474499356616466 0.9563029776057942 0.09999901765827521
vn 0.27474499356616466 0.9563029776057942 -0.09999901765827479
vn 0.28793568958790317 0.9563029654189479 0.05077082816406671
vn 0.28793568958790317 0.9563029654189479 -0.05077082816406628
vn 0.29237758701978617 0.9563029575445676 0
vn -0.5345063669404588 0.8451644477260691 0
vn -0.9848077506098836 0 0.1736481912911892
vn -0.9396926322790204 0 0.34202011174860136
vn -0.4094555830848947 0.8451644650852339 0.34357408580653925
vn -0.866025402838329 0 0.5000000016387101
vn -0.3435740858065391 0.8451644650852339 0.4094555830848949
vn -0.26725318605396753 0.8451644558969111 0.4628960758447644
vn -0.18281189237100853 0.8451644647301254 0.5022716790395129
vn -0.09281604664962606 0.8451644694921608 0.5263859809990846
vn 0 0.845164447726069 0.534506366940459
vn 0.09281604664962606 0.8451644694921608 0.5263859809990846
vn 0.18281189237100853 0.8451644647301254 0.5022716790395129
vn 0.26725318605396753 0.8451644558969111 0.4628960758447644
vn 0.3435740858065391 0.8451644650852339 0.4094555830848949
vn 0.4094555830848947 0.8451644650852339 0.34357408580653925
vn 0.4628960758447642 0.8451644558969111 0.2672531860539677
vn 0.5022716790395126 0.8451644647301255 0.18281189237100873
vn 0.5263859809990844 0.845164469492161 0.09281604664962625
vn 0.5345063669404588 0.8451644477260691 0
vn 0.5263859809990844 0.845164469492161 -0.09281604664962587
vn 0.5022716790395126 0.8451644647301255 -0.18281189237100834
vn 0.4628960758447641 0.8451644558969112 -0.2672531860539673
vn 0.4094555830848947 0.8451644650852341 -0.3435740858065389
vn 0.3435740858065391 0.8451644650852341 -0.40945558308489455
vn 0.2672531860539675 0.8451644558969112 -0.46289607584476394
vn 0.18281189237100853 0.8451644647301256 -0.5022716790395124
vn 0.09281604664962606 0.8451644694921611 -0.5263859809990842
vn 0 0.8451644477260692 -0.5345063669404586
vn -0.09281604664962606 0.8451644694921611 -0.5263859809990842
vn -0.18281189237100853 0.8451644647301256 -0.5022716790395124
vn -0.2672531860539675 0.8451644558969112 -0.46289607584476394
vn -0.3435740858065391 0.8451644650852341 -0.40945558308489455
vn -0.4094555830848947 0.8451644650852341 -0.3435740858065389
vn -0.4628960758447641 0.8451644558969112 -0.2672531860539673
vn -0.5022716790395126 0.8451644647301255 -0.18281189237100834
vn -0.5263859809990844 0.845164469492161 -0.09281604664962587
vn -1 0 0
vn -0.7660444300729436 0 0.6427876252341971
vn -0.6427876252341971 0 0.7660444300729436
vn -0.5000000016387101 0 0.866025402838329
vn -0.34202011174860136 0 0.9396926322790204
vn -0.1736481912911892 0 0.9848077506098836
vn 0 0 1
vn 0.1736481912911892 0 0.9848077506098836
vn 0.34202011174860136 0 0.9396926322790204
vn 0.5000000016387101 0 0.866025402838329
vn 0.6427876252341971 0 0.7660444300729436
vn 0.7660444300729436 0 0.6427876252341971
vn 0.866025402838329 0 0.5000000016387101
vn 0.9396926322790204 0 0.34202011174860136
vn 0.9848077506098836 0 0.1736481912911892
vn 1 0 0
vn 0.9848077506098836 0 -0.1736481912911892
vn 0.9396926322790204 0 -0.34202011174860136
vn 0.866025402838329 0 -0.5000000016387101
vn 0.7660444300729436 0 -0.6427876252341971
vn 0.6427876252341971 0 -0.7660444300729436
vn 0.5000000016387101 0 -0.866025402838329
vn 0.34202011174860136 0 -0.9396926322790204
vn 0.1736481912911892 0 -0.9848077506098836
vn 0 0 -1
vn -0.1736481912911892 0 -0.9848077506098836
vn -0.34202011174860136 0 -0.9396926322790204
vn -0.5000000016387101 0 -0.866025402838329
vn -0.6427876252341971 0 -0.7660444300729436
vn -0.7660444300729436 0 -0.6427876252341971
vn -0.866025402838329 0 -0.5000000016387101
vn -0.9396926322790204 0 -0.34202011174860136
vn -0.9848077506098836 0 -0.1736481912911892
usemtl material_0_0
f 1//1 2//2 3//3
f 2//2 1//1 4//4
f 5//5 4//4 1//1
f 4//4 5//5 6//6
f 2//2 7//7 8//8
f 7//7 2//2 4//4
f 7//7 4//4 9//9
f 9//9 4//4 6//6
f 9//9 6//6 10//10
f 10//10 6//6 11//11
f 10//10 11//11 12//12
f 12//12 11//11 13//13
f 12//12 13//13 14//14
f 14//14 13//13 15//15
f 14//14 15//15 16//16
f 16//16 15//15 17//17
f 16//16 17//17 18//18
f 18//18 17//17 19//19
f 18//18 19//19 20//20
f 20//20 19//19 21//21
f 20//20 21//21 22//22
f 22//22 21//21 23//23
f 22//22 23//23 24//24
f 24//24 23//23 25//25
f 24//24 25//25 26//26
f 26//26 25//25 27//27
f 26//26 27//27 28//28
f 28//28 27//27 29//29
f 28//28 29//29 30//30
f 30//30 29//29 31//31
f 30//30 31//31 32//32
f 32//32 31//31 33//33
f 32//32 33//33 34//34
f 34//34 33//33 35//35
f 34//34 35//35 36//36
f 36//36 35//35 37//37
f 36//36 37//37 38//38
f 38//38 37//37 39//39
f 3//3 8//8 40//40
f 8//8 3//3 2//2
f 41//41 42//42 43//42
f 42//42 41//41 44//41
f 45//43 6//6 5//5
f 6//6 45//43 11//11
f 43//42 46//44 47//44
f 46//44 43//42 42//42
f 48//45 11//11 45//43
f 11//11 48//45 13//13
f 49//46 13//13 48//45
f 13//13 49//46 15//15
f 50//47 15//15 49//46
f 15//15 50//47 17//17
f 51//48 17//17 50//47
f 17//17 51//48 19//19
f 52//49 19//19 51//48
f 19//19 52//49 21//21
f 53//50 21//21 52//49
f 21//21 53//50 23//23
f 53//50 25//25 23//23
f 25//25 53//50 54//51
f 54//51 27//27 25//25
f 27//27 54//51 55//52
f 55//52 29//29 27//27
f 29//29 55//52 56//53
f 56//53 31//31 29//29
f 31//31 56//53 57//54
f 57//54 33//33 31//31
f 33//33 57//54 58//55
f 58//55 35//35 33//33
f 35//35 58//55 59//56
f 59//56 37//37 35//35
f 37//37 59//56 60//57
f 60//57 39//39 37//37
f 39//39 60//57 61//58
f 39//39 62//59 38//38
f 62//59 39//39 61//58
f 38//38 63//60 36//36
f 63//60 38//38 62//59
f 36//36 64//61 34//34
f 64//61 36//36 63//60
f 34//34 65//62 32//32
f 65//62 34//34 64//61
f 32//32 66//63 30//30
f 66//63 32//32 65//62
f 30//30 67//64 28//28
f 67//64 30//30 66//63
f 28//28 68//65 26//26
f 68//65 28//28 67//64
f 26//26 69//66 24//24
f 69//66 26//26 68//65
f 24//24 70//67 22//22
f 70//67 24//24 69//66
f 20//20 70//67 71//68
f 70//67 20//20 22//22
f 18//18 71//68 72//69
f 71//68 18//18 20//20
f 16//16 72//69 73//70
f 72//69 16//16 18//18
f 14//14 73//70 74//71
f 73//70 14//14 16//16
f 12//12 74//71 75//72
f 74//71 12//12 14//14
f 10//10 75//72 76//73
f 75//72 10//10 12//12
f 9//9 76//73 77//74
f 76//73 9//9 10//10
f 7//7 77//74 78//75
f 77//74 7//7 9//9
f 8//8 78//75 40//40
f 78//75 8//8 7//7
f 79//76 44//41 41//41
f 44//41 79//76 80//76
f 47//44 81//77 82//77
f 81//77 47//44 46//44
f 82//77 83//78 84//78
f 83//78 82//77 81//77
f 85//79 83//78 86//79
f 83//78 85//79 84//78
f 87//80 86//79 88//80
f 86//79 87//80 85//79
f 89//81 88//80 90//81
f 88//80 89//81 87//80
f 91//82 90//81 92//82
f 90//81 91//82 89//81
f 93//83 92//82 94//83
f 92//82 93//83 91//82
f 95//84 94//83 96//84
f 94//83 95//84 93//83
f 97//85 96//84 98//85
f 96//84 97//85 95//84
f 99//86 98//85 100//86
f 98//85 99//86 97//85
f 101//87 99//86 100//86
f 99//86 101//87 102//87
f 103//88 102//87 101//87
f 102//87 103//88 104//88
f 105//89 104//88 103//88
f 104//88 105//89 106//89
f 107//90 106//89 105//89
f 106//89 107//90 108//90
f 109//91 108//90 107//90
f 108//90 109//91 110//91
f 111//92 110//91 109//91
f 110//91 111//92 112//92
f 113//93 112//92 111//92
f 112//92 113//93 114//93
f 115//94 114//93 113//93
f 114//93 115//94 116//94
f 117//95 116//94 115//94
f 116//94 117//95 118//95
f 119//96 118//95 117//95
f 118//95 119//96 120//96
f 121//97 119//96 122//97
f 119//96 121//97 120//96
f 123//98 122//97 124//98
f 122//97 123//98 121//97
f 125//99 124//98 126//99
f 124//98 125//99 123//98
f 127//100 126//99 128//100
f 126//99 127//100 125//99
f 129//101 128//100 130//101
f 128//100 129//101 127//100
f 131//102 130//101 132//102
f 130//101 131//102 129//101
f 133//103 132//102 134//103
f 132//102 133//103 131//102
f 135//104 134//103 136//104
f 134//103 135//104 133//103
f 135//104 137//105 138//105
f 137//105 135//104 136//104
f 138//105 139//106 140//106
f 139//106 138//105 137//105
f 140//106 141//107 142//107
f 141//107 140//106 139//106
f 142//107 143//108 144//108
f 143//108 142//107 141//107
f 144//108 80//76 79//76
f 80//76 144//108 143//108
