# SSTK version 0.8.0
# 89
mtllib original-89.mtl
o kb_key3a1/kb_key3a/mesh11/mesh11-geometry#mesh11-geometry
v -0.741601 0.031988 0.213324
v -0.735198 -0.001215 0.280514
v -0.735198 0.006532 0.210507
v -0.743154 0.031293 0.276106
v -0.731996 -0.001567 0.283696
v -0.842449 -0.001215 0.280514
v -0.749435 0.031017 0.213217
v -0.749435 0.030513 0.276212
v -0.731996 0.006884 0.207325
v -0.845651 -0.001567 0.283696
v -0.842449 0.006532 0.210507
v -0.834493 0.031293 0.276106
v -0.757288 0.030222 0.213129
v -0.757288 0.030220 0.213310
v -0.749435 0.030514 0.276072
v -0.757288 0.029716 0.276320
v -0.836046 0.031988 0.213324
v -0.828212 0.030513 0.276212
v -0.765158 0.029603 0.213060
v -0.765158 0.029096 0.276404
v -0.757288 0.029718 0.276065
v -0.845651 0.006884 0.207325
v -0.828212 0.031017 0.213217
v -0.820359 0.029716 0.276320
v -0.828212 0.030514 0.276072
v -0.773040 0.029160 0.213011
v -0.773040 0.028653 0.276464
v -0.765158 0.029099 0.276061
v -0.820359 0.030222 0.213129
v -0.812489 0.029096 0.276404
v -0.820359 0.029718 0.276065
v -0.780930 0.028895 0.212982
v -0.765158 0.029601 0.213305
v -0.780930 0.028387 0.276500
v -0.773040 0.028656 0.276057
v -0.820359 0.030220 0.213310
v -0.812489 0.029603 0.213060
v -0.804607 0.028653 0.276464
v -0.812489 0.029099 0.276061
v -0.788823 0.028806 0.212972
v -0.788823 0.028298 0.276512
v -0.780930 0.028390 0.276055
v -0.773040 0.029158 0.213302
v -0.804607 0.029160 0.213011
v -0.796717 0.028387 0.276500
v -0.804607 0.028656 0.276057
v -0.812489 0.029601 0.213305
v -0.796717 0.028895 0.212982
v -0.788823 0.028301 0.276054
v -0.780930 0.028892 0.213300
v -0.796717 0.028390 0.276055
v -0.804607 0.029158 0.213302
v -0.788823 0.028804 0.213299
v -0.796717 0.028892 0.213300
vn 0.9701424461335232 0.24106435580991037 0.026676029839858843
vn -0.9701424461335232 -0.24106435580991037 -0.026676029839858843
vn 0 0.9939329161950589 0.10998799072619797
vn 0 -0.9939329161950589 -0.10998799072619797
vn 0 0.10998799072619797 -0.9939329161950589
vn 0 -0.10998799072619797 0.9939329161950589
vn 0.12314905619843272 -0.992356393485731 -0.007943441661422591
vn 0.11200302387095407 -0.9936760345954164 -0.007953673018897085
vn -0.12314905619843272 0.992356393485731 0.007943441661422591
vn -0.11200302387095407 0.9936760345954164 0.007953673018897085
vn 0 0.13436035710078642 0.9909325377843585
vn 0 -0.13436035710078642 -0.9909325377843585
vn -0.08372002690234397 0.7480760833052656 -0.6583108161667436
vn 0.08372002690234397 -0.7480760833052656 0.6583108161667436
vn -0.9701424461335232 0.24106435580991037 0.026676029839858843
vn 0.9701424461335232 -0.24106435580991037 -0.026676029839858843
vn 0.08966802152270624 -0.9959398058297227 -0.007971767687133154
vn -0.08966802152270624 0.9959398058297227 0.007971767687133154
vn -0.12314905619843272 -0.992356393485731 -0.007943441661422591
vn -0.11200302387095407 -0.9936760345954164 -0.007953673018897085
vn 0.11200302387095407 0.9936760345954164 0.007953673018897085
vn 0.12314905619843272 0.992356393485731 0.007943441661422591
vn 0.06728998469948781 -0.9977015020104847 -0.007985664979558842
vn -0.06728998469948781 0.9977015020104847 0.007985664979558842
vn -0.08966802152270624 -0.9959398058297227 -0.007971767687133154
vn 0.08966802152270624 0.9959398058297227 0.007971767687133154
vn 0.04487801173767227 -0.9989604725116321 -0.007996150436948053
vn -0.04487801173767227 0.9989604725116321 0.007996150436948053
vn -0.06728998469948781 -0.9977015020104847 -0.007985664979558842
vn 0.06728998469948781 0.9977015020104847 0.007985664979558842
vn 0.022444998524836956 -0.9997160520970704 -0.008002325953603109
vn -0.022444998524836956 0.9997160520970704 0.008002325953603109
vn -0.04487801173767227 -0.9989604725116321 -0.007996150436948053
vn 0.04487801173767227 0.9989604725116321 0.007996150436948053
vn 0 -0.9999679675967924 -0.008003985278609169
vn 0 0.9999679675967924 0.008003985278609169
vn -0.022444998524836956 -0.9997160520970704 -0.008002325953603109
vn 0.022444998524836956 0.9997160520970704 0.008002325953603109
usemtl material_0_0
f 1//1 2//1 3//1
f 2//1 1//1 4//1
f 3//2 2//2 1//2
f 4//2 1//2 2//2
f 5//3 3//3 2//3
f 2//4 3//4 5//4
f 3//3 6//3 2//3
f 2//4 6//4 3//4
f 3//5 7//5 1//5
f 1//6 7//6 3//6
f 4//7 7//8 1//7
f 1//9 7//10 4//9
f 8//11 2//11 4//11
f 4//12 2//12 8//12
f 9//3 3//3 5//3
f 5//4 3//4 9//4
f 5//3 2//3 10//3
f 10//4 2//4 5//4
f 6//3 3//3 11//3
f 11//4 3//4 6//4
f 6//3 10//3 2//3
f 2//4 10//4 6//4
f 2//11 12//11 6//11
f 6//12 12//12 2//12
f 3//5 13//5 7//5
f 7//6 13//6 3//6
f 1//13 7//13 14//13
f 14//14 7//14 1//14
f 7//8 4//7 15//8
f 15//10 4//9 7//10
f 16//11 2//11 8//11
f 8//12 2//12 16//12
f 15//8 4//7 8//8
f 8//10 4//9 15//10
f 3//3 9//3 11//3
f 11//4 9//4 3//4
f 17//5 3//5 11//5
f 11//6 3//6 17//6
f 12//15 11//15 6//15
f 6//16 11//16 12//16
f 11//3 10//3 6//3
f 6//4 10//4 11//4
f 12//11 2//11 18//11
f 18//12 2//12 12//12
f 3//5 19//5 13//5
f 13//6 19//6 3//6
f 15//8 14//17 7//8
f 7//10 14//18 15//10
f 20//11 2//11 16//11
f 16//12 2//12 20//12
f 21//17 8//8 16//17
f 16//18 8//10 21//18
f 21//17 15//8 8//8
f 8//10 15//10 21//18
f 22//3 11//3 9//3
f 9//4 11//4 22//4
f 3//5 17//5 23//5
f 23//6 17//6 3//6
f 11//15 12//15 17//15
f 17//16 12//16 11//16
f 11//3 22//3 10//3
f 10//4 22//4 11//4
f 18//11 2//11 24//11
f 24//12 2//12 18//12
f 12//19 25//20 18//20
f 18//21 25//21 12//22
f 3//5 26//5 19//5
f 19//6 26//6 3//6
f 14//17 15//8 21//17
f 21//18 15//10 14//18
f 27//11 2//11 20//11
f 20//12 2//12 27//12
f 28//23 16//17 20//23
f 20//24 16//18 28//24
f 28//23 21//17 16//17
f 16//18 21//18 28//24
f 25//20 17//19 23//20
f 23//21 17//22 25//21
f 3//5 23//5 29//5
f 29//6 23//6 3//6
f 17//19 25//20 12//19
f 12//22 25//21 17//22
f 24//11 2//11 30//11
f 30//12 2//12 24//12
f 18//20 31//25 24//25
f 24//26 31//26 18//21
f 25//20 31//25 18//20
f 18//21 31//26 25//21
f 3//5 32//5 26//5
f 26//6 32//6 3//6
f 21//17 33//23 14//17
f 14//18 33//24 21//18
f 34//11 2//11 27//11
f 27//12 2//12 34//12
f 35//27 20//23 27//27
f 27//28 20//24 35//28
f 35//27 28//23 20//23
f 20//24 28//24 35//28
f 33//23 21//17 28//23
f 28//24 21//18 33//24
f 36//25 25//20 23//20
f 23//21 25//21 36//26
f 3//5 29//5 37//5
f 37//6 29//6 3//6
f 30//11 2//11 38//11
f 38//12 2//12 30//12
f 24//25 39//29 30//29
f 30//30 39//30 24//26
f 31//25 39//29 24//25
f 24//26 39//30 31//26
f 25//20 36//25 31//25
f 31//26 36//26 25//21
f 3//5 40//5 32//5
f 32//6 40//6 3//6
f 41//11 2//11 34//11
f 34//12 2//12 41//12
f 42//31 27//27 34//31
f 34//32 27//28 42//32
f 42//31 35//27 27//27
f 27//28 35//28 42//32
f 43//27 28//23 35//27
f 35//28 28//24 43//28
f 28//23 43//27 33//23
f 33//24 43//28 28//24
f 3//5 37//5 44//5
f 44//6 37//6 3//6
f 38//11 2//11 45//11
f 45//12 2//12 38//12
f 30//29 46//33 38//33
f 38//34 46//34 30//30
f 39//29 46//33 30//29
f 30//30 46//34 39//30
f 31//25 47//29 39//29
f 39//30 47//30 31//26
f 47//29 31//25 36//25
f 36//26 31//26 47//30
f 3//5 48//5 40//5
f 40//6 48//6 3//6
f 45//11 2//11 41//11
f 41//12 2//12 45//12
f 49//35 34//31 41//35
f 41//36 34//32 49//36
f 49//35 42//31 34//31
f 34//32 42//32 49//36
f 50//31 35//27 42//31
f 42//32 35//28 50//32
f 35//27 50//31 43//27
f 43//28 50//32 35//28
f 3//5 44//5 48//5
f 48//6 44//6 3//6
f 38//33 51//37 45//37
f 45//38 51//38 38//34
f 46//33 51//37 38//33
f 38//34 51//38 46//34
f 39//29 52//33 46//33
f 46//34 52//34 39//30
f 52//33 39//29 47//29
f 47//30 39//30 52//34
f 45//37 49//35 41//35
f 41//36 49//36 45//38
f 53//35 42//31 49//35
f 49//36 42//32 53//36
f 42//31 53//35 50//31
f 50//32 53//36 42//32
f 51//37 49//35 45//37
f 45//38 49//36 51//38
f 46//33 54//37 51//37
f 51//38 54//38 46//34
f 54//37 46//33 52//33
f 52//34 46//34 54//38
f 51//37 53//35 49//35
f 49//36 53//36 51//38
f 53//35 51//37 54//37
f 54//38 51//38 53//36
