# SSTK version 0.8.0
# 96
mtllib original-96.mtl
o kb_key3f2/kb_key3f/mesh21/mesh21-geometry#mesh21-geometry
v 0.063585 0.006532 0.210507
v 0.055645 0.031223 0.276115
v 0.063585 -0.001215 0.280514
v 0.057182 0.031988 0.213324
v 0.051495 0.030514 0.276211
v 0.066786 -0.001567 0.283696
v -0.018063 -0.001215 0.280514
v 0.051495 0.031018 0.213217
v 0.045781 0.029717 0.276319
v 0.051495 0.030515 0.276072
v 0.066786 0.006884 0.207325
v -0.021264 -0.001567 0.283696
v -0.018063 0.006532 0.210507
v -0.010123 0.031223 0.276115
v 0.045781 0.030223 0.213129
v 0.045781 0.030222 0.213310
v 0.040045 0.029097 0.276404
v 0.045781 0.029719 0.276065
v -0.011660 0.031988 0.213324
v -0.005973 0.030514 0.276211
v 0.040045 0.029604 0.213060
v 0.034293 0.028653 0.276464
v 0.040045 0.029099 0.276060
v -0.021264 0.006884 0.207325
v -0.005973 0.031018 0.213217
v -0.000260 0.029717 0.276319
v -0.005973 0.030515 0.276072
v 0.034293 0.029161 0.213011
v 0.028530 0.028387 0.276500
v 0.034293 0.028656 0.276057
v 0.040045 0.029602 0.213305
v -0.000260 0.030223 0.213129
v 0.005476 0.029097 0.276404
v -0.000260 0.029719 0.276065
v 0.028530 0.028895 0.212982
v 0.022761 0.028298 0.276512
v 0.028530 0.028390 0.276055
v 0.034293 0.029159 0.213302
v -0.000260 0.030222 0.213310
v 0.005476 0.029604 0.213060
v 0.011229 0.028653 0.276464
v 0.005476 0.029099 0.276060
v 0.022761 0.028806 0.212972
v 0.016992 0.028387 0.276500
v 0.022761 0.028301 0.276054
v 0.028530 0.028893 0.213299
v 0.011229 0.029161 0.213011
v 0.011229 0.028656 0.276057
v 0.005476 0.029602 0.213305
v 0.016992 0.028895 0.212982
v 0.022761 0.028804 0.213299
v 0.016992 0.028390 0.276055
v 0.011229 0.029159 0.213302
v 0.016992 0.028893 0.213299
vn 0.9701424461335232 0.24106435580991037 0.026676029839858843
vn -0.9701424461335232 -0.24106435580991037 -0.026676029839858843
vn 0 0.13436035710078642 0.9909325377843585
vn 0 -0.13436035710078642 -0.9909325377843585
vn 0 0.9939329161950589 0.10998799072619797
vn 0 -0.9939329161950589 -0.10998799072619797
vn 0 0.10998799072619797 -0.9939329161950589
vn 0 -0.10998799072619797 0.9939329161950589
vn 0.1683570081948817 -0.9856945138886761 -0.007889428460604897
vn 0.15317600178537197 -0.9881672691661618 -0.007909527529383656
vn -0.1683570081948817 0.9856945138886761 0.007889428460604897
vn -0.15317600178537197 0.9881672691661618 0.007909527529383656
vn -0.11438099057774047 0.743216286480941 -0.6592014415214325
vn 0.11438099057774047 -0.743216286480941 0.6592014415214325
vn 0.12271203174662508 -0.9924105296747514 -0.007943415845506169
vn -0.12271203174662508 0.9924105296747514 0.007943415845506169
vn -0.9701424461335232 0.24106435580991037 0.026676029839858843
vn 0.9701424461335232 -0.24106435580991037 -0.026676029839858843
vn 0.09213303828070588 -0.9957148098130209 -0.007969992232479177
vn -0.09213303828070588 0.9957148098130209 0.007969992232479177
vn -0.1683570081948817 -0.9856945138886761 -0.007889428460604897
vn -0.15317600178537197 -0.9881672691661618 -0.007909527529383656
vn 0.15317600178537197 0.9881672691661618 0.007909527529383656
vn 0.1683570081948817 0.9856945138886761 0.007889428460604897
vn 0.06147001924625695 -0.9980769578571379 -0.007988925366135716
vn -0.06147001924625695 0.9980769578571379 0.007988925366135716
vn -0.12271203174662508 -0.9924105296747514 -0.007943415845506169
vn 0.12271203174662508 0.9924105296747514 0.007943415845506169
vn 0.030749002742665527 -0.999495121993389 -0.007999996359498534
vn -0.030749002742665527 0.999495121993389 0.007999996359498534
vn -0.09213303828070588 -0.9957148098130209 -0.007969992232479177
vn 0.09213303828070588 0.9957148098130209 0.007969992232479177
vn 0 -0.9999679675967924 -0.008003985278609169
vn 0 0.9999679675967924 0.008003985278609169
vn -0.06147001924625695 -0.9980769578571379 -0.007988925366135716
vn 0.06147001924625695 0.9980769578571379 0.007988925366135716
vn -0.030749002742665527 -0.999495121993389 -0.007999996359498534
vn 0.030749002742665527 0.999495121993389 0.007999996359498534
usemtl material_0_0
f 1//1 2//1 3//1
f 2//1 1//1 4//1
f 3//2 2//2 1//2
f 4//2 1//2 2//2
f 5//3 3//3 2//3
f 2//4 3//4 5//4
f 6//5 1//5 3//5
f 3//6 1//6 6//6
f 1//5 7//5 3//5
f 3//6 7//6 1//6
f 1//7 8//7 4//7
f 4//8 8//8 1//8
f 2//9 8//10 4//9
f 4//11 8//12 2//11
f 9//3 3//3 5//3
f 5//4 3//4 9//4
f 10//10 2//9 5//10
f 5//12 2//11 10//12
f 11//5 1//5 6//5
f 6//6 1//6 11//6
f 6//5 3//5 12//5
f 12//6 3//6 6//6
f 7//5 1//5 13//5
f 13//6 1//6 7//6
f 7//5 12//5 3//5
f 3//6 12//6 7//6
f 3//3 14//3 7//3
f 7//4 14//4 3//4
f 1//7 15//7 8//7
f 8//8 15//8 1//8
f 4//13 8//13 16//13
f 16//14 8//14 4//14
f 8//10 2//9 10//10
f 10//12 2//11 8//12
f 17//3 3//3 9//3
f 9//4 3//4 17//4
f 18//15 5//10 9//15
f 9//16 5//12 18//16
f 1//5 11//5 13//5
f 13//6 11//6 1//6
f 19//7 1//7 13//7
f 13//8 1//8 19//8
f 13//5 12//5 7//5
f 7//6 12//6 13//6
f 14//17 13//17 7//17
f 7//18 13//18 14//18
f 14//3 3//3 20//3
f 20//4 3//4 14//4
f 1//7 21//7 15//7
f 15//8 21//8 1//8
f 10//10 16//15 8//10
f 8//12 16//16 10//12
f 22//3 3//3 17//3
f 17//4 3//4 22//4
f 23//19 9//15 17//19
f 17//20 9//16 23//20
f 18//15 10//10 5//10
f 5//12 10//12 18//16
f 23//19 18//15 9//15
f 9//16 18//16 23//20
f 24//5 13//5 11//5
f 11//6 13//6 24//6
f 1//7 19//7 25//7
f 25//8 19//8 1//8
f 13//17 14//17 19//17
f 19//18 14//18 13//18
f 13//5 24//5 12//5
f 12//6 24//6 13//6
f 20//3 3//3 26//3
f 26//4 3//4 20//4
f 14//21 27//22 20//22
f 20//23 27//23 14//24
f 1//7 28//7 21//7
f 21//8 28//8 1//8
f 16//15 10//10 18//15
f 18//16 10//12 16//16
f 29//3 3//3 22//3
f 22//4 3//4 29//4
f 30//25 17//19 22//25
f 22//26 17//20 30//26
f 30//25 23//19 17//19
f 17//20 23//20 30//26
f 31//19 18//15 23//19
f 23//20 18//16 31//20
f 27//22 19//21 25//22
f 25//23 19//24 27//23
f 1//7 25//7 32//7
f 32//8 25//8 1//8
f 19//21 27//22 14//21
f 14//24 27//23 19//24
f 26//3 3//3 33//3
f 33//4 3//4 26//4
f 20//22 34//27 26//27
f 26//28 34//28 20//23
f 27//22 34//27 20//22
f 20//23 34//28 27//23
f 1//7 35//7 28//7
f 28//8 35//8 1//8
f 18//15 31//19 16//15
f 16//16 31//20 18//16
f 36//3 3//3 29//3
f 29//4 3//4 36//4
f 37//29 22//25 29//29
f 29//30 22//26 37//30
f 37//29 30//25 22//25
f 22//26 30//26 37//30
f 38//25 23//19 30//25
f 30//26 23//20 38//26
f 23//19 38//25 31//19
f 31//20 38//26 23//20
f 39//27 27//22 25//22
f 25//23 27//23 39//28
f 1//7 32//7 40//7
f 40//8 32//8 1//8
f 33//3 3//3 41//3
f 41//4 3//4 33//4
f 26//27 42//31 33//31
f 33//32 42//32 26//28
f 34//27 42//31 26//27
f 26//28 42//32 34//28
f 27//22 39//27 34//27
f 34//28 39//28 27//23
f 1//7 43//7 35//7
f 35//8 43//8 1//8
f 44//3 3//3 36//3
f 36//4 3//4 44//4
f 45//33 29//29 36//33
f 36//34 29//30 45//34
f 45//33 37//29 29//29
f 29//30 37//30 45//34
f 46//29 30//25 37//29
f 37//30 30//26 46//30
f 30//25 46//29 38//25
f 38//26 46//30 30//26
f 1//7 40//7 47//7
f 47//8 40//8 1//8
f 41//3 3//3 44//3
f 44//4 3//4 41//4
f 33//31 48//35 41//35
f 41//36 48//36 33//32
f 42//31 48//35 33//31
f 33//32 48//36 42//32
f 34//27 49//31 42//31
f 42//32 49//32 34//28
f 49//31 34//27 39//27
f 39//28 34//28 49//32
f 1//7 50//7 43//7
f 43//8 50//8 1//8
f 44//37 45//33 36//33
f 36//34 45//34 44//38
f 51//33 37//29 45//33
f 45//34 37//30 51//34
f 37//29 51//33 46//29
f 46//30 51//34 37//30
f 1//7 47//7 50//7
f 50//8 47//8 1//8
f 41//35 52//37 44//37
f 44//38 52//38 41//36
f 48//35 52//37 41//35
f 41//36 52//38 48//36
f 42//31 53//35 48//35
f 48//36 53//36 42//32
f 53//35 42//31 49//31
f 49//32 42//32 53//36
f 52//37 45//33 44//37
f 44//38 45//34 52//38
f 52//37 51//33 45//33
f 45//34 51//34 52//38
f 48//35 54//37 52//37
f 52//38 54//38 48//36
f 54//37 48//35 53//35
f 53//36 48//36 54//38
f 51//33 52//37 54//37
f 54//38 52//38 51//34
