mtllib new-6.mtl
v -0.006570 -0.723604 -0.330748
v 0.034532 -0.723604 -0.325337
v 0.072834 -0.723604 -0.309472
v 0.105724 -0.723604 -0.284234
v 0.130962 -0.723604 -0.251344
v -0.047673 -0.723604 -0.325337
v 0.146827 -0.723604 -0.213042
v -0.006570 -0.723604 -0.171940
v 0.152238 -0.723604 -0.171940
v 0.146827 -0.723604 -0.130837
v 0.130962 -0.723604 -0.092535
v 0.072834 -0.723604 -0.034408
v 0.034532 -0.723604 -0.018542
v -0.006570 -0.723604 -0.013131
v -0.047673 -0.723604 -0.018542
v -0.085975 -0.723604 -0.034408
v -0.085975 -0.723604 -0.309472
v 0.105724 -0.723604 -0.059645
v -0.118865 -0.723604 -0.059645
v -0.118865 -0.723604 -0.284234
v -0.144103 -0.723604 -0.251344
v -0.159968 -0.723604 -0.213042
v -0.165379 -0.723604 -0.171940
v -0.144103 -0.723604 -0.092535
v -0.159968 -0.723604 -0.130837
v -0.013915 -0.698433 -0.242598
v -0.016604 -0.696994 -0.238170
v -0.013915 -0.693893 -0.228628
v -0.016604 -0.695332 -0.233056
v -0.009259 -0.693062 -0.226071
v -0.009259 -0.699264 -0.245155
v -0.003882 -0.699264 -0.245155
v -0.003882 -0.693062 -0.226071
v 0.000775 -0.698433 -0.242598
v 0.000775 -0.693893 -0.228628
v 0.003463 -0.695332 -0.233056
v 0.003463 -0.696994 -0.238170
vn 0.000000 1.000000 0.000000
vn 0.000000 -1.000000 0.000000
vn 0.000000 -0.951042 0.309061
vn 0.000000 0.951042 -0.309061
usemtl material-0
f 8//2 6//2 1//2
f 1//1 6//1 8//1
f 2//2 8//2 1//2
f 1//1 8//1 2//1
f 3//2 8//2 2//2
f 2//1 8//1 3//1
f 4//2 8//2 3//2
f 3//1 8//1 4//1
f 5//2 8//2 4//2
f 4//1 8//1 5//1
f 7//2 8//2 5//2
f 5//1 8//1 7//1
f 8//2 17//2 6//2
f 6//1 17//1 8//1
f 9//2 8//2 7//2
f 7//1 8//1 9//1
f 8//2 20//2 17//2
f 17//1 20//1 8//1
f 9//2 10//2 8//2
f 8//1 10//1 9//1
f 10//2 11//2 8//2
f 8//1 11//1 10//1
f 11//2 18//2 8//2
f 8//1 18//1 11//1
f 18//2 12//2 8//2
f 8//1 12//1 18//1
f 12//2 13//2 8//2
f 8//1 13//1 12//1
f 13//2 14//2 8//2
f 8//1 14//1 13//1
f 14//2 15//2 8//2
f 8//1 15//1 14//1
f 8//2 15//2 16//2
f 16//1 15//1 8//1
f 8//2 16//2 19//2
f 19//1 16//1 8//1
f 8//2 21//2 20//2
f 20//1 21//1 8//1
f 8//2 19//2 24//2
f 24//1 19//1 8//1
f 8//2 22//2 21//2
f 21//1 22//1 8//1
f 8//2 24//2 25//2
f 25//1 24//1 8//1
f 8//2 23//2 22//2
f 22//1 23//1 8//1
f 8//2 25//2 23//2
f 23//1 25//1 8//1
usemtl material-2
f 28//3 27//3 26//3
f 26//4 27//4 28//4
f 27//3 28//3 29//3
f 29//4 28//4 27//4
f 26//3 30//3 28//3
f 28//4 30//4 26//4
f 30//3 26//3 31//3
f 31//4 26//4 30//4
f 32//3 30//3 31//3
f 31//4 30//4 32//4
f 30//3 32//3 33//3
f 33//4 32//4 30//4
f 34//3 33//3 32//3
f 32//4 33//4 34//4
f 33//3 34//3 35//3
f 35//4 34//4 33//4
f 34//3 36//3 35//3
f 35//4 36//4 34//4
f 36//3 34//3 37//3
f 37//4 34//4 36//4