mtllib new-5.mtl
v 0.471309 0.019823 -0.008528
v 0.448705 -0.011631 -0.011455
v 0.448705 0.019823 -0.011455
v 0.471309 -0.011631 -0.008528
v 0.471309 -0.011631 -0.008528
v 0.471309 0.019823 -0.008528
v 0.448705 -0.011631 -0.011455
v 0.448705 0.019823 -0.011455
v 0.498435 0.019823 -0.008284
v 0.498435 -0.011631 -0.008284
v 0.498435 -0.011631 -0.008284
v 0.498435 0.019823 -0.008284
v 0.430904 -0.011631 -0.013198
v 0.430904 0.019823 -0.013198
v 0.430904 -0.011631 -0.013198
v 0.430904 0.019823 -0.013198
v 0.525395 0.019823 -0.011282
v 0.525395 -0.011631 -0.011282
v 0.525395 -0.011631 -0.011282
v 0.525395 0.019823 -0.011282
v 0.413231 -0.011631 -0.015955
v 0.413231 0.019823 -0.015955
v 0.413231 -0.011631 -0.015955
v 0.413231 0.019823 -0.015955
v 0.551804 0.019823 -0.017481
v 0.551804 -0.011631 -0.017481
v 0.551804 -0.011631 -0.017481
v 0.551804 0.019823 -0.017481
v 0.395745 -0.011631 -0.019717
v 0.395745 0.019823 -0.019717
v 0.395745 -0.011631 -0.019717
v 0.395745 0.019823 -0.019717
v 0.577284 0.019823 -0.026790
v 0.577284 -0.011631 -0.026790
v 0.577284 -0.011631 -0.026790
v 0.577284 0.019823 -0.026790
v 0.380969 -0.011631 -0.023792
v 0.380969 0.019823 -0.023792
v 0.380969 -0.011631 -0.023792
v 0.380969 0.019823 -0.023792
v 0.601468 0.019823 -0.039077
v 0.601468 -0.011631 -0.039077
v 0.601468 -0.011631 -0.039077
v 0.601468 0.019823 -0.039077
v 0.378502 -0.011631 -0.024472
v 0.378502 0.019823 -0.024472
v 0.378502 -0.011631 -0.024472
v 0.378502 0.019823 -0.024472
v 0.624011 0.019823 -0.054166
v 0.624011 -0.011631 -0.054166
v 0.624011 -0.011631 -0.054166
v 0.624011 0.019823 -0.054166
v 0.361559 -0.011631 -0.030205
v 0.361559 0.019823 -0.030205
v 0.361559 -0.011631 -0.030205
v 0.361559 0.019823 -0.030205
v 0.644589 0.019823 -0.071841
v 0.644589 -0.011631 -0.071841
v 0.644589 -0.011631 -0.071841
v 0.644589 0.019823 -0.071841
v 0.344972 -0.011631 -0.036896
v 0.344972 0.019823 -0.036896
v 0.344972 -0.011631 -0.036896
v 0.344972 0.019823 -0.036896
v 0.662908 -0.011631 -0.091847
v 0.662908 0.019823 -0.091847
v 0.662908 -0.011631 -0.091847
v 0.662908 0.019823 -0.091847
v 0.328793 -0.011631 -0.044524
v 0.328793 0.019823 -0.044524
v 0.328793 -0.011631 -0.044524
v 0.328793 0.019823 -0.044524
v 0.678706 -0.011631 -0.113899
v 0.678706 0.019823 -0.113899
v 0.678706 -0.011631 -0.113899
v 0.678706 0.019823 -0.113899
v 0.324383 -0.011631 -0.046675
v 0.324383 0.019823 -0.046675
v 0.324383 -0.011631 -0.046675
v 0.324383 0.019823 -0.046675
v 0.691755 -0.011631 -0.137681
v 0.691755 0.019823 -0.137681
v 0.691755 -0.011631 -0.137681
v 0.691755 0.019823 -0.137681
v 0.319908 -0.011631 -0.048687
v 0.319908 0.019823 -0.048687
v 0.319908 -0.011631 -0.048687
v 0.319908 0.019823 -0.048687
v 0.696357 -0.011631 -0.149134
v 0.696357 0.019823 -0.149134
v 0.696357 -0.011631 -0.149134
v 0.696357 0.019823 -0.149134
v 0.315373 -0.011631 -0.050560
v 0.315373 0.019823 -0.050560
v 0.315373 -0.011631 -0.050560
v 0.315373 0.019823 -0.050560
v 0.698548 -0.011631 -0.154587
v 0.698548 0.019823 -0.154587
v 0.698548 -0.011631 -0.154587
v 0.698548 0.019823 -0.154587
v 0.310782 -0.011631 -0.052290
v 0.310782 0.019823 -0.052290
v 0.310782 -0.011631 -0.052290
v 0.310782 0.019823 -0.052290
v 0.700592 -0.011631 -0.165454
v 0.700592 0.019823 -0.165454
v 0.700592 -0.011631 -0.165454
v 0.700592 0.019823 -0.165454
v 0.306140 -0.011631 -0.053878
v 0.306140 0.019823 -0.053878
v 0.306140 -0.011631 -0.053878
v 0.306140 0.019823 -0.053878
v 0.701589 -0.011631 -0.175990
v 0.701589 0.019823 -0.175990
v 0.701589 -0.011631 -0.175990
v 0.701589 0.019823 -0.175990
v 0.301450 -0.011631 -0.055321
v 0.301450 0.019823 -0.055321
v 0.301450 -0.011631 -0.055321
v 0.301450 0.019823 -0.055321
v 0.701625 -0.011631 -0.188849
v 0.701625 0.019823 -0.188849
v 0.701625 -0.011631 -0.188849
v 0.701625 0.019823 -0.188849
v 0.296718 -0.011631 -0.056617
v 0.296718 0.019823 -0.056617
v 0.296718 -0.011631 -0.056617
v 0.296718 0.019823 -0.056617
v 0.291948 -0.011631 -0.057766
v 0.291948 0.019823 -0.057766
v 0.291948 -0.011631 -0.057766
v 0.291948 0.019823 -0.057766
v 0.287145 -0.011631 -0.058767
v 0.287145 0.019823 -0.058767
v 0.287145 -0.011631 -0.058767
v 0.287145 0.019823 -0.058767
v 0.282312 -0.011631 -0.059617
v 0.282312 0.019823 -0.059617
v 0.282312 -0.011631 -0.059617
v 0.282312 0.019823 -0.059617
v 0.277456 -0.011631 -0.060318
v 0.277456 0.019823 -0.060318
v 0.277456 -0.011631 -0.060318
v 0.277456 0.019823 -0.060318
v 0.272581 -0.011631 -0.060867
v 0.272581 0.019823 -0.060867
v 0.272581 -0.011631 -0.060867
v 0.272581 0.019823 -0.060867
v 0.254299 -0.011631 -0.060786
v 0.254299 0.019823 -0.060786
v 0.254299 -0.011631 -0.060786
v 0.254299 0.019823 -0.060786
v 0.236029 -0.011631 -0.060152
v 0.236029 0.019823 -0.060152
v 0.236029 -0.011631 -0.060152
v 0.236029 0.019823 -0.060152
v 0.217787 -0.011631 -0.058966
v 0.217787 0.019823 -0.058966
v 0.217787 -0.011631 -0.058966
v 0.217787 0.019823 -0.058966
v 0.199588 -0.011631 -0.057229
v 0.199588 0.019823 -0.057229
v 0.199588 -0.011631 -0.057229
v 0.199588 0.019823 -0.057229
v 0.181450 -0.011631 -0.054942
v 0.181450 0.019823 -0.054942
v 0.181450 -0.011631 -0.054942
v 0.181450 0.019823 -0.054942
v 0.163390 -0.011631 -0.052108
v 0.163390 0.019823 -0.052108
v 0.163390 -0.011631 -0.052108
v 0.163390 0.019823 -0.052108
v 0.145424 -0.011631 -0.048730
v 0.145424 0.019823 -0.048730
v 0.145424 -0.011631 -0.048730
v 0.145424 0.019823 -0.048730
v 0.127568 -0.011631 -0.044810
v 0.127568 0.019823 -0.044810
v 0.127568 -0.011631 -0.044810
v 0.127568 0.019823 -0.044810
v 0.109838 -0.011631 -0.040351
v 0.109838 0.019823 -0.040351
v 0.109838 -0.011631 -0.040351
v 0.109838 0.019823 -0.040351
v 0.092252 -0.011631 -0.035359
v 0.092252 0.019823 -0.035359
v 0.092252 -0.011631 -0.035359
v 0.092252 0.019823 -0.035359
v 0.074824 -0.011631 -0.029838
v 0.074824 0.019823 -0.029838
v 0.074824 -0.011631 -0.029838
v 0.074824 0.019823 -0.029838
v 0.057571 0.004129 -0.023792
v 0.057571 0.019823 -0.023792
v 0.057571 -0.011631 -0.023792
v 0.057571 -0.011631 -0.023792
v 0.057571 0.004129 -0.023792
v 0.057571 0.019823 -0.023792
vn 0.049570 -0.693881 -0.718382
vn 0.080254 0.703613 -0.706037
vn 0.079461 -0.710634 -0.699060
vn 0.047713 0.720829 -0.691468
vn -0.036622 -0.693881 -0.719158
vn -0.048421 0.305813 -0.950860
vn 0.119588 0.311149 -0.942807
vn 0.089774 -0.700730 -0.707756
vn -0.122289 -0.693881 -0.709630
vn -0.161688 0.305813 -0.938262
vn 0.173263 0.311149 -0.934434
vn 0.130066 -0.700730 -0.701470
vn -0.206203 -0.693881 -0.689935
vn -0.272639 0.305813 -0.912221
vn 0.226371 0.311149 -0.923007
vn 0.169934 -0.700730 -0.692892
vn -0.287163 -0.693881 -0.660353
vn -0.379683 0.305813 -0.873109
vn 0.252212 0.316228 -0.914543
vn 0.187988 -0.707107 -0.681660
vn -0.364009 -0.693881 -0.621311
vn -0.481287 0.305813 -0.821487
vn 0.278739 0.311149 -0.908565
vn 0.209247 -0.700730 -0.682051
vn -0.435639 -0.693881 -0.573366
vn -0.575995 0.305813 -0.758095
vn 0.330197 0.311149 -0.891154
vn 0.247876 -0.700730 -0.668980
vn -0.501027 -0.693881 -0.517205
vn -0.662451 0.305813 -0.683841
vn 0.380576 0.311149 -0.870832
vn 0.285695 -0.700730 -0.653725
vn -0.739414 0.305813 -0.599788
vn -0.559237 -0.693881 -0.453634
vn 0.410359 0.315050 -0.855774
vn 0.306371 -0.705640 -0.638913
vn -0.805783 0.305813 -0.507141
vn -0.609433 -0.693881 -0.383563
vn 0.402080 0.319070 -0.858211
vn 0.298498 -0.710617 -0.637121
vn -0.860607 0.305813 -0.407228
vn -0.650898 -0.693881 -0.307997
vn 0.375251 0.319070 -0.870276
vn 0.278580 -0.710617 -0.646078
vn -0.880274 0.316228 -0.353720
vn -0.656117 -0.707107 -0.263647
vn 0.348061 0.319070 -0.881503
vn 0.258394 -0.710617 -0.654413
vn -0.915846 0.299604 -0.267326
vn -0.698713 -0.685716 -0.203947
vn 0.320534 0.319070 -0.891881
vn 0.237959 -0.710617 -0.662117
vn -0.942001 0.308187 -0.132869
vn -0.710093 -0.696947 -0.100158
vn 0.292699 0.319070 -0.901400
vn 0.217295 -0.710617 -0.669184
vn -0.950205 0.308187 -0.046162
vn -0.716277 -0.696947 -0.034797
vn 0.264583 0.319070 -0.910050
vn 0.196422 -0.710617 -0.675605
vn -0.948957 0.297155 0.105730
vn -0.726449 -0.682438 0.080939
vn 0.236211 0.319070 -0.917823
vn 0.175359 -0.710617 -0.681376
vn 0.207611 0.319070 -0.924712
vn 0.154127 -0.710617 -0.686490
vn 0.178812 0.319070 -0.930710
vn 0.132747 -0.710617 -0.690943
vn 0.149840 0.319070 -0.935811
vn 0.111239 -0.710617 -0.694730
vn 0.120724 0.319070 -0.940011
vn 0.089624 -0.710617 -0.697848
vn 0.050888 0.327234 -0.943572
vn 0.037346 -0.720467 -0.692483
vn -0.018547 0.318996 -0.947575
vn -0.013770 -0.710525 -0.703537
vn -0.047186 0.318996 -0.946581
vn -0.035034 -0.710525 -0.702799
vn -0.075782 0.318996 -0.944722
vn -0.056265 -0.710525 -0.701418
vn -0.104309 0.318996 -0.941999
vn -0.077445 -0.710525 -0.699397
vn -0.132741 0.318996 -0.938414
vn -0.098555 -0.710525 -0.696736
vn -0.161051 0.318996 -0.933972
vn -0.119574 -0.710525 -0.693438
vn -0.189214 0.318996 -0.928676
vn -0.140484 -0.710525 -0.689506
vn -0.217204 0.318996 -0.922531
vn -0.161265 -0.710525 -0.684943
vn -0.244995 0.318996 -0.915543
vn -0.181899 -0.710525 -0.679755
vn -0.272563 0.318996 -0.907718
vn -0.202367 -0.710525 -0.673945
vn -0.299881 0.318996 -0.899062
vn -0.222650 -0.710525 -0.667518
vn -0.337983 0.214047 -0.916489
vn -0.327387 -0.749856 -0.574920
vn -0.038558 0.319911 -0.946663
vn -0.047713 -0.720829 0.691468
vn -0.049570 0.693881 0.718382
vn -0.080254 -0.703613 0.706037
vn -0.079461 0.710634 0.699060
vn 0.048421 -0.305813 0.950860
vn 0.036622 0.693881 0.719158
vn -0.119588 -0.311149 0.942807
vn -0.089774 0.700730 0.707756
vn 0.161688 -0.305813 0.938262
vn 0.122289 0.693881 0.709630
vn -0.173263 -0.311149 0.934434
vn -0.130066 0.700730 0.701470
vn 0.272639 -0.305813 0.912221
vn 0.206203 0.693881 0.689935
vn -0.226371 -0.311149 0.923007
vn -0.169934 0.700730 0.692892
vn 0.379683 -0.305813 0.873109
vn 0.287163 0.693881 0.660353
vn -0.252212 -0.316228 0.914543
vn -0.187988 0.707107 0.681660
vn 0.481287 -0.305813 0.821487
vn 0.364009 0.693881 0.621311
vn -0.278739 -0.311149 0.908565
vn -0.209247 0.700730 0.682051
vn 0.575995 -0.305813 0.758095
vn 0.435639 0.693881 0.573366
vn -0.330197 -0.311149 0.891154
vn -0.247876 0.700730 0.668980
vn 0.662451 -0.305813 0.683841
vn 0.501027 0.693881 0.517205
vn -0.380576 -0.311149 0.870832
vn -0.285695 0.700730 0.653725
vn 0.739414 -0.305813 0.599788
vn 0.559237 0.693881 0.453634
vn -0.410359 -0.315050 0.855774
vn -0.306371 0.705640 0.638913
vn 0.805783 -0.305813 0.507141
vn 0.609433 0.693881 0.383563
vn -0.402080 -0.319070 0.858211
vn -0.298498 0.710617 0.637121
vn 0.860607 -0.305813 0.407228
vn 0.650898 0.693881 0.307997
vn -0.375251 -0.319070 0.870276
vn -0.278580 0.710617 0.646078
vn 0.880274 -0.316228 0.353720
vn 0.656117 0.707107 0.263647
vn -0.348061 -0.319070 0.881503
vn -0.258394 0.710617 0.654413
vn 0.915846 -0.299604 0.267326
vn 0.698713 0.685716 0.203947
vn -0.320534 -0.319070 0.891881
vn -0.237959 0.710617 0.662117
vn 0.942001 -0.308187 0.132869
vn 0.710093 0.696947 0.100158
vn -0.292699 -0.319070 0.901400
vn -0.217295 0.710617 0.669184
vn 0.950205 -0.308187 0.046162
vn 0.716277 0.696947 0.034797
vn -0.264583 -0.319070 0.910050
vn -0.196422 0.710617 0.675605
vn 0.948957 -0.297155 -0.105730
vn 0.726449 0.682438 -0.080939
vn -0.236211 -0.319070 0.917823
vn -0.175359 0.710617 0.681376
vn -0.207611 -0.319070 0.924712
vn -0.154127 0.710617 0.686490
vn -0.178812 -0.319070 0.930710
vn -0.132747 0.710617 0.690943
vn -0.149840 -0.319070 0.935811
vn -0.111239 0.710617 0.694730
vn -0.120724 -0.319070 0.940011
vn -0.089624 0.710617 0.697848
vn -0.050888 -0.327234 0.943572
vn -0.037346 0.720467 0.692483
vn 0.018547 -0.318996 0.947575
vn 0.013770 0.710525 0.703537
vn 0.047186 -0.318996 0.946581
vn 0.035034 0.710525 0.702799
vn 0.075782 -0.318996 0.944722
vn 0.056265 0.710525 0.701418
vn 0.104309 -0.318996 0.941999
vn 0.077445 0.710525 0.699397
vn 0.132741 -0.318996 0.938414
vn 0.098555 0.710525 0.696736
vn 0.161051 -0.318996 0.933972
vn 0.119574 0.710525 0.693438
vn 0.189214 -0.318996 0.928676
vn 0.140484 0.710525 0.689506
vn 0.217204 -0.318996 0.922531
vn 0.161265 0.710525 0.684943
vn 0.244995 -0.318996 0.915543
vn 0.181899 0.710525 0.679755
vn 0.272563 -0.318996 0.907718
vn 0.202367 0.710525 0.673945
vn 0.299881 -0.318996 0.899062
vn 0.222650 0.710525 0.667518
vn 0.038558 -0.319911 0.946663
vn 0.337983 -0.214047 0.916489
vn 0.327387 0.749856 0.574920
vt -1.789485 -0.727759
vt -1.772376 -0.727759
vt -1.789485 -0.715360
vt -1.772376 -0.715360
vt -1.789485 -0.792681
vt -1.772376 -0.792681
vt -1.789485 -0.777925
vt -1.772376 -0.777925
vt -1.789485 -0.729698
vt -1.772376 -0.729698
vt -1.789485 -0.719969
vt -1.772376 -0.719969
vt 1.577280 1.176630
vt 1.560171 1.176630
vt 1.577280 1.161875
vt 1.560171 1.161875
vt -1.789485 -0.693053
vt -1.772376 -0.693053
vt -1.789485 -0.683324
vt -1.772376 -0.683324
vt 1.577280 1.213547
vt 1.560171 1.213547
vt 1.577280 1.198792
vt 1.560171 1.198792
vt -1.789485 -0.653616
vt -1.772376 -0.653616
vt -1.789485 -0.643887
vt -1.772376 -0.643887
vt 1.577280 1.235565
vt 1.560171 1.235565
vt 1.577280 1.220810
vt 1.560171 1.220810
vt -1.789485 -0.611515
vt -1.772376 -0.611515
vt -1.789485 -0.603178
vt -1.772376 -0.603178
vt 1.577280 1.242368
vt 1.560171 1.242368
vt 1.577280 1.227613
vt 1.560171 1.227613
vt -1.789485 -0.601786
vt -1.772376 -0.601786
vt 1.577280 1.233860
vt 1.560171 1.233860
vt 1.577280 1.219105
vt 1.560171 1.219105
vt -1.789485 -0.566889
vt -1.772376 -0.566889
vt -1.789485 -0.557160
vt -1.772376 -0.557160
vt 1.577280 1.210161
vt 1.560171 1.210161
vt 1.577280 1.195406
vt 1.560171 1.195406
vt -1.789485 -0.519883
vt -1.772376 -0.519883
vt -1.789485 -0.510154
vt -1.772376 -0.510154
vt 1.577280 1.156857
vt 1.577280 1.171612
vt 1.560171 1.156857
vt 1.560171 1.171612
vt -1.789485 -0.470651
vt -1.772376 -0.470651
vt -1.789485 -0.460922
vt -1.772376 -0.460922
vt 1.577280 1.104010
vt 1.577280 1.118765
vt 1.560171 1.104010
vt 1.560171 1.118765
vt -1.789485 -0.451599
vt -1.772376 -0.451599
vt -1.789485 -0.448930
vt -1.772376 -0.448930
vt 1.577280 1.037622
vt 1.577280 1.052377
vt 1.560171 1.037622
vt 1.560171 1.052377
vt -1.789485 -0.470908
vt -1.772376 -0.470908
vt -1.789485 -0.468240
vt -1.772376 -0.468240
vt 1.577280 0.958644
vt 1.577280 0.965358
vt 1.560171 0.958644
vt 1.560171 0.965358
vt -1.789485 -0.489606
vt -1.772376 -0.489606
vt -1.789485 -0.486937
vt -1.772376 -0.486937
vt 1.577280 0.968554
vt 1.560171 0.968554
vt -1.789485 -0.507672
vt -1.772376 -0.507672
vt -1.789485 -0.505003
vt -1.772376 -0.505003
vt 1.577280 0.791008
vt 1.577280 0.797023
vt 1.560171 0.791008
vt 1.560171 0.797023
vt -1.789485 -0.525090
vt -1.772376 -0.525090
vt -1.789485 -0.522421
vt -1.772376 -0.522421
vt 1.577280 0.705451
vt 1.577280 0.711207
vt 1.560171 0.705451
vt 1.560171 0.711207
vt -1.789485 -0.541844
vt -1.772376 -0.541844
vt -1.789485 -0.539175
vt -1.772376 -0.539175
vt 1.577280 0.615092
vt 1.577280 0.622087
vt 1.560171 0.615092
vt 1.560171 0.622087
vt -1.789485 -0.557916
vt -1.772376 -0.557916
vt -1.789485 -0.555247
vt -1.772376 -0.555247
vt -1.789485 -0.573292
vt -1.772376 -0.573292
vt -1.789485 -0.570623
vt -1.772376 -0.570623
vt -1.789485 -0.587956
vt -1.772376 -0.587956
vt -1.789485 -0.585288
vt -1.772376 -0.585288
vt -1.789485 -0.601896
vt -1.772376 -0.601896
vt -1.789485 -0.599227
vt -1.772376 -0.599227
vt -1.789485 -0.615096
vt -1.772376 -0.615096
vt -1.789485 -0.612427
vt -1.772376 -0.612427
vt -1.789485 -0.627544
vt -1.772376 -0.627544
vt -1.789485 -0.624875
vt -1.772376 -0.624875
vt 1.577280 1.007421
vt 1.560171 1.007421
vt 1.577280 0.997477
vt 1.560171 0.997477
vt 1.577280 1.008569
vt 1.560171 1.008569
vt 1.577280 0.998625
vt 1.560171 0.998625
vt 1.577280 1.008952
vt 1.560171 1.008952
vt 1.577280 0.999008
vt 1.560171 0.999008
vt 1.577280 1.008568
vt 1.560171 1.008568
vt 1.577280 0.998624
vt 1.560171 0.998624
vt 1.577280 1.007420
vt 1.560171 1.007420
vt 1.577280 0.997476
vt 1.560171 0.997476
vt 1.577280 1.005506
vt 1.560171 1.005506
vt 1.577280 0.995562
vt 1.560171 0.995562
vt 1.577280 1.002831
vt 1.560171 1.002831
vt 1.577280 0.992887
vt 1.560171 0.992887
vt 1.577280 0.999394
vt 1.560171 0.999394
vt 1.577280 0.989451
vt 1.560171 0.989451
vt 1.577280 0.995201
vt 1.560171 0.995201
vt 1.577280 0.985258
vt 1.560171 0.985258
vt 1.577280 0.990255
vt 1.560171 0.990255
vt 1.577280 0.980311
vt 1.560171 0.980311
vt 1.577280 0.984560
vt 1.560171 0.984560
vt 1.577280 0.974616
vt 1.560171 0.974616
vt 1.577280 0.978122
vt 1.560171 0.978122
vt 1.577280 0.968178
vt 1.568707 0.968178
vt 1.560171 0.968178
usemtl material-0
f 1//1 2//2 3//3
f 2//2 1//1 4//4
f 9//5 4//4 1//1
f 4//4 9//5 10//6
f 3//3 13//7 14//8
f 13//7 3//3 2//2
f 17//9 10//6 9//5
f 10//6 17//9 18//10
f 14//8 21//11 22//12
f 21//11 14//8 13//7
f 25//13 18//10 17//9
f 18//10 25//13 26//14
f 22//12 29//15 30//16
f 29//15 22//12 21//11
f 33//17 26//14 25//13
f 26//14 33//17 34//18
f 30//16 37//19 38//20
f 37//19 30//16 29//15
f 41//21 34//18 33//17
f 34//18 41//21 42//22
f 38//20 45//23 46//24
f 45//23 38//20 37//19
f 49//25 42//22 41//21
f 42//22 49//25 50//26
f 46//24 53//27 54//28
f 53//27 46//24 45//23
f 57//29 50//26 49//25
f 50//26 57//29 58//30
f 54//28 61//31 62//32
f 61//31 54//28 53//27
f 65//33 57//29 66//34
f 57//29 65//33 58//30
f 62//32 69//35 70//36
f 69//35 62//32 61//31
f 73//37 66//34 74//38
f 66//34 73//37 65//33
f 70//36 77//39 78//40
f 77//39 70//36 69//35
f 81//41 74//38 82//42
f 74//38 81//41 73//37
f 78//40 85//43 86//44
f 85//43 78//40 77//39
f 89//45 82//42 90//46
f 82//42 89//45 81//41
f 86//44 93//47 94//48
f 93//47 86//44 85//43
f 97//49 90//46 98//50
f 90//46 97//49 89//45
f 94//48 101//51 102//52
f 101//51 94//48 93//47
f 105//53 98//50 106//54
f 98//50 105//53 97//49
f 102//52 109//55 110//56
f 109//55 102//52 101//51
f 113//57 106//54 114//58
f 106//54 113//57 105//53
f 110//56 117//59 118//60
f 117//59 110//56 109//55
f 121//61 114//58 122//62
f 114//58 121//61 113//57
f 118//60 125//63 126//64
f 125//63 118//60 117//59
f 126//64 129//65 130//66
f 129//65 126//64 125//63
f 130//66 133//67 134//68
f 133//67 130//66 129//65
f 134//68 137//69 138//70
f 137//69 134//68 133//67
f 138//70 141//71 142//72
f 141//71 138//70 137//69
f 142//72 145//73 146//74
f 145//73 142//72 141//71
f 146//74 149//75 150//76
f 149//75 146//74 145//73
f 150//76 153//77 154//78
f 153//77 150//76 149//75
f 154//78 157//79 158//80
f 157//79 154//78 153//77
f 158//80 161//81 162//82
f 161//81 158//80 157//79
f 162//82 165//83 166//84
f 165//83 162//82 161//81
f 166//84 169//85 170//86
f 169//85 166//84 165//83
f 170//86 173//87 174//88
f 173//87 170//86 169//85
f 174//88 177//89 178//90
f 177//89 174//88 173//87
f 178//90 181//91 182//92
f 181//91 178//90 177//89
f 182//92 185//93 186//94
f 185//93 182//92 181//91
f 186//94 189//95 190//96
f 189//95 186//94 185//93
f 190//96 193//97 194//98
f 193//97 190//96 195//99
f 195//99 190//96 189//95
usemtl material-1
f 5/1/100 6/2/101 7/3/102
f 8/4/103 7/3/102 6/2/101
f 11/5/104 12/6/105 5/7/100
f 6/8/101 5/7/100 12/6/105
f 7/9/102 8/10/103 15/11/106
f 16/12/107 15/11/106 8/10/103
f 19/13/108 20/14/109 11/15/104
f 12/16/105 11/15/104 20/14/109
f 15/17/106 16/18/107 23/19/110
f 24/20/111 23/19/110 16/18/107
f 27/21/112 28/22/113 19/23/108
f 20/24/109 19/23/108 28/22/113
f 23/25/110 24/26/111 31/27/114
f 32/28/115 31/27/114 24/26/111
f 35/29/116 36/30/117 27/31/112
f 28/32/113 27/31/112 36/30/117
f 31/33/114 32/34/115 39/35/118
f 40/36/119 39/35/118 32/34/115
f 43/37/120 44/38/121 35/39/116
f 36/40/117 35/39/116 44/38/121
f 39/35/118 40/36/119 47/41/122
f 48/42/123 47/41/122 40/36/119
f 51/43/124 52/44/125 43/45/120
f 44/46/121 43/45/120 52/44/125
f 47/47/122 48/48/123 55/49/126
f 56/50/127 55/49/126 48/48/123
f 59/51/128 60/52/129 51/53/124
f 52/54/125 51/53/124 60/52/129
f 55/55/126 56/56/127 63/57/130
f 64/58/131 63/57/130 56/56/127
f 59/59/128 67/60/132 60/61/129
f 68/62/133 60/61/129 67/60/132
f 63/63/130 64/64/131 71/65/134
f 72/66/135 71/65/134 64/64/131
f 67/67/132 75/68/136 68/69/133
f 76/70/137 68/69/133 75/68/136
f 71/71/134 72/72/135 79/73/138
f 80/74/139 79/73/138 72/72/135
f 75/75/136 83/76/140 76/77/137
f 84/78/141 76/77/137 83/76/140
f 79/79/138 80/80/139 87/81/142
f 88/82/143 87/81/142 80/80/139
f 83/83/140 91/84/144 84/85/141
f 92/86/145 84/85/141 91/84/144
f 87/87/142 88/88/143 95/89/146
f 96/90/147 95/89/146 88/88/143
f 91/84/144 99/91/148 92/86/145
f 100/92/149 92/86/145 99/91/148
f 95/93/146 96/94/147 103/95/150
f 104/96/151 103/95/150 96/94/147
f 99/97/148 107/98/152 100/99/149
f 108/100/153 100/99/149 107/98/152
f 103/101/150 104/102/151 111/103/154
f 112/104/155 111/103/154 104/102/151
f 107/105/152 115/106/156 108/107/153
f 116/108/157 108/107/153 115/106/156
f 111/109/154 112/110/155 119/111/158
f 120/112/159 119/111/158 112/110/155
f 115/113/156 123/114/160 116/115/157
f 124/116/161 116/115/157 123/114/160
f 119/117/158 120/118/159 127/119/162
f 128/120/163 127/119/162 120/118/159
f 127/121/162 128/122/163 131/123/164
f 132/124/165 131/123/164 128/122/163
f 131/125/164 132/126/165 135/127/166
f 136/128/167 135/127/166 132/126/165
f 135/129/166 136/130/167 139/131/168
f 140/132/169 139/131/168 136/130/167
f 139/133/168 140/134/169 143/135/170
f 144/136/171 143/135/170 140/134/169
f 143/137/170 144/138/171 147/139/172
f 148/140/173 147/139/172 144/138/171
f 147/141/172 148/142/173 151/143/174
f 152/144/175 151/143/174 148/142/173
f 151/145/174 152/146/175 155/147/176
f 156/148/177 155/147/176 152/146/175
f 155/149/176 156/150/177 159/151/178
f 160/152/179 159/151/178 156/150/177
f 159/153/178 160/154/179 163/155/180
f 164/156/181 163/155/180 160/154/179
f 163/157/180 164/158/181 167/159/182
f 168/160/183 167/159/182 164/158/181
f 167/161/182 168/162/183 171/163/184
f 172/164/185 171/163/184 168/162/183
f 171/165/184 172/166/185 175/167/186
f 176/168/187 175/167/186 172/166/185
f 175/169/186 176/170/187 179/171/188
f 180/172/189 179/171/188 176/170/187
f 179/173/188 180/174/189 183/175/190
f 184/176/191 183/175/190 180/174/189
f 183/177/190 184/178/191 187/179/192
f 188/180/193 187/179/192 184/178/191
f 187/181/192 188/182/193 191/183/194
f 192/184/195 191/183/194 188/182/193
f 191/185/194 192/186/195 196/187/196
f 196/187/196 192/186/195 197/188/197
f 198/189/198 197/188/197 192/186/195