# SSTK version 0.8.0
# 8
mtllib original-8.mtl
o #ID75
v 0.665479 -0.011631 -0.161542
v 0.666449 0.019823 -0.163956
v 0.665479 0.019823 -0.161542
v 0.666449 -0.011631 -0.163956
v 0.666449 -0.011631 -0.163956
v 0.665479 -0.011631 -0.161542
v 0.666449 0.019823 -0.163956
v 0.665479 0.019823 -0.161542
v 0.661621 -0.011631 -0.151940
v 0.661621 0.019823 -0.151940
v 0.661621 -0.011631 -0.151940
v 0.661621 0.019823 -0.151940
v 0.667606 0.019823 -0.170107
v 0.667606 -0.011631 -0.170107
v 0.667606 -0.011631 -0.170107
v 0.667606 0.019823 -0.170107
v 0.650491 -0.011631 -0.131656
v 0.650491 0.019823 -0.131656
v 0.650491 -0.011631 -0.131656
v 0.650491 0.019823 -0.131656
v 0.668316 0.019823 -0.177607
v 0.668316 -0.011631 -0.177607
v 0.668316 -0.011631 -0.177607
v 0.668316 0.019823 -0.177607
v 0.637018 -0.011631 -0.112848
v 0.637018 0.019823 -0.112848
v 0.637018 -0.011631 -0.112848
v 0.637018 0.019823 -0.112848
v 0.668337 0.019823 -0.185140
v 0.668337 -0.011631 -0.185140
v 0.668337 -0.011631 -0.185140
v 0.668337 0.019823 -0.185140
v 0.621393 -0.011631 -0.095785
v 0.621393 0.019823 -0.095785
v 0.621393 -0.011631 -0.095785
v 0.621393 0.019823 -0.095785
v 0.664347 0.019823 -0.202601
v 0.664347 -0.011631 -0.202601
v 0.664347 -0.011631 -0.202601
v 0.664347 0.019823 -0.202601
v 0.603842 0.019823 -0.080711
v 0.603842 -0.011631 -0.080711
v 0.603842 0.019823 -0.080711
v 0.603842 -0.011631 -0.080711
v 0.657456 0.019823 -0.217346
v 0.657456 -0.011631 -0.217346
v 0.657456 -0.011631 -0.217346
v 0.657456 0.019823 -0.217346
v 0.584616 0.019823 -0.067841
v 0.584616 -0.011631 -0.067841
v 0.584616 0.019823 -0.067841
v 0.584616 -0.011631 -0.067841
v 0.649097 0.019823 -0.231311
v 0.649097 -0.011631 -0.231311
v 0.649097 -0.011631 -0.231311
v 0.649097 0.019823 -0.231311
v 0.563989 0.019823 -0.057362
v 0.563989 -0.011631 -0.057362
v 0.563989 0.019823 -0.057362
v 0.563989 -0.011631 -0.057362
v 0.639357 0.019823 -0.244350
v 0.639357 -0.011631 -0.244350
v 0.639357 -0.011631 -0.244350
v 0.639357 0.019823 -0.244350
v 0.542258 0.019823 -0.049422
v 0.542258 -0.011631 -0.049422
v 0.542258 0.019823 -0.049422
v 0.542258 -0.011631 -0.049422
v 0.628339 0.019823 -0.256328
v 0.628339 -0.011631 -0.256328
v 0.628339 -0.011631 -0.256328
v 0.628339 0.019823 -0.256328
v 0.519734 0.019823 -0.044135
v 0.519734 -0.011631 -0.044135
v 0.519734 0.019823 -0.044135
v 0.519734 -0.011631 -0.044135
v 0.616156 -0.011631 -0.267120
v 0.616156 0.019823 -0.267120
v 0.616156 -0.011631 -0.267120
v 0.616156 0.019823 -0.267120
v 0.496739 0.019823 -0.041578
v 0.496739 -0.011631 -0.041578
v 0.496739 0.019823 -0.041578
v 0.496739 -0.011631 -0.041578
v 0.602935 -0.011631 -0.276613
v 0.602935 0.019823 -0.276613
v 0.602935 -0.011631 -0.276613
v 0.602935 0.019823 -0.276613
v 0.473605 0.019823 -0.041786
v 0.473605 -0.011631 -0.041786
v 0.473605 0.019823 -0.041786
v 0.473605 -0.011631 -0.041786
v 0.588816 -0.011631 -0.284708
v 0.588816 0.019823 -0.284708
v 0.588816 -0.011631 -0.284708
v 0.588816 0.019823 -0.284708
v 0.450660 0.019823 -0.044757
v 0.450660 -0.011631 -0.044757
v 0.450660 0.019823 -0.044757
v 0.450660 -0.011631 -0.044757
v 0.573944 -0.011631 -0.291321
v 0.573944 0.019823 -0.291321
v 0.573944 -0.011631 -0.291321
v 0.573944 0.019823 -0.291321
v 0.427517 0.019823 -0.044491
v 0.427517 -0.011631 -0.044491
v 0.427517 0.019823 -0.044491
v 0.427517 -0.011631 -0.044491
v 0.558476 -0.011631 -0.296382
v 0.558476 0.019823 -0.296382
v 0.558476 -0.011631 -0.296382
v 0.558476 0.019823 -0.296382
v 0.393443 0.019823 -0.048406
v 0.393443 -0.011631 -0.048406
v 0.393443 0.019823 -0.048406
v 0.393443 -0.011631 -0.048406
v 0.542572 -0.011631 -0.299840
v 0.542572 0.019823 -0.299840
v 0.542572 -0.011631 -0.299840
v 0.542572 0.019823 -0.299840
v 0.360130 0.019823 -0.056570
v 0.360130 -0.011631 -0.056570
v 0.360130 0.019823 -0.056570
v 0.360130 -0.011631 -0.056570
v 0.526398 -0.011631 -0.301657
v 0.526398 0.019823 -0.301657
v 0.526398 -0.011631 -0.301657
v 0.526398 0.019823 -0.301657
v 0.328106 0.019823 -0.068853
v 0.328106 -0.011631 -0.068853
v 0.328106 0.019823 -0.068853
v 0.328106 -0.011631 -0.068853
v 0.510124 -0.011631 -0.301815
v 0.510124 0.019823 -0.301815
v 0.510124 -0.011631 -0.301815
v 0.510124 0.019823 -0.301815
v 0.297879 0.019823 -0.085062
v 0.297879 -0.011631 -0.085062
v 0.297879 0.019823 -0.085062
v 0.297879 -0.011631 -0.085062
v 0.488097 -0.011631 -0.304566
v 0.488097 0.019823 -0.304566
v 0.488097 -0.011631 -0.304566
v 0.488097 0.019823 -0.304566
v 0.274695 -0.011631 -0.133353
v 0.274695 0.019823 -0.133353
v 0.274695 -0.011631 -0.133353
v 0.274695 0.019823 -0.133353
v 0.445817 -0.011631 -0.301354
v 0.445817 0.019823 -0.301354
v 0.445817 -0.011631 -0.301354
v 0.445817 0.019823 -0.301354
v 0.286996 -0.011631 -0.173932
v 0.286996 0.019823 -0.173932
v 0.286996 -0.011631 -0.173932
v 0.286996 0.019823 -0.173932
v 0.405019 -0.011631 -0.289802
v 0.405019 0.019823 -0.289802
v 0.405019 -0.011631 -0.289802
v 0.405019 0.019823 -0.289802
v 0.307118 -0.011631 -0.211255
v 0.307118 0.019823 -0.211255
v 0.307118 -0.011631 -0.211255
v 0.307118 0.019823 -0.211255
v 0.367330 -0.011631 -0.270370
v 0.367330 0.019823 -0.270370
v 0.367330 -0.011631 -0.270370
v 0.367330 0.019823 -0.270370
v 0.334257 -0.011631 -0.243835
v 0.334257 0.019823 -0.243835
v 0.334257 -0.011631 -0.243835
v 0.334257 0.019823 -0.243835
vt 0.1914355 -0.02250088
vt 0.189571 -0.02250088
vt 0.1914355 2.168404e-16
vt 0.189571 2.168404e-16
vt 0.1821649 -0.02250088
vt 0.1821649 1.734723e-18
vt 0.010782 0.02250088
vt 0.0152614 0.02250088
vt 0.010782 0
vt 0.0152614 0
vt 0.1656044 -0.02250088
vt 0.1821649 -1.734723e-18
vt 0.1656044 -1.734723e-18
vt 0.005391002 0.02250088
vt 0.005391002 -1.734723e-18
vt 0.010782 -1.734723e-18
vt 0.149044 -0.02250088
vt 0.1656044 0
vt 0.149044 0
vt 1.665335e-16 0.02250088
vt 1.665335e-16 -2.151057e-16
vt 0.005391002 -2.151057e-16
vt 0.1324835 -0.02250088
vt 0.149044 1.734723e-18
vt 0.1324835 1.734723e-18
vt 1.472143 0.1311341
vt 1.472143 0.1183212
vt 1.449642 0.1311341
vt 1.449642 0.1183212
vt 0.1324835 0
vt 0.1159231 0
vt 0.1159231 -0.02250088
vt 0.128125 0.02250088
vt 0.1397727 0.02250088
vt 0.128125 -2.13371e-16
vt 0.1397727 -2.13371e-16
vt 0.09936265 0
vt 0.09936265 -0.02250088
vt 0.1164773 0.02250088
vt 0.1164773 -1.734723e-18
vt 0.128125 -1.734723e-18
vt 0.08280221 0
vt 0.08280221 -0.02250088
vt 0.1048296 0.02250088
vt 0.1048296 0
vt 0.1164773 0
vt 0.08280221 1.734723e-18
vt 0.06624176 1.734723e-18
vt 0.06624176 -0.02250088
vt 0.09318183 0.02250088
vt 0.09318183 2.151057e-16
vt 0.1048296 2.151057e-16
vt 0.06624176 0
vt 0.04968132 0
vt 0.04968132 -0.02250088
vt 0.09318183 0
vt 0.0815341 0.02250088
vt 0.0815341 0
vt 0.04968132 2.151057e-16
vt 0.03312088 2.151057e-16
vt 0.03312088 -0.02250088
vt 0.0815341 -2.151057e-16
vt 0.06988637 0.02250088
vt 0.06988637 -2.151057e-16
vt 0.03312088 0
vt 0.01656044 0
vt 0.01656044 -0.02250088
vt 0.06988637 0
vt 0.05823865 0.02250088
vt 0.05823865 0
vt -4.440892e-16 0
vt -4.440892e-16 -0.02250088
vt 0.05823865 -2.151057e-16
vt 0.04659092 0.02250088
vt 0.04659092 -2.151057e-16
vt 2.220446e-16 1.734723e-18
vt 2.220446e-16 0.02250088
vt 0.01657256 1.734723e-18
vt 0.01657256 0.02250088
vt 0.03494319 0.02250088
vt 0.03494319 -2.151057e-16
vt 0.01657256 0
vt 0.04112439 0
vt 0.04112439 0.02250088
vt 0.02329546 0.02250088
vt 0.02329546 -2.151057e-16
vt 0.04112439 2.151057e-16
vt 0.06567623 2.151057e-16
vt 0.06567623 0.02250088
vt 0.02329546 -2.13371e-16
vt 0.01164773 0.02250088
vt 0.01164773 -2.13371e-16
vt 0.06567623 -3.469447e-18
vt 0.09022806 -3.469447e-18
vt 0.09022806 0.02250088
vt 0.01164773 -1.734723e-18
vt -8.881784e-16 0.02250088
vt 0.09022806 -1.734723e-18
vt 0.1147799 -1.734723e-18
vt 0.1147799 0.02250088
vt 0.2285921 0.02250088
vt 0.2285921 -2.151057e-16
vt 0.2126841 0.02250088
vt 0.2126841 -2.151057e-16
vt -1.472143 -0.1349213
vt -1.472143 -0.09660055
vt -1.449642 -0.1349213
vt -1.449642 -0.09660055
vt 0.2126841 -2.13371e-16
vt 0.1823006 0.02250088
vt 0.1823006 -2.13371e-16
vt 0 0.02250088
vt 0.03038344 0.02250088
vt 0 0
vt 0.03038344 0
vt 0.1823006 -1.734723e-18
vt 0.1519172 0.02250088
vt 0.1519172 -1.734723e-18
vt 0.06076688 0.02250088
vt 0.03038344 -2.151057e-16
vt 0.06076688 -2.151057e-16
vt 0.1519172 -2.13371e-16
vt 0.1215338 0.02250088
vt 0.1215338 -2.13371e-16
vt 0.09115032 0.02250088
vt 0.06076688 -2.13371e-16
vt 0.09115032 -2.13371e-16
vt 0.1215338 -2.151057e-16
vt 0.09115032 -2.151057e-16
vn 0.8802738693409156 0.31622778898609305 0.3537200876802727
vn 0.656247420212877 -0.7298268224791736 0.19155190589993187
vn 0.6561173932040147 -0.7071067926758727 0.26364739726917186
vn 0.9043856127513805 0.3352622047270278 0.26398090372199745
vn 0.8540491770670676 0.32754009120489197 0.40412558914841784
vn 0.62651230863708 -0.7208294099373327 0.29645790408695977
vn 0.6896734789833687 -0.7175565781336783 0.09727820703561137
vn 0.9365151557288437 0.32479261932730824 0.13209510786053227
vn 0.7996433902797709 0.32754009601851924 0.503277193882311
vn 0.5866013803991347 -0.7208293759140021 0.3691934876636637
vn 0.6956797771123326 -0.7175565763925922 0.0337965588881028
vn 0.9446711764043135 0.32479259188743725 0.045892708853706984
vn 0.7337801067137725 0.3275401029968511 0.595217805445987
vn 0.5382854980989317 -0.7208293974542396 0.4366390984579173
vn 0.6754451109905389 -0.7335601119361601 -0.07525599122453162
vn 0.9351647574450247 0.3385419845945373 -0.10419309525865944
vn 0.6574030901726062 0.3275400951036654 0.6786299898552892
vn 0.48225691038920765 -0.720829415528749 0.49782851072466494
vn 0.6445646048868892 -0.7317765055481028 -0.22144890167895695
vn 0.8904297070757595 0.33696940267771214 -0.30591920243097315
vn 0.41931848289775847 -0.7208293706003944 0.5518849774909274
vn 0.5716066291012001 0.3275401166754722 0.7523186383014719
vn 0.6139917999650362 -0.7187828999590687 -0.32613679998142814
vn 0.8349522946216507 0.32581839790123923 -0.4435053971431578
vn 0.3503720020617991 -0.7208294042417926 0.5980338035191896
vn 0.47762009857420135 0.3275400990222224 0.8152278975663696
vn 0.5775257215286982 -0.7187829267944095 -0.3870596144286034
vn 0.7853630229265534 0.32581840951138885 -0.5263528153654494
vn 0.27640529021961324 -0.7208293744940117 0.6356139775092925
vn 0.3767901877496073 0.3275400893508513 0.8664563718293333
vn 0.5350360276052996 -0.7187829370857611 -0.4439454229054602
vn 0.7275823906736744 0.32581839582358163 -0.6037103922614953
vn 0.19847810090946835 -0.7208294033029917 0.6640869030429858
vn 0.2705615004945499 0.3275401005986991 0.9052701016547116
vn 0.48696592945757794 -0.7187829434806693 -0.49620083001621623
vn 0.6622130018372272 0.32581840090394243 -0.6747713018720686
vn 0.11770719581937654 -0.7208293743981992 0.6830446757402037
vn 0.16045610724606718 0.32754011479144496 0.9311129420483025
vn 0.589936777734226 0.32581838770275245 -0.7387942721159506
vn 0.43381679791779654 -0.7187828965500362 -0.5432808973923984
vn 0.035249719937470544 -0.7208293987213212 0.6922155987720793
vn 0.04805172004237852 0.3275401002888693 0.9436146008322074
vn 0.5115074239160723 0.32581841523398575 -0.7951116371762885
vn 0.37614290058620553 -0.7187829011201979 -0.5846945009112259
vn -0.04771282794239557 -0.7208293689144039 0.69146837018059
vn -0.0650411831577296 0.3275401159019727 0.9425959457627456
vn 0.4277431138492571 0.32581841054918903 -0.8431359272986424
vn 0.31454580853612224 -0.7187829195062808 -0.6200097168257805
vn -0.04231904930421129 -0.6916656886279777 0.7209768881460576
vn -0.05582063908344717 0.304112195006598 0.9509993843849661
vn 0.3395174030459787 0.3258184029230782 -0.882366307916145
vn 0.24966800858063398 -0.7187829247032578 -0.6488582223000734
vn -0.03560246899873272 -0.7215475797075314 0.6914488805540132
vn -0.04857414820277787 0.3281472878586945 0.9433768650954706
vn 0.24775049735529192 0.32581839652192607 -0.9123935902603032
vn 0.18218620503638647 -0.7187829198701574 -0.6709391185475553
vn -0.12216360021164051 -0.7215476012500344 0.6815021011806581
vn -0.16667360524436423 0.3281473103251142 0.9298060292562309
vn 0.15339959541642934 0.32581839026456616 -0.9329045721248678
vn 0.11280410315864864 -0.7187829201267739 -0.6860221192094326
vn -0.20679000078378376 -0.7215476027348386 0.6607624025044482
vn -0.2821334912372795 0.3281472898081473 0.9015098720002083
vn 0.057448682124211246 0.3258184120473979 -0.9436853348935245
vn 0.04224554984079295 -0.7187828972911866 -0.6939498973847726
vn -0.28814139156342045 -0.7215475788735887 0.6295582815669714
vn -0.3931252030654764 0.3281473025587975 0.8589365066977379
vn 0.0637282780485376 0.3062484906221785 -0.9498160709151039
vn 0.04816984805486611 -0.694445771957769 -0.7179308710094234
vn -0.44856997718407854 -0.7840583601199035 0.42899587817968926
vn -0.6660607945684174 0.3880706968353669 0.6369961948054329
vn 0.02281419915249769 0.33567158753046544 -0.9417027650176075
vn 0.016545049787341247 -0.7302956906132787 -0.6829307912220747
vn -0.9119120543360255 0.4043693797512129 0.07001292649410437
vn -0.6002388067380593 -0.7984921089635778 0.04608391051732097
vn -0.1648248957106415 0.3356715912645733 -0.9274466758643785
vn -0.11953239572139236 -0.7302956738593992 -0.6725921759248695
vn -0.8696638247150461 0.33567160953947844 -0.3619522102863489
vn -0.6306875753032557 -0.7302956714027575 -0.26249078972126905
vn -0.3458860155614381 0.3356716151018915 -0.876177739419303
vn -0.250839495167453 -0.7302956859304922 -0.6354114877584832
vn -0.7803645698107349 0.335671587014174 -0.5275942795894326
vn -0.5659269700906756 -0.7302956614037659 -0.382615879778694
vn -0.5131434902495527 0.3356715936217681 -0.7899419849899925
vn -0.3721359948337756 -0.7302956898615788 -0.5728725920470247
vn -0.6599221901472299 0.335671594988356 -0.6721809899642035
vn -0.47858118976898234 -0.7302956843878777 -0.4874712895789315
vn -0.9043856127513805 -0.3352622047270278 -0.26398090372199745
vn -0.8802738693409156 -0.31622778898609305 -0.3537200876802727
vn -0.656247420212877 0.7298268224791736 -0.19155190589993187
vn -0.6561173932040147 0.7071067926758727 -0.26364739726917186
vn -0.8540491770670676 -0.32754009120489197 -0.40412558914841784
vn -0.62651230863708 0.7208294099373327 -0.29645790408695977
vn -0.9365151557288437 -0.32479261932730824 -0.13209510786053227
vn -0.6896734789833687 0.7175565781336783 -0.09727820703561137
vn -0.7996433902797709 -0.32754009601851924 -0.503277193882311
vn -0.5866013803991347 0.7208293759140021 -0.3691934876636637
vn -0.9446711764043135 -0.32479259188743725 -0.045892708853706984
vn -0.6956797771123326 0.7175565763925922 -0.0337965588881028
vn -0.7337801067137725 -0.3275401029968511 -0.595217805445987
vn -0.5382854980989317 0.7208293974542396 -0.4366390984579173
vn -0.9351647574450247 -0.3385419845945373 0.10419309525865944
vn -0.6754451109905389 0.7335601119361601 0.07525599122453162
vn -0.6574030901726062 -0.3275400951036654 -0.6786299898552892
vn -0.48225691038920765 0.720829415528749 -0.49782851072466494
vn -0.8904297070757595 -0.33696940267771214 0.30591920243097315
vn -0.6445646048868892 0.7317765055481028 0.22144890167895695
vn -0.41931848289775847 0.7208293706003944 -0.5518849774909274
vn -0.5716066291012001 -0.3275401166754722 -0.7523186383014719
vn -0.8349522946216507 -0.32581839790123923 0.4435053971431578
vn -0.6139917999650362 0.7187828999590687 0.32613679998142814
vn -0.3503720020617991 0.7208294042417926 -0.5980338035191896
vn -0.47762009857420135 -0.3275400990222224 -0.8152278975663696
vn -0.7853630229265534 -0.32581840951138885 0.5263528153654494
vn -0.5775257215286982 0.7187829267944095 0.3870596144286034
vn -0.27640529021961324 0.7208293744940117 -0.6356139775092925
vn -0.3767901877496073 -0.3275400893508513 -0.8664563718293333
vn -0.7275823906736744 -0.32581839582358163 0.6037103922614953
vn -0.5350360276052996 0.7187829370857611 0.4439454229054602
vn -0.19847810090946835 0.7208294033029917 -0.6640869030429858
vn -0.2705615004945499 -0.3275401005986991 -0.9052701016547116
vn -0.6622130018372272 -0.32581840090394243 0.6747713018720686
vn -0.48696592945757794 0.7187829434806693 0.49620083001621623
vn -0.11770719581937654 0.7208293743981992 -0.6830446757402037
vn -0.16045610724606718 -0.32754011479144496 -0.9311129420483025
vn -0.589936777734226 -0.32581838770275245 0.7387942721159506
vn -0.43381679791779654 0.7187828965500362 0.5432808973923984
vn -0.035249719937470544 0.7208293987213212 -0.6922155987720793
vn -0.04805172004237852 -0.3275401002888693 -0.9436146008322074
vn -0.5115074239160723 -0.32581841523398575 0.7951116371762885
vn -0.37614290058620553 0.7187829011201979 0.5846945009112259
vn 0.04771282794239557 0.7208293689144039 -0.69146837018059
vn 0.0650411831577296 -0.3275401159019727 -0.9425959457627456
vn -0.4277431138492571 -0.32581841054918903 0.8431359272986424
vn -0.31454580853612224 0.7187829195062808 0.6200097168257805
vn 0.04231904930421129 0.6916656886279777 -0.7209768881460576
vn 0.05582063908344717 -0.304112195006598 -0.9509993843849661
vn -0.3395174030459787 -0.3258184029230782 0.882366307916145
vn -0.24966800858063398 0.7187829247032578 0.6488582223000734
vn 0.03560246899873272 0.7215475797075314 -0.6914488805540132
vn 0.04857414820277787 -0.3281472878586945 -0.9433768650954706
vn -0.24775049735529192 -0.32581839652192607 0.9123935902603032
vn -0.18218620503638647 0.7187829198701574 0.6709391185475553
vn 0.12216360021164051 0.7215476012500344 -0.6815021011806581
vn 0.16667360524436423 -0.3281473103251142 -0.9298060292562309
vn -0.15339959541642934 -0.32581839026456616 0.9329045721248678
vn -0.11280410315864864 0.7187829201267739 0.6860221192094326
vn 0.20679000078378376 0.7215476027348386 -0.6607624025044482
vn 0.2821334912372795 -0.3281472898081473 -0.9015098720002083
vn -0.057448682124211246 -0.3258184120473979 0.9436853348935245
vn -0.04224554984079295 0.7187828972911866 0.6939498973847726
vn 0.28814139156342045 0.7215475788735887 -0.6295582815669714
vn 0.3931252030654764 -0.3281473025587975 -0.8589365066977379
vn -0.0637282780485376 -0.3062484906221785 0.9498160709151039
vn -0.04816984805486611 0.694445771957769 0.7179308710094234
vn 0.44856997718407854 0.7840583601199035 -0.42899587817968926
vn 0.6660607945684174 -0.3880706968353669 -0.6369961948054329
vn -0.02281419915249769 -0.33567158753046544 0.9417027650176075
vn -0.016545049787341247 0.7302956906132787 0.6829307912220747
vn 0.9119120543360255 -0.4043693797512129 -0.07001292649410437
vn 0.6002388067380593 0.7984921089635778 -0.04608391051732097
vn 0.1648248957106415 -0.3356715912645733 0.9274466758643785
vn 0.11953239572139236 0.7302956738593992 0.6725921759248695
vn 0.8696638247150461 -0.33567160953947844 0.3619522102863489
vn 0.6306875753032557 0.7302956714027575 0.26249078972126905
vn 0.3458860155614381 -0.3356716151018915 0.876177739419303
vn 0.250839495167453 0.7302956859304922 0.6354114877584832
vn 0.7803645698107349 -0.335671587014174 0.5275942795894326
vn 0.5659269700906756 0.7302956614037659 0.382615879778694
vn 0.5131434902495527 -0.3356715936217681 0.7899419849899925
vn 0.3721359948337756 0.7302956898615788 0.5728725920470247
vn 0.6599221901472299 -0.335671594988356 0.6721809899642035
vn 0.47858118976898234 0.7302956843878777 0.4874712895789315
usemtl material_0_0
f 1//1 2//2 3//3
f 2//2 1//1 4//4
f 9//5 3//3 10//6
f 3//3 9//5 1//1
f 4//4 13//7 2//2
f 13//7 4//4 14//8
f 17//9 10//6 18//10
f 10//6 17//9 9//5
f 14//8 21//11 13//7
f 21//11 14//8 22//12
f 25//13 18//10 26//14
f 18//10 25//13 17//9
f 22//12 29//15 21//11
f 29//15 22//12 30//16
f 33//17 26//14 34//18
f 26//14 33//17 25//13
f 30//16 37//19 29//15
f 37//19 30//16 38//20
f 33//17 41//21 42//22
f 41//21 33//17 34//18
f 38//20 45//23 37//19
f 45//23 38//20 46//24
f 42//22 49//25 50//26
f 49//25 42//22 41//21
f 46//24 53//27 45//23
f 53//27 46//24 54//28
f 50//26 57//29 58//30
f 57//29 50//26 49//25
f 54//28 61//31 53//27
f 61//31 54//28 62//32
f 58//30 65//33 66//34
f 65//33 58//30 57//29
f 62//32 69//35 61//31
f 69//35 62//32 70//36
f 66//34 73//37 74//38
f 73//37 66//34 65//33
f 69//35 77//39 78//40
f 77//39 69//35 70//36
f 74//38 81//41 82//42
f 81//41 74//38 73//37
f 78//40 85//43 86//44
f 85//43 78//40 77//39
f 82//42 89//45 90//46
f 89//45 82//42 81//41
f 86//44 93//47 94//48
f 93//47 86//44 85//43
f 90//46 97//49 98//50
f 97//49 90//46 89//45
f 94//48 101//51 102//52
f 101//51 94//48 93//47
f 98//50 105//53 106//54
f 105//53 98//50 97//49
f 102//52 109//55 110//56
f 109//55 102//52 101//51
f 106//54 113//57 114//58
f 113//57 106//54 105//53
f 110//56 117//59 118//60
f 117//59 110//56 109//55
f 114//58 121//61 122//62
f 121//61 114//58 113//57
f 118//60 125//63 126//64
f 125//63 118//60 117//59
f 122//62 129//65 130//66
f 129//65 122//62 121//61
f 126//64 133//67 134//68
f 133//67 126//64 125//63
f 130//66 137//69 138//70
f 137//69 130//66 129//65
f 134//68 141//71 142//72
f 141//71 134//68 133//67
f 145//73 137//69 146//74
f 137//69 145//73 138//70
f 142//72 149//75 150//76
f 149//75 142//72 141//71
f 153//77 146//74 154//78
f 146//74 153//77 145//73
f 150//76 157//79 158//80
f 157//79 150//76 149//75
f 161//81 154//78 162//82
f 154//78 161//81 153//77
f 158//80 165//83 166//84
f 165//83 158//80 157//79
f 169//85 162//82 170//86
f 162//82 169//85 161//81
f 166//84 169//85 170//86
f 169//85 166//84 165//83
usemtl material_1_0
f 5/1/87 6/2/88 7/3/89
f 8/4/90 7/3/89 6/2/88
f 6/2/88 11/5/91 8/4/90
f 12/6/92 8/4/90 11/5/91
f 15/7/93 5/8/87 16/9/94
f 7/10/89 16/9/94 5/8/87
f 11/5/91 19/11/95 12/12/92
f 20/13/96 12/12/92 19/11/95
f 23/14/97 15/7/93 24/15/98
f 16/16/94 24/15/98 15/7/93
f 19/11/95 27/17/99 20/18/96
f 28/19/100 20/18/96 27/17/99
f 31/20/101 23/14/97 32/21/102
f 24/22/98 32/21/102 23/14/97
f 27/17/99 35/23/103 28/24/100
f 36/25/104 28/24/100 35/23/103
f 39/26/105 31/27/101 40/28/106
f 32/29/102 40/28/106 31/27/101
f 36/30/104 35/23/103 43/31/107
f 44/32/108 43/31/107 35/23/103
f 47/33/109 39/34/105 48/35/110
f 40/36/106 48/35/110 39/34/105
f 43/31/107 44/32/108 51/37/111
f 52/38/112 51/37/111 44/32/108
f 55/39/113 47/33/109 56/40/114
f 48/41/110 56/40/114 47/33/109
f 51/37/111 52/38/112 59/42/115
f 60/43/116 59/42/115 52/38/112
f 63/44/117 55/39/113 64/45/118
f 56/46/114 64/45/118 55/39/113
f 59/47/115 60/43/116 67/48/119
f 68/49/120 67/48/119 60/43/116
f 71/50/121 63/44/117 72/51/122
f 64/52/118 72/51/122 63/44/117
f 67/53/119 68/49/120 75/54/123
f 76/55/124 75/54/123 68/49/120
f 71/50/121 72/56/122 79/57/125
f 80/58/126 79/57/125 72/56/122
f 75/59/123 76/55/124 83/60/127
f 84/61/128 83/60/127 76/55/124
f 79/57/125 80/62/126 87/63/129
f 88/64/130 87/63/129 80/62/126
f 83/65/127 84/61/128 91/66/131
f 92/67/132 91/66/131 84/61/128
f 87/63/129 88/68/130 95/69/133
f 96/70/134 95/69/133 88/68/130
f 91/66/131 92/67/132 99/71/135
f 100/72/136 99/71/135 92/67/132
f 95/69/133 96/73/134 103/74/137
f 104/75/138 103/74/137 96/73/134
f 99/76/135 100/77/136 107/78/139
f 108/79/140 107/78/139 100/77/136
f 103/74/137 104/75/138 111/80/141
f 112/81/142 111/80/141 104/75/138
f 107/82/139 108/79/140 115/83/143
f 116/84/144 115/83/143 108/79/140
f 111/80/141 112/81/142 119/85/145
f 120/86/146 119/85/145 112/81/142
f 115/87/143 116/84/144 123/88/147
f 124/89/148 123/88/147 116/84/144
f 119/85/145 120/90/146 127/91/149
f 128/92/150 127/91/149 120/90/146
f 123/93/147 124/89/148 131/94/151
f 132/95/152 131/94/151 124/89/148
f 127/91/149 128/96/150 135/97/153
f 136/21/154 135/97/153 128/96/150
f 131/98/151 132/95/152 139/99/155
f 140/100/156 139/99/155 132/95/152
f 135/101/153 136/102/154 143/103/157
f 144/104/158 143/103/157 136/102/154
f 140/105/156 147/106/159 139/107/155
f 148/108/160 139/107/155 147/106/159
f 143/103/157 144/109/158 151/110/161
f 152/111/162 151/110/161 144/109/158
f 147/112/159 155/113/163 148/114/160
f 156/115/164 148/114/160 155/113/163
f 151/110/161 152/116/162 159/117/165
f 160/118/166 159/117/165 152/116/162
f 155/113/163 163/119/167 156/120/164
f 164/121/168 156/120/164 163/119/167
f 159/117/165 160/122/166 167/123/169
f 168/124/170 167/123/169 160/122/166
f 163/119/167 171/125/171 164/126/168
f 172/127/172 164/126/168 171/125/171
f 167/123/169 168/128/170 171/125/171
f 172/129/172 171/125/171 168/128/170
