# SSTK version 0.8.0
# 53
mtllib original-53.mtl
o Component_1_51/Component_1/mesh6/mesh6-geometry#mesh6-geometry
v -0.363717 -0.174842 0.355163
v -0.410180 -0.183707 0.361049
v -0.358266 -0.183707 0.361049
v -0.404729 -0.174842 0.355163
v -0.358266 -0.183707 0.304996
v -0.404729 -0.174842 0.310882
v -0.410180 -0.183707 0.304996
v -0.363717 -0.174842 0.310882
vn 0 0.5530775158651939 0.8331297986774846
vn 0 -0.5530775158651939 -0.8331297986774846
vn 0 -1 0
vn 0 1 0
vn 0.8518641726180457 0.5237627625268646 0
vn -0.8518641726180457 -0.5237627625268646 0
vn -0.8518641726180457 0.5237627625268646 0
vn 0.8518641726180457 -0.5237627625268646 0
vn 0 0.5530775158651943 -0.8331297986774844
vn 0 -0.5530775158651943 0.8331297986774844
usemtl material_0_0
f 1//1 2//1 3//1
f 2//1 1//1 4//1
f 3//2 2//2 1//2
f 4//2 1//2 2//2
f 2//3 5//3 3//3
f 3//4 5//4 2//4
f 5//5 1//5 3//5
f 3//6 1//6 5//6
f 1//4 6//4 4//4
f 4//3 6//3 1//3
f 4//7 7//7 2//7
f 2//8 7//8 4//8
f 5//3 2//3 7//3
f 7//4 2//4 5//4
f 1//5 5//5 8//5
f 8//6 5//6 1//6
f 6//4 1//4 8//4
f 8//3 1//3 6//3
f 7//7 4//7 6//7
f 6//8 4//8 7//8
f 6//9 5//9 7//9
f 7//10 5//10 6//10
f 5//9 6//9 8//9
f 8//10 6//10 5//10
