# SSTK version 0.8.0
# 8
mtllib original-8.mtl
o mesh6/mesh6-geometry#mesh6-geometry
v -0.021125 -0.618298 -0.284325
v 0.000281 -0.620406 -0.020325
v -0.021125 -0.618298 -0.020325
v 0.000281 -0.620406 -0.284325
v 0.000281 -0.619804 -0.019726
v -0.041708 -0.612054 -0.284325
v 0.021687 -0.618298 -0.284325
v 0.021687 -0.618298 -0.020325
v -0.021007 -0.617708 -0.019726
v -0.041708 -0.612054 -0.020325
v 0.021569 -0.617708 -0.019726
v -0.060677 -0.601915 -0.284325
v 0.042270 -0.612054 -0.284325
v 0.042270 -0.612054 -0.020325
v 0.042039 -0.611498 -0.019726
v -0.041478 -0.611498 -0.019726
v -0.060677 -0.601915 -0.020325
v -0.077304 -0.588269 -0.284325
v 0.061239 -0.601915 -0.284325
v 0.061239 -0.601915 -0.020325
v 0.060905 -0.601414 -0.019726
v -0.060343 -0.601414 -0.019726
v -0.077304 -0.588269 -0.020325
v 0.077866 -0.588269 -0.284325
v -0.090950 -0.571642 -0.284325
v 0.077866 -0.588269 -0.020325
v 0.077441 -0.587844 -0.019726
v -0.076879 -0.587844 -0.019726
v -0.090950 -0.571642 -0.020325
v 0.091512 -0.571642 -0.284325
v 0.091512 -0.571642 -0.020325
v -0.101089 -0.552673 -0.284325
v 0.101651 -0.552673 -0.284325
v 0.091011 -0.571308 -0.019726
v -0.090449 -0.571308 -0.019726
v -0.101089 -0.552673 -0.020325
v 0.101651 -0.552673 -0.020325
v -0.107333 -0.532090 -0.284325
v 0.107895 -0.532090 -0.020325
v 0.101095 -0.552443 -0.019726
v -0.100533 -0.552443 -0.019726
v -0.107333 -0.532090 -0.020325
v 0.107895 -0.532090 -0.284325
v -0.109441 -0.510684 -0.284325
v 0.110003 -0.510684 -0.020325
v 0.107305 -0.531972 -0.019726
v -0.106743 -0.531972 -0.019726
v -0.109441 -0.510684 -0.020325
v 0.110003 -0.510684 -0.284325
v -0.107333 -0.489278 -0.020325
v -0.107333 -0.489278 -0.284325
v 0.107895 -0.489278 -0.020325
v 0.109401 -0.510684 -0.019726
v -0.108839 -0.510684 -0.019726
v -0.106743 -0.489396 -0.019726
v 0.107895 -0.489278 -0.284325
v -0.101089 -0.468695 -0.284325
v -0.100533 -0.468925 -0.019726
v 0.101651 -0.468695 -0.020325
v 0.107305 -0.489396 -0.019726
v -0.101089 -0.468695 -0.020325
v 0.101651 -0.468695 -0.284325
v 0.101095 -0.468925 -0.019726
v -0.090950 -0.449725 -0.020325
v -0.090449 -0.450060 -0.019726
v -0.090950 -0.449725 -0.284325
v 0.091512 -0.449725 -0.020325
v 0.091011 -0.450060 -0.019726
v 0.091512 -0.449725 -0.284325
v -0.077304 -0.433099 -0.284325
v -0.076879 -0.433524 -0.019726
v 0.077866 -0.433099 -0.284325
v 0.077441 -0.433524 -0.019726
v -0.077304 -0.433099 -0.020325
v 0.077866 -0.433099 -0.020325
v -0.060677 -0.419453 -0.020325
v -0.060343 -0.419954 -0.019726
v -0.060677 -0.419453 -0.284325
v 0.061239 -0.419453 -0.284325
v 0.060905 -0.419954 -0.019726
v 0.061239 -0.419453 -0.020325
v -0.041708 -0.409314 -0.020325
v -0.041478 -0.409870 -0.019726
v 0.042040 -0.409870 -0.019726
v 0.042270 -0.409314 -0.284325
v -0.041708 -0.409314 -0.284325
v 0.042270 -0.409314 -0.020325
v -0.021125 -0.403070 -0.020325
v -0.021007 -0.403660 -0.019726
v -0.021125 -0.403070 -0.284325
v 0.021687 -0.403070 -0.284325
v 0.021569 -0.403660 -0.019726
v 0.021687 -0.403070 -0.020325
v 0.000281 -0.400962 -0.020325
v 0.000281 -0.401563 -0.019726
v 0.000281 -0.400962 -0.284325
vn -0.19509006590875128 -0.9807853313461202 0
vn 0 -1 0
vn 0 -0.7053796778884439 0.7088296763130021
vn -0.13761396159098538 -0.6918328069046479 0.7088228021626215
vn -0.38268289803626016 -0.9238797538373538 0
vn 0 0 -1
vn 0.19509006590875128 -0.9807853313461202 0
vn 0.1376140567968421 -0.691832285536885 0.7088232925495079
vn 0 0 1
vn -0.2699430964211268 -0.6517012327815309 0.7088132531814054
vn -0.5555710461118432 -0.8314690690111041 0
vn 0.382682044482198 -0.9238801073899822 0
vn 0.26993988609511 -0.6516977250070795 0.7088177009045106
vn -0.3918980956223633 -0.5865161431087835 0.7088121729487736
vn -0.7071067811865475 -0.7071067811865475 0
vn 0.5555680482052526 -0.8314710721446693 0
vn 0.39189100183287423 -0.5865090027431028 0.7088220033151603
vn -0.4987879857044871 -0.4987889857044586 0.7088159796849798
vn -0.8314690690111041 -0.5555710461118432 0
vn 0.7071062811861719 -0.7071072811865696 0
vn 0.49877801171504876 -0.4987790117150724 0.7088300166486451
vn 0.8314698396094834 -0.555569892830578 0
vn -0.586509144657513 -0.39189409665735997 0.7088201748244927
vn -0.9238792538372458 -0.3826841051430464 0
vn 0.5864960333900998 -0.3918850223106029 0.7088360403551001
vn 0.9238797538373538 -0.38268289803626016 0
vn -0.6516948993437754 -0.2699409583068126 0.7088198905206498
vn -0.9807851400041463 -0.19509102784866092 0
vn 0.9807853313461202 -0.19509006590875128 0
vn 0.6516801102473403 -0.2699340456658263 0.7088361199166519
vn 0.691823891472211 -0.13761197841253558 0.7088318888041327
vn -0.6918431291387588 -0.13761702568745895 0.7088121323061762
vn -1 -9.999999999995e-7 0
vn 1 0 0
vn 0.7053907045676217 0 0.7088187031319042
vn -0.7053982214506362 -0.0000010000003140945357 0.7088112225221037
vn -0.9807853313461202 0.19509006590875128 0
vn 0.9807855226872256 0.19508910396827864 0
vn -0.6918348304098569 0.1376139662665548 0.7088208262460634
vn 0.6918418174281573 0.13761496368444784 0.7088138129493756
vn -0.9238797538373538 0.38268289803626016 0
vn -0.6516940380338426 0.26994001575410453 0.7088210413678605
vn 0.9238797538373538 0.38268289803626016 0
vn 0.6516870191250592 0.26993600792181194 0.7088290208020056
vn -0.8314698396094834 0.555569892830578 0
vn -0.5865159572330174 0.39189697142404933 0.7088129483154881
vn 0.8314690690111041 0.5555710461118432 0
vn 0.5865089148078267 0.3918949430760878 0.708819897041791
vn -0.7071072811865696 0.7071062811861719 0
vn -0.4987818284557409 0.4987798284564286 0.7088267562157367
vn 0.70710578118615 0.707107781185531 0
vn 0.49879710354480267 0.49879810354501014 0.7088031471397519
vn -0.555569892830578 0.8314698396094834 0
vn -0.3918860605032936 0.5865000905497559 0.708832109436598
vn 0.5555703547703968 0.8314695309512521 0
vn 0.39190209453679015 0.586523141484355 0.7088041709816614
vn -0.38268289803626016 0.9238797538373538 0
vn -0.2699450277604732 0.6517060670198259 0.708808072892054
vn 0.3826841051430464 0.9238792538372458 0
vn 0.2699488749830606 0.6517146981821949 0.7087986717458424
vn -0.19509102784866092 0.9807851400041463 0
vn -0.13761900648336917 0.6918510325937945 0.7088040333924678
vn 0.19509006590875128 0.9807853313461202 0
vn 0.13761792554459387 0.6918496256886981 0.7088056165150013
vn 0 1 0
vn 0 0.7053932093942415 0.7088162104103514
vn 0 0.7053796778884439 -0.7088296763130021
vn 0.13761396159098538 0.6918328069046479 -0.7088228021626215
vn 0.38268289803626016 0.9238797538373538 0
vn -0.19509006590875128 0.9807853313461202 0
vn -0.1376140567968421 0.691832285536885 -0.7088232925495079
vn 0.2699430964211268 0.6517012327815309 -0.7088132531814054
vn 0.5555710461118432 0.8314690690111041 0
vn -0.382682044482198 0.9238801073899822 0
vn -0.26993988609511 0.6516977250070795 -0.7088177009045106
vn 0.3918980956223633 0.5865161431087835 -0.7088121729487736
vn 0.7071067811865475 0.7071067811865475 0
vn -0.5555680482052526 0.8314710721446693 0
vn -0.39189100183287423 0.5865090027431028 -0.7088220033151603
vn 0.4987879857044871 0.4987889857044586 -0.7088159796849798
vn -0.7071062811861719 0.7071072811865696 0
vn -0.49877801171504876 0.4987790117150724 -0.7088300166486451
vn 0.586509144657513 0.39189409665735997 -0.7088201748244927
vn 0.9238792538372458 0.3826841051430464 0
vn -0.5864960333900998 0.3918850223106029 -0.7088360403551001
vn 0.6516948993437754 0.2699409583068126 -0.7088198905206498
vn 0.9807851400041463 0.19509102784866092 0
vn -0.6516801102473403 0.2699340456658263 -0.7088361199166519
vn -0.691823891472211 0.13761197841253558 -0.7088318888041327
vn 0.6918431291387588 0.13761702568745895 -0.7088121323061762
vn 1 9.999999999995e-7 0
vn -1 0 0
vn -0.7053907045676217 0 -0.7088187031319042
vn 0.7053982214506362 0.0000010000003140945357 -0.7088112225221037
vn -0.9807855226872256 -0.19508910396827864 0
vn 0.6918348304098569 -0.1376139662665548 -0.7088208262460634
vn -0.6918418174281573 -0.13761496368444784 -0.7088138129493756
vn 0.6516940380338426 -0.26994001575410453 -0.7088210413678605
vn -0.9238797538373538 -0.38268289803626016 0
vn -0.6516870191250592 -0.26993600792181194 -0.7088290208020056
vn 0.5865159572330174 -0.39189697142404933 -0.7088129483154881
vn -0.5865089148078267 -0.3918949430760878 -0.708819897041791
vn 0.7071072811865696 -0.7071062811861719 0
vn 0.4987818284557409 -0.4987798284564286 -0.7088267562157367
vn -0.70710578118615 -0.707107781185531 0
vn -0.49879710354480267 -0.49879810354501014 -0.7088031471397519
vn 0.555569892830578 -0.8314698396094834 0
vn 0.3918860605032936 -0.5865000905497559 -0.708832109436598
vn -0.5555703547703968 -0.8314695309512521 0
vn -0.39190209453679015 -0.586523141484355 -0.7088041709816614
vn 0.38268289803626016 -0.9238797538373538 0
vn 0.2699450277604732 -0.6517060670198259 -0.708808072892054
vn -0.3826841051430464 -0.9238792538372458 0
vn -0.2699488749830606 -0.6517146981821949 -0.7087986717458424
vn 0.19509102784866092 -0.9807851400041463 0
vn 0.13761900648336917 -0.6918510325937945 -0.7088040333924678
vn -0.13761792554459387 -0.6918496256886981 -0.7088056165150013
vn 0 -0.7053932093942415 -0.7088162104103514
usemtl material_0_0
f 1//1 2//2 3//1
f 2//2 1//1 4//2
f 5//3 3//4 2//3
f 3//1 6//5 1//1
f 1//6 7//6 4//6
f 4//2 8//7 2//2
f 3//4 5//3 9//4
f 8//8 5//3 2//3
f 6//5 3//1 10//5
f 7//6 1//6 6//6
f 8//7 4//2 7//7
f 11//9 9//9 5//9
f 9//4 10//10 3//4
f 5//3 8//8 11//8
f 10//5 12//11 6//5
f 7//6 6//6 13//6
f 7//7 14//12 8//7
f 9//9 11//9 15//9
f 10//10 9//4 16//10
f 14//13 11//8 8//8
f 12//11 10//5 17//11
f 13//6 6//6 12//6
f 14//12 7//7 13//12
f 11//8 14//13 15//13
f 9//9 15//9 16//9
f 16//10 17//14 10//10
f 17//11 18//15 12//11
f 13//6 12//6 19//6
f 13//12 20//16 14//12
f 20//17 15//13 14//13
f 16//9 15//9 21//9
f 17//14 16//10 22//14
f 18//15 17//11 23//15
f 24//6 12//6 18//6
f 19//6 12//6 24//6
f 20//16 13//12 19//16
f 15//13 20//17 21//17
f 16//9 21//9 22//9
f 22//14 23//18 17//14
f 23//15 25//19 18//15
f 24//6 18//6 25//6
f 26//20 19//16 24//20
f 19//16 26//20 20//16
f 26//21 21//17 20//17
f 22//9 21//9 27//9
f 23//18 22//14 28//18
f 25//19 23//15 29//19
f 24//6 25//6 30//6
f 24//20 31//22 26//20
f 21//17 26//21 27//21
f 22//9 27//9 28//9
f 28//18 29//23 23//18
f 29//19 32//24 25//19
f 30//6 25//6 33//6
f 31//22 24//20 30//22
f 31//25 27//21 26//21
f 28//9 27//9 34//9
f 29//23 28//18 35//23
f 32//24 29//19 36//24
f 33//6 25//6 32//6
f 37//26 30//22 33//26
f 30//22 37//26 31//22
f 27//21 31//25 34//25
f 28//9 34//9 35//9
f 35//23 36//27 29//23
f 36//24 38//28 32//24
f 33//6 32//6 38//6
f 33//26 39//29 37//26
f 37//30 34//25 31//25
f 35//9 34//9 40//9
f 36//27 35//23 41//27
f 38//28 36//24 42//28
f 33//6 38//6 43//6
f 39//29 33//26 43//29
f 39//31 40//30 37//30
f 34//25 37//30 40//30
f 35//9 40//9 41//9
f 41//27 42//32 36//27
f 42//28 44//33 38//28
f 43//6 38//6 44//6
f 43//29 45//34 39//29
f 40//30 39//31 46//31
f 41//9 40//9 46//9
f 42//32 41//27 47//32
f 44//33 42//28 48//33
f 43//6 44//6 49//6
f 45//34 43//29 49//34
f 45//35 46//31 39//31
f 41//9 46//9 47//9
f 47//32 48//36 42//32
f 50//37 44//33 48//33
f 49//6 44//6 51//6
f 49//34 52//38 45//34
f 46//31 45//35 53//35
f 47//9 46//9 54//9
f 48//36 47//32 54//36
f 44//33 50//37 51//37
f 48//36 55//39 50//39
f 49//6 51//6 56//6
f 52//38 49//34 56//38
f 52//40 53//35 45//35
f 54//9 46//9 53//9
f 55//39 48//36 54//36
f 50//37 57//41 51//37
f 58//42 50//39 55//39
f 56//6 51//6 57//6
f 56//38 59//43 52//38
f 53//35 52//40 60//40
f 54//9 53//9 55//9
f 57//41 50//37 61//41
f 50//39 58//42 61//42
f 55//9 60//9 58//9
f 56//6 57//6 62//6
f 59//43 56//38 62//43
f 63//44 52//40 59//44
f 52//40 63//44 60//40
f 55//9 53//9 60//9
f 64//45 57//41 61//41
f 65//46 61//42 58//42
f 58//9 60//9 63//9
f 62//6 57//6 66//6
f 62//43 67//47 59//43
f 59//44 68//48 63//44
f 57//41 64//45 66//45
f 61//42 65//46 64//46
f 58//9 63//9 65//9
f 62//6 66//6 69//6
f 67//47 62//43 69//47
f 68//48 59//44 67//48
f 65//9 63//9 68//9
f 64//45 70//49 66//45
f 71//50 64//46 65//46
f 69//6 66//6 70//6
f 72//51 67//47 69//47
f 67//48 73//52 68//48
f 65//9 68//9 73//9
f 70//49 64//45 74//49
f 64//46 71//50 74//50
f 65//9 73//9 71//9
f 69//6 70//6 72//6
f 67//47 72//51 75//51
f 73//52 67//48 75//52
f 76//53 70//49 74//49
f 77//54 74//50 71//50
f 71//9 73//9 77//9
f 72//6 70//6 78//6
f 79//55 75//51 72//51
f 75//52 80//56 73//52
f 70//49 76//53 78//53
f 74//50 77//54 76//54
f 77//9 73//9 80//9
f 72//6 78//6 79//6
f 75//51 79//55 81//55
f 80//56 75//52 81//56
f 82//57 78//53 76//53
f 83//58 76//54 77//54
f 77//9 80//9 84//9
f 79//6 78//6 85//6
f 85//59 81//55 79//55
f 81//56 84//60 80//56
f 78//53 82//57 86//57
f 76//54 83//58 82//58
f 77//9 84//9 83//9
f 85//6 78//6 86//6
f 81//55 85//59 87//59
f 84//60 81//56 87//60
f 88//61 86//57 82//57
f 89//62 82//58 83//58
f 83//9 84//9 89//9
f 85//6 86//6 90//6
f 91//63 87//59 85//59
f 87//60 92//64 84//60
f 86//57 88//61 90//61
f 82//58 89//62 88//62
f 89//9 84//9 92//9
f 85//6 90//6 91//6
f 87//59 91//63 93//63
f 92//64 87//60 93//64
f 94//65 90//61 88//61
f 95//66 88//62 89//62
f 89//9 92//9 95//9
f 91//6 90//6 96//6
f 96//65 93//63 91//63
f 93//64 95//66 92//64
f 90//61 94//65 96//65
f 88//62 95//66 94//66
f 93//63 96//65 94//65
f 95//66 93//64 94//66
usemtl material_1_0
f 3//63 2//65 1//63
f 4//65 1//63 2//65
f 2//67 3//68 5//67
f 1//63 6//69 3//63
f 4//9 7//9 1//9
f 2//65 8//70 4//65
f 9//68 5//67 3//68
f 2//67 5//67 8//71
f 10//69 3//63 6//69
f 6//9 1//9 7//9
f 7//70 4//65 8//70
f 5//6 9//6 11//6
f 3//68 10//72 9//68
f 11//71 8//71 5//67
f 6//69 12//73 10//69
f 13//9 6//9 7//9
f 8//70 14//74 7//70
f 15//6 11//6 9//6
f 16//72 9//68 10//72
f 8//71 11//71 14//75
f 17//73 10//69 12//73
f 12//9 6//9 13//9
f 13//74 7//70 14//74
f 15//75 14//75 11//71
f 16//6 15//6 9//6
f 10//72 17//76 16//72
f 12//73 18//77 17//73
f 19//9 12//9 13//9
f 14//74 20//78 13//74
f 14//75 15//75 20//79
f 21//6 15//6 16//6
f 22//76 16//72 17//76
f 23//77 17//73 18//77
f 18//9 12//9 24//9
f 24//9 12//9 19//9
f 19//78 13//74 20//78
f 21//79 20//79 15//75
f 22//6 21//6 16//6
f 17//76 23//80 22//76
f 18//77 25//47 23//77
f 25//9 18//9 24//9
f 24//81 19//78 26//81
f 20//78 26//81 19//78
f 20//79 21//79 26//82
f 27//6 21//6 22//6
f 28//80 22//76 23//80
f 29//47 23//77 25//47
f 30//9 25//9 24//9
f 26//81 31//45 24//81
f 27//82 26//82 21//79
f 28//6 27//6 22//6
f 23//80 29//83 28//80
f 25//47 32//84 29//47
f 33//9 25//9 30//9
f 30//45 24//81 31//45
f 26//82 27//82 31//85
f 34//6 27//6 28//6
f 35//83 28//80 29//83
f 36//84 29//47 32//84
f 32//9 25//9 33//9
f 33//41 30//45 37//41
f 31//45 37//41 30//45
f 34//85 31//85 27//82
f 35//6 34//6 28//6
f 29//83 36//86 35//83
f 32//84 38//87 36//84
f 38//9 32//9 33//9
f 37//41 39//37 33//41
f 31//85 34//85 37//88
f 40//6 34//6 35//6
f 41//86 35//83 36//86
f 42//87 36//84 38//87
f 43//9 38//9 33//9
f 43//37 33//41 39//37
f 37//88 40//88 39//89
f 40//88 37//88 34//85
f 41//6 40//6 35//6
f 36//86 42//90 41//86
f 38//87 44//91 42//87
f 44//9 38//9 43//9
f 39//37 45//92 43//37
f 46//89 39//89 40//88
f 46//6 40//6 41//6
f 47//90 41//86 42//90
f 48//91 42//87 44//91
f 49//9 44//9 43//9
f 49//92 43//37 45//92
f 39//89 46//89 45//93
f 47//6 46//6 41//6
f 42//90 48//94 47//90
f 48//91 44//91 50//29
f 51//9 44//9 49//9
f 45//92 52//95 49//92
f 53//93 45//93 46//89
f 54//6 46//6 47//6
f 54//94 47//90 48//94
f 51//29 50//29 44//91
f 50//96 55//96 48//94
f 56//9 51//9 49//9
f 56//95 49//92 52//95
f 45//93 53//93 52//97
f 53//6 46//6 54//6
f 54//94 48//94 55//96
f 51//29 57//26 50//29
f 55//96 50//96 58//98
f 57//9 51//9 56//9
f 52//95 59//99 56//95
f 60//97 52//97 53//93
f 55//6 53//6 54//6
f 61//26 50//29 57//26
f 61//98 58//98 50//96
f 58//6 60//6 55//6
f 62//9 57//9 56//9
f 62//99 56//95 59//99
f 59//100 52//97 63//100
f 60//97 63//100 52//97
f 60//6 53//6 55//6
f 61//26 57//26 64//22
f 58//98 61//98 65//101
f 63//6 60//6 58//6
f 66//9 57//9 62//9
f 59//99 67//19 62//99
f 63//100 68//102 59//100
f 66//22 64//22 57//26
f 64//101 65//101 61//98
f 65//6 63//6 58//6
f 69//9 66//9 62//9
f 69//19 62//99 67//19
f 67//102 59//100 68//102
f 68//6 63//6 65//6
f 66//22 70//103 64//22
f 65//101 64//101 71//104
f 70//9 66//9 69//9
f 69//19 67//19 72//105
f 68//102 73//106 67//102
f 73//6 68//6 65//6
f 74//103 64//22 70//103
f 74//104 71//104 64//101
f 71//6 73//6 65//6
f 72//9 70//9 69//9
f 75//105 72//105 67//19
f 75//106 67//102 73//106
f 74//103 70//103 76//107
f 71//104 74//104 77//108
f 77//6 73//6 71//6
f 78//9 70//9 72//9
f 72//105 75//105 79//109
f 73//106 80//110 75//106
f 78//107 76//107 70//103
f 76//108 77//108 74//104
f 80//6 73//6 77//6
f 79//9 78//9 72//9
f 81//109 79//109 75//105
f 81//110 75//106 80//110
f 76//107 78//107 82//111
f 77//108 76//108 83//112
f 84//6 80//6 77//6
f 85//9 78//9 79//9
f 79//109 81//109 85//113
f 80//110 84//114 81//110
f 86//111 82//111 78//107
f 82//112 83//112 76//108
f 83//6 84//6 77//6
f 86//9 78//9 85//9
f 87//113 85//113 81//109
f 87//114 81//110 84//114
f 82//111 86//111 88//115
f 83//112 82//112 89//116
f 89//6 84//6 83//6
f 90//9 86//9 85//9
f 85//113 87//113 91//1
f 84//114 92//117 87//114
f 90//115 88//115 86//111
f 88//116 89//116 82//112
f 92//6 84//6 89//6
f 91//9 90//9 85//9
f 93//1 91//1 87//113
f 93//117 87//114 92//117
f 88//115 90//115 94//2
f 89//116 88//116 95//118
f 95//6 92//6 89//6
f 96//9 90//9 91//9
f 91//1 93//1 96//2
f 92//117 95//118 93//117
f 96//2 94//2 90//115
f 94//118 95//118 88//116
f 94//2 96//2 93//1
f 94//118 93//117 95//118
