mtllib new-4.mtl
v -0.564895 -0.129685 -0.236380
v 0.548701 -0.166172 -0.236380
v 0.548701 -0.129685 -0.236380
v -0.564895 -0.154642 -0.296253
v 0.496517 -0.062413 -0.264420
v 0.548701 -0.154642 -0.296253
v -0.560468 0.650609 -0.561631
v 0.524192 0.650609 -0.561631
v -0.522432 -0.062413 -0.264420
v -0.560468 0.625652 -0.621504
v 0.476628 0.621098 -0.549329
v 0.494461 0.625652 -0.621504
v -0.513942 0.621098 -0.549329
vn 0.000000 0.000000 -1.000000
vn 0.000000 0.000000 1.000000
vn 0.000000 0.384745 0.923023
vn -0.999986 0.004834 -0.002015
vn 0.000000 -0.384745 -0.923023
vn 0.999580 0.026749 -0.011150
vn 0.907522 -0.106289 -0.406332
vn 0.000000 -0.923023 0.384745
vn 0.000000 0.923023 -0.384745
vn 0.999986 -0.004834 0.002015
vn -0.999580 -0.026749 0.011150
vn -0.907522 0.106289 0.406332
usemtl material-0
f 2//1 1//1 3//1
f 3//3 5//3 1//3
f 7//4 4//4 1//4
f 5//3 3//3 8//3
f 9//3 1//3 5//3
f 10//5 6//5 4//5
f 8//6 3//6 6//6
f 4//4 7//4 10//4
f 1//3 9//3 7//3
f 5//3 8//3 11//3
f 6//5 10//5 12//5
f 12//7 8//7 6//7
f 7//3 9//3 13//3
f 11//3 8//3 13//3
f 7//3 13//3 8//3
usemtl material-1
f 3//2 1//2 2//2
f 4//8 3//8 1//8
f 1//9 3//9 4//9
f 1//5 5//5 3//5
f 3//8 4//8 6//8
f 6//9 4//9 3//9
f 1//10 4//10 7//10
f 8//5 3//5 5//5
f 5//5 1//5 9//5
f 4//3 6//3 10//3
f 6//11 3//11 8//11
f 10//10 7//10 4//10
f 7//5 9//5 1//5
f 11//5 8//5 5//5
f 12//3 10//3 6//3
f 6//12 8//12 12//12
f 8//9 10//9 7//9
f 7//8 10//8 8//8
f 13//5 9//5 7//5
f 13//5 8//5 11//5
f 10//9 8//9 12//9
f 12//8 8//8 10//8
f 8//5 13//5 7//5