# SSTK version 0.8.0
# 37
mtllib original-37.mtl
o mesh36/mesh36-geometry#mesh36-geometry
v 0.436303 -0.078580 -0.268790
v 0.436379 -0.078580 -0.265872
v 0.436442 -0.078914 -0.265872
v 0.435460 -0.078580 -0.276009
v 0.436645 -0.079222 -0.265872
v 0.437021 -0.079489 -0.271394
v 0.433721 -0.078580 -0.282979
v 0.436953 -0.079425 -0.265872
v 0.430488 -0.079489 -0.292945
v 0.437287 -0.079489 -0.265872
v 0.431169 -0.078580 -0.289545
v 0.432925 -0.079489 -0.287801
v 0.427918 -0.078580 -0.295582
v 0.434840 -0.079489 -0.282441
v 0.419861 -0.078580 -0.305749
v 0.436207 -0.079489 -0.276944
v 0.420503 -0.079489 -0.306392
v 0.427569 -0.079489 -0.297799
v 0.409694 -0.078580 -0.313806
v 0.407057 -0.079489 -0.316377
v 0.411911 -0.079489 -0.313457
v 0.403657 -0.078580 -0.317058
v 0.397091 -0.078580 -0.319610
v 0.385506 -0.079489 -0.322909
v 0.391056 -0.079489 -0.322096
v 0.390120 -0.078580 -0.321349
v 0.396552 -0.079489 -0.320728
v 0.379984 -0.079222 -0.322533
v 0.401913 -0.079489 -0.318814
v 0.379984 -0.079425 -0.322841
v 0.382902 -0.078580 -0.322191
v 0.379984 -0.079489 -0.323175
v 0.379984 -0.078914 -0.322331
v 0.379984 -0.078580 -0.322267
vt 0.127842 1.027569
vt 0.127576 1.030069
vt 0.127293 1.030057
vt 6.697672 14.911797
vt 6.697707 14.919174
vt 6.760953 14.919174
vt 0.128601 1.021375
vt 5.818338 19.709805
vt 5.881485 19.718248
vt 6.038955 19.718248
vt 0.126962 1.030047
vt 6.224831 8.848996
vt 6.225161 8.856972
vt 6.445769 8.865635
vt 0.126868 1.025301
vt 6.829623 0.763822
vt 7.049542 0.790762
vt 6.949166 0.752661
vt 0.129489 1.015312
vt 4.604068 11.25986
vt 4.709261 11.281343
vt 4.864917 11.281343
vt 0.1266 1.030037
vt 6.890336 1.534474
vt 6.890371 1.542459
vt 7.009974 1.531957
vt 0.135121 1.006961
vt 4.064873 18.94371
vt 4.325827 18.963881
vt 4.552804 18.94371
vt 0.126238 1.030028
vt 6.484218 -6.246946
vt 6.603656 -6.254313
vt 6.483868 -6.254312
vt 0.130489 1.009426
vt 3.478888 8.03001
vt 3.631529 8.03001
vt 3.705539 8.006455
vt 0.132226 1.011324
vt 9.135658 7.526311
vt 9.188456 7.414851
vt 9.27719 7.059357
vt 0.131585 1.003755
vt 2.371217 2.716962
vt 2.294509 2.687483
vt 2.222653 2.716962
vt 0.129867 1.015881
vt 9.229936 7.298703
vt 0.133975 0.993239
vt 0.224651 11.139802
vt 0.304017 11.161113
vt 0.585097 11.161113
vt 0.128077 1.020563
vt 9.259571 7.179607
vt 0.146588 0.995629
vt 0.956007 3.776681
vt 0.958884 3.748991
vt 0.595995 3.748991
vt 0.138516 1.002855
vt 8.91931 7.817657
vt 9.0724 7.63148
vt 0.13675 0.983077
vt -2.132731 3.843859
vt -1.851651 3.843859
vt -2.134995 3.816112
vt 0.16166 0.987314
vt -2.137242 9.406177
vt -2.500131 9.406177
vt -2.216313 9.42856
vt 0.156249 0.989731
vt 8.627965 8.034004
vt 8.733133 7.970746
vt 0.138375 0.977828
vt -3.714958 3.050106
vt -3.786815 3.020627
vt -3.863523 3.050106
vt 0.140161 0.972508
vt -4.904803 8.374762
vt -5.131455 8.351207
vt -5.057444 8.374762
vt 0.185497 0.982139
vt -5.438714 18.783388
vt -5.926645 18.783388
vt -5.699667 18.803559
vt 0.179379 0.982718
vt 8.161011 8.175536
vt 8.281261 8.157918
vt 0.142101 0.967163
vt -6.044798 11.602603
vt -5.939605 11.581121
vt -6.200454 11.602603
vt 0.173306 0.983779
vt 8.400356 8.128282
vt 0.191568 0.982687
vt -7.944227 1.695837
vt -8.063769 1.684677
vt -8.164145 1.722778
vt 0.16737 0.985318
vt 8.516504 8.086803
vt 0.191571 0.982333
vt -7.997862 2.458292
vt -7.997827 2.450307
vt -8.117464 2.447791
vt 0.144185 0.96184
vt -7.103477 16.975533
vt -7.039821 16.961614
vt -7.260946 16.975533
vt 0.191576 0.982031
vt -7.637728 -5.218292
vt -7.637378 -5.22566
vt -7.757165 -5.22566
vt 0.191568 0.983073
vt -8.263061 9.83674
vt -8.263181 9.828757
vt -8.326178 9.845409
vt 0.191568 0.983492
vt -7.827497 15.120132
vt -7.827461 15.112755
vt -7.890742 15.120132
vn 0.9819691248858593 0.18732502382381072 -0.025416003232382037
vn -0.9819691248858593 -0.18732502382381072 0.025416003232382037
vn 0.8523859941637132 -0.513352996485072 -0.09953299931849767
vn -0.8523859941637132 0.513352996485072 0.09953299931849767
vn 0.6928358343443575 0.7202298277945092 -0.035319991555061506
vn 0.8341461706825899 0.5479621121237448 -0.06275101284008205
vn 0.6466378429830947 0.7624058148722612 -0.02443099406765436
vn -0.6466378429830947 -0.7624058148722612 0.02443099406765436
vn -0.8341461706825899 -0.5479621121237448 0.06275101284008205
vn -0.6928358343443575 -0.7202298277945092 0.035319991555061506
vn 0.42426920327866713 0.9055154338565444 -0.0061190029317769595
vn -0.42426920327866713 -0.9055154338565444 0.0061190029317769595
vn 0.8890769461992885 0.40044397576793456 -0.22178098657936748
vn -0.8890769461992885 -0.40044397576793456 0.22178098657936748
vn 0.37540579545626634 0.9268404950013621 -0.006097996677443181
vn -0.37540579545626634 -0.9268404950013621 0.006097996677443181
vn 0.9339467351149985 -0.21820193811379326 -0.2830749197145858
vn -0.9339467351149985 0.21820193811379326 0.2830749197145858
vn 0.18731408023825122 0.9822584207622717 -0.009046003874964924
vn -0.18731408023825122 -0.9822584207622717 0.009046003874964924
vn 0.6790521962753123 0.6072131755107434 -0.4125291192386713
vn 0.6899040476927235 0.6529140451356231 -0.3126270216117503
vn 0.7789246847700227 0.5492027777382301 -0.3027418774806896
vn -0.7789246847700227 -0.5492027777382301 0.3027418774806896
vn -0.6899040476927235 -0.6529140451356231 0.3126270216117503
vn -0.6790521962753123 -0.6072131755107434 0.4125291192386713
vn 0 1 0
vn 0 -1 0
vn 0.6743141279801135 0.5795371099920973 -0.45764308685746263
vn -0.6743141279801135 -0.5795371099920973 0.45764308685746263
vn 0.5906030098598221 0.6096090101771178 -0.5287390088270333
vn -0.5906030098598221 -0.6096090101771178 0.5287390088270333
vn 0.5191632216819642 0.6368852719491138 -0.5699532433692317
vn -0.5191632216819642 -0.6368852719491138 0.5699532433692317
vn 0.43274510091140916 0.6499991515726701 -0.6246861456699544
vn -0.43274510091140916 -0.6499991515726701 0.6246861456699544
vn 0.38695187692068833 0.5986598095819102 -0.7013377769227234
vn -0.38695187692068833 -0.5986598095819102 0.7013377769227234
vn 0.31262702161175043 0.6529140451356232 -0.6899040476927233
vn -0.31262702161175043 -0.6529140451356232 0.6899040476927233
vn 0.3027418774806897 0.5492027777382302 -0.7789246847700226
vn -0.3027418774806897 -0.5492027777382302 0.7789246847700226
vn 0.28307491971458576 -0.2182019381137931 -0.9339467351149985
vn -0.28307491971458576 0.2182019381137931 0.9339467351149985
vn 0.2217809865793676 0.40044397576793467 -0.8890769461992883
vn -0.2217809865793676 -0.40044397576793467 0.8890769461992883
vn 0.006108998109992348 0.8561997351081106 -0.5166088401710649
vn 0.00611900293177716 0.9055154338565445 -0.4242692032786669
vn 0.004514001535415314 0.846145287812138 -0.5329331812745877
vn -0.004514001535415314 -0.846145287812138 0.5329331812745877
vn -0.00611900293177716 -0.9055154338565445 0.4242692032786669
vn -0.006108998109992348 -0.8561997351081106 0.5166088401710649
vn 0.006097996677443387 0.9268404950013621 -0.3754057954562661
vn -0.006097996677443387 -0.9268404950013621 0.3754057954562661
vn 0.11598203820286596 0.0013980004604820762 -0.9932503271628063
vn -0.11598203820286596 -0.0013980004604820762 0.9932503271628063
vn 0.009046003874965144 0.9822584207622718 -0.18731408023825102
vn -0.009046003874965144 -0.9822584207622718 0.18731408023825102
vn 0.0012250003649981005 0.37543411186342623 -0.9268482761614364
vn -0.023013996276554337 0.5488989111933781 -0.8355718648124211
vn -0.0012250003649981005 -0.37543411186342623 0.9268482761614364
vn 0.023013996276554337 -0.5488989111933781 0.8355718648124211
vn 0.025416003232382082 0.18732502382381094 -0.9819691248858593
vn -0.025416003232382082 -0.18732502382381094 0.9819691248858593
usemtl material_0_0
f 1/1/1 2/2/1 3/3/1
f 3/4/2 2/5/2 1/6/2
f 4/7/3 1/1/3 3/3/3
f 3/8/4 1/9/4 4/10/4
f 4/7/5 3/3/6 5/11/7
f 5/12/8 3/13/9 4/14/10
f 6/15/11 4/7/5 5/11/7
f 5/16/8 4/17/10 6/18/12
f 7/19/13 4/7/13 6/15/13
f 6/20/14 4/21/14 7/22/14
f 6/15/11 5/11/7 8/23/15
f 8/24/16 5/25/8 6/26/12
f 9/27/17 7/19/17 6/15/17
f 6/28/18 7/29/18 9/30/18
f 10/31/19 6/15/11 8/23/15
f 8/32/16 6/33/12 10/34/20
f 9/27/21 11/35/22 7/19/23
f 7/36/24 11/37/25 9/38/26
f 6/15/27 12/39/27 9/27/27
f 9/40/28 12/41/28 6/42/28
f 11/35/22 9/27/21 13/43/29
f 13/44/30 9/45/26 11/46/25
f 12/39/27 6/15/27 14/47/27
f 14/48/28 6/42/28 12/41/28
f 15/49/31 13/43/29 9/27/21
f 9/50/26 13/51/30 15/52/32
f 14/47/27 6/15/27 16/53/27
f 16/54/28 6/42/28 14/48/28
f 9/27/21 17/55/33 15/49/31
f 15/56/32 17/57/34 9/58/26
f 9/27/27 18/59/27 17/55/27
f 17/60/28 18/61/28 9/40/28
f 17/55/33 19/62/35 15/49/31
f 15/63/32 19/64/36 17/65/34
f 19/62/35 17/55/33 20/66/37
f 20/67/38 17/68/34 19/69/36
f 17/55/27 21/70/27 20/66/27
f 20/71/28 21/72/28 17/60/28
f 19/62/35 20/66/37 22/73/39
f 22/74/40 20/75/38 19/76/36
f 22/73/39 20/66/37 23/77/41
f 23/78/42 20/79/38 22/80/40
f 23/77/43 20/66/43 24/81/43
f 24/82/44 20/83/44 23/84/44
f 20/66/27 25/85/27 24/81/27
f 24/86/28 25/87/28 20/71/28
f 23/77/45 24/81/45 26/88/45
f 26/89/46 24/90/46 23/91/46
f 25/85/27 20/66/27 27/92/27
f 27/93/28 20/71/28 25/87/28
f 26/88/47 24/81/48 28/94/49
f 28/95/50 24/96/51 26/97/52
f 27/92/27 20/66/27 29/98/27
f 29/99/28 20/71/28 27/93/28
f 24/81/48 30/100/53 28/94/49
f 28/101/50 30/102/54 24/103/51
f 26/88/55 28/94/55 31/104/55
f 31/105/56 28/106/56 26/107/56
f 24/81/48 32/108/57 30/100/53
f 30/109/54 32/110/58 24/111/51
f 31/104/59 28/94/60 33/112/59
f 33/113/61 28/114/62 31/115/61
f 31/104/59 33/112/59 34/116/63
f 34/117/64 33/118/61 31/119/61
