# SSTK version 0.8.0
# 56
mtllib original-56.mtl
o mesh55/mesh55-geometry#mesh55-geometry
v 0.379984 -0.457432 -0.356724
v 0.390404 -0.470266 -0.355207
v 0.386828 -0.472480 -0.355207
v 0.393338 -0.467176 -0.355207
v 0.379984 -0.541905 -0.299314
v 0.382992 -0.473688 -0.355207
v 0.395355 -0.463517 -0.355207
v 0.379984 -0.473963 -0.355207
v 0.396362 -0.459675 -0.355207
v 0.396515 -0.457432 -0.355207
v 0.379984 -0.533474 -0.315587
v 0.379984 -0.521674 -0.330114
v 0.469995 -0.469760 -0.265872
v 0.379984 -0.490874 -0.350345
v 0.456026 -0.457432 -0.315587
v 0.417597 -0.540132 -0.265872
v 0.379984 -0.507147 -0.341914
v 0.413426 -0.457432 -0.350345
v 0.469319 -0.457432 -0.282404
v 0.437247 -0.527965 -0.265872
v 0.379984 -0.548283 -0.265872
v 0.429699 -0.457432 -0.341914
v 0.464457 -0.457432 -0.299314
v 0.470835 -0.457432 -0.265872
v 0.453374 -0.510984 -0.265872
v 0.396515 -0.546767 -0.265872
v 0.379984 -0.546767 -0.282404
v 0.444226 -0.457432 -0.330114
v 0.464457 -0.490874 -0.265872
vt 0.076422 0.482124
vt 0.085336 0.474214
vt 0.088053 0.475253
vt -7.748294 9.15293
vt -7.825676 9.201048
vt -7.598576 9.479989
vt 0.076262 0.482082
vt 0.081998 0.473667
vt -7.654523 9.081256
vt -7.717962 9.148337
vt -7.427061 9.359902
vt 0.191278 0.399304
vt -3.071667 13.790185
vt -3.508563 11.903267
vt -3.140095 13.850359
vt 0.191568 0.508753
vt 0.188257 0.488383
vt -7.857214 9.193448
vt -7.940299 9.219711
vt -7.791149 9.547029
vt 0.076077 0.482068
vt 0.078349 0.473659
vt -7.586931 8.983059
vt -7.630482 9.062425
vt -7.295872 9.194406
vt 0.245816 13.780157
vt -0.435357 11.91926
vt 0.200179 13.860417
vt -5.597268 13.232961
vt -5.840612 11.336555
vt -5.677681 13.266527
vt 0.191568 0.488038
vt -7.966388 9.203147
vt -8.031564 9.209151
vt -7.966112 9.562845
vt 0.075886 0.482081
vt 0.074732 0.474137
vt -7.55091 8.869166
vt -7.57266 8.952434
vt -7.216262 9.001052
vt 4.232266 12.733614
vt 3.277111 10.928156
vt 4.212792 12.822025
vt -7.350731 12.507746
vt -7.441857 10.603702
vt -7.415725 12.515478
vt 0.072683 0.474549
vt 0.075327 0.480539
vt -7.193842 8.839189
vt -7.550242 8.790583
vt -7.553541 8.839189
vt 8.062784 10.681717
vt 6.887735 8.926298
vt 8.060765 10.767756
vt 0.191388 0.411238
vt 7.664304 6.94926
vt 8.875346 8.421356
vt 8.016892 7.131923
vt 10.304206 9.14977
vt 9.047883 7.3641
vt 10.304833 9.198483
vt 0.191477 0.427127
vt 8.331649 7.38761
vt 0.058285 0.392671
vt 0.10702 11.651338
vt -1.754194 13.470148
vt 0.747051 13.780949
vt 0.191568 0.466847
vt 8.769997 8.054956
vt 0.057656 0.431909
vt -3.622304 14.328233
vt -2.073246 14.328233
vt -4.471194 13.551918
vt 0.148019 0.378379
vt -0.720066 11.197859
vt -1.810407 11.240888
vt -2.645323 12.948736
vt 8.587335 7.702368
vt 0.069445 0.46638
vt -8.399556 8.875346
vt -9.688988 8.016892
vt -8.765957 8.769997
vt 0.05025 0.40689
vt 2.726643 12.613858
vt 3.064602 12.906525
vt 3.83913 12.906525
vt 0.124875 0.381473
vt -8.856336 6.987676
vt -9.282104 7.251297
vt -9.991655 8.512433
vt 0.189858 0.37369
vt 0.440699 12.592063
vt -0.103236 12.093792
vt -0.641666 12.730559
vt 0.065724 0.456203
vt -9.118545 8.587335
vt 0.053808 0.419291
vt -9.87165 7.664304
vt -9.976999 7.297904
vt 0.047027 0.394938
vt 5.997811 9.209642
vt 5.996147 9.477374
vt 6.355846 9.477374
vt 0.100713 0.385126
vt -9.631524 7.619216
vt 0.171665 0.375591
vt -8.041362 6.81105
vt -8.399556 6.843913
vt 0.190697 0.385997
vt 7.297904 6.843913
vt 6.939709 6.81105
vt 0.061712 0.444481
vt -9.433302 8.331649
vt 0.077873 0.388982
vt -9.87165 8.054956
vn 0.058957998558241125 -0.05646999861908245 -0.9966619756276284
vn 0.05764797413944168 -0.07088096820319444 -0.995817553281823
vn 0.0380629826345865 -0.08305796210659898 -0.9958175456797586
vn -0.0380629826345865 0.08305796210659898 0.9958175456797586
vn -0.05764797413944168 0.07088096820319444 0.995817553281823
vn -0.058957998558241125 0.05646999861908245 0.9966619756276284
vn 0.07373397071360997 -0.053949978571612045 -0.9958176044712841
vn -0.07373397071360997 0.053949978571612045 0.9958176044712841
vn 0.48071380147149023 -0.581792759727203 -0.6560727290505479
vn 0.6636281566398222 -0.5331241258362344 -0.524763123862741
vn 0.28673405905603955 -0.6177691272363601 -0.7322191508086041
vn -0.28673405905603955 0.6177691272363601 0.7322191508086041
vn -0.6636281566398222 0.5331241258362344 0.524763123862741
vn -0.48071380147149023 0.581792759727203 0.6560727290505479
vn 0.018007993514629398 -0.08958196773809012 -0.9958166413681532
vn -0.018007993514629398 0.08958196773809012 0.9958166413681532
vn 0.08484096479062515 -0.033901985930525985 -0.9958175867313062
vn -0.08484096479062515 0.033901985930525985 0.9958175867313062
vn 0.7006839880291644 -0.503386991399885 -0.5056119913618721
vn -0.7006839880291644 0.503386991399885 0.5056119913618721
vn 0.12800104109326885 -0.631931202874278 -0.7643812453958481
vn -0.12800104109326885 0.631931202874278 0.7643812453958481
vn 0.008379996481198318 -0.09136096163708325 -0.9957825818660028
vn -0.008379996481198318 0.09136096163708325 0.9957825818660028
vn 0.0901909709031799 -0.014788995228871038 -0.995814678736793
vn -0.0901909709031799 0.014788995228871038 0.995814678736793
vn 0.9010801838631775 -0.3546410723636315 -0.24956805092374212
vn -0.9010801838631775 0.3546410723636315 0.24956805092374212
vn 0.058175967531070766 -0.634233646024153 -0.7709495697208302
vn -0.058175967531070766 0.634233646024153 0.7709495697208302
vn 0.09136202581324772 -0.006226001759082112 -0.9957982813508947
vn -0.09136202581324772 0.006226001759082112 0.9957982813508947
vn 0.9854970407103908 -0.16203400669354395 0.050404002082164126
vn -0.9854970407103908 0.16203400669354395 -0.050404002082164126
vn 1 0 0
vn -1 0 0
vn 0.9797302587683496 -0.06677001763543298 0.1888660498836854
vn -0.9797302587683496 0.06677001763543298 -0.1888660498836854
vn 0.6278159065329721 -0.5112239238907771 -0.5869389126185955
vn 0.6170993147710243 -0.48139024554832094 -0.6224563175035331
vn -0.6170993147710243 0.48139024554832094 0.6224563175035331
vn -0.6278159065329721 0.5112239238907771 0.5869389126185955
vn 0.1906840178315307 -0.9389390878034843 -0.2864140267835795
vn 0.09683104076384327 -0.9846164145029207 -0.1454450612293295
vn -0.09683104076384327 0.9846164145029207 0.1454450612293295
vn -0.1906840178315307 0.9389390878034843 0.2864140267835795
vn 0.6049849615153955 -0.4504659713447342 -0.656561958234454
vn -0.6049849615153955 0.4504659713447342 0.656561958234454
vn 0 -1 0
vn 0 1 0
vn 0.8472540076159664 -0.40862500367313015 -0.33939100305078584
vn 0.9442080140979701 -0.2443350036481659 -0.22084300329740694
vn -0.9442080140979701 0.2443350036481659 0.22084300329740694
vn -0.8472540076159664 0.40862500367313015 0.33939100305078584
vn 0 0 -1
vn 0 0 1
vn 0.20822302879953733 -0.960760132883704 -0.18325702534646443
vn -0.20822302879953733 0.960760132883704 0.18325702534646443
vn 0.9935314930104472 -0.0677209654426435 -0.0911539534850154
vn -0.9935314930104472 0.0677209654426435 0.0911539534850154
usemtl material_0_0
f 1/1/1 2/2/2 3/3/3
f 3/4/4 2/5/5 1/6/6
f 1/7/1 4/8/7 2/2/2
f 2/9/5 4/10/8 1/11/6
f 2/2/9 5/12/10 3/3/11
f 3/13/12 5/14/13 2/15/14
f 1/16/1 3/3/3 6/17/15
f 6/18/16 3/19/4 1/20/6
f 1/21/1 7/22/17 4/8/7
f 4/23/8 7/24/18 1/25/6
f 4/8/19 5/12/10 2/2/9
f 2/26/14 5/27/13 4/28/20
f 3/3/11 5/12/10 6/17/21
f 6/29/22 5/30/13 3/31/12
f 1/16/1 6/17/15 8/32/23
f 8/33/24 6/34/16 1/35/6
f 1/36/1 9/37/25 7/22/17
f 7/38/18 9/39/26 1/40/6
f 7/22/27 5/12/10 4/8/19
f 4/41/20 5/42/13 7/43/28
f 6/17/21 5/12/10 8/32/29
f 8/44/30 5/45/13 6/46/22
f 10/47/31 9/37/25 1/48/1
f 1/49/6 9/50/26 10/51/32
f 9/37/33 5/12/10 7/22/27
f 7/52/28 5/53/13 9/54/34
f 11/55/35 8/32/35 5/12/35
f 5/56/36 8/57/36 11/58/36
f 10/47/37 5/12/10 9/37/33
f 9/59/34 5/60/13 10/61/38
f 8/32/35 11/55/35 12/62/35
f 12/63/36 11/58/36 8/57/36
f 10/47/39 13/64/40 5/12/40
f 5/65/41 13/66/41 10/67/42
f 8/32/35 12/62/35 14/68/35
f 14/69/36 12/63/36 8/57/36
f 13/64/43 10/47/44 15/70/44
f 15/71/45 10/72/45 13/73/46
f 13/64/40 16/74/47 5/12/40
f 5/75/41 16/76/48 13/77/41
f 14/69/35 12/63/35 17/78/35
f 17/78/36 12/63/36 14/69/36
f 18/79/49 15/70/44 10/47/44
f 10/80/45 15/81/45 18/82/50
f 15/70/51 19/83/52 13/64/52
f 13/84/53 19/85/53 15/86/54
f 13/64/55 20/87/55 16/74/55
f 16/88/56 20/89/56 13/90/56
f 16/74/57 21/91/57 5/12/57
f 5/92/58 21/93/58 16/94/58
f 15/70/44 18/79/49 22/95/49
f 22/96/50 18/82/50 15/81/45
f 19/83/49 15/70/49 23/97/49
f 23/98/50 15/81/50 19/99/50
f 19/83/52 24/100/59 13/64/52
f 13/101/53 24/102/60 19/103/53
f 20/87/55 13/64/55 25/104/55
f 25/105/56 13/90/56 20/89/56
f 16/74/55 26/106/55 21/91/55
f 21/107/56 26/108/56 16/88/56
f 5/12/35 21/91/35 27/109/35
f 27/110/36 21/111/36 5/56/36
f 15/70/44 22/95/49 28/112/49
f 28/113/50 22/96/50 15/81/45
f 25/104/55 13/64/55 29/114/55
f 29/115/56 13/90/56 25/105/56
