# SSTK version 0.8.0
# 287
mtllib original-287.mtl
o mesh315/mesh315-geometry#mesh315-geometry
v 0.054403 0.084750 0.536076
v 0.054187 0.080151 0.536076
v 0.057649 0.080097 0.536076
v 0.051969 0.084101 0.536076
v 0.057649 0.080097 0.534872
v 0.051265 0.084209 0.536076
v 0.051969 0.084101 0.534872
v 0.054187 0.080151 0.534872
v 0.054403 0.084750 0.534872
v 0.051860 0.085453 0.536076
v 0.058731 0.088429 0.534872
v 0.051157 0.092054 0.536076
v 0.052618 0.085562 0.536076
v 0.051265 0.084209 0.534872
v 0.058731 0.088429 0.536076
v 0.052618 0.085562 0.534872
v 0.048073 0.080314 0.536076
v 0.053538 0.091946 0.536076
v 0.051860 0.085453 0.534872
v 0.050670 0.080151 0.534872
v 0.055756 0.088375 0.534872
v 0.050670 0.080151 0.536076
v 0.051157 0.092054 0.534872
v 0.055756 0.088375 0.536076
v 0.048073 0.080314 0.534872
v 0.053538 0.091946 0.534872
vt 1.057288 20.426285
vt 0.982264 20.427458
vt 0.986953 20.527099
vt 0.934202 20.513032
vt 10.436236 -0.737929
vt 10.410152 -0.737929
vt 10.436236 -0.662896
vt -10.436236 16.147221
vt -10.436236 16.270145
vt -10.410152 16.147221
vt 0.918963 20.515377
vt 10.436236 17.427711
vt 10.436236 17.329564
vt 10.410152 17.427711
vt 10.410152 -0.662896
vt -10.410152 16.270145
vt 0.931857 20.542338
vt 10.436236 2.196874
vt 10.410152 2.196874
vt 10.436236 2.212292
vt 10.410152 17.329564
vt -1.057288 20.426285
vt -0.986953 20.527099
vt -0.982264 20.427458
vt -10.410152 14.046412
vt -10.436236 14.046412
vt -10.410152 14.169492
vt 0.916618 20.685352
vt 0.948269 20.544683
vt 10.410152 2.212292
vt -0.934202 20.513032
vt -10.436236 14.169492
vt -1.080732 20.606812
vt -0.948269 20.544683
vt 0.8498 20.430976
vt 0.968197 20.683007
vt 1.080732 20.606812
vt 10.436236 3.828549
vt 10.410152 3.828549
vt 10.436236 3.845127
vt -10.410152 20.431577
vt -10.410152 20.342718
vt -10.436236 20.431577
vt -0.918963 20.515377
vt 10.410152 1.455288
vt 10.436236 1.455288
vt 10.410152 1.390803
vt -0.931857 20.542338
vt -1.016259 20.605639
vt 0.906068 20.427458
vt 10.436236 20.239532
vt 10.436236 19.976526
vt 10.410152 20.239532
vt -10.436236 20.122457
vt -10.436236 20.267744
vt -10.410152 20.122457
vt -10.436236 0.023918
vt -10.410152 0.023918
vt -10.436236 -0.027714
vt 1.016259 20.605639
vt 10.410152 3.845127
vt -10.436236 20.342718
vt -0.906068 20.427458
vt -0.8498 20.430976
vt 10.436236 1.390803
vt 10.410152 14.511761
vt 10.436236 14.511761
vt 10.410152 14.420446
vt 10.436236 0.370354
vt 10.410152 0.370354
vt 10.436236 0.426732
vt 10.410152 19.976526
vt -10.410152 20.267744
vt -10.410152 -0.027714
vt 10.436236 14.420446
vt -0.916618 20.685352
vt 10.410152 0.426732
vt -0.968197 20.683007
vn 0 0 1
vn -0.01562799805222021 -0.9998778753812287 0
vn 0.8201288422556136 0.5721788899465506 0
vn -0.8718938516642757 -0.48969491668796605 0
vn -0.1521079817348746 -0.9883638813172722 0
vn 0 0 -1
vn 0.6476521356183714 -0.7619361595494486 0
vn -0.14146699608574975 0.9899429726092682 0
vn 0.9894150865767921 -0.1451130126978245 0
vn -0.018184993440219427 0.9998346393347148 0
vn -0.9671897876414156 0.25405494421906744 0
vn 0.9682138232177271 -0.25012395433087187 0
vn 0.045422992869658126 0.9989678431855367 0
vn -0.6675399689340257 0.7445739653490175 0
vn -0.062399017665102016 -0.9980512825473601 0
vn 0.01562799805222021 0.9998778753812287 0
vn -0.8201288422556136 -0.5721788899465506 0
vn 0.8718938516642757 0.48969491668796605 0
vn 0.1521079817348746 0.9883638813172722 0
vn -0.6476521356183714 0.7619361595494486 0
vn 0.14146699608574975 -0.9899429726092682 0
vn -0.9894150865767921 0.1451130126978245 0
vn 0.018184993440219427 -0.9998346393347148 0
vn 0.9671897876414156 -0.25405494421906744 0
vn -0.9682138232177271 0.25012395433087187 0
vn -0.045422992869658126 -0.9989678431855367 0
vn 0.6675399689340257 -0.7445739653490175 0
vn 0.062399017665102016 0.9980512825473601 0
usemtl material_0_0
f 1//1 2//1 3//1
f 2//1 1//1 4//1
f 2//2 5//2 3//2
f 5//3 1//3 3//3
f 4//1 1//1 6//1
f 7//4 2//4 4//4
f 5//2 2//2 8//2
f 1//3 5//3 9//3
f 10//1 6//1 1//1
f 6//5 7//5 4//5
f 2//4 7//4 8//4
f 8//6 9//6 5//6
f 11//7 1//7 9//7
f 12//1 6//1 10//1
f 1//1 13//1 10//1
f 7//5 6//5 14//5
f 9//6 8//6 7//6
f 1//7 11//7 15//7
f 9//6 16//6 11//6
f 17//1 6//1 12//1
f 12//1 10//1 18//1
f 13//1 1//1 15//1
f 13//8 19//8 10//8
f 6//9 20//9 14//9
f 9//6 7//6 14//6
f 21//10 15//10 11//10
f 16//6 9//6 19//6
f 11//6 16//6 21//6
f 6//1 17//1 22//1
f 23//11 17//11 12//11
f 19//12 18//12 10//12
f 18//13 23//13 12//13
f 13//1 15//1 24//1
f 19//8 13//8 16//8
f 20//9 6//9 22//9
f 25//6 14//6 20//6
f 14//6 19//6 9//6
f 15//10 21//10 24//10
f 16//14 24//14 21//14
f 17//15 20//15 22//15
f 17//11 23//11 25//11
f 18//12 19//12 26//12
f 23//13 18//13 26//13
f 24//14 16//14 13//14
f 14//6 25//6 23//6
f 20//15 17//15 25//15
f 14//6 23//6 19//6
f 19//6 23//6 26//6
usemtl material_1_0
f 3/1/6 2/2/6 1/3/6
f 4/4/6 1/3/6 2/2/6
f 3/5/16 5/6/16 2/7/16
f 3/8/17 1/9/17 5/10/17
f 6/11/6 1/3/6 4/4/6
f 4/12/18 2/13/18 7/14/18
f 8/15/16 2/7/16 5/6/16
f 9/16/17 5/10/17 1/9/17
f 1/3/6 6/11/6 10/17/6
f 4/18/19 7/19/19 6/20/19
f 8/21/18 7/14/18 2/13/18
f 5/22/1 9/23/1 8/24/1
f 9/25/20 1/26/20 11/27/20
f 10/17/6 6/11/6 12/28/6
f 10/17/6 13/29/6 1/3/6
f 14/30/19 6/20/19 7/19/19
f 7/31/1 8/24/1 9/23/1
f 15/32/20 11/27/20 1/26/20
f 11/33/1 16/34/1 9/23/1
f 12/28/6 6/11/6 17/35/6
f 18/36/6 10/17/6 12/28/6
f 15/37/6 1/3/6 13/29/6
f 10/38/21 19/39/21 13/40/21
f 14/41/22 20/42/22 6/43/22
f 14/44/1 7/31/1 9/23/1
f 11/45/23 15/46/23 21/47/23
f 19/48/1 9/23/1 16/34/1
f 21/49/1 16/34/1 11/33/1
f 22/50/6 17/35/6 6/11/6
f 12/51/24 17/52/24 23/53/24
f 10/54/25 18/55/25 19/56/25
f 12/57/26 23/58/26 18/59/26
f 24/60/6 15/37/6 13/29/6
f 16/61/21 13/40/21 19/39/21
f 22/62/22 6/43/22 20/42/22
f 20/63/1 14/44/1 25/64/1
f 9/23/1 19/48/1 14/44/1
f 24/65/23 21/47/23 15/46/23
f 21/66/27 24/67/27 16/68/27
f 22/69/28 20/70/28 17/71/28
f 25/72/24 23/53/24 17/52/24
f 26/73/25 19/56/25 18/55/25
f 26/74/26 18/59/26 23/58/26
f 13/75/27 16/68/27 24/67/27
f 23/76/1 25/64/1 14/44/1
f 25/77/28 17/71/28 20/70/28
f 19/48/1 23/76/1 14/44/1
f 26/78/1 23/76/1 19/48/1
