# SSTK version 0.8.0
# 100
mtllib original-100.mtl
o mesh99/mesh99-geometry#mesh99-geometry
v -0.513089 0.139464 -0.478398
v -0.491284 0.099489 -0.478398
v -0.513089 0.099489 -0.478398
v -0.491284 0.139464 -0.478398
v -0.513089 0.099489 0.502800
v -0.491284 0.139464 0.502800
v -0.491284 0.099489 0.502800
v -0.513089 0.139464 0.502800
vt 1.174405 1.256723
vt 1.150409 1.206631
vt 1.174405 1.206631
vt 1.150409 1.256723
vt 11.308993 20.846454
vt 10.836553 20.846454
vt 11.308993 21.712594
vt 10.836553 21.712594
vt 1.150409 1.957951
vt 1.174405 0.193836
vt 1.174405 1.957951
vt 11.308993 11.54455
vt 11.308993 -9.71525
vt 10.836553 11.54455
vt 1.083698 1.206631
vt 0.025229 1.256723
vt 0.025229 1.206631
vt -11.54455 20.846454
vt -11.54455 21.712594
vt 9.71525 20.846454
vt 0.025596 1.957951
vt 0.049591 0.193836
vt 0.049592 1.957951
vt -10.836553 11.54455
vt -10.836553 -9.71525
vt -11.308993 11.54455
vt 0.116302 1.256723
vt 1.174771 1.206631
vt 1.174771 1.256723
vt 11.54455 21.712594
vt 11.54455 20.846454
vt -9.71525 21.712594
vt 1.150409 0.193836
vt 10.836553 -9.71525
vt 1.083698 1.256723
vt 9.71525 21.712594
vt 0.025595 0.193836
vt -11.308993 -9.71525
vt 0.116302 1.206631
vt -9.71525 20.846454
vt 0.049591 1.256723
vt 0.025595 1.206631
vt 0.049591 1.206631
vt -10.836553 20.846454
vt -11.308993 20.846454
vt -10.836553 21.712594
vt 0.025595 1.256723
vt -11.308993 21.712594
vn 0 0 -1
vn 0 0 1
vn 0 -1 0
vn 0 1 0
vn -1 0 0
vn 1 0 0
usemtl material_0_0
f 1/1/1 2/2/1 3/3/1
f 2/2/1 1/1/1 4/4/1
f 3/5/2 2/6/2 1/7/2
f 4/8/2 1/7/2 2/6/2
f 2/9/3 5/10/3 3/11/3
f 3/12/4 5/13/4 2/14/4
f 5/15/5 1/16/5 3/17/5
f 3/18/6 1/19/6 5/20/6
f 1/21/4 6/22/4 4/23/4
f 4/24/3 6/25/3 1/26/3
f 6/27/6 2/28/6 4/29/6
f 4/30/5 2/31/5 6/32/5
f 5/10/3 2/9/3 7/33/3
f 7/34/4 2/14/4 5/13/4
f 1/16/5 5/15/5 8/35/5
f 8/36/6 5/20/6 1/19/6
f 6/22/4 1/21/4 8/37/4
f 8/38/3 1/26/3 6/25/3
f 2/28/6 6/27/6 7/39/6
f 7/40/5 6/32/5 2/31/5
f 6/41/2 5/42/2 7/43/2
f 7/44/1 5/45/1 6/46/1
f 5/42/2 6/41/2 8/47/2
f 8/48/1 6/46/1 5/45/1
