# SSTK version 0.8.0
# 282
mtllib original-282.mtl
o mesh310/mesh310-geometry#mesh310-geometry
v 0.004203 0.086714 0.536076
v 0.001390 0.085470 0.536076
v 0.003933 0.085362 0.536076
v 0.001606 0.086606 0.536076
v 0.003933 0.085362 0.534872
v 0.001011 0.086822 0.536076
v 0.001606 0.086606 0.534872
v 0.001390 0.085470 0.534872
v 0.004203 0.086714 0.534872
v 0.003608 0.088337 0.536076
v -0.000125 0.086822 0.536076
v 0.001011 0.086822 0.534872
v 0.003608 0.088337 0.534872
v -0.001369 0.087417 0.536076
v 0.002418 0.088878 0.534872
v -0.000287 0.088283 0.536076
v -0.001315 0.086065 0.536076
v -0.000125 0.086822 0.534872
v -0.001369 0.087417 0.534872
v 0.002418 0.088878 0.536076
v -0.000287 0.088283 0.534872
v -0.003317 0.088499 0.536076
v -0.000991 0.088662 0.536076
v -0.002938 0.080168 0.536076
v -0.001315 0.086065 0.534872
v -0.000991 0.088662 0.534872
v -0.005373 0.080059 0.536076
v -0.002938 0.080168 0.534872
v -0.003317 0.088499 0.534872
v -0.005373 0.080059 0.534872
vt -0.106598 20.540346
vt -0.161694 20.542691
vt -0.100737 20.569653
vt -0.157005 20.567307
vt 10.436236 0.980065
vt 10.410152 0.980065
vt 10.436236 1.03521
vt -10.436236 20.120545
vt -10.436236 20.150431
vt -10.410152 20.120545
vt -0.1699 20.571995
vt 10.436236 20.174642
vt 10.436236 20.149583
vt 10.410152 20.174642
vt 10.410152 1.03521
vt -10.410152 20.150431
vt -0.113632 20.60482
vt 10.436236 7.175241
vt 10.410152 7.175241
vt 10.436236 7.188962
vt 10.410152 20.149583
vt 0.106598 20.540346
vt 0.100737 20.569653
vt 0.161694 20.542691
vt -10.436236 19.346991
vt -10.436236 19.384447
vt -10.410152 19.346991
vt -0.194517 20.571995
vt 10.410152 7.188962
vt 0.157005 20.567307
vt -10.410152 19.384447
vt -0.221478 20.584892
vt 0.1699 -10.436236
vt 0.1699 -10.410152
vt 0.194517 -10.436236
vt 0.1699 20.571995
vt 0.113632 20.60482
vt -10.410152 8.629314
vt -10.436236 8.629314
vt -10.410152 8.657642
vt -0.198034 20.603647
vt -0.220306 20.555586
vt 0.194517 -10.410152
vt 0.221478 20.584892
vt -10.436236 8.657642
vt 0.139421 20.616541
vt 0.198034 20.603647
vt -0.139421 20.616541
vt 10.436236 12.686005
vt 10.410152 12.686005
vt 10.436236 12.716029
vt -0.263679 20.608335
vt -10.436236 10.879645
vt -10.410152 10.879645
vt -10.436236 10.849078
vt 0.194517 20.571995
vt 10.410152 4.293391
vt 10.436236 4.293391
vt 10.410152 4.233377
vt 10.436236 4.233377
vt 10.410152 12.716029
vt -10.436236 19.628527
vt -10.436236 19.65671
vt -10.410152 19.628527
vt -0.255474 20.427811
vt -0.213273 20.611853
vt -10.410152 10.849078
vt 0.220306 20.555586
vt -10.410152 19.65671
vt -0.308225 20.425466
vt -10.436236 19.627659
vt -10.436236 19.760184
vt -10.410152 19.627659
vt 10.436236 1.17175
vt 10.410152 1.17175
vt 10.436236 1.222279
vt -10.410152 19.760184
vt 0.263679 20.608335
vt 0.213273 20.611853
vt 10.410152 1.222279
vt 10.436236 19.960447
vt 10.436236 19.77223
vt 10.410152 19.960447
vt -10.436236 0.652093
vt -10.410152 0.652093
vt -10.436236 0.59929
vt 0.255474 20.427811
vt 10.410152 19.77223
vt -10.410152 0.59929
vt 0.308225 20.425466
vn 0 0 1
vn -0.04252900989084539 -0.999095232356608 0
vn 0.9805799064526813 -0.19611998129015468 0
vn -0.9823366932885003 0.18712194157558026 0
vn -0.1734760165825732 -0.9848380941406779 0
vn -0.34169199688923607 -0.9398119914439517 0
vn 0 0 -1
vn 0.9388739887349205 0.3442609958693844 0
vn 0 -1 0
vn 0.41377996471925976 0.9103769223771702 0
vn -0.4310278259283701 0.9023386355883599 0
vn -0.6246793157123812 0.7808813946567758 0
vn 0.5368339503697036 -0.8436879220010552 0
vn -0.21485403753156598 0.9766461706044746 0
vn 0.9566731416713445 -0.2911640431177584 0
vn 0.9641488624906887 -0.26536196215341623 0
vn -0.06962203086996278 0.9975734423176782 0
vn -0.9715900889004971 0.23667002165530793 0
vn 0.04441600543596419 -0.9990131222667259 0
vn 0.04252900989084539 0.999095232356608 0
vn -0.9805799064526813 0.19611998129015468 0
vn 0.9823366932885003 -0.18712194157558026 0
vn 0.34169199688923607 0.9398119914439517 0
vn 0.1734760165825732 0.9848380941406779 0
vn -0.9388739887349205 -0.3442609958693844 0
vn 0 1 0
vn -0.41377996471925976 -0.9103769223771702 0
vn 0.6246793157123812 -0.7808813946567758 0
vn 0.4310278259283701 -0.9023386355883599 0
vn -0.5368339503697036 0.8436879220010552 0
vn 0.21485403753156598 -0.9766461706044746 0
vn -0.9566731416713445 0.2911640431177584 0
vn -0.9641488624906887 0.26536196215341623 0
vn 0.06962203086996278 -0.9975734423176782 0
vn 0.9715900889004971 -0.23667002165530793 0
vn -0.04441600543596419 0.9990131222667259 0
usemtl material_0_0
f 1//1 2//1 3//1
f 2//1 1//1 4//1
f 2//2 5//2 3//2
f 5//3 1//3 3//3
f 4//1 1//1 6//1
f 7//4 2//4 4//4
f 5//2 2//2 8//2
f 1//3 5//3 9//3
f 6//1 1//1 10//1
f 6//5 7//6 4//6
f 2//4 7//4 8//4
f 8//7 9//7 5//7
f 9//8 10//8 1//8
f 6//1 10//1 11//1
f 7//6 6//5 12//5
f 9//7 8//7 7//7
f 10//8 9//8 13//8
f 11//1 10//1 14//1
f 11//9 12//5 6//5
f 9//7 7//7 12//7
f 9//7 12//7 13//7
f 15//10 10//10 13//10
f 14//1 10//1 16//1
f 14//1 17//1 11//1
f 12//5 11//9 18//9
f 13//7 12//7 19//7
f 10//10 15//10 20//10
f 13//7 21//7 15//7
f 16//1 10//1 20//1
f 16//11 19//12 14//12
f 22//1 17//1 14//1
f 17//13 18//13 11//13
f 18//7 19//7 12//7
f 13//7 19//7 21//7
f 21//11 20//14 15//14
f 20//14 21//11 16//11
f 19//12 16//11 21//11
f 19//15 23//15 14//15
f 22//1 24//1 17//1
f 22//1 14//1 23//1
f 18//13 17//13 25//13
f 25//7 19//7 18//7
f 23//15 19//15 26//15
f 24//1 22//1 27//1
f 28//16 17//16 24//16
f 23//17 29//17 22//17
f 17//16 28//16 25//16
f 25//7 29//7 19//7
f 19//7 29//7 26//7
f 29//17 23//17 26//17
f 29//18 27//18 22//18
f 27//19 28//19 24//19
f 28//7 29//7 25//7
f 27//18 29//18 30//18
f 28//19 27//19 30//19
f 29//7 28//7 30//7
usemtl material_1_0
f 3/1/7 2/2/7 1/3/7
f 4/4/7 1/3/7 2/2/7
f 3/5/20 5/6/20 2/7/20
f 3/8/21 1/9/21 5/10/21
f 6/11/7 1/3/7 4/4/7
f 4/12/22 2/13/22 7/14/22
f 8/15/20 2/7/20 5/6/20
f 9/16/21 5/10/21 1/9/21
f 10/17/7 1/3/7 6/11/7
f 4/18/23 7/19/23 6/20/24
f 8/21/22 7/14/22 2/13/22
f 5/22/1 9/23/1 8/24/1
f 1/25/25 10/26/25 9/27/25
f 11/28/7 10/17/7 6/11/7
f 12/29/24 6/20/24 7/19/23
f 7/30/1 8/24/1 9/23/1
f 13/31/25 9/27/25 10/26/25
f 14/32/7 10/17/7 11/28/7
f 6/33/24 12/34/24 11/35/26
f 12/36/1 7/30/1 9/23/1
f 13/37/1 12/36/1 9/23/1
f 13/38/27 10/39/27 15/40/27
f 16/41/7 10/17/7 14/32/7
f 11/28/7 17/42/7 14/32/7
f 18/43/26 11/35/26 12/34/24
f 19/44/1 12/36/1 13/37/1
f 20/45/27 15/40/27 10/39/27
f 15/46/1 21/47/1 13/37/1
f 20/48/7 10/17/7 16/41/7
f 14/49/28 19/50/28 16/51/29
f 14/32/7 17/42/7 22/52/7
f 11/53/30 18/54/30 17/55/30
f 12/36/1 19/44/1 18/56/1
f 21/47/1 19/44/1 13/37/1
f 15/57/31 20/58/31 21/59/29
f 16/60/29 21/59/29 20/58/31
f 21/61/29 16/51/29 19/50/28
f 14/62/32 23/63/32 19/64/32
f 17/42/7 24/65/7 22/52/7
f 23/66/7 14/32/7 22/52/7
f 25/67/30 17/55/30 18/54/30
f 18/56/1 19/44/1 25/68/1
f 26/69/32 19/64/32 23/63/32
f 27/70/7 22/52/7 24/65/7
f 24/71/33 17/72/33 28/73/33
f 22/74/34 29/75/34 23/76/34
f 25/77/33 28/73/33 17/72/33
f 19/44/1 29/78/1 25/68/1
f 26/79/1 29/78/1 19/44/1
f 26/80/34 23/76/34 29/75/34
f 22/81/35 27/82/35 29/83/35
f 24/84/36 28/85/36 27/86/36
f 25/68/1 29/78/1 28/87/1
f 30/88/35 29/83/35 27/82/35
f 30/89/36 27/86/36 28/85/36
f 30/90/1 28/87/1 29/78/1
