# SSTK version 0.8.0
# 77
mtllib original-77.mtl
o mesh76/mesh76-geometry#mesh76-geometry
v 0.516261 0.588287 0.580024
v 0.516261 0.615525 0.579999
v 0.516261 0.614619 0.580034
v 0.516261 0.588303 0.535558
v 0.334558 0.615520 0.580026
v 0.516261 0.615170 0.535507
v 0.334558 0.614619 0.580032
v 0.334558 0.615527 0.535507
v 0.516261 0.588377 0.535507
v 0.516261 0.615516 0.535454
v 0.516261 0.614619 0.580933
v 0.516261 0.615527 0.535507
v 0.334558 0.589165 0.580024
v 0.334558 0.614619 0.580933
v 0.516261 0.589180 0.580035
v 0.516261 0.588272 0.535507
v 0.334558 0.588271 0.580024
v 0.334558 0.589151 0.580932
v 0.516261 0.589171 0.580933
v 0.334558 0.588272 0.535507
vt 0.032996 1.819143
vt 0.033024 1.853275
vt 0.032985 1.852139
vt 0.080964 1.819163
vt -11.388686 32.007851
vt -11.387918 32.02749
vt -11.388475 31.437315
vt -10.425019 31.437671
vt 0.958402 1.837735
vt 1.158369 1.836605
vt 1.158369 1.837741
vt 10.993355 31.758896
vt 10.993354 31.739244
vt 7.056354 31.758788
vt 0.081019 1.85283
vt -10.42391 32.019794
vt 0.958402 1.836605
vt 7.056354 31.739249
vt 1.158428 0.055298
vt 0.958461 0.13529
vt 0.958461 0.05525
vt 7.057522 -11.385389
vt 7.057522 -10.420797
vt 10.994523 -11.384805
vt 0.081019 1.819255
vt -10.42391 31.439259
vt 0.081076 1.853264
vt -10.422767 32.027298
vt 0.958441 0.055144
vt 1.158408 0.053523
vt 1.158408 0.055139
vt 10.994122 -11.386717
vt 10.994122 -11.406191
vt 7.057122 -11.386659
vt 1.158428 0.13529
vt 10.994523 -10.420797
vt 1.118981 1.853278
vt 1.167004 1.820243
vt 1.167005 1.853269
vt 11.388502 32.02739
vt 11.388474 31.456335
vt 10.42391 32.027534
vt 0.958441 0.053523
vt 7.057122 -11.40619
vt 0.032016 1.852139
vt 0.032985 1.820262
vt -11.3887 31.456669
vt -11.40816 32.007849
vt 0.041593 1.819124
vt 0.24156 1.853278
vt 0.041593 1.853278
vt -10.994112 32.027534
vt -7.057112 32.027534
vt -10.994112 31.436984
vt 1.167003 1.819123
vt 11.388463 31.436979
vt 1.167012 1.852139
vt 1.167983 1.820225
vt 1.167984 1.852139
vt 11.408159 32.007849
vt 11.408129 31.45603
vt 11.388628 32.007849
vt 0.032016 1.820251
vt -11.40816 31.456477
vt 0.24156 1.819124
vt -7.057112 31.436984
vt 1.118981 1.819124
vt 10.42391 31.436984
vt 1.158424 1.823116
vt 0.958458 1.824216
vt 0.958458 1.823097
vt 7.05745 31.505673
vt 7.05745 31.525029
vt 10.99445 31.506009
vt 0.237038 0.091279
vt 0.037085 0.095447
vt 0.037077 0.093832
vt -11.083025 -10.920444
vt -11.082873 -10.900984
vt -7.146145 -10.951217
vt 0.041525 0.13459
vt 0.241491 0.054552
vt 0.241491 0.13459
vt -7.058455 -10.429236
vt -7.058455 -11.393789
vt -10.995455 -10.429236
vt 1.158424 1.824236
vt 10.99445 31.525363
vt 0.041525 0.054551
vt -10.995455 -11.393801
vt 0.237045 0.09291
vt -7.145991 -10.93156
vn 1 0 0
vn -1 0 0
vn 0.00006699999346381596 0.022849997770868352 0.9997389024704761
vn -0.00006699999346381596 -0.022849997770868352 -0.9997389024704761
vn -0.000012999999937743 0.999999995211 0.00009699999953568906
vn 0.000012999999937743 -0.999999995211 -0.00009699999953568906
vn 0 0.999999998078 0.00006199999988105805
vn 0 -0.999999998078 -0.00006199999988105805
vn 0 0 -1
vn 0 0 1
vn -0.000030000014937761156 -0.006083003028880259 0.9999814979159113
vn 0.000030000014937761156 0.006083003028880259 -0.9999814979159113
vn 0.0000999999965269502 -0.999918965272315 -0.012729999557880982
vn -0.0000999999965269502 0.999918965272315 0.012729999557880982
vn 0.00004299999934618502 -0.9999999847950004 0.000168999997430133
vn -0.00004299999934618502 0.9999999847950004 -0.000168999997430133
usemtl material_0_0
f 1/1/1 2/2/1 3/3/1
f 2/2/1 1/1/1 4/4/1
f 3/5/2 2/6/2 1/7/2
f 4/8/2 1/7/2 2/6/2
f 5/9/3 3/10/3 2/11/3
f 2/12/4 3/13/4 5/14/4
f 2/2/1 4/4/1 6/15/1
f 6/16/2 4/8/2 2/6/2
f 3/10/3 5/9/3 7/17/3
f 7/18/4 5/14/4 3/13/4
f 2/19/5 8/20/5 5/21/5
f 5/22/6 8/23/6 2/24/6
f 6/15/1 4/4/1 9/25/1
f 9/26/2 4/8/2 6/16/2
f 2/2/1 6/15/1 10/27/1
f 10/28/2 6/16/2 2/6/2
f 7/29/7 11/30/7 3/31/7
f 3/32/8 11/33/8 7/34/8
f 8/20/5 2/19/5 12/35/5
f 12/36/6 2/24/6 8/23/6
f 8/37/2 13/38/2 5/39/2
f 5/40/1 13/41/1 8/42/1
f 11/30/7 7/29/7 14/43/7
f 14/44/8 7/34/8 11/33/8
f 11/45/1 15/46/1 3/3/1
f 3/5/2 15/47/2 11/48/2
f 16/49/9 8/50/9 12/51/9
f 12/52/10 8/53/10 16/54/10
f 13/38/2 8/37/2 17/55/2
f 17/56/1 8/42/1 13/41/1
f 7/57/2 18/58/2 14/59/2
f 14/60/1 18/61/1 7/62/1
f 15/46/1 11/45/1 19/63/1
f 19/64/2 11/48/2 15/47/2
f 8/50/9 16/49/9 20/65/9
f 20/66/10 16/54/10 8/53/10
f 17/55/2 8/37/2 20/67/2
f 20/68/1 8/42/1 17/56/1
f 1/69/11 13/70/11 17/71/11
f 17/72/12 13/73/12 1/74/12
f 18/58/2 7/57/2 13/38/2
f 13/41/1 7/62/1 18/61/1
f 18/75/13 15/76/13 19/77/13
f 19/78/14 15/79/14 18/80/14
f 16/81/15 17/82/15 20/83/15
f 20/84/16 17/85/16 16/86/16
f 13/70/11 1/69/11 15/87/11
f 15/88/12 1/74/12 13/73/12
f 17/82/15 16/81/15 1/89/15
f 1/90/16 16/86/16 17/85/16
f 15/76/13 18/75/13 13/91/13
f 13/92/14 18/80/14 15/79/14
