# SSTK version 0.8.0
# 23
mtllib original-23.mtl
o mesh22/mesh22-geometry#mesh22-geometry
v 0.449939 -0.448347 -0.196825
v 0.449928 -0.084940 -0.196580
v 0.449928 -0.448347 -0.196580
v 0.449939 -0.084940 -0.196825
v 0.449748 -0.448347 -0.195821
v 0.449928 -0.448347 -0.197070
v 0.449732 -0.084940 -0.195782
v 0.449928 -0.084940 -0.197070
v 0.449330 -0.084940 -0.195107
v 0.449748 -0.448347 -0.197828
v 0.449330 -0.448347 -0.195107
v 0.449732 -0.084940 -0.197868
v 0.448705 -0.448347 -0.194543
v 0.449330 -0.448347 -0.198543
v 0.448705 -0.084940 -0.194543
v 0.449330 -0.084940 -0.198543
v 0.447964 -0.448347 -0.194204
v 0.448705 -0.084940 -0.199106
v 0.447964 -0.084940 -0.194204
v 0.448705 -0.448347 -0.199106
v 0.447214 -0.448347 -0.194099
v 0.447964 -0.084940 -0.199445
v 0.447214 -0.084940 -0.194099
v 0.447964 -0.448347 -0.199445
v 0.446464 -0.448347 -0.194204
v 0.447214 -0.084940 -0.199550
v 0.446464 -0.084940 -0.194204
v 0.447214 -0.448347 -0.199550
v 0.445723 -0.448347 -0.194543
v 0.446464 -0.084940 -0.199445
v 0.445723 -0.084940 -0.194543
v 0.446464 -0.448347 -0.199445
v 0.445098 -0.448347 -0.195107
v 0.445723 -0.084940 -0.199106
v 0.445098 -0.084940 -0.195107
v 0.445723 -0.448347 -0.199106
v 0.444696 -0.084940 -0.195782
v 0.445098 -0.084940 -0.198543
v 0.444680 -0.448347 -0.195821
v 0.445098 -0.448347 -0.198543
v 0.444499 -0.084940 -0.196580
v 0.444696 -0.084940 -0.197868
v 0.444499 -0.448347 -0.196580
v 0.444680 -0.448347 -0.197828
v 0.444488 -0.084940 -0.196825
v 0.444499 -0.448347 -0.197070
v 0.444488 -0.448347 -0.196825
v 0.444499 -0.084940 -0.197070
vt 0.335906 0.520138
vt 0.33575 0.975523
vt 0.33575 0.520138
vt 0.335906 0.975523
vt 5.863011 8.9764
vt 5.863011 16.8504
vt 5.868322 8.9764
vt 5.868322 16.8504
vt 0.336747 0.975519
vt 0.33624 0.520134
vt 0.336747 0.520134
vt 7.534934 8.97633
vt 7.518044 8.97633
vt 7.534934 16.85033
vt 0.322204 0.520138
vt 0.322048 0.975523
vt 0.322048 0.520138
vt 5.007941 8.9764
vt 5.007941 16.8504
vt 5.013253 8.9764
vt 0.336213 0.975519
vt 7.517125 16.85033
vt 0.322204 0.975523
vt 5.013253 16.8504
vt 0.33532 0.975526
vt 0.335883 0.52014
vt 0.335854 0.975525
vt 9.523764 16.850447
vt 9.524683 8.976447
vt 9.506742 16.850447
vt 0.321398 0.520133
vt 0.320891 0.975518
vt 0.320891 0.520133
vt 3.046503 8.976308
vt 3.046503 16.850308
vt 3.063392 8.976308
vt 0.33532 0.52014
vt 9.506742 8.976447
vt 0.321425 0.975518
vt 3.064312 16.850308
vt 0.334681 0.975523
vt 0.334081 0.520138
vt 0.334681 0.520138
vt 10.707984 8.9764
vt 10.68976 8.9764
vt 10.707984 16.8504
vt 0.321991 0.520144
vt 0.321457 0.975529
vt 0.321428 0.520144
vt -0.148425 8.976496
vt -0.147506 16.850496
vt -0.130484 8.976496
vt 0.334081 0.975523
vt 10.68976 16.8504
vt 0.321991 0.975529
vt -0.130484 16.850496
vt 0.333472 0.520138
vt 10.910419 8.9764
vt 10.892752 8.9764
vt 10.910419 16.8504
vt 0.323273 0.520138
vt 0.323873 0.975523
vt 0.323273 0.975523
vt -3.415728 16.8504
vt -3.397504 16.8504
vt -3.415728 8.9764
vt 0.333472 0.975523
vt 10.892752 16.8504
vt 0.323873 0.520138
vt -3.397504 8.9764
vt 0.332881 0.520138
vt 10.170473 8.9764
vt 10.154065 8.9764
vt 10.170473 16.8504
vt 0.324482 0.975523
vt -6.382947 16.8504
vt -6.365281 16.8504
vt -6.382947 8.9764
vt 0.332881 0.975523
vt 10.154065 16.8504
vt 0.324482 0.520138
vt -6.365281 8.9764
vt 0.332267 0.520138
vt 8.657792 8.9764
vt 8.641384 8.9764
vt 8.657792 16.8504
vt 0.325073 0.975523
vt -8.657791 16.8504
vt -8.641382 16.8504
vt -8.657791 8.9764
vt 0.332267 0.975523
vt 8.641384 16.8504
vt 0.325073 0.520138
vt -8.641382 8.9764
vt 0.331577 0.520138
vt 6.382945 8.9764
vt 6.365279 8.9764
vt 6.382945 16.8504
vt 0.325687 0.975523
vt -10.170475 16.8504
vt -10.154066 16.8504
vt -10.170475 8.9764
vt 0.331577 0.975523
vt 6.365279 16.8504
vt 0.325687 0.520138
vt -10.154066 8.9764
vt 0.33083 0.520138
vt 3.415727 8.9764
vt 3.397502 8.9764
vt 3.415727 16.8504
vt 0.326378 0.975523
vt -10.910417 16.8504
vt -10.892751 16.8504
vt -10.910417 8.9764
vt 0.33083 0.975523
vt 3.397502 16.8504
vt 0.326378 0.520138
vt -10.892751 8.9764
vt 0.331837 0.975518
vt 0.332569 0.520133
vt 0.332569 0.975518
vt 0.147993 16.850305
vt 0.147993 8.976305
vt 0.130971 16.850305
vt 0.327124 0.975523
vt -10.707982 16.8504
vt -10.689758 16.8504
vt -10.707982 8.9764
vt 0.331798 0.520133
vt 0.130052 8.976305
vt 0.327124 0.520138
vt -10.689758 8.9764
vt 0.331338 0.975528
vt 0.332156 0.520143
vt 0.332201 0.975528
vt -3.046066 16.85049
vt -3.046986 8.97649
vt -3.063875 16.85049
vt 0.326266 0.520135
vt 0.326998 0.97552
vt 0.326266 0.97552
vt -9.524251 16.850353
vt -9.507229 16.850353
vt -9.524251 8.976353
vt 0.331338 0.520143
vt -3.063875 8.97649
vt 0.327037 0.520135
vt -9.50631 8.976353
vt 0.328977 0.975523
vt 0.329241 0.520138
vt 0.329241 0.975523
vt -5.007946 16.8504
vt -5.007946 8.9764
vt -5.013258 16.8504
vt 0.327126 0.520142
vt 0.326264 0.975527
vt 0.326308 0.520142
vt -7.534451 8.976468
vt -7.53537 16.850468
vt -7.517562 8.976468
vt 0.328977 0.520138
vt -5.013258 8.9764
vt 0.327126 0.975527
vt -7.517562 16.850468
vt 0.328713 0.975523
vt -5.863006 16.8504
vt -5.863006 8.9764
vt -5.868318 16.8504
vt 0.328713 0.520138
vt -5.868318 8.9764
vn 1 0 0
vn 0.9900320841507507 0.00000400000033996077 0.14084201197128984
vn -0.9900320841507507 -0.00000400000033996077 -0.14084201197128984
vn -1 0 0
vn 0.9266581769968254 0 0.3759050717999431
vn -0.9266581769968254 0 -0.3759050717999431
vn 0.9900320841507507 0.000004000000340023317 -0.14084201197128984
vn -0.9900320841507507 -0.000004000000340023317 0.14084201197128984
vn 0.774414982991911 -0.000003999999912290485 0.6326779861048099
vn -0.774414982991911 0.000003999999912290485 -0.6326779861048099
vn 0.9266581769968254 0 -0.3759050717999431
vn -0.9266581769968254 0 0.3759050717999431
vn 0.5491981202557288 0 0.8356921829881946
vn -0.5491981202557288 0 -0.8356921829881946
vn 0.774414982991911 -0.00000399999991200952 -0.6326779861048099
vn -0.774414982991911 0.00000399999991200952 0.6326779861048099
vn 0.28032596141299393 0 0.9599048678686241
vn -0.28032596141299393 0 -0.9599048678686241
vn 0.5491981202557288 0 -0.8356921829881946
vn -0.5491981202557288 0 0.8356921829881946
vn 0 0 1
vn 0 0 -1
vn 0.28032596141299393 0 -0.9599048678686241
vn -0.28032596141299393 0 0.9599048678686241
vn -0.774414982991911 -0.000003999999912290485 0.6326779861048099
vn 0.774414982991911 0.000003999999912290485 -0.6326779861048099
vn -0.774414982991911 -0.00000399999991200952 -0.6326779861048099
vn 0.774414982991911 0.00000399999991200952 0.6326779861048099
vn -0.9900320841507507 0.00000400000033996077 0.14084201197128984
vn 0.9900320841507507 -0.00000400000033996077 -0.14084201197128984
vn -0.9900320841507507 0.000004000000340023317 -0.14084201197128984
vn 0.9900320841507507 -0.000004000000340023317 0.14084201197128984
usemtl material_0_0
f 1/1/1 2/2/2 3/3/2
f 2/2/2 1/1/1 4/4/1
f 3/5/3 2/6/3 1/7/4
f 4/8/4 1/7/4 2/6/3
f 2/9/2 5/10/5 3/11/2
f 3/12/3 5/13/6 2/14/3
f 6/15/7 4/16/1 1/17/1
f 1/18/4 4/19/4 6/20/8
f 5/10/5 2/9/2 7/21/5
f 7/22/6 2/14/3 5/13/6
f 4/16/1 6/15/7 8/23/7
f 8/24/8 6/20/8 4/19/4
f 9/25/9 5/26/5 7/27/5
f 7/28/6 5/29/6 9/30/10
f 10/31/11 8/32/7 6/33/7
f 6/34/8 8/35/8 10/36/12
f 5/26/5 9/25/9 11/37/9
f 11/38/10 9/30/10 5/29/6
f 8/32/7 10/31/11 12/39/11
f 12/40/12 10/36/12 8/35/8
f 9/41/9 13/42/13 11/43/9
f 11/44/10 13/45/14 9/46/10
f 14/47/15 12/48/11 10/49/11
f 10/50/12 12/51/12 14/52/16
f 13/42/13 9/41/9 15/53/13
f 15/54/14 9/46/10 13/45/14
f 12/48/11 14/47/15 16/55/15
f 16/56/16 14/52/16 12/51/12
f 15/53/13 17/57/17 13/42/13
f 13/58/14 17/59/18 15/60/14
f 14/61/15 18/62/19 16/63/15
f 16/64/16 18/65/20 14/66/16
f 17/57/17 15/53/13 19/67/17
f 19/68/18 15/60/14 17/59/18
f 18/62/19 14/61/15 20/69/19
f 20/70/20 14/66/16 18/65/20
f 19/67/17 21/71/21 17/57/17
f 17/72/18 21/73/22 19/74/18
f 20/69/19 22/75/23 18/62/19
f 18/76/20 22/77/24 20/78/20
f 21/71/21 19/67/17 23/79/21
f 23/80/22 19/74/18 21/73/22
f 22/75/23 20/69/19 24/81/23
f 24/82/24 20/78/20 22/77/24
f 23/79/21 25/83/24 21/71/21
f 21/84/22 25/85/23 23/86/22
f 24/81/23 26/87/22 22/75/23
f 22/88/24 26/89/21 24/90/24
f 25/83/24 23/79/21 27/91/24
f 27/92/23 23/86/22 25/85/23
f 26/87/22 24/81/23 28/93/22
f 28/94/21 24/90/24 26/89/21
f 27/91/24 29/95/20 25/83/24
f 25/96/23 29/97/19 27/98/23
f 28/93/22 30/99/18 26/87/22
f 26/100/21 30/101/17 28/102/21
f 29/95/20 27/91/24 31/103/20
f 31/104/19 27/98/23 29/97/19
f 30/99/18 28/93/22 32/105/18
f 32/106/17 28/102/21 30/101/17
f 31/103/20 33/107/25 29/95/20
f 29/108/19 33/109/26 31/110/19
f 32/105/18 34/111/14 30/99/18
f 30/112/17 34/113/13 32/114/17
f 33/107/25 31/103/20 35/115/25
f 35/116/26 31/110/19 33/109/26
f 34/111/14 32/105/18 36/117/14
f 36/118/13 32/114/17 34/113/13
f 37/119/12 33/120/25 35/121/25
f 35/122/26 33/123/26 37/124/11
f 36/117/14 38/125/27 34/111/14
f 34/126/13 38/127/28 36/128/13
f 33/120/25 37/119/12 39/129/12
f 39/130/11 37/124/11 33/123/26
f 38/125/27 36/117/14 40/131/27
f 40/132/28 36/128/13 38/127/28
f 41/133/29 39/134/12 37/135/12
f 37/136/11 39/137/11 41/138/30
f 40/139/27 42/140/6 38/141/27
f 38/142/28 42/143/5 40/144/28
f 39/134/12 41/133/29 43/145/29
f 43/146/30 41/138/30 39/137/11
f 42/140/6 40/139/27 44/147/6
f 44/148/5 40/144/28 42/143/5
f 45/149/4 43/150/29 41/151/29
f 41/152/30 43/153/30 45/154/1
f 46/155/31 42/156/6 44/157/6
f 44/158/5 42/159/5 46/160/32
f 43/150/29 45/149/4 47/161/4
f 47/162/1 45/154/1 43/153/30
f 42/156/6 46/155/31 48/163/31
f 48/164/32 46/160/32 42/159/5
f 48/165/31 47/161/4 45/149/4
f 45/166/1 47/167/1 48/168/32
f 47/161/4 48/165/31 46/169/31
f 46/170/32 48/168/32 47/167/1
