# SSTK version 0.8.0
# 171
mtllib original-171.mtl
o mesh170/mesh170-geometry#mesh170-geometry
v 0.419801 0.659827 0.534599
v 0.412848 0.659827 0.534599
v 0.416324 0.659136 0.534599
v 0.422749 0.661797 0.534599
v 0.409900 0.661797 0.534599
v 0.424718 0.664744 0.534599
v 0.407931 0.664744 0.534599
v 0.425410 0.668221 0.534599
v 0.407239 0.668221 0.534599
v 0.424718 0.671698 0.534599
v 0.407931 0.671698 0.534599
v 0.422749 0.674645 0.534599
v 0.409900 0.674645 0.534599
v 0.419801 0.676615 0.534599
v 0.412848 0.676615 0.534599
v 0.416324 0.677306 0.534599
vt 1.052252 1.908791
vt 1.044599 1.90879
vt 1.048425 1.907924
vt 1.055495 1.911259
vt 8.828762 32.972414
vt 8.753431 32.987399
vt 8.904093 32.987399
vt 8.967956 33.03007
vt 1.041355 1.911258
vt 8.689568 33.03007
vt 1.057663 1.914952
vt 9.010628 33.093934
vt 1.039188 1.914952
vt 8.646896 33.093934
vt 1.058424 1.919309
vt 9.025612 33.169264
vt 1.038427 1.919308
vt 8.631912 33.169264
vt 1.057663 1.923665
vt 9.010628 33.244594
vt 1.039188 1.923665
vt 8.646896 33.244594
vt 1.055495 1.927359
vt 8.967956 33.308457
vt 1.041356 1.927359
vt 8.689568 33.308457
vt 1.052252 1.929827
vt 8.904093 33.351129
vt 1.044599 1.929827
vt 8.753431 33.351129
vt 1.048426 1.930693
vt 8.828762 33.366114
vn 0 0 1
vn 0 0 -1
usemtl material_0_0
f 1/1/1 2/2/1 3/3/1
f 2/2/1 1/1/1 4/4/1
f 3/5/2 2/6/2 1/7/2
f 4/8/2 1/7/2 2/6/2
f 2/2/1 4/4/1 5/9/1
f 5/10/2 4/8/2 2/6/2
f 5/9/1 4/4/1 6/11/1
f 6/12/2 4/8/2 5/10/2
f 5/9/1 6/11/1 7/13/1
f 7/14/2 6/12/2 5/10/2
f 7/13/1 6/11/1 8/15/1
f 8/16/2 6/12/2 7/14/2
f 7/13/1 8/15/1 9/17/1
f 9/18/2 8/16/2 7/14/2
f 9/17/1 8/15/1 10/19/1
f 10/20/2 8/16/2 9/18/2
f 9/17/1 10/19/1 11/21/1
f 11/22/2 10/20/2 9/18/2
f 11/21/1 10/19/1 12/23/1
f 12/24/2 10/20/2 11/22/2
f 11/21/1 12/23/1 13/25/1
f 13/26/2 12/24/2 11/22/2
f 13/25/1 12/23/1 14/27/1
f 14/28/2 12/24/2 13/26/2
f 13/25/1 14/27/1 15/29/1
f 15/30/2 14/28/2 13/26/2
f 15/29/1 14/27/1 16/31/1
f 16/32/2 14/28/2 15/30/2
