# SSTK version 0.8.0
# 50
mtllib original-50.mtl
o mesh49/mesh49-geometry#mesh49-geometry
v -0.483007 -0.124040 0.493715
v -0.476598 -0.124018 0.493715
v -0.482435 -0.124109 0.493715
v -0.483041 -0.025769 0.493715
v -0.469703 -0.069486 0.493715
v -0.468674 -0.069429 0.493715
v 0.485489 -0.124006 0.493715
v -0.468638 -0.060410 0.493715
v 0.486557 -0.123935 0.493715
v -0.483907 -0.024401 0.493715
v 0.485475 -0.123613 0.493715
v -0.483060 -0.024808 0.493715
v 0.485439 -0.069495 0.493715
vt 1.1413 0.926527
vt 1.134246 0.926554
vt 1.14067 0.926441
vt 1.141337 1.049669
vt 10.644821 16.00172
vt 10.518342 16.003684
vt 10.657211 16.003213
vt 10.657939 18.132456
vt 1.126658 0.994888
vt 10.368942 17.185229
vt 1.125526 0.994959
vt 10.346648 17.186465
vt 0.075458 0.926569
vt -10.327359 16.003945
vt 1.125487 1.006262
vt 10.345877 17.381895
vt 0.074283 0.926658
vt -10.350495 16.005478
vt 0.058663 1.04967
vt 0.05771 1.051384
vt 0.074514 1.006261
vt -10.345877 17.381895
vt -10.676708 18.16211
vt -10.657939 18.132456
vt 0.075474 0.927062
vt -10.327053 16.012467
vt 0.058643 1.050874
vt -10.658346 18.153286
vt 0.075514 0.994877
vt -10.326271 17.185045
vn 0 0 -1
vn 0 0 1
usemtl material_0_0
f 1/1/1 2/2/1 3/3/1
f 2/2/1 1/1/1 4/4/1
f 3/5/2 2/6/2 1/7/2
f 4/8/2 1/7/2 2/6/2
f 2/2/1 4/4/1 5/9/1
f 5/10/2 4/8/2 2/6/2
f 5/9/1 4/4/1 6/11/1
f 6/12/2 4/8/2 5/10/2
f 2/2/1 5/9/1 7/13/1
f 7/14/2 5/10/2 2/6/2
f 6/11/1 4/4/1 8/15/1
f 8/16/2 4/8/2 6/12/2
f 7/13/1 5/9/1 9/17/1
f 9/18/2 5/10/2 7/14/2
f 4/19/2 10/20/2 8/21/2
f 8/22/1 10/23/1 4/24/1
f 9/17/1 5/9/1 11/25/1
f 11/26/2 5/10/2 9/18/2
f 10/20/2 4/19/2 12/27/2
f 12/28/1 4/24/1 10/23/1
f 11/25/1 5/9/1 13/29/1
f 13/30/2 5/10/2 11/26/2
