# SSTK version 0.8.0
# 274
mtllib original-274.mtl
o mesh273/mesh273-geometry#mesh273-geometry
v 0.013851 -0.562820 -0.472947
v -0.404067 -0.671842 -0.472947
v 0.013851 -0.671842 -0.472947
v -0.404067 -0.562820 -0.472947
v 0.013853 -0.671842 -0.491120
v -0.404067 -0.562820 -0.491117
v 0.013851 -0.562820 -0.491117
v -0.404067 -0.671842 -0.491117
vt 0.605499 0.376692
vt 0.145576 0.240076
vt 0.605499 0.240076
vt 0.145576 0.376692
vt 0.108307 4.133889
vt -8.946793 4.133889
vt 0.108307 6.49609
vt -8.946793 6.49609
vt 1.188494 0.240076
vt 1.168891 0.376692
vt 1.168891 0.240076
vt 11.426446 4.133888
vt 11.426446 6.496089
vt 11.820192 4.133888
vt 0.605499 1.94815
vt 0.145576 1.980819
vt 0.145576 1.948151
vt -8.946793 11.42644
vt -8.946793 11.82014
vt 0.108307 11.42644
vt 0.011508 0.376692
vt 0.03111 0.240076
vt 0.03111 0.376692
vt -11.42644 6.49609
vt -11.42644 4.133889
vt -11.82014 6.49609
vt 1.188492 0.376692
vt 11.820146 6.496089
vt 0.605499 1.980819
vt 0.108307 11.82014
vt 0.011508 0.240076
vt -11.82014 4.133889
vn 0 0 1
vn 0 0 -1
vn 0.9999999985015 0.000008999999986513487 0.000053999999919081
vn -0.9999999985015 -0.000008999999986513487 -0.000053999999919081
vn 0 1 0
vn 0 -1 0
vn -1 0 0
vn 1 0 0
usemtl material_0_0
f 1/1/1 2/2/1 3/3/1
f 2/2/1 1/1/1 4/4/1
f 3/5/2 2/6/2 1/7/2
f 4/8/2 1/7/2 2/6/2
f 5/9/3 1/10/3 3/11/3
f 3/12/4 1/13/4 5/14/4
f 1/15/5 6/16/5 4/17/5
f 4/18/6 6/19/6 1/20/6
f 6/21/7 2/22/7 4/23/7
f 4/24/8 2/25/8 6/26/8
f 1/10/3 5/9/3 7/27/3
f 7/28/4 5/14/4 1/13/4
f 6/16/5 1/15/5 7/29/5
f 7/30/6 1/20/6 6/19/6
f 2/22/7 6/21/7 8/31/7
f 8/32/8 6/26/8 2/25/8
