# SSTK version 0.8.0
# 45
mtllib original-45.mtl
o mesh44/mesh44-geometry#mesh44-geometry
v -0.419642 -0.078914 0.351920
v -0.419316 -0.078580 0.357354
v -0.419578 -0.078580 0.351920
v -0.418700 -0.078914 0.362193
v -0.419845 -0.079222 0.351920
v -0.418516 -0.078580 0.362816
v -0.420152 -0.079425 0.351920
v -0.417170 -0.078580 0.368226
v -0.418039 -0.079489 0.368488
v -0.417069 -0.078914 0.368771
v -0.420220 -0.079489 0.357442
v -0.415286 -0.078580 0.373501
v -0.420487 -0.079489 0.351920
v -0.419407 -0.079489 0.362992
v -0.414576 -0.078914 0.375294
v -0.411214 -0.078914 0.381596
v -0.412887 -0.078580 0.378564
v -0.407419 -0.079489 0.388346
v -0.416125 -0.079489 0.373849
v -0.407015 -0.078914 0.387506
v -0.410014 -0.078580 0.383341
v -0.413688 -0.079489 0.378993
v -0.402059 -0.078914 0.392862
v -0.410769 -0.079489 0.383847
v -0.406718 -0.078580 0.387769
v -0.403061 -0.078580 0.391797
v -0.396463 -0.078914 0.397527
v -0.399032 -0.078580 0.395454
v -0.390257 -0.079489 0.402425
v -0.403703 -0.079489 0.392439
v -0.390376 -0.078914 0.401398
v -0.394604 -0.078580 0.398751
v -0.399610 -0.079489 0.396156
v -0.383966 -0.078914 0.404414
v -0.395111 -0.079489 0.399505
v -0.384765 -0.078580 0.404022
v -0.377401 -0.078914 0.406559
v -0.389827 -0.078580 0.401624
v -0.379489 -0.078580 0.405906
v -0.368705 -0.079489 0.408957
v -0.385113 -0.079489 0.404861
v -0.370845 -0.078914 0.407856
v -0.374080 -0.078580 0.407252
v -0.379752 -0.079489 0.406776
v -0.363183 -0.079222 0.408581
v -0.374255 -0.079489 0.408143
v -0.363183 -0.078914 0.408379
v -0.363183 -0.079425 0.408889
v -0.368618 -0.078580 0.408052
v -0.363183 -0.079489 0.409223
v -0.363183 -0.078580 0.408315
vt 0.920936 0.983073
vt 0.926798 0.983492
vt 0.920936 0.983492
vt 5.990804 14.894255
vt 6.108692 14.894256
vt 5.990738 14.886879
vt 0.932018 0.983073
vt 5.688782 19.605998
vt 5.794409 19.597853
vt 5.570879 19.597853
vt 0.920936 0.982687
vt 5.570879 8.826748
vt 5.794409 8.826748
vt 5.570478 8.818774
vt 0.93269 0.983492
vt 5.269272 13.70644
vt 5.255338 13.698927
vt 5.149665 13.70644
vt 0.920924 0.982334
vt 5.821787 1.231005
vt 5.822225 1.238978
vt 6.045969 1.251113
vt 0.938526 0.983492
vt 4.248464 16.043653
vt 4.369245 16.043653
vt 4.234402 16.036381
vt 0.938831 0.982805
vt 5.43323 13.944462
vt 5.570338 13.931618
vt 5.208437 13.933045
vt 0.939114 0.983073
vt 4.378222 15.854796
vt 4.390221 15.847514
vt 4.243379 15.847514
vt 0.92685 0.981824
vt 4.640715 -9.4251
vt 4.523618 -9.400448
vt 4.884681 -9.4251
vt 4.379211 0.442778
vt 4.243379 0.465436
vt 4.390221 0.465436
vt 0.944217 0.983492
vt 3.420138 13.6178
vt 3.310627 13.610305
vt 3.29876 13.6178
vt 0.920906 0.982032
vt 6.109666 -6.25016
vt 5.989879 -6.250161
vt 5.990229 -6.242793
vt 0.932853 0.982092
vt -9.279176 -6.685989
vt -9.296794 -6.565739
vt -9.249541 -6.805084
vt 0.946151 0.983073
vt 3.055465 0.831188
vt 3.068697 0.852624
vt 3.219997 0.852624
vt 3.178223 17.694467
vt 3.219997 17.687204
vt 3.068697 17.687204
vt 0.952949 0.983073
vt 1.814995 19.287704
vt 1.969757 19.287704
vt 1.649571 19.274855
vt 0.949678 0.983492
vt 2.435331 11.900429
vt 2.35564 11.892681
vt 2.313953 11.900429
vt 0.960813 0.9898
vt 1.958921 19.437413
vt 2.12667 19.424484
vt 1.638739 19.424484
vt 1.894726 18.460901
vt 1.969757 18.453577
vt 1.814995 18.453577
vt 0.944695 0.983955
vt -9.019432 -7.235349
vt -9.208061 -6.921233
vt 0.959324 0.983073
vt 0.674729 0.32223
vt 0.507877 0.343848
vt 0.664949 0.343848
vt 0.954831 0.983492
vt 1.429323 11.742058
vt 1.383528 11.734294
vt 1.308542 11.742058
vt 0.950366 0.985524
vt -9.155262 -7.032693
vt 0.553751 18.024024
vt 0.664949 18.016744
vt 0.507877 18.016744
vt 0.965102 0.983073
vt -0.814899 -0.252201
vt -0.822325 -0.229665
vt -0.664203 -0.229665
vt 0.955763 0.987484
vt -9.092004 -7.137861
vt 0.959608 0.983492
vt 0.41704 13.771563
vt 0.408619 13.764105
vt 0.297433 13.771563
vt 0.963953 0.983492
vt -0.695881 17.384499
vt -0.664203 17.377248
vt -0.822325 17.377248
vt 0.970616 0.983613
vt -1.984896 17.661907
vt -2.294616 17.649443
vt -2.142754 17.661907
vt -0.704683 15.362492
vt -0.586795 15.362492
vt -0.713236 15.355185
vt 0.968245 0.983471
vt -1.576439 12.340252
vt -1.662746 12.332587
vt -1.694327 12.340252
vt 0.977196 1.002191
vt -1.903695 19.276995
vt -2.384663 19.276995
vt -2.07496 19.289851
vt 0.151116 0.983492
vt 0.147785 0.983073
vt 0.153943 0.983073
vt -1.984896 18.541117
vt -2.142754 18.541117
vt -2.056418 18.548453
vt 0.965463 0.99242
vt -8.647569 -7.540386
vt -8.938915 -7.324038
vt 0.975799 0.984672
vt -3.420799 0.95556
vt -3.264504 0.95556
vt -3.250386 0.934196
vt 0.155989 0.983492
vt -2.557089 11.825886
vt -2.605219 11.818121
vt -2.676696 11.825886
vt 0.969748 0.995354
vt -8.850225 -7.404556
vt 0.980599 0.986214
vt -4.614865 0.499343
vt -4.626675 0.522064
vt -4.473168 0.522064
vt 0.160642 0.983073
vt -3.264504 18.020983
vt -3.420799 18.020983
vt -3.372593 18.028268
vt 0.973683 0.998623
vt -8.752738 -7.477128
vt 0.166817 0.983492
vt 0.167697 0.983073
vt -4.473168 16.495754
vt -4.626675 16.495754
vt -4.492459 16.503008
vt 0.98498 0.988185
vt -5.585839 15.823439
vt -5.878426 15.810928
vt -5.735465 15.823439
vt 0.161246 0.983492
vt -3.52474 13.579402
vt -3.537448 13.5719
vt -3.645521 13.579402
vt -4.464696 15.934604
vt -4.598911 15.927326
vt -4.586073 15.934604
vt 0.172623 0.983492
vt -5.362689 13.376397
vt -5.464898 13.368829
vt -5.484067 13.376397
vt 0.986113 1.018411
vt -5.600656 19.358977
vt -6.088588 19.358977
vt -5.796039 19.37236
vt 0.174921 0.983073
vt -5.585839 17.736393
vt -5.735465 17.736393
vt -5.633235 17.743664
vt 0.980236 1.006009
vt -8.180615 -7.681918
vt -8.536109 -7.593185
vt 0.988925 0.990523
vt -6.728875 4.213348
vt -6.584055 4.213348
vt -6.53396 4.194327
vt 0.178576 0.983492
vt -6.205498 12.440732
vt -6.278962 12.432962
vt -6.32628 12.440732
vt 0.982755 1.010025
vt -8.419961 -7.634664
vt 0.993336 0.993367
vt -8.020551 1.20926
vt -8.067381 1.235302
vt -7.901097 1.221331
vt 0.182137 0.983073
vt -6.584055 17.841089
vt -6.728875 17.841089
vt -6.655361 17.848375
vt 0.98472 1.01418
vt -8.300865 -7.664299
vt 0.993078 0.993714
vt -7.520742 9.707685
vt -7.520444 9.699706
vt -7.687123 9.707685
vt 0.993587 0.993057
vt -8.020053 2.86277
vt -8.139691 2.860253
vt -8.020089 2.870754
vt 0.184587 0.983492
vt -6.98158 12.698898
vt -7.029932 12.691132
vt -7.101187 12.698898
vt 0.190568 0.983073
vt -7.520742 17.906941
vt -7.687123 17.906941
vt -7.6387 17.91425
vt 0.986953 1.022654
vt -7.68077 -4.742292
vt -7.800556 -4.742292
vt -7.681119 -4.734924
vt 0.190568 0.983492
vt -7.681699 15.181587
vt -7.681632 15.174211
vt -7.799586 15.181587
vn -0.9811830498740262 0.18717500951419952 0.04738500240860345
vn 0.9811830498740262 -0.18717500951419952 -0.04738500240860345
vn -0.8859521025206113 -0.45659805283661653 0.08128400940602344
vn 0.8859521025206113 0.45659805283661653 -0.08128400940602344
vn -0.7057789706106585 0.7060959705974582 0.05748499760626742
vn -0.8333468678553643 0.5474369131923881 0.07645798787598149
vn 0.8333468678553643 -0.5474369131923881 -0.07645798787598149
vn 0.7057789706106585 -0.7060959705974582 -0.05748499760626742
vn -0.9542511492859241 0.26430804134914615 0.1398070218718317
vn -0.9667082818873426 0.14963904363400327 0.2075650605249427
vn -0.965841933319724 0.17485298792841236 0.19124798679652635
vn 0.965841933319724 -0.17485298792841236 -0.19124798679652635
vn 0.9667082818873426 -0.14963904363400327 -0.2075650605249427
vn 0.9542511492859241 -0.26430804134914615 -0.1398070218718317
vn -0.5487042427487311 0.8352363695115749 0.03610901597475877
vn 0.5487042427487311 -0.8352363695115749 -0.03610901597475877
vn -0.9517533375117804 0.1466700520122897 0.26954309558565914
vn 0.9517533375117804 -0.1466700520122897 -0.26954309558565914
vn -0.9605637479514675 0.2491439346255121 0.12346896760217936
vn 0.9605637479514675 -0.2491439346255121 -0.12346896760217936
vn -0.9457748997890072 0.09674198974955782 0.3100819671448018
vn 0.9457748997890072 -0.09674198974955782 -0.3100819671448018
vn -0.027502999252495993 0.9996069728316824 0.005429999852418257
vn -0.12141902902576876 0.9925512372738681 0.009973002384091604
vn -0.08102002084139029 0.9966902563861428 0.006655001711916445
vn 0.08102002084139029 -0.9966902563861428 -0.006655001711916445
vn 0.12141902902576876 -0.9925512372738681 -0.009973002384091604
vn 0.027502999252495993 -0.9996069728316824 -0.005429999852418257
vn -0.5378628840617853 0.8257668220030905 0.16974296341131426
vn -0.5328508474357657 0.8358327606869057 0.1321119621741049
vn 0.5378628840617853 -0.8257668220030905 -0.16974296341131426
vn 0.5328508474357657 -0.8358327606869057 -0.1321119621741049
vn -0.9118625840494177 0.18394591609216968 0.3669748326026334
vn 0.9118625840494177 -0.18394591609216968 -0.3669748326026334
vn -0.18731408023825122 0.9822584207622717 0.00904600387496536
vn 0.18731408023825122 -0.9822584207622717 -0.00904600387496536
vn 0 1 0
vn 0 -1 0
vn -0.5420459537184923 0.8144269304617883 0.20711098231624392
vn 0.5420459537184923 -0.8144269304617883 -0.20711098231624392
vn -0.9015710479847681 -0.02815400149845463 0.4317140229773319
vn 0.9015710479847681 0.02815400149845463 -0.4317140229773319
vn -0.8513129435809391 -0.2616409826602678 0.4547639698614283
vn -0.8615988263934543 -0.08361898315132023 0.5006548991213021
vn 0.8615988263934543 0.08361898315132023 -0.5006548991213021
vn 0.8513129435809391 0.2616409826602678 -0.4547639698614283
vn -0.8647979566087635 0.19499499021612648 0.4627109767834772
vn 0.8647979566087635 -0.19499499021612648 -0.4627109767834772
vn -0.8484038809345835 -0.2726519617358902 0.4537309363231779
vn 0.8484038809345835 0.2726519617358902 -0.4537309363231779
vn -0.43742597519094906 0.8265099531236628 0.3543159799046156
vn -0.46905689413527807 0.8178888154049687 0.33323192479056285
vn 0.43742597519094906 -0.8265099531236628 -0.3543159799046156
vn 0.46905689413527807 -0.8178888154049687 -0.33323192479056285
vn -0.8129975243803275 0.16980990065784085 0.5569556741698868
vn 0.8129975243803275 -0.16980990065784085 -0.5569556741698868
vn -0.7726702895377695 0.05901702211506909 0.6320582368471191
vn 0.7726702895377695 -0.05901702211506909 -0.6320582368471191
vn -0.40513081535053186 0.833874619938797 0.37486282914599595
vn 0.40513081535053186 -0.833874619938797 -0.37486282914599595
vn -0.7587781861708036 0.18335204498652977 0.6250101533500101
vn 0.7587781861708036 -0.18335204498652977 -0.6250101533500101
vn -0.6726489927370726 0.01823499980310743 0.7397369920126898
vn -0.709698990076634 0.1415419980208889 0.6901399903501176
vn 0.709698990076634 -0.1415419980208889 -0.6901399903501176
vn 0.6726489927370726 -0.01823499980310743 -0.7397369920126898
vn -0.6292630893736136 -0.158622022528929 0.7608331080603731
vn -0.6303479195332566 -0.15774597986301725 0.760116902967663
vn 0.6303479195332566 0.15774597986301725 -0.760116902967663
vn 0.6292630893736136 0.158622022528929 -0.7608331080603731
vn -0.6535330993507629 0.08761301331901875 0.751810114290934
vn 0.6535330993507629 -0.08761301331901875 -0.751810114290934
vn -0.6136300349333453 -0.25271101438658594 0.7480610425863683
vn 0.6136300349333453 0.25271101438658594 -0.7480610425863683
vn -0.27299601882334923 0.825629056927951 0.493771034046008
vn -0.31246315240112765 0.8130073965371373 0.4913102396322063
vn 0.31246315240112765 -0.8130073965371373 -0.4913102396322063
vn 0.27299601882334923 -0.825629056927951 -0.493771034046008
vn -0.5572292381428318 0.3594161536035345 0.7485423199042255
vn -0.5613488882817587 0.1319969737302947 0.8169848374057362
vn -0.5409957219488283 0.17568190970619738 0.822471577280972
vn 0.5409957219488283 -0.17568190970619738 -0.822471577280972
vn 0.5613488882817587 -0.1319969737302947 -0.8169848374057362
vn 0.5572292381428318 -0.3594161536035345 -0.7485423199042255
vn -0.23305892808711517 0.8368287417873264 0.49537984714512284
vn 0.23305892808711517 -0.8368287417873264 -0.49537984714512284
vn -0.47557902546749536 0.07437700398292567 0.8765230469382488
vn 0.47557902546749536 -0.07437700398292567 -0.8765230469382488
vn -0.3938431759845303 0.14321306399319642 0.9079524057086358
vn -0.3449760829969433 0.09053202178087519 0.9342352247653442
vn 0.3449760829969433 -0.09053202178087519 -0.9342352247653442
vn 0.3938431759845303 -0.14321306399319642 -0.9079524057086358
vn -0.2979269442538519 -0.13463297480835545 0.9450468231689978
vn -0.26969500785324907 -0.018081000526500877 0.9627760280350756
vn 0.26969500785324907 0.018081000526500877 -0.9627760280350756
vn 0.2979269442538519 0.13463297480835545 -0.9450468231689978
vn -0.464217050387282 0.17719901923362538 0.8678150941948252
vn 0.464217050387282 -0.17719901923362538 -0.8678150941948252
vn -0.291450963774542 0.19297497601446617 0.93691888354708
vn 0.291450963774542 -0.19297497601446617 -0.93691888354708
vn -0.26961011364742715 -0.36886115548423154 0.8895233749564195
vn 0.26961011364742715 0.36886115548423154 -0.8895233749564195
vn -0.0379160137454485 0.8802563191136594 0.47298117146682106
vn -0.06595899162749594 0.7436049056105172 0.6653579155427986
vn -0.1269340441275492 0.7565312630017087 0.6415202230190916
vn 0.1269340441275492 -0.7565312630017087 -0.6415202230190916
vn 0.06595899162749594 -0.7436049056105172 -0.6653579155427986
vn 0.0379160137454485 -0.8802563191136594 -0.47298117146682106
vn -0.18932007710506615 0.21069808581176414 0.9590433905930379
vn 0.18932007710506615 -0.21069808581176414 -0.9590433905930379
vn -0.023765007649838372 0.7720772485278458 0.6350842044304631
vn 0.023765007649838372 -0.7720772485278458 -0.6350842044304631
vn -0.1356330302595968 0.04259200950223557 0.9898432208330574
vn 0.1356330302595968 -0.04259200950223557 -0.9898432208330574
vn -0.05687902166334647 0.5481552087742695 0.8344403178108412
vn 0.05687902166334647 -0.5481552087742695 -0.8344403178108412
vn -0.006097996677443385 0.9268404950013619 0.37540579545626646
vn 0.006097996677443385 -0.9268404950013619 -0.37540579545626646
vn -0.085232001186259 0.14182200197387843 0.9862160137261545
vn 0.085232001186259 -0.14182200197387843 -0.9862160137261545
vn -0.05814600600694791 0.028608002955435505 0.9978981030908625
vn 0.05814600600694791 -0.028608002955435505 -0.9978981030908625
vn -0.009046003874965142 0.9822584207622717 0.18731408023825144
vn 0.009046003874965142 -0.9822584207622717 -0.18731408023825144
vn -0.047385002408603424 0.18717500951419935 0.9811830498740264
vn 0.047385002408603424 -0.18717500951419935 -0.9811830498740264
usemtl material_0_0
f 1/1/1 2/2/1 3/3/1
f 3/4/2 2/5/2 1/6/2
f 1/1/3 4/7/3 2/2/3
f 2/8/4 4/9/4 1/10/4
f 5/11/5 4/7/5 1/1/6
f 1/12/7 4/13/8 5/14/8
f 2/2/9 4/7/10 6/15/11
f 6/16/12 4/17/13 2/18/14
f 4/7/5 5/11/5 7/19/15
f 7/20/16 5/21/8 4/22/8
f 4/7/10 8/23/17 6/15/11
f 6/24/12 8/25/18 4/26/13
f 7/19/19 9/27/19 4/7/19
f 4/28/20 9/29/20 7/30/20
f 4/7/10 10/31/21 8/23/17
f 8/32/18 10/33/22 4/34/13
f 9/27/23 7/19/24 11/35/25
f 11/36/26 7/37/27 9/38/28
f 10/31/29 4/7/30 9/27/29
f 9/39/31 4/40/32 10/41/31
f 8/23/17 10/31/21 12/42/33
f 12/43/34 10/44/22 8/45/18
f 7/19/24 13/46/35 11/35/25
f 11/47/26 13/48/36 7/49/27
f 9/27/23 11/35/25 14/50/37
f 14/51/38 11/52/26 9/53/28
f 15/54/39 10/31/29 9/27/29
f 9/55/31 10/56/31 15/57/40
f 10/31/21 15/54/41 12/42/33
f 12/58/34 15/59/42 10/60/22
f 9/27/43 16/61/44 15/54/41
f 15/62/42 16/63/45 9/64/46
f 12/42/33 15/54/41 17/65/47
f 17/66/48 15/67/42 12/68/34
f 9/27/43 18/69/49 16/61/44
f 16/70/45 18/71/50 9/72/46
f 15/54/41 16/61/44 17/65/47
f 17/73/48 16/74/45 15/75/42
f 19/76/37 18/69/37 9/27/37
f 9/53/38 18/77/38 19/78/38
f 20/79/51 16/61/52 18/69/51
f 18/80/53 16/81/54 20/82/53
f 17/65/47 16/61/44 21/83/55
f 21/84/56 16/85/45 17/86/48
f 18/69/37 19/76/37 22/87/37
f 22/88/38 19/78/38 18/77/38
f 16/61/44 20/79/57 21/83/55
f 21/89/56 20/90/58 16/91/45
f 23/92/59 20/79/51 18/69/51
f 18/93/53 20/94/53 23/95/60
f 18/69/37 22/87/37 24/96/37
f 24/97/38 22/88/38 18/77/38
f 21/83/55 20/79/57 25/98/61
f 25/99/62 20/100/58 21/101/56
f 20/79/57 23/92/63 26/102/64
f 26/103/65 23/104/66 20/105/58
f 23/92/63 18/69/67 27/106/68
f 27/107/69 18/108/70 23/109/66
f 20/79/57 26/102/64 25/98/61
f 25/110/62 26/111/65 20/112/58
f 26/102/64 23/92/63 28/113/71
f 28/114/72 23/115/66 26/116/65
f 27/106/68 18/69/67 29/117/73
f 29/118/74 18/119/70 27/120/69
f 28/121/71 23/122/63 27/123/68
f 27/124/69 23/125/66 28/126/72
f 30/127/37 29/117/37 18/69/37
f 18/77/38 29/128/38 30/129/38
f 29/117/75 31/130/75 27/106/76
f 27/131/77 31/132/78 29/133/78
f 28/121/79 27/123/80 32/134/81
f 32/135/82 27/136/83 28/137/84
f 29/117/37 30/127/37 33/138/37
f 33/139/38 30/129/38 29/128/38
f 34/140/85 31/130/75 29/117/75
f 29/141/78 31/142/78 34/143/86
f 32/134/81 27/123/80 31/144/87
f 31/145/88 27/146/83 32/147/82
f 29/117/37 33/138/37 35/148/37
f 35/149/38 33/139/38 29/128/38
f 36/150/89 31/144/87 34/151/90
f 34/152/91 31/153/88 36/154/92
f 34/140/90 29/117/93 37/155/94
f 37/156/95 29/157/96 34/158/91
f 32/134/81 31/144/87 38/159/97
f 38/160/98 31/161/88 32/162/82
f 38/159/97 31/144/87 36/150/89
f 36/163/92 31/164/88 38/165/98
f 36/150/89 34/151/90 39/166/99
f 39/167/100 34/168/91 36/169/92
f 37/155/94 29/117/93 40/170/101
f 40/171/102 29/172/96 37/173/95
f 39/166/99 34/151/90 37/174/94
f 37/175/95 34/176/91 39/177/100
f 41/178/37 40/170/37 29/117/37
f 29/128/38 40/179/38 41/180/38
f 40/170/103 42/181/104 37/155/105
f 37/182/106 42/183/107 40/184/108
f 39/166/99 37/174/94 43/185/109
f 43/186/110 37/187/95 39/188/100
f 40/170/37 41/178/37 44/189/37
f 44/190/38 41/180/38 40/179/38
f 45/191/111 42/181/104 40/170/103
f 40/192/108 42/193/107 45/194/112
f 43/185/109 37/174/94 42/195/113
f 42/196/114 37/197/95 43/198/110
f 40/170/37 44/189/37 46/199/37
f 46/200/38 44/190/38 40/179/38
f 42/181/104 45/191/111 47/201/115
f 47/202/116 45/203/112 42/204/107
f 45/191/111 40/170/103 48/205/117
f 48/206/118 40/207/108 45/208/112
f 43/185/109 42/195/113 49/209/119
f 49/210/120 42/211/114 43/212/110
f 49/209/119 42/195/113 47/213/121
f 47/214/122 42/215/114 49/216/120
f 48/205/117 40/170/103 50/217/123
f 50/218/124 40/219/108 48/220/118
f 49/209/119 47/213/121 51/221/125
f 51/222/126 47/223/122 49/224/120
