# SSTK version 0.8.0
# 17
mtllib original-17.mtl
o mesh17/mesh17-geometry#mesh17-geometry
v 0.011405 0.347615 0.566167
v 0.012886 0.326041 0.544594
v 0.012886 0.347615 0.566167
v 0.011405 0.326041 0.544594
v 0.012886 0.330229 0.540406
v 0.012886 0.351803 0.561979
v 0.011405 0.351803 0.561979
v 0.011405 0.330229 0.540406
vn -0.33333482787893937 0.0000039999979343482535 0.942808513170579
vn 0.4082491582165836 -0.8660253356273179 0.28867411187538483
vn 0.8164976522500497 0.000001999999148063347 0.5773487541046199
vn -0.8164976522500497 -0.000001999999148063347 -0.5773487541046199
vn -0.4082491582165836 0.8660253356273179 -0.28867411187538483
vn 0.33333482787893937 -0.0000039999979343482535 -0.942808513170579
vn -0.6666679737036156 -0.7071039721086378 -0.23570699070265597
vn 0.6666679737036156 0.7071039721086378 0.23570699070265597
vn 0.6666653642293879 -0.2356981287725292 -0.7071093863257832
vn -0.6666653642293879 0.2356981287725292 0.7071093863257832
vn 0.33333216121263876 0.9428094559800041 -0.000004000001934350057
vn -0.33333216121263876 -0.9428094559800041 0.000004000001934350057
vn -0.8164952380357491 0.5773521683175229 -0.000002000000582939057
vn 0.8164952380357491 -0.5773521683175229 0.000002000000582939057
vn -0.4082471379951086 0.2886770975782162 -0.86602529273262
vn 0.4082471379951086 -0.2886770975782162 0.86602529273262
usemtl material_0_0
f 1//1 2//2 3//3
f 3//4 2//5 1//6
f 1//1 4//7 2//2
f 2//5 4//8 1//6
f 5//9 3//3 2//2
f 2//5 3//4 5//10
f 6//11 1//1 3//3
f 3//4 1//6 6//12
f 4//7 1//1 7//13
f 7//14 1//6 4//8
f 5//9 2//2 4//7
f 4//8 2//5 5//10
f 5//9 6//11 3//3
f 3//4 6//12 5//10
f 6//11 7//13 1//1
f 1//6 7//14 6//12
f 8//15 4//7 7//13
f 7//14 4//8 8//16
f 5//9 4//7 8//15
f 8//16 4//8 5//10
f 6//11 5//9 8//15
f 8//16 5//10 6//12
f 6//11 8//15 7//13
f 7//14 8//16 6//12
