# SSTK version 0.8.0
# 7
mtllib original-7.mtl
o mesh5/mesh5-geometry#mesh5-geometry
v 0.117141 -0.728610 -0.195940
v 0.117141 -0.745048 0.173642
v 0.117141 -0.745048 -0.195940
v 0.117141 -0.728610 0.173642
v 0.115675 -0.746514 0.173642
v 0.115675 -0.745048 -0.197406
v 0.115675 -0.727143 -0.195940
v 0.115675 -0.745048 0.175108
v 0.115675 -0.746514 -0.195940
v 0.115675 -0.728610 -0.197406
v 0.115675 -0.727143 0.173642
v 0.115675 -0.728610 0.175108
v -0.104901 -0.746514 -0.195940
v -0.104901 -0.746514 0.173642
v -0.104901 -0.745048 -0.197406
v -0.104901 -0.727143 0.173642
v -0.104901 -0.728610 -0.197406
v -0.104901 -0.728610 0.175108
v -0.104901 -0.745048 0.175108
v -0.104901 -0.727143 -0.195940
v -0.106367 -0.745048 0.173642
v -0.106367 -0.745048 -0.195940
v -0.106367 -0.728610 -0.195940
v -0.106367 -0.728610 0.173642
vn 1 0 0
vn -1 0 0
vn 0.7071067811865475 -0.7071067811865475 0
vn -0.7071067811865475 0.7071067811865475 0
vn 0.7071067811865475 0 -0.7071067811865475
vn -0.7071067811865475 0 0.7071067811865475
vn 0.7071067811865475 0.7071067811865475 0
vn -0.7071067811865475 -0.7071067811865475 0
vn 0.7071242809769496 0 0.7070892809630422
vn -0.7071242809769496 0 -0.7070892809630422
vn 0.5773599356933653 -0.5773599356933653 0.5773309356965953
vn -0.5773599356933653 0.5773599356933653 -0.5773309356965953
vn 0.5773502691896257 -0.5773502691896257 -0.5773502691896257
vn -0.5773502691896257 0.5773502691896257 0.5773502691896257
vn 0.5773502691896257 0.5773502691896257 -0.5773502691896257
vn -0.5773502691896257 -0.5773502691896257 0.5773502691896257
vn 0 -1 0
vn 0 1 0
vn 0 -0.7071242809769496 0.7070892809630422
vn 0 0.7071242809769496 -0.7070892809630422
vn 0 0 -1
vn 0 0 1
vn 0 -0.7071067811865475 -0.7071067811865475
vn 0 0.7071067811865475 0.7071067811865475
vn 0.5773599356933653 0.5773599356933653 0.5773309356965953
vn -0.5773599356933653 -0.5773599356933653 -0.5773309356965953
vn 0 0.7071067811865475 -0.7071067811865475
vn 0 -0.7071067811865475 0.7071067811865475
vn 0 0.7071242809769496 0.7070892809630422
vn 0 -0.7071242809769496 -0.7070892809630422
vn -0.5773599356933653 -0.5773599356933653 0.5773309356965953
vn 0.5773599356933653 0.5773599356933653 -0.5773309356965953
vn -0.7071067811865475 0 -0.7071067811865475
vn 0.7071067811865475 0 0.7071067811865475
vn -0.5773502691896257 -0.5773502691896257 -0.5773502691896257
vn 0.5773502691896257 0.5773502691896257 0.5773502691896257
vn -0.5773599356933653 0.5773599356933653 0.5773309356965953
vn 0.5773599356933653 -0.5773599356933653 -0.5773309356965953
vn -0.5773502691896257 0.5773502691896257 -0.5773502691896257
vn 0.5773502691896257 -0.5773502691896257 0.5773502691896257
vn -0.7071242809769496 0 0.7070892809630422
vn 0.7071242809769496 0 -0.7070892809630422
usemtl material_0_0
f 1//1 2//1 3//1
f 2//1 1//1 4//1
f 3//2 2//2 1//2
f 4//2 1//2 2//2
f 5//3 3//3 2//3
f 2//4 3//4 5//4
f 6//5 1//5 3//5
f 3//6 1//6 6//6
f 7//7 4//7 1//7
f 1//8 4//8 7//8
f 4//9 8//9 2//9
f 2//10 8//10 4//10
f 3//3 5//3 9//3
f 9//4 5//4 3//4
f 2//11 8//11 5//11
f 5//12 8//12 2//12
f 1//5 6//5 10//5
f 10//6 6//6 1//6
f 6//13 3//13 9//13
f 9//14 3//14 6//14
f 4//7 7//7 11//7
f 11//8 7//8 4//8
f 7//15 1//15 10//15
f 10//16 1//16 7//16
f 8//9 4//9 12//9
f 12//10 4//10 8//10
f 5//17 13//17 9//17
f 9//18 13//18 5//18
f 8//19 14//19 5//19
f 5//20 14//20 8//20
f 15//21 10//21 6//21
f 6//22 10//22 15//22
f 13//23 6//23 9//23
f 9//24 6//24 13//24
f 7//18 16//18 11//18
f 11//17 16//17 7//17
f 11//25 12//25 4//25
f 4//26 12//26 11//26
f 17//27 7//27 10//27
f 10//28 7//28 17//28
f 18//22 8//22 12//22
f 12//21 8//21 18//21
f 13//17 5//17 14//17
f 14//18 5//18 13//18
f 14//19 8//19 19//19
f 19//20 8//20 14//20
f 10//21 15//21 17//21
f 17//22 15//22 10//22
f 6//23 13//23 15//23
f 15//24 13//24 6//24
f 16//18 7//18 20//18
f 20//17 7//17 16//17
f 18//29 11//29 16//29
f 16//30 11//30 18//30
f 11//29 18//29 12//29
f 12//30 18//30 11//30
f 7//27 17//27 20//27
f 20//28 17//28 7//28
f 8//22 18//22 19//22
f 19//21 18//21 8//21
f 21//8 13//8 14//8
f 14//7 13//7 21//7
f 14//31 19//31 21//31
f 21//32 19//32 14//32
f 22//33 17//33 15//33
f 15//34 17//34 22//34
f 22//35 15//35 13//35
f 13//36 15//36 22//36
f 23//4 16//4 20//4
f 20//3 16//3 23//3
f 24//37 18//37 16//37
f 16//38 18//38 24//38
f 23//39 20//39 17//39
f 17//40 20//40 23//40
f 18//41 21//41 19//41
f 19//42 21//42 18//42
f 13//8 21//8 22//8
f 22//7 21//7 13//7
f 17//33 22//33 23//33
f 23//34 22//34 17//34
f 16//4 23//4 24//4
f 24//3 23//3 16//3
f 21//41 18//41 24//41
f 24//42 18//42 21//42
f 24//2 22//2 21//2
f 21//1 22//1 24//1
f 22//2 24//2 23//2
f 23//1 24//1 22//1
