# SSTK version 0.8.0
# 47
mtllib original-47.mtl
o Group43/mesh46/mesh46-geometry#mesh46-geometry
v 0.073235 -0.249038 0.729107
v 0.086931 -0.316524 0.882896
v 0.086931 -0.233060 0.738332
v 0.067344 -0.337509 0.870781
v 0.096061 -0.214799 0.748875
v 0.041620 -0.268662 0.717778
v 0.098123 -0.291342 0.897435
v 0.037366 -0.353698 0.861434
v 0.100275 -0.193027 0.761446
v 0.000192 -0.318161 0.785575
v 0.099322 -0.260764 0.915090
v 0.000192 -0.297295 0.749434
v 0.000192 -0.339027 0.821716
v 0.093222 -0.157557 0.781924
v 0.000192 -0.276429 0.713293
v 0.000192 -0.359893 0.857857
v 0.086931 -0.229786 0.932975
v 0.069229 -0.126850 0.799653
v 0.062148 -0.205003 0.947283
v 0.034967 -0.108349 0.810335
v 0.030970 -0.190613 0.955591
v 0.000192 -0.144684 0.885732
v 0.000192 -0.165550 0.921873
v 0.000192 -0.123818 0.849591
v 0.000192 -0.186416 0.958014
v 0.000192 -0.102952 0.813450
vn -0.7279498196049577 0.5934498529357265 0.34337491490741456
vn -0.8660219539934509 0.43444197692070496 0.24751998685074864
vn -0.8660251910477763 0.43301309552399836 0.25000005515076834
vn 0.8660251910477763 -0.43301309552399836 -0.25000005515076834
vn 0.8660219539934509 -0.43444197692070496 -0.24751998685074864
vn 0.7279498196049577 -0.5934498529357265 -0.34337491490741456
vn -0.6364099771754749 0.6684019760280977 0.38499498619234773
vn 0.6364099771754749 -0.6684019760280977 -0.38499498619234773
vn -0.9510531544724434 0.2678610435066638 0.1541050250301255
vn 0.9510531544724434 -0.2678610435066638 -0.1541050250301255
vn -0.35333787879700157 0.8092587224056927 0.4693108390156158
vn 0.35333787879700157 -0.8092587224056927 -0.4693108390156158
vn -0.9821781255886696 0.16455902104175196 0.09081001161164995
vn 0.9821781255886696 -0.16455902104175196 -0.09081001161164995
vn -0.2804620446461955 0.8311061323021335 0.4802120764440063
vn 0.2804620446461955 -0.8311061323021335 -0.4802120764440063
vn -0.9999471140044769 0.007323000834899032 0.007221000823269963
vn 0.9999471140044769 -0.007323000834899032 -0.007221000823269963
vn -0.20051895879225534 0.8475128258314707 0.49144089900620286
vn 0.20051895879225534 -0.8475128258314707 -0.49144089900620286
vn -0.9877359255987942 -0.134064989901555 -0.08002699397196694
vn 0.9877359255987942 0.134064989901555 0.08002699397196694
vn -0.21160391612815943 0.846414664513034 0.4886778063064816
vn 0.21160391612815943 -0.846414664513034 -0.4886778063064816
vn -0.18898204225412163 0.8504201901437707 0.4909901097795092
vn 0.18898204225412163 -0.8504201901437707 -0.4909901097795092
vn -0.9337361492549343 -0.3125110499539578 -0.17456702790401804
vn 0.9337361492549343 0.3125110499539578 0.17456702790401804
vn -0.8537476899692664 -0.44993683660951683 -0.2620529048378635
vn 0.8537476899692664 0.44993683660951683 0.2620529048378635
vn -0.715445133906301 -0.607262113658224 -0.34550106466571295
vn 0.715445133906301 0.607262113658224 0.34550106466571295
vn -0.5926427043181831 -0.6970076522483317 -0.4036767985972184
vn 0.5926427043181831 0.6970076522483317 0.4036767985972184
vn -0.3083350888891648 -0.8247402377623355 -0.4740601366656315
vn 0.3083350888891648 0.8247402377623355 0.4740601366656315
vn -0.2394380472084481 -0.8408651657879354 -0.4854020957035857
vn 0.2394380472084481 0.8408651657879354 0.4854020957035857
vn -0.16618291528877907 -0.8546805643292573 -0.4918377492872469
vn 0.16618291528877907 0.8546805643292573 0.4918377492872469
vn -0.15554298154490412 -0.8554848984971506 -0.49391494139724285
vn 0.15554298154490412 0.8554848984971506 0.49391494139724285
vn -0.17636895935533708 -0.8524498035508343 -0.4921618865800761
vn 0.17636895935533708 0.8524498035508343 0.4921618865800761
usemtl material_0_0
f 1//1 2//2 3//3
f 3//4 2//5 1//6
f 1//1 4//7 2//2
f 2//5 4//8 1//6
f 3//3 2//2 5//9
f 5//10 2//5 3//4
f 1//1 6//11 4//7
f 4//8 6//12 1//6
f 5//9 2//2 7//13
f 7//14 2//5 5//10
f 4//7 6//11 8//15
f 8//16 6//12 4//8
f 5//9 7//13 9//17
f 9//18 7//14 5//10
f 6//11 10//19 8//15
f 8//16 10//20 6//12
f 9//17 7//13 11//21
f 11//22 7//14 9//18
f 6//11 12//23 10//19
f 10//20 12//24 6//12
f 8//15 10//19 13//25
f 13//26 10//20 8//16
f 9//17 11//21 14//27
f 14//28 11//22 9//18
f 6//11 15//23 12//23
f 12//24 15//24 6//12
f 8//15 13//25 16//25
f 16//26 13//26 8//16
f 14//27 11//21 17//29
f 17//30 11//22 14//28
f 14//27 17//29 18//31
f 18//32 17//30 14//28
f 18//31 17//29 19//33
f 19//34 17//30 18//32
f 18//31 19//33 20//35
f 20//36 19//34 18//32
f 19//33 21//37 20//35
f 20//36 21//38 19//34
f 20//35 21//37 22//39
f 22//40 21//38 20//36
f 21//37 23//41 22//39
f 22//40 23//42 21//38
f 20//35 22//39 24//43
f 24//44 22//40 20//36
f 21//37 25//41 23//41
f 23//42 25//42 21//38
f 20//35 24//43 26//43
f 26//44 24//44 20//36
