# SSTK version 0.8.0
# 1
mtllib original-1.mtl
o Group1/mesh1/mesh1-geometry#mesh1-geometry
v 0.078535 0.528837 -0.389388
v 0.073644 0.528837 -0.351829
v 0.077946 0.556214 -0.350150
v 0.063843 0.502711 -0.387720
v 0.060283 0.528837 -0.329445
v 0.083123 0.556214 -0.389909
v 0.072011 0.528837 -0.413033
v 0.059869 0.502711 -0.357204
v 0.049013 0.502711 -0.339018
v 0.058935 0.556214 -0.321201
v 0.058542 0.502711 -0.406930
v 0.040490 0.483266 -0.385068
v 0.039460 0.528837 -0.312120
v 0.078795 0.556214 -0.408562
v 0.045733 0.502711 -0.425545
v 0.037974 0.483266 -0.365749
v 0.031101 0.483266 -0.354235
v 0.032095 0.502711 -0.324942
v 0.028809 0.556214 -0.302088
v 0.056245 0.528837 -0.435944
v 0.029024 0.483266 -0.409016
v 0.037134 0.483266 -0.397230
v 0.013296 0.473785 -0.380512
v 0.014520 0.528837 -0.302959
v 0.062174 0.556214 -0.436390
v 0.025759 0.502711 -0.439230
v 0.031660 0.528837 -0.452788
v 0.013213 0.473785 -0.381971
v 0.012400 0.473785 -0.375729
v 0.020390 0.483266 -0.345324
v 0.011833 0.502711 -0.317500
v -0.010145 0.528837 -0.302327
v 0.033503 0.556214 -0.457022
v 0.016378 0.483266 -0.417679
v 0.012533 0.473785 -0.384900
v 0.009415 0.473785 -0.371184
v -0.004475 0.556214 -0.297159
v 0.005422 0.473785 -0.392508
v 0.009924 0.473785 -0.389269
v 0.004685 0.473785 -0.368183
v 0.007562 0.483266 -0.340612
v -0.008207 0.502711 -0.316986
v -0.033119 0.556214 -0.303964
v -0.025374 0.502711 -0.321756
v -0.031276 0.528837 -0.308198
v -0.005125 0.483266 -0.340286
v -0.015994 0.483266 -0.343306
v -0.000541 0.473785 -0.367409
v -0.005038 0.473785 -0.368477
vn -0.9533452475408924 0.30075107809153134 0.026108006779075446
vn -0.8704200623825729 0.38910502788696383 -0.3016060216159534
vn -0.9295825744158144 0.15616592850366254 -0.333898847133463
vn 0.9295825744158144 -0.15616592850366254 0.333898847133463
vn 0.8704200623825729 -0.38910502788696383 0.3016060216159534
vn 0.9533452475408924 -0.30075107809153134 -0.026108006779075446
vn -0.8024971506792866 0.5940511115408293 0.05569201045690007
vn 0.8024971506792866 -0.5940511115408293 -0.05569201045690007
vn -0.7417051510108134 0.2993400609454931 -0.6002241222053436
vn 0.7417051510108134 -0.2993400609454931 0.6002241222053436
vn -0.9765631456475682 0.1782080265784817 0.1206910180002219
vn 0.9765631456475682 -0.1782080265784817 -0.1206910180002219
vn -0.8590056414128943 0.3563028512633653 0.36763784653163506
vn 0.8590056414128943 -0.3563028512633653 -0.36763784653163506
vn -0.685693043683791 0.6881440438399381 -0.2372400151139686
vn 0.685693043683791 -0.6881440438399381 0.2372400151139686
vn -0.6112211412428312 0.5942681373252799 -0.5227371207956759
vn 0.6112211412428312 -0.5942681373252799 0.5227371207956759
vn -0.6742198916255663 0.14225897713322289 -0.7246998835113877
vn 0.6742198916255663 -0.14225897713322289 0.7246998835113877
vn -0.6575798615712339 0.6882398551169225 0.3064549354874123
vn 0.6575798615712339 -0.6882398551169225 -0.3064549354874123
vn -0.511280065032272 0.8587191092247841 0.03455700439547864
vn 0.511280065032272 -0.8587191092247841 -0.03455700439547864
vn -0.49851894177348954 0.3356189608000435 -0.7992739066456124
vn 0.49851894177348954 -0.3356189608000435 0.7992739066456124
vn -0.8841137270400962 0.16963994762562504 0.43539086557809803
vn 0.8841137270400962 -0.16963994762562504 -0.43539086557809803
vn -0.5680511129155073 0.5943211181373805 0.5692981131633824
vn 0.5680511129155073 -0.5943211181373805 -0.5692981131633824
vn -0.436650926428255 0.8886338502732066 -0.1402349763716704
vn 0.436650926428255 -0.8886338502732066 0.1402349763716704
vn -0.392804950554698 0.859096891859038 -0.32811095869821527
vn 0.392804950554698 -0.859096891859038 0.32811095869821527
vn -0.37692904623204654 0.6425090788066348 -0.6671630818305591
vn 0.37692904623204654 -0.6425090788066348 0.6671630818305591
vn -0.2659700859294962 0.14412504656385572 -0.9531463079420824
vn 0.2659700859294962 -0.14412504656385572 0.9531463079420824
vn -0.6900612539325822 0.27109209975798004 0.671062246941222
vn 0.6900612539325822 -0.27109209975798004 -0.671062246941222
vn -0.34813816580606305 0.8722014153991059 0.3436051636471524
vn 0.34813816580606305 -0.8722014153991059 -0.3436051636471524
vn -0.42046782311826414 0.8891976259337553 0.180372924121005
vn 0.42046782311826414 -0.8891976259337553 -0.180372924121005
vn -0.3294250556183193 0.9437451593367555 -0.02870900484707068
vn 0.3294250556183193 -0.9437451593367555 0.02870900484707068
vn -0.20360998808168973 0.3531109793306497 -0.9131569465483597
vn 0.20360998808168973 -0.3531109793306497 0.9131569465483597
vn -0.7255461090738942 0.16800402525663488 0.6673511003252341
vn 0.7255461090738942 -0.16800402525663488 -0.6673511003252341
vn -0.4134919711878805 0.6817359524966404 0.6035399579453373
vn 0.4134919711878805 -0.6817359524966404 -0.6035399579453373
vn -0.5220179334625544 0.3833219511410204 0.7619459028808576
vn 0.5220179334625544 -0.3833219511410204 -0.7619459028808576
vn -0.3234481106292996 0.9442973229790129 0.0606950207595824
vn 0.3234481106292996 -0.9442973229790129 -0.0606950207595824
vn -0.29475200705400517 0.9457260226331156 -0.1368340032747112
vn 0.29475200705400517 -0.9457260226331156 0.1368340032747112
vn -0.23035910001295892 0.8719013785456567 -0.43211418760716835
vn 0.23035910001295892 -0.8719013785456567 0.43211418760716835
vn -0.13760001974305866 0.6424660921820055 -0.7538591081648433
vn 0.13760001974305866 -0.6424660921820055 0.7538591081648433
vn 0.09620602986615645 0.32343710040766754 -0.9413462922311177
vn -0.09620602986615645 -0.32343710040766754 0.9413462922311177
vn -0.5681127906831417 0.15090994439837288 0.808995701931656
vn 0.5681127906831417 -0.15090994439837288 -0.808995701931656
vn -0.2804171337958796 0.8682384142639957 0.4093021952910172
vn 0.2804171337958796 -0.8682384142639957 -0.4093021952910172
vn -0.295444873270426 0.9442925949504997 0.14499593780473102
vn 0.295444873270426 -0.9442925949504997 -0.14499593780473102
vn -0.22005493824841196 0.9463977344228515 -0.23644693364850702
vn 0.22005493824841196 -0.9463977344228515 0.23644693364850702
vn 0.04373900077448649 0.17655200312620653 -0.9833190174116299
vn -0.04373900077448649 -0.17655200312620653 0.9833190174116299
vn -0.1899310721200706 0.9437983583763493 0.27050110271388694
vn 0.1899310721200706 -0.9437983583763493 -0.27050110271388694
vn -0.2412109240631949 0.9451027024675395 0.22044993059906623
vn 0.2412109240631949 -0.9451027024675395 -0.22044993059906623
vn -0.08678094955194898 0.9459534500923515 -0.3124758183495787
vn 0.08678094955194898 -0.9459534500923515 0.3124758183495787
vn -0.07699398559130839 0.8539418401929121 -0.5146409036898527
vn 0.07699398559130839 -0.8539418401929121 0.5146409036898527
vn 0.08873305025584065 0.688185389768358 -0.7200884078373071
vn -0.08873305025584065 -0.688185389768358 0.7200884078373071
vn 0.2466120879457087 0.1496870533807331 -0.957484341453818
vn -0.2466120879457087 -0.1496870533807331 0.957484341453818
vn 0.21606813686700022 0.5904083739904655 -0.7776454925946384
vn -0.21606813686700022 -0.5904083739904655 0.7776454925946384
vn 0.2525460107098452 0.3317630140692406 -0.9089300385454515
vn -0.2525460107098452 -0.3317630140692406 0.9089300385454515
vn 0.04417700475923316 0.9001470969737523 -0.4333400466841589
vn -0.04417700475923316 -0.9001470969737523 0.4333400466841589
vn 0.14590897660597796 0.8384168655741197 -0.5251359158033898
vn -0.14590897660597796 -0.8384168655741197 0.5251359158033898
vn 0.012799996483220649 0.9445837404770697 -0.32802090987675914
vn -0.012799996483220649 -0.9445837404770697 0.32802090987675914
vn 0.08180995345505832 0.9447334625034969 -0.31746781937991
vn -0.08180995345505832 -0.9447334625034969 0.31746781937991
usemtl material_0_0
f 1//1 2//2 3//3
f 3//4 2//5 1//6
f 1//1 4//7 2//2
f 2//5 4//8 1//6
f 2//2 5//9 3//3
f 3//4 5//10 2//5
f 6//11 1//1 3//3
f 3//4 1//6 6//12
f 7//13 4//7 1//1
f 1//6 4//8 7//14
f 4//7 8//15 2//2
f 2//5 8//16 4//8
f 2//2 9//17 5//9
f 5//10 9//18 2//5
f 3//3 5//9 10//19
f 10//20 5//10 3//4
f 7//13 1//1 6//11
f 6//12 1//6 7//14
f 7//13 11//21 4//7
f 4//8 11//22 7//14
f 4//7 12//23 8//15
f 8//16 12//24 4//8
f 8//15 9//17 2//2
f 2//5 9//18 8//16
f 5//9 9//17 13//25
f 13//26 9//18 5//10
f 10//19 5//9 13//25
f 13//26 5//10 10//20
f 7//13 6//11 14//27
f 14//28 6//12 7//14
f 15//29 11//21 7//13
f 7//14 11//22 15//30
f 4//7 11//21 12//23
f 12//24 11//22 4//8
f 8//15 12//23 16//31
f 16//32 12//24 8//16
f 8//15 17//33 9//17
f 9//18 17//34 8//16
f 13//25 9//17 18//35
f 18//36 9//18 13//26
f 10//19 13//25 19//37
f 19//38 13//26 10//20
f 20//39 7//13 14//27
f 14//28 7//14 20//40
f 11//21 15//29 21//41
f 21//42 15//30 11//22
f 20//39 15//29 7//13
f 7//14 15//30 20//40
f 11//21 22//43 12//23
f 12//24 22//44 11//22
f 12//23 23//45 16//31
f 16//32 23//46 12//24
f 8//15 16//31 17//33
f 17//34 16//32 8//16
f 9//17 17//33 18//35
f 18//36 17//34 9//18
f 13//25 18//35 24//47
f 24//48 18//36 13//26
f 19//37 13//25 24//47
f 24//48 13//26 19//38
f 25//49 20//39 14//27
f 14//28 20//40 25//50
f 15//29 26//51 21//41
f 21//42 26//52 15//30
f 11//21 21//41 22//43
f 22//44 21//42 11//22
f 27//53 15//29 20//39
f 20//40 15//30 27//54
f 12//23 22//43 28//55
f 28//56 22//44 12//24
f 12//23 28//55 23//45
f 23//46 28//56 12//24
f 16//31 23//45 29//57
f 29//58 23//46 16//32
f 16//31 29//57 17//33
f 17//34 29//58 16//32
f 18//35 17//33 30//59
f 30//60 17//34 18//36
f 24//47 18//35 31//61
f 31//62 18//36 24//48
f 19//37 24//47 32//63
f 32//64 24//48 19//38
f 33//65 20//39 25//49
f 25//50 20//40 33//66
f 27//53 26//51 15//29
f 15//30 26//52 27//54
f 21//41 26//51 34//67
f 34//68 26//52 21//42
f 22//43 21//41 35//69
f 35//70 21//42 22//44
f 33//65 27//53 20//39
f 20//40 27//54 33//66
f 22//43 35//69 28//55
f 28//56 35//70 22//44
f 17//33 29//57 36//71
f 36//72 29//58 17//34
f 17//33 36//71 30//59
f 30//60 36//72 17//34
f 18//35 30//59 31//61
f 31//62 30//60 18//36
f 24//47 31//61 32//63
f 32//64 31//62 24//48
f 19//37 32//63 37//73
f 37//74 32//64 19//38
f 21//41 34//67 38//75
f 38//76 34//68 21//42
f 21//41 39//77 35//69
f 35//70 39//78 21//42
f 30//59 36//71 40//79
f 40//80 36//72 30//60
f 30//59 41//81 31//61
f 31//62 41//82 30//60
f 32//63 31//61 42//83
f 42//84 31//62 32//64
f 37//73 32//63 43//85
f 43//86 32//64 37//74
f 21//41 38//75 39//77
f 39//78 38//76 21//42
f 30//59 40//79 41//81
f 41//82 40//80 30//60
f 31//61 41//81 42//83
f 42//84 41//82 31//62
f 32//63 42//83 44//87
f 44//88 42//84 32//64
f 43//85 32//63 45//89
f 45//90 32//64 43//86
f 41//81 40//79 46//91
f 46//92 40//80 41//82
f 41//81 46//91 42//83
f 42//84 46//92 41//82
f 42//83 47//93 44//87
f 44//88 47//94 42//84
f 32//63 44//87 45//89
f 45//90 44//88 32//64
f 40//79 48//95 46//91
f 46//92 48//96 40//80
f 46//91 47//93 42//83
f 42//84 47//94 46//92
f 48//95 49//97 46//91
f 46//92 49//98 48//96
f 49//97 47//93 46//91
f 46//92 47//94 49//98
