# SSTK version 0.8.0
# 250
mtllib original-250.mtl
o #ID321
v 0.105351 -0.011751 0.229357
v 0.104971 -0.012146 0.229364
v 0.105351 -0.012139 0.229308
v 0.104971 -0.011758 0.229412
v 0.105727 -0.011757 0.229399
v 0.105351 -0.012139 0.229308
v 0.105727 -0.012144 0.229350
v 0.105351 -0.011751 0.229357
v 0.104971 -0.011758 0.229412
v 0.104589 -0.012167 0.229532
v 0.104971 -0.012146 0.229364
v 0.104589 -0.011779 0.229580
v 0.106069 -0.011773 0.229527
v 0.105727 -0.012144 0.229350
v 0.106069 -0.012160 0.229478
v 0.105727 -0.011757 0.229399
v 0.104589 -0.011779 0.229580
v 0.104243 -0.012206 0.229840
v 0.104589 -0.012167 0.229532
v 0.104243 -0.011818 0.229888
v 0.106375 -0.011799 0.229740
v 0.106069 -0.012160 0.229478
v 0.106375 -0.012187 0.229691
v 0.106069 -0.011773 0.229527
v 0.104243 -0.012206 0.229840
v 0.103970 -0.011878 0.230365
v 0.103970 -0.012265 0.230316
v 0.104243 -0.011818 0.229888
v 0.106375 -0.011799 0.229740
v 0.106647 -0.012225 0.229990
v 0.106647 -0.011837 0.230038
v 0.106375 -0.012187 0.229691
v 0.103970 -0.012265 0.230316
v 0.103793 -0.011958 0.231006
v 0.103793 -0.012346 0.230957
v 0.103970 -0.011878 0.230365
v 0.106647 -0.011837 0.230038
v 0.106975 -0.012293 0.230533
v 0.106975 -0.011905 0.230581
v 0.106647 -0.012225 0.229990
v 0.103793 -0.012346 0.230957
v 0.103734 -0.012058 0.231806
v 0.103734 -0.012446 0.231758
v 0.103793 -0.011958 0.231006
v 0.106975 -0.011905 0.230581
v 0.107210 -0.012372 0.231168
v 0.107210 -0.011984 0.231217
v 0.106975 -0.012293 0.230533
v 0.103734 -0.012446 0.231758
v 0.103876 -0.012224 0.233129
v 0.103876 -0.012612 0.233080
v 0.103734 -0.012058 0.231806
v 0.107210 -0.011984 0.231217
v 0.107351 -0.012464 0.231896
v 0.107351 -0.012076 0.231945
v 0.107210 -0.012372 0.231168
v 0.103876 -0.012612 0.233080
v 0.104054 -0.012298 0.233717
v 0.104054 -0.012686 0.233668
v 0.103876 -0.012224 0.233129
v 0.107351 -0.012076 0.231945
v 0.107398 -0.012566 0.232716
v 0.107398 -0.012179 0.232765
v 0.107351 -0.012464 0.231896
v 0.104054 -0.012686 0.233668
v 0.104303 -0.012366 0.234256
v 0.104303 -0.012753 0.234208
v 0.104054 -0.012298 0.233717
v 0.107398 -0.012179 0.232765
v 0.107285 -0.012714 0.233897
v 0.107285 -0.012327 0.233946
v 0.107398 -0.012566 0.232716
v 0.104303 -0.012753 0.234208
v 0.104610 -0.012422 0.234707
v 0.104610 -0.012810 0.234658
v 0.104303 -0.012366 0.234256
v 0.107285 -0.012327 0.233946
v 0.107144 -0.012769 0.234334
v 0.107144 -0.012381 0.234383
v 0.107285 -0.012714 0.233897
v 0.104610 -0.012422 0.234707
v 0.104962 -0.012850 0.234980
v 0.104610 -0.012810 0.234658
v 0.104962 -0.012462 0.235029
v 0.107144 -0.012381 0.234383
v 0.106947 -0.012811 0.234669
v 0.106947 -0.012424 0.234718
v 0.107144 -0.012769 0.234334
v 0.104962 -0.012462 0.235029
v 0.105360 -0.012875 0.235173
v 0.104962 -0.012850 0.234980
v 0.105360 -0.012487 0.235222
v 0.106436 -0.012477 0.235144
v 0.106947 -0.012811 0.234669
v 0.106436 -0.012865 0.235095
v 0.106947 -0.012424 0.234718
v 0.105360 -0.012487 0.235222
v 0.105802 -0.012883 0.235237
v 0.105360 -0.012875 0.235173
v 0.105802 -0.012495 0.235286
v 0.106134 -0.012490 0.235251
v 0.106436 -0.012865 0.235095
v 0.106134 -0.012878 0.235202
v 0.106436 -0.012477 0.235144
v 0.105802 -0.012495 0.235286
v 0.106134 -0.012878 0.235202
v 0.105802 -0.012883 0.235237
v 0.106134 -0.012490 0.235251
vt 0.006026123 0.000492126
vt 0.005542196 0
vt 0.006026123 0
vt 0.005542196 0.000492126
vt 0.003438041 0.000492126
vt 0.002961337 0
vt 0.003438041 0
vt 0.002961337 0.000492126
vt 0.008296393 0.000492126
vt 0.007770437 0
vt 0.008296393 0
vt 0.007770437 0.000492126
vt 0.0007888567 0.000492126
vt 0.0003295645 0
vt 0.0007888567 0
vt 0.0003295645 0.000492126
vt 0.01023926 0.000492126
vt 0.009653805 0
vt 0.01023926 0
vt 0.009653805 0.000492126
vt -0.001920545 0.000492126
vt -0.002391602 0
vt -0.001920545 0
vt -0.002391602 0.000492126
vt 0.01117573 0
vt 0.01048014 0.000492126
vt 0.01048014 0
vt 0.01117573 0.000492126
vt -0.00466936 0.000492126
vt -0.004159376 0
vt -0.004159376 0.000492126
vt -0.00466936 0
vt 0.01088829 0
vt 0.01004504 0.000492126
vt 0.01004504 0
vt 0.01088829 0.000492126
vt -0.006353615 0.000492126
vt -0.005549559 0
vt -0.005549559 0.000492126
vt -0.006353615 0
vt 0.009912475 0
vt 0.008893796 0.000492126
vt 0.008893796 0
vt 0.009912475 0.000492126
vt -0.007478368 0.000492126
vt -0.006619414 0
vt -0.006619414 0.000492126
vt -0.007478368 0
vt 0.008456239 0
vt 0.006768457 0.000492126
vt 0.006768457 0
vt 0.008456239 0.000492126
vt -0.008067832 0.000492126
vt -0.007127347 0
vt -0.007127347 0.000492126
vt -0.008067832 0
vt 0.006061261 0
vt 0.005282202 0.000492126
vt 0.005282202 0
vt 0.006061261 0.000492126
vt -0.008171232 0.000492126
vt -0.007128811 0
vt -0.007128811 0.000492126
vt -0.008171232 0
vt 0.004625867 0
vt 0.003873253 0.000492126
vt 0.003873253 0
vt 0.004625867 0.000492126
vt -0.008151246 0.000492126
vt -0.0066465 0
vt -0.0066465 0.000492126
vt -0.008151246 0
vt 0.002983749 0
vt 0.00229366 0.000492126
vt 0.00229366 0
vt 0.002983749 0.000492126
vt -0.007810116 0.000492126
vt -0.007227715 0
vt -0.007227715 0.000492126
vt -0.007810116 0
vt 0.0009314583 0.000492126
vt 0.000328632 0
vt 0.0009314583 0
vt 0.000328632 0.000492126
vt -0.008056879 0.000492126
vt -0.007564464 0
vt -0.007564464 0.000492126
vt -0.008056879 0
vt -0.001403185 0.000492126
vt -0.001960315 0
vt -0.001403185 0
vt -0.001960315 0.000492126
vt -0.007267706 0.000492126
vt -0.008108765 0
vt -0.007267706 0
vt -0.008108765 0.000492126
vt -0.003658431 0.000492126
vt -0.004221642 0
vt -0.003658431 0
vt -0.004221642 0.000492126
vt -0.006480505 0.000492126
vt -0.006883429 0
vt -0.006480505 0
vt -0.006883429 0.000492126
vt -0.005338211 0.000492126
vt -0.005758507 0
vt -0.005338211 0
vt -0.005758507 0.000492126
vn 0.14663299082313516 -0.1230807816979538 0.981503890557181
vn -0.14663299082313516 0.1230807816979538 -0.981503890557181
vn -0.11341329655871464 -0.12362289601199686 0.9858269644036382
vn 0.11341329655871464 0.12362289601199686 -0.9858269644036382
vn 0.404747078045282 -0.11377843120468456 0.9073225839834516
vn -0.404747078045282 0.11377843120468456 -0.9073225839834516
vn -0.35313830169779414 -0.11640909600088759 0.9283007391154301
vn 0.35313830169779414 0.11640909600088759 -0.9283007391154301
vn 0.6675817699207475 -0.09263947612623555 0.7387506398863819
vn -0.6675817699207475 0.09263947612623555 -0.7387506398863819
vn -0.5738634730157085 -0.10189855227241186 0.8125868565163576
vn 0.5738634730157085 0.10189855227241186 -0.8125868565163576
vn 0.8695355798488006 -0.061450159753707205 0.49003240019742966
vn -0.8695355798488006 0.061450159753707205 -0.49003240019742966
vn -0.7420848914000989 -0.0834032844576348 0.6650969148157149
vn 0.7420848914000989 0.0834032844576348 -0.6650969148157149
vn 0.9643929799326736 -0.03290728905760287 0.2624181597821637
vn -0.9643929799326736 0.03290728905760287 -0.2624181597821637
vn -0.8573074814292219 -0.0640549373080751 0.5108041183192857
vn 0.8573074814292219 0.0640549373080751 -0.5108041183192857
vn 0.997333723196496 -0.009080045802212312 0.07240854468392804
vn -0.997333723196496 0.009080045802212312 -0.07240854468392804
vn -0.9388904407244371 -0.04282933341500199 0.34154119592737114
vn 0.9388904407244371 0.04282933341500199 -0.34154119592737114
vn 0.9943545038916172 0.013202687381552594 -0.10528442257219758
vn -0.9943545038916172 -0.013202687381552594 0.10528442257219758
vn -0.9820491291794645 -0.02346983698273193 0.1871594898204718
vn 0.9820491291794645 0.02346983698273193 -0.1871594898204718
vn 0.9578262802866896 0.03575346483820721 -0.2851149006001386
vn -0.9578262802866896 -0.03575346483820721 0.2851149006001386
vn -0.9983897446270119 -0.007058258816935098 0.0562858668413559
vn 0.9983897446270119 0.007058258816935098 -0.0562858668413559
vn 0.9091710786324595 0.0518137000275258 -0.41318674986953274
vn -0.9091710786324595 -0.0518137000275258 0.41318674986953274
vn -0.9955424472731649 0.01173515510877317 -0.09358163180844203
vn 0.9955424472731649 -0.01173515510877317 0.09358163180844203
vn 0.828327970098563 0.06970869098839294 -0.5558898023467231
vn -0.828327970098563 -0.06970869098839294 0.5558898023467231
vn -0.9524802667735572 0.037900106317088886 -0.30223322674405995
vn 0.9524802667735572 -0.037900106317088886 0.30223322674405995
vn 0.6773094897922382 0.09153976719569802 -0.7299810449998927
vn -0.6773094897922382 -0.09153976719569802 0.7299810449998927
vn -0.863488392870839 0.06275643150062828 -0.5004492238805479
vn 0.863488392870839 -0.06275643150062828 0.5004492238805479
vn 0.43971770556163686 0.11175120807556325 -0.8911565557797698
vn -0.43971770556163686 -0.11175120807556325 0.8911565557797698
vn -0.6428150773640692 0.09531275081342849 -0.7600685862774512
vn 0.6428150773640692 -0.09531275081342849 0.7600685862774512
vn 0.14499019481690312 0.12311090846349965 -0.981744135518134
vn -0.14499019481690312 -0.12311090846349965 0.981744135518134
vn -0.33545080028102287 0.1172161953295822 -0.9347369277734131
vn 0.33545080028102287 -0.1172161953295822 0.9347369277734131
vn -0.10719549301007765 0.12370875787667787 -0.9865116671904777
vn 0.10719549301007765 -0.12370875787667787 0.9865116671904777
usemtl material_0_2
f 1/1/1 2/2/1 3/3/1
f 3/3/2 2/2/2 1/1/2
f 2/2/1 1/1/1 4/4/1
f 4/4/2 1/1/2 2/2/2
f 5/5/3 6/6/3 7/7/3
f 7/7/4 6/6/4 5/5/4
f 6/6/3 5/5/3 8/8/3
f 8/8/4 5/5/4 6/6/4
f 9/9/5 10/10/5 11/11/5
f 11/11/6 10/10/6 9/9/6
f 10/10/5 9/9/5 12/12/5
f 12/12/6 9/9/6 10/10/6
f 13/13/7 14/14/7 15/15/7
f 15/15/8 14/14/8 13/13/8
f 14/14/7 13/13/7 16/16/7
f 16/16/8 13/13/8 14/14/8
f 17/17/9 18/18/9 19/19/9
f 19/19/10 18/18/10 17/17/10
f 18/18/9 17/17/9 20/20/9
f 20/20/10 17/17/10 18/18/10
f 21/21/11 22/22/11 23/23/11
f 23/23/12 22/22/12 21/21/12
f 22/22/11 21/21/11 24/24/11
f 24/24/12 21/21/12 22/22/12
f 25/25/13 26/26/13 27/27/13
f 27/27/14 26/26/14 25/25/14
f 26/26/13 25/25/13 28/28/13
f 28/28/14 25/25/14 26/26/14
f 29/29/15 30/30/15 31/31/15
f 31/31/16 30/30/16 29/29/16
f 30/30/15 29/29/15 32/32/15
f 32/32/16 29/29/16 30/30/16
f 33/33/17 34/34/17 35/35/17
f 35/35/18 34/34/18 33/33/18
f 34/34/17 33/33/17 36/36/17
f 36/36/18 33/33/18 34/34/18
f 37/37/19 38/38/19 39/39/19
f 39/39/20 38/38/20 37/37/20
f 38/38/19 37/37/19 40/40/19
f 40/40/20 37/37/20 38/38/20
f 41/41/21 42/42/21 43/43/21
f 43/43/22 42/42/22 41/41/22
f 42/42/21 41/41/21 44/44/21
f 44/44/22 41/41/22 42/42/22
f 45/45/23 46/46/23 47/47/23
f 47/47/24 46/46/24 45/45/24
f 46/46/23 45/45/23 48/48/23
f 48/48/24 45/45/24 46/46/24
f 49/49/25 50/50/25 51/51/25
f 51/51/26 50/50/26 49/49/26
f 50/50/25 49/49/25 52/52/25
f 52/52/26 49/49/26 50/50/26
f 53/53/27 54/54/27 55/55/27
f 55/55/28 54/54/28 53/53/28
f 54/54/27 53/53/27 56/56/27
f 56/56/28 53/53/28 54/54/28
f 57/57/29 58/58/29 59/59/29
f 59/59/30 58/58/30 57/57/30
f 58/58/29 57/57/29 60/60/29
f 60/60/30 57/57/30 58/58/30
f 61/61/31 62/62/31 63/63/31
f 63/63/32 62/62/32 61/61/32
f 62/62/31 61/61/31 64/64/31
f 64/64/32 61/61/32 62/62/32
f 65/65/33 66/66/33 67/67/33
f 67/67/34 66/66/34 65/65/34
f 66/66/33 65/65/33 68/68/33
f 68/68/34 65/65/34 66/66/34
f 69/69/35 70/70/35 71/71/35
f 71/71/36 70/70/36 69/69/36
f 70/70/35 69/69/35 72/72/35
f 72/72/36 69/69/36 70/70/36
f 73/73/37 74/74/37 75/75/37
f 75/75/38 74/74/38 73/73/38
f 74/74/37 73/73/37 76/76/37
f 76/76/38 73/73/38 74/74/38
f 77/77/39 78/78/39 79/79/39
f 79/79/40 78/78/40 77/77/40
f 78/78/39 77/77/39 80/80/39
f 80/80/40 77/77/40 78/78/40
f 81/81/41 82/82/41 83/83/41
f 83/83/42 82/82/42 81/81/42
f 82/82/41 81/81/41 84/84/41
f 84/84/42 81/81/42 82/82/42
f 85/85/43 86/86/43 87/87/43
f 87/87/44 86/86/44 85/85/44
f 86/86/43 85/85/43 88/88/43
f 88/88/44 85/85/44 86/86/44
f 89/89/45 90/90/45 91/91/45
f 91/91/46 90/90/46 89/89/46
f 90/90/45 89/89/45 92/92/45
f 92/92/46 89/89/46 90/90/46
f 93/93/47 94/94/47 95/95/47
f 95/95/48 94/94/48 93/93/48
f 94/94/47 93/93/47 96/96/47
f 96/96/48 93/93/48 94/94/48
f 97/97/49 98/98/49 99/99/49
f 99/99/50 98/98/50 97/97/50
f 98/98/49 97/97/49 100/100/49
f 100/100/50 97/97/50 98/98/50
f 101/101/51 102/102/51 103/103/51
f 103/103/52 102/102/52 101/101/52
f 102/102/51 101/101/51 104/104/51
f 104/104/52 101/101/52 102/102/52
f 105/105/53 106/106/53 107/107/53
f 107/107/54 106/106/54 105/105/54
f 106/106/53 105/105/53 108/108/53
f 108/108/54 105/105/54 106/106/54
