# SSTK version 0.8.0
# 662
mtllib original-662.mtl
o #ID3151
v -0.672709 0.013005 -0.077481
v -0.643784 0.012718 -0.077512
v -0.672709 0.012718 -0.077512
v -0.643784 0.013005 -0.077481
v -0.643784 0.013005 -0.077481
v -0.672709 0.013005 -0.077481
v -0.643784 0.012718 -0.077512
v -0.672709 0.012718 -0.077512
v -0.672709 0.012265 -0.073207
v -0.672709 0.013005 -0.077481
v -0.672709 0.012718 -0.077512
v -0.672709 0.012469 -0.072379
v -0.672709 0.012181 -0.072409
v -0.672709 0.012181 -0.072409
v -0.672709 0.012265 -0.073207
v -0.672709 0.012469 -0.072379
v -0.672709 0.013005 -0.077481
v -0.672709 0.012718 -0.077512
vn 0 0.10452849911715988 -0.9945218916003379
vn 0 -0.10452849911715988 0.9945218916003379
vn -1 0 0
vn 1 0 0
usemtl material_0_0
f 1//1 2//1 3//1
f 2//1 1//1 4//1
f 5//2 6//2 7//2
f 8//2 7//2 6//2
f 9//3 10//3 11//3
f 10//3 9//3 12//3
f 12//3 9//3 13//3
f 14//4 15//4 16//4
f 16//4 15//4 17//4
f 18//4 17//4 15//4
