# SSTK version 0.8.0
# 156
mtllib original-156.mtl
o #ID4284
v -0.078105 -0.004906 0.146765
v -0.078105 0.001272 0.122365
v -0.078105 -0.001836 0.147149
v -0.078105 -0.001798 0.121980
v -0.078227 -0.005137 0.148608
v -0.078105 -0.001836 0.147149
v -0.078227 -0.002067 0.148993
v -0.078105 -0.004906 0.146765
v -0.078105 -0.001798 0.121980
v -0.078227 0.001503 0.120523
v -0.078105 0.001272 0.122365
v -0.078227 -0.001567 0.120138
v -0.078590 -0.005365 0.150420
v -0.078590 -0.002295 0.150804
v -0.078590 0.001730 0.118711
v -0.078590 -0.001340 0.118326
v -0.079189 -0.005584 0.152168
v -0.079189 -0.002514 0.152553
v -0.079189 0.001949 0.116962
v -0.079189 -0.001121 0.116577
v -0.080012 -0.005792 0.153825
v -0.080012 -0.002722 0.154210
v -0.080012 0.002157 0.115305
v -0.080012 -0.000913 0.114920
v -0.081046 -0.005984 0.155361
v -0.081046 -0.002914 0.155746
v -0.081046 0.002350 0.113770
v -0.081046 -0.000720 0.113384
v -0.082273 -0.006158 0.156749
v -0.082273 -0.003088 0.157134
v -0.082273 0.002524 0.112381
v -0.082273 -0.000546 0.111996
v -0.083673 -0.003241 0.158352
v -0.083673 -0.006311 0.157967
v -0.083673 -0.000394 0.110778
v -0.083673 0.002676 0.111163
v -0.085221 -0.003370 0.159378
v -0.085221 -0.006440 0.158994
v -0.085221 -0.000265 0.109752
v -0.085221 0.002805 0.110137
v -0.086890 -0.003472 0.160195
v -0.086890 -0.006542 0.159811
v -0.086890 -0.000163 0.108935
v -0.086890 0.002908 0.109320
v -0.088653 -0.003547 0.160789
v -0.088653 -0.006617 0.160405
v -0.088653 -0.000088 0.108341
v -0.088653 0.002982 0.108726
v -0.090479 -0.003592 0.161149
v -0.090479 -0.006662 0.160764
v -0.090479 -0.000043 0.107981
v -0.090479 0.003027 0.108366
v -0.092337 -0.003607 0.161270
v -0.092337 -0.006677 0.160885
v -0.092337 -0.000028 0.107860
v -0.092337 0.003042 0.108245
v -0.092337 -0.003607 0.161270
v -0.120798 -0.006677 0.160885
v -0.092337 -0.006677 0.160885
v -0.120798 -0.003607 0.161270
v -0.120798 0.003042 0.108245
v -0.092337 -0.000028 0.107860
v -0.120798 -0.000028 0.107860
v -0.092337 0.003042 0.108245
v -0.120798 -0.003607 0.161270
v -0.122655 -0.006662 0.160764
v -0.120798 -0.006677 0.160885
v -0.122655 -0.003592 0.161149
v -0.122655 0.003027 0.108366
v -0.120798 -0.000028 0.107860
v -0.122655 -0.000043 0.107981
v -0.120798 0.003042 0.108245
v -0.124481 -0.006617 0.160405
v -0.124481 -0.003547 0.160789
v -0.124481 0.002982 0.108726
v -0.124481 -0.000088 0.108341
v -0.126245 -0.006542 0.159811
v -0.126245 -0.003472 0.160195
v -0.126245 0.002908 0.109320
v -0.126245 -0.000163 0.108935
v -0.127913 -0.006440 0.158994
v -0.127913 -0.003370 0.159378
v -0.127913 0.002805 0.110137
v -0.127913 -0.000265 0.109752
v -0.129461 -0.006311 0.157967
v -0.129461 -0.003241 0.158352
v -0.129461 0.002676 0.111163
v -0.129461 -0.000394 0.110778
v -0.130861 -0.006158 0.156749
v -0.130861 -0.003088 0.157134
v -0.130861 0.002524 0.112381
v -0.130861 -0.000546 0.111996
v -0.132088 -0.002914 0.155746
v -0.132088 -0.005984 0.155361
v -0.132088 -0.000720 0.113384
v -0.132088 0.002350 0.113770
v -0.133123 -0.002722 0.154210
v -0.133123 -0.005792 0.153825
v -0.133123 -0.000913 0.114920
v -0.133123 0.002157 0.115305
v -0.133946 -0.002514 0.152553
v -0.133946 -0.005584 0.152168
v -0.133946 -0.001121 0.116577
v -0.133946 0.001949 0.116962
v -0.134545 -0.002295 0.150804
v -0.134545 -0.005365 0.150420
v -0.134545 -0.001340 0.118326
v -0.134545 0.001730 0.118711
v -0.134775 -0.002150 0.149652
v -0.134775 -0.005220 0.149267
v -0.134775 -0.001485 0.119478
v -0.134775 0.001585 0.119863
v -0.134775 0.001585 0.119863
v -0.134775 -0.005220 0.149267
v -0.134775 -0.002150 0.149652
v -0.134775 -0.001485 0.119478
vt 0.09537478 0.6160789
vt 0.09715826 0.7741341
vt 0.09534664 0.6946219
vt 0.0971864 0.6955911
vt 0.1196464 1.670237
vt 0.1197533 1.754696
vt 0.1196183 1.748783
vt 0.1197814 1.67615
vt 0.07237384 -0.400117
vt 0.07248077 -0.3156582
vt 0.07234575 -0.3215714
vt 0.07250885 -0.3942038
vt 0.166722 3.607964
vt 0.1668295 3.692344
vt 0.1666944 3.686531
vt 0.1668571 3.613778
vt 0.02205975 -2.619275
vt 0.02216719 -2.534895
vt 0.02203214 -2.540709
vt 0.0221948 -2.613461
vt 0.2110193 5.203065
vt 0.2111277 5.287286
vt 0.2109926 5.281671
vt 0.2111544 5.208681
vt -0.02866638 -4.758469
vt -0.02855793 -4.674247
vt -0.02869305 -4.679863
vt -0.02853126 -4.752853
vt 0.2518006 6.347314
vt 0.2519106 6.431299
vt 0.2517753 6.425977
vt 0.2519358 6.352637
vt -0.07897086 -6.673111
vt -0.07886092 -6.589126
vt -0.07899613 -6.594448
vt -0.07883564 -6.667788
vt 0.2883745 6.962339
vt 0.2884864 7.046009
vt 0.2883511 7.04107
vt 0.2885098 6.967278
vt -0.1280172 -8.23315
vt -0.1279053 -8.14948
vt -0.1280406 -8.154419
vt -0.1278818 -8.228211
vt 0.3201058 7.005056
vt 0.3202201 7.088335
vt 0.3200846 7.083865
vt 0.3202413 7.009526
vt -0.1749765 -9.331819
vt -0.1748622 -9.24854
vt -0.1749977 -9.253011
vt -0.174841 -9.327349
vt 0.3465639 6.474848
vt 0.3464096 6.549813
vt 0.3464283 6.470924
vt 0.3465452 6.553737
vt -0.2189046 -9.889095
vt -0.2190589 -9.81413
vt -0.2190402 -9.893019
vt -0.2189233 -9.810206
vt 0.3669931 5.397994
vt 0.3668416 5.473651
vt 0.3668573 5.394684
vt 0.3669773 5.476961
vt -0.2592989 -9.87352
vt -0.2594504 -9.797863
vt -0.2594346 -9.876829
vt -0.2593146 -9.794553
vt 0.3811396 3.851084
vt 0.3809912 3.927484
vt 0.3810037 3.848447
vt 0.3811271 3.930121
vt -0.2953008 -9.280032
vt -0.2954492 -9.203632
vt -0.2954367 -9.282669
vt -0.2953133 -9.200995
vt 0.3887222 1.939032
vt 0.3885771 2.016208
vt 0.3885862 1.937114
vt 0.3887131 2.018126
vt -0.3262553 -8.147871
vt -0.3264004 -8.070695
vt -0.3263913 -8.149789
vt -0.3262644 -8.068777
vt 0.3895784 -0.2074687
vt 0.3894368 -0.129499
vt 0.3894424 -0.2086335
vt 0.3895728 -0.1283342
vt -0.3515926 -6.553766
vt -0.3517342 -6.475797
vt -0.3517287 -6.554931
vt -0.3515982 -6.474632
vt 0.3836725 -2.440953
vt 0.3835346 -2.362189
vt 0.3835365 -2.441344
vt 0.3836707 -2.361798
vt -0.3708441 -4.60683
vt -0.3709821 -4.528065
vt -0.3709802 -4.60722
vt -0.370846 -4.527674
vt 0.3781403 -3.463027
vt 0.3760599 -3.542185
vt 0.3781403 -3.542185
vt 0.3760599 -3.463027
vt -0.3760599 -3.463027
vt -0.3781403 -3.542185
vt -0.3760599 -3.542185
vt -0.3781403 -3.463027
vt 0.3690255 -4.522448
vt 0.3688876 -4.601213
vt 0.3690237 -4.601604
vt 0.3688895 -4.522058
vt -0.3815781 -2.367805
vt -0.381716 -2.44657
vt -0.3815799 -2.44696
vt -0.3817141 -2.367414
vt 0.3500504 -6.461379
vt 0.3499089 -6.539349
vt 0.3500449 -6.540514
vt 0.3499144 -6.460214
vt -0.387753 -0.1439164
vt -0.3878946 -0.2218862
vt -0.3877586 -0.2230509
vt -0.3878891 -0.1427517
vt 0.3250183 -8.051198
vt 0.3248733 -8.128373
vt 0.3250092 -8.130292
vt 0.3248824 -8.049279
vt -0.3871951 1.99671
vt -0.3873401 1.919534
vt -0.3872042 1.917616
vt -0.387331 1.998628
vt 0.2943924 -9.183119
vt 0.294244 -9.259518
vt 0.2943799 -9.262155
vt 0.2942566 -9.180481
vt -0.3799345 3.90697
vt -0.3800828 3.830571
vt -0.379947 3.827933
vt -0.3800703 3.909607
vt 0.2587366 -9.780459
vt 0.2585852 -9.856116
vt 0.2587209 -9.859426
vt 0.2586009 -9.777149
vt -0.3661279 5.456247
vt -0.3662793 5.38059
vt -0.3661436 5.377281
vt -0.3662636 5.459557
vt 0.2186998 -9.803738
vt 0.2185455 -9.878703
vt 0.2186811 -9.882627
vt 0.2185642 -9.799814
vt -0.3460505 6.539421
vt -0.3462048 6.464456
vt -0.3460692 6.460532
vt -0.3461861 6.543345
vt 0.1748632 -9.248572
vt 0.1749774 -9.331851
vt 0.1749987 -9.253043
vt 0.174842 -9.327381
vt -0.320221 7.088367
vt -0.3201068 7.005088
vt -0.3200856 7.083897
vt -0.3202423 7.009558
vt 0.1282656 -8.162629
vt 0.1283775 -8.246299
vt 0.1284009 -8.167568
vt 0.1282421 -8.24136
vt -0.2888467 7.059158
vt -0.2887348 6.975488
vt -0.2887114 7.054219
vt -0.2888702 6.980426
vt 0.07957378 -6.617187
vt 0.07968372 -6.701171
vt 0.079709 -6.622509
vt 0.0795485 -6.695849
vt -0.2526234 6.45936
vt -0.2525135 6.375375
vt -0.2524882 6.454038
vt -0.2526487 6.380698
vt 0.0296107 -4.718002
vt 0.02971915 -4.802223
vt 0.02974582 -4.723617
vt 0.02958403 -4.796607
vt -0.2121805 5.331041
vt -0.212072 5.246819
vt -0.2120454 5.325425
vt -0.2122071 5.252435
vt -0.02074353 -2.596179
vt -0.02068525 -2.678442
vt -0.02065764 -2.599876
vt -0.02077114 -2.674745
vt -0.168204 3.751512
vt -0.1681457 3.669248
vt -0.1681181 3.747815
vt -0.1682316 3.672945
vt -0.09734119 0.782163
vt -0.09519185 0.60805
vt -0.09516371 0.6865931
vt -0.09736933 0.7036199
vn 1 0 0
vn -1 0 0
vn 0.9914448574238509 -0.01624080930256223 0.12951189443830116
vn 0.9978589229244076 -0.008137831186955258 0.06489488149086878
vn -0.9914448574238509 0.01624080930256223 -0.12951189443830116
vn -0.9978589229244076 0.008137831186955258 -0.06489488149086878
vn 0.9978589229244076 0.008137831186955258 -0.06489488149086878
vn 0.9914448574238509 0.01624080930256223 -0.12951189443830116
vn -0.9978589229244076 -0.008137831186955258 0.06489488149086878
vn -0.9914448574238509 -0.01624080930256223 0.12951189443830116
vn 0.9659258353746595 -0.032203741179382926 0.2568077094049512
vn -0.9659258353746595 0.032203741179382926 -0.2568077094049512
vn 0.9659258353746595 0.032203741179382926 -0.2568077094049512
vn -0.9659258353746595 -0.032203741179382926 0.2568077094049512
vn 0.9238795175862106 -0.04761566090637264 0.37970960722783975
vn -0.9238795175862106 0.04761566090637264 -0.37970960722783975
vn 0.9238795175862106 0.04761566090637264 -0.37970960722783975
vn -0.9238795175862106 -0.04761566090637264 0.37970960722783975
vn 0.866025387329818 -0.06221284908980958 0.496114492741713
vn -0.866025387329818 0.06221284908980958 -0.496114492741713
vn 0.866025387329818 0.06221284908980958 -0.496114492741713
vn -0.866025387329818 -0.06221284908980958 0.496114492741713
vn 0.7933533251738929 -0.07574557240348276 0.6040307191664976
vn -0.7933533251738929 0.07574557240348276 -0.6040307191664976
vn 0.7933533251738929 0.07574557240348276 -0.6040307191664976
vn -0.7933533251738929 -0.07574557240348276 0.6040307191664976
vn 0.707106792016698 -0.08798225900667221 0.7016117920787371
vn -0.707106792016698 0.08798225900667221 -0.7016117920787371
vn 0.707106792016698 0.08798225900667221 -0.7016117920787371
vn -0.707106792016698 -0.08798225900667221 0.7016117920787371
vn 0.6087614268265422 -0.09871355435005132 0.7871881346893459
vn -0.6087614268265422 0.09871355435005132 -0.7871881346893459
vn 0.6087614268265422 0.09871355435005132 -0.7871881346893459
vn -0.6087614268265422 -0.09871355435005132 0.7871881346893459
vn 0.4999999828115284 -0.10775579629568519 0.8592954704600474
vn -0.4999999828115284 0.10775579629568519 -0.8592954704600474
vn 0.4999999828115284 0.10775579629568519 -0.8592954704600474
vn -0.4999999828115284 -0.10775579629568519 0.8592954704600474
vn 0.3826834021593064 -0.114954400648635 0.9167000051725164
vn -0.3826834021593064 0.114954400648635 -0.9167000051725164
vn 0.3826834021593064 0.114954400648635 -0.9167000051725164
vn -0.3826834021593064 -0.114954400648635 0.9167000051725164
vn 0.2588190145796314 -0.12018600677024342 0.9584195539890928
vn -0.2588190145796314 0.12018600677024342 -0.9584195539890928
vn 0.2588190145796314 0.12018600677024342 -0.9584195539890928
vn -0.2588190145796314 -0.12018600677024342 0.9584195539890928
vn 0.1305261965804767 -0.12336119676818548 0.9837402742279874
vn -0.1305261965804767 0.12336119676818548 -0.9837402742279874
vn 0.1305261965804767 0.12336119676818548 -0.9837402742279874
vn -0.1305261965804767 -0.12336119676818548 0.9837402742279874
vn 0.06540312927695086 -0.12415929862738584 0.9901044890541291
vn -0.06540312927695086 0.12415929862738584 -0.9901044890541291
vn 0.06540312927695086 0.12415929862738584 -0.9901044890541291
vn -0.06540312927695086 -0.12415929862738584 0.9901044890541291
vn 0 -0.12442570343317293 0.9922289273777296
vn 0 0.12442570343317293 -0.9922289273777296
vn -0.9807852737494578 -0.024274249350304106 0.1935742948190187
vn 0.9807852737494578 0.024274249350304106 -0.1935742948190187
vn -0.9807852737494578 0.024274249350304106 -0.1935742948190187
vn 0.9807852737494578 -0.024274249350304106 0.1935742948190187
usemtl material_0_2
f 1/1/1 2/2/1 3/3/1
f 3/3/2 2/2/2 1/1/2
f 2/2/1 1/1/1 4/4/1
f 4/4/2 1/1/2 2/2/2
f 5/5/3 6/6/4 7/7/3
f 7/7/5 6/6/6 5/5/5
f 6/6/4 5/5/3 8/8/4
f 8/8/6 5/5/5 6/6/6
f 9/9/7 10/10/8 11/11/7
f 11/11/9 10/10/10 9/9/9
f 10/10/8 9/9/7 12/12/8
f 12/12/10 9/9/9 10/10/10
f 13/13/11 7/14/3 14/15/11
f 14/15/12 7/14/5 13/13/12
f 7/14/3 13/13/11 5/16/3
f 5/16/5 13/13/12 7/14/5
f 12/17/8 15/18/13 10/19/8
f 10/19/10 15/18/14 12/17/10
f 15/18/13 12/17/8 16/20/13
f 16/20/14 12/17/10 15/18/14
f 17/21/15 14/22/11 18/23/15
f 18/23/16 14/22/12 17/21/16
f 14/22/11 17/21/15 13/24/11
f 13/24/12 17/21/16 14/22/12
f 16/25/13 19/26/17 15/27/13
f 15/27/14 19/26/18 16/25/14
f 19/26/17 16/25/13 20/28/17
f 20/28/18 16/25/14 19/26/18
f 21/29/19 18/30/15 22/31/19
f 22/31/20 18/30/16 21/29/20
f 18/30/15 21/29/19 17/32/15
f 17/32/16 21/29/20 18/30/16
f 20/33/17 23/34/21 19/35/17
f 19/35/18 23/34/22 20/33/18
f 23/34/21 20/33/17 24/36/21
f 24/36/22 20/33/18 23/34/22
f 25/37/23 22/38/19 26/39/23
f 26/39/24 22/38/20 25/37/24
f 22/38/19 25/37/23 21/40/19
f 21/40/20 25/37/24 22/38/20
f 24/41/21 27/42/25 23/43/21
f 23/43/22 27/42/26 24/41/22
f 27/42/25 24/41/21 28/44/25
f 28/44/26 24/41/22 27/42/26
f 29/45/27 26/46/23 30/47/27
f 30/47/28 26/46/24 29/45/28
f 26/46/23 29/45/27 25/48/23
f 25/48/24 29/45/28 26/46/24
f 28/49/25 31/50/29 27/51/25
f 27/51/26 31/50/30 28/49/26
f 31/50/29 28/49/25 32/52/29
f 32/52/30 28/49/26 31/50/30
f 29/53/27 33/54/31 34/55/31
f 34/55/32 33/54/32 29/53/28
f 33/54/31 29/53/27 30/56/27
f 30/56/28 29/53/28 33/54/32
f 35/57/33 31/58/29 32/59/29
f 32/59/30 31/58/30 35/57/34
f 31/58/29 35/57/33 36/60/33
f 36/60/34 35/57/34 31/58/30
f 34/61/31 37/62/35 38/63/35
f 38/63/36 37/62/36 34/61/32
f 37/62/35 34/61/31 33/64/31
f 33/64/32 34/61/32 37/62/36
f 39/65/37 36/66/33 35/67/33
f 35/67/34 36/66/34 39/65/38
f 36/66/33 39/65/37 40/68/37
f 40/68/38 39/65/38 36/66/34
f 38/69/35 41/70/39 42/71/39
f 42/71/40 41/70/40 38/69/36
f 41/70/39 38/69/35 37/72/35
f 37/72/36 38/69/36 41/70/40
f 43/73/41 40/74/37 39/75/37
f 39/75/38 40/74/38 43/73/42
f 40/74/37 43/73/41 44/76/41
f 44/76/42 43/73/42 40/74/38
f 42/77/39 45/78/43 46/79/43
f 46/79/44 45/78/44 42/77/40
f 45/78/43 42/77/39 41/80/39
f 41/80/40 42/77/40 45/78/44
f 47/81/45 44/82/41 43/83/41
f 43/83/42 44/82/42 47/81/46
f 44/82/41 47/81/45 48/84/45
f 48/84/46 47/81/46 44/82/42
f 46/85/43 49/86/47 50/87/47
f 50/87/48 49/86/48 46/85/44
f 49/86/47 46/85/43 45/88/43
f 45/88/44 46/85/44 49/86/48
f 51/89/49 48/90/45 47/91/45
f 47/91/46 48/90/46 51/89/50
f 48/90/45 51/89/49 52/92/49
f 52/92/50 51/89/50 48/90/46
f 50/93/47 53/94/51 54/95/51
f 54/95/52 53/94/52 50/93/48
f 53/94/51 50/93/47 49/96/47
f 49/96/48 50/93/48 53/94/52
f 55/97/53 52/98/49 51/99/49
f 51/99/50 52/98/50 55/97/54
f 52/98/49 55/97/53 56/100/53
f 56/100/54 55/97/54 52/98/50
f 57/101/55 58/102/55 59/103/55
f 59/103/56 58/102/56 57/101/56
f 58/102/55 57/101/55 60/104/55
f 60/104/56 57/101/56 58/102/56
f 61/105/56 62/106/56 63/107/56
f 63/107/55 62/106/55 61/105/55
f 62/106/56 61/105/56 64/108/56
f 64/108/55 61/105/55 62/106/55
f 65/109/54 66/110/50 67/111/54
f 67/111/53 66/110/49 65/109/53
f 66/110/50 65/109/54 68/112/50
f 68/112/49 65/109/53 66/110/49
f 69/113/48 70/114/52 71/115/48
f 71/115/47 70/114/51 69/113/47
f 70/114/52 69/113/48 72/116/52
f 72/116/51 69/113/47 70/114/51
f 68/117/50 73/118/46 66/119/50
f 66/119/49 73/118/45 68/117/49
f 73/118/46 68/117/50 74/120/46
f 74/120/45 68/117/49 73/118/45
f 75/121/44 71/122/48 76/123/44
f 76/123/43 71/122/47 75/121/43
f 71/122/48 75/121/44 69/124/48
f 69/124/47 75/121/43 71/122/47
f 74/125/46 77/126/42 73/127/46
f 73/127/45 77/126/41 74/125/45
f 77/126/42 74/125/46 78/128/42
f 78/128/41 74/125/45 77/126/41
f 79/129/40 76/130/44 80/131/40
f 80/131/39 76/130/43 79/129/39
f 76/130/44 79/129/40 75/132/44
f 75/132/43 79/129/39 76/130/43
f 78/133/42 81/134/38 77/135/42
f 77/135/41 81/134/37 78/133/41
f 81/134/38 78/133/42 82/136/38
f 82/136/37 78/133/41 81/134/37
f 83/137/36 80/138/40 84/139/36
f 84/139/35 80/138/39 83/137/35
f 80/138/40 83/137/36 79/140/40
f 79/140/39 83/137/35 80/138/39
f 82/141/38 85/142/34 81/143/38
f 81/143/37 85/142/33 82/141/37
f 85/142/34 82/141/38 86/144/34
f 86/144/33 82/141/37 85/142/33
f 87/145/32 84/146/36 88/147/32
f 88/147/31 84/146/35 87/145/31
f 84/146/36 87/145/32 83/148/36
f 83/148/35 87/145/31 84/146/35
f 86/149/34 89/150/30 85/151/34
f 85/151/33 89/150/29 86/149/33
f 89/150/30 86/149/34 90/152/30
f 90/152/29 86/149/33 89/150/29
f 91/153/28 88/154/32 92/155/28
f 92/155/27 88/154/31 91/153/27
f 88/154/32 91/153/28 87/156/32
f 87/156/31 91/153/27 88/154/31
f 93/157/26 89/158/30 90/159/30
f 90/159/29 89/158/29 93/157/25
f 89/158/30 93/157/26 94/160/26
f 94/160/25 93/157/25 89/158/29
f 91/161/28 95/162/24 96/163/24
f 96/163/23 95/162/23 91/161/27
f 95/162/24 91/161/28 92/164/28
f 92/164/27 91/161/27 95/162/23
f 97/165/22 94/166/26 93/167/26
f 93/167/25 94/166/25 97/165/21
f 94/166/26 97/165/22 98/168/22
f 98/168/21 97/165/21 94/166/25
f 96/169/24 99/170/20 100/171/20
f 100/171/19 99/170/19 96/169/23
f 99/170/20 96/169/24 95/172/24
f 95/172/23 96/169/23 99/170/19
f 101/173/18 98/174/22 97/175/22
f 97/175/21 98/174/21 101/173/17
f 98/174/22 101/173/18 102/176/18
f 102/176/17 101/173/17 98/174/21
f 100/177/20 103/178/16 104/179/16
f 104/179/15 103/178/15 100/177/19
f 103/178/16 100/177/20 99/180/20
f 99/180/19 100/177/19 103/178/15
f 105/181/14 102/182/18 101/183/18
f 101/183/17 102/182/17 105/181/13
f 102/182/18 105/181/14 106/184/14
f 106/184/13 105/181/13 102/182/17
f 104/185/16 107/186/12 108/187/12
f 108/187/11 107/186/11 104/185/15
f 107/186/12 104/185/16 103/188/16
f 103/188/15 104/185/15 107/186/11
f 109/189/57 106/190/14 105/191/14
f 105/191/13 106/190/13 109/189/58
f 106/190/14 109/189/57 110/192/57
f 110/192/58 109/189/58 106/190/13
f 108/193/12 111/194/59 112/195/59
f 112/195/60 111/194/60 108/193/11
f 111/194/59 108/193/12 107/196/12
f 107/196/11 108/193/11 111/194/60
f 113/197/2 114/198/2 115/199/2
f 115/199/1 114/198/1 113/197/1
f 114/198/2 113/197/2 116/200/2
f 116/200/1 113/197/1 114/198/1
