# SSTK version 0.8.0
# 608
mtllib original-608.mtl
o #ID3195
v -0.674155 0.016017 -0.068582
v -0.674155 0.016238 -0.069497
v -0.674155 0.015421 -0.068645
v -0.674155 0.016157 -0.068729
v -0.672709 0.016017 -0.068582
v -0.674155 0.016157 -0.068729
v -0.674155 0.016017 -0.068582
v -0.672709 0.016157 -0.068729
v -0.674155 0.016157 -0.068729
v -0.672709 0.016238 -0.069497
v -0.674155 0.016238 -0.069497
v -0.672709 0.016157 -0.068729
v -0.674155 0.015519 -0.069573
v -0.672709 0.015421 -0.068645
v -0.674155 0.016017 -0.068582
v -0.674155 0.015421 -0.068645
v -0.672709 0.016017 -0.068582
v -0.672709 0.016238 -0.069497
v -0.672709 0.016017 -0.068582
v -0.672709 0.015421 -0.068645
v -0.672709 0.016157 -0.068729
v -0.674155 0.007422 -0.069921
v -0.674155 0.015571 -0.070070
v -0.674155 0.007218 -0.070948
v -0.674155 0.007870 -0.069439
v -0.674155 0.020784 -0.119669
v -0.674155 0.021503 -0.119594
v -0.674155 0.005282 -0.069711
v -0.674155 0.005617 -0.072899
v -0.674155 0.006851 -0.071670
v -0.674155 0.020882 -0.120597
v -0.674155 0.013330 -0.121391
v -0.674155 0.013233 -0.120463
v -0.674155 0.012792 -0.121012
v -0.674155 0.012586 -0.120531
v -0.674155 0.012035 -0.119527
v -0.674155 0.010743 -0.121663
v -0.674155 0.010408 -0.118475
v -0.674155 0.012837 -0.121443
v -0.674155 0.012304 -0.119874
v -0.674155 0.010035 -0.118234
v -0.674155 0.009997 -0.120803
v -0.674155 0.009655 -0.117556
v -0.674155 0.005073 -0.073954
v -0.674155 0.004731 -0.070707
v -0.674155 0.005303 -0.073212
v -0.664031 0.005282 -0.069711
v -0.674155 0.007870 -0.069439
v -0.674155 0.005282 -0.069711
v -0.672709 0.007870 -0.069439
v -0.664031 0.007870 -0.069439
v -0.674155 0.021477 -0.120535
v -0.674155 0.021584 -0.120362
v -0.672709 0.013330 -0.121391
v -0.674155 0.012837 -0.121443
v -0.674155 0.013330 -0.121391
v -0.674155 0.010743 -0.121663
v -0.664031 0.010743 -0.121663
v -0.664031 0.013330 -0.121391
v -0.674155 0.009997 -0.120803
v -0.664031 0.010743 -0.121663
v -0.674155 0.010743 -0.121663
v -0.664031 0.009997 -0.120803
v -0.673215 0.009997 -0.120803
v -0.674155 0.009655 -0.117556
v -0.673215 0.009997 -0.120803
v -0.674155 0.009997 -0.120803
v -0.664031 0.009997 -0.120803
v -0.664031 0.009655 -0.117556
v -0.672709 0.009655 -0.117556
v -0.674155 0.005282 -0.069711
v -0.664031 0.004731 -0.070707
v -0.674155 0.004731 -0.070707
v -0.664031 0.005282 -0.069711
v -0.674155 0.004731 -0.070707
v -0.672709 0.005073 -0.073954
v -0.674155 0.005073 -0.073954
v -0.664031 0.005073 -0.073954
v -0.664031 0.004731 -0.070707
v -0.672709 0.021584 -0.120362
v -0.674155 0.021477 -0.120535
v -0.672709 0.021477 -0.120535
v -0.674155 0.021584 -0.120362
v -0.672709 0.021477 -0.120535
v -0.674155 0.020882 -0.120597
v -0.674155 0.021477 -0.120535
v -0.672709 0.020882 -0.120597
v -0.674155 0.021503 -0.119594
v -0.672709 0.021584 -0.120362
v -0.674155 0.021584 -0.120362
v -0.672709 0.021503 -0.119594
v -0.672709 0.021503 -0.119594
v -0.672709 0.021477 -0.120535
v -0.672709 0.020882 -0.120597
v -0.672709 0.021584 -0.120362
vt 0.006430003 1.202447
vt 0.006358574 1.206736
vt 0.006430003 1.181736
vt 0.006417748 1.206736
vt 2.811052e-20 -0.7410862
vt -0.0001428571 -0.7350201
vt -0.0001428571 -0.7410862
vt 2.805694e-20 -0.7350201
vt 0.006417748 -0.05
vt 0.006358574 0
vt 0.006358574 -0.05
vt 0.006417748 0
vt 0.006358574 1.181736
vt 0 1.181736
vt -0.0001428571 1.202447
vt -0.0001428571 1.181736
vt 0 1.202447
vt -0.006358574 1.206736
vt -0.006430003 1.202447
vt -0.006430003 1.181736
vt -0.006417748 1.206736
vt 0.006396843 0.9020939
vt 0.006320306 1.181736
vt 0.006320306 0.8913786
vt 0.006430003 0.9192362
vt 0.002501431 1.181736
vt 0.002501431 1.206736
vt 0.006430003 0.8292785
vt 0.006184543 0.8292785
vt 0.006268217 0.8761363
vt 0.002430003 1.181736
vt 0.002430003 0.9192362
vt 0.002501431 0.9192362
vt 0.002463163 0.9020939
vt 0.002501431 0.8967362
vt 0.002582324 0.8814362
vt 0.002430003 0.8292785
vt 0.002675463 0.8292785
vt 0.002430003 0.9020939
vt 0.002553726 0.889415
vt 0.002696789 0.8173362
vt 0.002501431 0.8067362
vt 0.002751431 0.8067362
vt 0.006108574 0.8067362
vt 0.006358574 0.8067362
vt 0.006163217 0.8173362
vt 0.0008571429 0.8292785
vt -0.0001428571 0.9192362
vt -0.0001428571 0.8292785
vt 0 0.9192362
vt 0.0008571429 0.9192362
vt 0.002430003 1.202447
vt 0.002442258 1.206736
vt 0.0001428571 0.9020939
vt 0.0001428571 0.9192362
vt 0.0001428571 0.8292785
vt -0.0008571429 0.8292785
vt -0.0008571429 0.9192362
vt -0.0001428571 -0.1099705
vt 0.0008571429 -0.07630813
vt -0.0001428571 -0.07630813
vt 0.0008571429 -0.1099705
vt -0.00005 -0.1099705
vt 0.002751431 -0.05
vt 0.002501431 -0.0175
vt 0.002501431 -0.05
vt 0.002501431 0.3
vt 0.002751431 0.3
vt 0.002751431 0
vt 0.0001428571 2.226712
vt -0.0008571429 2.193049
vt 0.0001428571 2.193049
vt -0.0008571429 2.226712
vt 0.006108574 0
vt 0.006108574 -0.05
vt 0.006108574 0.3
vt 0.006358574 0.3
vt -1.0677e-20 1.457719
vt -0.0001428571 1.451653
vt -1.062342e-20 1.451653
vt -0.0001428571 1.457719
vt 0.0001428571 1.181736
vt 0.0001428571 1.202447
vt 0.002442258 0
vt 0.002442258 -0.05
vt 0.002501431 0
vn -1 0 0
vn 1 0 0
vn 0 0.721970113272567 0.691924241186271
vn 0 -0.721970113272567 -0.691924241186271
vn 0 0.9945218916003553 0.1045284991169919
vn 0 -0.9945218916003553 -0.1045284991169919
vn 0 -0.10452849911715988 0.9945218916003379
vn 0 0.10452849911715988 -0.9945218916003379
vn 0 0.7552478202872396 0.6554393411684817
vn 0 -0.7552478202872396 -0.6554393411684817
vn 0 0.9945218916003377 0.10452849911715985
vn 0 -0.9945218916003377 -0.10452849911715985
vn 0 0.8750173799242886 -0.48409150460469064
vn 0 -0.8750173799242886 0.48409150460469064
vn 0 -0.8500525109736463 0.5266979481518786
vn 0 0.8500525109736463 -0.5266979481518786
vn 0 0.99452189160032 0.10452849911732777
vn 0 -0.99452189160032 -0.10452849911732777
usemtl material_0_2
f 1/1/1 2/2/1 3/3/1
f 3/3/2 2/2/2 1/1/2
f 2/2/1 1/1/1 4/4/1
f 4/4/2 1/1/2 2/2/2
f 5/5/3 6/6/3 7/7/3
f 7/7/4 6/6/4 5/5/4
f 6/6/3 5/5/3 8/8/3
f 8/8/4 5/5/4 6/6/4
f 9/9/5 10/10/5 11/11/5
f 11/11/6 10/10/6 9/9/6
f 10/10/5 9/9/5 12/12/5
f 12/12/6 9/9/6 10/10/6
f 2/2/1 13/13/1 3/3/1
f 3/3/2 13/13/2 2/2/2
f 14/14/7 15/15/7 16/16/7
f 16/16/8 15/15/8 14/14/8
f 15/15/7 14/14/7 17/17/7
f 17/17/8 14/14/8 15/15/8
f 18/18/2 19/19/2 20/20/2
f 20/20/1 19/19/1 18/18/1
f 19/19/2 18/18/2 21/21/2
f 21/21/1 18/18/1 19/19/1
f 22/22/1 23/23/1 24/24/1
f 24/24/2 23/23/2 22/22/2
f 23/23/1 22/22/1 25/25/1
f 25/25/2 22/22/2 23/23/2
f 23/23/1 25/25/1 3/3/1
f 3/3/2 25/25/2 23/23/2
f 23/23/1 3/3/1 13/13/1
f 13/13/2 3/3/2 23/23/2
f 2/2/1 23/23/1 13/13/1
f 13/13/2 23/23/2 2/2/2
f 23/23/1 2/2/1 26/26/1
f 26/26/2 2/2/2 23/23/2
f 26/26/1 2/2/1 27/27/1
f 27/27/2 2/2/2 26/26/2
f 28/28/1 22/22/1 29/29/1
f 29/29/2 22/22/2 28/28/2
f 22/22/1 28/28/1 25/25/1
f 25/25/2 28/28/2 22/22/2
f 29/29/1 22/22/1 30/30/1
f 30/30/2 22/22/2 29/29/2
f 30/30/1 22/22/1 24/24/1
f 24/24/2 22/22/2 30/30/2
f 27/27/1 31/31/1 26/26/1
f 26/26/2 31/31/2 27/27/2
f 26/26/1 32/32/1 33/33/1
f 33/33/2 32/32/2 26/26/2
f 32/32/1 26/26/1 31/31/1
f 31/31/2 26/26/2 32/32/2
f 33/33/1 34/34/1 35/35/1
f 35/35/2 34/34/2 33/33/2
f 34/34/1 33/33/1 32/32/1
f 32/32/2 33/33/2 34/34/2
f 36/36/1 37/37/1 38/38/1
f 38/38/2 37/37/2 36/36/2
f 37/37/1 36/36/1 39/39/1
f 39/39/2 36/36/2 37/37/2
f 39/39/1 36/36/1 40/40/1
f 40/40/2 36/36/2 39/39/2
f 39/39/1 40/40/1 35/35/1
f 35/35/2 40/40/2 39/39/2
f 39/39/1 35/35/1 34/34/1
f 34/34/2 35/35/2 39/39/2
f 39/39/1 34/34/1 32/32/1
f 32/32/2 34/34/2 39/39/2
f 41/41/1 42/42/1 43/43/1
f 43/43/2 42/42/2 41/41/2
f 42/42/1 41/41/1 37/37/1
f 37/37/2 41/41/2 42/42/2
f 37/37/1 41/41/1 38/38/1
f 38/38/2 41/41/2 37/37/2
f 28/28/1 44/44/1 45/45/1
f 45/45/2 44/44/2 28/28/2
f 44/44/1 28/28/1 46/46/1
f 46/46/2 28/28/2 44/44/2
f 46/46/1 28/28/1 29/29/1
f 29/29/2 28/28/2 46/46/2
f 47/47/7 48/48/7 49/49/7
f 49/49/8 48/48/8 47/47/8
f 48/48/7 47/47/7 50/50/7
f 50/50/8 47/47/8 48/48/8
f 50/50/7 47/47/7 51/51/7
f 51/51/8 47/47/8 50/50/8
f 27/27/1 52/52/1 31/31/1
f 31/31/2 52/52/2 27/27/2
f 52/52/1 27/27/1 53/53/1
f 53/53/2 27/27/2 52/52/2
f 54/50/8 55/54/8 56/55/8
f 56/55/7 55/54/7 54/50/7
f 55/54/8 54/50/8 57/56/8
f 57/56/7 54/50/7 55/54/7
f 57/56/8 54/50/8 58/57/8
f 58/57/7 54/50/7 57/56/7
f 58/57/8 54/50/8 59/58/8
f 59/58/7 54/50/7 58/57/7
f 60/59/9 61/60/9 62/61/9
f 62/61/10 61/60/10 60/59/10
f 61/60/9 60/59/9 63/62/9
f 63/62/10 60/59/10 61/60/10
f 63/62/9 60/59/9 64/63/9
f 64/63/10 60/59/10 63/62/10
f 65/64/11 66/65/11 67/66/11
f 67/66/12 66/65/12 65/64/12
f 66/65/11 65/64/11 68/67/11
f 68/67/12 65/64/12 66/65/12
f 68/67/11 65/64/11 69/68/11
f 69/68/12 65/64/12 68/67/12
f 69/68/11 65/64/11 70/69/11
f 70/69/12 65/64/12 69/68/12
f 71/70/13 72/71/13 73/72/13
f 73/72/14 72/71/14 71/70/14
f 72/71/13 71/70/13 74/73/13
f 74/73/14 71/70/14 72/71/14
f 75/11/11 76/74/11 77/75/11
f 77/75/12 76/74/12 75/11/12
f 76/74/11 75/11/11 78/76/11
f 78/76/12 75/11/12 76/74/12
f 78/76/11 75/11/11 79/77/11
f 79/77/12 75/11/12 78/76/12
f 80/78/15 81/79/15 82/80/15
f 82/80/16 81/79/16 80/78/16
f 81/79/15 80/78/15 83/81/15
f 83/81/16 80/78/16 81/79/16
f 84/17/8 85/82/8 86/83/8
f 86/83/7 85/82/7 84/17/7
f 85/82/8 84/17/8 87/14/8
f 87/14/7 84/17/7 85/82/7
f 88/66/17 89/84/17 90/85/17
f 90/85/18 89/84/18 88/66/18
f 89/84/17 88/66/17 91/86/17
f 91/86/18 88/66/18 89/84/18
f 92/27/1 93/52/1 94/31/1
f 94/31/2 93/52/2 92/27/2
f 93/52/1 92/27/1 95/53/1
f 95/53/2 92/27/2 93/52/2
