# SSTK version 0.8.0
# 131
mtllib original-131.mtl
o #ID4084
v 0.090909 0.017738 -0.008946
v 0.090909 0.011560 0.015457
v 0.090909 0.014630 0.015842
v 0.090909 0.014668 -0.009331
v 0.091030 0.017968 -0.010780
v 0.090909 0.014668 -0.009331
v 0.090909 0.017738 -0.008946
v 0.091030 0.014898 -0.011166
v 0.090909 0.014630 0.015842
v 0.091392 0.011103 0.019096
v 0.091392 0.014173 0.019481
v 0.090909 0.011560 0.015457
v 0.091392 0.018194 -0.012584
v 0.091030 0.014898 -0.011166
v 0.091030 0.017968 -0.010780
v 0.091392 0.015124 -0.012970
v 0.091392 0.014173 0.019481
v 0.091987 0.010885 0.020837
v 0.091987 0.013955 0.021222
v 0.091392 0.011103 0.019096
v 0.091987 0.018413 -0.014326
v 0.091392 0.015124 -0.012970
v 0.091392 0.018194 -0.012584
v 0.091987 0.015343 -0.014711
v 0.091987 0.013955 0.021222
v 0.092808 0.010678 0.022486
v 0.092808 0.013748 0.022871
v 0.091987 0.010885 0.020837
v 0.092808 0.018620 -0.015975
v 0.091987 0.015343 -0.014711
v 0.091987 0.018413 -0.014326
v 0.092808 0.015550 -0.016360
v 0.092808 0.013748 0.022871
v 0.093837 0.010486 0.024016
v 0.093837 0.013556 0.024400
v 0.092808 0.010678 0.022486
v 0.093837 0.018811 -0.017504
v 0.092808 0.015550 -0.016360
v 0.092808 0.018620 -0.015975
v 0.093837 0.015741 -0.017889
v 0.093837 0.013556 0.024400
v 0.095059 0.010313 0.025398
v 0.095059 0.013383 0.025783
v 0.093837 0.010486 0.024016
v 0.095059 0.018985 -0.018887
v 0.093837 0.015741 -0.017889
v 0.093837 0.018811 -0.017504
v 0.095059 0.015915 -0.019272
v 0.096453 0.013231 0.026996
v 0.095059 0.010313 0.025398
v 0.096453 0.010161 0.026611
v 0.095059 0.013383 0.025783
v 0.095059 0.018985 -0.018887
v 0.096453 0.016067 -0.020484
v 0.095059 0.015915 -0.019272
v 0.096453 0.019137 -0.020099
v 0.097994 0.013103 0.028017
v 0.096453 0.010161 0.026611
v 0.097994 0.010033 0.027633
v 0.096453 0.013231 0.026996
v 0.096453 0.019137 -0.020099
v 0.097994 0.016195 -0.021506
v 0.096453 0.016067 -0.020484
v 0.097994 0.019265 -0.021121
v 0.099656 0.013001 0.028831
v 0.097994 0.010033 0.027633
v 0.099656 0.009931 0.028446
v 0.097994 0.013103 0.028017
v 0.097994 0.019265 -0.021121
v 0.099656 0.016297 -0.022319
v 0.097994 0.016195 -0.021506
v 0.099656 0.019367 -0.021935
v 0.101411 0.012927 0.029422
v 0.099656 0.009931 0.028446
v 0.101411 0.009857 0.029037
v 0.099656 0.013001 0.028831
v 0.099656 0.019367 -0.021935
v 0.101411 0.016371 -0.022911
v 0.099656 0.016297 -0.022319
v 0.101411 0.019441 -0.022526
v 0.103229 0.012882 0.029781
v 0.101411 0.009857 0.029037
v 0.103229 0.009812 0.029396
v 0.101411 0.012927 0.029422
v 0.101411 0.019441 -0.022526
v 0.103229 0.016416 -0.023269
v 0.101411 0.016371 -0.022911
v 0.103229 0.019486 -0.022884
v 0.105079 0.012867 0.029902
v 0.103229 0.009812 0.029396
v 0.105079 0.009797 0.029516
v 0.103229 0.012882 0.029781
v 0.103229 0.019486 -0.022884
v 0.135267 0.016416 -0.023269
v 0.103229 0.016416 -0.023269
v 0.135267 0.019486 -0.022884
v 0.133417 0.012867 0.029902
v 0.105079 0.009797 0.029516
v 0.133417 0.009797 0.029516
v 0.105079 0.012867 0.029902
v 0.135267 0.016416 -0.023269
v 0.135437 0.019482 -0.022851
v 0.135437 0.016412 -0.023235
v 0.135267 0.019486 -0.022884
v 0.135267 0.009812 0.029396
v 0.133417 0.012867 0.029902
v 0.133417 0.009797 0.029516
v 0.135267 0.012882 0.029781
v 0.135437 0.016412 -0.023235
v 0.137085 0.019441 -0.022526
v 0.137085 0.016371 -0.022911
v 0.135437 0.019482 -0.022851
v 0.137085 0.009857 0.029037
v 0.137085 0.012927 0.029422
v 0.138839 0.019367 -0.021935
v 0.138839 0.016297 -0.022319
v 0.138839 0.009931 0.028446
v 0.138839 0.013001 0.028831
v 0.140502 0.019265 -0.021121
v 0.140502 0.016195 -0.021506
v 0.140502 0.010033 0.027633
v 0.140502 0.013103 0.028017
v 0.142043 0.019137 -0.020099
v 0.142043 0.016067 -0.020484
v 0.142043 0.010161 0.026611
v 0.142043 0.013231 0.026996
v 0.143436 0.018985 -0.018887
v 0.143436 0.015915 -0.019272
v 0.143436 0.010313 0.025398
v 0.143436 0.013383 0.025783
v 0.144658 0.015741 -0.017889
v 0.144658 0.018811 -0.017504
v 0.144658 0.013556 0.024400
v 0.144658 0.010486 0.024016
v 0.145687 0.015550 -0.016360
v 0.145687 0.018620 -0.015975
v 0.145687 0.013748 0.022871
v 0.145687 0.010678 0.022486
v 0.146508 0.015343 -0.014711
v 0.146508 0.018413 -0.014326
v 0.146508 0.013955 0.021222
v 0.146508 0.010885 0.020837
v 0.147103 0.015124 -0.012970
v 0.147103 0.018194 -0.012584
v 0.147103 0.014173 0.019481
v 0.147103 0.011103 0.019096
v 0.147465 0.014898 -0.011166
v 0.147465 0.017968 -0.010780
v 0.147465 0.014400 0.017677
v 0.147465 0.011330 0.017292
v 0.147587 0.014668 -0.009331
v 0.147587 0.017738 -0.008946
v 0.147587 0.014630 0.015842
v 0.147587 0.011560 0.015457
v 0.147587 0.011560 0.015457
v 0.147587 0.017738 -0.008946
v 0.147587 0.014630 0.015842
v 0.147587 0.014668 -0.009331
vt -0.1067566 1.195404
vt -0.1049728 1.037338
vt -0.1049447 1.115881
vt -0.1067847 1.116861
vt -0.1320754 2.294353
vt -0.131969 2.20992
vt -0.131941 2.288466
vt -0.1321035 2.215808
vt -0.0533455 -1.168381
vt -0.05310509 -1.25861
vt -0.05307719 -1.180057
vt -0.0533734 -1.246935
vt -0.1808173 4.294474
vt -0.1807104 4.21012
vt -0.1806828 4.288686
vt -0.1808449 4.215908
vt 0.02578519 -4.55901
vt 0.02589305 -4.643207
vt 0.02591972 -4.564601
vt 0.02575852 -4.637616
vt -0.2265465 5.928106
vt -0.2264387 5.843908
vt -0.226412 5.922514
vt -0.2265732 5.8495
vt 0.07820951 -6.563484
vt 0.07831886 -6.647445
vt 0.07834413 -6.568783
vt 0.07818423 -6.642146
vt -0.2685014 7.084377
vt -0.268392 7.000415
vt -0.2683667 7.079077
vt -0.2685266 7.005714
vt 0.1293896 -8.203649
vt 0.1295009 -8.287298
vt 0.1295244 -8.208566
vt 0.1293662 -8.28238
vt -0.3059696 7.684028
vt -0.3058583 7.60038
vt -0.3058348 7.679111
vt -0.3059931 7.605297
vt 0.1784611 -9.367296
vt 0.1785747 -9.450555
vt 0.1785959 -9.371746
vt 0.1784398 -9.446104
vt -0.3382997 7.684932
vt -0.3381861 7.601673
vt -0.3381648 7.680481
vt -0.3383209 7.606123
vt 0.2247143 -9.977792
vt 0.2245607 -10.05277
vt 0.2246957 -10.05668
vt 0.2245793 -9.973885
vt -0.3647784 7.081383
vt -0.3649321 7.006401
vt -0.3647971 7.002494
vt -0.3649135 7.08529
vt 0.2670701 -9.983662
vt 0.2669192 -10.05933
vt 0.2670544 -10.06263
vt 0.2669349 -9.980366
vt -0.3851844 5.920921
vt -0.3853352 5.84525
vt -0.3852001 5.841955
vt -0.3853195 5.924217
vt 0.3049056 -9.387201
vt 0.3047578 -9.463612
vt 0.3048931 -9.466237
vt 0.3047703 -9.384575
vt -0.3989919 4.276914
vt -0.3991397 4.200504
vt -0.3990044 4.197878
vt -0.3991272 4.27954
vt 0.337533 -8.227754
vt 0.3373885 -8.304938
vt 0.3375238 -8.306848
vt 0.3373976 -8.225844
vt -0.405924 2.260938
vt -0.4060685 2.183754
vt -0.4059331 2.181844
vt -0.4060594 2.262848
vt 0.3643521 -6.583838
vt 0.3642111 -6.661812
vt 0.3643466 -6.662972
vt 0.3642167 -6.582678
vt -0.4058285 0.01085547
vt -0.4059695 -0.06711934
vt -0.4058341 -0.06827902
vt -0.405964 0.01201516
vt 0.3848673 -4.567923
vt 0.38473 -4.64669
vt 0.3848655 -4.647079
vt 0.3847319 -4.567534
vt -0.3924354 -3.463027
vt -0.3947772 -3.542185
vt -0.3924354 -3.542185
vt -0.3947772 -3.463027
vt 0.394642 -3.463027
vt 0.3925705 -3.542185
vt 0.394642 -3.542185
vt 0.3925705 -3.463027
vt -0.365886 -6.676154
vt -0.3659042 -6.597128
vt -0.3658987 -6.676262
vt -0.3658915 -6.597019
vt 0.4007706 -2.391873
vt 0.4006333 -2.313106
vt 0.4006351 -2.392261
vt 0.4007687 -2.312717
vt -0.366027 -6.598179
vt -0.3660214 -6.677313
vt 0.4076444 -0.05277814
vt 0.4075034 0.02519666
vt 0.4075089 -0.05393783
vt 0.4076388 0.02635635
vt -0.3387619 -8.324314
vt -0.3389064 -8.24713
vt -0.3388973 -8.326224
vt -0.338771 -8.24522
vt 0.4074419 2.20313
vt 0.4072974 2.280314
vt 0.4073066 2.20122
vt 0.4074328 2.282224
vt -0.3058063 -9.483966
vt -0.3059541 -9.407555
vt -0.3059416 -9.486592
vt -0.3058189 -9.404929
vt 0.4001882 4.220858
vt 0.4000404 4.297269
vt 0.400053 4.218232
vt 0.4001757 4.299895
vt -0.2676253 -10.07655
vt -0.2677762 -10.00088
vt -0.2677605 -10.07985
vt -0.267641 -9.997584
vt 0.3860413 5.862468
vt 0.3858905 5.938139
vt 0.3859062 5.859172
vt 0.3860256 5.941435
vt -0.2249129 -10.06297
vt -0.2250665 -9.987983
vt -0.2250479 -10.06687
vt -0.2249315 -9.984076
vt 0.3652843 7.016593
vt 0.3651306 7.091574
vt 0.3651493 7.012685
vt 0.3652656 7.095482
vt -0.1785676 -9.450321
vt -0.178454 -9.367062
vt -0.1785889 -9.371513
vt -0.1784327 -9.44587
vt 0.338179 7.601439
vt 0.3382926 7.684698
vt 0.3381577 7.680247
vt 0.3383138 7.60589
vt -0.1291354 -8.273959
vt -0.1290241 -8.19031
vt -0.1291589 -8.195228
vt -0.1290007 -8.269042
vt 0.3054928 7.587041
vt 0.3056041 7.67069
vt 0.3054693 7.665772
vt 0.3056275 7.591958
vt -0.0776018 -6.619219
vt -0.07749245 -6.535258
vt -0.07762708 -6.540557
vt -0.07746717 -6.61392
vt 0.267675 6.972189
vt 0.2677843 7.056151
vt 0.2676497 7.050851
vt 0.2678096 6.977488
vt -0.02483716 -4.599323
vt -0.02472929 -4.515126
vt -0.02486383 -4.520717
vt -0.02470263 -4.593732
vt 0.2253828 5.800025
vt 0.2254906 5.884222
vt 0.2253561 5.87863
vt 0.2255173 5.805616
vt 0.02828145 -2.351451
vt 0.02838831 -2.267096
vt 0.02825384 -2.272885
vt 0.02841591 -2.345663
vt 0.179334 4.150866
vt 0.1794408 4.235221
vt 0.1793063 4.229433
vt 0.1794684 4.156655
vt 0.08088128 -0.02752401
vt 0.08098763 0.05690911
vt 0.0808532 0.05102162
vt 0.08101571 -0.02163652
vt 0.1302954 2.136622
vt 0.1304018 2.221055
vt 0.1302673 2.215168
vt 0.1304298 2.14251
vt 0.1049728 1.037338
vt 0.1067566 1.195404
vt 0.1049447 1.115881
vt 0.1067847 1.116861
vn -1 0 0
vn 1 0 0
vn -0.9978589229244076 0.008137831186955258 -0.06489488149086878
vn 0.9978589229244076 -0.008137831186955258 0.06489488149086878
vn -0.9914448574238509 -0.01624080930256223 0.12951189443830116
vn 0.9914448574238509 0.01624080930256223 -0.12951189443830116
vn -0.9807852737494578 0.024274249350304106 -0.1935742948190187
vn 0.9807852737494578 -0.024274249350304106 0.1935742948190187
vn -0.9469301373421581 -0.03999533157721463 0.3189415125774478
vn 0.9469301373421581 0.03999533157721463 -0.3189415125774478
vn -0.9469301373421581 0.03999533157721463 -0.3189415125774478
vn 0.9469301373421581 -0.03999533157721463 0.3189415125774478
vn -0.896872746342772 -0.055032082843591096 0.4388516226761275
vn 0.896872746342772 0.055032082843591096 -0.4388516226761275
vn -0.896872746342772 0.055032082843591096 -0.4388516226761275
vn 0.896872746342772 -0.055032082843591096 0.4388516226761275
vn -0.8314695883479937 -0.06912721903126862 0.5512528922748803
vn 0.8314695883479937 0.06912721903126862 -0.5512528922748803
vn -0.8314695883479937 0.06912721903126862 -0.5512528922748803
vn 0.8314695883479937 -0.06912721903126862 0.5512528922748803
vn -0.7518397995512175 -0.08203956995102972 0.6542219996094868
vn 0.7518397995512175 0.08203956995102972 -0.6542219996094868
vn -0.7518397995512175 0.08203956995102972 -0.6542219996094868
vn 0.7518397995512175 -0.08203956995102972 0.6542219996094868
vn -0.6593458091949993 -0.0935482013045897 0.7459972104034086
vn 0.6593458091949993 0.0935482013045897 -0.7459972104034086
vn -0.6593458091949993 0.0935482013045897 -0.7459972104034086
vn 0.6593458091949993 -0.0935482013045897 0.7459972104034086
vn -0.5555702104131304 -0.10345620193909429 0.8250082154632447
vn 0.5555702104131304 0.10345620193909429 -0.8250082154632447
vn -0.5555702104131304 0.10345620193909429 -0.8250082154632447
vn 0.5555702104131304 -0.10345620193909429 0.8250082154632447
vn -0.4422886906293844 -0.11159399763569725 0.8899030811459351
vn 0.4422886906293844 0.11159399763569725 -0.8899030811459351
vn -0.4422886906293844 0.11159399763569725 -0.8899030811459351
vn 0.4422886906293844 -0.11159399763569725 0.8899030811459351
vn -0.3214394843653847 -0.11782249426918785 0.9395714542998327
vn 0.3214394843653847 0.11782249426918785 -0.9395714542998327
vn -0.3214394843653847 0.11782249426918785 -0.9395714542998327
vn 0.3214394843653847 -0.11782249426918785 0.9395714542998327
vn -0.1950903058815485 -0.12203490367908722 0.9731635293387643
vn 0.1950903058815485 0.12203490367908722 -0.9731635293387643
vn -0.1950903058815485 0.12203490367908722 -0.9731635293387643
vn 0.1950903058815485 -0.12203490367908722 0.9731635293387643
vn -0.06540312927695086 -0.12415929862738584 0.9901044890541291
vn 0.06540312927695086 0.12415929862738584 -0.9901044890541291
vn 0 0.12442570343317293 -0.9922289273777296
vn 0 -0.12442570343317293 0.9922289273777296
vn 0.1305261965804767 -0.12336119676818548 0.9837402742279874
vn 0.06540312927695086 -0.12415929862738584 0.9901044890541291
vn -0.1305261965804767 0.12336119676818548 -0.9837402742279874
vn -0.06540312927695086 0.12415929862738584 -0.9901044890541291
vn 0.2588190145796314 0.12018600677024342 -0.9584195539890928
vn -0.2588190145796314 -0.12018600677024342 0.9584195539890928
vn 0.2588190145796314 -0.12018600677024342 0.9584195539890928
vn -0.2588190145796314 0.12018600677024342 -0.9584195539890928
vn 0.3826834021593064 0.114954400648635 -0.9167000051725164
vn -0.3826834021593064 -0.114954400648635 0.9167000051725164
vn 0.3826834021593064 -0.114954400648635 0.9167000051725164
vn -0.3826834021593064 0.114954400648635 -0.9167000051725164
vn 0.4999999828115284 0.10775579629568519 -0.8592954704600474
vn -0.4999999828115284 -0.10775579629568519 0.8592954704600474
vn 0.4999999828115284 -0.10775579629568519 0.8592954704600474
vn -0.4999999828115284 0.10775579629568519 -0.8592954704600474
vn 0.6087614268265422 0.09871355435005132 -0.7871881346893459
vn -0.6087614268265422 -0.09871355435005132 0.7871881346893459
vn 0.6087614268265422 -0.09871355435005132 0.7871881346893459
vn -0.6087614268265422 0.09871355435005132 -0.7871881346893459
vn 0.707106792016698 0.08798225900667221 -0.7016117920787371
vn -0.707106792016698 -0.08798225900667221 0.7016117920787371
vn 0.707106792016698 -0.08798225900667221 0.7016117920787371
vn -0.707106792016698 0.08798225900667221 -0.7016117920787371
vn 0.7933533251738929 0.07574557240348276 -0.6040307191664976
vn -0.7933533251738929 -0.07574557240348276 0.6040307191664976
vn 0.7933533251738929 -0.07574557240348276 0.6040307191664976
vn -0.7933533251738929 0.07574557240348276 -0.6040307191664976
vn 0.866025387329818 0.06221284908980958 -0.496114492741713
vn -0.866025387329818 -0.06221284908980958 0.496114492741713
vn 0.866025387329818 -0.06221284908980958 0.496114492741713
vn -0.866025387329818 0.06221284908980958 -0.496114492741713
vn 0.9238795175862106 0.04761566090637264 -0.37970960722783975
vn -0.9238795175862106 -0.04761566090637264 0.37970960722783975
vn 0.9238795175862106 -0.04761566090637264 0.37970960722783975
vn -0.9238795175862106 0.04761566090637264 -0.37970960722783975
vn 0.9659258353746595 0.032203741179382926 -0.2568077094049512
vn -0.9659258353746595 -0.032203741179382926 0.2568077094049512
vn 0.9659258353746595 -0.032203741179382926 0.2568077094049512
vn -0.9659258353746595 0.032203741179382926 -0.2568077094049512
vn 0.9914448574238509 -0.01624080930256223 0.12951189443830116
vn -0.9914448574238509 0.01624080930256223 -0.12951189443830116
vn 0.9978589229244076 0.008137831186955258 -0.06489488149086878
vn -0.9978589229244076 -0.008137831186955258 0.06489488149086878
usemtl material_0_2
f 1/1/1 2/2/1 3/3/1
f 3/3/2 2/2/2 1/1/2
f 2/2/1 1/1/1 4/4/1
f 4/4/2 1/1/2 2/2/2
f 5/5/3 6/6/3 7/7/3
f 7/7/4 6/6/4 5/5/4
f 6/6/3 5/5/3 8/8/3
f 8/8/4 5/5/4 6/6/4
f 9/9/5 10/10/5 11/11/5
f 11/11/6 10/10/6 9/9/6
f 10/10/5 9/9/5 12/12/5
f 12/12/6 9/9/6 10/10/6
f 13/13/7 14/14/7 15/15/7
f 15/15/8 14/14/8 13/13/8
f 14/14/7 13/13/7 16/16/7
f 16/16/8 13/13/8 14/14/8
f 17/17/9 18/18/9 19/19/9
f 19/19/10 18/18/10 17/17/10
f 18/18/9 17/17/9 20/20/9
f 20/20/10 17/17/10 18/18/10
f 21/21/11 22/22/11 23/23/11
f 23/23/12 22/22/12 21/21/12
f 22/22/11 21/21/11 24/24/11
f 24/24/12 21/21/12 22/22/12
f 25/25/13 26/26/13 27/27/13
f 27/27/14 26/26/14 25/25/14
f 26/26/13 25/25/13 28/28/13
f 28/28/14 25/25/14 26/26/14
f 29/29/15 30/30/15 31/31/15
f 31/31/16 30/30/16 29/29/16
f 30/30/15 29/29/15 32/32/15
f 32/32/16 29/29/16 30/30/16
f 33/33/17 34/34/17 35/35/17
f 35/35/18 34/34/18 33/33/18
f 34/34/17 33/33/17 36/36/17
f 36/36/18 33/33/18 34/34/18
f 37/37/19 38/38/19 39/39/19
f 39/39/20 38/38/20 37/37/20
f 38/38/19 37/37/19 40/40/19
f 40/40/20 37/37/20 38/38/20
f 41/41/21 42/42/21 43/43/21
f 43/43/22 42/42/22 41/41/22
f 42/42/21 41/41/21 44/44/21
f 44/44/22 41/41/22 42/42/22
f 45/45/23 46/46/23 47/47/23
f 47/47/24 46/46/24 45/45/24
f 46/46/23 45/45/23 48/48/23
f 48/48/24 45/45/24 46/46/24
f 49/49/25 50/50/25 51/51/25
f 51/51/26 50/50/26 49/49/26
f 50/50/25 49/49/25 52/52/25
f 52/52/26 49/49/26 50/50/26
f 53/53/27 54/54/27 55/55/27
f 55/55/28 54/54/28 53/53/28
f 54/54/27 53/53/27 56/56/27
f 56/56/28 53/53/28 54/54/28
f 57/57/29 58/58/29 59/59/29
f 59/59/30 58/58/30 57/57/30
f 58/58/29 57/57/29 60/60/29
f 60/60/30 57/57/30 58/58/30
f 61/61/31 62/62/31 63/63/31
f 63/63/32 62/62/32 61/61/32
f 62/62/31 61/61/31 64/64/31
f 64/64/32 61/61/32 62/62/32
f 65/65/33 66/66/33 67/67/33
f 67/67/34 66/66/34 65/65/34
f 66/66/33 65/65/33 68/68/33
f 68/68/34 65/65/34 66/66/34
f 69/69/35 70/70/35 71/71/35
f 71/71/36 70/70/36 69/69/36
f 70/70/35 69/69/35 72/72/35
f 72/72/36 69/69/36 70/70/36
f 73/73/37 74/74/37 75/75/37
f 75/75/38 74/74/38 73/73/38
f 74/74/37 73/73/37 76/76/37
f 76/76/38 73/73/38 74/74/38
f 77/77/39 78/78/39 79/79/39
f 79/79/40 78/78/40 77/77/40
f 78/78/39 77/77/39 80/80/39
f 80/80/40 77/77/40 78/78/40
f 81/81/41 82/82/41 83/83/41
f 83/83/42 82/82/42 81/81/42
f 82/82/41 81/81/41 84/84/41
f 84/84/42 81/81/42 82/82/42
f 85/85/43 86/86/43 87/87/43
f 87/87/44 86/86/44 85/85/44
f 86/86/43 85/85/43 88/88/43
f 88/88/44 85/85/44 86/86/44
f 89/89/45 90/90/45 91/91/45
f 91/91/46 90/90/46 89/89/46
f 90/90/45 89/89/45 92/92/45
f 92/92/46 89/89/46 90/90/46
f 93/93/47 94/94/47 95/95/47
f 95/95/48 94/94/48 93/93/48
f 94/94/47 93/93/47 96/96/47
f 96/96/48 93/93/48 94/94/48
f 97/97/48 98/98/48 99/99/48
f 99/99/47 98/98/47 97/97/47
f 98/98/48 97/97/48 100/100/48
f 100/100/47 97/97/47 98/98/47
f 101/101/42 102/102/42 103/103/42
f 103/103/41 102/102/41 101/101/41
f 102/102/42 101/101/42 104/104/42
f 104/104/41 101/101/41 102/102/41
f 105/105/49 106/106/50 107/107/50
f 107/107/52 106/106/52 105/105/51
f 106/106/50 105/105/49 108/108/49
f 108/108/51 105/105/51 106/106/52
f 109/103/42 110/109/53 111/110/53
f 111/110/54 110/109/54 109/103/41
f 110/109/53 109/103/42 112/102/42
f 112/102/41 109/103/41 110/109/54
f 113/111/55 108/112/49 105/113/49
f 105/113/51 108/112/51 113/111/56
f 108/112/49 113/111/55 114/114/55
f 114/114/56 113/111/56 108/112/51
f 111/115/53 115/116/57 116/117/57
f 116/117/58 115/116/58 111/115/54
f 115/116/57 111/115/53 110/118/53
f 110/118/54 111/115/54 115/116/58
f 117/119/59 114/120/55 113/121/55
f 113/121/56 114/120/56 117/119/60
f 114/120/55 117/119/59 118/122/59
f 118/122/60 117/119/60 114/120/56
f 116/123/57 119/124/61 120/125/61
f 120/125/62 119/124/62 116/123/58
f 119/124/61 116/123/57 115/126/57
f 115/126/58 116/123/58 119/124/62
f 121/127/63 118/128/59 117/129/59
f 117/129/60 118/128/60 121/127/64
f 118/128/59 121/127/63 122/130/63
f 122/130/64 121/127/64 118/128/60
f 120/131/61 123/132/65 124/133/65
f 124/133/66 123/132/66 120/131/62
f 123/132/65 120/131/61 119/134/61
f 119/134/62 120/131/62 123/132/66
f 125/135/67 122/136/63 121/137/63
f 121/137/64 122/136/64 125/135/68
f 122/136/63 125/135/67 126/138/67
f 126/138/68 125/135/68 122/136/64
f 124/139/65 127/140/69 128/141/69
f 128/141/70 127/140/70 124/139/66
f 127/140/69 124/139/65 123/142/65
f 123/142/66 124/139/66 127/140/70
f 129/143/71 126/144/67 125/145/67
f 125/145/68 126/144/68 129/143/72
f 126/144/67 129/143/71 130/146/71
f 130/146/72 129/143/72 126/144/68
f 131/147/73 127/148/69 132/149/73
f 132/149/74 127/148/70 131/147/74
f 127/148/69 131/147/73 128/150/69
f 128/150/70 131/147/74 127/148/70
f 129/151/71 133/152/75 130/153/71
f 130/153/72 133/152/76 129/151/72
f 133/152/75 129/151/71 134/154/75
f 134/154/76 129/151/72 133/152/76
f 135/155/77 132/156/73 136/157/77
f 136/157/78 132/156/74 135/155/78
f 132/156/73 135/155/77 131/158/73
f 131/158/74 135/155/78 132/156/74
f 134/159/75 137/160/79 133/161/75
f 133/161/76 137/160/80 134/159/76
f 137/160/79 134/159/75 138/162/79
f 138/162/80 134/159/76 137/160/80
f 139/163/81 136/164/77 140/165/81
f 140/165/82 136/164/78 139/163/82
f 136/164/77 139/163/81 135/166/77
f 135/166/78 139/163/82 136/164/78
f 138/167/79 141/168/83 137/169/79
f 137/169/80 141/168/84 138/167/80
f 141/168/83 138/167/79 142/170/83
f 142/170/84 138/167/80 141/168/84
f 143/171/85 140/172/81 144/173/85
f 144/173/86 140/172/82 143/171/86
f 140/172/81 143/171/85 139/174/81
f 139/174/82 143/171/86 140/172/82
f 142/175/83 145/176/87 141/177/83
f 141/177/84 145/176/88 142/175/84
f 145/176/87 142/175/83 146/178/87
f 146/178/88 142/175/84 145/176/88
f 147/179/6 144/180/85 148/181/6
f 148/181/5 144/180/86 147/179/5
f 144/180/85 147/179/6 143/182/85
f 143/182/86 147/179/5 144/180/86
f 146/183/87 149/184/89 145/185/87
f 145/185/88 149/184/90 146/183/88
f 149/184/89 146/183/87 150/186/89
f 150/186/90 146/183/88 149/184/90
f 151/187/91 148/188/6 152/189/91
f 152/189/92 148/188/5 151/187/92
f 148/188/6 151/187/91 147/190/6
f 147/190/5 151/187/92 148/188/5
f 150/191/89 153/192/4 149/193/89
f 149/193/90 153/192/3 150/191/90
f 153/192/4 150/191/89 154/194/4
f 154/194/3 150/191/90 153/192/3
f 155/195/2 156/196/2 157/197/2
f 157/197/1 156/196/1 155/195/1
f 156/196/2 155/195/2 158/198/2
f 158/198/1 155/195/1 156/196/1
