# SSTK version 0.8.0
# 162
mtllib original-162.mtl
o #ID4332
v 0.144014 0.020298 -0.054225
v 0.144046 0.023388 -0.054003
v 0.144014 0.023368 -0.053840
v 0.144046 0.020318 -0.054388
v 0.143776 0.020150 -0.053045
v 0.144014 0.023368 -0.053840
v 0.143776 0.023220 -0.052660
v 0.144014 0.020298 -0.054225
v 0.144046 0.020318 -0.054388
v 0.144139 0.023446 -0.054464
v 0.144046 0.023388 -0.054003
v 0.144139 0.020376 -0.054849
v 0.143181 0.019931 -0.051304
v 0.143181 0.023001 -0.050918
v 0.144139 0.020376 -0.054849
v 0.144139 0.027015 -0.082921
v 0.144139 0.023446 -0.054464
v 0.144139 0.023945 -0.083306
v 0.142361 0.019725 -0.049654
v 0.142361 0.022795 -0.049269
v 0.144139 0.023945 -0.083306
v 0.143776 0.027241 -0.084725
v 0.144139 0.027015 -0.082921
v 0.143776 0.024171 -0.085110
v 0.141332 0.019533 -0.048125
v 0.141332 0.022603 -0.047740
v 0.143776 0.024171 -0.085110
v 0.143181 0.027459 -0.086466
v 0.143776 0.027241 -0.084725
v 0.143181 0.024389 -0.086852
v 0.140110 0.019359 -0.046743
v 0.140110 0.022430 -0.046357
v 0.143181 0.024389 -0.086852
v 0.142361 0.027666 -0.088116
v 0.143181 0.027459 -0.086466
v 0.142361 0.024596 -0.088501
v 0.138716 0.022277 -0.045145
v 0.138716 0.019207 -0.045529
v 0.142361 0.024596 -0.088501
v 0.141332 0.027858 -0.089645
v 0.142361 0.027666 -0.088116
v 0.141332 0.024788 -0.090030
v 0.137175 0.022149 -0.044123
v 0.137175 0.019079 -0.044508
v 0.141332 0.024788 -0.090030
v 0.140110 0.028031 -0.091028
v 0.141332 0.027858 -0.089645
v 0.140110 0.024961 -0.091413
v 0.135513 0.022047 -0.043309
v 0.135513 0.018977 -0.043695
v 0.138716 0.025113 -0.092625
v 0.140110 0.028031 -0.091028
v 0.140110 0.024961 -0.091413
v 0.138716 0.028183 -0.092240
v 0.133758 0.021973 -0.042719
v 0.133758 0.018903 -0.043104
v 0.137175 0.025241 -0.093647
v 0.138716 0.028183 -0.092240
v 0.138716 0.025113 -0.092625
v 0.137175 0.028311 -0.093261
v 0.131940 0.021928 -0.042360
v 0.131940 0.018858 -0.042744
v 0.135513 0.025343 -0.094460
v 0.137175 0.028311 -0.093261
v 0.137175 0.025241 -0.093647
v 0.135513 0.028413 -0.094075
v 0.130090 0.021913 -0.042239
v 0.130090 0.018843 -0.042624
v 0.133758 0.025417 -0.095051
v 0.135513 0.028413 -0.094075
v 0.135513 0.025343 -0.094460
v 0.133758 0.028487 -0.094666
v 0.130090 0.021913 -0.042239
v 0.101752 0.018843 -0.042624
v 0.130090 0.018843 -0.042624
v 0.101752 0.021913 -0.042239
v 0.132110 0.025458 -0.095376
v 0.133758 0.028487 -0.094666
v 0.133758 0.025417 -0.095051
v 0.132110 0.028528 -0.094992
v 0.101752 0.021913 -0.042239
v 0.099902 0.018858 -0.042744
v 0.101752 0.018843 -0.042624
v 0.099902 0.021928 -0.042360
v 0.131940 0.025462 -0.095410
v 0.132110 0.028528 -0.094992
v 0.132110 0.025458 -0.095376
v 0.131940 0.028532 -0.095025
v 0.099902 0.021928 -0.042360
v 0.098084 0.018903 -0.043104
v 0.099902 0.018858 -0.042744
v 0.098084 0.021973 -0.042719
v 0.099902 0.028532 -0.095025
v 0.131940 0.025462 -0.095410
v 0.099902 0.025462 -0.095410
v 0.131940 0.028532 -0.095025
v 0.098084 0.021973 -0.042719
v 0.096329 0.018977 -0.043695
v 0.098084 0.018903 -0.043104
v 0.096329 0.022047 -0.043309
v 0.099733 0.028528 -0.094992
v 0.099902 0.025462 -0.095410
v 0.099733 0.025458 -0.095376
v 0.099902 0.028532 -0.095025
v 0.096329 0.022047 -0.043309
v 0.094667 0.019079 -0.044508
v 0.096329 0.018977 -0.043695
v 0.094667 0.022149 -0.044123
v 0.098084 0.028487 -0.094666
v 0.099733 0.025458 -0.095376
v 0.098084 0.025417 -0.095051
v 0.099733 0.028528 -0.094992
v 0.094667 0.022149 -0.044123
v 0.093126 0.019207 -0.045529
v 0.094667 0.019079 -0.044508
v 0.093126 0.022277 -0.045145
v 0.096329 0.028413 -0.094075
v 0.098084 0.025417 -0.095051
v 0.096329 0.025343 -0.094460
v 0.098084 0.028487 -0.094666
v 0.093126 0.022277 -0.045145
v 0.091732 0.019359 -0.046743
v 0.093126 0.019207 -0.045529
v 0.091732 0.022430 -0.046357
v 0.094667 0.028311 -0.093261
v 0.096329 0.025343 -0.094460
v 0.094667 0.025241 -0.093647
v 0.096329 0.028413 -0.094075
v 0.090510 0.022603 -0.047740
v 0.091732 0.019359 -0.046743
v 0.091732 0.022430 -0.046357
v 0.090510 0.019533 -0.048125
v 0.093126 0.028183 -0.092240
v 0.094667 0.025241 -0.093647
v 0.093126 0.025113 -0.092625
v 0.094667 0.028311 -0.093261
v 0.089481 0.022795 -0.049269
v 0.090510 0.019533 -0.048125
v 0.090510 0.022603 -0.047740
v 0.089481 0.019725 -0.049654
v 0.091732 0.028031 -0.091028
v 0.093126 0.025113 -0.092625
v 0.091732 0.024961 -0.091413
v 0.093126 0.028183 -0.092240
v 0.088661 0.023001 -0.050918
v 0.089481 0.019725 -0.049654
v 0.089481 0.022795 -0.049269
v 0.088661 0.019931 -0.051304
v 0.091732 0.028031 -0.091028
v 0.090510 0.024788 -0.090030
v 0.090510 0.027858 -0.089645
v 0.091732 0.024961 -0.091413
v 0.088065 0.023220 -0.052660
v 0.088661 0.019931 -0.051304
v 0.088661 0.023001 -0.050918
v 0.088065 0.020150 -0.053045
v 0.090510 0.027858 -0.089645
v 0.089481 0.024596 -0.088501
v 0.089481 0.027666 -0.088116
v 0.090510 0.024788 -0.090030
v 0.087703 0.023446 -0.054464
v 0.088065 0.020150 -0.053045
v 0.088065 0.023220 -0.052660
v 0.087703 0.020376 -0.054849
v 0.089481 0.027666 -0.088116
v 0.088661 0.024389 -0.086852
v 0.088661 0.027459 -0.086466
v 0.089481 0.024596 -0.088501
v 0.087668 0.023514 -0.055002
v 0.087703 0.020376 -0.054849
v 0.087703 0.023446 -0.054464
v 0.087668 0.020443 -0.055387
v 0.088661 0.027459 -0.086466
v 0.088065 0.024171 -0.085110
v 0.088065 0.027241 -0.084725
v 0.088661 0.024389 -0.086852
v 0.087582 0.023676 -0.056298
v 0.087668 0.020443 -0.055387
v 0.087668 0.023514 -0.055002
v 0.087582 0.020606 -0.056684
v 0.088065 0.027241 -0.084725
v 0.087703 0.023945 -0.083306
v 0.087703 0.027015 -0.082921
v 0.088065 0.024171 -0.085110
v 0.087582 0.026785 -0.081086
v 0.087582 0.020606 -0.056684
v 0.087582 0.023676 -0.056298
v 0.087582 0.023714 -0.081472
v 0.087703 0.027015 -0.082921
v 0.087668 0.023877 -0.082768
v 0.087668 0.026947 -0.082383
v 0.087703 0.023945 -0.083306
v 0.087668 0.026947 -0.082383
v 0.087582 0.023714 -0.081472
v 0.087582 0.026785 -0.081086
v 0.087668 0.023877 -0.082768
vt 0.1845482 4.375325
vt 0.1845328 4.454414
vt 0.1845206 4.453891
vt 0.1845604 4.375848
vt 0.1844603 4.371537
vt 0.1844326 4.450103
vt 0.1845671 4.455891
vt 0.1845947 4.377325
vt 0.2303025 6.004492
vt 0.2304103 6.088689
vt 0.2302758 6.083098
vt 0.230437 6.010083
vt 0.1101119 1.262891
vt 0.1121639 1.432732
vt 0.1100837 1.341434
vt 0.112192 1.354189
vt 0.2723046 7.15443
vt 0.272414 7.238392
vt 0.2722794 7.233093
vt 0.2724393 7.15973
vt 0.03350192 -2.126727
vt 0.03360878 -2.042372
vt 0.03347431 -2.04816
vt 0.03363639 -2.120938
vt 0.3097534 7.742525
vt 0.3098647 7.826174
vt 0.30973 7.821257
vt 0.3098882 7.747443
vt -0.0197622 -4.388404
vt -0.01965434 -4.304207
vt -0.01978887 -4.309798
vt -0.01962767 -4.382813
vt 0.3419973 7.727439
vt 0.342111 7.810698
vt 0.3419761 7.806247
vt 0.3421322 7.731889
vt -0.07275837 -6.428563
vt -0.07264902 -6.344602
vt -0.07278365 -6.349901
vt -0.07262374 -6.423264
vt 0.3685942 7.112379
vt 0.3684406 7.187361
vt 0.3684592 7.108472
vt 0.3685756 7.191268
vt -0.124606 -8.108667
vt -0.1244947 -8.025019
vt -0.1246295 -8.029936
vt -0.1244713 -8.10375
vt 0.3887851 5.929371
vt 0.3886342 6.005042
vt 0.3886499 5.926076
vt 0.3887694 6.008338
vt -0.17443 -9.313787
vt -0.1743163 -9.230527
vt -0.1744512 -9.234978
vt -0.1742951 -9.309336
vt 0.4023174 4.26219
vt 0.4021696 4.3386
vt 0.4021821 4.259564
vt 0.4023049 4.341226
vt -0.2212385 -9.956633
vt -0.2213921 -9.881652
vt -0.2213735 -9.960541
vt -0.2212571 -9.877744
vt 0.4089187 2.223965
vt 0.4087743 2.301149
vt 0.4087834 2.222055
vt 0.4089096 2.303059
vt -0.2644782 -9.999811
vt -0.2646291 -9.92414
vt -0.2646133 -10.00311
vt -0.2644939 -9.920845
vt 0.4084424 -0.04594468
vt 0.4083015 0.03203012
vt 0.408307 -0.04710437
vt 0.4084369 0.03318981
vt -0.3032416 -9.43418
vt -0.3033894 -9.357769
vt -0.3033769 -9.436806
vt -0.3032542 -9.355144
vt 0.4008755 -2.391571
vt 0.4007382 -2.312805
vt 0.40074 -2.39196
vt 0.4008737 -2.312416
vt -0.3368249 -8.296987
vt -0.3369694 -8.219803
vt -0.3369603 -8.298897
vt -0.336834 -8.217893
vt 0.3943988 -3.463027
vt 0.3923274 -3.542185
vt 0.3943988 -3.542185
vt 0.3923274 -3.463027
vt -0.3646237 -6.665346
vt -0.364752 -6.587262
vt -0.3647465 -6.666397
vt -0.3646293 -6.586211
vt 0.3842771 -4.566229
vt 0.3841398 -4.644996
vt 0.3842753 -4.645384
vt 0.3841417 -4.56584
vt -0.3646111 -6.665237
vt -0.3646166 -6.586103
vt 0.3630772 -6.572921
vt 0.3629362 -6.650896
vt 0.3630716 -6.652056
vt 0.3629417 -6.571761
vt -0.3921922 -3.463027
vt -0.394534 -3.542185
vt -0.3921922 -3.542185
vt -0.394534 -3.463027
vt 0.335596 -8.200427
vt 0.3354515 -8.277611
vt 0.3355869 -8.279521
vt 0.3354606 -8.198517
vt -0.4067494 0.01874015
vt -0.4067676 -0.06028588
vt -0.4067549 -0.06039434
vt -0.406762 0.01884862
vt 0.3023409 -9.337415
vt 0.3021931 -9.413826
vt 0.3023284 -9.416452
vt 0.3022056 -9.334789
vt -0.4066266 0.01768893
vt -0.4066321 -0.06144556
vt 0.263923 -9.906922
vt 0.2637721 -9.982593
vt 0.2639072 -9.985889
vt 0.2637878 -9.903627
vt -0.4074008 2.281773
vt -0.4075453 2.204589
vt -0.40741 2.202679
vt -0.4075362 2.283683
vt 0.22104 -9.87146
vt 0.2208863 -9.946442
vt 0.2210213 -9.950349
vt 0.2209049 -9.867553
vt -0.4011211 4.318246
vt -0.4012689 4.241835
vt -0.4011336 4.239209
vt -0.4012563 4.320872
vt 0.1743234 -9.230761
vt 0.1744371 -9.31402
vt 0.1744583 -9.235212
vt 0.1743022 -9.30957
vt -0.3879281 5.987824
vt -0.388079 5.912153
vt -0.3879438 5.908858
vt -0.3880632 5.99112
vt 0.1248602 -8.038357
vt 0.1249715 -8.122006
vt 0.124995 -8.043275
vt 0.1248368 -8.117089
vt -0.3680884 7.177169
vt -0.3682421 7.102187
vt -0.368107 7.09828
vt -0.3682234 7.181076
vt 0.07336607 -6.372828
vt 0.07347543 -6.456789
vt 0.0735007 -6.378127
vt 0.0733408 -6.45149
vt -0.3421181 7.810932
vt -0.3420044 7.727672
vt -0.3419832 7.806481
vt -0.3421393 7.732123
vt 0.02071023 -4.348091
vt 0.0208181 -4.432288
vt 0.02084477 -4.353682
vt 0.02068356 -4.426697
vt -0.3102302 7.839513
vt -0.3101189 7.755864
vt -0.3100955 7.834595
vt -0.3102537 7.760781
vt -0.03223229 -2.101625
vt -0.03212543 -2.18598
vt -0.03209783 -2.107414
vt -0.0322599 -2.180192
vt -0.273131 7.266618
vt -0.2730217 7.182656
vt -0.2729964 7.261319
vt -0.2731563 7.187956
vt -0.08449686 0.2105999
vt -0.08448551 0.1303271
vt -0.08445743 0.2088728
vt -0.08452495 0.1320542
vt -0.2314662 6.132573
vt -0.2313584 6.048376
vt -0.2313317 6.126982
vt -0.2314929 6.053967
vt -0.08459186 0.2147603
vt -0.08461994 0.1362146
vt -0.1859436 4.515145
vt -0.1858367 4.43079
vt -0.1858091 4.509356
vt -0.1859712 4.436578
vt -0.1120297 1.426844
vt -0.110246 1.268778
vt -0.1102179 1.347321
vt -0.1120579 1.348301
vt -0.1373217 2.52412
vt -0.1373103 2.443847
vt -0.1372822 2.522393
vt -0.1373498 2.445575
vt -0.1372153 2.439687
vt -0.1371872 2.518233
vn 0.9807852737494578 -0.024274249350304106 0.1935742948190187
vn -0.9807852737494578 0.024274249350304106 -0.1935742948190187
vn 0.9659258353746595 -0.032203741179382926 0.2568077094049512
vn -0.9659258353746595 0.032203741179382926 -0.2568077094049512
vn 0.9238795175862106 -0.04761566090637264 0.37970960722783975
vn -0.9238795175862106 0.04761566090637264 -0.37970960722783975
vn 1 0 0
vn -1 0 0
vn 0.866025387329818 -0.06221284908980958 0.496114492741713
vn -0.866025387329818 0.06221284908980958 -0.496114492741713
vn 0.9807852737494578 0.024274249350304106 -0.1935742948190187
vn -0.9807852737494578 -0.024274249350304106 0.1935742948190187
vn 0.7933533251738929 -0.07574557240348276 0.6040307191664976
vn -0.7933533251738929 0.07574557240348276 -0.6040307191664976
vn 0.9469301373421581 0.03999533157721463 -0.3189415125774478
vn -0.9469301373421581 -0.03999533157721463 0.3189415125774478
vn 0.707106792016698 -0.08798225900667221 0.7016117920787371
vn -0.707106792016698 0.08798225900667221 -0.7016117920787371
vn 0.896872746342772 0.055032082843591096 -0.4388516226761275
vn -0.896872746342772 -0.055032082843591096 0.4388516226761275
vn 0.6087614268265422 -0.09871355435005132 0.7871881346893459
vn -0.6087614268265422 0.09871355435005132 -0.7871881346893459
vn 0.8314695883479937 0.06912721903126862 -0.5512528922748803
vn -0.8314695883479937 -0.06912721903126862 0.5512528922748803
vn 0.4999999828115284 -0.10775579629568519 0.8592954704600474
vn -0.4999999828115284 0.10775579629568519 -0.8592954704600474
vn 0.7518397995512175 0.08203956995102972 -0.6542219996094868
vn -0.7518397995512175 -0.08203956995102972 0.6542219996094868
vn 0.3826834021593064 -0.114954400648635 0.9167000051725164
vn -0.3826834021593064 0.114954400648635 -0.9167000051725164
vn 0.6593458091949993 0.0935482013045897 -0.7459972104034086
vn -0.6593458091949993 -0.0935482013045897 0.7459972104034086
vn 0.2588190145796314 -0.12018600677024342 0.9584195539890928
vn -0.2588190145796314 0.12018600677024342 -0.9584195539890928
vn 0.5555702104131304 0.10345620193909429 -0.8250082154632447
vn -0.5555702104131304 -0.10345620193909429 0.8250082154632447
vn 0.1305261965804767 -0.12336119676818548 0.9837402742279874
vn -0.1305261965804767 0.12336119676818548 -0.9837402742279874
vn 0.4422886906293844 0.11159399763569725 -0.8899030811459351
vn -0.4422886906293844 -0.11159399763569725 0.8899030811459351
vn 0.06540312927695086 -0.12415929862738584 0.9901044890541291
vn -0.06540312927695086 0.12415929862738584 -0.9901044890541291
vn 0.3214394843653847 0.11782249426918785 -0.9395714542998327
vn -0.3214394843653847 -0.11782249426918785 0.9395714542998327
vn 0 -0.12442570343317293 0.9922289273777296
vn 0 0.12442570343317293 -0.9922289273777296
vn 0.1950903058815485 0.12203490367908722 -0.9731635293387643
vn -0.1950903058815485 -0.12203490367908722 0.9731635293387643
vn -0.06540312927695086 -0.12415929862738584 0.9901044890541291
vn 0.06540312927695086 0.12415929862738584 -0.9901044890541291
vn -0.1950903058815485 0.12203490367908722 -0.9731635293387643
vn 0.1950903058815485 -0.12203490367908722 0.9731635293387643
vn -0.3214394843653847 0.11782249426918785 -0.9395714542998327
vn 0.3214394843653847 -0.11782249426918785 0.9395714542998327
vn -0.4422886906293844 0.11159399763569725 -0.8899030811459351
vn 0.4422886906293844 -0.11159399763569725 0.8899030811459351
vn -0.5555702104131304 0.10345620193909429 -0.8250082154632447
vn 0.5555702104131304 -0.10345620193909429 0.8250082154632447
vn -0.6593458091949993 0.0935482013045897 -0.7459972104034086
vn 0.6593458091949993 -0.0935482013045897 0.7459972104034086
vn -0.7518397995512175 0.08203956995102972 -0.6542219996094868
vn 0.7518397995512175 -0.08203956995102972 0.6542219996094868
vn -0.8314695883479937 0.06912721903126862 -0.5512528922748803
vn 0.8314695883479937 -0.06912721903126862 0.5512528922748803
vn -0.896872746342772 0.055032082843591096 -0.4388516226761275
vn 0.896872746342772 -0.055032082843591096 0.4388516226761275
vn -0.9978589229244076 -0.008137831186955258 0.06489488149086878
vn 0.9978589229244076 0.008137831186955258 -0.06489488149086878
vn -0.9469301373421581 0.03999533157721463 -0.3189415125774478
vn 0.9469301373421581 -0.03999533157721463 0.3189415125774478
vn -0.9978589229244076 0.008137831186955258 -0.06489488149086878
vn 0.9978589229244076 -0.008137831186955258 0.06489488149086878
usemtl material_0_2
f 1/1/1 2/2/1 3/3/1
f 3/3/2 2/2/2 1/1/2
f 2/2/1 1/1/1 4/4/1
f 4/4/2 1/1/2 2/2/2
f 5/5/3 6/3/1 7/6/3
f 7/6/4 6/3/2 5/5/4
f 6/3/1 5/5/3 8/1/1
f 8/1/2 5/5/4 6/3/2
f 9/4/1 10/7/1 11/2/1
f 11/2/2 10/7/2 9/4/2
f 10/7/1 9/4/1 12/8/1
f 12/8/2 9/4/2 10/7/2
f 13/9/5 7/10/3 14/11/5
f 14/11/6 7/10/4 13/9/6
f 7/10/3 13/9/5 5/12/3
f 5/12/4 13/9/6 7/10/4
f 15/13/7 16/14/7 17/15/7
f 17/15/8 16/14/8 15/13/8
f 16/14/7 15/13/7 18/16/7
f 18/16/8 15/13/8 16/14/8
f 19/17/9 14/18/5 20/19/9
f 20/19/10 14/18/6 19/17/10
f 14/18/5 19/17/9 13/20/5
f 13/20/6 19/17/10 14/18/6
f 21/21/11 22/22/11 23/23/11
f 23/23/12 22/22/12 21/21/12
f 22/22/11 21/21/11 24/24/11
f 24/24/12 21/21/12 22/22/12
f 25/25/13 20/26/9 26/27/13
f 26/27/14 20/26/10 25/25/14
f 20/26/9 25/25/13 19/28/9
f 19/28/10 25/25/14 20/26/10
f 27/29/15 28/30/15 29/31/15
f 29/31/16 28/30/16 27/29/16
f 28/30/15 27/29/15 30/32/15
f 30/32/16 27/29/16 28/30/16
f 31/33/17 26/34/13 32/35/17
f 32/35/18 26/34/14 31/33/18
f 26/34/13 31/33/17 25/36/13
f 25/36/14 31/33/18 26/34/14
f 33/37/19 34/38/19 35/39/19
f 35/39/20 34/38/20 33/37/20
f 34/38/19 33/37/19 36/40/19
f 36/40/20 33/37/20 34/38/20
f 31/41/17 37/42/21 38/43/21
f 38/43/22 37/42/22 31/41/18
f 37/42/21 31/41/17 32/44/17
f 32/44/18 31/41/18 37/42/22
f 39/45/23 40/46/23 41/47/23
f 41/47/24 40/46/24 39/45/24
f 40/46/23 39/45/23 42/48/23
f 42/48/24 39/45/24 40/46/24
f 38/49/21 43/50/25 44/51/25
f 44/51/26 43/50/26 38/49/22
f 43/50/25 38/49/21 37/52/21
f 37/52/22 38/49/22 43/50/26
f 45/53/27 46/54/27 47/55/27
f 47/55/28 46/54/28 45/53/28
f 46/54/27 45/53/27 48/56/27
f 48/56/28 45/53/28 46/54/28
f 44/57/25 49/58/29 50/59/29
f 50/59/30 49/58/30 44/57/26
f 49/58/29 44/57/25 43/60/25
f 43/60/26 44/57/26 49/58/30
f 51/61/31 52/62/31 53/63/31
f 53/63/32 52/62/32 51/61/32
f 52/62/31 51/61/31 54/64/31
f 54/64/32 51/61/32 52/62/32
f 50/65/29 55/66/33 56/67/33
f 56/67/34 55/66/34 50/65/30
f 55/66/33 50/65/29 49/68/29
f 49/68/30 50/65/30 55/66/34
f 57/69/35 58/70/35 59/71/35
f 59/71/36 58/70/36 57/69/36
f 58/70/35 57/69/35 60/72/35
f 60/72/36 57/69/36 58/70/36
f 56/73/33 61/74/37 62/75/37
f 62/75/38 61/74/38 56/73/34
f 61/74/37 56/73/33 55/76/33
f 55/76/34 56/73/34 61/74/38
f 63/77/39 64/78/39 65/79/39
f 65/79/40 64/78/40 63/77/40
f 64/78/39 63/77/39 66/80/39
f 66/80/40 63/77/40 64/78/40
f 62/81/37 67/82/41 68/83/41
f 68/83/42 67/82/42 62/81/38
f 67/82/41 62/81/37 61/84/37
f 61/84/38 62/81/38 67/82/42
f 69/85/43 70/86/43 71/87/43
f 71/87/44 70/86/44 69/85/44
f 70/86/43 69/85/43 72/88/43
f 72/88/44 69/85/44 70/86/44
f 73/89/45 74/90/45 75/91/45
f 75/91/46 74/90/46 73/89/46
f 74/90/45 73/89/45 76/92/45
f 76/92/46 73/89/46 74/90/46
f 77/93/47 78/94/47 79/95/47
f 79/95/48 78/94/48 77/93/48
f 78/94/47 77/93/47 80/96/47
f 80/96/48 77/93/48 78/94/48
f 81/97/49 82/98/49 83/99/49
f 83/99/50 82/98/50 81/97/50
f 82/98/49 81/97/49 84/100/49
f 84/100/50 81/97/50 82/98/50
f 85/101/47 86/96/47 87/93/47
f 87/93/48 86/96/48 85/101/48
f 86/96/47 85/101/47 88/102/47
f 88/102/48 85/101/48 86/96/48
f 89/103/48 90/104/48 91/105/48
f 91/105/47 90/104/47 89/103/47
f 90/104/48 89/103/48 92/106/48
f 92/106/47 89/103/47 90/104/47
f 93/107/46 94/108/46 95/109/46
f 95/109/45 94/108/45 93/107/45
f 94/108/46 93/107/46 96/110/46
f 96/110/45 93/107/45 94/108/45
f 97/111/44 98/112/44 99/113/44
f 99/113/43 98/112/43 97/111/43
f 98/112/44 97/111/44 100/114/44
f 100/114/43 97/111/43 98/112/43
f 101/115/51 102/116/51 103/117/51
f 103/117/52 102/116/52 101/115/52
f 102/116/51 101/115/51 104/118/51
f 104/118/52 101/115/52 102/116/52
f 105/119/40 106/120/40 107/121/40
f 107/121/39 106/120/39 105/119/39
f 106/120/40 105/119/40 108/122/40
f 108/122/39 105/119/39 106/120/39
f 109/123/51 110/117/51 111/124/51
f 111/124/52 110/117/52 109/123/52
f 110/117/51 109/123/51 112/115/51
f 112/115/52 109/123/52 110/117/52
f 113/125/36 114/126/36 115/127/36
f 115/127/35 114/126/35 113/125/35
f 114/126/36 113/125/36 116/128/36
f 116/128/35 113/125/35 114/126/35
f 117/129/53 118/130/53 119/131/53
f 119/131/54 118/130/54 117/129/54
f 118/130/53 117/129/53 120/132/53
f 120/132/54 117/129/54 118/130/54
f 121/133/32 122/134/32 123/135/32
f 123/135/31 122/134/31 121/133/31
f 122/134/32 121/133/32 124/136/32
f 124/136/31 121/133/31 122/134/31
f 125/137/55 126/138/55 127/139/55
f 127/139/56 126/138/56 125/137/56
f 126/138/55 125/137/55 128/140/55
f 128/140/56 125/137/56 126/138/56
f 129/141/28 130/142/28 131/143/28
f 131/143/27 130/142/27 129/141/27
f 130/142/28 129/141/28 132/144/28
f 132/144/27 129/141/27 130/142/27
f 133/145/57 134/146/57 135/147/57
f 135/147/58 134/146/58 133/145/58
f 134/146/57 133/145/57 136/148/57
f 136/148/58 133/145/58 134/146/58
f 137/149/24 138/150/24 139/151/24
f 139/151/23 138/150/23 137/149/23
f 138/150/24 137/149/24 140/152/24
f 140/152/23 137/149/23 138/150/23
f 141/153/59 142/154/59 143/155/59
f 143/155/60 142/154/60 141/153/60
f 142/154/59 141/153/59 144/156/59
f 144/156/60 141/153/60 142/154/60
f 145/157/20 146/158/20 147/159/20
f 147/159/19 146/158/19 145/157/19
f 146/158/20 145/157/20 148/160/20
f 148/160/19 145/157/19 146/158/19
f 149/161/61 150/162/61 151/163/61
f 151/163/62 150/162/62 149/161/62
f 150/162/61 149/161/61 152/164/61
f 152/164/62 149/161/62 150/162/62
f 153/165/16 154/166/16 155/167/16
f 155/167/15 154/166/15 153/165/15
f 154/166/16 153/165/16 156/168/16
f 156/168/15 153/165/15 154/166/15
f 157/169/63 158/170/63 159/171/63
f 159/171/64 158/170/64 157/169/64
f 158/170/63 157/169/63 160/172/63
f 160/172/64 157/169/64 158/170/64
f 161/173/12 162/174/12 163/175/12
f 163/175/11 162/174/11 161/173/11
f 162/174/12 161/173/12 164/176/12
f 164/176/11 161/173/11 162/174/11
f 165/177/65 166/178/65 167/179/65
f 167/179/66 166/178/66 165/177/66
f 166/178/65 165/177/65 168/180/65
f 168/180/66 165/177/66 166/178/66
f 169/181/67 170/182/67 171/183/67
f 171/183/68 170/182/68 169/181/68
f 170/182/67 169/181/67 172/184/67
f 172/184/68 169/181/68 170/182/68
f 173/185/69 174/186/69 175/187/69
f 175/187/70 174/186/70 173/185/70
f 174/186/69 173/185/69 176/188/69
f 176/188/70 173/185/70 174/186/70
f 177/189/67 178/184/67 179/181/67
f 179/181/68 178/184/68 177/189/68
f 178/184/67 177/189/67 180/190/67
f 180/190/68 177/189/68 178/184/68
f 181/191/2 182/192/2 183/193/2
f 183/193/1 182/192/1 181/191/1
f 182/192/2 181/191/2 184/194/2
f 184/194/1 181/191/1 182/192/1
f 185/195/8 186/196/8 187/197/8
f 187/197/7 186/196/7 185/195/7
f 186/196/8 185/195/8 188/198/8
f 188/198/7 185/195/7 186/196/7
f 189/199/71 190/200/71 191/201/71
f 191/201/72 190/200/72 189/199/72
f 190/200/71 189/199/71 192/202/71
f 192/202/72 189/199/72 190/200/72
f 193/201/71 194/203/71 195/204/71
f 195/204/72 194/203/72 193/201/72
f 194/203/71 193/201/71 196/200/71
f 196/200/72 193/201/72 194/203/72
