# SSTK version 0.8.0
# 184
mtllib original-184.mtl
o #ID4508
v 0.197755 -0.009533 0.208527
v 0.225496 -0.012603 0.208142
v 0.197755 -0.012603 0.208142
v 0.225496 -0.009533 0.208527
v 0.225496 -0.012603 0.208142
v 0.227215 -0.009575 0.208862
v 0.227215 -0.012645 0.208478
v 0.225496 -0.009533 0.208527
v 0.196036 -0.009575 0.208862
v 0.197755 -0.012603 0.208142
v 0.196036 -0.012645 0.208478
v 0.197755 -0.009533 0.208527
v 0.228888 -0.009640 0.209380
v 0.228888 -0.012710 0.208995
v 0.194363 -0.009640 0.209380
v 0.194363 -0.012710 0.208995
v 0.230497 -0.009727 0.210073
v 0.230497 -0.012797 0.209687
v 0.192754 -0.009727 0.210073
v 0.192754 -0.012797 0.209687
v 0.232020 -0.009835 0.210931
v 0.232020 -0.012905 0.210547
v 0.191231 -0.009835 0.210931
v 0.191231 -0.012905 0.210547
v 0.233442 -0.009962 0.211948
v 0.233442 -0.013032 0.211563
v 0.189809 -0.009962 0.211948
v 0.189809 -0.013032 0.211563
v 0.234746 -0.010108 0.213110
v 0.234746 -0.013178 0.212726
v 0.188505 -0.010108 0.213110
v 0.188505 -0.013178 0.212726
v 0.235917 -0.013340 0.214019
v 0.235917 -0.010270 0.214404
v 0.187333 -0.013340 0.214019
v 0.187333 -0.010270 0.214404
v 0.236942 -0.013517 0.215430
v 0.236942 -0.010447 0.215815
v 0.186310 -0.013517 0.215430
v 0.186310 -0.010447 0.215815
v 0.237808 -0.013707 0.216942
v 0.237808 -0.010637 0.217327
v 0.185443 -0.013707 0.216942
v 0.185443 -0.010637 0.217327
v 0.238506 -0.013907 0.218538
v 0.238506 -0.010837 0.218923
v 0.184745 -0.013907 0.218538
v 0.184745 -0.010837 0.218923
v 0.239027 -0.014115 0.220198
v 0.239027 -0.011045 0.220583
v 0.184224 -0.014115 0.220198
v 0.184224 -0.011045 0.220583
v 0.239365 -0.014329 0.221904
v 0.239365 -0.011259 0.222288
v 0.183885 -0.014329 0.221904
v 0.183885 -0.011259 0.222288
v 0.239365 -0.015476 0.231050
v 0.239365 -0.011259 0.222288
v 0.239365 -0.012406 0.231434
v 0.239365 -0.014329 0.221904
v 0.183885 -0.011259 0.222288
v 0.183885 -0.015476 0.231050
v 0.183885 -0.012406 0.231434
v 0.183885 -0.014329 0.221904
v 0.239247 -0.015701 0.232846
v 0.239365 -0.012406 0.231434
v 0.239247 -0.012631 0.233231
v 0.239365 -0.015476 0.231050
v 0.183885 -0.012406 0.231434
v 0.184004 -0.015701 0.232846
v 0.184004 -0.012631 0.233231
v 0.183885 -0.015476 0.231050
v 0.238893 -0.015922 0.234611
v 0.238893 -0.012852 0.234997
v 0.184358 -0.015922 0.234611
v 0.184358 -0.012852 0.234997
v 0.238310 -0.016136 0.236316
v 0.238310 -0.013066 0.236701
v 0.184941 -0.016136 0.236316
v 0.184941 -0.013066 0.236701
v 0.237508 -0.016339 0.237931
v 0.237508 -0.013269 0.238316
v 0.185743 -0.016339 0.237931
v 0.185743 -0.013269 0.238316
v 0.236499 -0.016526 0.239428
v 0.236499 -0.013456 0.239813
v 0.186752 -0.016526 0.239428
v 0.186752 -0.013456 0.239813
v 0.235303 -0.016696 0.240781
v 0.235303 -0.013626 0.241166
v 0.187948 -0.016696 0.240781
v 0.187948 -0.013626 0.241166
v 0.233940 -0.013775 0.242353
v 0.233940 -0.016845 0.241968
v 0.189311 -0.013775 0.242353
v 0.189311 -0.016845 0.241968
v 0.232431 -0.013900 0.243353
v 0.232431 -0.016970 0.242968
v 0.190820 -0.013900 0.243353
v 0.190820 -0.016970 0.242968
v 0.230803 -0.014000 0.244149
v 0.230803 -0.017070 0.243764
v 0.192448 -0.014000 0.244149
v 0.192448 -0.017070 0.243764
v 0.229086 -0.014073 0.244728
v 0.229086 -0.017143 0.244343
v 0.194165 -0.014073 0.244728
v 0.194165 -0.017143 0.244343
v 0.227306 -0.014117 0.245080
v 0.227306 -0.017187 0.244694
v 0.195945 -0.014117 0.245080
v 0.195945 -0.017187 0.244694
v 0.225496 -0.014131 0.245197
v 0.225496 -0.017202 0.244812
v 0.197755 -0.014131 0.245197
v 0.197755 -0.017202 0.244812
v 0.225496 -0.014131 0.245197
v 0.197755 -0.017202 0.244812
v 0.225496 -0.017202 0.244812
v 0.197755 -0.014131 0.245197
vt -0.3993448 -3.463027
vt -0.4013725 -3.542185
vt -0.3993448 -3.542185
vt -0.4013725 -3.463027
vt -0.3759641 -6.73497
vt -0.3760976 -6.656922
vt -0.3760922 -6.736057
vt -0.3759696 -6.655835
vt -0.409267 0.01042323
vt -0.4094006 -0.06762438
vt -0.4092725 -0.06871166
vt -0.4093951 0.01151052
vt -0.3558303 -8.190656
vt -0.3559668 -8.113224
vt -0.3559584 -8.192327
vt -0.3558388 -8.111553
vt -0.407967 1.86131
vt -0.4081034 1.783878
vt -0.4079754 1.782206
vt -0.408095 1.862981
vt -0.3315634 -9.340214
vt -0.3317026 -9.26339
vt -0.3316913 -9.34245
vt -0.3315747 -9.261154
vt -0.4019075 3.555445
vt -0.4020467 3.478621
vt -0.4019188 3.476385
vt -0.4020354 3.557681
vt -0.3034658 -10.13087
vt -0.3036077 -10.05464
vt -0.3035937 -10.13364
vt -0.3034798 -10.05186
vt -0.3911763 5.014583
vt -0.3913182 4.938349
vt -0.3911903 4.935576
vt -0.3913042 5.017356
vt -0.2718851 -10.52677
vt -0.2720294 -10.4511
vt -0.2720129 -10.53005
vt -0.2719016 -10.44783
vt -0.375919 6.17171
vt -0.3760633 6.096042
vt -0.3759355 6.092764
vt -0.3760467 6.174988
vt -0.2372072 -10.51054
vt -0.2373538 -10.4354
vt -0.2373349 -10.51428
vt -0.2372261 -10.43165
vt -0.3563348 6.974115
vt -0.3564813 6.898976
vt -0.3563537 6.895233
vt -0.3564624 6.977858
vt -0.1999775 -10.08806
vt -0.1998709 -10.00508
vt -0.1999985 -10.00924
vt -0.1998499 -10.08389
vt -0.3327997 7.389881
vt -0.3326931 7.3069
vt -0.3326721 7.385715
vt -0.3328207 7.311065
vt -0.1603835 -9.271978
vt -0.1602789 -9.188687
vt -0.1604064 -9.193226
vt -0.160256 -9.267439
vt -0.3053508 7.393112
vt -0.3052462 7.309821
vt -0.3052233 7.388573
vt -0.3053737 7.31436
vt -0.1190145 -8.104357
vt -0.1189117 -8.020805
vt -0.1190391 -8.025665
vt -0.1188872 -8.099497
vt -0.2744466 6.988392
vt -0.2743438 6.904841
vt -0.2743193 6.983533
vt -0.2744712 6.909701
vt -0.07634535 -6.639343
vt -0.07624393 -6.55558
vt -0.0763712 -6.560704
vt -0.07621808 -6.634219
vt -0.2404514 6.195135
vt -0.2403499 6.111371
vt -0.2403241 6.19001
vt -0.2404772 6.116495
vt -0.03285831 -4.944341
vt -0.03275799 -4.860414
vt -0.0328852 -4.865744
vt -0.03273111 -4.939011
vt -0.2037574 5.050283
vt -0.2036571 4.966356
vt -0.2036302 5.044953
vt -0.2037843 4.971686
vt 0.01096093 -3.096902
vt 0.01106046 -3.012861
vt 0.01093331 -3.018336
vt 0.01108808 -3.091427
vt -0.1647811 3.606535
vt -0.1646816 3.522494
vt -0.164654 3.60106
vt -0.1648087 3.527969
vt 0.0892139 0.3456775
vt 0.08985429 0.4535624
vt 0.08918576 0.4242206
vt 0.08988243 0.3750193
vt -0.08985429 0.4535624
vt -0.0892139 0.3456775
vt -0.08918576 0.4242206
vt -0.08988243 0.3750193
vt 0.1150079 1.46709
vt 0.1151114 1.551399
vt 0.1149798 1.545635
vt 0.1151395 1.472853
vt -0.06314726 -0.7244296
vt -0.06304375 -0.8087385
vt -0.06301567 -0.7301929
vt -0.06317534 -0.8029753
vt 0.165178 3.541497
vt 0.165282 3.625729
vt 0.1651503 3.620063
vt 0.1653096 3.547163
vt -0.01023801 -3.048407
vt -0.01013399 -3.13264
vt -0.01010638 -3.054073
vt -0.01026562 -3.126974
vt 0.212598 5.26868
vt 0.212703 5.352759
vt 0.2125713 5.347286
vt 0.2127297 5.274153
vt 0.04288349 -5.26963
vt 0.04298851 -5.353709
vt 0.04301518 -5.275103
vt 0.04285682 -5.348235
vt 0.2564794 6.531488
vt 0.2565859 6.615338
vt 0.2564541 6.610151
vt 0.2566112 6.536676
vt 0.09534355 -7.237945
vt 0.09545006 -7.321795
vt 0.09547533 -7.243132
vt 0.09531827 -7.316607
vt 0.2960789 7.243496
vt 0.2961873 7.327041
vt 0.2960554 7.322228
vt 0.2962108 7.24831
vt 0.1462688 -8.819626
vt 0.1463773 -8.903171
vt 0.1464007 -8.82444
vt 0.1462454 -8.898358
vt 0.3307103 7.354986
vt 0.3308211 7.438151
vt 0.3306891 7.433794
vt 0.3308423 7.359343
vt 0.1947976 -9.906374
vt 0.1949084 -9.98954
vt 0.1949297 -9.910731
vt 0.1947764 -9.985183
vt 0.3598896 6.860478
vt 0.3597388 6.935542
vt 0.3597574 6.856653
vt 0.359871 6.939367
vt 0.2402251 -10.42665
vt 0.2400743 -10.50172
vt 0.2402065 -10.50554
vt 0.2400929 -10.42283
vt 0.3828202 5.783924
vt 0.3826722 5.859665
vt 0.3826879 5.780698
vt 0.3828045 5.862891
vt 0.2814901 -10.33528
vt 0.2813421 -10.41102
vt 0.2814744 -10.41425
vt 0.2813578 -10.33205
vt 0.3992002 4.201678
vt 0.3990553 4.278145
vt 0.3990678 4.199108
vt 0.3991877 4.280715
vt 0.3179843 -9.641086
vt 0.3178394 -9.717552
vt 0.3179718 -9.720123
vt 0.3178519 -9.638516
vt 0.4087076 2.220986
vt 0.408566 2.298211
vt 0.4085751 2.219117
vt 0.4086985 2.30008
vt 0.3490422 -8.390126
vt 0.3489006 -8.46735
vt 0.3490331 -8.46922
vt 0.3489097 -8.388256
vt 0.4111446 -0.02280696
vt 0.4110065 0.05519233
vt 0.4110121 -0.02394216
vt 0.4111391 0.05632753
vt 0.3740904 -6.667222
vt 0.3739523 -6.745221
vt 0.3740848 -6.746356
vt 0.3739578 -6.666087
vt 0.4064464 -2.37558
vt 0.4063119 -2.296805
vt 0.4063138 -2.375961
vt 0.4064445 -2.296424
vt 0.3926642 -4.590304
vt 0.3925297 -4.669079
vt 0.3926623 -4.66946
vt 0.3925316 -4.589924
vt 0.4013725 -3.463027
vt 0.3993448 -3.542185
vt 0.4013725 -3.542185
vt 0.3993448 -3.463027
vn 0 0.12442570343317293 -0.9922289273777296
vn 0 -0.12442570343317293 0.9922289273777296
vn 0.19342620253412504 0.12207590159934714 -0.9734905127539427
vn 0.24581190323075253 0.12060800158517408 -0.9617849126409218
vn -0.19342620253412504 -0.12207590159934714 0.9734905127539427
vn -0.24581190323075253 -0.12060800158517408 0.9617849126409218
vn -0.24581190323075253 0.12060800158517408 -0.9617849126409218
vn -0.19342620253412504 0.12207590159934714 -0.9734905127539427
vn 0.24581190323075253 -0.12060800158517408 0.9617849126409218
vn 0.19342620253412504 -0.12207590159934714 0.9734905127539427
vn 0.3483079102802141 0.11663420344242728 -0.9300957274515247
vn -0.3483079102802141 -0.11663420344242728 0.9300957274515247
vn -0.3483079102802141 0.11663420344242728 -0.9300957274515247
vn 0.3483079102802141 -0.11663420344242728 0.9300957274515247
vn 0.44678958309312283 0.11131609578770961 -0.8876867664092188
vn -0.44678958309312283 -0.11131609578770961 0.8876867664092188
vn -0.44678958309312283 0.11131609578770961 -0.8876867664092188
vn 0.44678958309312283 -0.11131609578770961 0.8876867664092188
vn 0.5401217688728238 0.1047149939652831 -0.8350468518763139
vn -0.5401217688728238 -0.1047149939652831 0.8350468518763139
vn -0.5401217688728238 0.1047149939652831 -0.8350468518763139
vn 0.5401217688728238 -0.1047149939652831 0.8350468518763139
vn 0.6272287827514784 0.09690709733509668 -0.7727826787488089
vn -0.6272287827514784 -0.09690709733509668 0.7727826787488089
vn -0.6272287827514784 0.09690709733509668 -0.7727826787488089
vn 0.6272287827514784 -0.09690709733509668 0.7727826787488089
vn 0.707106792016698 0.08798225900667221 -0.7016117920787371
vn -0.707106792016698 -0.08798225900667221 0.7016117920787371
vn -0.707106792016698 0.08798225900667221 -0.7016117920787371
vn 0.707106792016698 -0.08798225900667221 0.7016117920787371
vn 0.7788350093114196 0.07804339093305368 -0.6223546074406066
vn -0.7788350093114196 -0.07804339093305368 0.6223546074406066
vn -0.7788350093114196 0.07804339093305368 -0.6223546074406066
vn 0.7788350093114196 -0.07804339093305368 0.6223546074406066
vn 0.8415869047026737 0.06720503037553273 -0.5359244029946729
vn -0.8415869047026737 -0.06720503037553273 0.5359244029946729
vn -0.8415869047026737 0.06720503037553273 -0.5359244029946729
vn 0.8415869047026737 -0.06720503037553273 0.5359244029946729
vn 0.8946390965335813 0.055592109784599796 -0.4433174982822972
vn -0.8946390965335813 -0.055592109784599796 0.4433174982822972
vn -0.8946390965335813 0.055592109784599796 -0.4433174982822972
vn 0.8946390965335813 -0.055592109784599796 0.4433174982822972
vn 0.9373801761396199 0.04333845889684884 -0.3456011912029548
vn -0.9373801761396199 -0.04333845889684884 0.3456011912029548
vn -0.9373801761396199 0.04333845889684884 -0.3456011912029548
vn 0.9373801761396199 -0.04333845889684884 0.3456011912029548
vn 0.9693175463326924 0.03058531830661104 -0.24390168649612104
vn -0.9693175463326924 -0.03058531830661104 0.24390168649612104
vn -0.9693175463326924 0.03058531830661104 -0.24390168649612104
vn 0.9693175463326924 -0.03058531830661104 0.24390168649612104
vn 0.9811148212278195 0.024067190520728057 -0.1919231041525303
vn -0.9811148212278195 -0.024067190520728057 0.1919231041525303
vn -0.9811148212278195 0.024067190520728057 -0.1919231041525303
vn 0.9811148212278195 -0.024067190520728057 0.1919231041525303
vn 1 0 0
vn -1 0 0
vn 0.9914448574238509 -0.01624080930256223 0.12951189443830116
vn 0.9978589229244076 -0.008137831186955258 0.06489488149086878
vn -0.9914448574238509 0.01624080930256223 -0.12951189443830116
vn -0.9978589229244076 0.008137831186955258 -0.06489488149086878
vn -0.9978589229244076 -0.008137831186955258 0.06489488149086878
vn -0.9914448574238509 -0.01624080930256223 0.12951189443830116
vn 0.9978589229244076 0.008137831186955258 -0.06489488149086878
vn 0.9914448574238509 0.01624080930256223 -0.12951189443830116
vn 0.9659258353746595 -0.032203741179382926 0.2568077094049512
vn -0.9659258353746595 0.032203741179382926 -0.2568077094049512
vn -0.9659258353746595 -0.032203741179382926 0.2568077094049512
vn 0.9659258353746595 0.032203741179382926 -0.2568077094049512
vn 0.9238795175862106 -0.04761566090637264 0.37970960722783975
vn -0.9238795175862106 0.04761566090637264 -0.37970960722783975
vn -0.9238795175862106 -0.04761566090637264 0.37970960722783975
vn 0.9238795175862106 0.04761566090637264 -0.37970960722783975
vn 0.866025387329818 -0.06221284908980958 0.496114492741713
vn -0.866025387329818 0.06221284908980958 -0.496114492741713
vn -0.866025387329818 -0.06221284908980958 0.496114492741713
vn 0.866025387329818 0.06221284908980958 -0.496114492741713
vn 0.7933533251738929 -0.07574557240348276 0.6040307191664976
vn -0.7933533251738929 0.07574557240348276 -0.6040307191664976
vn -0.7933533251738929 -0.07574557240348276 0.6040307191664976
vn 0.7933533251738929 0.07574557240348276 -0.6040307191664976
vn 0.6087614268265422 -0.09871355435005132 0.7871881346893459
vn -0.6087614268265422 0.09871355435005132 -0.7871881346893459
vn -0.6087614268265422 -0.09871355435005132 0.7871881346893459
vn 0.6087614268265422 0.09871355435005132 -0.7871881346893459
vn 0.4999999828115284 -0.10775579629568519 0.8592954704600474
vn -0.4999999828115284 0.10775579629568519 -0.8592954704600474
vn -0.4999999828115284 -0.10775579629568519 0.8592954704600474
vn 0.4999999828115284 0.10775579629568519 -0.8592954704600474
vn 0.3826834021593064 -0.114954400648635 0.9167000051725164
vn -0.3826834021593064 0.114954400648635 -0.9167000051725164
vn -0.3826834021593064 -0.114954400648635 0.9167000051725164
vn 0.3826834021593064 0.114954400648635 -0.9167000051725164
vn 0.2588190145796314 -0.12018600677024342 0.9584195539890928
vn -0.2588190145796314 0.12018600677024342 -0.9584195539890928
vn -0.2588190145796314 -0.12018600677024342 0.9584195539890928
vn 0.2588190145796314 0.12018600677024342 -0.9584195539890928
vn 0.1305261965804767 -0.12336119676818548 0.9837402742279874
vn -0.1305261965804767 0.12336119676818548 -0.9837402742279874
vn -0.1305261965804767 -0.12336119676818548 0.9837402742279874
vn 0.1305261965804767 0.12336119676818548 -0.9837402742279874
vn 0.06540312927695086 -0.12415929862738584 0.9901044890541291
vn -0.06540312927695086 0.12415929862738584 -0.9901044890541291
vn -0.06540312927695086 -0.12415929862738584 0.9901044890541291
vn 0.06540312927695086 0.12415929862738584 -0.9901044890541291
usemtl material_0_2
f 1/1/1 2/2/1 3/3/1
f 3/3/2 2/2/2 1/1/2
f 2/2/1 1/1/1 4/4/1
f 4/4/2 1/1/2 2/2/2
f 5/5/3 6/6/4 7/7/4
f 7/7/6 6/6/6 5/5/5
f 6/6/4 5/5/3 8/8/3
f 8/8/5 5/5/5 6/6/6
f 9/9/7 10/10/8 11/11/7
f 11/11/9 10/10/10 9/9/9
f 10/10/8 9/9/7 12/12/8
f 12/12/10 9/9/9 10/10/10
f 7/13/4 13/14/11 14/15/11
f 14/15/12 13/14/12 7/13/6
f 13/14/11 7/13/4 6/16/4
f 6/16/6 7/13/6 13/14/12
f 15/17/13 11/18/7 16/19/13
f 16/19/14 11/18/9 15/17/14
f 11/18/7 15/17/13 9/20/7
f 9/20/9 15/17/14 11/18/9
f 14/21/11 17/22/15 18/23/15
f 18/23/16 17/22/16 14/21/12
f 17/22/15 14/21/11 13/24/11
f 13/24/12 14/21/12 17/22/16
f 19/25/17 16/26/13 20/27/17
f 20/27/18 16/26/14 19/25/18
f 16/26/13 19/25/17 15/28/13
f 15/28/14 19/25/18 16/26/14
f 18/29/15 21/30/19 22/31/19
f 22/31/20 21/30/20 18/29/16
f 21/30/19 18/29/15 17/32/15
f 17/32/16 18/29/16 21/30/20
f 23/33/21 20/34/17 24/35/21
f 24/35/22 20/34/18 23/33/22
f 20/34/17 23/33/21 19/36/17
f 19/36/18 23/33/22 20/34/18
f 22/37/19 25/38/23 26/39/23
f 26/39/24 25/38/24 22/37/20
f 25/38/23 22/37/19 21/40/19
f 21/40/20 22/37/20 25/38/24
f 27/41/25 24/42/21 28/43/25
f 28/43/26 24/42/22 27/41/26
f 24/42/21 27/41/25 23/44/21
f 23/44/22 27/41/26 24/42/22
f 26/45/23 29/46/27 30/47/27
f 30/47/28 29/46/28 26/45/24
f 29/46/27 26/45/23 25/48/23
f 25/48/24 26/45/24 29/46/28
f 31/49/29 28/50/25 32/51/29
f 32/51/30 28/50/26 31/49/30
f 28/50/25 31/49/29 27/52/25
f 27/52/26 31/49/30 28/50/26
f 33/53/31 29/54/27 34/55/31
f 34/55/32 29/54/28 33/53/32
f 29/54/27 33/53/31 30/56/27
f 30/56/28 33/53/32 29/54/28
f 31/57/29 35/58/33 36/59/33
f 36/59/34 35/58/34 31/57/30
f 35/58/33 31/57/29 32/60/29
f 32/60/30 31/57/30 35/58/34
f 37/61/35 34/62/31 38/63/35
f 38/63/36 34/62/32 37/61/36
f 34/62/31 37/61/35 33/64/31
f 33/64/32 37/61/36 34/62/32
f 36/65/33 39/66/37 40/67/37
f 40/67/38 39/66/38 36/65/34
f 39/66/37 36/65/33 35/68/33
f 35/68/34 36/65/34 39/66/38
f 41/69/39 38/70/35 42/71/39
f 42/71/40 38/70/36 41/69/40
f 38/70/35 41/69/39 37/72/35
f 37/72/36 41/69/40 38/70/36
f 40/73/37 43/74/41 44/75/41
f 44/75/42 43/74/42 40/73/38
f 43/74/41 40/73/37 39/76/37
f 39/76/38 40/73/38 43/74/42
f 45/77/43 42/78/39 46/79/43
f 46/79/44 42/78/40 45/77/44
f 42/78/39 45/77/43 41/80/39
f 41/80/40 45/77/44 42/78/40
f 44/81/41 47/82/45 48/83/45
f 48/83/46 47/82/46 44/81/42
f 47/82/45 44/81/41 43/84/41
f 43/84/42 44/81/42 47/82/46
f 49/85/47 46/86/43 50/87/47
f 50/87/48 46/86/44 49/85/48
f 46/86/43 49/85/47 45/88/43
f 45/88/44 49/85/48 46/86/44
f 48/89/45 51/90/49 52/91/49
f 52/91/50 51/90/50 48/89/46
f 51/90/49 48/89/45 47/92/45
f 47/92/46 48/89/46 51/90/50
f 53/93/51 50/94/47 54/95/51
f 54/95/52 50/94/48 53/93/52
f 50/94/47 53/93/51 49/96/47
f 49/96/48 53/93/52 50/94/48
f 52/97/49 55/98/53 56/99/53
f 56/99/54 55/98/54 52/97/50
f 55/98/53 52/97/49 51/100/49
f 51/100/50 52/97/50 55/98/54
f 57/101/55 58/102/55 59/103/55
f 59/103/56 58/102/56 57/101/56
f 58/102/55 57/101/55 60/104/55
f 60/104/56 57/101/56 58/102/56
f 61/105/56 62/106/56 63/107/56
f 63/107/55 62/106/55 61/105/55
f 62/106/56 61/105/56 64/108/56
f 64/108/55 61/105/55 62/106/55
f 65/109/57 66/110/58 67/111/57
f 67/111/59 66/110/60 65/109/59
f 66/110/58 65/109/57 68/112/58
f 68/112/60 65/109/59 66/110/60
f 69/113/61 70/114/62 71/115/62
f 71/115/64 70/114/64 69/113/63
f 70/114/62 69/113/61 72/116/61
f 72/116/63 69/113/63 70/114/64
f 73/117/65 67/118/57 74/119/65
f 74/119/66 67/118/59 73/117/66
f 67/118/57 73/117/65 65/120/57
f 65/120/59 73/117/66 67/118/59
f 71/121/62 75/122/67 76/123/67
f 76/123/68 75/122/68 71/121/64
f 75/122/67 71/121/62 70/124/62
f 70/124/64 71/121/64 75/122/68
f 77/125/69 74/126/65 78/127/69
f 78/127/70 74/126/66 77/125/70
f 74/126/65 77/125/69 73/128/65
f 73/128/66 77/125/70 74/126/66
f 76/129/67 79/130/71 80/131/71
f 80/131/72 79/130/72 76/129/68
f 79/130/71 76/129/67 75/132/67
f 75/132/68 76/129/68 79/130/72
f 81/133/73 78/134/69 82/135/73
f 82/135/74 78/134/70 81/133/74
f 78/134/69 81/133/73 77/136/69
f 77/136/70 81/133/74 78/134/70
f 80/137/71 83/138/75 84/139/75
f 84/139/76 83/138/76 80/137/72
f 83/138/75 80/137/71 79/140/71
f 79/140/72 80/137/72 83/138/76
f 85/141/77 82/142/73 86/143/77
f 86/143/78 82/142/74 85/141/78
f 82/142/73 85/141/77 81/144/73
f 81/144/74 85/141/78 82/142/74
f 84/145/75 87/146/79 88/147/79
f 88/147/80 87/146/80 84/145/76
f 87/146/79 84/145/75 83/148/75
f 83/148/76 84/145/76 87/146/80
f 89/149/30 86/150/77 90/151/30
f 90/151/29 86/150/78 89/149/29
f 86/150/77 89/149/30 85/152/77
f 85/152/78 89/149/29 86/150/78
f 88/153/79 91/154/28 92/155/28
f 92/155/27 91/154/27 88/153/80
f 91/154/28 88/153/79 87/156/79
f 87/156/80 88/153/80 91/154/27
f 89/157/30 93/158/81 94/159/81
f 94/159/82 93/158/82 89/157/29
f 93/158/81 89/157/30 90/160/30
f 90/160/29 89/157/29 93/158/82
f 95/161/83 91/162/28 96/163/83
f 96/163/84 91/162/27 95/161/84
f 91/162/28 95/161/83 92/164/28
f 92/164/27 95/161/84 91/162/27
f 94/165/81 97/166/85 98/167/85
f 98/167/86 97/166/86 94/165/82
f 97/166/85 94/165/81 93/168/81
f 93/168/82 94/165/82 97/166/86
f 99/169/87 96/170/83 100/171/87
f 100/171/88 96/170/84 99/169/88
f 96/170/83 99/169/87 95/172/83
f 95/172/84 99/169/88 96/170/84
f 98/173/85 101/174/89 102/175/89
f 102/175/90 101/174/90 98/173/86
f 101/174/89 98/173/85 97/176/85
f 97/176/86 98/173/86 101/174/90
f 103/177/91 100/178/87 104/179/91
f 104/179/92 100/178/88 103/177/92
f 100/178/87 103/177/91 99/180/87
f 99/180/88 103/177/92 100/178/88
f 102/181/89 105/182/93 106/183/93
f 106/183/94 105/182/94 102/181/90
f 105/182/93 102/181/89 101/184/89
f 101/184/90 102/181/90 105/182/94
f 107/185/95 104/186/91 108/187/95
f 108/187/96 104/186/92 107/185/96
f 104/186/91 107/185/95 103/188/91
f 103/188/92 107/185/96 104/186/92
f 106/189/93 109/190/97 110/191/97
f 110/191/98 109/190/98 106/189/94
f 109/190/97 106/189/93 105/192/93
f 105/192/94 106/189/94 109/190/98
f 111/193/99 108/194/95 112/195/99
f 112/195/100 108/194/96 111/193/100
f 108/194/95 111/193/99 107/196/95
f 107/196/96 111/193/100 108/194/96
f 110/197/97 113/198/101 114/199/101
f 114/199/102 113/198/102 110/197/98
f 113/198/101 110/197/97 109/200/97
f 109/200/98 110/197/98 113/198/102
f 115/201/103 112/202/99 116/203/103
f 116/203/104 112/202/100 115/201/104
f 112/202/99 115/201/103 111/204/99
f 111/204/100 115/201/104 112/202/100
f 117/205/2 118/206/2 119/207/2
f 119/207/1 118/206/1 117/205/1
f 118/206/2 117/205/2 120/208/2
f 120/208/1 117/205/1 118/206/1
