# SSTK version 0.8.0
# 91
mtllib original-91.mtl
o #ID3790
v 0.582974 -0.019948 0.266451
v 0.513259 -0.015670 0.232332
v 0.513259 -0.019948 0.266451
v 0.605422 -0.015670 0.232332
v 0.586058 -0.019923 0.266251
v 0.589090 -0.019848 0.265652
v 0.592017 -0.019724 0.264666
v 0.594790 -0.019554 0.263310
v 0.597360 -0.019341 0.261605
v 0.599684 -0.019087 0.259583
v 0.601722 -0.018798 0.257278
v 0.603440 -0.018478 0.254727
v 0.604807 -0.018133 0.251976
v 0.605801 -0.017769 0.249072
v 0.606606 -0.015670 0.232332
v 0.606404 -0.017392 0.246064
v 0.606606 -0.017008 0.243003
vn 0 0.9922289273777296 0.12442570343317293
vn 0 -0.9922289273777296 -0.12442570343317293
usemtl material_0_2
f 1//1 2//1 3//1
f 3//2 2//2 1//2
f 2//1 1//1 4//1
f 4//2 1//2 2//2
f 4//1 1//1 5//1
f 5//2 1//2 4//2
f 4//1 5//1 6//1
f 6//2 5//2 4//2
f 4//1 6//1 7//1
f 7//2 6//2 4//2
f 4//1 7//1 8//1
f 8//2 7//2 4//2
f 4//1 8//1 9//1
f 9//2 8//2 4//2
f 4//1 9//1 10//1
f 10//2 9//2 4//2
f 4//1 10//1 11//1
f 11//2 10//2 4//2
f 4//1 11//1 12//1
f 12//2 11//2 4//2
f 4//1 12//1 13//1
f 13//2 12//2 4//2
f 4//1 13//1 14//1
f 14//2 13//2 4//2
f 4//1 14//1 15//1
f 15//2 14//2 4//2
f 15//1 14//1 16//1
f 16//2 14//2 15//2
f 15//1 16//1 17//1
f 17//2 16//2 15//2
