# SSTK version 0.8.0
# 8
mtllib original-8.mtl
o Group6/mesh6/mesh6-geometry#mesh6-geometry
v 0.030738 0.037092 0.386198
v -0.040499 0.001287 0.386198
v -0.040499 0.037092 0.386198
v 0.030738 0.001287 0.386198
v -0.043208 0.001287 0.386198
v 0.036433 0.040139 0.386198
v 0.033447 0.037092 0.386198
v 0.030738 0.001287 0.333552
v -0.043208 0.037092 0.386198
v -0.040499 -0.118433 0.386198
v 0.033447 0.001287 0.386198
v -0.040499 0.001287 0.333552
v 0.030738 -0.118433 0.333552
v -0.046195 -0.129850 0.386198
v -0.040499 -0.118433 0.333552
v -0.046195 0.040139 0.386198
v 0.030738 -0.118433 0.386198
v 0.026469 0.001287 0.327928
v 0.036401 -0.129850 0.386198
v -0.004881 0.040139 0.383992
v -0.036231 0.001287 0.327928
v -0.036231 -0.118433 0.327928
v 0.026469 -0.118433 0.327928
v -0.046163 -0.129850 0.383489
v -0.004881 -0.129850 0.383992
v -0.046163 0.040139 0.383489
v 0.036401 0.040139 0.383489
v 0.036433 -0.129850 0.386198
v 0.021323 0.001287 0.323095
v 0.021323 -0.118433 0.323095
v 0.036401 -0.129850 0.383489
v -0.031085 0.001287 0.323095
v -0.031085 -0.118433 0.323095
v 0.015443 0.001287 0.319187
v 0.015443 -0.118433 0.319187
v -0.025204 -0.118433 0.319187
v -0.025204 0.001287 0.319187
v 0.008993 0.001287 0.316315
v 0.008993 -0.118433 0.316315
v -0.018754 -0.118433 0.316315
v -0.018754 0.001287 0.316315
v 0.002155 0.001287 0.314559
v 0.002155 -0.118433 0.314559
v -0.011916 -0.118433 0.314559
v -0.011916 0.001287 0.314559
v -0.004881 0.001287 0.313969
v -0.004881 -0.118433 0.313969
vt -0.007886 0.177995
vt -0.007886 0.226594
vt -0.004136 0.177995
vt -0.106512 0.226594
vt -0.114398 0.23073
vt -0.106512 0.177995
vt -0.110262 0.226594
vt 0.1 0.106512
vt 0.1 0.007886
vt 0.027113 0.106512
vt -0.004136 0.226594
vt -0.007886 0.015495
vt -0.110262 0.177995
vt 0.027113 0.007886
vt -0.027113 0.177995
vt -0.027113 0.015495
vt -0.1 0.177995
vt 0 0
vt 0.1 0.015495
vt 0.027113 0.015495
vt 0.1 0.177995
vt 0 0.23073
vt -0.106512 0.015495
vt 0.019327 0.100603
vt 0.027113 0.177995
vt -0.1 0.015495
vt -0.085987 0.177995
vt -0.076213 0.177995
vt -0.085987 0.015495
vt -0.114353 0
vt -0.1 0.007886
vt -0.1 0.106512
vt -0.027113 0.007886
vt -0.1 0.114398
vt -0.096946 0.057199
vt -0.1 0
vt 0.019327 0.013795
vt 0.016831 0.015495
vt 0.007056 0.015495
vt 0.016831 0.177995
vt -0.027113 0.106512
vt -0.076213 0.015495
vt 0.099993 0
vt 0.096243 0
vt 0.099993 0.23073
vt 0.1 0
vt 0.096946 0.057199
vt 0.1 0.114353
vt -0.09625 0.000046
vt -0.09625 0.114353
vt -0.101385 0.23073
vt -0.097635 0.23073
vt -0.101385 0
vt -0.114398 0
vt 0.012635 0.093478
vt 0.007056 0.177995
vt -0.019327 0.013795
vt -0.019327 0.100603
vt -0.086562 0.015495
vt -0.086562 0.177995
vt -0.076788 0.015495
vt 0.096243 0.23073
vt 0.09625 0.000046
vt 0.09625 0.114353
vt -0.097635 0
vt 0.012635 0.02092
vt -0.076788 0.177995
vt 0.003176 0.177995
vt 0.003176 0.015495
vt -0.006599 0.177995
vt -0.012635 0.02092
vt -0.012635 0.093478
vt 0.007225 0.085337
vt -0.08485 0.015495
vt -0.08485 0.177995
vt -0.075075 0.015495
vt -0.006599 0.015495
vt -0.007225 0.029061
vt 0.007225 0.029061
vt -0.075075 0.177995
vt -0.007225 0.085337
vt -0.010431 0.177995
vt -0.010431 0.015495
vt -0.020206 0.177995
vt -0.020206 0.015495
vt 0.003249 0.076407
vt -0.080897 0.015495
vt -0.080897 0.177995
vt -0.071122 0.015495
vt -0.003249 0.037991
vt -0.023609 0.177995
vt -0.023609 0.015495
vt -0.033384 0.177995
vt 0.003249 0.037991
vt -0.071122 0.177995
vt -0.003249 0.076407
vt -0.033384 0.015495
vt 0.000818 0.06694
vt -0.074814 0.015495
vt -0.074814 0.177995
vt -0.06504 0.015495
vt -0.000818 0.047459
vt -0.035989 0.177995
vt -0.035989 0.015495
vt -0.045764 0.177995
vt 0.000818 0.047459
vt -0.06504 0.177995
vt -0.000818 0.06694
vt -0.045764 0.015495
vt 0 0.057199
vt -0.066773 0.015495
vt -0.066773 0.177995
vt -0.056998 0.015495
vt -0.047224 0.177995
vt -0.047224 0.015495
vt -0.056998 0.177995
vn 0 0 -1
vn 0 1 0
vn 1 0 0
vn -1 0 0
vn 0.7965869541384988 0 -0.6045239651960449
vn 0.7432020508004632 0 -0.6690670457330758
vn 0 -1 0
vn -0.7965869541384988 0 -0.6045239651960449
vn -0.7432020508004632 0 -0.6690670457330758
vn -0.9999259306466397 0 -0.012170999155837784
vn 0.9999259306466397 0 -0.012170999155837784
vn 0.6212017469830271 0 -0.7836506808171837
vn -0.6212017469830271 0 -0.7836506808171837
vn 0.48179889884030935 0 -0.8762818160136986
vn -0.48179889884030935 0 -0.8762818160136986
vn 0.3288990319976017 0 -0.9443650918744512
vn -0.3288990319976017 0 -0.9443650918744512
vn 0.16678601952689134 0 -0.9859931154376157
vn -0.16678601952689134 0 -0.9859931154376157
vn 0.08368601453375141 0 -0.9964921730608107
vn -0.08368601453375141 0 -0.9964921730608107
vn 0 0 1
vn -0.7965869541384988 0 0.6045239651960449
vn -0.7432020508004632 0 0.6690670457330758
vn 0.7965869541384988 0 0.6045239651960449
vn 0.7432020508004632 0 0.6690670457330758
vn 0.9999259306466397 0 0.012170999155837784
vn -0.9999259306466397 0 0.012170999155837784
vn -0.6212017469830271 0 0.7836506808171837
vn 0.6212017469830271 0 0.7836506808171837
vn -0.48179889884030935 0 0.8762818160136986
vn 0.48179889884030935 0 0.8762818160136986
vn -0.3288990319976017 0 0.9443650918744512
vn 0.3288990319976017 0 0.9443650918744512
vn -0.16678601952689134 0 0.9859931154376157
vn 0.16678601952689134 0 0.9859931154376157
vn -0.08368601453375141 0 0.9964921730608107
vn 0.08368601453375141 0 0.9964921730608107
usemtl material_0_0
f 1//1 2//1 3//1
f 2//1 1//1 4//1
f 5//1 3//1 2//1
f 3//1 6//1 1//1
f 7//1 4//1 1//1
f 8//2 2//2 4//2
f 3//1 5//1 9//1
f 10//1 5//1 2//1
f 9//1 6//1 3//1
f 1//1 6//1 7//1
f 4//1 7//1 11//1
f 8//2 12//2 2//2
f 4//3 13//3 8//3
f 5//1 14//1 9//1
f 10//1 14//1 5//1
f 2//4 15//4 10//4
f 9//1 16//1 6//1
f 7//1 6//1 11//1
f 11//1 17//1 4//1
f 18//2 12//2 8//2
f 15//4 2//4 12//4
f 13//3 4//3 17//3
f 13//5 18//6 8//5
f 16//1 9//1 14//1
f 14//1 10//1 19//1
f 15//7 17//7 10//7
f 16//7 20//7 6//7
f 11//1 6//1 19//1
f 19//1 17//1 11//1
f 18//2 21//2 12//2
f 12//8 22//9 15//8
f 15//7 13//7 17//7
f 18//6 13//5 23//6
f 16//10 24//10 14//10
f 19//1 10//1 17//1
f 19//2 25//2 14//2
f 20//7 16//7 26//7
f 6//7 20//7 27//7
f 28//11 27//11 6//11
f 19//1 6//1 28//1
f 29//2 21//2 18//2
f 22//9 12//8 21//9
f 22//7 13//7 15//7
f 22//7 23//7 13//7
f 30//12 18//6 23//6
f 24//10 16//10 26//10
f 14//2 25//2 24//2
f 25//2 19//2 31//2
f 27//11 28//11 31//11
f 29//2 32//2 21//2
f 18//6 30//12 29//12
f 32//13 22//9 21//9
f 33//7 23//7 22//7
f 33//7 30//7 23//7
f 25//2 31//2 24//2
f 34//2 32//2 29//2
f 35//14 29//12 30//12
f 22//9 32//13 33//13
f 36//7 30//7 33//7
f 34//2 37//2 32//2
f 29//12 35//14 34//14
f 36//7 35//7 30//7
f 37//15 33//13 32//13
f 33//13 37//15 36//15
f 38//2 37//2 34//2
f 39//16 34//14 35//14
f 40//7 35//7 36//7
f 41//17 36//15 37//15
f 38//2 41//2 37//2
f 34//14 39//16 38//16
f 40//7 39//7 35//7
f 36//15 41//17 40//17
f 42//2 41//2 38//2
f 43//18 38//16 39//16
f 44//7 39//7 40//7
f 45//19 40//17 41//17
f 42//2 45//2 41//2
f 38//16 43//18 42//18
f 44//7 43//7 39//7
f 40//17 45//19 44//19
f 45//2 42//2 46//2
f 47//20 42//18 43//18
f 43//7 44//7 47//7
f 46//21 44//19 45//19
f 42//18 47//20 46//20
f 44//19 46//21 47//21
usemtl material_1_0
f 3//22 2//22 1//22
f 4//22 1//22 2//22
usemtl material_2_0
f 2/1/22 3/2/22 5/3/22
f 1/4/22 6/5/22 3/2/22
f 1/4/22 4/6/22 7/7/22
f 4/8/7 2/9/7 8/10/7
f 9/11/22 5/3/22 3/2/22
f 2/1/22 5/3/22 10/12/22
f 3/2/22 6/5/22 9/11/22
f 7/7/22 6/5/22 1/4/22
f 11/13/22 7/7/22 4/6/22
f 2/9/7 12/14/7 8/10/7
f 8/15/4 13/16/4 4/17/4
f 9/11/22 14/18/22 5/3/22
f 5/3/22 14/18/22 10/12/22
f 10/19/3 15/20/3 2/21/3
f 6/5/22 16/22/22 9/11/22
f 11/13/22 6/5/22 7/7/22
f 4/6/22 17/23/22 11/13/22
f 8/10/7 12/14/7 18/24/7
f 12/25/3 2/21/3 15/20/3
f 17/26/4 4/17/4 13/16/4
f 8/27/23 18/28/24 13/29/23
f 14/18/22 9/11/22 16/22/22
f 19/30/22 10/12/22 14/18/22
f 10/31/2 17/32/2 15/33/2
f 6/34/2 20/35/2 16/36/2
f 19/30/22 6/5/22 11/13/22
f 11/13/22 17/23/22 19/30/22
f 12/14/7 21/37/7 18/24/7
f 15/38/25 22/39/26 12/40/25
f 17/32/2 13/41/2 15/33/2
f 23/42/24 13/29/23 18/28/24
f 14/43/27 24/44/27 16/45/27
f 17/23/22 10/12/22 19/30/22
f 14/46/7 25/47/7 19/48/7
f 26/49/2 16/36/2 20/35/2
f 27/50/2 20/35/2 6/34/2
f 6/51/28 27/52/28 28/53/28
f 28/54/22 6/5/22 19/30/22
f 18/24/7 21/37/7 29/55/7
f 21/56/26 12/40/25 22/39/26
f 15/33/2 13/41/2 22/57/2
f 13/41/2 23/58/2 22/57/2
f 23/59/24 18/60/24 30/61/29
f 26/62/27 16/45/27 24/44/27
f 24/63/7 25/47/7 14/46/7
f 31/64/7 19/48/7 25/47/7
f 31/65/28 28/53/28 27/52/28
f 21/37/7 32/66/7 29/55/7
f 29/67/29 30/61/29 18/60/24
f 21/68/26 22/69/26 32/70/30
f 22/57/2 23/58/2 33/71/2
f 23/58/2 30/72/2 33/71/2
f 24/63/7 31/64/7 25/47/7
f 29/55/7 32/66/7 34/73/7
f 30/74/29 29/75/29 35/76/31
f 33/77/30 32/70/30 22/69/26
f 33/71/2 30/72/2 36/78/2
f 32/66/7 37/79/7 34/73/7
f 34/80/31 35/76/31 29/75/29
f 30/72/2 35/81/2 36/78/2
f 32/82/30 33/83/30 37/84/32
f 36/85/32 37/84/32 33/83/30
f 34/73/7 37/79/7 38/86/7
f 35/87/31 34/88/31 39/89/33
f 36/78/2 35/81/2 40/90/2
f 37/91/32 36/92/32 41/93/34
f 37/79/7 41/94/7 38/86/7
f 38/95/33 39/89/33 34/88/31
f 35/81/2 39/96/2 40/90/2
f 40/97/34 41/93/34 36/92/32
f 38/86/7 41/94/7 42/98/7
f 39/99/33 38/100/33 43/101/35
f 40/90/2 39/96/2 44/102/2
f 41/103/34 40/104/34 45/105/36
f 41/94/7 45/106/7 42/98/7
f 42/107/35 43/101/35 38/100/33
f 39/96/2 43/108/2 44/102/2
f 44/109/36 45/105/36 40/104/34
f 46/110/7 42/98/7 45/106/7
f 43/111/35 42/112/35 47/113/37
f 47/110/2 44/102/2 43/108/2
f 45/114/36 44/115/36 46/116/38
f 46/116/37 47/113/37 42/112/35
f 47/113/38 46/116/38 44/115/36
