# SSTK version 0.8.0
# 192
mtllib original-192.mtl
o Group148/mesh186/mesh186-geometry#mesh186-geometry
v -0.004764 0.325825 0.685634
v 0.013857 0.326653 0.709321
v 0.008574 0.418652 0.696652
v 0.017576 0.419358 0.716858
v -0.004764 0.418155 0.682410
v 0.019397 0.327540 0.734744
v -0.017056 0.325564 0.678148
v 0.018795 0.420185 0.740527
v -0.021836 0.417825 0.672954
v 0.013806 0.328456 0.760959
v -0.040742 0.325364 0.672432
v 0.011138 0.420968 0.762958
v -0.043639 0.417692 0.669155
v -0.001061 0.329170 0.781410
v -0.066905 0.371688 0.675355
v -0.003056 0.421561 0.779929
v -0.066905 0.394770 0.674549
v -0.066905 0.348605 0.676161
v -0.019786 0.375747 0.791588
v -0.066905 0.417852 0.673742
v -0.066905 0.325523 0.676967
v -0.019786 0.352664 0.792394
v -0.019786 0.398829 0.790782
v -0.019786 0.329582 0.793200
v -0.019786 0.421911 0.789976
vn -0.6868607992330217 0.03150599079091034 0.7261057877618505
vn -0.9077052350516626 0.022136005732152537 0.4190241085069355
vn -0.8181313623512787 0.022621010018870045 0.574586254484883
vn 0.8181313623512787 -0.022621010018870045 -0.574586254484883
vn 0.9077052350516626 -0.022136005732152537 -0.4190241085069355
vn 0.6868607992330217 -0.03150599079091034 -0.7261057877618505
vn -0.974079592261083 0.0053229977718521025 0.22614290533908726
vn 0.974079592261083 -0.0053229977718521025 -0.22614290533908726
vn -0.5840068406017788 0.02616999285718911 0.8113267785573106
vn 0.5840068406017788 -0.02616999285718911 -0.8113267785573106
vn -0.9998053780529798 0.006401002420389094 0.018661007056222617
vn 0.9998053780529798 -0.006401002420389094 -0.018661007056222617
vn -0.41723589478125667 0.03244799181725003 0.9082187709649651
vn 0.41723589478125667 -0.03244799181725003 -0.9082187709649651
vn -0.9867866350967309 -0.007888997082732215 -0.16183294015588903
vn 0.9867866350967309 0.007888997082732215 0.16183294015588903
vn -0.300206892431987 0.03240098839030651 0.9533236584118011
vn 0.300206892431987 -0.03240098839030651 -0.9533236584118011
vn -0.9254284276877721 -0.008225003801194525 -0.3788331750781711
vn 0.9254284276877721 0.008225003801194525 0.3788331750781711
vn 0.023785991940772112 0.03693198748661357 0.9990346615046358
vn -0.023785991940772112 -0.03693198748661357 -0.9990346615046358
vn -0.851720467687224 -0.019520987799669376 -0.5236326727372745
vn 0.851720467687224 0.019520987799669376 0.5236326727372745
vn 0.10048001705427378 0.035088005955417355 0.9943201687639879
vn -0.10048001705427378 -0.035088005955417355 -0.9943201687639879
vn -0.6429661786195656 -0.02466800685290876 -0.7654972126593655
vn 0.6429661786195656 0.02466800685290876 0.7654972126593655
vn 0.18201706156418723 0.036402012312363695 0.9826213323550174
vn -0.18201706156418723 -0.036402012312363695 -0.9826213323550174
vn -0.5864850787057164 -0.028196003783875583 -0.8094691086299521
vn 0.5864850787057164 0.028196003783875583 0.8094691086299521
vn 0.19356996775685953 0.03423899429677673 0.9804888366790074
vn -0.19356996775685953 -0.03423899429677673 -0.9804888366790074
vn 0.17086698271501147 0.034385996521495356 0.9846939003878776
vn -0.17086698271501147 -0.034385996521495356 -0.9846939003878776
vn -0.5242910499444922 -0.028139002680549478 -0.851074081074172
vn 0.5242910499444922 0.028139002680549478 0.851074081074172
vn -0.5330668239181954 -0.029527990246359975 -0.8455577206966882
vn 0.5330668239181954 0.029527990246359975 0.8455577206966882
vn -0.5150811557816833 -0.02991400904722398 -0.8566192590768243
vn 0.5150811557816833 0.02991400904722398 0.8566192590768243
usemtl material_0_0
f 1//1 2//2 3//3
f 3//4 2//5 1//6
f 3//3 2//2 4//7
f 4//8 2//5 3//4
f 5//9 1//1 3//3
f 3//4 1//6 5//10
f 2//2 6//11 4//7
f 4//8 6//12 2//5
f 5//9 7//13 1//1
f 1//6 7//14 5//10
f 4//7 6//11 8//15
f 8//16 6//12 4//8
f 5//9 9//17 7//13
f 7//14 9//18 5//10
f 6//11 10//19 8//15
f 8//16 10//20 6//12
f 9//17 11//21 7//13
f 7//14 11//22 9//18
f 8//15 10//19 12//23
f 12//24 10//20 8//16
f 9//17 13//25 11//21
f 11//22 13//26 9//18
f 10//19 14//27 12//23
f 12//24 14//28 10//20
f 13//25 15//29 11//21
f 11//22 15//30 13//26
f 12//23 14//27 16//31
f 16//32 14//28 12//24
f 13//25 17//33 15//29
f 15//30 17//34 13//26
f 15//29 18//35 11//21
f 11//22 18//36 15//30
f 16//31 14//27 19//37
f 19//38 14//28 16//32
f 20//33 17//33 13//25
f 13//26 17//34 20//34
f 18//35 21//35 11//21
f 11//22 21//36 18//36
f 19//37 14//27 22//39
f 22//40 14//28 19//38
f 16//31 19//37 23//41
f 23//42 19//38 16//32
f 22//39 14//27 24//39
f 24//40 14//28 22//40
f 25//41 16//31 23//41
f 23//42 16//32 25//42
