mtllib new-1.mtl
v -0.039388 0.041861 -0.303410
v -0.017805 0.051998 -0.303409
v 0.007673 0.055577 -0.303409
v 0.033166 0.052054 -0.303409
v 0.054794 0.041964 -0.303410
v 0.069264 0.026843 -0.303409
v -0.053791 0.026709 -0.303409
v 0.074374 0.008994 -0.303410
v -0.051740 -0.032775 -0.321233
v -0.024434 -0.045557 -0.321233
v -0.058820 0.008848 -0.303409
v -0.053794 0.026788 0.563352
v -0.039348 0.041935 0.563352
v -0.017727 0.052056 0.563352
v 0.007776 0.055610 0.563352
v 0.033280 0.052056 0.563352
v 0.054901 0.041935 0.563352
v 0.069347 0.026788 0.563352
v 0.039987 -0.045557 -0.321233
v 0.007777 -0.050046 -0.321233
v -0.053711 -0.009001 -0.303409
v -0.058867 0.008840 0.576377
v 0.074416 0.008831 0.577016
v 0.069344 -0.008866 -0.303409
v -0.039241 -0.024121 -0.303410
v -0.017613 -0.034211 -0.303409
v 0.007881 -0.037735 -0.303410
v -0.053787 -0.009020 0.574197
v -0.053878 0.019476 0.611992
v -0.039348 0.035326 0.610982
v -0.017727 0.044836 0.615399
v 0.007776 0.048176 0.616950
v 0.033280 0.044836 0.615399
v 0.054901 0.035326 0.610982
v 0.069386 0.018541 0.615296
v 0.054941 -0.024018 -0.303409
v 0.033358 -0.034156 -0.303409
v -0.039337 -0.024130 0.571056
v -0.058845 -0.019327 0.651345
v 0.074438 -0.019446 0.651428
v 0.069347 -0.008946 0.563352
v -0.017722 -0.034231 0.569155
v 0.007778 -0.037780 0.568519
v 0.033280 -0.034228 0.569140
v -0.053794 -0.023381 0.615714
v -0.039348 -0.035742 0.604670
v -0.039585 0.021444 0.648127
v -0.017727 0.034234 0.645503
v 0.007776 0.037312 0.647770
v 0.033280 0.034234 0.645503
v 0.054931 0.020471 0.650367
v 0.069347 -0.015541 0.597680
v 0.054898 -0.024117 0.570778
v -0.017727 -0.044001 0.597291
v 0.007776 -0.046901 0.594700
v 0.033280 -0.044001 0.597291
v 0.054901 -0.035742 0.604670
vn -0.488278 -0.352930 0.798139
vn 0.488278 0.352930 -0.798139
vn -0.270411 -0.478361 0.835493
vn 0.270411 0.478361 -0.835493
vn -0.852880 0.522106 -0.000056
vn -0.973224 0.229858 -0.000043
vn -0.950259 0.310236 0.027601
vn 0.950259 -0.310236 -0.027601
vn 0.973224 -0.229858 0.000043
vn 0.852880 -0.522106 0.000056
vn -0.818895 0.570696 0.060963
vn -0.577347 0.816499 -0.000064
vn 0.577347 -0.816499 0.000064
vn 0.818895 -0.570696 -0.060963
vn -0.506779 0.856989 0.093518
vn -0.095688 0.995411 -0.000070
vn 0.095688 -0.995411 0.000070
vn 0.506779 -0.856989 -0.093518
vn 0.000315 0.993781 0.111352
vn 0.433963 0.900931 -0.000067
vn -0.433963 -0.900931 0.000067
vn -0.000315 -0.993781 -0.111352
vn 0.506859 0.856365 0.098661
vn 0.780203 0.625526 -0.000058
vn -0.780203 -0.625526 0.000058
vn -0.506859 -0.856365 -0.098661
vn 0.817249 0.572191 0.068575
vn 0.944725 0.327865 -0.000052
vn -0.944725 -0.327865 0.000052
vn -0.817249 -0.572191 -0.068575
vn 0.959772 0.278032 0.039189
vn 0.998902 0.046858 -0.000046
vn -0.998902 -0.046858 0.000046
vn -0.959772 -0.278032 -0.039189
vn 0.290731 -0.470783 0.832970
vn -0.290731 0.470783 -0.832970
vn 0.011689 -0.524279 0.851467
vn -0.011689 0.524279 -0.851467
vn -0.999816 0.016965 -0.008961
vn 0.999816 -0.016965 0.008961
vn 0.999754 -0.021796 -0.004005
vn -0.999754 0.021796 0.004005
vn -0.636197 -0.391128 0.665036
vn 0.636197 0.391128 -0.665036
vn -0.402213 -0.571869 0.714975
vn 0.402213 0.571869 -0.714975
vn -0.061759 -0.663465 0.745654
vn 0.061759 0.663465 -0.745654
vn -0.998885 -0.047210 -0.000053
vn 0.998885 0.047210 0.000053
vn -0.944619 -0.328168 -0.000080
vn -0.959425 -0.268779 -0.085214
vn 0.959425 0.268779 0.085214
vn 0.944619 0.328168 0.000080
vn -0.952506 0.275003 0.130790
vn 0.952506 -0.275003 -0.130790
vn -0.786618 0.580075 0.211528
vn 0.786618 -0.580075 -0.211528
vn -0.503983 0.804212 0.315029
vn 0.503983 -0.804212 -0.315029
vn -0.000459 0.930677 0.365843
vn 0.000459 -0.930677 -0.365843
vn 0.498149 0.805736 0.320370
vn -0.498149 -0.805736 -0.320370
vn 0.811238 0.538656 0.227471
vn -0.811238 -0.538656 -0.227471
vn 0.957658 0.250436 0.142028
vn -0.957658 -0.250436 -0.142028
vn 0.973129 -0.230259 -0.000057
vn -0.973129 0.230259 0.000057
vn 0.572019 -0.456651 0.681369
vn -0.572019 0.456651 -0.681369
vn 0.298632 -0.615660 0.729234
vn -0.298632 0.615660 -0.729234
vn -0.817416 -0.553356 -0.160087
vn 0.817416 0.553356 0.160087
vn -0.999676 -0.012808 -0.021987
vn 0.999676 0.012808 0.021987
vn 0.999777 0.009550 0.018817
vn -0.999777 -0.009550 -0.018817
vn 0.949978 -0.310272 -0.035688
vn -0.949978 0.310272 0.035688
vn -0.780043 -0.625725 -0.000086
vn 0.780043 0.625725 0.000086
vn -0.507330 -0.830149 -0.231232
vn -0.433861 -0.900980 -0.000091
vn 0.433861 0.900980 0.000091
vn 0.507330 0.830149 0.231232
vn -0.000626 -0.965253 -0.261317
vn 0.095632 -0.995417 -0.000093
vn -0.095632 0.995417 0.000093
vn 0.000626 0.965253 0.261317
vn 0.506854 -0.833845 -0.218636
vn 0.577225 -0.816585 -0.000089
vn -0.577225 0.816585 0.000089
vn -0.506854 0.833845 0.218636
vn -0.952411 -0.233059 -0.196460
vn 0.952411 0.233059 0.196460
vn -0.794422 -0.472657 -0.381431
vn 0.794422 0.472657 0.381431
vn -0.781687 0.489992 0.385840
vn 0.781687 -0.489992 -0.385840
vn -0.440063 0.741178 0.506952
vn 0.440063 -0.741178 -0.506952
vn 0.000095 0.813803 0.581141
vn -0.000095 -0.813803 -0.581141
vn 0.480324 0.709957 0.515024
vn -0.480324 -0.709957 -0.515024
vn 0.777505 0.469282 0.418641
vn -0.777505 -0.469282 -0.418641
vn 0.954641 -0.258907 -0.147064
vn -0.954641 0.258907 0.147064
vn 0.852977 -0.521949 -0.000071
vn -0.852977 0.521949 0.000071
vn 0.817759 -0.562379 -0.122479
vn -0.817759 0.562379 0.122479
vn -0.475950 -0.687428 -0.548556
vn 0.475950 0.687428 0.548556
vn 0.001214 -0.783743 -0.621084
vn -0.001214 0.783743 0.621084
vn 0.477880 -0.690933 -0.542441
vn -0.477880 0.690933 0.542441
vn 0.799968 -0.480156 -0.359864
vn -0.799968 0.480156 0.359864
usemtl material-0
f 1//5 7//6 12//7
f 12//8 7//9 1//10
f 13//11 2//12 1//5
f 1//10 2//13 13//14
f 14//15 3//16 2//12
f 2//13 3//17 14//18
f 15//19 4//20 3//16
f 3//17 4//21 15//22
f 16//23 5//24 4//20
f 4//21 5//25 16//26
f 5//24 17//27 6//28
f 6//29 17//30 5//25
f 6//28 18//31 8//32
f 8//33 18//34 6//29
f 12//7 7//6 22//39
f 22//40 7//9 12//8
f 13//11 1//5 12//7
f 12//8 1//10 13//14
f 13//11 14//15 2//12
f 2//13 14//18 13//14
f 15//19 3//16 14//15
f 14//18 3//17 15//22
f 16//23 4//20 15//19
f 15//22 4//21 16//26
f 16//23 17//27 5//24
f 5//25 17//30 16//26
f 17//27 18//31 6//28
f 6//29 18//34 17//30
f 18//31 23//41 8//32
f 8//33 23//42 18//34
f 7//6 11//49 22//39
f 22//40 11//50 7//9
f 11//49 21//51 28//52
f 28//53 21//54 11//50
f 12//7 22//39 29//55
f 29//56 22//40 12//8
f 13//11 12//7 29//55
f 29//56 12//8 13//14
f 30//57 14//15 13//11
f 13//14 14//18 30//58
f 31//59 15//19 14//15
f 14//18 15//22 31//60
f 32//61 16//23 15//19
f 15//22 16//26 32//62
f 33//63 17//27 16//23
f 16//26 17//30 33//64
f 17//27 34//65 18//31
f 18//34 34//66 17//30
f 18//31 35//67 23//41
f 23//42 35//68 18//34
f 8//32 23//41 24//69
f 24//70 23//42 8//33
f 26//45 25//43 9//1
f 9//2 25//44 26//46
f 26//45 10//3 27//47
f 27//48 10//4 26//46
f 37//73 27//47 20//37
f 20//38 27//48 37//74
f 11//49 28//52 22//39
f 22//40 28//53 11//50
f 21//51 38//75 28//52
f 28//53 38//76 21//54
f 29//55 22//39 39//77
f 39//78 22//40 29//56
f 13//11 29//55 30//57
f 30//58 29//56 13//14
f 31//59 14//15 30//57
f 30//58 14//18 31//60
f 32//61 15//19 31//59
f 31//60 15//22 32//62
f 32//61 33//63 16//23
f 16//26 33//64 32//62
f 33//63 34//65 17//27
f 17//30 34//66 33//64
f 34//65 35//67 18//31
f 18//34 35//68 34//66
f 35//67 40//79 23//41
f 23//42 40//80 35//68
f 23//41 41//81 24//69
f 24//70 41//82 23//42
f 36//71 37//73 19//35
f 19//36 37//74 36//72
f 21//51 25//83 38//75
f 38//76 25//84 21//54
f 42//85 25//83 26//86
f 26//87 25//84 42//88
f 43//89 26//86 27//90
f 27//91 26//87 43//92
f 44//93 27//90 37//94
f 37//95 27//91 44//96
f 22//39 28//52 45//97
f 45//98 28//53 22//40
f 28//52 38//75 46//99
f 46//100 38//76 28//53
f 30//57 29//55 47//101
f 47//102 29//56 30//58
f 47//101 31//59 30//57
f 30//58 31//60 47//102
f 48//103 32//61 31//59
f 31//60 32//62 48//104
f 49//105 33//63 32//61
f 32//62 33//64 49//106
f 50//107 34//65 33//63
f 33//64 34//66 50//108
f 34//65 51//109 35//67
f 35//68 51//110 34//66
f 23//41 40//79 52//111
f 52//112 40//80 23//42
f 23//41 52//111 41//81
f 41//82 52//112 23//42
f 24//69 41//81 36//113
f 36//114 41//82 24//70
f 53//115 37//94 36//113
f 36//114 37//95 53//116
f 38//75 25//83 42//85
f 42//88 25//84 38//76
f 42//85 26//86 43//89
f 43//92 26//87 42//88
f 44//93 43//89 27//90
f 27//91 43//92 44//96
f 53//115 44//93 37//94
f 37//95 44//96 53//116
f 49//105 32//61 48//103
f 48//104 32//62 49//106
f 49//105 50//107 33//63
f 33//64 50//108 49//106
f 51//109 34//65 50//107
f 50//108 34//66 51//110
f 41//81 52//111 53//115
f 53//116 52//112 41//82
f 41//81 53//115 36//113
f 36//114 53//116 41//82
f 54//117 38//75 42//85
f 42//88 38//76 54//118
f 55//119 42//85 43//89
f 43//92 42//88 55//120
f 56//121 43//89 44//93
f 44//96 43//92 56//122
f 57//123 44//93 53//115
f 53//116 44//96 57//124
f 52//111 57//123 53//115
f 53//116 57//124 52//112
f 57//123 56//121 44//93
f 44//96 56//122 57//124