# SSTK version 0.8.0
# 65
mtllib original-65.mtl
o mesh65/mesh65-geometry#mesh65-geometry
v 0.349062 0.538656 0.594354
v 0.304877 0.536952 0.575352
v 0.289008 0.538656 0.594354
v 0.318052 0.535244 0.556349
v 0.303402 0.538214 0.575352
v 0.338521 0.541596 0.603103
v 0.328982 0.533541 0.537343
v 0.316645 0.536510 0.556349
v 0.287483 0.539930 0.594354
v 0.280973 0.541596 0.603103
v 0.350729 0.539930 0.594354
v 0.336963 0.531838 0.518341
v 0.327625 0.534807 0.537343
v 0.287483 0.598146 0.594354
v 0.303402 0.599862 0.575352
v 0.329678 0.548153 0.610153
v 0.340193 0.542946 0.603103
v 0.368496 0.536952 0.575352
v 0.342371 0.530134 0.499339
v 0.335656 0.533104 0.518341
v 0.316645 0.601565 0.556349
v 0.279440 0.595117 0.603103
v 0.279440 0.542958 0.603103
v 0.273307 0.548153 0.610153
v 0.350729 0.598146 0.594354
v 0.370088 0.538214 0.575352
v 0.386175 0.535244 0.556349
v 0.428637 0.530134 0.499339
v 0.341081 0.531396 0.499339
v 0.327625 0.603269 0.537343
v 0.289008 0.599420 0.594354
v 0.280973 0.596480 0.603103
v 0.271870 0.549839 0.610153
v 0.304877 0.601128 0.575352
v 0.268719 0.557448 0.614860
v 0.331198 0.549772 0.610153
v 0.340193 0.595130 0.603103
v 0.370088 0.599862 0.575352
v 0.335656 0.604976 0.518341
v 0.318052 0.602831 0.556349
v 0.273307 0.589927 0.610153
v 0.267412 0.560523 0.614860
v 0.323951 0.557448 0.614860
v 0.338521 0.596480 0.603103
v 0.368496 0.601128 0.575352
v 0.387712 0.601565 0.556349
v 0.387712 0.536510 0.556349
v 0.402065 0.533541 0.537343
v 0.341081 0.606680 0.499339
v 0.328982 0.604535 0.537343
v 0.349062 0.599420 0.594354
v 0.271865 0.555904 0.610148
v 0.329678 0.589927 0.610153
v 0.271870 0.588236 0.610153
v 0.267412 0.577553 0.614860
v 0.267764 0.569040 0.616572
v 0.267002 0.569040 0.615627
v 0.325300 0.560190 0.614860
v 0.331198 0.588304 0.610153
v 0.386175 0.602831 0.556349
v 0.416547 0.531838 0.518341
v 0.336963 0.606238 0.518341
v 0.271865 0.581652 0.610148
v 0.323951 0.580628 0.614860
v 0.268719 0.580628 0.614860
v 0.321919 0.569040 0.616572
v 0.428637 0.607946 0.499339
v 0.403552 0.603273 0.537343
v 0.402065 0.604535 0.537343
v 0.403552 0.534807 0.537343
v 0.417984 0.533099 0.518341
v 0.342371 0.607946 0.499339
v 0.325300 0.577885 0.614860
v 0.324106 0.569040 0.615832
v 0.416547 0.606238 0.518341
v 0.430045 0.531396 0.499339
v 0.417984 0.604976 0.518341
v 0.430045 0.606680 0.499339
vt -0.701359 1.700443
vt -0.706998 1.700745
vt -0.722335 1.703838
vt -0.711697 1.700893
vt -0.706412 1.701103
vt -0.718487 1.704269
vt -0.715611 1.700916
vt -0.711133 1.701256
vt -0.700754 1.700802
vt -0.698386 1.701016
vt -0.722846 1.704377
vt -0.718495 1.700772
vt -0.715065 1.701282
vt -0.697464 1.721137
vt -0.702927 1.722636
vt -0.715028 1.706059
vt -0.718995 1.704835
vt -0.72922 1.704341
vt -0.72048 1.700483
vt -0.717966 1.701141
vt -0.707457 1.723979
vt -0.694825 1.719624
vt -0.697774 1.701405
vt -0.695338 1.702873
vt -0.719555 1.724711
vt -0.729704 1.704872
vt -0.735491 1.704744
vt -0.750612 1.705359
vt -0.719958 1.700851
vt -0.711196 1.725195
vt -0.697924 1.721668
vt -0.695284 1.720187
vt -0.69474 1.703381
vt -0.703371 1.723161
vt -0.69321 1.705861
vt -0.715467 1.706711
vt -0.716045 1.723062
vt -0.72622 1.726405
vt -0.713904 1.726245
vt -0.707877 1.724501
vt -0.692977 1.717465
vt -0.69258 1.706861
vt -0.712502 1.708982
vt -0.715385 1.72344
vt -0.725592 1.726757
vt -0.73228 1.727996
vt -0.735957 1.705273
vt -0.741138 1.705047
vt -0.715703 1.727147
vt -0.711598 1.725714
vt -0.718901 1.725062
vt -0.694396 1.705499
vt -0.712667 1.720651
vt -0.69257 1.716793
vt -0.691617 1.712809
vt -0.692221 1.709856
vt -0.691955 1.709813
vt -0.712818 1.710017
vt -0.71329 1.72017
vt -0.731671 1.728351
vt -0.746293 1.70527
vt -0.714289 1.72676
vt -0.692941 1.714493
vt -0.711192 1.717079
vt -0.6919 1.713957
vt -0.711137 1.712917
vt -0.746214 1.732538
vt -0.737716 1.729488
vt -0.737125 1.729844
vt -0.741586 1.705573
vt -0.746723 1.705792
vt -0.716082 1.727662
vt -0.711818 1.716197
vt -0.711901 1.71304
vt -0.742088 1.731258
vt -0.751032 1.705879
vt -0.742661 1.730898
vt -0.746777 1.732175
vn -0.0007920001327859614 0.985867165289517 -0.16752702808741615
vn 0.000004999998117476064 0.9960026250001024 -0.08932396636908617
vn 0.000003000000348399061 0.9786911136583417 -0.2053380238465219
vn 0.599345809265119 0.6960447784917889 0.3953558741825598
vn 0.6019260924916694 0.7047831082966283 0.37545405769208734
vn 0 0.9479141118197469 -0.31852603757460746
vn 0.6285700466068993 0.7015020520146252 0.33584902490236673
vn -0.39243180058308413 0.4931367494091726 -0.776410605461616
vn -0.4709687167816344 0.602375637759712 -0.6444626124505909
vn 0.657943881616168 0.7053318730896474 0.2638499525254825
vn 0.7942721613055725 0 0.607562123387374
vn 0.7515650204778924 0 0.6596590179737295
vn 0.6836350380367708 0.7078590393845701 0.17770400988727383
vn 0.8439188259831121 0 0.5364708893791775
vn 0 0.7321931051949232 -0.6810970978539079
vn -0.21268601175983531 0.4652240257231678 -0.8592620475103184
vn -0.3917490988624027 0.45102611382164115 -0.8019402023788579
vn -0.5147998847342595 0.6494078545950002 -0.55968787468366
vn 0.6822408800422788 0.7094638752556872 0.17665896893823305
vn 0.8952237668546668 0 0.44561688394689597
vn 0.7092550080397603 0 0.7049520079909837
vn 0.6508189421337379 0.743047933933382 0.155930986135709
vn 0 0.6013179046237722 -0.7990098732674559
vn -0.6279188516849569 0 -0.7782788161697871
vn -0.6702622748008864 0 -0.7421243042636059
vn -0.0011810002469341864 0.995895208230755 -0.09050601892381475
vn -0.00236699993105166 0.9957849709937799 -0.09168799732922014
vn 0.6912172119642098 0.7102482178001354 0.13329004087386398
vn 0.9430937649032579 0 0.33252691710686916
vn 0.5998000125808054 -0.695423014586498 0.395761008301087
vn 0.6021538087632066 -0.7044937762612662 0.37563188070384107
vn 0.6484089764014799 -0.7402979730572259 0.1775519935380839
vn 0.6838350964053691 -0.7071340996900046 0.1798080253488875
vn 0.7101291503588565 0.6965811474902766 0.10242702168733667
vn 0.6288007087769929 -0.7011856752525911 0.336077844348775
vn 0.7427025942509143 0.6327456543219686 0.2191478802763682
vn 0 0.3028669517263435 -0.9530328480970593
vn -0.4713898893513713 0.1702259600431206 -0.8653407968798766
vn -0.6251691985203225 0.00008500002699163868 -0.7804892478416684
vn -0.717044938780857 0 -0.6970269404899334
vn -0.5376881334087766 0.6539171622470038 -0.5322441320580352
vn 0.9615777027893593 0 0.27453291514559525
vn 0.6576782032706068 -0.7056472180965365 0.26366908149300644
vn 0.7042088677034612 -9.99999812292203e-7 0.7099928666168476
vn 0.7104788813209071 -0.6957038837889373 0.10590498230952718
vn 0.6086709958260387 0.5185569964439956 -0.6005149958819683
vn -0.1833699429949695 0.23946492555647278 -0.9534317036024418
vn 0.9132652854013824 0.38825112133101797 0.1233190385380072
vn -0.3921321475903333 -0.45036716950877664 -0.8021233019024232
vn -0.47113497892259937 -0.6020589730653871 -0.6446369711605543
vn -0.3892878538489099 -0.4892278163282568 -0.7804557069920082
vn -0.5151847371996959 -0.6488266690277611 -0.5600077143350979
vn -0.7509579848817141 0 -0.6603499867058342
vn 0.6819689975101313 -0.7097699974086298 0.17647899935567501
vn 0 -0.9960008295160466 -0.08934398470712569
vn 0 -0.9786890196594159 -0.2053480041249283
vn 0 -0.9479141118197469 -0.31852603757460796
vn 0 -0.7324099287379822 -0.6808639337533043
vn 0 -0.6013720765712077 -0.7989691017307449
vn 0.7491262638370727 -0.6366432242213266 0.18301706445734023
vn 0.8112992135489903 -0.000001000000263348418 0.5846311538857557
vn 0 -0.000026999999989936455 -1
vn 0.23138511149409977 0.09836704739866525 -0.967876466376227
vn -0.44152510976425974 0.07271901807813214 -0.8942972223245529
vn -0.33919379123374804 -0.3519817833630225 -0.8723854630661054
vn -0.5357338147738158 -0.65638277306029 -0.5311788163486743
vn -0.5593051626308638 0.6575351911935081 -0.5048021467828558
vn 0.6912099053025214 -0.7102559026931723 0.13328698173935136
vn -0.18416200932218907 -0.19800101002271217 -0.9627460487337249
vn 0.671390798326991 -0.5705798286086862 -0.4729408579375737
vn 0.8817677347290346 0 0.4716838580986495
vn -0.17382403571727964 0.016871003466645933 -0.9846322023217534
vn 0.7687419201703837 0.15498998390514354 -0.6204949355650169
vn 0.7777743456208294 0.030866013715980002 -0.6277852789699482
vn -0.6222458691289513 0.00022899995183679452 -0.7828218353565375
vn -0.36195692490208986 -0.27835894224678837 -0.8896648154145875
vn -0.7824772376501103 0 -0.6226791891170387
vn -0.5449178907423392 -0.661780867310964 -0.5148888967632421
vn -0.5829771914235071 0.6656602185728971 -0.46586915297049064
vn -0.5962039205665645 0.6720919104558566 -0.43912794149410983
vn 0 -0.302806062326578 -0.9530521961667537
vn -0.2880640739931558 -0.18323904706742883 -0.9399162414302066
vn 0.920169152231877 -0.3911750647156169 -0.016456002722464946
vn 0.7747189977180652 -0.09373699972389753 -0.6253189981581228
vn -0.36588009439671065 -0.02730900704569721 -0.9302612400065007
vn -0.519568207116295 -0.7297122908863629 -0.44448717718662567
vn -0.47874296849344755 -0.7565529502104954 -0.4454579706839667
vn -0.3732979365959109 -0.843197856784121 -0.3868669342912373
vn -0.7890168993573503 -0.08281798943619331 -0.6087639223494272
vn 0.39043693219965653 -0.16597997117716537 -0.9055438427500616
vn -0.624838804662611 0.00020199993685086199 -0.7807537559204085
vn -0.8210480754604795 0 -0.5708590524662308
vn -0.5854262668970667 -0.6626723021136967 -0.4670562129319103
vn -0.8442917286784536 0 -0.5358838277884007
vn -0.5966590526999133 -0.6714850593089204 -0.4394380388133667
vn -0.000003000000348399061 -0.9786911136583417 0.2053380238465219
vn -0.000004999998117476064 -0.9960026250001024 0.08932396636908617
vn 0.0007920001327859614 -0.985867165289517 0.16752702808741615
vn -0.599345809265119 -0.6960447784917889 -0.3953558741825598
vn -0.6019260924916694 -0.7047831082966283 -0.37545405769208734
vn 0 -0.9479141118197469 0.31852603757460746
vn -0.6285700466068993 -0.7015020520146252 -0.33584902490236673
vn 0.4709687167816344 -0.602375637759712 0.6444626124505909
vn 0.39243180058308413 -0.4931367494091726 0.776410605461616
vn -0.657943881616168 -0.7053318730896474 -0.2638499525254825
vn -0.7515650204778924 0 -0.6596590179737295
vn -0.7942721613055725 0 -0.607562123387374
vn -0.6836350380367708 -0.7078590393845701 -0.17770400988727383
vn -0.8439188259831121 0 -0.5364708893791775
vn 0 -0.7321931051949232 0.6810970978539079
vn 0.21268601175983531 -0.4652240257231678 0.8592620475103184
vn 0.3917490988624027 -0.45102611382164115 0.8019402023788579
vn 0.5147998847342595 -0.6494078545950002 0.55968787468366
vn -0.6822408800422788 -0.7094638752556872 -0.17665896893823305
vn -0.8952237668546668 0 -0.44561688394689597
vn -0.7092550080397603 0 -0.7049520079909837
vn -0.6508189421337379 -0.743047933933382 -0.155930986135709
vn 0 -0.6013179046237722 0.7990098732674559
vn 0.6702622748008864 0 0.7421243042636059
vn 0.6279188516849569 0 0.7782788161697871
vn 0.00236699993105166 -0.9957849709937799 0.09168799732922014
vn 0.0011810002469341864 -0.995895208230755 0.09050601892381475
vn -0.6912172119642098 -0.7102482178001354 -0.13329004087386398
vn -0.9430937649032579 0 -0.33252691710686916
vn -0.6021538087632066 0.7044937762612662 -0.37563188070384107
vn -0.5998000125808054 0.695423014586498 -0.395761008301087
vn -0.6838350964053691 0.7071340996900046 -0.1798080253488875
vn -0.6484089764014799 0.7402979730572259 -0.1775519935380839
vn -0.7101291503588565 -0.6965811474902766 -0.10242702168733667
vn -0.6288007087769929 0.7011856752525911 -0.336077844348775
vn -0.7427025942509143 -0.6327456543219686 -0.2191478802763682
vn 0 -0.3028669517263435 0.9530328480970593
vn 0.4713898893513713 -0.1702259600431206 0.8653407968798766
vn 0.6251691985203225 -0.00008500002699163868 0.7804892478416684
vn 0.717044938780857 0 0.6970269404899334
vn 0.5376881334087766 -0.6539171622470038 0.5322441320580352
vn -0.9615777027893593 0 -0.27453291514559525
vn -0.6576782032706068 0.7056472180965365 -0.26366908149300644
vn -0.7042088677034612 9.99999812292203e-7 -0.7099928666168476
vn -0.7104788813209071 0.6957038837889373 -0.10590498230952718
vn -0.6086709958260387 -0.5185569964439956 0.6005149958819683
vn 0.1833699429949695 -0.23946492555647278 0.9534317036024418
vn -0.9132652854013824 -0.38825112133101797 -0.1233190385380072
vn 0.3892878538489099 0.4892278163282568 0.7804557069920082
vn 0.47113497892259937 0.6020589730653871 0.6446369711605543
vn 0.3921321475903333 0.45036716950877664 0.8021233019024232
vn 0.5151847371996959 0.6488266690277611 0.5600077143350979
vn 0.7509579848817141 0 0.6603499867058342
vn -0.6819689975101313 0.7097699974086298 -0.17647899935567501
vn 0 0.9786890196594159 0.2053480041249283
vn 0 0.9960008295160466 0.08934398470712569
vn 0 0.9479141118197469 0.31852603757460796
vn 0 0.6013720765712077 0.7989691017307449
vn 0 0.7324099287379822 0.6808639337533043
vn -0.7491262638370727 0.6366432242213266 -0.18301706445734023
vn -0.8112992135489903 0.000001000000263348418 -0.5846311538857557
vn 0 0.000026999999989936455 1
vn -0.23138511149409977 -0.09836704739866525 0.967876466376227
vn 0.44152510976425974 -0.07271901807813214 0.8942972223245529
vn 0.33919379123374804 0.3519817833630225 0.8723854630661054
vn 0.5357338147738158 0.65638277306029 0.5311788163486743
vn 0.5593051626308638 -0.6575351911935081 0.5048021467828558
vn -0.6912099053025214 0.7102559026931723 -0.13328698173935136
vn 0.18416200932218907 0.19800101002271217 0.9627460487337249
vn -0.671390798326991 0.5705798286086862 0.4729408579375737
vn -0.8817677347290346 0 -0.4716838580986495
vn 0.17382403571727964 -0.016871003466645933 0.9846322023217534
vn -0.7777743456208294 -0.030866013715980002 0.6277852789699482
vn -0.7687419201703837 -0.15498998390514354 0.6204949355650169
vn 0.6222458691289513 -0.00022899995183679452 0.7828218353565375
vn 0.36195692490208986 0.27835894224678837 0.8896648154145875
vn 0.7824772376501103 0 0.6226791891170387
vn 0.5449178907423392 0.661780867310964 0.5148888967632421
vn 0.5829771914235071 -0.6656602185728971 0.46586915297049064
vn 0.5962039205665645 -0.6720919104558566 0.43912794149410983
vn 0 0.302806062326578 0.9530521961667537
vn 0.2880640739931558 0.18323904706742883 0.9399162414302066
vn -0.920169152231877 0.3911750647156169 0.016456002722464946
vn -0.7747189977180652 0.09373699972389753 0.6253189981581228
vn 0.36588009439671065 0.02730900704569721 0.9302612400065007
vn 0.3732979365959109 0.843197856784121 0.3868669342912373
vn 0.47874296849344755 0.7565529502104954 0.4454579706839667
vn 0.519568207116295 0.7297122908863629 0.44448717718662567
vn 0.7890168993573503 0.08281798943619331 0.6087639223494272
vn -0.39043693219965653 0.16597997117716537 0.9055438427500616
vn 0.624838804662611 -0.00020199993685086199 0.7807537559204085
vn 0.8210480754604795 0 0.5708590524662308
vn 0.5854262668970667 0.6626723021136967 0.4670562129319103
vn 0.8442917286784536 0 0.5358838277884007
vn 0.5966590526999133 0.6714850593089204 0.4394380388133667
usemtl material_0_0
f 1//1 2//2 3//3
f 2//2 1//1 4//2
f 5//4 3//5 2//4
f 3//3 6//6 1//1
f 4//2 1//1 7//2
f 8//7 2//4 4//7
f 3//5 5//4 9//5
f 2//4 8//7 5//4
f 6//6 3//3 10//6
f 6//8 11//9 1//9
f 7//2 1//1 12//2
f 13//10 4//7 7//10
f 4//7 13//10 8//7
f 5//11 14//12 9//12
f 9//5 10//13 3//5
f 8//14 15//11 5//11
f 10//15 16//16 6//15
f 11//9 6//8 17//17
f 11//9 18//18 1//9
f 12//2 1//1 19//2
f 20//19 7//10 12//19
f 7//10 20//19 13//10
f 13//20 21//14 8//14
f 14//12 5//11 15//11
f 22//21 9//12 14//12
f 10//13 9//5 23//22
f 15//11 8//14 21//14
f 16//16 10//15 24//23
f 16//16 17//17 6//8
f 17//24 25//25 11//25
f 18//18 11//9 26//18
f 27//26 1//1 18//27
f 19//2 1//1 28//2
f 29//28 12//19 19//28
f 12//19 29//28 20//19
f 20//29 30//20 13//20
f 21//14 13//20 30//20
f 15//30 31//31 14//31
f 9//12 22//21 23//21
f 14//31 32//32 22//33
f 10//13 23//22 33//34
f 21//35 34//30 15//30
f 10//13 33//34 24//36
f 35//37 16//16 24//23
f 36//38 17//17 16//16
f 25//25 17//24 37//39
f 38//40 11//25 25//25
f 11//25 38//40 26//40
f 26//18 27//41 18//18
f 28//2 1//1 27//26
f 29//42 39//29 20//29
f 30//20 20//29 39//29
f 30//43 40//35 21//35
f 31//31 15//30 34//30
f 32//32 14//31 31//31
f 22//21 33//44 23//21
f 32//32 41//45 22//33
f 34//30 21//35 40//35
f 33//46 42//46 24//46
f 16//16 35//37 43//47
f 24//48 42//48 35//48
f 37//39 17//24 36//38
f 43//47 36//38 16//16
f 44//49 25//50 37//51
f 25//50 45//52 38//52
f 46//53 26//40 38//40
f 27//41 26//18 47//41
f 28//2 27//26 48//2
f 39//29 29//42 49//42
f 39//54 50//43 30//43
f 40//35 30//43 50//43
f 34//55 51//56 31//56
f 31//56 44//57 32//57
f 33//44 22//21 52//44
f 32//58 53//59 41//59
f 22//33 41//45 54//60
f 51//56 34//55 40//55
f 33//44 55//61 42//61
f 56//62 43//47 35//37
f 57//63 35//63 42//63
f 58//64 37//39 36//38
f 58//64 36//38 43//47
f 25//50 44//49 51//50
f 44//49 37//51 59//65
f 45//52 25//50 51//50
f 60//66 38//52 45//52
f 26//40 46//53 47//53
f 38//52 60//66 46//66
f 47//41 48//67 27//41
f 28//2 48//2 61//2
f 49//68 62//54 39//54
f 50//43 39//54 62//54
f 51//56 40//55 50//55
f 44//57 31//56 51//56
f 53//59 32//58 44//58
f 52//44 22//21 63//44
f 54//44 33//44 52//44
f 64//69 41//59 53//59
f 41//70 65//70 54//70
f 63//44 22//21 54//44
f 55//61 33//44 54//44
f 55//61 57//71 42//61
f 43//47 56//62 66//72
f 35//73 57//74 56//74
f 37//39 58//64 59//75
f 66//72 58//64 43//47
f 44//49 59//65 53//76
f 51//56 67//55 45//55
f 45//55 67//55 60//55
f 68//77 47//53 46//53
f 69//78 46//66 60//66
f 48//67 47//41 70//67
f 70//67 61//79 48//67
f 71//79 28//80 61//79
f 62//54 49//68 72//68
f 51//56 50//55 62//55
f 54//44 52//44 63//44
f 41//59 64//69 65//81
f 53//76 73//82 64//69
f 54//83 65//83 55//83
f 55//84 56//74 57//74
f 65//81 66//72 56//62
f 74//85 59//75 58//64
f 74//85 58//64 66//72
f 53//76 59//65 73//82
f 51//56 72//55 67//55
f 60//55 67//55 69//55
f 47//53 68//77 70//77
f 75//86 68//87 46//88
f 75//89 46//89 69//89
f 61//79 70//67 71//79
f 28//80 71//79 76//80
f 51//56 62//55 72//55
f 66//72 65//81 64//69
f 64//69 73//82 74//85
f 65//90 56//90 55//90
f 59//75 74//85 73//91
f 64//69 74//85 66//72
f 69//55 67//55 75//55
f 77//92 70//77 68//77
f 77//93 68//87 75//86
f 70//77 77//92 71//92
f 71//92 78//94 76//94
f 67//95 77//93 75//86
f 78//94 71//92 77//92
f 77//93 67//95 78//95
usemtl material_1_0
f 3/1/96 2/2/97 1/3/98
f 4/4/97 1/3/98 2/2/97
f 2/2/99 3/1/100 5/5/99
f 1/3/98 6/6/101 3/1/96
f 7/7/97 1/3/98 4/4/97
f 4/4/102 2/2/99 8/8/102
f 9/9/100 5/5/99 3/1/100
f 5/5/99 8/8/102 2/2/99
f 10/10/101 3/1/96 6/6/101
f 1/3/103 11/11/103 6/6/104
f 12/12/97 1/3/98 7/7/97
f 7/7/105 4/4/102 13/13/105
f 8/8/102 13/13/105 4/4/102
f 9/9/106 14/14/106 5/5/107
f 3/1/100 10/10/108 9/9/100
f 5/5/107 15/15/107 8/8/109
f 6/6/110 16/16/111 10/10/110
f 17/17/112 6/6/104 11/11/103
f 1/3/103 18/18/113 11/11/103
f 19/19/97 1/3/98 12/12/97
f 12/12/114 7/7/105 20/20/114
f 13/13/105 20/20/114 7/7/105
f 8/8/109 21/21/109 13/13/115
f 15/15/107 5/5/107 14/14/106
f 14/14/106 9/9/106 22/22/116
f 23/23/117 9/9/100 10/10/108
f 21/21/109 8/8/109 15/15/107
f 24/24/118 10/10/110 16/16/111
f 6/6/104 17/17/112 16/16/111
f 11/11/119 25/25/119 17/17/120
f 26/26/113 11/11/103 18/18/113
f 18/18/121 1/3/98 27/27/122
f 28/28/97 1/3/98 19/19/97
f 19/19/123 12/12/114 29/29/123
f 20/20/114 29/29/123 12/12/114
f 13/13/115 30/30/115 20/20/124
f 30/30/115 13/13/115 21/21/109
f 14/14/125 31/31/125 15/15/126
f 23/23/116 22/22/116 9/9/106
f 22/22/127 32/32/128 14/14/125
f 33/33/129 23/23/117 10/10/108
f 15/15/126 34/34/126 21/21/130
f 24/24/131 33/33/129 10/10/108
f 24/24/118 16/16/111 35/35/132
f 16/16/111 17/17/112 36/36/133
f 37/37/134 17/17/120 25/25/119
f 25/25/119 11/11/119 38/38/135
f 26/26/135 38/38/135 11/11/119
f 18/18/113 27/27/136 26/26/113
f 27/27/122 1/3/98 28/28/97
f 20/20/124 39/39/124 29/29/137
f 39/39/124 20/20/124 30/30/115
f 21/21/130 40/40/130 30/30/138
f 34/34/126 15/15/126 31/31/125
f 31/31/125 14/14/125 32/32/128
f 23/23/116 33/33/139 22/22/116
f 22/22/127 41/41/140 32/32/128
f 40/40/130 21/21/130 34/34/126
f 24/24/141 42/42/141 33/33/141
f 43/43/142 35/35/132 16/16/111
f 35/35/143 42/42/143 24/24/143
f 36/36/133 17/17/120 37/37/134
f 16/16/111 36/36/133 43/43/142
f 37/37/144 25/25/145 44/44/146
f 38/38/147 45/45/147 25/25/145
f 38/38/135 26/26/135 46/46/148
f 47/47/136 26/26/113 27/27/136
f 48/48/97 27/27/122 28/28/97
f 49/49/137 29/29/137 39/39/124
f 30/30/138 50/50/138 39/39/149
f 50/50/138 30/30/138 40/40/130
f 31/31/150 51/51/150 34/34/151
f 32/32/152 44/44/152 31/31/150
f 52/52/139 22/22/116 33/33/139
f 41/41/153 53/53/153 32/32/154
f 54/54/155 41/41/140 22/22/127
f 40/40/151 34/34/151 51/51/150
f 42/42/156 55/55/156 33/33/139
f 35/35/132 43/43/142 56/56/157
f 42/42/158 35/35/158 57/57/158
f 36/36/133 37/37/134 58/58/159
f 43/43/142 36/36/133 58/58/159
f 51/51/145 44/44/146 25/25/145
f 59/59/160 37/37/144 44/44/146
f 51/51/145 25/25/145 45/45/147
f 45/45/147 38/38/147 60/60/161
f 47/47/148 46/46/148 26/26/135
f 46/46/161 60/60/161 38/38/147
f 27/27/136 48/48/162 47/47/136
f 61/61/97 48/48/97 28/28/97
f 39/39/149 62/62/149 49/49/163
f 62/62/149 39/39/149 50/50/138
f 50/50/151 40/40/151 51/51/150
f 51/51/150 31/31/150 44/44/152
f 44/44/154 32/32/154 53/53/153
f 63/63/139 22/22/116 52/52/139
f 52/52/139 33/33/139 54/54/139
f 53/53/153 41/41/153 64/64/164
f 54/54/165 65/65/165 41/41/165
f 54/54/139 22/22/116 63/63/139
f 54/54/139 33/33/139 55/55/156
f 42/42/156 57/57/166 55/55/156
f 66/66/167 56/56/157 43/43/142
f 56/56/168 57/57/168 35/35/169
f 59/59/170 58/58/159 37/37/134
f 43/43/142 58/58/159 66/66/167
f 53/53/171 59/59/160 44/44/146
f 45/45/151 67/67/151 51/51/150
f 60/60/151 67/67/151 45/45/151
f 46/46/148 47/47/148 68/68/172
f 60/60/161 46/46/161 69/69/173
f 70/70/162 47/47/136 48/48/162
f 48/48/162 61/61/174 70/70/162
f 61/61/174 28/28/175 71/71/174
f 72/72/163 49/49/163 62/62/149
f 62/62/151 50/50/151 51/51/150
f 63/63/139 52/52/139 54/54/139
f 65/65/176 64/64/164 41/41/153
f 64/64/164 73/73/177 53/53/171
f 55/55/178 65/65/178 54/54/178
f 57/57/168 56/56/168 55/55/179
f 56/56/157 66/66/167 65/65/176
f 58/58/159 59/59/170 74/74/180
f 66/66/167 58/58/159 74/74/180
f 73/73/177 59/59/160 53/53/171
f 67/67/151 72/72/151 51/51/150
f 69/69/151 67/67/151 60/60/151
f 70/70/172 68/68/172 47/47/148
f 46/46/181 68/68/182 75/75/183
f 69/69/184 46/46/184 75/75/184
f 71/71/174 70/70/162 61/61/174
f 76/76/175 71/71/174 28/28/175
f 72/72/151 62/62/151 51/51/150
f 64/64/164 65/65/176 66/66/167
f 74/74/180 73/73/177 64/64/164
f 55/55/185 56/56/185 65/65/185
f 73/73/186 74/74/180 59/59/170
f 66/66/167 74/74/180 64/64/164
f 75/75/151 67/67/151 69/69/151
f 68/68/172 70/70/172 77/77/187
f 75/75/183 68/68/182 77/77/188
f 71/71/187 77/77/187 70/70/172
f 76/76/189 78/78/189 71/71/187
f 75/75/183 77/77/188 67/67/190
f 77/77/187 71/71/187 78/78/189
f 78/78/190 67/67/190 77/77/188
