# SSTK version 0.8.0
# 79
mtllib original-79.mtl
o mesh79/mesh79-geometry#mesh79-geometry
v 0.002079 0.671537 0.448051
v -0.052621 0.671537 0.443560
v -0.052621 0.671537 0.448051
v 0.002079 0.671537 0.443560
v -0.052621 0.667331 0.448051
v 0.002079 0.671390 0.449727
v 0.002079 0.667331 0.443560
v -0.052621 0.667327 0.448940
v -0.052621 0.667331 0.443560
v -0.052621 0.671390 0.449727
v 0.002079 0.667327 0.448940
v 0.002079 0.667331 0.448051
v -0.052621 0.660235 0.448365
v 0.002079 0.660235 0.448365
v 0.002079 0.661615 0.447806
v -0.052621 0.657821 0.447724
v -0.052621 0.661615 0.447806
v 0.002079 0.657821 0.447724
v 0.002079 0.659415 0.447704
v -0.052621 0.659415 0.447704
vn 0 1 0
vn 0 -1 0
vn -1 0 0
vn 1 0 0
vn 0 0.9961677705860753 0.08746297985758439
vn 0 -0.9961677705860753 -0.08746297985758439
vn 0 0 -1
vn 0 0 1
vn 0 -0.9999890018894794 -0.004690000008861978
vn 0 0.9999890018894794 0.004690000008861978
vn 0 -0.12118696328829365 0.992629699298264
vn 0 0.12118696328829365 -0.992629699298264
vn 0 0.1946549562601605 -0.9808717795937218
vn 0 -0.1946549562601605 0.9808717795937218
vn 0 -0.2568179464889048 0.9664597986265242
vn 0 0.2568179464889048 -0.9664597986265242
vn 0 0.04646898758439454 -0.9989197331081618
vn 0 -0.04646898758439454 0.9989197331081618
vn 0 -0.012343997653949182 -0.9999238099584983
vn 0 0.012343997653949182 0.9999238099584983
usemtl material_0_0
f 1//1 2//1 3//1
f 2//1 1//1 4//1
f 3//2 2//2 1//2
f 4//2 1//2 2//2
f 5//3 3//3 2//3
f 2//4 3//4 5//4
f 3//5 6//5 1//5
f 1//6 6//6 3//6
f 1//4 7//4 4//4
f 4//3 7//3 1//3
f 7//7 2//7 4//7
f 4//8 2//8 7//8
f 8//3 3//3 5//3
f 5//4 3//4 8//4
f 5//3 2//3 9//3
f 9//4 2//4 5//4
f 6//5 3//5 10//5
f 10//6 3//6 6//6
f 11//4 1//4 6//4
f 6//3 1//3 11//3
f 1//4 12//4 7//4
f 7//3 12//3 1//3
f 2//7 7//7 9//7
f 9//8 7//8 2//8
f 3//3 8//3 10//3
f 10//4 8//4 3//4
f 12//9 8//9 5//9
f 5//10 8//10 12//10
f 7//2 5//2 9//2
f 9//1 5//1 7//1
f 13//11 6//11 10//11
f 10//12 6//12 13//12
f 1//4 11//4 12//4
f 12//3 11//3 1//3
f 5//2 7//2 12//2
f 12//1 7//1 5//1
f 8//9 12//9 11//9
f 11//10 12//10 8//10
f 6//11 13//11 14//11
f 14//12 13//12 6//12
f 15//13 8//13 11//13
f 11//14 8//14 15//14
f 16//15 14//15 13//15
f 13//16 14//16 16//16
f 8//13 15//13 17//13
f 17//14 15//14 8//14
f 15//4 11//4 14//4
f 14//3 11//3 15//3
f 14//15 16//15 18//15
f 18//16 16//16 14//16
f 19//17 17//17 15//17
f 15//18 17//18 19//18
f 20//19 18//19 16//19
f 16//20 18//20 20//20
f 17//17 19//17 20//17
f 20//18 19//18 17//18
f 18//19 20//19 19//19
f 19//20 20//20 18//20
