mtllib new-1.mtl
v 0.664081 0.601148 -0.462204
v -0.658272 0.601148 -0.462204
v -0.658272 0.601148 -0.417558
v 0.664081 0.279692 0.526516
v -0.658272 0.279692 0.526516
v 0.664081 0.601148 -0.417558
v -0.658272 0.582099 -0.361613
v -0.167196 0.279692 0.526516
v -0.236809 0.279692 0.526516
v 0.664081 0.581901 -0.361033
v -0.178639 0.279692 0.526516
v -0.167196 0.293560 0.485789
v -0.221662 0.279692 0.526516
v -0.236809 0.293560 0.485789
v -0.178639 0.300440 0.533581
v -0.167196 0.312735 0.537767
v -0.236809 0.312735 0.537767
v -0.178639 0.286626 0.506153
v -0.167196 0.326602 0.497040
v -0.221662 0.300440 0.533581
v -0.236809 0.326602 0.497040
v -0.221662 0.286626 0.506153
v -0.178639 0.307374 0.513217
v -0.221662 0.307374 0.513217
vn 0.000000 -1.000000 0.000000
vn 1.000000 0.000000 0.000000
vn -1.000000 0.000000 0.000000
vn 0.000000 1.000000 0.000000
vn 0.000000 0.946629 0.322326
vn 0.000000 -0.946629 -0.322326
vn 0.000000 0.322326 -0.946629
vn 0.000000 -0.322326 0.946629
vt 0.000000 15.071113
vt 16.968750 15.829485
vt 0.000000 15.829485
vt 16.968750 15.063250
vt 6.301595 8.904227
vt 6.154766 9.185477
vt 6.154766 8.904227
vt 0.522618 9.584201
vt -0.144375 9.830261
vt 0.000000 9.406250
vt 5.602683 8.904227
vt 5.408305 9.352144
vt 5.408305 8.904227
vt 0.144375 9.830261
vt -0.522618 9.584201
vt 6.301595 9.352144
vt 0.090654 9.672489
vt -0.261309 9.495225
vt 0.378243 10.008212
vt 5.602683 9.185477
vt -0.378243 10.008212
vt -0.170655 9.761465
vt -5.408305 8.904227
vt -6.301595 9.352144
vt -6.301595 8.904227
vt 6.301595 3.583961
vt 5.408305 3.031878
vt 6.301595 3.031878
vt 0.261309 9.495225
vt -0.090654 9.672489
vt 5.408305 3.583961
vt -5.408305 9.352144
vt 0.170655 9.761465
usemtl material-0
f 3//4 1//4 2//4
f 1//4 3//4 6//4
f 2//3 7//3 3//3
f 10//2 1//2 6//2
f 2//3 5//3 7//3
f 4//5 12//5 8//5
f 14//5 5//5 9//5
f 5//5 10//5 7//5
f 10//5 12//5 4//5
f 10//5 5//5 14//5
f 12//5 10//5 14//5
usemtl material-1
f 2//1 1//1 3//1
f 6//1 3//1 1//1
f 3//2 7//2 2//2
f 3//6 6//6 7//6
f 6//3 1//3 10//3
f 7//2 5//2 2//2
f 8//6 12//6 4//6
f 9//6 5//6 14//6
f 10//6 7//6 6//6
f 7//6 10//6 5//6
f 11//7 15//7 8//7
f 4//6 12//6 10//6
f 8//3 16//3 12//3
f 9//7 17//7 13//7
f 14//6 5//6 10//6
f 9//2 14//2 17//2
f 8//7 15//7 16//7
f 11//2 18//2 15//2
f 14//6 10//6 12//6
f 19//3 12//3 16//3
f 20//7 13//7 17//7
f 21//2 17//2 14//2
f 15//7 20//7 16//7
f 23//2 15//2 18//2
f 12//8 19//8 14//8
f 16//6 17//6 19//6
f 13//3 20//3 22//3
f 16//7 20//7 17//7
f 21//6 19//6 17//6
f 21//8 14//8 19//8
f 22//7 24//7 18//7
f 20//6 23//6 15//6
f 15//5 23//5 20//5
f 23//7 18//7 24//7
f 24//3 22//3 20//3
f 23//6 20//6 24//6
f 24//5 20//5 23//5
usemtl material-2
f 7/1/5 6/2/5 3/3/5
f 6/2/5 7/1/5 10/4/5
f 8/5/8 15/6/8 11/7/8
f 12/8/2 16/9/2 8/10/2
f 13/11/8 17/12/8 9/13/8
f 17/14/3 14/15/3 9/10/3
f 16/16/8 15/6/8 8/5/8
f 15/17/3 18/18/3 11/10/3
f 16/9/2 12/8/2 19/19/2
f 17/12/8 13/11/8 20/20/8
f 14/15/3 17/14/3 21/21/3
f 16/16/8 20/20/8 15/6/8
f 18/18/3 15/17/3 23/22/3
f 14/23/7 19/24/7 12/25/7
f 19/26/5 17/27/5 16/28/5
f 22/29/2 20/30/2 13/10/2
f 17/12/8 20/20/8 16/16/8
f 17/27/5 19/26/5 21/31/5
f 19/24/7 14/23/7 21/32/7
f 18/7/8 24/20/8 22/11/8
f 24/20/8 18/7/8 23/6/8
f 20/30/2 22/29/2 24/33/2