# SSTK version 0.8.0
# 162
mtllib original-162.mtl
o Y1/Y/mesh297/mesh297-geometry#mesh297-geometry
v -0.026820 -0.133686 0.084246
v -0.025897 -0.133686 0.085990
v -0.022782 -0.133686 0.077808
v -0.026057 -0.133686 0.092543
v -0.020694 -0.133686 0.077859
v -0.022782 -0.155937 0.077808
v -0.028026 -0.133686 0.092494
v -0.026057 -0.155937 0.092543
v -0.025897 -0.155937 0.085990
v -0.026820 -0.155937 0.084246
v -0.027871 -0.133686 0.086151
v -0.020694 -0.155937 0.077859
v -0.030478 -0.133686 0.077620
v -0.027871 -0.155937 0.086151
v -0.028026 -0.155937 0.092494
v -0.030478 -0.155937 0.077620
v -0.032666 -0.133686 0.077567
v -0.032666 -0.155937 0.077567
vn 0 1 0
vn 0 -1 0
vn -0.8471806798965857 0 -0.5313048989139463
vn 0.8471806798965857 0 0.5313048989139463
vn 0.9997014899144361 0 0.024432172700284513
vn -0.9997014899144361 0 -0.024432172700284513
vn 0.02443217270028441 0 -0.9997014899144362
vn -0.02443217270028441 0 0.9997014899144362
vn 0.8422937393204706 0 0.5390187906757415
vn -0.8422937393204706 0 -0.5390187906757415
vn 0.8754207106536689 0 -0.48336174792656605
vn -0.8754207106536689 0 0.48336174792656605
vn -0.8730407744309605 0 0.4876472148807873
vn 0.8730407744309605 0 -0.4876472148807873
usemtl material_0_0
f 1//1 2//1 3//1
f 2//1 1//1 4//1
f 3//2 2//2 1//2
f 4//2 1//2 2//2
f 5//1 3//1 2//1
f 2//2 3//2 5//2
f 3//3 6//3 1//3
f 1//4 6//4 3//4
f 4//1 1//1 7//1
f 7//2 1//2 4//2
f 4//5 8//5 2//5
f 2//6 8//6 4//6
f 3//7 5//7 6//7
f 6//8 5//8 3//8
f 2//9 9//9 5//9
f 5//10 9//10 2//10
f 10//3 1//3 6//3
f 6//4 1//4 10//4
f 7//1 1//1 11//1
f 11//2 1//2 7//2
f 4//8 7//8 8//8
f 8//7 7//7 4//7
f 9//5 2//5 8//5
f 8//6 2//6 9//6
f 12//7 6//7 5//7
f 5//8 6//8 12//8
f 12//9 5//9 9//9
f 9//10 5//10 12//10
f 1//11 10//11 13//11
f 13//12 10//12 1//12
f 6//2 9//2 10//2
f 10//1 9//1 6//1
f 1//1 13//1 11//1
f 11//2 13//2 1//2
f 11//6 14//6 7//6
f 7//5 14//5 11//5
f 15//8 8//8 7//8
f 7//7 8//7 15//7
f 9//2 8//2 10//2
f 10//1 8//1 9//1
f 12//2 9//2 6//2
f 6//1 9//1 12//1
f 16//11 13//11 10//11
f 10//12 13//12 16//12
f 17//1 11//1 13//1
f 13//2 11//2 17//2
f 14//13 11//13 18//13
f 18//14 11//14 14//14
f 15//6 7//6 14//6
f 14//5 7//5 15//5
f 15//2 14//2 8//2
f 8//1 14//1 15//1
f 10//2 8//2 14//2
f 14//1 8//1 10//1
f 16//7 18//7 13//7
f 13//8 18//8 16//8
f 10//2 14//2 16//2
f 16//1 14//1 10//1
f 17//13 18//13 11//13
f 11//14 18//14 17//14
f 17//7 13//7 18//7
f 18//8 13//8 17//8
f 18//2 16//2 14//2
f 14//1 16//1 18//1
