# SSTK version 0.8.0
# 153
mtllib original-153.mtl
o __1_14/__14/mesh279/mesh279-geometry#mesh279-geometry
v 0.144283 -0.133686 0.193631
v 0.144253 -0.133686 0.194871
v 0.155513 -0.133686 0.188600
v 0.144283 -0.156815 0.193631
v 0.146759 -0.133686 0.194312
v 0.144253 -0.156815 0.194871
v 0.155468 -0.133686 0.190440
v 0.155224 -0.133686 0.200445
v 0.155513 -0.156815 0.188600
v 0.155224 -0.156815 0.200445
v 0.155468 -0.156815 0.190440
v 0.155269 -0.133686 0.198605
v 0.146759 -0.156815 0.194312
v 0.155269 -0.156815 0.198605
vn 0 1 0
vn 0 -1 0
vn -0.9997014897945052 0 -0.024432177607545697
vn 0.9997014897945052 0 0.024432177607545697
vn -0.4088350924462215 0 -0.9126082769647061
vn 0.4088350924462215 0 0.9126082769647061
vn -0.45292770276686756 0 0.8915472483645094
vn 0.45292770276686756 0 -0.8915472483645094
vn 0.4062552199696454 0 0.9137596490584465
vn -0.4062552199696454 0 -0.9137596490584465
vn 0.45040715456404185 0 -0.8928232720519348
vn -0.45040715456404185 0 0.8928232720519348
usemtl material_0_0
f 1//1 2//1 3//1
f 3//2 2//2 1//2
f 1//3 4//3 2//3
f 2//4 4//4 1//4
f 5//1 3//1 2//1
f 2//2 3//2 5//2
f 1//5 3//5 4//5
f 4//6 3//6 1//6
f 6//3 2//3 4//3
f 4//4 2//4 6//4
f 7//1 3//1 5//1
f 5//2 3//2 7//2
f 2//1 8//1 5//1
f 5//2 8//2 2//2
f 9//5 4//5 3//5
f 3//6 4//6 9//6
f 6//7 10//7 2//7
f 2//8 10//8 6//8
f 6//2 4//2 10//2
f 10//1 4//1 6//1
f 7//4 11//4 3//4
f 3//3 11//3 7//3
f 7//9 5//9 11//9
f 11//10 5//10 7//10
f 8//7 2//7 10//7
f 10//8 2//8 8//8
f 12//1 5//1 8//1
f 8//2 5//2 12//2
f 4//2 9//2 13//2
f 13//1 9//1 4//1
f 9//4 3//4 11//4
f 11//3 3//3 9//3
f 13//2 10//2 4//2
f 4//1 10//1 13//1
f 13//9 11//9 5//9
f 5//10 11//10 13//10
f 8//4 10//4 12//4
f 12//3 10//3 8//3
f 5//11 12//11 13//11
f 13//12 12//12 5//12
f 11//2 13//2 9//2
f 9//1 13//1 11//1
f 14//2 10//2 13//2
f 13//1 10//1 14//1
f 14//4 12//4 10//4
f 10//3 12//3 14//3
f 14//11 13//11 12//11
f 12//12 13//12 14//12
