# SSTK version 0.8.0
# 50
mtllib original-50.mtl
o mesh93/mesh93-geometry#mesh93-geometry
v 0.412773 -0.133686 0.216056
v 0.412868 -0.133686 0.218559
v 0.413457 -0.133686 0.215790
v 0.412246 -0.133686 0.221209
v 0.413036 -0.133686 0.217906
v 0.412773 -0.154985 0.216056
v 0.412177 -0.133686 0.216437
v 0.412944 -0.133686 0.219143
v 0.413504 -0.133686 0.217451
v 0.412868 -0.154985 0.218559
v 0.413457 -0.154985 0.215790
v 0.412177 -0.154985 0.216437
v 0.411690 -0.133686 0.216911
v 0.412944 -0.154985 0.219143
v 0.413286 -0.133686 0.221683
v 0.414226 -0.133686 0.215639
v 0.413036 -0.154985 0.217906
v 0.412246 -0.154985 0.221209
v 0.411543 -0.133686 0.220550
v 0.413205 -0.154985 0.219562
v 0.413205 -0.133686 0.219562
v 0.413286 -0.154985 0.221683
v 0.414189 -0.133686 0.217189
v 0.413504 -0.154985 0.217451
v 0.414226 -0.154985 0.215639
v 0.411690 -0.154985 0.216911
v 0.411337 -0.133686 0.217455
v 0.413669 -0.133686 0.219873
v 0.414299 -0.154985 0.221956
v 0.415083 -0.133686 0.215604
v 0.414189 -0.154985 0.217189
v 0.411543 -0.154985 0.220550
v 0.411149 -0.133686 0.219725
v 0.413669 -0.154985 0.219873
v 0.414299 -0.133686 0.221956
v 0.415007 -0.133686 0.217116
v 0.415007 -0.154985 0.217116
v 0.415083 -0.154985 0.215604
v 0.411337 -0.154985 0.217455
v 0.411119 -0.133686 0.218069
v 0.411149 -0.154985 0.219725
v 0.414353 -0.133686 0.220128
v 0.414353 -0.154985 0.220128
v 0.415189 -0.154985 0.222177
v 0.415859 -0.133686 0.217215
v 0.416857 -0.133686 0.215866
v 0.411034 -0.133686 0.218752
v 0.411034 -0.154985 0.218752
v 0.415189 -0.133686 0.222177
v 0.415859 -0.154985 0.217215
v 0.416857 -0.154985 0.215866
v 0.411119 -0.154985 0.218069
v 0.415238 -0.133686 0.220355
v 0.415238 -0.154985 0.220355
v 0.415933 -0.154985 0.222441
v 0.416699 -0.133686 0.217472
v 0.416699 -0.154985 0.217472
v 0.418347 -0.133686 0.216455
v 0.415933 -0.133686 0.222441
v 0.417493 -0.133686 0.217862
v 0.418347 -0.154985 0.216455
v 0.416265 -0.133686 0.220613
v 0.416265 -0.154985 0.220613
v 0.416408 -0.154985 0.222750
v 0.417493 -0.154985 0.217862
v 0.418205 -0.133686 0.218366
v 0.418301 -0.154985 0.218368
v 0.416408 -0.133686 0.222750
v 0.418205 -0.154985 0.218366
v 0.418301 -0.133686 0.218368
v 0.417289 -0.133686 0.221031
v 0.417289 -0.154985 0.221031
v 0.416659 -0.133686 0.223159
v 0.416659 -0.154985 0.223159
v 0.416732 -0.133686 0.223720
v 0.416732 -0.154985 0.223720
v 0.418016 -0.133686 0.221637
v 0.416824 -0.133686 0.226246
v 0.416824 -0.154985 0.226246
v 0.417442 -0.133686 0.225842
v 0.418016 -0.154985 0.221637
v 0.416566 -0.133686 0.224459
v 0.416566 -0.154985 0.224459
v 0.417442 -0.154985 0.225842
v 0.417914 -0.133686 0.225371
v 0.418442 -0.154985 0.222457
v 0.416134 -0.133686 0.226534
v 0.416134 -0.154985 0.226534
v 0.418262 -0.133686 0.224810
v 0.417914 -0.154985 0.225371
v 0.418442 -0.133686 0.222457
v 0.418262 -0.154985 0.224810
v 0.416074 -0.133686 0.224913
v 0.416074 -0.154985 0.224913
v 0.418565 -0.154985 0.223517
v 0.418481 -0.154985 0.224183
v 0.415320 -0.133686 0.226700
v 0.415320 -0.154985 0.226700
v 0.418481 -0.133686 0.224183
v 0.418565 -0.133686 0.223517
v 0.415344 -0.154985 0.225148
v 0.415344 -0.133686 0.225148
v 0.414428 -0.133686 0.225225
v 0.414325 -0.133686 0.226737
v 0.414428 -0.154985 0.225225
v 0.414325 -0.154985 0.226737
v 0.413295 -0.154985 0.225036
v 0.413295 -0.133686 0.226641
v 0.413295 -0.154985 0.226641
v 0.413295 -0.133686 0.225036
v 0.412338 -0.154985 0.226403
v 0.412300 -0.154985 0.224640
v 0.412338 -0.133686 0.226403
v 0.412300 -0.133686 0.224640
v 0.410816 -0.133686 0.225756
v 0.411488 -0.154985 0.224163
v 0.411488 -0.133686 0.224163
v 0.410960 -0.133686 0.223750
v 0.410816 -0.154985 0.225756
v 0.410960 -0.154985 0.223750
v 0.410865 -0.133686 0.223748
v 0.410865 -0.154985 0.223748
vn 0 1 0
vn 0 -1 0
vn -0.3628210261829237 0 -0.9318588428295189
vn 0.3628210261829237 0 0.9318588428295189
vn 0.9683430448656204 0 0.24962321098082835
vn -0.9683430448656204 0 -0.24962321098082835
vn -0.5383366717265385 0 -0.8427298664900831
vn 0.5383366717265385 0 0.8427298664900831
vn 0.991594198011298 0 -0.12938680949127254
vn -0.991594198011298 0 0.12938680949127254
vn 0.6970483129394044 0 0.7170241623741351
vn -0.6970483129394044 0 -0.7170241623741351
vn -0.19228827214085095 0 -0.9813384841109035
vn 0.19228827214085095 0 0.9813384841109035
vn -0.6976524657044137 0 -0.7164363454603291
vn 0.6976524657044137 0 0.7164363454603291
vn 0.8489039313709841 0 -0.5285471741508867
vn -0.8489039313709841 0 0.5285471741508867
vn -0.41464278688175293 0 0.9099842632083993
vn 0.41464278688175293 0 -0.9099842632083993
vn -0.6838495710235543 0 0.7296230288381124
vn 0.6838495710235543 0 -0.7296230288381124
vn -0.2597908320776046 0 0.9656649126733485
vn 0.2597908320776046 0 -0.9656649126733485
vn 0.3570548649900437 0 0.9340834135059576
vn -0.3570548649900437 0 -0.9340834135059576
vn -0.04156733137463092 0 -0.9991357049782535
vn 0.04156733137463092 0 0.9991357049782535
vn -0.8390576035859064 0 -0.5440425882820902
vn 0.8390576035859064 0 0.5440425882820902
vn 0.5558331942647905 0 -0.8312938470561416
vn -0.5558331942647905 0 0.8312938470561416
vn 0.08866549068160495 0 0.9960614593297896
vn -0.08866549068160495 0 -0.9960614593297896
vn -0.90234541975879 0 0.43101362326535947
vn 0.90234541975879 0 -0.43101362326535947
vn -0.2418093272499172 0 0.9703237857823245
vn 0.2418093272499172 0 -0.9703237857823245
vn 0.14628799845005724 0 -0.9892420439455027
vn -0.14628799845005724 0 0.9892420439455027
vn -0.9420383234928258 0 -0.335505286203997
vn 0.9420383234928258 0 0.335505286203997
vn -0.9931694947656893 0 0.11668056679184209
vn 0.9931694947656893 0 -0.11668056679184209
vn 0.35043345764489214 0 -0.9365876316517561
vn -0.35043345764489214 0 0.9365876316517561
vn -0.11596497306963287 0 0.9932533035540126
vn 0.11596497306963287 0 -0.9932533035540126
vn -0.9924362554969117 0 -0.12276106375910961
vn 0.9924362554969117 0 0.12276106375910961
vn 0.24784181263083752 0 -0.9688005139923601
vn -0.24784181263083752 0 0.9688005139923601
vn -0.33347907508190633 0 0.9427575014193821
vn 0.33347907508190633 0 -0.9427575014193821
vn -0.2917294720102832 0 0.9565008704442465
vn 0.2917294720102832 0 -0.9565008704442465
vn 0.36743684762539125 0 -0.9300484734717406
vn -0.36743684762539125 0 0.9300484734717406
vn 0.24402739840287102 0 -0.9697683377120159
vn -0.24402739840287102 0 0.9697683377120159
vn -0.5459025371668168 0 0.8378486855720623
vn 0.5459025371668168 0 -0.8378486855720623
vn -0.44162240376459694 0 0.8972010100825676
vn 0.44162240376459694 0 -0.8972010100825676
vn 0.9997014896126126 0 0.02443218505011722
vn -0.9997014896126126 0 -0.02443218505011722
vn -0.576719680574765 0 0.8169421093552109
vn 0.576719680574765 0 -0.8169421093552109
vn 0.37774579050766377 0 -0.9259093464015471
vn -0.37774579050766377 0 0.9259093464015471
vn -0.8522717832480894 0 0.523099232917734
vn 0.8522717832480894 0 -0.523099232917734
vn -0.024432185050117537 0 0.9997014896126127
vn 0.024432185050117537 0 -0.9997014896126127
vn 0.6402735839627509 0 -0.7681469505761865
vn -0.6402735839627509 0 0.7681469505761865
vn -0.9916067651697785 0 0.1292904608605285
vn 0.9916067651697785 0 -0.1292904608605285
vn -0.9757669498610528 0 -0.21881238438182038
vn 0.9757669498610528 0 0.21881238438182038
vn 0.8872087999727993 0 -0.4613681233579379
vn -0.8872087999727993 0 0.4613681233579379
vn 0.5469913035602427 0 0.8371382883547175
vn -0.5469913035602427 0 -0.8371382883547175
vn 0.7058957401444609 0 0.708315751657341
vn -0.7058957401444609 0 -0.708315751657341
vn 0.3854832234732614 0 0.9227148445867028
vn -0.3854832234732614 0 -0.9227148445867028
vn -0.6786254630737408 0 -0.7344845000869322
vn 0.6786254630737408 0 0.7344845000869322
vn 0.8499150861373813 0 0.5269196773286111
vn -0.8499150861373813 0 -0.5269196773286111
vn 0.993347330348224 0 -0.11515676832065311
vn -0.993347330348224 0 0.11515676832065311
vn 0.19940899095478287 0 0.9799163506781564
vn -0.19940899095478287 0 -0.9799163506781564
vn 0.944087346104536 0 0.32969543964891873
vn -0.944087346104536 0 -0.32969543964891873
vn -0.30607481430753253 0 -0.9520074621801078
vn 0.30607481430753253 0 0.9520074621801078
vn 0.9921112114473024 0 0.12536085561516347
vn -0.9921112114473024 0 -0.12536085561516347
vn 0.037751469942538474 0 0.9992871591875769
vn -0.037751469942538474 0 -0.9992871591875769
vn -0.08440716318917353 0 -0.9964313477617794
vn 0.08440716318917353 0 0.9964313477617794
vn 0.1649876397901182 0 -0.986295634541939
vn -0.1649876397901182 0 0.986295634541939
vn -0.0933922774249048 0 0.9956293901434357
vn 0.0933922774249048 0 -0.9956293901434357
vn 0.36954802785551755 0 -0.9292116309582538
vn -0.36954802785551755 0 0.9292116309582538
vn -0.24097021248179654 0 0.9705325119214079
vn 0.24097021248179654 0 -0.9705325119214079
vn -0.3910147320554307 0 0.9203844193138102
vn 0.3910147320554307 0 -0.9203844193138102
vn 0.5064323126210761 0 -0.8622797183821898
vn -0.5064323126210761 0 0.8622797183821898
vn 0.6160149125559864 0 -0.7877344904906984
vn -0.6160149125559864 0 0.7877344904906984
usemtl material_0_0
f 1//1 2//1 3//1
f 2//1 1//1 4//1
f 3//2 2//2 1//2
f 4//2 1//2 2//2
f 5//1 3//1 2//1
f 2//2 3//2 5//2
f 1//3 3//3 6//3
f 6//4 3//4 1//4
f 1//1 7//1 4//1
f 4//2 7//2 1//2
f 8//1 2//1 4//1
f 4//2 2//2 8//2
f 9//1 3//1 5//1
f 5//2 3//2 9//2
f 2//5 10//5 5//5
f 5//6 10//6 2//6
f 11//3 6//3 3//3
f 3//4 6//4 11//4
f 6//7 12//7 1//7
f 1//8 12//8 6//8
f 7//7 1//7 12//7
f 12//8 1//8 7//8
f 7//1 13//1 4//1
f 4//2 13//2 7//2
f 8//9 14//9 2//9
f 2//10 14//10 8//10
f 15//1 8//1 4//1
f 4//2 8//2 15//2
f 16//1 3//1 9//1
f 9//2 3//2 16//2
f 5//11 17//11 9//11
f 9//12 17//12 5//12
f 10//9 2//9 14//9
f 14//10 2//10 10//10
f 17//5 5//5 10//5
f 10//6 5//6 17//6
f 6//2 11//2 10//2
f 10//1 11//1 6//1
f 3//13 16//13 11//13
f 11//14 16//14 3//14
f 6//2 18//2 12//2
f 12//1 18//1 6//1
f 7//15 12//15 13//15
f 13//16 12//16 7//16
f 4//1 13//1 19//1
f 19//2 13//2 4//2
f 14//17 8//17 20//17
f 20//18 8//18 14//18
f 21//1 8//1 15//1
f 15//2 8//2 21//2
f 15//19 4//19 22//19
f 22//20 4//20 15//20
f 23//1 16//1 9//1
f 9//2 16//2 23//2
f 24//11 9//11 17//11
f 17//12 9//12 24//12
f 14//2 18//2 10//2
f 10//1 18//1 14//1
f 17//2 10//2 11//2
f 11//1 10//1 17//1
f 10//2 18//2 6//2
f 6//1 18//1 10//1
f 25//13 11//13 16//13
f 16//14 11//14 25//14
f 12//2 18//2 26//2
f 26//1 18//1 12//1
f 26//15 13//15 12//15
f 12//16 13//16 26//16
f 13//1 27//1 19//1
f 19//2 27//2 13//2
f 4//21 19//21 18//21
f 18//22 19//22 4//22
f 21//17 20//17 8//17
f 8//18 20//18 21//18
f 20//2 22//2 14//2
f 14//1 22//1 20//1
f 28//1 21//1 15//1
f 15//2 21//2 28//2
f 18//19 22//19 4//19
f 4//20 22//20 18//20
f 22//23 29//23 15//23
f 15//24 29//24 22//24
f 30//1 16//1 23//1
f 23//2 16//2 30//2
f 23//25 9//25 31//25
f 31//26 9//26 23//26
f 24//25 31//25 9//25
f 9//26 31//26 24//26
f 24//2 17//2 11//2
f 11//1 17//1 24//1
f 22//2 18//2 14//2
f 14//1 18//1 22//1
f 25//2 24//2 11//2
f 11//1 24//1 25//1
f 16//27 30//27 25//27
f 25//28 30//28 16//28
f 18//2 32//2 26//2
f 26//1 32//1 18//1
f 13//29 26//29 27//29
f 27//30 26//30 13//30
f 19//1 27//1 33//1
f 33//2 27//2 19//2
f 32//21 18//21 19//21
f 19//22 18//22 32//22
f 21//31 28//31 20//31
f 20//32 28//32 21//32
f 34//2 22//2 20//2
f 20//1 22//1 34//1
f 35//1 28//1 15//1
f 15//2 28//2 35//2
f 29//2 22//2 34//2
f 34//1 22//1 29//1
f 35//23 15//23 29//23
f 29//24 15//24 35//24
f 36//1 30//1 23//1
f 23//2 30//2 36//2
f 31//33 37//33 23//33
f 23//34 37//34 31//34
f 31//2 24//2 25//2
f 25//1 24//1 31//1
f 38//27 25//27 30//27
f 30//28 25//28 38//28
f 26//2 32//2 39//2
f 39//1 32//1 26//1
f 39//29 27//29 26//29
f 26//30 27//30 39//30
f 27//1 40//1 33//1
f 33//2 40//2 27//2
f 33//35 41//35 19//35
f 19//36 41//36 33//36
f 32//35 19//35 41//35
f 41//36 19//36 32//36
f 34//31 20//31 28//31
f 28//32 20//32 34//32
f 42//1 28//1 35//1
f 35//2 28//2 42//2
f 43//2 29//2 34//2
f 34//1 29//1 43//1
f 29//37 44//37 35//37
f 35//38 44//38 29//38
f 45//1 30//1 36//1
f 36//2 30//2 45//2
f 36//33 23//33 37//33
f 37//34 23//34 36//34
f 37//2 31//2 38//2
f 38//1 31//1 37//1
f 38//2 31//2 25//2
f 25//1 31//1 38//1
f 30//39 46//39 38//39
f 38//40 46//40 30//40
f 32//2 41//2 39//2
f 39//1 41//1 32//1
f 27//41 39//41 40//41
f 40//42 39//42 27//42
f 47//1 33//1 40//1
f 40//2 33//2 47//2
f 41//43 33//43 48//43
f 48//44 33//44 41//44
f 28//45 42//45 34//45
f 34//46 42//46 28//46
f 49//1 42//1 35//1
f 35//2 42//2 49//2
f 44//2 29//2 43//2
f 43//1 29//1 44//1
f 43//45 34//45 42//45
f 42//46 34//46 43//46
f 49//37 35//37 44//37
f 44//38 35//38 49//38
f 46//1 30//1 45//1
f 45//2 30//2 46//2
f 45//47 36//47 50//47
f 50//48 36//48 45//48
f 37//47 50//47 36//47
f 36//48 50//48 37//48
f 50//2 37//2 38//2
f 38//1 37//1 50//1
f 51//39 38//39 46//39
f 46//40 38//40 51//40
f 39//2 41//2 52//2
f 52//1 41//1 39//1
f 52//41 40//41 39//41
f 39//42 40//42 52//42
f 47//43 48//43 33//43
f 33//44 48//44 47//44
f 40//49 52//49 47//49
f 47//50 52//50 40//50
f 48//2 52//2 41//2
f 41//1 52//1 48//1
f 53//1 42//1 49//1
f 49//2 42//2 53//2
f 54//2 44//2 43//2
f 43//1 44//1 54//1
f 42//51 53//51 43//51
f 43//52 53//52 42//52
f 44//53 55//53 49//53
f 49//54 55//54 44//54
f 56//1 46//1 45//1
f 45//2 46//2 56//2
f 50//55 57//55 45//55
f 45//56 57//56 50//56
f 51//2 50//2 38//2
f 38//1 50//1 51//1
f 46//57 58//57 51//57
f 51//58 58//58 46//58
f 48//49 47//49 52//49
f 52//50 47//50 48//50
f 59//1 53//1 49//1
f 49//2 53//2 59//2
f 55//2 44//2 54//2
f 54//1 44//1 55//1
f 54//51 43//51 53//51
f 53//52 43//52 54//52
f 59//53 49//53 55//53
f 55//54 49//54 59//54
f 60//1 46//1 56//1
f 56//2 46//2 60//2
f 56//55 45//55 57//55
f 57//56 45//56 56//56
f 57//2 50//2 51//2
f 51//1 50//1 57//1
f 58//1 46//1 60//1
f 60//2 46//2 58//2
f 61//57 51//57 58//57
f 58//58 51//58 61//58
f 62//1 53//1 59//1
f 59//2 53//2 62//2
f 63//2 55//2 54//2
f 54//1 55//1 63//1
f 53//59 62//59 54//59
f 54//60 62//60 53//60
f 55//61 64//61 59//61
f 59//62 64//62 55//62
f 60//63 56//63 65//63
f 65//64 56//64 60//64
f 57//63 65//63 56//63
f 56//64 65//64 57//64
f 65//2 57//2 51//2
f 51//1 57//1 65//1
f 66//1 58//1 60//1
f 60//2 58//2 66//2
f 61//2 65//2 51//2
f 51//1 65//1 61//1
f 61//65 58//65 67//65
f 67//66 58//66 61//66
f 68//1 62//1 59//1
f 59//2 62//2 68//2
f 64//2 55//2 63//2
f 63//1 55//1 64//1
f 63//59 54//59 62//59
f 62//60 54//60 63//60
f 68//61 59//61 64//61
f 64//62 59//62 68//62
f 65//67 69//67 60//67
f 60//68 69//68 65//68
f 70//1 58//1 66//1
f 66//2 58//2 70//2
f 66//67 60//67 69//67
f 69//68 60//68 66//68
f 69//2 65//2 61//2
f 61//1 65//1 69//1
f 70//65 67//65 58//65
f 58//66 67//66 70//66
f 67//2 69//2 61//2
f 61//1 69//1 67//1
f 71//1 62//1 68//1
f 68//2 62//2 71//2
f 72//2 64//2 63//2
f 63//1 64//1 72//1
f 62//69 71//69 63//69
f 63//70 71//70 62//70
f 68//71 64//71 73//71
f 73//72 64//72 68//72
f 70//73 66//73 67//73
f 67//74 66//74 70//74
f 69//73 67//73 66//73
f 66//74 67//74 69//74
f 73//1 71//1 68//1
f 68//2 71//2 73//2
f 74//2 64//2 72//2
f 72//1 64//1 74//1
f 72//69 63//69 71//69
f 71//70 63//70 72//70
f 74//71 73//71 64//71
f 64//72 73//72 74//72
f 75//1 71//1 73//1
f 73//2 71//2 75//2
f 76//2 74//2 72//2
f 72//1 74//1 76//1
f 71//75 77//75 72//75
f 72//76 77//76 71//76
f 73//77 74//77 75//77
f 75//78 74//78 73//78
f 78//1 71//1 75//1
f 75//2 71//2 78//2
f 76//77 75//77 74//77
f 74//78 75//78 76//78
f 79//2 76//2 72//2
f 72//1 76//1 79//1
f 77//1 71//1 80//1
f 80//2 71//2 77//2
f 81//75 72//75 77//75
f 77//76 72//76 81//76
f 80//1 71//1 78//1
f 78//2 71//2 80//2
f 75//1 82//1 78//1
f 78//2 82//2 75//2
f 75//79 76//79 82//79
f 82//80 76//80 75//80
f 76//2 79//2 83//2
f 83//1 79//1 76//1
f 84//2 79//2 72//2
f 72//1 79//1 84//1
f 85//1 77//1 80//1
f 80//2 77//2 85//2
f 81//2 84//2 72//2
f 72//1 84//1 81//1
f 81//81 77//81 86//81
f 86//82 77//82 81//82
f 80//83 78//83 84//83
f 84//84 78//84 80//84
f 78//1 82//1 87//1
f 87//2 82//2 78//2
f 83//79 82//79 76//79
f 76//80 82//80 83//80
f 79//2 88//2 83//2
f 83//1 88//1 79//1
f 79//83 84//83 78//83
f 78//84 84//84 79//84
f 89//1 77//1 85//1
f 85//2 77//2 89//2
f 80//85 84//85 85//85
f 85//86 84//86 80//86
f 90//2 84//2 81//2
f 81//1 84//1 90//1
f 91//81 86//81 77//81
f 77//82 86//82 91//82
f 86//2 92//2 81//2
f 81//1 92//1 86//1
f 82//1 93//1 87//1
f 87//2 93//2 82//2
f 78//87 87//87 79//87
f 79//88 87//88 78//88
f 83//89 94//89 82//89
f 82//90 94//90 83//90
f 88//87 79//87 87//87
f 87//88 79//88 88//88
f 83//2 88//2 94//2
f 94//1 88//1 83//1
f 91//1 77//1 89//1
f 89//2 77//2 91//2
f 85//91 90//91 89//91
f 89//92 90//92 85//92
f 90//85 85//85 84//85
f 84//86 85//86 90//86
f 92//2 90//2 81//2
f 81//1 90//1 92//1
f 86//93 91//93 95//93
f 95//94 91//94 86//94
f 96//2 92//2 86//2
f 86//1 92//1 96//1
f 93//89 82//89 94//89
f 94//90 82//90 93//90
f 87//1 93//1 97//1
f 97//2 93//2 87//2
f 87//95 97//95 88//95
f 88//96 97//96 87//96
f 88//2 98//2 94//2
f 94//1 98//1 88//1
f 99//1 91//1 89//1
f 89//2 91//2 99//2
f 92//91 89//91 90//91
f 90//92 89//92 92//92
f 100//93 95//93 91//93
f 91//94 95//94 100//94
f 95//2 96//2 86//2
f 86//1 96//1 95//1
f 96//97 99//97 92//97
f 92//98 99//98 96//98
f 94//99 101//99 93//99
f 93//100 101//100 94//100
f 93//1 102//1 97//1
f 97//2 102//2 93//2
f 98//95 88//95 97//95
f 97//96 88//96 98//96
f 94//2 98//2 101//2
f 101//1 98//1 94//1
f 100//1 91//1 99//1
f 99//2 91//2 100//2
f 89//97 92//97 99//97
f 99//98 92//98 89//98
f 95//101 100//101 96//101
f 96//102 100//102 95//102
f 99//101 96//101 100//101
f 100//102 96//102 99//102
f 102//99 93//99 101//99
f 101//100 93//100 102//100
f 102//1 103//1 97//1
f 97//2 103//2 102//2
f 97//103 104//103 98//103
f 98//104 104//104 97//104
f 101//2 98//2 105//2
f 105//1 98//1 101//1
f 101//105 105//105 102//105
f 102//106 105//106 101//106
f 103//105 102//105 105//105
f 105//106 102//106 103//106
f 97//1 103//1 104//1
f 104//2 103//2 97//2
f 106//103 98//103 104//103
f 104//104 98//104 106//104
f 98//2 106//2 105//2
f 105//1 106//1 98//1
f 105//107 107//107 103//107
f 103//108 107//108 105//108
f 104//1 103//1 108//1
f 108//2 103//2 104//2
f 104//109 108//109 106//109
f 106//110 108//110 104//110
f 106//2 109//2 105//2
f 105//1 109//1 106//1
f 105//2 109//2 107//2
f 107//1 109//1 105//1
f 110//107 103//107 107//107
f 107//108 103//108 110//108
f 103//1 110//1 108//1
f 108//2 110//2 103//2
f 109//109 106//109 108//109
f 108//110 106//110 109//110
f 109//2 111//2 107//2
f 107//1 111//1 109//1
f 107//111 112//111 110//111
f 110//112 112//112 107//112
f 108//1 110//1 113//1
f 113//2 110//2 108//2
f 108//113 113//113 109//113
f 109//114 113//114 108//114
f 111//113 109//113 113//113
f 113//114 109//114 111//114
f 107//2 111//2 112//2
f 112//1 111//1 107//1
f 114//111 110//111 112//111
f 112//112 110//112 114//112
f 110//1 114//1 113//1
f 113//2 114//2 110//2
f 113//115 115//115 111//115
f 111//116 115//116 113//116
f 112//2 111//2 116//2
f 116//1 111//1 112//1
f 112//117 116//117 114//117
f 114//118 116//118 112//118
f 114//1 117//1 113//1
f 113//2 117//2 114//2
f 113//1 118//1 115//1
f 115//2 118//2 113//2
f 119//115 111//115 115//115
f 115//116 111//116 119//116
f 116//2 111//2 120//2
f 120//1 111//1 116//1
f 117//117 114//117 116//117
f 116//118 114//118 117//118
f 117//1 118//1 113//1
f 113//2 118//2 117//2
f 121//1 115//1 118//1
f 118//2 115//2 121//2
f 119//2 122//2 111//2
f 111//1 122//1 119//1
f 119//66 115//66 122//66
f 122//65 115//65 119//65
f 120//2 111//2 122//2
f 122//1 111//1 120//1
f 116//119 120//119 117//119
f 117//120 120//120 116//120
f 118//119 117//119 120//119
f 120//120 117//120 118//120
f 121//66 122//66 115//66
f 115//65 122//65 121//65
f 121//74 118//74 122//74
f 122//73 118//73 121//73
f 120//74 122//74 118//74
f 118//73 122//73 120//73
