# SSTK version 0.8.0
# 156
mtllib original-156.mtl
o ___1_1/___1/mesh283/mesh283-geometry#mesh283-geometry
v 0.148409 -0.133686 0.223966
v 0.150124 -0.133686 0.224008
v 0.150664 -0.133686 0.216322
v 0.150124 -0.159975 0.224008
v 0.153601 -0.133686 0.216394
v 0.150664 -0.159975 0.216322
v 0.148409 -0.159975 0.223966
v 0.153601 -0.159975 0.216394
vn 0 1 0
vn 0 -1 0
vn -0.02443217808671571 0 0.9997014897827946
vn 0.02443217808671571 0 -0.9997014897827946
vn -0.9591152854437586 0 -0.2830156695805684
vn 0.9591152854437586 0 0.2830156695805684
vn 0.9096296580080485 0 0.41542013103863995
vn -0.9096296580080485 0 -0.41542013103863995
usemtl material_0_0
f 1//1 2//1 3//1
f 3//2 2//2 1//2
f 2//3 1//3 4//3
f 4//4 1//4 2//4
f 5//1 3//1 2//1
f 2//2 3//2 5//2
f 3//5 6//5 1//5
f 1//6 6//6 3//6
f 7//3 4//3 1//3
f 1//4 4//4 7//4
f 2//7 4//7 5//7
f 5//8 4//8 2//8
f 3//4 5//4 6//4
f 6//3 5//3 3//3
f 7//5 1//5 6//5
f 6//6 1//6 7//6
f 7//2 6//2 4//2
f 4//1 6//1 7//1
f 8//7 5//7 4//7
f 4//8 5//8 8//8
f 8//4 6//4 5//4
f 5//3 6//3 8//3
f 8//2 4//2 6//2
f 6//1 4//1 8//1
