# SSTK version 0.8.0
# 182
mtllib original-182.mtl
o M_1_1/M_1/mesh343/mesh343-geometry#mesh343-geometry
v 0.079817 -0.133686 0.211471
v 0.082122 -0.133686 0.197855
v 0.080205 -0.133686 0.195612
v 0.081788 -0.133686 0.211519
v 0.083080 -0.133686 0.195683
v 0.080205 -0.157519 0.195612
v 0.081788 -0.157519 0.211519
v 0.085995 -0.133686 0.207253
v 0.079817 -0.157519 0.211471
v 0.082122 -0.157519 0.197855
v 0.083080 -0.157519 0.195683
v 0.086826 -0.133686 0.204609
v 0.086826 -0.157519 0.204609
v 0.087273 -0.133686 0.207284
v 0.085995 -0.157519 0.207253
v 0.090866 -0.157519 0.195873
v 0.090866 -0.133686 0.195873
v 0.087273 -0.157519 0.207284
v 0.091632 -0.133686 0.198087
v 0.093795 -0.133686 0.195945
v 0.091632 -0.157519 0.198087
v 0.093795 -0.157519 0.195945
v 0.091298 -0.133686 0.211751
v 0.093407 -0.157519 0.211803
v 0.093407 -0.133686 0.211803
v 0.091298 -0.157519 0.211751
vn 0 1 0
vn 0 -1 0
vn -0.9997014898466552 0 -0.024432175473705835
vn 0.9997014898466552 0 0.024432175473705835
vn -0.024432175473705745 0 0.9997014898466553
vn 0.024432175473705745 0 -0.9997014898466553
vn -0.9245603476055436 0 0.381035646148121
vn 0.9245603476055436 0 -0.381035646148121
vn 0.9220838065501296 0 -0.38699025013302707
vn -0.9220838065501296 0 0.38699025013302707
vn -0.9076668180936411 0 -0.4196914906592281
vn 0.9076668180936411 0 0.4196914906592281
vn 0.9036161812755242 0 0.42834308321372366
vn -0.9036161812755242 0 -0.42834308321372366
usemtl material_0_0
f 1//1 2//1 3//1
f 2//1 1//1 4//1
f 3//2 2//2 1//2
f 4//2 1//2 2//2
f 5//1 3//1 2//1
f 2//2 3//2 5//2
f 3//3 6//3 1//3
f 1//4 6//4 3//4
f 4//5 1//5 7//5
f 7//6 1//6 4//6
f 4//4 7//4 2//4
f 2//3 7//3 4//3
f 3//6 5//6 6//6
f 6//5 5//5 3//5
f 8//1 5//1 2//1
f 2//2 5//2 8//2
f 9//3 1//3 6//3
f 6//4 1//4 9//4
f 9//5 7//5 1//5
f 1//6 7//6 9//6
f 10//4 2//4 7//4
f 7//3 2//3 10//3
f 11//6 6//6 5//6
f 5//5 6//5 11//5
f 12//1 5//1 8//1
f 8//2 5//2 12//2
f 2//7 10//7 8//7
f 8//8 10//8 2//8
f 9//2 6//2 7//2
f 7//1 6//1 9//1
f 10//2 7//2 6//2
f 6//1 7//1 10//1
f 11//2 10//2 6//2
f 6//1 10//1 11//1
f 11//9 5//9 13//9
f 13//10 5//10 11//10
f 12//9 13//9 5//9
f 5//10 13//10 12//10
f 14//1 12//1 8//1
f 8//2 12//2 14//2
f 15//7 8//7 10//7
f 10//8 8//8 15//8
f 15//2 10//2 11//2
f 11//1 10//1 15//1
f 13//2 15//2 11//2
f 11//1 15//1 13//1
f 13//11 12//11 16//11
f 16//12 12//12 13//12
f 17//1 12//1 14//1
f 14//2 12//2 17//2
f 14//5 8//5 18//5
f 18//6 8//6 14//6
f 15//5 18//5 8//5
f 8//6 18//6 15//6
f 18//2 15//2 13//2
f 13//1 15//1 18//1
f 17//11 16//11 12//11
f 12//12 16//12 17//12
f 16//2 18//2 13//2
f 13//1 18//1 16//1
f 19//1 17//1 14//1
f 14//2 17//2 19//2
f 14//13 18//13 19//13
f 19//14 18//14 14//14
f 17//6 20//6 16//6
f 16//5 20//5 17//5
f 21//2 18//2 16//2
f 16//1 18//1 21//1
f 20//1 17//1 19//1
f 19//2 17//2 20//2
f 21//13 19//13 18//13
f 18//14 19//14 21//14
f 22//6 16//6 20//6
f 20//5 16//5 22//5
f 22//2 21//2 16//2
f 16//1 21//1 22//1
f 23//1 20//1 19//1
f 19//2 20//2 23//2
f 19//3 21//3 23//3
f 23//4 21//4 19//4
f 22//4 20//4 24//4
f 24//3 20//3 22//3
f 24//2 21//2 22//2
f 22//1 21//1 24//1
f 25//1 20//1 23//1
f 23//2 20//2 25//2
f 26//3 23//3 21//3
f 21//4 23//4 26//4
f 25//4 24//4 20//4
f 20//3 24//3 25//3
f 26//2 21//2 24//2
f 24//1 21//1 26//1
f 25//5 23//5 24//5
f 24//6 23//6 25//6
f 26//5 24//5 23//5
f 23//6 24//6 26//6
