# SSTK version 0.8.0
# 6
mtllib original-6.mtl
o Group6/mesh2/mesh2-geometry#mesh2-geometry
v -0.111203 -0.273384 -0.224748
v -0.111203 -0.263004 -0.148691
v -0.111203 -0.273384 -0.141266
v -0.111203 -0.242156 -0.160297
v -0.111203 -0.256577 -0.151884
v -0.181859 -0.273384 -0.141266
v 0.106353 -0.273384 -0.141266
v -0.181859 -0.273384 -0.224748
v -0.111203 -0.220134 -0.169481
v -0.181859 -0.242156 -0.160297
v -0.181859 -0.263004 -0.148691
v -0.181859 -0.282411 -0.134810
v 0.106353 -0.273384 -0.224748
v 0.177009 -0.273384 -0.141266
v -0.181859 -0.047029 -0.224748
v 0.177009 -0.344040 -0.224748
v -0.111203 -0.197218 -0.176126
v -0.111203 -0.238866 -0.160914
v -0.181859 -0.220134 -0.169481
v -0.181859 -0.344040 -0.224748
v -0.181859 -0.344040 -0.134810
v 0.106353 -0.263004 -0.148691
v 0.177009 -0.273384 -0.224748
v 0.177009 -0.263004 -0.148691
v -0.111203 -0.047029 -0.224748
v -0.181859 -0.149877 -0.181493
v -0.111203 -0.173699 -0.180147
v -0.111203 -0.201339 -0.173924
v -0.181859 -0.197218 -0.176126
v -0.111203 -0.220402 -0.168282
v 0.177009 -0.282411 -0.134810
v 0.106353 -0.242156 -0.160297
v 0.106353 -0.256577 -0.151885
v 0.106353 -0.047029 -0.224748
v -0.181859 0.023627 -0.224748
v -0.181859 -0.047029 -0.154414
v -0.111203 -0.149877 -0.181493
v -0.181859 -0.162121 -0.180795
v -0.181859 -0.126054 -0.180147
v -0.111203 -0.162121 -0.180795
v -0.111203 -0.181839 -0.177792
v -0.181859 -0.173699 -0.180147
v 0.177009 -0.344040 -0.134810
v 0.177009 -0.242156 -0.160297
v 0.106353 -0.220134 -0.169481
v 0.177009 -0.047029 -0.224748
v 0.106353 -0.149877 -0.181493
v -0.111203 -0.047029 -0.154414
v -0.181859 -0.057597 -0.160297
v -0.111203 -0.126054 -0.180147
v -0.181859 -0.102535 -0.176126
v -0.111203 -0.162066 -0.179855
v 0.106353 -0.238867 -0.160916
v 0.177009 -0.220134 -0.169481
v 0.106353 -0.197218 -0.176126
v 0.177009 -0.047029 -0.154414
v 0.177009 -0.149877 -0.181493
v 0.106353 -0.173699 -0.180147
v 0.106353 -0.126054 -0.180147
v 0.106353 -0.047029 -0.154414
v -0.181859 -0.036750 -0.148691
v -0.111203 -0.057597 -0.160297
v -0.181859 -0.079619 -0.169481
v -0.111203 -0.102535 -0.176126
v -0.111203 -0.142187 -0.180095
v 0.106353 -0.220402 -0.168284
v 0.177009 -0.197218 -0.176126
v 0.106353 -0.201339 -0.173926
v 0.177009 0.023627 -0.224748
v 0.177009 -0.057597 -0.160297
v 0.177009 -0.126054 -0.180147
v 0.177009 -0.173699 -0.180147
v 0.106353 -0.102535 -0.176126
v 0.106353 -0.057597 -0.160297
v -0.181859 -0.017343 -0.134810
v -0.111203 -0.079619 -0.169481
v -0.111203 -0.064952 -0.163014
v 0.177009 -0.036750 -0.148691
v -0.111203 -0.122371 -0.178510
v 0.106353 -0.181839 -0.177796
v 0.177009 -0.079619 -0.169481
v 0.177009 0.023627 -0.134810
v 0.177009 -0.102535 -0.176126
v 0.106353 -0.142187 -0.180099
v 0.106353 -0.079619 -0.169481
v 0.106353 -0.122370 -0.178513
v 0.106353 -0.064952 -0.163015
v -0.181859 0.023627 -0.134810
v 0.177009 -0.017343 -0.134810
v -0.111203 -0.083590 -0.169933
v -0.111203 -0.102783 -0.175113
v 0.106353 -0.162066 -0.179859
v 0.106353 -0.083589 -0.169935
v 0.106353 -0.102783 -0.175116
vn 1 0 0
vn -1 0 0
vn 0 -0.5817602364274079 -0.8133603305497056
vn 0 -0.5349479930646666 -0.8448849890464888
vn 0 0.5817602364274079 0.8133603305497056
vn 0 0.5349479930646666 0.8448849890464888
vn 0 1 0
vn 0 -1 0
vn 0 -0.4363669100975163 -0.8997688146251491
vn 0 0.4363669100975163 0.8997688146251491
vn 0 0 -1
vn 0 0 1
vn 0 -0.33223101585323367 -0.943198045007054
vn 0 0.33223101585323367 0.943198045007054
vn 0 -0.22386503552458542 -0.9746201546600481
vn 0 0.22386503552458542 0.9746201546600481
vn 0 -0.11237202326438217 -0.9936662057187361
vn 0 0.11237202326438217 0.9936662057187361
vn 0 -0.0002639999907999065 -0.9999999651520018
vn 0 -0.05639901743674569 -0.9984083086754484
vn 0 0.05639901743674569 0.9984083086754484
vn 0 0.0002639999907999065 0.9999999651520018
vn 0 0.1126499698253017 -0.9936347338425516
vn 0 -0.1126499698253017 0.9936347338425516
vn 0 0.43636691009751677 -0.8997688146251489
vn 0 0.4864321862675671 -0.8737183345695309
vn 0 -0.4864321862675671 0.8737183345695309
vn 0 -0.43636691009751677 0.8997688146251489
vn 0 -0.534947993064667 0.8448849890464886
vn 0 0.534947993064667 -0.8448849890464886
vn 0 0.22386503552458584 -0.9746201546600479
vn 0 -0.22386503552458584 0.9746201546600479
vn 0 0.11264996982530129 0.9936347338425519
vn 0 -0.11264996982530129 -0.9936347338425519
vn 0 0.3322310158532341 -0.9431980450070537
vn 0 -0.3322310158532341 0.9431980450070537
vn 0 -0.5817602364274084 0.8133603305497054
vn 0 0.5817602364274084 -0.8133603305497054
usemtl material_0_0
f 1//1 2//1 3//1
f 2//1 1//1 4//1
f 3//2 2//2 1//2
f 4//2 1//2 2//2
f 2//1 5//1 3//1
f 3//2 5//2 2//2
f 6//3 2//4 3//3
f 3//5 2//6 6//5
f 7//7 1//7 3//7
f 3//8 1//8 7//8
f 8//7 3//7 1//7
f 1//8 3//8 8//8
f 4//1 1//1 9//1
f 9//2 1//2 4//2
f 5//1 2//1 4//1
f 4//2 2//2 5//2
f 2//4 10//9 4//9
f 4//10 10//10 2//6
f 2//4 6//3 11//4
f 11//6 6//5 2//6
f 3//7 8//7 6//7
f 6//8 8//8 3//8
f 6//5 12//5 3//5
f 3//3 12//3 6//3
f 1//7 7//7 13//7
f 13//8 7//8 1//8
f 3//5 14//5 7//5
f 7//3 14//3 3//3
f 15//11 1//11 8//11
f 8//12 1//12 15//12
f 16//11 8//11 1//11
f 1//12 8//12 16//12
f 9//1 1//1 17//1
f 17//2 1//2 9//2
f 18//1 4//1 9//1
f 9//2 4//2 18//2
f 4//9 19//13 9//13
f 9//14 19//14 4//10
f 5//1 4//1 18//1
f 18//2 4//2 5//2
f 10//9 2//4 11//4
f 11//6 2//6 10//10
f 19//13 4//9 10//9
f 10//10 4//10 19//14
f 11//2 8//2 6//2
f 6//1 8//1 11//1
f 20//2 6//2 8//2
f 8//1 6//1 20//1
f 6//2 21//2 12//2
f 12//1 21//1 6//1
f 12//5 14//5 3//5
f 3//3 14//3 12//3
f 22//2 13//2 7//2
f 7//1 13//1 22//1
f 13//8 14//8 7//8
f 7//7 14//7 13//7
f 23//11 1//11 13//11
f 13//12 1//12 23//12
f 24//6 7//5 14//5
f 14//3 7//3 24//4
f 1//11 15//11 25//11
f 25//12 15//12 1//12
f 8//2 26//2 15//2
f 15//1 26//1 8//1
f 8//11 16//11 20//11
f 20//12 16//12 8//12
f 16//11 1//11 23//11
f 23//12 1//12 16//12
f 17//1 1//1 27//1
f 27//2 1//2 17//2
f 28//1 9//1 17//1
f 17//2 9//2 28//2
f 9//13 29//15 17//15
f 17//16 29//16 9//14
f 18//1 9//1 30//1
f 30//2 9//2 18//2
f 29//15 9//13 19//13
f 19//14 9//14 29//16
f 8//2 11//2 10//2
f 10//1 11//1 8//1
f 8//2 10//2 19//2
f 19//1 10//1 8//1
f 21//2 6//2 20//2
f 20//1 6//1 21//1
f 21//12 31//12 12//12
f 12//11 31//11 21//11
f 14//5 12//5 31//5
f 31//3 12//3 14//3
f 13//2 22//2 32//2
f 32//1 22//1 13//1
f 33//2 22//2 7//2
f 7//1 22//1 33//1
f 7//5 24//6 22//6
f 22//4 24//4 7//3
f 14//8 13//8 23//8
f 23//7 13//7 14//7
f 34//11 23//11 13//11
f 13//12 23//12 34//12
f 23//1 24//1 14//1
f 14//2 24//2 23//2
f 35//11 25//11 15//11
f 15//12 25//12 35//12
f 25//8 36//8 15//8
f 15//7 36//7 25//7
f 25//1 37//1 1//1
f 1//2 37//2 25//2
f 8//2 38//2 26//2
f 26//1 38//1 8//1
f 39//2 15//2 26//2
f 26//1 15//1 39//1
f 16//8 21//8 20//8
f 20//7 21//7 16//7
f 14//1 16//1 23//1
f 23//2 16//2 14//2
f 27//1 1//1 40//1
f 40//2 1//2 27//2
f 41//1 17//1 27//1
f 27//2 17//2 41//2
f 17//15 42//17 27//17
f 27//18 42//18 17//16
f 30//1 9//1 28//1
f 28//2 9//2 30//2
f 28//1 17//1 41//1
f 41//2 17//2 28//2
f 42//17 17//15 29//15
f 29//16 17//16 42//18
f 8//2 19//2 29//2
f 29//1 19//1 8//1
f 31//12 21//12 43//12
f 43//11 21//11 31//11
f 31//1 16//1 14//1
f 14//2 16//2 31//2
f 22//2 33//2 32//2
f 32//1 33//1 22//1
f 22//6 44//10 32//10
f 32//9 44//9 22//4
f 13//2 32//2 45//2
f 45//1 32//1 13//1
f 44//10 22//6 24//6
f 24//4 22//4 44//9
f 23//11 34//11 46//11
f 46//12 34//12 23//12
f 13//2 47//2 34//2
f 34//1 47//1 13//1
f 24//1 23//1 44//1
f 44//2 23//2 24//2
f 25//11 35//11 34//11
f 34//12 35//12 25//12
f 36//2 35//2 15//2
f 15//1 35//1 36//1
f 36//8 25//8 48//8
f 48//7 25//7 36//7
f 15//2 49//2 36//2
f 36//1 49//1 15//1
f 25//1 50//1 37//1
f 37//2 50//2 25//2
f 40//1 1//1 37//1
f 37//2 1//2 40//2
f 8//2 42//2 38//2
f 38//1 42//1 8//1
f 26//19 40//20 38//20
f 38//21 40//21 26//22
f 51//2 15//2 39//2
f 39//1 15//1 51//1
f 39//23 37//19 26//19
f 26//22 37//22 39//24
f 21//8 16//8 43//8
f 43//7 16//7 21//7
f 50//1 27//1 40//1
f 40//2 27//2 50//2
f 27//17 38//20 40//20
f 40//21 38//21 27//18
f 41//1 27//1 52//1
f 52//2 27//2 41//2
f 38//20 27//17 42//17
f 42//18 27//18 38//21
f 8//2 29//2 42//2
f 42//1 29//1 8//1
f 16//1 31//1 43//1
f 43//2 31//2 16//2
f 32//2 33//2 53//2
f 53//1 33//1 32//1
f 54//14 32//10 44//10
f 44//9 32//9 54//13
f 32//2 53//2 45//2
f 45//1 53//1 32//1
f 32//10 54//14 45//14
f 45//13 54//13 32//9
f 13//2 45//2 55//2
f 55//1 45//1 13//1
f 56//8 34//8 46//8
f 46//7 34//7 56//7
f 34//11 35//11 46//11
f 46//12 35//12 34//12
f 46//1 57//1 23//1
f 23//2 57//2 46//2
f 13//2 58//2 47//2
f 47//1 58//1 13//1
f 59//2 34//2 47//2
f 47//1 34//1 59//1
f 44//1 23//1 54//1
f 54//2 23//2 44//2
f 60//8 25//8 34//8
f 34//7 25//7 60//7
f 61//2 35//2 36//2
f 36//1 35//1 61//1
f 62//1 25//1 48//1
f 48//2 25//2 62//2
f 25//8 60//8 48//8
f 48//7 60//7 25//7
f 62//25 36//26 48//26
f 48//27 36//27 62//28
f 48//27 61//29 36//27
f 36//26 61//30 48//26
f 49//2 15//2 63//2
f 63//1 15//1 49//1
f 36//26 62//25 49//25
f 49//28 62//28 36//27
f 25//1 64//1 50//1
f 50//2 64//2 25//2
f 50//1 40//1 37//1
f 37//2 40//2 50//2
f 37//19 39//23 50//23
f 50//24 39//24 37//22
f 40//20 26//19 37//19
f 37//22 26//22 40//21
f 63//2 15//2 51//2
f 51//1 15//1 63//1
f 51//31 50//23 39//23
f 39//24 50//24 51//32
f 50//1 65//1 27//1
f 27//2 65//2 50//2
f 52//1 27//1 65//1
f 65//2 27//2 52//2
f 45//2 53//2 66//2
f 66//1 53//1 45//1
f 67//16 45//14 54//14
f 54//13 45//13 67//15
f 45//2 68//2 55//2
f 55//1 68//1 45//1
f 45//14 67//16 55//16
f 55//15 67//15 45//13
f 13//2 55//2 58//2
f 58//1 55//1 13//1
f 34//8 56//8 60//8
f 60//7 56//7 34//7
f 69//1 56//1 46//1
f 46//2 56//2 69//2
f 70//1 46//1 56//1
f 56//2 46//2 70//2
f 46//11 35//11 69//11
f 69//12 35//12 46//12
f 46//1 71//1 57//1
f 57//2 71//2 46//2
f 72//1 23//1 57//1
f 57//2 23//2 72//2
f 58//2 59//2 47//2
f 47//1 59//1 58//1
f 58//33 57//12 47//12
f 47//11 57//11 58//34
f 73//2 34//2 59//2
f 59//1 34//1 73//1
f 47//12 71//24 59//24
f 59//23 71//23 47//11
f 54//1 23//1 67//1
f 67//2 23//2 54//2
f 34//2 74//2 60//2
f 60//1 74//1 34//1
f 75//2 35//2 61//2
f 61//1 35//1 75//1
f 25//1 62//1 76//1
f 76//2 62//2 25//2
f 77//1 62//1 48//1
f 48//2 62//2 77//2
f 60//27 78//29 48//27
f 48//26 78//30 60//26
f 61//29 48//27 78//29
f 78//30 48//26 61//30
f 49//25 76//35 63//35
f 63//36 76//36 49//28
f 76//35 49//25 62//25
f 62//28 49//28 76//36
f 25//1 76//1 64//1
f 64//2 76//2 25//2
f 64//1 79//1 50//1
f 50//2 79//2 64//2
f 50//23 51//31 64//31
f 64//32 51//32 50//24
f 63//35 64//31 51//31
f 51//32 64//32 63//36
f 50//1 79//1 65//1
f 65//2 79//2 50//2
f 45//2 66//2 68//2
f 68//1 66//1 45//1
f 55//2 68//2 80//2
f 80//1 68//1 55//1
f 72//33 55//16 67//16
f 67//15 55//15 72//34
f 55//2 80//2 58//2
f 58//1 80//1 55//1
f 55//16 72//33 58//33
f 58//34 72//34 55//15
f 78//29 60//27 56//27
f 56//26 60//26 78//30
f 74//28 56//27 60//27
f 60//26 56//26 74//25
f 69//1 78//1 56//1
f 56//2 78//2 69//2
f 46//1 70//1 81//1
f 81//2 70//2 46//2
f 56//27 74//28 70//28
f 70//25 74//25 56//26
f 35//7 82//7 69//7
f 69//8 82//8 35//8
f 46//1 83//1 71//1
f 71//2 83//2 46//2
f 71//24 47//12 57//12
f 57//11 47//11 71//23
f 67//1 23//1 72//1
f 72//2 23//2 67//2
f 57//12 58//33 72//33
f 72//34 58//34 57//11
f 58//2 84//2 59//2
f 59//1 84//1 58//1
f 85//2 34//2 73//2
f 73//1 34//1 85//1
f 86//2 73//2 59//2
f 59//1 73//1 86//1
f 59//24 83//32 73//32
f 73//31 83//31 59//23
f 83//32 59//24 71//24
f 71//23 59//23 83//31
f 74//2 34//2 85//2
f 85//1 34//1 74//1
f 74//2 87//2 60//2
f 60//1 87//1 74//1
f 35//2 75//2 88//2
f 88//1 75//1 35//1
f 61//29 89//37 75//37
f 75//38 89//38 61//30
f 62//1 77//1 76//1
f 76//2 77//2 62//2
f 89//37 61//29 78//29
f 78//30 61//30 89//38
f 64//31 63//35 76//35
f 76//36 63//36 64//32
f 76//1 90//1 64//1
f 64//2 90//2 76//2
f 64//1 91//1 79//1
f 79//2 91//2 64//2
f 58//2 80//2 92//2
f 92//1 80//1 58//1
f 82//1 78//1 69//1
f 69//2 78//2 82//2
f 70//28 85//36 81//36
f 81//35 85//35 70//25
f 46//1 81//1 83//1
f 83//2 81//2 46//2
f 85//36 70//28 74//28
f 74//25 70//25 85//35
f 82//7 35//7 88//7
f 88//8 35//8 82//8
f 58//2 92//2 84//2
f 84//1 92//1 58//1
f 86//2 59//2 84//2
f 84//1 59//1 86//1
f 93//2 85//2 73//2
f 73//1 85//1 93//1
f 73//32 81//36 85//36
f 85//35 81//35 73//31
f 94//2 73//2 86//2
f 86//1 73//1 94//1
f 81//36 73//32 83//32
f 83//31 73//31 81//35
f 87//2 74//2 85//2
f 85//1 74//1 87//1
f 75//12 82//12 88//12
f 88//11 82//11 75//11
f 82//12 75//12 89//12
f 89//11 75//11 82//11
f 76//1 77//1 90//1
f 90//2 77//2 76//2
f 78//1 82//1 89//1
f 89//2 82//2 78//2
f 64//1 90//1 91//1
f 91//2 90//2 64//2
f 87//2 85//2 93//2
f 93//1 85//1 87//1
f 93//2 73//2 94//2
f 94//1 73//1 93//1
