# SSTK version 0.8.0
# 5
mtllib original-5.mtl
o mesh5/mesh5-geometry#mesh5-geometry
v -0.445970 -0.140535 0.149011
v -0.453724 -0.162054 0.149011
v -0.458827 -0.141386 0.149011
v -0.442509 -0.180147 0.149011
v -0.453724 -0.162054 -0.058350
v -0.457339 -0.120383 0.149011
v -0.433112 -0.139685 0.149011
v -0.442509 -0.180147 -0.058350
v -0.458827 -0.141386 -0.058350
v -0.457339 -0.120383 -0.058350
v -0.449530 -0.100841 0.149011
v -0.426272 -0.193914 0.149011
v -0.445970 -0.140535 -0.058350
v -0.449530 -0.100841 -0.058350
v -0.436148 -0.084611 0.149011
v -0.420255 -0.138834 0.149011
v -0.426272 -0.193914 -0.058350
v -0.433112 -0.139685 -0.058350
v -0.436148 -0.084611 -0.058350
v -0.406969 -0.202892 0.149011
v -0.418468 -0.073232 0.149011
v -0.407398 -0.137983 0.149011
v -0.420255 -0.138834 -0.058350
v -0.406969 -0.202892 -0.058350
v -0.418468 -0.073232 -0.058350
v -0.394540 -0.137133 0.149011
v -0.388251 -0.213037 0.149011
v -0.399594 -0.063910 0.149011
v -0.407398 -0.137983 -0.058350
v -0.388251 -0.213037 -0.058350
v -0.399594 -0.063910 -0.058350
v -0.381683 -0.136282 0.149011
v -0.381951 -0.052435 0.149011
v -0.394540 -0.137133 -0.058350
v -0.370945 -0.225436 0.149011
v -0.381683 -0.136282 -0.058350
v -0.370945 -0.225436 -0.058350
v -0.381951 -0.052435 -0.058350
v -0.368825 -0.135432 0.149011
v -0.364601 -0.040507 0.149011
v -0.352001 -0.235149 0.149011
v -0.368825 -0.135432 -0.058350
v -0.364601 -0.040507 -0.058350
v -0.352001 -0.235149 -0.058350
v -0.355968 -0.134581 0.149011
v -0.330991 -0.238572 0.149011
v -0.344768 -0.033636 0.149011
v -0.355968 -0.134581 -0.058350
v -0.330991 -0.238572 -0.058350
v -0.344768 -0.033636 -0.058350
v -0.343111 -0.133731 0.149011
v -0.309946 -0.235363 0.149011
v -0.323803 -0.033098 0.149011
v -0.343111 -0.133731 -0.058350
v -0.309946 -0.235363 -0.058350
v -0.323803 -0.033098 -0.058350
v -0.330253 -0.132880 0.149011
v -0.290911 -0.225829 0.149011
v -0.303677 -0.038967 0.149011
v -0.330253 -0.132880 -0.058350
v -0.290911 -0.225829 -0.058350
v -0.303677 -0.038967 -0.058350
v -0.317396 -0.132030 0.149011
v -0.275737 -0.210899 0.149011
v -0.286301 -0.050680 0.149011
v -0.317396 -0.132030 -0.058350
v -0.275737 -0.210899 -0.058350
v -0.286301 -0.050680 -0.058350
v -0.304538 -0.131179 0.149011
v -0.265893 -0.192025 -0.058350
v -0.273320 -0.067121 -0.058350
v -0.265893 -0.192025 0.149011
v -0.273320 -0.067121 0.149011
v -0.304538 -0.131179 -0.058350
v -0.291681 -0.130328 0.149011
v -0.262333 -0.171038 -0.058350
v -0.291681 -0.130328 -0.058350
v -0.265964 -0.086726 -0.058350
v -0.262333 -0.171038 0.149011
v -0.265964 -0.086726 0.149011
v -0.278824 -0.129478 0.149011
v -0.264684 -0.149878 -0.058350
v -0.278824 -0.129478 -0.058350
v -0.264495 -0.107624 -0.058350
v -0.264684 -0.149878 0.149011
v -0.264495 -0.107624 0.149011
v -0.265966 -0.128627 0.149011
v -0.265966 -0.128627 -0.058350
vn 0 0 -1
vn 0 0 1
vn -0.9708462505147717 -0.23970306185238682 0
vn 0.9708462505147717 0.23970306185238682 0
vn -0.8499662440572174 -0.5268371512747242 0
vn 0.8499662440572174 0.5268371512747242 0
vn 0.9974979080207221 -0.07069599348112274 0
vn -0.9974979080207221 0.07069599348112274 0
vn -0.6466910443031882 -0.762752052254238 0
vn 0.6466910443031882 0.762752052254238 0
vn 0.9286100792341228 -0.3710570316606281 0
vn -0.9286100792341228 0.3710570316606281 0
vn 0.7715403996580307 -0.6361803295414961 0
vn -0.7715403996580307 0.6361803295414961 0
vn -0.4217399271045794 -0.9067168432789942 0
vn 0.4217399271045794 0.9067168432789942 0
vn 0.5412071820702448 -0.8408892828878157 0
vn -0.5412071820702448 0.8408892828878157 0
vn -0.4764852515011324 -0.8791824640550462 0
vn 0.4764852515011324 0.8791824640550462 0
vn 0.4428591073574749 -0.8965912173507727 0
vn -0.4428591073574749 0.8965912173507727 0
vn -0.5824339978915889 -0.8128779970573816 0
vn 0.5824339978915889 0.8128779970573816 0
vn 0.5452037279346844 -0.8383035816732043 0
vn -0.5452037279346844 0.8383035816732043 0
vn -0.45621880989708313 -0.8898676291989102 0
vn 0.45621880989708313 0.8898676291989102 0
vn 0.5665430827512716 -0.8240321203610242 0
vn -0.5665430827512716 0.8240321203610242 0
vn -0.16079399818463574 -0.9869879888569056 0
vn 0.16079399818463574 0.9869879888569056 0
vn 0.32736200012357913 -0.9448990003566995 0
vn -0.32736200012357913 0.9448990003566995 0
vn 0.15074299786110762 -0.988572985973138 0
vn -0.15074299786110762 0.988572985973138 0
vn 0.025617995010793485 -0.9996718053099362 0
vn -0.025617995010793485 0.9996718053099362 0
vn 0.447815893927653 -0.894125788212026 0
vn -0.447815893927653 0.894125788212026 0
vn -0.2799550332874953 -0.9600131141484461 0
vn 0.2799550332874953 0.9600131141484461 0
vn 0.7013359230434655 -0.7128309217821366 0
vn -0.7013359230434655 0.7128309217821366 0
vn -0.5589453391007817 -0.8292045030615259 0
vn 0.5589453391007817 0.8292045030615259 0
vn 0.8866661757124268 -0.46241009163674174 0
vn -0.8866661757124268 0.46241009163674174 0
vn -0.7848640279725545 -0.6196680220849687 0
vn 0.7848640279725545 0.6196680220849687 0
vn 0.9859189306223661 -0.1672239882326992 0
vn -0.9859189306223661 0.1672239882326992 0
vn -0.9362632843572466 -0.3512991066948244 0
vn 0.9362632843572466 0.3512991066948244 0
vn 0.9938852345822871 0.11041802606147288 0
vn -0.9938852345822871 -0.11041802606147288 0
vn -0.9975375113718317 -0.07013496564548259 0
vn 0.9975375113718317 0.07013496564548259 0
vn 0.9981851885641873 0.06021901137579386 0
vn -0.9981851885641873 -0.06021901137579386 0
vn -0.9975551936683767 0.06988301356729923 0
vn 0.9975551936683767 -0.06988301356729923 0
usemtl material_0_0
f 1//1 2//1 3//1
f 3//2 2//2 1//2
f 1//1 4//1 2//1
f 2//2 4//2 1//2
f 3//3 5//3 2//3
f 2//4 5//4 3//4
f 1//1 3//1 6//1
f 6//2 3//2 1//2
f 4//1 1//1 7//1
f 7//2 1//2 4//2
f 2//5 8//5 4//5
f 4//6 8//6 2//6
f 5//3 3//3 9//3
f 9//4 3//4 5//4
f 8//5 2//5 5//5
f 5//6 2//6 8//6
f 3//7 10//7 6//7
f 6//8 10//8 3//8
f 11//1 1//1 6//1
f 6//2 1//2 11//2
f 1//1 11//1 7//1
f 7//2 11//2 1//2
f 7//1 12//1 4//1
f 4//2 12//2 7//2
f 8//9 12//9 4//9
f 4//10 12//10 8//10
f 10//7 3//7 9//7
f 9//8 3//8 10//8
f 13//1 5//1 9//1
f 9//2 5//2 13//2
f 13//1 8//1 5//1
f 5//2 8//2 13//2
f 14//11 6//11 10//11
f 10//12 6//12 14//12
f 6//11 14//11 11//11
f 11//12 14//12 6//12
f 15//1 7//1 11//1
f 11//2 7//2 15//2
f 12//1 7//1 16//1
f 16//2 7//2 12//2
f 12//9 8//9 17//9
f 17//10 8//10 12//10
f 13//1 9//1 10//1
f 10//2 9//2 13//2
f 8//1 13//1 18//1
f 18//2 13//2 8//2
f 14//1 13//1 10//1
f 10//2 13//2 14//2
f 19//13 11//13 14//13
f 14//14 11//14 19//14
f 7//1 15//1 16//1
f 16//2 15//2 7//2
f 11//13 19//13 15//13
f 15//14 19//14 11//14
f 16//1 20//1 12//1
f 12//2 20//2 16//2
f 18//1 17//1 8//1
f 8//2 17//2 18//2
f 17//15 20//15 12//15
f 12//16 20//16 17//16
f 13//1 14//1 18//1
f 18//2 14//2 13//2
f 19//1 18//1 14//1
f 14//2 18//2 19//2
f 21//1 16//1 15//1
f 15//2 16//2 21//2
f 19//17 21//17 15//17
f 15//18 21//18 19//18
f 20//1 16//1 22//1
f 22//2 16//2 20//2
f 17//1 18//1 23//1
f 23//2 18//2 17//2
f 20//15 17//15 24//15
f 24//16 17//16 20//16
f 18//1 19//1 23//1
f 23//2 19//2 18//2
f 16//1 21//1 22//1
f 22//2 21//2 16//2
f 21//17 19//17 25//17
f 25//18 19//18 21//18
f 26//1 20//1 22//1
f 22//2 20//2 26//2
f 23//1 24//1 17//1
f 17//2 24//2 23//2
f 24//19 27//19 20//19
f 20//20 27//20 24//20
f 25//1 23//1 19//1
f 19//2 23//2 25//2
f 28//1 22//1 21//1
f 21//2 22//2 28//2
f 25//21 28//21 21//21
f 21//22 28//22 25//22
f 20//1 26//1 27//1
f 27//2 26//2 20//2
f 22//1 28//1 26//1
f 26//2 28//2 22//2
f 24//1 23//1 29//1
f 29//2 23//2 24//2
f 27//19 24//19 30//19
f 30//20 24//20 27//20
f 23//1 25//1 29//1
f 29//2 25//2 23//2
f 28//21 25//21 31//21
f 31//22 25//22 28//22
f 32//1 27//1 26//1
f 26//2 27//2 32//2
f 33//1 26//1 28//1
f 28//2 26//2 33//2
f 34//1 24//1 29//1
f 29//2 24//2 34//2
f 24//1 34//1 30//1
f 30//2 34//2 24//2
f 30//23 35//23 27//23
f 27//24 35//24 30//24
f 31//1 29//1 25//1
f 25//2 29//2 31//2
f 31//25 33//25 28//25
f 28//26 33//26 31//26
f 27//1 32//1 35//1
f 35//2 32//2 27//2
f 26//1 33//1 32//1
f 32//2 33//2 26//2
f 29//1 31//1 34//1
f 34//2 31//2 29//2
f 36//1 30//1 34//1
f 34//2 30//2 36//2
f 35//23 30//23 37//23
f 37//24 30//24 35//24
f 33//25 31//25 38//25
f 38//26 31//26 33//26
f 39//1 35//1 32//1
f 32//2 35//2 39//2
f 40//1 32//1 33//1
f 33//2 32//2 40//2
f 38//1 34//1 31//1
f 31//2 34//2 38//2
f 30//1 36//1 37//1
f 37//2 36//2 30//2
f 34//1 38//1 36//1
f 36//2 38//2 34//2
f 37//27 41//27 35//27
f 35//28 41//28 37//28
f 38//29 40//29 33//29
f 33//30 40//30 38//30
f 35//1 39//1 41//1
f 41//2 39//2 35//2
f 32//1 40//1 39//1
f 39//2 40//2 32//2
f 42//1 37//1 36//1
f 36//2 37//2 42//2
f 43//1 36//1 38//1
f 38//2 36//2 43//2
f 41//27 37//27 44//27
f 44//28 37//28 41//28
f 40//29 38//29 43//29
f 43//30 38//30 40//30
f 45//1 41//1 39//1
f 39//2 41//2 45//2
f 40//1 45//1 39//1
f 39//2 45//2 40//2
f 37//1 42//1 44//1
f 44//2 42//2 37//2
f 36//1 43//1 42//1
f 42//2 43//2 36//2
f 44//31 46//31 41//31
f 41//32 46//32 44//32
f 43//33 47//33 40//33
f 40//34 47//34 43//34
f 41//1 45//1 46//1
f 46//2 45//2 41//2
f 45//1 40//1 47//1
f 47//2 40//2 45//2
f 48//1 44//1 42//1
f 42//2 44//2 48//2
f 43//1 48//1 42//1
f 42//2 48//2 43//2
f 46//31 44//31 49//31
f 49//32 44//32 46//32
f 47//33 43//33 50//33
f 50//34 43//34 47//34
f 51//1 46//1 45//1
f 45//2 46//2 51//2
f 47//1 51//1 45//1
f 45//2 51//2 47//2
f 44//1 48//1 49//1
f 49//2 48//2 44//2
f 48//1 43//1 50//1
f 50//2 43//2 48//2
f 49//35 52//35 46//35
f 46//36 52//36 49//36
f 50//37 53//37 47//37
f 47//38 53//38 50//38
f 46//1 51//1 52//1
f 52//2 51//2 46//2
f 51//1 47//1 53//1
f 53//2 47//2 51//2
f 54//1 49//1 48//1
f 48//2 49//2 54//2
f 50//1 54//1 48//1
f 48//2 54//2 50//2
f 52//35 49//35 55//35
f 55//36 49//36 52//36
f 53//37 50//37 56//37
f 56//38 50//38 53//38
f 57//1 52//1 51//1
f 51//2 52//2 57//2
f 53//1 57//1 51//1
f 51//2 57//2 53//2
f 49//1 54//1 55//1
f 55//2 54//2 49//2
f 54//1 50//1 56//1
f 56//2 50//2 54//2
f 55//39 58//39 52//39
f 52//40 58//40 55//40
f 56//41 59//41 53//41
f 53//42 59//42 56//42
f 52//1 57//1 58//1
f 58//2 57//2 52//2
f 57//1 53//1 59//1
f 59//2 53//2 57//2
f 60//1 55//1 54//1
f 54//2 55//2 60//2
f 56//1 60//1 54//1
f 54//2 60//2 56//2
f 58//39 55//39 61//39
f 61//40 55//40 58//40
f 59//41 56//41 62//41
f 62//42 56//42 59//42
f 63//1 58//1 57//1
f 57//2 58//2 63//2
f 59//1 63//1 57//1
f 57//2 63//2 59//2
f 55//1 60//1 61//1
f 61//2 60//2 55//2
f 60//1 56//1 62//1
f 62//2 56//2 60//2
f 61//43 64//43 58//43
f 58//44 64//44 61//44
f 62//45 65//45 59//45
f 59//46 65//46 62//46
f 58//1 63//1 64//1
f 64//2 63//2 58//2
f 63//1 59//1 65//1
f 65//2 59//2 63//2
f 66//1 61//1 60//1
f 60//2 61//2 66//2
f 62//1 66//1 60//1
f 60//2 66//2 62//2
f 64//43 61//43 67//43
f 67//44 61//44 64//44
f 65//45 62//45 68//45
f 68//46 62//46 65//46
f 69//1 64//1 63//1
f 63//2 64//2 69//2
f 65//1 69//1 63//1
f 63//2 69//2 65//2
f 61//1 66//1 67//1
f 67//2 66//2 61//2
f 66//1 62//1 68//1
f 68//2 62//2 66//2
f 70//47 64//47 67//47
f 67//48 64//48 70//48
f 71//49 65//49 68//49
f 68//50 65//50 71//50
f 64//1 69//1 72//1
f 72//2 69//2 64//2
f 69//1 65//1 73//1
f 73//2 65//2 69//2
f 74//1 67//1 66//1
f 66//2 67//2 74//2
f 68//1 74//1 66//1
f 66//2 74//2 68//2
f 64//47 70//47 72//47
f 72//48 70//48 64//48
f 67//1 74//1 70//1
f 70//2 74//2 67//2
f 65//49 71//49 73//49
f 73//50 71//50 65//50
f 74//1 68//1 71//1
f 71//2 68//2 74//2
f 75//1 72//1 69//1
f 69//2 72//2 75//2
f 73//1 75//1 69//1
f 69//2 75//2 73//2
f 76//51 72//51 70//51
f 70//52 72//52 76//52
f 77//1 70//1 74//1
f 74//2 70//2 77//2
f 78//53 73//53 71//53
f 71//54 73//54 78//54
f 71//1 77//1 74//1
f 74//2 77//2 71//2
f 72//1 75//1 79//1
f 79//2 75//2 72//2
f 75//1 73//1 80//1
f 80//2 73//2 75//2
f 72//51 76//51 79//51
f 79//52 76//52 72//52
f 70//1 77//1 76//1
f 76//2 77//2 70//2
f 73//53 78//53 80//53
f 80//54 78//54 73//54
f 77//1 71//1 78//1
f 78//2 71//2 77//2
f 81//1 79//1 75//1
f 75//2 79//2 81//2
f 80//1 81//1 75//1
f 75//2 81//2 80//2
f 82//55 79//55 76//55
f 76//56 79//56 82//56
f 83//1 76//1 77//1
f 77//2 76//2 83//2
f 84//57 80//57 78//57
f 78//58 80//58 84//58
f 78//1 83//1 77//1
f 77//2 83//2 78//2
f 79//1 81//1 85//1
f 85//2 81//2 79//2
f 81//1 80//1 86//1
f 86//2 80//2 81//2
f 79//55 82//55 85//55
f 85//56 82//56 79//56
f 76//1 83//1 82//1
f 82//2 83//2 76//2
f 80//57 84//57 86//57
f 86//58 84//58 80//58
f 83//1 78//1 84//1
f 84//2 78//2 83//2
f 85//1 81//1 87//1
f 87//2 81//2 85//2
f 86//1 87//1 81//1
f 81//2 87//2 86//2
f 88//59 85//59 82//59
f 82//60 85//60 88//60
f 82//1 83//1 88//1
f 88//2 83//2 82//2
f 88//61 86//61 84//61
f 84//62 86//62 88//62
f 84//1 88//1 83//1
f 83//2 88//2 84//2
f 85//59 88//59 87//59
f 87//60 88//60 85//60
f 86//61 88//61 87//61
f 87//62 88//62 86//62
