# SSTK version 0.8.0
# 27
mtllib original-27.mtl
o Group25/mesh26/mesh26-geometry#mesh26-geometry
v -0.056875 0.546250 0.785761
v -0.048037 0.549331 0.797261
v -0.056875 0.483824 0.802488
v -0.044236 0.487870 0.817591
v -0.062766 0.542728 0.772619
v -0.027637 0.553115 0.811384
v -0.064096 0.478967 0.784365
v -0.024892 0.490992 0.829242
v -0.065485 0.538529 0.756949
v -0.000905 0.523400 0.825338
v -0.064870 0.473071 0.762357
v -0.000905 0.539007 0.821156
v -0.000905 0.507794 0.829519
v -0.060935 0.531689 0.731422
v -0.000905 0.554613 0.816974
v -0.000905 0.492187 0.833701
v -0.056875 0.467097 0.740062
v -0.045452 0.525768 0.709321
v -0.040883 0.462318 0.722226
v -0.023344 0.522200 0.696006
v -0.020765 0.459543 0.711870
v -0.000905 0.489946 0.700486
v -0.000905 0.474340 0.704668
v -0.000905 0.505553 0.696304
v -0.000905 0.458733 0.708849
v -0.000905 0.521159 0.692122
vn 0.8660252130015254 -0.12941003182878932 -0.4829631187862425
vn 0.7279510321772563 -0.17849500788992562 -0.6619870292614823
vn 0.8660157206580141 -0.12479995974453134 -0.484191843819104
vn -0.8660157206580141 0.12479995974453134 0.484191843819104
vn -0.7279510321772563 0.17849500788992562 0.6619870292614823
vn -0.8660252130015254 0.12941003182878932 0.4829631187862425
vn 0.6364092670558404 -0.1983750832439551 -0.7454063127941714
vn -0.6364092670558404 0.1983750832439551 0.7454063127941714
vn 0.9510527439832933 -0.07922397867346231 -0.2987009195918142
vn -0.9510527439832933 0.07922397867346231 0.2987009195918142
vn 0.3533350050007504 -0.24503000346790949 -0.9028370127778523
vn -0.3533350050007504 0.24503000346790949 0.9028370127778523
vn 0.9821660456211229 -0.04278400198729551 -0.1830830085041144
vn -0.9821660456211229 0.04278400198729551 0.1830830085041144
vn 0.2804611122850127 -0.24895109966970858 -0.9270193711401592
vn -0.2804611122850127 0.24895109966970858 0.9270193711401592
vn 0.9999410750030829 -0.00675000050630068 -0.008502000637713837
vn -0.9999410750030829 0.00675000050630068 0.008502000637713837
vn 0.20051795114501028 -0.25652993749802727 -0.9455077696327332
vn -0.20051795114501028 0.25652993749802727 0.9455077696327332
vn 0.9877314511750874 0.04406502012798039 0.14981606843284953
vn -0.9877314511750874 -0.04406502012798039 -0.14981606843284953
vn 0.21160399265850538 -0.2529579912237489 -0.944052967246555
vn -0.21160399265850538 0.2529579912237489 0.944052967246555
vn 0.18898208024662733 -0.25415510792076246 -0.9485204027660358
vn -0.18898208024662733 0.25415510792076246 0.9485204027660358
vn 0.9337147066899109 0.08446397346712493 0.34791189070958517
vn -0.9337147066899109 -0.08446397346712493 -0.34791189070958517
vn 0.8537441176391177 0.1379440190075835 0.5020880691837241
vn -0.8537441176391177 -0.1379440190075835 -0.5020880691837241
vn 0.7154298578026065 0.17370996547375797 0.6767458654913586
vn -0.7154298578026065 -0.17370996547375797 -0.6767458654913586
vn 0.5926408954264489 0.2102249629050726 0.7775488627987938
vn -0.5926408954264489 -0.2102249629050726 -0.7775488627987938
vn 0.3083298891347667 0.24327491252638506 0.9196466693254656
vn -0.3083298891347667 -0.24327491252638506 -0.9196466693254656
vn 0.23943789839694374 0.251189893410103 0.9378556020304383
vn -0.23943789839694374 -0.251189893410103 -0.9378556020304383
vn 0.16618208668051593 0.25297113194965015 0.953094497133743
vn -0.16618208668051593 -0.25297113194965015 -0.953094497133743
vn 0.15554294934666907 0.25566891674015224 0.9541696892699204
vn -0.15554294934666907 -0.25566891674015224 -0.9541696892699204
vn 0.17636900745502992 0.25476201076866284 0.950784040189167
vn -0.17636900745502992 -0.25476201076866284 -0.950784040189167
usemtl material_0_0
f 1//1 2//2 3//3
f 3//4 2//5 1//6
f 2//2 4//7 3//3
f 3//4 4//8 2//5
f 5//9 1//1 3//3
f 3//4 1//6 5//10
f 6//11 4//7 2//2
f 2//5 4//8 6//12
f 5//9 3//3 7//13
f 7//14 3//4 5//10
f 6//11 8//15 4//7
f 4//8 8//16 6//12
f 9//17 5//9 7//13
f 7//14 5//10 9//18
f 6//11 10//19 8//15
f 8//16 10//20 6//12
f 9//17 7//13 11//21
f 11//22 7//14 9//18
f 6//11 12//23 10//19
f 10//20 12//24 6//12
f 10//19 13//25 8//15
f 8//16 13//26 10//20
f 14//27 9//17 11//21
f 11//22 9//18 14//28
f 15//23 12//23 6//11
f 6//12 12//24 15//24
f 13//25 16//25 8//15
f 8//16 16//26 13//26
f 14//27 11//21 17//29
f 17//30 11//22 14//28
f 18//31 14//27 17//29
f 17//30 14//28 18//32
f 18//31 17//29 19//33
f 19//34 17//30 18//32
f 18//31 19//33 20//35
f 20//36 19//34 18//32
f 20//35 19//33 21//37
f 21//38 19//34 20//36
f 20//35 21//37 22//39
f 22//40 21//38 20//36
f 22//39 21//37 23//41
f 23//42 21//38 22//40
f 20//35 22//39 24//43
f 24//44 22//40 20//36
f 23//41 21//37 25//41
f 25//42 21//38 23//42
f 20//35 24//43 26//43
f 26//44 24//44 20//36
