# SSTK version 0.8.0
# 39
mtllib original-39.mtl
o mesh37/mesh37-geometry#mesh37-geometry
v 0.173591 -0.575729 -0.128825
v 0.170238 -0.575729 -0.162867
v 0.096037 -0.575729 -0.115899
v 0.160308 -0.575729 -0.195602
v 0.170238 -0.575729 -0.094782
v 0.144183 -0.575729 -0.225770
v 0.096037 -0.575729 -0.108306
v 0.122482 -0.575729 -0.252212
v 0.096037 -0.575729 -0.100712
v 0.096040 -0.575729 -0.273913
v 0.096037 -0.575729 -0.093118
v 0.093577 -0.575729 -0.128265
v 0.096037 -0.575729 -0.085524
v 0.086572 -0.575729 -0.138749
v 0.160308 -0.575729 -0.062048
v 0.076089 -0.575729 -0.145754
v 0.144183 -0.575729 -0.031880
v 0.063723 -0.575729 -0.148213
v 0.122482 -0.575729 -0.005438
v 0.042719 -0.575729 -0.148213
v 0.096037 -0.575729 0.016264
v 0.065872 -0.575729 -0.290038
v 0.093666 -0.575729 -0.070547
v 0.021715 -0.575729 -0.148213
v 0.086778 -0.575729 -0.057031
v 0.033137 -0.575729 -0.299968
v 0.076059 -0.575729 -0.046312
v 0.000711 -0.575729 -0.148213
v 0.062543 -0.575729 -0.039425
v -0.000905 -0.575729 -0.303321
v 0.065872 -0.575729 0.032388
v -0.000905 -0.575729 -0.148213
v 0.047566 -0.575729 -0.037053
v -0.020293 -0.575729 -0.193453
v 0.033137 -0.575729 0.042318
v -0.022507 -0.575729 -0.204582
v -0.020293 -0.575729 -0.182143
v 0.023330 -0.575729 -0.037053
v -0.028812 -0.575729 -0.214017
v -0.020293 -0.575729 -0.170833
v -0.000905 -0.575729 0.045671
v -0.038247 -0.575729 -0.220322
v -0.020293 -0.575729 -0.159523
v -0.000905 -0.575729 -0.037053
v -0.034947 -0.575729 -0.299968
v -0.020293 -0.575729 -0.148213
v -0.025141 -0.575729 -0.037053
v -0.049376 -0.575729 -0.295591
v -0.034947 -0.575729 0.042318
v -0.049376 -0.575729 -0.222536
v -0.049376 -0.575729 0.037941
v -0.067682 -0.575729 -0.290038
v -0.049376 -0.575729 -0.037053
v -0.060506 -0.575729 -0.220322
v -0.067682 -0.575729 0.032388
v -0.097850 -0.575729 -0.273913
v -0.064353 -0.575729 -0.039425
v -0.069941 -0.575729 -0.214017
v -0.097847 -0.575729 0.016264
v -0.076245 -0.575729 -0.204582
v -0.077869 -0.575729 -0.046312
v -0.078459 -0.575729 -0.193453
v -0.088588 -0.575729 -0.057031
v -0.095465 -0.575729 -0.128077
v -0.095476 -0.575729 -0.070547
v -0.097847 -0.575729 -0.115899
v -0.078459 -0.575729 -0.181469
v -0.097847 -0.575729 -0.085524
v -0.124292 -0.575729 -0.252212
v -0.088667 -0.575729 -0.138461
v -0.124292 -0.575729 -0.005438
v -0.145993 -0.575729 -0.225770
v -0.078459 -0.575729 -0.169484
v -0.145993 -0.575729 -0.031880
v -0.162118 -0.575729 -0.195602
v -0.078459 -0.575729 -0.157500
v -0.162118 -0.575729 -0.062048
v -0.172048 -0.575729 -0.162867
v -0.078459 -0.575729 -0.145516
v -0.172048 -0.575729 -0.094782
v -0.175401 -0.575729 -0.128825
v -0.097847 -0.575729 -0.093118
v -0.097847 -0.575729 -0.100712
v -0.097847 -0.575729 -0.108306
vn 0 1 0
vn 0 -1 0
usemtl material_0_0
f 1//1 2//1 3//1
f 3//2 2//2 1//2
f 2//1 4//1 3//1
f 3//2 4//2 2//2
f 1//1 3//1 5//1
f 5//2 3//2 1//2
f 4//1 6//1 3//1
f 3//2 6//2 4//2
f 5//1 3//1 7//1
f 7//2 3//2 5//2
f 6//1 8//1 3//1
f 3//2 8//2 6//2
f 5//1 7//1 9//1
f 9//2 7//2 5//2
f 8//1 10//1 3//1
f 3//2 10//2 8//2
f 5//1 9//1 11//1
f 11//2 9//2 5//2
f 10//1 12//1 3//1
f 3//2 12//2 10//2
f 5//1 11//1 13//1
f 13//2 11//2 5//2
f 10//1 14//1 12//1
f 12//2 14//2 10//2
f 5//1 13//1 15//1
f 15//2 13//2 5//2
f 10//1 16//1 14//1
f 14//2 16//2 10//2
f 15//1 13//1 17//1
f 17//2 13//2 15//2
f 10//1 18//1 16//1
f 16//2 18//2 10//2
f 17//1 13//1 19//1
f 19//2 13//2 17//2
f 10//1 20//1 18//1
f 18//2 20//2 10//2
f 19//1 13//1 21//1
f 21//2 13//2 19//2
f 10//1 22//1 20//1
f 20//2 22//2 10//2
f 13//1 23//1 21//1
f 21//2 23//2 13//2
f 22//1 24//1 20//1
f 20//2 24//2 22//2
f 21//1 23//1 25//1
f 25//2 23//2 21//2
f 22//1 26//1 24//1
f 24//2 26//2 22//2
f 21//1 25//1 27//1
f 27//2 25//2 21//2
f 26//1 28//1 24//1
f 24//2 28//2 26//2
f 21//1 27//1 29//1
f 29//2 27//2 21//2
f 26//1 30//1 28//1
f 28//2 30//2 26//2
f 21//1 29//1 31//1
f 31//2 29//2 21//2
f 28//1 30//1 32//1
f 32//2 30//2 28//2
f 31//1 29//1 33//1
f 33//2 29//2 31//2
f 30//1 34//1 32//1
f 32//2 34//2 30//2
f 31//1 33//1 35//1
f 35//2 33//2 31//2
f 30//1 36//1 34//1
f 34//2 36//2 30//2
f 32//1 34//1 37//1
f 37//2 34//2 32//2
f 33//1 38//1 35//1
f 35//2 38//2 33//2
f 30//1 39//1 36//1
f 36//2 39//2 30//2
f 32//1 37//1 40//1
f 40//2 37//2 32//2
f 35//1 38//1 41//1
f 41//2 38//2 35//2
f 30//1 42//1 39//1
f 39//2 42//2 30//2
f 32//1 40//1 43//1
f 43//2 40//2 32//2
f 38//1 44//1 41//1
f 41//2 44//2 38//2
f 30//1 45//1 42//1
f 42//2 45//2 30//2
f 32//1 43//1 46//1
f 46//2 43//2 32//2
f 44//1 47//1 41//1
f 41//2 47//2 44//2
f 45//1 48//1 42//1
f 42//2 48//2 45//2
f 41//1 47//1 49//1
f 49//2 47//2 41//2
f 42//1 48//1 50//1
f 50//2 48//2 42//2
f 47//1 51//1 49//1
f 49//2 51//2 47//2
f 48//1 52//1 50//1
f 50//2 52//2 48//2
f 47//1 53//1 51//1
f 51//2 53//2 47//2
f 50//1 52//1 54//1
f 54//2 52//2 50//2
f 53//1 55//1 51//1
f 51//2 55//2 53//2
f 54//1 52//1 56//1
f 56//2 52//2 54//2
f 53//1 57//1 55//1
f 55//2 57//2 53//2
f 54//1 56//1 58//1
f 58//2 56//2 54//2
f 57//1 59//1 55//1
f 55//2 59//2 57//2
f 58//1 56//1 60//1
f 60//2 56//2 58//2
f 57//1 61//1 59//1
f 59//2 61//2 57//2
f 60//1 56//1 62//1
f 62//2 56//2 60//2
f 61//1 63//1 59//1
f 59//2 63//2 61//2
f 62//1 56//1 64//1
f 64//2 56//2 62//2
f 63//1 65//1 59//1
f 59//2 65//2 63//2
f 64//1 56//1 66//1
f 66//2 56//2 64//2
f 62//1 64//1 67//1
f 67//2 64//2 62//2
f 65//1 68//1 59//1
f 59//2 68//2 65//2
f 66//1 56//1 69//1
f 69//2 56//2 66//2
f 67//1 64//1 70//1
f 70//2 64//2 67//2
f 68//1 71//1 59//1
f 59//2 71//2 68//2
f 66//1 69//1 72//1
f 72//2 69//2 66//2
f 67//1 70//1 73//1
f 73//2 70//2 67//2
f 68//1 74//1 71//1
f 71//2 74//2 68//2
f 66//1 72//1 75//1
f 75//2 72//2 66//2
f 73//1 70//1 76//1
f 76//2 70//2 73//2
f 68//1 77//1 74//1
f 74//2 77//2 68//2
f 66//1 75//1 78//1
f 78//2 75//2 66//2
f 76//1 70//1 79//1
f 79//2 70//2 76//2
f 68//1 80//1 77//1
f 77//2 80//2 68//2
f 66//1 78//1 81//1
f 81//2 78//2 66//2
f 82//1 80//1 68//1
f 68//2 80//2 82//2
f 66//1 81//1 80//1
f 80//2 81//2 66//2
f 83//1 80//1 82//1
f 82//2 80//2 83//2
f 66//1 80//1 84//1
f 84//2 80//2 66//2
f 84//1 80//1 83//1
f 83//2 80//2 84//2
