# SSTK version 0.8.0
# 24
mtllib original-24.mtl
o Group22/mesh23/mesh23-geometry#mesh23-geometry
v -0.014240 -0.254938 -0.128825
v -0.015123 -0.250004 -0.085346
v -0.015123 -0.250004 -0.041867
v -0.015123 -0.250004 -0.128825
v -0.014240 -0.254938 0.045236
v -0.015123 -0.250004 0.001612
v -0.011210 -0.259800 -0.128825
v -0.015123 -0.250004 0.045091
v -0.011210 -0.259800 0.045381
v -0.006180 -0.263207 -0.128825
v -0.006180 -0.263207 0.045526
v -0.000368 -0.264212 -0.128825
v -0.000368 -0.264212 0.045671
v 0.003206 -0.263614 0.045574
v 0.003206 -0.263614 -0.128825
v 0.006204 -0.262317 0.045477
v 0.006204 -0.262317 -0.128825
v 0.009644 -0.259536 0.045348
v 0.009644 -0.259536 -0.128825
v 0.012298 -0.255281 0.045219
v 0.012298 -0.255281 -0.128825
v 0.013313 -0.250004 -0.041867
v 0.013313 -0.250004 0.001612
v 0.013313 -0.250004 -0.085346
v 0.013313 -0.250004 0.045091
v 0.013313 -0.250004 -0.128825
vn 0.9634069530348756 0.2680429869331727 0
vn 0.9843391633284578 0.17628502925044845 0
vn -0.9843391633284578 -0.17628502925044845 0
vn -0.9634069530348756 -0.2680429869331727 0
vn 0.9464333843987293 0.3228991311471232 0
vn -0.9464333843987293 -0.3228991311471232 0
vn 0.767580074989123 0.640953062618233 0
vn -0.767580074989123 -0.640953062618233 0
vn 0.6697287975152306 0.7426057754817177 0
vn -0.6697287975152306 -0.7426057754817177 0
vn 0.4393990003372387 0.8982920006894392 0
vn -0.4393990003372387 -0.8982920006894392 0
vn 0.3065920086236668 0.9518410267729089 0
vn -0.3065920086236668 -0.9518410267729089 0
vn 0.002803000200659784 0.9999960715872214 0
vn -0.002803000200659784 -0.9999960715872214 0
vn -0.24386786612816194 0.9698084676213633 0
vn 0.24386786612816194 -0.9698084676213633 0
vn -0.32184810737096037 0.9467913158567365 0
vn 0.32184810737096037 -0.9467913158567365 0
vn -0.47824989079738883 0.8782237994681569 0
vn 0.47824989079738883 -0.8782237994681569 0
vn -0.5560211121313989 0.8311681676196234 0
vn 0.5560211121313989 -0.8311681676196234 0
vn -0.7106851814646008 0.7035101796325535 0
vn 0.7106851814646008 -0.7035101796325535 0
vn -0.7849112544741568 0.6196082008816584 0
vn 0.7849112544741568 -0.6196082008816584 0
vn -0.9438526034413557 0.33036686119672276 0
vn 0.9438526034413557 -0.33036686119672276 0
vn -0.9607233012862371 0.277508087027521 0
vn 0.9607233012862371 -0.277508087027521 0
vn -0.9819805675923172 0.18898191678324866 0
vn 0.9819805675923172 -0.18898191678324866 0
usemtl material_0_0
f 1//1 2//2 3//2
f 3//3 2//3 1//4
f 4//2 2//2 1//1
f 1//4 2//3 4//3
f 1//1 3//2 5//5
f 5//6 3//3 1//4
f 3//2 6//2 5//5
f 5//6 6//3 3//3
f 1//1 5//5 7//7
f 7//8 5//6 1//4
f 6//2 8//2 5//5
f 5//6 8//3 6//3
f 7//7 5//5 9//9
f 9//10 5//6 7//8
f 10//11 7//7 9//9
f 9//10 7//8 10//12
f 10//11 9//9 11//13
f 11//14 9//10 10//12
f 12//15 10//11 11//13
f 11//14 10//12 12//16
f 12//15 11//13 13//15
f 13//16 11//14 12//16
f 14//17 12//15 13//15
f 13//16 12//16 14//18
f 15//19 12//15 14//17
f 14//18 12//16 15//20
f 16//21 15//19 14//17
f 14//18 15//20 16//22
f 17//23 15//19 16//21
f 16//22 15//20 17//24
f 18//25 17//23 16//21
f 16//22 17//24 18//26
f 19//27 17//23 18//25
f 18//26 17//24 19//28
f 19//27 18//25 20//29
f 20//30 18//26 19//28
f 21//31 19//27 20//29
f 20//30 19//28 21//32
f 21//31 20//29 22//33
f 22//34 20//30 21//32
f 22//33 20//29 23//33
f 23//34 20//30 22//34
f 21//31 22//33 24//33
f 24//34 22//34 21//32
f 23//33 20//29 25//33
f 25//34 20//30 23//34
f 21//31 24//33 26//33
f 26//34 24//34 21//32
