# SSTK version 0.8.0
# 6
mtllib original-6.mtl
o Group6/mesh6/mesh6-geometry#mesh6-geometry
v 0.063675 0.069905 -0.126339
v 0.062286 -0.036731 -0.115274
v 0.055064 0.069905 -0.096511
v 0.063060 -0.036731 -0.138057
v 0.055064 -0.036731 -0.096511
v 0.059124 0.069905 -0.152767
v 0.046227 0.069905 -0.084606
v 0.055064 -0.036731 -0.161139
v 0.042426 -0.036731 -0.080875
v 0.043642 0.069905 -0.175647
v 0.025827 0.069905 -0.069984
v 0.039073 -0.036731 -0.179604
v 0.023082 -0.036731 -0.068813
v 0.021534 0.069905 -0.189432
v -0.000905 0.016587 -0.064197
v 0.018955 -0.036731 -0.190326
v -0.000905 -0.010072 -0.064197
v -0.000905 0.043246 -0.064197
v -0.000905 0.016587 -0.193453
v -0.000905 -0.036731 -0.064197
v -0.000905 0.069905 -0.064197
v -0.000905 0.043246 -0.193453
v -0.000905 -0.010072 -0.193453
v -0.000905 0.069905 -0.193453
v -0.000905 -0.036731 -0.193453
vn -0.9988244844694462 -0.006692003245886685 -0.048009023286278305
vn -0.9741828407746986 -0.0022799996273454412 -0.22574896310246376
vn -0.9094971125457271 -0.0054850006787413585 -0.4156740514375886
vn 0.9094971125457271 0.0054850006787413585 0.4156740514375886
vn 0.9741828407746986 0.0022799996273454412 0.22574896310246376
vn 0.9988244844694462 0.006692003245886685 0.048009023286278305
vn -0.9877357494924665 0.002295999417693259 0.15611796040568016
vn 0.9877357494924665 -0.002295999417693259 -0.15611796040568016
vn -0.8460759101293986 0.001927999795207027 -0.5330589433782155
vn 0.8460759101293986 -0.001927999795207027 0.5330589433782155
vn -0.9337358900264607 -0.005127999396034602 0.357925957844199
vn 0.9337358900264607 0.005127999396034602 -0.357925957844199
vn -0.7279499537329582 -0.0006539999584329197 -0.6856299564227325
vn 0.7279499537329582 0.0006539999584329197 0.6856299564227325
vn -0.853747821562882 0.0019959995828270328 0.520682891174944
vn 0.853747821562882 -0.0019959995828270328 -0.520682891174944
vn -0.6364097824315795 0.0007939997285567216 -0.7713507362995259
vn 0.6364097824315795 -0.0007939997285567216 0.7713507362995259
vn -0.7154449014764471 -0.004462999385402784 0.6986549037885892
vn 0.7154449014764471 0.004462999385402784 -0.6986549037885892
vn -0.35333798352455686 -0.0018239999149503262 -0.9354939563797888
vn 0.35333798352455686 0.0018239999149503262 0.9354939563797888
vn -0.5926427611419023 0.0011019995558511114 0.805464675366388
vn 0.5926427611419023 -0.0011019995558511114 -0.805464675366388
vn -0.28046201992051684 -0.00032600002315475433 -0.9598650681768186
vn 0.28046201992051684 0.00032600002315475433 0.9598650681768186
vn -0.30833411207746597 -0.0018410006691921097 0.9512763457828313
vn 0.30833411207746597 0.0018410006691921097 -0.9512763457828313
vn -0.200519008274016 -0.0018630000768727563 -0.9796880404248685
vn 0.200519008274016 0.0018630000768727563 0.9796880404248685
vn -0.23943791960190802 -0.00006299997884618073 0.9709116739887892
vn 0.23943791960190802 0.00006299997884618073 -0.9709116739887892
vn -0.18898191678324866 0 -0.9819805675923172
vn 0.18898191678324866 0 0.9819805675923172
vn -0.21160389382227118 0 -0.9773555095865848
vn 0.21160389382227118 0 0.9773555095865848
vn -0.16618298693419553 -0.001410999889063179 0.9860939224703406
vn 0.16618298693419553 0.001410999889063179 -0.9860939224703406
vn -0.17636902106401797 0 0.9843241175593128
vn 0.17636902106401797 0 -0.9843241175593128
vn -0.15554301881370697 0 0.9878291194828784
vn 0.15554301881370697 0 -0.9878291194828784
usemtl material_0_0
f 1//1 2//2 3//3
f 3//4 2//5 1//6
f 4//7 2//2 1//1
f 1//6 2//5 4//8
f 2//2 5//9 3//3
f 3//4 5//10 2//5
f 6//11 4//7 1//1
f 1//6 4//8 6//12
f 5//9 7//13 3//3
f 3//4 7//14 5//10
f 8//15 4//7 6//11
f 6//12 4//8 8//16
f 5//9 9//17 7//13
f 7//14 9//18 5//10
f 10//19 8//15 6//11
f 6//12 8//16 10//20
f 7//13 9//17 11//21
f 11//22 9//18 7//14
f 12//23 8//15 10//19
f 10//20 8//16 12//24
f 11//21 9//17 13//25
f 13//26 9//18 11//22
f 14//27 12//23 10//19
f 10//20 12//24 14//28
f 11//21 13//25 15//29
f 15//30 13//26 11//22
f 14//27 16//31 12//23
f 12//24 16//32 14//28
f 15//29 13//25 17//33
f 17//34 13//26 15//30
f 11//21 15//29 18//35
f 18//36 15//30 11//22
f 14//27 19//37 16//31
f 16//32 19//38 14//28
f 17//33 13//25 20//33
f 20//34 13//26 17//34
f 11//21 18//35 21//35
f 21//36 18//36 11//22
f 14//27 22//39 19//37
f 19//38 22//40 14//28
f 19//37 23//41 16//31
f 16//32 23//42 19//38
f 14//27 24//39 22//39
f 22//40 24//40 14//28
f 23//41 25//41 16//31
f 16//32 25//42 23//42
