# SSTK version 0.8.0
# 9
mtllib original-9.mtl
o Component_14_1/Component_14/mesh6/mesh6-geometry#mesh6-geometry
v 0.068759 -0.027826 0.996112
v 0.067080 0.030366 0.997790
v 0.067080 -0.027826 0.997790
v 0.068759 0.030366 0.996112
v -0.125401 -0.027826 0.997790
v 0.067080 -0.029504 0.996112
v 0.068759 -0.027826 -0.187873
v 0.067080 0.032045 0.996112
v -0.125401 0.030366 0.997790
v 0.067080 -0.029504 -0.187873
v 0.068759 0.030366 -0.187873
v -0.125401 0.032045 0.996112
v -0.127080 0.030366 0.996112
v -0.125401 -0.029504 0.996112
v 0.067080 -0.027826 -0.189552
v -0.125401 0.032045 -0.187873
v 0.067080 0.032045 -0.187873
v -0.127080 -0.027826 0.996112
v -0.125401 -0.029504 -0.187873
v 0.067080 0.030366 -0.189552
v -0.125401 -0.027826 -0.189552
v -0.127080 0.030366 -0.187873
v -0.127080 -0.027826 -0.187873
v -0.125401 0.030366 -0.189552
vn 0.7071067811865475 0 0.7071067811865475
vn 0 0 1
vn 0.5773502691896257 -0.5773502691896258 0.5773502691896256
vn 1 0 0
vn 0.5773502691896257 0.5773502691896256 0.5773502691896258
vn 0 -0.7071067811865476 0.7071067811865474
vn 0.7071067811865475 -0.7071067811865475 0
vn 0 0.7071067811865474 0.7071067811865476
vn 0.7071067811865475 0.7071067811865475 0
vn -0.7071067811865475 0 0.7071067811865475
vn 0 -1 0
vn 0.7071067811865475 0 -0.7071067811865475
vn 0.5773502691896257 -0.5773502691896256 -0.5773502691896258
vn 0 1 0
vn -0.5773502691896257 0.5773502691896256 0.5773502691896258
vn -0.5773502691896257 -0.5773502691896258 0.5773502691896256
vn 0 -0.7071067811865474 -0.7071067811865476
vn -0.7071067811865475 0.7071067811865475 0
vn 0.5773502691896257 0.5773502691896258 -0.5773502691896256
vn -1 0 0
vn -0.7071067811865475 -0.7071067811865475 0
vn 0 0 -1
vn 0 0.7071067811865476 -0.7071067811865474
vn -0.5773502691896257 -0.5773502691896256 -0.5773502691896258
vn -0.7071067811865475 0 -0.7071067811865475
vn -0.5773502691896257 0.5773502691896258 -0.5773502691896256
usemtl material_0_0
f 1//1 2//1 3//1
f 2//1 1//1 4//1
f 2//2 5//2 3//2
f 1//3 3//3 6//3
f 7//4 4//4 1//4
f 8//5 2//5 4//5
f 5//2 2//2 9//2
f 5//6 6//6 3//6
f 10//7 1//7 6//7
f 4//4 7//4 11//4
f 1//7 10//7 7//7
f 12//8 2//8 8//8
f 11//9 8//9 4//9
f 2//8 12//8 9//8
f 13//10 5//10 9//10
f 6//6 5//6 14//6
f 14//11 10//11 6//11
f 15//12 11//12 7//12
f 15//13 7//13 10//13
f 8//14 16//14 12//14
f 8//9 11//9 17//9
f 13//15 9//15 12//15
f 5//10 13//10 18//10
f 14//16 5//16 18//16
f 10//11 14//11 19//11
f 11//12 15//12 20//12
f 10//17 21//17 15//17
f 16//14 8//14 17//14
f 16//18 13//18 12//18
f 20//19 17//19 11//19
f 22//20 18//20 13//20
f 23//21 14//21 18//21
f 14//21 23//21 19//21
f 21//17 10//17 19//17
f 15//22 24//22 20//22
f 24//22 15//22 21//22
f 20//23 16//23 17//23
f 13//18 16//18 22//18
f 18//20 22//20 23//20
f 21//24 19//24 23//24
f 16//23 20//23 24//23
f 23//25 24//25 21//25
f 24//26 22//26 16//26
f 24//25 23//25 22//25
usemtl material_1_0
f 3//25 2//25 1//25
f 4//25 1//25 2//25
f 3//22 5//22 2//22
f 6//26 3//26 1//26
f 1//20 4//20 7//20
f 4//24 2//24 8//24
f 9//22 2//22 5//22
f 3//23 6//23 5//23
f 6//18 1//18 10//18
f 11//20 7//20 4//20
f 7//18 10//18 1//18
f 8//17 2//17 12//17
f 4//21 8//21 11//21
f 9//17 12//17 2//17
f 9//12 5//12 13//12
f 14//23 5//23 6//23
f 6//14 10//14 14//14
f 7//10 11//10 15//10
f 10//15 7//15 15//15
f 12//11 16//11 8//11
f 17//21 11//21 8//21
f 12//13 9//13 13//13
f 18//12 13//12 5//12
f 18//19 5//19 14//19
f 19//14 14//14 10//14
f 20//10 15//10 11//10
f 15//8 21//8 10//8
f 17//11 8//11 16//11
f 12//7 13//7 16//7
f 11//16 17//16 20//16
f 13//4 18//4 22//4
f 18//9 14//9 23//9
f 19//9 23//9 14//9
f 19//8 10//8 21//8
f 20//2 24//2 15//2
f 21//2 15//2 24//2
f 17//6 16//6 20//6
f 22//7 16//7 13//7
f 23//4 22//4 18//4
f 23//5 19//5 21//5
f 24//6 20//6 16//6
f 21//1 24//1 23//1
f 16//3 22//3 24//3
f 22//1 23//1 24//1
