mtllib new-0.mtl
v 0.911024 -0.460984 0.007212
v 0.457582 -0.460984 -0.006392
v 0.457582 -0.460984 0.007212
v 0.911024 -0.460984 -0.006392
v 0.004139 -0.460984 0.007212
v 0.457582 -0.458717 0.007212
v 0.911024 -0.463252 -0.010926
v 0.911024 -0.458717 -0.006392
v 0.004139 -0.460984 -0.006392
v 0.911024 -0.458717 0.007212
v 0.911024 -0.463252 0.011746
v 0.457582 -0.458717 -0.006392
v -0.449303 -0.460984 0.007212
v 0.004139 -0.458717 -0.006392
v 0.004139 -0.458717 0.007212
v 0.911024 -0.458717 0.011746
v 0.457582 -0.463252 -0.010926
v 0.911024 -0.458717 -0.010926
v -0.449303 -0.460984 -0.006392
v -0.449303 -0.458717 -0.006392
v -0.449303 -0.463252 -0.010926
v 0.457582 -0.460984 -0.010926
v -0.902745 -0.460984 -0.006392
v -0.449303 -0.458717 0.007212
v -0.902745 -0.463252 0.011746
v 0.457582 -0.463252 -0.024529
v -0.902745 -0.460984 -0.010926
v -0.902745 -0.460984 0.007212
v -0.902745 -0.458717 -0.006392
v -0.902745 -0.458717 0.011746
v -0.902745 -0.463252 -0.010926
v -0.449303 -0.460984 -0.010926
v -0.449303 -0.463252 -0.024529
v 0.457582 -0.460984 -0.024529
v -0.902745 -0.458717 -0.010926
v -0.902745 -0.458717 0.007212
v -0.449303 -0.460984 -0.024529
vn 0.000000 1.000000 0.000000
vn 0.000000 -1.000000 0.000000
vn 0.000000 0.000000 -1.000000
vn 0.000000 0.000000 1.000000
vn 1.000000 0.000000 0.000000
vn -1.000000 0.000000 0.000000
vt 3.243738 0.161175
vt 2.514663 0.183047
vt 2.514663 0.161175
vt 3.243738 0.183047
vt -1.785587 0.161175
vt -2.514663 0.183047
vt -2.514663 0.161175
vt -2.514663 0.003645
vt -3.243738 0.000000
vt -2.514663 0.000000
vt 0.161175 0.000000
vt 0.190338 -0.003645
vt 0.183047 0.000000
vt 3.243738 0.003645
vt 2.514663 0.000000
vt 3.243738 0.000000
vt -1.785587 0.183047
vt 2.514663 0.003645
vt 1.785587 0.000000
vt -3.243738 0.003645
vt 0.153884 -0.003645
vt 0.183047 0.003645
vt -1.056512 0.161175
vt -1.785587 0.003645
vt -1.785587 0.000000
vt 1.785587 0.003645
vt 1.785587 0.183047
vt -3.243738 0.153884
vt -3.243738 0.161175
vt 0.161175 0.003645
vt 2.514663 0.190338
vt 3.243738 0.153884
vt 3.243738 0.190338
vt 0.190338 0.003645
vt -1.056512 0.183047
vt 1.056512 0.000000
vt -1.056512 0.003645
vt 0.153884 0.003645
vt 1.056512 0.190338
vt -3.243738 -0.003645
vt -2.514663 -0.003645
vt 0.327436 0.183047
vt 1.056512 0.161175
vt 1.056512 0.183047
vt -1.056512 0.000000
vt 1.056512 0.003645
vt -0.327436 -0.003645
vt 0.327436 0.153884
vt 1.056512 -0.003645
vt 2.514663 -0.003645
vt -1.056512 0.190338
vt -2.514663 0.212210
vt -2.514663 0.190338
vt 0.212210 -0.003645
vt 0.190338 0.000000
vt -0.327436 0.000000
vt 0.327436 0.161175
vt 0.327436 0.000000
vt -0.327436 0.153884
vt -0.327436 0.003645
vt 0.327436 0.190338
vt -1.056512 0.212210
vt 0.212210 0.000000
vt -0.190338 -0.003645
vt -0.161175 0.000000
vt -0.183047 0.000000
vt 0.327436 0.003645
vt -0.327436 0.161175
vt -0.161175 0.003645
vt -0.153884 -0.003645
vt -0.153884 0.003645
vt -1.056512 -0.003645
vt 1.056512 0.212210
vt -0.212210 0.000000
vt -0.190338 0.000000
vt -0.212210 -0.003645
vt 2.514663 0.212210
vt -0.190338 0.003645
vt -0.183047 0.003645
usemtl material-0
f 1/1/1 2/2/1 3/3/1
f 2/2/1 1/1/1 4/4/1
f 3/3/2 2/2/2 1/1/2
f 4/4/2 1/1/2 2/2/2
f 5/5/2 2/6/2 3/7/2
f 3/7/1 2/6/1 5/5/1
f 6/8/3 1/9/3 3/10/3
f 3/10/4 1/9/4 6/8/4
f 1/11/5 7/12/5 4/13/5
f 4/13/6 7/12/6 1/11/6
f 8/14/4 2/15/4 4/16/4
f 4/16/3 2/15/3 8/14/3
f 2/6/2 5/5/2 9/17/2
f 9/17/1 5/5/1 2/6/1
f 6/18/4 5/19/4 3/15/4
f 3/15/3 5/19/3 6/18/3
f 1/9/3 6/8/3 10/20/3
f 10/20/4 6/8/4 1/9/4
f 1/11/5 11/21/5 7/12/5
f 7/12/6 11/21/6 1/11/6
f 4/13/5 7/12/5 8/22/5
f 8/22/6 7/12/6 4/13/6
f 2/15/4 8/14/4 12/18/4
f 12/18/3 8/14/3 2/15/3
f 13/23/2 9/17/2 5/5/2
f 5/5/1 9/17/1 13/23/1
f 14/24/3 2/10/3 9/25/3
f 9/25/4 2/10/4 14/24/4
f 5/19/4 6/18/4 15/26/4
f 15/26/3 6/18/3 5/19/3
f 16/28/2 6/7/2 10/29/2
f 10/29/1 6/7/1 16/28/1
f 10/30/5 11/21/5 1/11/5
f 1/11/6 11/21/6 10/30/6
f 17/31/1 11/32/1 7/33/1
f 7/33/2 11/32/2 17/31/2
f 8/22/5 7/12/5 18/34/5
f 18/34/6 7/12/6 8/22/6
f 18/33/1 12/2/1 8/4/1
f 8/4/2 12/2/2 18/33/2
f 2/10/3 14/24/3 12/8/3
f 12/8/4 14/24/4 2/10/4
f 9/17/2 13/23/2 19/35/2
f 19/35/1 13/23/1 9/17/1
f 15/26/4 13/36/4 5/19/4
f 5/19/3 13/36/3 15/26/3
f 9/25/3 20/37/3 14/24/3
f 14/24/4 20/37/4 9/25/4
f 16/28/2 15/5/2 6/7/2
f 6/7/1 15/5/1 16/28/1
f 11/21/5 10/30/5 16/38/5
f 16/38/6 10/30/6 11/21/6
f 21/39/1 11/32/1 17/31/1
f 17/31/2 11/32/2 21/39/2
f 22/10/3 7/40/3 17/41/3
f 17/41/4 7/40/4 22/10/4
f 7/40/3 22/10/3 18/20/3
f 18/20/4 22/10/4 7/40/4
f 18/33/1 14/27/1 12/2/1
f 12/2/2 14/27/2 18/33/2
f 23/42/1 13/43/1 19/44/1
f 19/44/2 13/43/2 23/42/2
f 20/37/3 9/25/3 19/45/3
f 19/45/4 9/25/4 20/37/4
f 13/36/4 15/26/4 24/46/4
f 24/46/3 15/26/3 13/36/3
f 18/33/1 20/44/1 14/27/1
f 14/27/2 20/44/2 18/33/2
f 16/28/2 24/23/2 15/5/2
f 15/5/1 24/23/1 16/28/1
f 25/47/3 16/20/3 11/40/3
f 11/40/4 16/20/4 25/47/4
f 21/39/1 25/48/1 11/32/1
f 11/32/2 25/48/2 21/39/2
f 22/15/4 21/49/4 17/50/4
f 17/50/3 21/49/3 22/15/3
f 21/51/2 26/52/2 17/53/2
f 17/53/1 26/52/1 21/51/1
f 26/54/5 22/55/5 17/12/5
f 17/12/6 22/55/6 26/54/6
f 18/20/3 22/10/3 27/56/3
f 27/56/4 22/10/4 18/20/4
f 13/43/1 23/42/1 28/57/1
f 28/57/2 23/42/2 13/43/2
f 20/46/4 23/58/4 19/36/4
f 19/36/3 23/58/3 20/46/3
f 28/56/3 24/37/3 13/45/3
f 13/45/4 24/37/4 28/56/4
f 18/33/1 29/42/1 20/44/1
f 20/44/2 29/42/2 18/33/2
f 30/59/2 24/23/2 16/28/2
f 16/28/1 24/23/1 30/59/1
f 16/20/3 25/47/3 30/60/3
f 30/60/4 25/47/4 16/20/4
f 25/48/1 21/39/1 31/61/1
f 31/61/2 21/39/2 25/48/2
f 21/49/4 22/15/4 32/36/4
f 32/36/3 22/15/3 21/49/3
f 26/52/2 21/51/2 33/62/2
f 33/62/1 21/51/1 26/52/1
f 22/55/5 26/54/5 34/63/5
f 34/63/6 26/54/6 22/55/6
f 27/56/3 22/10/3 32/45/3
f 32/45/4 22/10/4 27/56/4
f 18/20/3 27/56/3 35/60/3
f 35/60/4 27/56/4 18/20/4
f 31/64/6 28/65/6 23/66/6
f 23/66/5 28/65/5 31/64/5
f 23/58/4 20/46/4 29/67/4
f 29/67/3 20/46/3 23/58/3
f 24/37/3 28/56/3 36/60/3
f 36/60/4 28/56/4 24/37/4
f 29/42/1 18/33/1 35/61/1
f 35/61/2 18/33/2 29/42/2
f 24/23/2 30/59/2 36/68/2
f 36/68/1 30/59/1 24/23/1
f 36/69/6 25/70/6 30/71/6
f 30/71/5 25/70/5 36/69/5
f 31/47/3 32/45/3 21/72/3
f 21/72/4 32/45/4 31/47/4
f 25/70/6 28/65/6 31/64/6
f 31/64/5 28/65/5 25/70/5
f 22/31/1 37/73/1 32/39/1
f 32/39/2 37/73/2 22/31/2
f 37/74/6 21/64/6 32/75/6
f 32/75/5 21/64/5 37/74/5
f 21/64/6 37/74/6 33/76/6
f 33/76/5 37/74/5 21/64/5
f 37/45/3 26/41/3 33/72/3
f 33/72/4 26/41/4 37/45/4
f 26/41/3 37/45/3 34/10/3
f 34/10/4 37/45/4 26/41/4
f 37/73/1 22/31/1 34/77/1
f 34/77/2 22/31/2 37/73/2
f 32/45/3 31/47/3 27/56/3
f 27/56/4 31/47/4 32/45/4
f 31/64/6 35/78/6 27/75/6
f 27/75/5 35/78/5 31/64/5
f 31/64/6 23/66/6 35/78/6
f 35/78/5 23/66/5 31/64/5
f 35/78/6 23/66/6 29/79/6
f 29/79/5 23/66/5 35/78/5
f 25/70/6 36/69/6 28/65/6
f 28/65/5 36/69/5 25/70/5