# SSTK version 0.8.0
# 10
mtllib original-10.mtl
o Group7/mesh24/mesh24-geometry#mesh24-geometry
v 0.003063 0.013281 0.096688
v -0.002346 0.013281 0.080111
v -0.002346 0.013281 0.096688
v 0.003063 0.013281 0.080111
v -0.007571 0.011881 0.080111
v -0.012255 0.009176 0.096688
v 0.008288 0.011880 0.096688
v -0.012255 0.009176 0.080111
v -0.007571 0.011881 0.096688
v -0.016080 0.005352 0.096688
v 0.008288 0.011880 0.080111
v -0.016080 0.005352 0.080111
v 0.012973 0.009176 0.080111
v -0.018785 0.000667 0.096688
v -0.018785 0.000667 0.080111
v 0.012973 0.009176 0.096688
v 0.016797 0.005351 0.080111
v -0.020185 -0.004558 0.080111
v -0.020185 -0.004558 0.096688
v 0.016797 0.005351 0.096688
v 0.019502 0.000666 0.080111
v -0.020185 -0.009967 0.080111
v -0.020185 -0.009967 0.096688
v 0.019502 0.000666 0.096688
v 0.020902 -0.004558 0.080111
v -0.018785 -0.015192 0.080111
v -0.018785 -0.015192 0.096688
v 0.020902 -0.004558 0.096688
v 0.020902 -0.009968 0.080111
v -0.016081 -0.019876 0.080111
v -0.016081 -0.019876 0.096688
v 0.020902 -0.009968 0.096688
v 0.019502 -0.015192 0.080111
v -0.012256 -0.023701 0.080111
v -0.012256 -0.023701 0.096688
v 0.019502 -0.015192 0.096688
v 0.016797 -0.019877 0.096688
v -0.007571 -0.026406 0.080111
v -0.007571 -0.026406 0.096688
v 0.016797 -0.019877 0.080111
v -0.002347 -0.027806 0.096688
v 0.012972 -0.023702 0.096688
v -0.002347 -0.027806 0.080111
v 0.012972 -0.023702 0.080111
v 0.003063 -0.027806 0.096688
v 0.003063 -0.027806 0.080111
v 0.008287 -0.026406 0.096688
v 0.008287 -0.026406 0.080111
vn 0.13054382846402338 0.9914425393586639 0
vn -0.13050884386854614 0.9914471451732036 0
vn 0.13050884386854614 -0.9914471451732036 0
vn -0.13054382846402338 -0.9914425393586639 0
vn -0.3826671844477305 0.9238862624516324 0
vn 0.3826671844477305 -0.9238862624516324 0
vn 0 0 1
vn 0 0 -1
vn 0.38269968016409006 0.9238728022851973 0
vn -0.38269968016409006 -0.9238728022851973 0
vn -0.608747406329603 0.7933641000744747 0
vn 0.608747406329603 -0.7933641000744747 0
vn -0.7933427570592558 0.6087752210969322 0
vn 0.7933427570592558 -0.6087752210969322 0
vn 0.6087752210969322 0.7933427570592558 0
vn -0.6087752210969322 -0.7933427570592558 0
vn -0.9238728022851973 0.38269968016409006 0
vn 0.9238728022851973 -0.38269968016409006 0
vn 0.7933641000744747 0.608747406329603 0
vn -0.7933641000744747 -0.608747406329603 0
vn -0.9914425393586639 0.13054382846402338 0
vn 0.9914425393586639 -0.13054382846402338 0
vn 0.9238862624516324 0.3826671844477305 0
vn -0.9238862624516324 -0.3826671844477305 0
vn -0.9914471451732036 -0.13050884386854614 0
vn 0.9914471451732036 0.13050884386854614 0
usemtl material_0_0
f 1//1 2//2 3//2
f 2//2 1//1 4//1
f 3//3 2//3 1//4
f 4//4 1//4 2//3
f 5//5 3//2 2//2
f 2//3 3//3 5//6
f 3//7 6//7 1//7
f 1//8 6//8 3//8
f 7//9 4//1 1//1
f 1//4 4//4 7//10
f 8//8 2//8 4//8
f 4//7 2//7 8//7
f 3//2 5//5 9//5
f 9//6 5//6 3//3
f 2//8 8//8 5//8
f 5//7 8//7 2//7
f 6//7 3//7 9//7
f 9//8 3//8 6//8
f 1//7 6//7 10//7
f 10//8 6//8 1//8
f 4//1 7//9 11//9
f 11//10 7//10 4//4
f 1//7 10//7 7//7
f 7//8 10//8 1//8
f 8//8 4//8 12//8
f 12//7 4//7 8//7
f 8//11 9//5 5//5
f 5//6 9//6 8//12
f 9//5 8//11 6//11
f 6//12 8//12 9//6
f 6//11 12//13 10//13
f 10//14 12//14 6//12
f 7//9 13//15 11//9
f 11//10 13//16 7//10
f 12//8 4//8 11//8
f 11//7 4//7 12//7
f 7//7 10//7 14//7
f 14//8 10//8 7//8
f 12//13 6//11 8//11
f 8//12 6//12 12//14
f 15//17 10//13 12//13
f 12//14 10//14 15//18
f 13//15 7//9 16//15
f 16//16 7//10 13//16
f 15//8 11//8 13//8
f 13//7 11//7 15//7
f 12//8 11//8 15//8
f 15//7 11//7 12//7
f 10//13 15//17 14//17
f 14//18 15//18 10//14
f 7//7 14//7 16//7
f 16//8 14//8 7//8
f 16//15 17//19 13//15
f 13//16 17//20 16//16
f 15//8 13//8 18//8
f 18//7 13//7 15//7
f 15//17 19//21 14//17
f 14//18 19//22 15//18
f 16//7 14//7 19//7
f 19//8 14//8 16//8
f 17//19 16//15 20//19
f 20//20 16//16 17//20
f 18//8 13//8 17//8
f 17//7 13//7 18//7
f 19//21 15//17 18//21
f 18//22 15//18 19//22
f 16//7 19//7 20//7
f 20//8 19//8 16//8
f 20//19 21//23 17//19
f 17//20 21//24 20//20
f 18//8 17//8 22//8
f 22//7 17//7 18//7
f 18//21 23//25 19//21
f 19//22 23//26 18//22
f 20//7 19//7 23//7
f 23//8 19//8 20//8
f 21//23 20//19 24//23
f 24//24 20//20 21//24
f 22//8 17//8 21//8
f 21//7 17//7 22//7
f 23//25 18//21 22//25
f 22//26 18//22 23//26
f 20//7 23//7 24//7
f 24//8 23//8 20//8
f 24//23 25//26 21//23
f 21//24 25//25 24//24
f 22//8 21//8 26//8
f 26//7 21//7 22//7
f 22//25 27//24 23//25
f 23//26 27//23 22//26
f 24//7 23//7 27//7
f 27//8 23//8 24//8
f 25//26 24//23 28//26
f 28//25 24//24 25//25
f 26//8 21//8 25//8
f 25//7 21//7 26//7
f 27//24 22//25 26//24
f 26//23 22//26 27//23
f 24//7 27//7 28//7
f 28//8 27//8 24//8
f 28//26 29//22 25//26
f 25//25 29//21 28//25
f 26//8 25//8 30//8
f 30//7 25//7 26//7
f 26//24 31//20 27//24
f 27//23 31//19 26//23
f 28//7 27//7 31//7
f 31//8 27//8 28//8
f 29//22 28//26 32//22
f 32//21 28//25 29//21
f 30//8 25//8 29//8
f 29//7 25//7 30//7
f 31//20 26//24 30//20
f 30//19 26//23 31//19
f 28//7 31//7 32//7
f 32//8 31//8 28//8
f 32//22 33//18 29//22
f 29//21 33//17 32//21
f 30//8 29//8 34//8
f 34//7 29//7 30//7
f 30//20 35//16 31//20
f 31//19 35//15 30//19
f 32//7 31//7 35//7
f 35//8 31//8 32//8
f 33//18 32//22 36//18
f 36//17 32//21 33//17
f 34//8 29//8 33//8
f 33//7 29//7 34//7
f 35//16 30//20 34//16
f 34//15 30//19 35//15
f 32//7 35//7 36//7
f 36//8 35//8 32//8
f 37//14 33//18 36//18
f 36//17 33//17 37//13
f 34//8 33//8 38//8
f 38//7 33//7 34//7
f 34//16 39//10 35//16
f 35//15 39//9 34//15
f 36//7 35//7 39//7
f 39//8 35//8 36//8
f 33//18 37//14 40//14
f 40//13 37//13 33//17
f 36//7 41//7 37//7
f 37//8 41//8 36//8
f 38//8 33//8 40//8
f 40//7 33//7 38//7
f 39//10 34//16 38//10
f 38//9 34//15 39//9
f 36//7 39//7 41//7
f 41//8 39//8 36//8
f 42//12 40//14 37//14
f 37//13 40//13 42//11
f 37//7 41//7 42//7
f 42//8 41//8 37//8
f 38//8 40//8 43//8
f 43//7 40//7 38//7
f 43//4 39//10 38//10
f 38//9 39//9 43//1
f 39//10 43//4 41//4
f 41//1 43//1 39//9
f 40//14 42//12 44//12
f 44//11 42//11 40//13
f 42//7 41//7 45//7
f 45//8 41//8 42//8
f 43//8 40//8 44//8
f 44//7 40//7 43//7
f 46//3 41//4 43//4
f 43//1 41//1 46//2
f 47//6 44//12 42//12
f 42//11 44//11 47//5
f 41//4 46//3 45//3
f 45//2 46//2 41//1
f 42//7 45//7 47//7
f 47//8 45//8 42//8
f 43//8 44//8 46//8
f 46//7 44//7 43//7
f 44//12 47//6 48//6
f 48//5 47//5 44//11
f 48//6 45//3 46//3
f 46//2 45//2 48//5
f 45//3 48//6 47//6
f 47//5 48//5 45//2
f 46//8 44//8 48//8
f 48//7 44//7 46//7
