mtllib new-4.mtl
v 0.080392 -0.488003 -0.006428
v 0.077774 -0.359640 0.001753
v 0.073077 -0.483757 0.060094
v 0.612991 -0.550389 -0.163917
v 0.572015 -0.590481 -0.153846
v 0.628364 -0.551768 -0.133071
v 0.096463 -0.360847 0.048309
v 0.579462 -0.589279 -0.113010
v 0.614899 -0.636072 -0.168369
v 0.630326 -0.552324 -0.153568
v 0.587261 -0.604200 -0.122990
v 0.108097 -0.487059 0.051848
v 0.590769 -0.627403 -0.155619
v 0.632670 -0.628074 -0.148995
v 0.625737 -0.632646 -0.127309
vn -0.895783 -0.373483 0.241005
vn 0.895783 0.373483 -0.241005
vn -0.148954 -0.982498 0.111846
vn 0.148954 0.982498 -0.111846
vn -0.253084 -0.965962 0.053527
vn 0.253084 0.965962 -0.053527
vn -0.277871 0.049565 -0.959339
vn 0.277871 -0.049565 0.959339
vn 0.282603 0.954647 -0.093721
vn -0.282603 -0.954647 0.093721
vn -0.187569 -0.980881 0.051876
vn 0.187569 0.980881 -0.051876
vn 0.624741 0.698828 -0.348335
vn -0.624741 -0.698828 0.348335
vn 0.244526 0.966765 -0.074647
vn 0.213024 0.975042 -0.062566
vn -0.213024 -0.975042 0.062566
vn -0.244526 -0.966765 0.074647
vn 0.288531 0.953126 -0.091108
vn -0.288531 -0.953126 0.091108
vn -0.183161 -0.981109 0.062269
vn 0.183161 0.981109 -0.062269
vn 0.120059 0.992647 -0.015449
vn -0.120059 -0.992647 0.015449
vn -0.957033 -0.112670 -0.267195
vn 0.957033 0.112670 0.267195
vn 0.648979 0.627229 -0.430593
vn 0.733240 0.573625 -0.365121
vn 0.845357 0.496597 -0.196882
vn -0.845357 -0.496597 0.196882
vn -0.733240 -0.573625 0.365121
vn -0.648979 -0.627229 0.430593
vn -0.107330 0.677941 -0.727239
vn 0.107330 -0.677941 0.727239
vn -0.635538 -0.019342 0.771828
vn -0.516416 -0.055898 0.854512
vn 0.635538 0.019342 -0.771828
vn 0.516416 0.055898 -0.854512
vn 0.516809 0.222823 0.826594
vn -0.516809 -0.222823 -0.826594
vn -0.803783 -0.057498 0.592137
vn 0.341390 0.056713 0.938209
vn -0.341390 -0.056713 -0.938209
vn 0.803783 0.057498 -0.592137
vn -0.979772 -0.013617 -0.199653
vn -0.994881 -0.036468 -0.094240
vn 0.979772 0.013617 0.199653
vn 0.994881 0.036468 0.094240
vn 0.404081 0.645029 -0.648580
vn -0.404081 -0.645029 0.648580
vn 0.863891 0.449676 -0.226901
vn -0.863891 -0.449676 0.226901
vn -0.740447 0.017646 0.671883
vn 0.740447 -0.017646 -0.671883
vn -0.953040 0.009396 -0.302698
vn 0.953040 -0.009396 0.302698
vn 0.342067 0.055710 0.938023
vn -0.342067 -0.055710 -0.938023
usemtl material-0
f 3//5 1//3 5//11
f 5//12 1//4 3//6
f 4//7 5//13 1//1
f 1//2 5//14 4//8
f 2//9 6//15 4//16
f 4//17 6//18 2//10
f 3//5 5//11 8//21
f 8//22 5//12 3//6
f 7//19 6//15 2//9
f 2//10 6//18 7//20
f 6//15 10//23 4//16
f 4//17 10//24 6//18
f 8//27 11//28 5//29
f 5//30 11//31 8//32
f 8//33 3//33 12//33
f 12//34 3//34 8//34
f 10//35 4//36 9//35
f 9//37 4//38 10//37
f 9//13 5//13 13//39
f 13//40 5//14 9//14
f 12//41 6//42 7//25
f 7//26 6//43 12//44
f 6//45 10//46 14//45
f 14//47 10//48 6//47
f 15//49 11//28 8//27
f 8//32 11//31 15//50
f 5//29 11//28 13//51
f 13//52 11//31 5//30
f 6//42 12//41 8//42
f 8//43 12//44 6//43
f 10//35 9//35 14//53
f 14//54 9//37 10//37
f 6//45 14//45 15//55
f 15//56 14//47 6//47
f 6//42 8//42 15//57
f 15//58 8//43 6//43