# SSTK version 0.8.0
# 14
mtllib original-14.mtl
o _20066-03-00_1/_20066-03-00/mesh14/mesh14-geometry#mesh14-geometry
v -0.108356 -0.154118 -0.206304
v -0.119292 -0.154118 -0.195368
v -0.119292 -0.418737 -0.195368
v -0.129090 -0.418737 -0.183450
v -0.108356 -0.418737 -0.206304
v -0.129090 -0.154118 -0.183450
v -0.096438 -0.154118 -0.216101
v -0.137628 -0.418737 -0.170731
v -0.096438 -0.418737 -0.216101
v -0.137628 -0.154118 -0.170731
v -0.083719 -0.154118 -0.224640
v -0.144824 -0.418737 -0.157408
v -0.083719 -0.418737 -0.224640
v -0.144824 -0.154118 -0.157408
v -0.070396 -0.154118 -0.231836
v -0.150635 -0.418737 -0.143688
v -0.070396 -0.418737 -0.231836
v -0.150635 -0.154118 -0.143688
v -0.056676 -0.154118 -0.237646
v -0.155056 -0.418737 -0.129774
v -0.056676 -0.418737 -0.237646
v -0.155056 -0.154118 -0.129774
v -0.042762 -0.154118 -0.242068
v -0.158120 -0.418737 -0.115858
v -0.042762 -0.418737 -0.242068
v -0.158120 -0.154118 -0.115858
v -0.028846 -0.154118 -0.245132
v -0.159893 -0.418737 -0.102117
v -0.028846 -0.418737 -0.245132
v -0.159893 -0.154118 -0.102117
v -0.015105 -0.154118 -0.246904
v -0.160460 -0.418737 -0.088701
v -0.015105 -0.418737 -0.246904
v -0.160460 -0.154118 -0.088701
v -0.001689 -0.154118 -0.247472
v -0.159893 -0.418737 -0.075285
v -0.001689 -0.418737 -0.247472
v -0.159893 -0.154118 -0.075285
v 0.006448 -0.154118 -0.247264
v -0.158120 -0.418737 -0.061544
v 0.006448 -0.418737 -0.247264
v -0.158120 -0.154118 -0.061544
v 0.014977 -0.154118 -0.246595
v -0.155056 -0.418737 -0.047628
v 0.014977 -0.418737 -0.246595
v -0.155056 -0.154118 -0.047628
v 0.023889 -0.154118 -0.245398
v -0.150635 -0.418737 -0.033714
v 0.023889 -0.418737 -0.245398
v -0.150635 -0.154118 -0.033714
v 0.033163 -0.154118 -0.243600
v -0.144824 -0.418737 -0.019994
v 0.033163 -0.418737 -0.243600
v -0.144824 -0.154118 -0.019994
v 0.042767 -0.154118 -0.241121
v -0.137628 -0.418737 -0.006671
v 0.042767 -0.418737 -0.241121
v -0.137628 -0.154118 -0.006671
v 0.052655 -0.154118 -0.237882
v -0.129090 -0.418737 0.006048
v 0.052655 -0.418737 -0.237882
v -0.129090 -0.154118 0.006048
v 0.062768 -0.154118 -0.233799
v -0.119292 -0.418737 0.017966
v 0.062768 -0.418737 -0.233799
v -0.119292 -0.154118 0.017966
v 0.073027 -0.154118 -0.228793
v -0.108356 -0.418737 0.028902
v 0.073027 -0.418737 -0.228793
v -0.108356 -0.154118 0.028902
v 0.083334 -0.154118 -0.222788
v -0.096438 -0.418737 0.038699
v 0.083334 -0.418737 -0.222788
v -0.096438 -0.154118 0.038699
v 0.093574 -0.154118 -0.215718
v -0.083719 -0.418737 0.047238
v 0.093574 -0.418737 -0.215718
v -0.083719 -0.154118 0.047238
v 0.103608 -0.154118 -0.207532
v -0.070396 -0.418737 0.054434
v 0.103608 -0.418737 -0.207532
v -0.070396 -0.154118 0.054434
v 0.113283 -0.154118 -0.198198
v -0.056676 -0.418737 0.060244
v 0.113283 -0.418737 -0.198198
v -0.056676 -0.154118 0.060244
v 0.122428 -0.154118 -0.187712
v -0.042762 -0.418737 0.064666
v 0.122428 -0.418737 -0.187712
v -0.042762 -0.154118 0.064666
v 0.130863 -0.154118 -0.176098
v -0.028846 -0.418737 0.067730
v 0.130863 -0.418737 -0.176098
v -0.028846 -0.154118 0.067730
v 0.138403 -0.154118 -0.163417
v -0.015105 -0.418737 0.069502
v 0.138403 -0.418737 -0.163417
v -0.015105 -0.154118 0.069502
v 0.144869 -0.154118 -0.149767
v -0.001689 -0.418737 0.070070
v 0.144869 -0.418737 -0.149767
v -0.001689 -0.154118 0.070070
v 0.150095 -0.154118 -0.135284
v 0.006448 -0.418737 0.069862
v 0.150095 -0.418737 -0.135284
v 0.006448 -0.154118 0.069862
v 0.153938 -0.154118 -0.120141
v 0.014977 -0.418737 0.069193
v 0.153938 -0.418737 -0.120141
v 0.014977 -0.154118 0.069193
v 0.156290 -0.154118 -0.104539
v 0.023889 -0.418737 0.067996
v 0.156290 -0.418737 -0.104539
v 0.023889 -0.154118 0.067996
v 0.157082 -0.154118 -0.088701
v 0.033163 -0.418737 0.066198
v 0.157082 -0.418737 -0.088701
v 0.033163 -0.154118 0.066198
v 0.156290 -0.154118 -0.072863
v 0.042767 -0.418737 0.063719
v 0.156290 -0.418737 -0.072863
v 0.042767 -0.154118 0.063719
v 0.153938 -0.154118 -0.057261
v 0.052655 -0.418737 0.060480
v 0.153938 -0.418737 -0.057261
v 0.052655 -0.154118 0.060480
v 0.150095 -0.154118 -0.042118
v 0.062768 -0.418737 0.056397
v 0.150095 -0.418737 -0.042118
v 0.062768 -0.154118 0.056397
v 0.144869 -0.154118 -0.027635
v 0.073027 -0.418737 0.051391
v 0.144869 -0.418737 -0.027635
v 0.073027 -0.154118 0.051391
v 0.138403 -0.154118 -0.013985
v 0.083334 -0.418737 0.045386
v 0.138403 -0.418737 -0.013985
v 0.083334 -0.154118 0.045386
v 0.130863 -0.154118 -0.001304
v 0.093574 -0.418737 0.038316
v 0.130863 -0.418737 -0.001304
v 0.093574 -0.154118 0.038316
v 0.122428 -0.154118 0.010310
v 0.103608 -0.418737 0.030130
v 0.122428 -0.418737 0.010310
v 0.103608 -0.154118 0.030130
v 0.113283 -0.154118 0.020796
v 0.113283 -0.418737 0.020796
vn 0.7071067811865475 0 0.7071067811865475
vn 0.772472807641549 0 0.6350478418626287
vn 0.6350478418626287 0 0.772472807641549
vn 0.8302717306329105 0 0.5573588191747142
vn 0.5573588191747142 0 0.8302717306329105
vn 0.8798572212432056 0 0.4752381195003035
vn 0.4752381195003035 0 0.8798572212432056
vn 0.9208297282977185 0 0.3899648849360032
vn 0.3899648849360032 0 0.9208297282977185
vn 0.9530449164818185 0 0.30282897346218973
vn 0.30282897346218973 0 0.9530449164818185
vn 0.9765953167831573 0 0.21508506976823086
vn 0.21508506976823086 0 0.9765953167831573
vn 0.991787972035051 0 0.1278929963938652
vn 0.1278929963938652 0 0.991787972035051
vn 0.9991055478888562 0 0.042285980864921406
vn 0.042285980864921406 0 0.9991055478888562
vn 0.9991055478888562 0 -0.042285980864921406
vn -0.025633010779580453 0 0.999671420396909
vn 0.991787972035051 0 -0.1278929963938652
vn -0.0781389590329266 0 0.9969424773181504
vn 0.9765953167831573 0 -0.21508506976823086
vn -0.13309097650298982 0 0.9911038250221218
vn 0.9530449164818185 0 -0.30282897346218973
vn -0.1903920275185041 0 0.9817081418921784
vn 0.9208297282977185 0 -0.3899648849360032
vn -0.24987807950959334 0 0.9682773080995947
vn 0.8798572212432056 0 -0.4752381195003035
vn -0.3113089238908923 0 0.9503087676675906
vn 0.8302717306329105 0 -0.5573588191747142
vn -0.3743489609282651 0 0.9272879032166483
vn 0.772472807641549 0 -0.6350478418626287
vn -0.4385651859898335 0 0.8986993811268053
vn 0.7071067811865475 0 -0.7071067811865475
vn -0.5034028894746356 0 0.8640518102918296
vn 0.6350478418626287 0 -0.772472807641549
vn -0.5681908621881641 0 0.8228968004105197
vn 0.5573588191747142 0 -0.8302717306329105
vn -0.6321269012763246 0 0.7748648789839373
vn 0.4752381195003035 0 -0.8798572212432056
vn -0.6942922098453392 0 0.7196932175226298
vn 0.3899648849360032 0 -0.9208297282977185
vn -0.7536611680325445 0 0.6572631465401212
vn 0.30282897346218973 0 -0.9530449164818185
vn -0.8091269109616568 0 0.5876339353352962
vn 0.21508506976823086 0 -0.9765953167831573
vn -0.8595360898554779 0 0.5110750534275333
vn 0.1278929963938652 0 -0.991787972035051
vn -0.9037376149116101 0 0.4280868175894633
vn 0.042285980864921406 0 -0.9991055478888562
vn -0.9406399800415012 0 0.3394059927984837
vn -0.025633010779580453 0 -0.999671420396909
vn -0.9692680485249522 0 0.24600701231597238
vn -0.0781389590329266 0 -0.9969424773181504
vn -0.9888268009046878 0 0.14906896998571129
vn -0.13309097650298982 0 -0.9911038250221218
vn -0.9987523189276339 0 0.04993801594650944
vn -0.1903920275185041 0 -0.9817081418921784
vn -0.9987523189276339 0 -0.04993801594650944
vn -0.24987807950959334 0 -0.9682773080995947
vn -0.9888268009046878 0 -0.14906896998571129
vn -0.3113089238908923 0 -0.9503087676675906
vn -0.9692680485249522 0 -0.24600701231597238
vn -0.3743489609282651 0 -0.9272879032166483
vn -0.9406399800415012 0 -0.3394059927984837
vn -0.4385651859898335 0 -0.8986993811268053
vn -0.9037376149116101 0 -0.4280868175894633
vn -0.5034028894746356 0 -0.8640518102918296
vn -0.8595360898554779 0 -0.5110750534275333
vn -0.5681908621881641 0 -0.8228968004105197
vn -0.8091269109616568 0 -0.5876339353352962
vn -0.6321269012763246 0 -0.7748648789839373
vn -0.7536611680325445 0 -0.6572631465401212
vn -0.6942922098453392 0 -0.7196932175226298
vn -0.7071067811865475 0 -0.7071067811865475
vn -0.772472807641549 0 -0.6350478418626287
vn -0.6350478418626287 0 -0.772472807641549
vn -0.8302717306329105 0 -0.5573588191747142
vn -0.5573588191747142 0 -0.8302717306329105
vn -0.8798572212432056 0 -0.4752381195003035
vn -0.4752381195003035 0 -0.8798572212432056
vn -0.9208297282977185 0 -0.3899648849360032
vn -0.3899648849360032 0 -0.9208297282977185
vn -0.9530449164818185 0 -0.30282897346218973
vn -0.30282897346218973 0 -0.9530449164818185
vn -0.9765953167831573 0 -0.21508506976823086
vn -0.21508506976823086 0 -0.9765953167831573
vn -0.991787972035051 0 -0.1278929963938652
vn -0.1278929963938652 0 -0.991787972035051
vn -0.9991055478888562 0 -0.042285980864921406
vn -0.042285980864921406 0 -0.9991055478888562
vn -0.9991055478888562 0 0.042285980864921406
vn 0.025633010779580453 0 -0.999671420396909
vn -0.991787972035051 0 0.1278929963938652
vn 0.0781389590329266 0 -0.9969424773181504
vn -0.9765953167831573 0 0.21508506976823086
vn 0.13309097650298982 0 -0.9911038250221218
vn -0.9530449164818185 0 0.30282897346218973
vn 0.1903920275185041 0 -0.9817081418921784
vn -0.9208297282977185 0 0.3899648849360032
vn 0.24987807950959334 0 -0.9682773080995947
vn -0.8798572212432056 0 0.4752381195003035
vn 0.3113089238908923 0 -0.9503087676675906
vn -0.8302717306329105 0 0.5573588191747142
vn 0.3743489609282651 0 -0.9272879032166483
vn -0.772472807641549 0 0.6350478418626287
vn 0.4385651859898335 0 -0.8986993811268053
vn -0.7071067811865475 0 0.7071067811865475
vn 0.5034028894746356 0 -0.8640518102918296
vn -0.6350478418626287 0 0.772472807641549
vn 0.5681908621881641 0 -0.8228968004105197
vn -0.5573588191747142 0 0.8302717306329105
vn 0.6321269012763246 0 -0.7748648789839373
vn -0.4752381195003035 0 0.8798572212432056
vn 0.6942922098453392 0 -0.7196932175226298
vn -0.3899648849360032 0 0.9208297282977185
vn 0.7536611680325445 0 -0.6572631465401212
vn -0.30282897346218973 0 0.9530449164818185
vn 0.8091269109616568 0 -0.5876339353352962
vn -0.21508506976823086 0 0.9765953167831573
vn 0.8595360898554779 0 -0.5110750534275333
vn -0.1278929963938652 0 0.991787972035051
vn 0.9037376149116101 0 -0.4280868175894633
vn -0.042285980864921406 0 0.9991055478888562
vn 0.9406399800415012 0 -0.3394059927984837
vn 0.025633010779580453 0 0.999671420396909
vn 0.9692680485249522 0 -0.24600701231597238
vn 0.0781389590329266 0 0.9969424773181504
vn 0.9888268009046878 0 -0.14906896998571129
vn 0.13309097650298982 0 0.9911038250221218
vn 0.9987523189276339 0 -0.04993801594650944
vn 0.1903920275185041 0 0.9817081418921784
vn 0.9987523189276339 0 0.04993801594650944
vn 0.24987807950959334 0 0.9682773080995947
vn 0.9888268009046878 0 0.14906896998571129
vn 0.3113089238908923 0 0.9503087676675906
vn 0.9692680485249522 0 0.24600701231597238
vn 0.3743489609282651 0 0.9272879032166483
vn 0.9406399800415012 0 0.3394059927984837
vn 0.4385651859898335 0 0.8986993811268053
vn 0.9037376149116101 0 0.4280868175894633
vn 0.5034028894746356 0 0.8640518102918296
vn 0.8595360898554779 0 0.5110750534275333
vn 0.5681908621881641 0 0.8228968004105197
vn 0.8091269109616568 0 0.5876339353352962
vn 0.6321269012763246 0 0.7748648789839373
vn 0.7536611680325445 0 0.6572631465401212
vn 0.6942922098453392 0 0.7196932175226298
usemtl material_0_0
f 1//1 2//1 3//1
f 2//2 4//2 3//2
f 1//1 3//1 5//1
f 6//2 4//2 2//2
f 7//3 1//3 5//3
f 6//4 8//4 4//4
f 7//3 5//3 9//3
f 10//4 8//4 6//4
f 11//5 7//5 9//5
f 10//6 12//6 8//6
f 11//5 9//5 13//5
f 14//6 12//6 10//6
f 15//7 11//7 13//7
f 14//8 16//8 12//8
f 15//7 13//7 17//7
f 18//8 16//8 14//8
f 19//9 15//9 17//9
f 18//10 20//10 16//10
f 19//9 17//9 21//9
f 22//10 20//10 18//10
f 23//11 19//11 21//11
f 22//12 24//12 20//12
f 23//11 21//11 25//11
f 26//12 24//12 22//12
f 27//13 23//13 25//13
f 26//14 28//14 24//14
f 27//13 25//13 29//13
f 30//14 28//14 26//14
f 31//15 27//15 29//15
f 30//16 32//16 28//16
f 31//15 29//15 33//15
f 34//16 32//16 30//16
f 35//17 31//17 33//17
f 34//18 36//18 32//18
f 37//17 35//17 33//17
f 38//18 36//18 34//18
f 39//19 35//19 37//19
f 38//20 40//20 36//20
f 39//19 37//19 41//19
f 42//20 40//20 38//20
f 43//21 39//21 41//21
f 42//22 44//22 40//22
f 43//21 41//21 45//21
f 46//22 44//22 42//22
f 47//23 43//23 45//23
f 46//24 48//24 44//24
f 47//23 45//23 49//23
f 50//24 48//24 46//24
f 51//25 47//25 49//25
f 50//26 52//26 48//26
f 51//25 49//25 53//25
f 54//26 52//26 50//26
f 55//27 51//27 53//27
f 54//28 56//28 52//28
f 55//27 53//27 57//27
f 58//28 56//28 54//28
f 59//29 55//29 57//29
f 58//30 60//30 56//30
f 59//29 57//29 61//29
f 62//30 60//30 58//30
f 63//31 59//31 61//31
f 62//32 64//32 60//32
f 63//31 61//31 65//31
f 66//32 64//32 62//32
f 67//33 63//33 65//33
f 68//34 64//34 66//34
f 67//33 65//33 69//33
f 68//34 66//34 70//34
f 71//35 67//35 69//35
f 72//36 68//36 70//36
f 71//35 69//35 73//35
f 72//36 70//36 74//36
f 75//37 71//37 73//37
f 76//38 72//38 74//38
f 75//37 73//37 77//37
f 76//38 74//38 78//38
f 79//39 75//39 77//39
f 80//40 76//40 78//40
f 79//39 77//39 81//39
f 80//40 78//40 82//40
f 83//41 79//41 81//41
f 84//42 80//42 82//42
f 83//41 81//41 85//41
f 84//42 82//42 86//42
f 83//43 85//43 87//43
f 88//44 84//44 86//44
f 87//43 85//43 89//43
f 88//44 86//44 90//44
f 87//45 89//45 91//45
f 92//46 88//46 90//46
f 91//45 89//45 93//45
f 92//46 90//46 94//46
f 91//47 93//47 95//47
f 96//48 92//48 94//48
f 95//47 93//47 97//47
f 96//48 94//48 98//48
f 95//49 97//49 99//49
f 100//50 96//50 98//50
f 99//49 97//49 101//49
f 100//50 98//50 102//50
f 99//51 101//51 103//51
f 104//52 100//52 102//52
f 103//51 101//51 105//51
f 104//52 102//52 106//52
f 103//53 105//53 107//53
f 108//54 104//54 106//54
f 107//53 105//53 109//53
f 108//54 106//54 110//54
f 107//55 109//55 111//55
f 112//56 108//56 110//56
f 111//55 109//55 113//55
f 112//56 110//56 114//56
f 111//57 113//57 115//57
f 116//58 112//58 114//58
f 115//57 113//57 117//57
f 116//58 114//58 118//58
f 115//59 117//59 119//59
f 120//60 116//60 118//60
f 119//59 117//59 121//59
f 120//60 118//60 122//60
f 119//61 121//61 123//61
f 124//62 120//62 122//62
f 123//61 121//61 125//61
f 124//62 122//62 126//62
f 123//63 125//63 127//63
f 128//64 124//64 126//64
f 127//63 125//63 129//63
f 128//64 126//64 130//64
f 127//65 129//65 131//65
f 132//66 128//66 130//66
f 131//65 129//65 133//65
f 132//66 130//66 134//66
f 131//67 133//67 135//67
f 136//68 132//68 134//68
f 135//67 133//67 137//67
f 136//68 134//68 138//68
f 135//69 137//69 139//69
f 140//70 136//70 138//70
f 139//69 137//69 141//69
f 140//70 138//70 142//70
f 139//71 141//71 143//71
f 144//72 140//72 142//72
f 143//71 141//71 145//71
f 144//72 142//72 146//72
f 143//73 145//73 147//73
f 148//74 144//74 146//74
f 147//73 145//73 148//73
f 148//74 146//74 147//74
usemtl material_1_0
f 3//75 2//75 1//75
f 3//76 4//76 2//76
f 5//75 3//75 1//75
f 2//76 4//76 6//76
f 5//77 1//77 7//77
f 4//78 8//78 6//78
f 9//77 5//77 7//77
f 6//78 8//78 10//78
f 9//79 7//79 11//79
f 8//80 12//80 10//80
f 13//79 9//79 11//79
f 10//80 12//80 14//80
f 13//81 11//81 15//81
f 12//82 16//82 14//82
f 17//81 13//81 15//81
f 14//82 16//82 18//82
f 17//83 15//83 19//83
f 16//84 20//84 18//84
f 21//83 17//83 19//83
f 18//84 20//84 22//84
f 21//85 19//85 23//85
f 20//86 24//86 22//86
f 25//85 21//85 23//85
f 22//86 24//86 26//86
f 25//87 23//87 27//87
f 24//88 28//88 26//88
f 29//87 25//87 27//87
f 26//88 28//88 30//88
f 29//89 27//89 31//89
f 28//90 32//90 30//90
f 33//89 29//89 31//89
f 30//90 32//90 34//90
f 33//91 31//91 35//91
f 32//92 36//92 34//92
f 33//91 35//91 37//91
f 34//92 36//92 38//92
f 37//93 35//93 39//93
f 36//94 40//94 38//94
f 41//93 37//93 39//93
f 38//94 40//94 42//94
f 41//95 39//95 43//95
f 40//96 44//96 42//96
f 45//95 41//95 43//95
f 42//96 44//96 46//96
f 45//97 43//97 47//97
f 44//98 48//98 46//98
f 49//97 45//97 47//97
f 46//98 48//98 50//98
f 49//99 47//99 51//99
f 48//100 52//100 50//100
f 53//99 49//99 51//99
f 50//100 52//100 54//100
f 53//101 51//101 55//101
f 52//102 56//102 54//102
f 57//101 53//101 55//101
f 54//102 56//102 58//102
f 57//103 55//103 59//103
f 56//104 60//104 58//104
f 61//103 57//103 59//103
f 58//104 60//104 62//104
f 61//105 59//105 63//105
f 60//106 64//106 62//106
f 65//105 61//105 63//105
f 62//106 64//106 66//106
f 65//107 63//107 67//107
f 66//108 64//108 68//108
f 69//107 65//107 67//107
f 70//108 66//108 68//108
f 69//109 67//109 71//109
f 70//110 68//110 72//110
f 73//109 69//109 71//109
f 74//110 70//110 72//110
f 73//111 71//111 75//111
f 74//112 72//112 76//112
f 77//111 73//111 75//111
f 78//112 74//112 76//112
f 77//113 75//113 79//113
f 78//114 76//114 80//114
f 81//113 77//113 79//113
f 82//114 78//114 80//114
f 81//115 79//115 83//115
f 82//116 80//116 84//116
f 85//115 81//115 83//115
f 86//116 82//116 84//116
f 87//117 85//117 83//117
f 86//118 84//118 88//118
f 89//117 85//117 87//117
f 90//118 86//118 88//118
f 91//119 89//119 87//119
f 90//120 88//120 92//120
f 93//119 89//119 91//119
f 94//120 90//120 92//120
f 95//121 93//121 91//121
f 94//122 92//122 96//122
f 97//121 93//121 95//121
f 98//122 94//122 96//122
f 99//123 97//123 95//123
f 98//124 96//124 100//124
f 101//123 97//123 99//123
f 102//124 98//124 100//124
f 103//125 101//125 99//125
f 102//126 100//126 104//126
f 105//125 101//125 103//125
f 106//126 102//126 104//126
f 107//127 105//127 103//127
f 106//128 104//128 108//128
f 109//127 105//127 107//127
f 110//128 106//128 108//128
f 111//129 109//129 107//129
f 110//130 108//130 112//130
f 113//129 109//129 111//129
f 114//130 110//130 112//130
f 115//131 113//131 111//131
f 114//132 112//132 116//132
f 117//131 113//131 115//131
f 118//132 114//132 116//132
f 119//133 117//133 115//133
f 118//134 116//134 120//134
f 121//133 117//133 119//133
f 122//134 118//134 120//134
f 123//135 121//135 119//135
f 122//136 120//136 124//136
f 125//135 121//135 123//135
f 126//136 122//136 124//136
f 127//137 125//137 123//137
f 126//138 124//138 128//138
f 129//137 125//137 127//137
f 130//138 126//138 128//138
f 131//139 129//139 127//139
f 130//140 128//140 132//140
f 133//139 129//139 131//139
f 134//140 130//140 132//140
f 135//141 133//141 131//141
f 134//142 132//142 136//142
f 137//141 133//141 135//141
f 138//142 134//142 136//142
f 139//143 137//143 135//143
f 138//144 136//144 140//144
f 141//143 137//143 139//143
f 142//144 138//144 140//144
f 143//145 141//145 139//145
f 142//146 140//146 144//146
f 145//145 141//145 143//145
f 146//146 142//146 144//146
f 147//147 145//147 143//147
f 146//148 144//148 148//148
f 148//147 145//147 147//147
f 147//148 146//148 148//148
