# SSTK version 0.8.0
# 6
mtllib original-6.mtl
o mesh15/mesh15-geometry#mesh15-geometry
v -0.535849 -0.428420 0.067239
v -0.638948 -0.499698 0.066128
v -0.632627 -0.507440 0.066116
v -0.542171 -0.420677 0.067251
v -0.638744 -0.499480 0.033242
v -0.535818 -0.428387 0.062242
v -0.541966 -0.420460 0.034366
v -0.632595 -0.507407 0.061118
v -0.626274 -0.515150 0.061106
v -0.510357 -0.459173 0.034307
v -0.529496 -0.436129 0.062230
v -0.619983 -0.522925 0.066092
v -0.607134 -0.538193 0.033183
v -0.510561 -0.459390 0.067192
v -0.523205 -0.443905 0.067216
v -0.619952 -0.522892 0.061095
v -0.626305 -0.515183 0.066104
v -0.607339 -0.538410 0.066069
v -0.516852 -0.451614 0.062206
v -0.523174 -0.443872 0.062218
v -0.529527 -0.436162 0.067228
v -0.613630 -0.530634 0.061083
v -0.516883 -0.451647 0.067204
v -0.613661 -0.530667 0.066080
vn -0.006216158550554403 -0.006603659383932552 0.9999588746821617
vn 0.006216158550554403 0.006603659383932552 -0.9999588746821617
vn -0.7745591476391053 -0.6324375627037259 -0.008992001443139915
vn 0.7745591476391053 0.6324375627037259 0.008992001443139915
vn 0.6324705484380654 -0.7745835032471725 -0.001183999911502522
vn -0.6324705484380654 0.7745835032471725 0.001183999911502522
usemtl material_0_0
f 1//1 2//1 3//1
f 2//1 1//1 4//1
f 3//2 2//2 1//2
f 4//2 1//2 2//2
f 5//3 3//3 2//3
f 2//4 3//4 5//4
f 3//5 6//5 1//5
f 1//6 6//6 3//6
f 1//4 7//4 4//4
f 4//3 7//3 1//3
f 7//6 2//6 4//6
f 4//5 2//5 7//5
f 5//3 8//3 3//3
f 3//4 8//4 5//4
f 2//6 7//6 5//6
f 5//5 7//5 2//5
f 6//5 3//5 8//5
f 8//6 3//6 6//6
f 6//4 7//4 1//4
f 1//3 7//3 6//3
f 5//3 9//3 8//3
f 8//4 9//4 5//4
f 10//2 5//2 7//2
f 7//1 5//1 10//1
f 8//1 11//1 6//1
f 6//2 11//2 8//2
f 11//4 7//4 6//4
f 6//3 7//3 11//3
f 5//3 12//3 9//3
f 9//4 12//4 5//4
f 11//1 8//1 9//1
f 9//2 8//2 11//2
f 5//2 10//2 13//2
f 13//1 10//1 5//1
f 7//4 14//4 10//4
f 10//3 14//3 7//3
f 15//4 7//4 11//4
f 11//3 7//3 15//3
f 5//3 16//3 12//3
f 12//4 16//4 5//4
f 17//3 9//3 12//3
f 12//4 9//4 17//4
f 17//6 11//6 9//6
f 9//5 11//5 17//5
f 10//5 18//5 13//5
f 13//6 18//6 10//6
f 18//3 5//3 13//3
f 13//4 5//4 18//4
f 14//4 7//4 19//4
f 19//3 7//3 14//3
f 18//5 10//5 14//5
f 14//6 10//6 18//6
f 20//4 7//4 15//4
f 15//3 7//3 20//3
f 21//4 15//4 11//4
f 11//3 15//3 21//3
f 5//3 22//3 16//3
f 16//4 22//4 5//4
f 20//5 12//5 16//5
f 16//6 12//6 20//6
f 15//1 17//1 12//1
f 12//2 17//2 15//2
f 11//6 17//6 21//6
f 21//5 17//5 11//5
f 5//3 18//3 22//3
f 22//4 18//4 5//4
f 19//4 7//4 20//4
f 20//3 7//3 19//3
f 23//4 14//4 19//4
f 19//3 14//3 23//3
f 14//1 24//1 18//1
f 18//2 24//2 14//2
f 12//5 20//5 15//5
f 15//6 20//6 12//6
f 17//1 15//1 21//1
f 21//2 15//2 17//2
f 19//1 16//1 22//1
f 22//2 16//2 19//2
f 16//1 19//1 20//1
f 20//2 19//2 16//2
f 24//3 22//3 18//3
f 18//4 22//4 24//4
f 24//1 14//1 23//1
f 23//2 14//2 24//2
f 19//6 24//6 23//6
f 23//5 24//5 19//5
f 24//6 19//6 22//6
f 22//5 19//5 24//5
