# SSTK version 0.8.0
# 54
mtllib original-54.mtl
o mesh48/mesh48-geometry#mesh48-geometry
v 0.318332 0.065466 -0.102957
v 0.316829 0.065420 -0.102125
v 0.316772 0.065431 -0.102327
v 0.317223 0.065424 -0.102209
v 0.317468 0.065420 -0.102130
v 0.317603 0.065406 -0.101880
v 0.317639 0.065347 -0.100810
v 0.317639 0.065236 -0.098814
v 0.318568 0.065238 -0.098859
v 0.318595 0.065217 -0.098484
v 0.318568 0.065466 -0.102957
v 0.318675 0.065202 -0.098212
v 0.318568 0.065402 -0.101799
v 0.318934 0.065188 -0.097960
v 0.318568 0.065375 -0.101327
v 0.317611 0.065205 -0.098269
v 0.318894 0.065430 -0.102305
v 0.319469 0.065171 -0.097656
v 0.318834 0.065401 -0.101781
v 0.317534 0.065196 -0.098099
v 0.319161 0.065184 -0.097884
v 0.319092 0.065418 -0.102085
v 0.317414 0.065190 -0.097982
v 0.319469 0.065183 -0.097858
v 0.319224 0.065450 -0.102667
v 0.317172 0.065184 -0.097889
v 0.319311 0.065424 -0.102198
v 0.316829 0.065171 -0.097656
v 0.319558 0.065462 -0.102884
v 0.316829 0.065183 -0.097858
v 0.319675 0.065413 -0.102004
v 0.319897 0.065466 -0.102957
v 0.319908 0.065405 -0.101859
v 0.320180 0.065463 -0.102910
v 0.320117 0.065402 -0.101810
v 0.320305 0.065404 -0.101848
v 0.320409 0.065455 -0.102768
v 0.320466 0.065411 -0.101962
v 0.320561 0.065444 -0.102565
v 0.320575 0.065420 -0.102130
v 0.320612 0.065431 -0.102333
v 0.320965 0.065455 -0.102764
v 0.320651 0.065436 -0.102411
v 0.320651 0.065446 -0.102597
v 0.321468 0.065436 -0.102411
v 0.321285 0.065469 -0.103016
v 0.321591 0.065487 -0.103338
v 0.321468 0.065243 -0.098949
v 0.321497 0.065216 -0.098465
v 0.321586 0.065198 -0.098125
v 0.321737 0.065184 -0.097889
v 0.321862 0.065508 -0.103716
v 0.321952 0.065175 -0.097715
v 0.322222 0.065551 -0.104497
v 0.322202 0.065169 -0.097607
v 0.322397 0.065250 -0.099073
v 0.322397 0.065551 -0.104497
v 0.322459 0.065167 -0.097572
v 0.322397 0.065457 -0.102805
v 0.322433 0.065227 -0.098654
v 0.322397 0.065436 -0.102411
v 0.322540 0.065213 -0.098398
v 0.323601 0.065457 -0.102805
v 0.322836 0.065171 -0.097641
v 0.323601 0.065436 -0.102411
v 0.322704 0.065205 -0.098267
v 0.322909 0.065203 -0.098224
v 0.323202 0.065182 -0.097850
v 0.323269 0.065209 -0.098339
v 0.323521 0.065201 -0.098196
v 0.323424 0.065217 -0.098482
v 0.323539 0.065228 -0.098679
v 0.323759 0.065228 -0.098679
vn 0 -0.9984603542956606 -0.05546999999805311
vn 0 0.9984603542956606 0.05546999999805311
usemtl material_0_0
f 1//1 2//1 3//1
f 2//1 1//1 4//1
f 3//2 2//2 1//2
f 4//2 1//2 2//2
f 4//1 1//1 5//1
f 5//2 1//2 4//2
f 5//1 1//1 6//1
f 6//2 1//2 5//2
f 6//1 1//1 7//1
f 7//2 1//2 6//2
f 7//1 1//1 8//1
f 8//2 1//2 7//2
f 9//1 8//1 1//1
f 1//2 8//2 9//2
f 10//1 8//1 9//1
f 9//2 8//2 10//2
f 9//1 1//1 11//1
f 11//2 1//2 9//2
f 12//1 8//1 10//1
f 10//2 8//2 12//2
f 9//1 11//1 13//1
f 13//2 11//2 9//2
f 14//1 8//1 12//1
f 12//2 8//2 14//2
f 9//1 13//1 15//1
f 15//2 13//2 9//2
f 14//1 16//1 8//1
f 8//2 16//2 14//2
f 17//1 15//1 13//1
f 13//2 15//2 17//2
f 18//1 16//1 14//1
f 14//2 16//2 18//2
f 15//1 17//1 19//1
f 19//2 17//2 15//2
f 18//1 20//1 16//1
f 16//2 20//2 18//2
f 18//1 14//1 21//1
f 21//2 14//2 18//2
f 19//1 17//1 22//1
f 22//2 17//2 19//2
f 18//1 23//1 20//1
f 20//2 23//2 18//2
f 18//1 21//1 24//1
f 24//2 21//2 18//2
f 22//1 17//1 25//1
f 25//2 17//2 22//2
f 18//1 26//1 23//1
f 23//2 26//2 18//2
f 22//1 25//1 27//1
f 27//2 25//2 22//2
f 28//1 26//1 18//1
f 18//2 26//2 28//2
f 27//1 25//1 29//1
f 29//2 25//2 27//2
f 26//1 28//1 30//1
f 30//2 28//2 26//2
f 27//1 29//1 31//1
f 31//2 29//2 27//2
f 31//1 29//1 32//1
f 32//2 29//2 31//2
f 31//1 32//1 33//1
f 33//2 32//2 31//2
f 33//1 32//1 34//1
f 34//2 32//2 33//2
f 33//1 34//1 35//1
f 35//2 34//2 33//2
f 35//1 34//1 36//1
f 36//2 34//2 35//2
f 36//1 34//1 37//1
f 37//2 34//2 36//2
f 36//1 37//1 38//1
f 38//2 37//2 36//2
f 38//1 37//1 39//1
f 39//2 37//2 38//2
f 38//1 39//1 40//1
f 40//2 39//2 38//2
f 40//1 39//1 41//1
f 41//2 39//2 40//2
f 42//1 43//1 44//1
f 44//2 43//2 42//2
f 43//1 42//1 45//1
f 45//2 42//2 43//2
f 45//1 42//1 46//1
f 46//2 42//2 45//2
f 45//1 46//1 47//1
f 47//2 46//2 45//2
f 45//1 47//1 48//1
f 48//2 47//2 45//2
f 48//1 47//1 49//1
f 49//2 47//2 48//2
f 49//1 47//1 50//1
f 50//1 47//1 51//1
f 50//2 47//2 49//2
f 51//2 47//2 50//2
f 51//1 47//1 52//1
f 52//2 47//2 51//2
f 51//1 52//1 53//1
f 53//2 52//2 51//2
f 53//1 52//1 54//1
f 54//2 52//2 53//2
f 53//1 54//1 55//1
f 55//2 54//2 53//2
f 55//1 54//1 56//1
f 56//2 54//2 55//2
f 56//1 54//1 57//1
f 57//2 54//2 56//2
f 55//1 56//1 58//1
f 58//2 56//2 55//2
f 56//1 57//1 59//1
f 59//2 57//2 56//2
f 58//1 56//1 60//1
f 60//2 56//2 58//2
f 56//1 59//1 61//1
f 61//2 59//2 56//2
f 58//1 60//1 62//1
f 62//2 60//2 58//2
f 63//1 61//1 59//1
f 59//2 61//2 63//2
f 58//1 62//1 64//1
f 64//2 62//2 58//2
f 61//1 63//1 65//1
f 65//2 63//2 61//2
f 64//1 62//1 66//1
f 66//2 62//2 64//2
f 64//1 66//1 67//1
f 67//2 66//2 64//2
f 64//1 67//1 68//1
f 68//2 67//2 64//2
f 68//1 67//1 69//1
f 69//2 67//2 68//2
f 68//1 69//1 70//1
f 70//2 69//2 68//2
f 70//1 69//1 71//1
f 71//2 69//2 70//2
f 70//1 71//1 72//1
f 72//2 71//2 70//2
f 70//1 72//1 73//1
f 73//2 72//2 70//2
