# SSTK version 0.8.0
# 151
mtllib original-151.mtl
o mesh132/mesh132-geometry#mesh132-geometry
v 0.577690 0.051172 0.154330
v 0.571807 0.051161 0.154538
v 0.571807 0.051172 0.154330
v 0.572077 0.051161 0.154538
v 0.572483 0.051158 0.154594
v 0.572753 0.051148 0.154763
v 0.573980 0.051149 0.154746
v 0.576074 0.051149 0.154746
v 0.572863 0.051131 0.155071
v 0.576557 0.051148 0.154767
v 0.572899 0.051099 0.155657
v 0.576868 0.051144 0.154830
v 0.572899 0.050823 0.160609
v 0.577115 0.051136 0.154975
v 0.573980 0.050819 0.160682
v 0.577293 0.051125 0.155173
v 0.574025 0.050785 0.161298
v 0.573980 0.050982 0.157759
v 0.577430 0.051108 0.155492
v 0.574183 0.050775 0.161472
v 0.573980 0.050959 0.158169
v 0.577555 0.051079 0.156000
v 0.572834 0.050782 0.161345
v 0.575658 0.050982 0.157759
v 0.577775 0.051079 0.156000
v 0.574611 0.050772 0.161537
v 0.575658 0.050959 0.158169
v 0.577690 0.050749 0.161952
v 0.576202 0.050984 0.157710
v 0.572741 0.050774 0.161503
v 0.575905 0.050772 0.161537
v 0.576074 0.050957 0.158198
v 0.572590 0.050767 0.161615
v 0.576464 0.050773 0.161514
v 0.576367 0.050953 0.158282
v 0.572340 0.050762 0.161712
v 0.576846 0.050777 0.161447
v 0.576530 0.050993 0.157562
v 0.572077 0.050760 0.161745
v 0.577133 0.050784 0.161313
v 0.576566 0.050945 0.158415
v 0.571807 0.050749 0.161952
v 0.577409 0.050797 0.161092
v 0.576758 0.051012 0.157205
v 0.571807 0.050760 0.161745
v 0.577762 0.050821 0.160655
v 0.576699 0.050935 0.158591
v 0.578349 0.050855 0.160041
v 0.576857 0.050896 0.159305
v 0.578124 0.050855 0.160041
v 0.576857 0.051043 0.156652
v 0.577065 0.051043 0.156652
v 0.577065 0.050896 0.159305
vn 0 -0.9984603542956606 -0.05546999999805311
vn 0 0.9984603542956606 0.05546999999805311
usemtl material_0_0
f 1//1 2//1 3//1
f 2//1 1//1 4//1
f 3//2 2//2 1//2
f 4//2 1//2 2//2
f 4//1 1//1 5//1
f 5//2 1//2 4//2
f 5//1 1//1 6//1
f 6//2 1//2 5//2
f 6//1 1//1 7//1
f 7//2 1//2 6//2
f 7//1 1//1 8//1
f 8//2 1//2 7//2
f 6//1 7//1 9//1
f 9//2 7//2 6//2
f 8//1 1//1 10//1
f 10//2 1//2 8//2
f 9//1 7//1 11//1
f 11//2 7//2 9//2
f 10//1 1//1 12//1
f 12//2 1//2 10//2
f 11//1 7//1 13//1
f 13//2 7//2 11//2
f 12//1 1//1 14//1
f 14//2 1//2 12//2
f 15//1 13//1 7//1
f 7//2 13//2 15//2
f 14//1 1//1 16//1
f 16//2 1//2 14//2
f 17//1 13//1 15//1
f 15//2 13//2 17//2
f 15//1 7//1 18//1
f 18//2 7//2 15//2
f 16//1 1//1 19//1
f 19//2 1//2 16//2
f 20//1 13//1 17//1
f 17//2 13//2 20//2
f 15//1 18//1 21//1
f 21//2 18//2 15//2
f 19//1 1//1 22//1
f 22//2 1//2 19//2
f 20//1 23//1 13//1
f 13//2 23//2 20//2
f 24//1 21//1 18//1
f 18//2 21//2 24//2
f 22//1 1//1 25//1
f 25//2 1//2 22//2
f 26//1 23//1 20//1
f 20//2 23//2 26//2
f 21//1 24//1 27//1
f 27//2 24//2 21//2
f 28//1 23//1 26//1
f 26//2 23//2 28//2
f 27//1 24//1 29//1
f 29//2 24//2 27//2
f 28//1 30//1 23//1
f 23//2 30//2 28//2
f 28//1 26//1 31//1
f 31//2 26//2 28//2
f 27//1 29//1 32//1
f 32//2 29//2 27//2
f 28//1 33//1 30//1
f 30//2 33//2 28//2
f 28//1 31//1 34//1
f 34//2 31//2 28//2
f 32//1 29//1 35//1
f 35//2 29//2 32//2
f 28//1 36//1 33//1
f 33//2 36//2 28//2
f 28//1 34//1 37//1
f 37//2 34//2 28//2
f 35//1 29//1 38//1
f 38//2 29//2 35//2
f 28//1 39//1 36//1
f 36//2 39//2 28//2
f 28//1 37//1 40//1
f 40//2 37//2 28//2
f 35//1 38//1 41//1
f 41//2 38//2 35//2
f 42//1 39//1 28//1
f 28//2 39//2 42//2
f 28//1 40//1 43//1
f 43//2 40//2 28//2
f 41//1 38//1 44//1
f 44//2 38//2 41//2
f 39//1 42//1 45//1
f 45//2 42//2 39//2
f 28//1 43//1 46//1
f 46//2 43//2 28//2
f 41//1 44//1 47//1
f 47//2 44//2 41//2
f 28//1 46//1 48//1
f 48//2 46//2 28//2
f 47//1 44//1 49//1
f 49//2 44//2 47//2
f 48//1 46//1 50//1
f 50//2 46//2 48//2
f 49//1 44//1 51//1
f 51//2 44//2 49//2
f 49//1 51//1 52//1
f 52//2 51//2 49//2
f 49//1 52//1 53//1
f 53//2 52//2 49//2
