# SSTK version 0.8.0
# 289
mtllib original-289.mtl
o mesh242/mesh242-geometry#mesh242-geometry
v -0.191963 0.063681 -0.070282
v -0.192800 0.063584 -0.068551
v -0.193056 0.063583 -0.068531
v -0.192492 0.063581 -0.068497
v -0.192239 0.063572 -0.068335
v -0.192069 0.063559 -0.068099
v -0.192012 0.063544 -0.067823
v -0.191901 0.063466 -0.066423
v -0.192098 0.063522 -0.067423
v -0.191864 0.063638 -0.069505
v -0.192357 0.063502 -0.067071
v -0.191372 0.063681 -0.070282
v -0.191224 0.063489 -0.066825
v -0.192741 0.063489 -0.066823
v -0.191322 0.063626 -0.069294
v -0.192751 0.063459 -0.066289
v -0.190938 0.063608 -0.068974
v -0.193204 0.063484 -0.066741
v -0.190780 0.063521 -0.067404
v -0.193677 0.063463 -0.066357
v -0.190709 0.063585 -0.068561
v -0.193677 0.063486 -0.066780
v -0.190633 0.063558 -0.068069
vn 0 -0.9984603542956606 -0.05546999999805311
vn 0 0.9984603542956606 0.05546999999805311
usemtl material_0_0
f 1//1 2//1 3//1
f 2//1 1//1 4//1
f 3//2 2//2 1//2
f 4//2 1//2 2//2
f 4//1 1//1 5//1
f 5//2 1//2 4//2
f 5//1 1//1 6//1
f 6//2 1//2 5//2
f 6//1 1//1 7//1
f 7//2 1//2 6//2
f 8//1 7//1 1//1
f 1//2 7//2 8//2
f 8//1 9//1 7//1
f 7//2 9//2 8//2
f 8//1 1//1 10//1
f 10//2 1//2 8//2
f 8//1 11//1 9//1
f 9//2 11//2 8//2
f 10//1 1//1 12//1
f 12//2 1//2 10//2
f 10//1 13//1 8//1
f 8//2 13//2 10//2
f 8//1 14//1 11//1
f 11//2 14//2 8//2
f 13//1 10//1 15//1
f 15//2 10//2 13//2
f 16//1 14//1 8//1
f 8//2 14//2 16//2
f 13//1 15//1 17//1
f 17//2 15//2 13//2
f 16//1 18//1 14//1
f 14//2 18//2 16//2
f 13//1 17//1 19//1
f 19//2 17//2 13//2
f 20//1 18//1 16//1
f 16//2 18//2 20//2
f 19//1 17//1 21//1
f 21//2 17//2 19//2
f 18//1 20//1 22//1
f 22//2 20//2 18//2
f 19//1 21//1 23//1
f 23//2 21//2 19//2
