# SSTK version 0.8.0
# 294
mtllib original-294.mtl
o mesh246/mesh246-geometry#mesh246-geometry
v 0.738531 0.046981 0.229770
v 0.737090 0.046935 0.230596
v 0.736994 0.046946 0.230399
v 0.737461 0.046940 0.230506
v 0.737684 0.046936 0.230579
v 0.737810 0.046921 0.230852
v 0.737850 0.046862 0.231923
v 0.737850 0.046602 0.236599
v 0.738784 0.046602 0.236599
v 0.738855 0.046566 0.237240
v 0.738784 0.046981 0.229770
v 0.739071 0.046553 0.237479
v 0.737777 0.046566 0.237246
v 0.739617 0.046537 0.237763
v 0.737574 0.046552 0.237488
v 0.739617 0.046548 0.237561
v 0.737090 0.046537 0.237763
v 0.737090 0.046548 0.237561
vn 0 -0.9984603542956606 -0.05546999999805311
vn 0 0.9984603542956606 0.05546999999805311
usemtl material_0_0
f 1//1 2//1 3//1
f 2//1 1//1 4//1
f 3//2 2//2 1//2
f 4//2 1//2 2//2
f 4//1 1//1 5//1
f 5//2 1//2 4//2
f 5//1 1//1 6//1
f 6//2 1//2 5//2
f 6//1 1//1 7//1
f 7//2 1//2 6//2
f 7//1 1//1 8//1
f 8//2 1//2 7//2
f 9//1 8//1 1//1
f 1//2 8//2 9//2
f 10//1 8//1 9//1
f 9//2 8//2 10//2
f 9//1 1//1 11//1
f 11//2 1//2 9//2
f 12//1 8//1 10//1
f 10//2 8//2 12//2
f 12//1 13//1 8//1
f 8//2 13//2 12//2
f 14//1 13//1 12//1
f 12//2 13//2 14//2
f 14//1 15//1 13//1
f 13//2 15//2 14//2
f 14//1 12//1 16//1
f 16//2 12//2 14//2
f 17//1 15//1 14//1
f 14//2 15//2 17//2
f 15//1 17//1 18//1
f 18//2 17//2 15//2
