# SSTK version 0.8.0
# 207
mtllib original-207.mtl
o mesh173/mesh173-geometry#mesh173-geometry
v -0.048233 0.073354 -0.244942
v -0.053913 0.073342 -0.244734
v -0.053913 0.073354 -0.244942
v -0.053643 0.073342 -0.244734
v -0.053376 0.073341 -0.244701
v -0.053125 0.073335 -0.244599
v -0.051740 0.073331 -0.244526
v -0.050057 0.073331 -0.244526
v -0.052894 0.073322 -0.244358
v -0.049538 0.073329 -0.244498
v -0.052821 0.073279 -0.243593
v -0.049176 0.073325 -0.244414
v -0.052821 0.073005 -0.238669
v -0.048914 0.073316 -0.244267
v -0.051740 0.073005 -0.238669
v -0.048697 0.073305 -0.244051
v -0.051667 0.072963 -0.237905
v -0.051740 0.073164 -0.241530
v -0.048515 0.073287 -0.243730
v -0.051431 0.072950 -0.237663
v -0.051740 0.073139 -0.241064
v -0.048357 0.073261 -0.243267
v -0.052855 0.072974 -0.238110
v -0.050350 0.073164 -0.241530
v -0.048160 0.073261 -0.243267
v -0.050637 0.072931 -0.237320
v -0.050350 0.073139 -0.241064
v -0.052956 0.072957 -0.237803
v -0.051177 0.072944 -0.237562
v -0.049935 0.073167 -0.241583
v -0.053235 0.072946 -0.237597
v -0.050913 0.072942 -0.237528
v -0.050014 0.073137 -0.241038
v -0.053643 0.072942 -0.237528
v -0.050637 0.072942 -0.237528
v -0.049773 0.073133 -0.240960
v -0.053913 0.072931 -0.237320
v -0.049649 0.073176 -0.241741
v -0.053913 0.072942 -0.237528
v -0.049599 0.073126 -0.240830
v -0.049464 0.073194 -0.242055
v -0.049469 0.073115 -0.240648
v -0.049385 0.073101 -0.240381
v -0.049353 0.073223 -0.242576
v -0.049353 0.073079 -0.239996
v -0.049145 0.073223 -0.242576
v -0.049145 0.073079 -0.239996
vn 0 -0.9984603542956606 -0.05546999999805311
vn 0 0.9984603542956606 0.05546999999805311
usemtl material_0_0
f 1//1 2//1 3//1
f 2//1 1//1 4//1
f 3//2 2//2 1//2
f 4//2 1//2 2//2
f 4//1 1//1 5//1
f 5//2 1//2 4//2
f 5//1 1//1 6//1
f 6//2 1//2 5//2
f 6//1 1//1 7//1
f 7//2 1//2 6//2
f 7//1 1//1 8//1
f 8//2 1//2 7//2
f 6//1 7//1 9//1
f 9//2 7//2 6//2
f 8//1 1//1 10//1
f 10//2 1//2 8//2
f 9//1 7//1 11//1
f 11//2 7//2 9//2
f 10//1 1//1 12//1
f 12//2 1//2 10//2
f 11//1 7//1 13//1
f 13//2 7//2 11//2
f 12//1 1//1 14//1
f 14//2 1//2 12//2
f 15//1 13//1 7//1
f 7//2 13//2 15//2
f 14//1 1//1 16//1
f 16//2 1//2 14//2
f 17//1 13//1 15//1
f 15//2 13//2 17//2
f 15//1 7//1 18//1
f 18//2 7//2 15//2
f 16//1 1//1 19//1
f 19//2 1//2 16//2
f 20//1 13//1 17//1
f 17//2 13//2 20//2
f 15//1 18//1 21//1
f 21//2 18//2 15//2
f 19//1 1//1 22//1
f 22//2 1//2 19//2
f 20//1 23//1 13//1
f 13//2 23//2 20//2
f 24//1 21//1 18//1
f 18//2 21//2 24//2
f 22//1 1//1 25//1
f 25//2 1//2 22//2
f 26//1 23//1 20//1
f 20//2 23//2 26//2
f 21//1 24//1 27//1
f 27//2 24//2 21//2
f 26//1 28//1 23//1
f 23//2 28//2 26//2
f 26//1 20//1 29//1
f 29//2 20//2 26//2
f 27//1 24//1 30//1
f 30//2 24//2 27//2
f 26//1 31//1 28//1
f 28//2 31//2 26//2
f 26//1 29//1 32//1
f 32//2 29//2 26//2
f 27//1 30//1 33//1
f 33//2 30//2 27//2
f 26//1 34//1 31//1
f 31//2 34//2 26//2
f 26//1 32//1 35//1
f 35//2 32//2 26//2
f 33//1 30//1 36//1
f 36//2 30//2 33//2
f 37//1 34//1 26//1
f 26//2 34//2 37//2
f 36//1 30//1 38//1
f 38//2 30//2 36//2
f 34//1 37//1 39//1
f 39//2 37//2 34//2
f 36//1 38//1 40//1
f 40//2 38//2 36//2
f 40//1 38//1 41//1
f 41//2 38//2 40//2
f 40//1 41//1 42//1
f 42//2 41//2 40//2
f 42//1 41//1 43//1
f 43//2 41//2 42//2
f 43//1 41//1 44//1
f 44//2 41//2 43//2
f 43//1 44//1 45//1
f 45//2 44//2 43//2
f 45//1 44//1 46//1
f 46//2 44//2 45//2
f 45//1 46//1 47//1
f 47//2 46//2 45//2
