# SSTK version 0.8.0
# 290
mtllib original-290.mtl
o __1_28/__28/mesh243/mesh243-geometry#mesh243-geometry
v -0.157556 0.064119 -0.079375
v -0.157394 0.063991 -0.077068
v -0.157621 0.064083 -0.078720
v -0.157363 0.064154 -0.080002
v -0.157168 0.063910 -0.075612
v -0.157042 0.064187 -0.080600
v -0.156429 0.063865 -0.074805
v -0.157317 0.063872 -0.074921
v -0.156591 0.064219 -0.081170
v -0.157337 0.063819 -0.073976
v -0.156143 0.064147 -0.079881
v -0.157764 0.063837 -0.074284
v -0.156038 0.064247 -0.081670
v -0.155882 0.063918 -0.075754
v -0.158474 0.063809 -0.073792
v -0.156009 0.064187 -0.080598
v -0.155921 0.064062 -0.078351
v -0.158606 0.063785 -0.073359
v -0.155408 0.064268 -0.082058
v -0.155700 0.063973 -0.076733
v -0.159414 0.063773 -0.073133
v -0.155606 0.064224 -0.081253
v -0.159414 0.063795 -0.073536
v -0.158474 0.063758 -0.072876
v -0.154915 0.064254 -0.081791
v -0.157356 0.063750 -0.072730
v -0.154700 0.064284 -0.082334
v -0.157764 0.063731 -0.072380
v -0.153916 0.064274 -0.082153
v -0.157317 0.063695 -0.071742
v -0.153916 0.064293 -0.082498
v -0.156443 0.063703 -0.071884
v -0.157168 0.063657 -0.071057
v -0.157042 0.063380 -0.066063
v -0.156591 0.063348 -0.065495
v -0.157363 0.063413 -0.066661
v -0.156038 0.063321 -0.064996
v -0.157394 0.063576 -0.069597
v -0.156143 0.063420 -0.066788
v -0.157556 0.063448 -0.067290
v -0.155886 0.063650 -0.070920
v -0.156009 0.063380 -0.066071
v -0.157621 0.063485 -0.067949
v -0.155921 0.063505 -0.068318
v -0.155408 0.063299 -0.064608
v -0.155700 0.063595 -0.069936
v -0.155606 0.063344 -0.065416
v -0.154915 0.063314 -0.064876
v -0.154700 0.063284 -0.064330
v -0.153916 0.063293 -0.064506
v -0.153916 0.063274 -0.064162
vn 0 -0.9984603542956606 -0.05546999999805311
vn 0 0.9984603542956606 0.05546999999805311
usemtl material_0_0
f 1//1 2//1 3//1
f 2//1 1//1 4//1
f 3//2 2//2 1//2
f 4//2 1//2 2//2
f 2//1 4//1 5//1
f 5//2 4//2 2//2
f 5//1 4//1 6//1
f 6//2 4//2 5//2
f 7//1 5//1 6//1
f 6//2 5//2 7//2
f 7//1 8//1 5//1
f 5//2 8//2 7//2
f 7//1 6//1 9//1
f 9//2 6//2 7//2
f 10//1 8//1 7//1
f 7//2 8//2 10//2
f 7//1 9//1 11//1
f 11//2 9//2 7//2
f 10//1 12//1 8//1
f 8//2 12//2 10//2
f 11//1 9//1 13//1
f 13//2 9//2 11//2
f 11//1 14//1 7//1
f 7//2 14//2 11//2
f 10//1 15//1 12//1
f 12//2 15//2 10//2
f 11//1 13//1 16//1
f 16//2 13//2 11//2
f 14//1 11//1 17//1
f 17//2 11//2 14//2
f 18//1 15//1 10//1
f 10//2 15//2 18//2
f 16//1 13//1 19//1
f 19//2 13//2 16//2
f 14//1 17//1 20//1
f 20//2 17//2 14//2
f 21//1 15//1 18//1
f 18//2 15//2 21//2
f 16//1 19//1 22//1
f 22//2 19//2 16//2
f 15//1 21//1 23//1
f 23//2 21//2 15//2
f 18//1 24//1 21//1
f 21//2 24//2 18//2
f 22//1 19//1 25//1
f 25//2 19//2 22//2
f 24//1 18//1 26//1
f 26//2 18//2 24//2
f 25//1 19//1 27//1
f 27//2 19//2 25//2
f 24//1 26//1 28//1
f 28//2 26//2 24//2
f 25//1 27//1 29//1
f 29//2 27//2 25//2
f 28//1 26//1 30//1
f 30//2 26//2 28//2
f 29//1 27//1 31//1
f 31//2 27//2 29//2
f 30//1 26//1 32//1
f 32//2 26//2 30//2
f 30//1 32//1 33//1
f 33//2 32//2 30//2
f 33//1 32//1 34//1
f 34//2 32//2 33//2
f 34//1 32//1 35//1
f 35//2 32//2 34//2
f 36//1 33//1 34//1
f 34//2 33//2 36//2
f 35//1 32//1 37//1
f 37//2 32//2 35//2
f 36//1 38//1 33//1
f 33//2 38//2 36//2
f 37//1 32//1 39//1
f 39//2 32//2 37//2
f 40//1 38//1 36//1
f 36//2 38//2 40//2
f 41//1 39//1 32//1
f 32//2 39//2 41//2
f 37//1 39//1 42//1
f 42//2 39//2 37//2
f 38//1 40//1 43//1
f 43//2 40//2 38//2
f 39//1 41//1 44//1
f 44//2 41//2 39//2
f 37//1 42//1 45//1
f 45//2 42//2 37//2
f 44//1 41//1 46//1
f 46//2 41//2 44//2
f 45//1 42//1 47//1
f 47//2 42//2 45//2
f 45//1 47//1 48//1
f 48//2 47//2 45//2
f 45//1 48//1 49//1
f 49//2 48//2 45//2
f 49//1 48//1 50//1
f 50//2 48//2 49//2
f 49//1 50//1 51//1
f 51//2 50//2 49//2
