# SSTK version 0.8.0
# 219
mtllib original-219.mtl
o mesh182/mesh182-geometry#mesh182-geometry
v 0.183306 0.073363 -0.245107
v 0.181533 0.073303 -0.244028
v 0.181448 0.073313 -0.244202
v 0.181863 0.073310 -0.244159
v 0.182113 0.073313 -0.244202
v 0.182363 0.073308 -0.244118
v 0.182507 0.073294 -0.243854
v 0.182563 0.073234 -0.242786
v 0.182563 0.073006 -0.238671
v 0.183492 0.073006 -0.238671
v 0.183545 0.072961 -0.237873
v 0.183492 0.073363 -0.245107
v 0.183628 0.072954 -0.237734
v 0.182501 0.072960 -0.237848
v 0.183768 0.072948 -0.237631
v 0.184455 0.072931 -0.237328
v 0.182281 0.072948 -0.237629
v 0.184024 0.072944 -0.237565
v 0.182028 0.072944 -0.237565
v 0.184455 0.072943 -0.237536
v 0.181583 0.072931 -0.237328
v 0.181583 0.072943 -0.237536
vn 0 -0.9984603542956606 -0.05546999999805311
vn 0 0.9984603542956606 0.05546999999805311
usemtl material_0_0
f 1//1 2//1 3//1
f 2//1 1//1 4//1
f 3//2 2//2 1//2
f 4//2 1//2 2//2
f 4//1 1//1 5//1
f 5//2 1//2 4//2
f 5//1 1//1 6//1
f 6//2 1//2 5//2
f 6//1 1//1 7//1
f 7//2 1//2 6//2
f 7//1 1//1 8//1
f 8//2 1//2 7//2
f 8//1 1//1 9//1
f 9//2 1//2 8//2
f 10//1 9//1 1//1
f 1//2 9//2 10//2
f 11//1 9//1 10//1
f 10//2 9//2 11//2
f 10//1 1//1 12//1
f 12//2 1//2 10//2
f 13//1 9//1 11//1
f 11//2 9//2 13//2
f 13//1 14//1 9//1
f 9//2 14//2 13//2
f 15//1 14//1 13//1
f 13//2 14//2 15//2
f 16//1 14//1 15//1
f 15//2 14//2 16//2
f 16//1 17//1 14//1
f 14//2 17//2 16//2
f 16//1 15//1 18//1
f 18//2 15//2 16//2
f 16//1 19//1 17//1
f 17//2 19//2 16//2
f 16//1 18//1 20//1
f 20//2 18//2 16//2
f 21//1 19//1 16//1
f 16//2 19//2 21//2
f 19//1 21//1 22//1
f 22//2 21//2 19//2
