# SSTK version 0.8.0
# 201
mtllib original-201.mtl
o mesh169/mesh169-geometry#mesh169-geometry
v -0.248193 0.073357 -0.244995
v -0.253874 0.073345 -0.244787
v -0.253874 0.073357 -0.244995
v -0.253604 0.073345 -0.244787
v -0.253336 0.073344 -0.244753
v -0.253086 0.073338 -0.244652
v -0.251701 0.073334 -0.244579
v -0.250017 0.073334 -0.244579
v -0.252855 0.073324 -0.244411
v -0.249499 0.073332 -0.244551
v -0.252782 0.073282 -0.243646
v -0.249136 0.073328 -0.244467
v -0.252782 0.073008 -0.238722
v -0.248875 0.073319 -0.244320
v -0.251701 0.073008 -0.238722
v -0.248658 0.073307 -0.244104
v -0.251627 0.072966 -0.237958
v -0.251701 0.073167 -0.241583
v -0.248476 0.073290 -0.243783
v -0.251391 0.072953 -0.237716
v -0.251701 0.073141 -0.241117
v -0.248317 0.073264 -0.243320
v -0.252815 0.072977 -0.238163
v -0.250310 0.073167 -0.241583
v -0.248120 0.073264 -0.243320
v -0.250597 0.072933 -0.237373
v -0.250310 0.073141 -0.241117
v -0.252917 0.072960 -0.237856
v -0.251138 0.072947 -0.237615
v -0.249896 0.073170 -0.241636
v -0.253195 0.072949 -0.237650
v -0.250873 0.072945 -0.237581
v -0.249974 0.073140 -0.241091
v -0.253604 0.072945 -0.237581
v -0.250597 0.072945 -0.237581
v -0.249733 0.073136 -0.241013
v -0.253874 0.072933 -0.237373
v -0.249609 0.073179 -0.241794
v -0.253874 0.072945 -0.237581
v -0.249560 0.073128 -0.240883
v -0.249424 0.073197 -0.242108
v -0.249429 0.073118 -0.240701
v -0.249345 0.073104 -0.240434
v -0.249314 0.073225 -0.242629
v -0.249314 0.073082 -0.240049
v -0.249105 0.073225 -0.242629
v -0.249105 0.073082 -0.240049
vn 0 -0.9984603542956606 -0.05546999999805311
vn 0 0.9984603542956606 0.05546999999805311
usemtl material_0_0
f 1//1 2//1 3//1
f 2//1 1//1 4//1
f 3//2 2//2 1//2
f 4//2 1//2 2//2
f 4//1 1//1 5//1
f 5//2 1//2 4//2
f 5//1 1//1 6//1
f 6//2 1//2 5//2
f 6//1 1//1 7//1
f 7//2 1//2 6//2
f 7//1 1//1 8//1
f 8//2 1//2 7//2
f 6//1 7//1 9//1
f 9//2 7//2 6//2
f 8//1 1//1 10//1
f 10//2 1//2 8//2
f 9//1 7//1 11//1
f 11//2 7//2 9//2
f 10//1 1//1 12//1
f 12//2 1//2 10//2
f 11//1 7//1 13//1
f 13//2 7//2 11//2
f 12//1 1//1 14//1
f 14//2 1//2 12//2
f 15//1 13//1 7//1
f 7//2 13//2 15//2
f 14//1 1//1 16//1
f 16//2 1//2 14//2
f 17//1 13//1 15//1
f 15//2 13//2 17//2
f 15//1 7//1 18//1
f 18//2 7//2 15//2
f 16//1 1//1 19//1
f 19//2 1//2 16//2
f 20//1 13//1 17//1
f 17//2 13//2 20//2
f 15//1 18//1 21//1
f 21//2 18//2 15//2
f 19//1 1//1 22//1
f 22//2 1//2 19//2
f 20//1 23//1 13//1
f 13//2 23//2 20//2
f 24//1 21//1 18//1
f 18//2 21//2 24//2
f 22//1 1//1 25//1
f 25//2 1//2 22//2
f 26//1 23//1 20//1
f 20//2 23//2 26//2
f 21//1 24//1 27//1
f 27//2 24//2 21//2
f 26//1 28//1 23//1
f 23//2 28//2 26//2
f 26//1 20//1 29//1
f 29//2 20//2 26//2
f 27//1 24//1 30//1
f 30//2 24//2 27//2
f 26//1 31//1 28//1
f 28//2 31//2 26//2
f 26//1 29//1 32//1
f 32//2 29//2 26//2
f 27//1 30//1 33//1
f 33//2 30//2 27//2
f 26//1 34//1 31//1
f 31//2 34//2 26//2
f 26//1 32//1 35//1
f 35//2 32//2 26//2
f 33//1 30//1 36//1
f 36//2 30//2 33//2
f 37//1 34//1 26//1
f 26//2 34//2 37//2
f 36//1 30//1 38//1
f 38//2 30//2 36//2
f 34//1 37//1 39//1
f 39//2 37//2 34//2
f 36//1 38//1 40//1
f 40//2 38//2 36//2
f 40//1 38//1 41//1
f 41//2 38//2 40//2
f 40//1 41//1 42//1
f 42//2 41//2 40//2
f 42//1 41//1 43//1
f 43//2 41//2 42//2
f 43//1 41//1 44//1
f 44//2 41//2 43//2
f 43//1 44//1 45//1
f 45//2 44//2 43//2
f 45//1 44//1 46//1
f 46//2 44//2 45//2
f 45//1 46//1 47//1
f 47//2 46//2 45//2
