# SSTK version 0.8.0
# 222
mtllib original-222.mtl
o mesh184/mesh184-geometry#mesh184-geometry
v 0.300587 0.073357 -0.244989
v 0.297789 0.073345 -0.244781
v 0.297789 0.073357 -0.244989
v 0.298076 0.073345 -0.244781
v 0.298456 0.073342 -0.244719
v 0.298729 0.073331 -0.244534
v 0.298843 0.073314 -0.244223
v 0.298881 0.073282 -0.243640
v 0.299962 0.073325 -0.244427
v 0.300699 0.073331 -0.244534
v 0.298881 0.073008 -0.238716
v 0.301503 0.073354 -0.244936
v 0.299962 0.073008 -0.238716
v 0.301147 0.073328 -0.244481
v 0.300001 0.072976 -0.238133
v 0.299962 0.073149 -0.241257
v 0.301544 0.073320 -0.244323
v 0.300119 0.072958 -0.237822
v 0.299962 0.073131 -0.240936
v 0.302202 0.073345 -0.244778
v 0.298853 0.072979 -0.238183
v 0.300491 0.073145 -0.241172
v 0.301873 0.073305 -0.244059
v 0.300388 0.072948 -0.237637
v 0.300648 0.073125 -0.240818
v 0.302118 0.073284 -0.243688
v 0.301059 0.072933 -0.237367
v 0.300885 0.073143 -0.241144
v 0.302270 0.073260 -0.243246
v 0.298768 0.072962 -0.237890
v 0.300767 0.072945 -0.237575
v 0.301245 0.073123 -0.240779
v 0.302747 0.073329 -0.244495
v 0.298491 0.072949 -0.237654
v 0.301059 0.072945 -0.237575
v 0.301430 0.073149 -0.241257
v 0.302321 0.073233 -0.242769
v 0.298076 0.072945 -0.237575
v 0.301776 0.073125 -0.240815
v 0.302648 0.073141 -0.241108
v 0.297789 0.072933 -0.237367
v 0.301896 0.073168 -0.241597
v 0.302988 0.073155 -0.241364
v 0.302244 0.073131 -0.240925
v 0.297789 0.072945 -0.237575
v 0.303199 0.073305 -0.244067
v 0.302214 0.073197 -0.242116
v 0.302081 0.073182 -0.241840
v 0.303257 0.073173 -0.241678
v 0.303503 0.073275 -0.243521
v 0.303450 0.073193 -0.242035
v 0.303566 0.073215 -0.242437
v 0.303604 0.073240 -0.242881
vn 0 -0.9984603542956606 -0.05546999999805311
vn 0 0.9984603542956606 0.05546999999805311
usemtl material_0_0
f 1//1 2//1 3//1
f 2//1 1//1 4//1
f 3//2 2//2 1//2
f 4//2 1//2 2//2
f 4//1 1//1 5//1
f 5//2 1//2 4//2
f 5//1 1//1 6//1
f 6//2 1//2 5//2
f 6//1 1//1 7//1
f 7//2 1//2 6//2
f 7//1 1//1 8//1
f 8//2 1//2 7//2
f 8//1 1//1 9//1
f 9//2 1//2 8//2
f 9//1 1//1 10//1
f 10//2 1//2 9//2
f 8//1 9//1 11//1
f 11//2 9//2 8//2
f 10//1 1//1 12//1
f 12//2 1//2 10//2
f 13//1 11//1 9//1
f 9//2 11//2 13//2
f 10//1 12//1 14//1
f 14//2 12//2 10//2
f 15//1 11//1 13//1
f 13//2 11//2 15//2
f 13//1 9//1 16//1
f 16//2 9//2 13//2
f 14//1 12//1 17//1
f 17//2 12//2 14//2
f 18//1 11//1 15//1
f 15//2 11//2 18//2
f 13//1 16//1 19//1
f 19//2 16//2 13//2
f 17//1 12//1 20//1
f 20//2 12//2 17//2
f 18//1 21//1 11//1
f 11//2 21//2 18//2
f 22//1 19//1 16//1
f 16//2 19//2 22//2
f 17//1 20//1 23//1
f 23//2 20//2 17//2
f 24//1 21//1 18//1
f 18//2 21//2 24//2
f 19//1 22//1 25//1
f 25//2 22//2 19//2
f 23//1 20//1 26//1
f 26//2 20//2 23//2
f 27//1 21//1 24//1
f 24//2 21//2 27//2
f 25//1 22//1 28//1
f 28//2 22//2 25//2
f 26//1 20//1 29//1
f 29//2 20//2 26//2
f 27//1 30//1 21//1
f 21//2 30//2 27//2
f 27//1 24//1 31//1
f 31//2 24//2 27//2
f 25//1 28//1 32//1
f 32//2 28//2 25//2
f 29//1 20//1 33//1
f 33//2 20//2 29//2
f 27//1 34//1 30//1
f 30//2 34//2 27//2
f 27//1 31//1 35//1
f 35//2 31//2 27//2
f 32//1 28//1 36//1
f 36//2 28//2 32//2
f 29//1 33//1 37//1
f 37//2 33//2 29//2
f 27//1 38//1 34//1
f 34//2 38//2 27//2
f 32//1 36//1 39//1
f 39//2 36//2 32//2
f 37//1 33//1 40//1
f 40//2 33//2 37//2
f 41//1 38//1 27//1
f 27//2 38//2 41//2
f 39//1 36//1 42//1
f 42//2 36//2 39//2
f 40//1 33//1 43//1
f 43//2 33//2 40//2
f 44//1 37//1 40//1
f 40//2 37//2 44//2
f 38//1 41//1 45//1
f 45//2 41//2 38//2
f 39//1 42//1 44//1
f 44//2 42//2 39//2
f 43//1 33//1 46//1
f 46//2 33//2 43//2
f 44//1 47//1 37//1
f 37//2 47//2 44//2
f 44//1 42//1 48//1
f 48//2 42//2 44//2
f 43//1 46//1 49//1
f 49//2 46//2 43//2
f 44//1 48//1 47//1
f 47//2 48//2 44//2
f 49//1 46//1 50//1
f 50//2 46//2 49//2
f 49//1 50//1 51//1
f 51//2 50//2 49//2
f 51//1 50//1 52//1
f 52//2 50//2 51//2
f 52//1 50//1 53//1
f 53//2 50//2 52//2
