# SSTK version 0.8.0
# 156
mtllib original-156.mtl
o mesh136/mesh136-geometry#mesh136-geometry
v 0.730671 0.051089 0.155822
v 0.730698 0.051042 0.156669
v 0.730635 0.051069 0.156191
v 0.730779 0.051108 0.155480
v 0.730888 0.051018 0.157104
v 0.730960 0.051126 0.155164
v 0.731197 0.050998 0.157472
v 0.731212 0.051142 0.154875
v 0.731615 0.050982 0.157748
v 0.731521 0.051155 0.154634
v 0.731615 0.051083 0.155943
v 0.731710 0.051039 0.156732
v 0.731685 0.051116 0.155346
v 0.731890 0.050976 0.157855
v 0.731870 0.051165 0.154462
v 0.731556 0.050956 0.158228
v 0.731830 0.051021 0.157051
v 0.731896 0.051139 0.154926
v 0.731468 0.050940 0.158501
v 0.731997 0.051006 0.157321
v 0.732260 0.051171 0.154359
v 0.731249 0.050881 0.159580
v 0.732673 0.050970 0.157967
v 0.732211 0.051153 0.154677
v 0.731140 0.050959 0.158176
v 0.731558 0.050878 0.159625
v 0.732330 0.050991 0.157599
v 0.732594 0.051158 0.154594
v 0.730874 0.050941 0.158495
v 0.731159 0.050848 0.160159
v 0.731561 0.050930 0.158687
v 0.732741 0.050985 0.157692
v 0.732690 0.051173 0.154325
v 0.730835 0.050898 0.159268
v 0.731023 0.050823 0.160615
v 0.733506 0.050871 0.159755
v 0.733114 0.050972 0.157935
v 0.733004 0.051152 0.154687
v 0.730754 0.050927 0.158743
v 0.730674 0.050847 0.160187
v 0.731924 0.050923 0.158816
v 0.733130 0.050990 0.157612
v 0.733378 0.051168 0.154415
v 0.730744 0.050906 0.159122
v 0.731036 0.050755 0.161835
v 0.732712 0.050921 0.158855
v 0.733508 0.050977 0.157839
v 0.733332 0.051137 0.154965
v 0.730714 0.050915 0.158956
v 0.730641 0.050767 0.161621
v 0.731105 0.050809 0.160868
v 0.734216 0.050916 0.158934
v 0.733444 0.051003 0.157371
v 0.733502 0.051122 0.155243
v 0.730324 0.050783 0.161334
v 0.731474 0.050747 0.161988
v 0.734230 0.050868 0.159802
v 0.733651 0.051026 0.156959
v 0.733968 0.051153 0.154684
v 0.730280 0.050815 0.160766
v 0.731350 0.050797 0.161087
v 0.734686 0.050909 0.159067
v 0.733854 0.050986 0.157679
v 0.733623 0.051103 0.155568
v 0.730218 0.050800 0.161036
v 0.731663 0.050788 0.161239
v 0.734666 0.050863 0.159901
v 0.733720 0.051059 0.156365
v 0.731954 0.050742 0.162079
v 0.734881 0.050854 0.160067
v 0.732038 0.050782 0.161348
v 0.735052 0.050895 0.159322
v 0.734154 0.050999 0.157456
v 0.732476 0.050740 0.162110
v 0.734953 0.050840 0.160317
v 0.734390 0.051124 0.155190
v 0.732977 0.050777 0.161435
v 0.735028 0.050801 0.161006
v 0.735060 0.051153 0.154684
v 0.734395 0.051014 0.157187
v 0.733149 0.050743 0.162059
v 0.735215 0.050818 0.160713
v 0.734833 0.050818 0.160710
v 0.735060 0.051124 0.155190
v 0.734627 0.051099 0.155651
v 0.733857 0.050782 0.161346
v 0.735286 0.050875 0.159673
v 0.734767 0.050786 0.161289
v 0.735342 0.051152 0.154698
v 0.734567 0.051030 0.156892
v 0.733755 0.050751 0.161905
v 0.735327 0.050834 0.160410
v 0.734472 0.050797 0.161078
v 0.735403 0.051128 0.155128
v 0.734671 0.051048 0.156571
v 0.734295 0.050766 0.161648
v 0.735364 0.050852 0.160098
v 0.735432 0.051139 0.154926
v 0.734705 0.051067 0.156225
v 0.734198 0.050789 0.161235
vn 0 -0.9984603542956606 -0.05546999999805311
vn 0 0.9984603542956606 0.05546999999805311
usemtl material_0_0
f 1//1 2//1 3//1
f 2//1 1//1 4//1
f 3//2 2//2 1//2
f 4//2 1//2 2//2
f 2//1 4//1 5//1
f 5//2 4//2 2//2
f 5//1 4//1 6//1
f 6//2 4//2 5//2
f 5//1 6//1 7//1
f 7//2 6//2 5//2
f 7//1 6//1 8//1
f 8//2 6//2 7//2
f 7//1 8//1 9//1
f 9//2 8//2 7//2
f 9//1 8//1 10//1
f 10//2 8//2 9//2
f 9//1 10//1 11//1
f 11//2 10//2 9//2
f 9//1 11//1 12//1
f 10//1 13//1 11//1
f 11//2 13//2 10//2
f 12//2 11//2 9//2
f 14//1 9//1 12//1
f 12//2 9//2 14//2
f 13//1 10//1 15//1
f 15//2 10//2 13//2
f 16//1 9//1 14//1
f 14//2 9//2 16//2
f 14//1 12//1 17//1
f 17//2 12//2 14//2
f 13//1 15//1 18//1
f 18//2 15//2 13//2
f 19//1 9//1 16//1
f 16//2 9//2 19//2
f 14//1 17//1 20//1
f 20//2 17//2 14//2
f 18//1 15//1 21//1
f 21//2 15//2 18//2
f 22//1 9//1 19//1
f 19//2 9//2 22//2
f 14//1 20//1 23//1
f 23//2 20//2 14//2
f 18//1 21//1 24//1
f 24//2 21//2 18//2
f 22//1 25//1 9//1
f 9//2 25//2 22//2
f 26//1 22//1 19//1
f 19//2 22//2 26//2
f 23//1 20//1 27//1
f 27//2 20//2 23//2
f 24//1 21//1 28//1
f 28//2 21//2 24//2
f 22//1 29//1 25//1
f 25//2 29//2 22//2
f 30//1 22//1 26//1
f 26//2 22//2 30//2
f 26//1 19//1 31//1
f 31//2 19//2 26//2
f 23//1 27//1 32//1
f 32//2 27//2 23//2
f 28//1 21//1 33//1
f 33//2 21//2 28//2
f 34//1 29//1 22//1
f 22//2 29//2 34//2
f 35//1 22//1 30//1
f 30//2 22//2 35//2
f 26//1 31//1 36//1
f 36//2 31//2 26//2
f 23//1 32//1 37//1
f 37//2 32//2 23//2
f 28//1 33//1 38//1
f 38//2 33//2 28//2
f 34//1 39//1 29//1
f 29//2 39//2 34//2
f 22//1 35//1 40//1
f 40//2 35//2 22//2
f 36//1 31//1 41//1
f 41//2 31//2 36//2
f 37//1 32//1 42//1
f 42//2 32//2 37//2
f 38//1 33//1 43//1
f 43//2 33//2 38//2
f 34//2 39//2 44//2
f 45//1 40//1 35//1
f 35//2 40//2 45//2
f 36//1 41//1 46//1
f 46//2 41//2 36//2
f 37//1 42//1 47//1
f 47//2 42//2 37//2
f 38//1 43//1 48//1
f 48//2 43//2 38//2
f 39//1 44//1 49//1
f 44//1 39//1 34//1
f 49//2 44//2 39//2
f 50//1 40//1 45//1
f 45//2 40//2 50//2
f 45//1 35//1 51//1
f 51//2 35//2 45//2
f 36//1 46//1 52//1
f 52//2 46//2 36//2
f 47//1 42//1 53//1
f 53//2 42//2 47//2
f 48//1 43//1 54//1
f 54//2 43//2 48//2
f 55//1 40//1 50//1
f 50//2 40//2 55//2
f 45//1 51//1 56//1
f 56//2 51//2 45//2
f 36//1 52//1 57//1
f 57//2 52//2 36//2
f 47//1 53//1 58//1
f 58//2 53//2 47//2
f 54//1 43//1 59//1
f 59//2 43//2 54//2
f 55//1 60//1 40//1
f 40//2 60//2 55//2
f 56//1 51//1 61//1
f 61//2 51//2 56//2
f 57//1 52//1 62//1
f 62//2 52//2 57//2
f 47//1 58//1 63//1
f 63//2 58//2 47//2
f 54//1 59//1 64//1
f 64//2 59//2 54//2
f 60//1 55//1 65//1
f 65//2 55//2 60//2
f 56//1 61//1 66//1
f 66//2 61//2 56//2
f 57//1 62//1 67//1
f 67//2 62//2 57//2
f 63//1 58//1 68//1
f 68//2 58//2 63//2
f 64//1 59//1 68//1
f 68//2 59//2 64//2
f 56//1 66//1 69//1
f 69//2 66//2 56//2
f 67//1 62//1 70//1
f 70//2 62//2 67//2
f 68//1 59//1 63//1
f 63//2 59//2 68//2
f 69//1 66//1 71//1
f 71//2 66//2 69//2
f 70//1 62//1 72//1
f 72//2 62//2 70//2
f 63//1 59//1 73//1
f 73//2 59//2 63//2
f 69//1 71//1 74//1
f 74//2 71//2 69//2
f 70//1 72//1 75//1
f 75//2 72//2 70//2
f 73//1 59//1 76//1
f 76//2 59//2 73//2
f 74//1 71//1 77//1
f 77//2 71//2 74//2
f 75//1 72//1 78//1
f 78//2 72//2 75//2
f 76//1 59//1 79//1
f 79//2 59//2 76//2
f 76//1 80//1 73//1
f 73//2 80//2 76//2
f 74//1 77//1 81//1
f 81//2 77//2 74//2
f 78//1 72//1 82//1
f 82//2 72//2 78//2
f 78//1 83//1 75//1
f 75//2 83//2 78//2
f 76//1 79//1 84//1
f 84//2 79//2 76//2
f 80//1 76//1 85//1
f 85//2 76//2 80//2
f 81//1 77//1 86//1
f 86//2 77//2 81//2
f 82//1 72//1 87//1
f 87//2 72//2 82//2
f 88//1 83//1 78//1
f 78//2 83//2 88//2
f 84//1 79//1 89//1
f 89//2 79//2 84//2
f 80//1 85//1 90//1
f 90//2 85//2 80//2
f 81//1 86//1 91//1
f 91//2 86//2 81//2
f 82//1 87//1 92//1
f 92//2 87//2 82//2
f 88//1 93//1 83//1
f 83//2 93//2 88//2
f 84//1 89//1 94//1
f 94//2 89//2 84//2
f 90//1 85//1 95//1
f 95//2 85//2 90//2
f 91//1 86//1 96//1
f 96//2 86//2 91//2
f 92//1 87//1 97//1
f 97//2 87//2 92//2
f 96//1 93//1 88//1
f 88//2 93//2 96//2
f 94//1 89//1 98//1
f 98//2 89//2 94//2
f 95//1 85//1 99//1
f 99//2 85//2 95//2
f 96//1 86//1 100//1
f 100//2 86//2 96//2
f 96//1 100//1 93//1
f 93//2 100//2 96//2
