# SSTK version 0.8.0
# 246
mtllib original-246.mtl
o mesh205/mesh205-geometry#mesh205-geometry
v 0.452440 0.073327 -0.244975
v 0.449642 0.073315 -0.244767
v 0.449642 0.073327 -0.244975
v 0.449929 0.073315 -0.244767
v 0.450309 0.073312 -0.244705
v 0.450582 0.073302 -0.244520
v 0.450696 0.073284 -0.244209
v 0.450734 0.073252 -0.243626
v 0.451815 0.073296 -0.244413
v 0.452553 0.073302 -0.244520
v 0.450734 0.072978 -0.238702
v 0.453356 0.073324 -0.244922
v 0.451815 0.072978 -0.238702
v 0.453000 0.073299 -0.244467
v 0.451854 0.072946 -0.238119
v 0.451815 0.073120 -0.241243
v 0.453397 0.073290 -0.244309
v 0.451973 0.072929 -0.237808
v 0.451815 0.073102 -0.240922
v 0.454056 0.073315 -0.244764
v 0.450706 0.072949 -0.238169
v 0.452344 0.073115 -0.241158
v 0.453726 0.073275 -0.244045
v 0.452242 0.072918 -0.237623
v 0.452502 0.073095 -0.240804
v 0.453971 0.073255 -0.243674
v 0.452913 0.072903 -0.237353
v 0.452738 0.073113 -0.241130
v 0.454123 0.073230 -0.243232
v 0.450622 0.072933 -0.237876
v 0.452620 0.072915 -0.237561
v 0.453099 0.073093 -0.240765
v 0.454600 0.073300 -0.244481
v 0.450344 0.072919 -0.237639
v 0.452913 0.072915 -0.237561
v 0.453284 0.073120 -0.241243
v 0.454174 0.073204 -0.242755
v 0.449929 0.072915 -0.237561
v 0.453630 0.073095 -0.240801
v 0.454501 0.073111 -0.241094
v 0.449642 0.072903 -0.237353
v 0.453749 0.073138 -0.241583
v 0.454841 0.073126 -0.241349
v 0.454097 0.073101 -0.240911
v 0.449642 0.072915 -0.237561
v 0.455052 0.073276 -0.244053
v 0.454068 0.073167 -0.242102
v 0.453935 0.073152 -0.241826
v 0.455111 0.073143 -0.241663
v 0.455356 0.073245 -0.243506
v 0.455303 0.073163 -0.242021
v 0.455419 0.073185 -0.242422
v 0.455458 0.073210 -0.242867
vn 0 -0.9984603542956606 -0.05546999999805311
vn 0 0.9984603542956606 0.05546999999805311
usemtl material_0_0
f 1//1 2//1 3//1
f 2//1 1//1 4//1
f 3//2 2//2 1//2
f 4//2 1//2 2//2
f 4//1 1//1 5//1
f 5//2 1//2 4//2
f 5//1 1//1 6//1
f 6//2 1//2 5//2
f 6//1 1//1 7//1
f 7//2 1//2 6//2
f 7//1 1//1 8//1
f 8//2 1//2 7//2
f 8//1 1//1 9//1
f 9//2 1//2 8//2
f 9//1 1//1 10//1
f 10//2 1//2 9//2
f 8//1 9//1 11//1
f 11//2 9//2 8//2
f 10//1 1//1 12//1
f 12//2 1//2 10//2
f 13//1 11//1 9//1
f 9//2 11//2 13//2
f 10//1 12//1 14//1
f 14//2 12//2 10//2
f 15//1 11//1 13//1
f 13//2 11//2 15//2
f 13//1 9//1 16//1
f 16//2 9//2 13//2
f 14//1 12//1 17//1
f 17//2 12//2 14//2
f 18//1 11//1 15//1
f 15//2 11//2 18//2
f 13//1 16//1 19//1
f 19//2 16//2 13//2
f 17//1 12//1 20//1
f 20//2 12//2 17//2
f 18//1 21//1 11//1
f 11//2 21//2 18//2
f 22//1 19//1 16//1
f 16//2 19//2 22//2
f 17//1 20//1 23//1
f 23//2 20//2 17//2
f 24//1 21//1 18//1
f 18//2 21//2 24//2
f 19//1 22//1 25//1
f 25//2 22//2 19//2
f 23//1 20//1 26//1
f 26//2 20//2 23//2
f 27//1 21//1 24//1
f 24//2 21//2 27//2
f 25//1 22//1 28//1
f 28//2 22//2 25//2
f 26//1 20//1 29//1
f 29//2 20//2 26//2
f 27//1 30//1 21//1
f 21//2 30//2 27//2
f 27//1 24//1 31//1
f 31//2 24//2 27//2
f 25//1 28//1 32//1
f 32//2 28//2 25//2
f 29//1 20//1 33//1
f 33//2 20//2 29//2
f 27//1 34//1 30//1
f 30//2 34//2 27//2
f 27//1 31//1 35//1
f 35//2 31//2 27//2
f 32//1 28//1 36//1
f 36//2 28//2 32//2
f 29//1 33//1 37//1
f 37//2 33//2 29//2
f 27//1 38//1 34//1
f 34//2 38//2 27//2
f 32//1 36//1 39//1
f 39//2 36//2 32//2
f 37//1 33//1 40//1
f 40//2 33//2 37//2
f 41//1 38//1 27//1
f 27//2 38//2 41//2
f 39//1 36//1 42//1
f 42//2 36//2 39//2
f 40//1 33//1 43//1
f 43//2 33//2 40//2
f 44//1 37//1 40//1
f 40//2 37//2 44//2
f 38//1 41//1 45//1
f 45//2 41//2 38//2
f 39//1 42//1 44//1
f 44//2 42//2 39//2
f 43//1 33//1 46//1
f 46//2 33//2 43//2
f 44//1 47//1 37//1
f 37//2 47//2 44//2
f 44//1 42//1 48//1
f 48//2 42//2 44//2
f 43//1 46//1 49//1
f 49//2 46//2 43//2
f 44//1 48//1 47//1
f 47//2 48//2 44//2
f 49//1 46//1 50//1
f 50//2 46//2 49//2
f 49//1 50//1 51//1
f 51//2 50//2 49//2
f 51//1 50//1 52//1
f 52//2 50//2 51//2
f 52//1 50//1 53//1
f 53//2 50//2 52//2
