# SSTK version 0.8.0
# 5
mtllib original-5.mtl
o mesh4/mesh4-geometry#mesh4-geometry
v -0.870235 0.057055 0.049525
v -0.870187 0.057004 0.050445
v -0.870221 0.056994 0.050624
v -0.869854 0.057060 0.049427
v -0.870477 0.056936 0.051665
v -0.870082 0.057013 0.050283
v -0.870575 0.057047 0.049662
v -0.870131 0.056930 0.051772
v -0.869914 0.057020 0.050148
v -0.870767 0.056944 0.051516
v -0.870146 0.056979 0.050887
v -0.869687 0.057026 0.050049
v -0.870864 0.057037 0.049843
v -0.869918 0.056967 0.051103
v -0.868964 0.057066 0.049319
v -0.870996 0.056954 0.051333
v -0.869729 0.056926 0.051836
v -0.868813 0.057034 0.049906
v -0.871092 0.057024 0.050075
v -0.869544 0.056959 0.051247
v -0.867910 0.057072 0.049205
v -0.871159 0.056966 0.051127
v -0.869270 0.056925 0.051857
v -0.867859 0.057040 0.049782
v -0.871241 0.057009 0.050346
v -0.869030 0.056956 0.051294
v -0.867177 0.057080 0.049071
v -0.871257 0.056978 0.050897
v -0.868699 0.056927 0.051822
v -0.867177 0.057049 0.049634
v -0.871290 0.056993 0.050644
v -0.868484 0.056959 0.051249
v -0.867171 0.057090 0.048884
v -0.868165 0.056933 0.051717
v -0.867177 0.057034 0.049898
v -0.868001 0.056966 0.051113
v -0.867094 0.056960 0.051239
v -0.867640 0.056943 0.051528
v -0.867217 0.057011 0.050315
v -0.866811 0.057156 0.047699
v -0.867610 0.056978 0.050898
v -0.867338 0.056994 0.050616
v -0.867222 0.057164 0.047555
v -0.867021 0.056944 0.051519
v -0.867242 0.057111 0.048510
v -0.866893 0.056930 0.051761
v -0.867455 0.057125 0.048265
v -0.866100 0.056959 0.051253
v -0.867766 0.057169 0.047459
v -0.866526 0.057146 0.047876
v -0.866005 0.056944 0.051512
v -0.867933 0.057135 0.048083
v -0.866337 0.057134 0.048095
v -0.865847 0.056930 0.051761
v -0.868452 0.057171 0.047427
v -0.866164 0.057029 0.049985
v -0.868596 0.057138 0.048022
v -0.866214 0.057119 0.048365
v -0.869168 0.057169 0.047465
v -0.866164 0.057082 0.049028
v -0.869211 0.057136 0.048066
v -0.869640 0.057128 0.048199
v -0.869793 0.057163 0.047577
v -0.869933 0.057115 0.048445
v -0.870138 0.057093 0.048828
v -0.870303 0.057153 0.047758
v -0.870678 0.057139 0.048004
v -0.870941 0.057121 0.048325
v -0.871117 0.057099 0.048732
vn 0 -0.9984603553754683 -0.05546998056150528
vn 0 0.9984603553754683 0.05546998056150528
usemtl material_0_0
f 1//1 2//1 3//1
f 2//1 1//1 4//1
f 3//2 2//2 1//2
f 4//2 1//2 2//2
f 5//1 1//1 3//1
f 3//2 1//2 5//2
f 2//1 4//1 6//1
f 6//2 4//2 2//2
f 5//1 7//1 1//1
f 1//2 7//2 5//2
f 5//1 3//1 8//1
f 8//2 3//2 5//2
f 6//1 4//1 9//1
f 9//2 4//2 6//2
f 10//1 7//1 5//1
f 5//2 7//2 10//2
f 8//1 3//1 11//1
f 11//2 3//2 8//2
f 9//1 4//1 12//1
f 12//2 4//2 9//2
f 10//1 13//1 7//1
f 7//2 13//2 10//2
f 8//1 11//1 14//1
f 14//2 11//2 8//2
f 12//1 4//1 15//1
f 15//2 4//2 12//2
f 16//1 13//1 10//1
f 10//2 13//2 16//2
f 8//1 14//1 17//1
f 17//2 14//2 8//2
f 12//1 15//1 18//1
f 18//2 15//2 12//2
f 16//1 19//1 13//1
f 13//2 19//2 16//2
f 17//1 14//1 20//1
f 20//2 14//2 17//2
f 18//1 15//1 21//1
f 21//2 15//2 18//2
f 22//1 19//1 16//1
f 16//2 19//2 22//2
f 17//1 20//1 23//1
f 23//2 20//2 17//2
f 18//1 21//1 24//1
f 24//2 21//2 18//2
f 22//1 25//1 19//1
f 19//2 25//2 22//2
f 23//1 20//1 26//1
f 26//2 20//2 23//2
f 24//1 21//1 27//1
f 27//2 21//2 24//2
f 28//1 25//1 22//1
f 22//2 25//2 28//2
f 23//1 26//1 29//1
f 29//2 26//2 23//2
f 24//1 27//1 30//1
f 30//2 27//2 24//2
f 25//1 28//1 31//1
f 31//2 28//2 25//2
f 29//1 26//1 32//1
f 32//2 26//2 29//2
f 30//1 27//1 33//1
f 33//2 27//2 30//2
f 29//1 32//1 34//1
f 34//2 32//2 29//2
f 30//1 33//1 35//1
f 35//2 33//2 30//2
f 34//1 32//1 36//1
f 36//2 32//2 34//2
f 37//1 35//1 33//1
f 33//2 35//2 37//2
f 34//1 36//1 38//1
f 38//2 36//2 34//2
f 37//1 39//1 35//1
f 35//2 39//2 37//2
f 33//1 40//1 37//1
f 37//2 40//2 33//2
f 38//1 36//1 41//1
f 41//2 36//2 38//2
f 37//1 42//1 39//1
f 39//2 42//2 37//2
f 33//1 43//1 40//1
f 40//2 43//2 33//2
f 37//1 40//1 44//1
f 44//2 40//2 37//2
f 38//1 41//1 37//1
f 37//2 41//2 38//2
f 37//1 41//1 42//1
f 42//2 41//2 37//2
f 45//1 43//1 33//1
f 33//2 43//2 45//2
f 44//1 40//1 46//1
f 46//2 40//2 44//2
f 47//1 43//1 45//1
f 45//2 43//2 47//2
f 46//1 40//1 48//1
f 48//2 40//2 46//2
f 47//1 49//1 43//1
f 43//2 49//2 47//2
f 48//1 40//1 50//1
f 50//2 40//2 48//2
f 46//1 48//1 51//1
f 51//2 48//2 46//2
f 52//1 49//1 47//1
f 47//2 49//2 52//2
f 48//1 50//1 53//1
f 53//2 50//2 48//2
f 46//1 51//1 54//1
f 54//2 51//2 46//2
f 52//1 55//1 49//1
f 49//2 55//2 52//2
f 48//1 53//1 56//1
f 56//2 53//2 48//2
f 57//1 55//1 52//1
f 52//2 55//2 57//2
f 56//1 53//1 58//1
f 58//2 53//2 56//2
f 57//1 59//1 55//1
f 55//2 59//2 57//2
f 56//1 58//1 60//1
f 60//2 58//2 56//2
f 61//1 59//1 57//1
f 57//2 59//2 61//2
f 62//1 59//1 61//1
f 61//2 59//2 62//2
f 62//1 63//1 59//1
f 59//2 63//2 62//2
f 64//1 63//1 62//1
f 62//2 63//2 64//2
f 65//1 63//1 64//1
f 64//2 63//2 65//2
f 65//1 66//1 63//1
f 63//2 66//2 65//2
f 65//1 67//1 66//1
f 66//2 67//2 65//2
f 65//1 68//1 67//1
f 67//2 68//2 65//2
f 68//1 65//1 69//1
f 69//2 65//2 68//2
