# SSTK version 0.8.0
# 9
mtllib original-9.mtl
o mesh8/mesh8-geometry#mesh8-geometry
v -0.872303 0.056598 0.057752
v -0.872155 0.056522 0.059115
v -0.872186 0.056501 0.059496
v -0.871901 0.056609 0.057546
v -0.872450 0.056409 0.061140
v -0.872062 0.056540 0.058785
v -0.872702 0.056580 0.058073
v -0.872038 0.056396 0.061390
v -0.871907 0.056556 0.058506
v -0.872785 0.056427 0.060823
v -0.872155 0.056480 0.059877
v -0.871691 0.056568 0.058279
v -0.872987 0.056558 0.058471
v -0.872062 0.056461 0.060208
v -0.871457 0.056617 0.057399
v -0.873024 0.056448 0.060444
v -0.871907 0.056446 0.060487
v -0.871427 0.056578 0.058102
v -0.873159 0.056531 0.058945
v -0.871566 0.056386 0.061568
v -0.870971 0.056622 0.057310
v -0.873168 0.056473 0.060001
v -0.871691 0.056433 0.060715
v -0.871131 0.056585 0.057976
v -0.873216 0.056501 0.059496
v -0.871427 0.056423 0.060892
v -0.870804 0.056589 0.057901
v -0.871035 0.056380 0.061675
v -0.870444 0.056624 0.057281
v -0.871131 0.056416 0.061019
v -0.870444 0.056591 0.057876
v -0.870804 0.056412 0.061095
v -0.869862 0.056622 0.057317
v -0.870444 0.056378 0.061711
v -0.870089 0.056589 0.057901
v -0.870444 0.056411 0.061120
v -0.869764 0.056585 0.057977
v -0.870087 0.056412 0.061095
v -0.869336 0.056616 0.057424
v -0.869700 0.056381 0.061646
v -0.869470 0.056578 0.058103
v -0.869761 0.056416 0.061019
v -0.869206 0.056568 0.058281
v -0.869466 0.056423 0.060891
v -0.868866 0.056606 0.057603
v -0.869016 0.056392 0.061452
v -0.868988 0.056556 0.058507
v -0.869203 0.056433 0.060713
v -0.868832 0.056540 0.058781
v -0.868986 0.056446 0.060483
v -0.868452 0.056592 0.057854
v -0.868440 0.056409 0.061140
v -0.868739 0.056523 0.059103
v -0.868831 0.056462 0.060199
v -0.868708 0.056502 0.059472
v -0.868738 0.056480 0.059862
v -0.868113 0.056575 0.058167
v -0.868020 0.056433 0.060723
v -0.867871 0.056554 0.058536
v -0.867763 0.056463 0.060167
v -0.867726 0.056531 0.058959
v -0.867678 0.056504 0.059436
vn 0 -0.9984603553754683 -0.05546998056150528
vn 0 0.9984603553754683 0.05546998056150528
usemtl material_0_0
f 1//1 2//1 3//1
f 2//1 1//1 4//1
f 3//2 2//2 1//2
f 4//2 1//2 2//2
f 5//1 1//1 3//1
f 3//2 1//2 5//2
f 2//1 4//1 6//1
f 6//2 4//2 2//2
f 5//1 7//1 1//1
f 1//2 7//2 5//2
f 5//1 3//1 8//1
f 8//2 3//2 5//2
f 6//1 4//1 9//1
f 9//2 4//2 6//2
f 10//1 7//1 5//1
f 5//2 7//2 10//2
f 8//1 3//1 11//1
f 11//2 3//2 8//2
f 9//1 4//1 12//1
f 12//2 4//2 9//2
f 10//1 13//1 7//1
f 7//2 13//2 10//2
f 8//1 11//1 14//1
f 14//2 11//2 8//2
f 12//1 4//1 15//1
f 15//2 4//2 12//2
f 16//1 13//1 10//1
f 10//2 13//2 16//2
f 8//1 14//1 17//1
f 17//2 14//2 8//2
f 12//1 15//1 18//1
f 18//2 15//2 12//2
f 16//1 19//1 13//1
f 13//2 19//2 16//2
f 8//1 17//1 20//1
f 20//2 17//2 8//2
f 18//1 15//1 21//1
f 21//2 15//2 18//2
f 22//1 19//1 16//1
f 16//2 19//2 22//2
f 20//1 17//1 23//1
f 23//2 17//2 20//2
f 18//1 21//1 24//1
f 24//2 21//2 18//2
f 19//1 22//1 25//1
f 25//2 22//2 19//2
f 20//1 23//1 26//1
f 26//2 23//2 20//2
f 24//1 21//1 27//1
f 27//2 21//2 24//2
f 20//1 26//1 28//1
f 28//2 26//2 20//2
f 27//1 21//1 29//1
f 29//2 21//2 27//2
f 28//1 26//1 30//1
f 30//2 26//2 28//2
f 27//1 29//1 31//1
f 31//2 29//2 27//2
f 28//1 30//1 32//1
f 32//2 30//2 28//2
f 31//1 29//1 33//1
f 33//2 29//2 31//2
f 28//1 32//1 34//1
f 34//2 32//2 28//2
f 31//1 33//1 35//1
f 35//2 33//2 31//2
f 34//1 32//1 36//1
f 36//2 32//2 34//2
f 35//1 33//1 37//1
f 37//2 33//2 35//2
f 34//1 36//1 38//1
f 38//2 36//2 34//2
f 37//1 33//1 39//1
f 39//2 33//2 37//2
f 34//1 38//1 40//1
f 40//2 38//2 34//2
f 37//1 39//1 41//1
f 41//2 39//2 37//2
f 40//1 38//1 42//1
f 42//2 38//2 40//2
f 41//1 39//1 43//1
f 43//2 39//2 41//2
f 40//1 42//1 44//1
f 44//2 42//2 40//2
f 43//1 39//1 45//1
f 45//2 39//2 43//2
f 40//1 44//1 46//1
f 46//2 44//2 40//2
f 43//1 45//1 47//1
f 47//2 45//2 43//2
f 46//1 44//1 48//1
f 48//2 44//2 46//2
f 47//1 45//1 49//1
f 49//2 45//2 47//2
f 46//1 48//1 50//1
f 50//2 48//2 46//2
f 49//1 45//1 51//1
f 51//2 45//2 49//2
f 46//1 50//1 52//1
f 52//2 50//2 46//2
f 49//1 51//1 53//1
f 53//2 51//2 49//2
f 52//1 50//1 54//1
f 54//2 50//2 52//2
f 53//1 51//1 55//1
f 55//2 51//2 53//2
f 52//1 54//1 56//1
f 56//2 54//2 52//2
f 52//1 55//1 51//1
f 51//2 55//2 52//2
f 52//1 56//1 55//1
f 55//2 56//2 52//2
f 52//1 51//1 57//1
f 57//2 51//2 52//2
f 52//1 57//1 58//1
f 58//2 57//2 52//2
f 58//1 57//1 59//1
f 59//2 57//2 58//2
f 58//1 59//1 60//1
f 60//2 59//2 58//2
f 60//1 59//1 61//1
f 61//2 59//2 60//2
f 60//1 61//1 62//1
f 62//2 61//2 60//2
