# SSTK version 0.8.0
# 1
mtllib original-1.mtl
o G1/G/mesh1/mesh1-geometry#mesh1-geometry
v -0.442096 0.057106 0.048060
v -0.441951 0.056900 0.051769
v -0.442083 0.056820 0.053205
v -0.441446 0.057139 0.047471
v -0.442642 0.056568 0.057752
v -0.441557 0.056974 0.050441
v -0.442654 0.057067 0.048762
v -0.442068 0.056530 0.058427
v -0.441185 0.057013 0.049732
v -0.443115 0.056611 0.056981
v -0.441924 0.056727 0.054891
v -0.440703 0.057165 0.046994
v -0.443120 0.057022 0.049575
v -0.441392 0.056498 0.059005
v -0.440689 0.057049 0.049083
v -0.443484 0.056657 0.056137
v -0.441449 0.056650 0.056278
v -0.439885 0.057186 0.046625
v -0.443487 0.056973 0.050460
v -0.441097 0.056617 0.056856
v -0.440043 0.057080 0.048524
v -0.443748 0.056707 0.055245
v -0.440614 0.056471 0.059487
v -0.439221 0.057105 0.048085
v -0.443749 0.056922 0.051379
v -0.440672 0.056590 0.057355
v -0.439008 0.057200 0.046361
v -0.443907 0.056759 0.054305
v -0.440175 0.056566 0.057774
v -0.438226 0.057121 0.047800
v -0.443907 0.056869 0.052332
v -0.439763 0.056450 0.059866
v -0.438070 0.057209 0.046203
v -0.443959 0.056814 0.053317
v -0.439606 0.056548 0.058114
v -0.437063 0.057126 0.047706
v -0.438866 0.056435 0.060137
v -0.437072 0.057212 0.046150
v -0.438358 0.056523 0.058564
v -0.435652 0.057205 0.046271
v -0.437922 0.056426 0.060299
v -0.436068 0.057121 0.047796
v -0.437035 0.056514 0.058714
v -0.435168 0.057106 0.048066
v -0.436931 0.056423 0.060353
v -0.434375 0.057185 0.046633
v -0.435867 0.056521 0.058600
v -0.434412 0.057082 0.048487
v -0.435449 0.056431 0.060218
v -0.433854 0.057052 0.049027
v -0.434726 0.056539 0.058259
v -0.433299 0.057153 0.047210
v -0.434004 0.056453 0.059814
v -0.433432 0.057013 0.049739
v -0.433737 0.056566 0.057790
v -0.433084 0.056961 0.050675
v -0.432599 0.056490 0.059144
v -0.432484 0.057111 0.047977
v -0.433019 0.056593 0.057290
v -0.431442 0.056986 0.050226
v -0.431236 0.056825 0.053111
v -0.431881 0.057056 0.048970
v -0.433019 0.056735 0.054732
v -0.431236 0.056542 0.058208
v -0.437063 0.056735 0.054732
v -0.437063 0.056825 0.053121
vn 0 -0.9984603542956606 -0.05546999999805311
vn 0 0.9984603542956606 0.05546999999805311
usemtl material_0_0
f 1//1 2//1 3//1
f 2//1 1//1 4//1
f 3//2 2//2 1//2
f 4//2 1//2 2//2
f 5//1 1//1 3//1
f 3//2 1//2 5//2
f 2//1 4//1 6//1
f 6//2 4//2 2//2
f 5//1 7//1 1//1
f 1//2 7//2 5//2
f 5//1 3//1 8//1
f 8//2 3//2 5//2
f 6//1 4//1 9//1
f 9//2 4//2 6//2
f 10//1 7//1 5//1
f 5//2 7//2 10//2
f 8//1 3//1 11//1
f 11//2 3//2 8//2
f 9//1 4//1 12//1
f 12//2 4//2 9//2
f 10//1 13//1 7//1
f 7//2 13//2 10//2
f 8//1 11//1 14//1
f 14//2 11//2 8//2
f 9//1 12//1 15//1
f 15//2 12//2 9//2
f 16//1 13//1 10//1
f 10//2 13//2 16//2
f 14//1 11//1 17//1
f 17//2 11//2 14//2
f 15//1 12//1 18//1
f 18//2 12//2 15//2
f 16//1 19//1 13//1
f 13//2 19//2 16//2
f 14//1 17//1 20//1
f 20//2 17//2 14//2
f 15//1 18//1 21//1
f 21//2 18//2 15//2
f 22//1 19//1 16//1
f 16//2 19//2 22//2
f 14//1 20//1 23//1
f 23//2 20//2 14//2
f 21//1 18//1 24//1
f 24//2 18//2 21//2
f 22//1 25//1 19//1
f 19//2 25//2 22//2
f 23//1 20//1 26//1
f 26//2 20//2 23//2
f 24//1 18//1 27//1
f 27//2 18//2 24//2
f 28//1 25//1 22//1
f 22//2 25//2 28//2
f 23//1 26//1 29//1
f 29//2 26//2 23//2
f 24//1 27//1 30//1
f 30//2 27//2 24//2
f 28//1 31//1 25//1
f 25//2 31//2 28//2
f 23//1 29//1 32//1
f 32//2 29//2 23//2
f 30//1 27//1 33//1
f 33//2 27//2 30//2
f 31//1 28//1 34//1
f 34//2 28//2 31//2
f 32//1 29//1 35//1
f 35//2 29//2 32//2
f 30//1 33//1 36//1
f 36//2 33//2 30//2
f 32//1 35//1 37//1
f 37//2 35//2 32//2
f 36//1 33//1 38//1
f 38//2 33//2 36//2
f 37//1 35//1 39//1
f 39//2 35//2 37//2
f 36//1 38//1 40//1
f 40//2 38//2 36//2
f 37//1 39//1 41//1
f 41//2 39//2 37//2
f 36//1 40//1 42//1
f 42//2 40//2 36//2
f 41//1 39//1 43//1
f 43//2 39//2 41//2
f 42//1 40//1 44//1
f 44//2 40//2 42//2
f 41//1 43//1 45//1
f 45//2 43//2 41//2
f 44//1 40//1 46//1
f 46//2 40//2 44//2
f 45//1 43//1 47//1
f 47//2 43//2 45//2
f 44//1 46//1 48//1
f 48//2 46//2 44//2
f 45//1 47//1 49//1
f 49//2 47//2 45//2
f 48//1 46//1 50//1
f 50//2 46//2 48//2
f 49//1 47//1 51//1
f 51//2 47//2 49//2
f 50//1 46//1 52//1
f 52//2 46//2 50//2
f 49//1 51//1 53//1
f 53//2 51//2 49//2
f 50//1 52//1 54//1
f 54//2 52//2 50//2
f 53//1 51//1 55//1
f 55//2 51//2 53//2
f 54//1 52//1 56//1
f 56//2 52//2 54//2
f 53//1 55//1 57//1
f 57//2 55//2 53//2
f 56//1 52//1 58//1
f 58//2 52//2 56//2
f 57//1 55//1 59//1
f 59//2 55//2 57//2
f 56//1 58//1 60//1
f 60//2 58//2 56//2
f 59//1 61//1 57//1
f 57//2 61//2 59//2
f 60//1 58//1 62//1
f 62//2 58//2 60//2
f 63//1 61//1 59//1
f 59//2 61//2 63//2
f 57//1 61//1 64//1
f 64//2 61//2 57//2
f 65//1 61//1 63//1
f 63//2 61//2 65//2
f 61//1 65//1 66//1
f 66//2 65//2 61//2
