# SSTK version 0.8.0
# 412
mtllib original-412.mtl
o mesh314/mesh314-geometry#mesh314-geometry
v -0.658974 0.046938 0.096018
v -0.658956 0.045902 0.096253
v -0.659023 0.046454 0.096128
v -0.658826 0.047387 0.095916
v -0.658756 0.045397 0.096367
v -0.658580 0.047801 0.095823
v -0.658426 0.044937 0.096471
v -0.658235 0.048180 0.095737
v -0.657971 0.044519 0.096566
v -0.657904 0.046928 0.096020
v -0.657814 0.048497 0.095665
v -0.657829 0.046521 0.096113
v -0.657785 0.047454 0.095901
v -0.656229 0.043451 0.096808
v -0.657340 0.048723 0.095614
v -0.657602 0.046152 0.096196
v -0.657426 0.047919 0.095796
v -0.656865 0.045552 0.096332
v -0.656884 0.048246 0.095722
v -0.655526 0.044779 0.096507
v -0.656811 0.048859 0.095583
v -0.654731 0.042576 0.097006
v -0.656215 0.048355 0.095697
v -0.654401 0.044161 0.096647
v -0.656229 0.048904 0.095573
v -0.654376 0.042262 0.097077
v -0.655447 0.048813 0.095593
v -0.653700 0.043705 0.096750
v -0.655578 0.048275 0.095715
v -0.654129 0.041924 0.097154
v -0.654963 0.048033 0.095770
v -0.653984 0.041576 0.097233
v -0.654618 0.048541 0.095655
v -0.653935 0.041231 0.097311
v -0.654427 0.047653 0.095856
v -0.653524 0.039937 0.097604
v -0.654062 0.048369 0.095694
v -0.653974 0.039603 0.097680
v -0.653267 0.043298 0.096843
v -0.654030 0.047161 0.095968
v -0.654063 0.040655 0.097442
v -0.653156 0.040338 0.097513
v -0.653763 0.048475 0.095670
v -0.654446 0.040160 0.097554
v -0.652947 0.042823 0.096950
v -0.653753 0.046518 0.096113
v -0.654485 0.039363 0.097734
v -0.652893 0.040776 0.097414
v -0.653576 0.048904 0.095573
v -0.655048 0.039821 0.097631
v -0.652749 0.042304 0.097068
v -0.653576 0.045686 0.096302
v -0.655056 0.039220 0.097767
v -0.652735 0.041249 0.097307
v -0.653316 0.048904 0.095573
v -0.655688 0.039172 0.097778
v -0.652683 0.041760 0.097191
v -0.653316 0.045686 0.096302
v -0.655835 0.039707 0.097656
v -0.656469 0.039234 0.097764
v -0.656565 0.039790 0.097638
v -0.657232 0.040037 0.097582
v -0.657373 0.039484 0.097707
v -0.657787 0.040408 0.097497
v -0.658179 0.040864 0.097394
v -0.658242 0.039701 0.097658
v -0.658457 0.041488 0.097253
v -0.658520 0.039598 0.097681
v -0.658671 0.039172 0.097778
v -0.658671 0.042364 0.097054
v -0.658932 0.039172 0.097778
v -0.658932 0.042364 0.097054
vn 0 -0.22096240244280452 -0.9752823266658246
vn 0 0.22096240244280452 0.9752823266658246
usemtl material_0_0
f 1//1 2//1 3//1
f 2//1 1//1 4//1
f 3//2 2//2 1//2
f 4//2 1//2 2//2
f 2//1 4//1 5//1
f 5//2 4//2 2//2
f 5//1 4//1 6//1
f 6//2 4//2 5//2
f 5//1 6//1 7//1
f 7//2 6//2 5//2
f 7//1 6//1 8//1
f 8//2 6//2 7//2
f 7//1 8//1 9//1
f 9//2 8//2 7//2
f 9//1 8//1 10//1
f 10//2 8//2 9//2
f 10//1 8//1 11//1
f 11//2 8//2 10//2
f 12//1 9//1 10//1
f 10//2 9//2 12//2
f 10//1 11//1 13//1
f 13//2 11//2 10//2
f 9//1 12//1 14//1
f 14//2 12//2 9//2
f 13//1 11//1 15//1
f 15//2 11//2 13//2
f 14//1 12//1 16//1
f 16//2 12//2 14//2
f 13//1 15//1 17//1
f 17//2 15//2 13//2
f 14//1 16//1 18//1
f 18//2 16//2 14//2
f 17//1 15//1 19//1
f 19//2 15//2 17//2
f 14//1 18//1 20//1
f 20//2 18//2 14//2
f 19//1 15//1 21//1
f 21//2 15//2 19//2
f 14//1 20//1 22//1
f 22//2 20//2 14//2
f 19//1 21//1 23//1
f 23//2 21//2 19//2
f 22//1 20//1 24//1
f 24//2 20//2 22//2
f 23//1 21//1 25//1
f 25//2 21//2 23//2
f 22//1 24//1 26//1
f 26//2 24//2 22//2
f 23//1 25//1 27//1
f 27//2 25//2 23//2
f 26//1 24//1 28//1
f 28//2 24//2 26//2
f 23//1 27//1 29//1
f 29//2 27//2 23//2
f 26//1 28//1 30//1
f 30//2 28//2 26//2
f 29//1 27//1 31//1
f 31//2 27//2 29//2
f 30//1 28//1 32//1
f 32//2 28//2 30//2
f 31//1 27//1 33//1
f 33//2 27//2 31//2
f 32//1 28//1 34//1
f 34//2 28//2 32//2
f 31//1 33//1 35//1
f 35//2 33//2 31//2
f 36//1 34//1 28//1
f 28//2 34//2 36//2
f 35//1 33//1 37//1
f 37//2 33//2 35//2
f 38//1 34//1 36//1
f 36//2 34//2 38//2
f 36//1 28//1 39//1
f 39//2 28//2 36//2
f 35//1 37//1 40//1
f 40//2 37//2 35//2
f 38//1 41//1 34//1
f 34//2 41//2 38//2
f 36//1 39//1 42//1
f 42//2 39//2 36//2
f 40//1 37//1 43//1
f 43//2 37//2 40//2
f 38//1 44//1 41//1
f 41//2 44//2 38//2
f 42//1 39//1 45//1
f 45//2 39//2 42//2
f 40//1 43//1 46//1
f 46//2 43//2 40//2
f 47//1 44//1 38//1
f 38//2 44//2 47//2
f 42//1 45//1 48//1
f 48//2 45//2 42//2
f 46//1 43//1 49//1
f 49//2 43//2 46//2
f 47//1 50//1 44//1
f 44//2 50//2 47//2
f 48//1 45//1 51//1
f 51//2 45//2 48//2
f 46//1 49//1 52//1
f 52//2 49//2 46//2
f 53//1 50//1 47//1
f 47//2 50//2 53//2
f 48//1 51//1 54//1
f 54//2 51//2 48//2
f 52//1 49//1 55//1
f 55//2 49//2 52//2
f 56//1 50//1 53//1
f 53//2 50//2 56//2
f 54//1 51//1 57//1
f 57//2 51//2 54//2
f 52//1 55//1 58//1
f 58//2 55//2 52//2
f 56//1 59//1 50//1
f 50//2 59//2 56//2
f 60//1 59//1 56//1
f 56//2 59//2 60//2
f 60//1 61//1 59//1
f 59//2 61//2 60//2
f 60//1 62//1 61//1
f 61//2 62//2 60//2
f 63//1 62//1 60//1
f 60//2 62//2 63//2
f 63//1 64//1 62//1
f 62//2 64//2 63//2
f 63//1 65//1 64//1
f 64//2 65//2 63//2
f 66//1 65//1 63//1
f 63//2 65//2 66//2
f 66//1 67//1 65//1
f 65//2 67//2 66//2
f 68//1 67//1 66//1
f 66//2 67//2 68//2
f 69//1 67//1 68//1
f 68//2 67//2 69//2
f 69//1 70//1 67//1
f 67//2 70//2 69//2
f 71//1 70//1 69//1
f 69//2 70//2 71//2
f 70//1 71//1 72//1
f 72//2 71//2 70//2
