# SSTK version 0.8.0
# 223
mtllib original-223.mtl
o mesh185/mesh185-geometry#mesh185-geometry
v 0.305642 0.073228 -0.242668
v 0.304139 0.073181 -0.241836
v 0.304083 0.073193 -0.242038
v 0.304533 0.073186 -0.241920
v 0.304778 0.073182 -0.241841
v 0.304913 0.073168 -0.241591
v 0.304950 0.073108 -0.240520
v 0.304950 0.072997 -0.238525
v 0.305879 0.073000 -0.238570
v 0.305905 0.072979 -0.238195
v 0.305879 0.073228 -0.242668
v 0.305986 0.072964 -0.237923
v 0.305879 0.073163 -0.241510
v 0.306244 0.072950 -0.237670
v 0.305879 0.073137 -0.241037
v 0.304922 0.072967 -0.237980
v 0.306204 0.073191 -0.242016
v 0.306779 0.072933 -0.237367
v 0.306145 0.073162 -0.241491
v 0.304844 0.072958 -0.237810
v 0.306471 0.072946 -0.237595
v 0.306402 0.073179 -0.241796
v 0.304725 0.072951 -0.237693
v 0.306779 0.072944 -0.237569
v 0.306534 0.073212 -0.242378
v 0.304482 0.072946 -0.237600
v 0.306622 0.073185 -0.241909
v 0.304139 0.072933 -0.237367
v 0.306869 0.073224 -0.242595
v 0.304139 0.072944 -0.237569
v 0.306985 0.073175 -0.241715
v 0.307207 0.073228 -0.242668
v 0.307218 0.073167 -0.241569
v 0.307490 0.073225 -0.242621
v 0.307427 0.073164 -0.241521
v 0.307615 0.073166 -0.241559
v 0.307720 0.073217 -0.242479
v 0.307776 0.073172 -0.241673
v 0.307872 0.073206 -0.242276
v 0.307886 0.073182 -0.241841
v 0.307922 0.073193 -0.242044
v 0.308275 0.073217 -0.242474
v 0.307962 0.073197 -0.242122
v 0.307962 0.073208 -0.242308
v 0.308778 0.073197 -0.242122
v 0.308595 0.073231 -0.242727
v 0.308901 0.073249 -0.243049
v 0.308778 0.073005 -0.238660
v 0.308807 0.072978 -0.238176
v 0.308896 0.072959 -0.237836
v 0.309047 0.072946 -0.237600
v 0.309172 0.073270 -0.243426
v 0.309262 0.072936 -0.237426
v 0.309532 0.073313 -0.244208
v 0.309513 0.072930 -0.237318
v 0.309707 0.073012 -0.238783
v 0.309707 0.073313 -0.244208
v 0.309769 0.072928 -0.237283
v 0.309707 0.073219 -0.242516
v 0.309743 0.072989 -0.238365
v 0.309707 0.073197 -0.242122
v 0.309850 0.072974 -0.238109
v 0.310912 0.073219 -0.242516
v 0.310146 0.072932 -0.237352
v 0.310912 0.073197 -0.242122
v 0.310014 0.072967 -0.237978
v 0.310219 0.072965 -0.237935
v 0.310512 0.072944 -0.237561
v 0.310580 0.072971 -0.238050
v 0.310831 0.072963 -0.237907
v 0.310734 0.072979 -0.238192
v 0.310850 0.072990 -0.238390
v 0.311069 0.072990 -0.238390
vn 0 -0.9984603542956606 -0.05546999999805311
vn 0 0.9984603542956606 0.05546999999805311
usemtl material_0_0
f 1//1 2//1 3//1
f 2//1 1//1 4//1
f 3//2 2//2 1//2
f 4//2 1//2 2//2
f 4//1 1//1 5//1
f 5//2 1//2 4//2
f 5//1 1//1 6//1
f 6//2 1//2 5//2
f 6//1 1//1 7//1
f 7//2 1//2 6//2
f 7//1 1//1 8//1
f 8//2 1//2 7//2
f 9//1 8//1 1//1
f 1//2 8//2 9//2
f 10//1 8//1 9//1
f 9//2 8//2 10//2
f 9//1 1//1 11//1
f 11//2 1//2 9//2
f 12//1 8//1 10//1
f 10//2 8//2 12//2
f 9//1 11//1 13//1
f 13//2 11//2 9//2
f 14//1 8//1 12//1
f 12//2 8//2 14//2
f 9//1 13//1 15//1
f 15//2 13//2 9//2
f 14//1 16//1 8//1
f 8//2 16//2 14//2
f 17//1 15//1 13//1
f 13//2 15//2 17//2
f 18//1 16//1 14//1
f 14//2 16//2 18//2
f 15//1 17//1 19//1
f 19//2 17//2 15//2
f 18//1 20//1 16//1
f 16//2 20//2 18//2
f 18//1 14//1 21//1
f 21//2 14//2 18//2
f 19//1 17//1 22//1
f 22//2 17//2 19//2
f 18//1 23//1 20//1
f 20//2 23//2 18//2
f 18//1 21//1 24//1
f 24//2 21//2 18//2
f 22//1 17//1 25//1
f 25//2 17//2 22//2
f 18//1 26//1 23//1
f 23//2 26//2 18//2
f 22//1 25//1 27//1
f 27//2 25//2 22//2
f 28//1 26//1 18//1
f 18//2 26//2 28//2
f 27//1 25//1 29//1
f 29//2 25//2 27//2
f 26//1 28//1 30//1
f 30//2 28//2 26//2
f 27//1 29//1 31//1
f 31//2 29//2 27//2
f 31//1 29//1 32//1
f 32//2 29//2 31//2
f 31//1 32//1 33//1
f 33//2 32//2 31//2
f 33//1 32//1 34//1
f 34//2 32//2 33//2
f 33//1 34//1 35//1
f 35//2 34//2 33//2
f 35//1 34//1 36//1
f 36//2 34//2 35//2
f 36//1 34//1 37//1
f 37//2 34//2 36//2
f 36//1 37//1 38//1
f 38//2 37//2 36//2
f 38//1 37//1 39//1
f 39//2 37//2 38//2
f 38//1 39//1 40//1
f 40//2 39//2 38//2
f 40//1 39//1 41//1
f 41//2 39//2 40//2
f 42//1 43//1 44//1
f 44//2 43//2 42//2
f 43//1 42//1 45//1
f 45//2 42//2 43//2
f 45//1 42//1 46//1
f 46//2 42//2 45//2
f 45//1 46//1 47//1
f 47//2 46//2 45//2
f 45//1 47//1 48//1
f 48//2 47//2 45//2
f 48//1 47//1 49//1
f 49//2 47//2 48//2
f 49//1 47//1 50//1
f 50//1 47//1 51//1
f 50//2 47//2 49//2
f 51//2 47//2 50//2
f 51//1 47//1 52//1
f 52//2 47//2 51//2
f 51//1 52//1 53//1
f 53//2 52//2 51//2
f 53//1 52//1 54//1
f 54//2 52//2 53//2
f 53//1 54//1 55//1
f 55//2 54//2 53//2
f 55//1 54//1 56//1
f 56//2 54//2 55//2
f 56//1 54//1 57//1
f 57//2 54//2 56//2
f 55//1 56//1 58//1
f 58//2 56//2 55//2
f 56//1 57//1 59//1
f 59//2 57//2 56//2
f 58//1 56//1 60//1
f 60//2 56//2 58//2
f 56//1 59//1 61//1
f 61//2 59//2 56//2
f 58//1 60//1 62//1
f 62//2 60//2 58//2
f 63//1 61//1 59//1
f 59//2 61//2 63//2
f 58//1 62//1 64//1
f 64//2 62//2 58//2
f 61//1 63//1 65//1
f 65//2 63//2 61//2
f 64//1 62//1 66//1
f 66//2 62//2 64//2
f 64//1 66//1 67//1
f 67//2 66//2 64//2
f 64//1 67//1 68//1
f 68//2 67//2 64//2
f 68//1 67//1 69//1
f 69//2 67//2 68//2
f 68//1 69//1 70//1
f 70//2 69//2 68//2
f 70//1 69//1 71//1
f 71//2 69//2 70//2
f 70//1 71//1 72//1
f 72//2 71//2 70//2
f 70//1 72//1 73//1
f 73//2 72//2 70//2
