# SSTK version 0.8.0
# 138
mtllib original-138.mtl
o ___1_1_7/___1_7/mesh122/mesh122-geometry#mesh122-geometry
v 0.738302 0.055378 0.079169
v 0.738431 0.055288 0.080792
v 0.737554 0.055378 0.079169
v 0.739524 0.055308 0.080424
v 0.739475 0.055209 0.082208
v 0.739475 0.055154 0.083202
v 0.739475 0.055054 0.084996
v 0.723761 0.055154 0.083202
v 0.740480 0.055104 0.084092
v 0.738482 0.055082 0.084493
v 0.723761 0.055209 0.082208
v 0.740568 0.055257 0.081338
v 0.738293 0.054985 0.086242
v 0.741411 0.055141 0.083424
v 0.737534 0.054985 0.086242
v 0.741497 0.055221 0.081986
v 0.742371 0.055171 0.082887
v 0.742371 0.055196 0.082445
vn 0 -0.9984603542956606 -0.05546999999805311
vn 0 0.9984603542956606 0.05546999999805311
usemtl material_0_0
f 1//1 2//1 3//1
f 2//1 1//1 4//1
f 3//2 2//2 1//2
f 4//2 1//2 2//2
f 2//1 4//1 5//1
f 5//2 4//2 2//2
f 5//1 4//1 6//1
f 6//2 4//2 5//2
f 6//1 4//1 7//1
f 7//2 4//2 6//2
f 8//1 5//1 6//1
f 6//2 5//2 8//2
f 7//1 4//1 9//1
f 9//2 4//2 7//2
f 7//1 10//1 6//1
f 6//2 10//2 7//2
f 5//1 8//1 11//1
f 11//2 8//2 5//2
f 9//1 4//1 12//1
f 12//2 4//2 9//2
f 13//1 10//1 7//1
f 7//2 10//2 13//2
f 9//1 12//1 14//1
f 14//2 12//2 9//2
f 10//1 13//1 15//1
f 15//2 13//2 10//2
f 14//1 12//1 16//1
f 16//2 12//2 14//2
f 14//1 16//1 17//1
f 17//2 16//2 14//2
f 17//1 16//1 18//1
f 18//2 16//2 17//2
