# SSTK version 0.8.0
# 50
mtllib original-50.mtl
o mesh44/mesh44-geometry#mesh44-geometry
v 0.301048 0.065595 -0.105278
v 0.297777 0.065583 -0.105070
v 0.297777 0.065595 -0.105278
v 0.298048 0.065583 -0.105070
v 0.298312 0.065581 -0.105037
v 0.298566 0.065576 -0.104935
v 0.298797 0.065562 -0.104694
v 0.300369 0.065580 -0.105001
v 0.300773 0.065583 -0.105070
v 0.298870 0.065520 -0.103929
v 0.301048 0.065583 -0.105070
v 0.300091 0.065568 -0.104795
v 0.299986 0.065551 -0.104488
v 0.298870 0.065246 -0.099005
v 0.299951 0.065520 -0.103929
v 0.299951 0.065246 -0.099005
v 0.300024 0.065204 -0.098241
v 0.300260 0.065190 -0.097999
v 0.298836 0.065215 -0.098446
v 0.301048 0.065171 -0.097656
v 0.298735 0.065198 -0.098139
v 0.300509 0.065185 -0.097898
v 0.298456 0.065187 -0.097933
v 0.300773 0.065183 -0.097864
v 0.298048 0.065183 -0.097864
v 0.301048 0.065183 -0.097864
v 0.297777 0.065171 -0.097656
v 0.297777 0.065183 -0.097864
vn 0 -0.9984603542956606 -0.05546999999805311
vn 0 0.9984603542956606 0.05546999999805311
usemtl material_0_0
f 1//1 2//1 3//1
f 2//1 1//1 4//1
f 3//2 2//2 1//2
f 4//2 1//2 2//2
f 4//1 1//1 5//1
f 5//2 1//2 4//2
f 5//1 1//1 6//1
f 6//2 1//2 5//2
f 6//1 1//1 7//1
f 7//2 1//2 6//2
f 7//1 1//1 8//1
f 8//2 1//2 7//2
f 8//1 1//1 9//1
f 9//2 1//2 8//2
f 7//1 8//1 10//1
f 10//2 8//2 7//2
f 9//1 1//1 11//1
f 11//2 1//2 9//2
f 10//1 8//1 12//1
f 12//2 8//2 10//2
f 10//1 12//1 13//1
f 13//2 12//2 10//2
f 10//1 13//1 14//1
f 14//2 13//2 10//2
f 14//1 13//1 15//1
f 15//2 13//2 14//2
f 16//1 14//1 15//1
f 15//2 14//2 16//2
f 17//1 14//1 16//1
f 16//2 14//2 17//2
f 18//1 14//1 17//1
f 17//2 14//2 18//2
f 18//1 19//1 14//1
f 14//2 19//2 18//2
f 20//1 19//1 18//1
f 18//2 19//2 20//2
f 20//1 21//1 19//1
f 19//2 21//2 20//2
f 20//1 18//1 22//1
f 22//2 18//2 20//2
f 20//1 23//1 21//1
f 21//2 23//2 20//2
f 20//1 22//1 24//1
f 24//2 22//2 20//2
f 20//1 25//1 23//1
f 23//2 25//2 20//2
f 20//1 24//1 26//1
f 26//2 24//2 20//2
f 27//1 25//1 20//1
f 20//2 25//2 27//2
f 25//1 27//1 28//1
f 28//2 27//2 25//2
