# SSTK version 0.8.0
# 24
mtllib original-24.mtl
o __1/__/mesh21/mesh21-geometry#mesh21-geometry
v 0.088346 0.056561 0.057868
v 0.088516 0.056523 0.058548
v 0.088454 0.056504 0.058896
v 0.088863 0.056579 0.057539
v 0.088223 0.056449 0.059894
v 0.088701 0.056539 0.058271
v 0.088006 0.056534 0.058361
v 0.088594 0.056435 0.060149
v 0.088996 0.056549 0.058090
v 0.087975 0.056471 0.059492
v 0.088502 0.056486 0.059213
v 0.089509 0.056586 0.057430
v 0.087893 0.056500 0.058964
v 0.088647 0.056473 0.059456
v 0.089390 0.056552 0.058030
v 0.089046 0.056430 0.060233
v 0.089804 0.056548 0.058099
v 0.088855 0.056464 0.059611
v 0.089883 0.056584 0.057450
v 0.089095 0.056461 0.059663
v 0.090228 0.056537 0.058305
v 0.089552 0.056435 0.060135
v 0.090346 0.056581 0.057509
v 0.089416 0.056466 0.059587
v 0.090468 0.056479 0.059348
v 0.089730 0.056478 0.059358
v 0.090026 0.056452 0.059840
v 0.090371 0.056606 0.057066
v 0.090010 0.056502 0.058942
v 0.090376 0.056623 0.056751
v 0.090523 0.057086 0.048429
v 0.090169 0.056803 0.053515
v 0.090878 0.056517 0.058659
v 0.090169 0.056855 0.052580
v 0.091098 0.057134 0.047552
v 0.090161 0.057028 0.049474
v 0.088257 0.056803 0.053515
v 0.091272 0.056570 0.057705
v 0.090041 0.056964 0.050623
v 0.088257 0.056855 0.052580
v 0.091656 0.057016 0.049678
v 0.092878 0.056443 0.059992
v 0.091858 0.057170 0.046909
v 0.091750 0.056671 0.055895
v 0.093479 0.056533 0.058384
v 0.091783 0.057089 0.048375
v 0.091775 0.056914 0.051518
v 0.093452 0.056433 0.060173
v 0.091942 0.057115 0.047897
v 0.091883 0.056766 0.054184
v 0.094090 0.056430 0.060233
v 0.092741 0.057192 0.046514
v 0.091873 0.056803 0.053515
v 0.094484 0.056526 0.058502
v 0.092164 0.057135 0.047534
v 0.091873 0.056855 0.052580
v 0.095039 0.056441 0.060029
v 0.092739 0.057161 0.047076
v 0.094415 0.056855 0.052580
v 0.095225 0.056531 0.058407
v 0.093449 0.057169 0.046924
v 0.094415 0.056803 0.053515
v 0.095898 0.056475 0.059417
v 0.093686 0.057199 0.046383
v 0.095814 0.056547 0.058123
v 0.093940 0.057165 0.046993
v 0.096257 0.056574 0.057635
v 0.094773 0.057190 0.046550
v 0.096266 0.056500 0.058961
v 0.094307 0.057154 0.047199
v 0.096563 0.056613 0.056928
v 0.094538 0.057134 0.047552
v 0.096559 0.056531 0.058409
v 0.094642 0.057106 0.048060
v 0.096917 0.056609 0.057017
v 0.094789 0.057064 0.048822
v 0.095202 0.057178 0.046759
v 0.095068 0.057048 0.049103
v 0.095410 0.057043 0.049196
v 0.095553 0.057162 0.047052
v 0.095685 0.057046 0.049135
v 0.096022 0.057125 0.047721
v 0.095937 0.057057 0.048950
v 0.096118 0.057071 0.048687
v 0.096179 0.057088 0.048390
vn 0 -0.9984603542956606 -0.05546999999805311
vn 0 0.9984603542956606 0.05546999999805311
usemtl material_0_0
f 1//1 2//1 3//1
f 2//1 1//1 4//1
f 3//2 2//2 1//2
f 4//2 1//2 2//2
f 5//1 1//1 3//1
f 3//2 1//2 5//2
f 2//1 4//1 6//1
f 6//2 4//2 2//2
f 5//1 7//1 1//1
f 1//2 7//2 5//2
f 5//1 3//1 8//1
f 8//2 3//2 5//2
f 6//1 4//1 9//1
f 9//2 4//2 6//2
f 10//1 7//1 5//1
f 5//2 7//2 10//2
f 8//1 3//1 11//1
f 11//2 3//2 8//2
f 9//1 4//1 12//1
f 12//2 4//2 9//2
f 7//1 10//1 13//1
f 13//2 10//2 7//2
f 8//1 11//1 14//1
f 14//2 11//2 8//2
f 9//1 12//1 15//1
f 15//2 12//2 9//2
f 8//1 14//1 16//1
f 16//2 14//2 8//2
f 15//1 12//1 17//1
f 17//2 12//2 15//2
f 16//1 14//1 18//1
f 18//2 14//2 16//2
f 17//1 12//1 19//1
f 19//2 12//2 17//2
f 16//1 18//1 20//1
f 20//2 18//2 16//2
f 17//1 19//1 21//1
f 21//2 19//2 17//2
f 16//1 20//1 22//1
f 22//2 20//2 16//2
f 21//1 19//1 23//1
f 23//2 19//2 21//2
f 22//1 20//1 24//1
f 24//2 20//2 22//2
f 25//1 21//1 23//1
f 23//2 21//2 25//2
f 22//1 24//1 26//1
f 26//2 24//2 22//2
f 27//1 21//1 25//1
f 25//2 21//2 27//2
f 25//1 23//1 28//1
f 28//2 23//2 25//2
f 22//1 26//1 27//1
f 27//2 26//2 22//2
f 27//1 29//1 21//1
f 21//2 29//2 27//2
f 25//1 28//1 30//1
f 30//2 28//2 25//2
f 27//1 26//1 29//1
f 29//2 26//2 27//2
f 30//1 31//1 25//1
f 25//2 31//2 30//2
f 32//1 31//1 30//1
f 30//2 31//2 32//2
f 25//1 31//1 33//1
f 33//2 31//2 25//2
f 34//1 31//1 32//1
f 32//2 31//2 34//2
f 33//1 31//1 35//1
f 35//2 31//2 33//2
f 34//1 36//1 31//1
f 31//2 36//2 34//2
f 37//1 34//1 32//1
f 32//2 34//2 37//2
f 33//1 35//1 38//1
f 38//2 35//2 33//2
f 36//1 34//1 39//1
f 39//2 34//2 36//2
f 34//1 37//1 40//1
f 40//2 37//2 34//2
f 35//1 41//1 38//1
f 38//2 41//2 35//2
f 33//1 38//1 42//1
f 42//2 38//2 33//2
f 41//1 35//1 43//1
f 43//2 35//2 41//2
f 41//1 44//1 38//1
f 38//2 44//2 41//2
f 42//1 38//1 45//1
f 45//2 38//2 42//2
f 41//1 43//1 46//1
f 46//2 43//2 41//2
f 44//1 41//1 47//1
f 47//2 41//2 44//2
f 42//1 45//1 48//1
f 48//2 45//2 42//2
f 46//1 43//1 49//1
f 49//2 43//2 46//2
f 44//1 47//1 50//1
f 50//2 47//2 44//2
f 48//1 45//1 51//1
f 51//2 45//2 48//2
f 49//1 43//1 52//1
f 52//2 43//2 49//2
f 50//1 47//1 53//1
f 53//2 47//2 50//2
f 51//1 45//1 54//1
f 54//2 45//2 51//2
f 49//1 52//1 55//1
f 55//2 52//2 49//2
f 53//1 47//1 56//1
f 56//2 47//2 53//2
f 51//1 54//1 57//1
f 57//2 54//2 51//2
f 55//1 52//1 58//1
f 58//2 52//2 55//2
f 59//1 53//1 56//1
f 56//2 53//2 59//2
f 57//1 54//1 60//1
f 60//2 54//2 57//2
f 58//1 52//1 61//1
f 61//2 52//2 58//2
f 53//1 59//1 62//1
f 62//2 59//2 53//2
f 57//1 60//1 63//1
f 63//2 60//2 57//2
f 61//1 52//1 64//1
f 64//2 52//2 61//2
f 63//1 60//1 65//1
f 65//2 60//2 63//2
f 61//1 64//1 66//1
f 66//2 64//2 61//2
f 63//1 65//1 67//1
f 67//2 65//2 63//2
f 66//1 64//1 68//1
f 68//2 64//2 66//2
f 63//1 67//1 69//1
f 69//2 67//2 63//2
f 66//1 68//1 70//1
f 70//2 68//2 66//2
f 69//1 67//1 71//1
f 71//2 67//2 69//2
f 70//1 68//1 72//1
f 72//2 68//2 70//2
f 69//1 71//1 73//1
f 73//2 71//2 69//2
f 72//1 68//1 74//1
f 74//2 68//2 72//2
f 73//1 71//1 75//1
f 75//2 71//2 73//2
f 74//1 68//1 76//1
f 76//2 68//2 74//2
f 76//1 68//1 77//1
f 77//2 68//2 76//2
f 76//1 77//1 78//1
f 78//2 77//2 76//2
f 78//1 77//1 79//1
f 79//2 77//2 78//2
f 79//1 77//1 80//1
f 80//2 77//2 79//2
f 79//1 80//1 81//1
f 81//2 80//2 79//2
f 81//1 80//1 82//1
f 82//2 80//2 81//2
f 81//1 82//1 83//1
f 83//2 82//2 81//2
f 83//1 82//1 84//1
f 84//2 82//2 83//2
f 84//1 82//1 85//1
f 85//2 82//2 84//2
