# SSTK version 0.8.0
# 177
mtllib original-177.mtl
o __1_18/__18/mesh153/mesh153-geometry#mesh153-geometry
v 0.007662 0.050836 0.160926
v 0.007884 0.050771 0.162098
v 0.007450 0.050771 0.162098
v 0.007882 0.050862 0.160457
v 0.008179 0.050884 0.160066
v 0.008150 0.050816 0.161276
v 0.008554 0.050847 0.160720
v 0.008908 0.050913 0.159539
v 0.009081 0.050865 0.160403
v 0.009756 0.050923 0.159363
v 0.009716 0.050871 0.160297
v 0.010576 0.050862 0.160455
v 0.010642 0.050915 0.159501
v 0.011874 0.050836 0.160927
v 0.013337 0.050859 0.160509
v 0.014573 0.050778 0.161965
v 0.014759 0.050829 0.161044
v 0.015549 0.050770 0.162117
v 0.015687 0.050819 0.161222
v 0.016467 0.050780 0.161937
v 0.016366 0.050826 0.161104
v 0.016928 0.050846 0.160750
v 0.017233 0.050810 0.161394
v 0.017327 0.050878 0.160174
v 0.017538 0.050832 0.160998
v 0.017519 0.050921 0.159392
v 0.017962 0.050921 0.159392
v 0.017760 0.050858 0.160532
vn 0 -0.9984603542956606 -0.05546999999805311
vn 0 0.9984603542956606 0.05546999999805311
usemtl material_0_0
f 1//1 2//1 3//1
f 2//1 1//1 4//1
f 3//2 2//2 1//2
f 4//2 1//2 2//2
f 2//1 4//1 5//1
f 5//2 4//2 2//2
f 2//1 5//1 6//1
f 6//2 5//2 2//2
f 6//1 5//1 7//1
f 7//2 5//2 6//2
f 7//1 5//1 8//1
f 8//2 5//2 7//2
f 7//1 8//1 9//1
f 9//2 8//2 7//2
f 9//1 8//1 10//1
f 10//2 8//2 9//2
f 9//1 10//1 11//1
f 11//2 10//2 9//2
f 11//1 10//1 12//1
f 12//2 10//2 11//2
f 12//1 10//1 13//1
f 13//2 10//2 12//2
f 12//1 13//1 14//1
f 14//2 13//2 12//2
f 14//1 13//1 15//1
f 15//2 13//2 14//2
f 14//1 15//1 16//1
f 16//2 15//2 14//2
f 16//1 15//1 17//1
f 17//2 15//2 16//2
f 16//1 17//1 18//1
f 18//2 17//2 16//2
f 18//1 17//1 19//1
f 19//2 17//2 18//2
f 18//1 19//1 20//1
f 20//2 19//2 18//2
f 20//1 19//1 21//1
f 21//2 19//2 20//2
f 20//1 21//1 22//1
f 22//2 21//2 20//2
f 20//1 22//1 23//1
f 23//2 22//2 20//2
f 23//1 22//1 24//1
f 24//2 22//2 23//2
f 23//1 24//1 25//1
f 25//2 24//2 23//2
f 25//1 24//1 26//1
f 26//2 24//2 25//2
f 25//1 26//1 27//1
f 27//2 26//2 25//2
f 25//1 27//1 28//1
f 28//2 27//2 25//2
