mtllib new-1.mtl
v 0.174554 -0.553953 -0.274776
v -0.159099 -0.573696 -0.275239
v 0.176102 -0.573696 -0.275239
v -0.157551 -0.553953 -0.274776
v -0.161146 -0.593284 -0.272785
v 0.170496 -0.530432 -0.286846
v 0.173510 -0.533897 -0.271299
v -0.153493 -0.530432 -0.286846
v 0.178149 -0.593284 -0.272785
v -0.164749 -0.638153 -0.273350
v 0.178495 -0.617961 -0.282417
v -0.156507 -0.533897 -0.271299
v -0.161492 -0.617961 -0.282417
v -0.163644 -0.612266 -0.267470
v 0.181752 -0.638153 -0.273350
v 0.143806 0.012534 -0.112831
v 0.175683 -0.596594 -0.288401
v 0.065219 -0.301365 -0.196740
v -0.126803 0.012534 -0.112831
v -0.158680 -0.596594 -0.288401
v 0.180647 -0.612266 -0.267470
v -0.168374 -0.656706 -0.261409
v 0.083661 -0.269579 -0.203246
v 0.143611 0.020198 -0.110338
v 0.171637 -0.552320 -0.290641
v 0.076542 -0.286680 -0.192032
v 0.050461 -0.312634 -0.200353
v -0.126608 0.020198 -0.110338
v -0.053993 -0.269579 -0.203246
v -0.154634 -0.552320 -0.290641
v -0.166537 -0.630204 -0.259415
v 0.185377 -0.656706 -0.261409
v 0.076542 -0.286680 -0.208726
v 0.086089 -0.251227 -0.197364
v 0.143631 0.027429 -0.106825
v -0.156376 -0.574544 -0.291163
v 0.173379 -0.574544 -0.291163
v 0.083661 -0.269579 -0.186548
v 0.050461 -0.312634 -0.217044
v 0.033276 -0.319717 -0.202624
v -0.126628 0.027429 -0.106825
v -0.046875 -0.286680 -0.208726
v -0.056421 -0.251227 -0.197364
v 0.183540 -0.630204 -0.259415
v -0.169758 -0.646686 -0.248807
v 0.065219 -0.301365 -0.213433
v 0.083661 -0.232875 -0.191483
v 0.143865 0.034085 -0.102361
v -0.035551 -0.301365 -0.213433
v 0.146864 0.007915 -0.097573
v 0.033276 -0.319717 -0.219315
v 0.014834 -0.322133 -0.203399
v -0.126862 0.034085 -0.102361
v 0.014834 -0.180321 -0.174640
v -0.046875 -0.286680 -0.192032
v -0.053993 -0.232875 -0.191483
v -0.053993 -0.269579 -0.186548
v 0.186761 -0.646686 -0.248807
v 0.086089 -0.251227 -0.180664
v 0.076542 -0.215774 -0.186002
v -0.020794 -0.312634 -0.217044
v 0.014834 -0.322133 -0.220089
v -0.003608 -0.319717 -0.202624
v -0.129861 0.007915 -0.097573
v 0.033276 -0.182737 -0.175414
v -0.003608 -0.182737 -0.175414
v -0.035551 -0.301365 -0.196740
v -0.046875 -0.215774 -0.186002
v -0.056421 -0.251227 -0.180664
v -0.173233 -0.661331 -0.235890
v 0.083661 -0.232875 -0.174780
v 0.065219 -0.201089 -0.181295
v -0.127305 0.040036 -0.097033
v 0.144308 0.040036 -0.097033
v -0.020794 -0.312634 -0.200353
v -0.003608 -0.319717 -0.219315
v 0.050461 -0.189821 -0.177684
v 0.014834 -0.180321 -0.157929
v -0.020794 -0.189821 -0.177684
v -0.035551 -0.201089 -0.181295
v -0.053993 -0.232875 -0.174780
v 0.076542 -0.215774 -0.169296
v 0.146710 0.013950 -0.095610
v -0.129707 0.013950 -0.095610
v 0.033276 -0.182737 -0.158704
v -0.003608 -0.182737 -0.158704
v -0.046875 -0.215774 -0.169296
v 0.065219 -0.201089 -0.164588
v 0.050461 -0.189821 -0.160975
v 0.144953 0.045165 -0.090947
v 0.146724 0.019130 -0.093093
v -0.129721 0.019130 -0.093093
v -0.020794 -0.189821 -0.160975
v -0.035551 -0.201089 -0.164588
v -0.127950 0.045165 -0.090947
v 0.145785 0.049370 -0.084221
v 0.146892 0.023899 -0.089895
v -0.129889 0.023899 -0.089895
v -0.128782 0.049370 -0.084221
v 0.147210 0.028163 -0.086078
v -0.130207 0.028163 -0.086078
v 0.146790 0.052570 -0.076989
v 0.147671 0.031837 -0.081717
v -0.130668 0.031837 -0.081717
v -0.129787 0.052570 -0.076989
v 0.147947 0.054701 -0.069391
v 0.148268 0.034850 -0.076899
v -0.131265 0.034850 -0.076899
v -0.130924 0.054685 -0.069515
v 0.147928 0.054667 -0.069515
v 0.148988 0.037142 -0.071717
v -0.131985 0.037142 -0.071717
v -0.130944 0.054701 -0.069391
v 0.149323 0.037760 -0.069515
v -0.132320 0.037760 -0.069515
v 0.149234 0.055722 -0.061577
v 0.149817 0.038669 -0.066274
v -0.132814 0.038669 -0.066274
v -0.132231 0.055722 -0.061577
v 0.150624 0.055613 -0.053701
v 0.150738 0.039401 -0.060676
v -0.133735 0.039401 -0.060676
v -0.133621 0.055613 -0.053701
v 0.151735 0.039322 -0.055033
v -0.134732 0.039322 -0.055033
v 0.152092 0.054375 -0.045917
v 0.152786 0.038436 -0.049457
v -0.135783 0.038436 -0.049457
v -0.135089 0.054375 -0.045917
v 0.153607 0.052034 -0.038379
v 0.154087 0.036426 -0.042987
v -0.137084 0.036426 -0.042987
v -0.136604 0.052034 -0.038379
vn 0.000000 -0.097389 0.995246
vn 0.000000 0.050541 0.998722
vn 0.000000 0.197477 0.980308
vn 0.000000 -0.238589 0.971121
vn 0.000000 0.340497 0.940246
vn 0.000000 -0.305327 0.952248
vn 0.000000 -0.340497 -0.940246
vn 0.000000 -0.476647 -0.879095
vn 0.000000 0.238524 -0.971137
vn 0.000000 0.305199 -0.952289
vn 0.000000 0.307277 -0.951620
vn 0.000000 -0.197477 -0.980308
vn 0.000000 0.476647 0.879095
vn 0.000000 -0.602947 -0.797782
vn 0.000000 0.373984 -0.927435
vn 0.000000 -0.050541 -0.998722
vn 0.000000 0.097389 -0.995246
vn 0.000000 -0.716417 -0.697673
vn 0.000000 0.498102 -0.867119
vn 0.000000 -0.307341 0.951599
vn 0.000000 0.602947 0.797782
vn 0.000000 0.613402 -0.789771
vn 0.000000 0.717544 -0.696514
vn 0.000000 0.716417 0.697673
vn 0.000000 0.808248 -0.588843
vn 0.000000 -0.373984 0.927435
vn 0.000000 -0.498102 0.867119
vn 0.000000 0.883378 -0.468660
vn 0.000000 -0.613402 0.789771
vn 0.000016 0.952385 -0.304897
vn 0.000000 -0.717544 0.696514
vn 0.000000 -0.808248 0.588843
vn 0.000000 0.984237 -0.176857
vn 0.000000 -0.883378 0.468660
vn 0.000000 0.962834 -0.270095
vn 0.000000 -1.000000 0.000000
vn 0.000000 -0.941045 0.338281
vn 0.000000 0.998316 -0.058002
vn 0.000000 -0.962834 0.270095
vn 0.000000 1.000000 0.000000
vn 0.000000 -0.979715 0.200395
vn 0.000000 0.996321 0.085704
vn 0.000000 -0.998316 0.058002
vn 0.000000 0.973785 0.227471
vn 0.000000 -0.996321 -0.085704
vn 0.000000 -0.973785 -0.227471
vn 0.000000 0.954992 0.296631
vn 0.000000 -0.954992 -0.296631
vn -0.981724 -0.081003 0.172213
vn -0.981229 -0.091426 0.169794
vn 0.000000 0.238589 -0.971121
vn 0.981724 -0.081003 0.172213
vn 0.981229 -0.091426 0.169794
vn -0.954466 -0.126186 0.270320
vn 0.954466 -0.126186 0.270320
vn -0.897661 -0.167058 0.407794
vn 0.000000 0.305327 -0.952248
vn 0.897661 -0.167058 0.407794
vn 0.000000 -0.307277 0.951620
vn 0.000000 -0.305199 0.952289
vn 0.000000 -0.238524 0.971137
vn -0.870912 -0.179849 0.457348
vn 0.870912 -0.179849 0.457348
vn -0.959833 -0.124731 0.251323
vn 0.864959 -0.501843 0.000000
vn 0.705368 -0.708841 0.000000
vn 0.498160 -0.867085 0.000000
vn 0.959833 -0.124731 0.251323
vn 0.965607 -0.260007 0.000000
vn 1.000000 0.000000 0.000000
vn -0.979713 -0.096257 0.175776
vn 0.000000 0.307341 -0.951599
vn 0.257635 -0.966242 0.000000
vn 0.979713 -0.096257 0.175776
vn -0.864959 -0.501843 0.000000
vn -0.965607 -0.260007 0.000000
vn -1.000000 0.000000 0.000000
vn 0.965607 0.260007 0.000000
vn -0.984946 -0.085380 0.150306
vn 0.984946 -0.085380 0.150306
vn -0.705368 -0.708841 0.000000
vn -0.965607 0.260007 0.000000
vn 0.864959 0.501843 0.000000
vn -0.498160 -0.867085 0.000000
vn -0.257635 -0.966242 0.000000
vn 0.257635 0.966242 0.000000
vn -0.257635 0.966242 0.000000
vn -0.864959 0.501843 0.000000
vn 0.705368 0.708841 0.000000
vn 0.498160 0.867085 0.000000
vn -0.498160 0.867085 0.000000
vn -0.705368 0.708841 0.000000
vn -0.000016 -0.952385 0.304897
vn 0.000000 -0.984237 0.176857
vn 0.000000 0.941045 -0.338281
vn 0.000000 0.979715 -0.200395
vn 0.000000 0.283160 -0.959073
vn 0.981229 0.091426 -0.169794
vn 0.981724 0.081003 -0.172213
vn -0.981724 0.081003 -0.172213
vn -0.981229 0.091426 -0.169794
vn 0.954466 0.126186 -0.270320
vn -0.954466 0.126186 -0.270320
vn 0.897661 0.167058 -0.407794
vn -0.897661 0.167058 -0.407794
vn 0.870912 0.179849 -0.457348
vn -0.870912 0.179849 -0.457348
vn 0.959833 0.124731 -0.251323
vn -0.959833 0.124731 -0.251323
vn 0.979713 0.096257 -0.175776
vn -0.979713 0.096257 -0.175776
vn 0.984946 0.085380 -0.150306
vn -0.984946 0.085380 -0.150306
vn 0.000000 -0.283160 0.959073
vn 0.000033 0.962528 -0.271183
vn -0.000033 -0.962528 0.271183
vn 0.000000 0.991571 -0.129565
vn 0.000000 -0.991571 0.129565
usemtl material-0
f 1//1 2//2 3//2
f 2//2 1//1 4//1
f 5//3 3//2 2//2
f 7//4 4//1 1//1
f 3//2 5//3 9//3
f 4//1 7//4 12//4
f 14//5 9//3 5//3
f 7//4 18//6 12//4
f 9//3 14//5 21//5
f 13//7 15//8 10//8
f 6//9 23//10 16//11
f 15//8 13//7 11//7
f 11//7 20//12 17//12
f 18//6 7//4 26//6
f 12//4 18//6 27//6
f 29//10 8//9 19//11
f 20//12 11//7 13//7
f 31//13 21//5 14//5
f 23//10 6//9 33//10
f 16//11 23//10 34//10
f 16//11 28//15 24//15
f 36//16 17//12 20//12
f 25//17 8//9 6//9
f 26//6 7//4 38//6
f 12//4 27//6 40//6
f 28//15 16//11 19//11
f 42//10 8//9 29//10
f 29//10 19//11 43//10
f 8//9 25//17 30//17
f 21//5 31//13 44//13
f 33//10 6//9 46//10
f 16//11 34//10 47//10
f 41//19 24//15 28//15
f 24//15 41//19 35//19
f 17//12 36//16 37//16
f 37//16 30//17 25//17
f 8//9 49//10 6//9
f 38//6 7//4 50//20
f 12//4 40//6 52//6
f 16//11 54//10 19//11
f 49//10 8//9 42//10
f 43//10 19//11 56//10
f 30//17 37//16 36//16
f 45//21 44//13 31//13
f 46//10 6//9 39//10
f 16//11 47//10 60//10
f 53//22 35//19 41//19
f 35//19 53//22 48//22
f 6//9 49//10 61//10
f 38//6 50//20 59//6
f 39//10 6//9 51//10
f 63//6 12//4 52//6
f 16//11 65//10 54//10
f 66//10 19//11 54//10
f 56//10 19//11 68//10
f 44//13 45//21 58//21
f 16//11 60//10 72//10
f 73//23 48//22 53//22
f 6//9 61//10 76//10
f 59//6 50//20 71//6
f 51//10 6//9 62//10
f 75//6 12//4 63//6
f 12//4 57//6 64//20
f 16//11 77//10 65//10
f 79//10 19//11 66//10
f 57//6 12//4 55//6
f 55//6 12//4 67//6
f 68//10 19//11 80//10
f 64//20 57//6 69//6
f 70//24 58//21 45//21
f 16//11 72//10 77//10
f 48//22 73//23 74//23
f 6//9 76//10 62//10
f 71//6 50//20 82//6
f 67//6 12//4 75//6
f 80//10 19//11 79//10
f 64//20 69//6 81//6
f 73//23 90//25 74//23
f 83//26 64//20 50//20
f 82//6 50//20 88//6
f 64//20 83//26 84//26
f 85//6 50//20 78//6
f 64//20 86//6 78//6
f 64//20 81//6 87//6
f 90//25 73//23 95//25
f 91//27 84//26 83//26
f 64//20 78//6 50//20
f 88//6 50//20 89//6
f 84//26 91//27 92//27
f 89//6 50//20 85//6
f 64//20 93//6 86//6
f 64//20 87//6 94//6
f 95//25 96//28 90//25
f 97//29 92//27 91//27
f 64//20 94//6 93//6
f 96//28 95//25 99//28
f 92//27 97//29 98//29
f 99//28 102//30 96//28
f 100//31 98//29 97//29
f 98//29 100//31 101//31
f 102//30 99//28 105//30
f 103//32 101//31 100//31
f 101//31 103//32 104//32
f 105//30 106//33 102//30
f 107//34 104//32 103//32
f 109//35 106//33 105//30
f 102//30 106//33 110//35
f 104//32 107//34 108//34
f 106//33 109//35 113//33
f 111//37 108//34 107//34
f 108//34 111//37 112//37
f 113//33 116//38 106//33
f 114//39 112//37 111//37
f 116//38 113//33 119//38
f 112//37 114//39 115//39
f 117//41 115//39 114//39
f 115//39 117//41 118//41
f 119//38 120//42 116//38
f 121//43 118//41 117//41
f 120//42 119//38 123//42
f 118//41 121//43 122//43
f 123//42 126//44 120//42
f 124//45 122//43 121//43
f 122//43 124//45 125//45
f 126//44 123//42 129//44
f 127//46 125//45 124//45
f 125//45 127//46 128//46
f 129//44 130//47 126//44
f 131//48 128//46 127//46
f 130//47 129//44 133//47
f 128//46 131//48 132//48
usemtl material-1
f 3//16 2//16 1//17
f 4//17 1//17 2//16
f 2//16 3//16 5//12
f 3//49 1//49 6//50
f 1//17 4//17 7//51
f 2//52 8//53 4//52
f 9//12 5//12 3//16
f 2//52 5//52 10//52
f 7//54 6//50 1//49
f 11//49 3//49 6//50
f 12//51 7//51 4//17
f 12//55 4//52 8//53
f 13//52 8//53 2//52
f 5//12 9//12 14//7
f 3//49 15//49 9//49
f 5//52 14//52 10//52
f 13//52 2//52 10//52
f 7//54 16//56 6//50
f 11//49 15//49 3//49
f 17//49 11//49 6//50
f 12//51 18//57 7//51
f 19//58 12//55 8//53
f 20//52 8//53 13//52
f 21//7 14//7 9//12
f 9//49 15//49 21//49
f 10//52 14//52 22//52
f 10//13 15//13 13//5
f 16//59 23//60 6//61
f 24//62 16//56 7//54
f 11//5 13//5 15//13
f 17//3 20//3 11//5
f 25//49 17//49 6//50
f 26//57 7//51 18//57
f 27//57 18//57 12//51
f 19//58 28//63 12//55
f 19//59 8//61 29//60
f 30//52 8//53 20//52
f 13//5 11//5 20//3
f 14//7 21//7 31//8
f 15//49 32//49 21//49
f 14//52 31//52 22//52
f 33//60 6//61 23//60
f 34//60 23//60 16//59
f 24//26 28//26 16//59
f 35//64 24//62 7//54
f 20//3 17//3 36//2
f 37//49 17//49 25//49
f 6//61 8//61 25//1
f 38//57 7//51 26//57
f 26//65 18//66 33//65
f 27//67 39//67 18//66
f 40//57 27//57 12//51
f 28//63 41//68 12//55
f 19//59 16//59 28//26
f 29//60 8//61 42//60
f 43//60 19//59 29//60
f 30//1 25//1 8//61
f 36//52 30//52 20//52
f 44//8 31//8 21//7
f 21//49 32//49 44//49
f 31//52 45//52 22//52
f 46//60 6//61 33//60
f 33//65 23//69 26//65
f 23//69 34//70 38//69
f 47//60 34//60 16//59
f 28//26 24//26 41//27
f 35//27 41//27 24//26
f 48//71 35//64 7//54
f 37//2 36//2 17//3
f 25//1 30//1 37//2
f 6//61 49//60 8//61
f 50//72 7//51 38//57
f 38//69 26//65 23//69
f 46//66 33//65 18//66
f 46//66 18//66 39//67
f 39//67 27//67 51//73
f 40//73 51//73 27//67
f 52//57 40//57 12//51
f 41//68 53//74 12//55
f 19//59 54//60 16//59
f 42//60 8//61 49//60
f 42//75 55//75 29//76
f 56//60 19//59 43//60
f 29//76 57//76 43//77
f 36//2 37//2 30//1
f 31//8 44//8 45//14
f 44//49 32//49 58//49
f 39//60 6//61 46//60
f 59//70 38//69 34//70
f 34//70 47//78 59//70
f 60//60 47//60 16//59
f 41//27 35//27 53//29
f 48//29 53//29 35//27
f 50//79 48//71 7//54
f 61//60 49//60 6//61
f 59//57 50//72 38//57
f 51//60 6//61 39//60
f 51//73 40//73 62//36
f 52//36 62//36 40//73
f 52//57 12//51 63//57
f 53//74 64//80 12//55
f 54//60 65//60 16//59
f 54//60 19//59 66//60
f 49//81 67//81 42//75
f 57//76 29//76 55//75
f 55//75 42//75 67//81
f 68//60 19//59 56//60
f 43//77 69//77 56//82
f 69//77 43//77 57//76
f 58//14 45//14 44//8
f 71//78 59//70 47//78
f 47//78 60//83 71//78
f 72//60 60//60 16//59
f 53//29 48//29 73//31
f 48//71 50//79 74//49
f 61//84 75//84 49//81
f 76//60 61//60 6//61
f 71//57 50//72 59//57
f 62//60 6//61 51//60
f 52//36 63//85 62//36
f 63//57 12//51 75//57
f 64//72 57//57 12//51
f 53//74 73//52 64//80
f 65//60 77//60 16//59
f 54//40 78//40 65//86
f 66//60 19//59 79//60
f 54//40 66//87 78//40
f 67//81 49//81 75//84
f 55//57 12//51 57//57
f 67//57 12//51 55//57
f 80//60 19//59 68//60
f 56//82 81//82 68//88
f 81//82 56//82 69//77
f 69//57 57//57 64//72
f 45//14 58//14 70//18
f 82//83 71//78 60//83
f 60//83 72//89 82//83
f 77//60 72//60 16//59
f 74//31 73//31 48//29
f 50//79 83//49 74//49
f 61//84 76//85 75//84
f 62//60 76//60 6//61
f 82//57 50//72 71//57
f 76//85 62//36 63//85
f 75//57 12//51 67//57
f 63//85 75//84 76//85
f 64//80 73//52 84//52
f 65//86 85//86 77//90
f 85//86 65//86 78//40
f 79//60 19//59 80//60
f 66//87 79//91 86//87
f 86//87 78//40 66//87
f 68//88 87//88 80//92
f 87//88 68//88 81//82
f 81//57 69//57 64//72
f 88//89 82//83 72//89
f 77//90 89//90 72//89
f 74//31 90//32 73//31
f 83//49 91//49 74//49
f 50//72 64//72 83//15
f 88//57 50//72 82//57
f 84//52 73//52 92//52
f 84//15 83//15 64//72
f 89//90 77//90 85//86
f 78//57 50//72 85//57
f 79//91 80//92 93//91
f 93//91 86//87 79//91
f 78//57 86//57 64//72
f 94//92 80//92 87//88
f 87//57 81//57 64//72
f 88//89 72//89 89//90
f 95//32 73//31 90//32
f 74//49 91//49 90//49
f 83//15 84//15 91//19
f 50//72 78//57 64//72
f 89//57 50//72 88//57
f 73//52 95//52 92//52
f 92//19 91//19 84//15
f 85//57 50//72 89//57
f 94//92 93//91 80//92
f 86//57 93//57 64//72
f 94//57 87//57 64//72
f 90//32 96//34 95//32
f 91//49 97//49 90//49
f 92//52 95//52 98//52
f 91//19 92//19 97//22
f 93//57 94//57 64//72
f 99//34 95//32 96//34
f 90//49 100//49 96//49
f 97//49 100//49 90//49
f 98//52 95//52 101//52
f 98//22 97//22 92//19
f 95//52 99//52 101//52
f 96//34 102//93 99//34
f 100//49 103//49 96//49
f 97//22 98//22 100//23
f 101//23 100//23 98//22
f 101//52 99//52 104//52
f 105//93 99//34 102//93
f 96//49 103//49 102//49
f 100//23 101//23 103//25
f 99//52 105//52 104//52
f 104//25 103//25 101//23
f 102//93 106//94 105//93
f 103//49 107//49 102//49
f 104//52 105//52 108//52
f 103//25 104//25 107//28
f 105//93 106//94 109//39
f 110//39 106//94 102//93
f 107//49 111//49 102//49
f 108//52 105//52 112//52
f 108//28 107//28 104//25
f 113//94 109//39 106//94
f 105//52 109//52 112//52
f 110//49 102//49 114//49
f 111//49 114//49 102//49
f 107//28 108//28 111//95
f 112//95 111//95 108//28
f 109//52 113//52 115//52
f 106//94 116//43 113//94
f 115//52 112//52 109//52
f 111//95 112//95 114//35
f 115//52 113//52 118//52
f 119//43 113//94 116//43
f 115//35 114//35 112//95
f 114//35 115//35 117//96
f 113//52 119//52 118//52
f 118//96 117//96 115//35
f 116//43 120//45 119//43
f 118//52 119//52 122//52
f 117//96 118//96 121//38
f 123//45 119//43 120//45
f 122//52 119//52 125//52
f 122//38 121//38 118//96
f 119//52 123//52 125//52
f 120//45 126//46 123//45
f 121//38 122//38 124//42
f 125//42 124//42 122//38
f 125//52 123//52 128//52
f 129//46 123//45 126//46
f 124//42 125//42 127//44
f 123//52 129//52 128//52
f 128//44 127//44 125//42
f 126//46 130//48 129//46
f 128//52 129//52 132//52
f 127//44 128//44 131//47
f 133//48 129//46 130//48
f 133//52 132//52 129//52
f 132//47 131//47 128//44
f 133//97 130//97 132//97
f 131//97 132//97 130//97
usemtl material-2
f 6//98 1//99 3//99
f 4//100 8//101 2//100
f 10//100 5//100 2//100
f 1//99 6//98 7//102
f 6//98 3//99 11//99
f 8//101 4//100 12//103
f 2//100 8//101 13//100
f 9//99 15//99 3//99
f 10//100 14//100 5//100
f 10//100 2//100 13//100
f 6//98 16//104 7//102
f 3//99 15//99 11//99
f 6//98 11//99 17//99
f 8//101 12//103 19//105
f 13//100 8//101 20//100
f 21//99 15//99 9//99
f 22//100 14//100 10//100
f 7//102 16//104 24//106
f 6//98 17//99 25//99
f 12//103 28//107 19//105
f 20//100 8//101 30//100
f 21//99 32//99 15//99
f 22//100 31//100 14//100
f 7//102 24//106 35//108
f 25//99 17//99 37//99
f 33//88 18//92 26//88
f 18//92 39//91 27//91
f 12//103 41//109 28//107
f 20//100 30//100 36//100
f 44//99 32//99 21//99
f 22//100 45//100 31//100
f 26//88 23//82 33//88
f 38//82 34//77 23//82
f 7//102 35//108 48//110
f 23//82 26//88 38//82
f 18//92 33//88 46//92
f 39//91 18//92 46//92
f 51//87 27//91 39//91
f 27//91 51//87 40//87
f 12//103 53//111 41//109
f 29//78 55//83 42//83
f 43//70 57//78 29//78
f 58//99 32//99 44//99
f 34//77 38//82 59//77
f 59//77 47//76 34//77
f 7//102 48//110 50//112
f 62//40 40//87 51//87
f 40//87 62//40 52//40
f 12//103 64//113 53//111
f 42//83 67//89 49//89
f 55//83 29//78 57//78
f 67//89 42//83 55//83
f 56//69 69//70 43//70
f 57//78 43//70 69//70
f 47//76 59//77 71//76
f 71//76 60//75 47//76
f 74//99 50//112 48//110
f 49//89 75//90 61//90
f 62//40 63//86 52//40
f 64//113 73//100 53//111
f 65//85 78//36 54//36
f 78//36 66//73 54//36
f 75//90 49//89 67//89
f 68//65 81//69 56//69
f 69//70 56//69 81//69
f 60//75 71//76 82//75
f 82//75 72//81 60//75
f 74//99 83//99 50//112
f 75//90 76//86 61//90
f 63//86 62//40 76//86
f 76//86 75//90 63//86
f 84//100 73//100 64//113
f 77//84 85//85 65//85
f 78//36 65//85 85//85
f 86//73 79//67 66//73
f 66//73 78//36 86//73
f 80//66 87//65 68//65
f 81//69 68//65 87//65
f 72//81 82//75 88//81
f 72//81 89//84 77//84
f 74//99 91//99 83//99
f 92//100 73//100 84//100
f 85//85 77//84 89//84
f 93//67 80//66 79//67
f 79//67 86//73 93//67
f 87//65 80//66 94//66
f 89//84 72//81 88//81
f 90//99 91//99 74//99
f 92//100 95//100 73//100
f 80//66 93//67 94//66
f 90//99 97//99 91//99
f 98//100 95//100 92//100
f 96//99 100//99 90//99
f 90//99 100//99 97//99
f 101//100 95//100 98//100
f 101//100 99//100 95//100
f 96//99 103//99 100//99
f 104//100 99//100 101//100
f 102//99 103//99 96//99
f 104//100 105//100 99//100
f 102//99 107//99 103//99
f 108//100 105//100 104//100
f 102//99 111//99 107//99
f 112//100 105//100 108//100
f 112//100 109//100 105//100
f 106//99 114//99 110//99
f 110//49 114//49 106//49
f 114//99 102//99 110//99
f 102//99 114//99 111//99
f 115//100 113//100 109//100
f 109//100 112//100 115//100
f 106//99 117//99 114//99
f 114//49 117//49 106//49
f 118//100 113//100 115//100
f 116//99 117//99 106//99
f 106//49 117//49 116//49
f 118//100 119//100 113//100
f 116//99 121//99 117//99
f 117//49 121//49 116//49
f 122//100 119//100 118//100
f 120//99 124//99 116//99
f 116//49 124//49 120//49
f 116//99 124//99 121//99
f 121//49 124//49 116//49
f 125//100 119//100 122//100
f 125//100 123//100 119//100
f 120//99 127//99 124//99
f 124//49 127//49 120//49
f 128//100 123//100 125//100
f 126//99 127//99 120//99
f 120//49 127//49 126//49
f 128//100 129//100 123//100
f 126//99 131//99 127//99
f 127//49 131//49 126//49
f 132//100 129//100 128//100
f 131//99 126//99 130//99
f 130//49 126//49 131//49
f 129//100 132//100 133//100
f 132//114 130//114 133//114
f 130//114 132//114 131//114
usemtl material-3
f 105//30 106//115 102//30
f 102//93 106//116 105//93
f 105//30 106//115 102//30
f 102//93 106//116 105//93
f 106//115 105//30 109//115
f 109//116 105//93 106//116
f 106//115 105//30 109//115
f 109//116 105//93 106//116
f 102//30 106//115 110//115
f 110//116 106//116 102//93
f 102//30 106//115 110//115
f 110//116 106//116 102//93
f 106//33 109//117 113//33
f 113//94 109//118 106//94