# SSTK version 0.8.0
# 124
mtllib original-124.mtl
o Group120/mesh122/mesh122-geometry#mesh122-geometry
v -0.011131 0.749933 0.476255
v -0.020472 0.744122 0.478515
v -0.011131 0.764497 0.578280
v -0.011131 0.698892 0.398031
v -0.020472 0.758286 0.577736
v -0.000839 0.766486 0.578454
v -0.020472 0.694484 0.402440
v -0.000839 0.700304 0.396620
v -0.026498 0.735433 0.481893
v -0.011131 0.732438 0.676225
v -0.000839 0.751794 0.475532
v -0.000839 0.734145 0.677261
v -0.026498 0.748999 0.576924
v -0.020472 0.727108 0.672991
v -0.026498 0.687892 0.409032
v -0.028369 0.726135 0.485509
v -0.020472 0.665013 0.739290
v -0.000839 0.669734 0.746033
v -0.028369 0.680837 0.416086
v -0.028369 0.739061 0.576054
v -0.026498 0.719137 0.668155
v -0.026498 0.659666 0.731654
v -0.011131 0.668589 0.744397
v -0.026498 0.716837 0.489125
v -0.026498 0.673783 0.423141
v -0.026498 0.729122 0.575185
v -0.028369 0.710608 0.662979
v -0.028369 0.653944 0.723481
v -0.020472 0.708148 0.492503
v -0.020472 0.667191 0.429733
v -0.020472 0.719835 0.574372
v -0.026498 0.702079 0.657804
v -0.011131 0.702337 0.494763
v -0.026498 0.648221 0.715309
v -0.011131 0.662782 0.434141
v -0.011131 0.713624 0.573829
v -0.020472 0.694109 0.652968
v -0.020472 0.642874 0.707673
v -0.000839 0.661370 0.435553
v -0.000839 0.700477 0.495486
v -0.011131 0.688779 0.649734
v -0.000839 0.711635 0.573655
v -0.011131 0.639298 0.702565
v -0.000839 0.638153 0.700930
v -0.000839 0.687072 0.648698
vn -0.3180628896522344 0.887328692152899 -0.33389188416057125
vn -0.6629102205562333 0.7007712331529351 -0.26357108769248744
vn -0.38091182941857904 0.920579587742459 0.0862519613743105
vn 0.38091182941857904 -0.920579587742459 -0.0862519613743105
vn 0.6629102205562333 -0.7007712331529351 0.26357108769248744
vn 0.3180628896522344 -0.887328692152899 0.33389188416057125
vn -0.4340858659269579 0.7544687669725493 -0.49228684795083055
vn 0.4340858659269579 -0.7544687669725493 0.49228684795083055
vn -0.7130218678663648 0.6974108707593164 0.07223498661377484
vn 0.7130218678663648 -0.6974108707593164 -0.07223498661377484
vn -0.18986095278823206 0.9817647558694974 0.009527997630720982
vn 0.18986095278823206 -0.9817647558694974 -0.009527997630720982
vn -0.752449196126661 0.551611143778015 -0.35992409381458706
vn 0.752449196126661 -0.551611143778015 0.35992409381458706
vn -0.18648094991019795 0.8227967789922896 -0.5368708557935545
vn 0.18648094991019795 -0.8227967789922896 0.5368708557935545
vn -0.9182758127002199 0.3684789248417299 -0.1448889704471445
vn 0.9182758127002199 -0.3684789248417299 0.1448889704471445
vn -0.40708291362882026 0.7694928367359525 0.4921018955902599
vn 0.40708291362882026 -0.7694928367359525 -0.4921018955902599
vn -0.19040210402069627 0.9187955019574147 -0.345777188905391
vn 0.19040210402069627 -0.9187955019574147 0.345777188905391
vn -0.18975503883849607 0.8794611800054943 0.43651008934358493
vn 0.18975503883849607 -0.8794611800054943 -0.43651008934358493
vn -0.9289702000811586 0.36725007909814694 0.04627900996755118
vn 0.9289702000811586 -0.36725007909814694 -0.04627900996755118
vn -0.7594948960714851 0.5598769233870068 0.33121795467646953
vn 0.7594948960714851 -0.5598769233870068 -0.33121795467646953
vn -0.9262150130550006 0.31572900445020036 -0.2060120029037391
vn 0.9262150130550006 -0.31572900445020036 0.2060120029037391
vn -0.9992590528578077 0.038102002015481654 -0.005439000287706798
vn 0.9992590528578077 -0.038102002015481654 0.005439000287706798
vn -0.6548009154223178 0.5516389287472864 0.51665293326627
vn 0.6548009154223178 -0.5516389287472864 -0.51665293326627
vn -0.18648096617934887 0.7170698699504274 0.6715918781984291
vn 0.18648096617934887 -0.7170698699504274 -0.6715918781984291
vn -1 0 0
vn 1 0 0
vn -0.9998937727561678 -0.0012699997113697417 0.014519996700069765
vn 0.9998937727561678 0.0012699997113697417 -0.014519996700069765
vn -0.9512248732768795 0.26553896462463594 0.15703597907951128
vn 0.9512248732768795 -0.26553896462463594 -0.15703597907951128
vn -0.8991191762120907 0.31946806261031535 0.29920705863950275
vn 0.8991191762120907 -0.31946806261031535 -0.29920705863950275
vn -0.37379900175741604 0.6769640031827462 0.6340300029808922
vn 0.37379900175741604 -0.6769640031827462 -0.6340300029808922
vn -0.9512251057029933 -0.2887730320893274 0.10854001206129237
vn 0.9512251057029933 0.2887730320893274 -0.10854001206129237
vn -0.8991193520961064 -0.36657114354965453 0.23918609366553176
vn 0.8991193520961064 0.36657114354965453 -0.23918609366553176
vn -0.928970175963225 -0.3697070700289956 -0.018196003446641892
vn 0.928970175963225 0.3697070700289956 0.018196003446641892
vn -0.9992590374467336 -0.036579001370779816 -0.011973000448682223
vn 0.9992590374467336 0.036579001370779816 0.011973000448682223
vn -0.7594950807928126 -0.6088860647714764 0.22896502435661356
vn 0.7594950807928126 0.6088860647714764 -0.22896502435661356
vn -0.6548009435411006 -0.63297394542309 0.41301296438878454
vn 0.6548009435411006 0.63297394542309 -0.41301296438878454
vn -0.713021969891222 -0.6993589704681694 -0.04996699789004378
vn 0.713021969891222 0.6993589704681694 0.04996699789004378
vn -0.9182758033544718 -0.33772092767825307 -0.20667395574150058
vn 0.9182758033544718 0.33772092767825307 0.20667395574150058
vn -0.40708298495034584 -0.8432549688252862 0.35100498702352123
vn 0.40708298495034584 0.8432549688252862 -0.35100498702352123
vn -0.9262149468491568 -0.2751589842100021 -0.25770798521142774
vn 0.9262149468491568 0.2751589842100021 0.25770798521142774
vn -0.3737988889778216 -0.7767777692888809 0.5068438494620771
vn 0.3737988889778216 0.7767777692888809 -0.5068438494620771
vn -0.38091213007961006 -0.92157131471205 -0.07491502558311124
vn 0.38091213007961006 0.92157131471205 0.07491502558311124
vn -0.6629101001455049 -0.6443560973425607 -0.38125505759601547
vn 0.6629101001455049 0.6443560973425607 0.38125505759601547
vn -0.7524491314807156 -0.48073108400151476 -0.4502420786739571
vn 0.7524491314807156 0.48073108400151476 0.4502420786739571
vn -0.18648094991019795 -0.8227967789922896 0.5368708557935545
vn 0.18648094991019795 0.8227967789922896 -0.5368708557935545
vn -0.1897550511892783 -0.9418992540914867 0.27716207476863697
vn 0.1897550511892783 0.9418992540914867 -0.27716207476863697
vn -0.3180630043253388 -0.815868011094989 -0.48290300656699814
vn 0.3180630043253388 0.815868011094989 0.48290300656699814
vn -0.1898609919178076 -0.9685039587717558 -0.1610989931421773
vn 0.1898609919178076 0.9685039587717558 0.1610989931421773
vn -0.43408570917981876 -0.6575215594866748 -0.6158205874246697
vn 0.43408570917981876 0.6575215594866748 0.6158205874246697
vn -0.18648096617934887 -0.7170698699504274 -0.6715918781984291
vn 0.18648096617934887 0.7170698699504274 0.6715918781984291
vn -0.19040208192108457 -0.8447933634749571 -0.5000712151571871
vn 0.19040208192108457 0.8447933634749571 0.5000712151571871
usemtl material_0_0
f 1//1 2//2 3//3
f 3//4 2//5 1//6
f 4//7 2//2 1//1
f 1//6 2//5 4//8
f 3//3 2//2 5//9
f 5//10 2//5 3//4
f 6//11 1//1 3//3
f 3//4 1//6 6//12
f 4//7 7//13 2//2
f 2//5 7//14 4//8
f 8//15 4//7 1//1
f 1//6 4//8 8//16
f 2//2 9//17 5//9
f 5//10 9//18 2//5
f 3//3 5//9 10//19
f 10//20 5//10 3//4
f 11//21 1//1 6//11
f 6//12 1//6 11//22
f 6//11 3//3 12//23
f 12//24 3//4 6//12
f 7//13 9//17 2//2
f 2//5 9//18 7//14
f 8//15 1//1 11//21
f 11//22 1//6 8//16
f 9//17 13//25 5//9
f 5//10 13//26 9//18
f 10//19 5//9 14//27
f 14//28 5//10 10//20
f 12//23 3//3 10//19
f 10//20 3//4 12//24
f 7//13 15//29 9//17
f 9//18 15//30 7//14
f 9//17 16//31 13//25
f 13//26 16//32 9//18
f 13//25 14//27 5//9
f 5//10 14//28 13//26
f 10//19 14//27 17//33
f 17//34 14//28 10//20
f 12//23 10//19 18//35
f 18//36 10//20 12//24
f 15//29 19//37 9//17
f 9//18 19//38 15//30
f 19//37 16//31 9//17
f 9//18 16//32 19//38
f 16//31 20//39 13//25
f 13//26 20//40 16//32
f 13//25 21//41 14//27
f 14//28 21//42 13//26
f 14//27 22//43 17//33
f 17//34 22//44 14//28
f 10//19 17//33 23//45
f 23//46 17//34 10//20
f 18//35 10//19 23//45
f 23//46 10//20 18//36
f 19//37 24//47 16//31
f 16//32 24//48 19//38
f 16//31 24//47 20//39
f 20//40 24//48 16//32
f 20//39 21//41 13//25
f 13//26 21//42 20//40
f 21//41 22//43 14//27
f 14//28 22//44 21//42
f 19//37 25//49 24//47
f 24//48 25//50 19//38
f 24//47 26//51 20//39
f 20//40 26//52 24//48
f 20//39 27//53 21//41
f 21//42 27//54 20//40
f 21//41 28//37 22//43
f 22//44 28//38 21//42
f 25//49 29//55 24//47
f 24//48 29//56 25//50
f 24//47 29//55 26//51
f 26//52 29//56 24//48
f 26//51 27//53 20//39
f 20//40 27//54 26//52
f 27//53 28//37 21//41
f 21//42 28//38 27//54
f 25//49 30//57 29//55
f 29//56 30//58 25//50
f 29//55 31//59 26//51
f 26//52 31//60 29//56
f 26//51 32//61 27//53
f 27//54 32//62 26//52
f 32//61 28//37 27//53
f 27//54 28//38 32//62
f 33//63 29//55 30//57
f 30//58 29//56 33//64
f 33//63 31//59 29//55
f 29//56 31//60 33//64
f 31//59 32//61 26//51
f 26//52 32//62 31//60
f 32//61 34//65 28//37
f 28//38 34//66 32//62
f 33//63 30//57 35//67
f 35//68 30//58 33//64
f 36//69 31//59 33//63
f 33//64 31//60 36//70
f 31//59 37//71 32//61
f 32//62 37//72 31//60
f 32//61 38//73 34//65
f 34//66 38//74 32//62
f 39//75 33//63 35//67
f 35//68 33//64 39//76
f 36//69 37//71 31//59
f 31//60 37//72 36//70
f 40//77 36//69 33//63
f 33//64 36//70 40//78
f 37//71 38//73 32//61
f 32//62 38//74 37//72
f 40//77 33//63 39//75
f 39//76 33//64 40//78
f 41//79 37//71 36//69
f 36//70 37//72 41//80
f 42//81 36//69 40//77
f 40//78 36//70 42//82
f 43//83 38//73 37//71
f 37//72 38//74 43//84
f 43//83 37//71 41//79
f 41//80 37//72 43//84
f 42//81 41//79 36//69
f 36//70 41//80 42//82
f 44//85 43//83 41//79
f 41//80 43//84 44//86
f 45//87 41//79 42//81
f 42//82 41//80 45//88
f 44//85 41//79 45//87
f 45//88 41//80 44//86
