# SSTK version 0.8.0
# 138
mtllib original-138.mtl
o mesh135/mesh135-geometry#mesh135-geometry
v 0.056539 -0.134936 -0.143047
v 0.056539 -0.324239 -0.107725
v 0.056539 -0.140245 -0.107725
v 0.056539 -0.324239 -0.178721
v 0.056539 -0.133161 -0.178721
v 0.056539 -0.232242 -0.249717
v 0.056539 -0.278240 -0.249717
v 0.056539 -0.186243 -0.249717
v 0.056539 -0.324239 -0.249717
v 0.056539 -0.134936 -0.214396
v 0.056539 -0.140245 -0.249717
vn -1 0 0
vn 1 0 0
usemtl material_0_0
f 1//1 2//1 3//1
f 3//2 2//2 1//2
f 4//1 2//1 1//1
f 1//2 2//2 4//2
f 4//1 1//1 5//1
f 5//2 1//2 4//2
f 6//1 4//1 5//1
f 5//2 4//2 6//2
f 7//1 4//1 6//1
f 6//2 4//2 7//2
f 6//1 5//1 8//1
f 8//2 5//2 6//2
f 9//1 4//1 7//1
f 7//2 4//2 9//2
f 8//1 5//1 10//1
f 10//2 5//2 8//2
f 8//1 10//1 11//1
f 11//2 10//2 8//2
