# SSTK version 0.8.0
# 236
mtllib original-236.mtl
o Group184/mesh229/mesh229-geometry#mesh229-geometry
v -0.031908 -0.337569 -0.185853
v -0.032716 -0.337569 -0.178585
v -0.031908 -0.780369 -0.185853
v -0.032596 -0.780369 -0.175961
v -0.029465 -0.337569 -0.192746
v -0.030260 -0.337569 -0.166451
v -0.028213 -0.780369 -0.195056
v -0.029662 -0.780369 -0.165106
v -0.024997 -0.337569 -0.199519
v -0.022550 -0.558969 -0.155381
v -0.020838 -0.780369 -0.203544
v -0.022550 -0.448269 -0.155381
v -0.022550 -0.669669 -0.155381
v -0.014475 -0.337569 -0.207534
v -0.022550 -0.337569 -0.155381
v -0.022550 -0.780369 -0.155381
v -0.010197 -0.780369 -0.209194
v -0.001198 -0.337569 -0.210596
v 0.001782 -0.780369 -0.210490
v 0.011417 -0.337569 -0.208148
v 0.012649 -0.780369 -0.207604
v 0.020872 -0.558969 -0.202061
v 0.020872 -0.669669 -0.202061
v 0.020872 -0.448269 -0.202061
v 0.020872 -0.780369 -0.202061
v 0.020872 -0.337569 -0.202061
vn 0.9746481686370518 0 0.22374303871280699
vn 0.9999806588036576 -0.00007799997338617824 -0.00621899787805963
vn 0.974648111303846 0.00034300003917021404 0.22374302555123124
vn -0.974648111303846 -0.00034300003917021404 -0.22374302555123124
vn -0.9999806588036576 0.00007799997338617824 0.00621899787805963
vn -0.9746481686370518 0 -0.22374303871280699
vn 0.9913388374214355 0.00009399998458412696 -0.13132897846218064
vn -0.9913388374214355 -0.00009399998458412696 0.13132897846218064
vn 0.9068354833895748 0.00005699996752788916 0.42148475988652295
vn -0.9068354833895748 -0.00005699996752788916 -0.42148475988652295
vn 0.8958720713038049 -0.0002170000172712589 -0.4443120353634628
vn -0.8958720713038049 0.0002170000172712589 0.4443120353634628
vn 0.8471433587479219 0.00043600018463706136 0.531364225021904
vn -0.8471433587479219 -0.00043600018463706136 -0.531364225021904
vn 0.8591092892337957 -0.00003900001312990599 -0.5117921723035642
vn -0.8591092892337957 0.00003900001312990599 0.5117921723035642
vn 0.7389381773104536 -0.0003110000746255595 0.6737731616739108
vn -0.7389381773104536 0.0003110000746255595 -0.6737731616739108
vn 0.8140777678002244 -0.00022099993696395753 -0.5807558343507467
vn -0.8140777678002244 0.00022099993696395753 0.5807558343507467
vn 0.6168901619244354 0.00027300007165825845 0.787049206588638
vn -0.6168901619244354 -0.00027300007165825845 -0.787049206588638
vn 0.8206041042885308 0 -0.5714970726301389
vn -0.8206041042885308 0 0.5714970726301389
vn 0.8071906871482869 0 -0.590290771214557
vn -0.8071906871482869 0 0.590290771214557
vn 0.4399058491886433 -0.0006089997912189682 0.898043692126877
vn -0.4399058491886433 0.0006089997912189682 -0.898043692126877
vn 0.27048200079548756 0.00023700000069680323 0.9627250028313744
vn -0.27048200079548756 -0.00023700000069680323 -0.9627250028313744
vn 0.048003002440520706 -0.0005300000269459538 0.9988470507823842
vn -0.048003002440520706 0.0005300000269459538 -0.9988470507823842
vn -0.11466096238507614 0.00013099995702479207 0.9934046741101732
vn 0.11466096238507614 -0.00013099995702479207 -0.9934046741101732
vn -0.4221418824282254 -0.0002189999390059893 0.9065297475201689
vn 0.4221418824282254 0.0002189999390059893 -0.9065297475201689
vn -0.48596197426637033 -0.000007999999576562095 0.8739799537192667
vn 0.48596197426637033 0.000007999999576562095 -0.8739799537192667
vn -0.5499412246746836 -0.0001680000686354515 0.8352033412165484
vn 0.5499412246746836 0.0001680000686354515 -0.8352033412165484
vn -0.5589131395480528 0 0.8292262070391522
vn 0.5589131395480528 0 -0.8292262070391522
vn -0.5412771561408906 0 0.8408442425562717
vn 0.5412771561408906 0 -0.8408442425562717
usemtl material_0_0
f 1//1 2//2 3//3
f 3//4 2//5 1//6
f 3//3 2//2 4//7
f 4//8 2//5 3//4
f 5//9 1//1 3//3
f 3//4 1//6 5//10
f 2//2 6//11 4//7
f 4//8 6//12 2//5
f 7//13 5//9 3//3
f 3//4 5//10 7//14
f 4//7 6//11 8//15
f 8//16 6//12 4//8
f 9//17 5//9 7//13
f 7//14 5//10 9//18
f 6//11 10//19 8//15
f 8//16 10//20 6//12
f 11//21 9//17 7//13
f 7//14 9//18 11//22
f 6//11 12//23 10//19
f 10//20 12//24 6//12
f 8//15 10//19 13//25
f 13//26 10//20 8//16
f 9//17 11//21 14//27
f 14//28 11//22 9//18
f 6//11 15//23 12//23
f 12//24 15//24 6//12
f 8//15 13//25 16//25
f 16//26 13//26 8//16
f 14//27 11//21 17//29
f 17//30 11//22 14//28
f 14//27 17//29 18//31
f 18//32 17//30 14//28
f 18//31 17//29 19//33
f 19//34 17//30 18//32
f 18//31 19//33 20//35
f 20//36 19//34 18//32
f 20//35 19//33 21//37
f 21//38 19//34 20//36
f 20//35 21//37 22//39
f 22//40 21//38 20//36
f 22//39 21//37 23//41
f 23//42 21//38 22//40
f 20//35 22//39 24//43
f 24//44 22//40 20//36
f 23//41 21//37 25//41
f 25//42 21//38 23//42
f 20//35 24//43 26//43
f 26//44 24//44 20//36
