# SSTK version 0.8.0
# 195
mtllib original-195.mtl
o mesh190/mesh190-geometry#mesh190-geometry
v 0.035385 -0.059330 -0.140620
v 0.033835 -0.059330 -0.140620
v 0.035385 -0.053927 -0.202264
v 0.032285 -0.059330 -0.140620
v 0.029185 -0.053927 -0.202264
v 0.030735 -0.059330 -0.140620
v 0.029185 -0.059330 -0.140620
v 0.028645 -0.058238 -0.153086
v 0.028944 -0.059303 -0.140934
v 0.028251 -0.057208 -0.164836
v 0.028700 -0.059275 -0.141246
v 0.027462 -0.056729 -0.170294
v 0.025649 -0.056273 -0.175505
v 0.022881 -0.055854 -0.180280
v 0.019255 -0.055489 -0.184446
v 0.014903 -0.055190 -0.187854
v 0.009983 -0.054969 -0.190381
v -0.000839 -0.053927 -0.202264
v 0.004671 -0.054832 -0.191934
v -0.000839 -0.054787 -0.192458
v -0.006350 -0.054832 -0.191934
v -0.011661 -0.054969 -0.190381
v -0.030863 -0.053927 -0.202264
v -0.016581 -0.055190 -0.187854
v -0.020933 -0.055489 -0.184446
v -0.024559 -0.055854 -0.180280
v -0.027328 -0.056273 -0.175505
v -0.029140 -0.056729 -0.170294
v -0.029929 -0.057208 -0.164836
v -0.030324 -0.058238 -0.153086
v -0.030863 -0.059330 -0.140620
v -0.030622 -0.059303 -0.140934
v -0.037063 -0.056629 -0.171442
v -0.030378 -0.059275 -0.141246
v -0.037063 -0.057979 -0.156031
v -0.037063 -0.055278 -0.186853
v -0.032413 -0.059330 -0.140620
v -0.037063 -0.066836 -0.133743
v -0.037063 -0.053927 -0.202264
v -0.033963 -0.059330 -0.140620
v -0.037063 -0.061746 -0.135723
v -0.035513 -0.059330 -0.140620
v -0.037063 -0.059330 -0.140620
v -0.037063 -0.066836 -0.343850
v -0.037063 -0.048699 -0.225190
v -0.037063 -0.078981 -0.318463
v -0.037063 -0.064364 -0.349017
v -0.037063 -0.049394 -0.205294
v -0.037063 -0.088158 -0.304732
v -0.037063 -0.049747 -0.379571
v -0.037063 -0.048699 -0.206302
v -0.037063 -0.083772 -0.140395
v -0.037063 -0.048699 -0.381761
v -0.037063 -0.046300 -0.209788
v -0.035002 -0.066836 -0.133743
v -0.037063 -0.100837 -0.294146
v -0.037063 -0.045089 -0.240771
v -0.037063 -0.045928 -0.220494
v -0.037063 -0.100708 -0.147046
v -0.037063 -0.045089 -0.389309
v -0.037063 -0.045089 -0.215103
v -0.035002 -0.134580 -0.160349
v -0.037063 -0.121211 -0.276365
v -0.037063 -0.036351 -0.278473
v -0.032887 -0.102834 -0.147881
v -0.037063 -0.117644 -0.153698
v -0.037063 -0.126437 -0.265164
v -0.037063 -0.115986 -0.287567
v -0.037063 -0.024003 -0.331757
v -0.033297 -0.075100 -0.136989
v -0.032887 -0.110771 -0.150998
v -0.036019 -0.134580 -0.160349
v -0.025181 -0.124086 -0.270203
v -0.034093 -0.115986 -0.287567
v -0.037063 -0.035131 -0.410125
v -0.031284 -0.082904 -0.140054
v -0.032887 -0.102834 -0.166382
v -0.032887 -0.118707 -0.154115
v -0.037063 -0.134580 -0.160349
v -0.037063 -0.131662 -0.253963
v -0.025181 -0.120036 -0.278885
v -0.025181 -0.128136 -0.261520
v -0.031122 -0.115986 -0.287567
v -0.037063 -0.011655 -0.385040
v -0.030566 -0.102834 -0.147881
v -0.032887 -0.126644 -0.157232
v -0.037063 -0.137603 -0.184685
v -0.037063 -0.137597 -0.221280
v -0.025181 -0.118548 -0.252836
v -0.025181 -0.125367 -0.252837
v -0.037063 -0.011162 -0.387165
v -0.028983 -0.090173 -0.142909
v -0.032887 -0.111525 -0.166383
v -0.032887 -0.120219 -0.166384
v -0.033931 -0.134580 -0.160349
v -0.034975 -0.134580 -0.160349
v -0.037063 -0.137600 -0.202982
v -0.037063 -0.137606 -0.166387
v -0.037063 -0.136888 -0.242761
v -0.025181 -0.132187 -0.252838
v -0.028152 -0.115986 -0.287567
v -0.025181 -0.113256 -0.251039
v -0.025181 -0.121958 -0.252837
v -0.025181 -0.128777 -0.252838
v -0.037063 -0.020514 -0.440679
v -0.028246 -0.102834 -0.147881
v -0.014538 -0.102831 -0.187662
v -0.032887 -0.102831 -0.166382
v -0.032887 -0.128912 -0.166386
v -0.032887 -0.134580 -0.160349
v -0.032887 -0.137606 -0.166387
v -0.037063 -0.136807 -0.163010
v -0.032887 -0.137594 -0.239577
v -0.037063 -0.137594 -0.239577
v -0.025181 -0.115986 -0.287567
v -0.037063 -0.016653 -0.446030
v -0.026414 -0.096838 -0.145527
v -0.011851 -0.114094 -0.190780
v -0.032887 -0.120219 -0.166384
v -0.011851 -0.121930 -0.190782
v -0.037063 -0.137415 -0.241208
v -0.011851 -0.136888 -0.242761
v -0.025181 -0.109647 -0.290054
v -0.037063 -0.011162 -0.449690
v -0.025925 -0.102834 -0.147881
v -0.013306 -0.104659 -0.189092
v -0.032887 -0.135849 -0.161550
v -0.011851 -0.129766 -0.190783
v -0.027628 -0.137605 -0.172486
v -0.021849 -0.132187 -0.252838
v -0.025181 -0.110152 -0.246391
v -0.037063 -0.010456 -0.449690
v -0.023605 -0.102834 -0.147881
v -0.011851 -0.109739 -0.201809
v -0.011851 -0.106259 -0.190779
v -0.032887 -0.136807 -0.163010
v -0.032887 -0.137602 -0.166387
v -0.011851 -0.125367 -0.252837
v -0.030760 -0.137594 -0.239577
v -0.018516 -0.132187 -0.252838
v -0.025181 -0.109647 -0.244507
v -0.037063 -0.009750 -0.449690
v -0.011851 -0.109739 -0.190780
v -0.011851 -0.121958 -0.252837
v -0.032887 -0.137404 -0.164652
v -0.011851 -0.137602 -0.190784
v -0.011851 -0.128777 -0.252838
v -0.022369 -0.137604 -0.178586
v -0.015184 -0.132187 -0.252838
v -0.025181 -0.104438 -0.292099
v -0.037063 0.000694 -0.438323
v -0.011851 -0.109675 -0.198852
v -0.011851 -0.118548 -0.252836
v -0.011851 -0.132187 -0.252838
v -0.024457 -0.137594 -0.239577
v -0.025181 -0.104383 -0.292136
v -0.025181 -0.108773 -0.241245
v -0.037063 -0.009045 -0.449690
v -0.011851 -0.109055 -0.195959
v -0.011851 -0.109739 -0.244851
v -0.011851 -0.132187 -0.190783
v -0.017110 -0.137603 -0.184685
v -0.025181 -0.107395 -0.236098
v -0.037063 -0.008339 -0.449690
v -0.011851 -0.107902 -0.193235
v -0.011851 -0.116300 -0.252540
v -0.011851 -0.109247 -0.204722
v -0.011851 -0.137596 -0.227379
v -0.018154 -0.137594 -0.239577
v -0.025181 -0.106017 -0.230951
v -0.037063 -0.003108 -0.448073
v -0.011851 -0.114202 -0.251672
v -0.011851 -0.108773 -0.241245
v -0.011851 -0.137598 -0.215181
v -0.011851 -0.133362 -0.250319
v -0.025181 -0.104639 -0.225805
v -0.037063 0.000300 -0.443784
v -0.011851 -0.112400 -0.250288
v -0.011851 -0.108095 -0.209018
v -0.011851 -0.137600 -0.202982
v -0.011851 -0.134537 -0.247800
v -0.011851 -0.137594 -0.239577
v -0.025181 -0.104383 -0.223855
v -0.011851 -0.110152 -0.246391
v -0.011851 -0.107395 -0.236098
v -0.011851 -0.135712 -0.245281
v -0.025181 -0.094118 -0.298985
v -0.011851 -0.111018 -0.248486
v -0.011851 -0.106943 -0.213314
v -0.025181 -0.092092 -0.301084
v -0.011851 -0.106259 -0.231853
v -0.025181 -0.092092 -0.185155
v -0.011851 -0.106259 -0.215867
v -0.011851 -0.137415 -0.241208
v -0.025181 -0.079017 -0.196617
v -0.025181 -0.098185 -0.185555
v -0.011851 -0.106017 -0.230951
v -0.025181 -0.062053 -0.259886
v -0.025181 -0.086310 -0.187116
v -0.025181 -0.103660 -0.188256
v -0.011851 -0.105791 -0.217609
v -0.025181 -0.085501 -0.307909
v -0.025181 -0.081718 -0.191141
v -0.025181 -0.104383 -0.189080
v -0.011851 -0.104639 -0.225805
v -0.025181 -0.078981 -0.318463
v -0.025181 -0.104640 -0.221905
v -0.011851 -0.104640 -0.221905
v -0.025181 -0.045090 -0.323154
v -0.025181 -0.105791 -0.217609
v -0.011851 -0.104383 -0.223855
v -0.025181 -0.064364 -0.349017
v -0.025181 -0.106943 -0.213314
v -0.025181 -0.049747 -0.379571
v -0.025181 -0.108095 -0.209018
v -0.025181 -0.028126 -0.386422
v -0.025181 -0.107685 -0.192848
v -0.025181 -0.035131 -0.410125
v -0.025181 -0.109247 -0.204722
v -0.025181 -0.020514 -0.440679
v -0.025181 -0.109647 -0.198630
v -0.025181 -0.016653 -0.446030
v -0.025181 -0.011162 -0.449690
vn 0 -0.9961804853771056 -0.08731804254467901
vn 0 0.9961804853771056 0.08731804254467901
vn 1 0 0
vn -1 0 0
vn 0 0.3655590578634342 -0.9307881473321403
vn 0 -0.3655590578634342 0.9307881473321403
vn 0 0.9062389021819375 0.4227659543672797
vn 0 -0.9062389021819375 -0.4227659543672797
vn -0.7573546852143 0.00010599995594249146 -0.6530037285865662
vn 0.7573546852143 -0.00010599995594249146 0.6530037285865662
vn 0 0.9999999867155003 0.0001629999978348486
vn 0 -0.9999999867155003 -0.0001629999978348486
usemtl material_0_0
f 1//1 2//1 3//1
f 3//2 2//2 1//2
f 3//1 2//1 4//1
f 4//2 2//2 3//2
f 3//1 4//1 5//1
f 5//2 4//2 3//2
f 4//1 6//1 5//1
f 5//2 6//2 4//2
f 6//1 7//1 5//1
f 5//2 7//2 6//2
f 7//1 8//1 5//1
f 5//2 8//2 7//2
f 7//1 9//1 8//1
f 8//2 9//2 7//2
f 5//1 8//1 10//1
f 10//2 8//2 5//2
f 9//1 11//1 8//1
f 8//2 11//2 9//2
f 5//1 10//1 12//1
f 12//2 10//2 5//2
f 5//1 12//1 13//1
f 13//2 12//2 5//2
f 5//1 13//1 14//1
f 14//2 13//2 5//2
f 5//1 14//1 15//1
f 15//2 14//2 5//2
f 5//1 15//1 16//1
f 16//2 15//2 5//2
f 5//1 16//1 17//1
f 17//2 16//2 5//2
f 5//1 17//1 18//1
f 18//2 17//2 5//2
f 17//1 19//1 18//1
f 18//2 19//2 17//2
f 19//1 20//1 18//1
f 18//2 20//2 19//2
f 20//1 21//1 18//1
f 18//2 21//2 20//2
f 18//1 21//1 22//1
f 22//2 21//2 18//2
f 18//1 22//1 23//1
f 23//2 22//2 18//2
f 22//1 24//1 23//1
f 23//2 24//2 22//2
f 24//1 25//1 23//1
f 23//2 25//2 24//2
f 25//1 26//1 23//1
f 23//2 26//2 25//2
f 26//1 27//1 23//1
f 23//2 27//2 26//2
f 27//1 28//1 23//1
f 23//2 28//2 27//2
f 28//1 29//1 23//1
f 23//2 29//2 28//2
f 29//1 30//1 23//1
f 23//2 30//2 29//2
f 30//1 31//1 23//1
f 23//2 31//2 30//2
f 30//1 32//1 31//1
f 31//2 32//2 30//2
f 31//1 33//1 23//1
f 23//2 33//2 31//2
f 30//1 34//1 32//1
f 32//2 34//2 30//2
f 31//1 35//1 33//1
f 33//2 35//2 31//2
f 23//1 33//1 36//1
f 36//2 33//2 23//2
f 31//1 37//1 35//1
f 35//2 37//2 31//2
f 33//3 35//3 38//3
f 38//4 35//4 33//4
f 36//3 33//3 38//3
f 38//4 33//4 36//4
f 23//1 36//1 39//1
f 39//2 36//2 23//2
f 37//1 40//1 35//1
f 35//2 40//2 37//2
f 35//3 41//3 38//3
f 38//4 41//4 35//4
f 39//3 36//3 38//3
f 38//4 36//4 39//4
f 40//1 42//1 35//1
f 35//2 42//2 40//2
f 35//3 43//3 41//3
f 41//4 43//4 35//4
f 44//3 39//3 38//3
f 38//4 39//4 44//4
f 42//1 43//1 35//1
f 35//2 43//2 42//2
f 44//3 45//3 39//3
f 39//4 45//4 44//4
f 44//3 38//3 46//3
f 46//4 38//4 44//4
f 47//3 45//3 44//3
f 44//4 45//4 47//4
f 45//3 48//3 39//3
f 39//4 48//4 45//4
f 46//3 38//3 49//3
f 49//4 38//4 46//4
f 50//3 45//3 47//3
f 47//4 45//4 50//4
f 45//3 51//3 48//3
f 48//4 51//4 45//4
f 49//3 38//3 52//3
f 52//4 38//4 49//4
f 53//3 45//3 50//3
f 50//4 45//4 53//4
f 45//3 54//3 51//3
f 51//4 54//4 45//4
f 55//5 52//5 38//5
f 38//6 52//6 55//6
f 49//3 52//3 56//3
f 56//4 52//4 49//4
f 53//3 57//3 45//3
f 45//4 57//4 53//4
f 45//3 58//3 54//3
f 54//4 58//4 45//4
f 55//5 59//5 52//5
f 52//6 59//6 55//6
f 56//3 52//3 59//3
f 59//4 52//4 56//4
f 60//3 57//3 53//3
f 53//4 57//4 60//4
f 58//3 61//3 54//3
f 54//4 61//4 58//4
f 55//5 62//5 59//5
f 59//6 62//6 55//6
f 56//3 59//3 63//3
f 63//4 59//4 56//4
f 60//3 64//3 57//3
f 57//4 64//4 60//4
f 55//5 65//5 62//5
f 62//6 65//6 55//6
f 59//5 62//5 66//5
f 66//6 62//6 59//6
f 63//3 59//3 67//3
f 67//4 59//4 63//4
f 56//3 63//3 68//3
f 68//4 63//4 56//4
f 60//3 69//3 64//3
f 64//4 69//4 60//4
f 55//5 70//5 65//5
f 65//6 70//6 55//6
f 65//5 71//5 62//5
f 62//6 71//6 65//6
f 66//5 62//5 72//5
f 72//6 62//6 66//6
f 67//3 59//3 66//3
f 66//4 59//4 67//4
f 73//7 63//7 67//7
f 67//8 63//8 73//8
f 74//7 68//7 63//7
f 63//8 68//8 74//8
f 75//3 69//3 60//3
f 60//4 69//4 75//4
f 70//5 76//5 65//5
f 65//6 76//6 70//6
f 77//4 71//4 65//4
f 65//3 71//3 77//3
f 71//5 78//5 62//5
f 62//6 78//6 71//6
f 66//5 72//5 79//5
f 79//6 72//6 66//6
f 67//3 66//3 80//3
f 80//4 66//4 67//4
f 81//7 63//7 73//7
f 73//8 63//8 81//8
f 73//7 67//7 82//7
f 82//8 67//8 73//8
f 83//7 74//7 63//7
f 63//8 74//8 83//8
f 75//3 84//3 69//3
f 69//4 84//4 75//4
f 76//5 85//5 65//5
f 65//6 85//6 76//6
f 77//4 78//4 71//4
f 71//3 78//3 77//3
f 78//5 86//5 62//5
f 62//6 86//6 78//6
f 87//3 66//3 79//3
f 79//4 66//4 87//4
f 80//3 66//3 88//3
f 88//4 66//4 80//4
f 82//7 67//7 80//7
f 80//8 67//8 82//8
f 81//7 83//7 63//7
f 63//8 83//8 81//8
f 81//3 89//3 73//3
f 73//4 89//4 81//4
f 73//3 90//3 82//3
f 82//4 90//4 73//4
f 75//3 91//3 84//3
f 84//4 91//4 75//4
f 76//5 92//5 85//5
f 85//6 92//6 76//6
f 93//4 78//4 77//4
f 77//3 78//3 93//3
f 94//4 86//4 78//4
f 78//3 86//3 94//3
f 86//5 95//5 96//5
f 96//6 95//6 86//6
f 97//3 66//3 87//3
f 87//4 66//4 97//4
f 87//3 79//3 98//3
f 98//4 79//4 87//4
f 88//3 66//3 97//3
f 97//4 66//4 88//4
f 80//3 88//3 99//3
f 99//4 88//4 80//4
f 82//7 80//7 100//7
f 100//8 80//8 82//8
f 81//7 101//7 83//7
f 83//8 101//8 81//8
f 81//3 102//3 89//3
f 89//4 102//4 81//4
f 73//3 89//3 103//3
f 103//4 89//4 73//4
f 73//3 103//3 90//3
f 90//4 103//4 73//4
f 82//3 90//3 104//3
f 104//4 90//4 82//4
f 105//3 91//3 75//3
f 75//4 91//4 105//4
f 92//5 106//5 85//5
f 85//6 106//6 92//6
f 94//4 78//4 93//4
f 93//3 78//3 94//3
f 107//9 93//9 108//9
f 108//10 93//10 107//10
f 109//4 86//4 94//4
f 94//3 86//3 109//3
f 86//5 110//5 95//5
f 95//6 110//6 86//6
f 111//11 97//11 87//11
f 87//12 97//12 111//12
f 98//3 79//3 112//3
f 112//4 79//4 98//4
f 111//11 87//11 98//11
f 98//12 87//12 111//12
f 113//11 88//11 97//11
f 97//12 88//12 113//12
f 99//3 88//3 114//3
f 114//4 88//4 99//4
f 100//7 80//7 99//7
f 99//8 80//8 100//8
f 82//3 104//3 100//3
f 100//4 104//4 82//4
f 115//7 101//7 81//7
f 81//8 101//8 115//8
f 115//3 102//3 81//3
f 81//4 102//4 115//4
f 116//3 91//3 105//3
f 105//4 91//4 116//4
f 92//5 117//5 106//5
f 106//6 117//6 92//6
f 118//9 119//9 93//9
f 93//10 119//10 118//10
f 118//9 93//9 107//9
f 107//10 93//10 118//10
f 109//4 110//4 86//4
f 86//3 110//3 109//3
f 120//9 109//9 119//9
f 119//10 109//10 120//10
f 113//11 97//11 111//11
f 111//12 97//12 113//12
f 113//11 114//11 88//11
f 88//12 114//12 113//12
f 99//3 114//3 121//3
f 121//4 114//4 99//4
f 122//7 100//7 99//7
f 99//8 100//8 122//8
f 123//3 102//3 115//3
f 115//4 102//4 123//4
f 124//3 91//3 116//3
f 116//4 91//4 124//4
f 117//5 125//5 106//5
f 106//6 125//6 117//6
f 120//9 119//9 118//9
f 118//10 119//10 120//10
f 118//9 107//9 126//9
f 126//10 107//10 118//10
f 109//4 127//4 110//4
f 110//3 127//3 109//3
f 128//9 109//9 120//9
f 120//10 109//10 128//10
f 129//11 113//11 111//11
f 111//12 113//12 129//12
f 122//7 130//7 100//7
f 100//8 130//8 122//8
f 123//3 131//3 102//3
f 102//4 131//4 123//4
f 124//3 132//3 91//3
f 91//4 132//4 124//4
f 117//5 133//5 125//5
f 125//6 133//6 117//6
f 134//3 118//3 120//3
f 120//4 118//4 134//4
f 118//9 126//9 135//9
f 135//10 126//10 118//10
f 109//4 136//4 127//4
f 127//3 136//3 109//3
f 128//9 137//9 109//9
f 109//10 137//10 128//10
f 138//3 120//3 128//3
f 128//4 120//4 138//4
f 129//11 139//11 113//11
f 113//12 139//12 129//12
f 122//7 140//7 130//7
f 130//8 140//8 122//8
f 123//3 141//3 131//3
f 131//4 141//4 123//4
f 132//3 142//3 91//3
f 91//4 142//4 132//4
f 134//3 143//3 118//3
f 118//4 143//4 134//4
f 144//3 134//3 120//3
f 120//4 134//4 144//4
f 109//4 145//4 136//4
f 136//3 145//3 109//3
f 146//9 137//9 128//9
f 128//10 137//10 146//10
f 111//4 145//4 109//4
f 109//3 145//3 111//3
f 138//3 144//3 120//3
f 120//4 144//4 138//4
f 147//3 138//3 128//3
f 128//4 138//4 147//4
f 148//11 139//11 129//11
f 129//12 139//12 148//12
f 122//7 149//7 140//7
f 140//8 149//8 122//8
f 150//3 141//3 123//3
f 123//4 141//4 150//4
f 142//3 151//3 91//3
f 91//4 151//4 142//4
f 134//3 152//3 143//3
f 143//4 152//4 134//4
f 144//3 153//3 134//3
f 134//4 153//4 144//4
f 154//3 147//3 128//3
f 128//4 147//4 154//4
f 148//11 155//11 139//11
f 139//12 155//12 148//12
f 154//7 149//7 122//7
f 122//8 149//8 154//8
f 156//3 157//3 141//3
f 141//4 157//4 156//4
f 142//3 158//3 151//3
f 151//4 158//4 142//4
f 152//3 159//3 143//3
f 143//4 159//4 152//4
f 153//3 160//3 134//3
f 134//4 160//4 153//4
f 154//3 128//3 161//3
f 161//4 128//4 154//4
f 162//11 155//11 148//11
f 148//12 155//12 162//12
f 156//3 163//3 157//3
f 157//4 163//4 156//4
f 158//3 164//3 151//3
f 151//4 164//4 158//4
f 159//3 165//3 143//3
f 143//4 165//4 159//4
f 153//3 166//3 160//3
f 160//4 166//4 153//4
f 160//3 167//3 134//3
f 134//4 167//4 160//4
f 154//3 161//3 168//3
f 168//4 161//4 154//4
f 162//11 169//11 155//11
f 155//12 169//12 162//12
f 156//3 170//3 163//3
f 163//4 170//4 156//4
f 164//3 171//3 151//3
f 151//4 171//4 164//4
f 165//3 135//3 143//3
f 143//4 135//4 165//4
f 166//3 172//3 160//3
f 160//4 172//4 166//4
f 160//3 173//3 167//3
f 167//4 173//4 160//4
f 168//3 161//3 174//3
f 174//4 161//4 168//4
f 154//3 168//3 175//3
f 175//4 168//4 154//4
f 146//11 169//11 162//11
f 162//12 169//12 146//12
f 156//3 176//3 170//3
f 170//4 176//4 156//4
f 171//3 177//3 151//3
f 151//4 177//4 171//4
f 172//3 178//3 160//3
f 160//4 178//4 172//4
f 173//3 179//3 167//3
f 167//4 179//4 173//4
f 174//3 161//3 180//3
f 180//4 161//4 174//4
f 175//3 168//3 181//3
f 181//4 168//4 175//4
f 182//11 169//11 146//11
f 146//12 169//12 182//12
f 156//3 183//3 176//3
f 176//4 183//4 156//4
f 178//3 184//3 160//3
f 160//4 184//4 178//4
f 173//3 185//3 179//3
f 179//4 185//4 173//4
f 180//3 161//3 146//3
f 146//4 161//4 180//4
f 181//3 168//3 186//3
f 186//4 168//4 181//4
f 187//3 183//3 156//3
f 156//4 183//4 187//4
f 178//3 188//3 184//3
f 184//4 188//4 178//4
f 185//3 189//3 179//3
f 179//4 189//4 185//4
f 186//3 168//3 182//3
f 182//4 168//4 186//4
f 190//3 183//3 187//3
f 187//4 183//4 190//4
f 185//3 191//3 189//3
f 189//4 191//4 185//4
f 186//3 182//3 122//3
f 122//4 182//4 186//4
f 190//3 192//3 183//3
f 183//4 192//4 190//4
f 191//3 193//3 189//3
f 189//4 193//4 191//4
f 122//3 182//3 194//3
f 194//4 182//4 122//4
f 190//3 195//3 192//3
f 192//4 195//4 190//4
f 183//3 192//3 196//3
f 196//4 192//4 183//4
f 191//3 197//3 193//3
f 193//4 197//4 191//4
f 190//3 198//3 195//3
f 195//4 198//4 190//4
f 195//3 199//3 192//3
f 192//4 199//4 195//4
f 183//3 196//3 200//3
f 200//4 196//4 183//4
f 197//3 201//3 193//3
f 193//4 201//4 197//4
f 202//3 198//3 190//3
f 190//4 198//4 202//4
f 195//3 203//3 199//3
f 199//4 203//4 195//4
f 183//3 200//3 204//3
f 204//4 200//4 183//4
f 197//3 205//3 201//3
f 201//4 205//4 197//4
f 206//3 198//3 202//3
f 202//4 198//4 206//4
f 183//3 204//3 207//3
f 207//4 204//4 183//4
f 205//3 208//3 201//3
f 201//4 208//4 205//4
f 209//3 198//3 206//3
f 206//4 198//4 209//4
f 207//3 204//3 210//3
f 210//4 204//4 207//4
f 205//3 211//3 208//3
f 208//4 211//4 205//4
f 212//3 209//3 206//3
f 206//4 209//4 212//4
f 210//3 204//3 213//3
f 213//4 204//4 210//4
f 214//3 209//3 212//3
f 212//4 209//4 214//4
f 213//3 204//3 215//3
f 215//4 204//4 213//4
f 216//3 209//3 214//3
f 214//4 209//4 216//4
f 215//3 204//3 217//3
f 217//4 204//4 215//4
f 218//3 216//3 214//3
f 214//4 216//4 218//4
f 215//3 217//3 219//3
f 219//4 217//4 215//4
f 220//3 216//3 218//3
f 218//4 216//4 220//4
f 219//3 217//3 221//3
f 221//4 217//4 219//4
f 222//3 216//3 220//3
f 220//4 216//4 222//4
f 223//3 216//3 222//3
f 222//4 216//4 223//4
