# SSTK version 0.8.0
# 123
mtllib original-123.mtl
o Group119/mesh121/mesh121-geometry#mesh121-geometry
v -0.024681 0.661839 0.734757
v -0.020916 0.664748 0.738911
v -0.024681 0.561884 0.804746
v -0.019297 0.565705 0.810202
v -0.027191 0.658515 0.730009
v -0.012226 0.668320 0.744013
v -0.027757 0.557300 0.798199
v -0.011057 0.568652 0.814411
v -0.028349 0.654551 0.724349
v -0.000839 0.619757 0.781027
v -0.028087 0.551733 0.790249
v -0.000839 0.644746 0.763530
v -0.000839 0.594768 0.798524
v -0.026410 0.648094 0.715127
v -0.000839 0.669734 0.746033
v -0.000839 0.569780 0.816022
v -0.024681 0.546094 0.782195
v -0.019815 0.642503 0.707143
v -0.017869 0.541582 0.775751
v -0.010398 0.639135 0.702333
v -0.009299 0.538962 0.772010
v -0.000839 0.588176 0.735925
v -0.000839 0.563187 0.753422
v -0.000839 0.613164 0.718427
v -0.000839 0.538198 0.770919
v -0.000839 0.638153 0.700930
vn 0.8660253648803788 -0.2867881208317473 -0.40957617256574125
vn 0.7279489322530719 -0.39346096338236036 -0.5614969477440085
vn 0.8660250698405947 -0.28590602305689206 -0.41019303308001853
vn -0.8660250698405947 0.28590602305689206 0.41019303308001853
vn -0.7279489322530719 0.39346096338236036 0.5614969477440085
vn -0.8660253648803788 0.2867881208317473 0.40957617256574125
vn 0.636409967034601 -0.4421869770951572 -0.6320229672618433
vn -0.636409967034601 0.4421869770951572 0.6320229672618433
vn 0.9510532375740794 -0.17710504424102264 -0.2532420632601286
vn -0.9510532375740794 0.17710504424102264 0.2532420632601286
vn 0.3533399767705474 -0.5371339646874713 -0.7659229496463124
vn -0.3533399767705474 0.5371339646874713 0.7659229496463124
vn 0.9821839105377826 -0.10666499028441978 -0.15471698590760402
vn -0.9821839105377826 0.10666499028441978 0.15471698590760402
vn 0.280461882456206 -0.55065576921581 -0.786205670494983
vn -0.280461882456206 0.55065576921581 0.786205670494983
vn 0.9999500295955215 -0.006505000192528492 -0.007591000224670838
vn -0.9999500295955215 0.006505000192528492 0.007591000224670838
vn 0.20051898234681087 -0.5624949504793527 -0.802116929383634
vn -0.20051898234681087 0.5624949504793527 0.802116929383634
vn 0.9877379095306197 0.09024599173414437 0.12739498833157512
vn -0.9877379095306197 -0.09024599173414437 -0.12739498833157512
vn 0.21160396591388367 -0.5605879096979839 -0.8006028710352973
vn -0.21160396591388367 0.5605879096979839 0.8006028710352973
vn 0.18898204712400224 -0.5632411404481384 -0.8043912005806018
vn -0.18898204712400224 0.5632411404481384 0.8043912005806018
vn 0.9337463192848041 0.2037370696657636 0.2942941006307949
vn -0.9337463192848041 -0.2037370696657636 -0.2942941006307949
vn 0.8537496351292545 0.299259872103989 0.4260928178988339
vn -0.8537496351292545 -0.299259872103989 -0.4260928178988339
vn 0.7154522395688648 0.39937413373025127 0.5732611919562558
vn -0.7154522395688648 -0.39937413373025127 -0.5732611919562558
vn 0.5926439362119587 0.46233095023793536 0.6595629290092673
vn -0.5926439362119587 -0.46233095023793536 -0.6595629290092673
vn 0.30833683129570727 0.5450687017695567 0.7796335734290645
vn -0.30833683129570727 -0.5450687017695567 -0.7796335734290645
vn 0.23943886745936993 0.5568726917448772 0.7953375597434018
vn -0.23943886745936993 -0.5568726917448772 -0.7953375597434018
vn 0.16618292848327523 0.5651707567790996 0.8080626522507167
vn -0.16618292848327523 -0.5651707567790996 -0.8080626522507167
vn 0.1555429874640912 0.566595954335484 0.8091819347843894
vn -0.1555429874640912 -0.566595954335484 -0.8091819347843894
vn 0.17636902865053372 0.5645850917148794 0.8063111309824319
vn -0.17636902865053372 -0.5645850917148794 -0.8063111309824319
usemtl material_0_0
f 1//1 2//2 3//3
f 3//4 2//5 1//6
f 2//2 4//7 3//3
f 3//4 4//8 2//5
f 5//9 1//1 3//3
f 3//4 1//6 5//10
f 6//11 4//7 2//2
f 2//5 4//8 6//12
f 5//9 3//3 7//13
f 7//14 3//4 5//10
f 6//11 8//15 4//7
f 4//8 8//16 6//12
f 9//17 5//9 7//13
f 7//14 5//10 9//18
f 6//11 10//19 8//15
f 8//16 10//20 6//12
f 9//17 7//13 11//21
f 11//22 7//14 9//18
f 6//11 12//23 10//19
f 10//20 12//24 6//12
f 10//19 13//25 8//15
f 8//16 13//26 10//20
f 14//27 9//17 11//21
f 11//22 9//18 14//28
f 15//23 12//23 6//11
f 6//12 12//24 15//24
f 13//25 16//25 8//15
f 8//16 16//26 13//26
f 14//27 11//21 17//29
f 17//30 11//22 14//28
f 18//31 14//27 17//29
f 17//30 14//28 18//32
f 18//31 17//29 19//33
f 19//34 17//30 18//32
f 18//31 19//33 20//35
f 20//36 19//34 18//32
f 20//35 19//33 21//37
f 21//38 19//34 20//36
f 20//35 21//37 22//39
f 22//40 21//38 20//36
f 22//39 21//37 23//41
f 23//42 21//38 22//40
f 20//35 22//39 24//43
f 24//44 22//40 20//36
f 23//41 21//37 25//41
f 25//42 21//38 23//42
f 20//35 24//43 26//43
f 26//44 24//44 20//36
