# SSTK version 0.8.0
# 234
mtllib original-234.mtl
o mesh227/mesh227-geometry#mesh227-geometry
v 0.127680 -0.409437 -0.189331
v 0.127281 -0.409437 -0.164054
v 0.121904 -0.409437 -0.188854
v 0.124874 -0.409437 -0.152880
v 0.123141 -0.409437 -0.214200
v 0.121522 -0.409437 -0.164713
v 0.118934 -0.409437 -0.224828
v 0.116439 -0.409437 -0.141111
v 0.117569 -0.409437 -0.212605
v 0.121957 -0.409437 -0.139341
v 0.108683 -0.409437 -0.235054
v 0.106848 -0.409437 -0.118954
v 0.113837 -0.409437 -0.237705
v 0.111915 -0.409437 -0.116141
v 0.095589 -0.409437 -0.255339
v 0.097540 -0.409437 -0.095346
v 0.100127 -0.409437 -0.258944
v 0.093118 -0.409437 -0.099093
v 0.082536 -0.409437 -0.277100
v 0.075778 -0.409437 -0.082293
v 0.078789 -0.409437 -0.272679
v 0.079384 -0.409437 -0.077756
v 0.058928 -0.409437 -0.286408
v 0.058145 -0.409437 -0.064045
v 0.061741 -0.409437 -0.291476
v 0.055494 -0.409437 -0.069199
v 0.038541 -0.409437 -0.301518
v 0.034639 -0.409437 -0.054741
v 0.036771 -0.409437 -0.295999
v 0.033045 -0.409437 -0.060313
v 0.013828 -0.409437 -0.306841
v 0.009294 -0.409437 -0.055978
v 0.013169 -0.409437 -0.301083
v 0.009770 -0.409437 -0.050202
v -0.010972 -0.409437 -0.301465
v -0.015506 -0.409437 -0.050601
v -0.011449 -0.409437 -0.307241
v -0.014847 -0.409437 -0.056360
v -0.036318 -0.409437 -0.302701
v -0.038450 -0.409437 -0.061444
v -0.034723 -0.409437 -0.297129
v -0.040219 -0.409437 -0.055925
v -0.057172 -0.409437 -0.288244
v -0.060607 -0.409437 -0.071034
v -0.059823 -0.409437 -0.293398
v -0.063419 -0.409437 -0.065967
v -0.077457 -0.409437 -0.275149
v -0.084214 -0.409437 -0.080342
v -0.081062 -0.409437 -0.279687
v -0.080467 -0.409437 -0.084764
v -0.099218 -0.409437 -0.262096
v -0.097267 -0.409437 -0.102104
v -0.094797 -0.409437 -0.258349
v -0.101805 -0.409437 -0.098498
v -0.108526 -0.409437 -0.238489
v -0.115516 -0.409437 -0.119737
v -0.113594 -0.409437 -0.241301
v -0.110362 -0.409437 -0.122388
v -0.123636 -0.409437 -0.218102
v -0.120613 -0.409437 -0.132615
v -0.118117 -0.409437 -0.216332
v -0.119247 -0.409437 -0.144837
v -0.126552 -0.409437 -0.204562
v -0.123582 -0.409437 -0.168588
v -0.123201 -0.409437 -0.192729
v -0.124819 -0.409437 -0.143243
v -0.129359 -0.409437 -0.168112
v -0.128959 -0.409437 -0.193388
vn 0 -1 0
vn 0 1 0
usemtl material_0_0
f 1//1 2//1 3//1
f 3//2 2//2 1//2
f 2//1 4//1 3//1
f 3//2 4//2 2//2
f 1//1 3//1 5//1
f 5//2 3//2 1//2
f 4//1 6//1 3//1
f 3//2 6//2 4//2
f 5//1 3//1 7//1
f 7//2 3//2 5//2
f 4//1 8//1 6//1
f 6//2 8//2 4//2
f 3//1 9//1 7//1
f 7//2 9//2 3//2
f 4//1 10//1 8//1
f 8//2 10//2 4//2
f 7//1 9//1 11//1
f 11//2 9//2 7//2
f 10//1 12//1 8//1
f 8//2 12//2 10//2
f 7//1 11//1 13//1
f 13//2 11//2 7//2
f 10//1 14//1 12//1
f 12//2 14//2 10//2
f 13//1 11//1 15//1
f 15//2 11//2 13//2
f 14//1 16//1 12//1
f 12//2 16//2 14//2
f 13//1 15//1 17//1
f 17//2 15//2 13//2
f 12//1 16//1 18//1
f 18//2 16//2 12//2
f 17//1 15//1 19//1
f 19//2 15//2 17//2
f 16//1 20//1 18//1
f 18//2 20//2 16//2
f 15//1 21//1 19//1
f 19//2 21//2 15//2
f 16//1 22//1 20//1
f 20//2 22//2 16//2
f 19//1 21//1 23//1
f 23//2 21//2 19//2
f 22//1 24//1 20//1
f 20//2 24//2 22//2
f 19//1 23//1 25//1
f 25//2 23//2 19//2
f 20//1 24//1 26//1
f 26//2 24//2 20//2
f 25//1 23//1 27//1
f 27//2 23//2 25//2
f 24//1 28//1 26//1
f 26//2 28//2 24//2
f 23//1 29//1 27//1
f 27//2 29//2 23//2
f 26//1 28//1 30//1
f 30//2 28//2 26//2
f 27//1 29//1 31//1
f 31//2 29//2 27//2
f 28//1 32//1 30//1
f 30//2 32//2 28//2
f 29//1 33//1 31//1
f 31//2 33//2 29//2
f 28//1 34//1 32//1
f 32//2 34//2 28//2
f 31//1 33//1 35//1
f 35//2 33//2 31//2
f 34//1 36//1 32//1
f 32//2 36//2 34//2
f 31//1 35//1 37//1
f 37//2 35//2 31//2
f 32//1 36//1 38//1
f 38//2 36//2 32//2
f 35//1 39//1 37//1
f 37//2 39//2 35//2
f 38//1 36//1 40//1
f 40//2 36//2 38//2
f 35//1 41//1 39//1
f 39//2 41//2 35//2
f 36//1 42//1 40//1
f 40//2 42//2 36//2
f 41//1 43//1 39//1
f 39//2 43//2 41//2
f 40//1 42//1 44//1
f 44//2 42//2 40//2
f 39//1 43//1 45//1
f 45//2 43//2 39//2
f 42//1 46//1 44//1
f 44//2 46//2 42//2
f 43//1 47//1 45//1
f 45//2 47//2 43//2
f 44//1 46//1 48//1
f 48//2 46//2 44//2
f 45//1 47//1 49//1
f 49//2 47//2 45//2
f 44//1 48//1 50//1
f 50//2 48//2 44//2
f 47//1 51//1 49//1
f 49//2 51//2 47//2
f 50//1 48//1 52//1
f 52//2 48//2 50//2
f 47//1 53//1 51//1
f 51//2 53//2 47//2
f 48//1 54//1 52//1
f 52//2 54//2 48//2
f 53//1 55//1 51//1
f 51//2 55//2 53//2
f 52//1 54//1 56//1
f 56//2 54//2 52//2
f 51//1 55//1 57//1
f 57//2 55//2 51//2
f 52//1 56//1 58//1
f 58//2 56//2 52//2
f 55//1 59//1 57//1
f 57//2 59//2 55//2
f 58//1 56//1 60//1
f 60//2 56//2 58//2
f 55//1 61//1 59//1
f 59//2 61//2 55//2
f 58//1 60//1 62//1
f 62//2 60//2 58//2
f 61//1 63//1 59//1
f 59//2 63//2 61//2
f 62//1 60//1 64//1
f 64//2 60//2 62//2
f 61//1 65//1 63//1
f 63//2 65//2 61//2
f 60//1 66//1 64//1
f 64//2 66//2 60//2
f 65//1 64//1 63//1
f 63//2 64//2 65//2
f 64//1 66//1 67//1
f 67//2 66//2 64//2
f 64//1 68//1 63//1
f 63//2 68//2 64//2
f 64//1 67//1 68//1
f 68//2 67//2 64//2
