# SSTK version 0.8.0
# 56
mtllib original-56.mtl
o Group56/mesh56/mesh56-geometry#mesh56-geometry
v -0.000821 0.414673 -0.132158
v -0.002789 0.159426 -0.116480
v -0.013022 0.414673 -0.089894
v -0.001693 0.159426 -0.148762
v -0.013022 0.159426 -0.089894
v -0.007269 0.414673 -0.169604
v -0.025543 0.414673 -0.073026
v -0.013022 0.159426 -0.181466
v -0.030929 0.159426 -0.067740
v -0.029206 0.414673 -0.202023
v -0.054449 0.414673 -0.052309
v -0.035680 0.159426 -0.207629
v -0.058338 0.159426 -0.050649
v -0.060531 0.414673 -0.221555
v -0.092325 0.287050 -0.044108
v -0.064185 0.159426 -0.222821
v -0.092325 0.223238 -0.044108
v -0.092325 0.350862 -0.044108
v -0.092325 0.287050 -0.227252
v -0.092325 0.159426 -0.044108
v -0.092325 0.414673 -0.044108
v -0.092325 0.350862 -0.227252
v -0.092325 0.223238 -0.227252
v -0.092325 0.414673 -0.227252
v -0.092325 0.159426 -0.227252
vn -0.9988389053170682 -0.003960999624524971 -0.04801199544879913
vn -0.9741845361148427 -0.0013500007429345883 -0.22574912423463084
vn -0.9095075221912583 -0.003246998294193049 -0.4156747816257265
vn 0.9095075221912583 0.003246998294193049 0.4156747816257265
vn 0.9741845361148427 0.0013500007429345883 0.22574912423463084
vn 0.9988389053170682 0.003960999624524971 0.04801199544879913
vn -0.9877374652372962 0.0013590006401070845 0.1561180735336595
vn 0.9877374652372962 -0.0013590006401070845 -0.1561180735336595
vn -0.8460767650402847 0.0011409996831388458 -0.5330598519666344
vn 0.8460767650402847 -0.0011409996831388458 0.5330598519666344
vn -0.9337438889769245 -0.003034999639135609 0.35792895744189157
vn 0.9337438889769245 0.003034999639135609 -0.35792895744189157
vn -0.7279490857047266 -0.0003870000455631073 -0.6856310807224372
vn 0.7279490857047266 0.0003870000455631073 0.6856310807224372
vn -0.8537491979626913 0.001181000273843764 0.5206831207331523
vn 0.8537491979626913 -0.001181000273843764 -0.5206831207331523
vn -0.6364099127478886 0.0004699999355629494 -0.7713508942474139
vn 0.6364099127478886 -0.0004699999355629494 0.7713508942474139
vn -0.7154504708996386 -0.002642001738929284 0.6986584598473684
vn 0.7154504708996386 0.002642001738929284 -0.6986584598473684
vn -0.35333890983746186 -0.0010799997244130576 -0.9354947612870257
vn 0.35333890983746186 0.0010799997244130576 0.9354947612870257
vn -0.5926436438020161 0.0006519996081269844 0.8054645158897937
vn 0.5926436438020161 -0.0006519996081269844 -0.8054645158897937
vn -0.28046202960024463 -0.00019300002036920313 -0.959865101305128
vn 0.28046202960024463 0.00019300002036920313 0.959865101305128
vn -0.3083359679754572 -0.001089999886790104 0.951276901198008
vn 0.3083359679754572 0.001089999886790104 -0.951276901198008
vn -0.20051903782882238 -0.0011030002080857548 -0.9796891848227907
vn 0.20051903782882238 0.0011030002080857548 0.9796891848227907
vn -0.23943886258200578 -0.00003699997876530487 0.9709114427775776
vn 0.23943886258200578 0.00003699997876530487 -0.9709114427775776
vn -0.18898191678324866 0 -0.9819805675923172
vn 0.18898191678324866 0 0.9819805675923172
vn -0.21160389382227118 0 -0.9773555095865848
vn 0.21160389382227118 0 0.9773555095865848
vn -0.16618293055723637 -0.0008349996510794051 0.9860945879412336
vn 0.16618293055723637 0.0008349996510794051 -0.9860945879412336
vn -0.17636902106401797 0 0.9843241175593128
vn 0.17636902106401797 0 -0.9843241175593128
vn -0.15554301881370697 0 0.9878291194828784
vn 0.15554301881370697 0 -0.9878291194828784
usemtl material_0_0
f 1//1 2//2 3//3
f 3//4 2//5 1//6
f 4//7 2//2 1//1
f 1//6 2//5 4//8
f 2//2 5//9 3//3
f 3//4 5//10 2//5
f 6//11 4//7 1//1
f 1//6 4//8 6//12
f 5//9 7//13 3//3
f 3//4 7//14 5//10
f 8//15 4//7 6//11
f 6//12 4//8 8//16
f 5//9 9//17 7//13
f 7//14 9//18 5//10
f 10//19 8//15 6//11
f 6//12 8//16 10//20
f 7//13 9//17 11//21
f 11//22 9//18 7//14
f 12//23 8//15 10//19
f 10//20 8//16 12//24
f 11//21 9//17 13//25
f 13//26 9//18 11//22
f 14//27 12//23 10//19
f 10//20 12//24 14//28
f 11//21 13//25 15//29
f 15//30 13//26 11//22
f 14//27 16//31 12//23
f 12//24 16//32 14//28
f 15//29 13//25 17//33
f 17//34 13//26 15//30
f 11//21 15//29 18//35
f 18//36 15//30 11//22
f 14//27 19//37 16//31
f 16//32 19//38 14//28
f 17//33 13//25 20//33
f 20//34 13//26 17//34
f 11//21 18//35 21//35
f 21//36 18//36 11//22
f 14//27 22//39 19//37
f 19//38 22//40 14//28
f 19//37 23//41 16//31
f 16//32 23//42 19//38
f 24//39 22//39 14//27
f 14//28 22//40 24//40
f 23//41 25//41 16//31
f 16//32 25//42 23//42
