# SSTK version 0.8.0
# 67
mtllib original-67.mtl
o mesh66/mesh66-geometry#mesh66-geometry
v 0.070629 -0.770710 -0.135680
v 0.067498 -0.770710 -0.167471
v 0.058225 -0.770710 -0.073320
v 0.058225 -0.770710 -0.198040
v 0.067498 -0.770710 -0.103889
v 0.043167 -0.770710 -0.226213
v 0.043167 -0.770710 -0.045147
v 0.022901 -0.770710 -0.020454
v -0.001792 -0.770710 -0.000189
v -0.029965 -0.770710 0.014870
v 0.022901 -0.770710 -0.250906
v -0.001792 -0.770710 -0.271171
v -0.029965 -0.770710 -0.286230
v -0.060534 -0.770710 0.024143
v -0.092325 -0.770710 0.027274
v -0.060534 -0.770710 -0.295503
v -0.092325 -0.770710 -0.298634
v -0.124116 -0.770710 0.024143
v -0.124116 -0.770710 -0.295503
v -0.154685 -0.770710 -0.286230
v -0.154685 -0.770710 0.014870
v -0.182857 -0.770710 -0.000189
v -0.207551 -0.770710 -0.020454
v -0.227816 -0.770710 -0.045147
v -0.182857 -0.770710 -0.271171
v -0.207551 -0.770710 -0.250906
v -0.227816 -0.770710 -0.226213
v -0.242875 -0.770710 -0.073320
v -0.252148 -0.770710 -0.103889
v -0.255279 -0.770710 -0.135680
v -0.252148 -0.770710 -0.167471
v -0.242875 -0.770710 -0.198040
vn 0 1 0
vn 0 -1 0
usemtl material_0_0
f 1//1 2//1 3//1
f 3//2 2//2 1//2
f 2//1 4//1 3//1
f 3//2 4//2 2//2
f 1//1 3//1 5//1
f 5//2 3//2 1//2
f 4//1 6//1 3//1
f 3//2 6//2 4//2
f 3//1 6//1 7//1
f 7//2 6//2 3//2
f 6//1 8//1 7//1
f 7//2 8//2 6//2
f 6//1 9//1 8//1
f 8//2 9//2 6//2
f 6//1 10//1 9//1
f 9//2 10//2 6//2
f 6//1 11//1 10//1
f 10//2 11//2 6//2
f 11//1 12//1 10//1
f 10//2 12//2 11//2
f 12//1 13//1 10//1
f 10//2 13//2 12//2
f 13//1 14//1 10//1
f 10//2 14//2 13//2
f 13//1 15//1 14//1
f 14//2 15//2 13//2
f 13//1 16//1 15//1
f 15//2 16//2 13//2
f 16//1 17//1 15//1
f 15//2 17//2 16//2
f 17//1 18//1 15//1
f 15//2 18//2 17//2
f 17//1 19//1 18//1
f 18//2 19//2 17//2
f 19//1 20//1 18//1
f 18//2 20//2 19//2
f 18//1 20//1 21//1
f 21//2 20//2 18//2
f 20//1 22//1 21//1
f 21//2 22//2 20//2
f 20//1 23//1 22//1
f 22//2 23//2 20//2
f 20//1 24//1 23//1
f 23//2 24//2 20//2
f 20//1 25//1 24//1
f 24//2 25//2 20//2
f 25//1 26//1 24//1
f 24//2 26//2 25//2
f 26//1 27//1 24//1
f 24//2 27//2 26//2
f 27//1 28//1 24//1
f 24//2 28//2 27//2
f 27//1 29//1 28//1
f 28//2 29//2 27//2
f 27//1 30//1 29//1
f 29//2 30//2 27//2
f 27//1 31//1 30//1
f 30//2 31//2 27//2
f 27//1 32//1 31//1
f 31//2 32//2 27//2
