# SSTK version 0.8.0
# 17
mtllib original-17.mtl
o Group17/mesh17/mesh17-geometry#mesh17-geometry
v 0.242957 -0.161539 -0.216797
v 0.064008 -0.147900 -0.186292
v 0.052989 -0.158158 -0.210637
v 0.242957 -0.141300 -0.157662
v 0.048573 -0.161539 -0.216797
v 0.069867 -0.141300 -0.157662
v 0.038166 -0.170696 -0.230912
v 0.242957 -0.139924 -0.141920
v 0.242957 -0.183723 -0.246682
v 0.069856 -0.140121 -0.125540
v 0.020915 -0.185993 -0.249053
v 0.242957 -0.151347 -0.075578
v 0.001537 -0.204325 -0.265186
v 0.063995 -0.145460 -0.093213
v 0.242957 -0.234933 -0.283385
v 0.053007 -0.157123 -0.062744
v -0.018855 -0.224891 -0.278397
v 0.038200 -0.173621 -0.036539
v -0.040045 -0.247628 -0.288517
v 0.242957 -0.190212 -0.018144
v 0.162965 -0.302037 -0.297913
v 0.020933 -0.192972 -0.015578
v 0.082972 -0.302037 -0.297913
v 0.242957 -0.302037 -0.297913
v 0.001549 -0.214268 0.000761
v -0.061464 -0.272603 -0.295221
v 0.242957 -0.245708 0.016460
v 0.002980 -0.302037 -0.297913
v -0.018953 -0.236006 0.012507
v -0.077012 -0.302037 -0.297913
v -0.040180 -0.257626 0.020356
v 0.162965 -0.302037 0.026553
v 0.242957 -0.302037 0.026553
v 0.082972 -0.302037 0.026553
v -0.061508 -0.279021 0.024912
v 0.002980 -0.302037 0.026553
v -0.077012 -0.302037 0.026553
vn -0.005199998119961818 -0.882675680872196 0.46995383009010294
vn -0.006904001167408012 -0.9495551605617201 0.3135240530142567
vn -0.001877999292417889 -0.8999486609223573 0.43599183572942485
vn 0.001877999292417889 0.8999486609223573 -0.43599183572942485
vn 0.006904001167408012 0.9495551605617201 -0.3135240530142567
vn 0.005199998119961818 0.882675680872196 -0.46995383009010294
vn -0.005663000598865176 -0.9770591033244942 0.21289302251354456
vn 0.005663000598865176 0.9770591033244942 -0.21289302251354456
vn 0 -0.8583712023687603 0.5130291209512465
vn 0 0.8583712023687603 -0.5130291209512465
vn 0.0015409995968360334 -0.9931877401572916 0.11651496951677487
vn -0.0015409995968360334 0.9931877401572916 -0.11651496951677487
vn -0.001414000153576686 -0.8033050872481754 0.595566064685327
vn 0.001414000153576686 0.8033050872481754 -0.595566064685327
vn -0.003463001387287291 -0.9998754005526653 -0.015401006169683032
vn 0.003463001387287291 0.9998754005526653 0.015401006169683032
vn -0.004560000135883446 -0.7078590210934914 0.7063390210481967
vn 0.004560000135883446 0.7078590210934914 -0.7063390210481967
vn -0.008849003084891323 -0.9949413468510405 -0.10006703488482563
vn 0.008849003084891323 0.9949413468510405 0.10006703488482563
vn -0.0001680001083505288 -0.7144294607664283 0.6997074512715681
vn 0.0001680001083505288 0.7144294607664283 -0.6997074512715681
vn -0.011001000599054005 -0.9313390507156036 -0.36398701982073195
vn 0.011001000599054005 0.9313390507156036 0.36398701982073195
vn -0.006147000193080351 -0.5944230186711247 0.8041290252580949
vn 0.006147000193080351 0.5944230186711247 -0.8041290252580949
vn -0.005901002607668382 -0.9649854264295666 -0.26223711588326293
vn 0.005901002607668382 0.9649854264295666 0.26223711588326293
vn -0.004894001068150108 -0.3941450860249337 0.9190352005858876
vn 0.004894001068150108 0.3941450860249337 -0.9190352005858876
vn -0.0031569984248570704 -0.8935805541597103 -0.4488917760313401
vn 0.0031569984248570704 0.8935805541597103 0.4488917760313401
vn -0.0014009997359634115 -0.47390691068609053 0.8805738340444289
vn 0.0014009997359634115 0.47390691068609053 -0.8805738340444289
vn -0.008720997638175378 -0.8047617820540411 -0.5935338392588909
vn 0.008720997638175378 0.8047617820540411 0.5935338392588909
vn -0.009241001597533669 -0.2549610440762671 0.9669071671536075
vn 0.009241001597533669 0.2549610440762671 -0.9669071671536075
vn -0.007799000405856092 -0.6838680355881515 -0.7295640379661489
vn 0.007799000405856092 0.6838680355881515 0.7295640379661489
vn -0.0029060000918688356 -0.19451100614917402 0.9808960310095572
vn 0.0029060000918688356 0.19451100614917402 -0.9808960310095572
vn -0.00015599996185544003 -0.674060835181024 -0.7386758193815963
vn 0.00015599996185544003 0.674060835181024 0.7386758193815963
vn -0.00995800292410326 -0.16579304868405842 0.9861102895649192
vn 0.00995800292410326 0.16579304868405842 -0.9861102895649192
vn 0 -0.2116038938222714 0.9773555095865848
vn 0 0.2116038938222714 -0.9773555095865848
vn -0.0065270022114172575 -0.5375771821368245 -0.8431892856814319
vn 0.0065270022114172575 0.5375771821368245 0.8431892856814319
vn -0.00996299603080793 -0.13946694443728716 0.9901766055201551
vn 0.00996299603080793 0.13946694443728716 -0.9901766055201551
vn -0.004648000561701606 -0.3418360413102041 -0.939748113566687
vn 0.004648000561701606 0.3418360413102041 0.939748113566687
vn 0 -0.09109204365915193 0.995842477293472
vn 0 0.09109204365915193 -0.995842477293472
vn -0.0013549997119467394 -0.40846091316714156 -0.9127748059573322
vn 0.0013549997119467394 0.40846091316714156 0.9127748059573322
vn -0.006055999905568795 -0.2102309967218679 -0.977632984755769
vn 0.006055999905568795 0.2102309967218679 0.977632984755769
vn -0.0021729999483054182 -0.16067499617762201 -0.9870049765196454
vn 0.0021729999483054182 0.16067499617762201 0.9870049765196454
vn 0 -0.17636902106401775 -0.9843241175593128
vn 0 0.17636902106401775 0.9843241175593128
vn -0.006380001100011174 -0.13326302297661247 -0.9910601708741495
vn 0.006380001100011174 0.13326302297661247 0.9910601708741495
vn -0.006382001151013157 -0.11091702000421888 -0.993809179236483
vn 0.006382001151013157 0.11091702000421888 0.993809179236483
vn 0 -0.07111301885231247 -0.9974682644323632
vn 0 0.07111301885231247 0.9974682644323632
usemtl material_0_0
f 1//1 2//2 3//3
f 3//4 2//5 1//6
f 4//7 2//2 1//1
f 1//6 2//5 4//8
f 1//1 3//3 5//9
f 5//10 3//4 1//6
f 4//7 6//11 2//2
f 2//5 6//12 4//8
f 1//1 5//9 7//13
f 7//14 5//10 1//6
f 8//15 6//11 4//7
f 4//8 6//12 8//16
f 1//1 7//13 9//17
f 9//18 7//14 1//6
f 8//15 10//19 6//11
f 6//12 10//20 8//16
f 9//17 7//13 11//21
f 11//22 7//14 9//18
f 12//23 10//19 8//15
f 8//16 10//20 12//24
f 9//17 11//21 13//25
f 13//26 11//22 9//18
f 12//23 14//27 10//19
f 10//20 14//28 12//24
f 9//17 13//25 15//29
f 15//30 13//26 9//18
f 12//23 16//31 14//27
f 14//28 16//32 12//24
f 13//25 17//33 15//29
f 15//30 17//34 13//26
f 12//23 18//35 16//31
f 16//32 18//36 12//24
f 17//33 19//37 15//29
f 15//30 19//38 17//34
f 20//39 18//35 12//23
f 12//24 18//36 20//40
f 15//29 19//37 21//41
f 21//42 19//38 15//30
f 20//39 22//43 18//35
f 18//36 22//44 20//40
f 19//37 23//45 21//41
f 21//42 23//46 19//38
f 15//29 21//41 24//47
f 24//48 21//42 15//30
f 20//39 25//49 22//43
f 22//44 25//50 20//40
f 19//37 26//51 23//45
f 23//46 26//52 19//38
f 20//39 27//53 25//49
f 25//50 27//54 20//40
f 26//51 28//55 23//45
f 23//46 28//56 26//52
f 25//49 27//53 29//57
f 29//58 27//54 25//50
f 26//51 30//55 28//55
f 28//56 30//56 26//52
f 29//57 27//53 31//59
f 31//60 27//54 29//58
f 27//53 32//61 31//59
f 31//60 32//62 27//54
f 27//53 33//63 32//61
f 32//62 33//64 27//54
f 31//59 32//61 34//65
f 34//66 32//62 31//60
f 31//59 34//65 35//67
f 35//68 34//66 31//60
f 35//67 34//65 36//69
f 36//70 34//66 35//68
f 35//67 36//69 37//69
f 37//70 36//70 35//68
