# SSTK version 0.8.0
# 3
mtllib original-3.mtl
o #ID3237
v 0.497292 -0.018117 0.304043
v 0.417482 -0.017424 0.298899
v 0.417482 -0.018070 0.304049
v 0.497292 -0.017471 0.298893
v 0.497292 -0.013009 0.299453
v 0.417482 -0.017424 0.298899
v 0.497292 -0.017471 0.298893
v 0.417482 -0.013009 0.299453
v 0.417482 -0.018070 0.304049
v 0.497292 -0.013655 0.304603
v 0.497292 -0.018117 0.304043
v 0.417482 -0.013655 0.304603
v 0.497292 -0.017471 0.298893
v 0.497292 -0.009223 0.269258
v 0.497292 -0.013009 0.299453
v 0.497292 -0.013638 0.268705
v 0.417482 -0.009223 0.269258
v 0.417482 -0.017424 0.298899
v 0.417482 -0.013009 0.299453
v 0.417482 -0.013638 0.268705
v 0.497292 -0.022502 0.339394
v 0.497292 -0.013655 0.304603
v 0.497292 -0.018087 0.339946
v 0.497292 -0.018117 0.304043
v 0.417482 -0.013655 0.304603
v 0.417482 -0.022502 0.339394
v 0.417482 -0.018087 0.339946
v 0.417482 -0.018070 0.304049
v 0.497292 -0.013638 0.268705
v 0.496819 -0.008935 0.266963
v 0.497292 -0.009223 0.269258
v 0.496819 -0.013350 0.266409
v 0.418105 -0.008931 0.266928
v 0.417482 -0.013638 0.268705
v 0.417482 -0.009223 0.269258
v 0.418105 -0.013346 0.266375
v 0.496382 -0.022740 0.341288
v 0.497292 -0.018087 0.339946
v 0.496382 -0.018325 0.341842
v 0.497292 -0.022502 0.339394
v 0.417482 -0.018087 0.339946
v 0.418392 -0.022740 0.341288
v 0.418392 -0.018325 0.341842
v 0.417482 -0.022502 0.339394
v 0.496819 -0.013350 0.266409
v 0.496075 -0.008656 0.264739
v 0.496819 -0.008935 0.266963
v 0.496075 -0.013071 0.264186
v 0.418990 -0.008649 0.264683
v 0.418105 -0.013346 0.266375
v 0.418105 -0.008931 0.266928
v 0.418990 -0.013064 0.264129
v 0.495289 -0.022966 0.343088
v 0.496382 -0.018325 0.341842
v 0.495289 -0.018550 0.343642
v 0.496382 -0.022740 0.341288
v 0.418392 -0.018325 0.341842
v 0.419486 -0.022966 0.343088
v 0.419486 -0.018550 0.343642
v 0.418392 -0.022740 0.341288
v 0.496075 -0.013071 0.264186
v 0.495072 -0.008390 0.262618
v 0.496075 -0.008656 0.264739
v 0.495072 -0.012806 0.262066
v 0.420128 -0.008382 0.262553
v 0.418990 -0.013064 0.264129
v 0.418990 -0.008649 0.264683
v 0.420128 -0.012797 0.261999
v 0.494024 -0.023177 0.344771
v 0.495289 -0.018550 0.343642
v 0.494024 -0.018762 0.345325
v 0.495289 -0.022966 0.343088
v 0.419486 -0.018550 0.343642
v 0.420751 -0.023177 0.344771
v 0.420751 -0.018762 0.345325
v 0.419486 -0.022966 0.343088
v 0.495072 -0.012806 0.262066
v 0.493819 -0.008141 0.260632
v 0.495072 -0.008390 0.262618
v 0.493819 -0.012556 0.260078
v 0.421503 -0.008133 0.260565
v 0.420128 -0.012797 0.261999
v 0.420128 -0.008382 0.262553
v 0.421503 -0.012548 0.260011
v 0.492599 -0.023372 0.346324
v 0.494024 -0.018762 0.345325
v 0.492599 -0.018956 0.346878
v 0.494024 -0.023177 0.344771
v 0.420751 -0.018762 0.345325
v 0.422176 -0.023372 0.346324
v 0.422176 -0.018956 0.346878
v 0.420751 -0.023177 0.344771
v 0.493819 -0.012556 0.260078
v 0.492339 -0.007912 0.258807
v 0.493819 -0.008141 0.260632
v 0.492339 -0.012327 0.258253
v 0.423097 -0.007904 0.258745
v 0.421503 -0.012548 0.260011
v 0.421503 -0.008133 0.260565
v 0.423097 -0.012320 0.258191
v 0.492599 -0.023372 0.346324
v 0.491028 -0.019133 0.348285
v 0.491028 -0.023548 0.347731
v 0.492599 -0.018956 0.346878
v 0.423746 -0.019133 0.348285
v 0.422176 -0.023372 0.346324
v 0.423746 -0.023548 0.347731
v 0.422176 -0.018956 0.346878
v 0.490650 -0.012122 0.256616
v 0.492339 -0.007912 0.258807
v 0.492339 -0.012327 0.258253
v 0.490650 -0.007707 0.257170
v 0.423097 -0.007904 0.258745
v 0.424889 -0.012116 0.256563
v 0.423097 -0.012320 0.258191
v 0.424889 -0.007700 0.257117
v 0.491028 -0.023548 0.347731
v 0.489326 -0.019289 0.349533
v 0.489326 -0.023705 0.348980
v 0.491028 -0.019133 0.348285
v 0.425448 -0.019289 0.349533
v 0.423746 -0.023548 0.347731
v 0.425448 -0.023705 0.348980
v 0.423746 -0.019133 0.348285
v 0.488778 -0.011943 0.255188
v 0.490650 -0.007707 0.257170
v 0.490650 -0.012122 0.256616
v 0.488778 -0.007528 0.255742
v 0.424889 -0.007700 0.257117
v 0.426856 -0.011938 0.255148
v 0.424889 -0.012116 0.256563
v 0.426856 -0.007523 0.255702
v 0.489326 -0.023705 0.348980
v 0.487508 -0.019424 0.350611
v 0.487508 -0.023840 0.350057
v 0.489326 -0.019289 0.349533
v 0.427265 -0.019424 0.350611
v 0.425448 -0.023705 0.348980
v 0.427265 -0.023840 0.350057
v 0.425448 -0.019289 0.349533
v 0.486747 -0.011793 0.253993
v 0.488778 -0.007528 0.255742
v 0.488778 -0.011943 0.255188
v 0.486747 -0.007378 0.254545
v 0.426856 -0.007523 0.255702
v 0.428972 -0.011790 0.253964
v 0.426856 -0.011938 0.255148
v 0.428972 -0.007374 0.254518
v 0.487508 -0.023840 0.350057
v 0.485595 -0.019537 0.351506
v 0.485595 -0.023952 0.350952
v 0.487508 -0.019424 0.350611
v 0.429179 -0.019537 0.351506
v 0.427265 -0.023840 0.350057
v 0.429179 -0.023952 0.350952
v 0.427265 -0.019424 0.350611
v 0.484588 -0.011674 0.253043
v 0.486747 -0.007378 0.254545
v 0.486747 -0.011793 0.253993
v 0.484588 -0.007259 0.253597
v 0.428972 -0.007374 0.254518
v 0.431211 -0.011672 0.253027
v 0.428972 -0.011790 0.253964
v 0.431211 -0.007257 0.253580
v 0.485595 -0.023952 0.350952
v 0.483602 -0.019625 0.352211
v 0.483602 -0.024041 0.351659
v 0.485595 -0.019537 0.351506
v 0.431173 -0.019625 0.352211
v 0.429179 -0.023952 0.350952
v 0.431173 -0.024041 0.351659
v 0.429179 -0.019537 0.351506
v 0.482331 -0.011588 0.252356
v 0.484588 -0.007259 0.253597
v 0.484588 -0.011674 0.253043
v 0.482331 -0.007173 0.252910
v 0.431211 -0.007257 0.253580
v 0.433543 -0.011587 0.252349
v 0.431211 -0.011672 0.253027
v 0.433543 -0.007172 0.252902
v 0.483602 -0.024041 0.351659
v 0.481547 -0.019689 0.352721
v 0.481547 -0.024104 0.352167
v 0.483602 -0.019625 0.352211
v 0.433227 -0.019689 0.352721
v 0.431173 -0.024041 0.351659
v 0.433227 -0.024104 0.352167
v 0.431173 -0.019625 0.352211
v 0.480006 -0.011536 0.251941
v 0.482331 -0.007173 0.252910
v 0.482331 -0.011588 0.252356
v 0.480006 -0.007121 0.252493
v 0.433543 -0.007172 0.252902
v 0.435937 -0.011536 0.251938
v 0.433543 -0.011587 0.252349
v 0.435937 -0.007120 0.252492
v 0.481547 -0.024104 0.352167
v 0.479454 -0.019728 0.353028
v 0.479454 -0.024143 0.352474
v 0.481547 -0.019689 0.352721
v 0.435320 -0.019728 0.353028
v 0.433227 -0.024104 0.352167
v 0.435320 -0.024143 0.352474
v 0.433227 -0.019689 0.352721
v 0.435937 -0.011536 0.251938
v 0.480006 -0.007121 0.252493
v 0.480006 -0.011536 0.251941
v 0.435937 -0.007120 0.252492
v 0.479454 -0.019728 0.353028
v 0.435320 -0.024143 0.352474
v 0.479454 -0.024143 0.352474
v 0.435320 -0.019728 0.353028
vt 0.4078939 30.86573
vt 0.4038387 30.96477
vt 0.4038375 30.87244
vt 0.4078951 30.95806
vt 0.4074664 -3.463027
vt 0.40341 -3.542185
vt 0.4074664 -3.543027
vt 0.40341 -3.463027
vt -0.40341 -3.542185
vt -0.4074664 -3.463027
vt -0.4074664 -3.543027
vt -0.40341 -3.463027
vt 0.09093649 0.4204336
vt 0.09244269 0.5671675
vt 0.09090805 0.4998119
vt 0.09247083 0.4886245
vt -0.09244269 0.5671675
vt -0.09093619 0.4212688
vt -0.09090805 0.4998119
vt -0.09247083 0.4886245
vt 0.08887805 0.3309369
vt 0.0906463 0.4883237
vt 0.08884991 0.4094799
vt 0.09067474 0.4089454
vt -0.0906463 0.4883237
vt -0.08887805 0.3309369
vt -0.08884991 0.4094799
vt -0.09067444 0.4097807
vt 0.009710381 -3.151249
vt 0.009801921 -3.067559
vt 0.0096828 -3.072682
vt 0.009829502 -3.146127
vt -0.1921523 4.663577
vt -0.1920569 4.579793
vt -0.1920297 4.658376
vt -0.1921795 4.584994
vt 0.2544209 6.515615
vt 0.2545024 6.598506
vt 0.2543955 6.594271
vt 0.2545278 6.519851
vt 0.09212247 -7.135134
vt 0.09220392 -7.218025
vt 0.09222936 -7.139369
vt 0.09209703 -7.21379
vt -0.03952824 -5.213726
vt -0.03943579 -5.130159
vt -0.03955497 -5.135123
vt -0.03940906 -5.208762
vt -0.232506 6.015672
vt -0.2324096 5.932035
vt -0.2323834 6.010659
vt -0.2325323 5.937048
vt 0.2852652 7.159235
vt 0.285348 7.241961
vt 0.2852411 7.23794
vt 0.2853722 7.163255
vt 0.1309896 -8.406224
vt 0.1310724 -8.48895
vt 0.1310966 -8.410244
vt 0.1309655 -8.484929
vt -0.08826839 -7.070697
vt -0.08817464 -6.987307
vt -0.0882939 -6.992043
vt -0.08814914 -7.06596
vt -0.2699198 6.983797
vt -0.269822 6.90036
vt -0.269797 6.979036
vt -0.2699447 6.90512
vt 0.3134352 7.469587
vt 0.3135196 7.552114
vt 0.3134126 7.548348
vt 0.3135423 7.473353
vt 0.1686616 -9.415603
vt 0.168746 -9.49813
vt 0.1687686 -9.419369
vt 0.168639 -9.494364
vt -0.1358396 -8.617718
vt -0.1357441 -8.534562
vt -0.1358635 -8.539004
vt -0.1357202 -8.613276
vt -0.3039092 7.517354
vt -0.3038096 7.43417
vt -0.3037863 7.512908
vt -0.3039324 7.438615
vt 0.338654 7.434154
vt 0.3387402 7.516451
vt 0.3386331 7.512974
vt 0.3387611 7.437631
vt 0.2047779 -10.12427
vt 0.2048641 -10.20656
vt 0.204885 -10.12774
vt 0.204757 -10.20309
vt -0.1815778 -9.767193
vt -0.1814804 -9.684326
vt -0.1815998 -9.68841
vt -0.1814584 -9.76311
vt -0.3340249 7.587805
vt -0.3339232 7.504926
vt -0.3339019 7.583732
vt -0.3340462 7.508999
vt 0.3607754 7.056682
vt 0.3606493 7.132409
vt 0.3606682 7.053529
vt 0.3607565 7.135562
vt 0.2390951 -10.50765
vt 0.2389689 -10.58337
vt 0.2390761 -10.58653
vt 0.2389879 -10.50449
vt -0.2247143 -10.4497
vt -0.2248537 -10.37451
vt -0.2248339 -10.45337
vt -0.2247341 -10.37085
vt -0.3597362 7.18668
vt -0.3598784 7.111452
vt -0.3597553 7.107804
vt -0.3598593 7.190327
vt 0.3793592 6.344301
vt 0.3792351 6.420442
vt 0.3792519 6.341503
vt 0.3793424 6.423241
vt 0.2710615 -10.54379
vt 0.2709374 -10.61993
vt 0.2710447 -10.62273
vt 0.2709542 -10.54099
vt -0.2648629 -10.63304
vt -0.2649998 -10.55731
vt -0.2649826 -10.63624
vt -0.2648801 -10.55411
vt -0.3809304 6.341127
vt -0.3810701 6.265356
vt -0.380947 6.262183
vt -0.3810535 6.3443
vt 0.394317 5.327075
vt 0.3941951 5.403653
vt 0.3942096 5.324658
vt 0.3943025 5.40607
vt 0.3004644 -10.23402
vt 0.3003425 -10.3106
vt 0.3004498 -10.31301
vt 0.300357 -10.2316
vt -0.3013131 -10.30139
vt -0.3014473 -10.22508
vt -0.3014329 -10.30408
vt -0.3013276 -10.2224
vt -0.3971816 5.089891
vt -0.3973187 5.013539
vt -0.3971955 5.010883
vt -0.3973048 5.092548
vt 0.4054874 4.043459
vt 0.4053679 4.120494
vt 0.4053799 4.041448
vt 0.4054753 4.122505
vt 0.3270055 -9.589507
vt 0.326886 -9.666541
vt 0.3269935 -9.668552
vt 0.3268981 -9.587496
vt -0.3335195 -9.472282
vt -0.3336508 -9.395356
vt -0.3336394 -9.474412
vt -0.333531 -9.393226
vt -0.4082502 3.497223
vt -0.4083846 3.420263
vt -0.4082612 3.418159
vt -0.4083735 3.499327
vt 0.4127459 2.542382
vt 0.4126289 2.619885
vt 0.4126384 2.540797
vt 0.4127364 2.62147
vt 0.3504128 -8.634441
vt 0.3502958 -8.711944
vt 0.3504033 -8.713529
vt 0.3503053 -8.632856
vt -0.3609935 -8.191767
vt -0.3611218 -8.114206
vt -0.3611135 -8.193311
vt -0.3610018 -8.112662
vt -0.4139663 1.645601
vt -0.4140977 1.568015
vt -0.4139743 1.566492
vt -0.4140897 1.647124
vt 0.416008 0.8813899
vt 0.4158936 0.9593678
vt 0.4159005 0.8802461
vt 0.4160011 0.9605116
vt 0.3704439 -7.405156
vt 0.3703295 -7.483134
vt 0.3704371 -7.484278
vt 0.3703364 -7.404012
vt -0.3833145 -6.532016
vt -0.3834396 -6.453813
vt -0.3834345 -6.532952
vt -0.3833196 -6.452877
vt -0.4142348 -0.3685318
vt -0.4143631 -0.4467493
vt -0.4142396 -0.4476719
vt -0.4143583 -0.3676092
vt 0.4152311 -0.8755724
vt 0.4151194 -0.7971185
vt 0.4151235 -0.8762633
vt 0.4152269 -0.7964276
vt 0.3868908 -5.948776
vt 0.3867791 -6.02723
vt 0.3868866 -6.027921
vt 0.3867832 -5.948085
vt -0.4043437 -3.542995
vt -0.4065835 -3.463841
vt -0.4065835 -3.542999
vt -0.4043437 -3.463837
vt 0.4065597 -3.463027
vt 0.4043166 -3.542185
vt 0.4065597 -3.542185
vt 0.4043166 -3.463027
vn 0.0005929421709605445 0.9922287514054083 0.12442569390622821
vn -0.0005929421709605445 -0.9922287514054083 -0.12442569390622821
vn 0 -0.12442570343317293 0.9922289273777296
vn 0 0.12442570343317293 -0.9922289273777296
vn 1 0 0
vn -1 0 0
vn 0.9797789175339081 0.024895490445524266 -0.19852830355281886
vn -0.9797789175339081 -0.024895490445524266 0.19852830355281886
vn -0.9666066842987746 0.03188589948205651 -0.25427309586967556
vn 0.9666066842987746 -0.03188589948205651 0.25427309586967556
vn 0.9027337333299863 -0.05352790197631291 0.42685661576004597
vn -0.9027337333299863 0.05352790197631291 -0.42685661576004597
vn -0.9027337333299863 -0.05352790197631291 0.42685661576004597
vn 0.9027337333299863 0.05352790197631291 -0.42685661576004597
vn 0.9490726763234897 0.0392012190220475 -0.31260889220134785
vn -0.9490726763234897 -0.0392012190220475 0.31260889220134785
vn -0.9311612572956047 0.04536656279146572 -0.3617742222604545
vn 0.9311612572956047 -0.04536656279146572 0.3617742222604545
vn 0.856351355571885 -0.06425263666652781 0.5123806734173277
vn -0.856351355571885 0.06425263666652781 -0.5123806734173277
vn -0.856351355571885 -0.06425263666652781 0.5123806734173277
vn 0.856351355571885 0.06425263666652781 -0.5123806734173277
vn 0.904925684367418 0.05295179908525831 -0.4222624927054197
vn -0.904925684367418 -0.05295179908525831 0.4222624927054197
vn -0.8836157237332894 0.05825771156476077 -0.4645743124781354
vn 0.8836157237332894 -0.05825771156476077 0.4645743124781354
vn 0.8017645448974093 -0.07436178416412971 0.5929957332067217
vn -0.8017645448974093 0.07436178416412971 -0.5929957332067217
vn -0.8017645448974093 -0.07436178416412971 0.5929957332067217
vn 0.8017645448974093 0.07436178416412971 -0.5929957332067217
vn 0.8479632756826179 0.0659524681086548 -0.5259358849175262
vn -0.8479632756826179 -0.0659524681086548 0.5259358849175262
vn -0.8245879774451805 0.07039181807458428 -0.5613373846458307
vn 0.8245879774451805 -0.07039181807458428 0.5613373846458307
vn 0.7394962706675039 -0.08375848667767714 0.6679294735062373
vn -0.7394962706675039 0.08375848667767714 -0.6679294735062373
vn -0.7394962706675039 -0.08375848667767714 0.6679294735062373
vn 0.7394962706675039 0.08375848667767714 -0.6679294735062373
vn 0.7789920175027174 0.07801913175296651 -0.6221611139789752
vn -0.7789920175027174 -0.07801913175296651 0.6221611139789752
vn -0.7548450207385751 0.08161122224218285 -0.6508061178802155
vn 0.7548450207385751 -0.08161122224218285 0.6508061178802155
vn 0.6701430911678098 -0.09235273878283183 0.7364639902937296
vn -0.6701430911678098 0.09235273878283183 -0.7364639902937296
vn -0.6701430911678098 -0.09235273878283183 0.7364639902937296
vn 0.6701430911678098 0.09235273878283183 -0.7364639902937296
vn 0.6989887321943831 0.08898089409832802 -0.7095753326819862
vn -0.6989887321943831 -0.08898089409832802 0.7095753326819862
vn -0.6752931669727416 0.0917701055117051 -0.7318178642082299
vn 0.6752931669727416 -0.0917701055117051 0.7318178642082299
vn 0.5943694059411709 -0.10006220100019741 0.7979427079760396
vn -0.5943694059411709 0.10006220100019741 -0.7979427079760396
vn -0.5943694059411709 -0.10006220100019741 0.7979427079760396
vn 0.5943694059411709 0.10006220100019741 -0.7979427079760396
vn 0.6090864664422267 0.09868250456306257 -0.7869405566433105
vn -0.6090864664422267 -0.09868250456306257 0.7869405566433105
vn -0.5869660802246845 0.10073649660611413 -0.8033199729355641
vn 0.5869660802246845 -0.10073649660611413 0.8033199729355641
vn 0.5129013140790514 -0.10681290293199572 0.8517765233811168
vn -0.5129013140790514 0.10681290293199572 -0.8517765233811168
vn -0.5129013140790514 -0.10681290293199572 0.8517765233811168
vn 0.5129013140790514 0.10681290293199572 -0.8517765233811168
vn 0.5105583144324908 0.10698660302430343 -0.8531612241172088
vn -0.5105583144324908 -0.10698660302430343 0.8531612241172088
vn -0.49101169463383876 0.10839379881538767 -0.864383190553342
vn 0.49101169463383876 -0.10839379881538767 0.864383190553342
vn 0.42651921415385047 -0.11254040373460344 0.8974497297814702
vn -0.42651921415385047 0.11254040373460344 -0.8974497297814702
vn -0.42651921415385047 -0.11254040373460344 0.8974497297814702
vn 0.42651921415385047 0.11254040373460344 -0.8974497297814702
vn 0.4047996910497595 0.11377549748439042 -0.9072994799393411
vn -0.4047996910497595 -0.11377549748439042 0.9072994799393411
vn -0.38867671486757255 0.11464260438528283 -0.9142141349703096
vn 0.38867671486757255 -0.11464260438528283 0.9142141349703096
vn 0.3360508071513478 -0.11718960249386003 0.934524719887205
vn -0.3360508071513478 0.11718960249386003 -0.934524719887205
vn -0.3360508071513478 -0.11718960249386003 0.934524719887205
vn 0.3360508071513478 0.11718960249386003 -0.934524719887205
vn 0.2933083066450332 0.11895320269493916 -0.948588621490707
vn -0.2933083066450332 -0.11895320269493916 0.948588621490707
vn -0.2812910976099905 0.11940169898549531 -0.9521651919098618
vn 0.2812910976099905 -0.11940169898549531 0.9521651919098618
vn 0.24236280261951412 -0.12071600130472714 0.9626463104045075
vn -0.24236280261951412 0.12071600130472714 -0.9626463104045075
vn -0.24236280261951412 -0.12071600130472714 0.9626463104045075
vn 0.24236280261951412 0.12071600130472714 -0.9626463104045075
vn 0.17766320010081144 0.12244630006947993 -0.9764439005540637
vn -0.17766320010081144 -0.12244630006947993 0.9764439005540637
vn -0.17025020751902226 0.1226092054149795 -0.9777432431815816
vn 0.17025020751902226 -0.1226092054149795 0.9777432431815816
vn 0.14635269744540566 -0.12308589785152914 0.9815450828670769
vn -0.14635269744540566 0.12308589785152914 -0.9815450828670769
vn -0.14635269744540566 -0.12308589785152914 0.9815450828670769
vn 0.14635269744540566 0.12308589785152914 -0.9815450828670769
vn 0.00004565298121208907 0.12442570330350924 -0.9922289263437306
vn -0.00004565298121208907 -0.12442570330350924 0.9922289263437306
usemtl material_0_2
f 1/1/1 2/2/1 3/3/1
f 3/3/2 2/2/2 1/1/2
f 2/2/1 1/1/1 4/4/1
f 4/4/2 1/1/2 2/2/2
f 5/5/3 6/6/3 7/7/3
f 7/7/4 6/6/4 5/5/4
f 6/6/3 5/5/3 8/8/3
f 8/8/4 5/5/4 6/6/4
f 9/9/4 10/10/4 11/11/4
f 11/11/3 10/10/3 9/9/3
f 10/10/4 9/9/4 12/12/4
f 12/12/3 9/9/3 10/10/3
f 13/13/5 14/14/5 15/15/5
f 15/15/6 14/14/6 13/13/6
f 14/14/5 13/13/5 16/16/5
f 16/16/6 13/13/6 14/14/6
f 17/17/6 18/18/6 19/19/6
f 19/19/5 18/18/5 17/17/5
f 18/18/6 17/17/6 20/20/6
f 20/20/5 17/17/5 18/18/5
f 21/21/5 22/22/5 23/23/5
f 23/23/6 22/22/6 21/21/6
f 22/22/5 21/21/5 24/24/5
f 24/24/6 21/21/6 22/22/6
f 25/25/6 26/26/6 27/27/6
f 27/27/5 26/26/5 25/25/5
f 26/26/6 25/25/6 28/28/6
f 28/28/5 25/25/5 26/26/5
f 29/29/7 30/30/7 31/31/7
f 31/31/8 30/30/8 29/29/8
f 30/30/7 29/29/7 32/32/7
f 32/32/8 29/29/8 30/30/8
f 33/33/9 34/34/9 35/35/9
f 35/35/10 34/34/10 33/33/10
f 34/34/9 33/33/9 36/36/9
f 36/36/10 33/33/10 34/34/10
f 37/37/11 38/38/11 39/39/11
f 39/39/12 38/38/12 37/37/12
f 38/38/11 37/37/11 40/40/11
f 40/40/12 37/37/12 38/38/12
f 41/41/13 42/42/13 43/43/13
f 43/43/14 42/42/14 41/41/14
f 42/42/13 41/41/13 44/44/13
f 44/44/14 41/41/14 42/42/14
f 45/45/15 46/46/15 47/47/15
f 47/47/16 46/46/16 45/45/16
f 46/46/15 45/45/15 48/48/15
f 48/48/16 45/45/16 46/46/16
f 49/49/17 50/50/17 51/51/17
f 51/51/18 50/50/18 49/49/18
f 50/50/17 49/49/17 52/52/17
f 52/52/18 49/49/18 50/50/18
f 53/53/19 54/54/19 55/55/19
f 55/55/20 54/54/20 53/53/20
f 54/54/19 53/53/19 56/56/19
f 56/56/20 53/53/20 54/54/20
f 57/57/21 58/58/21 59/59/21
f 59/59/22 58/58/22 57/57/22
f 58/58/21 57/57/21 60/60/21
f 60/60/22 57/57/22 58/58/22
f 61/61/23 62/62/23 63/63/23
f 63/63/24 62/62/24 61/61/24
f 62/62/23 61/61/23 64/64/23
f 64/64/24 61/61/24 62/62/24
f 65/65/25 66/66/25 67/67/25
f 67/67/26 66/66/26 65/65/26
f 66/66/25 65/65/25 68/68/25
f 68/68/26 65/65/26 66/66/26
f 69/69/27 70/70/27 71/71/27
f 71/71/28 70/70/28 69/69/28
f 70/70/27 69/69/27 72/72/27
f 72/72/28 69/69/28 70/70/28
f 73/73/29 74/74/29 75/75/29
f 75/75/30 74/74/30 73/73/30
f 74/74/29 73/73/29 76/76/29
f 76/76/30 73/73/30 74/74/30
f 77/77/31 78/78/31 79/79/31
f 79/79/32 78/78/32 77/77/32
f 78/78/31 77/77/31 80/80/31
f 80/80/32 77/77/32 78/78/32
f 81/81/33 82/82/33 83/83/33
f 83/83/34 82/82/34 81/81/34
f 82/82/33 81/81/33 84/84/33
f 84/84/34 81/81/34 82/82/34
f 85/85/35 86/86/35 87/87/35
f 87/87/36 86/86/36 85/85/36
f 86/86/35 85/85/35 88/88/35
f 88/88/36 85/85/36 86/86/36
f 89/89/37 90/90/37 91/91/37
f 91/91/38 90/90/38 89/89/38
f 90/90/37 89/89/37 92/92/37
f 92/92/38 89/89/38 90/90/38
f 93/93/39 94/94/39 95/95/39
f 95/95/40 94/94/40 93/93/40
f 94/94/39 93/93/39 96/96/39
f 96/96/40 93/93/40 94/94/40
f 97/97/41 98/98/41 99/99/41
f 99/99/42 98/98/42 97/97/42
f 98/98/41 97/97/41 100/100/41
f 100/100/42 97/97/42 98/98/42
f 101/101/43 102/102/43 103/103/43
f 103/103/44 102/102/44 101/101/44
f 102/102/43 101/101/43 104/104/43
f 104/104/44 101/101/44 102/102/44
f 105/105/45 106/106/45 107/107/45
f 107/107/46 106/106/46 105/105/46
f 106/106/45 105/105/45 108/108/45
f 108/108/46 105/105/46 106/106/46
f 109/109/47 110/110/47 111/111/47
f 111/111/48 110/110/48 109/109/48
f 110/110/47 109/109/47 112/112/47
f 112/112/48 109/109/48 110/110/48
f 113/113/49 114/114/49 115/115/49
f 115/115/50 114/114/50 113/113/50
f 114/114/49 113/113/49 116/116/49
f 116/116/50 113/113/50 114/114/50
f 117/117/51 118/118/51 119/119/51
f 119/119/52 118/118/52 117/117/52
f 118/118/51 117/117/51 120/120/51
f 120/120/52 117/117/52 118/118/52
f 121/121/53 122/122/53 123/123/53
f 123/123/54 122/122/54 121/121/54
f 122/122/53 121/121/53 124/124/53
f 124/124/54 121/121/54 122/122/54
f 125/125/55 126/126/55 127/127/55
f 127/127/56 126/126/56 125/125/56
f 126/126/55 125/125/55 128/128/55
f 128/128/56 125/125/56 126/126/56
f 129/129/57 130/130/57 131/131/57
f 131/131/58 130/130/58 129/129/58
f 130/130/57 129/129/57 132/132/57
f 132/132/58 129/129/58 130/130/58
f 133/133/59 134/134/59 135/135/59
f 135/135/60 134/134/60 133/133/60
f 134/134/59 133/133/59 136/136/59
f 136/136/60 133/133/60 134/134/60
f 137/137/61 138/138/61 139/139/61
f 139/139/62 138/138/62 137/137/62
f 138/138/61 137/137/61 140/140/61
f 140/140/62 137/137/62 138/138/62
f 141/141/63 142/142/63 143/143/63
f 143/143/64 142/142/64 141/141/64
f 142/142/63 141/141/63 144/144/63
f 144/144/64 141/141/64 142/142/64
f 145/145/65 146/146/65 147/147/65
f 147/147/66 146/146/66 145/145/66
f 146/146/65 145/145/65 148/148/65
f 148/148/66 145/145/66 146/146/66
f 149/149/67 150/150/67 151/151/67
f 151/151/68 150/150/68 149/149/68
f 150/150/67 149/149/67 152/152/67
f 152/152/68 149/149/68 150/150/68
f 153/153/69 154/154/69 155/155/69
f 155/155/70 154/154/70 153/153/70
f 154/154/69 153/153/69 156/156/69
f 156/156/70 153/153/70 154/154/70
f 157/157/71 158/158/71 159/159/71
f 159/159/72 158/158/72 157/157/72
f 158/158/71 157/157/71 160/160/71
f 160/160/72 157/157/72 158/158/72
f 161/161/73 162/162/73 163/163/73
f 163/163/74 162/162/74 161/161/74
f 162/162/73 161/161/73 164/164/73
f 164/164/74 161/161/74 162/162/74
f 165/165/75 166/166/75 167/167/75
f 167/167/76 166/166/76 165/165/76
f 166/166/75 165/165/75 168/168/75
f 168/168/76 165/165/76 166/166/76
f 169/169/77 170/170/77 171/171/77
f 171/171/78 170/170/78 169/169/78
f 170/170/77 169/169/77 172/172/77
f 172/172/78 169/169/78 170/170/78
f 173/173/79 174/174/79 175/175/79
f 175/175/80 174/174/80 173/173/80
f 174/174/79 173/173/79 176/176/79
f 176/176/80 173/173/80 174/174/80
f 177/177/81 178/178/81 179/179/81
f 179/179/82 178/178/82 177/177/82
f 178/178/81 177/177/81 180/180/81
f 180/180/82 177/177/82 178/178/82
f 181/181/83 182/182/83 183/183/83
f 183/183/84 182/182/84 181/181/84
f 182/182/83 181/181/83 184/184/83
f 184/184/84 181/181/84 182/182/84
f 185/185/85 186/186/85 187/187/85
f 187/187/86 186/186/86 185/185/86
f 186/186/85 185/185/85 188/188/85
f 188/188/86 185/185/86 186/186/86
f 189/189/87 190/190/87 191/191/87
f 191/191/88 190/190/88 189/189/88
f 190/190/87 189/189/87 192/192/87
f 192/192/88 189/189/88 190/190/88
f 193/193/89 194/194/89 195/195/89
f 195/195/90 194/194/90 193/193/90
f 194/194/89 193/193/89 196/196/89
f 196/196/90 193/193/90 194/194/90
f 197/197/91 198/198/91 199/199/91
f 199/199/92 198/198/92 197/197/92
f 198/198/91 197/197/91 200/200/91
f 200/200/92 197/197/92 198/198/92
f 201/201/93 202/202/93 203/203/93
f 203/203/94 202/202/94 201/201/94
f 202/202/93 201/201/93 204/204/93
f 204/204/94 201/201/94 202/202/94
f 205/205/95 206/206/95 207/207/95
f 207/207/96 206/206/96 205/205/96
f 206/206/95 205/205/95 208/208/95
f 208/208/96 205/205/96 206/206/96
f 209/209/3 210/210/3 211/211/3
f 211/211/4 210/210/4 209/209/4
f 210/210/3 209/209/3 212/212/3
f 212/212/4 209/209/4 210/210/4
