# SSTK version 0.8.0
# 241
mtllib original-241.mtl
o #ID281
v 0.226336 -0.016826 0.329892
v 0.224133 -0.016916 0.330607
v 0.224133 -0.016826 0.329892
v 0.226336 -0.016916 0.330607
v 0.221515 -0.016836 0.329967
v 0.220943 -0.016916 0.330607
v 0.220943 -0.016874 0.330270
v 0.222435 -0.016916 0.330607
v 0.222101 -0.016778 0.329509
v 0.222660 -0.016705 0.328923
v 0.222435 -0.017705 0.336898
v 0.222489 -0.017815 0.337777
v 0.222651 -0.017893 0.338394
v 0.222927 -0.017946 0.338823
v 0.223156 -0.016619 0.328237
v 0.223320 -0.017986 0.339140
v 0.223814 -0.016441 0.326818
v 0.223778 -0.018011 0.339335
v 0.224133 -0.017677 0.336673
v 0.224247 -0.018019 0.339400
v 0.224133 -0.016441 0.326818
v 0.224199 -0.017772 0.337434
v 0.224396 -0.017830 0.337899
v 0.224936 -0.018003 0.339274
v 0.224696 -0.017860 0.338136
v 0.225070 -0.017870 0.338215
v 0.225605 -0.017955 0.338895
v 0.225729 -0.017844 0.338006
v 0.226189 -0.017876 0.338265
v 0.226012 -0.017811 0.337747
v 0.226223 -0.017766 0.337388
v 0.226624 -0.017766 0.337388
v 0.224133 -0.016441 0.326818
v 0.224133 -0.016269 0.329962
v 0.224133 -0.016826 0.329892
v 0.224133 -0.015883 0.326888
v 0.224133 -0.016269 0.329962
v 0.226336 -0.016826 0.329892
v 0.224133 -0.016826 0.329892
v 0.226336 -0.016269 0.329962
v 0.226336 -0.016826 0.329892
v 0.226336 -0.016358 0.330677
v 0.226336 -0.016916 0.330607
v 0.226336 -0.016269 0.329962
v 0.226336 -0.016358 0.330677
v 0.224133 -0.016916 0.330607
v 0.226336 -0.016916 0.330607
v 0.224133 -0.016358 0.330677
v 0.224133 -0.016916 0.330607
v 0.224133 -0.017119 0.336743
v 0.224133 -0.017677 0.336673
v 0.224133 -0.016358 0.330677
v 0.224133 -0.017677 0.336673
v 0.224199 -0.017214 0.337504
v 0.224199 -0.017772 0.337434
v 0.224133 -0.017119 0.336743
v 0.224199 -0.017772 0.337434
v 0.224396 -0.017273 0.337969
v 0.224396 -0.017830 0.337899
v 0.224199 -0.017214 0.337504
v 0.224396 -0.017273 0.337969
v 0.224696 -0.017860 0.338136
v 0.224396 -0.017830 0.337899
v 0.224696 -0.017302 0.338206
v 0.224696 -0.017302 0.338206
v 0.225070 -0.017870 0.338215
v 0.224696 -0.017860 0.338136
v 0.225070 -0.017312 0.338285
v 0.225070 -0.017312 0.338285
v 0.225729 -0.017844 0.338006
v 0.225070 -0.017870 0.338215
v 0.225729 -0.017286 0.338076
v 0.225729 -0.017286 0.338076
v 0.226012 -0.017811 0.337747
v 0.225729 -0.017844 0.338006
v 0.226012 -0.017254 0.337817
v 0.226223 -0.017209 0.337458
v 0.226012 -0.017811 0.337747
v 0.226012 -0.017254 0.337817
v 0.226223 -0.017766 0.337388
v 0.226223 -0.017209 0.337458
v 0.226624 -0.017766 0.337388
v 0.226223 -0.017766 0.337388
v 0.226624 -0.017209 0.337458
v 0.226624 -0.017766 0.337388
v 0.226189 -0.017319 0.338335
v 0.226189 -0.017876 0.338265
v 0.226624 -0.017209 0.337458
v 0.226189 -0.017876 0.338265
v 0.225605 -0.017398 0.338964
v 0.225605 -0.017955 0.338895
v 0.226189 -0.017319 0.338335
v 0.225605 -0.017398 0.338964
v 0.224936 -0.018003 0.339274
v 0.225605 -0.017955 0.338895
v 0.224936 -0.017445 0.339344
v 0.224936 -0.017445 0.339344
v 0.224247 -0.018019 0.339400
v 0.224936 -0.018003 0.339274
v 0.224247 -0.017461 0.339470
v 0.224247 -0.017461 0.339470
v 0.223778 -0.018011 0.339335
v 0.224247 -0.018019 0.339400
v 0.223778 -0.017453 0.339405
v 0.223778 -0.017453 0.339405
v 0.223320 -0.017986 0.339140
v 0.223778 -0.018011 0.339335
v 0.223320 -0.017428 0.339210
v 0.223320 -0.017428 0.339210
v 0.222927 -0.017946 0.338823
v 0.223320 -0.017986 0.339140
v 0.222927 -0.017389 0.338893
v 0.222651 -0.017335 0.338464
v 0.222927 -0.017946 0.338823
v 0.222927 -0.017389 0.338893
v 0.222651 -0.017893 0.338394
v 0.222489 -0.017257 0.337847
v 0.222651 -0.017893 0.338394
v 0.222651 -0.017335 0.338464
v 0.222489 -0.017815 0.337777
v 0.222435 -0.017147 0.336968
v 0.222489 -0.017815 0.337777
v 0.222489 -0.017257 0.337847
v 0.222435 -0.017705 0.336898
v 0.222435 -0.016358 0.330677
v 0.222435 -0.017705 0.336898
v 0.222435 -0.017147 0.336968
v 0.222435 -0.016916 0.330607
v 0.222435 -0.016358 0.330677
v 0.220943 -0.016916 0.330607
v 0.222435 -0.016916 0.330607
v 0.220943 -0.016358 0.330677
v 0.220943 -0.016316 0.330340
v 0.220943 -0.016916 0.330607
v 0.220943 -0.016358 0.330677
v 0.220943 -0.016874 0.330270
v 0.220943 -0.016316 0.330340
v 0.221515 -0.016836 0.329967
v 0.220943 -0.016874 0.330270
v 0.221515 -0.016278 0.330037
v 0.221515 -0.016278 0.330037
v 0.222101 -0.016778 0.329509
v 0.221515 -0.016836 0.329967
v 0.222101 -0.016221 0.329579
v 0.222660 -0.016147 0.328993
v 0.222101 -0.016778 0.329509
v 0.222101 -0.016221 0.329579
v 0.222660 -0.016705 0.328923
v 0.223156 -0.016061 0.328307
v 0.222660 -0.016705 0.328923
v 0.222660 -0.016147 0.328993
v 0.223156 -0.016619 0.328237
v 0.223814 -0.015883 0.326888
v 0.223156 -0.016619 0.328237
v 0.223156 -0.016061 0.328307
v 0.223814 -0.016441 0.326818
v 0.223814 -0.015883 0.326888
v 0.224133 -0.016441 0.326818
v 0.223814 -0.016441 0.326818
v 0.224133 -0.015883 0.326888
v 0.222489 -0.017257 0.337847
v 0.222435 -0.016358 0.330677
v 0.222435 -0.017147 0.336968
v 0.220943 -0.016316 0.330340
v 0.220943 -0.016358 0.330677
v 0.221515 -0.016278 0.330037
v 0.222101 -0.016221 0.329579
v 0.222660 -0.016147 0.328993
v 0.222651 -0.017335 0.338464
v 0.222927 -0.017389 0.338893
v 0.223156 -0.016061 0.328307
v 0.223320 -0.017428 0.339210
v 0.223814 -0.015883 0.326888
v 0.223778 -0.017453 0.339405
v 0.224133 -0.017119 0.336743
v 0.224247 -0.017461 0.339470
v 0.224199 -0.017214 0.337504
v 0.224396 -0.017273 0.337969
v 0.224936 -0.017445 0.339344
v 0.224696 -0.017302 0.338206
v 0.225070 -0.017312 0.338285
v 0.225605 -0.017398 0.338964
v 0.225729 -0.017286 0.338076
v 0.226189 -0.017319 0.338335
v 0.226012 -0.017254 0.337817
v 0.226223 -0.017209 0.337458
v 0.226624 -0.017209 0.337458
v 0.226336 -0.016358 0.330677
v 0.224133 -0.016269 0.329962
v 0.224133 -0.016358 0.330677
v 0.226336 -0.016269 0.329962
v 0.224133 -0.015883 0.326888
vt -0.02335588 0.01220057
vt -0.02142758 0.01156981
vt -0.02142758 0.01220057
vt -0.02335588 0.01156981
vt -0.01913547 0.01213411
vt -0.01863425 0.01156981
vt -0.01863425 0.01186717
vt -0.01994081 0.01156981
vt -0.01964796 0.01253847
vt -0.02013792 0.01305546
vt -0.01994081 0.006019186
vt -0.01998811 0.005243134
vt -0.02013003 0.00469911
vt -0.02037107 0.004320658
vt -0.02057156 0.01366031
vt -0.02071573 0.004041325
vt -0.02114825 0.0149128
vt -0.02111671 0.003868994
vt -0.02142758 0.006217423
vt -0.0215267 0.00381155
vt -0.02142758 0.0149128
vt -0.02148502 0.005546121
vt -0.02165736 0.005136132
vt -0.02213042 0.003923059
vt -0.02191979 0.004926632
vt -0.02224756 0.004856798
vt -0.02271612 0.004257583
vt -0.02282425 0.005041519
vt -0.02322748 0.004812871
vt -0.02307204 0.005270167
vt -0.02325676 0.00558667
vt -0.02360818 0.00558667
vt 0.0149128 0
vt 0.01220057 0.000492126
vt 0.01220057 0
vt 0.0149128 0.000492126
vt -0.02142758 0.000492126
vt -0.02335588 0
vt -0.02142758 0
vt -0.02335588 0.000492126
vt 0.01156981 0.000492126
vt 0.01156981 0
vt 0.02335588 0.000492126
vt 0.02142758 0
vt 0.02335588 0
vt 0.02142758 0.000492126
vt 0.006217423 0.000492126
vt 0.006217423 0
vt 0.004367892 0
vt 0.003694137 0.000492126
vt 0.003694137 0
vt 0.004367892 0.000492126
vt -0.003212427 0
vt -0.003657162 0.000492126
vt -0.003657162 0
vt -0.003212427 0.000492126
vt -0.01372141 0.000492126
vt -0.01405721 0
vt -0.01372141 0
vt -0.01405721 0.000492126
vt -0.02041199 0.000492126
vt -0.02074711 0
vt -0.02041199 0
vt -0.02074711 0.000492126
vt -0.02266874 0.000492126
vt -0.02327429 0
vt -0.02266874 0
vt -0.02327429 0.000492126
vt -0.02019312 0.000492126
vt -0.02053029 0
vt -0.02019312 0
vt -0.02053029 0.000492126
vt -0.01654788 0.000492126
vt -0.01618141 0
vt -0.01618141 0.000492126
vt -0.01654788 0
vt -0.02325676 0.000492126
vt -0.02360818 0
vt -0.02325676 0
vt -0.02360818 0.000492126
vt 0.01543483 0
vt 0.01457245 0.000492126
vt 0.01457245 0
vt 0.01543483 0.000492126
vt 0.01927494 0
vt 0.01852007 0.000492126
vt 0.01852007 0
vt 0.01927494 0.000492126
vt 0.02183704 0.000492126
vt 0.02116254 0
vt 0.02183704 0
vt 0.02116254 0.000492126
vt 0.02247487 0.000492126
vt 0.02186094 0
vt 0.02247487 0
vt 0.02186094 0.000492126
vt 0.0207896 0.000492126
vt 0.0203756 0
vt 0.0207896 0
vt 0.0203756 0.000492126
vt 0.01787317 0.000492126
vt 0.01743672 0
vt 0.01787317 0
vt 0.01743672 0.000492126
vt 0.01354928 0.000492126
vt 0.01310564 0
vt 0.01354928 0
vt 0.01310564 0.000492126
vt 0.006850373 0.000492126
vt 0.007299066 0
vt 0.007299066 0.000492126
vt 0.006850373 0
vt -0.00002791016 0.000492126
vt 0.0005343209 0
vt 0.0005343209 0.000492126
vt -0.00002791016 0
vt -0.004794736 0.000492126
vt -0.004017244 0
vt -0.004017244 0.000492126
vt -0.004794736 0
vt -0.01156981 0.000492126
vt -0.006019186 0
vt -0.006019186 0.000492126
vt -0.01156981 0
vt 0.01994081 0.000492126
vt 0.01863425 0
vt 0.01994081 0
vt 0.01863425 0.000492126
vt -0.01186717 0.000492126
vt -0.01186717 0
vt -0.02202553 0.000492126
vt -0.02259341 0
vt -0.02202553 0
vt -0.02259341 0.000492126
vt -0.0225386 0.000492126
vt -0.0231914 0
vt -0.0225386 0
vt -0.0231914 0.000492126
vt -0.02332841 0.000492126
vt -0.02261613 0
vt -0.02261613 0.000492126
vt -0.02332841 0
vt -0.02308827 0.000492126
vt -0.02234404 0
vt -0.02234404 0.000492126
vt -0.02308827 0
vt -0.02239073 0.000492126
vt -0.02101185 0
vt -0.02101185 0.000492126
vt -0.02239073 0
vt -0.02114825 0.000492126
vt -0.02114825 0
vt 0.01998811 0.005243134
vt 0.01994081 0.01156981
vt 0.01994081 0.006019186
vt 0.01863425 0.01186717
vt 0.01863425 0.01156981
vt 0.01913547 0.01213411
vt 0.01964796 0.01253847
vt 0.02013792 0.01305546
vt 0.02013003 0.00469911
vt 0.02037107 0.004320658
vt 0.02057156 0.01366031
vt 0.02071573 0.004041325
vt 0.02114825 0.0149128
vt 0.02111671 0.003868994
vt 0.02142758 0.006217423
vt 0.0215267 0.00381155
vt 0.02148502 0.005546121
vt 0.02165736 0.005136132
vt 0.02213042 0.003923059
vt 0.02191979 0.004926632
vt 0.02224756 0.004856798
vt 0.02271612 0.004257583
vt 0.02282425 0.005041519
vt 0.02322748 0.004812871
vt 0.02307204 0.005270167
vt 0.02325676 0.00558667
vt 0.02360818 0.00558667
vt 0.02335588 0.01156981
vt 0.02142758 0.01220057
vt 0.02142758 0.01156981
vt 0.02335588 0.01220057
vt 0.02142758 0.0149128
vn 0 -0.9922289273777297 -0.12442570343317294
vn 0 0.9922289273777297 0.12442570343317294
vn 1 0 0
vn -1 0 0
vn 0 0.12442570343317294 -0.9922289273777297
vn 0 -0.12442570343317294 0.9922289273777297
vn 0.9963588313541123 0.010608397988722458 -0.0845963419704448
vn -0.9963588313541123 -0.010608397988722458 0.0845963419704448
vn 0.9218735710773821 0.048213815181558276 -0.3844795793987938
vn -0.9218735710773821 -0.048213815181558276 0.3844795793987938
vn 0.6238765722508052 0.09724153493956285 -0.7754496156934914
vn -0.6238765722508052 -0.09724153493956285 0.7754496156934914
vn 0.20838128724154256 0.12169426897058781 -0.9704471876548831
vn -0.20838128724154256 -0.12169426897058781 0.9704471876548831
vn -0.3050456963426487 0.11849529007726928 -0.9449370293158864
vn 0.3050456963426487 -0.11849529007726928 0.9449370293158864
vn -0.678141312795059 0.09144437311120146 -0.7292203278206757
vn 0.678141312795059 -0.09144437311120146 0.7292203278206757
vn -0.8636674032386131 0.06271828333221817 -0.5001450124903081
vn 0.8636674032386131 -0.06271828333221817 0.5001450124903081
vn 0.8972821043371229 -0.05492867419702507 0.4380270151341141
vn -0.8972821043371229 0.05492867419702507 -0.4380270151341141
vn 0.7356038023385563 -0.0842874672077033 0.6721478028356327
vn -0.7356038023385563 0.0842874672077033 -0.6721478028356327
vn 0.49595908201405636 -0.10804454849376081 0.8615979134773678
vn -0.49595908201405636 0.10804454849376081 -0.8615979134773678
vn 0.1816293867709681 -0.12235613761476347 0.9757252387066756
vn -0.1816293867709681 0.12235613761476347 -0.9757252387066756
vn -0.13875459556393138 -0.12322210817919851 0.9826308942149965
vn 0.13875459556393138 0.12322210817919851 -0.9826308942149965
vn -0.3948534892742776 -0.1143153809665435 0.9116044732680956
vn 0.3948534892742776 0.1143153809665435 -0.9116044732680956
vn -0.6296363076549246 -0.09666508858261949 0.7708527620317565
vn 0.6296363076549246 0.09666508858261949 -0.7708527620317565
vn -0.8434546961211659 -0.06684152674892568 0.5330256897120669
vn 0.8434546961211659 0.06684152674892568 -0.5330256897120669
vn -0.967617271757639 -0.031407772419330626 0.2504603106840662
vn 0.967617271757639 0.031407772419330626 -0.2504603106840662
vn -0.9981472282243905 -0.007570678615586022 0.06037214269235474
vn 0.9981472282243905 0.007570678615586022 -0.06037214269235474
vn -0.4700734011556427 0.10982152597202331 -0.875768365470655
vn 0.4700734011556427 -0.10982152597202331 0.875768365470655
vn -0.619420484093372 0.09768156826862111 -0.7789586478794078
vn 0.619420484093372 -0.09768156826862111 0.7789586478794078
vn -0.7258280079034674 0.08558948335351121 -0.6825306903591686
vn 0.7258280079034674 -0.08558948335351121 0.6825306903591686
vn -0.8127096163782881 0.07249899121258624 -0.5781409652666147
vn 0.8127096163782881 -0.07249899121258624 0.5781409652666147
vn -0.9083415208884529 0.052038465038836156 -0.4149791315071808
vn 0.9083415208884529 -0.052038465038836156 0.4149791315071808
usemtl material_0_2
f 1/1/1 2/2/1 3/3/1
f 3/3/2 2/2/2 1/1/2
f 2/2/1 1/1/1 4/4/1
f 4/4/2 1/1/2 2/2/2
f 5/5/1 6/6/1 7/7/1
f 7/7/2 6/6/2 5/5/2
f 6/6/1 5/5/1 8/8/1
f 8/8/2 5/5/2 6/6/2
f 8/8/1 5/5/1 9/9/1
f 9/9/2 5/5/2 8/8/2
f 8/8/1 9/9/1 10/10/1
f 10/10/2 9/9/2 8/8/2
f 8/8/1 10/10/1 11/11/1
f 11/11/2 10/10/2 8/8/2
f 11/11/1 10/10/1 12/12/1
f 12/12/2 10/10/2 11/11/2
f 12/12/1 10/10/1 13/13/1
f 13/13/2 10/10/2 12/12/2
f 13/13/1 10/10/1 14/14/1
f 14/14/2 10/10/2 13/13/2
f 14/14/1 10/10/1 15/15/1
f 15/15/2 10/10/2 14/14/2
f 14/14/1 15/15/1 16/16/1
f 16/16/2 15/15/2 14/14/2
f 16/16/1 15/15/1 17/17/1
f 17/17/2 15/15/2 16/16/2
f 16/16/1 17/17/1 18/18/1
f 18/18/2 17/17/2 16/16/2
f 18/18/1 17/17/1 19/19/1
f 19/19/2 17/17/2 18/18/2
f 18/18/1 19/19/1 20/20/1
f 20/20/2 19/19/2 18/18/2
f 19/19/1 17/17/1 21/21/1
f 21/21/2 17/17/2 19/19/2
f 19/19/1 21/21/1 3/3/1
f 3/3/2 21/21/2 19/19/2
f 19/19/1 3/3/1 2/2/1
f 2/2/2 3/3/2 19/19/2
f 20/20/1 19/19/1 22/22/1
f 22/22/2 19/19/2 20/20/2
f 20/20/1 22/22/1 23/23/1
f 23/23/2 22/22/2 20/20/2
f 20/20/1 23/23/1 24/24/1
f 24/24/2 23/23/2 20/20/2
f 24/24/1 23/23/1 25/25/1
f 25/25/2 23/23/2 24/24/2
f 24/24/1 25/25/1 26/26/1
f 26/26/2 25/25/2 24/24/2
f 24/24/1 26/26/1 27/27/1
f 27/27/2 26/26/2 24/24/2
f 27/27/1 26/26/1 28/28/1
f 28/28/2 26/26/2 27/27/2
f 27/27/1 28/28/1 29/29/1
f 29/29/2 28/28/2 27/27/2
f 29/29/1 28/28/1 30/30/1
f 30/30/2 28/28/2 29/29/2
f 29/29/1 30/30/1 31/31/1
f 31/31/2 30/30/2 29/29/2
f 29/29/1 31/31/1 32/32/1
f 32/32/2 31/31/2 29/29/2
f 33/33/3 34/34/3 35/35/3
f 35/35/4 34/34/4 33/33/4
f 34/34/3 33/33/3 36/36/3
f 36/36/4 33/33/4 34/34/4
f 37/37/5 38/38/5 39/39/5
f 39/39/6 38/38/6 37/37/6
f 38/38/5 37/37/5 40/40/5
f 40/40/6 37/37/6 38/38/6
f 41/35/3 42/41/3 43/42/3
f 43/42/4 42/41/4 41/35/4
f 42/41/3 41/35/3 44/34/3
f 44/34/4 41/35/4 42/41/4
f 45/43/6 46/44/6 47/45/6
f 47/45/5 46/44/5 45/43/5
f 46/44/6 45/43/6 48/46/6
f 48/46/5 45/43/5 46/44/5
f 49/42/3 50/47/3 51/48/3
f 51/48/4 50/47/4 49/42/4
f 50/47/3 49/42/3 52/41/3
f 52/41/4 49/42/4 50/47/4
f 53/49/7 54/50/7 55/51/7
f 55/51/8 54/50/8 53/49/8
f 54/50/7 53/49/7 56/52/7
f 56/52/8 53/49/8 54/50/8
f 57/53/9 58/54/9 59/55/9
f 59/55/10 58/54/10 57/53/10
f 58/54/9 57/53/9 60/56/9
f 60/56/10 57/53/10 58/54/10
f 61/57/11 62/58/11 63/59/11
f 63/59/12 62/58/12 61/57/12
f 62/58/11 61/57/11 64/60/11
f 64/60/12 61/57/12 62/58/12
f 65/61/13 66/62/13 67/63/13
f 67/63/14 66/62/14 65/61/14
f 66/62/13 65/61/13 68/64/13
f 68/64/14 65/61/14 66/62/14
f 69/65/15 70/66/15 71/67/15
f 71/67/16 70/66/16 69/65/16
f 70/66/15 69/65/15 72/68/15
f 72/68/16 69/65/16 70/66/16
f 73/69/17 74/70/17 75/71/17
f 75/71/18 74/70/18 73/69/18
f 74/70/17 73/69/17 76/72/17
f 76/72/18 73/69/18 74/70/18
f 77/73/19 78/74/19 79/75/19
f 79/75/20 78/74/20 77/73/20
f 78/74/19 77/73/19 80/76/19
f 80/76/20 77/73/20 78/74/20
f 81/77/5 82/78/5 83/79/5
f 83/79/6 82/78/6 81/77/6
f 82/78/5 81/77/5 84/80/5
f 84/80/6 81/77/6 82/78/6
f 85/81/21 86/82/21 87/83/21
f 87/83/22 86/82/22 85/81/22
f 86/82/21 85/81/21 88/84/21
f 88/84/22 85/81/22 86/82/22
f 89/85/23 90/86/23 91/87/23
f 91/87/24 90/86/24 89/85/24
f 90/86/23 89/85/23 92/88/23
f 92/88/24 89/85/24 90/86/24
f 93/89/25 94/90/25 95/91/25
f 95/91/26 94/90/26 93/89/26
f 94/90/25 93/89/25 96/92/25
f 96/92/26 93/89/26 94/90/26
f 97/93/27 98/94/27 99/95/27
f 99/95/28 98/94/28 97/93/28
f 98/94/27 97/93/27 100/96/27
f 100/96/28 97/93/28 98/94/28
f 101/97/29 102/98/29 103/99/29
f 103/99/30 102/98/30 101/97/30
f 102/98/29 101/97/29 104/100/29
f 104/100/30 101/97/30 102/98/30
f 105/101/31 106/102/31 107/103/31
f 107/103/32 106/102/32 105/101/32
f 106/102/31 105/101/31 108/104/31
f 108/104/32 105/101/32 106/102/32
f 109/105/33 110/106/33 111/107/33
f 111/107/34 110/106/34 109/105/34
f 110/106/33 109/105/33 112/108/33
f 112/108/34 109/105/34 110/106/34
f 113/109/35 114/110/35 115/111/35
f 115/111/36 114/110/36 113/109/36
f 114/110/35 113/109/35 116/112/35
f 116/112/36 113/109/36 114/110/36
f 117/113/37 118/114/37 119/115/37
f 119/115/38 118/114/38 117/113/38
f 118/114/37 117/113/37 120/116/37
f 120/116/38 117/113/38 118/114/38
f 121/117/39 122/118/39 123/119/39
f 123/119/40 122/118/40 121/117/40
f 122/118/39 121/117/39 124/120/39
f 124/120/40 121/117/40 122/118/40
f 125/121/4 126/122/4 127/123/4
f 127/123/3 126/122/3 125/121/3
f 126/122/4 125/121/4 128/124/4
f 128/124/3 125/121/3 126/122/3
f 129/125/6 130/126/6 131/127/6
f 131/127/5 130/126/5 129/125/5
f 130/126/6 129/125/6 132/128/6
f 132/128/5 129/125/5 130/126/5
f 133/129/4 134/124/4 135/121/4
f 135/121/3 134/124/3 133/129/3
f 134/124/4 133/129/4 136/130/4
f 136/130/3 133/129/3 134/124/3
f 137/131/41 138/132/41 139/133/41
f 139/133/42 138/132/42 137/131/42
f 138/132/41 137/131/41 140/134/41
f 140/134/42 137/131/42 138/132/42
f 141/135/43 142/136/43 143/137/43
f 143/137/44 142/136/44 141/135/44
f 142/136/43 141/135/43 144/138/43
f 144/138/44 141/135/44 142/136/44
f 145/139/45 146/140/45 147/141/45
f 147/141/46 146/140/46 145/139/46
f 146/140/45 145/139/45 148/142/45
f 148/142/46 145/139/46 146/140/46
f 149/143/47 150/144/47 151/145/47
f 151/145/48 150/144/48 149/143/48
f 150/144/47 149/143/47 152/146/47
f 152/146/48 149/143/48 150/144/48
f 153/147/49 154/148/49 155/149/49
f 155/149/50 154/148/50 153/147/50
f 154/148/49 153/147/49 156/150/49
f 156/150/50 153/147/50 154/148/50
f 157/151/5 158/39/5 159/152/5
f 159/152/6 158/39/6 157/151/6
f 158/39/5 157/151/5 160/37/5
f 160/37/6 157/151/6 158/39/6
f 161/153/2 162/154/2 163/155/2
f 163/155/1 162/154/1 161/153/1
f 162/154/2 164/156/2 165/157/2
f 165/157/1 164/156/1 162/154/1
f 164/156/2 162/154/2 166/158/2
f 166/158/1 162/154/1 164/156/1
f 166/158/2 162/154/2 167/159/2
f 167/159/1 162/154/1 166/158/1
f 167/159/2 162/154/2 168/160/2
f 168/160/1 162/154/1 167/159/1
f 168/160/2 162/154/2 161/153/2
f 161/153/1 162/154/1 168/160/1
f 168/160/2 161/153/2 169/161/2
f 169/161/1 161/153/1 168/160/1
f 168/160/2 169/161/2 170/162/2
f 170/162/1 169/161/1 168/160/1
f 168/160/2 170/162/2 171/163/2
f 171/163/1 170/162/1 168/160/1
f 171/163/2 170/162/2 172/164/2
f 172/164/1 170/162/1 171/163/1
f 171/163/2 172/164/2 173/165/2
f 173/165/1 172/164/1 171/163/1
f 173/165/2 172/164/2 174/166/2
f 174/166/1 172/164/1 173/165/1
f 173/165/2 174/166/2 175/167/2
f 175/167/1 174/166/1 173/165/1
f 175/167/2 174/166/2 176/168/2
f 176/168/1 174/166/1 175/167/1
f 175/167/2 176/168/2 177/169/2
f 177/169/1 176/168/1 175/167/1
f 177/169/2 176/168/2 178/170/2
f 178/170/1 176/168/1 177/169/1
f 178/170/2 176/168/2 179/171/2
f 179/171/1 176/168/1 178/170/1
f 178/170/2 179/171/2 180/172/2
f 180/172/1 179/171/1 178/170/1
f 180/172/2 179/171/2 181/173/2
f 181/173/1 179/171/1 180/172/1
f 181/173/2 179/171/2 182/174/2
f 182/174/1 179/171/1 181/173/1
f 181/173/2 182/174/2 183/175/2
f 183/175/1 182/174/1 181/173/1
f 183/175/2 182/174/2 184/176/2
f 184/176/1 182/174/1 183/175/1
f 183/175/2 184/176/2 185/177/2
f 185/177/1 184/176/1 183/175/1
f 185/177/2 184/176/2 186/178/2
f 186/178/1 184/176/1 185/177/1
f 186/178/2 184/176/2 187/179/2
f 187/179/1 184/176/1 186/178/1
f 188/180/2 189/181/2 190/182/2
f 190/182/1 189/181/1 188/180/1
f 189/181/2 188/180/2 191/183/2
f 191/183/1 188/180/1 189/181/1
f 175/167/2 192/184/2 173/165/2
f 173/165/1 192/184/1 175/167/1
f 192/184/2 175/167/2 190/182/2
f 190/182/1 175/167/1 192/184/1
f 192/184/2 190/182/2 189/181/2
f 189/181/1 190/182/1 192/184/1
