# SSTK version 0.8.0
# 77
mtllib original-77.mtl
o #ID3695
v -0.510433 0.045308 -0.179152
v -0.510433 0.039332 -0.153706
v -0.510433 0.042074 -0.153362
v -0.510433 0.042566 -0.179496
v -0.510433 0.045308 -0.179152
v -0.427331 0.042566 -0.179496
v -0.510433 0.042566 -0.179496
v -0.427331 0.045308 -0.179152
v -0.427331 0.042074 -0.153362
v -0.510433 0.039332 -0.153706
v -0.427331 0.039332 -0.153706
v -0.510433 0.042074 -0.153362
v -0.427331 0.039332 -0.153706
v -0.427331 0.045308 -0.179152
v -0.427331 0.042074 -0.153362
v -0.427331 0.042566 -0.179496
vt -0.1152335 1.537222
vt -0.1139402 1.430917
vt -0.1139227 1.479693
vt -0.115251 1.488446
vt -0.356248 -3.493027
vt -0.3604717 -3.542185
vt -0.356248 -3.542185
vt -0.3604717 -3.493027
vt 0.3604717 -3.493027
vt 0.356248 -3.542185
vt 0.3604717 -3.542185
vt 0.356248 -3.493027
vt 0.1139402 1.430917
vt 0.1152335 1.537222
vt 0.1139227 1.479693
vt 0.115251 1.488446
vn -1 0 0
vn 1 0 0
vn 0 0.12442570343317293 -0.9922289273777296
vn 0 -0.12442570343317293 0.9922289273777296
usemtl material_0_2
f 1/1/1 2/2/1 3/3/1
f 3/3/2 2/2/2 1/1/2
f 2/2/1 1/1/1 4/4/1
f 4/4/2 1/1/2 2/2/2
f 5/5/3 6/6/3 7/7/3
f 7/7/4 6/6/4 5/5/4
f 6/6/3 5/5/3 8/8/3
f 8/8/4 5/5/4 6/6/4
f 9/9/4 10/10/4 11/11/4
f 11/11/3 10/10/3 9/9/3
f 10/10/4 9/9/4 12/12/4
f 12/12/3 9/9/3 10/10/3
f 13/13/2 14/14/2 15/15/2
f 15/15/1 14/14/1 13/13/1
f 14/14/2 13/13/2 16/16/2
f 16/16/1 13/13/1 14/14/1
