# SSTK version 0.8.0
# 54
mtllib original-54.mtl
o #ID3551
v -0.086983 0.020967 0.028514
v -0.087679 0.026093 -0.012368
v -0.087679 0.021623 0.023281
v -0.087503 0.026424 -0.015007
v -0.086983 0.026749 -0.017601
v -0.086126 0.020652 0.031019
v -0.086126 0.027063 -0.020105
v -0.084948 0.020355 0.033390
v -0.084948 0.027361 -0.022477
v -0.083466 0.020079 0.035589
v -0.083466 0.027637 -0.024676
v -0.081709 0.019830 0.037578
v -0.081709 0.027886 -0.026665
v -0.079705 0.019611 0.039322
v -0.079705 0.028105 -0.028408
v -0.077489 0.019427 0.040791
v -0.077489 0.028289 -0.029878
v -0.075098 0.019280 0.041962
v -0.075098 0.028436 -0.031048
v -0.072575 0.019174 0.042811
v -0.072575 0.028542 -0.031898
v -0.069960 0.019109 0.043327
v -0.069960 0.028607 -0.032413
v -0.067300 0.019087 0.043501
v -0.023885 0.028607 -0.032413
v -0.026545 0.019087 0.043501
v -0.023885 0.019109 0.043327
v -0.021271 0.019174 0.042811
v -0.023641 0.028601 -0.032366
v -0.021271 0.028542 -0.031898
v -0.018746 0.019280 0.041962
v -0.018746 0.028436 -0.031048
v -0.016356 0.019427 0.040791
v -0.016356 0.028289 -0.029878
v -0.014140 0.019611 0.039322
v -0.014140 0.028105 -0.028408
v -0.012135 0.019830 0.037578
v -0.012135 0.027886 -0.026665
v -0.010378 0.020079 0.035589
v -0.010378 0.027637 -0.024676
v -0.008897 0.020355 0.033390
v -0.008897 0.027361 -0.022477
v -0.007718 0.020652 0.031019
v -0.007718 0.027063 -0.020105
v -0.006861 0.020967 0.028514
v -0.006861 0.026749 -0.017601
v -0.006341 0.021292 0.025920
v -0.006341 0.026424 -0.015007
v -0.006167 0.021623 0.023281
v -0.006167 0.026093 -0.012368
vn 0 0.9922289273777296 0.12442570343317293
vn 0 -0.9922289273777296 -0.12442570343317293
usemtl material_0_2
f 1//1 2//1 3//1
f 3//2 2//2 1//2
f 2//1 1//1 4//1
f 4//2 1//2 2//2
f 4//1 1//1 5//1
f 5//2 1//2 4//2
f 5//1 1//1 6//1
f 6//2 1//2 5//2
f 5//1 6//1 7//1
f 7//2 6//2 5//2
f 7//1 6//1 8//1
f 8//2 6//2 7//2
f 7//1 8//1 9//1
f 9//2 8//2 7//2
f 9//1 8//1 10//1
f 10//2 8//2 9//2
f 9//1 10//1 11//1
f 11//2 10//2 9//2
f 11//1 10//1 12//1
f 12//2 10//2 11//2
f 11//1 12//1 13//1
f 13//2 12//2 11//2
f 13//1 12//1 14//1
f 14//2 12//2 13//2
f 13//1 14//1 15//1
f 15//2 14//2 13//2
f 15//1 14//1 16//1
f 16//2 14//2 15//2
f 15//1 16//1 17//1
f 17//2 16//2 15//2
f 17//1 16//1 18//1
f 18//2 16//2 17//2
f 17//1 18//1 19//1
f 19//2 18//2 17//2
f 19//1 18//1 20//1
f 20//2 18//2 19//2
f 19//1 20//1 21//1
f 21//2 20//2 19//2
f 21//1 20//1 22//1
f 22//2 20//2 21//2
f 21//1 22//1 23//1
f 23//2 22//2 21//2
f 23//1 22//1 24//1
f 24//2 22//2 23//2
f 23//1 24//1 25//1
f 25//2 24//2 23//2
f 25//1 24//1 26//1
f 26//2 24//2 25//2
f 25//1 26//1 27//1
f 27//2 26//2 25//2
f 25//1 27//1 28//1
f 28//2 27//2 25//2
f 25//1 28//1 29//1
f 29//2 28//2 25//2
f 29//1 28//1 30//1
f 30//2 28//2 29//2
f 30//1 28//1 31//1
f 31//2 28//2 30//2
f 30//1 31//1 32//1
f 32//2 31//2 30//2
f 32//1 31//1 33//1
f 33//2 31//2 32//2
f 32//1 33//1 34//1
f 34//2 33//2 32//2
f 34//1 33//1 35//1
f 35//2 33//2 34//2
f 34//1 35//1 36//1
f 36//2 35//2 34//2
f 36//1 35//1 37//1
f 37//2 35//2 36//2
f 36//1 37//1 38//1
f 38//2 37//2 36//2
f 38//1 37//1 39//1
f 39//2 37//2 38//2
f 38//1 39//1 40//1
f 40//2 39//2 38//2
f 40//1 39//1 41//1
f 41//2 39//2 40//2
f 40//1 41//1 42//1
f 42//2 41//2 40//2
f 42//1 41//1 43//1
f 43//2 41//2 42//2
f 42//1 43//1 44//1
f 44//2 43//2 42//2
f 44//1 43//1 45//1
f 45//2 43//2 44//2
f 44//1 45//1 46//1
f 46//2 45//2 44//2
f 46//1 45//1 47//1
f 47//2 45//2 46//2
f 46//1 47//1 48//1
f 48//2 47//2 46//2
f 48//1 47//1 49//1
f 49//2 47//2 48//2
f 48//1 49//1 50//1
f 50//2 49//2 48//2
