# SSTK version 0.8.0
# 403
mtllib original-403.mtl
o #ID1461
v -0.141743 0.038655 -0.108027
v -0.139497 0.037696 -0.104895
v -0.139497 0.038254 -0.104825
v -0.141743 0.038098 -0.108097
v -0.140606 0.038150 -0.104000
v -0.139497 0.037696 -0.104895
v -0.140606 0.037593 -0.104070
v -0.139497 0.038254 -0.104825
v -0.143117 0.038970 -0.110536
v -0.141743 0.038098 -0.108097
v -0.141743 0.038655 -0.108027
v -0.143117 0.038412 -0.110606
v -0.141454 0.038090 -0.103522
v -0.140606 0.037593 -0.104070
v -0.141454 0.037533 -0.103592
v -0.140606 0.038150 -0.104000
v -0.143117 0.038970 -0.110536
v -0.144407 0.038301 -0.109723
v -0.143117 0.038412 -0.110606
v -0.144407 0.038859 -0.109653
v -0.142186 0.038062 -0.103293
v -0.141454 0.037533 -0.103592
v -0.142186 0.037504 -0.103363
v -0.141454 0.038090 -0.103522
v -0.144407 0.038301 -0.109723
v -0.145332 0.038738 -0.108685
v -0.145332 0.038180 -0.108755
v -0.144407 0.038859 -0.109653
v -0.142946 0.038052 -0.103217
v -0.142186 0.037504 -0.103363
v -0.142946 0.037494 -0.103287
v -0.142186 0.038062 -0.103293
v -0.145332 0.038180 -0.108755
v -0.145889 0.038606 -0.107631
v -0.145889 0.038048 -0.107701
v -0.145332 0.038738 -0.108685
v -0.143627 0.038060 -0.103279
v -0.142946 0.037494 -0.103287
v -0.143627 0.037502 -0.103349
v -0.142946 0.038052 -0.103217
v -0.145889 0.038048 -0.107701
v -0.146075 0.038463 -0.106493
v -0.146075 0.037905 -0.106563
v -0.145889 0.038606 -0.107631
v -0.144234 0.038083 -0.103464
v -0.143627 0.037502 -0.103349
v -0.144234 0.037525 -0.103534
v -0.143627 0.038060 -0.103279
v -0.146075 0.037905 -0.106563
v -0.145863 0.038310 -0.105269
v -0.145863 0.037752 -0.105339
v -0.146075 0.038463 -0.106493
v -0.144768 0.038122 -0.103772
v -0.144234 0.037525 -0.103534
v -0.144768 0.037564 -0.103842
v -0.144234 0.038083 -0.103464
v -0.145863 0.037752 -0.105339
v -0.145228 0.038176 -0.104204
v -0.145228 0.037618 -0.104274
v -0.145863 0.038310 -0.105269
v -0.145228 0.038176 -0.104204
v -0.144768 0.037564 -0.103842
v -0.145228 0.037618 -0.104274
v -0.144768 0.038122 -0.103772
vt -0.0006539652 0.000492126
vt 0.002788314 0
vt 0.002788314 0.000492126
vt -0.0006539652 0
vt -0.007448683 0.000492126
vt -0.008662172 0
vt -0.007448683 0
vt -0.008662172 0.000492126
vt -0.004130874 0.000492126
vt -0.001611735 0
vt -0.001611735 0.000492126
vt -0.004130874 0
vt -0.006926589 0.000492126
vt -0.007780609 0
vt -0.006926589 0
vt -0.007780609 0.000492126
vt 0.009029385 0.000492126
vt 0.007657418 0
vt 0.009029385 0
vt 0.007657418 0.000492126
vt -0.00654786 0.000492126
vt -0.007219374 0
vt -0.00654786 0
vt -0.007219374 0.000492126
vt 0.008152684 0
vt 0.006975701 0.000492126
vt 0.006975701 0
vt 0.008152684 0.000492126
vt -0.005870748 0.000492126
vt -0.00653889 0
vt -0.005870748 0
vt -0.00653889 0.000492126
vt 0.007132344 0
vt 0.006082923 0.000492126
vt 0.006082923 0
vt 0.007132344 0.000492126
vt -0.005028624 0.000492126
vt -0.005627369 0
vt -0.005028624 0
vt -0.005627369 0.000492126
vt 0.005637626 0
vt 0.004620042 0.000492126
vt 0.004620042 0
vt 0.005637626 0.000492126
vt -0.003991956 0.000492126
vt -0.004548232 0
vt -0.003991956 0
vt -0.004548232 0.000492126
vt 0.003617086 0
vt 0.002521565 0.000492126
vt 0.002521565 0
vt 0.003617086 0.000492126
vt -0.002707561 0.000492126
vt -0.003248271 0
vt -0.002707561 0
vt -0.003248271 0.000492126
vt 0.001040465 0
vt -0.00005170585 0.000492126
vt -0.00005170585 0
vt 0.001040465 0.000492126
vt -0.00125023 0.000492126
vt -0.001804548 0
vt -0.00125023 0
vt -0.001804548 0.000492126
vn -0.8208415949117915 -0.0710664761478591 0.5667174181464621
vn 0.8208415949117915 0.0710664761478591 -0.5667174181464621
vn -0.5998228867049461 0.09955708702026911 -0.793914914212464
vn 0.5998228867049461 -0.09955708702026911 0.793914914212464
vn -0.8785466786233106 -0.05943274620569441 0.47394459819518897
vn 0.8785466786233106 0.05943274620569441 -0.47394459819518897
vn -0.49376618907280023 0.10819993284022981 -0.8628370211470376
vn 0.49376618907280023 -0.10819993284022981 0.8628370211470376
vn 0.567732968556081 -0.10242882886839802 0.8168155308459483
vn -0.567732968556081 0.10242882886839802 -0.8168155308459483
vn -0.2999825848240089 0.118695237604163 -0.9465315046908886
vn 0.2999825848240089 -0.118695237604163 0.9465315046908886
vn 0.7256827972411016 -0.08560854411436157 0.682682689807607
vn -0.7256827972411016 0.08560854411436157 -0.682682689807607
vn -0.10049869621760647 0.12379575973841642 -0.9872054608486269
vn 0.10049869621760647 -0.12379575973841642 0.9872054608486269
vn 0.8855558649694091 -0.05779983215874267 0.4609229755834514
vn -0.8855558649694091 0.05779983215874267 -0.4609229755834514
vn 0.0908390859910756 0.12391127575540502 -0.988126639756754
vn -0.0908390859910756 -0.12391127575540502 0.988126639756754
vn 0.9871674049973236 -0.01986939191922306 0.15844785191226296
vn -0.9871674049973236 0.01986939191922306 -0.15844785191226296
vn 0.2933223876565438 0.118952662948129 -0.9485843351421175
vn -0.2933223876565438 -0.118952662948129 0.9485843351421175
vn 0.9855872282828582 0.021048848583193287 -0.16785339263486793
vn -0.9855872282828582 -0.021048848583193287 0.16785339263486793
vn 0.5029441822872809 0.10754348630296916 -0.8576022085193002
vn -0.5029441822872809 -0.10754348630296916 0.8576022085193002
vn 0.8607306101732061 0.06334023818401202 -0.5051047722380508
vn -0.8607306101732061 -0.06334023818401202 0.5051047722380508
vn 0.6868368799967149 0.0904340444548786 -0.7211634931691366
vn -0.6868368799967149 -0.0904340444548786 0.7211634931691366
usemtl material_0_2
f 1/1/1 2/2/1 3/3/1
f 3/3/2 2/2/2 1/1/2
f 2/2/1 1/1/1 4/4/1
f 4/4/2 1/1/2 2/2/2
f 5/5/3 6/6/3 7/7/3
f 7/7/4 6/6/4 5/5/4
f 6/6/3 5/5/3 8/8/3
f 8/8/4 5/5/4 6/6/4
f 9/9/5 10/10/5 11/11/5
f 11/11/6 10/10/6 9/9/6
f 10/10/5 9/9/5 12/12/5
f 12/12/6 9/9/6 10/10/6
f 13/13/7 14/14/7 15/15/7
f 15/15/8 14/14/8 13/13/8
f 14/14/7 13/13/7 16/16/7
f 16/16/8 13/13/8 14/14/8
f 17/17/9 18/18/9 19/19/9
f 19/19/10 18/18/10 17/17/10
f 18/18/9 17/17/9 20/20/9
f 20/20/10 17/17/10 18/18/10
f 21/21/11 22/22/11 23/23/11
f 23/23/12 22/22/12 21/21/12
f 22/22/11 21/21/11 24/24/11
f 24/24/12 21/21/12 22/22/12
f 25/25/13 26/26/13 27/27/13
f 27/27/14 26/26/14 25/25/14
f 26/26/13 25/25/13 28/28/13
f 28/28/14 25/25/14 26/26/14
f 29/29/15 30/30/15 31/31/15
f 31/31/16 30/30/16 29/29/16
f 30/30/15 29/29/15 32/32/15
f 32/32/16 29/29/16 30/30/16
f 33/33/17 34/34/17 35/35/17
f 35/35/18 34/34/18 33/33/18
f 34/34/17 33/33/17 36/36/17
f 36/36/18 33/33/18 34/34/18
f 37/37/19 38/38/19 39/39/19
f 39/39/20 38/38/20 37/37/20
f 38/38/19 37/37/19 40/40/19
f 40/40/20 37/37/20 38/38/20
f 41/41/21 42/42/21 43/43/21
f 43/43/22 42/42/22 41/41/22
f 42/42/21 41/41/21 44/44/21
f 44/44/22 41/41/22 42/42/22
f 45/45/23 46/46/23 47/47/23
f 47/47/24 46/46/24 45/45/24
f 46/46/23 45/45/23 48/48/23
f 48/48/24 45/45/24 46/46/24
f 49/49/25 50/50/25 51/51/25
f 51/51/26 50/50/26 49/49/26
f 50/50/25 49/49/25 52/52/25
f 52/52/26 49/49/26 50/50/26
f 53/53/27 54/54/27 55/55/27
f 55/55/28 54/54/28 53/53/28
f 54/54/27 53/53/27 56/56/27
f 56/56/28 53/53/28 54/54/28
f 57/57/29 58/58/29 59/59/29
f 59/59/30 58/58/30 57/57/30
f 58/58/29 57/57/29 60/60/29
f 60/60/30 57/57/30 58/58/30
f 61/61/31 62/62/31 63/63/31
f 63/63/32 62/62/32 61/61/32
f 62/62/31 61/61/31 64/64/31
f 64/64/32 61/61/32 62/62/32
