# SSTK version 0.8.0
# 19
mtllib original-19.mtl
o #ID3337
v 0.387873 0.009610 0.119080
v 0.387669 0.013600 0.087257
v 0.387669 0.009997 0.115990
v 0.387873 0.013988 0.084166
v 0.388481 0.009229 0.122117
v 0.388481 0.014369 0.081129
v 0.389485 0.008861 0.125051
v 0.389485 0.014736 0.078196
v 0.390866 0.008513 0.127828
v 0.390866 0.015085 0.075418
v 0.392599 0.008190 0.130403
v 0.392599 0.015408 0.072843
v 0.394658 0.007898 0.132731
v 0.394658 0.015700 0.070514
v 0.397004 0.007642 0.134775
v 0.397004 0.015956 0.068473
v 0.399600 0.007426 0.136495
v 0.399600 0.016172 0.066752
v 0.402400 0.007254 0.137864
v 0.402400 0.016343 0.065381
v 0.405356 0.007129 0.138860
v 0.405356 0.016468 0.064386
v 0.408417 0.007053 0.139464
v 0.408417 0.016544 0.063782
v 0.411531 0.007028 0.139666
v 0.411531 0.016569 0.063579
v 0.554710 0.007028 0.139666
v 0.554710 0.016569 0.063579
v 0.557824 0.007053 0.139464
v 0.557824 0.016544 0.063782
v 0.560887 0.007129 0.138860
v 0.560887 0.016468 0.064386
v 0.563842 0.007254 0.137864
v 0.563842 0.016343 0.065381
v 0.566641 0.016172 0.066752
v 0.566641 0.007426 0.136495
v 0.569237 0.007642 0.134775
v 0.569237 0.015956 0.068473
v 0.571584 0.007898 0.132731
v 0.571584 0.015700 0.070514
v 0.573642 0.008190 0.130403
v 0.573642 0.015408 0.072843
v 0.575377 0.008513 0.127828
v 0.575377 0.015085 0.075418
v 0.576756 0.008861 0.125051
v 0.576756 0.014736 0.078196
v 0.577760 0.014369 0.081129
v 0.577760 0.009229 0.122117
v 0.578369 0.013988 0.084166
v 0.578369 0.009610 0.119080
v 0.578573 0.013600 0.087257
v 0.578573 0.009997 0.115990
vn 0 0.9922289273777296 0.12442570343317293
vn 0 -0.9922289273777296 -0.12442570343317293
usemtl material_0_2
f 1//1 2//1 3//1
f 3//2 2//2 1//2
f 2//1 1//1 4//1
f 4//2 1//2 2//2
f 4//1 1//1 5//1
f 5//2 1//2 4//2
f 4//1 5//1 6//1
f 6//2 5//2 4//2
f 6//1 5//1 7//1
f 7//2 5//2 6//2
f 6//1 7//1 8//1
f 8//2 7//2 6//2
f 8//1 7//1 9//1
f 9//2 7//2 8//2
f 8//1 9//1 10//1
f 10//2 9//2 8//2
f 10//1 9//1 11//1
f 11//2 9//2 10//2
f 10//1 11//1 12//1
f 12//2 11//2 10//2
f 12//1 11//1 13//1
f 13//2 11//2 12//2
f 12//1 13//1 14//1
f 14//2 13//2 12//2
f 14//1 13//1 15//1
f 15//2 13//2 14//2
f 14//1 15//1 16//1
f 16//2 15//2 14//2
f 16//1 15//1 17//1
f 17//2 15//2 16//2
f 16//1 17//1 18//1
f 18//2 17//2 16//2
f 18//1 17//1 19//1
f 19//2 17//2 18//2
f 18//1 19//1 20//1
f 20//2 19//2 18//2
f 20//1 19//1 21//1
f 21//2 19//2 20//2
f 20//1 21//1 22//1
f 22//2 21//2 20//2
f 22//1 21//1 23//1
f 23//2 21//2 22//2
f 22//1 23//1 24//1
f 24//2 23//2 22//2
f 24//1 23//1 25//1
f 25//2 23//2 24//2
f 24//1 25//1 26//1
f 26//2 25//2 24//2
f 26//1 25//1 27//1
f 27//2 25//2 26//2
f 26//1 27//1 28//1
f 28//2 27//2 26//2
f 28//1 27//1 29//1
f 29//2 27//2 28//2
f 28//1 29//1 30//1
f 30//2 29//2 28//2
f 30//1 29//1 31//1
f 31//2 29//2 30//2
f 30//1 31//1 32//1
f 32//2 31//2 30//2
f 32//1 31//1 33//1
f 33//2 31//2 32//2
f 32//1 33//1 34//1
f 34//2 33//2 32//2
f 34//1 33//1 35//1
f 35//2 33//2 34//2
f 35//1 33//1 36//1
f 36//2 33//2 35//2
f 35//1 36//1 37//1
f 37//2 36//2 35//2
f 35//1 37//1 38//1
f 38//2 37//2 35//2
f 38//1 37//1 39//1
f 39//2 37//2 38//2
f 38//1 39//1 40//1
f 40//2 39//2 38//2
f 40//1 39//1 41//1
f 41//2 39//2 40//2
f 40//1 41//1 42//1
f 42//2 41//2 40//2
f 42//1 41//1 43//1
f 43//2 41//2 42//2
f 42//1 43//1 44//1
f 44//2 43//2 42//2
f 44//1 43//1 45//1
f 45//2 43//2 44//2
f 44//1 45//1 46//1
f 46//2 45//2 44//2
f 46//1 45//1 47//1
f 47//2 45//2 46//2
f 47//1 45//1 48//1
f 48//2 45//2 47//2
f 47//1 48//1 49//1
f 49//2 48//2 47//2
f 49//1 48//1 50//1
f 50//2 48//2 49//2
f 49//1 50//1 51//1
f 51//2 50//2 49//2
f 51//1 50//1 52//1
f 52//2 50//2 51//2
