# SSTK version 0.8.0
# 434
mtllib original-434.mtl
o instance_67/__/ID1679#ID1679
v -0.780036 0.035628 -0.088407
v -0.779165 0.035102 -0.084206
v -0.782773 0.035628 -0.088407
v -0.778735 0.035102 -0.084206
v -0.782773 0.036186 -0.088337
v -0.780036 0.035628 -0.088407
v -0.782773 0.035628 -0.088407
v -0.780036 0.036186 -0.088337
v -0.780036 0.035628 -0.088407
v -0.778735 0.035659 -0.084136
v -0.778735 0.035102 -0.084206
v -0.780036 0.036186 -0.088337
v -0.778735 0.035659 -0.084136
v -0.779165 0.035102 -0.084206
v -0.778735 0.035102 -0.084206
v -0.779165 0.035659 -0.084136
v -0.782773 0.036186 -0.088337
v -0.779165 0.035102 -0.084206
v -0.779165 0.035659 -0.084136
v -0.782773 0.035628 -0.088407
v -0.779165 0.035659 -0.084136
v -0.780036 0.036186 -0.088337
v -0.782773 0.036186 -0.088337
v -0.778735 0.035659 -0.084136
vt -0.003663566 0.00370654
vt -0.004426361 0
vt -0.001267744 0.00370654
vt -0.004802387 0
vt -0.001267744 0.000492126
vt -0.003663566 0
vt -0.001267744 0
vt -0.003663566 0.000492126
vt 0.002467101 0
vt -0.001410444 0.000492126
vt -0.001410444 0
vt 0.002467101 0.000492126
vt 0.004802387 0.000492126
vt 0.004426361 0
vt 0.004802387 0
vt 0.004426361 0.000492126
vt -0.001998861 0.000492126
vt 0.002870976 0
vt 0.002870976 0.000492126
vt -0.001998861 0
vt 0.003663566 0.00370654
vt 0.001267744 0.00370654
vn 0 -0.9922289273777297 -0.12442570343317294
vn 0 0.9922289273777297 0.12442570343317294
vn 0 0.12442570343317294 -0.9922289273777297
vn 0 -0.12442570343317294 0.9922289273777297
vn 0.955898745503308 0.036543383913662734 -0.2914140858595215
vn -0.955898745503308 -0.036543383913662734 0.2914140858595215
vn -0.7611221951209262 -0.08070357057468053 0.6435681298749966
vn 0.7611221951209262 0.08070357057468053 -0.6435681298749966
usemtl material_0_2
f 1/1/1 2/2/1 3/3/1
f 3/3/2 2/2/2 1/1/2
f 2/2/1 1/1/1 4/4/1
f 4/4/2 1/1/2 2/2/2
f 5/5/3 6/6/3 7/7/3
f 7/7/4 6/6/4 5/5/4
f 6/6/3 5/5/3 8/8/3
f 8/8/4 5/5/4 6/6/4
f 9/9/5 10/10/5 11/11/5
f 11/11/6 10/10/6 9/9/6
f 10/10/5 9/9/5 12/12/5
f 12/12/6 9/9/6 10/10/6
f 13/13/4 14/14/4 15/15/4
f 15/15/3 14/14/3 13/13/3
f 14/14/4 13/13/4 16/16/4
f 16/16/3 13/13/3 14/14/3
f 17/17/7 18/18/7 19/19/7
f 19/19/8 18/18/8 17/17/8
f 18/18/7 17/17/7 20/20/7
f 20/20/8 17/17/8 18/18/8
f 21/14/2 22/21/2 23/22/2
f 23/22/1 22/21/1 21/14/1
f 22/21/2 21/14/2 24/15/2
f 24/15/1 21/14/1 22/21/1
