# SSTK version 0.8.0
# 213
mtllib original-213.mtl
o #ID75
v -0.640309 -0.016810 0.329761
v -0.642977 -0.017001 0.331281
v -0.643154 -0.016955 0.330919
v -0.642289 -0.016980 0.331116
v -0.641878 -0.016997 0.331250
v -0.641643 -0.017060 0.331751
v -0.641570 -0.017307 0.333721
v -0.641570 -0.018385 0.342324
v -0.642081 -0.018590 0.343958
v -0.642977 -0.018654 0.344464
v -0.642977 -0.018607 0.344092
v -0.638298 -0.018654 0.344464
v -0.641706 -0.018534 0.343513
v -0.639309 -0.018588 0.343942
v -0.639710 -0.018533 0.343503
v -0.639840 -0.018385 0.342324
v -0.639840 -0.016810 0.329761
v -0.638298 -0.018607 0.344092
v -0.639840 -0.016810 0.329761
v -0.639840 -0.017966 0.342377
v -0.639840 -0.018385 0.342324
v -0.639840 -0.016390 0.329814
v -0.639710 -0.018114 0.343555
v -0.639710 -0.018533 0.343503
v -0.639710 -0.018533 0.343503
v -0.639309 -0.018169 0.343995
v -0.639309 -0.018588 0.343942
v -0.639710 -0.018114 0.343555
v -0.639309 -0.018169 0.343995
v -0.638298 -0.018607 0.344092
v -0.639309 -0.018588 0.343942
v -0.638298 -0.018188 0.344145
v -0.638298 -0.018607 0.344092
v -0.638298 -0.018234 0.344517
v -0.638298 -0.018654 0.344464
v -0.638298 -0.018188 0.344145
v -0.638298 -0.018234 0.344517
v -0.642977 -0.018654 0.344464
v -0.638298 -0.018654 0.344464
v -0.642977 -0.018234 0.344517
v -0.642977 -0.018188 0.344145
v -0.642977 -0.018654 0.344464
v -0.642977 -0.018234 0.344517
v -0.642977 -0.018607 0.344092
v -0.642977 -0.018188 0.344145
v -0.642081 -0.018590 0.343958
v -0.642977 -0.018607 0.344092
v -0.642081 -0.018171 0.344010
v -0.641706 -0.018115 0.343566
v -0.642081 -0.018590 0.343958
v -0.642081 -0.018171 0.344010
v -0.641706 -0.018534 0.343513
v -0.641570 -0.017966 0.342377
v -0.641706 -0.018534 0.343513
v -0.641706 -0.018115 0.343566
v -0.641570 -0.018385 0.342324
v -0.641570 -0.016887 0.333774
v -0.641570 -0.018385 0.342324
v -0.641570 -0.017966 0.342377
v -0.641570 -0.017307 0.333721
v -0.641643 -0.016640 0.331804
v -0.641643 -0.017060 0.331751
v -0.641878 -0.016577 0.331303
v -0.641643 -0.017060 0.331751
v -0.641643 -0.016640 0.331804
v -0.641878 -0.016997 0.331250
v -0.641878 -0.016577 0.331303
v -0.642289 -0.016980 0.331116
v -0.641878 -0.016997 0.331250
v -0.642289 -0.016560 0.331168
v -0.642289 -0.016560 0.331168
v -0.642977 -0.017001 0.331281
v -0.642289 -0.016980 0.331116
v -0.642977 -0.016581 0.331334
v -0.643154 -0.016536 0.330972
v -0.642977 -0.017001 0.331281
v -0.642977 -0.016581 0.331334
v -0.643154 -0.016955 0.330919
v -0.643154 -0.016536 0.330972
v -0.640309 -0.016810 0.329761
v -0.643154 -0.016955 0.330919
v -0.640309 -0.016390 0.329814
v -0.640309 -0.016390 0.329814
v -0.639840 -0.016810 0.329761
v -0.640309 -0.016810 0.329761
v -0.639840 -0.016390 0.329814
v -0.639840 -0.016390 0.329814
v -0.640309 -0.016390 0.329814
v -0.639840 -0.017966 0.342377
v -0.638298 -0.018234 0.344517
v -0.642977 -0.018188 0.344145
v -0.642977 -0.018234 0.344517
v -0.642081 -0.018171 0.344010
v -0.641706 -0.018115 0.343566
v -0.639309 -0.018169 0.343995
v -0.641570 -0.017966 0.342377
v -0.639710 -0.018114 0.343555
v -0.641570 -0.016887 0.333774
v -0.638298 -0.018188 0.344145
v -0.642977 -0.016581 0.331334
v -0.643154 -0.016536 0.330972
v -0.642289 -0.016560 0.331168
v -0.641878 -0.016577 0.331303
v -0.641643 -0.016640 0.331804
vt -0.06751483 0.01758831
vt -0.06440959 0.01580522
vt -0.06420338 0.01622976
vt -0.06521016 0.01599929
vt -0.06568929 0.0158416
vt -0.06596221 0.01525331
vt -0.06604712 0.01294257
vt -0.06604712 0.002850518
vt -0.06545276 0.0009339997
vt -0.06440959 0.0003396362
vt -0.06440959 0.0007763114
vt -0.0698559 0.0003396362
vt -0.06588943 0.001455584
vt -0.0686793 0.0009521945
vt -0.0682123 0.001467714
vt -0.06806068 0.002850518
vt -0.06806068 0.01758831
vt -0.0698559 0.0007763114
vt 0.01758831 0
vt 0.002850518 0.000492126
vt 0.002850518 0
vt 0.01758831 0.000492126
vt -0.004584796 0
vt -0.005975889 0.000492126
vt -0.005975889 0
vt -0.004584796 0.000492126
vt -0.04470792 0
vt -0.04540352 0.000492126
vt -0.04540352 0
vt -0.04470792 0.000492126
vt -0.06778381 0.000492126
vt -0.06897348 0
vt -0.06778381 0
vt -0.06897348 0.000492126
vt 0.0007763114 0
vt 0.0003396362 0.000492126
vt 0.0003396362 0
vt 0.0007763114 0.000492126
vt 0.0698559 0.000492126
vt 0.06440959 0
vt 0.0698559 0
vt 0.06440959 0.000492126
vt -0.0007763114 0.000492126
vt -0.0003396362 0
vt -0.0003396362 0.000492126
vt -0.0007763114 0
vt -0.06380211 0.000492126
vt -0.06485713 0
vt -0.06380211 0
vt -0.06485713 0.000492126
vt -0.04341292 0.000492126
vt -0.04273267 0
vt -0.04273267 0.000492126
vt -0.04341292 0
vt -0.01025142 0.000492126
vt -0.008847603 0
vt -0.008847603 0.000492126
vt -0.01025142 0
vt -0.01294257 0.000492126
vt -0.002850518 0
vt -0.002850518 0.000492126
vt -0.01294257 0
vt -0.01282085 0.000492126
vt -0.01050855 0
vt -0.01050855 0.000492126
vt -0.01282085 0
vt 0.01327395 0.000492126
vt 0.01392248 0
vt 0.01392248 0.000492126
vt 0.01327395 0
vt 0.05744449 0.000492126
vt 0.05694008 0
vt 0.05744449 0
vt 0.05694008 0.000492126
vt 0.06714393 0.000492126
vt 0.06632017 0
vt 0.06714393 0
vt 0.06632017 0.000492126
vt 0.01345191 0.000492126
vt 0.01392388 0
vt 0.01392388 0.000492126
vt 0.01345191 0
vt -0.06555906 0.000492126
vt -0.06913836 0
vt -0.06555906 0
vt -0.06913836 0.000492126
vt -0.06751483 0.000492126
vt -0.06806068 0
vt -0.06751483 0
vt -0.06806068 0.000492126
vt 0.06806068 0.01758831
vt 0.06751483 0.01758831
vt 0.06806068 0.002850518
vt 0.0698559 0.0003396362
vt 0.06440959 0.0007763114
vt 0.06440959 0.0003396362
vt 0.06545276 0.0009339997
vt 0.06588943 0.001455584
vt 0.0686793 0.0009521945
vt 0.06604712 0.002850518
vt 0.0682123 0.001467714
vt 0.06604712 0.01294257
vt 0.0698559 0.0007763114
vt 0.06440959 0.01580522
vt 0.06420338 0.01622976
vt 0.06521016 0.01599929
vt 0.06568929 0.0158416
vt 0.06596221 0.01525331
vn 0 -0.9922289283274963 -0.12442569585928821
vn 0 0.9922289283274963 0.12442569585928821
vn 1 0 0
vn 0.9985094400889846 0.006791065176029923 -0.054155142756321197
vn -1 0 0
vn -0.9985094400889846 -0.006791065176029923 0.054155142756321197
vn 0.9940421991887575 0.013561890711967388 -0.1081488851181339
vn -0.9940421991887575 -0.013561890711967388 0.1081488851181339
vn 0.7411225112393101 0.083535655932254 -0.6661525482367433
vn -0.7411225112393101 -0.083535655932254 0.6661525482367433
vn 0.1478419008602884 0.12305838278255402 -0.9813253317717621
vn -0.1478419008602884 -0.12305838278255402 0.9813253317717621
vn 0 -0.12442569585928821 0.9922289283274963
vn 0 0.12442569585928821 -0.9922289283274963
vn -0.14946480675789642 0.12302802775923123 -0.981083266561253
vn 0.14946480675789642 -0.12302802775923123 0.981083266561253
vn -0.7667576622314591 0.07987341677692965 -0.6369481334470853
vn 0.7667576622314591 -0.07987341677692965 0.6369481334470853
vn -0.9936711834403981 0.01397648935189188 -0.1114550893658765
vn 0.9936711834403981 -0.01397648935189188 0.1114550893658765
vn -0.9998313783767625 -0.0022848800215079595 0.01822070625718358
vn 0.9998313783767625 0.0022848800215079595 -0.01822070625718358
vn -0.9993255706435792 -0.004568988568310467 0.03643526041278605
vn 0.9993255706435792 0.004568988568310467 -0.03643526041278605
vn -0.9071365045902481 -0.05236287469661379 0.41756615211639686
vn 0.9071365045902481 0.05236287469661379 -0.41756615211639686
vn -0.31261830956470543 -0.11818933445995207 0.9424972539720312
vn 0.31261830956470543 0.11818933445995207 -0.9424972539720312
vn 0.23560000240105156 -0.12092312637165709 0.9642977944479231
vn -0.23560000240105156 0.12092312637165709 -0.9642977944479231
vn -0.8995081515891342 -0.054362081377049544 0.4335087650014175
vn 0.8995081515891342 0.054362081377049544 -0.4335087650014175
vn -0.3795563996779731 0.11511474691193238 -0.9179790490566201
vn 0.3795563996779731 -0.11511474691193238 0.9179790490566201
usemtl material_0_2
f 1/1/1 2/2/1 3/3/1
f 3/3/2 2/2/2 1/1/2
f 2/2/1 1/1/1 4/4/1
f 4/4/2 1/1/2 2/2/2
f 4/4/1 1/1/1 5/5/1
f 5/5/2 1/1/2 4/4/2
f 5/5/1 1/1/1 6/6/1
f 6/6/2 1/1/2 5/5/2
f 6/6/1 1/1/1 7/7/1
f 7/7/2 1/1/2 6/6/2
f 7/7/1 1/1/1 8/8/1
f 8/8/2 1/1/2 7/7/2
f 9/9/1 10/10/1 11/11/1
f 11/11/2 10/10/2 9/9/2
f 10/10/1 9/9/1 12/12/1
f 12/12/2 9/9/2 10/10/2
f 12/12/1 9/9/1 13/13/1
f 13/13/2 9/9/2 12/12/2
f 12/12/1 13/13/1 14/14/1
f 14/14/2 13/13/2 12/12/2
f 14/14/1 13/13/1 8/8/1
f 8/8/2 13/13/2 14/14/2
f 14/14/1 8/8/1 15/15/1
f 15/15/2 8/8/2 14/14/2
f 15/15/1 8/8/1 16/16/1
f 16/16/2 8/8/2 15/15/2
f 16/16/1 8/8/1 1/1/1
f 1/1/2 8/8/2 16/16/2
f 16/16/1 1/1/1 17/17/1
f 17/17/2 1/1/2 16/16/2
f 12/12/1 14/14/1 18/18/1
f 18/18/2 14/14/2 12/12/2
f 19/19/3 20/20/4 21/21/4
f 21/21/6 20/20/6 19/19/5
f 20/20/4 19/19/3 22/22/3
f 22/22/5 19/19/5 20/20/6
f 21/23/4 23/24/7 24/25/7
f 24/25/8 23/24/8 21/23/6
f 23/24/7 21/23/4 20/26/4
f 20/26/6 21/23/6 23/24/8
f 25/27/9 26/28/9 27/29/9
f 27/29/10 26/28/10 25/27/10
f 26/28/9 25/27/9 28/30/9
f 28/30/10 25/27/10 26/28/10
f 29/31/11 30/32/11 31/33/11
f 31/33/12 30/32/12 29/31/12
f 30/32/11 29/31/11 32/34/11
f 32/34/12 29/31/12 30/32/12
f 33/35/3 34/36/3 35/37/3
f 35/37/5 34/36/5 33/35/5
f 34/36/3 33/35/3 36/38/3
f 36/38/5 33/35/5 34/36/5
f 37/39/13 38/40/13 39/41/13
f 39/41/14 38/40/14 37/39/14
f 38/40/13 37/39/13 40/42/13
f 40/42/14 37/39/14 38/40/14
f 41/43/5 42/44/5 43/45/5
f 43/45/3 42/44/3 41/43/3
f 42/44/5 41/43/5 44/46/5
f 44/46/3 41/43/3 42/44/3
f 45/47/15 46/48/15 47/49/15
f 47/49/16 46/48/16 45/47/16
f 46/48/15 45/47/15 48/50/15
f 48/50/16 45/47/16 46/48/16
f 49/51/17 50/52/17 51/53/17
f 51/53/18 50/52/18 49/51/18
f 50/52/17 49/51/17 52/54/17
f 52/54/18 49/51/18 50/52/18
f 53/55/19 54/56/19 55/57/19
f 55/57/20 54/56/20 53/55/20
f 54/56/19 53/55/19 56/58/19
f 56/58/20 53/55/20 54/56/20
f 57/59/21 58/60/5 59/61/5
f 59/61/3 58/60/3 57/59/22
f 58/60/5 57/59/21 60/62/21
f 60/62/22 57/59/22 58/60/3
f 61/63/23 60/64/21 57/65/21
f 57/65/22 60/64/22 61/63/24
f 60/64/21 61/63/23 62/66/23
f 62/66/24 61/63/24 60/64/22
f 63/67/25 64/68/25 65/69/25
f 65/69/26 64/68/26 63/67/26
f 64/68/25 63/67/25 66/70/25
f 66/70/26 63/67/26 64/68/26
f 67/71/27 68/72/27 69/73/27
f 69/73/28 68/72/28 67/71/28
f 68/72/27 67/71/27 70/74/27
f 70/74/28 67/71/28 68/72/28
f 71/75/29 72/76/29 73/77/29
f 73/77/30 72/76/30 71/75/30
f 72/76/29 71/75/29 74/78/29
f 74/78/30 71/75/30 72/76/30
f 75/79/31 76/80/31 77/81/31
f 77/81/32 76/80/32 75/79/32
f 76/80/31 75/79/31 78/82/31
f 78/82/32 75/79/32 76/80/32
f 79/83/33 80/84/33 81/85/33
f 81/85/34 80/84/34 79/83/34
f 80/84/33 79/83/33 82/86/33
f 82/86/34 79/83/34 80/84/34
f 83/87/14 84/88/14 85/89/14
f 85/89/13 84/88/13 83/87/13
f 84/88/14 83/87/14 86/90/14
f 86/90/13 83/87/13 84/88/13
f 87/91/2 88/92/2 89/93/2
f 89/93/1 88/92/1 87/91/1
f 90/94/2 91/95/2 92/96/2
f 92/96/1 91/95/1 90/94/1
f 91/95/2 90/94/2 93/97/2
f 93/97/1 90/94/1 91/95/1
f 93/97/2 90/94/2 94/98/2
f 94/98/1 90/94/1 93/97/1
f 94/98/2 90/94/2 95/99/2
f 95/99/1 90/94/1 94/98/1
f 94/98/2 95/99/2 96/100/2
f 96/100/1 95/99/1 94/98/1
f 96/100/2 95/99/2 97/101/2
f 97/101/1 95/99/1 96/100/1
f 96/100/2 97/101/2 98/102/2
f 98/102/1 97/101/1 96/100/1
f 98/102/2 97/101/2 89/93/2
f 89/93/1 97/101/1 98/102/1
f 98/102/2 89/93/2 88/92/2
f 88/92/1 89/93/1 98/102/1
f 95/99/2 90/94/2 99/103/2
f 99/103/1 90/94/1 95/99/1
f 100/104/2 88/92/2 101/105/2
f 101/105/1 88/92/1 100/104/1
f 88/92/2 100/104/2 102/106/2
f 102/106/1 100/104/1 88/92/1
f 88/92/2 102/106/2 103/107/2
f 103/107/1 102/106/1 88/92/1
f 88/92/2 103/107/2 104/108/2
f 104/108/1 103/107/1 88/92/1
f 88/92/2 104/108/2 98/102/2
f 98/102/1 104/108/1 88/92/1
