# SSTK version 0.8.0
# 608
mtllib original-608.mtl
o #ID2851
v -0.872772 0.023498 -0.151000
v -0.914371 0.023084 -0.151043
v -0.872772 0.023084 -0.151043
v -0.914371 0.023498 -0.151000
v -0.914371 0.023498 -0.151000
v -0.872772 0.023498 -0.151000
v -0.914371 0.023084 -0.151043
v -0.872772 0.023084 -0.151043
v -0.914371 0.023084 -0.151043
v -0.914371 0.023739 -0.153295
v -0.914371 0.023325 -0.153338
v -0.914371 0.023498 -0.151000
v -0.914371 0.023498 -0.151000
v -0.914371 0.023084 -0.151043
v -0.914371 0.023739 -0.153295
v -0.914371 0.023325 -0.153338
v -0.914371 0.023739 -0.153295
v -0.872772 0.023325 -0.153338
v -0.914371 0.023325 -0.153338
v -0.872772 0.023739 -0.153295
v -0.872772 0.023739 -0.153295
v -0.914371 0.023739 -0.153295
v -0.872772 0.023325 -0.153338
v -0.914371 0.023325 -0.153338
vn 0 -0.10452849911715988 0.9945218916003379
vn 0 0.10452849911715988 -0.9945218916003379
vn -1 0 0
vn 1 0 0
usemtl material_0_0
f 1//1 2//1 3//1
f 2//1 1//1 4//1
f 5//2 6//2 7//2
f 8//2 7//2 6//2
f 9//3 10//3 11//3
f 10//3 9//3 12//3
f 13//4 14//4 15//4
f 16//4 15//4 14//4
f 17//2 18//2 19//2
f 18//2 17//2 20//2
f 21//1 22//1 23//1
f 24//1 23//1 22//1
