# SSTK version 0.8.0
# 150
mtllib original-150.mtl
o #ID4236
v -0.439808 0.005148 0.118894
v -0.439808 0.014034 0.083799
v -0.439808 0.009563 0.119448
v -0.439808 0.009619 0.083245
v -0.439983 0.004817 0.121533
v -0.439808 0.009563 0.119448
v -0.439983 0.009233 0.122087
v -0.439808 0.005148 0.118894
v -0.439808 0.009619 0.083245
v -0.439983 0.014365 0.081159
v -0.439808 0.014034 0.083799
v -0.439983 0.009950 0.080606
v -0.440502 0.004492 0.124127
v -0.440502 0.008907 0.124681
v -0.440502 0.014690 0.078566
v -0.440502 0.010275 0.078012
v -0.441359 0.004178 0.126632
v -0.441359 0.008593 0.127186
v -0.441359 0.015004 0.076062
v -0.441359 0.010589 0.075508
v -0.442539 0.003880 0.129003
v -0.442539 0.008296 0.129557
v -0.442539 0.015302 0.073688
v -0.442539 0.010886 0.073136
v -0.444019 0.003605 0.131202
v -0.444019 0.008020 0.131756
v -0.444019 0.015577 0.071490
v -0.444019 0.011162 0.070937
v -0.445777 0.003355 0.133191
v -0.445777 0.007771 0.133745
v -0.445777 0.015827 0.069502
v -0.445777 0.011411 0.068948
v -0.447780 0.007552 0.135489
v -0.447780 0.003137 0.134935
v -0.447780 0.011630 0.067205
v -0.447780 0.016045 0.067757
v -0.449998 0.007368 0.136958
v -0.449998 0.002952 0.136404
v -0.449998 0.011814 0.065734
v -0.449998 0.016230 0.066288
v -0.452388 0.007221 0.138127
v -0.452388 0.002806 0.137575
v -0.452388 0.011961 0.064565
v -0.452388 0.016376 0.065119
v -0.454912 0.007114 0.138978
v -0.454912 0.002699 0.138424
v -0.454912 0.012068 0.063715
v -0.454912 0.016483 0.064269
v -0.457527 0.007050 0.139494
v -0.457527 0.002634 0.138940
v -0.457527 0.012132 0.063198
v -0.457527 0.016548 0.063752
v -0.460185 0.007028 0.139666
v -0.460185 0.002613 0.139114
v -0.460185 0.012154 0.063025
v -0.460185 0.016569 0.063579
v -0.460185 0.007028 0.139666
v -0.500942 0.002613 0.139114
v -0.460185 0.002613 0.139114
v -0.500942 0.007028 0.139666
v -0.500942 0.016569 0.063579
v -0.460185 0.012154 0.063025
v -0.500942 0.012154 0.063025
v -0.460185 0.016569 0.063579
v -0.500942 0.007028 0.139666
v -0.503602 0.002634 0.138940
v -0.500942 0.002613 0.139114
v -0.503602 0.007050 0.139494
v -0.503602 0.016548 0.063752
v -0.500942 0.012154 0.063025
v -0.503602 0.012132 0.063198
v -0.500942 0.016569 0.063579
v -0.506216 0.002699 0.138424
v -0.506216 0.007114 0.138978
v -0.506216 0.016483 0.064269
v -0.506216 0.012068 0.063715
v -0.508739 0.002806 0.137575
v -0.508739 0.007221 0.138127
v -0.508739 0.016376 0.065119
v -0.508739 0.011961 0.064565
v -0.511131 0.002952 0.136404
v -0.511131 0.007368 0.136958
v -0.511131 0.016230 0.066288
v -0.511131 0.011814 0.065734
v -0.513347 0.003137 0.134935
v -0.513347 0.007552 0.135489
v -0.513347 0.016045 0.067757
v -0.513347 0.011630 0.067205
v -0.515350 0.003355 0.133191
v -0.515350 0.007771 0.133745
v -0.515350 0.015827 0.069502
v -0.515350 0.011411 0.068948
v -0.517108 0.008020 0.131756
v -0.517108 0.003605 0.131202
v -0.517108 0.011162 0.070937
v -0.517108 0.015577 0.071490
v -0.518588 0.008296 0.129557
v -0.518588 0.003880 0.129003
v -0.518588 0.010886 0.073136
v -0.518588 0.015302 0.073688
v -0.519768 0.008593 0.127186
v -0.519768 0.004178 0.126632
v -0.519768 0.010589 0.075508
v -0.519768 0.015004 0.076062
v -0.520625 0.008907 0.124681
v -0.520625 0.004492 0.124127
v -0.520625 0.010275 0.078012
v -0.520625 0.014690 0.078566
v -0.521144 0.009233 0.122087
v -0.521144 0.004817 0.121533
v -0.521144 0.009950 0.080606
v -0.521144 0.014365 0.081159
v -0.521319 0.009563 0.119448
v -0.521319 0.005148 0.118894
v -0.521319 0.009619 0.083245
v -0.521319 0.014034 0.083799
v -0.521319 0.014034 0.083799
v -0.521319 0.005148 0.118894
v -0.521319 0.009563 0.119448
v -0.521319 0.009619 0.083245
vt 0.1000851 0.8228147
vt 0.1018688 0.9808809
vt 0.1000569 0.9013577
vt 0.101897 0.9023378
vt 0.1230921 1.821143
vt 0.1231984 1.905577
vt 0.123064 1.899689
vt 0.1232265 1.827031
vt 0.07832977 -0.1392703
vt 0.07843612 -0.05483718
vt 0.07830169 -0.06072467
vt 0.0784642 -0.1333828
vt 0.167599 3.645713
vt 0.1677058 3.730067
vt 0.1675713 3.724279
vt 0.1677334 3.651501
vt 0.03042599 -2.259135
vt 0.03053285 -2.174781
vt 0.03039838 -2.180569
vt 0.03056046 -2.253347
vt 0.2093107 5.132054
vt 0.2094185 5.216251
vt 0.209284 5.21066
vt 0.2094452 5.137645
vt -0.01802914 -4.316377
vt -0.01792128 -4.232179
vt -0.01805581 -4.237771
vt -0.01789461 -4.310785
vt 0.2475323 6.179295
vt 0.2476416 6.263257
vt 0.247507 6.257957
vt 0.2476669 6.184595
vt -0.06623975 -6.171966
vt -0.0661304 -6.088004
vt -0.06626503 -6.093304
vt -0.06610512 -6.166666
vt 0.2816147 6.715651
vt 0.281726 6.7993
vt 0.2815912 6.794382
vt 0.2817494 6.720568
vt -0.1134048 -7.699898
vt -0.1132935 -7.616249
vt -0.1134283 -7.621166
vt -0.11327 -7.69498
vt 0.310965 6.703425
vt 0.3110787 6.786684
vt 0.3109438 6.782234
vt 0.3110999 6.707876
vt -0.1587281 -8.795652
vt -0.1586145 -8.712392
vt -0.1587494 -8.716843
vt -0.1585932 -8.791201
vt 0.335193 6.145788
vt 0.3350393 6.22077
vt 0.3350579 6.141881
vt 0.3351743 6.224677
vt -0.2012953 -9.379504
vt -0.201449 -9.304522
vt -0.2014304 -9.383411
vt -0.201314 -9.300615
vt 0.3535833 5.07101
vt 0.3534324 5.146681
vt 0.3534481 5.067714
vt 0.3535676 5.149977
vt -0.2406275 -9.418236
vt -0.2407784 -9.342565
vt -0.2407627 -9.421532
vt -0.2406432 -9.339269
vt 0.3659181 3.555604
vt 0.3657703 3.632015
vt 0.3657829 3.552978
vt 0.3659056 3.634641
vt -0.275887 -8.903169
vt -0.2760348 -8.826758
vt -0.2760223 -8.905795
vt -0.2758995 -8.824133
vt 0.3719492 1.702399
vt 0.3718047 1.779583
vt 0.3718138 1.700489
vt 0.3719401 1.781493
vt -0.3064334 -7.868224
vt -0.3065779 -7.79104
vt -0.3065688 -7.870134
vt -0.3064426 -7.78913
vt 0.3715427 -0.3619
vt 0.3714017 -0.2839252
vt 0.3714072 -0.3630597
vt 0.3715371 -0.2827655
vt -0.3317058 -6.383484
vt -0.3318467 -6.30551
vt -0.3318412 -6.384644
vt -0.3317113 -6.30435
vt 0.3646862 -2.495455
vt 0.3645489 -2.416688
vt 0.3645507 -2.495843
vt 0.3646844 -2.416299
vt -0.3512375 -4.550548
vt -0.3513748 -4.471781
vt -0.3513729 -4.550937
vt -0.3512393 -4.471392
vt 0.3588018 -3.463027
vt 0.3567304 -3.542185
vt 0.3588018 -3.542185
vt 0.3567304 -3.463027
vt -0.3567304 -3.463027
vt -0.3588018 -3.542185
vt -0.3567304 -3.542185
vt -0.3588018 -3.463027
vt 0.3494273 -4.466191
vt 0.34929 -4.544957
vt 0.3494254 -4.545346
vt 0.3492918 -4.465802
vt -0.3626014 -2.422278
vt -0.3627387 -2.501045
vt -0.3626032 -2.501434
vt -0.3627369 -2.421889
vt 0.3301718 -6.291168
vt 0.3300309 -6.369143
vt 0.3301663 -6.370303
vt 0.3300364 -6.290009
vt -0.3697268 -0.2982664
vt -0.3698678 -0.3762412
vt -0.3697324 -0.3774009
vt -0.3698623 -0.2971067
vt 0.3052045 -7.771664
vt 0.30506 -7.848848
vt 0.3051954 -7.850758
vt 0.3050691 -7.769754
vt -0.3704313 1.760207
vt -0.3705758 1.683022
vt -0.3704404 1.681113
vt -0.3705667 1.762116
vt 0.2749862 -8.806404
vt 0.2748384 -8.882815
vt 0.2749737 -8.885441
vt 0.274851 -8.803778
vt -0.3647218 3.61166
vt -0.3648696 3.535249
vt -0.3647343 3.532624
vt -0.3648571 3.614286
vt 0.2400723 -9.325347
vt 0.2399214 -9.401018
vt 0.2400566 -9.404314
vt 0.2399371 -9.322051
vt -0.3527263 5.129463
vt -0.3528772 5.053792
vt -0.352742 5.050496
vt -0.3528614 5.132759
vt 0.2010968 -9.294331
vt 0.2009432 -9.369313
vt 0.2010782 -9.37322
vt 0.2009618 -9.290424
vt -0.3346871 6.210578
vt -0.3348408 6.135597
vt -0.3347058 6.131689
vt -0.3348221 6.214486
vt 0.1586216 -8.712626
vt 0.1587352 -8.795885
vt 0.1587564 -8.717077
vt 0.1586003 -8.791435
vt -0.3110858 6.786918
vt -0.3109721 6.703659
vt -0.3109509 6.782467
vt -0.311107 6.70811
vt 0.113659 -7.629588
vt 0.1137703 -7.713236
vt 0.1137938 -7.634505
vt 0.1136356 -7.708319
vt -0.2820915 6.812638
vt -0.2819802 6.72899
vt -0.2819567 6.807721
vt -0.2821149 6.733907
vt 0.06684746 -6.11623
vt 0.06695681 -6.200192
vt 0.06698208 -6.12153
vt 0.06682218 -6.194892
vt -0.2483587 6.291483
vt -0.2482493 6.207521
vt -0.248224 6.286183
vt -0.2483839 6.212821
vt 0.01897717 -4.276063
vt 0.01908504 -4.36026
vt 0.01911171 -4.281654
vt 0.0189505 -4.354669
vt -0.2104744 5.260135
vt -0.2103665 5.175938
vt -0.2103399 5.254544
vt -0.2105011 5.181529
vt -0.02915636 -2.234034
vt -0.02904951 -2.318389
vt -0.0290219 -2.239822
vt -0.02918397 -2.3126
vt -0.1690823 3.78932
vt -0.1689754 3.704966
vt -0.1689478 3.783532
vt -0.1691099 3.710754
vt -0.0767625 -0.1281353
vt -0.07665615 -0.2125684
vt -0.07662807 -0.1340228
vt -0.07679058 -0.2066809
vt -0.124872 1.978875
vt -0.1247657 1.894441
vt -0.1247376 1.972987
vt -0.1249001 1.900329
vt -0.1018688 0.9808809
vt -0.1000851 0.8228147
vt -0.1000569 0.9013577
vt -0.101897 0.9023378
vn 1 0 0
vn -1 0 0
vn 0.9914448574238509 -0.01624080930256223 0.12951189443830116
vn 0.9978589229244076 -0.008137831186955258 0.06489488149086878
vn -0.9914448574238509 0.01624080930256223 -0.12951189443830116
vn -0.9978589229244076 0.008137831186955258 -0.06489488149086878
vn 0.9978589229244076 0.008137831186955258 -0.06489488149086878
vn 0.9914448574238509 0.01624080930256223 -0.12951189443830116
vn -0.9978589229244076 -0.008137831186955258 0.06489488149086878
vn -0.9914448574238509 -0.01624080930256223 0.12951189443830116
vn 0.9659258353746595 -0.032203741179382926 0.2568077094049512
vn -0.9659258353746595 0.032203741179382926 -0.2568077094049512
vn 0.9659258353746595 0.032203741179382926 -0.2568077094049512
vn -0.9659258353746595 -0.032203741179382926 0.2568077094049512
vn 0.9238795175862106 -0.04761566090637264 0.37970960722783975
vn -0.9238795175862106 0.04761566090637264 -0.37970960722783975
vn 0.9238795175862106 0.04761566090637264 -0.37970960722783975
vn -0.9238795175862106 -0.04761566090637264 0.37970960722783975
vn 0.866025387329818 -0.06221284908980958 0.496114492741713
vn -0.866025387329818 0.06221284908980958 -0.496114492741713
vn 0.866025387329818 0.06221284908980958 -0.496114492741713
vn -0.866025387329818 -0.06221284908980958 0.496114492741713
vn 0.7933533251738929 -0.07574557240348276 0.6040307191664976
vn -0.7933533251738929 0.07574557240348276 -0.6040307191664976
vn 0.7933533251738929 0.07574557240348276 -0.6040307191664976
vn -0.7933533251738929 -0.07574557240348276 0.6040307191664976
vn 0.707106792016698 -0.08798225900667221 0.7016117920787371
vn -0.707106792016698 0.08798225900667221 -0.7016117920787371
vn 0.707106792016698 0.08798225900667221 -0.7016117920787371
vn -0.707106792016698 -0.08798225900667221 0.7016117920787371
vn 0.6087614268265422 -0.09871355435005132 0.7871881346893459
vn -0.6087614268265422 0.09871355435005132 -0.7871881346893459
vn 0.6087614268265422 0.09871355435005132 -0.7871881346893459
vn -0.6087614268265422 -0.09871355435005132 0.7871881346893459
vn 0.4999999828115284 -0.10775579629568519 0.8592954704600474
vn -0.4999999828115284 0.10775579629568519 -0.8592954704600474
vn 0.4999999828115284 0.10775579629568519 -0.8592954704600474
vn -0.4999999828115284 -0.10775579629568519 0.8592954704600474
vn 0.3826834021593064 -0.114954400648635 0.9167000051725164
vn -0.3826834021593064 0.114954400648635 -0.9167000051725164
vn 0.3826834021593064 0.114954400648635 -0.9167000051725164
vn -0.3826834021593064 -0.114954400648635 0.9167000051725164
vn 0.2588190145796314 -0.12018600677024342 0.9584195539890928
vn -0.2588190145796314 0.12018600677024342 -0.9584195539890928
vn 0.2588190145796314 0.12018600677024342 -0.9584195539890928
vn -0.2588190145796314 -0.12018600677024342 0.9584195539890928
vn 0.1305261965804767 -0.12336119676818548 0.9837402742279874
vn -0.1305261965804767 0.12336119676818548 -0.9837402742279874
vn 0.1305261965804767 0.12336119676818548 -0.9837402742279874
vn -0.1305261965804767 -0.12336119676818548 0.9837402742279874
vn 0.06540312927695086 -0.12415929862738584 0.9901044890541291
vn -0.06540312927695086 0.12415929862738584 -0.9901044890541291
vn 0.06540312927695086 0.12415929862738584 -0.9901044890541291
vn -0.06540312927695086 -0.12415929862738584 0.9901044890541291
vn 0 -0.12442570343317293 0.9922289273777296
vn 0 0.12442570343317293 -0.9922289273777296
usemtl material_0_2
f 1/1/1 2/2/1 3/3/1
f 3/3/2 2/2/2 1/1/2
f 2/2/1 1/1/1 4/4/1
f 4/4/2 1/1/2 2/2/2
f 5/5/3 6/6/4 7/7/3
f 7/7/5 6/6/6 5/5/5
f 6/6/4 5/5/3 8/8/4
f 8/8/6 5/5/5 6/6/6
f 9/9/7 10/10/8 11/11/7
f 11/11/9 10/10/10 9/9/9
f 10/10/8 9/9/7 12/12/8
f 12/12/10 9/9/9 10/10/10
f 13/13/11 7/14/3 14/15/11
f 14/15/12 7/14/5 13/13/12
f 7/14/3 13/13/11 5/16/3
f 5/16/5 13/13/12 7/14/5
f 12/17/8 15/18/13 10/19/8
f 10/19/10 15/18/14 12/17/10
f 15/18/13 12/17/8 16/20/13
f 16/20/14 12/17/10 15/18/14
f 17/21/15 14/22/11 18/23/15
f 18/23/16 14/22/12 17/21/16
f 14/22/11 17/21/15 13/24/11
f 13/24/12 17/21/16 14/22/12
f 16/25/13 19/26/17 15/27/13
f 15/27/14 19/26/18 16/25/14
f 19/26/17 16/25/13 20/28/17
f 20/28/18 16/25/14 19/26/18
f 21/29/19 18/30/15 22/31/19
f 22/31/20 18/30/16 21/29/20
f 18/30/15 21/29/19 17/32/15
f 17/32/16 21/29/20 18/30/16
f 20/33/17 23/34/21 19/35/17
f 19/35/18 23/34/22 20/33/18
f 23/34/21 20/33/17 24/36/21
f 24/36/22 20/33/18 23/34/22
f 25/37/23 22/38/19 26/39/23
f 26/39/24 22/38/20 25/37/24
f 22/38/19 25/37/23 21/40/19
f 21/40/20 25/37/24 22/38/20
f 24/41/21 27/42/25 23/43/21
f 23/43/22 27/42/26 24/41/22
f 27/42/25 24/41/21 28/44/25
f 28/44/26 24/41/22 27/42/26
f 29/45/27 26/46/23 30/47/27
f 30/47/28 26/46/24 29/45/28
f 26/46/23 29/45/27 25/48/23
f 25/48/24 29/45/28 26/46/24
f 28/49/25 31/50/29 27/51/25
f 27/51/26 31/50/30 28/49/26
f 31/50/29 28/49/25 32/52/29
f 32/52/30 28/49/26 31/50/30
f 29/53/27 33/54/31 34/55/31
f 34/55/32 33/54/32 29/53/28
f 33/54/31 29/53/27 30/56/27
f 30/56/28 29/53/28 33/54/32
f 35/57/33 31/58/29 32/59/29
f 32/59/30 31/58/30 35/57/34
f 31/58/29 35/57/33 36/60/33
f 36/60/34 35/57/34 31/58/30
f 34/61/31 37/62/35 38/63/35
f 38/63/36 37/62/36 34/61/32
f 37/62/35 34/61/31 33/64/31
f 33/64/32 34/61/32 37/62/36
f 39/65/37 36/66/33 35/67/33
f 35/67/34 36/66/34 39/65/38
f 36/66/33 39/65/37 40/68/37
f 40/68/38 39/65/38 36/66/34
f 38/69/35 41/70/39 42/71/39
f 42/71/40 41/70/40 38/69/36
f 41/70/39 38/69/35 37/72/35
f 37/72/36 38/69/36 41/70/40
f 43/73/41 40/74/37 39/75/37
f 39/75/38 40/74/38 43/73/42
f 40/74/37 43/73/41 44/76/41
f 44/76/42 43/73/42 40/74/38
f 42/77/39 45/78/43 46/79/43
f 46/79/44 45/78/44 42/77/40
f 45/78/43 42/77/39 41/80/39
f 41/80/40 42/77/40 45/78/44
f 47/81/45 44/82/41 43/83/41
f 43/83/42 44/82/42 47/81/46
f 44/82/41 47/81/45 48/84/45
f 48/84/46 47/81/46 44/82/42
f 46/85/43 49/86/47 50/87/47
f 50/87/48 49/86/48 46/85/44
f 49/86/47 46/85/43 45/88/43
f 45/88/44 46/85/44 49/86/48
f 51/89/49 48/90/45 47/91/45
f 47/91/46 48/90/46 51/89/50
f 48/90/45 51/89/49 52/92/49
f 52/92/50 51/89/50 48/90/46
f 50/93/47 53/94/51 54/95/51
f 54/95/52 53/94/52 50/93/48
f 53/94/51 50/93/47 49/96/47
f 49/96/48 50/93/48 53/94/52
f 55/97/53 52/98/49 51/99/49
f 51/99/50 52/98/50 55/97/54
f 52/98/49 55/97/53 56/100/53
f 56/100/54 55/97/54 52/98/50
f 57/101/55 58/102/55 59/103/55
f 59/103/56 58/102/56 57/101/56
f 58/102/55 57/101/55 60/104/55
f 60/104/56 57/101/56 58/102/56
f 61/105/56 62/106/56 63/107/56
f 63/107/55 62/106/55 61/105/55
f 62/106/56 61/105/56 64/108/56
f 64/108/55 61/105/55 62/106/55
f 65/109/54 66/110/50 67/111/54
f 67/111/53 66/110/49 65/109/53
f 66/110/50 65/109/54 68/112/50
f 68/112/49 65/109/53 66/110/49
f 69/113/48 70/114/52 71/115/48
f 71/115/47 70/114/51 69/113/47
f 70/114/52 69/113/48 72/116/52
f 72/116/51 69/113/47 70/114/51
f 68/117/50 73/118/46 66/119/50
f 66/119/49 73/118/45 68/117/49
f 73/118/46 68/117/50 74/120/46
f 74/120/45 68/117/49 73/118/45
f 75/121/44 71/122/48 76/123/44
f 76/123/43 71/122/47 75/121/43
f 71/122/48 75/121/44 69/124/48
f 69/124/47 75/121/43 71/122/47
f 74/125/46 77/126/42 73/127/46
f 73/127/45 77/126/41 74/125/45
f 77/126/42 74/125/46 78/128/42
f 78/128/41 74/125/45 77/126/41
f 79/129/40 76/130/44 80/131/40
f 80/131/39 76/130/43 79/129/39
f 76/130/44 79/129/40 75/132/44
f 75/132/43 79/129/39 76/130/43
f 78/133/42 81/134/38 77/135/42
f 77/135/41 81/134/37 78/133/41
f 81/134/38 78/133/42 82/136/38
f 82/136/37 78/133/41 81/134/37
f 83/137/36 80/138/40 84/139/36
f 84/139/35 80/138/39 83/137/35
f 80/138/40 83/137/36 79/140/40
f 79/140/39 83/137/35 80/138/39
f 82/141/38 85/142/34 81/143/38
f 81/143/37 85/142/33 82/141/37
f 85/142/34 82/141/38 86/144/34
f 86/144/33 82/141/37 85/142/33
f 87/145/32 84/146/36 88/147/32
f 88/147/31 84/146/35 87/145/31
f 84/146/36 87/145/32 83/148/36
f 83/148/35 87/145/31 84/146/35
f 86/149/34 89/150/30 85/151/34
f 85/151/33 89/150/29 86/149/33
f 89/150/30 86/149/34 90/152/30
f 90/152/29 86/149/33 89/150/29
f 91/153/28 88/154/32 92/155/28
f 92/155/27 88/154/31 91/153/27
f 88/154/32 91/153/28 87/156/32
f 87/156/31 91/153/27 88/154/31
f 93/157/26 89/158/30 90/159/30
f 90/159/29 89/158/29 93/157/25
f 89/158/30 93/157/26 94/160/26
f 94/160/25 93/157/25 89/158/29
f 91/161/28 95/162/24 96/163/24
f 96/163/23 95/162/23 91/161/27
f 95/162/24 91/161/28 92/164/28
f 92/164/27 91/161/27 95/162/23
f 97/165/22 94/166/26 93/167/26
f 93/167/25 94/166/25 97/165/21
f 94/166/26 97/165/22 98/168/22
f 98/168/21 97/165/21 94/166/25
f 96/169/24 99/170/20 100/171/20
f 100/171/19 99/170/19 96/169/23
f 99/170/20 96/169/24 95/172/24
f 95/172/23 96/169/23 99/170/19
f 101/173/18 98/174/22 97/175/22
f 97/175/21 98/174/21 101/173/17
f 98/174/22 101/173/18 102/176/18
f 102/176/17 101/173/17 98/174/21
f 100/177/20 103/178/16 104/179/16
f 104/179/15 103/178/15 100/177/19
f 103/178/16 100/177/20 99/180/20
f 99/180/19 100/177/19 103/178/15
f 105/181/14 102/182/18 101/183/18
f 101/183/17 102/182/17 105/181/13
f 102/182/18 105/181/14 106/184/14
f 106/184/13 105/181/13 102/182/17
f 104/185/16 107/186/12 108/187/12
f 108/187/11 107/186/11 104/185/15
f 107/186/12 104/185/16 103/188/16
f 103/188/15 104/185/15 107/186/11
f 109/189/10 106/190/14 105/191/14
f 105/191/13 106/190/13 109/189/8
f 106/190/14 109/189/10 110/192/10
f 110/192/8 109/189/8 106/190/13
f 108/193/12 111/194/5 112/195/5
f 112/195/3 111/194/3 108/193/11
f 111/194/5 108/193/12 107/196/12
f 107/196/11 108/193/11 111/194/3
f 113/197/9 110/198/10 109/199/10
f 109/199/8 110/198/8 113/197/7
f 110/198/10 113/197/9 114/200/9
f 114/200/7 113/197/7 110/198/8
f 112/201/5 115/202/6 116/203/6
f 116/203/4 115/202/4 112/201/3
f 115/202/6 112/201/5 111/204/5
f 111/204/3 112/201/3 115/202/4
f 117/205/2 118/206/2 119/207/2
f 119/207/1 118/206/1 117/205/1
f 118/206/2 117/205/2 120/208/2
f 120/208/1 117/205/1 118/206/1
