# SSTK version 0.8.0
# 510
mtllib original-510.mtl
o #ID2255
v 0.906883 0.015537 0.076327
v 0.910460 0.014980 0.076257
v 0.906883 0.014980 0.076257
v 0.910460 0.015537 0.076327
v 0.907051 0.015073 0.075509
v 0.906883 0.015537 0.076327
v 0.906883 0.014980 0.076257
v 0.907051 0.015631 0.075579
v 0.910321 0.015625 0.075625
v 0.910460 0.014980 0.076257
v 0.910460 0.015537 0.076327
v 0.910321 0.015068 0.075555
v 0.907220 0.015112 0.075198
v 0.907051 0.015631 0.075579
v 0.907051 0.015073 0.075509
v 0.907220 0.015670 0.075267
v 0.910050 0.015688 0.075124
v 0.910321 0.015068 0.075555
v 0.910321 0.015625 0.075625
v 0.910050 0.015130 0.075054
v 0.907447 0.015146 0.074928
v 0.907220 0.015670 0.075267
v 0.907220 0.015112 0.075198
v 0.907447 0.015704 0.074998
v 0.910050 0.015688 0.075124
v 0.909771 0.015165 0.074782
v 0.910050 0.015130 0.075054
v 0.909771 0.015722 0.074851
v 0.907716 0.015731 0.074781
v 0.907447 0.015146 0.074928
v 0.907716 0.015173 0.074711
v 0.907447 0.015704 0.074998
v 0.909771 0.015722 0.074851
v 0.909454 0.015189 0.074587
v 0.909771 0.015165 0.074782
v 0.909454 0.015747 0.074657
v 0.908016 0.015751 0.074626
v 0.907716 0.015173 0.074711
v 0.908016 0.015193 0.074556
v 0.907716 0.015731 0.074781
v 0.909454 0.015747 0.074657
v 0.909098 0.015204 0.074470
v 0.909454 0.015189 0.074587
v 0.909098 0.015761 0.074540
v 0.908704 0.015766 0.074501
v 0.908016 0.015193 0.074556
v 0.908704 0.015208 0.074431
v 0.908016 0.015751 0.074626
v 0.909098 0.015761 0.074540
v 0.908704 0.015208 0.074431
v 0.909098 0.015204 0.074470
v 0.908704 0.015766 0.074501
vt -0.01646625 0.000492126
vt -0.0195979 0
vt -0.01646625 0
vt -0.0195979 0.000492126
vt 0.007646741 0
vt 0.006970398 0.000492126
vt 0.006970398 0
vt 0.007646741 0.000492126
vt -0.0002632817 0.000492126
vt 0.0003677199 0
vt 0.0003677199 0.000492126
vt -0.0002632817 0
vt 0.01184239 0
vt 0.01153026 0.000492126
vt 0.01153026 0
vt 0.01184239 0.000492126
vt 0.005114586 0.000492126
vt 0.005616674 0
vt 0.005616674 0.000492126
vt 0.005114586 0
vt 0.01442777 0
vt 0.01411832 0.000492126
vt 0.01411832 0
vt 0.01442777 0.000492126
vt 0.01052563 0.000492126
vt 0.01018323 0
vt 0.01052563 0
vt 0.01018323 0.000492126
vt 0.01639641 0.000492126
vt 0.01609219 0
vt 0.01639641 0
vt 0.01609219 0.000492126
vt 0.01364671 0.000492126
vt 0.01332035 0
vt 0.01364671 0
vt 0.01332035 0.000492126
vt 0.01777595 0.000492126
vt 0.01748009 0
vt 0.01777595 0
vt 0.01748009 0.000492126
vt 0.01621725 0.000492126
vt 0.01588941 0
vt 0.01621725 0
vt 0.01588941 0.000492126
vt 0.0186786 0.000492126
vt 0.01806602 0
vt 0.0186786 0
vt 0.01806602 0.000492126
vt 0.01781584 0.000492126
vt 0.01746922 0
vt 0.01781584 0
vt 0.01746922 0.000492126
vn 0 0.12442570343317294 -0.9922289273777297
vn 0 -0.12442570343317294 0.9922289273777297
vn 0.9760260332118744 -0.027081728838673914 0.21596240982124962
vn -0.9760260332118744 0.027081728838673914 -0.21596240982124962
vn -0.981298249379768 -0.023951138569158373 0.1909976144496139
vn 0.981298249379768 0.023951138569158373 -0.1909976144496139
vn 0.8798081160411788 -0.05914314789740597 0.47163520543409054
vn -0.8798081160411788 0.05914314789740597 -0.47163520543409054
vn -0.8808929128449258 -0.05889262895962379 0.46963744990556905
vn 0.8808929128449258 0.05889262895962379 -0.46963744990556905
vn 0.76795890313758 -0.07969455359035921 0.6355217551113088
vn -0.76795890313758 0.07969455359035921 -0.6355217551113088
vn -0.7017849441820886 -0.08863948539611426 0.706852837405393
vn 0.7017849441820886 0.08863948539611426 -0.706852837405393
vn 0.630367906770553 -0.09659124178782187 0.7702638730484498
vn -0.630367906770553 0.09659124178782187 -0.7702638730484498
vn -0.5259019037895264 -0.10582968849436117 0.8439355808494735
vn 0.5259019037895264 0.10582968849436117 -0.8439355808494735
vn 0.46298539244148074 -0.11028670184922737 0.8794778961298729
vn -0.46298539244148074 0.11028670184922737 -0.8794778961298729
vn -0.31411278300213835 -0.11812798041893642 0.9420079297950708
vn 0.31411278300213835 0.11812798041893642 -0.9420079297950708
vn 0.1788853982220944 -0.12241870655532745 0.9762241927898752
vn -0.1788853982220944 0.12241870655532745 -0.9762241927898752
vn -0.09903230910095365 -0.1238140538525072 0.9873513466961708
vn 0.09903230910095365 0.1238140538525072 -0.9873513466961708
usemtl material_0_2
f 1/1/1 2/2/1 3/3/1
f 3/3/2 2/2/2 1/1/2
f 2/2/1 1/1/1 4/4/1
f 4/4/2 1/1/2 2/2/2
f 5/5/3 6/6/3 7/7/3
f 7/7/4 6/6/4 5/5/4
f 6/6/3 5/5/3 8/8/3
f 8/8/4 5/5/4 6/6/4
f 9/9/5 10/10/5 11/11/5
f 11/11/6 10/10/6 9/9/6
f 10/10/5 9/9/5 12/12/5
f 12/12/6 9/9/6 10/10/6
f 13/13/7 14/14/7 15/15/7
f 15/15/8 14/14/8 13/13/8
f 14/14/7 13/13/7 16/16/7
f 16/16/8 13/13/8 14/14/8
f 17/17/9 18/18/9 19/19/9
f 19/19/10 18/18/10 17/17/10
f 18/18/9 17/17/9 20/20/9
f 20/20/10 17/17/10 18/18/10
f 21/21/11 22/22/11 23/23/11
f 23/23/12 22/22/12 21/21/12
f 22/22/11 21/21/11 24/24/11
f 24/24/12 21/21/12 22/22/12
f 25/25/13 26/26/13 27/27/13
f 27/27/14 26/26/14 25/25/14
f 26/26/13 25/25/13 28/28/13
f 28/28/14 25/25/14 26/26/14
f 29/29/15 30/30/15 31/31/15
f 31/31/16 30/30/16 29/29/16
f 30/30/15 29/29/15 32/32/15
f 32/32/16 29/29/16 30/30/16
f 33/33/17 34/34/17 35/35/17
f 35/35/18 34/34/18 33/33/18
f 34/34/17 33/33/17 36/36/17
f 36/36/18 33/33/18 34/34/18
f 37/37/19 38/38/19 39/39/19
f 39/39/20 38/38/20 37/37/20
f 38/38/19 37/37/19 40/40/19
f 40/40/20 37/37/20 38/38/20
f 41/41/21 42/42/21 43/43/21
f 43/43/22 42/42/22 41/41/22
f 42/42/21 41/41/21 44/44/21
f 44/44/22 41/41/22 42/42/22
f 45/45/23 46/46/23 47/47/23
f 47/47/24 46/46/24 45/45/24
f 46/46/23 45/45/23 48/48/23
f 48/48/24 45/45/24 46/46/24
f 49/49/25 50/50/25 51/51/25
f 51/51/26 50/50/26 49/49/26
f 50/50/25 49/49/25 52/52/25
f 52/52/26 49/49/26 50/50/26
