# SSTK version 0.8.0
# 89
mtllib original-89.mtl
o Group89/mesh172/mesh172-geometry#mesh172-geometry
v 0.639906 0.433716 -0.033902
v 0.638466 0.380002 -0.033902
v 0.637319 0.430437 -0.033902
v 0.637986 0.249075 -0.033902
v 0.637616 0.394525 -0.033902
v 0.637319 0.430437 0.002579
v 0.641921 0.254186 -0.033902
v 0.638365 0.365455 -0.033902
v 0.635817 0.408961 -0.033902
v 0.638466 0.380002 0.002579
v 0.635036 0.426938 0.002579
v 0.639906 0.433716 0.002579
v 0.642778 0.436750 -0.033902
v 0.641921 0.254186 0.002579
v 0.638365 0.365455 0.002579
v 0.637311 0.350946 -0.033902
v 0.635036 0.426938 -0.033902
v 0.637616 0.394525 0.002579
v 0.635817 0.408961 0.002579
v 0.645912 0.439513 -0.033902
v 0.646021 0.259166 0.002579
v 0.637986 0.249075 0.002579
v 0.637311 0.350946 0.002579
v 0.634220 0.243838 -0.033902
v 0.633078 0.423248 -0.033902
v 0.633078 0.423248 0.002579
v 0.642778 0.436750 0.002579
v 0.645912 0.439513 0.002579
v 0.646021 0.259166 -0.033902
v 0.635311 0.336537 0.002579
v 0.635311 0.336537 -0.033902
v 0.649281 0.441983 0.002579
v 0.649281 0.441983 -0.033902
v 0.650282 0.264010 0.002579
v 0.634220 0.243838 0.002579
v 0.632372 0.322290 -0.033902
v 0.650282 0.264010 -0.033902
v 0.630627 0.238480 -0.033902
v 0.632372 0.322290 0.002579
v 0.652858 0.444140 0.002579
v 0.652858 0.444140 -0.033902
v 0.654699 0.268711 0.002579
v 0.630627 0.238480 0.002579
v 0.628507 0.308265 0.002579
v 0.628507 0.308265 -0.033902
v 0.654699 0.268711 -0.033902
v 0.627211 0.233008 -0.033902
v 0.656615 0.445967 0.002579
v 0.656615 0.445967 -0.033902
v 0.659267 0.273266 -0.033902
v 0.627211 0.233008 0.002579
v 0.623733 0.294523 0.002579
v 0.623733 0.294523 -0.033902
v 0.659267 0.273266 0.002579
v 0.623976 0.227427 -0.033902
v 0.660521 0.447449 0.002579
v 0.660521 0.447449 -0.033902
v 0.663982 0.277668 -0.033902
v 0.623976 0.227427 0.002579
v 0.618070 0.281124 0.002579
v 0.620925 0.221743 -0.033902
v 0.663982 0.277668 0.002579
v 0.620925 0.221743 0.002579
v 0.618070 0.281124 -0.033902
v 0.664544 0.448573 0.002579
v 0.664544 0.448573 -0.033902
v 0.668686 0.291465 0.002579
v 0.611542 0.268123 0.002579
v 0.618062 0.215963 0.002579
v 0.618062 0.215963 -0.033902
v 0.668652 0.449331 -0.033902
v 0.668686 0.291465 -0.033902
v 0.668652 0.449331 0.002579
v 0.611542 0.268123 -0.033902
v 0.672688 0.305480 0.002579
v 0.604178 0.255577 0.002579
v 0.617313 0.219391 0.002579
v 0.617313 0.219391 -0.033902
v 0.672812 0.449717 0.002579
v 0.672688 0.305480 -0.033902
v 0.604178 0.255577 -0.033902
v 0.605733 0.252432 0.002579
v 0.616489 0.222801 0.002579
v 0.616489 0.222801 -0.033902
v 0.672812 0.449717 -0.033902
v 0.675979 0.319680 0.002579
v 0.605733 0.252432 -0.033902
v 0.607218 0.249254 0.002579
v 0.615590 0.226192 0.002579
v 0.615590 0.226192 -0.033902
v 0.676079 0.435511 -0.033902
v 0.675979 0.319680 -0.033902
v 0.676079 0.435511 0.002579
v 0.607218 0.249254 -0.033902
v 0.608632 0.246043 0.002579
v 0.614615 0.229562 0.002579
v 0.614615 0.229562 -0.033902
v 0.678550 0.334027 0.002579
v 0.608632 0.246043 -0.033902
v 0.609975 0.242802 0.002579
v 0.613565 0.232910 0.002579
v 0.613565 0.232910 -0.033902
v 0.678625 0.421160 -0.033902
v 0.678550 0.334027 -0.033902
v 0.678625 0.421160 0.002579
v 0.609975 0.242802 -0.033902
v 0.611245 0.239531 0.002579
v 0.612442 0.236233 0.002579
v 0.612442 0.236233 -0.033902
v 0.680395 0.348486 0.002579
v 0.611245 0.239531 -0.033902
v 0.680445 0.406698 -0.033902
v 0.680395 0.348486 -0.033902
v 0.680445 0.406698 0.002579
v 0.681509 0.363020 0.002579
v 0.681534 0.392162 -0.033902
v 0.681509 0.363020 -0.033902
v 0.681534 0.392162 0.002579
v 0.681888 0.377591 0.002579
v 0.681888 0.377591 -0.033902
vn 0 0 -1
vn 0 0 1
vn -0.8121276756427681 0.5834797669628955 0
vn -0.7563751271962121 0.6541381100034716 0
vn 0.7563751271962121 -0.6541381100034716 0
vn 0.8121276756427681 -0.5834797669628955 0
vn -0.9996685428586776 -0.02574498822699979 0
vn -0.9958419329957737 -0.09109799387056279 0
vn 0.9958419329957737 0.09109799387056279 0
vn 0.9996685428586776 0.02574498822699979 0
vn -0.8613010251387934 0.5080950148297694 0
vn 0.8613010251387934 -0.5080950148297694 0
vn 0.7822853334003016 -0.6229202654808872 0
vn 0.802231717617293 -0.5970127898536246 0
vn -0.802231717617293 0.5970127898536246 0
vn -0.7822853334003016 0.6229202654808872 0
vn -0.9992108893463931 0.03971899560147895 0
vn 0.9992108893463931 -0.03971899560147895 0
vn -0.987747254911424 -0.15606204027548215 0
vn 0.987747254911424 0.15606204027548215 0
vn -0.6944947649034917 0.7194977564396179 0
vn 0.6944947649034917 -0.7194977564396179 0
vn 0.7615026964449059 -0.648161741625605 0
vn -0.7615026964449059 0.648161741625605 0
vn -0.9944708508244113 0.10501298424752849 0
vn 0.9944708508244113 -0.10501298424752849 0
vn -0.883294200862449 0.46881910661018017 0
vn 0.883294200862449 -0.46881910661018017 0
vn -0.6269890530103592 0.7790280658648783 0
vn 0.6269890530103592 -0.7790280658648783 0
vn 0.8213203529670148 -0.5704672451614887 0
vn -0.8213203529670148 0.5704672451614887 0
vn -0.9854688961823354 0.169855982105928 0
vn 0.9854688961823354 -0.169855982105928 0
vn -0.9821096522350337 -0.1883099333194644 0
vn 0.9821096522350337 0.1883099333194644 0
vn -0.5544031608010564 0.8322482413882278 0
vn 0.5544031608010564 -0.8322482413882278 0
vn 0.7399061357964652 -0.6727101234638457 0
vn -0.7399061357964652 0.6727101234638457 0
vn 0.8395309037456885 -0.5433119377079316 0
vn -0.8395309037456885 0.5433119377079316 0
vn -0.9722433170325553 0.23397207629444597 0
vn 0.9722433170325553 -0.23397207629444597 0
vn -0.47732689307759457 0.8787258031632452 0
vn 0.47732689307759457 -0.8787258031632452 0
vn 0.7175179813717983 -0.6965399819164293 0
vn -0.7175179813717983 0.6965399819164293 0
vn -0.9548510336938292 0.297085010483239 0
vn 0.9548510336938292 -0.297085010483239 0
vn 0.8568443337576415 -0.5155752008266336 0
vn -0.8568443337576415 0.5155752008266336 0
vn -0.39638308920324955 0.9180852066086724 0
vn 0.39638308920324955 -0.9180852066086724 0
vn 0.6943629595901601 -0.7196249581199877 0
vn -0.6943629595901601 0.7196249581199877 0
vn -0.9333668159097477 0.3589239292085432 0
vn 0.9333668159097477 -0.3589239292085432 0
vn 0.8732412449332881 -0.4872881366782504 0
vn -0.8732412449332881 0.4872881366782504 0
vn -0.3122289612071151 0.9500068819664023 0
vn 0.3122289612071151 -0.9500068819664023 0
vn 0.6825059950736716 -0.7308799947245082 0
vn -0.6825059950736716 0.7308799947245082 0
vn -0.9078819250997442 0.41922596541385926 0
vn 0.9078819250997442 -0.41922596541385926 0
vn 0.8887051908645682 -0.45847909846619117 0
vn -0.8887051908645682 0.45847909846619117 0
vn -0.22554494526994684 0.9742327635956289 0
vn 0.22554494526994684 -0.9742327635956289 0
vn 0.9465047391788236 -0.32268991107877354 0
vn 0.9543376988377913 -0.2987299057292211 0
vn -0.9543376988377913 0.2987299057292211 0
vn -0.9465047391788236 0.32268991107877354 0
vn -0.8785061316015461 0.47773107156483646 0
vn 0.8785061316015461 -0.47773107156483646 0
vn 0.8960818230036955 -0.44388891232196087 0
vn -0.8960818230036955 0.44388891232196087 0
vn -0.13703404676205422 0.9905663380248771 0
vn 0.13703404676205422 -0.9905663380248771 0
vn 0.9681797202270831 -0.2502559276840555 0
vn -0.9681797202270831 0.2502559276840555 0
vn -0.862398378030687 0.5062302219050538 0
vn 0.862398378030687 -0.5062302219050538 0
vn -0.9769934941585494 -0.2132691078704757 0
vn -0.974564567939564 -0.22410690064514102 0
vn 0.974564567939564 0.22410690064514102 0
vn 0.9769934941585494 0.2132691078704757 0
vn -0.09231696947129098 0.9957296707177288 0
vn 0.09231696947129098 -0.9957296707177288 0
vn 0.97956126152477 -0.20114605370228233 0
vn -0.97956126152477 0.20114605370228233 0
vn -0.8963791960448744 -0.443288096950442 0
vn -0.9012472802726267 -0.43330513475055177 0
vn 0.9012472802726267 0.43330513475055177 0
vn 0.8963791960448744 0.443288096950442 0
vn -0.9693463998942463 -0.24569810136031564 0
vn 0.9693463998942463 0.24569810136031564 0
vn 0.974566852402836 0.22409696606074117 0
vn 0.9799057749367371 0.19946095418811247 0
vn -0.9799057749367371 -0.19946095418811247 0
vn -0.974566852402836 -0.22409696606074117 0
vn -0.9106493125344424 -0.4131801418032424 0
vn 0.9106493125344424 0.4131801418032424 0
vn -0.9636499697780102 -0.2671679916210776 0
vn 0.9636499697780102 0.2671679916210776 0
vn 0.9884534157267904 -0.15152506372887928 0
vn -0.9884534157267904 0.15152506372887928 0
vn -0.919601755244347 -0.3928518954409105 0
vn 0.919601755244347 0.3928518954409105 0
vn -0.9574783564170759 -0.28850510739474794 0
vn 0.9574783564170759 0.28850510739474794 0
vn 0.9887125417348092 0.14982493055661025 0
vn -0.9887125417348092 -0.14982493055661025 0
vn -0.9281008373772575 -0.3723289347601575 0
vn 0.9281008373772575 0.3723289347601575 0
vn -0.9508339976433581 -0.3097009992324061 0
vn 0.9508339976433581 0.3097009992324061 0
vn 0.9948336045950062 -0.10151895965043459 0
vn -0.9948336045950062 0.10151895965043459 0
vn -0.9361417293179345 -0.3516228983294843 0
vn 0.9361417293179345 0.3516228983294843 0
vn -0.9437205661826081 -0.3307438479608915 0
vn 0.9437205661826081 0.3307438479608915 0
vn 0.9950067179589182 0.09980797170878566 0
vn -0.9950067179589182 -0.09980797170878566 0
vn 0.9986856509034997 -0.051253982083866174 0
vn -0.9986856509034997 0.051253982083866174 0
vn 0.9987722884689498 0.04953701430745592 0
vn -0.9987722884689498 -0.04953701430745592 0
vn 0.9999996302002052 -0.0008599996819721765 0
vn -0.9999996302002052 0.0008599996819721765 0
usemtl material_0_0
f 1//1 2//1 3//1
f 2//1 1//1 4//1
f 3//2 2//2 1//2
f 4//2 1//2 2//2
f 5//1 3//1 2//1
f 2//2 3//2 5//2
f 3//3 6//3 1//4
f 1//5 6//6 3//6
f 4//1 1//1 7//1
f 7//2 1//2 4//2
f 8//1 2//1 4//1
f 4//2 2//2 8//2
f 9//1 3//1 5//1
f 5//2 3//2 9//2
f 2//7 10//7 5//8
f 5//9 10//10 2//10
f 6//3 3//3 11//11
f 11//12 3//6 6//6
f 12//4 1//4 6//3
f 6//6 1//5 12//5
f 1//1 13//1 7//1
f 7//2 13//2 1//2
f 7//13 14//13 4//14
f 4//15 14//16 7//16
f 8//17 15//17 2//7
f 2//10 15//18 8//18
f 16//1 8//1 4//1
f 4//2 8//2 16//2
f 17//1 3//1 9//1
f 9//2 3//2 17//2
f 5//8 18//8 9//19
f 9//20 18//9 5//9
f 10//7 2//7 15//17
f 15//18 2//10 10//10
f 18//8 5//8 10//7
f 10//10 5//9 18//9
f 17//11 11//11 3//3
f 3//6 11//12 17//12
f 11//2 19//2 6//2
f 6//1 19//1 11//1
f 1//4 12//4 13//21
f 13//22 12//5 1//5
f 12//2 6//2 10//2
f 10//1 6//1 12//1
f 13//1 20//1 7//1
f 7//2 20//2 13//2
f 14//13 7//13 21//23
f 21//24 7//16 14//16
f 22//14 4//14 14//13
f 14//16 4//15 22//15
f 15//17 8//17 23//25
f 23//26 8//18 15//18
f 16//25 23//25 8//17
f 8//18 23//26 16//26
f 24//1 16//1 4//1
f 4//2 16//2 24//2
f 25//1 17//1 9//1
f 9//2 17//2 25//2
f 19//19 9//19 18//8
f 18//9 9//20 19//20
f 15//2 22//2 10//2
f 10//1 22//1 15//1
f 18//2 10//2 6//2
f 6//1 10//1 18//1
f 11//11 17//11 26//27
f 26//28 17//12 11//12
f 26//2 19//2 11//2
f 11//1 19//1 26//1
f 19//2 18//2 6//2
f 6//1 18//1 19//1
f 27//21 13//21 12//4
f 12//5 13//22 27//22
f 10//2 22//2 12//2
f 12//1 22//1 10//1
f 20//29 13//21 28//29
f 28//30 13//22 20//30
f 7//1 20//1 29//1
f 29//2 20//2 7//2
f 29//23 21//23 7//13
f 7//16 21//24 29//24
f 14//2 21//2 28//2
f 28//1 21//1 14//1
f 4//14 22//14 24//31
f 24//32 22//15 4//15
f 22//2 14//2 12//2
f 12//1 14//1 22//1
f 23//2 22//2 15//2
f 15//1 22//1 23//1
f 23//25 16//25 30//33
f 30//34 16//26 23//26
f 31//1 16//1 24//1
f 24//2 16//2 31//2
f 25//27 26//27 17//11
f 17//12 26//28 25//28
f 9//19 19//19 25//35
f 25//36 19//20 9//20
f 26//35 25//35 19//19
f 19//20 25//36 26//36
f 27//21 28//29 13//21
f 13//22 28//30 27//22
f 12//2 14//2 27//2
f 27//1 14//1 12//1
f 28//29 32//37 20//29
f 20//30 32//38 28//30
f 20//1 33//1 29//1
f 29//2 33//2 20//2
f 21//23 29//23 34//39
f 34//40 29//24 21//24
f 28//2 21//2 32//2
f 32//1 21//1 28//1
f 27//2 14//2 28//2
f 28//1 14//1 27//1
f 35//31 24//31 22//14
f 22//15 24//32 35//32
f 35//2 22//2 23//2
f 23//1 22//1 35//1
f 31//33 30//33 16//25
f 16//26 30//34 31//34
f 30//2 35//2 23//2
f 23//1 35//1 30//1
f 36//1 31//1 24//1
f 24//2 31//2 36//2
f 33//37 20//29 32//37
f 32//38 20//30 33//38
f 29//1 33//1 37//1
f 37//2 33//2 29//2
f 37//39 34//39 29//23
f 29//24 34//40 37//40
f 21//2 34//2 32//2
f 32//1 34//1 21//1
f 24//31 35//31 38//41
f 38//42 35//32 24//32
f 30//33 31//33 39//43
f 39//44 31//34 30//34
f 39//2 35//2 30//2
f 30//1 35//1 39//1
f 36//43 39//43 31//33
f 31//34 39//44 36//44
f 38//1 36//1 24//1
f 24//2 36//2 38//2
f 32//37 40//45 33//37
f 33//38 40//46 32//38
f 33//1 41//1 37//1
f 37//2 41//2 33//2
f 34//39 37//39 42//47
f 42//48 37//40 34//40
f 32//2 34//2 40//2
f 40//1 34//1 32//1
f 43//41 38//41 35//31
f 35//32 38//42 43//42
f 43//2 35//2 39//2
f 39//1 35//1 43//1
f 39//43 36//43 44//49
f 44//50 36//44 39//44
f 45//1 36//1 38//1
f 38//2 36//2 45//2
f 41//45 33//37 40//45
f 40//46 33//38 41//46
f 37//1 41//1 46//1
f 46//2 41//2 37//2
f 46//47 42//47 37//39
f 37//40 42//48 46//48
f 34//2 42//2 40//2
f 40//1 42//1 34//1
f 38//41 43//41 47//51
f 47//52 43//42 38//42
f 44//2 43//2 39//2
f 39//1 43//1 44//1
f 45//49 44//49 36//43
f 36//44 44//50 45//50
f 47//1 45//1 38//1
f 38//2 45//2 47//2
f 40//45 48//53 41//45
f 41//46 48//54 40//46
f 41//1 49//1 46//1
f 46//2 49//2 41//2
f 46//47 50//55 42//47
f 42//48 50//56 46//48
f 40//2 42//2 48//2
f 48//1 42//1 40//1
f 51//51 47//51 43//41
f 43//42 47//52 51//52
f 51//2 43//2 44//2
f 44//1 43//1 51//1
f 44//49 45//49 52//57
f 52//58 45//50 44//50
f 53//1 45//1 47//1
f 47//2 45//2 53//2
f 49//53 41//45 48//53
f 48//54 41//46 49//54
f 46//1 49//1 50//1
f 50//2 49//2 46//2
f 54//55 42//47 50//55
f 50//56 42//48 54//56
f 42//2 54//2 48//2
f 48//1 54//1 42//1
f 47//51 51//51 55//59
f 55//60 51//52 47//52
f 52//2 51//2 44//2
f 44//1 51//1 52//1
f 53//57 52//57 45//49
f 45//50 52//58 53//58
f 55//1 53//1 47//1
f 47//2 53//2 55//2
f 48//53 56//61 49//53
f 49//54 56//62 48//54
f 49//1 57//1 50//1
f 50//2 57//2 49//2
f 50//55 58//63 54//55
f 54//56 58//64 50//56
f 48//2 54//2 56//2
f 56//1 54//1 48//1
f 59//59 55//59 51//51
f 51//52 55//60 59//60
f 59//2 51//2 52//2
f 52//1 51//1 59//1
f 52//57 53//57 60//65
f 60//66 53//58 52//58
f 61//1 53//1 55//1
f 55//2 53//2 61//2
f 57//61 49//53 56//61
f 56//62 49//54 57//62
f 50//1 57//1 58//1
f 58//2 57//2 50//2
f 62//63 54//55 58//63
f 58//64 54//56 62//64
f 54//2 62//2 56//2
f 56//1 62//1 54//1
f 55//59 59//59 61//67
f 61//68 59//60 55//60
f 63//2 59//2 52//2
f 52//1 59//1 63//1
f 64//65 60//65 53//57
f 53//58 60//66 64//66
f 60//2 63//2 52//2
f 52//1 63//1 60//1
f 64//1 53//1 61//1
f 61//2 53//2 64//2
f 56//61 65//69 57//61
f 57//62 65//70 56//62
f 57//1 66//1 58//1
f 58//2 66//2 57//2
f 62//71 58//71 67//72
f 67//73 58//74 62//74
f 56//2 62//2 65//2
f 65//1 62//1 56//1
f 63//67 61//67 59//59
f 59//60 61//68 63//68
f 60//65 64//65 68//75
f 68//76 64//66 60//66
f 69//2 63//2 60//2
f 60//1 63//1 69//1
f 70//1 64//1 61//1
f 61//2 64//2 70//2
f 66//69 57//61 65//69
f 65//70 57//62 66//70
f 66//1 71//1 58//1
f 58//2 71//2 66//2
f 72//72 67//72 58//71
f 58//74 67//73 72//73
f 62//2 67//2 73//2
f 73//1 67//1 62//1
f 65//2 62//2 73//2
f 73//1 62//1 65//1
f 61//67 63//67 70//77
f 70//78 63//68 61//68
f 74//75 68//75 64//65
f 64//66 68//76 74//76
f 68//2 69//2 60//2
f 60//1 69//1 68//1
f 69//77 70//77 63//67
f 63//68 70//78 69//78
f 74//1 64//1 70//1
f 70//2 64//2 74//2
f 65//69 73//79 66//69
f 66//70 73//80 65//70
f 71//79 66//69 73//79
f 73//80 66//70 71//80
f 58//1 71//1 72//1
f 72//2 71//2 58//2
f 67//72 72//72 75//81
f 75//82 72//73 67//73
f 67//2 75//2 73//2
f 73//1 75//1 67//1
f 68//75 74//75 76//83
f 76//84 74//76 68//76
f 77//2 69//2 68//2
f 68//1 69//1 77//1
f 70//85 69//85 78//86
f 78//87 69//88 70//88
f 78//1 74//1 70//1
f 70//2 74//2 78//2
f 73//79 79//89 71//79
f 71//80 79//90 73//80
f 72//1 71//1 80//1
f 80//2 71//2 72//2
f 80//81 75//81 72//72
f 72//73 75//82 80//82
f 73//2 75//2 79//2
f 79//1 75//1 73//1
f 81//83 76//83 74//75
f 74//76 76//84 81//84
f 76//2 82//2 68//2
f 68//1 82//1 76//1
f 77//86 78//86 69//85
f 69//88 78//87 77//87
f 83//2 77//2 68//2
f 68//1 77//1 83//1
f 84//1 74//1 78//1
f 78//2 74//2 84//2
f 85//89 71//79 79//89
f 79//90 71//80 85//90
f 71//1 85//1 80//1
f 80//2 85//2 71//2
f 75//81 80//81 86//91
f 86//92 80//82 75//82
f 75//2 86//2 79//2
f 79//1 86//1 75//1
f 76//93 81//93 82//94
f 82//95 81//96 76//96
f 81//1 74//1 87//1
f 87//2 74//2 81//2
f 82//2 88//2 68//2
f 68//1 88//1 82//1
f 78//86 77//86 84//97
f 84//98 77//87 78//87
f 83//97 84//97 77//86
f 77//87 84//98 83//98
f 89//2 83//2 68//2
f 68//1 83//1 89//1
f 90//1 74//1 84//1
f 84//2 74//2 90//2
f 85//99 79//99 91//100
f 91//101 79//102 85//102
f 80//1 85//1 92//1
f 92//2 85//2 80//2
f 92//91 86//91 80//81
f 80//82 86//92 92//92
f 79//2 86//2 93//2
f 93//1 86//1 79//1
f 87//94 82//94 81//93
f 81//96 82//95 87//95
f 87//1 74//1 94//1
f 94//2 74//2 87//2
f 82//94 87//94 88//103
f 88//104 87//95 82//95
f 88//2 95//2 68//2
f 68//1 95//1 88//1
f 84//97 83//97 90//105
f 90//106 83//98 84//98
f 89//105 90//105 83//97
f 83//98 90//106 89//106
f 96//2 89//2 68//2
f 68//1 89//1 96//1
f 97//1 74//1 90//1
f 90//2 74//2 97//2
f 93//100 91//100 79//99
f 79//102 91//101 93//101
f 85//1 91//1 92//1
f 92//2 91//2 85//2
f 86//91 92//91 98//107
f 98//108 92//92 86//92
f 86//2 98//2 93//2
f 93//1 98//1 86//1
f 94//1 74//1 99//1
f 99//2 74//2 94//2
f 94//103 88//103 87//94
f 87//95 88//104 94//104
f 88//103 94//103 95//109
f 95//110 94//104 88//104
f 95//2 100//2 68//2
f 68//1 100//1 95//1
f 90//105 89//105 97//111
f 97//112 89//106 90//106
f 96//111 97//111 89//105
f 89//106 97//112 96//112
f 101//2 96//2 68//2
f 68//1 96//1 101//1
f 102//1 74//1 97//1
f 97//2 74//2 102//2
f 91//100 93//100 103//113
f 103//114 93//101 91//101
f 92//1 91//1 104//1
f 104//2 91//2 92//2
f 104//107 98//107 92//91
f 92//92 98//108 104//108
f 93//2 98//2 105//2
f 105//1 98//1 93//1
f 99//1 74//1 106//1
f 106//2 74//2 99//2
f 99//109 95//109 94//103
f 94//104 95//110 99//110
f 95//109 99//109 100//115
f 100//116 99//110 95//110
f 100//2 107//2 68//2
f 68//1 107//1 100//1
f 97//111 96//111 102//117
f 102//118 96//112 97//112
f 101//117 102//117 96//111
f 96//112 102//118 101//118
f 108//2 101//2 68//2
f 68//1 101//1 108//1
f 109//1 74//1 102//1
f 102//2 74//2 109//2
f 105//113 103//113 93//100
f 93//101 103//114 105//114
f 91//1 103//1 104//1
f 104//2 103//2 91//2
f 98//107 104//107 110//119
f 110//120 104//108 98//108
f 98//2 110//2 105//2
f 105//1 110//1 98//1
f 106//1 74//1 111//1
f 111//2 74//2 106//2
f 106//115 100//115 99//109
f 99//110 100//116 106//116
f 100//115 106//115 107//121
f 107//122 106//116 100//116
f 107//2 108//2 68//2
f 68//1 108//1 107//1
f 102//117 101//117 109//123
f 109//124 101//118 102//118
f 108//123 109//123 101//117
f 101//118 109//124 108//124
f 111//1 74//1 109//1
f 109//2 74//2 111//2
f 103//113 105//113 112//125
f 112//126 105//114 103//114
f 104//1 103//1 113//1
f 113//2 103//2 104//2
f 113//119 110//119 104//107
f 104//108 110//120 113//120
f 105//2 110//2 114//2
f 114//1 110//1 105//1
f 111//121 107//121 106//115
f 106//116 107//122 111//122
f 107//121 111//121 108//123
f 108//124 111//122 107//122
f 109//123 108//123 111//121
f 111//122 108//124 109//124
f 114//125 112//125 105//113
f 105//114 112//126 114//126
f 103//1 112//1 113//1
f 113//2 112//2 103//2
f 110//119 113//119 115//127
f 115//128 113//120 110//120
f 110//2 115//2 114//2
f 114//1 115//1 110//1
f 112//125 114//125 116//129
f 116//130 114//126 112//126
f 113//1 112//1 117//1
f 117//2 112//2 113//2
f 117//127 115//127 113//119
f 113//120 115//128 117//128
f 114//2 115//2 118//2
f 118//1 115//1 114//1
f 118//129 116//129 114//125
f 114//126 116//130 118//130
f 112//1 116//1 117//1
f 117//2 116//2 112//2
f 115//127 117//127 119//131
f 119//132 117//128 115//128
f 119//2 118//2 115//2
f 115//1 118//1 119//1
f 116//129 118//129 120//131
f 120//132 118//130 116//130
f 120//1 117//1 116//1
f 116//2 117//2 120//2
f 120//131 119//131 117//127
f 117//128 119//132 120//132
f 119//131 120//131 118//129
f 118//130 120//132 119//132
