# SSTK version 0.8.0
# 2
mtllib original-2.mtl
o Group2/mesh3/mesh3-geometry#mesh3-geometry
v 0.354270 0.006620 0.020820
v 0.291145 -0.075646 -0.033902
v 0.291145 -0.075646 0.020820
v 0.354270 0.006620 -0.033902
v 0.208878 -0.138772 0.020820
v 0.336547 -0.121048 0.020820
v 0.393953 0.102422 0.020820
v 0.336547 -0.121048 -0.033902
v 0.208878 -0.138772 -0.033902
v 0.240982 -0.194377 0.020820
v 0.409876 -0.025483 0.020820
v 0.393953 0.102422 -0.033902
v 0.240982 -0.194377 -0.033902
v 0.409876 -0.025483 -0.033902
v 0.113077 -0.178454 0.020820
v 0.129695 -0.240474 0.020820
v 0.407488 0.205230 0.020820
v 0.129695 -0.240474 -0.033902
v 0.113077 -0.178454 -0.033902
v 0.455972 0.085804 -0.033902
v 0.407488 0.205230 -0.033902
v 0.409876 0.435943 0.020820
v 0.010269 -0.191989 0.020820
v 0.010269 -0.256197 -0.033902
v 0.455972 0.085804 0.020820
v 0.455972 0.324655 -0.033902
v 0.393953 0.308037 0.020820
v 0.409876 0.435943 -0.033902
v 0.010269 -0.191989 -0.033902
v 0.010269 -0.256197 0.020820
v 0.471695 0.205230 -0.033902
v 0.393953 0.308037 -0.033902
v 0.354270 0.403839 0.020820
v 0.455972 0.324655 0.020820
v -0.092539 -0.178454 0.020820
v -0.109157 -0.240474 0.020820
v 0.471695 0.205230 0.020820
v 0.354270 0.403839 -0.033902
v 0.336547 0.531507 0.020820
v -0.092539 -0.178454 -0.033902
v -0.109157 -0.240474 -0.033902
v 0.336547 0.531507 -0.033902
v 0.291145 0.486106 0.020820
v -0.188340 -0.138772 0.020820
v -0.220444 -0.194377 -0.033902
v 0.291145 0.486106 -0.033902
v 0.240982 0.604836 0.020820
v -0.188340 -0.138772 -0.033902
v -0.220444 -0.194377 0.020820
v 0.240982 0.604836 -0.033902
v 0.208878 0.549231 0.020820
v -0.270607 -0.075646 0.020820
v -0.316009 -0.121048 -0.033902
v -0.270607 -0.075646 -0.033902
v 0.208878 0.549231 -0.033902
v 0.129695 0.650933 0.020820
v -0.316009 -0.121048 0.020820
v 0.129695 0.650933 -0.033902
v 0.113077 0.588913 0.020820
v 0.113077 0.588913 -0.033902
v -0.333732 0.006620 -0.033902
v -0.333732 0.006620 0.020820
v -0.389338 -0.025483 0.020820
v 0.010269 0.666656 0.020820
v -0.373415 0.102422 0.020820
v -0.389338 -0.025483 -0.033902
v -0.373415 0.102422 -0.033902
v 0.010269 0.602448 -0.033902
v 0.010269 0.602448 0.020820
v 0.010269 0.666656 -0.033902
v -0.435435 0.085804 0.020820
v -0.386950 0.205230 0.020820
v -0.092539 0.588913 0.020820
v -0.109157 0.650933 0.020820
v -0.386950 0.205230 -0.033902
v -0.435435 0.085804 -0.033902
v -0.435435 0.324655 0.020820
v -0.389338 0.435943 0.020820
v -0.092539 0.588913 -0.033902
v -0.109157 0.650933 -0.033902
v -0.451157 0.205230 0.020820
v -0.389338 0.435943 -0.033902
v -0.373415 0.308037 0.020820
v -0.373415 0.308037 -0.033902
v -0.188340 0.549231 0.020820
v -0.220444 0.604836 0.020820
v -0.451157 0.205230 -0.033902
v -0.435435 0.324655 -0.033902
v -0.316009 0.531507 0.020820
v -0.188340 0.549231 -0.033902
v -0.220444 0.604836 -0.033902
v -0.316009 0.531507 -0.033902
v -0.333732 0.403839 0.020820
v -0.333732 0.403839 -0.033902
v -0.270607 0.486106 0.020820
v -0.270607 0.486106 -0.033902
vn -0.8660253028382762 0.5000001748438417 0
vn -0.7071067811865476 0.7071067811865476 0
vn 0.7071067811865476 -0.7071067811865476 0
vn 0.8660253028382762 -0.5000001748438417 0
vn -0.5000001748438417 0.8660253028382762 0
vn 0.5000001748438417 -0.8660253028382762 0
vn 0 0 1
vn 0 0 -1
vn -0.965925849201117 0.2588189595935754 0
vn 0.965925849201117 -0.2588189595935754 0
vn -0.2588189595935754 0.965925849201117 0
vn 0.2588189595935754 -0.965925849201117 0
vn -1 0 0
vn 1 0 0
vn -0.1305259853353411 0.9914448886106773 0
vn 0.1305259853353411 -0.9914448886106773 0
vn -0.965925849201117 -0.2588189595935754 0
vn 0.965925849201117 0.2588189595935754 0
vn 0.1305259853353411 0.9914448886106773 0
vn 0.2588189595935754 0.965925849201117 0
vn -0.1305259853353411 -0.9914448886106773 0
vn -0.2588189595935754 -0.965925849201117 0
vn 0.8660253028382762 0.5000001748438417 0
vn -0.8660253028382762 -0.5000001748438417 0
vn 0.7071067811865476 0.7071067811865476 0
vn -0.7071067811865476 -0.7071067811865476 0
vn 0.5000001748438417 0.8660253028382762 0
vn -0.5000001748438417 -0.8660253028382762 0
usemtl material_0_0
f 1//1 2//2 3//2
f 2//2 1//1 4//1
f 3//3 2//3 1//4
f 4//4 1//4 2//3
f 2//2 5//5 3//2
f 3//3 5//6 2//3
f 3//7 6//7 1//7
f 1//8 6//8 3//8
f 7//9 4//1 1//1
f 1//4 4//4 7//10
f 8//8 2//8 4//8
f 4//7 2//7 8//7
f 5//5 2//2 9//5
f 9//6 2//3 5//6
f 5//7 10//7 3//7
f 3//8 10//8 5//8
f 3//7 10//7 6//7
f 6//8 10//8 3//8
f 1//7 6//7 11//7
f 11//8 6//8 1//8
f 4//1 7//9 12//9
f 12//10 7//10 4//4
f 1//7 11//7 7//7
f 7//8 11//8 1//8
f 13//8 2//8 8//8
f 8//7 2//7 13//7
f 8//8 4//8 14//8
f 14//7 4//7 8//7
f 13//8 9//8 2//8
f 2//7 9//7 13//7
f 9//5 15//11 5//5
f 5//6 15//12 9//6
f 5//7 16//7 10//7
f 10//8 16//8 5//8
f 13//6 6//3 10//6
f 10//5 6//2 13//5
f 6//3 14//4 11//4
f 11//1 14//1 6//2
f 17//13 12//9 7//9
f 7//10 12//10 17//14
f 14//8 4//8 12//8
f 12//7 4//7 14//7
f 7//7 11//7 17//7
f 17//8 11//8 7//8
f 6//3 13//6 8//3
f 8//2 13//5 6//2
f 14//4 6//3 8//3
f 8//2 6//2 14//1
f 18//8 9//8 13//8
f 13//7 9//7 18//7
f 15//11 9//5 19//11
f 19//12 9//6 15//12
f 15//7 16//7 5//7
f 5//8 16//8 15//8
f 18//12 10//6 16//12
f 16//11 10//5 18//11
f 10//6 18//12 13//6
f 13//5 18//11 10//5
f 20//10 11//4 14//4
f 14//1 11//1 20//9
f 12//9 17//13 21//13
f 21//14 17//14 12//10
f 14//8 12//8 21//8
f 21//7 12//7 14//7
f 22//7 17//7 11//7
f 11//8 17//8 22//8
f 18//8 19//8 9//8
f 9//7 19//7 18//7
f 19//11 23//15 15//11
f 15//12 23//16 19//12
f 23//7 16//7 15//7
f 15//8 16//8 23//8
f 16//12 24//16 18//12
f 18//11 24//15 16//11
f 11//4 20//10 25//10
f 25//9 20//9 11//1
f 14//8 26//8 20//8
f 20//7 26//7 14//7
f 27//17 21//13 17//13
f 17//14 21//14 27//18
f 14//8 21//8 28//8
f 28//7 21//7 14//7
f 22//7 27//7 17//7
f 17//8 27//8 22//8
f 22//7 11//7 25//7
f 25//8 11//8 22//8
f 24//8 19//8 18//8
f 18//7 19//7 24//7
f 23//15 19//11 29//15
f 29//16 19//12 23//16
f 23//7 30//7 16//7
f 16//8 30//8 23//8
f 24//16 16//12 30//16
f 30//15 16//11 24//15
f 31//14 25//10 20//10
f 20//9 25//9 31//13
f 14//8 28//8 26//8
f 26//7 28//7 14//7
f 20//8 26//8 31//8
f 31//7 26//7 20//7
f 21//13 27//17 32//17
f 32//18 27//18 21//14
f 32//8 28//8 21//8
f 21//7 28//7 32//7
f 22//7 33//7 27//7
f 27//8 33//8 22//8
f 22//7 25//7 34//7
f 34//8 25//8 22//8
f 19//8 24//8 29//8
f 29//7 24//7 19//7
f 29//19 35//20 23//19
f 23//21 35//22 29//21
f 35//7 30//7 23//7
f 23//8 30//8 35//8
f 36//22 24//21 30//21
f 30//19 24//19 36//20
f 25//10 31//14 37//14
f 37//13 31//13 25//9
f 28//23 34//18 26//18
f 26//17 34//17 28//24
f 26//18 37//14 31//14
f 31//13 37//13 26//17
f 33//24 32//17 27//17
f 27//18 32//18 33//23
f 38//8 28//8 32//8
f 32//7 28//7 38//7
f 39//7 33//7 22//7
f 22//8 33//8 39//8
f 34//7 25//7 37//7
f 37//8 25//8 34//8
f 34//18 28//23 22//23
f 22//24 28//24 34//17
f 24//8 40//8 29//8
f 29//7 40//7 24//7
f 35//20 29//19 40//20
f 40//22 29//21 35//22
f 35//7 36//7 30//7
f 30//8 36//8 35//8
f 24//21 36//22 41//22
f 41//20 36//20 24//19
f 37//14 26//18 34//18
f 34//17 26//17 37//13
f 32//17 33//24 38//24
f 38//23 33//23 32//18
f 38//8 42//8 28//8
f 28//7 42//7 38//7
f 39//7 43//7 33//7
f 33//8 43//8 39//8
f 22//23 42//25 39//25
f 39//26 42//26 22//24
f 42//25 22//23 28//23
f 28//24 22//24 42//26
f 41//8 40//8 24//8
f 24//7 40//7 41//7
f 40//20 44//27 35//20
f 35//22 44//28 40//22
f 44//7 36//7 35//7
f 35//8 36//8 44//8
f 36//22 45//28 41//22
f 41//20 45//27 36//20
f 43//26 38//24 33//24
f 33//23 38//23 43//25
f 46//8 42//8 38//8
f 38//7 42//7 46//7
f 47//7 43//7 39//7
f 39//8 43//8 47//8
f 42//25 47//27 39//25
f 39//26 47//28 42//26
f 41//8 48//8 40//8
f 40//7 48//7 41//7
f 44//27 40//20 48//27
f 48//28 40//22 44//28
f 44//7 49//7 36//7
f 36//8 49//8 44//8
f 45//28 36//22 49//28
f 49//27 36//20 45//27
f 45//8 48//8 41//8
f 41//7 48//7 45//7
f 38//24 43//26 46//26
f 46//25 43//25 38//23
f 46//8 50//8 42//8
f 42//7 50//7 46//7
f 47//7 51//7 43//7
f 43//8 51//8 47//8
f 47//27 42//25 50//27
f 50//28 42//26 47//28
f 48//27 52//25 44//27
f 44//28 52//26 48//28
f 52//7 49//7 44//7
f 44//8 49//8 52//8
f 49//28 53//26 45//28
f 45//27 53//25 49//27
f 45//8 54//8 48//8
f 48//7 54//7 45//7
f 43//26 55//28 46//26
f 46//25 55//27 43//25
f 55//8 50//8 46//8
f 46//7 50//7 55//7
f 56//7 51//7 47//7
f 47//8 51//8 56//8
f 55//28 43//26 51//28
f 51//27 43//25 55//27
f 50//27 56//20 47//27
f 47//28 56//22 50//28
f 52//25 48//27 54//25
f 54//26 48//28 52//26
f 52//7 57//7 49//7
f 49//8 57//8 52//8
f 53//26 49//28 57//26
f 57//25 49//27 53//25
f 53//8 54//8 45//8
f 45//7 54//7 53//7
f 55//8 58//8 50//8
f 50//7 58//7 55//7
f 56//7 59//7 51//7
f 51//8 59//8 56//8
f 51//28 60//22 55//28
f 55//27 60//20 51//27
f 56//20 50//27 58//20
f 58//22 50//28 56//22
f 61//23 52//25 54//25
f 54//26 52//26 61//24
f 62//7 57//7 52//7
f 52//8 57//8 62//8
f 63//24 53//26 57//26
f 57//25 53//25 63//23
f 53//8 61//8 54//8
f 54//7 61//7 53//7
f 60//8 58//8 55//8
f 55//7 58//7 60//7
f 64//7 59//7 56//7
f 56//8 59//8 64//8
f 60//22 51//28 59//22
f 59//20 51//27 60//20
f 58//20 64//19 56//20
f 56//22 64//21 58//22
f 52//25 61//23 62//23
f 62//24 61//24 52//26
f 65//7 57//7 62//7
f 62//8 57//8 65//8
f 53//26 63//24 66//24
f 66//23 63//23 53//25
f 65//7 63//7 57//7
f 57//8 63//8 65//8
f 53//8 67//8 61//8
f 61//7 67//7 53//7
f 68//8 58//8 60//8
f 60//7 58//7 68//7
f 64//7 69//7 59//7
f 59//8 69//8 64//8
f 59//22 68//21 60//22
f 60//20 68//19 59//20
f 64//19 58//20 70//19
f 70//21 58//22 64//21
f 67//18 62//23 61//23
f 61//24 62//24 67//17
f 62//23 67//18 65//18
f 65//17 67//17 62//24
f 71//17 66//24 63//24
f 63//23 66//23 71//18
f 66//8 67//8 53//8
f 53//7 67//7 66//7
f 72//7 63//7 65//7
f 65//8 63//8 72//8
f 58//8 68//8 70//8
f 70//7 68//7 58//7
f 64//7 73//7 69//7
f 69//8 73//8 64//8
f 68//21 59//22 69//21
f 69//19 59//20 68//19
f 70//15 74//11 64//15
f 64//16 74//12 70//16
f 75//14 65//18 67//18
f 67//17 65//17 75//13
f 66//24 71//17 76//17
f 76//18 71//18 66//23
f 77//7 71//7 63//7
f 63//8 71//8 77//8
f 67//8 66//8 75//8
f 75//7 66//7 67//7
f 78//7 63//7 72//7
f 72//8 63//8 78//8
f 65//18 75//14 72//14
f 72//13 75//13 65//17
f 79//8 70//8 68//8
f 68//7 70//7 79//7
f 74//7 73//7 64//7
f 64//8 73//8 74//8
f 73//12 68//16 69//16
f 69//15 68//15 73//11
f 74//11 70//15 80//11
f 80//12 70//16 74//12
f 81//13 76//17 71//17
f 71//18 76//18 81//14
f 76//8 82//8 66//8
f 66//7 82//7 76//7
f 71//7 77//7 81//7
f 81//8 77//8 71//8
f 77//7 63//7 78//7
f 78//8 63//8 77//8
f 66//8 82//8 75//8
f 75//7 82//7 66//7
f 83//7 78//7 72//7
f 72//8 78//8 83//8
f 84//10 72//14 75//14
f 75//13 72//13 84//9
f 79//8 80//8 70//8
f 70//7 80//7 79//7
f 68//16 73//12 79//12
f 79//11 73//11 68//15
f 74//7 85//7 73//7
f 73//8 85//8 74//8
f 80//11 86//5 74//11
f 74//12 86//6 80//12
f 76//17 81//13 87//13
f 87//14 81//14 76//18
f 76//8 88//8 82//8
f 82//7 88//7 76//7
f 77//9 87//13 81//13
f 81//14 87//14 77//10
f 78//1 88//9 77//9
f 77//10 88//10 78//4
f 75//8 82//8 84//8
f 84//7 82//7 75//7
f 78//7 83//7 89//7
f 89//8 83//8 78//8
f 72//14 84//10 83//10
f 83//9 84//9 72//13
f 90//8 80//8 79//8
f 79//7 80//7 90//7
f 73//12 90//6 79//12
f 79//11 90//5 73//11
f 86//7 85//7 74//7
f 74//8 85//8 86//8
f 90//6 73//12 85//6
f 85//5 73//11 90//5
f 86//5 80//11 91//5
f 91//6 80//12 86//6
f 88//8 76//8 87//8
f 87//7 76//7 88//7
f 88//9 78//1 82//1
f 82//4 78//4 88//10
f 87//13 77//9 88//9
f 88//10 77//10 87//14
f 84//8 82//8 92//8
f 92//7 82//7 84//7
f 89//7 83//7 93//7
f 93//8 83//8 89//8
f 89//2 82//1 78//1
f 78//4 82//4 89//3
f 94//4 83//10 84//10
f 84//9 83//9 94//1
f 90//8 91//8 80//8
f 80//7 91//7 90//7
f 86//7 95//7 85//7
f 85//8 95//8 86//8
f 85//6 96//3 90//6
f 90//5 96//2 85//5
f 91//5 89//2 86//5
f 86//6 89//3 91//6
f 82//1 89//2 92//2
f 92//3 89//3 82//4
f 84//8 92//8 94//8
f 94//7 92//7 84//7
f 83//10 94//4 93//4
f 93//1 94//1 83//9
f 89//7 93//7 95//7
f 95//8 93//8 89//8
f 96//8 91//8 90//8
f 90//7 91//7 96//7
f 89//7 95//7 86//7
f 86//8 95//8 89//8
f 96//3 85//6 95//3
f 95//2 85//5 96//2
f 89//2 91//5 92//2
f 92//3 91//6 89//3
f 94//8 92//8 96//8
f 96//7 92//7 94//7
f 96//3 93//4 94//4
f 94//1 93//1 96//2
f 93//4 96//3 95//3
f 95//2 96//2 93//1
f 96//8 92//8 91//8
f 91//7 92//7 96//7
