# SSTK version 0.8.0
# 79
mtllib original-79.mtl
o Group79/mesh152/mesh152-geometry#mesh152-geometry
v 0.518853 -0.081189 -0.033902
v 0.515398 -0.086093 -0.033902
v 0.516791 -0.076620 -0.033902
v 0.518853 -0.081189 0.014740
v 0.514643 -0.072091 -0.033902
v 0.516791 -0.076620 0.014740
v 0.515398 -0.086093 0.014740
v 0.514643 -0.072091 0.014740
v 0.512117 -0.091115 -0.033902
v 0.512410 -0.067603 0.014740
v 0.512410 -0.067603 -0.033902
v 0.512117 -0.091115 0.014740
v 0.510093 -0.063159 -0.033902
v 0.509012 -0.096248 -0.033902
v 0.510093 -0.063159 0.014740
v 0.509012 -0.096248 0.014740
v 0.507692 -0.058758 0.014740
v 0.507692 -0.058758 -0.033902
v 0.506088 -0.101486 -0.033902
v 0.506088 -0.101486 0.014740
v 0.505208 -0.054404 0.014740
v 0.505208 -0.054404 -0.033902
v 0.503349 -0.106823 -0.033902
v 0.503349 -0.106823 0.014740
v 0.502643 -0.050097 0.014740
v 0.502643 -0.050097 -0.033902
v 0.500798 -0.112253 -0.033902
v 0.500798 -0.112253 0.014740
v 0.499997 -0.045840 0.014740
v 0.499997 -0.045840 -0.033902
v 0.498437 -0.117768 -0.033902
v 0.498437 -0.117768 0.014740
v 0.497272 -0.041633 0.014740
v 0.497272 -0.041633 -0.033902
v 0.496271 -0.123362 -0.033902
v 0.496271 -0.123362 0.014740
v 0.494467 -0.037479 0.014740
v 0.494467 -0.037479 -0.033902
v 0.494300 -0.129028 -0.033902
v 0.494300 -0.129028 0.014740
v 0.491585 -0.033378 0.014740
v 0.491585 -0.033378 -0.033902
v 0.492529 -0.134759 -0.033902
v 0.492529 -0.134759 0.014740
v 0.488625 -0.029332 0.014740
v 0.490959 -0.140549 -0.033902
v 0.490959 -0.140549 0.014740
v 0.488625 -0.029332 -0.033902
v 0.488304 -0.028902 0.014740
v 0.489591 -0.146390 0.014740
v 0.489591 -0.146390 -0.033902
v 0.488304 -0.028902 -0.033902
v 0.487890 -0.145365 0.014740
v 0.488745 -0.145871 0.014740
v 0.488745 -0.145871 -0.033902
v 0.487983 -0.028474 0.014740
v 0.487890 -0.145365 -0.033902
v 0.487983 -0.028474 -0.033902
v 0.487660 -0.028046 0.014740
v 0.487660 -0.028046 -0.033902
v 0.487028 -0.144871 0.014740
v 0.487028 -0.144871 -0.033902
v 0.487336 -0.027618 0.014740
v 0.487336 -0.027618 -0.033902
v 0.487012 -0.027192 0.014740
v 0.486159 -0.144390 0.014740
v 0.487012 -0.027192 -0.033902
v 0.486159 -0.144390 -0.033902
v 0.486687 -0.026766 0.014740
v 0.485283 -0.143922 0.014740
v 0.486687 -0.026766 -0.033902
v 0.486360 -0.026340 0.014740
v 0.486033 -0.025915 0.014740
v 0.485283 -0.143922 -0.033902
v 0.486360 -0.026340 -0.033902
v 0.485706 -0.025491 0.014740
v 0.486033 -0.025915 -0.033902
v 0.484400 -0.143467 0.014740
v 0.485377 -0.025068 0.014740
v 0.485706 -0.025491 -0.033902
v 0.485047 -0.024645 0.014740
v 0.484400 -0.143467 -0.033902
v 0.485377 -0.025068 -0.033902
v 0.484717 -0.024223 0.014740
v 0.485047 -0.024645 -0.033902
v 0.483511 -0.143025 0.014740
v 0.477575 -0.034383 0.014740
v 0.484717 -0.024223 -0.033902
v 0.483511 -0.143025 -0.033902
v 0.477575 -0.034383 -0.033902
v 0.482615 -0.142596 0.014740
v 0.481713 -0.142181 0.014740
v 0.482615 -0.142596 -0.033902
v 0.471470 -0.045198 0.014740
v 0.480804 -0.141779 0.014740
v 0.481713 -0.142181 -0.033902
v 0.471470 -0.045198 -0.033902
v 0.477273 -0.154771 0.014740
v 0.479890 -0.141390 0.014740
v 0.480804 -0.141779 -0.033902
v 0.466461 -0.056563 0.014740
v 0.477273 -0.154771 -0.033902
v 0.476883 -0.156714 0.014740
v 0.477626 -0.152822 0.014740
v 0.478971 -0.141015 0.014740
v 0.479890 -0.141390 -0.033902
v 0.466461 -0.056563 -0.033902
v 0.469295 -0.153350 0.014740
v 0.477626 -0.152822 -0.033902
v 0.476883 -0.156714 -0.033902
v 0.476457 -0.158649 0.014740
v 0.477943 -0.150866 0.014740
v 0.478839 -0.142992 0.014740
v 0.478971 -0.141015 -0.033902
v 0.462597 -0.068365 0.014740
v 0.469295 -0.153350 -0.033902
v 0.464747 -0.141794 0.014740
v 0.474961 -0.164402 0.014740
v 0.477943 -0.150866 -0.033902
v 0.476457 -0.158649 -0.033902
v 0.475994 -0.160576 0.014740
v 0.478222 -0.148904 0.014740
v 0.478839 -0.142992 -0.033902
v 0.478671 -0.144967 0.014740
v 0.462597 -0.068365 -0.033902
v 0.474961 -0.164402 -0.033902
v 0.464747 -0.141794 -0.033902
v 0.475496 -0.162494 0.014740
v 0.478222 -0.148904 -0.033902
v 0.475994 -0.160576 -0.033902
v 0.478465 -0.146937 0.014740
v 0.478671 -0.144967 -0.033902
v 0.459915 -0.080492 0.014740
v 0.461361 -0.129845 0.014740
v 0.475496 -0.162494 -0.033902
v 0.461361 -0.129845 -0.033902
v 0.478465 -0.146937 -0.033902
v 0.459915 -0.080492 -0.033902
v 0.458442 -0.092823 0.014740
v 0.459169 -0.117621 0.014740
v 0.459169 -0.117621 -0.033902
v 0.458442 -0.092823 -0.033902
v 0.458193 -0.105240 0.014740
v 0.458213 -0.105498 0.014740
v 0.458213 -0.105498 -0.033902
v 0.458193 -0.105240 -0.033902
vn 0 0 -1
vn 0 0 1
vn 0.8174961298298408 -0.5759340914664041 0
vn 0.8274182556226354 -0.5615861734964593 0
vn -0.8274182556226354 0.5615861734964593 0
vn -0.8174961298298408 0.5759340914664041 0
vn 0.9075310380319039 0.4199850176003125 0
vn 0.9114521617189714 0.41140607299578597 0
vn -0.9114521617189714 -0.41140607299578597 0
vn -0.9075310380319039 -0.4199850176003125 0
vn 0.8994465499305506 0.43703078131640716 0
vn -0.8994465499305506 -0.43703078131640716 0
vn 0.846504896647684 -0.5323809350000185 0
vn -0.846504896647684 0.5323809350000185 0
vn 0.891041946535257 0.4539209727636076 0
vn -0.891041946535257 -0.4539209727636076 0
vn 0.8645605164678649 -0.5025287189453141 0
vn -0.8645605164678649 0.5025287189453141 0
vn 0.882320413102073 0.4706492203577813 0
vn -0.882320413102073 -0.4706492203577813 0
vn 0.8732848797814285 0.48720993292946724 0
vn -0.8732848797814285 -0.48720993292946724 0
vn 0.8815642176617586 -0.47206411655453306 0
vn -0.8815642176617586 0.47206411655453306 0
vn 0.8639380805846922 0.5035980469736137 0
vn -0.8639380805846922 -0.5035980469736137 0
vn 0.8974944580476863 -0.4410257336864705 0
vn -0.8974944580476863 0.4410257336864705 0
vn 0.8542837992839091 0.5198068778700888 0
vn -0.8542837992839091 -0.5198068778700888 0
vn 0.9123326326087406 -0.4094498351168366 0
vn -0.9123326326087406 0.4094498351168366 0
vn 0.8443259226698809 0.5358299509244088 0
vn -0.8443259226698809 -0.5358299509244088 0
vn 0.9260601069710614 -0.3773760435914641 0
vn -0.9260601069710614 0.3773760435914641 0
vn 0.8340670725396505 0.551663047978689 0
vn -0.8340670725396505 -0.551663047978689 0
vn 0.9386607757140745 -0.34484191760261995 0
vn -0.9386607757140745 0.34484191760261995 0
vn 0.823511930188838 0.5672989519086516 0
vn -0.823511930188838 -0.5672989519086516 0
vn 0.9501185902699975 -0.3118888655007628 0
vn -0.9501185902699975 0.3118888655007628 0
vn 0.8126629730500645 0.5827339806750845 0
vn -0.8126629730500645 -0.5827339806750845 0
vn 0.9604199896581975 -0.27855599700050904 0
vn -0.9604199896581975 0.27855599700050904 0
vn 0.8040371267926447 0.5945790937621576 0
vn -0.8040371267926447 -0.5945790937621576 0
vn 0.9695523615655339 -0.24488409132219233 0
vn -0.9695523615655339 0.24488409132219233 0
vn 0.8003175281037006 0.5995763956411077 0
vn -0.8003175281037006 -0.5995763956411077 0
vn 0.9736766063012465 -0.22793390783665252 0
vn -0.9736766063012465 0.22793390783665252 0
vn 0.7991060737830653 0.6011900555090827 0
vn -0.7991060737830653 -0.6011900555090827 0
vn -0.5226309972190805 -0.8525589954635336 0
vn -0.5163060782585833 -0.8564041298086092 0
vn 0.5226309972190805 0.8525589954635336 0
vn 0.5163060782585833 0.8564041298086092 0
vn -0.5035721144637172 -0.8639531963796077 0
vn 0.5035721144637172 0.8639531963796077 0
vn 0.7978917250206273 0.6028007922552917 0
vn -0.7978917250206273 -0.6028007922552917 0
vn -0.490727163780709 -0.8713132908017307 0
vn 0.490727163780709 0.8713132908017307 0
vn 0.7966741188809159 0.6044090901908378 0
vn -0.7966741188809159 -0.6044090901908378 0
vn -0.47777510153940317 -0.8784821866998859 0
vn 0.47777510153940317 0.8784821866998859 0
vn 0.7954531370430648 0.6060151044061093 0
vn -0.7954531370430648 -0.6060151044061093 0
vn -0.46471789306726335 -0.8854587962537408 0
vn 0.46471789306726335 0.8854587962537408 0
vn 0.7942287801567098 0.607618831810523 0
vn -0.7942287801567098 -0.607618831810523 0
vn 0.7930011608202553 0.609220123549549 0
vn -0.7930011608202553 -0.609220123549549 0
vn -0.451559105537955 -0.8922412085337474 0
vn 0.451559105537955 0.8922412085337474 0
vn 0.7917710215500281 0.6108180166249396 0
vn -0.7917710215500281 -0.6108180166249396 0
vn 0.7905366519291603 0.6124147303556908 0
vn -0.7905366519291603 -0.6124147303556908 0
vn 0.7892998760546717 0.6140079035811185 0
vn -0.7892998760546717 -0.6140079035811185 0
vn -0.438301100768722 -0.8988282066473697 0
vn 0.438301100768722 0.8988282066473697 0
vn 0.7880593482111925 0.6155992720081389 0
vn -0.7880593482111925 -0.6155992720081389 0
vn 0.7874379342174377 0.6163939485064517 0
vn -0.7874379342174377 -0.6163939485064517 0
vn -0.8181090859628168 0.5750630604247543 0
vn -0.8454978138023783 0.5339788824058486 0
vn 0.8454978138023783 -0.5339788824058486 0
vn 0.8181090859628168 -0.5750630604247543 0
vn -0.42494708916814444 -0.9052181899451209 0
vn 0.42494708916814444 0.9052181899451209 0
vn -0.894029037137073 0.44800901860984704 0
vn 0.894029037137073 -0.44800901860984704 0
vn -0.41149990986095464 -0.9114098003557052 0
vn 0.41149990986095464 0.9114098003557052 0
vn -0.397962805202627 -0.9174015509444355 0
vn 0.397962805202627 0.9174015509444355 0
vn -0.933847243270507 0.3576720931748443 0
vn 0.933847243270507 -0.3576720931748443 0
vn -0.38433816005612276 -0.9231923844598559 0
vn 0.38433816005612276 0.9231923844598559 0
vn 0.9785643926113665 -0.20594108262594724 0
vn 0.9822651693258313 -0.18749703232130369 0
vn -0.9822651693258313 0.18749703232130369 0
vn -0.9785643926113665 0.20594108262594724 0
vn 0.9856182719848493 -0.16898704663257338 0
vn -0.9856182719848493 0.16898704663257338 0
vn -0.377494010535858 -0.926012025844996 0
vn 0.377494010535858 0.926012025844996 0
vn -0.9645637431386385 0.26384992973730076 0
vn 0.9645637431386385 -0.26384992973730076 0
vn 0.9745173622120914 -0.22431208337311578 0
vn -0.9745173622120914 0.22431208337311578 0
vn 0.9886226490301243 -0.15041694660063967 0
vn -0.9886226490301243 0.15041694660063967 0
vn 0.9971328404936579 -0.07567098789529138 0
vn 0.9978004632184957 -0.06628903077399365 0
vn -0.9978004632184957 0.06628903077399365 0
vn -0.9971328404936579 0.07567098789529138 0
vn -0.9474698934451731 -0.31984496402943774 0
vn -0.9113153053335104 -0.41170913794193464 0
vn 0.9113153053335104 0.41170913794193464 0
vn 0.9474698934451731 0.31984496402943774 0
vn -0.8898819099417306 -0.4561909538323374 0
vn 0.8898819099417306 0.4561909538323374 0
vn 0.9701254389319952 -0.24260385969106874 0
vn -0.9701254389319952 0.24260385969106874 0
vn 0.9912771243235063 -0.13179401652927708 0
vn -0.9912771243235063 0.13179401652927708 0
vn 0.9955330211625434 -0.09441400200700567 0
vn -0.9955330211625434 0.09441400200700567 0
vn -0.9858795630898227 0.16745592578890872 0
vn 0.9858795630898227 -0.16745592578890872 0
vn -0.9743903698450381 -0.22486308535028565 0
vn 0.9743903698450381 0.22486308535028565 0
vn 0.9628945590382046 -0.26987787640824035 0
vn 0.9653903926335237 -0.2608091060735627 0
vn -0.9653903926335237 0.2608091060735627 0
vn -0.9628945590382046 0.26987787640824035 0
vn 0.9935808793112284 -0.11312398625899991 0
vn -0.9935808793112284 0.11312398625899991 0
vn -0.9975868266847664 0.0694299879376168 0
vn 0.9975868266847664 -0.0694299879376168 0
vn -0.9918141256152505 -0.12769001617219694 0
vn 0.9918141256152505 0.12769001617219694 0
vn -0.999571453520665 -0.029273013281608237 0
vn 0.999571453520665 0.029273013281608237 0
vn -0.9969079688227006 -0.07857799754255174 0
vn 0.9969079688227006 0.07857799754255174 0
usemtl material_0_0
f 1//1 2//1 3//1
f 3//2 2//2 1//2
f 1//3 4//3 2//4
f 2//5 4//6 1//6
f 5//1 3//1 2//1
f 2//2 3//2 5//2
f 3//7 6//7 1//8
f 1//9 6//10 3//10
f 4//8 1//8 6//7
f 6//10 1//9 4//9
f 7//4 2//4 4//3
f 4//6 2//5 7//5
f 5//11 8//11 3//7
f 3//10 8//12 5//12
f 9//1 5//1 2//1
f 2//2 5//2 9//2
f 6//7 3//7 8//11
f 8//12 3//10 6//10
f 4//2 6//2 7//2
f 7//1 6//1 4//1
f 2//4 7//4 9//13
f 9//14 7//5 2//5
f 8//11 5//11 10//15
f 10//16 5//12 8//12
f 11//1 5//1 9//1
f 9//2 5//2 11//2
f 8//2 7//2 6//2
f 6//1 7//1 8//1
f 12//13 9//13 7//4
f 7//5 9//14 12//14
f 11//15 10//15 5//11
f 5//12 10//16 11//16
f 10//2 12//2 8//2
f 8//1 12//1 10//1
f 13//1 11//1 9//1
f 9//2 11//2 13//2
f 12//2 7//2 8//2
f 8//1 7//1 12//1
f 9//13 12//13 14//17
f 14//18 12//14 9//14
f 10//15 11//15 15//19
f 15//20 11//16 10//16
f 15//2 12//2 10//2
f 10//1 12//1 15//1
f 13//19 15//19 11//15
f 11//16 15//20 13//20
f 14//1 13//1 9//1
f 9//2 13//2 14//2
f 16//17 14//17 12//13
f 12//14 14//18 16//18
f 16//2 12//2 15//2
f 15//1 12//1 16//1
f 15//19 13//19 17//21
f 17//22 13//20 15//20
f 18//1 13//1 14//1
f 14//2 13//2 18//2
f 14//17 16//17 19//23
f 19//24 16//18 14//18
f 17//2 16//2 15//2
f 15//1 16//1 17//1
f 18//21 17//21 13//19
f 13//20 17//22 18//22
f 19//1 18//1 14//1
f 14//2 18//2 19//2
f 20//23 19//23 16//17
f 16//18 19//24 20//24
f 20//2 16//2 17//2
f 17//1 16//1 20//1
f 17//21 18//21 21//25
f 21//26 18//22 17//22
f 22//1 18//1 19//1
f 19//2 18//2 22//2
f 19//23 20//23 23//27
f 23//28 20//24 19//24
f 21//2 20//2 17//2
f 17//1 20//1 21//1
f 22//25 21//25 18//21
f 18//22 21//26 22//26
f 23//1 22//1 19//1
f 19//2 22//2 23//2
f 24//27 23//27 20//23
f 20//24 23//28 24//28
f 24//2 20//2 21//2
f 21//1 20//1 24//1
f 21//25 22//25 25//29
f 25//30 22//26 21//26
f 26//1 22//1 23//1
f 23//2 22//2 26//2
f 23//27 24//27 27//31
f 27//32 24//28 23//28
f 25//2 24//2 21//2
f 21//1 24//1 25//1
f 26//29 25//29 22//25
f 22//26 25//30 26//30
f 27//1 26//1 23//1
f 23//2 26//2 27//2
f 28//31 27//31 24//27
f 24//28 27//32 28//32
f 28//2 24//2 25//2
f 25//1 24//1 28//1
f 25//29 26//29 29//33
f 29//34 26//30 25//30
f 30//1 26//1 27//1
f 27//2 26//2 30//2
f 27//31 28//31 31//35
f 31//36 28//32 27//32
f 29//2 28//2 25//2
f 25//1 28//1 29//1
f 30//33 29//33 26//29
f 26//30 29//34 30//34
f 31//1 30//1 27//1
f 27//2 30//2 31//2
f 32//35 31//35 28//31
f 28//32 31//36 32//36
f 32//2 28//2 29//2
f 29//1 28//1 32//1
f 29//33 30//33 33//37
f 33//38 30//34 29//34
f 34//1 30//1 31//1
f 31//2 30//2 34//2
f 31//35 32//35 35//39
f 35//40 32//36 31//36
f 33//2 32//2 29//2
f 29//1 32//1 33//1
f 34//37 33//37 30//33
f 30//34 33//38 34//38
f 35//1 34//1 31//1
f 31//2 34//2 35//2
f 36//39 35//39 32//35
f 32//36 35//40 36//40
f 36//2 32//2 33//2
f 33//1 32//1 36//1
f 33//37 34//37 37//41
f 37//42 34//38 33//38
f 38//1 34//1 35//1
f 35//2 34//2 38//2
f 35//39 36//39 39//43
f 39//44 36//40 35//40
f 37//2 36//2 33//2
f 33//1 36//1 37//1
f 38//41 37//41 34//37
f 34//38 37//42 38//42
f 39//1 38//1 35//1
f 35//2 38//2 39//2
f 40//43 39//43 36//39
f 36//40 39//44 40//44
f 40//2 36//2 37//2
f 37//1 36//1 40//1
f 37//41 38//41 41//45
f 41//46 38//42 37//42
f 42//1 38//1 39//1
f 39//2 38//2 42//2
f 39//43 40//43 43//47
f 43//48 40//44 39//44
f 41//2 40//2 37//2
f 37//1 40//1 41//1
f 42//45 41//45 38//41
f 38//42 41//46 42//46
f 43//1 42//1 39//1
f 39//2 42//2 43//2
f 44//47 43//47 40//43
f 40//44 43//48 44//48
f 44//2 40//2 41//2
f 41//1 40//1 44//1
f 41//45 42//45 45//49
f 45//50 42//46 41//46
f 46//1 42//1 43//1
f 43//2 42//2 46//2
f 43//47 44//47 46//51
f 46//52 44//48 43//48
f 47//2 44//2 41//2
f 41//1 44//1 47//1
f 48//49 45//49 42//45
f 42//46 45//50 48//50
f 45//2 47//2 41//2
f 41//1 47//1 45//1
f 48//1 42//1 46//1
f 46//2 42//2 48//2
f 47//51 46//51 44//47
f 44//48 46//52 47//52
f 45//49 48//49 49//53
f 49//54 48//50 45//50
f 50//2 47//2 45//2
f 45//1 47//1 50//1
f 51//1 48//1 46//1
f 46//2 48//2 51//2
f 46//51 47//51 51//55
f 51//56 47//52 46//52
f 52//53 49//53 48//49
f 48//50 49//54 52//54
f 49//2 53//2 45//2
f 45//1 53//1 49//1
f 50//55 51//55 47//51
f 47//52 51//56 50//56
f 54//2 50//2 45//2
f 45//1 50//1 54//1
f 55//1 48//1 51//1
f 51//2 48//2 55//2
f 49//53 52//53 56//57
f 56//58 52//54 49//54
f 52//1 48//1 57//1
f 57//2 48//2 52//2
f 56//2 53//2 49//2
f 49//1 53//1 56//1
f 53//2 54//2 45//2
f 45//1 54//1 53//1
f 50//59 54//60 51//59
f 51//61 54//62 50//61
f 57//1 48//1 55//1
f 55//2 48//2 57//2
f 55//60 51//59 54//60
f 54//62 51//61 55//62
f 58//57 56//57 52//53
f 52//54 56//58 58//58
f 58//1 52//1 57//1
f 57//2 52//2 58//2
f 59//2 53//2 56//2
f 56//1 53//1 59//1
f 54//60 53//63 55//60
f 55//62 53//64 54//62
f 57//63 55//60 53//63
f 53//64 55//62 57//64
f 56//57 58//57 59//65
f 59//66 58//58 56//58
f 60//1 58//1 57//1
f 57//2 58//2 60//2
f 61//2 53//2 59//2
f 59//1 53//1 61//1
f 53//63 61//67 57//63
f 57//64 61//68 53//64
f 60//65 59//65 58//57
f 58//58 59//66 60//66
f 62//1 60//1 57//1
f 57//2 60//2 62//2
f 63//2 61//2 59//2
f 59//1 61//1 63//1
f 62//67 57//63 61//67
f 61//68 57//64 62//68
f 59//65 60//65 63//69
f 63//70 60//66 59//66
f 64//1 60//1 62//1
f 62//2 60//2 64//2
f 65//2 61//2 63//2
f 63//1 61//1 65//1
f 61//67 66//71 62//67
f 62//68 66//72 61//68
f 64//69 63//69 60//65
f 60//66 63//70 64//70
f 67//1 64//1 62//1
f 62//2 64//2 67//2
f 66//2 61//2 65//2
f 65//1 61//1 66//1
f 63//69 64//69 65//73
f 65//74 64//70 63//70
f 68//71 62//67 66//71
f 66//72 62//68 68//72
f 67//73 65//73 64//69
f 64//70 65//74 67//74
f 68//1 67//1 62//1
f 62//2 67//2 68//2
f 69//2 66//2 65//2
f 65//1 66//1 69//1
f 66//71 70//75 68//71
f 68//72 70//76 66//72
f 65//73 67//73 69//77
f 69//78 67//74 65//74
f 71//1 67//1 68//1
f 68//2 67//2 71//2
f 72//2 66//2 69//2
f 69//1 66//1 72//1
f 70//2 66//2 73//2
f 73//1 66//1 70//1
f 74//75 68//71 70//75
f 70//76 68//72 74//76
f 71//77 69//77 67//73
f 67//74 69//78 71//78
f 75//1 71//1 68//1
f 68//2 71//2 75//2
f 73//2 66//2 72//2
f 72//1 66//1 73//1
f 69//77 71//77 72//79
f 72//80 71//78 69//78
f 76//2 70//2 73//2
f 73//1 70//1 76//1
f 74//1 77//1 68//1
f 68//2 77//2 74//2
f 70//75 78//81 74//75
f 74//76 78//82 70//76
f 75//79 72//79 71//77
f 71//78 72//80 75//80
f 77//1 75//1 68//1
f 68//2 75//2 77//2
f 72//79 75//79 73//83
f 73//84 75//80 72//80
f 79//2 70//2 76//2
f 76//1 70//1 79//1
f 73//83 77//83 76//85
f 76//86 77//84 73//84
f 80//1 77//1 74//1
f 74//2 77//2 80//2
f 78//2 70//2 81//2
f 81//1 70//1 78//1
f 82//81 74//75 78//81
f 78//82 74//76 82//82
f 77//83 73//83 75//79
f 75//80 73//84 77//84
f 81//2 70//2 79//2
f 79//1 70//1 81//1
f 76//85 80//85 79//87
f 79//88 80//86 76//86
f 80//85 76//85 77//83
f 77//84 76//86 80//86
f 83//1 80//1 74//1
f 74//2 80//2 83//2
f 84//2 78//2 81//2
f 81//1 78//1 84//1
f 82//1 85//1 74//1
f 74//2 85//2 82//2
f 78//81 86//89 82//81
f 82//82 86//90 78//82
f 79//87 83//87 81//91
f 81//92 83//88 79//88
f 83//87 79//87 80//85
f 80//86 79//88 83//88
f 85//1 83//1 74//1
f 74//2 83//2 85//2
f 87//2 78//2 84//2
f 84//1 78//1 87//1
f 81//91 85//91 84//93
f 84//94 85//92 81//92
f 88//1 85//1 82//1
f 82//2 85//2 88//2
f 86//2 78//2 87//2
f 87//1 78//1 86//1
f 89//89 82//81 86//89
f 86//90 82//82 89//90
f 85//91 81//91 83//87
f 83//88 81//92 85//92
f 84//95 88//95 87//96
f 87//97 88//98 84//98
f 88//93 84//93 85//91
f 85//92 84//94 88//94
f 90//1 88//1 82//1
f 82//2 88//2 90//2
f 91//2 86//2 87//2
f 87//1 86//1 91//1
f 89//1 90//1 82//1
f 82//2 90//2 89//2
f 86//89 91//99 89//89
f 89//90 91//100 86//90
f 90//96 87//96 88//95
f 88//98 87//97 90//97
f 92//2 91//2 87//2
f 87//1 91//1 92//1
f 93//1 90//1 89//1
f 89//2 90//2 93//2
f 93//99 89//89 91//99
f 91//100 89//90 93//100
f 87//96 90//96 94//101
f 94//102 90//97 87//97
f 91//99 92//103 93//99
f 93//100 92//104 91//100
f 95//2 92//2 87//2
f 87//1 92//1 95//1
f 96//1 90//1 93//1
f 93//2 90//2 96//2
f 97//101 94//101 90//96
f 90//97 94//102 97//102
f 94//2 98//2 87//2
f 87//1 98//1 94//1
f 96//103 93//99 92//103
f 92//104 93//100 96//104
f 92//103 95//105 96//103
f 96//104 95//106 92//104
f 99//2 95//2 87//2
f 87//1 95//1 99//1
f 100//1 90//1 96//1
f 96//2 90//2 100//2
f 94//101 97//101 101//107
f 101//108 97//102 94//102
f 97//1 90//1 102//1
f 102//2 90//2 97//2
f 103//2 98//2 94//2
f 94//1 98//1 103//1
f 98//2 104//2 87//2
f 87//1 104//1 98//1
f 100//105 96//103 95//105
f 95//106 96//104 100//106
f 95//105 99//109 100//105
f 100//106 99//110 95//106
f 105//2 99//2 87//2
f 87//1 99//1 105//1
f 106//1 90//1 100//1
f 100//2 90//2 106//2
f 107//107 101//107 97//101
f 97//102 101//108 107//108
f 101//2 108//2 94//2
f 94//1 108//1 101//1
f 102//1 90//1 109//1
f 109//2 90//2 102//2
f 110//1 97//1 102//1
f 102//2 97//2 110//2
f 103//111 110//111 98//112
f 98//113 110//114 103//114
f 111//2 103//2 94//2
f 94//1 103//1 111//1
f 98//112 102//112 104//115
f 104//116 102//113 98//113
f 104//2 112//2 87//2
f 87//1 112//1 104//1
f 106//109 100//105 99//109
f 99//110 100//106 106//110
f 99//109 105//117 106//109
f 106//110 105//118 99//110
f 113//2 105//2 87//2
f 87//1 105//1 113//1
f 114//1 90//1 106//1
f 106//2 90//2 114//2
f 101//107 107//107 115//119
f 115//120 107//108 101//108
f 107//1 97//1 116//1
f 116//2 97//2 107//2
f 117//2 108//2 101//2
f 101//1 108//1 117//1
f 108//2 118//2 94//2
f 94//1 118//1 108//1
f 109//1 90//1 119//1
f 119//2 90//2 109//2
f 109//115 104//115 102//112
f 102//113 104//116 109//116
f 120//1 97//1 110//1
f 110//2 97//2 120//2
f 102//112 98//112 110//111
f 110//114 98//113 102//113
f 110//111 103//111 120//121
f 120//122 103//114 110//114
f 111//121 120//121 103//111
f 103//114 120//122 111//122
f 121//2 111//2 94//2
f 94//1 111//1 121//1
f 104//115 109//115 112//123
f 112//124 109//116 104//116
f 112//2 122//2 87//2
f 87//1 122//1 112//1
f 114//117 106//109 105//117
f 105//118 106//110 114//118
f 113//125 123//125 105//126
f 105//127 123//128 113//128
f 124//2 113//2 87//2
f 87//1 113//1 124//1
f 123//1 90//1 114//1
f 114//2 90//2 123//2
f 125//119 115//119 107//107
f 107//108 115//120 125//120
f 115//2 117//2 101//2
f 101//1 117//1 115//1
f 116//1 97//1 126//1
f 126//2 97//2 116//2
f 127//1 107//1 116//1
f 116//2 107//2 127//2
f 117//129 127//129 108//130
f 108//131 127//132 117//132
f 108//130 116//130 118//133
f 118//134 116//131 108//131
f 118//2 128//2 94//2
f 94//1 128//1 118//1
f 119//1 90//1 129//1
f 129//2 90//2 119//2
f 119//123 112//123 109//115
f 109//116 112//124 119//124
f 130//1 97//1 120//1
f 120//2 97//2 130//2
f 120//121 111//121 130//135
f 130//136 111//122 120//122
f 121//135 130//135 111//121
f 111//122 130//136 121//136
f 128//2 121//2 94//2
f 94//1 121//1 128//1
f 112//123 119//123 122//137
f 122//138 119//124 112//124
f 122//2 131//2 87//2
f 87//1 131//1 122//1
f 114//126 105//126 123//125
f 123//128 105//127 114//127
f 123//125 113//125 132//139
f 132//140 113//128 123//128
f 124//139 132//139 113//125
f 113//128 132//140 124//140
f 131//2 124//2 87//2
f 87//1 124//1 131//1
f 132//1 90//1 123//1
f 123//2 90//2 132//2
f 115//119 125//119 133//141
f 133//142 125//120 115//120
f 125//1 107//1 127//1
f 127//2 107//2 125//2
f 134//2 117//2 115//2
f 115//1 117//1 134//1
f 126//1 97//1 135//1
f 135//2 97//2 126//2
f 126//133 118//133 116//130
f 116//131 118//134 126//134
f 116//130 108//130 127//129
f 127//132 108//131 116//131
f 127//129 117//129 136//143
f 136//144 117//132 127//132
f 118//145 126//145 128//146
f 128//147 126//148 118//148
f 129//1 90//1 137//1
f 137//2 90//2 129//2
f 129//137 122//137 119//123
f 119//124 122//138 129//138
f 135//1 97//1 130//1
f 130//2 97//2 135//2
f 130//135 121//135 135//146
f 135//147 121//136 130//136
f 128//146 135//146 121//135
f 121//136 135//147 128//147
f 122//137 129//137 131//149
f 131//150 129//138 122//138
f 132//139 124//139 137//149
f 137//150 124//140 132//140
f 131//149 137//149 124//139
f 124//140 137//150 131//150
f 137//1 90//1 132//1
f 132//2 90//2 137//2
f 138//141 133//141 125//119
f 125//120 133//142 138//142
f 133//2 134//2 115//2
f 115//1 134//1 133//1
f 136//1 125//1 127//1
f 127//2 125//2 136//2
f 134//143 136//143 117//129
f 117//132 136//144 134//144
f 135//146 128//146 126//145
f 126//148 128//147 135//147
f 137//149 131//149 129//137
f 129//138 131//150 137//150
f 133//141 138//141 139//151
f 139//152 138//142 133//142
f 138//1 125//1 136//1
f 136//2 125//2 138//2
f 140//2 134//2 133//2
f 133//1 134//1 140//1
f 136//143 134//143 141//153
f 141//154 134//144 136//144
f 142//151 139//151 138//141
f 138//142 139//152 142//152
f 139//2 140//2 133//2
f 133//1 140//1 139//1
f 141//1 138//1 136//1
f 136//2 138//2 141//2
f 140//153 141//153 134//143
f 134//144 141//154 140//154
f 139//151 142//151 143//155
f 143//156 142//152 139//152
f 142//1 138//1 141//1
f 141//2 138//2 142//2
f 144//2 140//2 139//2
f 139//1 140//1 144//1
f 141//153 140//153 145//157
f 145//158 140//154 141//154
f 146//155 143//155 142//151
f 142//152 143//156 146//156
f 143//2 144//2 139//2
f 139//1 144//1 143//1
f 145//1 142//1 141//1
f 141//2 142//2 145//2
f 144//157 145//157 140//153
f 140//154 145//158 144//158
f 143//155 146//155 144//157
f 144//158 146//156 143//156
f 146//1 142//1 145//1
f 145//2 142//2 146//2
f 145//157 144//157 146//155
f 146//156 144//158 145//158
