# SSTK version 0.8.0
# 100
mtllib original-100.mtl
o Group100/mesh194/mesh194-geometry#mesh194-geometry
v 0.677799 0.255402 -0.033902
v 0.677742 0.235985 -0.033902
v 0.677077 0.252582 -0.033902
v 0.678333 0.163383 -0.033902
v 0.677227 0.246788 -0.033902
v 0.677077 0.252582 0.014740
v 0.679026 0.258041 -0.033902
v 0.677119 0.225187 -0.033902
v 0.676884 0.249678 -0.033902
v 0.677742 0.235985 0.014740
v 0.676884 0.249678 0.014740
v 0.677799 0.255402 0.014740
v 0.680717 0.260411 -0.033902
v 0.677119 0.225187 0.014740
v 0.671796 0.154875 -0.033902
v 0.677227 0.246788 0.014740
v 0.679026 0.258041 0.014740
v 0.682813 0.262430 -0.033902
v 0.675364 0.214515 0.014740
v 0.675364 0.214515 -0.033902
v 0.678333 0.163383 0.014740
v 0.680717 0.260411 0.014740
v 0.682813 0.262430 0.014740
v 0.683964 0.172515 -0.033902
v 0.671796 0.154875 0.014740
v 0.672497 0.204087 -0.033902
v 0.683964 0.172515 0.014740
v 0.685244 0.264030 0.014740
v 0.685244 0.264030 -0.033902
v 0.672497 0.204087 0.014740
v 0.668548 0.194017 -0.033902
v 0.664423 0.147081 -0.033902
v 0.687928 0.265157 -0.033902
v 0.688631 0.182176 0.014740
v 0.668548 0.194017 0.014740
v 0.664423 0.147081 0.014740
v 0.687928 0.265157 0.014740
v 0.688631 0.182176 -0.033902
v 0.663563 0.184419 0.014740
v 0.663563 0.184419 -0.033902
v 0.656290 0.140083 0.014740
v 0.690773 0.265773 0.014740
v 0.690773 0.265773 -0.033902
v 0.692285 0.192264 0.014740
v 0.656290 0.140083 -0.033902
v 0.692285 0.192264 -0.033902
v 0.657597 0.175398 0.014740
v 0.657597 0.175398 -0.033902
v 0.647484 0.133954 0.014740
v 0.693682 0.265857 0.014740
v 0.693682 0.265857 -0.033902
v 0.694887 0.202673 0.014740
v 0.650715 0.167055 -0.033902
v 0.650715 0.167055 0.014740
v 0.647484 0.133954 -0.033902
v 0.694887 0.202673 -0.033902
v 0.642994 0.159481 0.014740
v 0.638097 0.128758 0.014740
v 0.696558 0.265405 0.014740
v 0.696558 0.265405 -0.033902
v 0.697353 0.207403 0.014740
v 0.642994 0.159481 -0.033902
v 0.638097 0.128758 -0.033902
v 0.697353 0.207403 -0.033902
v 0.634519 0.152761 0.014740
v 0.634519 0.152761 -0.033902
v 0.628227 0.124551 0.014740
v 0.699301 0.264434 0.014740
v 0.699301 0.264434 -0.033902
v 0.699460 0.212303 0.014740
v 0.628227 0.124551 -0.033902
v 0.699460 0.212303 -0.033902
v 0.625385 0.146970 0.014740
v 0.625385 0.146970 -0.033902
v 0.617979 0.121376 0.014740
v 0.701070 0.259401 -0.033902
v 0.701198 0.217346 0.014740
v 0.701070 0.259401 0.014740
v 0.617979 0.121376 -0.033902
v 0.701198 0.217346 -0.033902
v 0.615693 0.142170 0.014740
v 0.615693 0.142170 -0.033902
v 0.607459 0.119267 0.014740
v 0.702459 0.254251 -0.033902
v 0.702555 0.222504 0.014740
v 0.702459 0.254251 0.014740
v 0.615143 0.140216 0.014740
v 0.608279 0.121124 0.014740
v 0.607459 0.119267 -0.033902
v 0.702555 0.222504 -0.033902
v 0.615143 0.140216 -0.033902
v 0.614567 0.138269 0.014740
v 0.609075 0.122992 0.014740
v 0.608279 0.121124 -0.033902
v 0.703461 0.249012 -0.033902
v 0.703526 0.227750 0.014740
v 0.703461 0.249012 0.014740
v 0.614567 0.138269 -0.033902
v 0.613967 0.136330 0.014740
v 0.609847 0.124870 0.014740
v 0.609075 0.122992 -0.033902
v 0.703526 0.227750 -0.033902
v 0.613967 0.136330 -0.033902
v 0.613342 0.134398 0.014740
v 0.610595 0.126757 0.014740
v 0.609847 0.124870 -0.033902
v 0.704071 0.243713 -0.033902
v 0.704104 0.233052 0.014740
v 0.704071 0.243713 0.014740
v 0.613342 0.134398 -0.033902
v 0.612692 0.132475 0.014740
v 0.611319 0.128654 0.014740
v 0.610595 0.126757 -0.033902
v 0.704104 0.233052 -0.033902
v 0.612692 0.132475 -0.033902
v 0.612018 0.130560 0.014740
v 0.611319 0.128654 -0.033902
v 0.704286 0.238383 -0.033902
v 0.704286 0.238383 0.014740
v 0.612018 0.130560 -0.033902
vn 0 0 -1
vn 0 0 1
vn -0.987458790752567 0.15787696654508493 0
vn -0.9417456671909069 0.3363258811437999 0
vn 0.9417456671909069 -0.3363258811437999 0
vn 0.987458790752567 -0.15787696654508493 0
vn -0.999987544893272 0.0049909977285350635 0
vn -0.9965637761035365 -0.0828289813909391 0
vn 0.9965637761035365 0.0828289813909391 0
vn 0.999987544893272 -0.0049909977285350635 0
vn -0.9996637611823553 -0.025929993805377083 0
vn 0.9996637611823553 0.025929993805377083 0
vn -0.864075036552967 0.5033630212937663 0
vn 0.864075036552967 -0.5033630212937663 0
vn -0.9939198520868463 0.11010598361424892 0
vn 0.9939198520868463 -0.11010598361424892 0
vn -0.7570833490105834 0.6533183011755598 0
vn 0.7570833490105834 -0.6533183011755598 0
vn -0.9768336759081304 0.21399992899954334 0
vn 0.9768336759081304 -0.21399992899954334 0
vn 0.8231585033783353 -0.5678116574322328 0
vn 0.7607099511000445 -0.649091958275072 0
vn -0.7607099511000445 0.649091958275072 0
vn -0.8231585033783353 0.5678116574322328 0
vn -0.6244009788899398 0.7811039735920469 0
vn 0.6244009788899398 -0.7811039735920469 0
vn 0.8769590846677728 -0.4805650463971158 0
vn -0.8769590846677728 0.4805650463971158 0
vn -0.47052999897518577 0.8823839980781678 0
vn 0.47052999897518577 -0.8823839980781678 0
vn -0.9489182357075232 0.31552207837443186 0
vn 0.9489182357075232 -0.31552207837443186 0
vn 0.6902683949602991 -0.7235534140054433 0
vn -0.6902683949602991 0.7235534140054433 0
vn 0.9215457129311828 -0.38826987905084537 0
vn -0.9215457129311828 0.38826987905084537 0
vn -0.9104831878304247 0.4135460853135323 0
vn 0.9104831878304247 -0.4135460853135323 0
vn -0.3006920864933394 0.9537212743355798 0
vn 0.3006920864933394 -0.9537212743355798 0
vn -0.8619542144921613 0.5069861261604713 0
vn 0.8619542144921613 -0.5069861261604713 0
vn 0.6125747423529553 -0.7904126675548732 0
vn -0.6125747423529553 0.7904126675548732 0
vn -0.12065001293820646 0.9926951064541473 0
vn 0.12065001293820646 -0.9926951064541473 0
vn 0.9564503378541859 -0.2918951031083147 0
vn -0.9564503378541859 0.2918951031083147 0
vn -0.8038700140978704 0.5948050104313929 0
vn 0.8038700140978704 -0.5948050104313929 0
vn 0.5284452417336319 -0.8489673883542777 0
vn -0.5284452417336319 0.8489673883542777 0
vn 0.06348498687403592 0.9979827936600928 0
vn -0.06348498687403592 -0.9979827936600928 0
vn 0.9349198521513189 -0.3548589438824336 0
vn -0.9349198521513189 0.3548589438824336 0
vn -0.7368740542427749 0.6760300497639258 0
vn 0.7368740542427749 -0.6760300497639258 0
vn 0.43876373689430714 -0.8986024611509492 0
vn -0.43876373689430714 0.8986024611509492 0
vn 0.24546698746719234 0.9694049505050927 0
vn -0.24546698746719234 -0.9694049505050927 0
vn 0.9033030524737792 -0.4290030249212155 0
vn -0.9033030524737792 0.4290030249212155 0
vn -0.6617088816196299 0.7497608658670433 0
vn 0.6617088816196299 -0.7497608658670433 0
vn -0.579207901631972 0.8151798615563856 0
vn 0.579207901631972 -0.8151798615563856 0
vn 0.3444718680685055 -0.9387966404442414 0
vn -0.3444718680685055 0.9387966404442414 0
vn 0.3337111356292432 0.9426753831288057 0
vn -0.3337111356292432 -0.9426753831288057 0
vn 0.9326942313734866 -0.36066808947094403 0
vn -0.9326942313734866 0.36066808947094403 0
vn -0.49028583290081096 0.8715617029543911 0
vn 0.49028583290081096 -0.8715617029543911 0
vn 0.2465610654804637 -0.9691272573760056 0
vn -0.2465610654804637 0.9691272573760056 0
vn 0.9434636896608789 0.3314758909656643 0
vn 0.9551396198850713 0.2961558821394593 0
vn -0.9551396198850713 -0.2961558821394593 0
vn -0.9434636896608789 -0.3314758909656643 0
vn 0.9569247853995932 -0.29033593488912535 0
vn -0.9569247853995932 0.29033593488912535 0
vn -0.44372299653341407 0.8961639929987189 0
vn 0.44372299653341407 -0.8961639929987189 0
vn 0.19656899883424755 -0.9804899941852041 0
vn -0.19656899883424755 0.9804899941852041 0
vn 0.9745123012705245 0.22433406935288824 0
vn -0.9745123012705245 -0.22433406935288824 0
vn 0.9758597921399348 -0.21839795348080412 0
vn -0.9758597921399348 0.21839795348080412 0
vn -0.962582745862306 0.270987928454725 0
vn -0.9608214351248999 0.27716812552046455 0
vn 0.9608214351248999 -0.27716812552046455 0
vn 0.962582745862306 -0.270987928454725 0
vn -0.9173662734247281 0.39804411863865946 0
vn -0.9147890113685406 0.4039320050198651 0
vn 0.9147890113685406 -0.4039320050198651 0
vn 0.9173662734247281 -0.39804411863865946 0
vn 0.9884923215047086 0.15127104920053855 0
vn -0.9884923215047086 -0.15127104920053855 0
vn 0.9893946984676654 -0.14525195573236707 0
vn -0.9893946984676654 0.14525195573236707 0
vn -0.9571794819084035 0.28949514575128926 0
vn 0.9571794819084035 -0.28949514575128926 0
vn -0.9224067407811432 0.3862198914627633 0
vn 0.9224067407811432 -0.3862198914627633 0
vn -0.9533794458398982 0.30177414112214496 0
vn 0.9533794458398982 -0.30177414112214496 0
vn -0.9272947852158339 0.3743319132955678 0
vn 0.9272947852158339 -0.3743319132955678 0
vn 0.9970023690679128 0.07737102864101926 0
vn -0.9970023690679128 -0.07737102864101926 0
vn 0.9974548455810349 -0.07130098896168086 0
vn -0.9974548455810349 0.07130098896168086 0
vn -0.9494216932893716 0.314003898561057 0
vn 0.9494216932893716 -0.314003898561057 0
vn -0.9320297041626345 0.3623818849756594 0
vn 0.9320297041626345 -0.3623818849756594 0
vn -0.9453072982397731 0.3261811029085233 0
vn 0.9453072982397731 -0.3261811029085233 0
vn -0.9366105476906706 0.35037220488300963 0
vn 0.9366105476906706 -0.35037220488300963 0
vn 0.9999953700613551 0.0030430011261023343 0
vn -0.9999953700613551 -0.0030430011261023343 0
vn -0.941036572584109 0.33830484634298863 0
vn 0.941036572584109 -0.33830484634298863 0
usemtl material_0_0
f 1//1 2//1 3//1
f 2//1 1//1 4//1
f 3//2 2//2 1//2
f 4//2 1//2 2//2
f 5//1 3//1 2//1
f 2//2 3//2 5//2
f 3//3 6//3 1//4
f 1//5 6//6 3//6
f 1//1 7//1 4//1
f 4//2 7//2 1//2
f 8//1 2//1 4//1
f 4//2 2//2 8//2
f 9//1 3//1 5//1
f 5//2 3//2 9//2
f 2//7 10//7 5//8
f 5//9 10//10 2//10
f 6//3 3//3 11//11
f 11//12 3//6 6//6
f 12//4 1//4 6//3
f 6//6 1//5 12//5
f 1//4 12//4 7//13
f 7//14 12//5 1//5
f 7//1 13//1 4//1
f 4//2 13//2 7//2
f 8//15 14//15 2//7
f 2//10 14//16 8//16
f 15//1 8//1 4//1
f 4//2 8//2 15//2
f 9//11 11//11 3//3
f 3//6 11//12 9//12
f 5//8 16//8 9//11
f 9//12 16//9 5//9
f 10//7 2//7 14//15
f 14//16 2//10 10//10
f 16//8 5//8 10//7
f 10//10 5//9 16//9
f 11//2 16//2 6//2
f 6//1 16//1 11//1
f 12//2 6//2 10//2
f 10//1 6//1 12//1
f 17//13 7//13 12//4
f 12//5 7//14 17//14
f 7//13 17//13 13//17
f 13//18 17//14 7//14
f 13//1 18//1 4//1
f 4//2 18//2 13//2
f 14//15 8//15 19//19
f 19//20 8//16 14//16
f 20//1 8//1 15//1
f 15//2 8//2 20//2
f 4//21 21//21 15//22
f 15//23 21//24 4//24
f 11//11 9//11 16//8
f 16//9 9//12 11//12
f 14//2 21//2 10//2
f 10//1 21//1 14//1
f 16//2 10//2 6//2
f 6//1 10//1 16//1
f 10//2 21//2 12//2
f 12//1 21//1 10//1
f 12//2 21//2 17//2
f 17//1 21//1 12//1
f 22//17 13//17 17//13
f 17//14 13//18 22//18
f 18//25 13//17 23//25
f 23//26 13//18 18//26
f 4//1 18//1 24//1
f 24//2 18//2 4//2
f 20//19 19//19 8//15
f 8//16 19//20 20//20
f 19//2 25//2 14//2
f 14//1 25//1 19//1
f 26//1 20//1 15//1
f 15//2 20//2 26//2
f 21//21 4//21 27//27
f 27//28 4//24 21//24
f 25//22 15//22 21//21
f 21//24 15//23 25//23
f 25//2 21//2 14//2
f 14//1 21//1 25//1
f 17//2 21//2 22//2
f 22//1 21//1 17//1
f 22//17 23//25 13//17
f 13//18 23//26 22//18
f 23//25 28//29 18//25
f 18//26 28//30 23//26
f 18//1 29//1 24//1
f 24//2 29//2 18//2
f 24//27 27//27 4//21
f 4//24 27//28 24//28
f 19//19 20//19 30//31
f 30//32 20//20 19//20
f 30//2 25//2 19//2
f 19//1 25//1 30//1
f 26//31 30//31 20//19
f 20//20 30//32 26//32
f 31//1 26//1 15//1
f 15//2 26//2 31//2
f 21//2 27//2 23//2
f 23//1 27//1 21//1
f 15//22 25//22 32//33
f 32//34 25//23 15//23
f 22//2 21//2 23//2
f 23//1 21//1 22//1
f 23//2 27//2 28//2
f 28//1 27//1 23//1
f 29//29 18//25 28//29
f 28//30 18//26 29//30
f 29//1 33//1 24//1
f 24//2 33//2 29//2
f 27//27 24//27 34//35
f 34//36 24//28 27//28
f 35//2 25//2 30//2
f 30//1 25//1 35//1
f 30//31 26//31 35//37
f 35//38 26//32 30//32
f 31//37 35//37 26//31
f 26//32 35//38 31//38
f 32//1 31//1 15//1
f 15//2 31//2 32//2
f 36//33 32//33 25//22
f 25//23 32//34 36//34
f 28//2 27//2 37//2
f 37//1 27//1 28//1
f 28//29 37//39 29//29
f 29//30 37//40 28//30
f 33//39 29//29 37//39
f 37//40 29//30 33//40
f 24//1 33//1 38//1
f 38//2 33//2 24//2
f 38//35 34//35 24//27
f 24//28 34//36 38//36
f 27//2 34//2 37//2
f 37//1 34//1 27//1
f 36//2 25//2 35//2
f 35//1 25//1 36//1
f 35//37 31//37 39//41
f 39//42 31//38 35//38
f 40//1 31//1 32//1
f 32//2 31//2 40//2
f 36//33 41//43 32//33
f 32//34 41//44 36//34
f 37//39 42//45 33//39
f 33//40 42//46 37//40
f 33//1 43//1 38//1
f 38//2 43//2 33//2
f 34//35 38//35 44//47
f 44//48 38//36 34//36
f 37//2 34//2 42//2
f 42//1 34//1 37//1
f 39//2 36//2 35//2
f 35//1 36//1 39//1
f 40//41 39//41 31//37
f 31//38 39//42 40//42
f 45//1 40//1 32//1
f 32//2 40//2 45//2
f 41//2 36//2 39//2
f 39//1 36//1 41//1
f 45//43 32//33 41//43
f 41//44 32//34 45//44
f 43//45 33//39 42//45
f 42//46 33//40 43//46
f 38//1 43//1 46//1
f 46//2 43//2 38//2
f 46//47 44//47 38//35
f 38//36 44//48 46//48
f 34//2 44//2 42//2
f 42//1 44//1 34//1
f 39//41 40//41 47//49
f 47//50 40//42 39//42
f 48//1 40//1 45//1
f 45//2 40//2 48//2
f 47//2 41//2 39//2
f 39//1 41//1 47//1
f 41//43 49//51 45//43
f 45//44 49//52 41//44
f 42//45 50//53 43//45
f 43//46 50//54 42//46
f 43//1 51//1 46//1
f 46//2 51//2 43//2
f 44//47 46//47 52//55
f 52//56 46//48 44//48
f 42//2 44//2 50//2
f 50//1 44//1 42//1
f 48//49 47//49 40//41
f 40//42 47//50 48//50
f 53//1 48//1 45//1
f 45//2 48//2 53//2
f 54//2 41//2 47//2
f 47//1 41//1 54//1
f 49//2 41//2 54//2
f 54//1 41//1 49//1
f 55//51 45//43 49//51
f 49//52 45//44 55//52
f 51//53 43//45 50//53
f 50//54 43//46 51//54
f 46//1 51//1 56//1
f 56//2 51//2 46//2
f 56//55 52//55 46//47
f 46//48 52//56 56//56
f 44//2 52//2 50//2
f 50//1 52//1 44//1
f 47//49 48//49 54//57
f 54//58 48//50 47//50
f 53//57 54//57 48//49
f 48//50 54//58 53//58
f 55//1 53//1 45//1
f 45//2 53//2 55//2
f 57//2 49//2 54//2
f 54//1 49//1 57//1
f 49//51 58//59 55//51
f 55//52 58//60 49//52
f 50//53 59//61 51//53
f 51//54 59//62 50//54
f 51//1 60//1 56//1
f 56//2 60//2 51//2
f 52//55 56//55 61//63
f 61//64 56//56 52//56
f 50//2 52//2 59//2
f 59//1 52//1 50//1
f 53//57 62//65 54//57
f 54//58 62//66 53//58
f 62//1 53//1 55//1
f 55//2 53//2 62//2
f 58//2 49//2 57//2
f 57//1 49//1 58//1
f 57//65 54//57 62//65
f 62//66 54//58 57//66
f 63//59 55//51 58//59
f 58//60 55//52 63//60
f 60//61 51//53 59//61
f 59//62 51//54 60//62
f 56//1 60//1 64//1
f 64//2 60//2 56//2
f 64//63 61//63 56//55
f 56//56 61//64 64//64
f 52//2 61//2 59//2
f 59//1 61//1 52//1
f 63//1 62//1 55//1
f 55//2 62//2 63//2
f 65//2 58//2 57//2
f 57//1 58//1 65//1
f 62//65 66//67 57//65
f 57//66 66//68 62//66
f 58//59 67//69 63//59
f 63//60 67//70 58//60
f 59//61 68//71 60//61
f 60//62 68//72 59//62
f 60//1 69//1 64//1
f 64//2 69//2 60//2
f 61//63 64//63 70//73
f 70//74 64//64 61//64
f 59//2 61//2 68//2
f 68//1 61//1 59//1
f 66//1 62//1 63//1
f 63//2 62//2 66//2
f 67//2 58//2 65//2
f 65//1 58//1 67//1
f 65//67 57//65 66//67
f 66//68 57//66 65//68
f 71//69 63//59 67//69
f 67//70 63//60 71//70
f 69//71 60//61 68//71
f 68//72 60//62 69//72
f 64//1 69//1 72//1
f 72//2 69//2 64//2
f 72//73 70//73 64//63
f 64//64 70//74 72//74
f 61//2 70//2 68//2
f 68//1 70//1 61//1
f 71//1 66//1 63//1
f 63//2 66//2 71//2
f 73//2 67//2 65//2
f 65//1 67//1 73//1
f 66//67 74//75 65//67
f 65//68 74//76 66//68
f 67//69 75//77 71//69
f 71//70 75//78 67//70
f 69//79 68//79 76//80
f 76//81 68//82 69//82
f 69//1 76//1 72//1
f 72//2 76//2 69//2
f 70//73 72//73 77//83
f 77//84 72//74 70//74
f 68//2 70//2 78//2
f 78//1 70//1 68//1
f 74//1 66//1 71//1
f 71//2 66//2 74//2
f 75//2 67//2 73//2
f 73//1 67//1 75//1
f 73//75 65//67 74//75
f 74//76 65//68 73//76
f 79//77 71//69 75//77
f 75//78 71//70 79//78
f 78//80 76//80 68//79
f 68//82 76//81 78//81
f 72//1 76//1 80//1
f 80//2 76//2 72//2
f 80//83 77//83 72//73
f 72//74 77//84 80//84
f 70//2 77//2 78//2
f 78//1 77//1 70//1
f 79//1 74//1 71//1
f 71//2 74//2 79//2
f 81//2 75//2 73//2
f 73//1 75//1 81//1
f 74//75 82//85 73//75
f 73//76 82//86 74//76
f 75//77 83//87 79//77
f 79//78 83//88 75//78
f 76//80 78//80 84//89
f 84//90 78//81 76//81
f 76//1 84//1 80//1
f 80//2 84//2 76//2
f 77//83 80//83 85//91
f 85//92 80//84 77//84
f 78//2 77//2 86//2
f 86//1 77//1 78//1
f 82//1 74//1 79//1
f 79//2 74//2 82//2
f 87//2 75//2 81//2
f 81//1 75//1 87//1
f 81//85 73//75 82//85
f 82//86 73//76 81//86
f 83//2 75//2 88//2
f 88//1 75//1 83//1
f 89//87 79//77 83//87
f 83//88 79//78 89//88
f 86//89 84//89 78//80
f 78//81 84//90 86//90
f 80//1 84//1 90//1
f 90//2 84//2 80//2
f 90//91 85//91 80//83
f 80//84 85//92 90//92
f 77//2 85//2 86//2
f 86//1 85//1 77//1
f 91//1 82//1 79//1
f 79//2 82//2 91//2
f 92//2 75//2 87//2
f 87//1 75//1 92//1
f 81//93 82//93 87//94
f 87//95 82//96 81//96
f 88//2 75//2 93//2
f 93//1 75//1 88//1
f 88//97 94//97 83//98
f 83//99 94//100 88//100
f 89//1 94//1 79//1
f 79//2 94//2 89//2
f 89//98 83//98 94//97
f 94//100 83//99 89//99
f 84//89 86//89 95//101
f 95//102 86//90 84//90
f 84//1 95//1 90//1
f 90//2 95//2 84//2
f 85//91 90//91 96//103
f 96//104 90//92 85//92
f 86//2 85//2 97//2
f 97//1 85//1 86//1
f 91//94 87//94 82//93
f 82//96 87//95 91//95
f 98//1 91//1 79//1
f 79//2 91//2 98//2
f 99//2 75//2 92//2
f 92//1 75//1 99//1
f 87//94 91//94 92//105
f 92//106 91//95 87//95
f 93//2 75//2 100//2
f 100//1 75//1 93//1
f 93//107 101//107 88//97
f 88//100 101//108 93//108
f 94//97 88//97 101//107
f 101//108 88//100 94//100
f 94//1 101//1 79//1
f 79//2 101//2 94//2
f 97//101 95//101 86//89
f 86//90 95//102 97//102
f 90//1 95//1 102//1
f 102//2 95//2 90//2
f 102//103 96//103 90//91
f 90//92 96//104 102//104
f 85//2 96//2 97//2
f 97//1 96//1 85//1
f 98//105 92//105 91//94
f 91//95 92//106 98//106
f 103//1 98//1 79//1
f 79//2 98//2 103//2
f 104//2 75//2 99//2
f 99//1 75//1 104//1
f 92//105 98//105 99//109
f 99//110 98//106 92//106
f 100//2 75//2 105//2
f 105//1 75//1 100//1
f 100//111 106//111 93//107
f 93//108 106//112 100//112
f 101//107 93//107 106//111
f 106//112 93//108 101//108
f 101//1 106//1 79//1
f 79//2 106//2 101//2
f 95//101 97//101 107//113
f 107//114 97//102 95//102
f 95//1 107//1 102//1
f 102//2 107//2 95//2
f 96//103 102//103 108//115
f 108//116 102//104 96//104
f 97//2 96//2 109//2
f 109//1 96//1 97//1
f 103//109 99//109 98//105
f 98//106 99//110 103//110
f 110//1 103//1 79//1
f 79//2 103//2 110//2
f 111//2 75//2 104//2
f 104//1 75//1 111//1
f 99//109 103//109 104//117
f 104//118 103//110 99//110
f 105//2 75//2 112//2
f 112//1 75//1 105//1
f 105//119 113//119 100//111
f 100//112 113//120 105//120
f 106//111 100//111 113//119
f 113//120 100//112 106//112
f 106//1 113//1 79//1
f 79//2 113//2 106//2
f 109//113 107//113 97//101
f 97//102 107//114 109//114
f 102//1 107//1 114//1
f 114//2 107//2 102//2
f 114//115 108//115 102//103
f 102//104 108//116 114//116
f 96//2 108//2 109//2
f 109//1 108//1 96//1
f 110//117 104//117 103//109
f 103//110 104//118 110//118
f 115//1 110//1 79//1
f 79//2 110//2 115//2
f 116//2 75//2 111//2
f 111//1 75//1 116//1
f 104//117 110//117 111//121
f 111//122 110//118 104//118
f 112//2 75//2 116//2
f 116//1 75//1 112//1
f 112//123 117//123 105//119
f 105//120 117//124 112//124
f 113//119 105//119 117//123
f 117//124 105//120 113//120
f 113//1 117//1 79//1
f 79//2 117//2 113//2
f 107//113 109//113 118//125
f 118//126 109//114 107//114
f 118//1 114//1 107//1
f 107//2 114//2 118//2
f 108//115 114//115 119//125
f 119//126 114//116 108//116
f 119//2 109//2 108//2
f 108//1 109//1 119//1
f 115//121 111//121 110//117
f 110//118 111//122 115//122
f 120//1 115//1 79//1
f 79//2 115//2 120//2
f 111//121 115//121 116//127
f 116//128 115//122 111//122
f 116//127 120//127 112//123
f 112//124 120//128 116//128
f 117//123 112//123 120//127
f 120//128 112//124 117//124
f 117//1 120//1 79//1
f 79//2 120//2 117//2
f 119//125 118//125 109//113
f 109//114 118//126 119//126
f 118//125 119//125 114//115
f 114//116 119//126 118//126
f 120//127 116//127 115//121
f 115//122 116//128 120//128
