# SSTK version 0.8.0
# 43
mtllib original-43.mtl
o Group43/mesh82/mesh82-geometry#mesh82-geometry
v -0.240206 0.706895 -0.033902
v -0.235828 0.696515 -0.033902
v -0.245565 0.704346 -0.033902
v -0.234872 0.709495 -0.033902
v -0.235828 0.696515 0.020820
v -0.245565 0.704346 0.020820
v -0.240206 0.706895 0.020820
v -0.224925 0.690411 -0.033902
v -0.224925 0.690411 0.020820
v -0.234872 0.709495 0.020820
v -0.229563 0.712146 -0.033902
v -0.224279 0.714848 -0.033902
v -0.213159 0.686205 0.020820
v -0.229563 0.712146 0.020820
v -0.213159 0.686205 -0.033902
v -0.224279 0.714848 0.020820
v -0.219022 0.717601 -0.033902
v -0.200857 0.684013 0.020820
v -0.219022 0.717601 0.020820
v -0.213792 0.720404 -0.033902
v -0.200857 0.684013 -0.033902
v -0.208588 0.723257 0.020820
v -0.213792 0.720404 0.020820
v -0.208588 0.723257 -0.033902
v -0.188362 0.683896 0.020820
v -0.203413 0.726160 0.020820
v -0.203413 0.726160 -0.033902
v -0.188362 0.683896 -0.033902
v -0.198265 0.729112 0.020820
v -0.198265 0.729112 -0.033902
v -0.176022 0.685858 0.020820
v -0.193146 0.732114 0.020820
v -0.193146 0.732114 -0.033902
v -0.176022 0.685858 -0.033902
v -0.188056 0.735165 0.020820
v -0.188056 0.735165 -0.033902
v -0.164179 0.689844 0.020820
v -0.182996 0.738264 0.020820
v -0.182996 0.738264 -0.033902
v -0.164179 0.689844 -0.033902
v -0.172983 0.739790 0.020820
v -0.178005 0.739134 0.020820
v -0.178005 0.739134 -0.033902
v -0.172983 0.739790 -0.033902
v -0.153164 0.695743 0.020820
v -0.167936 0.740230 0.020820
v -0.167936 0.740230 -0.033902
v -0.153164 0.695743 -0.033902
v -0.162876 0.740455 0.020820
v -0.162876 0.740455 -0.033902
v -0.143283 0.703392 0.020820
v -0.157810 0.740462 0.020820
v -0.157810 0.740462 -0.033902
v -0.143283 0.703392 -0.033902
v -0.152749 0.740253 0.020820
v -0.152749 0.740253 -0.033902
v -0.134811 0.712576 -0.033902
v -0.147702 0.739827 0.020820
v -0.147702 0.739827 -0.033902
v -0.134811 0.712576 0.020820
v -0.142677 0.739186 -0.033902
v -0.142677 0.739186 0.020820
v -0.127983 0.723041 -0.033902
v -0.137684 0.738331 -0.033902
v -0.127983 0.723041 0.020820
v -0.132733 0.737262 -0.033902
v -0.137684 0.738331 0.020820
v -0.122989 0.734495 -0.033902
v -0.132733 0.737262 0.020820
v -0.127832 0.735983 -0.033902
v -0.122989 0.734495 0.020820
v -0.127832 0.735983 0.020820
vn 0 0 -1
vn 0 0 1
vn -0.5595592410075327 -0.828790356967957 0
vn -0.6267358359456491 -0.7792317960283118 0
vn 0.5595592410075327 0.828790356967957 0
vn 0.6267358359456491 0.7792317960283118 0
vn -0.42950316724126436 0.9030653516383643 0
vn -0.4338331175822397 0.9009932441971331 0
vn 0.42950316724126436 -0.9030653516383643 0
vn 0.4338331175822397 -0.9009932441971331 0
vn -0.44246290492844825 0.896786807308336 0
vn 0.44246290492844825 -0.896786807308336 0
vn -0.4140040232585397 -0.9102750511387987 0
vn 0.4140040232585397 0.9102750511387987 0
vn -0.45105186768214983 0.892497738182257 0
vn 0.45105186768214983 -0.892497738182257 0
vn -0.25692788760113927 -0.9664305772132918 0
vn 0.25692788760113927 0.9664305772132918 0
vn -0.45959922229050304 0.8881264295526651 0
vn 0.45959922229050304 -0.8881264295526651 0
vn -0.0927029820228077 -0.9956938069125865 0
vn 0.0927029820228077 0.9956938069125865 0
vn -0.46810415781081105 0.88367329791062 0
vn 0.46810415781081105 -0.88367329791062 0
vn -0.4765658728338943 0.8791387654119618 0
vn 0.4765658728338943 -0.8791387654119618 0
vn 0.07410197542019357 -0.9972506692095147 0
vn -0.07410197542019357 0.9972506692095147 0
vn -0.4849840102368001 0.8745230184589948 0
vn 0.4849840102368001 -0.8745230184589948 0
vn -0.49335696561844755 0.8698269393826324 0
vn 0.49335696561844755 -0.8698269393826324 0
vn 0.2388449315244816 -0.971057721603132 0
vn -0.2388449315244816 0.971057721603132 0
vn -0.5016851651234282 0.8650502847205349 0
vn 0.5016851651234282 -0.8650502847205349 0
vn -0.5099669850260946 0.8601939747425549 0
vn 0.5099669850260946 -0.8601939747425549 0
vn 0.3969418889158279 -0.9178437431414642 0
vn -0.3969418889158279 0.9178437431414642 0
vn -0.5182009395047077 0.8552589001562266 0
vn 0.5182009395047077 -0.8552589001562266 0
vn -0.5223010893860938 0.8527611459407022 0
vn 0.5223010893860938 -0.8527611459407022 0
vn 0.5439928878969491 -0.8390898270850012 0
vn -0.5439928878969491 0.8390898270850012 0
vn -0.1506709943274632 0.9885839627812975 0
vn -0.17178701964169948 0.9851341126377781 0
vn 0.1506709943274632 -0.9885839627812975 0
vn 0.17178701964169948 -0.9851341126377781 0
vn -0.10824096592001253 0.9941246869969093 0
vn 0.10824096592001253 -0.9941246869969093 0
vn -0.06561201382546976 0.9978452102614744 0
vn 0.06561201382546976 -0.9978452102614744 0
vn 0.6759069625486722 -0.7369869591642907 0
vn -0.6759069625486722 0.7369869591642907 0
vn -0.02286399050439237 0.9997385848001541 0
vn 0.02286399050439237 -0.9997385848001541 0
vn 0.019927008718765668 0.9998014374482176 0
vn -0.019927008718765668 -0.9998014374482176 0
vn 0.78901275844457 -0.6143768119091821 0
vn -0.78901275844457 0.6143768119091821 0
vn 0.06268097577640881 0.9980336143015011 0
vn -0.06268097577640881 -0.9980336143015011 0
vn 0.10532004011409385 0.9944383787597728 0
vn -0.10532004011409385 -0.9944383787597728 0
vn 0.8801632355273123 -0.47467112701963715 0
vn -0.8801632355273123 0.47467112701963715 0
vn 0.14776605118321368 0.9890223425776182 0
vn -0.14776605118321368 -0.9890223425776182 0
vn 0.1899420583702482 0.9817953017111424 0
vn -0.1899420583702482 -0.9817953017111424 0
vn 0.9166869948642611 -0.3996059977612074 0
vn -0.9166869948642611 0.3996059977612074 0
vn 0.23176991293089727 0.972770634558838 0
vn -0.23176991293089727 -0.972770634558838 0
vn 0.27317297962757947 0.9619649282595442 0
vn -0.27317297962757947 -0.9619649282595442 0
vn 0.29369202924232946 0.9559000951770654 0
vn -0.29369202924232946 -0.9559000951770654 0
usemtl material_0_0
f 1//1 2//1 3//1
f 2//1 1//1 4//1
f 3//2 2//2 1//2
f 4//2 1//2 2//2
f 5//3 3//4 2//3
f 2//5 3//6 5//5
f 6//7 1//8 3//7
f 3//9 1//10 6//9
f 7//8 4//11 1//8
f 1//10 4//12 7//10
f 2//1 4//1 8//1
f 8//2 4//2 2//2
f 3//4 5//3 6//4
f 6//6 5//5 3//6
f 2//3 9//13 5//3
f 5//5 9//14 2//5
f 1//8 6//7 7//8
f 7//10 6//9 1//10
f 4//11 7//8 10//11
f 10//12 7//10 4//12
f 8//1 4//1 11//1
f 11//2 4//2 8//2
f 9//13 2//3 8//13
f 8//14 2//5 9//14
f 5//2 7//2 6//2
f 6//1 7//1 5//1
f 10//2 5//2 9//2
f 9//1 5//1 10//1
f 7//2 5//2 10//2
f 10//1 5//1 7//1
f 10//11 11//15 4//11
f 4//12 11//16 10//12
f 8//1 11//1 12//1
f 12//2 11//2 8//2
f 8//13 13//17 9//13
f 9//14 13//18 8//14
f 10//2 9//2 14//2
f 14//1 9//1 10//1
f 11//15 10//11 14//15
f 14//16 10//12 11//16
f 14//15 12//19 11//15
f 11//16 12//20 14//16
f 8//1 12//1 15//1
f 15//2 12//2 8//2
f 13//17 8//13 15//17
f 15//18 8//14 13//18
f 16//2 9//2 13//2
f 13//1 9//1 16//1
f 14//2 9//2 16//2
f 16//1 9//1 14//1
f 12//19 14//15 16//19
f 16//20 14//16 12//20
f 15//1 12//1 17//1
f 17//2 12//2 15//2
f 15//17 18//21 13//17
f 13//18 18//22 15//18
f 16//2 13//2 19//2
f 19//1 13//1 16//1
f 16//19 17//23 12//19
f 12//20 17//24 16//20
f 15//1 17//1 20//1
f 20//2 17//2 15//2
f 18//21 15//17 21//21
f 21//22 15//18 18//22
f 22//2 13//2 18//2
f 18//1 13//1 22//1
f 19//2 13//2 23//2
f 23//1 13//1 19//1
f 17//23 16//19 19//23
f 19//24 16//20 17//24
f 19//23 20//25 17//23
f 17//24 20//26 19//24
f 15//1 20//1 24//1
f 24//2 20//2 15//2
f 15//1 24//1 21//1
f 21//2 24//2 15//2
f 21//21 25//27 18//21
f 18//22 25//28 21//22
f 23//2 13//2 22//2
f 22//1 13//1 23//1
f 22//2 18//2 26//2
f 26//1 18//1 22//1
f 20//25 19//23 23//25
f 23//26 19//24 20//26
f 23//25 24//29 20//25
f 20//26 24//30 23//26
f 21//1 24//1 27//1
f 27//2 24//2 21//2
f 25//27 21//21 28//27
f 28//28 21//22 25//28
f 29//2 18//2 25//2
f 25//1 18//1 29//1
f 24//29 23//25 22//29
f 22//30 23//26 24//30
f 26//2 18//2 29//2
f 29//1 18//1 26//1
f 27//31 22//29 26//31
f 26//32 22//30 27//32
f 22//29 27//31 24//29
f 24//30 27//32 22//30
f 21//1 27//1 30//1
f 30//2 27//2 21//2
f 21//1 30//1 28//1
f 28//2 30//2 21//2
f 28//27 31//33 25//27
f 25//28 31//34 28//28
f 29//2 25//2 32//2
f 32//1 25//1 29//1
f 30//35 26//31 29//35
f 29//36 26//32 30//36
f 26//31 30//35 27//31
f 27//32 30//36 26//32
f 28//1 30//1 33//1
f 33//2 30//2 28//2
f 31//33 28//27 34//33
f 34//34 28//28 31//34
f 35//2 25//2 31//2
f 31//1 25//1 35//1
f 32//2 25//2 35//2
f 35//1 25//1 32//1
f 33//37 29//35 32//37
f 32//38 29//36 33//38
f 29//35 33//37 30//35
f 30//36 33//38 29//36
f 28//1 33//1 36//1
f 36//2 33//2 28//2
f 28//1 36//1 34//1
f 34//2 36//2 28//2
f 34//33 37//39 31//33
f 31//34 37//40 34//34
f 35//2 31//2 38//2
f 38//1 31//1 35//1
f 36//41 32//37 35//41
f 35//42 32//38 36//42
f 32//37 36//41 33//37
f 33//38 36//42 32//38
f 34//1 36//1 39//1
f 39//2 36//2 34//2
f 37//39 34//33 40//39
f 40//40 34//34 37//40
f 41//2 31//2 37//2
f 37//1 31//1 41//1
f 38//2 31//2 42//2
f 42//1 31//1 38//1
f 39//43 35//41 38//43
f 38//44 35//42 39//44
f 35//41 39//43 36//41
f 36//42 39//44 35//42
f 34//1 39//1 43//1
f 43//2 39//2 34//2
f 34//1 44//1 40//1
f 40//2 44//2 34//2
f 40//39 45//45 37//39
f 37//40 45//46 40//40
f 42//2 31//2 41//2
f 41//1 31//1 42//1
f 41//2 37//2 46//2
f 46//1 37//1 41//1
f 43//47 38//48 42//47
f 42//49 38//50 43//49
f 38//48 43//47 39//48
f 39//50 43//49 38//50
f 34//1 43//1 44//1
f 44//2 43//2 34//2
f 40//1 44//1 47//1
f 47//2 44//2 40//2
f 45//45 40//39 48//45
f 48//46 40//40 45//46
f 49//2 37//2 45//2
f 45//1 37//1 49//1
f 44//51 42//47 41//51
f 41//52 42//49 44//52
f 46//2 37//2 49//2
f 49//1 37//1 46//1
f 47//53 41//51 46//53
f 46//54 41//52 47//54
f 42//47 44//51 43//47
f 43//49 44//52 42//49
f 41//51 47//53 44//51
f 44//52 47//54 41//52
f 40//1 47//1 50//1
f 50//2 47//2 40//2
f 40//1 50//1 48//1
f 48//2 50//2 40//2
f 48//45 51//55 45//45
f 45//46 51//56 48//46
f 49//2 45//2 52//2
f 52//1 45//1 49//1
f 50//57 46//53 49//57
f 49//58 46//54 50//58
f 46//53 50//57 47//53
f 47//54 50//58 46//54
f 48//1 50//1 53//1
f 53//2 50//2 48//2
f 51//55 48//45 54//55
f 54//56 48//46 51//56
f 55//2 45//2 51//2
f 51//1 45//1 55//1
f 52//2 45//2 55//2
f 55//1 45//1 52//1
f 53//59 49//57 52//59
f 52//60 49//58 53//60
f 49//57 53//59 50//57
f 50//58 53//60 49//58
f 48//1 53//1 56//1
f 56//2 53//2 48//2
f 48//1 56//1 54//1
f 54//2 56//2 48//2
f 57//61 51//55 54//55
f 54//56 51//56 57//62
f 55//2 51//2 58//2
f 58//1 51//1 55//1
f 56//63 52//59 55//63
f 55//64 52//60 56//64
f 52//59 56//63 53//59
f 53//60 56//64 52//60
f 54//1 56//1 59//1
f 59//2 56//2 54//2
f 51//55 57//61 60//61
f 60//62 57//62 51//56
f 54//1 61//1 57//1
f 57//2 61//2 54//2
f 58//2 51//2 62//2
f 62//1 51//1 58//1
f 59//65 55//63 58//65
f 58//66 55//64 59//66
f 55//63 59//65 56//63
f 56//64 59//66 55//64
f 54//1 59//1 61//1
f 61//2 59//2 54//2
f 63//67 60//61 57//61
f 57//62 60//62 63//68
f 62//2 51//2 60//2
f 60//1 51//1 62//1
f 57//1 61//1 64//1
f 64//2 61//2 57//2
f 61//69 58//65 62//69
f 62//70 58//66 61//70
f 58//65 61//69 59//65
f 59//66 61//70 58//66
f 60//61 63//67 65//67
f 65//68 63//68 60//62
f 57//1 66//1 63//1
f 63//2 66//2 57//2
f 62//2 60//2 67//2
f 67//1 60//1 62//1
f 62//69 64//71 61//69
f 61//70 64//72 62//70
f 57//1 64//1 66//1
f 66//2 64//2 57//2
f 68//73 65//67 63//67
f 63//68 65//68 68//74
f 69//2 60//2 65//2
f 65//1 60//1 69//1
f 63//1 66//1 70//1
f 70//2 66//2 63//2
f 67//2 60//2 69//2
f 69//1 60//1 67//1
f 64//71 62//69 67//71
f 67//72 62//70 64//72
f 67//71 66//75 64//71
f 64//72 66//76 67//72
f 65//67 68//73 71//73
f 71//74 68//74 65//68
f 63//1 70//1 68//1
f 68//2 70//2 63//2
f 69//2 65//2 72//2
f 72//1 65//1 69//1
f 69//75 70//77 66//75
f 66//76 70//78 69//76
f 66//75 67//71 69//75
f 69//76 67//72 66//76
f 68//79 72//77 71//79
f 71//80 72//78 68//80
f 72//2 65//2 71//2
f 71//1 65//1 72//1
f 72//77 68//79 70//77
f 70//78 68//80 72//78
f 70//77 69//75 72//77
f 72//78 69//76 70//78
