# SSTK version 0.8.0
# 6
mtllib original-6.mtl
o Group6/mesh11/mesh11-geometry#mesh11-geometry
v 0.063213 0.402819 -0.033902
v 0.010269 0.000671 -0.033902
v 0.010269 0.409789 -0.033902
v 0.063213 0.007641 -0.033902
v -0.042675 0.007641 -0.033902
v 0.010269 0.000671 0.002579
v 0.010269 0.409789 0.002579
v 0.112548 0.382383 -0.033902
v 0.063213 0.007641 0.002579
v -0.042675 0.402819 -0.033902
v -0.042675 0.007641 0.002579
v 0.063213 0.402819 0.002579
v -0.042675 0.402819 0.002579
v 0.112548 0.028076 -0.033902
v 0.112548 0.028076 0.002579
v -0.092011 0.382383 -0.033902
v -0.092011 0.028076 -0.033902
v 0.112548 0.382383 0.002579
v 0.154914 0.349875 -0.033902
v -0.092011 0.382383 0.002579
v -0.092011 0.028076 0.002579
v 0.154914 0.060584 -0.033902
v 0.154914 0.060584 0.002579
v -0.134376 0.349875 -0.033902
v -0.134376 0.349875 0.002579
v -0.134376 0.060584 -0.033902
v 0.154914 0.349875 0.002579
v 0.187422 0.307509 -0.033902
v -0.134376 0.060584 0.002579
v 0.187422 0.307509 0.002579
v 0.187422 0.102950 -0.033902
v -0.166884 0.102950 -0.033902
v -0.166884 0.307509 -0.033902
v -0.166884 0.102950 0.002579
v 0.207858 0.258173 0.002579
v 0.207858 0.152286 -0.033902
v 0.187422 0.102950 0.002579
v -0.166884 0.307509 0.002579
v 0.207858 0.258173 -0.033902
v 0.207858 0.152286 0.002579
v -0.187320 0.152286 -0.033902
v -0.187320 0.152286 0.002579
v -0.187320 0.258173 -0.033902
v 0.214828 0.205230 0.002579
v 0.214828 0.205230 -0.033902
v -0.187320 0.258173 0.002579
v -0.194290 0.205230 -0.033902
v -0.194290 0.205230 0.002579
vn 0 0 -1
vn 0 0 1
vn 1 0 0
vn -1 0 0
vn 0.1305259853353411 0.9914448886106773 0
vn -0.1305259853353411 -0.9914448886106773 0
vn 0.1305259853353411 -0.9914448886106773 0
vn -0.1305259853353411 0.9914448886106773 0
vn 0.38268289803626016 0.9238797538373538 0
vn -0.38268289803626016 -0.9238797538373538 0
vn 0.38268289803626016 -0.9238797538373538 0
vn -0.38268289803626016 0.9238797538373538 0
vn 0.6087613233345314 0.7933534213778813 0
vn -0.6087613233345314 -0.7933534213778813 0
vn 0.6087613233345314 -0.7933534213778813 0
vn -0.6087613233345314 0.7933534213778813 0
vn 0.7933534213778813 0.6087613233345314 0
vn -0.7933534213778813 -0.6087613233345314 0
vn 0.7933534213778813 -0.6087613233345314 0
vn -0.7933534213778813 0.6087613233345314 0
vn 0.9238797538373538 0.38268289803626016 0
vn -0.9238797538373538 -0.38268289803626016 0
vn 0.9238797538373538 -0.38268289803626016 0
vn -0.9238797538373538 0.38268289803626016 0
vn 0.9914448886106773 0.1305259853353411 0
vn -0.9914448886106773 -0.1305259853353411 0
vn 0.9914448886106773 -0.1305259853353411 0
vn -0.9914448886106773 0.1305259853353411 0
usemtl material_0_0
f 1//1 2//1 3//1
f 2//1 1//1 4//1
f 3//2 2//2 1//2
f 4//2 1//2 2//2
f 5//1 3//1 2//1
f 2//2 3//2 5//2
f 3//3 6//3 2//3
f 2//4 6//4 3//4
f 7//5 1//5 3//5
f 3//6 1//6 7//6
f 4//1 1//1 8//1
f 8//2 1//2 4//2
f 9//7 2//7 4//7
f 4//8 2//8 9//8
f 5//1 10//1 3//1
f 3//2 10//2 5//2
f 2//6 11//6 5//6
f 5//5 11//5 2//5
f 6//3 3//3 7//3
f 7//4 3//4 6//4
f 2//7 9//7 6//7
f 6//8 9//8 2//8
f 11//6 2//6 6//6
f 6//5 2//5 11//5
f 1//5 7//5 12//5
f 12//6 7//6 1//6
f 3//8 13//8 7//8
f 7//7 13//7 3//7
f 12//9 8//9 1//9
f 1//10 8//10 12//10
f 4//1 8//1 14//1
f 14//2 8//2 4//2
f 4//11 15//11 9//11
f 9//12 15//12 4//12
f 5//1 16//1 10//1
f 10//2 16//2 5//2
f 13//8 3//8 10//8
f 10//7 3//7 13//7
f 11//10 17//10 5//10
f 5//9 17//9 11//9
f 9//2 7//2 6//2
f 6//1 7//1 9//1
f 13//2 6//2 7//2
f 7//1 6//1 13//1
f 13//2 11//2 6//2
f 6//1 11//1 13//1
f 7//2 9//2 12//2
f 12//1 9//1 7//1
f 8//9 12//9 18//9
f 18//10 12//10 8//10
f 14//1 8//1 19//1
f 19//2 8//2 14//2
f 15//11 4//11 14//11
f 14//12 4//12 15//12
f 12//2 9//2 15//2
f 15//1 9//1 12//1
f 17//1 16//1 5//1
f 5//2 16//2 17//2
f 20//12 10//12 16//12
f 16//11 10//11 20//11
f 10//12 20//12 13//12
f 13//11 20//11 10//11
f 17//10 11//10 21//10
f 21//9 11//9 17//9
f 20//2 11//2 13//2
f 13//1 11//1 20//1
f 12//2 15//2 18//2
f 18//1 15//1 12//1
f 18//13 19//13 8//13
f 8//14 19//14 18//14
f 14//1 19//1 22//1
f 22//2 19//2 14//2
f 14//15 23//15 15//15
f 15//16 23//16 14//16
f 17//1 24//1 16//1
f 16//2 24//2 17//2
f 16//16 25//16 20//16
f 20//15 25//15 16//15
f 20//2 21//2 11//2
f 11//1 21//1 20//1
f 21//14 26//14 17//14
f 17//13 26//13 21//13
f 18//2 15//2 27//2
f 27//1 15//1 18//1
f 19//13 18//13 27//13
f 27//14 18//14 19//14
f 22//1 19//1 28//1
f 28//2 19//2 22//2
f 23//15 14//15 22//15
f 22//16 14//16 23//16
f 27//2 15//2 23//2
f 23//1 15//1 27//1
f 26//1 24//1 17//1
f 17//2 24//2 26//2
f 25//16 16//16 24//16
f 24//15 16//15 25//15
f 25//2 21//2 20//2
f 20//1 21//1 25//1
f 26//14 21//14 29//14
f 29//13 21//13 26//13
f 30//17 19//17 27//17
f 27//18 19//18 30//18
f 19//17 30//17 28//17
f 28//18 30//18 19//18
f 22//1 28//1 31//1
f 31//2 28//2 22//2
f 31//19 23//19 22//19
f 22//20 23//20 31//20
f 27//2 23//2 30//2
f 30//1 23//1 27//1
f 32//1 24//1 26//1
f 26//2 24//2 32//2
f 33//20 25//20 24//20
f 24//19 25//19 33//19
f 25//2 29//2 21//2
f 21//1 29//1 25//1
f 34//18 26//18 29//18
f 29//17 26//17 34//17
f 35//21 28//21 30//21
f 30//22 28//22 35//22
f 31//1 28//1 36//1
f 36//2 28//2 31//2
f 23//19 31//19 37//19
f 37//20 31//20 23//20
f 30//2 23//2 37//2
f 37//1 23//1 30//1
f 32//1 33//1 24//1
f 24//2 33//2 32//2
f 26//18 34//18 32//18
f 32//17 34//17 26//17
f 25//20 33//20 38//20
f 38//19 33//19 25//19
f 25//2 34//2 29//2
f 29//1 34//1 25//1
f 28//21 35//21 39//21
f 39//22 35//22 28//22
f 30//2 40//2 35//2
f 35//1 40//1 30//1
f 36//1 28//1 39//1
f 39//2 28//2 36//2
f 36//23 37//23 31//23
f 31//24 37//24 36//24
f 30//2 37//2 40//2
f 40//1 37//1 30//1
f 41//1 33//1 32//1
f 32//2 33//2 41//2
f 42//22 32//22 34//22
f 34//21 32//21 42//21
f 43//24 38//24 33//24
f 33//23 38//23 43//23
f 38//2 34//2 25//2
f 25//1 34//1 38//1
f 44//25 39//25 35//25
f 35//26 39//26 44//26
f 35//2 40//2 44//2
f 44//1 40//1 35//1
f 36//1 39//1 45//1
f 45//2 39//2 36//2
f 37//23 36//23 40//23
f 40//24 36//24 37//24
f 41//1 43//1 33//1
f 33//2 43//2 41//2
f 32//22 42//22 41//22
f 41//21 42//21 32//21
f 46//2 42//2 34//2
f 34//1 42//1 46//1
f 38//24 43//24 46//24
f 46//23 43//23 38//23
f 46//2 34//2 38//2
f 38//1 34//1 46//1
f 39//25 44//25 45//25
f 45//26 44//26 39//26
f 40//27 45//27 44//27
f 44//28 45//28 40//28
f 45//27 40//27 36//27
f 36//28 40//28 45//28
f 43//1 41//1 47//1
f 47//2 41//2 43//2
f 48//26 41//26 42//26
f 42//25 41//25 48//25
f 42//2 46//2 48//2
f 48//1 46//1 42//1
f 47//28 46//28 43//28
f 43//27 46//27 47//27
f 41//26 48//26 47//26
f 47//25 48//25 41//25
f 46//28 47//28 48//28
f 48//27 47//27 46//27
