mtllib new-10.mtl
v -0.118288 -0.820611 0.197986
v -0.118288 -0.820611 0.199345
v -0.527453 -0.820611 0.197986
v -0.118288 0.840064 0.199345
v -0.527453 0.840064 0.197986
v -0.417548 0.173874 0.197986
v -0.118288 0.840064 0.197986
v -0.273496 0.173874 0.197986
v -0.273496 0.397434 0.197986
v -0.417548 0.491203 0.197986
v -0.273672 0.491634 0.197986
v -0.417548 0.397434 0.197986
v -0.273672 0.397864 0.197986
v -0.405328 0.444178 0.197986
v -0.405328 0.450972 0.197986
v -0.291762 0.450122 0.197986
v -0.291762 0.425934 0.197986
v -0.401062 0.439294 0.197986
v -0.394333 0.450972 0.197986
v -0.306710 0.450122 0.197986
v -0.298267 0.421474 0.197986
v -0.400781 0.439078 0.197986
v -0.401278 0.439576 0.197986
v -0.394333 0.444178 0.197986
v -0.376789 0.450972 0.197986
v -0.337256 0.450972 0.197986
v -0.298313 0.421123 0.197986
v -0.298313 0.421826 0.197986
v -0.400453 0.438942 0.197986
v -0.375465 0.397434 0.176224
v -0.401062 0.441216 0.197986
v -0.401278 0.440935 0.197986
v -0.401414 0.439903 0.197986
v -0.400781 0.441432 0.197986
v -0.372135 0.439078 0.197986
v -0.376789 0.444178 0.197986
v -0.365795 0.450972 0.197986
v -0.348250 0.450972 0.197986
v -0.306710 0.425934 0.197986
v -0.298449 0.420795 0.197986
v -0.298449 0.422154 0.197986
v -0.400101 0.438896 0.197986
v -0.401414 0.440607 0.197986
v -0.401460 0.440255 0.197986
v -0.400453 0.441568 0.197986
v -0.372417 0.439294 0.197986
v -0.365795 0.444178 0.197986
v -0.337256 0.444178 0.197986
v -0.300587 0.420513 0.197986
v -0.299978 0.422787 0.197986
v -0.298665 0.420513 0.197986
v -0.298665 0.422435 0.197986
v -0.399750 0.438942 0.197986
v -0.400101 0.441614 0.197986
v -0.398742 0.440255 0.197986
v -0.371807 0.438942 0.197986
v -0.372417 0.441216 0.197986
v -0.372633 0.439576 0.197986
v -0.372135 0.441432 0.197986
v -0.348250 0.444178 0.197986
v -0.300803 0.420795 0.197986
v -0.300305 0.422651 0.197986
v -0.299626 0.422833 0.197986
v -0.298946 0.420297 0.197986
v -0.298946 0.422651 0.197986
v -0.399422 0.439078 0.197986
v -0.399750 0.441568 0.197986
v -0.398789 0.439903 0.197986
v -0.398789 0.440607 0.197986
v -0.371456 0.438896 0.197986
v -0.372633 0.440935 0.197986
v -0.372768 0.439903 0.197986
v -0.371807 0.441568 0.197986
v -0.370097 0.440255 0.197986
v -0.343872 0.439078 0.197986
v -0.344153 0.439294 0.197986
v -0.343872 0.441432 0.197986
v -0.341834 0.440255 0.197986
v -0.300305 0.420297 0.197986
v -0.300803 0.422154 0.197986
v -0.300939 0.421123 0.197986
v -0.300587 0.422435 0.197986
v -0.299978 0.420162 0.197986
v -0.299626 0.420115 0.197986
v -0.299274 0.422787 0.197986
v -0.299274 0.420162 0.197986
v -0.399140 0.439294 0.197986
v -0.399422 0.441432 0.197986
v -0.398924 0.439576 0.197986
v -0.398924 0.440935 0.197986
v -0.371104 0.438942 0.197986
v -0.372768 0.440607 0.197986
v -0.372815 0.440255 0.197986
v -0.371456 0.441614 0.197986
v -0.370143 0.439903 0.197986
v -0.370143 0.440607 0.197986
v -0.343544 0.438942 0.197986
v -0.344369 0.439576 0.197986
v -0.344153 0.441216 0.197986
v -0.343544 0.441568 0.197986
v -0.341880 0.439903 0.197986
v -0.341880 0.440607 0.197986
v -0.300939 0.421826 0.197986
v -0.300985 0.421474 0.197986
v -0.399140 0.441216 0.197986
v -0.370776 0.439078 0.197986
v -0.371104 0.441568 0.197986
v -0.370279 0.439576 0.197986
v -0.370279 0.440935 0.197986
v -0.343192 0.438896 0.197986
v -0.344369 0.440935 0.197986
v -0.344505 0.439903 0.197986
v -0.343192 0.441614 0.197986
v -0.342016 0.439576 0.197986
v -0.342016 0.440935 0.197986
v -0.370495 0.439294 0.197986
v -0.370776 0.441432 0.197986
v -0.370495 0.441216 0.197986
v -0.342841 0.438942 0.197986
v -0.344505 0.440607 0.197986
v -0.344551 0.440255 0.197986
v -0.342841 0.441568 0.197986
v -0.342232 0.439294 0.197986
v -0.342232 0.441216 0.197986
v -0.342513 0.439078 0.197986
v -0.342513 0.441432 0.197986
vn 0.000000 -1.000000 0.000000
vn 0.000000 0.000000 -1.000000
vn 1.000000 0.000000 0.000000
vn 0.000000 0.000000 1.000000
vn -1.000000 0.000000 0.000000
vn 0.000000 1.000000 0.000000
usemtl material-0
f 6//4 3//4 1//4
f 3//4 6//4 5//4
f 6//4 1//4 8//4
f 7//4 9//4 1//4
f 10//4 5//4 6//4
f 8//4 1//4 9//4
f 5//4 10//4 7//4
f 7//4 11//4 9//4
f 10//4 6//4 12//4
f 7//4 10//4 11//4
f 9//4 11//4 13//4
f 24//4 15//4 14//4
f 15//4 24//4 19//4
f 20//4 17//4 16//4
f 17//4 20//4 39//4
f 47//4 25//4 36//4
f 25//4 47//4 37//4
f 38//4 48//4 26//4
f 48//4 38//4 60//4
usemtl material-1
f 4//5 1//5 2//5
f 2//3 1//3 4//3
f 1//2 3//2 6//2
f 1//5 4//5 7//5
f 7//3 4//3 1//3
f 5//2 6//2 3//2
f 8//2 1//2 6//2
f 1//2 9//2 7//2
f 6//2 5//2 10//2
f 9//2 1//2 8//2
f 7//2 10//2 5//2
f 9//2 11//2 7//2
f 12//2 6//2 10//2
f 11//2 10//2 7//2
f 13//2 11//2 9//2
f 10//2 14//2 12//2
f 11//2 15//2 10//2
f 13//2 16//2 11//2
f 13//2 9//2 17//2
f 18//2 12//2 14//2
f 14//2 10//2 15//2
f 19//2 15//2 11//2
f 16//2 20//2 11//2
f 16//2 13//2 17//2
f 17//2 9//2 21//2
f 22//2 12//2 18//2
f 23//2 18//2 14//2
f 14//2 15//2 24//2
f 19//2 24//2 15//2
f 25//2 19//2 11//2
f 20//2 26//2 11//2
f 16//2 17//2 20//2
f 21//2 9//2 27//2
f 21//2 28//2 17//2
f 9//2 12//2 29//2
f 9//6 30//6 12//6
f 29//2 12//2 22//2
f 22//2 18//2 31//2
f 18//2 23//2 32//2
f 33//2 23//2 14//2
f 24//2 34//2 14//2
f 19//2 35//2 24//2
f 36//2 19//2 25//2
f 37//2 25//2 11//2
f 26//2 38//2 11//2
f 39//2 26//2 20//2
f 39//2 20//2 17//2
f 27//2 9//2 40//2
f 21//2 27//2 28//2
f 28//2 41//2 17//2
f 42//2 9//2 29//2
f 29//2 22//2 34//2
f 31//2 18//2 32//2
f 34//2 22//2 31//2
f 32//2 23//2 43//2
f 23//2 33//2 43//2
f 44//2 33//2 14//2
f 31//2 14//2 34//2
f 45//2 34//2 24//2
f 35//2 9//2 24//2
f 46//2 35//2 19//2
f 36//2 46//2 19//2
f 36//2 25//2 47//2
f 37//2 47//2 25//2
f 38//2 37//2 11//2
f 26//2 48//2 38//2
f 39//2 49//2 26//2
f 17//2 50//2 39//2
f 40//2 9//2 51//2
f 27//2 40//2 41//2
f 28//2 27//2 41//2
f 41//2 52//2 17//2
f 53//2 9//2 42//2
f 42//2 29//2 45//2
f 45//2 29//2 34//2
f 32//2 14//2 31//2
f 43//2 14//2 32//2
f 44//2 43//2 33//2
f 44//2 14//2 43//2
f 54//2 45//2 24//2
f 24//2 9//2 55//2
f 56//2 9//2 35//2
f 35//2 46//2 57//2
f 58//2 46//2 36//2
f 47//2 59//2 36//2
f 37//2 9//2 47//2
f 60//2 37//2 38//2
f 60//2 38//2 48//2
f 26//2 9//2 48//2
f 49//2 9//2 26//2
f 61//2 49//2 39//2
f 62//2 39//2 50//2
f 63//2 50//2 17//2
f 51//2 9//2 64//2
f 40//2 51//2 52//2
f 41//2 40//2 52//2
f 52//2 65//2 17//2
f 66//2 9//2 53//2
f 53//2 42//2 54//2
f 54//2 42//2 45//2
f 67//2 54//2 24//2
f 55//2 9//2 68//2
f 55//2 69//2 24//2
f 70//2 9//2 56//2
f 56//2 35//2 59//2
f 57//2 46//2 71//2
f 59//2 35//2 57//2
f 46//2 58//2 71//2
f 72//2 58//2 36//2
f 57//2 36//2 59//2
f 73//2 59//2 47//2
f 47//2 9//2 74//2
f 75//2 9//2 37//2
f 60//2 76//2 37//2
f 48//2 77//2 60//2
f 48//2 9//2 78//2
f 79//2 9//2 49//2
f 49//2 61//2 80//2
f 81//2 61//2 39//2
f 82//2 39//2 62//2
f 50//2 83//2 62//2
f 63//2 84//2 50//2
f 85//2 63//2 17//2
f 64//2 9//2 86//2
f 51//2 64//2 65//2
f 52//2 51//2 65//2
f 65//2 85//2 17//2
f 87//2 9//2 66//2
f 66//2 53//2 67//2
f 67//2 53//2 54//2
f 88//2 67//2 24//2
f 68//2 9//2 89//2
f 55//2 68//2 69//2
f 69//2 90//2 24//2
f 91//2 9//2 70//2
f 70//2 56//2 73//2
f 73//2 56//2 59//2
f 71//2 36//2 57//2
f 71//2 58//2 92//2
f 58//2 72//2 92//2
f 93//2 72//2 36//2
f 94//2 73//2 47//2
f 74//2 9//2 95//2
f 74//2 96//2 47//2
f 97//2 9//2 75//2
f 76//2 75//2 37//2
f 98//2 76//2 60//2
f 99//2 60//2 77//2
f 100//2 77//2 48//2
f 78//2 9//2 101//2
f 78//2 102//2 48//2
f 83//2 9//2 79//2
f 79//2 49//2 82//2
f 80//2 61//2 103//2
f 82//2 49//2 80//2
f 61//2 81//2 103//2
f 104//2 81//2 39//2
f 80//2 39//2 82//2
f 62//2 79//2 82//2
f 83//2 79//2 62//2
f 84//2 83//2 50//2
f 86//2 84//2 63//2
f 85//2 86//2 63//2
f 86//2 9//2 84//2
f 64//2 86//2 85//2
f 65//2 64//2 85//2
f 89//2 9//2 87//2
f 87//2 66//2 88//2
f 88//2 66//2 67//2
f 105//2 88//2 24//2
f 68//2 89//2 90//2
f 69//2 68//2 90//2
f 90//2 105//2 24//2
f 106//2 9//2 91//2
f 91//2 70//2 94//2
f 94//2 70//2 73//2
f 92//2 36//2 71//2
f 93//2 92//2 72//2
f 93//2 36//2 92//2
f 107//2 94//2 47//2
f 95//2 9//2 108//2
f 74//2 95//2 96//2
f 96//2 109//2 47//2
f 110//2 9//2 97//2
f 97//2 75//2 77//2
f 75//2 76//2 99//2
f 76//2 98//2 111//2
f 112//2 98//2 60//2
f 111//2 60//2 99//2
f 77//2 75//2 99//2
f 100//2 97//2 77//2
f 113//2 100//2 48//2
f 101//2 9//2 114//2
f 78//2 101//2 102//2
f 102//2 115//2 48//2
f 84//2 9//2 83//2
f 103//2 39//2 80//2
f 104//2 103//2 81//2
f 104//2 39//2 103//2
f 89//2 87//2 105//2
f 105//2 87//2 88//2
f 90//2 89//2 105//2
f 116//2 9//2 106//2
f 106//2 91//2 107//2
f 107//2 91//2 94//2
f 117//2 107//2 47//2
f 108//2 9//2 116//2
f 95//2 108//2 109//2
f 96//2 95//2 109//2
f 109//2 118//2 47//2
f 119//2 9//2 110//2
f 110//2 97//2 100//2
f 99//2 76//2 111//2
f 111//2 98//2 120//2
f 98//2 112//2 120//2
f 121//2 112//2 60//2
f 120//2 60//2 111//2
f 113//2 110//2 100//2
f 122//2 113//2 48//2
f 114//2 9//2 123//2
f 101//2 114//2 115//2
f 102//2 101//2 115//2
f 115//2 124//2 48//2
f 116//2 106//2 117//2
f 117//2 106//2 107//2
f 118//2 117//2 47//2
f 108//2 116//2 118//2
f 109//2 108//2 118//2
f 125//2 9//2 119//2
f 119//2 110//2 113//2
f 121//2 120//2 112//2
f 121//2 60//2 120//2
f 122//2 119//2 113//2
f 126//2 122//2 48//2
f 123//2 9//2 125//2
f 114//2 123//2 124//2
f 115//2 114//2 124//2
f 124//2 126//2 48//2
f 118//2 116//2 117//2
f 125//2 119//2 122//2
f 126//2 125//2 122//2
f 123//2 125//2 126//2
f 124//2 123//2 126//2
usemtl material-2
f 12//4 14//4 10//4
f 10//4 15//4 11//4
f 11//4 16//4 13//4
f 17//4 9//4 13//4
f 14//4 12//4 18//4
f 15//4 10//4 14//4
f 11//4 15//4 19//4
f 11//4 20//4 16//4
f 17//4 13//4 16//4
f 21//4 9//4 17//4
f 18//4 12//4 22//4
f 14//4 18//4 23//4
f 11//4 19//4 25//4
f 11//4 26//4 20//4
f 27//4 9//4 21//4
f 17//4 28//4 21//4
f 29//4 12//4 9//4
f 22//4 12//4 29//4
f 14//4 23//4 33//4
f 14//4 34//4 24//4
f 24//4 35//4 19//4
f 25//4 19//4 36//4
f 11//4 25//4 37//4
f 11//4 38//4 26//4
f 20//4 26//4 39//4
f 40//4 9//4 27//4
f 17//4 41//4 28//4
f 29//4 9//4 42//4
f 14//4 33//4 44//4
f 34//4 14//4 31//4
f 24//4 34//4 45//4
f 24//4 9//4 35//4
f 19//4 35//4 46//4
f 19//4 46//4 36//4
f 11//4 37//4 38//4
f 26//4 49//4 39//4
f 39//4 50//4 17//4
f 51//4 9//4 40//4
f 17//4 52//4 41//4
f 42//4 9//4 53//4
f 31//4 14//4 32//4
f 32//4 14//4 43//4
f 43//4 14//4 44//4
f 24//4 45//4 54//4
f 55//4 9//4 24//4
f 35//4 9//4 56//4
f 36//4 46//4 58//4
f 36//4 59//4 47//4
f 47//4 9//4 37//4
f 38//4 37//4 60//4
f 48//4 9//4 26//4
f 26//4 9//4 49//4
f 39//4 49//4 61//4
f 50//4 39//4 62//4
f 17//4 50//4 63//4
f 64//4 9//4 51//4
f 17//4 65//4 52//4
f 53//4 9//4 66//4
f 24//4 54//4 67//4
f 68//4 9//4 55//4
f 24//4 69//4 55//4
f 56//4 9//4 70//4
f 36//4 58//4 72//4
f 59//4 36//4 57//4
f 47//4 59//4 73//4
f 74//4 9//4 47//4
f 37//4 9//4 75//4
f 37//4 76//4 60//4
f 60//4 77//4 48//4
f 78//4 9//4 48//4
f 49//4 9//4 79//4
f 39//4 61//4 81//4
f 62//4 39//4 82//4
f 17//4 63//4 85//4
f 86//4 9//4 64//4
f 17//4 85//4 65//4
f 66//4 9//4 87//4
f 24//4 67//4 88//4
f 89//4 9//4 68//4
f 24//4 90//4 69//4
f 70//4 9//4 91//4
f 57//4 36//4 71//4
f 36//4 72//4 93//4
f 47//4 73//4 94//4
f 95//4 9//4 74//4
f 47//4 96//4 74//4
f 75//4 9//4 97//4
f 37//4 75//4 76//4
f 60//4 76//4 98//4
f 77//4 60//4 99//4
f 48//4 77//4 100//4
f 101//4 9//4 78//4
f 48//4 102//4 78//4
f 79//4 9//4 83//4
f 39//4 81//4 104//4
f 82//4 39//4 80//4
f 84//4 9//4 86//4
f 87//4 9//4 89//4
f 24//4 88//4 105//4
f 24//4 105//4 90//4
f 91//4 9//4 106//4
f 71//4 36//4 92//4
f 92//4 36//4 93//4
f 47//4 94//4 107//4
f 108//4 9//4 95//4
f 47//4 109//4 96//4
f 97//4 9//4 110//4
f 60//4 98//4 112//4
f 99//4 60//4 111//4
f 48//4 100//4 113//4
f 114//4 9//4 101//4
f 48//4 115//4 102//4
f 83//4 9//4 84//4
f 80//4 39//4 103//4
f 103//4 39//4 104//4
f 106//4 9//4 116//4
f 47//4 107//4 117//4
f 116//4 9//4 108//4
f 47//4 118//4 109//4
f 110//4 9//4 119//4
f 60//4 112//4 121//4
f 111//4 60//4 120//4
f 48//4 113//4 122//4
f 123//4 9//4 114//4
f 48//4 124//4 115//4
f 47//4 117//4 118//4
f 119//4 9//4 125//4
f 120//4 60//4 121//4
f 48//4 122//4 126//4
f 125//4 9//4 123//4
f 48//4 126//4 124//4
usemtl material-3
f 12//1 30//1 9//1
usemtl material-5
f 31//4 18//4 22//4
f 32//4 23//4 18//4
f 28//4 27//4 21//4
f 34//4 22//4 29//4
f 32//4 18//4 31//4
f 31//4 22//4 34//4
f 43//4 23//4 32//4
f 43//4 33//4 23//4
f 41//4 40//4 27//4
f 41//4 27//4 28//4
f 45//4 29//4 42//4
f 34//4 29//4 45//4
f 33//4 43//4 44//4
f 57//4 46//4 35//4
f 52//4 51//4 40//4
f 52//4 40//4 41//4
f 54//4 42//4 53//4
f 45//4 42//4 54//4
f 59//4 35//4 56//4
f 71//4 46//4 57//4
f 57//4 35//4 59//4
f 71//4 58//4 46//4
f 80//4 61//4 49//4
f 62//4 83//4 50//4
f 50//4 84//4 63//4
f 65//4 64//4 51//4
f 65//4 51//4 52//4
f 67//4 53//4 66//4
f 54//4 53//4 67//4
f 69//4 68//4 55//4
f 73//4 56//4 70//4
f 59//4 56//4 73//4
f 92//4 58//4 71//4
f 92//4 72//4 58//4
f 82//4 49//4 79//4
f 103//4 61//4 80//4
f 80//4 49//4 82//4
f 103//4 81//4 61//4
f 82//4 79//4 62//4
f 62//4 79//4 83//4
f 50//4 83//4 84//4
f 63//4 84//4 86//4
f 63//4 86//4 85//4
f 85//4 86//4 64//4
f 85//4 64//4 65//4
f 88//4 66//4 87//4
f 67//4 66//4 88//4
f 90//4 89//4 68//4
f 90//4 68//4 69//4
f 94//4 70//4 91//4
f 73//4 70//4 94//4
f 72//4 92//4 93//4
f 96//4 95//4 74//4
f 77//4 75//4 97//4
f 99//4 76//4 75//4
f 111//4 98//4 76//4
f 99//4 75//4 77//4
f 77//4 97//4 100//4
f 102//4 101//4 78//4
f 81//4 103//4 104//4
f 105//4 87//4 89//4
f 88//4 87//4 105//4
f 105//4 89//4 90//4
f 107//4 91//4 106//4
f 94//4 91//4 107//4
f 109//4 108//4 95//4
f 109//4 95//4 96//4
f 100//4 97//4 110//4
f 111//4 76//4 99//4
f 120//4 98//4 111//4
f 120//4 112//4 98//4
f 100//4 110//4 113//4
f 115//4 114//4 101//4
f 115//4 101//4 102//4
f 117//4 106//4 116//4
f 107//4 106//4 117//4
f 118//4 116//4 108//4
f 118//4 108//4 109//4
f 113//4 110//4 119//4
f 112//4 120//4 121//4
f 113//4 119//4 122//4
f 124//4 123//4 114//4
f 124//4 114//4 115//4
f 117//4 116//4 118//4
f 122//4 119//4 125//4
f 122//4 125//4 126//4
f 126//4 125//4 123//4
f 126//4 123//4 124//4