mtllib new-10.mtl
v 0.703549 0.396705 -0.075395
v 0.700211 0.401055 -0.201420
v 0.703549 0.396705 -0.201420
v 0.700211 0.401055 -0.075395
v 0.779878 0.428211 -0.201420
v 0.705647 0.391639 -0.075395
v 0.705823 0.398017 -0.075395
v 0.695861 0.404393 -0.075395
v 0.705647 0.391639 -0.201420
v 0.695861 0.404393 -0.201420
v 0.708184 0.392318 -0.075395
v 0.702068 0.402911 -0.075395
v 0.706363 0.386202 -0.201420
v 0.690795 0.406491 -0.201420
v 0.706363 0.386202 -0.075395
v 0.716865 0.417709 -0.075395
v 0.690795 0.406491 -0.075395
v 0.697174 0.406666 -0.075395
v 0.705647 0.380766 -0.201420
v 0.685359 0.407207 -0.201420
v 0.708989 0.386202 -0.075395
v 0.703549 0.375700 -0.201420
v 0.705647 0.380766 -0.075395
v 0.685359 0.407207 -0.075395
v 0.643350 0.428211 -0.201420
v 0.708184 0.380087 -0.075395
v 0.691475 0.409027 -0.075395
v 0.700211 0.371350 -0.201420
v 0.703549 0.375700 -0.075395
v 0.679923 0.406491 -0.075395
v 0.679923 0.406491 -0.201420
v 0.779878 0.428211 -0.075395
v 0.716865 0.354696 -0.075395
v 0.685359 0.409832 -0.075395
v 0.695861 0.368012 -0.201420
v 0.700211 0.371350 -0.075395
v 0.673544 0.406666 -0.075395
v 0.674857 0.404393 -0.201420
v 0.643350 0.428211 -0.075395
v 0.779878 0.344194 -0.201420
v 0.705823 0.374388 -0.075395
v 0.758874 0.417709 -0.075395
v 0.679243 0.409027 -0.075395
v 0.674857 0.404393 -0.075395
v 0.670507 0.401055 -0.201420
v 0.643350 0.344194 -0.075395
v 0.779878 0.344194 -0.075395
v 0.702068 0.369494 -0.075395
v 0.758874 0.354696 -0.075395
v 0.690795 0.365914 -0.201420
v 0.695861 0.368012 -0.075395
v 0.668650 0.402911 -0.075395
v 0.667169 0.396705 -0.201420
v 0.670507 0.401055 -0.075395
v 0.643350 0.344194 -0.201420
v 0.662534 0.380087 -0.075395
v 0.697174 0.365738 -0.075395
v 0.685359 0.365198 -0.201420
v 0.665070 0.391639 -0.201420
v 0.667169 0.375700 -0.201420
v 0.664895 0.374388 -0.075395
v 0.661729 0.386202 -0.075395
v 0.691475 0.363378 -0.075395
v 0.690795 0.365914 -0.075395
v 0.679243 0.363378 -0.075395
v 0.679923 0.365914 -0.201420
v 0.664895 0.398017 -0.075395
v 0.664355 0.386202 -0.201420
v 0.667169 0.396705 -0.075395
v 0.670507 0.371350 -0.201420
v 0.665070 0.380766 -0.201420
v 0.668650 0.369494 -0.075395
v 0.667169 0.375700 -0.075395
v 0.665070 0.380766 -0.075395
v 0.662534 0.392318 -0.075395
v 0.685359 0.362573 -0.075395
v 0.685359 0.365198 -0.075395
v 0.673544 0.365738 -0.075395
v 0.665070 0.391639 -0.075395
v 0.674857 0.368012 -0.201420
v 0.670507 0.371350 -0.075395
v 0.664355 0.386202 -0.075395
v 0.679923 0.365914 -0.075395
v 0.674857 0.368012 -0.075395
vn -0.866025 -0.500000 0.000000
vn -0.707107 -0.707107 0.000000
vn -0.965926 -0.258819 0.000000
vn -0.500000 -0.866025 0.000000
vn -1.000000 0.000000 0.000000
vn -0.258819 -0.965926 0.000000
vn -0.965926 0.258819 0.000000
vn 0.000000 -1.000000 0.000000
vn -0.866025 0.500000 0.000000
vn 0.258819 -0.965926 0.000000
vn 0.000000 1.000000 0.000000
vn -0.707107 0.707107 0.000000
vn 0.000000 0.000000 1.000000
vn -0.500000 0.866025 0.000000
vn 0.500000 -0.866025 0.000000
vn 0.707107 -0.707107 0.000000
vn -0.258819 0.965926 0.000000
vn 0.866025 -0.500000 0.000000
vn 0.965926 -0.258819 0.000000
vn 0.258819 0.965926 0.000000
vn 1.000000 0.000000 0.000000
vn 0.866025 0.500000 0.000000
vn 0.707107 0.707107 0.000000
vn 0.965926 0.258819 0.000000
vn 0.500000 0.866025 0.000000
vn 0.000000 0.000000 -1.000000
usemtl material-0
f 1//1 2//2 3//1
f 2//2 1//1 4//2
f 3//1 6//3 1//1
f 8//4 2//2 4//2
f 6//3 3//1 9//3
f 2//2 8//4 10//4
f 9//3 15//5 6//3
f 17//6 10//4 8//4
f 15//5 9//3 13//5
f 10//4 17//6 14//6
f 23//7 13//5 19//7
f 13//5 23//7 15//5
f 24//8 14//6 17//6
f 14//6 24//8 20//8
f 29//9 19//7 22//9
f 19//7 29//9 23//7
f 30//10 20//8 24//8
f 36//12 22//9 28//12
f 22//9 36//12 29//9
f 20//8 30//10 31//10
f 33//13 42//13 16//13
f 35//14 36//12 28//12
f 44//15 31//10 30//10
f 31//10 44//15 38//15
f 42//13 33//13 49//13
f 36//12 35//14 51//14
f 38//15 54//16 45//16
f 54//16 38//15 44//15
f 50//17 51//14 35//14
f 54//16 53//18 45//16
f 58//11 64//17 50//17
f 51//14 50//17 64//17
f 69//18 59//19 53//18
f 53//18 54//16 69//18
f 66//20 77//11 58//11
f 64//17 58//11 77//11
f 79//19 68//21 59//19
f 59//19 69//18 79//19
f 73//22 70//23 60//22
f 74//24 60//22 71//24
f 77//11 66//20 83//20
f 82//21 71//24 68//21
f 68//21 79//19 82//21
f 70//23 84//25 80//25
f 70//23 73//22 81//23
f 60//22 74//24 73//22
f 71//24 82//21 74//24
f 80//25 83//20 66//20
f 84//25 70//23 81//23
f 83//20 80//25 84//25
usemtl material-1
f 3//22 2//23 1//22
f 4//23 1//22 2//23
f 2//13 3//13 5//13
f 1//22 6//24 3//22
f 1//13 7//13 4//13
f 4//26 7//26 1//26
f 4//23 2//23 8//25
f 3//13 9//13 5//13
f 10//13 2//13 5//13
f 9//24 3//22 6//24
f 6//13 11//13 1//13
f 1//26 11//26 6//26
f 1//13 11//13 7//13
f 7//26 11//26 1//26
f 4//13 7//13 12//13
f 12//26 7//26 4//26
f 10//25 8//25 2//23
f 4//13 12//13 8//13
f 8//26 12//26 4//26
f 9//13 13//13 5//13
f 14//13 10//13 5//13
f 6//24 15//21 9//24
f 15//13 11//13 6//13
f 6//26 11//26 15//26
f 7//26 16//26 11//26
f 12//26 16//26 7//26
f 8//25 10//25 17//20
f 8//13 12//13 18//13
f 18//26 12//26 8//26
f 13//13 19//13 5//13
f 13//21 9//24 15//21
f 14//20 17//20 10//25
f 20//13 14//13 5//13
f 15//13 21//13 11//13
f 11//26 21//26 15//26
f 11//26 16//26 21//26
f 18//26 16//26 12//26
f 8//13 18//13 17//13
f 17//26 18//26 8//26
f 19//13 22//13 5//13
f 19//19 13//21 23//19
f 15//21 23//19 13//21
f 17//20 14//20 24//11
f 20//11 24//11 14//20
f 25//13 20//13 5//13
f 23//13 21//13 15//13
f 15//26 21//26 23//26
f 21//26 16//26 26//26
f 27//26 16//26 18//26
f 17//13 18//13 24//13
f 24//26 18//26 17//26
f 22//13 28//13 5//13
f 22//18 19//19 29//18
f 23//19 29//18 19//19
f 24//11 20//11 30//17
f 20//13 25//13 31//13
f 23//13 26//13 21//13
f 21//26 26//26 23//26
f 16//26 33//26 26//26
f 34//26 16//26 27//26
f 24//13 18//13 27//13
f 27//26 18//26 24//26
f 28//13 35//13 5//13
f 28//16 22//18 36//16
f 29//18 36//16 22//18
f 29//13 26//13 23//13
f 23//26 26//26 29//26
f 31//17 30//17 20//11
f 37//13 30//13 24//13
f 24//26 30//26 37//26
f 31//13 25//13 38//13
f 26//26 33//26 41//26
f 16//26 42//26 33//26
f 16//26 34//26 39//26
f 43//13 27//13 34//13
f 34//26 27//26 43//26
f 43//13 24//13 27//13
f 27//26 24//26 43//26
f 5//13 35//13 40//13
f 28//16 36//16 35//15
f 36//13 41//13 29//13
f 29//26 41//26 36//26
f 29//13 41//13 26//13
f 26//26 41//26 29//26
f 30//17 31//17 44//14
f 37//13 44//13 30//13
f 30//26 44//26 37//26
f 37//13 24//13 43//13
f 43//26 24//26 37//26
f 38//13 25//13 45//13
f 38//14 44//14 31//17
f 41//26 33//26 48//26
f 49//26 33//26 42//26
f 16//26 32//26 42//26
f 34//26 43//26 39//26
f 50//13 40//13 35//13
f 51//15 35//15 36//16
f 36//13 48//13 41//13
f 41//26 48//26 36//26
f 52//13 44//13 37//13
f 37//26 44//26 52//26
f 43//26 37//26 39//26
f 45//13 25//13 53//13
f 45//12 54//12 38//14
f 44//14 38//14 54//12
f 39//26 56//26 46//26
f 32//26 47//26 49//26
f 46//8 40//8 47//8
f 47//11 40//11 46//11
f 48//26 33//26 57//26
f 49//26 46//26 33//26
f 42//26 32//26 49//26
f 58//13 40//13 50//13
f 35//15 51//15 50//10
f 51//13 48//13 36//13
f 36//26 48//26 51//26
f 52//13 54//13 44//13
f 44//26 54//26 52//26
f 37//26 52//26 39//26
f 53//13 25//13 59//13
f 45//12 53//9 54//12
f 25//13 55//13 60//13
f 40//8 46//8 55//8
f 55//11 46//11 40//11
f 61//26 46//26 56//26
f 62//26 56//26 39//26
f 46//26 49//26 47//26
f 57//26 33//26 63//26
f 64//13 57//13 48//13
f 48//26 57//26 64//26
f 33//26 46//26 65//26
f 58//13 66//13 40//13
f 50//10 64//10 58//8
f 64//10 50//10 51//15
f 64//13 48//13 51//13
f 51//26 48//26 64//26
f 67//13 54//13 52//13
f 52//26 54//26 67//26
f 52//26 67//26 39//26
f 59//13 25//13 68//13
f 53//9 59//7 69//9
f 69//9 54//12 53//9
f 60//13 55//13 70//13
f 71//13 25//13 60//13
f 40//13 66//13 55//13
f 72//26 46//26 61//26
f 61//13 73//13 56//13
f 56//26 73//26 61//26
f 56//13 74//13 62//13
f 62//26 74//26 56//26
f 75//26 62//26 39//26
f 76//26 63//26 33//26
f 65//13 63//13 57//13
f 57//26 63//26 65//26
f 77//13 57//13 64//13
f 64//26 57//26 77//26
f 65//26 46//26 78//26
f 76//26 33//26 65//26
f 58//8 77//8 66//6
f 77//8 58//8 64//10
f 67//13 69//13 54//13
f 54//26 69//26 67//26
f 67//26 75//26 39//26
f 68//13 25//13 71//13
f 59//7 68//5 79//7
f 79//7 69//9 59//7
f 70//13 55//13 80//13
f 60//1 70//2 73//1
f 71//3 60//1 74//3
f 80//13 55//13 66//13
f 78//26 46//26 72//26
f 72//13 81//13 61//13
f 61//26 81//26 72//26
f 61//13 81//13 73//13
f 73//26 81//26 61//26
f 56//13 73//13 74//13
f 74//26 73//26 56//26
f 62//13 74//13 82//13
f 82//26 74//26 62//26
f 62//13 79//13 75//13
f 75//26 79//26 62//26
f 63//13 65//13 76//13
f 76//26 65//26 63//26
f 65//13 57//13 77//13
f 77//26 57//26 65//26
f 77//13 78//13 65//13
f 65//26 78//26 77//26
f 83//6 66//6 77//8
f 75//13 69//13 67//13
f 67//26 69//26 75//26
f 68//5 71//3 82//5
f 82//5 79//7 68//5
f 75//13 79//13 69//13
f 69//26 79//26 75//26
f 80//4 84//4 70//2
f 81//2 73//1 70//2
f 73//1 74//3 60//1
f 74//3 82//5 71//3
f 66//6 83//6 80//4
f 78//13 83//13 72//13
f 72//26 83//26 78//26
f 72//13 84//13 81//13
f 81//26 84//26 72//26
f 62//13 82//13 79//13
f 79//26 82//26 62//26
f 78//13 77//13 83//13
f 83//26 77//26 78//26
f 81//2 70//2 84//4
f 84//4 80//4 83//6
f 72//13 83//13 84//13
f 84//26 83//26 72//26
usemtl material-2
f 5//26 3//26 2//26
f 5//26 9//26 3//26
f 5//26 2//26 10//26
f 5//26 13//26 9//26
f 5//26 10//26 14//26
f 11//13 16//13 7//13
f 7//13 16//13 12//13
f 5//26 19//26 13//26
f 5//26 14//26 20//26
f 21//13 16//13 11//13
f 12//13 16//13 18//13
f 5//26 22//26 19//26
f 5//26 20//26 25//26
f 26//13 16//13 21//13
f 18//13 16//13 27//13
f 5//26 28//26 22//26
f 31//26 25//26 20//26
f 26//13 33//13 16//13
f 27//13 16//13 34//13
f 5//26 35//26 28//26
f 38//26 25//26 31//26
f 41//13 33//13 26//13
f 39//13 34//13 16//13
f 40//26 35//26 5//26
f 45//26 25//26 38//26
f 48//13 33//13 41//13
f 42//13 32//13 16//13
f 39//13 43//13 34//13
f 35//26 40//26 50//26
f 39//13 37//13 43//13
f 53//26 25//26 45//26
f 46//13 56//13 39//13
f 49//13 47//13 32//13
f 57//13 33//13 48//13
f 33//13 46//13 49//13
f 49//13 32//13 42//13
f 50//26 40//26 58//26
f 39//13 52//13 37//13
f 59//26 25//26 53//26
f 60//26 55//26 25//26
f 56//13 46//13 61//13
f 39//13 56//13 62//13
f 47//13 49//13 46//13
f 63//13 33//13 57//13
f 65//13 46//13 33//13
f 40//26 66//26 58//26
f 39//13 67//13 52//13
f 68//26 25//26 59//26
f 70//26 55//26 60//26
f 60//26 25//26 71//26
f 55//26 66//26 40//26
f 61//13 46//13 72//13
f 39//13 62//13 75//13
f 33//13 63//13 76//13
f 78//13 46//13 65//13
f 65//13 33//13 76//13
f 39//13 75//13 67//13
f 71//26 25//26 68//26
f 80//26 55//26 70//26
f 66//26 55//26 80//26
f 72//13 46//13 78//13