mtllib new-1.mtl
v -0.595898 0.428211 -0.075395
v -0.595898 0.428211 -0.201420
v -0.732426 0.428211 -0.201420
v -0.732426 0.428211 -0.075395
v -0.716672 0.417709 -0.075395
v -0.611651 0.417709 -0.075395
v -0.611651 0.417709 -0.080646
v -0.716672 0.417709 -0.080646
v -0.716672 0.422960 -0.080646
v -0.611651 0.422960 -0.080646
v -0.721924 0.422960 -0.190918
v -0.727175 0.422960 -0.043888
v -0.727175 0.428211 -0.075395
v -0.727175 0.422960 -0.075395
v -0.727175 0.428211 -0.043888
v -0.601149 0.422960 -0.075395
v -0.601149 0.428211 -0.043888
v -0.721924 0.428211 -0.046514
v -0.601149 0.428211 -0.075395
v -0.601149 0.422960 -0.043888
v -0.606400 0.428211 -0.046514
v -0.721924 0.428211 -0.072769
v -0.606400 0.428211 -0.072769
v -0.606400 0.430836 -0.046514
v -0.721924 0.430836 -0.072769
v -0.721924 0.430836 -0.046514
v -0.606400 0.430836 -0.072769
vn 0.000000 0.000000 -1.000000
vn 0.000000 0.000000 1.000000
vn 0.000000 -1.000000 0.000000
vn 0.000000 1.000000 0.000000
vn -1.000000 0.000000 0.000000
vn 0.000000 0.000000 -1.000000
vn 0.000000 0.000000 1.000000
vn 0.000000 1.000000 0.000000
vn 1.000000 0.000000 0.000000
vn 0.000000 -1.000000 0.000000
usemtl material-0
f 4//2 5//2 1//2
f 6//2 1//2 5//2
usemtl material-1
f 2//3 1//3 3//3
f 4//3 3//3 1//3
f 1//1 5//1 4//1
f 5//1 1//1 6//1
f 5//3 7//3 6//3
f 6//4 7//4 5//4
f 7//3 5//3 8//3
f 8//4 5//4 7//4
f 9//1 7//1 8//1
f 8//2 7//2 9//2
f 7//1 9//1 10//1
f 10//2 9//2 7//2
f 11//3 10//3 9//3
f 9//4 10//4 11//4
usemtl material-2
f 3//4 1//4 2//4
f 1//4 3//4 4//4
usemtl material-3
f 12//5 13//5 14//5
f 13//5 12//5 15//5
f 13//6 16//6 14//6
f 12//7 17//7 15//7
f 15//8 18//8 13//8
f 16//6 13//6 19//6
f 17//7 12//7 20//7
f 17//8 21//8 15//8
f 15//8 21//8 18//8
f 22//8 13//8 18//8
f 23//8 19//8 13//8
f 19//9 20//9 16//9
f 20//9 19//9 17//9
f 21//8 17//8 23//8
f 23//8 13//8 22//8
f 19//8 23//8 17//8
usemtl material-4
f 14//9 13//9 12//9
f 15//9 12//9 13//9
f 14//7 16//7 13//7
f 16//10 12//10 14//10
f 14//8 12//8 16//8
f 15//6 17//6 12//6
f 13//10 18//10 15//10
f 19//7 13//7 16//7
f 12//10 16//10 20//10
f 20//8 16//8 12//8
f 20//6 12//6 17//6
f 15//10 21//10 17//10
f 18//10 21//10 15//10
f 18//10 13//10 22//10
f 13//10 19//10 23//10
f 16//5 20//5 19//5
f 17//5 19//5 20//5
f 23//10 17//10 21//10
f 24//7 18//7 21//7
f 21//6 18//6 24//6
f 22//10 13//10 23//10
f 18//5 25//5 22//5
f 22//9 25//9 18//9
f 17//10 23//10 19//10
f 23//9 24//9 21//9
f 21//5 24//5 23//5
f 18//7 24//7 26//7
f 26//6 24//6 18//6
f 25//6 23//6 22//6
f 22//7 23//7 25//7
f 25//5 18//5 26//5
f 26//9 18//9 25//9
f 24//9 23//9 27//9
f 27//5 23//5 24//5
f 24//8 25//8 26//8
f 26//10 25//10 24//10
f 23//6 25//6 27//6
f 27//7 25//7 23//7
f 25//8 24//8 27//8
f 27//10 24//10 25//10