# SSTK version 0.8.0
# 67
mtllib original-67.mtl
o mesh110/mesh110-geometry#mesh110-geometry
v -0.496128 -0.123150 0.302681
v -0.265082 -0.123150 0.307932
v -0.265082 -0.123150 0.302681
v -0.496128 -0.123150 0.307932
v -0.265082 -0.291184 0.302681
v -0.254580 -0.117899 0.302681
v -0.496128 -0.291184 0.307932
v -0.265082 -0.291184 0.307932
v -0.506630 -0.117899 0.302681
v -0.496128 -0.291184 0.302681
v -0.254580 -0.296435 0.302681
v -0.506630 -0.117899 0.292179
v -0.506630 -0.296435 0.302681
v -0.254580 -0.296435 0.292179
v -0.254580 -0.117899 0.292179
v -0.272958 -0.146780 0.292179
v -0.506630 -0.296435 0.292179
v -0.270333 -0.288558 0.292179
v -0.272279 -0.146869 0.292179
v -0.488252 -0.146780 0.292179
v -0.490877 -0.288558 0.292179
v -0.270333 -0.149405 0.292179
v -0.271646 -0.147131 0.292179
v -0.272958 -0.146780 0.297430
v -0.488931 -0.146869 0.292179
v -0.273638 -0.146869 0.292179
v -0.490877 -0.280681 0.292179
v -0.485626 -0.288558 0.292179
v -0.270333 -0.288558 0.297430
v -0.270422 -0.148726 0.292179
v -0.271102 -0.147549 0.292179
v -0.272279 -0.146869 0.297430
v -0.273638 -0.146869 0.297430
v -0.489564 -0.147131 0.292179
v -0.488931 -0.146869 0.297430
v -0.487572 -0.146869 0.292179
v -0.490877 -0.149405 0.292179
v -0.490877 -0.280681 0.297430
v -0.485626 -0.288558 0.297430
v -0.275584 -0.288558 0.292179
v -0.270333 -0.149405 0.297430
v -0.270685 -0.148092 0.292179
v -0.271646 -0.147131 0.297430
v -0.490108 -0.147549 0.292179
v -0.489564 -0.147131 0.297430
v -0.488252 -0.146780 0.297430
v -0.274271 -0.147131 0.292179
v -0.274271 -0.147131 0.297430
v -0.490788 -0.148726 0.292179
v -0.490877 -0.149405 0.297430
v -0.490877 -0.288558 0.297430
v -0.485626 -0.280681 0.292179
v -0.270333 -0.280681 0.297430
v -0.275584 -0.288558 0.297430
v -0.270422 -0.148726 0.297430
v -0.270685 -0.148092 0.297430
v -0.271102 -0.147549 0.297430
v -0.490525 -0.148092 0.292179
v -0.490108 -0.147549 0.297430
v -0.487572 -0.146869 0.297430
v -0.486939 -0.147131 0.297430
v -0.486939 -0.147131 0.292179
v -0.490788 -0.148726 0.297430
v -0.490877 -0.278056 0.297430
v -0.485626 -0.280681 0.297430
v -0.275584 -0.280681 0.292179
v -0.275584 -0.280681 0.297430
v -0.270333 -0.278056 0.297430
v -0.275494 -0.148726 0.297430
v -0.486395 -0.147549 0.297430
v -0.274815 -0.147549 0.292179
v -0.274815 -0.147549 0.297430
v -0.490525 -0.148092 0.297430
v -0.485626 -0.149405 0.297430
v -0.485626 -0.278056 0.297430
v -0.500067 -0.278056 0.297430
v -0.267707 -0.280681 0.297430
v -0.275584 -0.149405 0.297430
v -0.275232 -0.148092 0.297430
v -0.485978 -0.148092 0.297430
v -0.486395 -0.147549 0.292179
v -0.485716 -0.148726 0.297430
v -0.498754 -0.280681 0.297430
v -0.498754 -0.278056 0.297430
v -0.266395 -0.280681 0.297430
v -0.275584 -0.278056 0.297430
v -0.275584 -0.149405 0.292179
v -0.275494 -0.148726 0.292179
v -0.275232 -0.148092 0.292179
v -0.485626 -0.149405 0.292179
v -0.485716 -0.148726 0.292179
v -0.500067 -0.280681 0.297430
v -0.498754 -0.149405 0.297430
v -0.266395 -0.278056 0.297430
v -0.275584 -0.278056 0.292179
v -0.485978 -0.148092 0.292179
v -0.485626 -0.278056 0.292179
v -0.504005 -0.285932 0.297430
v -0.504005 -0.149405 0.297430
v -0.267707 -0.278056 0.297430
v -0.498754 -0.285932 0.297430
v -0.503915 -0.148726 0.297430
v -0.498843 -0.148726 0.297430
v -0.503653 -0.148092 0.297430
v -0.499106 -0.148092 0.297430
v -0.503236 -0.147549 0.297430
v -0.499523 -0.147549 0.297430
v -0.502692 -0.147131 0.297430
v -0.500067 -0.147131 0.297430
v -0.502059 -0.146869 0.297430
v -0.500700 -0.146869 0.297430
v -0.501379 -0.146780 0.297430
vn 0 1 0
vn 1 0 0
vn -1 0 0
vn 0 0 1
vn 0 -1 0
vn 0 0 -1
vn -0.2588189595935754 -0.965925849201117 0
vn 0.2588189595935754 0.965925849201117 0
vn -0.5000001748438417 -0.8660253028382762 0
vn 0.5000001748438417 0.8660253028382762 0
vn 0.2588189595935754 -0.965925849201117 0
vn -0.2588189595935754 0.965925849201117 0
vn -0.9914448886106773 -0.1305259853353411 0
vn -0.965925849201117 -0.2588189595935754 0
vn 0.9914448886106773 0.1305259853353411 0
vn 0.965925849201117 0.2588189595935754 0
vn -0.7071067811865476 -0.7071067811865476 0
vn 0.7071067811865476 0.7071067811865476 0
vn 0.5000001748438417 -0.8660253028382762 0
vn -0.5000001748438417 0.8660253028382762 0
vn -0.8660253028382762 -0.5000001748438417 0
vn 0.8660253028382762 0.5000001748438417 0
vn 0.7071067811865476 -0.7071067811865476 0
vn -0.7071067811865476 0.7071067811865476 0
vn 0.965925849201117 -0.2588189595935754 0
vn 0.9914448886106773 -0.1305259853353411 0
vn -0.965925849201117 0.2588189595935754 0
vn -0.9914448886106773 0.1305259853353411 0
vn 0.8660253028382762 -0.5000001748438417 0
vn -0.8660253028382762 0.5000001748438417 0
usemtl material_0_0
f 1//1 2//1 3//1
f 2//1 1//1 4//1
f 2//2 5//2 3//2
f 1//3 7//3 4//3
f 7//4 2//4 4//4
f 5//2 2//2 8//2
f 7//3 1//3 10//3
f 2//4 7//4 8//4
f 7//5 5//5 8//5
f 5//5 7//5 10//5
f 15//6 16//6 12//6
f 14//6 18//6 15//6
f 15//6 19//6 16//6
f 20//6 12//6 16//6
f 21//6 17//6 12//6
f 17//6 21//6 14//6
f 18//6 14//6 21//6
f 15//6 18//6 22//6
f 15//6 23//6 19//6
f 25//6 12//6 20//6
f 26//6 20//6 16//6
f 21//6 12//6 27//6
f 18//6 21//6 28//6
f 15//6 22//6 30//6
f 15//6 31//6 23//6
f 34//6 12//6 25//6
f 26//6 36//6 20//6
f 27//6 12//6 37//6
f 18//6 28//6 40//6
f 15//6 30//6 42//6
f 15//6 42//6 31//6
f 44//6 12//6 34//6
f 47//6 36//6 26//6
f 37//6 12//6 49//6
f 52//6 40//6 28//6
f 58//6 12//6 44//6
f 47//6 62//6 36//6
f 49//6 12//6 58//6
f 40//6 52//6 66//6
f 71//6 62//6 47//6
f 71//6 81//6 62//6
f 89//6 81//6 71//6
f 89//6 96//6 81//6
f 87//6 91//6 88//6
f 95//6 90//6 87//6
f 88//6 96//6 89//6
f 90//6 95//6 97//6
f 87//6 90//6 91//6
f 88//6 91//6 96//6
usemtl material_1_0
f 3//5 2//5 1//5
f 4//5 1//5 2//5
f 3//3 5//3 2//3
f 1//6 6//6 3//6
f 4//2 7//2 1//2
f 4//6 2//6 7//6
f 8//3 2//3 5//3
f 3//6 6//6 5//6
f 6//6 1//6 9//6
f 10//2 1//2 7//2
f 8//6 7//6 2//6
f 8//1 5//1 7//1
f 6//6 11//6 5//6
f 1//6 10//6 9//6
f 9//5 12//5 6//5
f 10//1 7//1 5//1
f 13//6 5//6 11//6
f 11//3 6//3 14//3
f 9//6 10//6 13//6
f 15//5 6//5 12//5
f 9//2 13//2 12//2
f 5//6 13//6 10//6
f 11//1 14//1 13//1
f 15//3 14//3 6//3
f 12//4 16//4 15//4
f 17//2 12//2 13//2
f 17//1 13//1 14//1
f 15//4 18//4 14//4
f 16//4 19//4 15//4
f 16//4 12//4 20//4
f 12//4 17//4 21//4
f 14//4 21//4 17//4
f 21//4 14//4 18//4
f 22//4 18//4 15//4
f 19//4 23//4 15//4
f 19//7 24//5 16//5
f 16//1 24//1 19//8
f 20//4 12//4 25//4
f 16//4 20//4 26//4
f 27//4 12//4 21//4
f 28//4 21//4 18//4
f 29//3 22//3 18//3
f 18//2 22//2 29//2
f 30//4 22//4 15//4
f 23//4 31//4 15//4
f 23//9 32//7 19//7
f 19//8 32//8 23//10
f 24//5 19//7 32//7
f 32//8 19//8 24//1
f 33//11 16//5 24//5
f 24//1 16//1 33//12
f 25//4 12//4 34//4
f 20//5 35//11 25//11
f 25//12 35//12 20//1
f 20//4 36//4 26//4
f 16//5 33//11 26//11
f 26//12 33//12 16//1
f 37//4 12//4 27//4
f 38//2 21//2 27//2
f 27//3 21//3 38//3
f 21//1 39//1 28//1
f 28//5 39//5 21//5
f 40//4 28//4 18//4
f 22//3 29//3 41//3
f 41//2 29//2 22//2
f 40//1 29//1 18//1
f 18//5 29//5 40//5
f 41//13 30//14 22//13
f 22//15 30//16 41//15
f 42//4 30//4 15//4
f 31//4 42//4 15//4
f 31//17 43//9 23//9
f 23//10 43//10 31//18
f 32//7 23//9 43//9
f 43//10 23//10 32//8
f 32//6 33//6 24//6
f 24//4 33//4 32//4
f 34//4 12//4 44//4
f 25//11 45//19 34//19
f 34//20 45//20 25//12
f 35//11 20//5 46//5
f 46//1 20//1 35//12
f 45//19 25//11 35//11
f 35//12 25//12 45//20
f 26//4 36//4 47//4
f 36//7 46//5 20//5
f 20//1 46//1 36//8
f 48//19 26//11 33//11
f 33//12 26//12 48//20
f 49//4 12//4 37//4
f 50//2 27//2 37//2
f 37//3 27//3 50//3
f 21//2 38//2 51//2
f 51//3 38//3 21//3
f 27//2 50//2 38//2
f 38//3 50//3 27//3
f 39//1 21//1 51//1
f 51//5 21//5 39//5
f 39//3 52//3 28//3
f 28//2 52//2 39//2
f 28//4 40//4 52//4
f 41//3 29//3 53//3
f 53//2 29//2 41//2
f 29//1 40//1 54//1
f 54//5 40//5 29//5
f 30//14 41//13 55//14
f 55//16 41//15 30//16
f 55//14 42//21 30//14
f 30//16 42//22 55//16
f 56//21 31//17 42//21
f 42//22 31//18 56//22
f 43//9 31//17 57//17
f 57//18 31//18 43//10
f 43//6 33//6 32//6
f 32//4 33//4 43//4
f 44//4 12//4 58//4
f 34//19 59//23 44//23
f 44//24 59//24 34//20
f 59//23 34//19 45//19
f 45//20 34//20 59//24
f 60//6 35//6 46//6
f 46//4 35//4 60//4
f 61//6 45//6 35//6
f 35//4 45//4 61//4
f 36//4 62//4 47//4
f 26//11 48//19 47//19
f 47//20 48//20 26//12
f 46//5 36//7 60//7
f 60//8 36//8 46//1
f 43//6 48//6 33//6
f 33//4 48//4 43//4
f 58//4 12//4 49//4
f 63//25 37//26 49//25
f 49//27 37//28 63//27
f 37//26 63//25 50//26
f 50//28 63//27 37//28
f 38//6 39//6 51//6
f 51//4 39//4 38//4
f 38//2 50//2 64//2
f 64//3 50//3 38//3
f 52//3 39//3 65//3
f 65//2 39//2 52//2
f 66//4 52//4 40//4
f 29//6 67//6 53//6
f 53//4 67//4 29//4
f 41//3 53//3 68//3
f 68//2 53//2 41//2
f 40//2 67//2 54//2
f 54//3 67//3 40//3
f 67//6 29//6 54//6
f 54//4 29//4 67//4
f 41//6 69//6 55//6
f 55//4 69//4 41//4
f 42//21 55//14 56//21
f 56//22 55//16 42//22
f 31//17 56//21 57//17
f 57//18 56//22 31//18
f 57//6 48//6 43//6
f 43//4 48//4 57//4
f 59//23 58//29 44//23
f 44//24 58//30 59//24
f 70//6 59//6 45//6
f 45//4 59//4 70//4
f 61//6 35//6 60//6
f 60//4 35//4 61//4
f 70//6 45//6 61//6
f 61//4 45//4 70//4
f 47//4 62//4 71//4
f 62//9 60//7 36//7
f 36//8 60//8 62//10
f 72//23 47//19 48//19
f 48//20 47//20 72//24
f 73//29 49//25 58//29
f 58//30 49//27 73//30
f 49//25 73//29 63//25
f 63//27 73//30 49//27
f 74//6 50//6 63//6
f 63//4 50//4 74//4
f 39//6 38//6 65//6
f 65//4 38//4 39//4
f 50//6 75//6 64//6
f 64//4 75//4 50//4
f 64//6 65//6 38//6
f 38//4 65//4 64//4
f 38//6 76//6 64//6
f 64//4 76//4 38//4
f 67//1 52//1 65//1
f 65//5 52//5 67//5
f 52//1 67//1 66//1
f 66//5 67//5 52//5
f 67//2 40//2 66//2
f 66//3 40//3 67//3
f 67//6 64//6 53//6
f 53//4 64//4 67//4
f 53//6 64//6 68//6
f 68//4 64//4 53//4
f 68//6 77//6 53//6
f 53//4 77//4 68//4
f 68//6 78//6 41//6
f 41//4 78//4 68//4
f 41//6 78//6 69//6
f 69//4 78//4 41//4
f 55//6 69//6 79//6
f 79//4 69//4 55//4
f 55//6 79//6 56//6
f 56//4 79//4 55//4
f 56//6 72//6 57//6
f 57//4 72//4 56//4
f 57//6 72//6 48//6
f 48//4 72//4 57//4
f 58//29 59//23 73//29
f 73//30 59//24 58//30
f 80//6 59//6 70//6
f 70//4 59//4 80//4
f 60//7 62//9 61//9
f 61//10 62//10 60//8
f 61//9 81//17 70//17
f 70//18 81//18 61//10
f 62//4 81//4 71//4
f 47//19 72//23 71//23
f 71//24 72//24 47//20
f 82//6 63//6 73//6
f 73//4 63//4 82//4
f 75//6 50//6 74//6
f 74//4 50//4 75//4
f 74//6 63//6 82//6
f 82//4 63//4 74//4
f 68//6 64//6 75//6
f 75//4 64//4 68//4
f 65//6 64//6 67//6
f 67//4 64//4 65//4
f 83//6 76//6 38//6
f 38//4 76//4 83//4
f 64//6 76//6 84//6
f 84//4 76//4 64//4
f 77//6 68//6 85//6
f 85//4 68//4 77//4
f 78//6 68//6 86//6
f 86//4 68//4 78//4
f 87//26 69//25 78//26
f 78//28 69//27 87//28
f 88//25 79//29 69//25
f 69//27 79//30 88//27
f 56//6 79//6 72//6
f 72//4 79//4 56//4
f 80//6 73//6 59//6
f 59//4 73//4 80//4
f 81//17 80//21 70//17
f 70//18 80//22 81//18
f 81//17 61//9 62//9
f 62//10 61//10 81//18
f 71//4 81//4 89//4
f 72//23 89//29 71//23
f 71//24 89//30 72//24
f 82//6 73//6 80//6
f 80//4 73//4 82//4
f 90//3 75//3 74//3
f 74//2 75//2 90//2
f 91//14 74//13 82//14
f 82//16 74//15 91//16
f 68//6 75//6 86//6
f 86//4 75//4 68//4
f 76//6 83//6 92//6
f 92//4 83//4 76//4
f 93//4 76//4 84//4
f 84//6 76//6 93//6
f 85//6 68//6 94//6
f 94//4 68//4 85//4
f 95//2 78//2 86//2
f 86//3 78//3 95//3
f 69//25 87//26 88//25
f 88//27 87//28 69//27
f 78//2 95//2 87//2
f 87//3 95//3 78//3
f 79//29 88//25 89//29
f 89//30 88//27 79//30
f 89//29 72//23 79//29
f 79//30 72//24 89//30
f 80//21 81//17 96//21
f 96//22 81//18 80//22
f 81//4 96//4 89//4
f 96//21 82//14 80//21
f 80//22 82//16 96//22
f 75//3 90//3 97//3
f 97//2 90//2 75//2
f 74//13 91//14 90//13
f 90//15 91//16 74//15
f 82//14 96//21 91//14
f 91//16 96//22 82//16
f 75//5 95//5 86//5
f 86//1 95//1 75//1
f 98//4 83//4 92//4
f 92//6 83//6 98//6
f 99//4 92//4 76//4
f 76//6 92//6 99//6
f 99//4 76//4 93//4
f 93//6 76//6 99//6
f 94//6 68//6 100//6
f 100//4 68//4 94//4
f 88//4 91//4 87//4
f 87//4 90//4 95//4
f 89//4 96//4 88//4
f 97//4 95//4 90//4
f 95//5 75//5 97//5
f 97//1 75//1 95//1
f 91//4 90//4 87//4
f 96//4 91//4 88//4
f 83//4 98//4 101//4
f 101//6 98//6 83//6
f 98//4 92//4 99//4
f 99//6 92//6 98//6
f 102//6 93//6 99//6
f 99//4 93//4 102//4
f 93//6 102//6 103//6
f 103//4 102//4 93//4
f 103//6 102//6 104//6
f 104//4 102//4 103//4
f 103//6 104//6 105//6
f 105//4 104//4 103//4
f 105//6 104//6 106//6
f 106//4 104//4 105//4
f 105//6 106//6 107//6
f 107//4 106//4 105//4
f 107//6 106//6 108//6
f 108//4 106//4 107//4
f 107//6 108//6 109//6
f 109//4 108//4 107//4
f 109//6 108//6 110//6
f 110//4 108//4 109//4
f 109//6 110//6 111//6
f 111//4 110//4 109//4
f 111//6 110//6 112//6
f 112//4 110//4 111//4
usemtl material_2_0
f 3//4 6//4 1//4
f 5//4 6//4 3//4
f 9//4 1//4 6//4
f 5//4 11//4 6//4
f 9//4 10//4 1//4
f 6//1 12//1 9//1
f 11//4 5//4 13//4
f 14//2 6//2 11//2
f 13//4 10//4 9//4
f 12//1 6//1 15//1
f 12//3 13//3 9//3
f 10//4 13//4 5//4
f 13//5 14//5 11//5
f 6//2 14//2 15//2
f 13//3 12//3 17//3
f 14//5 13//5 17//5
