# SSTK version 0.8.0
# 89
mtllib original-89.mtl
o mesh149/mesh149-geometry#mesh149-geometry
v -0.228324 -0.180911 -0.106901
v 0.275777 -0.180911 -0.085897
v 0.275777 -0.180911 -0.106901
v -0.228324 -0.180911 -0.085897
v 0.275777 -0.327941 -0.106901
v -0.228324 -0.327941 -0.085897
v -0.217822 -0.186162 -0.085897
v 0.275777 -0.327941 -0.085897
v -0.228324 -0.327941 -0.106901
v -0.217822 -0.322690 -0.085897
v 0.265275 -0.186162 -0.085897
v 0.265275 -0.322690 -0.085897
v -0.217822 -0.322690 -0.080646
v 0.265275 -0.186162 -0.080646
v -0.217822 -0.186162 -0.080646
v 0.265275 -0.322690 -0.080646
vn 0 1 0
vn 1 0 0
vn -1 0 0
vn 0 0 1
vn 0 -1 0
vn 0 0 -1
usemtl material_0_0
f 1//1 2//1 3//1
f 2//1 1//1 4//1
f 2//2 5//2 3//2
f 1//3 6//3 4//3
f 4//4 7//4 2//4
f 5//2 2//2 8//2
f 6//3 1//3 9//3
f 6//4 10//4 4//4
f 4//4 10//4 7//4
f 11//4 2//4 7//4
f 12//4 8//4 2//4
f 6//5 5//5 8//5
f 5//5 6//5 9//5
f 10//4 6//4 12//4
f 12//4 2//4 11//4
f 8//4 12//4 6//4
usemtl material_1_0
f 3//5 2//5 1//5
f 4//5 1//5 2//5
f 3//3 5//3 2//3
f 5//6 1//6 3//6
f 3//4 1//4 5//4
f 4//2 6//2 1//2
f 2//6 7//6 4//6
f 8//3 2//3 5//3
f 1//6 5//6 9//6
f 9//4 5//4 1//4
f 9//2 1//2 6//2
f 4//6 10//6 6//6
f 7//6 10//6 4//6
f 7//6 2//6 11//6
f 2//6 8//6 12//6
f 8//1 5//1 6//1
f 9//1 6//1 5//1
f 12//6 6//6 10//6
f 10//2 7//2 13//2
f 11//6 2//6 12//6
f 11//5 14//5 7//5
f 6//6 12//6 8//6
f 10//1 13//1 12//1
f 15//2 13//2 7//2
f 11//3 12//3 14//3
f 15//5 7//5 14//5
f 16//1 12//1 13//1
f 15//6 14//6 13//6
f 16//3 14//3 12//3
f 16//6 13//6 14//6
usemtl material_2_0
f 13//3 7//3 10//3
f 7//1 14//1 11//1
f 12//5 13//5 10//5
f 7//3 13//3 15//3
f 14//2 12//2 11//2
f 14//1 7//1 15//1
f 13//5 12//5 16//5
f 13//4 14//4 15//4
f 12//2 14//2 16//2
f 14//4 13//4 16//4
