# SSTK version 0.8.0
# 21
mtllib original-21.mtl
o Component_105_1/Component_105/mesh65/mesh65-geometry#mesh65-geometry
v 0.108088 0.236834 0.292179
v 0.150188 0.233913 0.271175
v 0.150188 0.233913 0.292179
v 0.108088 0.236834 0.271175
v 0.192191 0.229826 0.271175
v 0.275777 0.307437 0.292179
v 0.065923 0.238588 0.292179
v 0.275777 0.307437 0.271175
v 0.192191 0.229826 0.292179
v 0.065923 0.238588 0.271175
v 0.234065 0.224576 0.271175
v 0.234065 0.224576 0.292179
v 0.023726 0.239173 0.292179
v 0.023726 0.239173 0.271175
v 0.275777 0.218169 0.271175
v 0.275777 0.218169 0.292179
v -0.228324 0.307437 0.292179
v -0.228324 0.307437 0.271175
v -0.018471 0.238588 0.292179
v -0.018471 0.238588 0.271175
v -0.060636 0.236834 0.292179
v -0.228324 0.218169 0.271175
v -0.060636 0.236834 0.271175
v -0.102736 0.233913 0.292179
v -0.228324 0.218169 0.292179
v -0.186612 0.224576 0.271175
v -0.102736 0.233913 0.271175
v -0.144739 0.229826 0.292179
v -0.186612 0.224576 0.292179
v -0.144739 0.229826 0.271175
vn -0.055399016384344614 -0.9984642952973567 0
vn -0.08304498330210536 -0.996545799624058 0
vn 0.08304498330210536 0.996545799624058 0
vn 0.055399016384344614 0.9984642952973567 0
vn -0.1106279873094218 -0.9938618859901343 0
vn 0.1106279873094218 0.9938618859901343 0
vn 0 0 1
vn 0 0 -1
vn -0.02771000011699162 -0.9996160042203788 0
vn 0.02771000011699162 0.9996160042203788 0
vn -0.13812595413521547 -0.9904146711323678 0
vn 0.13812595413521547 0.9904146711323678 0
vn 0 -1 0
vn 0 1 0
vn -0.15183595507690997 -0.9884057075644002 0
vn 0.15183595507690997 0.9884057075644002 0
vn 1 0 0
vn -1 0 0
vn 0.02771000011699162 -0.9996160042203788 0
vn -0.02771000011699162 0.9996160042203788 0
vn 0.055399016384344614 -0.9984642952973567 0
vn -0.055399016384344614 0.9984642952973567 0
vn 0.08304498330210536 -0.996545799624058 0
vn -0.08304498330210536 0.996545799624058 0
vn 0.15183595507690997 -0.9884057075644002 0
vn 0.13812595413521547 -0.9904146711323678 0
vn -0.15183595507690997 0.9884057075644002 0
vn -0.13812595413521547 0.9904146711323678 0
vn 0.1106279873094218 -0.9938618859901343 0
vn -0.1106279873094218 0.9938618859901343 0
usemtl material_0_0
f 1//1 2//2 3//2
f 2//2 1//1 4//1
f 3//3 2//3 1//4
f 4//4 1//4 2//3
f 5//5 3//2 2//2
f 2//3 3//3 5//6
f 3//7 6//7 1//7
f 1//8 6//8 3//8
f 7//9 4//1 1//1
f 1//4 4//4 7//10
f 8//8 2//8 4//8
f 4//7 2//7 8//7
f 3//2 5//5 9//5
f 9//6 5//6 3//3
f 8//8 5//8 2//8
f 2//7 5//7 8//7
f 9//7 6//7 3//7
f 3//8 6//8 9//8
f 1//7 6//7 7//7
f 7//8 6//8 1//8
f 4//1 7//9 10//9
f 10//10 7//10 4//4
f 8//8 4//8 10//8
f 10//7 4//7 8//7
f 11//11 9//5 5//5
f 5//6 9//6 11//12
f 8//8 11//8 5//8
f 5//7 11//7 8//7
f 12//7 6//7 9//7
f 9//8 6//8 12//8
f 7//7 6//7 13//7
f 13//8 6//8 7//8
f 13//13 10//9 7//9
f 7//10 10//10 13//14
f 8//8 10//8 14//8
f 14//7 10//7 8//7
f 9//5 11//11 12//11
f 12//12 11//12 9//6
f 11//8 8//8 15//8
f 15//7 8//7 11//7
f 6//7 12//7 16//7
f 16//8 12//8 6//8
f 17//7 13//7 6//7
f 6//8 13//8 17//8
f 10//9 13//13 14//13
f 14//14 13//14 10//10
f 8//8 14//8 18//8
f 18//7 14//7 8//7
f 15//15 12//11 11//11
f 11//12 12//12 15//16
f 6//17 15//17 8//17
f 8//18 15//18 6//18
f 12//11 15//15 16//15
f 16//16 15//16 12//12
f 15//17 6//17 16//17
f 16//18 6//18 15//18
f 17//7 19//7 13//7
f 13//8 19//8 17//8
f 6//14 18//14 17//14
f 17//13 18//13 6//13
f 19//19 14//13 13//13
f 13//14 14//14 19//20
f 20//8 18//8 14//8
f 14//7 18//7 20//7
f 18//14 6//14 8//14
f 8//13 6//13 18//13
f 17//7 21//7 19//7
f 19//8 21//8 17//8
f 22//18 17//18 18//18
f 18//17 17//17 22//17
f 14//13 19//19 20//19
f 20//20 19//20 14//14
f 23//8 18//8 20//8
f 20//7 18//7 23//7
f 17//7 24//7 21//7
f 21//8 24//8 17//8
f 21//21 20//19 19//19
f 19//20 20//20 21//22
f 17//18 22//18 25//18
f 25//17 22//17 17//17
f 18//8 26//8 22//8
f 22//7 26//7 18//7
f 27//8 18//8 23//8
f 23//7 18//7 27//7
f 20//19 21//21 23//21
f 23//22 21//22 20//20
f 17//7 28//7 24//7
f 24//8 28//8 17//8
f 24//23 23//21 21//21
f 21//22 23//22 24//24
f 22//25 29//26 25//25
f 25//27 29//28 22//27
f 29//7 17//7 25//7
f 25//8 17//8 29//8
f 26//8 18//8 30//8
f 30//7 18//7 26//7
f 29//26 22//25 26//26
f 26//28 22//27 29//28
f 30//8 18//8 27//8
f 27//7 18//7 30//7
f 23//21 24//23 27//23
f 27//24 24//24 23//22
f 17//7 29//7 28//7
f 28//8 29//8 17//8
f 28//29 27//23 24//23
f 24//24 27//24 28//30
f 30//29 29//26 26//26
f 26//28 29//28 30//30
f 27//23 28//29 30//29
f 30//30 28//30 27//24
f 29//26 30//29 28//29
f 28//30 30//30 29//28
