# SSTK version 0.8.0
# 6
mtllib original-6.mtl
o _3_1/_3/mesh9/mesh9-geometry#mesh9-geometry
v 0.930894 0.029573 0.011091
v 0.930420 -0.012235 0.011091
v 0.924596 0.031818 0.011091
v 0.936579 -0.008023 0.011091
v 0.932031 -0.063891 0.011091
v 0.924596 0.031818 0.023393
v 0.935857 0.026431 0.011091
v 0.936579 -0.008023 0.023393
v 0.922246 -0.067088 0.011091
v 0.939146 -0.015525 0.011091
v 0.930894 0.029573 0.023393
v 0.916964 0.033165 0.023393
v 0.939616 0.022609 0.011091
v 0.930420 -0.012235 0.023393
v 0.940959 -0.003173 0.011091
v 0.921961 -0.036737 0.011091
v 0.932031 -0.063891 0.023393
v 0.939499 -0.058722 0.011091
v 0.916964 0.033165 0.011091
v 0.917531 0.006762 0.023393
v 0.935857 0.026431 0.023393
v 0.939616 0.022609 0.023393
v 0.940959 -0.003173 0.023393
v 0.921080 -0.030662 0.011091
v 0.921047 -0.042779 0.011091
v 0.922246 -0.067088 0.023393
v 0.939499 -0.058722 0.023393
v 0.939146 -0.015525 0.023393
v 0.943501 -0.019024 0.011091
v 0.917531 0.006762 0.011091
v 0.907999 0.033614 0.023393
v 0.916859 0.010807 0.023393
v 0.918437 -0.026131 0.023393
v 0.942301 0.018325 0.023393
v 0.942301 0.018325 0.011091
v 0.943577 0.002298 0.011091
v 0.918437 -0.026131 0.011091
v 0.921080 -0.030662 0.023393
v 0.918303 -0.047478 0.011091
v 0.921961 -0.036737 0.023393
v 0.909811 -0.068153 0.011091
v 0.944986 -0.051740 0.011091
v 0.916859 0.010807 0.011091
v 0.907999 0.033614 0.011091
v 0.911657 0.015959 0.023393
v 0.914846 0.013945 0.023393
v 0.916633 0.002382 0.023393
v 0.943577 0.002298 0.023393
v 0.914183 -0.050498 0.011091
v 0.921047 -0.042779 0.023393
v 0.909811 -0.068153 0.023393
v 0.943501 -0.019024 0.023393
v 0.946765 -0.023479 0.011091
v 0.944986 -0.051740 0.023393
v 0.914846 0.013945 0.011091
v 0.916633 0.002382 0.011091
v 0.911657 0.015959 0.011091
v 0.900084 0.033202 0.023393
v 0.907462 0.016630 0.023393
v 0.914284 -0.023312 0.023393
v 0.943912 0.013580 0.023393
v 0.943912 0.013580 0.011091
v 0.944449 0.008373 0.011091
v 0.914284 -0.023312 0.011091
v 0.914183 -0.050498 0.023393
v 0.918303 -0.047478 0.023393
v 0.897804 -0.067365 0.011091
v 0.909140 -0.051506 0.011091
v 0.946765 -0.023479 0.023393
v 0.948360 -0.043677 0.011091
v 0.907462 0.016630 0.011091
v 0.900084 0.033202 0.011091
v 0.903082 0.015900 0.023393
v 0.913940 -0.001361 0.023393
v 0.913940 -0.001361 0.011091
v 0.944449 0.008373 0.023393
v 0.909140 -0.051506 0.023393
v 0.897804 -0.067365 0.023393
v 0.900514 -0.048317 0.011091
v 0.904365 -0.050708 0.011091
v 0.948804 -0.028891 0.023393
v 0.948804 -0.028891 0.011091
v 0.948360 -0.043677 0.023393
v 0.903082 0.015900 0.011091
v 0.893121 0.031969 0.023393
v 0.899608 0.013710 0.023393
v 0.909903 -0.003928 0.023393
v 0.908871 -0.022372 0.011091
v 0.904365 -0.050708 0.023393
v 0.900514 -0.048317 0.023393
v 0.888632 -0.064998 0.011091
v 0.897569 -0.043861 0.011091
v 0.949484 -0.035260 0.011091
v 0.909903 -0.003928 0.011091
v 0.899608 0.013710 0.011091
v 0.893121 0.031969 0.011091
v 0.895513 0.003473 0.023393
v 0.897073 0.009691 0.023393
v 0.908871 -0.022372 0.023393
v 0.897569 -0.043861 0.023393
v 0.888632 -0.064998 0.023393
v 0.895513 -0.036871 0.011091
v 0.949484 -0.035260 0.023393
v 0.897073 0.009691 0.011091
v 0.895513 0.003473 0.011091
v 0.887111 0.029913 0.023393
v 0.904978 -0.004784 0.023393
v 0.900010 -0.023983 0.011091
v 0.904978 -0.004784 0.011091
v 0.895513 -0.036871 0.023393
v 0.881567 -0.061113 0.011091
v 0.887111 0.029913 0.011091
v 0.882053 0.027035 0.023393
v 0.901420 -0.004448 0.023393
v 0.900010 -0.023983 0.023393
v 0.901420 -0.004448 0.011091
v 0.881567 -0.061113 0.023393
v 0.875878 -0.055768 0.011091
v 0.882053 0.027035 0.011091
v 0.877843 0.023385 0.023393
v 0.868192 -0.040496 0.023393
v 0.875878 -0.055768 0.023393
v 0.871456 -0.048912 0.011091
v 0.869668 0.008105 0.011091
v 0.877843 0.023385 0.011091
v 0.874376 0.019013 0.023393
v 0.868192 -0.040496 0.011091
v 0.871456 -0.048912 0.023393
v 0.869668 0.008105 0.023393
v 0.871651 0.013920 0.011091
v 0.874376 0.019013 0.011091
v 0.871651 0.013920 0.023393
vn 0 0 -1
vn 0 0 1
vn 0.2556611219916736 0.966766461303845 0
vn 0.4380329577801954 0.8989589133538494 0
vn -0.2556611219916736 -0.966766461303845 0
vn -0.4380329577801954 -0.8989589133538494 0
vn 0.6579241642073651 -0.7530841879577874 0
vn 0.5645226916992825 -0.8254175492177259 0
vn -0.6579241642073651 0.7530841879577874 0
vn -0.5645226916992825 0.8254175492177259 0
vn 0.1121140391266293 0.9936953467893027 0
vn -0.1121140391266293 -0.9936953467893027 0
vn 0.6280649415441143 0.7781609275742313 0
vn -0.6280649415441143 -0.7781609275742313 0
vn 0.8307029257081638 -0.5567159502115031 0
vn -0.8307029257081638 0.5567159502115031 0
vn 0.44450795272902655 -0.8957749047392707 0
vn 0.19931009564933647 -0.9799364702735849 0
vn -0.44450795272902655 0.8957749047392707 0
vn -0.19931009564933647 0.9799364702735849 0
vn 0.3527010252010182 0.935736066859748 0
vn 0.49571123182189036 0.8684874061525728 0
vn -0.3527010252010182 -0.935736066859748 0
vn -0.49571123182189036 -0.8684874061525728 0
vn 0.7847471067785842 0.6198160843368309 0
vn -0.7847471067785842 -0.6198160843368309 0
vn 0.6853040580915142 -0.7282570617325331 0
vn -0.6853040580915142 0.7282570617325331 0
vn -0.0009359995899873414 0.9999995619522878 0
vn 0.0009359995899873414 -0.9999995619522878 0
vn 0.9032061231589373 0.4292070585256054 0
vn -0.9032061231589373 -0.4292070585256054 0
vn 0.9569483917422155 -0.2902581188218294 0
vn -0.9569483917422155 0.2902581188218294 0
vn -0.9999951577147489 0.003112000490810753 0
vn -0.9440648197662422 -0.329759937044712 0
vn 0.9440648197662422 0.329759937044712 0
vn 0.9999951577147489 -0.003112000490810753 0
vn -0.9429600158247551 0.3329060055868286 0
vn 0.9429600158247551 -0.3329060055868286 0
vn 0.009945995398401752 -0.9999505373644912 0
vn -0.009945995398401752 0.9999505373644912 0
vn 0.7226960188002146 0.6911660179799931 0
vn -0.7226960188002146 -0.6911660179799931 0
vn 0.8622059164522508 -0.5065579509145368 0
vn -0.8622059164522508 0.5065579509145368 0
vn -0.9332282367413691 -0.3592840911431998 0
vn -0.9998223040035165 0.018851005731790545 0
vn 0.9998223040035165 -0.018851005731790545 0
vn 0.9332282367413691 0.3592840911431998 0
vn -0.7308283346080027 -0.682561312509062 0
vn 0.7308283346080027 0.682561312509062 0
vn -0.7429518501730017 0.669344865016916 0
vn 0.7429518501730017 -0.669344865016916 0
vn -0.1133779916333848 0.9935519266818318 0
vn 0.1133779916333848 -0.9935519266818318 0
vn -0.7045531861394536 -0.7096511874863203 0
vn 0.7045531861394536 0.7096511874863203 0
vn -0.9159156342305383 0.4013708397131892 0
vn 0.9159156342305383 -0.4013708397131892 0
vn 0.9769668837556023 0.2133909746096764 0
vn -0.9769668837556023 -0.2133909746096764 0
vn 0.9998010986118869 -0.019944001967106925 0
vn -0.9998010986118869 0.019944001967106925 0
vn -0.3747599511905176 -0.9271218792498 0
vn 0.3747599511905176 0.9271218792498 0
vn -0.4030688493205987 0.9151696578817333 0
vn 0.4030688493205987 -0.9151696578817333 0
vn -0.15837695535591823 -0.9873787216727883 0
vn 0.15837695535591823 0.9873787216727883 0
vn 0.8793602206099628 0.4761571194561704 0
vn -0.8793602206099628 -0.4761571194561704 0
vn 0.9652224082003645 -0.26143011056090854 0
vn -0.9652224082003645 0.26143011056090854 0
vn 0.00324699911838466 -0.9999947284844681 0
vn -0.3531969907797926 -0.9355489755774943 0
vn -0.00324699911838466 0.9999947284844681 0
vn 0.3531969907797926 0.9355489755774943 0
vn -0.6865786050879956 0.7270555818061107 0
vn 0.6865786050879956 -0.7270555818061107 0
vn -0.015819997721722743 0.9998748560055327 0
vn 0.015819997721722743 -0.9998748560055327 0
vn 0.9729069594015665 0.23119699035238103 0
vn -0.9729069594015665 -0.23119699035238103 0
vn -0.24979000823058092 0.9683000319054866 0
vn 0.24979000823058092 -0.9683000319054866 0
vn 0.35585002822798256 -0.9345430741330997 0
vn -0.35585002822798256 0.9345430741330997 0
vn 0.003962000599236788 -0.9999921512448243 0
vn -0.003962000599236788 0.9999921512448243 0
vn -0.36871396264098133 -0.9295429058163936 0
vn 0.36871396264098133 0.9295429058163936 0
vn 0.352783929852274 0.9357048139440056 0
vn -0.352783929852274 -0.9357048139440056 0
vn 0.9999122413548465 -0.013248003197750408 0
vn -0.9999122413548465 0.013248003197750408 0
vn 0.707095281088461 -0.7071182810976041 0
vn -0.707095281088461 0.7071182810976041 0
vn -0.36098192696379755 0.9325728113158263 0
vn 0.36098192696379755 -0.9325728113158263 0
vn 0.9068422839033446 0.4214701319488319 0
vn 0.6969858670774894 0.7170848632444001 0
vn -0.6969858670774894 -0.7170848632444001 0
vn -0.9068422839033446 -0.4214701319488319 0
vn -0.4109270941941575 0.9116682089758016 0
vn 0.4109270941941575 -0.9116682089758016 0
vn 0.9194050536155669 -0.3933120229361879 0
vn -0.9194050536155669 0.3933120229361879 0
vn 0.17888499819996972 -0.9838699900998084 0
vn -0.17888499819996972 0.9838699900998084 0
vn -0.5879247352337403 -0.8089156357126102 0
vn 0.5879247352337403 0.8089156357126102 0
vn 0.9593656289596586 0.2821658908706698 0
vn -0.9593656289596586 -0.2821658908706698 0
vn -0.038982995090306484 0.9992398741512416 0
vn 0.038982995090306484 -0.9992398741512416 0
vn 0.9699111781717298 -0.24345904472318713 0
vn -0.9699111781717298 0.24345904472318713 0
vn -0.5776198989061294 0.816305857131794 0
vn 0.5776198989061294 -0.816305857131794 0
vn 0.09392294992363072 0.9955794691925115 0
vn -0.09392294992363072 -0.9955794691925115 0
vn -0.9974062187711039 0.07197801578765971 0
vn 0.9974062187711039 -0.07197801578765971 0
vn -0.1315259636564219 0.9913127260780271 0
vn 0.1315259636564219 -0.9913127260780271 0
vn -0.7682299680508528 -0.6401739733764454 0
vn 0.7682299680508528 0.6401739733764454 0
vn -0.17640996078504034 -0.9843167811918175 0
vn 0.17640996078504034 0.9843167811918175 0
vn -0.7223830838910748 0.6914930803037876 0
vn 0.7223830838910748 -0.6914930803037876 0
vn -0.8909201104741006 -0.4541600563158505 0
vn 0.8909201104741006 0.4541600563158505 0
vn -0.8359601731691678 0.5487901136818838 0
vn 0.8359601731691678 -0.5487901136818838 0
vn -0.9323357027098912 -0.36159388470002274 0
vn 0.9323357027098912 0.36159388470002274 0
vn -0.9171579195010529 0.3985239650215531 0
vn -0.9465101465311401 0.3226740499538189 0
vn 0.9465101465311401 -0.3226740499538189 0
vn 0.9171579195010529 -0.3985239650215531 0
usemtl material_0_0
f 1//1 2//1 3//1
f 2//1 1//1 4//1
f 3//2 2//2 1//2
f 4//2 1//2 2//2
f 5//1 3//1 2//1
f 2//2 3//2 5//2
f 6//3 1//4 3//3
f 3//5 1//6 6//5
f 4//1 1//1 7//1
f 7//2 1//2 4//2
f 8//7 2//8 4//7
f 4//9 2//10 8//9
f 9//1 3//1 5//1
f 5//2 3//2 9//2
f 5//1 2//1 10//1
f 10//2 2//2 5//2
f 1//4 6//3 11//4
f 11//6 6//5 1//6
f 3//3 12//11 6//3
f 6//5 12//12 3//5
f 11//4 7//13 1//4
f 1//6 7//14 11//6
f 4//1 7//1 13//1
f 13//2 7//2 4//2
f 2//8 8//7 14//8
f 14//10 8//9 2//10
f 15//15 8//7 4//7
f 4//9 8//9 15//16
f 16//1 3//1 9//1
f 9//2 3//2 16//2
f 17//17 9//18 5//17
f 5//19 9//20 17//19
f 14//21 10//22 2//21
f 2//23 10//24 14//23
f 5//1 10//1 18//1
f 18//2 10//2 5//2
f 14//2 11//2 6//2
f 6//1 11//1 14//1
f 12//11 3//3 19//11
f 19//12 3//5 12//12
f 12//2 20//2 6//2
f 6//1 20//1 12//1
f 7//13 11//4 21//13
f 21//14 11//6 7//14
f 7//13 22//25 13//25
f 13//26 22//26 7//14
f 4//1 13//1 15//1
f 15//2 13//2 4//2
f 11//2 14//2 8//2
f 8//1 14//1 11//1
f 8//7 15//15 23//15
f 23//16 15//16 8//9
f 24//1 3//1 16//1
f 16//2 3//2 24//2
f 9//1 25//1 16//1
f 16//2 25//2 9//2
f 9//18 17//17 26//18
f 26//20 17//19 9//20
f 5//17 27//27 17//17
f 17//19 27//28 5//19
f 10//22 14//21 28//22
f 28//24 14//23 10//24
f 18//1 10//1 29//1
f 29//2 10//2 18//2
f 27//27 5//17 18//27
f 18//28 5//19 27//28
f 6//2 17//2 14//2
f 14//1 17//1 6//1
f 30//1 19//1 3//1
f 3//2 19//2 30//2
f 19//11 31//29 12//11
f 12//12 31//30 19//12
f 12//2 32//2 20//2
f 20//1 32//1 12//1
f 6//2 20//2 33//2
f 33//1 20//1 6//1
f 11//2 8//2 21//2
f 21//1 8//1 11//1
f 22//25 7//13 21//13
f 21//14 7//14 22//26
f 34//31 13//25 22//25
f 22//26 13//26 34//32
f 15//1 13//1 35//1
f 35//2 13//2 15//2
f 36//33 23//15 15//15
f 15//16 23//16 36//34
f 22//2 8//2 23//2
f 23//1 8//1 22//1
f 37//1 3//1 24//1
f 24//2 3//2 37//2
f 16//35 38//36 24//36
f 24//37 38//37 16//38
f 9//1 39//1 25//1
f 25//2 39//2 9//2
f 25//39 40//35 16//35
f 16//38 40//38 25//40
f 6//2 26//2 17//2
f 17//1 26//1 6//1
f 26//18 41//41 9//18
f 9//20 41//42 26//20
f 28//2 17//2 27//2
f 27//1 17//1 28//1
f 14//2 17//2 28//2
f 28//1 17//1 14//1
f 28//22 29//43 10//22
f 10//24 29//44 28//24
f 18//1 29//1 42//1
f 42//2 29//2 18//2
f 42//45 27//27 18//27
f 18//28 27//28 42//46
f 43//1 19//1 30//1
f 30//2 19//2 43//2
f 30//1 3//1 37//1
f 37//2 3//2 30//2
f 31//29 19//11 44//29
f 44//30 19//12 31//30
f 31//2 45//2 12//2
f 12//1 45//1 31//1
f 12//2 46//2 32//2
f 32//1 46//1 12//1
f 32//47 30//48 20//48
f 20//49 30//49 32//50
f 47//2 33//2 20//2
f 20//1 33//1 47//1
f 6//2 33//2 38//2
f 38//1 33//1 6//1
f 21//2 8//2 22//2
f 22//1 8//1 21//1
f 13//25 34//31 35//31
f 35//32 34//32 13//26
f 22//2 23//2 34//2
f 34//1 23//1 22//1
f 15//1 35//1 36//1
f 36//2 35//2 15//2
f 23//15 36//33 48//33
f 48//34 36//34 23//16
f 24//36 33//51 37//51
f 37//52 33//52 24//37
f 38//36 16//35 40//35
f 40//38 16//38 38//37
f 33//51 24//36 38//36
f 38//37 24//37 33//52
f 9//1 49//1 39//1
f 39//2 49//2 9//2
f 39//53 50//39 25//39
f 25//40 50//40 39//54
f 40//35 25//39 50//39
f 50//40 25//40 40//38
f 6//2 40//2 26//2
f 26//1 40//1 6//1
f 41//41 26//18 51//41
f 51//42 26//20 41//42
f 41//1 49//1 9//1
f 9//2 49//2 41//2
f 28//2 27//2 52//2
f 52//1 27//1 28//1
f 29//43 28//22 52//43
f 52//44 28//24 29//44
f 42//1 29//1 53//1
f 53//2 29//2 42//2
f 27//27 42//45 54//45
f 54//46 42//46 27//28
f 55//1 19//1 43//1
f 43//2 19//2 55//2
f 30//48 32//47 43//47
f 43//50 32//50 30//49
f 37//1 56//1 30//1
f 30//2 56//2 37//2
f 57//1 44//1 19//1
f 19//2 44//2 57//2
f 44//29 58//55 31//29
f 31//30 58//56 44//30
f 31//2 59//2 45//2
f 45//1 59//1 31//1
f 12//2 45//2 46//2
f 46//1 45//1 12//1
f 46//57 43//47 32//47
f 32//50 43//50 46//58
f 56//59 20//48 30//48
f 30//49 20//49 56//60
f 47//2 60//2 33//2
f 33//1 60//1 47//1
f 20//48 56//59 47//59
f 47//60 56//60 20//49
f 6//2 38//2 40//2
f 40//1 38//1 6//1
f 61//61 35//31 34//31
f 34//32 35//32 61//62
f 34//2 23//2 48//2
f 48//1 23//1 34//1
f 36//1 35//1 62//1
f 62//2 35//2 36//2
f 63//63 48//33 36//33
f 36//34 48//34 63//64
f 33//51 64//65 37//51
f 37//52 64//66 33//52
f 65//67 39//53 49//67
f 49//68 39//54 65//68
f 50//39 39//53 66//53
f 66//54 39//54 50//40
f 50//2 26//2 40//2
f 40//1 26//1 50//1
f 65//2 51//2 26//2
f 26//1 51//1 65//1
f 51//41 67//69 41//41
f 41//42 67//70 51//42
f 41//1 68//1 49//1
f 49//2 68//2 41//2
f 52//2 27//2 54//2
f 54//1 27//1 52//1
f 69//71 29//43 52//43
f 52//44 29//44 69//72
f 29//43 69//71 53//71
f 53//72 69//72 29//44
f 42//1 53//1 70//1
f 70//2 53//2 42//2
f 70//73 54//45 42//45
f 42//46 54//46 70//74
f 57//1 19//1 55//1
f 55//2 19//2 57//2
f 43//47 46//57 55//57
f 55//58 46//58 43//50
f 64//1 56//1 37//1
f 37//2 56//2 64//2
f 71//1 44//1 57//1
f 57//2 44//2 71//2
f 58//55 44//29 72//55
f 72//56 44//30 58//56
f 58//2 73//2 31//2
f 31//1 73//1 58//1
f 31//2 73//2 59//2
f 59//1 73//1 31//1
f 71//75 45//76 59//75
f 59//77 45//78 71//77
f 57//76 46//57 45//76
f 45//78 46//58 57//78
f 74//2 60//2 47//2
f 47//1 60//1 74//1
f 64//65 33//51 60//65
f 60//66 33//52 64//66
f 75//79 47//59 56//59
f 56//60 47//60 75//80
f 35//31 61//61 62//61
f 62//62 61//62 35//32
f 34//2 48//2 61//2
f 61//1 48//1 34//1
f 36//1 62//1 63//1
f 63//2 62//2 36//2
f 48//33 63//63 76//63
f 76//64 63//64 48//34
f 39//53 65//67 66//53
f 66//54 65//68 39//54
f 49//67 77//81 65//67
f 65//68 77//82 49//68
f 66//2 26//2 50//2
f 50//1 26//1 66//1
f 77//2 51//2 65//2
f 65//1 51//1 77//1
f 65//2 26//2 66//2
f 66//1 26//1 65//1
f 67//69 51//41 78//69
f 78//70 51//42 67//70
f 67//1 79//1 41//1
f 41//2 79//2 67//2
f 41//1 80//1 68//1
f 68//2 80//2 41//2
f 77//81 49//67 68//81
f 68//82 49//68 77//82
f 52//2 54//2 69//2
f 69//1 54//1 52//1
f 81//83 53//71 69//71
f 69//72 53//72 81//84
f 70//1 53//1 82//1
f 82//2 53//2 70//2
f 54//45 70//73 83//73
f 83//74 70//74 54//46
f 46//57 57//76 55//57
f 55//58 57//78 46//58
f 64//1 75//1 56//1
f 56//2 75//2 64//2
f 84//1 44//1 71//1
f 71//2 44//2 84//2
f 45//76 71//75 57//76
f 57//78 71//77 45//78
f 84//1 72//1 44//1
f 44//2 72//2 84//2
f 72//55 85//85 58//55
f 58//56 85//86 72//56
f 58//2 86//2 73//2
f 73//1 86//1 58//1
f 84//87 59//75 73//87
f 73//88 59//77 84//88
f 59//75 84//87 71//75
f 71//77 84//88 59//77
f 87//2 60//2 74//2
f 74//1 60//1 87//1
f 47//59 75//79 74//79
f 74//80 75//80 47//60
f 60//65 88//89 64//65
f 64//66 88//90 60//66
f 76//63 62//61 61//61
f 61//62 62//62 76//64
f 61//2 48//2 76//2
f 76//1 48//1 61//1
f 62//61 76//63 63//63
f 63//64 76//64 62//62
f 89//2 51//2 77//2
f 77//1 51//1 89//1
f 90//2 78//2 51//2
f 51//1 78//1 90//1
f 78//69 91//91 67//69
f 67//70 91//92 78//70
f 67//1 92//1 79//1
f 79//2 92//2 67//2
f 41//1 79//1 80//1
f 80//2 79//2 41//2
f 89//93 68//81 80//93
f 80//94 68//82 89//94
f 68//81 89//93 77//81
f 77//82 89//94 68//82
f 69//2 54//2 83//2
f 83//1 54//1 69//1
f 53//71 81//83 82//83
f 82//84 81//84 53//72
f 69//2 83//2 81//2
f 81//1 83//1 69//1
f 70//1 82//1 93//1
f 93//2 82//2 70//2
f 93//95 83//73 70//73
f 70//74 83//74 93//96
f 64//1 94//1 75//1
f 75//2 94//2 64//2
f 95//1 72//1 84//1
f 84//2 72//2 95//2
f 85//85 72//55 96//85
f 96//86 72//56 85//86
f 85//2 97//2 58//2
f 58//1 97//1 85//1
f 58//2 98//2 86//2
f 86//1 98//1 58//1
f 95//97 73//87 86//97
f 86//98 73//88 95//98
f 73//87 95//97 84//87
f 84//88 95//98 73//88
f 87//2 99//2 60//2
f 60//1 99//1 87//1
f 75//79 87//99 74//79
f 74//80 87//100 75//80
f 88//89 60//65 99//89
f 99//90 60//66 88//90
f 88//1 94//1 64//1
f 64//2 94//2 88//2
f 90//2 51//2 89//2
f 89//1 51//1 90//1
f 100//2 78//2 90//2
f 90//1 78//1 100//1
f 91//91 78//69 101//91
f 101//92 78//70 91//92
f 91//1 102//1 67//1
f 67//2 102//2 91//2
f 67//1 102//1 92//1
f 92//2 102//2 67//2
f 92//101 90//102 79//102
f 79//103 90//103 92//104
f 90//102 80//93 79//102
f 79//103 80//94 90//103
f 80//93 90//102 89//93
f 89//94 90//103 80//94
f 103//95 82//83 81//83
f 81//84 82//84 103//96
f 81//2 83//2 103//2
f 103//1 83//1 81//1
f 82//83 103//95 93//95
f 93//96 103//96 82//84
f 83//73 93//95 103//95
f 103//96 93//96 83//74
f 87//99 75//79 94//99
f 94//100 75//80 87//100
f 104//1 72//1 95//1
f 95//2 72//2 104//2
f 105//1 96//1 72//1
f 72//2 96//2 105//2
f 96//85 106//105 85//85
f 85//86 106//106 96//86
f 106//2 97//2 85//2
f 85//1 97//1 106//1
f 58//2 97//2 98//2
f 98//1 97//1 58//1
f 98//107 95//97 86//97
f 86//98 95//98 98//108
f 107//2 99//2 87//2
f 87//1 99//1 107//1
f 99//89 108//109 88//89
f 88//90 108//110 99//90
f 88//1 109//1 94//1
f 94//2 109//2 88//2
f 110//2 78//2 100//2
f 100//1 78//1 110//1
f 90//102 92//101 100//101
f 100//104 92//104 90//103
f 110//2 101//2 78//2
f 78//1 101//1 110//1
f 101//91 111//111 91//91
f 91//92 111//112 101//92
f 111//1 102//1 91//1
f 91//2 102//2 111//2
f 102//113 100//101 92//101
f 92//104 100//104 102//114
f 94//99 107//115 87//99
f 87//100 107//116 94//100
f 105//1 72//1 104//1
f 104//2 72//2 105//2
f 95//97 98//107 104//107
f 104//108 98//108 95//98
f 105//1 112//1 96//1
f 96//2 112//2 105//2
f 106//105 96//85 112//105
f 112//106 96//86 106//106
f 113//2 97//2 106//2
f 106//1 97//1 113//1
f 97//117 104//107 98//107
f 98//108 104//108 97//118
f 114//2 99//2 107//2
f 107//1 99//1 114//1
f 108//109 99//89 115//109
f 115//110 99//90 108//110
f 116//1 88//1 108//1
f 108//2 88//2 116//2
f 88//1 116//1 109//1
f 109//2 116//2 88//2
f 107//115 94//99 109//115
f 109//116 94//100 107//116
f 100//101 102//113 110//113
f 110//114 102//114 100//104
f 110//2 117//2 101//2
f 101//1 117//1 110//1
f 111//111 101//91 117//111
f 117//112 101//92 111//112
f 118//1 102//1 111//1
f 111//2 102//2 118//2
f 104//107 97//117 105//117
f 105//118 97//118 104//108
f 105//1 119//1 112//1
f 112//2 119//2 105//2
f 112//105 113//119 106//105
f 106//106 113//120 112//106
f 120//2 97//2 113//2
f 113//1 97//1 120//1
f 99//2 114//2 115//2
f 115//1 114//1 99//1
f 109//115 114//121 107//115
f 107//116 114//122 109//116
f 114//123 108//123 115//123
f 115//124 108//124 114//124
f 108//123 114//123 116//123
f 116//124 114//124 108//124
f 114//121 109//115 116//121
f 116//122 109//116 114//122
f 102//125 121//125 110//125
f 110//126 121//126 102//126
f 110//2 122//2 117//2
f 117//1 122//1 110//1
f 117//111 118//127 111//111
f 111//112 118//128 117//112
f 123//1 102//1 118//1
f 118//2 102//2 123//2
f 97//129 124//129 105//129
f 105//130 124//130 97//130
f 105//1 125//1 119//1
f 119//2 125//2 105//2
f 113//119 112//105 119//119
f 119//120 112//106 113//120
f 126//2 97//2 120//2
f 120//1 97//1 126//1
f 119//119 120//131 113//119
f 113//120 120//132 119//120
f 121//125 102//125 127//125
f 127//126 102//126 121//126
f 128//2 110//2 121//2
f 121//1 110//1 128//1
f 110//2 128//2 122//2
f 122//1 128//1 110//1
f 118//127 117//111 122//127
f 122//128 117//112 118//128
f 102//1 123//1 127//1
f 127//2 123//2 102//2
f 118//127 128//133 123//133
f 123//134 128//134 118//128
f 124//129 97//129 129//129
f 129//130 97//130 124//130
f 130//1 105//1 124//1
f 124//2 105//2 130//2
f 105//1 131//1 125//1
f 125//2 131//2 105//2
f 120//131 119//119 125//131
f 125//132 119//120 120//132
f 132//2 97//2 126//2
f 126//1 97//1 132//1
f 120//131 131//135 126//135
f 126//136 131//136 120//132
f 123//133 121//137 127//137
f 127//138 121//138 123//134
f 121//137 123//133 128//133
f 128//134 123//134 121//138
f 128//133 118//127 122//127
f 122//128 118//128 128//134
f 97//2 132//2 129//2
f 129//1 132//1 97//1
f 132//139 124//140 129//140
f 129//141 124//141 132//142
f 105//1 130//1 131//1
f 131//2 130//2 105//2
f 124//140 132//139 130//139
f 130//142 132//142 124//141
f 131//135 120//131 125//131
f 125//132 120//132 131//136
f 126//135 130//139 132//139
f 132//142 130//142 126//136
f 130//139 126//135 131//135
f 131//136 126//136 130//142
