# SSTK version 0.8.0
# 151
mtllib original-151.mtl
o #ID2641
v -0.444430 0.006883 -0.028367
v -0.444504 0.006883 -0.043853
v -0.444504 0.006883 -0.028927
v -0.444430 0.006883 -0.044413
v -0.444339 0.006883 -0.028099
v -0.444339 0.006883 -0.044681
v -0.444214 0.006883 -0.027845
v -0.444214 0.006883 -0.044935
v -0.444057 0.006883 -0.027610
v -0.444057 0.006883 -0.045170
v -0.443870 0.006883 -0.027397
v -0.443870 0.006883 -0.045383
v -0.443658 0.006883 -0.027211
v -0.443658 0.006883 -0.045569
v -0.443422 0.006883 -0.045726
v -0.443508 0.006883 -0.027111
v -0.443422 0.006883 -0.027053
v -0.443169 0.006883 -0.045852
v -0.443169 0.006883 -0.026928
v -0.442901 0.006883 -0.026837
v -0.442901 0.006883 -0.045942
v -0.442623 0.006883 -0.026782
v -0.442623 0.006883 -0.045998
v -0.442341 0.006883 -0.026764
v -0.442341 0.006883 -0.046016
v -0.412489 0.006883 -0.026764
v -0.412489 0.006883 -0.046016
v -0.412206 0.006883 -0.026782
v -0.412206 0.006883 -0.045998
v -0.411929 0.006883 -0.026837
v -0.411929 0.006883 -0.045942
v -0.411661 0.006883 -0.026928
v -0.411661 0.006883 -0.045852
v -0.411407 0.006883 -0.027053
v -0.411407 0.006883 -0.045726
v -0.411172 0.006883 -0.045569
v -0.411172 0.006883 -0.027211
v -0.410959 0.006883 -0.045383
v -0.410959 0.006883 -0.027397
v -0.410772 0.006883 -0.027610
v -0.410772 0.006883 -0.045170
v -0.410615 0.006883 -0.027845
v -0.410615 0.006883 -0.044935
v -0.410490 0.006883 -0.028099
v -0.410490 0.006883 -0.044681
v -0.410399 0.006883 -0.028367
v -0.410399 0.006883 -0.044413
v -0.410344 0.006883 -0.028645
v -0.410344 0.006883 -0.044135
v -0.410325 0.006883 -0.028927
v -0.410325 0.006883 -0.043853
vn 0 1 0
vn 0 -1 0
usemtl material_0_2
f 1//1 2//1 3//1
f 3//2 2//2 1//2
f 2//1 1//1 4//1
f 4//2 1//2 2//2
f 4//1 1//1 5//1
f 5//2 1//2 4//2
f 4//1 5//1 6//1
f 6//2 5//2 4//2
f 6//1 5//1 7//1
f 7//2 5//2 6//2
f 6//1 7//1 8//1
f 8//2 7//2 6//2
f 8//1 7//1 9//1
f 9//2 7//2 8//2
f 8//1 9//1 10//1
f 10//2 9//2 8//2
f 10//1 9//1 11//1
f 11//2 9//2 10//2
f 10//1 11//1 12//1
f 12//2 11//2 10//2
f 12//1 11//1 13//1
f 13//2 11//2 12//2
f 12//1 13//1 14//1
f 14//2 13//2 12//2
f 14//1 13//1 15//1
f 15//2 13//2 14//2
f 15//1 13//1 16//1
f 16//2 13//2 15//2
f 15//1 16//1 17//1
f 17//2 16//2 15//2
f 15//1 17//1 18//1
f 18//2 17//2 15//2
f 18//1 17//1 19//1
f 19//2 17//2 18//2
f 18//1 19//1 20//1
f 20//2 19//2 18//2
f 18//1 20//1 21//1
f 21//2 20//2 18//2
f 21//1 20//1 22//1
f 22//2 20//2 21//2
f 21//1 22//1 23//1
f 23//2 22//2 21//2
f 23//1 22//1 24//1
f 24//2 22//2 23//2
f 23//1 24//1 25//1
f 25//2 24//2 23//2
f 25//1 24//1 26//1
f 26//2 24//2 25//2
f 25//1 26//1 27//1
f 27//2 26//2 25//2
f 27//1 26//1 28//1
f 28//2 26//2 27//2
f 27//1 28//1 29//1
f 29//2 28//2 27//2
f 29//1 28//1 30//1
f 30//2 28//2 29//2
f 29//1 30//1 31//1
f 31//2 30//2 29//2
f 31//1 30//1 32//1
f 32//2 30//2 31//2
f 31//1 32//1 33//1
f 33//2 32//2 31//2
f 33//1 32//1 34//1
f 34//2 32//2 33//2
f 33//1 34//1 35//1
f 35//2 34//2 33//2
f 35//1 34//1 36//1
f 36//2 34//2 35//2
f 36//1 34//1 37//1
f 37//2 34//2 36//2
f 36//1 37//1 38//1
f 38//2 37//2 36//2
f 38//1 37//1 39//1
f 39//2 37//2 38//2
f 38//1 39//1 40//1
f 40//2 39//2 38//2
f 38//1 40//1 41//1
f 41//2 40//2 38//2
f 41//1 40//1 42//1
f 42//2 40//2 41//2
f 41//1 42//1 43//1
f 43//2 42//2 41//2
f 43//1 42//1 44//1
f 44//2 42//2 43//2
f 43//1 44//1 45//1
f 45//2 44//2 43//2
f 45//1 44//1 46//1
f 46//2 44//2 45//2
f 45//1 46//1 47//1
f 47//2 46//2 45//2
f 47//1 46//1 48//1
f 48//2 46//2 47//2
f 47//1 48//1 49//1
f 49//2 48//2 47//2
f 49//1 48//1 50//1
f 50//2 48//2 49//2
f 49//1 50//1 51//1
f 51//2 50//2 49//2
