# SSTK version 0.8.0
# 114
mtllib original-114.mtl
o #ID2411
v -0.359063 0.011210 0.048948
v -0.442350 0.006883 0.048948
v -0.359063 0.006883 0.048948
v -0.442350 0.011210 0.048948
v -0.358781 0.011210 0.048930
v -0.358781 0.006883 0.048930
v -0.444494 0.011210 0.047068
v -0.444513 0.011210 0.018664
v -0.444513 0.011210 0.046785
v -0.444494 0.011210 0.018381
v -0.444439 0.011210 0.047345
v -0.444439 0.011210 0.018104
v -0.444348 0.011210 0.017836
v -0.444348 0.011210 0.047613
v -0.444223 0.011210 0.017582
v -0.444223 0.011210 0.047867
v -0.444066 0.011210 0.017347
v -0.444066 0.011210 0.048102
v -0.443879 0.011210 0.017134
v -0.443879 0.011210 0.048315
v -0.443667 0.011210 0.016947
v -0.443667 0.011210 0.048501
v -0.443431 0.011210 0.016790
v -0.443431 0.011210 0.048659
v -0.443177 0.011210 0.016665
v -0.443177 0.011210 0.048784
v -0.442910 0.011210 0.016574
v -0.442910 0.011210 0.048875
v -0.442632 0.011210 0.048930
v -0.442632 0.011210 0.016519
v -0.442350 0.011210 0.048948
v -0.442350 0.011210 0.016500
v -0.359063 0.011210 0.048948
v -0.359063 0.011210 0.016500
v -0.358781 0.011210 0.016519
v -0.358781 0.011210 0.048930
v -0.358503 0.011210 0.016574
v -0.358503 0.011210 0.048875
v -0.358235 0.011210 0.016665
v -0.358235 0.011210 0.048784
v -0.357982 0.011210 0.016790
v -0.357982 0.011210 0.048659
v -0.357746 0.011210 0.016947
v -0.357746 0.011210 0.048501
v -0.357534 0.011210 0.017134
v -0.357534 0.011210 0.048315
v -0.357347 0.011210 0.017347
v -0.357347 0.011210 0.048102
v -0.357190 0.011210 0.017582
v -0.357190 0.011210 0.047867
v -0.357065 0.011210 0.017836
v -0.357065 0.011210 0.047613
v -0.356974 0.011210 0.018104
v -0.356974 0.011210 0.047345
v -0.356918 0.011210 0.018381
v -0.356918 0.011210 0.047068
v -0.356900 0.011210 0.018664
v -0.356900 0.011210 0.046785
v -0.442632 0.006883 0.048930
v -0.442632 0.011210 0.048930
v -0.358503 0.011210 0.048875
v -0.358503 0.006883 0.048875
v -0.359063 0.011210 0.016500
v -0.358781 0.006883 0.016519
v -0.359063 0.006883 0.016500
v -0.358781 0.011210 0.016519
v -0.442350 0.006883 0.016500
v -0.442350 0.011210 0.016500
v -0.442632 0.011210 0.016519
v -0.442632 0.006883 0.016519
v -0.442910 0.011210 0.016574
v -0.442910 0.006883 0.016574
v -0.443177 0.011210 0.016665
v -0.443177 0.006883 0.016665
v -0.443431 0.011210 0.016790
v -0.443431 0.006883 0.016790
v -0.443667 0.011210 0.016947
v -0.443667 0.006883 0.016947
v -0.443879 0.011210 0.017134
v -0.443879 0.006883 0.017134
v -0.444066 0.006883 0.017347
v -0.444066 0.011210 0.017347
v -0.444223 0.006883 0.017582
v -0.444223 0.011210 0.017582
v -0.444348 0.006883 0.017836
v -0.444348 0.011210 0.017836
v -0.444439 0.006883 0.018104
v -0.444439 0.011210 0.018104
v -0.444494 0.006883 0.018381
v -0.444494 0.011210 0.018381
v -0.444513 0.006883 0.018664
v -0.444513 0.011210 0.018664
v -0.444513 0.006883 0.046785
v -0.444513 0.011210 0.046785
v -0.444494 0.006883 0.047068
v -0.444494 0.011210 0.047068
v -0.444509 0.006883 0.046850
v -0.444439 0.006883 0.047345
v -0.444439 0.011210 0.047345
v -0.444348 0.006883 0.047613
v -0.444348 0.011210 0.047613
v -0.444223 0.006883 0.047867
v -0.444223 0.011210 0.047867
v -0.444066 0.006883 0.048102
v -0.444066 0.011210 0.048102
v -0.443879 0.006883 0.048315
v -0.443879 0.011210 0.048315
v -0.443667 0.011210 0.048501
v -0.443667 0.006883 0.048501
v -0.443431 0.011210 0.048659
v -0.443517 0.006883 0.048601
v -0.443431 0.006883 0.048659
v -0.443177 0.011210 0.048784
v -0.443177 0.006883 0.048784
v -0.442910 0.011210 0.048875
v -0.442910 0.006883 0.048875
v -0.358235 0.011210 0.048784
v -0.358235 0.006883 0.048784
v -0.357982 0.011210 0.048659
v -0.357982 0.006883 0.048659
v -0.357746 0.011210 0.048501
v -0.357746 0.006883 0.048501
v -0.357534 0.011210 0.048315
v -0.357534 0.006883 0.048315
v -0.357347 0.006883 0.048102
v -0.357347 0.011210 0.048102
v -0.357190 0.006883 0.047867
v -0.357190 0.011210 0.047867
v -0.357065 0.006883 0.047613
v -0.357065 0.011210 0.047613
v -0.356974 0.006883 0.047345
v -0.356974 0.011210 0.047345
v -0.356918 0.006883 0.047068
v -0.356918 0.011210 0.047068
v -0.356900 0.006883 0.046785
v -0.356900 0.011210 0.046785
v -0.356900 0.006883 0.018664
v -0.356900 0.011210 0.018664
v -0.356918 0.006883 0.018381
v -0.356918 0.011210 0.018381
v -0.356974 0.006883 0.018104
v -0.356974 0.011210 0.018104
v -0.357065 0.006883 0.017836
v -0.357065 0.011210 0.017836
v -0.357190 0.006883 0.017582
v -0.357190 0.011210 0.017582
v -0.357347 0.006883 0.017347
v -0.357347 0.011210 0.017347
v -0.357534 0.006883 0.017134
v -0.357534 0.011210 0.017134
v -0.357746 0.011210 0.016947
v -0.357746 0.006883 0.016947
v -0.357982 0.011210 0.016790
v -0.357982 0.006883 0.016790
v -0.358235 0.011210 0.016665
v -0.358235 0.006883 0.016665
v -0.358503 0.011210 0.016574
v -0.358503 0.006883 0.016574
vn 0.03271907959347842 0 0.9994645875820491
vn -0.03271907959347842 0 0.9994645875820491
vn -0.03271907959347842 0 -0.9994645875820491
vn 0.03271907959347842 0 -0.9994645875820491
vn 0.1305261948688555 0 0.9914448610250887
vn -0.1305261948688555 0 -0.9914448610250887
vn 0 1 0
vn 0 -1 0
vn -0.1305261948688555 0 0.9914448610250887
vn 0.1305261948688555 0 -0.9914448610250887
vn 0.25881900959356163 0 0.9659258358036645
vn -0.25881900959356163 0 -0.9659258358036645
vn -0.38268341623423263 0 -0.9238795391929066
vn 0.38268341623423263 0 0.9238795391929066
vn -0.5000000016387101 0 -0.866025402838329
vn 0.5000000016387101 0 0.866025402838329
vn -0.608761430209528 0 -0.7933533393698233
vn 0.608761430209528 0 0.7933533393698233
vn -0.7071067811865476 0 -0.7071067811865476
vn 0.7071067811865476 0 0.7071067811865476
vn -0.7933533393698233 0 -0.608761430209528
vn 0.7933533393698233 0 0.608761430209528
vn -0.866025402838329 0 -0.5000000016387101
vn 0.866025402838329 0 0.5000000016387101
vn -0.9238795391929066 0 -0.38268341623423263
vn 0.9238795391929066 0 0.38268341623423263
vn -0.9659258358036645 0 -0.25881900959356163
vn 0.9659258358036645 0 0.25881900959356163
vn -0.9914448610250887 0 -0.1305261948688555
vn 0.9914448610250887 0 0.1305261948688555
vn -0.9994645875820491 0 -0.03271907959347842
vn 0.9994645875820491 0 0.03271907959347842
vn -0.9994645875820491 0 0.03271907959347842
vn 0.9994645875820491 0 -0.03271907959347842
vn -0.9914448610250887 0 0.1305261948688555
vn 0.9914448610250887 0 -0.1305261948688555
vn -0.9978589230889555 0 0.06540313151333016
vn 0.9978589230889555 0 -0.06540313151333016
vn -0.9659258358036645 0 0.25881900959356163
vn 0.9659258358036645 0 -0.25881900959356163
vn -0.9238795391929066 0 0.38268341623423263
vn 0.9238795391929066 0 -0.38268341623423263
vn -0.866025402838329 0 0.5000000016387101
vn 0.866025402838329 0 -0.5000000016387101
vn -0.7933533393698233 0 0.608761430209528
vn 0.7933533393698233 0 -0.608761430209528
vn -0.7071067811865476 0 0.7071067811865476
vn 0.7071067811865476 0 -0.7071067811865476
vn -0.608761430209528 0 0.7933533393698233
vn 0.608761430209528 0 -0.7933533393698233
vn -0.5000000016387101 0 0.866025402838329
vn -0.555570215874808 0 0.8314696237583302
vn 0.5000000016387101 0 -0.866025402838329
vn 0.555570215874808 0 -0.8314696237583302
vn -0.38268341623423263 0 0.9238795391929066
vn 0.38268341623423263 0 -0.9238795391929066
vn -0.25881900959356163 0 0.9659258358036645
vn 0.25881900959356163 0 -0.9659258358036645
usemtl material_0_2
f 1//1 2//2 3//1
f 3//3 2//4 1//3
f 2//2 1//1 4//2
f 4//4 1//3 2//4
f 5//5 3//1 6//5
f 6//6 3//3 5//6
f 3//1 5//5 1//1
f 1//3 5//6 3//3
f 7//7 8//7 9//7
f 9//8 8//8 7//8
f 8//7 7//7 10//7
f 10//8 7//8 8//8
f 10//7 7//7 11//7
f 11//8 7//8 10//8
f 10//7 11//7 12//7
f 12//8 11//8 10//8
f 12//7 11//7 13//7
f 13//8 11//8 12//8
f 13//7 11//7 14//7
f 14//8 11//8 13//8
f 13//7 14//7 15//7
f 15//8 14//8 13//8
f 15//7 14//7 16//7
f 16//8 14//8 15//8
f 15//7 16//7 17//7
f 17//8 16//8 15//8
f 17//7 16//7 18//7
f 18//8 16//8 17//8
f 17//7 18//7 19//7
f 19//8 18//8 17//8
f 19//7 18//7 20//7
f 20//8 18//8 19//8
f 19//7 20//7 21//7
f 21//8 20//8 19//8
f 21//7 20//7 22//7
f 22//8 20//8 21//8
f 21//7 22//7 23//7
f 23//8 22//8 21//8
f 23//7 22//7 24//7
f 24//8 22//8 23//8
f 23//7 24//7 25//7
f 25//8 24//8 23//8
f 25//7 24//7 26//7
f 26//8 24//8 25//8
f 25//7 26//7 27//7
f 27//8 26//8 25//8
f 27//7 26//7 28//7
f 28//8 26//8 27//8
f 27//7 28//7 29//7
f 29//8 28//8 27//8
f 27//7 29//7 30//7
f 30//8 29//8 27//8
f 30//7 29//7 31//7
f 31//8 29//8 30//8
f 30//7 31//7 32//7
f 32//8 31//8 30//8
f 32//7 31//7 33//7
f 33//8 31//8 32//8
f 32//7 33//7 34//7
f 34//8 33//8 32//8
f 34//7 33//7 35//7
f 35//8 33//8 34//8
f 35//7 33//7 36//7
f 36//8 33//8 35//8
f 35//7 36//7 37//7
f 37//8 36//8 35//8
f 37//7 36//7 38//7
f 38//8 36//8 37//8
f 37//7 38//7 39//7
f 39//8 38//8 37//8
f 39//7 38//7 40//7
f 40//8 38//8 39//8
f 39//7 40//7 41//7
f 41//8 40//8 39//8
f 41//7 40//7 42//7
f 42//8 40//8 41//8
f 41//7 42//7 43//7
f 43//8 42//8 41//8
f 43//7 42//7 44//7
f 44//8 42//8 43//8
f 43//7 44//7 45//7
f 45//8 44//8 43//8
f 45//7 44//7 46//7
f 46//8 44//8 45//8
f 45//7 46//7 47//7
f 47//8 46//8 45//8
f 47//7 46//7 48//7
f 48//8 46//8 47//8
f 47//7 48//7 49//7
f 49//8 48//8 47//8
f 49//7 48//7 50//7
f 50//8 48//8 49//8
f 49//7 50//7 51//7
f 51//8 50//8 49//8
f 51//7 50//7 52//7
f 52//8 50//8 51//8
f 51//7 52//7 53//7
f 53//8 52//8 51//8
f 53//7 52//7 54//7
f 54//8 52//8 53//8
f 53//7 54//7 55//7
f 55//8 54//8 53//8
f 55//7 54//7 56//7
f 56//8 54//8 55//8
f 55//7 56//7 57//7
f 57//8 56//8 55//8
f 57//7 56//7 58//7
f 58//8 56//8 57//8
f 4//2 59//9 2//2
f 2//4 59//10 4//4
f 59//9 4//2 60//9
f 60//10 4//4 59//10
f 61//11 6//5 62//11
f 62//12 6//6 61//12
f 6//5 61//11 5//5
f 5//6 61//12 6//6
f 63//4 64//10 65//4
f 65//2 64//9 63//2
f 64//10 63//4 66//10
f 66//9 63//2 64//9
f 67//3 63//4 65//4
f 65//2 63//2 67//1
f 63//4 67//3 68//3
f 68//1 67//1 63//2
f 69//6 67//3 70//6
f 70//5 67//1 69//5
f 67//3 69//6 68//3
f 68//1 69//5 67//1
f 71//12 70//6 72//12
f 72//11 70//5 71//11
f 70//6 71//12 69//6
f 69//5 71//11 70//5
f 73//13 72//12 74//13
f 74//14 72//11 73//14
f 72//12 73//13 71//12
f 71//11 73//14 72//11
f 75//15 74//13 76//15
f 76//16 74//14 75//16
f 74//13 75//15 73//13
f 73//14 75//16 74//14
f 77//17 76//15 78//17
f 78//18 76//16 77//18
f 76//15 77//17 75//15
f 75//16 77//18 76//16
f 79//19 78//17 80//19
f 80//20 78//18 79//20
f 78//17 79//19 77//17
f 77//18 79//20 78//18
f 79//19 81//21 82//21
f 82//22 81//22 79//20
f 81//21 79//19 80//19
f 80//20 79//20 81//22
f 82//21 83//23 84//23
f 84//24 83//24 82//22
f 83//23 82//21 81//21
f 81//22 82//22 83//24
f 84//23 85//25 86//25
f 86//26 85//26 84//24
f 85//25 84//23 83//23
f 83//24 84//24 85//26
f 86//25 87//27 88//27
f 88//28 87//28 86//26
f 87//27 86//25 85//25
f 85//26 86//26 87//28
f 88//27 89//29 90//29
f 90//30 89//30 88//28
f 89//29 88//27 87//27
f 87//28 88//28 89//30
f 90//29 91//31 92//31
f 92//32 91//32 90//30
f 91//31 90//29 89//29
f 89//30 90//30 91//32
f 92//31 93//33 94//33
f 94//34 93//34 92//32
f 93//33 92//31 91//31
f 91//32 92//32 93//34
f 94//33 95//35 96//35
f 96//36 95//36 94//34
f 95//35 94//33 97//37
f 97//38 94//34 95//36
f 97//37 94//33 93//33
f 93//34 94//34 97//38
f 96//35 98//39 99//39
f 99//40 98//40 96//36
f 98//39 96//35 95//35
f 95//36 96//36 98//40
f 99//39 100//41 101//41
f 101//42 100//42 99//40
f 100//41 99//39 98//39
f 98//40 99//40 100//42
f 101//41 102//43 103//43
f 103//44 102//44 101//42
f 102//43 101//41 100//41
f 100//42 101//42 102//44
f 103//43 104//45 105//45
f 105//46 104//46 103//44
f 104//45 103//43 102//43
f 102//44 103//44 104//46
f 105//45 106//47 107//47
f 107//48 106//48 105//46
f 106//47 105//45 104//45
f 104//46 105//46 106//48
f 108//49 106//47 109//49
f 109//50 106//48 108//50
f 106//47 108//49 107//47
f 107//48 108//50 106//48
f 110//51 111//52 112//51
f 112//53 111//54 110//53
f 111//52 110//51 109//49
f 109//50 110//53 111//54
f 109//49 110//51 108//49
f 108//50 110//53 109//50
f 113//55 112//51 114//55
f 114//56 112//53 113//56
f 112//51 113//55 110//51
f 110//53 113//56 112//53
f 115//57 114//55 116//57
f 116//58 114//56 115//58
f 114//55 115//57 113//55
f 113//56 115//58 114//56
f 60//9 116//57 59//9
f 59//10 116//58 60//10
f 116//57 60//9 115//57
f 115//58 60//10 116//58
f 117//14 62//11 118//14
f 118//13 62//12 117//13
f 62//11 117//14 61//11
f 61//12 117//13 62//12
f 119//16 118//14 120//16
f 120//15 118//13 119//15
f 118//14 119//16 117//14
f 117//13 119//15 118//13
f 121//18 120//16 122//18
f 122//17 120//15 121//17
f 120//16 121//18 119//16
f 119//15 121//17 120//15
f 123//20 122//18 124//20
f 124//19 122//17 123//19
f 122//18 123//20 121//18
f 121//17 123//19 122//17
f 125//22 123//20 124//20
f 124//19 123//19 125//21
f 123//20 125//22 126//22
f 126//21 125//21 123//19
f 127//24 126//22 125//22
f 125//21 126//21 127//23
f 126//22 127//24 128//24
f 128//23 127//23 126//21
f 129//26 128//24 127//24
f 127//23 128//23 129//25
f 128//24 129//26 130//26
f 130//25 129//25 128//23
f 131//28 130//26 129//26
f 129//25 130//25 131//27
f 130//26 131//28 132//28
f 132//27 131//27 130//25
f 133//30 132//28 131//28
f 131//27 132//27 133//29
f 132//28 133//30 134//30
f 134//29 133//29 132//27
f 135//32 134//30 133//30
f 133//29 134//29 135//31
f 134//30 135//32 136//32
f 136//31 135//31 134//29
f 137//34 136//32 135//32
f 135//31 136//31 137//33
f 136//32 137//34 138//34
f 138//33 137//33 136//31
f 139//36 138//34 137//34
f 137//33 138//33 139//35
f 138//34 139//36 140//36
f 140//35 139//35 138//33
f 141//40 140//36 139//36
f 139//35 140//35 141//39
f 140//36 141//40 142//40
f 142//39 141//39 140//35
f 143//42 142//40 141//40
f 141//39 142//39 143//41
f 142//40 143//42 144//42
f 144//41 143//41 142//39
f 145//44 144//42 143//42
f 143//41 144//41 145//43
f 144//42 145//44 146//44
f 146//43 145//43 144//41
f 147//46 146//44 145//44
f 145//43 146//43 147//45
f 146//44 147//46 148//46
f 148//45 147//45 146//43
f 149//48 148//46 147//46
f 147//45 148//45 149//47
f 148//46 149//48 150//48
f 150//47 149//47 148//45
f 151//50 149//48 152//50
f 152//49 149//47 151//49
f 149//48 151//50 150//48
f 150//47 151//49 149//47
f 153//53 152//50 154//53
f 154//51 152//49 153//51
f 152//50 153//53 151//50
f 151//49 153//51 152//49
f 155//56 154//53 156//56
f 156//55 154//51 155//55
f 154//53 155//56 153//53
f 153//51 155//55 154//51
f 157//58 156//56 158//58
f 158//57 156//55 157//57
f 156//56 157//58 155//56
f 155//55 157//57 156//55
f 66//10 158//58 64//10
f 64//9 158//57 66//9
f 158//58 66//10 157//58
f 157//57 66//9 158//57
