# SSTK version 0.8.0
# 454
mtllib original-454.mtl
o #ID1545
v -0.243694 0.011226 -0.030298
v -0.244125 0.011226 -0.029939
v -0.244125 0.011226 -0.030298
v -0.243694 0.011226 -0.029939
v -0.244445 0.011226 -0.032366
v -0.245900 0.011226 -0.029939
v -0.245900 0.011226 -0.030298
v -0.245515 0.011226 -0.030298
v -0.244516 0.011226 -0.031737
v -0.244516 0.011226 -0.030298
v -0.244516 0.011226 -0.029939
v -0.244516 0.011226 -0.029176
v -0.244125 0.011226 -0.029176
v -0.244125 0.011226 -0.032366
v -0.244516 0.011226 -0.030298
v -0.245515 0.011226 -0.030298
v -0.244516 0.011226 -0.029939
v -0.245900 0.011226 -0.029939
v -0.244125 0.011226 -0.029939
v -0.244125 0.011226 -0.030298
v -0.244125 0.011226 -0.029176
v -0.244125 0.011226 -0.032366
v -0.244445 0.011226 -0.032366
v -0.244516 0.011226 -0.029176
v -0.244516 0.011226 -0.031737
v -0.245900 0.011226 -0.030298
v -0.243694 0.011226 -0.029939
v -0.243694 0.011226 -0.030298
vn 0 -1 0
vn 0 1 0
usemtl material_0_0
f 1//1 2//1 3//1
f 2//1 1//1 4//1
f 5//1 6//1 7//1
f 6//1 5//1 8//1
f 8//1 5//1 9//1
f 9//1 5//1 10//1
f 10//1 5//1 11//1
f 11//1 5//1 12//1
f 12//1 5//1 13//1
f 13//1 5//1 14//1
f 13//1 14//1 3//1
f 13//1 3//1 2//1
f 8//1 11//1 6//1
f 11//1 8//1 10//1
usemtl material_1_0
f 15//2 16//2 17//2
f 18//2 17//2 16//2
f 19//2 20//2 21//2
f 20//2 22//2 21//2
f 22//2 23//2 21//2
f 21//2 23//2 24//2
f 24//2 23//2 17//2
f 17//2 23//2 15//2
f 15//2 23//2 25//2
f 25//2 23//2 16//2
f 16//2 23//2 18//2
f 26//2 18//2 23//2
f 27//2 28//2 19//2
f 20//2 19//2 28//2
