# SSTK version 0.8.0
# 401
mtllib original-401.mtl
o #ID1305
v -0.225320 0.011210 0.028420
v -0.224194 0.011210 0.029360
v -0.225320 0.011210 0.036928
v -0.221548 0.011210 0.028420
v -0.221501 0.011210 0.029360
v -0.220547 0.011210 0.028477
v -0.220682 0.011210 0.029457
v -0.220368 0.011210 0.029579
v -0.219818 0.011210 0.028649
v -0.220117 0.011210 0.029749
v -0.219788 0.011210 0.030192
v -0.219286 0.011210 0.028966
v -0.219679 0.011210 0.030741
v -0.219437 0.011210 0.032550
v -0.219104 0.011210 0.032268
v -0.218872 0.011210 0.029459
v -0.218848 0.011210 0.031939
v -0.218607 0.011210 0.030070
v -0.218665 0.011210 0.031576
v -0.218555 0.011210 0.031176
v -0.218518 0.011210 0.030741
v -0.220567 0.011210 0.032015
v -0.220915 0.011210 0.033057
v -0.221086 0.011210 0.032135
v -0.220343 0.011210 0.032944
v -0.220184 0.011210 0.031808
v -0.219850 0.011210 0.032775
v -0.219905 0.011210 0.031505
v -0.219736 0.011210 0.031138
v -0.221774 0.011210 0.032175
v -0.224194 0.011210 0.033150
v -0.224194 0.011210 0.032175
v -0.222888 0.011210 0.033150
v -0.222261 0.011210 0.033190
v -0.221748 0.011210 0.033417
v -0.221176 0.011210 0.033985
v -0.220364 0.011210 0.035158
v -0.220236 0.011210 0.033481
v -0.219238 0.011210 0.036928
v -0.219756 0.011210 0.033990
v -0.219302 0.011210 0.034612
v -0.217822 0.011210 0.036928
v -0.224194 0.011210 0.036928
v -0.224194 0.011210 0.033150
v -0.224194 0.011210 0.032175
v -0.224194 0.011210 0.036928
v -0.224194 0.011210 0.029360
v -0.225320 0.011210 0.036928
v -0.217822 0.011210 0.036928
v -0.219302 0.011210 0.034612
v -0.219238 0.011210 0.036928
v -0.219756 0.011210 0.033990
v -0.220236 0.011210 0.033481
v -0.220364 0.011210 0.035158
v -0.220915 0.011210 0.033057
v -0.221176 0.011210 0.033985
v -0.221086 0.011210 0.032135
v -0.221748 0.011210 0.033417
v -0.221774 0.011210 0.032175
v -0.222261 0.011210 0.033190
v -0.222888 0.011210 0.033150
v -0.219679 0.011210 0.030741
v -0.219736 0.011210 0.031138
v -0.219437 0.011210 0.032550
v -0.219850 0.011210 0.032775
v -0.219905 0.011210 0.031505
v -0.220184 0.011210 0.031808
v -0.220343 0.011210 0.032944
v -0.220567 0.011210 0.032015
v -0.218518 0.011210 0.030741
v -0.218607 0.011210 0.030070
v -0.218555 0.011210 0.031176
v -0.218665 0.011210 0.031576
v -0.218848 0.011210 0.031939
v -0.218872 0.011210 0.029459
v -0.219104 0.011210 0.032268
v -0.219286 0.011210 0.028966
v -0.219788 0.011210 0.030192
v -0.219818 0.011210 0.028649
v -0.220117 0.011210 0.029749
v -0.220368 0.011210 0.029579
v -0.220547 0.011210 0.028477
v -0.220682 0.011210 0.029457
v -0.221501 0.011210 0.029360
v -0.221548 0.011210 0.028420
v -0.225320 0.011210 0.028420
vn 0 -1 0
vn 0 1 0
usemtl material_0_0
f 1//1 2//1 3//1
f 2//1 1//1 4//1
f 2//1 4//1 5//1
f 5//1 4//1 6//1
f 5//1 6//1 7//1
f 7//1 6//1 8//1
f 8//1 6//1 9//1
f 8//1 9//1 10//1
f 10//1 9//1 11//1
f 11//1 9//1 12//1
f 11//1 12//1 13//1
f 13//1 12//1 14//1
f 14//1 12//1 15//1
f 15//1 12//1 16//1
f 15//1 16//1 17//1
f 17//1 16//1 18//1
f 17//1 18//1 19//1
f 19//1 18//1 20//1
f 20//1 18//1 21//1
f 22//1 23//1 24//1
f 23//1 22//1 25//1
f 25//1 22//1 26//1
f 25//1 26//1 27//1
f 27//1 26//1 28//1
f 27//1 28//1 29//1
f 27//1 29//1 14//1
f 14//1 29//1 13//1
f 30//1 31//1 32//1
f 31//1 30//1 33//1
f 33//1 30//1 34//1
f 34//1 30//1 35//1
f 35//1 30//1 24//1
f 35//1 24//1 36//1
f 36//1 24//1 23//1
f 36//1 23//1 37//1
f 37//1 23//1 38//1
f 37//1 38//1 39//1
f 39//1 38//1 40//1
f 39//1 40//1 41//1
f 39//1 41//1 42//1
f 2//1 43//1 3//1
f 43//1 2//1 32//1
f 43//1 32//1 31//1
usemtl material_1_0
f 44//2 45//2 46//2
f 45//2 47//2 46//2
f 48//2 46//2 47//2
f 49//2 50//2 51//2
f 50//2 52//2 51//2
f 52//2 53//2 51//2
f 51//2 53//2 54//2
f 53//2 55//2 54//2
f 54//2 55//2 56//2
f 55//2 57//2 56//2
f 56//2 57//2 58//2
f 57//2 59//2 58//2
f 58//2 59//2 60//2
f 60//2 59//2 61//2
f 61//2 59//2 44//2
f 45//2 44//2 59//2
f 62//2 63//2 64//2
f 64//2 63//2 65//2
f 63//2 66//2 65//2
f 66//2 67//2 65//2
f 65//2 67//2 68//2
f 67//2 69//2 68//2
f 68//2 69//2 55//2
f 57//2 55//2 69//2
f 70//2 71//2 72//2
f 72//2 71//2 73//2
f 73//2 71//2 74//2
f 71//2 75//2 74//2
f 74//2 75//2 76//2
f 75//2 77//2 76//2
f 76//2 77//2 64//2
f 64//2 77//2 62//2
f 62//2 77//2 78//2
f 77//2 79//2 78//2
f 78//2 79//2 80//2
f 80//2 79//2 81//2
f 79//2 82//2 81//2
f 81//2 82//2 83//2
f 83//2 82//2 84//2
f 82//2 85//2 84//2
f 84//2 85//2 47//2
f 85//2 86//2 47//2
f 48//2 47//2 86//2
