# SSTK version 0.8.0
# 438
mtllib original-438.mtl
o #ID1453
v -0.063320 0.011253 -0.004634
v -0.063415 0.011253 -0.002171
v -0.063726 0.011253 -0.004289
v -0.063383 0.011253 -0.002602
v -0.063286 0.011253 -0.002992
v -0.062866 0.011253 -0.004881
v -0.063125 0.011253 -0.003339
v -0.062899 0.011253 -0.003645
v -0.062629 0.011253 -0.003894
v -0.062364 0.011253 -0.005029
v -0.062337 0.011253 -0.004071
v -0.061813 0.011253 -0.005078
v -0.062023 0.011253 -0.004178
v -0.061686 0.011253 -0.004213
v -0.061019 0.011253 -0.004966
v -0.061361 0.011253 -0.004180
v -0.061061 0.011253 -0.004081
v -0.060785 0.011253 -0.003916
v -0.060296 0.011253 -0.004631
v -0.060534 0.011253 -0.003685
v -0.060324 0.011253 -0.003398
v -0.060175 0.011253 -0.003064
v -0.059691 0.011253 -0.004089
v -0.060085 0.011253 -0.002684
v -0.060055 0.011253 -0.002258
v -0.059939 0.011253 -0.000540
v -0.059933 0.011253 -0.000331
v -0.063328 0.011253 0.001404
v -0.064237 0.011253 0.001971
v -0.064332 0.011253 0.001497
v -0.064078 0.011253 0.002389
v -0.063857 0.011253 0.002750
v -0.063572 0.011253 0.003055
v -0.063233 0.011253 0.003298
v -0.063142 0.011253 0.002015
v -0.062848 0.011253 0.003471
v -0.062841 0.011253 0.002431
v -0.062417 0.011253 0.003575
v -0.062430 0.011253 0.002671
v -0.061918 0.011253 0.002751
v -0.061941 0.011253 0.003609
v -0.061486 0.011253 0.003578
v -0.061466 0.011253 0.002695
v -0.061061 0.011253 0.003483
v -0.061073 0.011253 0.002530
v -0.060743 0.011253 0.002273
v -0.060666 0.011253 0.003325
v -0.060479 0.011253 0.001941
v -0.060302 0.011253 0.003105
v -0.060265 0.011253 0.001508
v -0.059974 0.011253 0.002823
v -0.060090 0.011253 0.000946
v -0.059972 0.011253 0.000313
v -0.059689 0.011253 0.002484
v -0.059251 0.011253 -0.003357
v -0.059248 0.011253 0.001633
v -0.059095 0.011253 -0.002898
v -0.058983 0.011253 0.000501
v -0.058984 0.011253 -0.002345
v -0.058894 0.011253 -0.000964
v -0.064441 0.011253 -0.002821
v -0.064443 0.011253 -0.001609
v -0.064489 0.011253 -0.002205
v -0.064306 0.011253 -0.001074
v -0.064298 0.011253 -0.003373
v -0.064077 0.011253 -0.000599
v -0.064059 0.011253 -0.003863
v -0.063757 0.011253 -0.000186
v -0.063372 0.011253 0.000149
v -0.063384 0.011253 -0.001783
v -0.063293 0.011253 -0.001434
v -0.062945 0.011253 0.000389
v -0.063139 0.011253 -0.001123
v -0.062925 0.011253 -0.000850
v -0.062478 0.011253 0.000532
v -0.062665 0.011253 -0.000628
v -0.062377 0.011253 -0.000470
v -0.061970 0.011253 0.000580
v -0.062060 0.011253 -0.000374
v -0.061715 0.011253 -0.000343
v -0.061360 0.011253 0.000502
v -0.061368 0.011253 -0.000374
v -0.061054 0.011253 -0.000470
v -0.060795 0.011253 0.000270
v -0.060772 0.011253 -0.000628
v -0.060310 0.011253 -0.000088
v -0.060522 0.011253 -0.000850
v -0.060318 0.011253 -0.001129
v -0.060172 0.011253 -0.001456
v -0.060055 0.011253 -0.002258
v -0.060172 0.011253 -0.001456
v -0.059939 0.011253 -0.000540
v -0.060310 0.011253 -0.000088
v -0.060318 0.011253 -0.001129
v -0.060522 0.011253 -0.000850
v -0.060772 0.011253 -0.000628
v -0.060795 0.011253 0.000270
v -0.061054 0.011253 -0.000470
v -0.061360 0.011253 0.000502
v -0.061368 0.011253 -0.000374
v -0.061715 0.011253 -0.000343
v -0.061970 0.011253 0.000580
v -0.062060 0.011253 -0.000374
v -0.062377 0.011253 -0.000470
v -0.062478 0.011253 0.000532
v -0.062665 0.011253 -0.000628
v -0.062925 0.011253 -0.000850
v -0.062945 0.011253 0.000389
v -0.063139 0.011253 -0.001123
v -0.063293 0.011253 -0.001434
v -0.063372 0.011253 0.000149
v -0.063384 0.011253 -0.001783
v -0.063415 0.011253 -0.002171
v -0.063726 0.011253 -0.004289
v -0.063757 0.011253 -0.000186
v -0.064059 0.011253 -0.003863
v -0.064077 0.011253 -0.000599
v -0.064298 0.011253 -0.003373
v -0.064306 0.011253 -0.001074
v -0.064441 0.011253 -0.002821
v -0.064443 0.011253 -0.001609
v -0.064489 0.011253 -0.002205
v -0.058894 0.011253 -0.000964
v -0.058984 0.011253 -0.002345
v -0.058983 0.011253 0.000501
v -0.059095 0.011253 -0.002898
v -0.059248 0.011253 0.001633
v -0.059251 0.011253 -0.003357
v -0.059689 0.011253 0.002484
v -0.059691 0.011253 -0.004089
v -0.059933 0.011253 -0.000331
v -0.059972 0.011253 0.000313
v -0.059974 0.011253 0.002823
v -0.060090 0.011253 0.000946
v -0.060265 0.011253 0.001508
v -0.060302 0.011253 0.003105
v -0.060479 0.011253 0.001941
v -0.060666 0.011253 0.003325
v -0.060743 0.011253 0.002273
v -0.061061 0.011253 0.003483
v -0.061073 0.011253 0.002530
v -0.061466 0.011253 0.002695
v -0.061486 0.011253 0.003578
v -0.061918 0.011253 0.002751
v -0.061941 0.011253 0.003609
v -0.062417 0.011253 0.003575
v -0.062430 0.011253 0.002671
v -0.062841 0.011253 0.002431
v -0.062848 0.011253 0.003471
v -0.063142 0.011253 0.002015
v -0.063233 0.011253 0.003298
v -0.063328 0.011253 0.001404
v -0.063572 0.011253 0.003055
v -0.063857 0.011253 0.002750
v -0.064078 0.011253 0.002389
v -0.064237 0.011253 0.001971
v -0.064332 0.011253 0.001497
v -0.060085 0.011253 -0.002684
v -0.060175 0.011253 -0.003064
v -0.060296 0.011253 -0.004631
v -0.060324 0.011253 -0.003398
v -0.060534 0.011253 -0.003685
v -0.060785 0.011253 -0.003916
v -0.061019 0.011253 -0.004966
v -0.061061 0.011253 -0.004081
v -0.061361 0.011253 -0.004180
v -0.061686 0.011253 -0.004213
v -0.061813 0.011253 -0.005078
v -0.062023 0.011253 -0.004178
v -0.062337 0.011253 -0.004071
v -0.062364 0.011253 -0.005029
v -0.062629 0.011253 -0.003894
v -0.062866 0.011253 -0.004881
v -0.062899 0.011253 -0.003645
v -0.063125 0.011253 -0.003339
v -0.063286 0.011253 -0.002992
v -0.063320 0.011253 -0.004634
v -0.063383 0.011253 -0.002602
vn 0 -1 0
vn 0 1 0
usemtl material_0_0
f 1//1 2//1 3//1
f 2//1 1//1 4//1
f 4//1 1//1 5//1
f 5//1 1//1 6//1
f 5//1 6//1 7//1
f 7//1 6//1 8//1
f 8//1 6//1 9//1
f 9//1 6//1 10//1
f 9//1 10//1 11//1
f 11//1 10//1 12//1
f 11//1 12//1 13//1
f 13//1 12//1 14//1
f 14//1 12//1 15//1
f 14//1 15//1 16//1
f 16//1 15//1 17//1
f 17//1 15//1 18//1
f 18//1 15//1 19//1
f 18//1 19//1 20//1
f 20//1 19//1 21//1
f 21//1 19//1 22//1
f 22//1 19//1 23//1
f 22//1 23//1 24//1
f 24//1 23//1 25//1
f 25//1 23//1 26//1
f 26//1 23//1 27//1
f 28//1 29//1 30//1
f 29//1 28//1 31//1
f 31//1 28//1 32//1
f 32//1 28//1 33//1
f 33//1 28//1 34//1
f 34//1 28//1 35//1
f 34//1 35//1 36//1
f 36//1 35//1 37//1
f 36//1 37//1 38//1
f 38//1 37//1 39//1
f 38//1 39//1 40//1
f 38//1 40//1 41//1
f 41//1 40//1 42//1
f 42//1 40//1 43//1
f 42//1 43//1 44//1
f 44//1 43//1 45//1
f 44//1 45//1 46//1
f 44//1 46//1 47//1
f 47//1 46//1 48//1
f 47//1 48//1 49//1
f 49//1 48//1 50//1
f 49//1 50//1 51//1
f 51//1 50//1 52//1
f 51//1 52//1 53//1
f 51//1 53//1 54//1
f 54//1 53//1 27//1
f 54//1 27//1 23//1
f 54//1 23//1 55//1
f 54//1 55//1 56//1
f 56//1 55//1 57//1
f 56//1 57//1 58//1
f 58//1 57//1 59//1
f 58//1 59//1 60//1
f 61//1 62//1 63//1
f 62//1 61//1 64//1
f 64//1 61//1 65//1
f 64//1 65//1 66//1
f 66//1 65//1 67//1
f 66//1 67//1 68//1
f 68//1 67//1 3//1
f 68//1 3//1 69//1
f 69//1 3//1 2//1
f 69//1 2//1 70//1
f 69//1 70//1 71//1
f 69//1 71//1 72//1
f 72//1 71//1 73//1
f 72//1 73//1 74//1
f 72//1 74//1 75//1
f 75//1 74//1 76//1
f 75//1 76//1 77//1
f 75//1 77//1 78//1
f 78//1 77//1 79//1
f 78//1 79//1 80//1
f 78//1 80//1 81//1
f 81//1 80//1 82//1
f 81//1 82//1 83//1
f 81//1 83//1 84//1
f 84//1 83//1 85//1
f 84//1 85//1 86//1
f 86//1 85//1 87//1
f 86//1 87//1 88//1
f 86//1 88//1 89//1
f 86//1 89//1 26//1
f 26//1 89//1 25//1
usemtl material_1_0
f 90//2 91//2 92//2
f 92//2 91//2 93//2
f 91//2 94//2 93//2
f 94//2 95//2 93//2
f 95//2 96//2 93//2
f 93//2 96//2 97//2
f 96//2 98//2 97//2
f 97//2 98//2 99//2
f 98//2 100//2 99//2
f 100//2 101//2 99//2
f 99//2 101//2 102//2
f 101//2 103//2 102//2
f 103//2 104//2 102//2
f 102//2 104//2 105//2
f 104//2 106//2 105//2
f 106//2 107//2 105//2
f 105//2 107//2 108//2
f 107//2 109//2 108//2
f 109//2 110//2 108//2
f 108//2 110//2 111//2
f 110//2 112//2 111//2
f 112//2 113//2 111//2
f 113//2 114//2 111//2
f 111//2 114//2 115//2
f 114//2 116//2 115//2
f 115//2 116//2 117//2
f 116//2 118//2 117//2
f 117//2 118//2 119//2
f 118//2 120//2 119//2
f 119//2 120//2 121//2
f 122//2 121//2 120//2
f 123//2 124//2 125//2
f 124//2 126//2 125//2
f 125//2 126//2 127//2
f 126//2 128//2 127//2
f 127//2 128//2 129//2
f 128//2 130//2 129//2
f 130//2 131//2 129//2
f 131//2 132//2 129//2
f 129//2 132//2 133//2
f 132//2 134//2 133//2
f 134//2 135//2 133//2
f 133//2 135//2 136//2
f 135//2 137//2 136//2
f 136//2 137//2 138//2
f 137//2 139//2 138//2
f 138//2 139//2 140//2
f 139//2 141//2 140//2
f 141//2 142//2 140//2
f 140//2 142//2 143//2
f 142//2 144//2 143//2
f 143//2 144//2 145//2
f 145//2 144//2 146//2
f 144//2 147//2 146//2
f 147//2 148//2 146//2
f 146//2 148//2 149//2
f 148//2 150//2 149//2
f 149//2 150//2 151//2
f 150//2 152//2 151//2
f 151//2 152//2 153//2
f 153//2 152//2 154//2
f 154//2 152//2 155//2
f 155//2 152//2 156//2
f 157//2 156//2 152//2
f 131//2 130//2 92//2
f 92//2 130//2 90//2
f 90//2 130//2 158//2
f 158//2 130//2 159//2
f 130//2 160//2 159//2
f 159//2 160//2 161//2
f 161//2 160//2 162//2
f 162//2 160//2 163//2
f 160//2 164//2 163//2
f 163//2 164//2 165//2
f 165//2 164//2 166//2
f 166//2 164//2 167//2
f 164//2 168//2 167//2
f 167//2 168//2 169//2
f 169//2 168//2 170//2
f 168//2 171//2 170//2
f 170//2 171//2 172//2
f 171//2 173//2 172//2
f 172//2 173//2 174//2
f 174//2 173//2 175//2
f 175//2 173//2 176//2
f 173//2 177//2 176//2
f 176//2 177//2 178//2
f 178//2 177//2 113//2
f 114//2 113//2 177//2
