# SSTK version 0.8.0
# 236
mtllib original-236.mtl
o #ID568
v -0.394323 0.011210 0.094376
v -0.394323 0.006883 0.122497
v -0.394323 0.011210 0.122497
v -0.394323 0.006883 0.094376
v -0.394304 0.006883 0.122780
v -0.394304 0.011210 0.122780
v -0.394304 0.011210 0.122780
v -0.394323 0.011210 0.094376
v -0.394323 0.011210 0.122497
v -0.394304 0.011210 0.094093
v -0.394244 0.011210 0.123057
v -0.394244 0.011210 0.093816
v -0.394147 0.011210 0.123325
v -0.394147 0.011210 0.093548
v -0.394013 0.011210 0.123579
v -0.394013 0.011210 0.093294
v -0.393845 0.011210 0.123814
v -0.393845 0.011210 0.093059
v -0.393645 0.011210 0.124027
v -0.393645 0.011210 0.092846
v -0.393418 0.011210 0.124213
v -0.393418 0.011210 0.092659
v -0.393166 0.011210 0.092502
v -0.393166 0.011210 0.124371
v -0.392894 0.011210 0.092377
v -0.392894 0.011210 0.124496
v -0.392608 0.011210 0.124587
v -0.392608 0.011210 0.092286
v -0.392311 0.011210 0.124642
v -0.392311 0.011210 0.092231
v -0.392009 0.011210 0.124660
v -0.392009 0.011210 0.092212
v -0.361919 0.011210 0.124660
v -0.361919 0.011210 0.092212
v -0.361616 0.011210 0.124642
v -0.361616 0.011210 0.092231
v -0.361320 0.011210 0.124587
v -0.361320 0.011210 0.092286
v -0.361033 0.011210 0.124496
v -0.361033 0.011210 0.092377
v -0.360761 0.011210 0.124371
v -0.360761 0.011210 0.092502
v -0.360510 0.011210 0.092659
v -0.360510 0.011210 0.124213
v -0.360282 0.011210 0.092846
v -0.360282 0.011210 0.124027
v -0.360082 0.011210 0.123814
v -0.360082 0.011210 0.093059
v -0.359914 0.011210 0.123579
v -0.359914 0.011210 0.093294
v -0.359780 0.011210 0.123325
v -0.359780 0.011210 0.093548
v -0.359683 0.011210 0.123057
v -0.359683 0.011210 0.093816
v -0.359624 0.011210 0.122780
v -0.359624 0.011210 0.094093
v -0.359604 0.011210 0.122497
v -0.359604 0.011210 0.094376
v -0.394304 0.011210 0.094093
v -0.394304 0.006883 0.094093
v -0.394244 0.006883 0.123057
v -0.394244 0.011210 0.123057
v -0.359624 0.006883 0.094093
v -0.359604 0.011210 0.094376
v -0.359604 0.006883 0.094376
v -0.359624 0.011210 0.094093
v -0.359683 0.006883 0.093816
v -0.359683 0.011210 0.093816
v -0.359780 0.006883 0.093548
v -0.359780 0.011210 0.093548
v -0.359914 0.006883 0.093294
v -0.359914 0.011210 0.093294
v -0.360082 0.006883 0.093059
v -0.360082 0.011210 0.093059
v -0.360282 0.006883 0.092846
v -0.360282 0.011210 0.092846
v -0.360510 0.011210 0.092659
v -0.360510 0.006883 0.092659
v -0.360761 0.011210 0.092502
v -0.360761 0.006883 0.092502
v -0.361033 0.011210 0.092377
v -0.361033 0.006883 0.092377
v -0.361320 0.011210 0.092286
v -0.361320 0.006883 0.092286
v -0.361616 0.011210 0.092231
v -0.361616 0.006883 0.092231
v -0.361919 0.011210 0.092212
v -0.361919 0.006883 0.092212
v -0.392009 0.011210 0.092212
v -0.392009 0.006883 0.092212
v -0.392311 0.011210 0.092231
v -0.392311 0.006883 0.092231
v -0.392608 0.011210 0.092286
v -0.392608 0.006883 0.092286
v -0.392894 0.011210 0.092377
v -0.392894 0.006883 0.092377
v -0.393166 0.011210 0.092502
v -0.393166 0.006883 0.092502
v -0.393418 0.011210 0.092659
v -0.393418 0.006883 0.092659
v -0.393645 0.011210 0.092846
v -0.393645 0.006883 0.092846
v -0.393845 0.006883 0.093059
v -0.393845 0.011210 0.093059
v -0.394013 0.006883 0.093294
v -0.394013 0.011210 0.093294
v -0.394147 0.006883 0.093548
v -0.394147 0.011210 0.093548
v -0.394244 0.006883 0.093816
v -0.394244 0.011210 0.093816
v -0.394147 0.006883 0.123325
v -0.394147 0.011210 0.123325
v -0.394013 0.006883 0.123579
v -0.394013 0.011210 0.123579
v -0.393845 0.006883 0.123814
v -0.393845 0.011210 0.123814
v -0.393645 0.006883 0.124027
v -0.393645 0.011210 0.124027
v -0.393418 0.011210 0.124213
v -0.393418 0.006883 0.124213
v -0.393166 0.011210 0.124371
v -0.393257 0.006883 0.124314
v -0.393166 0.006883 0.124371
v -0.392894 0.011210 0.124496
v -0.392894 0.006883 0.124496
v -0.392608 0.011210 0.124587
v -0.392608 0.006883 0.124587
v -0.392311 0.011210 0.124642
v -0.392311 0.006883 0.124642
v -0.392009 0.011210 0.124660
v -0.392009 0.006883 0.124660
v -0.361919 0.011210 0.124660
v -0.361919 0.006883 0.124660
v -0.361616 0.011210 0.124642
v -0.361616 0.006883 0.124642
v -0.361320 0.011210 0.124587
v -0.361320 0.006883 0.124587
v -0.361033 0.011210 0.124496
v -0.361033 0.006883 0.124496
v -0.360761 0.011210 0.124371
v -0.360761 0.006883 0.124371
v -0.360510 0.011210 0.124213
v -0.360510 0.006883 0.124213
v -0.360282 0.011210 0.124027
v -0.360282 0.006883 0.124027
v -0.360082 0.006883 0.123814
v -0.360082 0.011210 0.123814
v -0.359914 0.006883 0.123579
v -0.359914 0.011210 0.123579
v -0.359780 0.006883 0.123325
v -0.359780 0.011210 0.123325
v -0.359683 0.006883 0.123057
v -0.359683 0.011210 0.123057
v -0.359624 0.006883 0.122780
v -0.359624 0.011210 0.122780
v -0.359604 0.006883 0.122497
v -0.359604 0.011210 0.122497
vn -0.9993870776359702 0 -0.03500670013347861
vn -0.9993870776359702 0 0.03500670013347861
vn 0.9993870776359702 0 0.03500670013347861
vn 0.9993870776359702 0 -0.03500670013347861
vn -0.9902233451355043 0 0.13949095579517698
vn 0.9902233451355043 0 -0.13949095579517698
vn 0 1 0
vn 0 -1 0
vn -0.9902233451355043 0 -0.13949095579517698
vn 0.9902233451355043 0 0.13949095579517698
vn -0.9612718302447139 0 0.2756020108380521
vn 0.9612718302447139 0 -0.2756020108380521
vn 0.9142304233583302 0 -0.40519468531318165
vn -0.9142304233583302 0 0.40519468531318165
vn 0.8507532135493088 0 -0.5255653809332616
vn -0.8507532135493088 0 0.5255653809332616
vn 0.7728735785311299 0 -0.6345600299486925
vn -0.7728735785311299 0 0.6345600299486925
vn 0.6828046583769295 0 -0.7306009844633146
vn -0.6828046583769295 0 0.7306009844633146
vn 0.5827666139340897 0 -0.8126395718175405
vn -0.5827666139340897 0 0.8126395718175405
vn 0.47486250430058446 0 -0.8800599990962988
vn -0.47486250430058446 0 0.8800599990962988
vn 0.36100925711580995 0 -0.9325622318519505
vn -0.36100925711580995 0 0.9325622318519505
vn 0.24291884910339578 0 -0.9700466136997137
vn -0.24291884910339578 0 0.9700466136997137
vn 0.12211882753008431 0 -0.99251548701402
vn -0.12211882753008431 0 0.99251548701402
vn 0.030580650795387174 0 -0.9995323025280026
vn -0.030580650795387174 0 0.9995323025280026
vn -0.030580650795387174 0 -0.9995323025280026
vn 0.030580650795387174 0 0.9995323025280026
vn -0.12211882753008431 0 -0.99251548701402
vn 0.12211882753008431 0 0.99251548701402
vn -0.24291884910339578 0 -0.9700466136997137
vn 0.24291884910339578 0 0.9700466136997137
vn -0.36100925711580995 0 -0.9325622318519505
vn 0.36100925711580995 0 0.9325622318519505
vn -0.47486250430058446 0 -0.8800599990962988
vn 0.47486250430058446 0 0.8800599990962988
vn -0.5827666139340897 0 -0.8126395718175405
vn 0.5827666139340897 0 0.8126395718175405
vn -0.6828046583769295 0 -0.7306009844633146
vn 0.6828046583769295 0 0.7306009844633146
vn -0.7728735785311299 0 -0.6345600299486925
vn 0.7728735785311299 0 0.6345600299486925
vn -0.8507532135493088 0 -0.5255653809332616
vn 0.8507532135493088 0 0.5255653809332616
vn -0.9142304233583302 0 -0.40519468531318165
vn 0.9142304233583302 0 0.40519468531318165
vn -0.9612718302447139 0 -0.2756020108380521
vn 0.9612718302447139 0 0.2756020108380521
vn -0.5296731846231816 0 0.8482018141286526
vn 0.5296731846231816 0 -0.8482018141286526
usemtl material_0_2
f 1//1 2//2 3//2
f 3//4 2//4 1//3
f 2//2 1//1 4//1
f 4//3 1//3 2//4
f 3//2 5//5 6//5
f 6//6 5//6 3//4
f 5//5 3//2 2//2
f 2//4 3//4 5//6
f 7//7 8//7 9//7
f 9//8 8//8 7//8
f 8//7 7//7 10//7
f 10//8 7//8 8//8
f 10//7 7//7 11//7
f 11//8 7//8 10//8
f 10//7 11//7 12//7
f 12//8 11//8 10//8
f 12//7 11//7 13//7
f 13//8 11//8 12//8
f 12//7 13//7 14//7
f 14//8 13//8 12//8
f 14//7 13//7 15//7
f 15//8 13//8 14//8
f 14//7 15//7 16//7
f 16//8 15//8 14//8
f 16//7 15//7 17//7
f 17//8 15//8 16//8
f 16//7 17//7 18//7
f 18//8 17//8 16//8
f 18//7 17//7 19//7
f 19//8 17//8 18//8
f 18//7 19//7 20//7
f 20//8 19//8 18//8
f 20//7 19//7 21//7
f 21//8 19//8 20//8
f 20//7 21//7 22//7
f 22//8 21//8 20//8
f 22//7 21//7 23//7
f 23//8 21//8 22//8
f 23//7 21//7 24//7
f 24//8 21//8 23//8
f 23//7 24//7 25//7
f 25//8 24//8 23//8
f 25//7 24//7 26//7
f 26//8 24//8 25//8
f 25//7 26//7 27//7
f 27//8 26//8 25//8
f 25//7 27//7 28//7
f 28//8 27//8 25//8
f 28//7 27//7 29//7
f 29//8 27//8 28//8
f 28//7 29//7 30//7
f 30//8 29//8 28//8
f 30//7 29//7 31//7
f 31//8 29//8 30//8
f 30//7 31//7 32//7
f 32//8 31//8 30//8
f 32//7 31//7 33//7
f 33//8 31//8 32//8
f 32//7 33//7 34//7
f 34//8 33//8 32//8
f 34//7 33//7 35//7
f 35//8 33//8 34//8
f 34//7 35//7 36//7
f 36//8 35//8 34//8
f 36//7 35//7 37//7
f 37//8 35//8 36//8
f 36//7 37//7 38//7
f 38//8 37//8 36//8
f 38//7 37//7 39//7
f 39//8 37//8 38//8
f 38//7 39//7 40//7
f 40//8 39//8 38//8
f 40//7 39//7 41//7
f 41//8 39//8 40//8
f 40//7 41//7 42//7
f 42//8 41//8 40//8
f 42//7 41//7 43//7
f 43//8 41//8 42//8
f 43//7 41//7 44//7
f 44//8 41//8 43//8
f 43//7 44//7 45//7
f 45//8 44//8 43//8
f 45//7 44//7 46//7
f 46//8 44//8 45//8
f 45//7 46//7 47//7
f 47//8 46//8 45//8
f 45//7 47//7 48//7
f 48//8 47//8 45//8
f 48//7 47//7 49//7
f 49//8 47//8 48//8
f 48//7 49//7 50//7
f 50//8 49//8 48//8
f 50//7 49//7 51//7
f 51//8 49//8 50//8
f 50//7 51//7 52//7
f 52//8 51//8 50//8
f 52//7 51//7 53//7
f 53//8 51//8 52//8
f 52//7 53//7 54//7
f 54//8 53//8 52//8
f 54//7 53//7 55//7
f 55//8 53//8 54//8
f 54//7 55//7 56//7
f 56//8 55//8 54//8
f 56//7 55//7 57//7
f 57//8 55//8 56//8
f 56//7 57//7 58//7
f 58//8 57//8 56//8
f 59//9 4//1 1//1
f 1//3 4//3 59//10
f 4//1 59//9 60//9
f 60//10 59//10 4//3
f 6//5 61//11 62//11
f 62//12 61//12 6//6
f 61//11 6//5 5//5
f 5//6 6//6 61//12
f 63//6 64//4 65//4
f 65//2 64//2 63//5
f 64//4 63//6 66//6
f 66//5 63//5 64//2
f 67//12 66//6 63//6
f 63//5 66//5 67//11
f 66//6 67//12 68//12
f 68//11 67//11 66//5
f 69//13 68//12 67//12
f 67//11 68//11 69//14
f 68//12 69//13 70//13
f 70//14 69//14 68//11
f 71//15 70//13 69//13
f 69//14 70//14 71//16
f 70//13 71//15 72//15
f 72//16 71//16 70//14
f 73//17 72//15 71//15
f 71//16 72//16 73//18
f 72//15 73//17 74//17
f 74//18 73//18 72//16
f 75//19 74//17 73//17
f 73//18 74//18 75//20
f 74//17 75//19 76//19
f 76//20 75//20 74//18
f 77//21 75//19 78//21
f 78//22 75//20 77//22
f 75//19 77//21 76//19
f 76//20 77//22 75//20
f 79//23 78//21 80//23
f 80//24 78//22 79//24
f 78//21 79//23 77//21
f 77//22 79//24 78//22
f 81//25 80//23 82//25
f 82//26 80//24 81//26
f 80//23 81//25 79//23
f 79//24 81//26 80//24
f 83//27 82//25 84//27
f 84//28 82//26 83//28
f 82//25 83//27 81//25
f 81//26 83//28 82//26
f 85//29 84//27 86//29
f 86//30 84//28 85//30
f 84//27 85//29 83//27
f 83//28 85//30 84//28
f 87//31 86//29 88//31
f 88//32 86//30 87//32
f 86//29 87//31 85//29
f 85//30 87//32 86//30
f 89//33 88//31 90//33
f 90//34 88//32 89//34
f 88//31 89//33 87//31
f 87//32 89//34 88//32
f 91//35 90//33 92//35
f 92//36 90//34 91//36
f 90//33 91//35 89//33
f 89//34 91//36 90//34
f 93//37 92//35 94//37
f 94//38 92//36 93//38
f 92//35 93//37 91//35
f 91//36 93//38 92//36
f 95//39 94//37 96//39
f 96//40 94//38 95//40
f 94//37 95//39 93//37
f 93//38 95//40 94//38
f 97//41 96//39 98//41
f 98//42 96//40 97//42
f 96//39 97//41 95//39
f 95//40 97//42 96//40
f 99//43 98//41 100//43
f 100//44 98//42 99//44
f 98//41 99//43 97//41
f 97//42 99//44 98//42
f 101//45 100//43 102//45
f 102//46 100//44 101//46
f 100//43 101//45 99//43
f 99//44 101//46 100//44
f 101//45 103//47 104//47
f 104//48 103//48 101//46
f 103//47 101//45 102//45
f 102//46 101//46 103//48
f 104//47 105//49 106//49
f 106//50 105//50 104//48
f 105//49 104//47 103//47
f 103//48 104//48 105//50
f 106//49 107//51 108//51
f 108//52 107//52 106//50
f 107//51 106//49 105//49
f 105//50 106//50 107//52
f 108//51 109//53 110//53
f 110//54 109//54 108//52
f 109//53 108//51 107//51
f 107//52 108//52 109//54
f 110//53 60//9 59//9
f 59//10 60//10 110//54
f 60//9 110//53 109//53
f 109//54 110//54 60//10
f 62//11 111//14 112//14
f 112//13 111//13 62//12
f 111//14 62//11 61//11
f 61//12 62//12 111//13
f 112//14 113//16 114//16
f 114//15 113//15 112//13
f 113//16 112//14 111//14
f 111//13 112//13 113//15
f 114//16 115//18 116//18
f 116//17 115//17 114//15
f 115//18 114//16 113//16
f 113//15 114//15 115//17
f 116//18 117//20 118//20
f 118//19 117//19 116//17
f 117//20 116//18 115//18
f 115//17 116//17 117//19
f 119//22 117//20 120//22
f 120//21 117//19 119//21
f 117//20 119//22 118//20
f 118//19 119//21 117//19
f 121//24 122//55 123//24
f 123//23 122//56 121//23
f 122//55 121//24 120//22
f 120//21 121//23 122//56
f 120//22 121//24 119//22
f 119//21 121//23 120//21
f 124//26 123//24 125//26
f 125//25 123//23 124//25
f 123//24 124//26 121//24
f 121//23 124//25 123//23
f 126//28 125//26 127//28
f 127//27 125//25 126//27
f 125//26 126//28 124//26
f 124//25 126//27 125//25
f 128//30 127//28 129//30
f 129//29 127//27 128//29
f 127//28 128//30 126//28
f 126//27 128//29 127//27
f 130//32 129//30 131//32
f 131//31 129//29 130//31
f 129//30 130//32 128//30
f 128//29 130//31 129//29
f 132//34 131//32 133//34
f 133//33 131//31 132//33
f 131//32 132//34 130//32
f 130//31 132//33 131//31
f 134//36 133//34 135//36
f 135//35 133//33 134//35
f 133//34 134//36 132//34
f 132//33 134//35 133//33
f 136//38 135//36 137//38
f 137//37 135//35 136//37
f 135//36 136//38 134//36
f 134//35 136//37 135//35
f 138//40 137//38 139//40
f 139//39 137//37 138//39
f 137//38 138//40 136//38
f 136//37 138//39 137//37
f 140//42 139//40 141//42
f 141//41 139//39 140//41
f 139//40 140//42 138//40
f 138//39 140//41 139//39
f 142//44 141//42 143//44
f 143//43 141//41 142//43
f 141//42 142//44 140//42
f 140//41 142//43 141//41
f 144//46 143//44 145//46
f 145//45 143//43 144//45
f 143//44 144//46 142//44
f 142//43 144//45 143//43
f 146//48 144//46 145//46
f 145//45 144//45 146//47
f 144//46 146//48 147//48
f 147//47 146//47 144//45
f 148//50 147//48 146//48
f 146//47 147//47 148//49
f 147//48 148//50 149//50
f 149//49 148//49 147//47
f 150//52 149//50 148//50
f 148//49 149//49 150//51
f 149//50 150//52 151//52
f 151//51 150//51 149//49
f 152//54 151//52 150//52
f 150//51 151//51 152//53
f 151//52 152//54 153//54
f 153//53 152//53 151//51
f 154//10 153//54 152//54
f 152//53 153//53 154//9
f 153//54 154//10 155//10
f 155//9 154//9 153//53
f 156//3 155//10 154//10
f 154//9 155//9 156//1
f 155//10 156//3 157//3
f 157//1 156//1 155//9
f 65//4 157//3 156//3
f 156//1 157//1 65//2
f 157//3 65//4 64//4
f 64//2 65//2 157//1
