# SSTK version 0.8.0
# 169
mtllib original-169.mtl
o #ID56
v -0.367054 0.011210 -0.045170
v -0.366888 0.006883 -0.044935
v -0.367054 0.006883 -0.045170
v -0.366888 0.011210 -0.044935
v -0.367251 0.011210 -0.045383
v -0.367251 0.006883 -0.045383
v -0.400700 0.011210 -0.045998
v -0.368867 0.011210 -0.046016
v -0.400401 0.011210 -0.046016
v -0.368569 0.011210 -0.045998
v -0.400993 0.011210 -0.045942
v -0.368275 0.011210 -0.045942
v -0.401276 0.011210 -0.045852
v -0.367992 0.011210 -0.045852
v -0.401544 0.011210 -0.045726
v -0.367724 0.011210 -0.045726
v -0.401792 0.011210 -0.045569
v -0.367476 0.011210 -0.045569
v -0.402017 0.011210 -0.045383
v -0.367251 0.011210 -0.045383
v -0.402214 0.011210 -0.045170
v -0.367054 0.011210 -0.045170
v -0.402380 0.011210 -0.044935
v -0.366888 0.011210 -0.044935
v -0.402513 0.011210 -0.044681
v -0.366756 0.011210 -0.044681
v -0.402609 0.011210 -0.044413
v -0.366660 0.011210 -0.044413
v -0.402667 0.011210 -0.044135
v -0.366601 0.011210 -0.044135
v -0.402686 0.011210 -0.043853
v -0.366582 0.011210 -0.043853
v -0.402686 0.011210 -0.028927
v -0.366582 0.011210 -0.028927
v -0.402667 0.011210 -0.028645
v -0.366601 0.011210 -0.028645
v -0.402609 0.011210 -0.028367
v -0.366660 0.011210 -0.028367
v -0.402513 0.011210 -0.028099
v -0.366756 0.011210 -0.028099
v -0.402380 0.011210 -0.027845
v -0.366888 0.011210 -0.027845
v -0.402214 0.011210 -0.027610
v -0.367054 0.011210 -0.027610
v -0.402017 0.011210 -0.027397
v -0.367251 0.011210 -0.027397
v -0.401792 0.011210 -0.027211
v -0.367476 0.011210 -0.027211
v -0.401544 0.011210 -0.027054
v -0.367724 0.011210 -0.027054
v -0.401276 0.011210 -0.026928
v -0.367992 0.011210 -0.026928
v -0.400993 0.011210 -0.026837
v -0.368275 0.011210 -0.026837
v -0.400700 0.011210 -0.026782
v -0.368569 0.011210 -0.026782
v -0.400401 0.011210 -0.026764
v -0.368867 0.011210 -0.026764
v -0.366756 0.006883 -0.044681
v -0.366756 0.011210 -0.044681
v -0.367476 0.006883 -0.045569
v -0.367476 0.011210 -0.045569
v -0.368569 0.011210 -0.045998
v -0.368867 0.006883 -0.046016
v -0.368867 0.011210 -0.046016
v -0.368569 0.006883 -0.045998
v -0.400401 0.006883 -0.046016
v -0.400401 0.011210 -0.046016
v -0.400700 0.006883 -0.045998
v -0.400700 0.011210 -0.045998
v -0.400993 0.006883 -0.045942
v -0.400993 0.011210 -0.045942
v -0.401276 0.006883 -0.045852
v -0.401276 0.011210 -0.045852
v -0.401544 0.006883 -0.045726
v -0.401544 0.011210 -0.045726
v -0.401792 0.006883 -0.045569
v -0.401792 0.011210 -0.045569
v -0.402017 0.006883 -0.045383
v -0.402017 0.011210 -0.045383
v -0.402214 0.011210 -0.045170
v -0.402214 0.006883 -0.045170
v -0.402380 0.011210 -0.044935
v -0.402380 0.006883 -0.044935
v -0.402513 0.011210 -0.044681
v -0.402513 0.006883 -0.044681
v -0.402609 0.011210 -0.044413
v -0.402609 0.006883 -0.044413
v -0.402667 0.011210 -0.044135
v -0.402667 0.006883 -0.044135
v -0.402686 0.011210 -0.043853
v -0.402686 0.006883 -0.043853
v -0.402686 0.011210 -0.028927
v -0.402686 0.006883 -0.028927
v -0.402667 0.011210 -0.028645
v -0.402667 0.006883 -0.028645
v -0.402609 0.011210 -0.028367
v -0.402609 0.006883 -0.028367
v -0.402513 0.011210 -0.028099
v -0.402513 0.006883 -0.028099
v -0.402380 0.011210 -0.027845
v -0.402380 0.006883 -0.027845
v -0.402214 0.011210 -0.027610
v -0.402214 0.006883 -0.027610
v -0.402017 0.011210 -0.027397
v -0.402017 0.006883 -0.027397
v -0.401792 0.006883 -0.027211
v -0.401792 0.011210 -0.027211
v -0.401634 0.006883 -0.027111
v -0.401544 0.011210 -0.027054
v -0.401544 0.006883 -0.027054
v -0.401276 0.006883 -0.026928
v -0.401276 0.011210 -0.026928
v -0.400993 0.006883 -0.026837
v -0.400993 0.011210 -0.026837
v -0.400700 0.006883 -0.026782
v -0.400700 0.011210 -0.026782
v -0.400401 0.006883 -0.026764
v -0.400401 0.011210 -0.026764
v -0.390810 0.006883 -0.026764
v -0.368867 0.011210 -0.026764
v -0.385553 0.006883 -0.026764
v -0.368867 0.006883 -0.026764
v -0.368569 0.006883 -0.026782
v -0.368569 0.011210 -0.026782
v -0.368275 0.006883 -0.026837
v -0.368275 0.011210 -0.026837
v -0.367992 0.006883 -0.026928
v -0.367992 0.011210 -0.026928
v -0.367724 0.006883 -0.027054
v -0.367724 0.011210 -0.027054
v -0.367476 0.006883 -0.027211
v -0.367476 0.011210 -0.027211
v -0.367251 0.006883 -0.027397
v -0.367251 0.011210 -0.027397
v -0.367054 0.011210 -0.027610
v -0.367054 0.006883 -0.027610
v -0.366888 0.011210 -0.027845
v -0.366888 0.006883 -0.027845
v -0.366756 0.011210 -0.028099
v -0.366756 0.006883 -0.028099
v -0.366660 0.011210 -0.028367
v -0.366660 0.006883 -0.028367
v -0.366601 0.011210 -0.028645
v -0.366601 0.006883 -0.028645
v -0.366582 0.011210 -0.028927
v -0.366582 0.006883 -0.028927
v -0.366582 0.011210 -0.043853
v -0.366582 0.006883 -0.043853
v -0.366601 0.011210 -0.044135
v -0.366601 0.006883 -0.044135
v -0.366660 0.011210 -0.044413
v -0.366660 0.006883 -0.044413
v -0.367724 0.006883 -0.045726
v -0.367724 0.011210 -0.045726
v -0.367992 0.006883 -0.045852
v -0.367992 0.011210 -0.045852
v -0.368275 0.006883 -0.045942
v -0.368275 0.011210 -0.045942
vn 0.7768473700572104 0 -0.6296889419667425
vn 0.8537465548649361 0 -0.5206887938646777
vn -0.7768473700572104 0 0.6296889419667425
vn -0.8537465548649361 0 0.5206887938646777
vn 0.6874702028284877 0 -0.7262125861088872
vn -0.6874702028284877 0 0.7262125861088872
vn 0 1 0
vn 0 -1 0
vn 0.9161383107536625 0 -0.4008623149778808
vn -0.9161383107536625 0 0.4008623149778808
vn 0.587705121351512 0 -0.8090752068486615
vn -0.587705121351512 0 0.8090752068486615
vn 0.12367226884504699 0 -0.9923231176984231
vn 0.030975286282724997 0 -0.9995201506921725
vn -0.12367226884504699 0 0.9923231176984231
vn -0.030975286282724997 0 0.9995201506921725
vn -0.03097528628272544 0 -0.9995201506921725
vn 0.03097528628272544 0 0.9995201506921725
vn -0.12367226884504744 0 -0.9923231176984231
vn 0.12367226884504744 0 0.9923231176984231
vn -0.2458681000963028 0 -0.9693032948231604
vn 0.2458681000963028 0 0.9693032948231604
vn -0.36505443800317355 0 -0.9309861745988427
vn 0.36505443800317355 0 0.9309861745988427
vn -0.4795924434150953 0 -0.8774913607660982
vn 0.4795924434150953 0 0.8774913607660982
vn -0.5877051213515124 0 -0.8090752068486613
vn 0.5877051213515124 0 0.8090752068486613
vn -0.6874702028284879 0 -0.726212586108887
vn 0.6874702028284879 0 0.726212586108887
vn -0.7768473700572106 0 -0.6296889419667421
vn 0.7768473700572106 0 0.6296889419667421
vn -0.8537465548649362 0 -0.5206887938646771
vn 0.8537465548649362 0 0.5206887938646771
vn -0.9161383107536625 0 -0.40086231497788033
vn 0.9161383107536625 0 0.40086231497788033
vn -0.9621983405895348 0 -0.2723496894926547
vn 0.9621983405895348 0 0.2723496894926547
vn -0.9904675743831363 0 -0.13774608559079393
vn 0.9904675743831363 0 0.13774608559079393
vn -0.9994025964295268 0 -0.03456081957824955
vn 0.9994025964295268 0 0.03456081957824955
vn -0.9994025964295268 0 0.03456081957824999
vn 0.9994025964295268 0 -0.03456081957824999
vn -0.9904675743831363 0 0.1377460855907944
vn 0.9904675743831363 0 -0.1377460855907944
vn -0.9621983405895348 0 0.27234968949265526
vn 0.9621983405895348 0 -0.27234968949265526
vn -0.5345687964396175 0 0.8451249622825601
vn 0.5345687964396175 0 -0.8451249622825601
vn -0.47959244341509494 0 0.8774913607660985
vn 0.47959244341509494 0 -0.8774913607660985
vn -0.36505443800317305 0 0.9309861745988429
vn 0.36505443800317305 0 -0.9309861745988429
vn -0.24586810009630236 0 0.9693032948231604
vn 0.24586810009630236 0 -0.9693032948231604
vn 0 0 1
vn 0 0 -1
usemtl material_0_2
f 1//1 2//2 3//1
f 3//3 2//4 1//3
f 2//2 1//1 4//2
f 4//4 1//3 2//4
f 5//5 3//1 6//5
f 6//6 3//3 5//6
f 3//1 5//5 1//1
f 1//3 5//6 3//3
f 7//7 8//7 9//7
f 9//8 8//8 7//8
f 8//7 7//7 10//7
f 10//8 7//8 8//8
f 10//7 7//7 11//7
f 11//8 7//8 10//8
f 10//7 11//7 12//7
f 12//8 11//8 10//8
f 12//7 11//7 13//7
f 13//8 11//8 12//8
f 12//7 13//7 14//7
f 14//8 13//8 12//8
f 14//7 13//7 15//7
f 15//8 13//8 14//8
f 14//7 15//7 16//7
f 16//8 15//8 14//8
f 16//7 15//7 17//7
f 17//8 15//8 16//8
f 16//7 17//7 18//7
f 18//8 17//8 16//8
f 18//7 17//7 19//7
f 19//8 17//8 18//8
f 18//7 19//7 20//7
f 20//8 19//8 18//8
f 20//7 19//7 21//7
f 21//8 19//8 20//8
f 20//7 21//7 22//7
f 22//8 21//8 20//8
f 22//7 21//7 23//7
f 23//8 21//8 22//8
f 22//7 23//7 24//7
f 24//8 23//8 22//8
f 24//7 23//7 25//7
f 25//8 23//8 24//8
f 24//7 25//7 26//7
f 26//8 25//8 24//8
f 26//7 25//7 27//7
f 27//8 25//8 26//8
f 26//7 27//7 28//7
f 28//8 27//8 26//8
f 28//7 27//7 29//7
f 29//8 27//8 28//8
f 28//7 29//7 30//7
f 30//8 29//8 28//8
f 30//7 29//7 31//7
f 31//8 29//8 30//8
f 30//7 31//7 32//7
f 32//8 31//8 30//8
f 32//7 31//7 33//7
f 33//8 31//8 32//8
f 32//7 33//7 34//7
f 34//8 33//8 32//8
f 34//7 33//7 35//7
f 35//8 33//8 34//8
f 34//7 35//7 36//7
f 36//8 35//8 34//8
f 36//7 35//7 37//7
f 37//8 35//8 36//8
f 36//7 37//7 38//7
f 38//8 37//8 36//8
f 38//7 37//7 39//7
f 39//8 37//8 38//8
f 38//7 39//7 40//7
f 40//8 39//8 38//8
f 40//7 39//7 41//7
f 41//8 39//8 40//8
f 40//7 41//7 42//7
f 42//8 41//8 40//8
f 42//7 41//7 43//7
f 43//8 41//8 42//8
f 42//7 43//7 44//7
f 44//8 43//8 42//8
f 44//7 43//7 45//7
f 45//8 43//8 44//8
f 44//7 45//7 46//7
f 46//8 45//8 44//8
f 46//7 45//7 47//7
f 47//8 45//8 46//8
f 46//7 47//7 48//7
f 48//8 47//8 46//8
f 48//7 47//7 49//7
f 49//8 47//8 48//8
f 48//7 49//7 50//7
f 50//8 49//8 48//8
f 50//7 49//7 51//7
f 51//8 49//8 50//8
f 50//7 51//7 52//7
f 52//8 51//8 50//8
f 52//7 51//7 53//7
f 53//8 51//8 52//8
f 52//7 53//7 54//7
f 54//8 53//8 52//8
f 54//7 53//7 55//7
f 55//8 53//8 54//8
f 54//7 55//7 56//7
f 56//8 55//8 54//8
f 56//7 55//7 57//7
f 57//8 55//8 56//8
f 56//7 57//7 58//7
f 58//8 57//8 56//8
f 4//2 59//9 2//2
f 2//4 59//10 4//4
f 59//9 4//2 60//9
f 60//10 4//4 59//10
f 5//5 61//11 62//11
f 62//12 61//12 5//6
f 61//11 5//5 6//5
f 6//6 5//6 61//12
f 63//13 64//14 65//14
f 65//16 64//16 63//15
f 64//14 63//13 66//13
f 66//15 63//15 64//16
f 65//14 67//17 68//17
f 68//18 67//18 65//16
f 67//17 65//14 64//14
f 64//16 65//16 67//18
f 68//17 69//19 70//19
f 70//20 69//20 68//18
f 69//19 68//17 67//17
f 67//18 68//18 69//20
f 70//19 71//21 72//21
f 72//22 71//22 70//20
f 71//21 70//19 69//19
f 69//20 70//20 71//22
f 72//21 73//23 74//23
f 74//24 73//24 72//22
f 73//23 72//21 71//21
f 71//22 72//22 73//24
f 74//23 75//25 76//25
f 76//26 75//26 74//24
f 75//25 74//23 73//23
f 73//24 74//24 75//26
f 76//25 77//27 78//27
f 78//28 77//28 76//26
f 77//27 76//25 75//25
f 75//26 76//26 77//28
f 78//27 79//29 80//29
f 80//30 79//30 78//28
f 79//29 78//27 77//27
f 77//28 78//28 79//30
f 81//31 79//29 82//31
f 82//32 79//30 81//32
f 79//29 81//31 80//29
f 80//30 81//32 79//30
f 83//33 82//31 84//33
f 84//34 82//32 83//34
f 82//31 83//33 81//31
f 81//32 83//34 82//32
f 85//35 84//33 86//35
f 86//36 84//34 85//36
f 84//33 85//35 83//33
f 83//34 85//36 84//34
f 87//37 86//35 88//37
f 88//38 86//36 87//38
f 86//35 87//37 85//35
f 85//36 87//38 86//36
f 89//39 88//37 90//39
f 90//40 88//38 89//40
f 88//37 89//39 87//37
f 87//38 89//40 88//38
f 91//41 90//39 92//41
f 92//42 90//40 91//42
f 90//39 91//41 89//39
f 89//40 91//42 90//40
f 93//43 92//41 94//43
f 94//44 92//42 93//44
f 92//41 93//43 91//41
f 91//42 93//44 92//42
f 95//45 94//43 96//45
f 96//46 94//44 95//46
f 94//43 95//45 93//43
f 93//44 95//46 94//44
f 97//47 96//45 98//47
f 98//48 96//46 97//48
f 96//45 97//47 95//45
f 95//46 97//48 96//46
f 99//10 98//47 100//10
f 100//9 98//48 99//9
f 98//47 99//10 97//47
f 97//48 99//9 98//48
f 101//4 100//10 102//4
f 102//2 100//9 101//2
f 100//10 101//4 99//10
f 99//9 101//2 100//9
f 103//3 102//4 104//3
f 104//1 102//2 103//1
f 102//4 103//3 101//4
f 101//2 103//1 102//2
f 105//6 104//3 106//6
f 106//5 104//1 105//5
f 104//3 105//6 103//3
f 103//1 105//5 104//1
f 107//12 105//6 106//6
f 106//5 105//5 107//11
f 105//6 107//12 108//12
f 108//11 107//11 105//5
f 109//49 108//12 107//12
f 107//11 108//11 109//50
f 108//12 109//49 110//51
f 110//52 109//50 108//11
f 110//51 109//49 111//51
f 111//52 109//50 110//52
f 112//53 110//51 111//51
f 111//52 110//52 112//54
f 110//51 112//53 113//53
f 113//54 112//54 110//52
f 114//55 113//53 112//53
f 112//54 113//54 114//56
f 113//53 114//55 115//55
f 115//56 114//56 113//54
f 116//15 115//55 114//55
f 114//56 115//56 116//13
f 115//55 116//15 117//15
f 117//13 116//13 115//56
f 118//16 117//15 116//15
f 116//13 117//13 118//14
f 117//15 118//16 119//16
f 119//14 118//14 117//13
f 120//57 119//16 118//16
f 118//14 119//14 120//58
f 119//16 120//57 121//18
f 121//17 120//58 119//14
f 121//18 120//57 122//57
f 122//58 120//58 121//17
f 121//18 122//57 123//18
f 123//17 122//58 121//17
f 124//20 121//18 123//18
f 123//17 121//17 124//19
f 121//18 124//20 125//20
f 125//19 124//19 121//17
f 126//22 125//20 124//20
f 124//19 125//19 126//21
f 125//20 126//22 127//22
f 127//21 126//21 125//19
f 128//24 127//22 126//22
f 126//21 127//21 128//23
f 127//22 128//24 129//24
f 129//23 128//23 127//21
f 130//26 129//24 128//24
f 128//23 129//23 130//25
f 129//24 130//26 131//26
f 131//25 130//25 129//23
f 132//28 131//26 130//26
f 130//25 131//25 132//27
f 131//26 132//28 133//28
f 133//27 132//27 131//25
f 134//30 133//28 132//28
f 132//27 133//27 134//29
f 133//28 134//30 135//30
f 135//29 134//29 133//27
f 136//32 134//30 137//32
f 137//31 134//29 136//31
f 134//30 136//32 135//30
f 135//29 136//31 134//29
f 138//34 137//32 139//34
f 139//33 137//31 138//33
f 137//32 138//34 136//32
f 136//31 138//33 137//31
f 140//36 139//34 141//36
f 141//35 139//33 140//35
f 139//34 140//36 138//34
f 138//33 140//35 139//33
f 142//38 141//36 143//38
f 143//37 141//35 142//37
f 141//36 142//38 140//36
f 140//35 142//37 141//35
f 144//40 143//38 145//40
f 145//39 143//37 144//39
f 143//38 144//40 142//38
f 142//37 144//39 143//37
f 146//42 145//40 147//42
f 147//41 145//39 146//41
f 145//40 146//42 144//40
f 144//39 146//41 145//39
f 148//44 147//42 149//44
f 149//43 147//41 148//43
f 147//42 148//44 146//42
f 146//41 148//43 147//41
f 150//46 149//44 151//46
f 151//45 149//43 150//45
f 149//44 150//46 148//44
f 148//43 150//45 149//43
f 152//48 151//46 153//48
f 153//47 151//45 152//47
f 151//46 152//48 150//46
f 150//45 152//47 151//45
f 60//9 153//48 59//9
f 59//10 153//47 60//10
f 153//48 60//9 152//48
f 152//47 60//10 153//47
f 62//11 154//52 155//52
f 155//51 154//51 62//12
f 154//52 62//11 61//11
f 61//12 62//12 154//51
f 155//52 156//54 157//54
f 157//53 156//53 155//51
f 156//54 155//52 154//52
f 154//51 155//51 156//53
f 157//54 158//56 159//56
f 159//55 158//55 157//53
f 158//56 157//54 156//54
f 156//53 157//53 158//55
f 159//56 66//13 63//13
f 63//15 66//15 159//55
f 66//13 159//56 158//56
f 158//55 159//55 66//15
