# SSTK version 0.8.0
# 163
mtllib original-163.mtl
o #ID25
v 0.409695 0.011210 -0.045852
v 0.409439 0.006883 -0.045726
v 0.409439 0.011210 -0.045726
v 0.409695 0.006883 -0.045852
v 0.410246 0.011210 -0.045998
v 0.438929 0.011210 -0.046016
v 0.410531 0.011210 -0.046016
v 0.439214 0.011210 -0.045998
v 0.409966 0.011210 -0.045942
v 0.439495 0.011210 -0.045942
v 0.409695 0.011210 -0.045852
v 0.439765 0.011210 -0.045852
v 0.409439 0.011210 -0.045726
v 0.440022 0.011210 -0.045726
v 0.409201 0.011210 -0.045569
v 0.440259 0.011210 -0.045569
v 0.408986 0.011210 -0.045383
v 0.440474 0.011210 -0.045383
v 0.408798 0.011210 -0.045170
v 0.440663 0.011210 -0.045170
v 0.408639 0.011210 -0.044935
v 0.440821 0.011210 -0.044935
v 0.408513 0.011210 -0.044681
v 0.440948 0.011210 -0.044681
v 0.408421 0.011210 -0.044413
v 0.441040 0.011210 -0.044413
v 0.408365 0.011210 -0.044135
v 0.441095 0.011210 -0.044135
v 0.408346 0.011210 -0.043853
v 0.441114 0.011210 -0.043853
v 0.408346 0.011210 -0.028927
v 0.441114 0.011210 -0.028927
v 0.408365 0.011210 -0.028645
v 0.441095 0.011210 -0.028645
v 0.408421 0.011210 -0.028367
v 0.441040 0.011210 -0.028367
v 0.408513 0.011210 -0.028099
v 0.440948 0.011210 -0.028099
v 0.408639 0.011210 -0.027845
v 0.440821 0.011210 -0.027845
v 0.408798 0.011210 -0.027610
v 0.440663 0.011210 -0.027610
v 0.408986 0.011210 -0.027397
v 0.440474 0.011210 -0.027397
v 0.409201 0.011210 -0.027211
v 0.440259 0.011210 -0.027211
v 0.409439 0.011210 -0.027054
v 0.440022 0.011210 -0.027054
v 0.409695 0.011210 -0.026928
v 0.439765 0.011210 -0.026928
v 0.409966 0.011210 -0.026837
v 0.439495 0.011210 -0.026837
v 0.410246 0.011210 -0.026782
v 0.439214 0.011210 -0.026782
v 0.410531 0.011210 -0.026764
v 0.438929 0.011210 -0.026764
v 0.409966 0.011210 -0.045942
v 0.409966 0.006883 -0.045942
v 0.409201 0.006883 -0.045569
v 0.409201 0.011210 -0.045569
v 0.439214 0.011210 -0.045998
v 0.438929 0.006883 -0.046016
v 0.438929 0.011210 -0.046016
v 0.439214 0.006883 -0.045998
v 0.410531 0.006883 -0.046016
v 0.410531 0.011210 -0.046016
v 0.410246 0.006883 -0.045998
v 0.410246 0.011210 -0.045998
v 0.408986 0.006883 -0.045383
v 0.408986 0.011210 -0.045383
v 0.408798 0.011210 -0.045170
v 0.408798 0.006883 -0.045170
v 0.408639 0.011210 -0.044935
v 0.408639 0.006883 -0.044935
v 0.408513 0.011210 -0.044681
v 0.408513 0.006883 -0.044681
v 0.408421 0.011210 -0.044413
v 0.408421 0.006883 -0.044413
v 0.408365 0.011210 -0.044135
v 0.408365 0.006883 -0.044135
v 0.408346 0.011210 -0.043853
v 0.408346 0.006883 -0.043853
v 0.408346 0.011210 -0.028927
v 0.408346 0.006883 -0.028927
v 0.408365 0.011210 -0.028645
v 0.408365 0.006883 -0.028645
v 0.408421 0.011210 -0.028367
v 0.408421 0.006883 -0.028367
v 0.408513 0.011210 -0.028099
v 0.408513 0.006883 -0.028099
v 0.408639 0.011210 -0.027845
v 0.408639 0.006883 -0.027845
v 0.408798 0.011210 -0.027610
v 0.408798 0.006883 -0.027610
v 0.408986 0.011210 -0.027397
v 0.408986 0.006883 -0.027397
v 0.409201 0.006883 -0.027211
v 0.409201 0.011210 -0.027211
v 0.409352 0.006883 -0.027111
v 0.409439 0.011210 -0.027054
v 0.409439 0.006883 -0.027054
v 0.409695 0.006883 -0.026928
v 0.409695 0.011210 -0.026928
v 0.409966 0.006883 -0.026837
v 0.409966 0.011210 -0.026837
v 0.410246 0.006883 -0.026782
v 0.410246 0.011210 -0.026782
v 0.410531 0.006883 -0.026764
v 0.410531 0.011210 -0.026764
v 0.424728 0.006883 -0.026764
v 0.438929 0.011210 -0.026764
v 0.438929 0.006883 -0.026764
v 0.439214 0.006883 -0.026782
v 0.439214 0.011210 -0.026782
v 0.439495 0.006883 -0.026837
v 0.439495 0.011210 -0.026837
v 0.439765 0.006883 -0.026928
v 0.439765 0.011210 -0.026928
v 0.440022 0.006883 -0.027054
v 0.440022 0.011210 -0.027054
v 0.440259 0.006883 -0.027211
v 0.440259 0.011210 -0.027211
v 0.440474 0.006883 -0.027397
v 0.440474 0.011210 -0.027397
v 0.440663 0.011210 -0.027610
v 0.440663 0.006883 -0.027610
v 0.440821 0.011210 -0.027845
v 0.440821 0.006883 -0.027845
v 0.440948 0.011210 -0.028099
v 0.440948 0.006883 -0.028099
v 0.441040 0.011210 -0.028367
v 0.441040 0.006883 -0.028367
v 0.441095 0.011210 -0.028645
v 0.441095 0.006883 -0.028645
v 0.441114 0.011210 -0.028927
v 0.441114 0.006883 -0.028927
v 0.441114 0.011210 -0.043853
v 0.441114 0.006883 -0.043853
v 0.441095 0.011210 -0.044135
v 0.441095 0.006883 -0.044135
v 0.441040 0.011210 -0.044413
v 0.441040 0.006883 -0.044413
v 0.440948 0.011210 -0.044681
v 0.440948 0.006883 -0.044681
v 0.440821 0.011210 -0.044935
v 0.440821 0.006883 -0.044935
v 0.440663 0.011210 -0.045170
v 0.440663 0.006883 -0.045170
v 0.440474 0.011210 -0.045383
v 0.440474 0.006883 -0.045383
v 0.440259 0.006883 -0.045569
v 0.440259 0.011210 -0.045569
v 0.440022 0.006883 -0.045726
v 0.440022 0.011210 -0.045726
v 0.439765 0.006883 -0.045852
v 0.439765 0.011210 -0.045852
v 0.439495 0.006883 -0.045942
v 0.439495 0.011210 -0.045942
vn -0.3794423219467683 0 -0.9252153934709717
vn -0.4962733337370762 0 -0.8681663309651491
vn 0.3794423219467683 0 0.9252153934709717
vn 0.4962733337370762 0 0.8681663309651491
vn 0 1 0
vn 0 -1 0
vn -0.25642573098384275 0 -0.9665639370933523
vn 0.25642573098384275 0 0.9665639370933523
vn -0.6049468261689519 0 -0.7962658711185052
vn 0.6049468261689519 0 0.7962658711185052
vn 0.12925555353784338 0 -0.9916113159295964
vn 0.03239546998446399 0 -0.9994751290174687
vn -0.12925555353784338 0 0.9916113159295964
vn -0.03239546998446399 0 0.9994751290174687
vn -0.03239546998446444 0 -0.9994751290174687
vn 0.03239546998446444 0 0.9994751290174687
vn -0.12925555353784376 0 -0.9916113159295962
vn 0.12925555353784376 0 0.9916113159295962
vn -0.7035801295960806 0 -0.7106159308920411
vn 0.7035801295960806 0 0.7106159308920411
vn -0.7904149525611651 0 -0.6125717939700873
vn 0.7904149525611651 0 0.6125717939700873
vn -0.8638576801917592 0 -0.5037359510435123
vn 0.8638576801917592 0 0.5037359510435123
vn -0.9225227786588478 0 -0.38594264192436484
vn 0.9225227786588478 0 0.38594264192436484
vn -0.9652762090659884 0 -0.26123139208600943
vn 0.9652762090659884 0 0.26123139208600943
vn -0.9912751467166687 0 -0.1318088900713723
vn 0.9912751467166687 0 0.1318088900713723
vn -0.9994538346074345 0 -0.03304591485334795
vn 0.9994538346074345 0 0.03304591485334795
vn -0.9994538346074345 0 0.033045914853348395
vn 0.9994538346074345 0 -0.033045914853348395
vn -0.9912751467166687 0 0.13180889007137278
vn 0.9912751467166687 0 -0.13180889007137278
vn -0.9652762090659882 0 0.2612313920860099
vn 0.9652762090659882 0 -0.2612313920860099
vn -0.9225227786588478 0 0.3859426419243654
vn 0.9225227786588478 0 -0.3859426419243654
vn -0.8638576801917592 0 0.5037359510435129
vn 0.8638576801917592 0 -0.5037359510435129
vn -0.7904149525611649 0 0.6125717939700878
vn 0.7904149525611649 0 -0.6125717939700878
vn -0.7035801295960804 0 0.7106159308920413
vn 0.7035801295960804 0 -0.7106159308920413
vn -0.6049468261689515 0 0.7962658711185054
vn 0.6049468261689515 0 -0.7962658711185054
vn -0.5517498921958449 0 0.8340096261206302
vn 0.5517498921958449 0 -0.8340096261206302
vn -0.4962733337370759 0 0.8681663309651493
vn 0.4962733337370759 0 -0.8681663309651493
vn -0.37944232194676786 0 0.9252153934709719
vn 0.37944232194676786 0 -0.9252153934709719
vn -0.25642573098384225 0 0.9665639370933523
vn 0.25642573098384225 0 -0.9665639370933523
vn 0 0 1
vn 0 0 -1
usemtl material_0_2
f 1//1 2//2 3//2
f 3//4 2//4 1//3
f 2//2 1//1 4//1
f 4//3 1//3 2//4
f 5//5 6//5 7//5
f 7//6 6//6 5//6
f 6//5 5//5 8//5
f 8//6 5//6 6//6
f 8//5 5//5 9//5
f 9//6 5//6 8//6
f 8//5 9//5 10//5
f 10//6 9//6 8//6
f 10//5 9//5 11//5
f 11//6 9//6 10//6
f 10//5 11//5 12//5
f 12//6 11//6 10//6
f 12//5 11//5 13//5
f 13//6 11//6 12//6
f 12//5 13//5 14//5
f 14//6 13//6 12//6
f 14//5 13//5 15//5
f 15//6 13//6 14//6
f 14//5 15//5 16//5
f 16//6 15//6 14//6
f 16//5 15//5 17//5
f 17//6 15//6 16//6
f 16//5 17//5 18//5
f 18//6 17//6 16//6
f 18//5 17//5 19//5
f 19//6 17//6 18//6
f 18//5 19//5 20//5
f 20//6 19//6 18//6
f 20//5 19//5 21//5
f 21//6 19//6 20//6
f 20//5 21//5 22//5
f 22//6 21//6 20//6
f 22//5 21//5 23//5
f 23//6 21//6 22//6
f 22//5 23//5 24//5
f 24//6 23//6 22//6
f 24//5 23//5 25//5
f 25//6 23//6 24//6
f 24//5 25//5 26//5
f 26//6 25//6 24//6
f 26//5 25//5 27//5
f 27//6 25//6 26//6
f 26//5 27//5 28//5
f 28//6 27//6 26//6
f 28//5 27//5 29//5
f 29//6 27//6 28//6
f 28//5 29//5 30//5
f 30//6 29//6 28//6
f 30//5 29//5 31//5
f 31//6 29//6 30//6
f 30//5 31//5 32//5
f 32//6 31//6 30//6
f 32//5 31//5 33//5
f 33//6 31//6 32//6
f 32//5 33//5 34//5
f 34//6 33//6 32//6
f 34//5 33//5 35//5
f 35//6 33//6 34//6
f 34//5 35//5 36//5
f 36//6 35//6 34//6
f 36//5 35//5 37//5
f 37//6 35//6 36//6
f 36//5 37//5 38//5
f 38//6 37//6 36//6
f 38//5 37//5 39//5
f 39//6 37//6 38//6
f 38//5 39//5 40//5
f 40//6 39//6 38//6
f 40//5 39//5 41//5
f 41//6 39//6 40//6
f 40//5 41//5 42//5
f 42//6 41//6 40//6
f 42//5 41//5 43//5
f 43//6 41//6 42//6
f 42//5 43//5 44//5
f 44//6 43//6 42//6
f 44//5 43//5 45//5
f 45//6 43//6 44//6
f 44//5 45//5 46//5
f 46//6 45//6 44//6
f 46//5 45//5 47//5
f 47//6 45//6 46//6
f 46//5 47//5 48//5
f 48//6 47//6 46//6
f 48//5 47//5 49//5
f 49//6 47//6 48//6
f 48//5 49//5 50//5
f 50//6 49//6 48//6
f 50//5 49//5 51//5
f 51//6 49//6 50//6
f 50//5 51//5 52//5
f 52//6 51//6 50//6
f 52//5 51//5 53//5
f 53//6 51//6 52//6
f 52//5 53//5 54//5
f 54//6 53//6 52//6
f 54//5 53//5 55//5
f 55//6 53//6 54//6
f 54//5 55//5 56//5
f 56//6 55//6 54//6
f 57//7 4//1 1//1
f 1//3 4//3 57//8
f 4//1 57//7 58//7
f 58//8 57//8 4//3
f 3//2 59//9 60//9
f 60//10 59//10 3//4
f 59//9 3//2 2//2
f 2//4 3//4 59//10
f 61//11 62//12 63//12
f 63//14 62//14 61//13
f 62//12 61//11 64//11
f 64//13 61//13 62//14
f 63//12 65//15 66//15
f 66//16 65//16 63//14
f 65//15 63//12 62//12
f 62//14 63//14 65//16
f 66//15 67//17 68//17
f 68//18 67//18 66//16
f 67//17 66//15 65//15
f 65//16 66//16 67//18
f 68//17 58//7 57//7
f 57//8 58//8 68//18
f 58//7 68//17 67//17
f 67//18 68//18 58//8
f 60//9 69//19 70//19
f 70//20 69//20 60//10
f 69//19 60//9 59//9
f 59//10 60//10 69//20
f 71//21 69//19 72//21
f 72//22 69//20 71//22
f 69//19 71//21 70//19
f 70//20 71//22 69//20
f 73//23 72//21 74//23
f 74//24 72//22 73//24
f 72//21 73//23 71//21
f 71//22 73//24 72//22
f 75//25 74//23 76//25
f 76//26 74//24 75//26
f 74//23 75//25 73//23
f 73//24 75//26 74//24
f 77//27 76//25 78//27
f 78//28 76//26 77//28
f 76//25 77//27 75//25
f 75//26 77//28 76//26
f 79//29 78//27 80//29
f 80//30 78//28 79//30
f 78//27 79//29 77//27
f 77//28 79//30 78//28
f 81//31 80//29 82//31
f 82//32 80//30 81//32
f 80//29 81//31 79//29
f 79//30 81//32 80//30
f 83//33 82//31 84//33
f 84//34 82//32 83//34
f 82//31 83//33 81//31
f 81//32 83//34 82//32
f 85//35 84//33 86//35
f 86//36 84//34 85//36
f 84//33 85//35 83//33
f 83//34 85//36 84//34
f 87//37 86//35 88//37
f 88//38 86//36 87//38
f 86//35 87//37 85//35
f 85//36 87//38 86//36
f 89//39 88//37 90//39
f 90//40 88//38 89//40
f 88//37 89//39 87//37
f 87//38 89//40 88//38
f 91//41 90//39 92//41
f 92//42 90//40 91//42
f 90//39 91//41 89//39
f 89//40 91//42 90//40
f 93//43 92//41 94//43
f 94//44 92//42 93//44
f 92//41 93//43 91//41
f 91//42 93//44 92//42
f 95//45 94//43 96//45
f 96//46 94//44 95//46
f 94//43 95//45 93//43
f 93//44 95//46 94//44
f 97//47 95//45 96//45
f 96//46 95//46 97//48
f 95//45 97//47 98//47
f 98//48 97//48 95//46
f 99//49 98//47 97//47
f 97//48 98//48 99//50
f 98//47 99//49 100//51
f 100//52 99//50 98//48
f 100//51 99//49 101//51
f 101//52 99//50 100//52
f 102//53 100//51 101//51
f 101//52 100//52 102//54
f 100//51 102//53 103//53
f 103//54 102//54 100//52
f 104//55 103//53 102//53
f 102//54 103//54 104//56
f 103//53 104//55 105//55
f 105//56 104//56 103//54
f 106//13 105//55 104//55
f 104//56 105//56 106//11
f 105//55 106//13 107//13
f 107//11 106//11 105//56
f 108//14 107//13 106//13
f 106//11 107//11 108//12
f 107//13 108//14 109//14
f 109//12 108//12 107//11
f 110//57 109//14 108//14
f 108//12 109//12 110//58
f 109//14 110//57 111//16
f 111//15 110//58 109//12
f 111//16 110//57 112//16
f 112//15 110//58 111//15
f 113//18 111//16 112//16
f 112//15 111//15 113//17
f 111//16 113//18 114//18
f 114//17 113//17 111//15
f 115//8 114//18 113//18
f 113//17 114//17 115//7
f 114//18 115//8 116//8
f 116//7 115//7 114//17
f 117//3 116//8 115//8
f 115//7 116//7 117//1
f 116//8 117//3 118//3
f 118//1 117//1 116//7
f 119//4 118//3 117//3
f 117//1 118//1 119//2
f 118//3 119//4 120//4
f 120//2 119//2 118//1
f 121//10 120//4 119//4
f 119//2 120//2 121//9
f 120//4 121//10 122//10
f 122//9 121//9 120//2
f 123//20 122//10 121//10
f 121//9 122//9 123//19
f 122//10 123//20 124//20
f 124//19 123//19 122//9
f 125//22 123//20 126//22
f 126//21 123//19 125//21
f 123//20 125//22 124//20
f 124//19 125//21 123//19
f 127//24 126//22 128//24
f 128//23 126//21 127//23
f 126//22 127//24 125//22
f 125//21 127//23 126//21
f 129//26 128//24 130//26
f 130//25 128//23 129//25
f 128//24 129//26 127//24
f 127//23 129//25 128//23
f 131//28 130//26 132//28
f 132//27 130//25 131//27
f 130//26 131//28 129//26
f 129//25 131//27 130//25
f 133//30 132//28 134//30
f 134//29 132//27 133//29
f 132//28 133//30 131//28
f 131//27 133//29 132//27
f 135//32 134//30 136//32
f 136//31 134//29 135//31
f 134//30 135//32 133//30
f 133//29 135//31 134//29
f 137//34 136//32 138//34
f 138//33 136//31 137//33
f 136//32 137//34 135//32
f 135//31 137//33 136//31
f 139//36 138//34 140//36
f 140//35 138//33 139//35
f 138//34 139//36 137//34
f 137//33 139//35 138//33
f 141//38 140//36 142//38
f 142//37 140//35 141//37
f 140//36 141//38 139//36
f 139//35 141//37 140//35
f 143//40 142//38 144//40
f 144//39 142//37 143//39
f 142//38 143//40 141//38
f 141//37 143//39 142//37
f 145//42 144//40 146//42
f 146//41 144//39 145//41
f 144//40 145//42 143//40
f 143//39 145//41 144//39
f 147//44 146//42 148//44
f 148//43 146//41 147//43
f 146//42 147//44 145//42
f 145//41 147//43 146//41
f 149//46 148//44 150//46
f 150//45 148//43 149//45
f 148//44 149//46 147//44
f 147//43 149//45 148//43
f 149//46 151//48 152//48
f 152//47 151//47 149//45
f 151//48 149//46 150//46
f 150//45 149//45 151//47
f 152//48 153//52 154//52
f 154//51 153//51 152//47
f 153//52 152//48 151//48
f 151//47 152//47 153//51
f 154//52 155//54 156//54
f 156//53 155//53 154//51
f 155//54 154//52 153//52
f 153//51 154//51 155//53
f 156//54 157//56 158//56
f 158//55 157//55 156//53
f 157//56 156//54 155//54
f 155//53 156//53 157//55
f 158//56 64//11 61//11
f 61//13 64//13 158//55
f 64//11 158//56 157//56
f 157//55 158//55 64//13
