# SSTK version 0.8.0
# 36
mtllib original-36.mtl
o #ID257
v -0.057632 -0.670016 -0.160865
v 0.071106 -0.668721 -0.306890
v 0.058044 -0.670016 -0.292075
v -0.057632 -0.533110 -0.160865
v 0.083705 -0.664932 -0.321181
v 0.095869 -0.658688 -0.334979
v 0.107391 -0.650096 -0.348048
v 0.118072 -0.639304 -0.360163
v 0.127731 -0.626496 -0.371118
v 0.136201 -0.611891 -0.380726
v 0.143338 -0.595739 -0.388821
v 0.149019 -0.578317 -0.395266
v 0.153149 -0.559923 -0.399949
v -0.050704 -0.533502 -0.168724
v 0.155655 -0.540870 -0.402792
v 0.156511 -0.521120 -0.403763
v -0.035616 -0.530822 -0.185838
v -0.020979 -0.524666 -0.202440
v -0.007143 -0.515180 -0.218135
v 0.156511 -0.372957 -0.403763
v 0.005565 -0.502590 -0.232548
v 0.016841 -0.487196 -0.245339
v 0.026418 -0.469362 -0.256201
v 0.034067 -0.449515 -0.264878
v 0.039608 -0.428124 -0.271163
v 0.042908 -0.405700 -0.274906
v 0.043888 -0.382775 -0.276018
v 0.043303 -0.372957 -0.275355
v 0.043303 -0.372957 -0.275355
v 0.043888 -0.382775 -0.276018
v 0.156511 -0.372957 -0.403763
v 0.042908 -0.405700 -0.274906
v 0.039608 -0.428124 -0.271163
v 0.034067 -0.449515 -0.264878
v 0.026418 -0.469362 -0.256201
v 0.016841 -0.487196 -0.245339
v 0.005565 -0.502590 -0.232548
v -0.007143 -0.515180 -0.218135
v 0.156511 -0.521120 -0.403763
v -0.020979 -0.524666 -0.202440
v -0.035616 -0.530822 -0.185838
v -0.050704 -0.533502 -0.168724
v 0.155655 -0.540870 -0.402792
v 0.153149 -0.559923 -0.399949
v -0.057632 -0.533110 -0.160865
v 0.149019 -0.578317 -0.395266
v 0.143338 -0.595739 -0.388821
v 0.136201 -0.611891 -0.380726
v 0.127731 -0.626496 -0.371118
v 0.118072 -0.639304 -0.360163
v 0.107391 -0.650096 -0.348048
v 0.095869 -0.658688 -0.334979
v 0.083705 -0.664932 -0.321181
v 0.071106 -0.668721 -0.306890
v -0.057632 -0.670016 -0.160865
v 0.058044 -0.670016 -0.292075
vn -0.7501110657106161 0 -0.6613118697698414
vn 0.7501110657106161 0 0.6613118697698414
usemtl material_0_0
f 1//1 2//1 3//1
f 2//1 1//1 4//1
f 2//1 4//1 5//1
f 5//1 4//1 6//1
f 6//1 4//1 7//1
f 7//1 4//1 8//1
f 8//1 4//1 9//1
f 9//1 4//1 10//1
f 10//1 4//1 11//1
f 11//1 4//1 12//1
f 12//1 4//1 13//1
f 13//1 4//1 14//1
f 13//1 14//1 15//1
f 14//1 16//1 15//1
f 16//1 14//1 17//1
f 16//1 17//1 18//1
f 16//1 18//1 19//1
f 16//1 19//1 20//1
f 20//1 19//1 21//1
f 20//1 21//1 22//1
f 20//1 22//1 23//1
f 20//1 23//1 24//1
f 20//1 24//1 25//1
f 20//1 25//1 26//1
f 20//1 26//1 27//1
f 20//1 27//1 28//1
f 29//2 30//2 31//2
f 30//2 32//2 31//2
f 32//2 33//2 31//2
f 33//2 34//2 31//2
f 34//2 35//2 31//2
f 35//2 36//2 31//2
f 36//2 37//2 31//2
f 37//2 38//2 31//2
f 31//2 38//2 39//2
f 38//2 40//2 39//2
f 40//2 41//2 39//2
f 41//2 42//2 39//2
f 43//2 39//2 42//2
f 43//2 42//2 44//2
f 42//2 45//2 44//2
f 44//2 45//2 46//2
f 46//2 45//2 47//2
f 47//2 45//2 48//2
f 48//2 45//2 49//2
f 49//2 45//2 50//2
f 50//2 45//2 51//2
f 51//2 45//2 52//2
f 52//2 45//2 53//2
f 53//2 45//2 54//2
f 45//2 55//2 54//2
f 56//2 54//2 55//2
