# SSTK version 0.8.0
# 42
mtllib original-42.mtl
o #ID302
v -0.113422 -0.457688 -0.097585
v -0.094290 -0.458370 -0.119285
v -0.105883 -0.459027 -0.106136
v -0.045123 -0.457688 -0.175054
v -0.037810 -0.454612 -0.183350
v -0.120735 -0.454612 -0.089289
v -0.030896 -0.449872 -0.191191
v -0.127649 -0.449872 -0.081447
v -0.133998 -0.443582 -0.074245
v -0.024547 -0.443582 -0.198393
v -0.139632 -0.435890 -0.067855
v -0.018912 -0.435890 -0.204784
v -0.144418 -0.426979 -0.062427
v -0.014127 -0.426979 -0.210212
v -0.148240 -0.417062 -0.058091
v -0.010305 -0.417062 -0.214548
v -0.151008 -0.406374 -0.054951
v -0.007537 -0.406374 -0.217688
v -0.005888 -0.395169 -0.219558
v -0.152657 -0.395169 -0.053081
v -0.153147 -0.383715 -0.052526
v -0.005398 -0.383715 -0.220114
v -0.152008 -0.364597 -0.053817
v -0.006536 -0.364597 -0.218822
v -0.152008 -0.318707 -0.053817
v -0.006536 -0.318707 -0.218822
v -0.152008 -0.062372 -0.053817
v -0.006536 -0.062372 -0.218822
v -0.152008 0.000744 -0.053817
v -0.006536 0.000744 -0.218822
v -0.093509 0.000744 -0.120172
v -0.065036 0.000744 -0.152467
v -0.064254 -0.458370 -0.153354
v -0.052662 -0.459027 -0.166503
v -0.094290 -0.458370 -0.119285
v -0.064254 -0.458370 -0.153354
v -0.045123 -0.457688 -0.175054
v -0.052662 -0.459027 -0.166503
v -0.065036 0.000744 -0.152467
v -0.093509 0.000744 -0.120172
v -0.006536 0.000744 -0.218822
v -0.152008 0.000744 -0.053817
v -0.006536 -0.062372 -0.218822
v -0.152008 -0.062372 -0.053817
v -0.006536 -0.318707 -0.218822
v -0.152008 -0.318707 -0.053817
v -0.006536 -0.364597 -0.218822
v -0.152008 -0.364597 -0.053817
v -0.005398 -0.383715 -0.220114
v -0.153147 -0.383715 -0.052526
v -0.005888 -0.395169 -0.219558
v -0.152657 -0.395169 -0.053081
v -0.151008 -0.406374 -0.054951
v -0.007537 -0.406374 -0.217688
v -0.010305 -0.417062 -0.214548
v -0.148240 -0.417062 -0.058091
v -0.014127 -0.426979 -0.210212
v -0.144418 -0.426979 -0.062427
v -0.018912 -0.435890 -0.204784
v -0.139632 -0.435890 -0.067855
v -0.024547 -0.443582 -0.198393
v -0.133998 -0.443582 -0.074245
v -0.030896 -0.449872 -0.191191
v -0.127649 -0.449872 -0.081447
v -0.120735 -0.454612 -0.089289
v -0.037810 -0.454612 -0.183350
v -0.113422 -0.457688 -0.097585
v -0.105883 -0.459027 -0.106136
vt -0.7958826 0.5863533
vt -0.861362 0.5848091
vt -0.8216859 0.5833226
vt -1.029642 0.5863533
vt -1.054673 0.5933154
vt -0.770852 0.5933154
vt -1.078335 0.6040432
vt -0.7471896 0.6040432
vt -0.725458 0.6182817
vt -1.100067 0.6182817
vt -0.706174 0.6356922
vt -1.119351 0.6356922
vt -0.6897963 0.6558606
vt -1.135728 0.6558606
vt -0.6767143 0.6783074
vt -1.14881 0.6783074
vt -0.6672391 0.7024987
vt -1.158286 0.7024987
vt -1.163929 0.7278591
vt -0.6615961 0.7278591
vt -0.6599195 0.7537857
vt -1.165605 0.7537857
vt -0.6638153 0.7970573
vt -1.161709 0.7970573
vt -0.6638153 0.9009257
vt -1.161709 0.9009257
vt -0.6638153 1.481116
vt -1.161709 1.481116
vt -0.6638153 1.623973
vt -1.161709 1.623973
vt -0.8640371 1.623973
vt -0.9614876 1.623973
vt -0.9641627 0.5848091
vt -1.003839 0.5833226
vn -0.7501110657106163 0 -0.6613118697698412
vn 0.7501110657106163 0 0.6613118697698412
usemtl material_0_0
f 1/1/1 2/2/1 3/3/1
f 2/2/1 1/1/1 4/4/1
f 4/4/1 1/1/1 5/5/1
f 5/5/1 1/1/1 6/6/1
f 5/5/1 6/6/1 7/7/1
f 7/7/1 6/6/1 8/8/1
f 7/7/1 8/8/1 9/9/1
f 7/7/1 9/9/1 10/10/1
f 10/10/1 9/9/1 11/11/1
f 10/10/1 11/11/1 12/12/1
f 12/12/1 11/11/1 13/13/1
f 12/12/1 13/13/1 14/14/1
f 14/14/1 13/13/1 15/15/1
f 14/14/1 15/15/1 16/16/1
f 16/16/1 15/15/1 17/17/1
f 16/16/1 17/17/1 18/18/1
f 18/18/1 17/17/1 19/19/1
f 19/19/1 17/17/1 20/20/1
f 19/19/1 20/20/1 21/21/1
f 19/19/1 21/21/1 22/22/1
f 22/22/1 21/21/1 23/23/1
f 22/22/1 23/23/1 24/24/1
f 24/24/1 23/23/1 25/25/1
f 24/24/1 25/25/1 26/26/1
f 26/26/1 25/25/1 27/27/1
f 26/26/1 27/27/1 28/28/1
f 28/28/1 27/27/1 29/29/1
f 28/28/1 29/29/1 30/30/1
f 30/30/1 29/29/1 31/31/1
f 30/30/1 31/31/1 32/32/1
f 33/33/1 4/4/1 34/34/1
f 4/4/1 33/33/1 2/2/1
f 35/2/2 36/33/2 37/4/2
f 38/34/2 37/4/2 36/33/2
f 39/32/2 40/31/2 41/30/2
f 40/31/2 42/29/2 41/30/2
f 41/30/2 42/29/2 43/28/2
f 42/29/2 44/27/2 43/28/2
f 43/28/2 44/27/2 45/26/2
f 44/27/2 46/25/2 45/26/2
f 45/26/2 46/25/2 47/24/2
f 46/25/2 48/23/2 47/24/2
f 47/24/2 48/23/2 49/22/2
f 48/23/2 50/21/2 49/22/2
f 49/22/2 50/21/2 51/19/2
f 50/21/2 52/20/2 51/19/2
f 52/20/2 53/17/2 51/19/2
f 51/19/2 53/17/2 54/18/2
f 54/18/2 53/17/2 55/16/2
f 53/17/2 56/15/2 55/16/2
f 55/16/2 56/15/2 57/14/2
f 56/15/2 58/13/2 57/14/2
f 57/14/2 58/13/2 59/12/2
f 58/13/2 60/11/2 59/12/2
f 59/12/2 60/11/2 61/10/2
f 60/11/2 62/9/2 61/10/2
f 61/10/2 62/9/2 63/7/2
f 62/9/2 64/8/2 63/7/2
f 64/8/2 65/6/2 63/7/2
f 63/7/2 65/6/2 66/5/2
f 65/6/2 67/1/2 66/5/2
f 66/5/2 67/1/2 37/4/2
f 37/4/2 67/1/2 35/2/2
f 68/3/2 35/2/2 67/1/2
