# SSTK version 0.8.0
# 19
mtllib original-19.mtl
o mesh18/mesh18-geometry#mesh18-geometry
v 0.008380 -0.148034 -0.412284
v 0.012187 -0.148169 -0.412050
v 0.010322 -0.147977 -0.412383
v 0.006493 -0.148336 -0.411761
v 0.010322 0.719629 0.088530
v 0.008380 0.719572 0.088629
v 0.006493 0.719270 0.089152
v 0.013848 -0.148596 -0.411310
v 0.012187 0.719437 0.088862
v 0.004790 0.718743 0.090064
v 0.004790 -0.148863 -0.410849
v 0.012187 0.273405 -0.168655
v 0.013848 0.719010 0.089603
v 0.015191 -0.149230 -0.410211
v 0.003387 0.718028 0.091302
v 0.015191 0.718375 0.090701
v 0.003387 -0.149578 -0.409610
v 0.015191 0.234368 -0.188741
v 0.016126 -0.150028 -0.408830
v 0.016126 0.717578 0.092083
v 0.002379 0.717174 0.092783
v 0.002379 -0.150432 -0.408130
v 0.016588 -0.150935 -0.407259
v 0.016588 0.716671 0.093653
v 0.001836 0.716237 0.094405
v 0.001836 -0.151369 -0.406508
v 0.016546 -0.151889 -0.405607
v 0.016546 0.715717 0.095306
v 0.001793 0.715283 0.096057
v 0.001793 -0.152323 -0.404856
v 0.016002 -0.152825 -0.403985
v 0.016002 0.714781 0.096928
v 0.002255 0.714376 0.097628
v 0.002255 -0.153229 -0.403285
v 0.014995 -0.153680 -0.402504
v 0.014995 0.713926 0.098408
v 0.003190 0.713579 0.099009
v 0.003190 -0.154027 -0.401903
v 0.013592 -0.154395 -0.401266
v 0.013592 0.713211 0.099646
v 0.004533 0.712945 0.100108
v 0.004533 -0.154661 -0.400805
v 0.011889 -0.154922 -0.400354
v 0.006194 0.712517 0.100848
v 0.011889 0.712684 0.100558
v 0.006194 -0.155089 -0.400064
v 0.010002 -0.155224 -0.399831
v 0.008059 0.712325 0.101180
v 0.010002 0.712382 0.101082
v 0.008059 -0.155281 -0.399732
vt 0.169217 1.050059
vt 0.171169 1.049433
vt 0.167185 1.049872
vt 0.165211 1.048886
vt 0.097784 0.904323
vt 0.21887 2.528604
vt 0.099763 0.903964
vt 0.186397 0.92627
vt 0.150894 2.56056
vt 0.188431 0.926378
vt 0.255083 1.000032
vt 0.073335 2.610493
vt 0.257125 1.000593
vt 0.172907 1.048037
vt 0.220849 2.528245
vt 0.152928 2.560667
vt 0.075377 2.611054
vt -0.002305 2.665017
vt 0.302224 1.100318
vt -0.004309 2.664068
vt 0.163429 1.047168
vt -0.000573 0.947572
vt 0.12957 1.715763
vt 0.001317 0.946793
vt 0.158599 1.69321
vt 0.300219 1.099368
vt 0.174313 1.045966
vt 0.267263 2.52852
vt -0.074266 2.711504
vt 0.32512 1.199622
vt -0.076204 2.710258
vt 0.161961 1.044833
vt -0.093751 1.043176
vt -0.095548 1.044287
vt 0.077017 1.715297
vt 0.269152 2.527741
vt 0.323182 1.198376
vt 0.292485 2.56335
vt 0.290688 2.564462
vt 0.17529 1.043362
vt 0.029477 1.808072
vt 0.291956 2.623255
vt -0.177177 1.160936
vt -0.138022 2.742166
vt 0.328794 1.278046
vt -0.139881 2.740723
vt 0.290224 2.624601
vt 0.160907 1.042043
vt -0.175445 1.15959
vt 0.326935 1.276603
vt 0.175774 1.040402
vt 0.270612 2.687065
vt 0.272321 2.685574
vt -0.241194 1.260005
vt -0.192752 2.750312
vt 0.315555 1.320211
vt -0.194537 2.748768
vt 0.160338 1.038986
vt -0.239485 1.258514
vt 0.31377 1.318668
vt 0.17573 1.037288
vt 0.236686 2.732474
vt 0.238415 2.730917
vt -0.28733 1.316239
vt -0.237767 2.731501
vt 0.286249 1.315266
vt -0.239497 2.729944
vt 0.160294 1.035872
vt -0.2856 1.314682
vt 0.284519 1.313708
vt 0.175161 1.034231
vt 0.1917 2.751222
vt 0.193484 2.749679
vt -0.316607 1.321122
vt -0.271442 2.686341
vt 0.240364 1.259281
vt -0.273151 2.684849
vt 0.160777 1.032912
vt -0.314823 1.319578
vt 0.238655 1.257789
vt 0.174107 1.031441
vt 0.137263 2.742755
vt 0.139123 2.741312
vt -0.329552 1.278635
vt -0.290563 2.624338
vt 0.176838 1.160672
vt -0.292295 2.622992
vt 0.161755 1.030308
vt -0.327693 1.277192
vt 0.175106 1.159326
vt 0.172639 1.029107
vt 0.074005 2.711672
vt 0.075943 2.710426
vt -0.325381 1.19979
vt -0.290403 2.564638
vt 0.095833 1.044463
vt -0.2922 2.563527
vt 0.163161 1.028237
vt -0.323443 1.198544
vt 0.094036 1.043352
vt 0.170857 1.027388
vt -0.301889 1.100159
vt 0.002639 2.664859
vt -0.299884 1.09921
vt -0.266392 2.528879
vt 0.001443 0.947931
vt -0.268282 2.528099
vt 0.164899 1.026841
vt 0.004644 2.663909
vt -0.000447 0.947152
vt 0.168882 1.026402
vt -0.25624 1.00035
vt -0.074492 2.610811
vt -0.254198 0.999789
vt -0.217646 2.528826
vt -0.09656 0.904545
vt -0.219625 2.528467
vt 0.16685 1.026215
vt -0.07245 2.61025
vt -0.098539 0.904186
vt -0.187207 0.926313
vt -0.151704 2.560603
vt -0.185173 0.926205
vt -0.14967 2.560495
vn 0 0.8660253028382762 0.5000001748438417
vn -0.33267893059486536 -0.4715199016291708 0.8166968296166417
vn -0.07197900649642955 -0.4987030450101961 0.8637790779599523
vn 0.1832590261156959 -0.4915320700467657 0.8513591213246429
vn 0.41851111519248 -0.4541061249897764 0.7865342164884604
vn 0.6243559997486968 -0.3905699998427956 0.6764869997277141
vn -0.5778341890717112 -0.4080771335259205 0.7068102312736466
vn 0 -0.8660253028382762 -0.5000001748438417
vn 0.7935011845076941 -0.30428407075320535 0.527036122548298
vn -0.7825634451073454 -0.3112851770531446 0.5391623066653631
vn -0.9250329396869291 -0.18994298761552766 0.32899197854939466
vn 0.9181135587923723 -0.19815890477297776 0.3432208350621784
vn -0.9935468399103072 -0.05671099086218713 0.09822698417273641
vn 0.9884315496291745 -0.07583396544686818 0.13134794015237547
vn -0.9884315496291745 0.07583396544686818 -0.13134794015237547
vn 0.9935468399103072 0.05671099086218713 -0.09822698417273641
vn -0.9181135587923723 0.19815890477297776 -0.3432208350621784
vn 0.9250329396869291 0.18994298761552766 -0.32899197854939466
vn -0.7935011845076941 0.30428407075320535 -0.527036122548298
vn 0.7825634451073454 0.3112851770531446 -0.5391623066653631
vn -0.6243559997486968 0.3905699998427956 -0.6764869997277141
vn 0.5778341890717112 0.4080771335259205 -0.7068102312736466
vn -0.41851111519248 0.4541061249897764 -0.7865342164884604
vn 0.33267893059486536 0.4715199016291708 -0.8166968296166417
vn -0.1832590261156959 0.4915320700467657 -0.8513591213246429
vn 0.07197900649642955 0.4987030450101961 -0.8637790779599523
usemtl material_0_0
f 1//1 2//1 3//1
f 2//1 1//1 4//1
f 2//2 5//3 3//3
f 3//3 6//4 1//4
f 1//4 7//5 4//5
f 2//1 4//1 8//1
f 5//3 2//2 9//2
f 6//4 3//3 5//3
f 7//5 1//4 6//4
f 10//6 4//5 7//5
f 8//1 4//1 11//1
f 8//7 12//2 2//2
f 9//2 2//2 12//2
f 9//8 6//8 5//8
f 5//1 6//1 9//1
f 6//8 9//8 7//8
f 7//1 9//1 6//1
f 4//5 10//6 11//6
f 7//8 13//8 10//8
f 10//1 13//1 7//1
f 8//1 11//1 14//1
f 12//2 8//7 9//2
f 7//8 9//8 13//8
f 13//1 9//1 7//1
f 15//9 11//6 10//6
f 10//8 13//8 16//8
f 16//1 13//1 10//1
f 14//1 11//1 17//1
f 18//10 8//7 14//10
f 9//2 8//7 13//7
f 11//6 15//9 17//9
f 10//8 16//8 15//8
f 15//1 16//1 10//1
f 13//7 18//10 16//10
f 14//1 17//1 19//1
f 8//7 18//10 13//7
f 14//10 20//11 18//10
f 21//12 17//9 15//9
f 15//8 16//8 20//8
f 20//1 16//1 15//1
f 18//10 20//11 16//10
f 19//1 17//1 22//1
f 20//11 14//10 19//11
f 17//9 21//12 22//12
f 15//8 20//8 21//8
f 21//1 20//1 15//1
f 19//1 22//1 23//1
f 19//11 24//13 20//11
f 25//14 22//12 21//12
f 21//8 20//8 24//8
f 24//1 20//1 21//1
f 23//1 22//1 26//1
f 24//13 19//11 23//13
f 22//12 25//14 26//14
f 21//8 24//8 25//8
f 25//1 24//1 21//1
f 23//1 26//1 27//1
f 23//13 28//15 24//13
f 29//16 26//14 25//14
f 25//8 24//8 28//8
f 28//1 24//1 25//1
f 27//1 26//1 30//1
f 28//15 23//13 27//15
f 26//14 29//16 30//16
f 25//8 28//8 29//8
f 29//1 28//1 25//1
f 27//1 30//1 31//1
f 27//15 32//17 28//15
f 33//18 30//16 29//16
f 29//8 28//8 32//8
f 32//1 28//1 29//1
f 31//1 30//1 34//1
f 32//17 27//15 31//17
f 30//16 33//18 34//18
f 29//8 32//8 33//8
f 33//1 32//1 29//1
f 31//1 34//1 35//1
f 31//17 36//19 32//17
f 37//20 34//18 33//18
f 33//8 32//8 36//8
f 36//1 32//1 33//1
f 35//1 34//1 38//1
f 36//19 31//17 35//19
f 34//18 37//20 38//20
f 33//8 36//8 37//8
f 37//1 36//1 33//1
f 35//1 38//1 39//1
f 35//19 40//21 36//19
f 41//22 38//20 37//20
f 37//8 36//8 40//8
f 40//1 36//1 37//1
f 39//1 38//1 42//1
f 40//21 35//19 39//21
f 38//20 41//22 42//22
f 37//8 40//8 41//8
f 41//1 40//1 37//1
f 39//1 42//1 43//1
f 43//23 40//21 39//21
f 44//24 42//22 41//22
f 41//8 40//8 45//8
f 45//1 40//1 41//1
f 43//1 42//1 46//1
f 40//21 43//23 45//23
f 42//22 44//24 46//24
f 41//8 45//8 44//8
f 44//1 45//1 41//1
f 43//1 46//1 47//1
f 47//25 45//23 43//23
f 48//26 46//24 44//24
f 44//8 45//8 49//8
f 49//1 45//1 44//1
f 47//1 46//1 50//1
f 45//23 47//25 49//25
f 46//24 48//26 50//26
f 44//8 49//8 48//8
f 48//1 49//1 44//1
f 50//26 49//25 47//25
f 49//25 50//26 48//26
usemtl material_1_0
f 3/1/8 2/2/8 1/3/8
f 4/4/8 1/3/8 2/2/8
f 3/5/26 5/6/26 2/7/24
f 1/8/25 6/9/25 3/10/26
f 4/11/23 7/12/23 1/13/25
f 8/14/8 4/4/8 2/2/8
f 9/15/24 2/7/24 5/6/26
f 5/16/26 3/10/26 6/9/25
f 6/17/25 1/13/25 7/12/23
f 7/18/23 4/19/23 10/20/21
f 11/21/8 4/4/8 8/14/8
f 2/22/24 12/23/24 8/24/22
f 12/25/24 2/7/24 9/15/24
f 11/26/21 10/20/21 4/19/23
f 14/27/8 11/21/8 8/14/8
f 9/28/24 8/24/22 12/23/24
f 10/29/21 11/30/21 15/31/19
f 17/32/8 11/21/8 14/27/8
f 14/33/20 8/34/22 18/35/20
f 13/36/22 8/24/22 9/28/24
f 17/37/19 15/31/19 11/30/21
f 16/38/20 18/35/20 13/39/22
f 19/40/8 17/32/8 14/27/8
f 13/39/22 18/35/20 8/34/22
f 18/41/20 20/42/18 14/43/20
f 15/44/19 17/45/19 21/46/17
f 16/47/20 20/42/18 18/41/20
f 22/48/8 17/32/8 19/40/8
f 19/49/18 14/43/20 20/42/18
f 22/50/17 21/46/17 17/45/19
f 23/51/8 22/48/8 19/40/8
f 20/52/18 24/53/16 19/54/18
f 21/55/17 22/56/17 25/57/15
f 26/58/8 22/48/8 23/51/8
f 23/59/16 19/54/18 24/53/16
f 26/60/15 25/57/15 22/56/17
f 27/61/8 26/58/8 23/51/8
f 24/62/16 28/63/14 23/64/16
f 25/65/15 26/66/15 29/67/13
f 30/68/8 26/58/8 27/61/8
f 27/69/14 23/64/16 28/63/14
f 30/70/13 29/67/13 26/66/15
f 31/71/8 30/68/8 27/61/8
f 28/72/14 32/73/12 27/74/14
f 29/75/13 30/76/13 33/77/11
f 34/78/8 30/68/8 31/71/8
f 31/79/12 27/74/14 32/73/12
f 34/80/11 33/77/11 30/76/13
f 35/81/8 34/78/8 31/71/8
f 32/82/12 36/83/9 31/84/12
f 33/85/11 34/86/11 37/87/10
f 38/88/8 34/78/8 35/81/8
f 35/89/9 31/84/12 36/83/9
f 38/90/10 37/87/10 34/86/11
f 39/91/8 38/88/8 35/81/8
f 36/92/9 40/93/6 35/94/9
f 37/95/10 38/96/10 41/97/7
f 42/98/8 38/88/8 39/91/8
f 39/99/6 35/94/9 40/93/6
f 42/100/7 41/97/7 38/96/10
f 43/101/8 42/98/8 39/91/8
f 39/102/6 40/103/6 43/104/5
f 41/105/7 42/106/7 44/107/2
f 46/108/8 42/98/8 43/101/8
f 45/109/5 43/104/5 40/103/6
f 46/110/2 44/107/2 42/106/7
f 47/111/8 46/108/8 43/101/8
f 43/112/5 45/113/5 47/114/4
f 44/115/2 46/116/2 48/117/3
f 50/118/8 46/108/8 47/111/8
f 49/119/4 47/114/4 45/113/5
f 50/120/3 48/117/3 46/116/2
f 47/121/4 49/122/4 50/123/3
f 48/124/3 50/123/3 49/122/4
