# SSTK version 0.8.0
# 55
mtllib original-55.mtl
o Group55/mesh111/mesh111-geometry#mesh111-geometry
v 0.013578 -0.486519 -0.417213
v 0.009079 -0.488017 -0.413596
v 0.013578 -0.488017 -0.413596
v 0.009079 -0.486519 -0.417213
v 0.009079 -0.490400 -0.410490
v 0.013578 -0.486519 -0.424975
v 0.013578 -0.486264 -0.419147
v 0.009079 -0.488017 -0.428592
v 0.013578 -0.490400 -0.410490
v 0.009079 -0.490400 -0.431698
v 0.013578 -0.488017 -0.428592
v 0.013578 -0.486264 -0.423042
v 0.009079 -0.486264 -0.419147
v 0.009079 -0.486519 -0.424975
v 0.013578 -0.493506 -0.408107
v 0.009079 -0.493506 -0.434081
v 0.009079 -0.486264 -0.423042
v 0.009079 -0.478217 -0.419147
v 0.013578 -0.478217 -0.423042
v 0.013578 -0.490400 -0.431698
v 0.009079 -0.493506 -0.408107
v 0.013578 -0.478217 -0.419147
v 0.013578 -0.497123 -0.406609
v 0.013578 -0.493506 -0.434081
v 0.009079 -0.497123 -0.435579
v 0.009079 -0.478217 -0.423042
v 0.009079 -0.497123 -0.406609
v 0.013578 -0.501004 -0.406098
v 0.013578 -0.497123 -0.435579
v 0.009079 -0.501004 -0.436090
v 0.009079 -0.501004 -0.406098
v 0.013578 -0.504885 -0.406609
v 0.013578 -0.501004 -0.436090
v 0.009079 -0.504885 -0.435579
v 0.009079 -0.504885 -0.406609
v 0.013578 -0.504885 -0.435579
v 0.013578 -0.508502 -0.408107
v 0.009079 -0.508502 -0.434081
v 0.009079 -0.508502 -0.408107
v 0.013578 -0.508502 -0.434081
v 0.013578 -0.511608 -0.410490
v 0.009079 -0.511608 -0.431698
v 0.009079 -0.511608 -0.410490
v 0.013578 -0.511608 -0.431698
v 0.009079 -0.513991 -0.413596
v 0.013578 -0.513991 -0.428592
v 0.009079 -0.513991 -0.428592
v 0.013578 -0.513991 -0.413596
v 0.009079 -0.515489 -0.417213
v 0.009079 -0.515489 -0.424975
v 0.013578 -0.515489 -0.417213
v 0.013578 -0.515489 -0.424975
v 0.009079 -0.516000 -0.421094
v 0.013578 -0.516000 -0.421094
vn 0 0.965925849201117 0.2588189595935754
vn 0 0.8660253028382762 0.5000001748438417
vn 0 -0.8660253028382762 -0.5000001748438417
vn 0 -0.965925849201117 -0.2588189595935754
vn 0 0.7071067811865476 0.7071067811865476
vn 0 -0.7071067811865476 -0.7071067811865476
vn 1 0 0
vn -1 0 0
vn 0 0.9914448886106773 0.1305259853353411
vn 0 -0.9914448886106773 -0.1305259853353411
vn 0 0.5000001748438417 0.8660253028382762
vn 0 -0.5000001748438417 -0.8660253028382762
vn 0 0.8660253028382762 -0.5000001748438417
vn 0 0.965925849201117 -0.2588189595935754
vn 0 -0.965925849201117 0.2588189595935754
vn 0 -0.8660253028382762 0.5000001748438417
vn 0 0.9914448886106773 -0.1305259853353411
vn 0 -0.9914448886106773 0.1305259853353411
vn 0 0 1
vn 0 0 -1
vn 0 0.7071067811865476 -0.7071067811865476
vn 0 -0.7071067811865476 0.7071067811865476
vn 0 0.5000001748438417 -0.8660253028382762
vn 0 -0.5000001748438417 0.8660253028382762
vn 0 0.2588189595935754 0.965925849201117
vn 0 -0.2588189595935754 -0.965925849201117
vn 0 1 0
vn 0 -1 0
vn 0 0.2588189595935754 -0.965925849201117
vn 0 -0.2588189595935754 0.965925849201117
usemtl material_0_0
f 1//1 2//2 3//2
f 2//2 1//1 4//1
f 3//3 2//3 1//4
f 4//4 1//4 2//3
f 5//5 3//2 2//2
f 2//3 3//3 5//6
f 3//7 6//7 1//7
f 1//8 6//8 3//8
f 7//9 4//1 1//1
f 1//4 4//4 7//10
f 8//8 2//8 4//8
f 4//7 2//7 8//7
f 3//2 5//5 9//5
f 9//6 5//6 3//3
f 10//8 5//8 2//8
f 2//7 5//7 10//7
f 3//7 11//7 6//7
f 6//8 11//8 3//8
f 1//7 6//7 12//7
f 12//8 6//8 1//8
f 4//1 7//9 13//9
f 13//10 7//10 4//4
f 1//7 12//7 7//7
f 7//8 12//8 1//8
f 10//8 2//8 8//8
f 8//7 2//7 10//7
f 8//8 4//8 14//8
f 14//7 4//7 8//7
f 5//5 15//11 9//5
f 9//6 15//12 5//6
f 9//7 11//7 3//7
f 3//8 11//8 9//8
f 16//8 5//8 10//8
f 10//7 5//7 16//7
f 11//13 14//14 6//14
f 6//15 14//15 11//16
f 6//14 17//17 12//17
f 12//18 17//18 6//15
f 7//19 18//19 13//19
f 13//20 18//20 7//20
f 14//8 4//8 13//8
f 13//7 4//7 14//7
f 7//7 12//7 19//7
f 19//8 12//8 7//8
f 8//13 20//21 10//21
f 10//22 20//22 8//16
f 14//14 11//13 8//13
f 8//16 11//16 14//15
f 15//11 5//5 21//11
f 21//12 5//6 15//12
f 15//7 20//7 9//7
f 9//8 20//8 15//8
f 9//7 20//7 11//7
f 11//8 20//8 9//8
f 16//8 21//8 5//8
f 5//7 21//7 16//7
f 20//21 16//23 10//21
f 10//22 16//24 20//22
f 17//17 6//14 14//14
f 14//15 6//15 17//18
f 17//20 19//20 12//20
f 12//19 19//19 17//19
f 18//19 7//19 22//19
f 22//20 7//20 18//20
f 17//8 13//8 18//8
f 18//7 13//7 17//7
f 14//8 13//8 17//8
f 17//7 13//7 14//7
f 7//7 19//7 22//7
f 22//8 19//8 7//8
f 20//21 8//13 11//13
f 11//16 8//16 20//22
f 21//11 23//25 15//11
f 15//12 23//26 21//12
f 15//7 24//7 20//7
f 20//8 24//8 15//8
f 25//8 21//8 16//8
f 16//7 21//7 25//7
f 16//23 20//21 24//23
f 24//24 20//22 16//24
f 19//20 17//20 26//20
f 26//19 17//19 19//19
f 19//27 18//27 22//27
f 22//28 18//28 19//28
f 17//8 18//8 26//8
f 26//7 18//7 17//7
f 23//25 21//11 27//25
f 27//26 21//12 23//26
f 23//7 24//7 15//7
f 15//8 24//8 23//8
f 25//8 27//8 21//8
f 21//7 27//7 25//7
f 24//23 25//29 16//23
f 16//24 25//30 24//24
f 18//27 19//27 26//27
f 26//28 19//28 18//28
f 27//25 28//19 23//25
f 23//26 28//20 27//26
f 23//7 29//7 24//7
f 24//8 29//8 23//8
f 30//8 27//8 25//8
f 25//7 27//7 30//7
f 25//29 24//23 29//29
f 29//30 24//24 25//30
f 28//19 27//25 31//19
f 31//20 27//26 28//20
f 28//7 29//7 23//7
f 23//8 29//8 28//8
f 30//8 31//8 27//8
f 27//7 31//7 30//7
f 29//29 30//20 25//29
f 25//30 30//19 29//30
f 31//19 32//30 28//19
f 28//20 32//29 31//20
f 28//7 33//7 29//7
f 29//8 33//8 28//8
f 34//8 31//8 30//8
f 30//7 31//7 34//7
f 30//20 29//29 33//20
f 33//19 29//30 30//19
f 32//30 31//19 35//30
f 35//29 31//20 32//29
f 32//7 36//7 28//7
f 28//8 36//8 32//8
f 28//7 36//7 33//7
f 33//8 36//8 28//8
f 34//8 35//8 31//8
f 31//7 35//7 34//7
f 33//20 34//26 30//20
f 30//19 34//25 33//19
f 35//30 37//24 32//30
f 32//29 37//23 35//29
f 37//7 36//7 32//7
f 32//8 36//8 37//8
f 34//26 33//20 36//26
f 36//25 33//19 34//25
f 38//8 35//8 34//8
f 34//7 35//7 38//7
f 37//24 35//30 39//24
f 39//23 35//29 37//23
f 37//7 40//7 36//7
f 36//8 40//8 37//8
f 36//26 38//12 34//26
f 34//25 38//11 36//25
f 38//8 39//8 35//8
f 35//7 39//7 38//7
f 39//24 41//22 37//24
f 37//23 41//21 39//23
f 41//7 40//7 37//7
f 37//8 40//8 41//8
f 38//12 36//26 40//12
f 40//11 36//25 38//11
f 42//8 39//8 38//8
f 38//7 39//7 42//7
f 41//22 39//24 43//22
f 43//21 39//23 41//21
f 41//7 44//7 40//7
f 40//8 44//8 41//8
f 40//12 42//6 38//12
f 38//11 42//5 40//11
f 42//8 43//8 39//8
f 39//7 43//7 42//7
f 45//16 41//22 43//22
f 43//21 41//21 45//13
f 41//7 46//7 44//7
f 44//8 46//8 41//8
f 42//6 40//12 44//6
f 44//5 40//11 42//5
f 47//8 43//8 42//8
f 42//7 43//7 47//7
f 41//22 45//16 48//16
f 48//13 45//13 41//21
f 47//8 45//8 43//8
f 43//7 45//7 47//7
f 48//7 46//7 41//7
f 41//8 46//8 48//8
f 46//3 42//6 44//6
f 44//5 42//5 46//2
f 42//6 46//3 47//3
f 47//2 46//2 42//5
f 49//15 48//16 45//16
f 45//13 48//13 49//14
f 50//8 45//8 47//8
f 47//7 45//7 50//7
f 51//7 46//7 48//7
f 48//8 46//8 51//8
f 52//4 47//3 46//3
f 46//2 47//2 52//1
f 48//16 49//15 51//15
f 51//14 49//14 48//13
f 50//8 49//8 45//8
f 45//7 49//7 50//7
f 47//3 52//4 50//4
f 50//1 52//1 47//2
f 51//7 52//7 46//7
f 46//8 52//8 51//8
f 53//28 51//15 49//15
f 49//14 51//14 53//27
f 49//8 50//8 53//8
f 53//7 50//7 49//7
f 54//28 50//4 52//4
f 52//1 50//1 54//27
f 52//7 51//7 54//7
f 54//8 51//8 52//8
f 51//15 53//28 54//28
f 54//27 53//27 51//14
f 50//4 54//28 53//28
f 53//27 54//27 50//1
