mtllib new-9.mtl
v 0.348181 -0.474883 -0.249502
v 0.328703 -0.474818 -0.176809
v 0.348181 -0.474883 -0.104116
v 0.474128 -0.463424 -0.319613
v 0.401396 -0.475058 -0.302717
v 0.401396 -0.475058 -0.050901
v 0.474088 -0.475298 -0.031423
v 0.474088 -0.475298 -0.322195
v 0.546781 -0.475537 -0.050901
v 0.599996 -0.475713 -0.104116
v 0.546781 -0.475537 -0.302717
v 0.619474 -0.475777 -0.176809
v 0.599996 -0.475713 -0.249502
vn 0.002010 0.609930 -0.792453
vn -0.002010 -0.609930 0.792453
vn -0.487878 0.214108 -0.846246
vn 0.487878 -0.214108 0.846246
vn 0.000700 0.212498 -0.977161
vn -0.000700 -0.212498 0.977161
vn 0.003296 0.999995 0.000000
vn -0.003296 -0.999995 0.000000
vt 0.195610 0.299418
vt -0.200239 0.300812
vt 0.169012 0.294424
vt -0.228940 0.297178
vt 0.196052 0.294986
vt -0.200148 0.296161
usemtl material-0
f 8/5/5 5/3/3 4/1/1
f 4/2/2 5/4/4 8/6/6
usemtl material-1
f 1//8 5//8 6//8
f 6//7 5//7 1//7
f 2//8 1//8 3//8
f 3//7 1//7 2//7
f 3//8 1//8 6//8
f 6//7 1//7 3//7
f 6//8 5//8 7//8
f 7//7 5//7 6//7
f 5//8 8//8 7//8
f 7//7 8//7 5//7
f 7//8 8//8 9//8
f 9//7 8//7 7//7
f 8//8 11//8 9//8
f 9//7 11//7 8//7
f 9//8 11//8 10//8
f 10//7 11//7 9//7
f 12//8 10//8 13//8
f 13//7 10//7 12//7
f 11//8 13//8 10//8
f 10//7 13//7 11//7