mtllib new-21.mtl
v 0.007998 0.334833 0.947692
v 0.076483 0.326587 0.930893
v -0.038952 0.333774 0.944932
v -0.015862 0.337667 0.949370
v 0.083080 0.329778 0.940349
v -0.067116 0.330275 0.940349
v 0.040146 0.330518 0.942894
v 0.101831 0.306438 0.891028
v -0.060541 0.327040 0.930893
v 0.007995 0.333997 0.953512
v 0.089155 0.326302 0.936306
v 0.097747 0.276995 0.826505
v -0.022676 0.330883 0.943390
v 0.068310 0.303895 0.965284
v 0.088860 0.302306 0.960301
v 0.107018 0.253225 0.853336
v 0.096004 0.302956 0.954926
v 0.007745 0.258215 0.783464
v -0.073214 0.326838 0.936306
v -0.052517 0.304294 0.965284
v 0.007916 0.310211 0.973750
v 0.107798 0.286879 0.919228
v 0.089681 0.233935 0.799446
v 0.082516 0.262703 0.793694
v -0.086021 0.307059 0.891028
v -0.073077 0.302841 0.960301
v 0.007826 0.282996 0.949569
v 0.033909 0.282778 0.949762
v 0.064192 0.279855 0.942695
v 0.078001 0.261378 0.901799
v 0.075612 0.245540 0.865402
v 0.031185 0.225041 0.790098
v -0.066995 0.263197 0.793694
v -0.082132 0.277589 0.826505
v -0.080218 0.303538 0.954926
v -0.018257 0.282951 0.949762
v 0.063143 0.229324 0.829413
v 0.007638 0.226069 0.790425
v -0.015914 0.225196 0.790098
v -0.091560 0.253881 0.853336
v -0.092117 0.287539 0.919228
v -0.048559 0.280228 0.942695
v 0.007851 0.277311 0.938325
v 0.056475 0.266758 0.915280
v 0.052607 0.239992 0.854441
v 0.007642 0.227256 0.824103
v -0.074351 0.234477 0.799446
v -0.062489 0.261843 0.901799
v -0.040928 0.267080 0.915280
v 0.028680 0.275882 0.935285
v 0.065455 0.253316 0.884649
v 0.023872 0.227163 0.823555
v -0.047844 0.229691 0.829413
v -0.060206 0.245989 0.865402
v -0.013073 0.276020 0.935285
v 0.025783 0.279696 0.931895
v 0.046994 0.275426 0.919233
v 0.062289 0.262702 0.891173
v 0.060192 0.253638 0.870236
v 0.030059 0.232997 0.838749
v 0.007666 0.231551 0.835298
v -0.008588 0.227270 0.823555
v -0.010152 0.279815 0.931895
v -0.031390 0.275685 0.919233
v 0.007816 0.279964 0.932358
v 0.059745 0.266962 0.900756
v 0.044943 0.243380 0.849358
v -0.037237 0.240289 0.854441
v -0.049997 0.253697 0.884649
v -0.044197 0.267306 0.900756
v 0.024506 0.237438 0.836878
v -0.014736 0.233145 0.838749
v -0.046769 0.263063 0.891173
v 0.007677 0.237777 0.837251
v -0.009154 0.237550 0.836878
v -0.029551 0.243626 0.849358
v -0.044732 0.253985 0.870236
vn 0.018384 0.931959 -0.362097
vn -0.018384 -0.931959 0.362097
vn -0.098845 -0.546190 0.831809
vn 0.098845 0.546190 -0.831809
vn -0.091592 -0.031818 0.995288
vn 0.091592 0.031818 -0.995288
vn 0.246668 0.967218 0.060364
vn -0.246668 -0.967218 -0.060364
vn -0.240269 0.968828 0.060364
vn 0.240269 -0.968828 -0.060364
vn -0.028177 -0.674192 0.738018
vn 0.028177 0.674192 -0.738018
vn 0.000313 0.950587 -0.310458
vn -0.000313 -0.950587 0.310458
vn 0.876317 0.468079 -0.113885
vn -0.876317 -0.468079 0.113885
vn -0.012223 0.932060 -0.362097
vn 0.012223 -0.932060 0.362097
vn 0.003085 0.933328 0.359013
vn -0.003085 -0.933328 -0.359013
vn 0.678947 0.706516 0.199665
vn -0.678947 -0.706516 -0.199665
vn 0.874149 0.338638 -0.348121
vn -0.874149 -0.338638 0.348121
vn 0.005970 0.950568 -0.310458
vn 0.190695 0.624888 0.757067
vn -0.190695 -0.624888 -0.757067
vn 0.447956 0.601952 0.661051
vn -0.447956 -0.601952 -0.661051
vn 0.872605 -0.479574 0.092570
vn -0.872605 0.479574 -0.092570
vn 0.805973 0.507490 0.304732
vn -0.805973 -0.507490 -0.304732
vn 0.087512 -0.117853 -0.989167
vn -0.087512 0.117853 0.989167
vn -0.674262 0.710988 0.199665
vn 0.674262 -0.710988 -0.199665
vn -0.005970 -0.950568 0.310458
vn -0.186560 0.626134 0.757067
vn 0.186560 -0.626134 -0.757067
vn 0.171946 0.638046 0.750554
vn -0.171946 -0.638046 -0.750554
vn 0.897208 -0.328263 0.295401
vn -0.897208 0.328263 -0.295401
vn 0.742847 -0.556140 -0.372675
vn -0.742847 0.556140 0.372675
vn 0.328627 -0.159840 -0.930836
vn -0.328627 0.159840 0.930836
vn -0.088289 -0.117272 -0.989168
vn 0.088289 0.117272 0.989168
vn -0.873204 0.473862 -0.113885
vn 0.873204 -0.473862 0.113885
vn -0.443968 0.604900 0.661051
vn 0.443968 -0.604900 -0.661051
vn -0.167725 0.639169 0.750554
vn 0.167725 -0.639169 -0.750554
vn 0.035286 -0.663840 0.747042
vn 0.004659 -0.728030 0.685530
vn 0.046858 -0.651854 0.756896
vn -0.046858 0.651854 -0.756896
vn -0.004659 0.728030 -0.685530
vn -0.035286 0.663840 -0.747042
vn 0.212939 -0.741790 0.635928
vn 0.032311 -0.813473 0.580705
vn -0.032311 0.813473 -0.580705
vn -0.212939 0.741790 -0.635928
vn 0.393878 -0.789392 0.470872
vn 0.194000 -0.835681 0.513811
vn -0.194000 0.835681 -0.513811
vn -0.393878 0.789392 -0.470872
vn 0.276297 -0.858648 0.431722
vn -0.276297 0.858648 -0.431722
vn 0.189658 -0.915216 0.355541
vn -0.189658 0.915216 -0.355541
vn 0.099183 -0.153813 -0.983110
vn -0.099183 0.153813 0.983110
vn -0.329676 -0.157664 -0.930836
vn 0.329676 0.157664 0.930836
vn -0.871891 0.344409 -0.348121
vn 0.871891 -0.344409 0.348121
vn -0.802601 0.512806 0.304732
vn 0.802601 -0.512806 -0.304732
vn -0.037685 -0.813237 0.580711
vn -0.051165 -0.651530 0.756896
vn -0.217838 -0.740366 0.635928
vn 0.217838 0.740366 -0.635928
vn 0.051165 0.651530 -0.756896
vn 0.037685 0.813237 -0.580711
vn -0.039673 -0.663592 0.747042
vn -0.009471 -0.727971 0.685542
vn 0.009471 0.727971 -0.685542
vn 0.039673 0.663592 -0.747042
vn 0.132851 -0.965319 0.224746
vn -0.132851 0.965319 -0.224746
vn -0.022793 -0.211494 -0.977113
vn 0.022793 0.211494 0.977113
vn -0.100197 -0.153154 -0.983110
vn 0.100197 0.153154 0.983110
vn -0.875756 -0.473796 0.092570
vn 0.875756 0.473796 -0.092570
vn -0.899358 -0.322325 0.295401
vn 0.899358 0.322325 -0.295401
vn -0.199520 -0.834380 0.513811
vn -0.399087 -0.786771 0.470872
vn 0.399087 0.786771 -0.470872
vn 0.199520 0.834380 -0.513811
vn -0.053128 -0.996797 -0.059781
vn 0.053128 0.996797 0.059781
vn 0.042784 -0.905768 0.421610
vn -0.042784 0.905768 -0.421610
vn -0.357318 -0.718224 0.597058
vn 0.357318 0.718224 -0.597058
vn 0.037654 -0.998545 0.038597
vn -0.037654 0.998545 -0.038597
vn -0.013502 -0.988020 0.153733
vn -0.043135 -0.998449 0.035186
vn 0.043135 0.998449 -0.035186
vn 0.013502 0.988020 -0.153733
vn 0.021394 -0.211640 -0.977113
vn -0.021394 0.211640 0.977113
vn -0.746507 -0.551218 -0.372675
vn 0.746507 0.551218 0.372675
vn -0.281967 -0.856803 0.431722
vn 0.281967 0.856803 -0.431722
vn 0.046383 -0.997124 -0.059932
vn -0.046383 0.997124 0.059932
vn -0.048770 -0.905465 0.421610
vn 0.048770 0.905465 -0.421610
vn -0.301815 -0.919366 -0.252338
vn 0.301815 0.919366 0.252338
vn 0.084330 -0.907644 0.411181
vn -0.084330 0.907644 -0.411181
vn 0.017077 -0.963908 0.265687
vn -0.017077 0.963908 -0.265687
vn 0.006971 -0.988087 0.153738
vn -0.044254 -0.998274 0.038597
vn 0.036534 -0.998713 0.035186
vn -0.036534 0.998713 -0.035186
vn 0.044254 0.998274 -0.038597
vn -0.006971 0.988087 -0.153738
vn -0.139228 -0.964419 0.224746
vn 0.139228 0.964419 -0.224746
vn -0.195704 -0.913942 0.355541
vn 0.195704 0.913942 -0.355541
vn 0.295611 -0.921355 -0.252428
vn -0.295611 0.921355 0.252428
vn -0.209340 -0.817997 -0.535778
vn 0.209340 0.817997 0.535778
vn -0.615425 -0.632945 -0.469716
vn -0.870103 -0.353376 -0.343580
vn 0.870103 0.353376 0.343580
vn 0.615425 0.632945 0.469716
vn -0.968747 -0.194236 0.154279
vn -0.963873 -0.262487 -0.045269
vn 0.963873 0.262487 0.045269
vn 0.968747 0.194236 -0.154279
vn -0.844381 -0.276152 0.459086
vn 0.844381 0.276152 -0.459086
vn -0.280183 -0.478090 0.832423
vn 0.280183 0.478090 -0.832423
vn 0.006039 -0.933933 0.357397
vn -0.006039 0.933933 -0.357397
vn -0.023446 -0.963773 0.265690
vn 0.023446 0.963773 -0.265690
vn 0.203740 -0.819280 -0.535976
vn -0.203740 0.819280 0.535976
vn 0.867748 -0.359119 -0.343580
vn 0.611228 -0.636999 -0.469716
vn -0.611228 0.636999 0.469716
vn -0.867748 0.359119 0.343580
vn -0.024073 -0.913578 -0.405950
vn 0.024073 0.913578 0.405950
vn -0.887641 -0.412091 -0.205606
vn 0.887641 0.412091 0.205606
vn -0.559927 -0.227540 0.796685
vn 0.559927 0.227540 -0.796685
vn -0.012208 -0.933869 0.357406
vn 0.012208 0.933869 -0.357406
vn 0.352563 -0.720570 0.597058
vn -0.352563 0.720570 -0.597058
vn -0.090328 -0.907067 0.411181
vn 0.090328 0.907067 -0.411181
vn 0.018040 -0.913605 -0.406203
vn -0.018040 0.913605 0.406203
vn 0.884898 -0.417950 -0.205606
vn -0.884898 0.417950 0.205606
vn -0.212841 -0.108673 0.971025
vn 0.212841 0.108673 -0.971025
vn -0.076197 -0.049380 0.995869
vn 0.076197 0.049380 -0.995869
vn 0.276995 -0.479906 0.832445
vn -0.276995 0.479906 -0.832445
vn 0.967442 -0.200635 0.154279
vn 0.962117 -0.268852 -0.045269
vn -0.962117 0.268852 0.045269
vn -0.967442 0.200635 -0.154279
vn 0.015105 -0.299327 0.954031
vn -0.015105 0.299327 -0.954031
vn 0.212078 -0.110040 0.971038
vn 0.075804 -0.049825 0.995877
vn -0.075804 0.049825 -0.995877
vn -0.212078 0.110040 -0.971038
vn 0.558411 -0.231236 0.796685
vn -0.558411 0.231236 -0.796685
vn 0.842538 -0.281727 0.459086
vn -0.842538 0.281727 -0.459086
vn -0.017082 -0.299265 0.954017
vn 0.017082 0.299265 -0.954017
vt 0.615237 0.606491
vt 0.589155 0.579365
vt 0.622258 0.608112
vt 0.596678 0.581187
vt 0.627964 0.607416
vt 0.603000 0.580740
vt 0.606223 0.603987
vt 0.579825 0.576794
vt 0.606879 0.604950
vt 0.580172 0.577576
vt 0.618524 0.605612
vt 0.592839 0.578646
vt 0.589817 0.597011
vt 0.563406 0.569990
vt 0.629408 0.607050
vt 0.604353 0.580285
vt 0.604315 0.603696
vt 0.577520 0.576294
vt 0.574836 0.587299
vt 0.549520 0.561040
vt 0.634762 0.606363
vt 0.616831 0.595582
vt 0.590102 0.567821
vt 0.610322 0.594869
vt 0.583162 0.566958
vt 0.579093 0.578424
vt 0.553131 0.551519
vt 0.607157 0.595091
vt 0.579903 0.567189
vt 0.587232 0.581998
vt 0.564802 0.557146
vt 0.619032 0.605679
vt 0.593377 0.578723
vt 0.634427 0.598339
vt 0.609061 0.571118
vt 0.595264 0.589654
vt 0.568269 0.562030
vt 0.570157 0.572341
vt 0.545454 0.546252
vt 0.570593 0.582735
vt 0.546158 0.557002
vt 0.628430 0.588916
vt 0.603436 0.561853
vt 0.621787 0.588577
vt 0.596146 0.561243
vt 0.612264 0.587314
vt 0.585983 0.559751
vt 0.598563 0.581061
vt 0.572571 0.553815
vt 0.590135 0.575858
vt 0.564762 0.549048
vt 0.582836 0.569862
vt 0.559722 0.544443
vt 0.584393 0.570617
vt 0.559883 0.544337
vt 0.588958 0.570459
vt 0.566421 0.545284
vt 0.625630 0.587019
vt 0.600809 0.560078
vt 0.607433 0.583038
vt 0.581765 0.555856
vt 0.593313 0.574236
vt 0.568677 0.547780
vt 0.597311 0.570494
vt 0.574254 0.544844
vt 0.625652 0.587020
vt 0.600833 0.560080
vt 0.619532 0.586337
vt 0.594243 0.559216
vt 0.597520 0.578510
vt 0.572102 0.551581
vt 0.593012 0.570305
vt 0.569562 0.544496
vt 0.619437 0.587765
vt 0.594273 0.560749
vt 0.610853 0.586177
vt 0.585359 0.559096
vt 0.599959 0.581812
vt 0.574519 0.554888
vt 0.595296 0.578843
vt 0.570231 0.552178
vt 0.595198 0.572148
vt 0.571362 0.546099
vt 0.600085 0.571896
vt 0.576855 0.546115
vt 0.624161 0.588034
vt 0.599433 0.561197
vt 0.602992 0.583246
vt 0.577467 0.556240
vt 0.594020 0.575579
vt 0.569653 0.549297
vt 0.600090 0.571896
vt 0.576861 0.546115
vt 0.596163 0.573809
vt 0.572493 0.547874
vt 0.600572 0.574093
vt 0.577312 0.548327
usemtl material-0
f 7/11/13 5/9/7 2/7/1
f 2/8/2 5/10/8 7/12/14
f 1/5/11 4/3/5 3/1/3
f 3/2/4 4/4/6 1/6/12
f 5/9/7 7/11/13 10/15/19
f 10/16/20 7/12/14 5/10/8
f 10/15/19 9/7/17 6/9/9
f 6/10/10 9/8/18 10/16/20
f 7/11/13 13/21/25 10/15/19
f 10/15/19 14/22/26 5/9/7
f 5/10/8 14/23/27 10/16/20
f 11/17/21 5/9/7 15/24/28
f 15/25/29 5/10/8 11/18/22
f 12/19/23 8/13/15 16/26/30
f 16/27/31 8/14/16 12/20/24
f 8/13/15 11/17/21 17/28/32
f 17/29/33 11/18/22 8/14/16
f 9/7/17 10/15/19 13/32/25
f 13/33/38 10/16/20 9/8/18
f 10/15/19 6/9/9 20/22/39
f 20/23/40 6/10/10 10/16/20
f 10/15/19 21/34/41 14/22/26
f 14/23/27 21/35/42 10/16/20
f 5/9/7 14/22/26 15/24/28
f 15/25/29 14/23/27 5/10/8
f 11/17/21 15/24/28 17/28/32
f 17/29/33 15/25/29 11/18/22
f 16/26/30 8/13/15 22/36/43
f 22/37/44 8/14/16 16/27/31
f 23/38/45 12/19/23 16/26/30
f 16/27/31 12/20/24 23/39/46
f 8/13/15 17/28/32 22/36/43
f 22/37/44 17/29/33 8/14/16
f 6/9/9 26/24/53 20/22/39
f 20/23/40 26/25/54 6/10/10
f 10/15/19 20/22/39 21/34/55
f 21/35/56 20/23/40 10/16/20
f 21/34/57 27/42/58 14/22/59
f 14/23/60 27/43/61 21/35/62
f 15/24/63 14/22/59 28/44/64
f 28/45/65 14/23/60 15/25/66
f 17/28/67 15/24/63 29/46/68
f 29/47/69 15/25/66 17/29/70
f 22/36/43 30/48/71 16/26/30
f 16/27/31 30/49/72 22/37/44
f 16/26/30 31/50/73 23/38/45
f 23/39/46 31/51/74 16/27/31
f 22/36/43 17/28/67 30/48/71
f 30/49/72 17/29/70 22/37/44
f 24/40/47 32/52/75 18/30/34
f 18/31/35 32/53/76 24/41/48
f 25/13/51 35/28/81 19/17/36
f 19/18/37 35/29/82 25/14/52
f 19/17/36 35/28/81 26/24/53
f 26/25/54 35/29/82 19/18/37
f 36/44/83 20/22/84 26/24/85
f 26/25/86 20/23/87 36/45/88
f 21/34/89 20/22/84 27/42/90
f 27/43/91 20/23/87 21/35/92
f 14/22/59 27/42/58 28/44/64
f 28/45/65 27/43/61 14/23/60
f 15/24/63 28/44/64 29/46/68
f 29/47/69 28/45/65 15/25/66
f 17/28/67 29/46/68 30/48/71
f 30/49/72 29/47/69 17/29/70
f 16/26/30 30/48/71 31/50/73
f 31/51/74 30/49/72 16/27/31
f 23/38/45 31/50/73 37/54/93
f 37/55/94 31/51/74 23/39/46
f 24/40/47 23/38/45 32/52/75
f 32/53/76 23/39/46 24/41/48
f 18/30/34 32/52/75 38/56/95
f 38/57/96 32/53/76 18/31/35
f 25/13/51 41/36/101 35/28/81
f 35/29/82 41/37/102 25/14/52
f 42/46/103 26/24/85 35/28/104
f 35/29/105 26/25/86 42/47/106
f 20/22/84 36/44/83 27/42/90
f 27/43/91 36/45/88 20/23/87
f 26/24/85 42/46/103 36/44/83
f 36/45/88 42/47/106 26/25/86
f 28/44/64 27/42/58 43/58/107
f 43/59/108 27/43/61 28/45/65
f 29/46/68 28/44/64 44/60/109
f 44/61/110 28/45/65 29/47/69
f 30/48/71 29/46/68 44/60/109
f 44/61/110 29/47/69 30/49/72
f 30/48/71 44/60/109 31/50/73
f 31/51/74 44/61/110 30/49/72
f 31/50/73 45/62/111 37/54/93
f 37/55/94 45/63/112 31/51/74
f 23/38/45 37/54/93 32/52/113
f 32/53/114 37/55/94 23/39/46
f 32/52/113 46/64/115 38/56/116
f 38/57/117 46/65/118 32/53/114
f 18/30/49 38/56/119 39/52/97
f 39/53/98 38/57/120 18/31/50
f 33/40/77 39/52/97 47/38/121
f 47/39/122 39/53/98 33/41/78
f 47/38/121 40/26/99 34/19/79
f 34/20/80 40/27/100 47/39/122
f 40/26/99 41/36/101 25/13/51
f 25/14/52 41/37/102 40/27/100
f 48/48/123 35/28/104 41/36/101
f 41/37/102 35/29/105 48/49/124
f 42/46/103 35/28/104 48/48/123
f 48/49/124 35/29/105 42/47/106
f 43/66/125 27/42/90 36/44/83
f 36/45/88 27/43/91 43/67/126
f 36/44/83 42/46/103 49/60/127
f 49/61/128 42/47/106 36/45/88
f 28/44/64 43/58/107 50/68/129
f 50/69/130 43/59/108 28/45/65
f 44/60/109 28/44/64 50/68/129
f 50/69/130 28/45/65 44/61/110
f 31/50/73 44/60/109 51/70/131
f 51/71/132 44/61/110 31/51/74
f 31/50/73 51/70/131 45/62/111
f 45/63/112 51/71/132 31/51/74
f 37/54/93 45/62/111 52/72/133
f 52/73/134 45/63/112 37/55/94
f 37/54/93 52/72/133 32/52/113
f 32/53/114 52/73/134 37/55/94
f 32/52/113 52/72/133 46/64/115
f 46/65/118 52/73/134 32/53/114
f 46/64/135 39/52/136 38/56/137
f 38/57/138 39/53/139 46/65/140
f 39/52/136 53/54/141 47/38/121
f 47/39/122 53/55/142 39/53/139
f 54/50/143 40/26/99 47/38/121
f 47/39/122 40/27/100 54/51/144
f 48/48/123 41/36/101 40/26/99
f 40/27/100 41/37/102 48/49/124
f 49/60/127 42/46/103 48/48/123
f 48/49/124 42/47/106 49/61/128
f 43/66/125 36/44/83 55/68/145
f 55/69/146 36/45/88 43/67/126
f 55/68/145 36/44/83 49/60/127
f 49/61/128 36/45/88 55/69/146
f 50/68/129 43/58/107 56/74/147
f 56/75/148 43/59/108 50/69/130
f 50/68/129 57/76/149 44/60/150
f 44/61/151 57/77/152 50/69/130
f 51/70/153 44/60/150 58/78/154
f 58/79/155 44/61/151 51/71/156
f 45/62/111 51/70/153 59/80/157
f 59/81/158 51/71/156 45/63/112
f 45/62/111 60/82/159 52/72/133
f 52/73/134 60/83/160 45/63/112
f 52/72/133 61/84/161 46/64/115
f 46/65/118 61/85/162 52/73/134
f 46/64/135 62/72/163 39/52/136
f 39/53/139 62/73/164 46/65/140
f 62/72/163 53/54/141 39/52/136
f 39/53/139 53/55/142 62/73/164
f 53/54/141 54/50/143 47/38/121
f 47/39/122 54/51/144 53/55/142
f 54/50/143 48/48/123 40/26/99
f 40/27/100 48/49/124 54/51/144
f 49/60/127 48/48/123 54/50/143
f 54/51/144 48/49/124 49/61/128
f 43/66/125 55/68/145 63/74/165
f 63/75/166 55/69/146 43/67/126
f 55/68/145 49/60/167 64/76/168
f 64/77/169 49/61/170 55/69/146
f 56/74/147 43/58/107 65/86/171
f 65/87/172 43/59/108 56/75/148
f 57/76/149 50/68/129 56/74/147
f 56/75/148 50/69/130 57/77/152
f 66/88/173 44/60/150 57/76/149
f 57/77/152 44/61/151 66/89/174
f 58/78/154 44/60/150 66/88/173
f 66/89/174 44/61/151 58/79/155
f 59/80/157 51/70/153 58/78/154
f 58/79/155 51/71/156 59/81/158
f 59/80/157 67/90/175 45/62/111
f 45/63/112 67/91/176 59/81/158
f 67/90/175 60/82/159 45/62/111
f 45/63/112 60/83/160 67/91/176
f 60/82/159 61/84/161 52/72/133
f 52/73/134 61/85/162 60/83/160
f 61/92/177 62/72/163 46/64/135
f 46/65/140 62/73/164 61/93/178
f 62/72/163 68/62/179 53/54/141
f 53/55/142 68/63/180 62/73/164
f 68/62/179 54/50/143 53/54/141
f 53/55/142 54/51/144 68/63/180
f 49/60/127 54/50/143 69/70/181
f 69/71/182 54/51/144 49/61/128
f 63/74/165 55/68/145 64/76/168
f 64/77/169 55/69/146 63/75/166
f 43/66/125 63/74/165 65/86/183
f 65/87/184 63/75/166 43/67/126
f 70/88/185 64/76/168 49/60/167
f 49/61/170 64/77/169 70/89/186
f 67/90/175 71/94/187 60/82/159
f 60/83/160 71/95/188 67/91/176
f 71/94/187 61/84/189 60/82/159
f 60/83/160 61/85/190 71/95/188
f 61/92/177 72/82/191 62/72/163
f 62/73/164 72/83/192 61/93/178
f 62/72/163 72/82/191 68/62/179
f 68/63/180 72/83/192 62/73/164
f 68/62/179 69/70/181 54/50/143
f 54/51/144 69/71/182 68/63/180
f 69/70/193 73/78/194 49/60/167
f 49/61/170 73/79/195 69/71/196
f 73/78/194 70/88/185 49/60/167
f 49/61/170 70/89/186 73/79/195
f 74/96/197 61/84/189 71/94/187
f 71/95/188 61/85/190 74/97/198
f 75/94/199 72/82/191 61/92/200
f 61/93/201 72/83/192 75/95/202
f 76/90/203 68/62/179 72/82/191
f 72/83/192 68/63/180 76/91/204
f 68/62/179 77/80/205 69/70/193
f 69/71/196 77/81/206 68/63/180
f 77/80/205 73/78/194 69/70/193
f 69/71/196 73/79/195 77/81/206
f 74/96/207 75/94/199 61/92/200
f 61/93/201 75/95/202 74/97/208
f 76/90/203 72/82/191 75/94/199
f 75/95/202 72/83/192 76/91/204
f 77/80/205 68/62/179 76/90/203
f 76/91/204 68/63/180 77/81/206
usemtl material-1
f 10//20 13//38 7//14