# SSTK version 0.8.0
# 19
mtllib original-19.mtl
o Group13/mesh31/mesh31-geometry#mesh31-geometry
v -0.012097 0.091346 0.211193
v 0.014008 0.091346 0.204321
v -0.012053 0.091346 0.204154
v 0.013962 0.091346 0.211361
v -0.012177 0.093248 0.204154
v -0.015240 0.090933 0.211173
v -0.012097 0.065660 0.211193
v 0.017151 0.090933 0.204340
v 0.014131 0.093248 0.204321
v -0.015197 0.090933 0.204133
v 0.013962 0.065660 0.211361
v 0.017105 0.090933 0.211380
v 0.014403 0.093248 0.162083
v -0.015693 0.092786 0.204131
v -0.011907 0.093248 0.161914
v -0.018346 0.089647 0.211153
v -0.015240 0.066074 0.211173
v -0.012053 0.065660 0.204154
v 0.020254 0.089647 0.204361
v 0.017647 0.092786 0.204344
v 0.017918 0.092786 0.162106
v -0.018300 0.089647 0.204114
v -0.015421 0.092786 0.161891
v -0.015197 0.066074 0.204133
v 0.017105 0.066074 0.211380
v 0.014008 0.065660 0.204321
v 0.020208 0.089647 0.211401
v 0.021213 0.091310 0.204367
v 0.021483 0.091310 0.162129
v 0.014278 0.091346 0.162082
v 0.017421 0.090933 0.162102
v -0.019259 0.091310 0.204108
v -0.011781 0.091346 0.161914
v -0.014925 0.090933 0.161895
v -0.021009 0.087603 0.211136
v -0.018346 0.067361 0.211153
v -0.018300 0.067361 0.204114
v -0.012177 0.063757 0.204154
v 0.014278 0.065660 0.162082
v 0.022918 0.087603 0.204378
v 0.020524 0.089647 0.162121
v 0.019086 0.087154 0.162114
v 0.016677 0.088153 0.162097
v -0.020964 0.087603 0.204096
v -0.018989 0.091310 0.161868
v -0.014181 0.088153 0.161899
v -0.018028 0.089647 0.161874
v -0.015693 0.064221 0.204131
v -0.019259 0.065698 0.204108
v -0.018989 0.065698 0.161868
v 0.020208 0.067361 0.211401
v 0.017151 0.066074 0.204340
v 0.014131 0.063757 0.204321
v -0.011781 0.065660 0.161914
v -0.015421 0.064221 0.161891
v 0.022874 0.087603 0.211418
v 0.024276 0.088960 0.204386
v 0.024546 0.088960 0.162148
v 0.023190 0.087603 0.162139
v 0.021154 0.085567 0.162125
v 0.014091 0.088492 0.162082
v -0.022322 0.088960 0.204087
v -0.016589 0.087154 0.161884
v -0.011595 0.088492 0.161916
v -0.023009 0.084937 0.204083
v -0.021009 0.069404 0.211136
v -0.020964 0.069404 0.204096
v -0.022050 0.068047 0.161849
v -0.011907 0.063757 0.161914
v 0.014091 0.068514 0.162082
v 0.024917 0.084937 0.211431
v 0.024963 0.084937 0.204391
v 0.026626 0.085896 0.204401
v 0.022741 0.083497 0.162137
v 0.019086 0.069853 0.162114
v 0.016677 0.068854 0.162097
v -0.022050 0.088960 0.161849
v -0.020694 0.087603 0.161857
v -0.018658 0.085567 0.161870
v -0.014181 0.068854 0.161899
v -0.023055 0.084937 0.211123
v -0.024672 0.085896 0.204072
v -0.024400 0.085896 0.161834
v -0.022322 0.068047 0.204087
v -0.014925 0.066074 0.161895
v -0.018028 0.067361 0.161874
v -0.016589 0.069853 0.161884
v -0.020694 0.069404 0.161857
v 0.022874 0.069404 0.211418
v 0.020254 0.067361 0.204361
v 0.017647 0.064221 0.204344
v 0.014403 0.063757 0.162083
v -0.011595 0.068514 0.161916
v 0.026249 0.081834 0.204399
v 0.025235 0.084937 0.162152
v 0.026896 0.085896 0.162163
v 0.023740 0.081088 0.162142
v 0.021154 0.071440 0.162125
v -0.024295 0.081834 0.204076
v -0.025878 0.082331 0.161825
v -0.023055 0.072070 0.211123
v -0.023009 0.072070 0.204083
v -0.024672 0.071111 0.204072
v -0.018658 0.071440 0.161870
v -0.022739 0.072070 0.161844
v 0.021213 0.065698 0.204367
v 0.017918 0.064221 0.162106
v 0.017421 0.066074 0.162102
v 0.026204 0.081834 0.211439
v 0.024917 0.072070 0.211431
v 0.026687 0.078503 0.204403
v 0.028103 0.082331 0.204410
v 0.026520 0.081834 0.162161
v 0.024080 0.078503 0.162144
v 0.022741 0.073508 0.162137
v 0.020524 0.067361 0.162121
v -0.022739 0.084937 0.161844
v -0.020246 0.083497 0.161861
v -0.024341 0.081834 0.211115
v -0.024733 0.078503 0.204072
v -0.026149 0.082331 0.204062
v -0.024400 0.071111 0.161834
v -0.020246 0.073508 0.161861
v -0.021243 0.075919 0.161855
v 0.022918 0.069404 0.204378
v 0.024963 0.072070 0.204391
v 0.026641 0.078503 0.211443
v 0.026626 0.071111 0.204401
v 0.025235 0.072070 0.162152
v 0.023190 0.069404 0.162139
v 0.028373 0.082331 0.162173
v 0.026959 0.078503 0.162163
v 0.023740 0.075919 0.162142
v -0.021243 0.081088 0.161855
v -0.026381 0.078503 0.161821
v -0.024341 0.075173 0.211115
v -0.024295 0.075173 0.204076
v -0.026149 0.074676 0.204062
v -0.024023 0.075173 0.161836
v -0.021584 0.078503 0.161851
v 0.024276 0.068047 0.204386
v 0.021483 0.065698 0.162129
v 0.026204 0.075173 0.211439
v 0.026249 0.075173 0.204399
v 0.028103 0.074676 0.204410
v 0.026520 0.075173 0.162161
v 0.028607 0.078503 0.204414
v 0.026896 0.071111 0.162163
v -0.024023 0.081834 0.161836
v -0.024779 0.078503 0.211112
v -0.026653 0.078503 0.204060
v -0.025878 0.074676 0.161825
v -0.024463 0.078503 0.161834
v 0.024546 0.068047 0.162148
v 0.028877 0.078503 0.162177
v 0.028373 0.074676 0.162173
vn -0.06540199405217943 0.9978589092522204 -0.0004199999618039337
vn 0.06540199405217943 0.9978589092522204 0.0004199999618043768
vn 0.06540199405217943 -0.9978589092522204 0.0004199999618039337
vn -0.06540199405217943 -0.9978589092522204 -0.0004199999618043768
vn -0.006416002677087299 0 0.9999794172429988
vn 0.006416002677087299 0 -0.9999794172429988
vn -0.2588139374973475 0.9659257667323362 -0.0016609995988742443
vn 0.2588139374973475 -0.9659257667323362 0.0016609995988742443
vn 0.2588139374973475 0.9659257667323362 0.0016609995988746732
vn -0.2588139374973475 -0.9659257667323362 -0.0016609995988746732
vn -0.4999901020007412 0.8660251766739172 -0.003208000654449652
vn 0.4999901020007412 -0.8660251766739172 0.003208000654449652
vn 0.4999901020007412 0.8660251766739172 0.003208000654450036
vn -0.4999901020007412 -0.8660251766739172 -0.003208000654450036
vn -0.7070920034357602 0.707107003435833 -0.004537000022045126
vn 0.7070920034357602 -0.707107003435833 0.004537000022045126
vn 0 1 0
vn 0 -1 0
vn 0.7070920034357602 0.707107003435833 0.00453700002204544
vn -0.7070920034357602 -0.707107003435833 -0.00453700002204544
vn -0.8660076859856699 0.4999998187000986 -0.005555997985395384
vn 0.8660076859856699 -0.4999998187000986 0.005555997985395384
vn 0.8660076859856699 0.4999998187000986 0.005555997985395606
vn -0.8660076859856699 -0.4999998187000986 -0.005555997985395606
vn -0.9659059621335893 0.25881898985351937 -0.006196999757058966
vn 0.9659059621335893 -0.25881898985351937 0.006196999757058966
vn 0.9659059621335893 0.25881898985351937 0.00619699975705908
vn -0.9659059621335893 -0.25881898985351937 -0.00619699975705908
vn 0.9999794172429988 0 0.006416002677087299
vn -0.9999794172429988 0 -0.006416002677087299
usemtl material_0_0
f 1//1 2//2 3//1
f 2//2 1//1 4//2
f 3//3 2//4 1//3
f 4//4 1//3 2//4
f 2//5 5//5 3//5
f 3//6 5//6 2//6
f 3//1 6//7 1//1
f 1//3 6//8 3//3
f 7//5 4//5 1//5
f 1//6 4//6 7//6
f 4//2 8//9 2//2
f 2//4 8//10 4//4
f 2//5 9//5 5//5
f 5//6 9//6 2//6
f 3//5 5//5 10//5
f 10//6 5//6 3//6
f 6//7 3//1 10//7
f 10//8 3//3 6//8
f 7//5 1//5 6//5
f 6//6 1//6 7//6
f 11//5 4//5 7//5
f 7//6 4//6 11//6
f 8//9 4//2 12//9
f 12//10 4//4 8//10
f 8//5 9//5 2//5
f 2//6 9//6 8//6
f 13//2 5//1 9//2
f 9//4 5//3 13//4
f 10//5 5//5 14//5
f 14//6 5//6 10//6
f 15//1 14//7 5//1
f 5//3 14//8 15//3
f 10//7 16//11 6//7
f 6//8 16//12 10//8
f 7//5 6//5 17//5
f 17//6 6//6 7//6
f 11//5 12//5 4//5
f 4//6 12//6 11//6
f 18//4 11//3 7//4
f 7//2 11//1 18//2
f 12//9 19//13 8//9
f 8//10 19//14 12//10
f 8//5 20//5 9//5
f 9//6 20//6 8//6
f 21//9 9//2 20//9
f 20//10 9//4 21//10
f 5//1 13//2 15//1
f 15//3 13//4 5//3
f 9//2 21//9 13//2
f 13//4 21//10 9//4
f 10//5 14//5 22//5
f 22//6 14//6 10//6
f 14//7 15//1 23//7
f 23//8 15//3 14//8
f 16//11 10//7 22//11
f 22//12 10//8 16//12
f 17//5 6//5 16//5
f 16//6 6//6 17//6
f 24//10 7//4 17//10
f 17//9 7//2 24//9
f 25//5 12//5 11//5
f 11//6 12//6 25//6
f 11//3 18//4 26//3
f 26//1 18//2 11//1
f 7//4 24//10 18//4
f 18//2 24//9 7//2
f 19//13 12//9 27//13
f 27//14 12//10 19//14
f 19//5 20//5 8//5
f 20//6 28//6 19//6
f 8//6 20//6 19//6
f 20//9 29//13 21//9
f 21//10 29//14 20//10
f 13//6 30//6 15//6
f 15//5 30//5 13//5
f 21//6 31//6 13//6
f 13//6 31//6 30//6
f 13//5 31//5 21//5
f 30//5 31//5 13//5
f 22//5 14//5 32//5
f 32//6 14//6 22//6
f 23//7 32//11 14//7
f 14//8 32//12 23//8
f 15//6 33//6 34//6
f 15//6 34//6 23//6
f 34//5 33//5 15//5
f 23//5 34//5 15//5
f 22//11 35//15 16//11
f 16//12 35//16 22//12
f 17//5 16//5 36//5
f 36//6 16//6 17//6
f 17//10 37//14 24//10
f 24//9 37//13 17//9
f 25//5 27//5 12//5
f 12//6 27//6 25//6
f 26//3 25//8 11//3
f 11//1 25//7 26//1
f 38//5 26//5 18//5
f 18//6 26//6 38//6
f 39//17 18//17 26//17
f 26//18 18//18 39//18
f 38//5 18//5 24//5
f 24//6 18//6 38//6
f 27//13 40//19 19//13
f 19//14 40//20 27//14
f 19//5 28//5 20//5
f 29//13 20//9 28//13
f 28//14 20//10 29//14
f 40//5 28//5 19//5
f 19//6 28//6 40//6
f 21//5 41//5 29//5
f 31//5 41//5 21//5
f 41//6 42//6 31//6
f 15//6 30//6 33//6
f 33//5 30//5 15//5
f 21//6 41//6 31//6
f 31//6 43//6 30//6
f 30//5 43//5 31//5
f 22//5 32//5 44//5
f 44//6 32//6 22//6
f 32//11 23//7 45//11
f 45//12 23//8 32//12
f 33//6 46//6 34//6
f 34//5 46//5 33//5
f 23//6 34//6 47//6
f 47//5 34//5 23//5
f 35//15 22//11 44//15
f 44//16 22//12 35//16
f 36//5 16//5 35//5
f 35//6 16//6 36//6
f 37//14 17//10 36//14
f 36//13 17//9 37//13
f 48//5 24//5 37//5
f 48//5 37//5 49//5
f 37//6 24//6 48//6
f 49//6 37//6 48//6
f 50//14 48//10 49//14
f 49//13 48//9 50//13
f 51//5 27//5 25//5
f 25//6 27//6 51//6
f 25//8 26//3 52//8
f 52//7 26//1 25//7
f 53//5 26//5 38//5
f 38//6 26//6 53//6
f 18//17 39//17 54//17
f 54//18 39//18 18//18
f 38//5 24//5 48//5
f 48//6 24//6 38//6
f 55//10 38//4 48//10
f 48//9 38//2 55//9
f 40//19 27//13 56//19
f 56//20 27//14 40//20
f 40//5 57//5 28//5
f 28//13 58//19 29//13
f 29//14 58//20 28//14
f 28//6 57//6 40//6
f 58//19 28//13 57//19
f 57//20 28//14 58//20
f 29//6 41//6 21//6
f 31//5 42//5 41//5
f 29//6 59//6 41//6
f 41//5 59//5 29//5
f 41//6 60//6 42//6
f 42//5 60//5 41//5
f 31//6 42//6 43//6
f 43//5 42//5 31//5
f 30//6 61//6 33//6
f 33//5 61//5 30//5
f 30//6 43//6 61//6
f 61//5 43//5 30//5
f 44//5 32//5 62//5
f 62//6 32//6 44//6
f 45//11 62//15 32//11
f 32//12 62//16 45//12
f 23//6 47//6 45//6
f 45//5 47//5 23//5
f 34//6 63//6 47//6
f 47//5 63//5 34//5
f 33//6 64//6 46//6
f 46//5 64//5 33//5
f 34//6 46//6 63//6
f 63//5 46//5 34//5
f 65//21 35//15 44//15
f 44//16 35//16 65//22
f 36//5 35//5 66//5
f 66//6 35//6 36//6
f 36//14 67//20 37//14
f 37//13 67//19 36//13
f 49//5 37//5 67//5
f 67//6 37//6 49//6
f 48//10 50//14 55//10
f 55//9 50//13 48//9
f 49//14 68//20 50//14
f 50//13 68//19 49//13
f 51//5 56//5 27//5
f 27//6 56//6 51//6
f 52//8 51//12 25//8
f 25//7 51//11 52//7
f 53//5 52//5 26//5
f 26//6 52//6 53//6
f 69//4 53//3 38//4
f 38//2 53//1 69//2
f 39//6 69//6 54//6
f 54//5 69//5 39//5
f 70//6 39//6 54//6
f 54//5 39//5 70//5
f 38//4 55//10 69//4
f 69//2 55//9 38//2
f 71//23 40//19 56//19
f 56//20 40//20 71//24
f 72//5 57//5 40//5
f 40//6 57//6 72//6
f 29//5 59//5 58//5
f 73//23 58//19 57//19
f 57//20 58//20 73//24
f 58//6 59//6 29//6
f 59//6 74//6 41//6
f 41//6 74//6 60//6
f 60//5 74//5 41//5
f 60//6 75//6 42//6
f 42//5 75//5 60//5
f 42//6 76//6 43//6
f 43//5 76//5 42//5
f 33//6 61//6 64//6
f 64//5 61//5 33//5
f 43//6 70//6 61//6
f 61//5 70//5 43//5
f 44//5 62//5 65//5
f 65//6 62//6 44//6
f 62//15 45//11 77//15
f 77//16 45//12 62//16
f 45//6 47//6 78//6
f 78//5 47//5 45//5
f 47//6 63//6 79//6
f 79//5 63//5 47//5
f 64//6 80//6 46//6
f 46//5 80//5 64//5
f 46//6 80//6 63//6
f 63//5 80//5 46//5
f 35//15 65//21 81//21
f 81//22 65//22 35//16
f 65//5 62//5 82//5
f 82//6 62//6 65//6
f 62//15 83//21 82//21
f 82//22 83//22 62//16
f 66//5 35//5 81//5
f 81//6 35//6 66//6
f 67//20 36//14 66//20
f 66//19 36//13 67//19
f 49//5 67//5 84//5
f 84//6 67//6 49//6
f 68//20 49//14 84//20
f 84//19 49//13 68//19
f 85//6 55//6 86//6
f 86//6 55//6 50//6
f 86//5 55//5 85//5
f 50//5 55//5 86//5
f 87//6 85//6 86//6
f 86//5 85//5 87//5
f 68//5 50//5 88//5
f 89//5 56//5 51//5
f 51//6 56//6 89//6
f 51//12 52//8 90//12
f 90//11 52//7 51//11
f 91//5 52//5 53//5
f 53//6 52//6 91//6
f 92//3 91//8 53//3
f 53//1 91//7 92//1
f 53//3 69//4 92//3
f 92//1 69//2 53//1
f 39//6 92//6 69//6
f 69//5 92//5 39//5
f 54//6 69//6 85//6
f 85//5 69//5 54//5
f 76//6 39//6 70//6
f 70//5 39//5 76//5
f 70//6 54//6 93//6
f 93//5 54//5 70//5
f 85//6 69//6 55//6
f 55//5 69//5 85//5
f 40//19 71//23 72//23
f 72//24 71//24 40//20
f 89//5 71//5 56//5
f 56//6 71//6 89//6
f 94//5 57//5 72//5
f 57//6 73//6 94//6
f 94//5 73//5 57//5
f 72//6 57//6 94//6
f 58//6 95//6 59//6
f 59//5 95//5 58//5
f 58//19 73//23 96//23
f 96//24 73//24 58//20
f 59//6 97//6 74//6
f 74//5 97//5 59//5
f 41//5 74//5 59//5
f 74//6 98//6 60//6
f 60//5 98//5 74//5
f 60//6 98//6 75//6
f 75//5 98//5 60//5
f 42//6 75//6 76//6
f 76//5 75//5 42//5
f 43//6 76//6 70//6
f 70//5 76//5 43//5
f 61//6 93//6 64//6
f 64//5 93//5 61//5
f 61//6 70//6 93//6
f 93//5 70//5 61//5
f 77//5 78//5 45//5
f 47//6 79//6 78//6
f 83//21 62//15 77//15
f 77//16 62//16 83//22
f 45//6 78//6 77//6
f 78//5 79//5 47//5
f 63//6 87//6 79//6
f 79//5 87//5 63//5
f 64//6 93//6 80//6
f 80//5 93//5 64//5
f 63//6 80//6 87//6
f 87//5 80//5 63//5
f 99//25 81//21 65//21
f 65//22 81//22 99//26
f 65//5 82//5 99//5
f 99//6 82//6 65//6
f 100//25 82//21 83//21
f 83//22 82//22 100//26
f 66//5 81//5 101//5
f 101//6 81//6 66//6
f 101//24 67//20 66//20
f 66//19 67//19 101//23
f 84//5 67//5 102//5
f 102//6 67//6 84//6
f 103//24 68//20 84//20
f 84//19 68//19 103//23
f 86//6 50//6 88//6
f 88//5 50//5 86//5
f 80//6 85//6 87//6
f 87//5 85//5 80//5
f 87//6 86//6 104//6
f 104//5 86//5 87//5
f 88//6 50//6 68//6
f 104//6 86//6 88//6
f 88//5 86//5 104//5
f 88//6 68//6 105//6
f 105//5 68//5 88//5
f 90//12 89//16 51//12
f 51//11 89//15 90//11
f 106//5 90//5 91//5
f 91//5 90//5 52//5
f 91//6 90//6 106//6
f 52//6 90//6 91//6
f 91//8 92//3 107//8
f 107//7 92//1 91//7
f 108//6 92//6 39//6
f 39//5 92//5 108//5
f 80//6 54//6 85//6
f 85//5 54//5 80//5
f 76//6 108//6 39//6
f 39//5 108//5 76//5
f 93//6 54//6 80//6
f 80//5 54//5 93//5
f 109//27 72//23 71//23
f 71//24 72//24 109//28
f 110//5 71//5 89//5
f 89//6 71//6 110//6
f 73//5 111//5 112//5
f 111//5 73//5 94//5
f 112//6 111//6 73//6
f 72//23 109//27 94//27
f 94//28 109//28 72//24
f 94//6 73//6 111//6
f 58//6 113//6 95//6
f 95//5 113//5 58//5
f 114//6 59//6 95//6
f 112//27 96//23 73//23
f 73//24 96//24 112//28
f 96//6 113//6 58//6
f 58//5 113//5 96//5
f 59//6 114//6 97//6
f 97//5 114//5 59//5
f 97//6 115//6 74//6
f 74//5 115//5 97//5
f 74//6 115//6 98//6
f 98//5 115//5 74//5
f 98//6 116//6 75//6
f 75//5 116//5 98//5
f 75//6 108//6 76//6
f 76//5 108//5 75//5
f 77//6 78//6 117//6
f 117//5 78//5 77//5
f 78//6 79//6 118//6
f 118//5 79//5 78//5
f 79//6 87//6 104//6
f 104//5 87//5 79//5
f 81//21 99//25 119//25
f 119//26 99//26 81//22
f 99//5 82//5 120//5
f 120//6 82//6 99//6
f 82//21 100//25 121//25
f 121//26 100//26 82//22
f 101//5 81//5 119//5
f 119//6 81//6 101//6
f 67//20 101//24 102//24
f 102//23 101//23 67//19
f 84//5 102//5 103//5
f 103//6 102//6 84//6
f 68//20 103//24 122//24
f 122//23 103//23 68//19
f 104//6 88//6 123//6
f 123//5 88//5 104//5
f 105//6 68//6 122//6
f 124//6 88//6 105//6
f 105//5 88//5 124//5
f 89//16 90//12 125//16
f 125//15 90//11 89//15
f 106//5 125//5 90//5
f 90//6 125//6 106//6
f 107//8 106//12 91//8
f 91//7 106//11 107//7
f 108//6 107//6 92//6
f 92//5 107//5 108//5
f 110//5 109//5 71//5
f 71//6 109//6 110//6
f 89//16 126//22 110//22
f 110//21 126//21 89//15
f 94//27 127//29 111//29
f 111//30 127//30 94//28
f 128//5 112//5 111//5
f 111//6 112//6 128//6
f 127//29 94//27 109//27
f 109//28 94//28 127//30
f 113//6 129//6 95//6
f 95//5 129//5 113//5
f 95//5 59//5 114//5
f 95//6 130//6 114//6
f 114//5 130//5 95//5
f 96//23 112//27 131//27
f 131//28 112//28 96//24
f 96//6 132//6 113//6
f 113//5 132//5 96//5
f 133//6 97//6 114//6
f 114//5 97//5 133//5
f 97//6 133//6 115//6
f 115//5 133//5 97//5
f 115//6 116//6 98//6
f 98//5 116//5 115//5
f 75//6 116//6 108//6
f 108//5 116//5 75//5
f 77//6 117//6 83//6
f 83//5 117//5 77//5
f 78//6 134//6 117//6
f 117//5 134//5 78//5
f 79//6 104//6 118//6
f 118//5 104//5 79//5
f 78//6 118//6 134//6
f 134//5 118//5 78//5
f 120//30 119//25 99//25
f 99//26 119//26 120//29
f 120//5 82//5 121//5
f 121//6 82//6 120//6
f 135//30 121//25 100//25
f 100//26 121//26 135//29
f 101//5 119//5 136//5
f 136//6 119//6 101//6
f 136//28 102//24 101//24
f 101//23 102//23 136//27
f 103//5 102//5 137//5
f 137//6 102//6 103//6
f 138//28 122//24 103//24
f 103//23 122//23 138//27
f 122//5 68//5 105//5
f 123//6 88//6 124//6
f 124//5 88//5 123//5
f 118//6 104//6 123//6
f 123//5 104//5 118//5
f 105//6 122//6 139//6
f 139//5 122//5 105//5
f 124//6 105//6 140//6
f 140//5 105//5 124//5
f 126//22 89//16 125//16
f 125//15 89//15 126//21
f 141//5 125//5 106//5
f 106//6 125//6 141//6
f 142//12 141//16 106//12
f 106//11 141//15 142//11
f 106//12 107//8 142//12
f 142//11 107//7 106//11
f 116//6 107//6 108//6
f 108//5 107//5 116//5
f 143//5 109//5 110//5
f 110//6 109//6 143//6
f 144//26 110//22 126//22
f 126//21 110//21 144//25
f 143//26 111//29 127//29
f 127//30 111//30 143//25
f 145//5 112//5 128//5
f 128//6 112//6 145//6
f 128//5 111//5 144//5
f 144//6 111//6 128//6
f 109//5 143//5 127//5
f 127//6 143//6 109//6
f 113//6 146//6 129//6
f 129//5 146//5 113//5
f 95//6 129//6 130//6
f 130//5 129//5 95//5
f 114//6 130//6 133//6
f 133//5 130//5 114//5
f 147//29 131//27 112//27
f 112//28 131//28 147//30
f 132//6 96//6 131//6
f 131//5 96//5 132//5
f 131//6 148//6 132//6
f 132//5 148//5 131//5
f 146//6 113//6 132//6
f 132//5 113//5 146//5
f 133//6 130//6 115//6
f 115//5 130//5 133//5
f 115//6 130//6 116//6
f 116//5 130//5 115//5
f 107//5 142//5 116//5
f 83//6 117//6 149//6
f 149//5 117//5 83//5
f 117//6 134//6 140//6
f 140//5 134//5 117//5
f 118//6 123//6 134//6
f 134//5 123//5 118//5
f 119//25 120//30 150//30
f 150//29 120//29 119//26
f 138//5 120//5 121//5
f 121//6 120//6 138//6
f 121//25 135//30 151//30
f 151//29 135//29 121//26
f 100//6 152//6 135//6
f 135//5 152//5 100//5
f 136//5 119//5 150//5
f 150//6 119//6 136//6
f 102//24 136//28 137//28
f 137//27 136//27 102//23
f 103//5 137//5 120//5
f 120//6 137//6 103//6
f 122//24 138//28 152//28
f 152//27 138//27 122//23
f 134//6 123//6 124//6
f 124//5 123//5 134//5
f 139//6 122//6 153//6
f 153//6 122//6 152//6
f 153//5 122//5 139//5
f 149//6 105//6 139//6
f 139//5 105//5 149//5
f 140//6 105//6 117//6
f 117//5 105//5 140//5
f 134//6 124//6 140//6
f 140//5 124//5 134//5
f 128//5 144//5 141//5
f 141//5 144//5 126//5
f 141//5 126//5 125//5
f 141//6 144//6 128//6
f 126//6 144//6 141//6
f 125//6 126//6 141//6
f 141//16 148//22 128//22
f 128//21 148//21 141//15
f 141//16 142//12 154//16
f 154//15 142//11 141//15
f 116//6 142//6 107//6
f 110//22 144//26 143//26
f 143//25 144//25 110//21
f 111//29 143//26 144//26
f 144//25 143//25 111//30
f 112//5 145//5 147//5
f 147//6 145//6 112//6
f 129//6 154//6 130//6
f 129//5 154//5 146//5
f 130//5 154//5 129//5
f 131//27 147//29 155//29
f 155//30 147//30 131//28
f 131//6 156//6 148//6
f 148//5 156//5 131//5
f 132//6 148//6 146//6
f 146//5 148//5 132//5
f 130//6 142//6 116//6
f 142//5 154//5 130//5
f 116//5 142//5 130//5
f 149//5 105//5 117//5
f 83//6 149//6 153//6
f 153//5 149//5 83//5
f 117//6 105//6 149//6
f 83//6 153//6 100//6
f 100//5 153//5 83//5
f 137//28 150//30 120//30
f 120//29 150//29 137//27
f 138//6 120//6 103//6
f 138//5 121//5 151//5
f 151//6 121//6 138//6
f 152//28 151//30 135//30
f 135//29 151//29 152//27
f 153//6 152//6 100//6
f 100//5 152//5 153//5
f 150//30 137//28 136//28
f 136//27 137//27 150//29
f 103//5 120//5 138//5
f 151//30 152//28 138//28
f 138//27 152//27 151//29
f 152//5 122//5 153//5
f 149//6 139//6 153//6
f 153//5 139//5 149//5
f 148//22 141//16 154//16
f 154//15 141//15 148//21
f 156//26 128//22 148//22
f 148//21 128//21 156//25
f 130//6 154//6 142//6
f 145//26 155//29 147//29
f 147//30 155//30 145//25
f 154//5 148//5 146//5
f 146//6 148//6 154//6
f 146//6 154//6 129//6
f 156//6 131//6 155//6
f 155//5 131//5 156//5
f 128//22 156//26 145//26
f 145//25 156//25 128//21
f 155//29 145//26 156//26
f 156//25 145//25 155//30
