# SSTK version 0.8.0
# 70
mtllib original-70.mtl
o Group44/mesh251/mesh251-geometry#mesh251-geometry
v 0.012044 -0.436821 -0.725626
v 0.012044 -0.436821 -0.721688
v 0.012044 -0.436562 -0.723657
v 0.012044 -0.437582 -0.727462
v 0.012044 -0.437582 -0.719852
v 0.012044 -0.438790 -0.729038
v 0.013947 -0.437671 -0.721914
v 0.013947 -0.437530 -0.724135
v 0.013947 -0.437441 -0.723657
v 0.013947 -0.439138 -0.719298
v 0.013947 -0.438343 -0.720291
v 0.013947 -0.439814 -0.728691
v 0.013947 -0.437671 -0.725398
v 0.013947 -0.438343 -0.727023
v 0.012044 -0.438790 -0.718274
v 0.012044 -0.440367 -0.730248
v 0.012044 -0.440367 -0.717066
v 0.013947 -0.439412 -0.728416
v 0.021557 -0.437530 -0.724135
v 0.021557 -0.439814 -0.728691
v 0.012044 -0.440497 -0.724641
v 0.012044 -0.442201 -0.731009
v 0.012044 -0.440367 -0.723657
v 0.012044 -0.440497 -0.722671
v 0.012044 -0.442201 -0.716305
v 0.013947 -0.440807 -0.717827
v 0.013947 -0.439412 -0.718896
v 0.013947 -0.443695 -0.717015
v 0.021557 -0.439138 -0.719298
v 0.013947 -0.444650 -0.730299
v 0.013947 -0.440807 -0.729487
v 0.012044 -0.440877 -0.725560
v 0.012044 -0.440877 -0.721754
v 0.013947 -0.442430 -0.717155
v 0.021557 -0.443695 -0.717015
v 0.013947 -0.442430 -0.730158
v 0.013947 -0.444173 -0.730389
v 0.012044 -0.444173 -0.731268
v 0.021557 -0.444650 -0.730299
v 0.012044 -0.441482 -0.726347
v 0.012044 -0.442270 -0.726952
v 0.021557 -0.440877 -0.725560
v 0.021557 -0.440497 -0.724641
v 0.012044 -0.441482 -0.720967
v 0.012044 -0.442270 -0.720362
v 0.012044 -0.444173 -0.716046
v 0.021557 -0.440497 -0.722671
v 0.021557 -0.440367 -0.723657
v 0.021557 -0.440877 -0.721754
v 0.013947 -0.444173 -0.716925
v 0.021557 -0.448532 -0.718622
v 0.013947 -0.449207 -0.728016
v 0.013947 -0.445914 -0.730158
v 0.013947 -0.447538 -0.729487
v 0.012044 -0.447978 -0.730248
v 0.012044 -0.446142 -0.731009
v 0.021557 -0.441482 -0.726347
v 0.021557 -0.442270 -0.726952
v 0.021557 -0.443187 -0.727333
v 0.012044 -0.443187 -0.727333
v 0.012044 -0.444173 -0.727462
v 0.021557 -0.444173 -0.727462
v 0.012044 -0.443187 -0.719981
v 0.012044 -0.444173 -0.719852
v 0.021557 -0.443187 -0.719981
v 0.021557 -0.442270 -0.720362
v 0.021557 -0.441482 -0.720967
v 0.012044 -0.446142 -0.716305
v 0.013947 -0.448532 -0.718622
v 0.013947 -0.445914 -0.717155
v 0.021557 -0.444173 -0.719852
v 0.013947 -0.448931 -0.728416
v 0.012044 -0.449553 -0.729038
v 0.021557 -0.449207 -0.728016
v 0.021557 -0.445156 -0.727333
v 0.012044 -0.445156 -0.727333
v 0.012044 -0.445156 -0.719981
v 0.012044 -0.446075 -0.720362
v 0.013947 -0.447538 -0.717827
v 0.013947 -0.450815 -0.723179
v 0.021557 -0.445156 -0.719981
v 0.021557 -0.446075 -0.720362
v 0.021557 -0.446863 -0.720967
v 0.013947 -0.450002 -0.727023
v 0.012044 -0.450763 -0.727462
v 0.012044 -0.446863 -0.726347
v 0.021557 -0.450815 -0.723179
v 0.012044 -0.446075 -0.726952
v 0.021557 -0.446863 -0.726347
v 0.012044 -0.447468 -0.725560
v 0.021557 -0.447468 -0.725560
v 0.012044 -0.447849 -0.724641
v 0.021557 -0.447849 -0.724641
v 0.021557 -0.446075 -0.726952
v 0.013947 -0.448931 -0.718896
v 0.012044 -0.447978 -0.717066
v 0.012044 -0.446863 -0.720967
v 0.021557 -0.447468 -0.721754
v 0.012044 -0.447468 -0.721754
v 0.021557 -0.447849 -0.722671
v 0.013947 -0.450002 -0.720291
v 0.013947 -0.450674 -0.721914
v 0.012044 -0.451783 -0.723657
v 0.012044 -0.447849 -0.722671
v 0.021557 -0.447978 -0.723657
v 0.013947 -0.450674 -0.725398
v 0.013947 -0.450902 -0.723657
v 0.012044 -0.451523 -0.725626
v 0.012044 -0.447978 -0.723657
v 0.012044 -0.449553 -0.718274
v 0.012044 -0.450763 -0.719852
v 0.012044 -0.451523 -0.721688
vn -1 0 0
vn 1 0 0
vn 0.4195961595166434 0.8767813333233924 0.2349330893138249
vn 0.42129684160716263 0.7850637048435795 0.454074829283789
vn -0.4195961595166434 -0.8767813333233924 -0.2349330893138249
vn -0.42129684160716263 -0.7850637048435795 -0.454074829283789
vn 0.42121024192048706 0.9069625209104457 0.0009580005502241433
vn -0.42121024192048706 -0.9069625209104457 -0.0009580005502241433
vn 0.41959601123636175 0.7861010210509997 -0.4538550121537833
vn 0.42129695010285606 0.8762158962236241 -0.23399697228610206
vn 0.41993116618926163 0.9000143561839019 -0.11675604620662287
vn -0.42129695010285606 -0.8762158962236241 0.23399697228610206
vn -0.41993116618926163 -0.9000143561839019 0.11675604620662287
vn -0.41959601123636175 -0.7861010210509997 0.4538550121537833
vn 0.42121599665533443 0.6419599949025169 -0.6406749949127203
vn 0 0.9489259181660556 0.3154989727918432
vn 0 -0.9489259181660556 -0.3154989727918432
vn -0.419936967177308 -0.7190229438004497 -0.5537679567169446
vn 0 0.8940831266513544 -0.4479010634474294
vn -0.41959601123636175 -0.4538550121537833 -0.7861010210509997
vn -0.42121599665533443 -0.6406749949127203 -0.6419599949025169
vn 0.42121599665533443 0.6406749949127203 0.6419599949025169
vn 0.419936967177308 0.7190229438004497 0.5537679567169446
vn 0.42129684160716263 0.454074829283789 -0.7850637048435795
vn -0.42121599665533443 -0.6419599949025169 0.6406749949127203
vn -0.42129684160716263 -0.454074829283789 0.7850637048435795
vn 0 -0.8940831266513544 0.4479010634474294
vn 0.419936967177308 0.5537679567169446 -0.7190229438004497
vn -0.419936967177308 -0.5537679567169446 0.7190229438004497
vn 0 0.3154989727918432 -0.9489259181660556
vn 0 -0.3154989727918432 0.9489259181660556
vn 0.41959601123636175 0.4538550121537833 0.7861010210509997
vn 0.42129695010285606 0.23399697228610206 0.8762158962236241
vn -0.42129695010285606 -0.23399697228610206 -0.8762158962236241
vn 0 -0.4479010634474294 -0.8940831266513544
vn 0 0.4479010634474294 0.8940831266513544
vn 0.4195961595166434 0.2349330893138249 -0.8767813333233924
vn 0.42121024192048706 0.0009580005502241433 -0.9069625209104457
vn -0.42121024192048706 -0.0009580005502241433 0.9069625209104457
vn -0.4195961595166434 -0.2349330893138249 0.8767813333233924
vn 0 -0.7071067811865478 0.7071067811865476
vn 0 -0.8660253028382763 0.5000001748438415
vn 0 -0.9659258492011171 0.2588189595935752
vn 0 0.9659258492011171 -0.2588189595935752
vn 0 0.8660253028382763 -0.5000001748438415
vn 0 -1 0
vn 0 -0.9659258492011171 -0.2588189595935757
vn 0 0.9659258492011171 0.2588189595935757
vn 0 1 0
vn 0 -0.8660253028382761 -0.500000174843842
vn 0 0.8660253028382761 0.500000174843842
vn 0.42121024192048706 -0.0009580005502241433 0.9069625209104457
vn 0.41993116618926163 0.11675604620662287 0.9000143561839019
vn -0.42121024192048706 0.0009580005502241433 -0.9069625209104457
vn -0.41993116618926163 -0.11675604620662287 -0.9000143561839019
vn -0.41959601123636175 0.4538550121537833 0.7861010210509997
vn -0.42129695010285606 0.23399697228610206 0.8762158962236241
vn 0.42129695010285606 -0.23399697228610206 -0.8762158962236241
vn 0.41993116618926163 -0.11675604620662287 -0.9000143561839019
vn -0.41993116618926163 0.11675604620662287 0.9000143561839019
vn 0 -0.500000174843842 0.8660253028382761
vn 0 0.500000174843842 -0.8660253028382761
vn 0 0.7071067811865478 -0.7071067811865476
vn 0 -0.2588189595935757 0.9659258492011171
vn 0 0.2588189595935757 -0.9659258492011171
vn 0 0 1
vn 0 0 -1
vn 0 -0.2588189595935752 -0.9659258492011171
vn 0 -0.5000001748438415 -0.8660253028382763
vn 0 0.5000001748438415 0.8660253028382763
vn 0 0.2588189595935752 0.9659258492011171
vn 0 -0.7071067811865476 -0.7071067811865478
vn 0 0.7071067811865476 0.7071067811865478
vn 0.4195961595166434 -0.2349330893138249 0.8767813333233924
vn -0.4195961595166434 0.2349330893138249 -0.8767813333233924
vn 0.42121599665533443 -0.6406749949127203 -0.6419599949025169
vn 0.41959601123636175 -0.4538550121537833 -0.7861010210509997
vn -0.42121599665533443 0.6406749949127203 0.6419599949025169
vn -0.42129684160716263 0.7850637048435795 0.454074829283789
vn -0.419936967177308 0.7190229438004497 0.5537679567169446
vn 0.42129684160716263 -0.7850637048435795 -0.454074829283789
vn 0.419936967177308 -0.7190229438004497 -0.5537679567169446
vn 0.42129684160716263 -0.454074829283789 0.7850637048435795
vn 0.42121599665533443 -0.6419599949025169 0.6406749949127203
vn 0.419936967177308 -0.5537679567169446 0.7190229438004497
vn -0.42129684160716263 0.454074829283789 -0.7850637048435795
vn -0.42121599665533443 0.6419599949025169 -0.6406749949127203
vn -0.419936967177308 0.5537679567169446 -0.7190229438004497
vn -0.41993116618926163 0.9000143561839019 -0.11675604620662287
vn -0.42121024192048706 0.9069625209104457 0.0009580005502241433
vn -0.42129695010285606 0.8762158962236241 -0.23399697228610206
vn 0.4195961595166434 -0.8767813333233924 -0.2349330893138249
vn -0.41959601123636175 0.7861010210509997 -0.4538550121537833
vn 0.41959601123636175 -0.7861010210509997 0.4538550121537833
vn 0.42129695010285606 -0.8762158962236241 0.23399697228610206
vn 0.42121024192048706 -0.9069625209104457 -0.0009580005502241433
vn 0.41993116618926163 -0.9000143561839019 0.11675604620662287
vn -0.4195961595166434 0.8767813333233924 0.2349330893138249
usemtl material_0_0
f 1//1 2//1 3//1
f 2//1 1//1 4//1
f 2//1 4//1 5//1
f 5//1 4//1 6//1
f 3//2 2//2 1//2
f 4//2 1//2 2//2
f 5//2 4//2 2//2
f 6//2 4//2 5//2
f 7//2 8//2 9//2
f 8//2 7//2 10//2
f 9//1 8//1 7//1
f 10//1 7//1 8//1
f 11//1 7//1 10//1
f 2//3 11//4 7//3
f 7//5 11//6 2//5
f 7//3 3//7 2//3
f 3//7 7//3 9//7
f 2//5 3//8 7//5
f 9//8 7//5 3//8
f 12//2 13//2 8//2
f 14//9 1//10 13//10
f 9//7 1//10 3//7
f 1//10 9//7 8//11
f 1//10 8//11 13//10
f 3//8 1//12 9//8
f 8//13 9//8 1//12
f 13//12 8//13 1//12
f 5//1 6//1 15//1
f 1//10 14//9 4//9
f 13//12 1//12 14//14
f 4//14 14//14 1//12
f 15//1 6//1 16//1
f 15//1 16//1 17//1
f 15//2 6//2 5//2
f 16//2 6//2 15//2
f 10//2 7//2 11//2
f 11//4 2//3 5//4
f 5//6 2//5 11//6
f 4//9 18//15 6//15
f 8//1 13//1 12//1
f 10//16 19//16 8//16
f 8//17 19//17 10//17
f 11//6 10//18 5//6
f 13//2 12//2 14//2
f 14//2 12//2 18//2
f 14//1 12//1 13//1
f 18//1 12//1 14//1
f 8//19 20//19 12//19
f 18//15 4//9 14//9
f 21//1 16//1 22//1
f 17//1 16//1 23//1
f 17//2 16//2 15//2
f 23//2 16//2 17//2
f 17//1 24//1 25//1
f 17//20 15//21 26//20
f 27//22 5//4 15//22
f 5//4 27//22 10//23
f 5//4 10//23 11//4
f 15//21 5//6 27//21
f 10//18 27//21 5//6
f 27//2 28//2 10//2
f 18//15 16//24 6//15
f 6//25 16//26 18//25
f 14//14 4//14 18//25
f 6//25 18//25 4//14
f 19//16 10//16 29//16
f 29//17 10//17 19//17
f 20//19 8//19 19//19
f 19//27 8//27 20//27
f 30//2 31//2 12//2
f 12//1 31//1 30//1
f 31//24 18//15 12//28
f 31//26 18//25 16//26
f 12//29 18//25 31//26
f 12//27 20//27 8//27
f 20//30 30//30 12//30
f 12//31 30//31 20//31
f 16//24 18//15 31//24
f 23//1 16//1 21//1
f 21//1 22//1 32//1
f 21//2 16//2 23//2
f 22//2 16//2 21//2
f 23//2 17//2 24//2
f 24//1 17//1 23//1
f 25//1 24//1 33//1
f 26//32 15//22 17//32
f 15//22 26//32 27//22
f 27//21 26//20 15//21
f 17//32 34//33 26//32
f 26//20 34//34 17//20
f 28//2 27//2 26//2
f 10//1 28//1 27//1
f 28//35 10//35 35//35
f 10//36 35//36 29//36
f 29//35 35//35 10//35
f 29//2 20//2 19//2
f 19//1 20//1 29//1
f 31//2 30//2 36//2
f 36//2 30//2 37//2
f 36//1 30//1 31//1
f 37//1 30//1 36//1
f 36//37 38//38 22//37
f 38//38 36//37 37//38
f 37//39 36//40 38//39
f 31//24 22//37 16//24
f 16//26 22//40 31//26
f 30//30 20//30 39//30
f 39//31 20//31 30//31
f 32//1 22//1 40//1
f 40//1 22//1 41//1
f 32//2 22//2 21//2
f 40//2 22//2 32//2
f 40//41 42//42 32//42
f 32//42 43//43 21//43
f 21//44 43//44 32//45
f 41//2 22//2 40//2
f 25//1 44//1 45//1
f 25//1 45//1 46//1
f 25//2 24//2 17//2
f 33//2 24//2 25//2
f 44//2 33//2 25//2
f 45//2 44//2 25//2
f 46//2 45//2 25//2
f 23//46 47//47 24//47
f 24//48 47//48 23//49
f 21//43 48//46 23//46
f 23//49 48//49 21//44
f 25//1 33//1 44//1
f 24//47 49//50 33//50
f 33//51 49//51 24//48
f 34//33 17//32 25//33
f 25//34 17//20 34//34
f 28//2 26//2 34//2
f 26//1 27//1 28//1
f 34//1 26//1 28//1
f 35//36 10//36 28//36
f 25//33 50//52 34//33
f 34//33 50//52 28//53
f 46//54 25//34 50//54
f 34//34 50//54 25//34
f 28//55 50//54 34//34
f 28//31 51//31 35//31
f 35//30 51//30 28//30
f 49//2 29//2 35//2
f 35//1 29//1 49//1
f 20//2 29//2 48//2
f 48//1 29//1 20//1
f 22//37 31//24 36//37
f 36//40 31//26 22//40
f 52//2 53//2 30//2
f 53//2 52//2 54//2
f 30//1 53//1 52//1
f 41//1 22//1 38//1
f 38//2 22//2 41//2
f 22//40 38//39 36//40
f 54//56 53//57 55//56
f 37//38 56//58 38//38
f 56//58 37//38 53//58
f 53//58 37//38 30//59
f 38//39 56//57 37//39
f 53//57 37//39 56//57
f 30//60 37//39 53//57
f 20//2 57//2 39//2
f 39//1 57//1 20//1
f 39//35 52//35 30//35
f 30//36 52//36 39//36
f 58//61 40//41 41//61
f 40//41 58//61 57//41
f 41//62 40//63 58//62
f 57//63 58//62 40//63
f 42//42 40//41 57//41
f 57//63 40//63 42//45
f 59//64 41//61 60//64
f 41//61 59//64 58//61
f 60//65 41//62 59//65
f 58//62 59//65 41//62
f 32//45 42//45 40//63
f 43//43 32//42 42//42
f 42//45 32//45 43//44
f 48//46 21//43 43//43
f 43//44 21//44 48//49
f 60//1 38//1 61//1
f 60//2 38//2 41//2
f 61//2 38//2 60//2
f 62//66 60//64 61//66
f 61//67 60//65 62//67
f 46//1 45//1 63//1
f 63//2 45//2 46//2
f 50//52 25//33 46//52
f 46//1 63//1 64//1
f 64//2 63//2 46//2
f 65//68 64//67 63//68
f 66//69 63//68 45//69
f 45//70 63//71 66//70
f 67//72 45//69 44//72
f 44//73 45//70 67//73
f 46//1 64//1 68//1
f 47//47 23//46 48//46
f 48//49 23//49 47//48
f 47//48 24//48 49//51
f 49//50 24//47 47//47
f 33//50 67//72 44//72
f 49//51 33//51 67//73
f 50//2 69//2 28//2
f 28//1 69//1 50//1
f 46//52 70//74 50//52
f 50//54 70//75 46//54
f 51//31 28//31 69//31
f 69//30 28//30 51//30
f 71//2 35//2 51//2
f 51//1 35//1 71//1
f 47//2 29//2 49//2
f 47//1 29//1 48//1
f 49//1 29//1 47//1
f 49//2 35//2 67//2
f 67//1 35//1 49//1
f 67//2 35//2 66//2
f 48//2 29//2 47//2
f 42//2 20//2 43//2
f 43//2 20//2 48//2
f 48//1 20//1 43//1
f 54//2 52//2 72//2
f 54//1 52//1 53//1
f 72//1 52//1 54//1
f 73//76 54//77 72//76
f 55//77 53//58 54//77
f 41//1 38//1 60//1
f 56//57 55//56 53//57
f 55//56 73//78 54//56
f 72//78 54//56 73//78
f 53//58 55//77 56//58
f 61//1 38//1 56//1
f 56//2 38//2 61//2
f 57//2 20//2 42//2
f 42//1 20//1 57//1
f 39//2 57//2 58//2
f 39//2 58//2 59//2
f 39//2 59//2 62//2
f 58//1 57//1 39//1
f 59//1 58//1 39//1
f 62//1 59//1 39//1
f 52//35 39//35 74//35
f 74//36 39//36 52//36
f 60//64 62//66 59//64
f 75//71 61//66 76//71
f 61//66 75//71 62//66
f 76//68 61//67 75//68
f 62//67 75//68 61//67
f 59//65 62//67 60//65
f 69//2 50//2 70//2
f 70//1 50//1 69//1
f 64//67 65//68 71//67
f 63//71 64//66 65//71
f 71//66 65//71 64//66
f 63//68 66//69 65//68
f 65//71 66//70 63//71
f 71//67 77//65 64//67
f 45//69 67//72 66//69
f 66//70 67//73 45//70
f 67//72 33//50 49//50
f 44//73 67//73 33//51
f 68//1 64//1 77//1
f 68//1 77//1 78//1
f 68//2 64//2 46//2
f 77//2 64//2 68//2
f 78//2 77//2 68//2
f 69//2 70//2 79//2
f 79//1 70//1 69//1
f 70//74 46//52 68//74
f 68//75 46//54 70//75
f 80//27 51//27 69//27
f 69//19 51//19 80//19
f 65//2 35//2 71//2
f 65//1 35//1 66//1
f 71//2 51//2 81//2
f 71//1 35//1 65//1
f 81//2 51//2 82//2
f 82//2 51//2 83//2
f 81//1 51//1 71//1
f 82//1 51//1 81//1
f 66//1 35//1 67//1
f 66//2 35//2 65//2
f 43//1 20//1 42//1
f 80//2 84//2 52//2
f 52//1 84//1 80//1
f 84//79 52//80 85//79
f 86//1 56//1 55//1
f 55//2 56//2 86//2
f 85//81 52//82 84//81
f 52//82 73//76 72//76
f 72//78 73//78 52//80
f 54//77 73//76 55//77
f 61//1 56//1 76//1
f 75//1 62//1 39//1
f 39//2 62//2 75//2
f 39//2 75//2 74//2
f 74//1 75//1 39//1
f 87//17 52//17 74//17
f 74//16 52//16 87//16
f 76//1 56//1 88//1
f 76//2 56//2 61//2
f 86//72 89//72 90//50
f 91//51 92//48 93//48
f 92//48 91//51 90//51
f 90//50 91//50 92//47
f 88//70 89//73 94//70
f 69//1 80//1 95//1
f 96//83 95//84 79//83
f 79//83 95//84 69//85
f 79//86 95//87 96//86
f 69//88 95//87 79//86
f 64//66 77//64 71//66
f 82//62 97//63 78//62
f 97//63 82//62 83//63
f 78//61 97//41 82//61
f 83//41 82//61 97//41
f 98//45 97//63 83//63
f 97//63 98//45 99//45
f 83//41 97//41 98//42
f 99//42 98//42 97//41
f 100//44 99//45 98//45
f 78//62 81//65 82//62
f 77//64 78//61 81//64
f 82//61 81//64 78//61
f 68//1 78//1 97//1
f 81//65 78//62 77//65
f 68//1 97//1 96//1
f 96//1 97//1 99//1
f 97//2 78//2 68//2
f 96//2 97//2 68//2
f 68//74 79//83 70//74
f 70//75 79//86 68//75
f 51//27 80//27 87//27
f 87//19 80//19 51//19
f 95//2 80//2 69//2
f 80//2 95//2 101//2
f 101//1 95//1 80//1
f 80//2 101//2 102//2
f 102//1 101//1 80//1
f 80//89 103//90 102//91
f 77//65 71//67 81//65
f 81//64 71//66 77//64
f 98//42 99//42 100//43
f 100//43 104//43 105//46
f 98//2 51//2 100//2
f 100//2 51//2 105//2
f 83//2 51//2 98//2
f 83//1 51//1 82//1
f 98//1 51//1 83//1
f 84//2 80//2 106//2
f 80//16 87//16 52//16
f 106//2 80//2 107//2
f 106//1 80//1 84//1
f 52//17 87//17 80//17
f 52//82 85//81 73//76
f 73//78 85//79 52//80
f 84//81 108//92 85//81
f 88//1 56//1 86//1
f 88//2 56//2 76//2
f 86//2 56//2 88//2
f 86//1 55//1 90//1
f 94//69 89//72 88//69
f 74//2 75//2 94//2
f 74//2 94//2 89//2
f 94//1 75//1 74//1
f 89//1 94//1 74//1
f 76//71 94//70 75//71
f 75//68 94//69 76//68
f 74//2 89//2 91//2
f 91//1 89//1 74//1
f 74//2 51//2 87//2
f 87//1 51//1 74//1
f 90//1 55//1 92//1
f 92//1 55//1 109//1
f 90//2 55//2 86//2
f 92//2 55//2 90//2
f 90//51 89//73 86//73
f 92//47 93//47 109//46
f 89//73 88//70 86//73
f 105//46 109//46 93//47
f 104//44 105//49 109//49
f 109//46 105//46 104//43
f 93//47 92//47 91//50
f 74//2 91//2 93//2
f 93//1 91//1 74//1
f 89//73 90//51 91//51
f 91//50 90//50 89//72
f 86//72 88//69 89//72
f 94//70 76//71 88//70
f 88//69 76//68 94//69
f 110//87 96//86 95//87
f 79//83 68//74 96//83
f 96//86 68//75 79//86
f 101//93 111//93 95//87
f 99//2 97//2 96//2
f 99//45 100//44 104//44
f 96//1 99//1 104//1
f 104//2 99//2 96//2
f 101//94 112//95 102//95
f 102//91 112//91 101//93
f 95//84 111//94 101//94
f 107//1 80//1 106//1
f 102//95 103//96 80//97
f 80//97 103//96 107//96
f 107//90 103//90 80//89
f 107//96 108//92 106//92
f 104//43 100//43 99//42
f 105//49 104//44 100//44
f 100//1 51//1 98//1
f 105//1 51//1 100//1
f 74//2 105//2 51//2
f 51//1 105//1 74//1
f 108//92 84//81 106//92
f 106//98 84//79 108//98
f 106//98 108//98 107//90
f 110//1 73//1 85//1
f 85//2 73//2 110//2
f 85//79 108//98 84//79
f 111//1 85//1 108//1
f 108//2 85//2 111//2
f 74//2 93//2 105//2
f 105//1 93//1 74//1
f 109//1 55//1 73//1
f 110//1 109//1 73//1
f 109//2 55//2 92//2
f 73//2 55//2 109//2
f 73//2 109//2 110//2
f 93//48 109//49 105//49
f 109//49 93//48 92//48
f 96//1 104//1 109//1
f 109//2 104//2 96//2
f 111//94 95//84 110//84
f 110//87 95//87 111//93
f 95//84 96//83 110//84
f 111//93 101//93 112//91
f 103//96 102//95 112//95
f 112//95 101//94 111//94
f 112//91 102//91 103//90
f 108//92 107//96 103//96
f 103//90 107//90 108//98
f 110//1 85//1 111//1
f 111//2 85//2 110//2
f 111//1 108//1 112//1
f 110//2 109//2 96//2
f 96//1 109//1 110//1
f 112//2 108//2 111//2
f 112//1 108//1 103//1
f 103//2 108//2 112//2
