# SSTK version 0.8.0
# 7
mtllib original-7.mtl
o Group6/mesh1/mesh1-geometry#mesh1-geometry
v -0.013997 0.132406 0.128473
v -0.000376 0.132406 0.128489
v -0.013796 0.132905 0.127269
v -0.000374 0.132271 0.128816
v -0.000375 0.132905 0.127285
v -0.013796 0.123450 0.127269
v -0.014030 0.132271 0.128800
v -0.000393 0.123450 0.145193
v -0.013724 0.133031 0.126964
v -0.013997 0.123450 0.128473
v -0.000378 0.132154 0.129704
v -0.014118 0.123450 0.129687
v -0.000371 0.133031 0.126980
v -0.013516 0.123450 0.126082
v -0.014003 0.123450 0.133341
v -0.014118 0.132154 0.129687
v -0.000376 0.132012 0.130785
v -0.013516 0.133709 0.126082
v -0.000359 0.134866 0.116653
v -0.013804 0.123450 0.134545
v -0.014121 0.123450 0.132127
v -0.014155 0.132012 0.130769
v -0.000380 0.132030 0.130923
v -0.000374 0.133709 0.126097
v -0.000359 0.123450 0.116653
v -0.000370 0.134241 0.125404
v -0.013304 0.134241 0.125389
v -0.013527 0.123450 0.135734
v -0.014160 0.123450 0.130907
v -0.014121 0.132190 0.132127
v -0.013804 0.133019 0.134545
v -0.000381 0.132190 0.132143
v -0.004053 0.123450 0.117135
v -0.004086 0.123450 0.144703
v -0.000369 0.134866 0.124924
v -0.013159 0.123450 0.124915
v -0.013527 0.133921 0.135734
v -0.014061 0.132271 0.132739
v -0.014003 0.132520 0.133341
v -0.014160 0.132030 0.130907
v -0.000378 0.132271 0.132755
v -0.004053 0.134866 0.117135
v -0.004086 0.134866 0.144703
v -0.013159 0.134866 0.124915
v -0.013173 0.123450 0.136902
v -0.013401 0.134241 0.136152
v -0.000380 0.133031 0.134591
v -0.000382 0.132520 0.133357
v -0.007526 0.123450 0.143273
v -0.007497 0.123450 0.118557
v -0.000393 0.134866 0.145193
v -0.007526 0.134866 0.143273
v -0.007497 0.134866 0.118557
v -0.012726 0.123450 0.123774
v -0.000385 0.133921 0.135750
v -0.000383 0.134866 0.136647
v -0.012726 0.134866 0.123774
v -0.010455 0.134866 0.120821
v -0.012743 0.123450 0.138044
v -0.013255 0.134866 0.136631
v -0.000382 0.134241 0.136167
v -0.010478 0.123450 0.141002
v -0.010478 0.134866 0.141002
v -0.010455 0.123450 0.120821
v -0.012743 0.134866 0.138044
v -0.013173 0.134866 0.136902
vn -0.00045198709049159387 0.9238798482082542 0.3826824032828831
vn -0.0003056912724021917 0.9659258943326896 0.2588186106338559
vn -0.9803861781407277 0 -0.19708612764630923
vn -0.9912148101911318 0 -0.13226186169020332
vn -0.0005905506667685683 0.8660254538516744 0.4999995645307214
vn -0.9733800926232685 0 -0.22919684833068135
vn -0.00015416433638098064 0.9914449003923518 0.13052580480256387
vn -0.9950258280221123 0 -0.09961727545415844
vn -0.9977619965865511 0 -0.06686552301163236
vn -0.9653227298535859 0 -0.26105943236746104
vn -0.0007190086198448685 0.7933536264494467 0.6087606314686556
vn -0.9994204222775128 0 -0.03404143849249113
vn -0.9562224644492202 0 -0.2926407327811011
vn -0.9979171626629141 0 0.06450842164244006
vn -0.9915244738588425 0 0.12992004363817578
vn -0.9808489999940241 0 0.19476970814457534
vn -0.9999993024993348 0 -0.001181101538385041
vn -0.0007532954138387978 0.7061483765541241 0.7080634878568408
vn -0.12935489720239146 0.000011000006436211191 -0.9915983614592948
vn -0.25767792249836347 0.000022000011905307282 -0.9662308667047058
vn -0.9460893561279233 0 -0.3239057428040623
vn -0.9659367115657669 0 0.25877841727917045
vn -0.9952583679688165 0 0.0972665460888148
vn 0.00015416433638098064 0.9914449003923518 -0.13052580480256343
vn -0.25995963550487694 0.000023000012445501406 0.9656194837404489
vn -0.1316968913670594 0.000012000007020722993 0.9912900325637561
vn -0.0007749753598963383 0.6066100493414951 0.7949991493398596
vn 0 1 0
vn -0.956911072944128 0 0.29038112624087276
vn 0.00030569127240219176 0.9659258943326898 -0.25881861063385553
vn 0.0007461165144114918 0.8667252699800972 -0.49878527412913315
vn 0.0008726944577378384 0.7942060053308652 -0.6076479733371727
vn 0.00045198709049159403 0.9238798482082544 -0.3826824032828828
vn -0.49897696181461937 0.0000430000449895692 -0.8666152489595645
vn -0.5010226894035633 0.000045000047077753747 0.8654341469330965
vn -0.8731344872346877 0.000035000010027139855 -0.4874794005662374
vn -0.9468518471455786 0 0.3216699854773613
vn 0.0008351646157977343 0.7071070277903158 -0.707106041375415
vn -0.7079414514812482 0.00006300002432210053 0.7062711216704392
vn -0.7062711217145812 0.00006200002394022197 -0.7079414515254946
vn -0.8742835757246844 0.00003500001002692382 0.485415520964317
vn 0.0009370307042619597 0.608761590589145 -0.7933526629417925
vn 0.00045198709049159387 -0.9238798482082542 -0.3826824032828831
vn 0.0003056912724021917 -0.9659258943326896 -0.2588186106338559
vn 0.9912148101911318 0 0.13226186169020332
vn 0.9803861781407277 0 0.19708612764630923
vn 0.9999993024988348 -0.000001000000697500914 0.0011811015383844505
vn -0.9999993024988348 0.000001000000697500914 -0.0011811015383844505
vn 0.0005905506667685683 -0.8660254538516744 -0.4999995645307214
vn 0.9733800926232685 0 0.22919684833068135
vn 0.00015416433638098064 -0.9914449003923518 -0.13052580480256387
vn 0.9977619965865511 0 0.06686552301163236
vn 0.9950258280221123 0 0.09961727545415844
vn 0.9653227298535859 0 0.26105943236746104
vn 0 -1 0
vn 0.0007190086198448685 -0.7933536264494467 -0.6087606314686556
vn 0.9994204222775128 0 0.03404143849249113
vn 0.9562224644492202 0 0.2926407327811011
vn 0.9979171626629141 0 -0.06450842164244006
vn 0.9915244738588425 0 -0.12992004363817578
vn 0.9808489999940241 0 -0.19476970814457534
vn 0.9999993024993348 0 0.001181101538385041
vn 0.0007532954138387978 -0.7061483765541241 -0.7080634878568408
vn 0.12935489720239146 -0.000011000006436211191 0.9915983614592948
vn 0.25767792249836347 -0.000022000011905307282 0.9662308667047058
vn 0.9460893561279233 0 0.3239057428040623
vn 0.9659367115657669 0 -0.25877841727917045
vn 0.9952583679688165 0 -0.0972665460888148
vn -0.00015416433638098064 -0.9914449003923518 0.13052580480256343
vn 0.25995963550487694 -0.000023000012445501406 -0.9656194837404489
vn 0.1316968913670594 -0.000012000007020722993 -0.9912900325637561
vn 0.0007749753598963383 -0.6066100493414951 -0.7949991493398596
vn 0.956911072944128 0 -0.29038112624087276
vn -0.00030569127240219176 -0.9659258943326898 0.25881861063385553
vn -0.0007461165144114918 -0.8667252699800972 0.49878527412913315
vn -0.0008726944577378384 -0.7942060053308652 0.6076479733371727
vn -0.00045198709049159403 -0.9238798482082544 0.3826824032828828
vn 0.49897696181461937 -0.0000430000449895692 0.8666152489595645
vn 0.5010226894035633 -0.000045000047077753747 -0.8654341469330965
vn 0.8731344872346877 -0.000035000010027139855 0.4874794005662374
vn 0.9468518471455786 0 -0.3216699854773613
vn -0.0008351646157977343 -0.7071070277903158 0.707106041375415
vn 0.7079414514812482 -0.00006300002432210053 -0.7062711216704392
vn 0.7062711217145812 -0.00006200002394022197 0.7079414515254946
vn 0.8742835757246844 -0.00003500001002692382 -0.485415520964317
vn -0.0009370307042619597 -0.608761590589145 0.7933526629417925
usemtl material_0_0
f 1//1 2//1 3//1
f 2//1 1//1 4//2
f 5//1 3//1 2//1
f 3//3 6//3 1//4
f 7//2 4//2 1//1
f 3//1 5//1 9//5
f 3//3 9//6 6//3
f 10//4 1//4 6//3
f 4//2 7//2 11//7
f 7//8 1//4 12//9
f 13//5 9//5 5//1
f 6//3 9//6 14//10
f 10//4 12//9 1//4
f 16//7 11//7 7//2
f 16//9 7//8 12//9
f 9//5 13//5 18//11
f 18//10 14//10 9//6
f 11//7 16//7 17//7
f 16//9 12//9 22//12
f 24//11 18//11 13//5
f 18//10 27//13 14//10
f 21//14 15//15 30//14
f 20//16 31//16 15//15
f 22//7 17//7 16//7
f 29//17 22//12 12//9
f 18//11 24//11 27//18
f 25//19 33//20 19//19
f 14//10 27//13 36//21
f 28//22 37//22 20//16
f 21//14 30//14 29//17
f 38//23 30//14 15//15
f 31//16 20//16 37//22
f 39//15 15//15 31//16
f 40//17 22//12 29//17
f 32//24 23//24 30//24
f 26//18 27//18 24//11
f 42//20 19//19 33//20
f 34//25 8//26 43//25
f 26//18 35//27 27//18
f 19//28 42//28 35//28
f 44//21 36//21 27//13
f 37//22 28//22 46//29
f 40//17 29//17 30//14
f 30//24 38//30 32//24
f 39//15 38//23 15//15
f 31//31 37//32 47//31
f 39//33 31//31 48//33
f 41//30 32//24 38//30
f 40//24 30//24 23//24
f 33//20 50//34 42//20
f 51//26 43//25 8//26
f 43//25 52//35 34//25
f 44//27 27//18 35//27
f 42//28 53//28 35//28
f 36//21 44//21 54//36
f 45//37 46//29 28//22
f 37//32 46//38 55//32
f 38//30 39//33 41//30
f 55//32 47//31 37//32
f 47//31 48//33 31//31
f 48//33 41//30 39//33
f 49//35 34//25 52//35
f 53//34 42//20 50//34
f 51//28 56//28 43//28
f 43//28 56//28 52//28
f 44//28 35//28 57//28
f 53//28 58//28 35//28
f 57//36 54//36 44//21
f 60//29 46//29 45//37
f 61//38 55//32 46//38
f 52//35 63//39 49//35
f 50//34 64//40 53//34
f 52//28 56//28 63//28
f 58//28 57//28 35//28
f 58//40 53//34 64//40
f 54//36 57//36 64//40
f 59//41 65//41 45//37
f 60//42 56//42 46//38
f 66//37 60//29 45//37
f 61//38 46//38 56//42
f 62//39 49//35 63//39
f 63//28 56//28 65//28
f 58//40 64//40 57//36
f 65//41 59//41 63//39
f 66//37 45//37 65//41
f 60//28 66//28 56//28
f 62//39 63//39 59//41
f 65//28 56//28 66//28
usemtl material_1_0
f 3//43 2//43 1//43
f 4//44 1//43 2//43
f 2//43 3//43 5//43
f 1//45 6//46 3//46
f 1//43 4//44 7//44
f 4//47 8//47 2//47
f 2//48 8//48 4//48
f 9//49 5//43 3//43
f 2//47 8//47 5//47
f 5//48 8//48 2//48
f 6//46 9//50 3//46
f 6//46 1//45 10//45
f 11//51 7//44 4//44
f 12//52 1//45 7//53
f 11//47 8//47 4//47
f 4//48 8//48 11//48
f 5//43 9//49 13//49
f 5//47 8//47 13//47
f 13//48 8//48 5//48
f 14//54 9//50 6//46
f 1//45 12//52 10//45
f 6//28 10//28 15//28
f 15//55 10//55 6//55
f 7//44 11//51 16//51
f 12//52 7//53 16//52
f 17//47 8//47 11//47
f 11//48 8//48 17//48
f 18//56 13//49 9//49
f 13//47 8//47 19//47
f 19//48 8//48 13//48
f 9//50 14//54 18//54
f 14//28 6//28 20//28
f 20//55 6//55 14//55
f 10//28 12//28 21//28
f 21//55 12//55 10//55
f 15//28 10//28 21//28
f 21//55 10//55 15//55
f 20//28 6//28 15//28
f 15//55 6//55 20//55
f 17//51 16//51 11//51
f 22//57 12//52 16//52
f 23//47 8//47 17//47
f 17//48 8//48 23//48
f 13//49 18//56 24//56
f 25//47 19//47 8//47
f 8//48 19//48 25//48
f 26//47 13//47 19//47
f 19//48 13//48 26//48
f 14//54 27//58 18//54
f 28//28 14//28 20//28
f 20//55 14//55 28//55
f 29//28 21//28 12//28
f 12//55 21//55 29//55
f 30//59 15//60 21//59
f 15//60 31//61 20//61
f 16//51 17//51 22//51
f 12//52 22//57 29//62
f 32//47 8//47 23//47
f 23//48 8//48 32//48
f 27//63 24//56 18//56
f 24//47 13//47 26//47
f 26//48 13//48 24//48
f 19//64 33//65 25//64
f 8//28 25//28 34//28
f 34//55 25//55 8//55
f 35//47 26//47 19//47
f 19//48 26//48 35//48
f 36//66 27//58 14//54
f 36//28 14//28 28//28
f 28//55 14//55 36//55
f 20//61 37//67 28//67
f 29//62 30//59 21//59
f 15//60 30//59 38//68
f 37//67 20//61 31//61
f 31//61 15//60 39//60
f 29//62 22//57 40//62
f 41//47 8//47 32//47
f 32//48 8//48 41//48
f 30//69 23//69 32//69
f 24//56 27//63 26//63
f 25//28 33//28 34//28
f 34//55 33//55 25//55
f 33//65 19//64 42//65
f 43//70 8//71 34//70
f 27//63 35//72 26//63
f 35//55 42//55 19//55
f 27//58 36//66 44//66
f 45//28 36//28 28//28
f 28//55 36//55 45//55
f 46//73 28//67 37//67
f 30//59 29//62 40//62
f 32//69 38//74 30//69
f 15//60 38//68 39//60
f 47//75 37//76 31//75
f 48//77 31//75 39//77
f 48//47 8//47 41//47
f 41//48 8//48 48//48
f 38//74 32//69 41//74
f 23//69 30//69 40//69
f 34//28 33//28 49//28
f 49//55 33//55 34//55
f 42//65 50//78 33//65
f 8//71 43//70 51//71
f 34//70 52//79 43//70
f 35//72 27//63 44//72
f 35//55 53//55 42//55
f 54//80 44//66 36//66
f 54//28 36//28 45//28
f 45//55 36//55 54//55
f 28//67 46//73 45//81
f 55//76 46//82 37//76
f 41//74 39//77 38//74
f 37//76 47//75 55//76
f 31//75 48//77 47//75
f 39//77 41//74 48//77
f 47//47 8//47 48//47
f 48//48 8//48 47//48
f 33//28 50//28 49//28
f 49//55 50//55 33//55
f 52//79 34//70 49//79
f 50//78 42//65 53//78
f 43//55 56//55 51//55
f 51//47 8//47 56//47
f 56//48 8//48 51//48
f 52//55 56//55 43//55
f 57//55 35//55 44//55
f 35//55 58//55 53//55
f 44//66 54//80 57//80
f 59//28 54//28 45//28
f 45//55 54//55 59//55
f 45//81 46//73 60//73
f 46//82 55//76 61//82
f 55//47 8//47 47//47
f 47//48 8//48 55//48
f 49//28 50//28 62//28
f 62//55 50//55 49//55
f 49//79 63//83 52//79
f 53//78 64//84 50//78
f 56//47 8//47 61//47
f 61//48 8//48 56//48
f 63//55 56//55 52//55
f 35//55 57//55 58//55
f 64//84 53//78 58//84
f 64//84 57//80 54//80
f 64//28 54//28 59//28
f 59//55 54//55 64//55
f 45//81 65//85 59//85
f 46//82 56//86 60//86
f 45//81 60//73 66//81
f 61//47 8//47 55//47
f 55//48 8//48 61//48
f 56//86 46//82 61//82
f 50//28 64//28 62//28
f 62//55 64//55 50//55
f 63//83 49//79 62//83
f 65//55 56//55 63//55
f 57//80 64//84 58//84
f 62//28 64//28 59//28
f 59//55 64//55 62//55
f 63//83 59//85 65//85
f 65//85 45//81 66//81
f 56//55 66//55 60//55
f 59//85 63//83 62//83
f 66//55 56//55 65//55
