# SSTK version 0.8.0
# 41
mtllib original-41.mtl
o Group25/mesh127/mesh127-geometry#mesh127-geometry
v 0.000841 -0.549286 -0.745871
v 0.003219 -0.497914 -0.745559
v 0.000841 -0.497914 -0.745871
v 0.003219 -0.549286 -0.745559
v 0.003219 -0.492206 -0.747039
v -0.001537 -0.549286 -0.745559
v 0.000841 -0.568313 -0.736146
v 0.003219 -0.644677 -0.748730
v 0.000841 -0.492206 -0.747351
v -0.001537 -0.497914 -0.745559
v -0.001537 -0.568313 -0.735832
v 0.003219 -0.568313 -0.735832
v -0.001537 -0.492206 -0.758455
v 0.003219 -0.568313 -0.748730
v -0.001537 -0.492206 -0.747039
v -0.001537 -0.644677 -0.735832
v 0.000841 -0.644677 -0.736146
v 0.003219 -0.644677 -0.735832
v 0.003219 -0.492206 -0.758455
v -0.001537 -0.568313 -0.748730
v -0.001537 -0.644677 -0.748730
v 0.003219 -0.549286 -0.758455
v -0.001537 -0.549286 -0.758455
vn -0.1305259853353411 0 0.9914448886106773
vn 0.1305259853353411 0 -0.9914448886106773
vn -0.1264119566578351 0.24908691459695398 0.9601956707830479
vn 0.1264119566578351 -0.24908691459695398 -0.9601956707830479
vn 0.1305259853353411 0 0.9914448886106773
vn -0.1305259853353411 0 -0.9914448886106773
vn -0.1164299567602507 0.4520218321281629 0.8843756715606242
vn 0.1164299567602507 -0.4520218321281629 -0.8843756715606242
vn 1 0 0
vn -1 0 0
vn 0.1164299567602507 0.4520218321281629 0.8843756715606242
vn -0.1164299567602507 -0.4520218321281629 -0.8843756715606242
vn 0 1 0
vn 0 -1 0
vn 0.1264119566578351 0.24908691459695398 0.9601956707830479
vn -0.1264119566578351 -0.24908691459695398 -0.9601956707830479
vn 0 0 -1
vn 0 0 1
vn 0 -0.4551172618176578 -0.8904315122431355
vn 0 0.4551172618176578 0.8904315122431355
usemtl material_0_0
f 1//1 2//1 3//1
f 2//1 1//1 4//1
f 3//2 2//2 1//2
f 4//2 1//2 2//2
f 5//3 3//3 2//3
f 2//4 3//4 5//4
f 3//5 6//5 1//5
f 1//6 6//6 3//6
f 7//7 4//7 1//7
f 1//8 4//8 7//8
f 4//9 8//9 2//9
f 2//10 8//10 4//10
f 3//3 5//3 9//3
f 9//4 5//4 3//4
f 2//9 8//9 5//9
f 5//10 8//10 2//10
f 6//5 3//5 10//5
f 10//6 3//6 6//6
f 11//11 1//11 6//11
f 6//12 1//12 11//12
f 4//7 7//7 12//7
f 12//8 7//8 4//8
f 1//11 11//11 7//11
f 7//12 11//12 1//12
f 12//9 8//9 4//9
f 4//10 8//10 12//10
f 5//13 13//13 9//13
f 9//14 13//14 5//14
f 9//15 10//15 3//15
f 3//16 10//16 9//16
f 5//9 8//9 14//9
f 14//10 8//10 5//10
f 15//10 6//10 10//10
f 10//9 6//9 15//9
f 6//10 16//10 11//10
f 11//9 16//9 6//9
f 17//1 12//1 7//1
f 7//2 12//2 17//2
f 16//5 7//5 11//5
f 11//6 7//6 16//6
f 8//9 12//9 18//9
f 18//10 12//10 8//10
f 13//13 5//13 19//13
f 19//14 5//14 13//14
f 9//13 13//13 15//13
f 15//14 13//14 9//14
f 10//15 9//15 15//15
f 15//16 9//16 10//16
f 8//17 20//17 14//17
f 14//18 20//18 8//18
f 5//9 14//9 19//9
f 19//10 14//10 5//10
f 21//10 6//10 15//10
f 15//9 6//9 21//9
f 16//10 6//10 21//10
f 21//9 6//9 16//9
f 12//1 17//1 18//1
f 18//2 17//2 12//2
f 7//5 16//5 17//5
f 17//6 16//6 7//6
f 18//14 21//14 8//14
f 8//13 21//13 18//13
f 22//17 13//17 19//17
f 19//18 13//18 22//18
f 13//10 20//10 15//10
f 15//9 20//9 13//9
f 20//17 8//17 21//17
f 21//18 8//18 20//18
f 23//19 14//19 20//19
f 20//20 14//20 23//20
f 19//9 14//9 22//9
f 22//10 14//10 19//10
f 21//10 15//10 20//10
f 20//9 15//9 21//9
f 21//14 17//14 16//14
f 16//13 17//13 21//13
f 21//14 18//14 17//14
f 17//13 18//13 21//13
f 13//17 22//17 23//17
f 23//18 22//18 13//18
f 20//10 13//10 23//10
f 23//9 13//9 20//9
f 14//19 23//19 22//19
f 22//20 23//20 14//20
