# SSTK version 0.8.0
# 4
mtllib original-4.mtl
o mesh3/mesh3-geometry#mesh3-geometry
v -0.371539 0.318805 0.314563
v -0.372540 0.318933 0.318428
v -0.372540 0.318933 0.314563
v -0.371539 0.318805 0.318428
v -0.373473 0.319316 0.318428
v -0.370539 0.318940 0.314563
v -0.370539 0.318940 0.318428
v -0.373473 0.319316 0.314563
v -0.374276 0.319927 0.318428
v -0.369608 0.319329 0.318428
v -0.369608 0.319329 0.314563
v -0.374276 0.319927 0.314563
v -0.374893 0.320725 0.314563
v -0.368810 0.319946 0.318428
v -0.368810 0.319946 0.314563
v -0.374893 0.320725 0.318428
v -0.375282 0.321656 0.314563
v -0.368198 0.320749 0.314563
v -0.368198 0.320749 0.318428
v -0.375282 0.321656 0.318428
v -0.375417 0.322656 0.314563
v -0.367815 0.321682 0.314563
v -0.367815 0.321682 0.318428
v -0.375417 0.322656 0.318428
v -0.375289 0.323657 0.314563
v -0.367687 0.322683 0.314563
v -0.367687 0.322683 0.318428
v -0.375289 0.323657 0.318428
v -0.374906 0.324591 0.314563
v -0.367822 0.323683 0.314563
v -0.367822 0.323683 0.318428
v -0.374906 0.324591 0.318428
v -0.374295 0.325393 0.314563
v -0.368212 0.324614 0.314563
v -0.368212 0.324614 0.318428
v -0.374295 0.325393 0.318428
v -0.373497 0.326010 0.318428
v -0.368829 0.325412 0.314563
v -0.368829 0.325412 0.318428
v -0.373497 0.326010 0.314563
v -0.372566 0.326400 0.318428
v -0.369631 0.326024 0.318428
v -0.369631 0.326024 0.314563
v -0.372566 0.326400 0.314563
v -0.371566 0.326535 0.318428
v -0.370565 0.326407 0.318428
v -0.370565 0.326407 0.314563
v -0.371566 0.326535 0.314563
vn 0.0031129983999285725 -0.8928755410647683 -0.45029276855092754
vn -0.2280860390832304 -0.8632571479217148 0.45029307715907607
vn -0.2280860390832304 -0.8632571479217146 -0.4502930771590764
vn 0.0031129983999285725 -0.8928755410647685 0.4502927685509271
vn -0.44374205881934503 -0.7748091027032779 0.4502930596876997
vn 0.23409995023445263 -0.8616458168291975 -0.450292904275619
vn 0.23409995023445263 -0.8616458168291977 0.4502929042756187
vn -0.44374205881934503 -0.7748091027032776 -0.45029305968770006
vn -0.6291568143679385 -0.6335598130688385 0.4502928671415593
vn 0.4491340331862904 -0.7716960570202381 0.4502930332719282
vn 0.4491340331862904 -0.7716960570202379 -0.45029303327192854
vn -0.6291568143679385 -0.6335598130688382 -0.45029286714155964
vn -0.771696057020238 -0.4491340331862903 -0.4502930332719285
vn 0.6335598130688384 -0.6291568143679386 0.4502928671415593
vn 0.6335598130688384 -0.6291568143679384 -0.45029286714155964
vn -0.771696057020238 -0.4491340331862905 0.45029303327192827
vn -0.8616458168291976 -0.23409995023445251 -0.4502929042756189
vn 0.7748091027032777 -0.44374205881934514 0.4502930596876998
vn -0.8616458168291976 -0.23409995023445274 0.4502929042756188
vn 0.7748091027032777 -0.4437420588193449 -0.4502930596877
vn -0.8928755410647684 -0.0031129983999284724 -0.4502927685509273
vn 0.8632571479217147 -0.22808603908323052 0.4502930771590762
vn -0.8928755410647684 -0.0031129983999286727 0.4502927685509273
vn 0.8632571479217147 -0.2280860390832303 -0.4502930771590763
vn -0.8632571479217147 0.22808603908323052 -0.4502930771590762
vn 0.8928755410647684 0.0031129983999284724 0.4502927685509273
vn -0.8632571479217147 0.2280860390832303 0.4502930771590763
vn 0.8928755410647684 0.0031129983999286727 -0.4502927685509273
vn -0.7748091027032777 0.44374205881934514 -0.4502930596876998
vn 0.8616458168291976 0.23409995023445251 0.4502929042756189
vn -0.7748091027032777 0.4437420588193449 0.4502930596877
vn 0.8616458168291976 0.23409995023445274 -0.4502929042756188
vn -0.6335598130688384 0.6291568143679386 -0.4502928671415593
vn 0.771696057020238 0.4491340331862903 0.4502930332719285
vn -0.6335598130688384 0.6291568143679384 0.45029286714155964
vn 0.771696057020238 0.4491340331862905 -0.45029303327192827
vn -0.4491340331862904 0.7716960570202379 0.45029303327192854
vn 0.6291568143679385 0.6335598130688382 0.45029286714155964
vn -0.4491340331862904 0.7716960570202381 -0.4502930332719282
vn 0.6291568143679385 0.6335598130688385 -0.4502928671415593
vn -0.23409995023445263 0.8616458168291975 0.450292904275619
vn 0.44374205881934503 0.7748091027032776 0.45029305968770006
vn 0.44374205881934503 0.7748091027032779 -0.4502930596876997
vn -0.23409995023445263 0.8616458168291977 -0.4502929042756187
vn -0.0031129983999285725 0.8928755410647683 0.45029276855092754
vn 0.2280860390832304 0.8632571479217146 0.4502930771590764
vn 0.2280860390832304 0.8632571479217148 -0.45029307715907607
vn -0.0031129983999285725 0.8928755410647685 -0.4502927685509271
usemtl material_0_0
f 1//1 2//2 3//3
f 2//2 1//1 4//4
f 5//5 3//3 2//2
f 6//6 4//4 1//1
f 7//7 2//2 4//4
f 3//3 5//5 8//8
f 2//2 7//7 5//5
f 4//4 6//6 7//7
f 9//9 8//8 5//5
f 5//5 7//7 10//10
f 11//11 7//7 6//6
f 8//8 9//9 12//12
f 5//5 10//10 9//9
f 7//7 11//11 10//10
f 9//9 13//13 12//12
f 9//9 10//10 14//14
f 15//15 10//10 11//11
f 13//13 9//9 16//16
f 10//10 15//15 14//14
f 9//9 14//14 16//16
f 16//16 17//17 13//13
f 15//15 19//18 14//14
f 16//16 14//14 19//18
f 17//17 16//16 20//19
f 19//18 15//15 18//20
f 16//16 19//18 20//19
f 20//19 21//21 17//17
f 18//20 23//22 19//18
f 20//19 19//18 23//22
f 21//21 20//19 24//23
f 23//22 18//20 22//24
f 20//19 23//22 24//23
f 24//23 25//25 21//21
f 22//24 27//26 23//22
f 24//23 23//22 27//26
f 25//25 24//23 28//27
f 27//26 22//24 26//28
f 24//23 27//26 28//27
f 28//27 29//29 25//25
f 26//28 31//30 27//26
f 28//27 27//26 31//30
f 29//29 28//27 32//31
f 31//30 26//28 30//32
f 28//27 31//30 32//31
f 32//31 33//33 29//29
f 30//32 35//34 31//30
f 32//31 31//30 35//34
f 33//33 32//31 36//35
f 35//34 30//32 34//36
f 32//31 35//34 36//35
f 37//37 33//33 36//35
f 34//36 39//38 35//34
f 36//35 35//34 39//38
f 33//33 37//37 40//39
f 36//35 39//38 37//37
f 39//38 34//36 38//40
f 41//41 40//39 37//37
f 37//37 39//38 42//42
f 43//43 39//38 38//40
f 40//39 41//41 44//44
f 37//37 42//42 41//41
f 39//38 43//43 42//42
f 45//45 44//44 41//41
f 41//41 42//42 46//46
f 47//47 42//42 43//43
f 44//44 45//45 48//48
f 41//41 46//46 45//45
f 42//42 47//47 46//46
f 45//45 47//47 48//48
f 47//47 45//45 46//46
usemtl material_1_0
f 3//46 2//47 1//45
f 4//48 1//45 2//47
f 2//47 3//46 5//43
f 1//45 6//41 3//46
f 1//45 4//48 6//41
f 4//48 2//47 7//44
f 8//42 5//43 3//46
f 5//43 7//44 2//47
f 8//42 3//46 6//41
f 7//44 6//41 4//48
f 5//43 8//42 9//40
f 10//39 7//44 5//43
f 11//37 8//42 6//41
f 6//41 7//44 11//37
f 12//38 9//40 8//42
f 9//40 10//39 5//43
f 10//39 11//37 7//44
f 12//38 8//42 11//37
f 12//38 13//34 9//40
f 14//33 10//39 9//40
f 11//37 10//39 15//35
f 15//35 12//38 11//37
f 16//36 9//40 13//34
f 13//34 12//38 15//35
f 14//33 15//35 10//39
f 16//36 14//33 9//40
f 13//34 17//30 16//36
f 18//31 13//34 15//35
f 14//33 19//29 15//35
f 19//29 14//33 16//36
f 20//32 16//36 17//30
f 17//30 13//34 18//31
f 18//31 15//35 19//29
f 20//32 19//29 16//36
f 17//30 21//26 20//32
f 22//27 17//30 18//31
f 19//29 23//25 18//31
f 23//25 19//29 20//32
f 24//28 20//32 21//26
f 21//26 17//30 22//27
f 22//27 18//31 23//25
f 24//28 23//25 20//32
f 21//26 25//22 24//28
f 26//23 21//26 22//27
f 23//25 27//21 22//27
f 27//21 23//25 24//28
f 28//24 24//28 25//22
f 25//22 21//26 26//23
f 26//23 22//27 27//21
f 28//24 27//21 24//28
f 25//22 29//18 28//24
f 30//19 25//22 26//23
f 27//21 31//17 26//23
f 31//17 27//21 28//24
f 32//20 28//24 29//18
f 29//18 25//22 30//19
f 30//19 26//23 31//17
f 32//20 31//17 28//24
f 29//18 33//14 32//20
f 34//16 29//18 30//19
f 31//17 35//13 30//19
f 35//13 31//17 32//20
f 36//15 32//20 33//14
f 33//14 29//18 34//16
f 34//16 30//19 35//13
f 36//15 35//13 32//20
f 36//15 33//14 37//11
f 38//9 33//14 34//16
f 35//13 39//12 34//16
f 39//12 35//13 36//15
f 40//10 37//11 33//14
f 37//11 39//12 36//15
f 40//10 33//14 38//9
f 38//9 34//16 39//12
f 37//11 40//10 41//6
f 42//8 39//12 37//11
f 43//5 40//10 38//9
f 38//9 39//12 43//5
f 44//7 41//6 40//10
f 41//6 42//8 37//11
f 42//8 43//5 39//12
f 44//7 40//10 43//5
f 41//6 44//7 45//1
f 46//3 42//8 41//6
f 43//5 42//8 47//2
f 47//2 44//7 43//5
f 48//4 45//1 44//7
f 45//1 46//3 41//6
f 46//3 47//2 42//8
f 48//4 44//7 47//2
f 48//4 47//2 45//1
f 46//3 45//1 47//2
usemtl material_2_0
f 3//3 6//6 1//1
f 6//6 3//3 8//8
f 6//6 8//8 11//11
f 11//11 8//8 12//12
f 11//11 12//12 15//15
f 15//15 12//12 13//13
f 15//15 13//13 18//20
f 18//20 13//13 17//17
f 18//20 17//17 22//24
f 22//24 17//17 21//21
f 22//24 21//21 26//28
f 26//28 21//21 25//25
f 26//28 25//25 30//32
f 30//32 25//25 29//29
f 30//32 29//29 34//36
f 34//36 29//29 33//33
f 34//36 33//33 38//40
f 38//40 33//33 40//39
f 38//40 40//39 43//43
f 43//43 40//39 44//44
f 43//43 44//44 47//47
f 47//47 44//44 48//48
