mtllib new-3.mtl
v 0.274481 0.760993 0.224156
v 0.274481 -0.703597 0.241184
v 0.291509 0.760993 0.258212
v 0.291509 -0.703597 0.258212
v -0.287434 0.760993 0.224156
v 0.274481 -0.703597 0.258212
v -0.287434 0.760993 0.258212
v -0.270407 0.760993 0.224156
v -0.244865 -0.703408 0.258212
v -0.270407 -0.720421 0.241184
v 0.223398 0.692882 0.258212
v -0.287434 0.692882 0.258212
v -0.270407 -0.703393 0.224156
v -0.244865 -0.703408 0.241184
v 0.223398 -0.635467 0.258212
v 0.291509 -0.720421 0.258212
v -0.219323 0.692882 0.258212
v -0.287434 -0.635467 0.258212
v -0.278920 0.692882 0.258212
v -0.287434 -0.703393 0.224156
v -0.270407 -0.703393 0.258212
v -0.219323 -0.635467 0.258212
v -0.287434 -0.720421 0.207128
v -0.287434 -0.720421 0.258212
v -0.270407 -0.703393 0.241184
v -0.287434 -0.703393 0.258212
v -0.287434 -0.635467 0.283753
v -0.278920 0.692882 0.275239
v -0.278920 -0.635467 0.258212
v -0.287434 0.692882 0.283753
v -0.278920 -0.635467 0.275239
vn 0.000000 0.000000 1.000000
vn 0.000000 0.000000 -1.000000
vn 0.000000 1.000000 0.000000
vn 0.000000 -1.000000 0.000000
vn -1.000000 0.000000 0.000000
vn 0.000363 1.000000 0.000000
vn -0.000363 -1.000000 0.000000
vn 1.000000 0.000000 0.000000
vn 0.000586 1.000000 0.000000
vn -0.000586 -1.000000 0.000000
vt -0.147638 0.000000
vt -0.246063 3.248031
vt -0.442913 3.346457
vt -0.147638 3.346457
vt 0.295276 3.344319
vt 0.000000 3.344319
vt 0.295276 18.700787
usemtl material-0
f 3//4 5//4 1//4
f 4//3 2//3 6//3
f 6//4 2//4 4//4
f 6//2 3//2 4//2
f 5//4 3//4 7//4
f 1//4 5//4 8//4
f 2//6 9//6 6//6
f 6//7 9//7 2//7
f 3//2 6//2 11//2
f 3//2 11//2 7//2
f 12//8 5//8 7//8
f 5//1 13//1 8//1
f 8//2 13//2 5//2
f 9//6 2//6 14//6
f 14//7 2//7 9//7
f 9//2 15//2 6//2
f 2//2 10//2 14//2
f 14//1 10//1 2//1
f 7//2 11//2 17//2
f 18//8 5//8 12//8
f 7//2 19//2 12//2
f 13//1 5//1 20//1
f 20//2 5//2 13//2
f 14//9 21//9 9//9
f 9//10 21//10 14//10
f 15//2 9//2 22//2
f 24//4 10//4 16//4
f 7//2 17//2 19//2
f 26//8 5//8 18//8
f 12//8 27//8 18//8
f 19//2 18//2 12//2
f 12//1 18//1 19//1
f 28//4 12//4 19//4
f 19//3 12//3 28//3
f 5//8 26//8 20//8
f 20//3 25//3 13//3
f 13//4 25//4 20//4
f 21//9 14//9 25//9
f 25//10 14//10 21//10
f 19//2 9//2 21//2
f 25//8 10//8 13//8
f 10//4 24//4 23//4
f 29//2 26//2 18//2
f 18//2 19//2 29//2
f 29//1 19//1 18//1
f 28//4 30//4 12//4
f 12//3 30//3 28//3
f 29//5 28//5 19//5
f 19//8 28//8 29//8
f 26//3 25//3 20//3
f 20//4 25//4 26//4
f 25//3 26//3 21//3
f 21//4 26//4 25//4
f 19//2 21//2 29//2
f 26//2 29//2 21//2
f 28//5 29//5 31//5
f 31//8 29//8 28//8
usemtl material-1
f 1//3 5//3 3//3
f 4//1 3//1 6//1
f 7//3 3//3 5//3
f 8//3 5//3 1//3
f 11//1 6//1 3//1
f 7//1 11//1 3//1
f 7//5 5//5 12//5
f 6//1 15//1 9//1
f 17//1 11//1 7//1
f 12//5 5//5 18//5
f 12//1 19//1 7//1
f 22//1 9//1 15//1
f 19//1 17//1 7//1
f 18//5 5//5 26//5
f 20//5 26//5 5//5
f 21//1 9//1 19//1
f 18//1 26//1 29//1
f 29//1 21//1 19//1
f 21//1 29//1 26//1
usemtl material-2
f 13//5 10//5 25//5
usemtl material-3
f 16/1/3 10/2/3 24/4/3
f 23/3/3 24/4/3 10/2/3
usemtl material-6
f 18/5/5 27/6/5 12/7/5