# SSTK version 0.8.0
# 82
mtllib original-82.mtl
o Group83/mesh241/mesh241-geometry#mesh241-geometry
v 0.155039 0.030027 -0.079870
v 0.154468 0.021169 -0.080685
v 0.155039 0.021181 -0.080797
v 0.154468 0.030015 -0.079757
v 0.155039 0.028104 -0.146846
v 0.155589 0.030047 -0.080056
v 0.154468 0.036963 -0.146031
v 0.153887 0.021165 -0.080647
v 0.154468 0.028116 -0.146959
v 0.155589 0.028085 -0.146660
v 0.155589 0.021200 -0.080983
v 0.155039 0.036951 -0.145918
v 0.153887 0.036967 -0.146069
v 0.153887 0.030011 -0.079719
v 0.156111 0.030074 -0.080312
v 0.155589 0.036931 -0.145732
v 0.093846 0.021165 -0.080647
v 0.153887 0.028120 -0.146996
v 0.156111 0.028058 -0.146404
v 0.156111 0.021227 -0.081239
v 0.093846 0.036967 -0.146069
v 0.093846 0.030011 -0.079719
v 0.156595 0.030107 -0.080633
v 0.156111 0.036904 -0.145476
v 0.093265 0.021169 -0.080685
v 0.093846 0.028120 -0.146996
v 0.156595 0.028024 -0.146082
v 0.156595 0.021261 -0.081561
v 0.093265 0.036963 -0.146031
v 0.093265 0.030015 -0.079757
v 0.157032 0.030147 -0.081015
v 0.156595 0.036871 -0.145155
v 0.092695 0.021181 -0.080797
v 0.093265 0.028116 -0.146959
v 0.157032 0.027984 -0.145701
v 0.157032 0.021301 -0.081942
v 0.092695 0.036951 -0.145918
v 0.092695 0.030027 -0.079870
v 0.157416 0.021346 -0.082377
v 0.157032 0.036831 -0.144773
v 0.092144 0.021200 -0.080983
v 0.092695 0.028104 -0.146846
v 0.157416 0.027939 -0.145266
v 0.157416 0.030193 -0.081450
v 0.157416 0.036785 -0.144338
v 0.092144 0.036931 -0.145732
v 0.092144 0.030047 -0.080056
v 0.157739 0.021397 -0.082858
v 0.157739 0.027888 -0.144785
v 0.091622 0.021227 -0.081239
v 0.092144 0.028085 -0.146660
v 0.157739 0.036735 -0.143857
v 0.157739 0.030243 -0.081931
v 0.091622 0.036904 -0.145476
v 0.091622 0.030074 -0.080312
v 0.091622 0.028058 -0.146404
v 0.157996 0.021451 -0.083377
v 0.157996 0.027834 -0.144266
v 0.157996 0.036680 -0.143338
v 0.091138 0.021261 -0.081561
v 0.157996 0.030298 -0.082450
v 0.091138 0.036871 -0.145155
v 0.091138 0.030107 -0.080633
v 0.091138 0.028024 -0.146082
v 0.158184 0.021508 -0.083925
v 0.158184 0.027776 -0.143718
v 0.158184 0.036623 -0.142791
v 0.158184 0.030355 -0.082998
v 0.090701 0.021301 -0.081942
v 0.090701 0.036831 -0.144773
v 0.090701 0.030147 -0.081015
v 0.090701 0.027984 -0.145701
v 0.158297 0.021568 -0.084493
v 0.158297 0.027717 -0.143150
v 0.158297 0.036563 -0.142223
v 0.090317 0.030193 -0.081450
v 0.090317 0.027939 -0.145266
v 0.158297 0.030415 -0.083565
v 0.090317 0.036785 -0.144338
v 0.090317 0.021346 -0.082377
v 0.158335 0.021629 -0.085070
v 0.158335 0.027656 -0.142573
v 0.158335 0.036503 -0.141646
v 0.089994 0.030243 -0.081931
v 0.089994 0.036735 -0.143857
v 0.089994 0.021397 -0.082858
v 0.158335 0.030475 -0.084143
v 0.089994 0.027888 -0.144785
v 0.089737 0.030298 -0.082450
v 0.089737 0.036680 -0.143338
v 0.089737 0.027834 -0.144266
v 0.089737 0.021451 -0.083377
v 0.089550 0.030355 -0.082998
v 0.089550 0.036623 -0.142791
v 0.089550 0.027776 -0.143718
v 0.089550 0.021508 -0.083925
v 0.089436 0.030415 -0.083565
v 0.089436 0.036563 -0.142223
v 0.089436 0.027717 -0.143150
v 0.089436 0.021568 -0.084493
v 0.089398 0.030475 -0.084143
v 0.089398 0.036503 -0.141646
v 0.089398 0.027656 -0.142573
v 0.089398 0.021629 -0.085070
vn 0.2588190458356924 -0.10070201783387597 0.9606621701289623
vn 0.1305260148663266 -0.1033630117725828 0.9860421123057658
vn -0.2588190458356924 0.10070201783387597 -0.9606621701289623
vn -0.1305260148663266 0.1033630117725828 -0.9860421123057658
vn 0 -0.9945507075439538 -0.1042539693432389
vn 0 0.9945507075439538 0.1042539693432389
vn 0.3826830454866662 -0.09631901144871939 0.9188451092162333
vn -0.3826830454866662 0.09631901144871939 -0.9188451092162333
vn 0.065403018227464 -0.10403102899287987 0.99242127658239
vn -0.065403018227464 0.10403102899287987 -0.99242127658239
vn 0.1305260148663266 0.1033630117725828 -0.9860421123057658
vn 0.2588190458356924 0.10070201783387597 -0.9606621701289623
vn -0.1305260148663266 -0.1033630117725828 0.9860421123057658
vn -0.2588190458356924 -0.10070201783387597 0.9606621701289623
vn 0.3826830454866662 0.09631901144871939 -0.9188451092162333
vn -0.3826830454866662 -0.09631901144871939 0.9188451092162333
vn 0.5000000579987601 -0.09028701047306831 0.8613060999093602
vn -0.5000000579987601 0.09028701047306831 -0.8613060999093602
vn 0.065403018227464 0.10403102899287987 -0.99242127658239
vn -0.065403018227464 -0.10403102899287987 0.99242127658239
vn 0 -0.1042539693432389 0.9945507075439538
vn 0 0.1042539693432389 -0.9945507075439538
vn 0.5000000579987601 0.09028701047306831 -0.8613060999093602
vn -0.5000000579987601 -0.09028701047306831 0.8613060999093602
vn 0.6087611809415039 -0.08271102458411896 0.7890302345227024
vn -0.6087611809415039 0.08271102458411896 -0.7890302345227024
vn 0.6087611809415039 0.08271102458411896 -0.7890302345227024
vn -0.6087611809415039 -0.08271102458411896 0.7890302345227024
vn 0.7071066503620108 -0.0737189635487093 0.7032536522671753
vn -0.7071066503620108 0.0737189635487093 -0.7032536522671753
vn 0.7071066503620108 0.0737189635487093 -0.7032536522671753
vn -0.7071066503620108 -0.0737189635487093 0.7032536522671753
vn 0.7933532566890911 -0.06346602053440267 0.6054441958911986
vn -0.7933532566890911 0.06346602053440267 -0.6054441958911986
vn 0.7933532566890911 0.06346602053440267 -0.6054441958911986
vn -0.7933532566890911 -0.06346602053440267 0.6054441958911986
vn 0.866025454499371 -0.05212702735681857 0.49727526097534674
vn -0.866025454499371 0.05212702735681857 -0.49727526097534674
vn 0.866025454499371 0.05212702735681857 -0.49727526097534674
vn -0.866025454499371 -0.05212702735681857 0.49727526097534674
vn 0.9238796383843414 -0.03989598438431589 0.3805978510302242
vn -0.9238796383843414 0.03989598438431589 -0.3805978510302242
vn 0.9238796383843414 0.03989598438431589 -0.3805978510302242
vn -0.9238796383843414 -0.03989598438431589 0.3805978510302242
vn 0.96592575221786 -0.02698299307824261 0.2574089339686965
vn -0.96592575221786 0.02698299307824261 -0.2574089339686965
vn 0.96592575221786 0.02698299307824261 -0.2574089339686965
vn -0.96592575221786 -0.02698299307824261 0.2574089339686965
vn 0.9914448513259155 -0.013607997959385632 0.12981498053333643
vn -0.9914448513259155 0.013607997959385632 -0.12981498053333643
vn 0.9914448513259155 0.013607997959385632 -0.12981498053333643
vn -0.9914448513259155 -0.013607997959385632 0.12981498053333643
vn 0.997858902783102 -0.006818999335655626 0.06504699366276441
vn -0.997858902783102 0.006818999335655626 -0.06504699366276441
vn 0.997858902783102 0.006818999335655626 -0.06504699366276441
vn -0.997858902783102 -0.006818999335655626 0.06504699366276441
vn 1 0 0
vn -1 0 0
usemtl material_0_0
f 1//1 2//2 3//1
f 2//2 1//1 4//2
f 3//3 2//4 1//3
f 4//4 1//3 2//4
f 2//5 5//5 3//5
f 3//6 5//6 2//6
f 3//1 6//7 1//1
f 1//3 6//8 3//3
f 7//6 4//6 1//6
f 1//5 4//5 7//5
f 4//2 8//9 2//2
f 2//4 8//10 4//4
f 2//5 9//5 5//5
f 5//6 9//6 2//6
f 3//5 5//5 10//5
f 10//6 5//6 3//6
f 6//7 3//1 11//7
f 11//8 3//3 6//8
f 12//6 1//6 6//6
f 6//5 1//5 12//5
f 13//6 4//6 7//6
f 7//5 4//5 13//5
f 7//6 1//6 12//6
f 12//5 1//5 7//5
f 8//9 4//2 14//9
f 14//10 4//4 8//10
f 8//5 9//5 2//5
f 2//6 9//6 8//6
f 7//11 5//12 9//11
f 9//13 5//14 7//13
f 12//12 10//15 5//12
f 5//14 10//16 12//14
f 3//5 10//5 11//5
f 11//6 10//6 3//6
f 11//7 15//17 6//7
f 6//8 15//18 11//8
f 12//6 6//6 16//6
f 16//5 6//5 12//5
f 13//6 14//6 4//6
f 4//5 14//5 13//5
f 9//11 13//19 7//11
f 7//13 13//20 9//13
f 5//12 7//11 12//12
f 12//14 7//13 5//14
f 14//21 17//21 8//21
f 8//22 17//22 14//22
f 8//5 18//5 9//5
f 9//6 18//6 8//6
f 10//15 12//12 16//15
f 16//16 12//14 10//16
f 11//5 10//5 19//5
f 19//6 10//6 11//6
f 15//17 11//7 20//17
f 20//18 11//8 15//18
f 16//6 6//6 15//6
f 15//5 6//5 16//5
f 21//6 14//6 13//6
f 13//5 14//5 21//5
f 13//19 9//11 18//19
f 18//20 9//13 13//20
f 17//21 14//21 22//21
f 22//22 14//22 17//22
f 17//5 18//5 8//5
f 8//6 18//6 17//6
f 16//15 19//23 10//15
f 10//16 19//24 16//16
f 11//5 19//5 20//5
f 20//6 19//6 11//6
f 20//17 23//25 15//17
f 15//18 23//26 20//18
f 16//6 15//6 24//6
f 24//5 15//5 16//5
f 21//6 22//6 14//6
f 14//5 22//5 21//5
f 18//22 21//22 13//22
f 13//21 21//21 18//21
f 22//20 25//13 17//20
f 17//19 25//11 22//19
f 17//5 26//5 18//5
f 18//6 26//6 17//6
f 19//23 16//15 24//23
f 24//24 16//16 19//24
f 20//5 19//5 27//5
f 27//6 19//6 20//6
f 23//25 20//17 28//25
f 28//26 20//18 23//26
f 24//6 15//6 23//6
f 23//5 15//5 24//5
f 29//6 22//6 21//6
f 21//5 22//5 29//5
f 21//22 18//22 26//22
f 26//21 18//21 21//21
f 25//13 22//20 30//13
f 30//11 22//19 25//11
f 25//5 26//5 17//5
f 17//6 26//6 25//6
f 24//23 27//27 19//23
f 19//24 27//28 24//24
f 20//5 27//5 28//5
f 28//6 27//6 20//6
f 28//25 31//29 23//25
f 23//26 31//30 28//26
f 24//6 23//6 32//6
f 32//5 23//5 24//5
f 29//6 30//6 22//6
f 22//5 30//5 29//5
f 26//10 29//4 21//10
f 21//9 29//2 26//9
f 30//13 33//14 25//13
f 25//11 33//12 30//11
f 25//5 34//5 26//5
f 26//6 34//6 25//6
f 27//27 24//23 32//27
f 32//28 24//24 27//28
f 28//5 27//5 35//5
f 35//6 27//6 28//6
f 31//29 28//25 36//29
f 36//30 28//26 31//30
f 32//6 23//6 31//6
f 31//5 23//5 32//5
f 37//6 30//6 29//6
f 29//5 30//5 37//5
f 29//4 26//10 34//4
f 34//2 26//9 29//2
f 33//14 30//13 38//14
f 38//12 30//11 33//12
f 33//5 34//5 25//5
f 25//6 34//6 33//6
f 32//27 35//31 27//27
f 27//28 35//32 32//28
f 28//5 35//5 36//5
f 36//6 35//6 28//6
f 39//33 31//29 36//29
f 36//30 31//30 39//34
f 32//6 31//6 40//6
f 40//5 31//5 32//5
f 37//6 38//6 30//6
f 30//5 38//5 37//5
f 34//4 37//3 29//4
f 29//2 37//1 34//2
f 38//14 41//16 33//14
f 33//12 41//15 38//12
f 33//5 42//5 34//5
f 34//6 42//6 33//6
f 35//31 32//27 40//31
f 40//32 32//28 35//32
f 36//5 35//5 43//5
f 43//6 35//6 36//6
f 31//29 39//33 44//33
f 44//34 39//34 31//30
f 36//5 43//5 39//5
f 39//6 43//6 36//6
f 40//6 31//6 45//6
f 45//5 31//5 40//5
f 46//6 38//6 37//6
f 37//5 38//5 46//5
f 37//3 34//4 42//3
f 42//1 34//2 37//1
f 41//16 38//14 47//16
f 47//15 38//12 41//15
f 41//5 42//5 33//5
f 33//6 42//6 41//6
f 45//35 35//31 40//31
f 40//32 35//32 45//36
f 35//31 45//35 43//35
f 43//36 45//36 35//32
f 48//37 44//33 39//33
f 39//34 44//34 48//38
f 45//6 31//6 44//6
f 44//5 31//5 45//5
f 39//5 43//5 49//5
f 49//6 43//6 39//6
f 46//6 47//6 38//6
f 38//5 47//5 46//5
f 42//3 46//8 37//3
f 37//1 46//7 42//1
f 47//16 50//24 41//16
f 41//15 50//23 47//15
f 41//5 51//5 42//5
f 42//6 51//6 41//6
f 52//39 43//35 45//35
f 45//36 43//36 52//40
f 44//33 48//37 53//37
f 53//38 48//38 44//34
f 39//5 49//5 48//5
f 48//6 49//6 39//6
f 45//6 44//6 53//6
f 53//5 44//5 45//5
f 43//35 52//39 49//39
f 49//40 52//40 43//36
f 54//6 47//6 46//6
f 46//5 47//5 54//5
f 46//8 42//3 51//8
f 51//7 42//1 46//7
f 50//24 47//16 55//24
f 55//23 47//15 50//23
f 50//5 56//5 41//5
f 41//6 56//6 50//6
f 41//5 56//5 51//5
f 51//6 56//6 41//6
f 45//6 53//6 52//6
f 52//5 53//5 45//5
f 57//41 53//37 48//37
f 48//38 53//38 57//42
f 48//5 49//5 58//5
f 58//6 49//6 48//6
f 59//43 49//39 52//39
f 52//40 49//40 59//44
f 54//6 55//6 47//6
f 47//5 55//5 54//5
f 51//8 54//18 46//8
f 46//7 54//17 51//7
f 55//24 60//28 50//24
f 50//23 60//27 55//23
f 60//5 56//5 50//5
f 50//6 56//6 60//6
f 54//18 51//8 56//18
f 56//17 51//7 54//17
f 52//6 53//6 61//6
f 61//5 53//5 52//5
f 53//37 57//41 61//41
f 61//42 57//42 53//38
f 48//5 58//5 57//5
f 57//6 58//6 48//6
f 49//39 59//43 58//43
f 58//44 59//44 49//40
f 52//6 61//6 59//6
f 59//5 61//5 52//5
f 62//6 55//6 54//6
f 54//5 55//5 62//5
f 60//28 55//24 63//28
f 63//27 55//23 60//27
f 60//5 64//5 56//5
f 56//6 64//6 60//6
f 56//18 62//26 54//18
f 54//17 62//25 56//17
f 65//45 61//41 57//41
f 57//42 61//42 65//46
f 57//5 58//5 66//5
f 66//6 58//6 57//6
f 67//47 58//43 59//43
f 59//44 58//44 67//48
f 59//6 61//6 68//6
f 68//5 61//5 59//5
f 62//6 63//6 55//6
f 55//5 63//5 62//5
f 63//28 69//32 60//28
f 60//27 69//31 63//27
f 69//5 64//5 60//5
f 60//6 64//6 69//6
f 62//26 56//18 64//26
f 64//25 56//17 62//25
f 61//41 65//45 68//45
f 68//46 65//46 61//42
f 57//5 66//5 65//5
f 65//6 66//6 57//6
f 58//43 67//47 66//47
f 66//48 67//48 58//44
f 59//6 68//6 67//6
f 67//5 68//5 59//5
f 70//6 63//6 62//6
f 62//5 63//5 70//5
f 69//32 63//28 71//32
f 71//31 63//27 69//31
f 69//5 72//5 64//5
f 64//6 72//6 69//6
f 64//26 70//30 62//26
f 62//25 70//29 64//25
f 73//49 68//45 65//45
f 65//46 68//46 73//50
f 65//5 66//5 74//5
f 74//6 66//6 65//6
f 75//51 66//47 67//47
f 67//48 66//48 75//52
f 67//6 68//6 75//6
f 75//5 68//5 67//5
f 70//6 71//6 63//6
f 63//5 71//5 70//5
f 76//36 69//32 71//32
f 71//31 69//31 76//35
f 69//5 77//5 72//5
f 72//6 77//6 69//6
f 70//30 64//26 72//30
f 72//29 64//25 70//29
f 68//45 73//49 78//49
f 78//50 73//50 68//46
f 65//5 74//5 73//5
f 73//6 74//6 65//6
f 66//47 75//51 74//51
f 74//52 75//52 66//48
f 75//6 68//6 78//6
f 78//5 68//5 75//5
f 79//6 71//6 70//6
f 70//5 71//5 79//5
f 69//32 76//36 80//36
f 80//35 76//35 69//31
f 79//6 76//6 71//6
f 71//5 76//5 79//5
f 80//5 77//5 69//5
f 69//6 77//6 80//6
f 77//34 70//30 72//30
f 72//29 70//29 77//33
f 81//53 78//49 73//49
f 73//50 78//50 81//54
f 73//5 74//5 82//5
f 82//6 74//6 73//6
f 83//55 74//51 75//51
f 75//52 74//52 83//56
f 75//6 78//6 83//6
f 83//5 78//5 75//5
f 70//30 77//34 79//34
f 79//33 77//33 70//29
f 84//40 80//36 76//36
f 76//35 80//35 84//39
f 85//6 76//6 79//6
f 79//5 76//5 85//5
f 86//5 77//5 80//5
f 80//6 77//6 86//6
f 78//49 81//53 87//53
f 87//54 81//54 78//50
f 73//5 82//5 81//5
f 81//6 82//6 73//6
f 74//51 83//55 82//55
f 82//56 83//56 74//52
f 83//6 78//6 87//6
f 87//5 78//5 83//5
f 88//38 79//34 77//34
f 77//33 79//33 88//37
f 80//36 84//40 86//40
f 86//39 84//39 80//35
f 85//6 84//6 76//6
f 76//5 84//5 85//5
f 79//34 88//38 85//38
f 85//37 88//37 79//33
f 86//5 88//5 77//5
f 77//6 88//6 86//6
f 82//57 87//57 81//57
f 81//58 87//58 82//58
f 87//57 82//57 83//57
f 83//58 82//58 87//58
f 89//44 86//40 84//40
f 84//39 86//39 89//43
f 90//6 84//6 85//6
f 85//5 84//5 90//5
f 91//42 85//38 88//38
f 88//37 85//37 91//41
f 92//5 88//5 86//5
f 86//6 88//6 92//6
f 86//40 89//44 92//44
f 92//43 89//43 86//39
f 90//6 89//6 84//6
f 84//5 89//5 90//5
f 85//38 91//42 90//42
f 90//41 91//41 85//37
f 92//5 91//5 88//5
f 88//6 91//6 92//6
f 93//48 92//44 89//44
f 89//43 92//43 93//47
f 94//6 89//6 90//6
f 90//5 89//5 94//5
f 95//46 90//42 91//42
f 91//41 90//41 95//45
f 96//5 91//5 92//5
f 92//6 91//6 96//6
f 92//44 93//48 96//48
f 96//47 93//47 92//43
f 94//6 93//6 89//6
f 89//5 93//5 94//5
f 90//42 95//46 94//46
f 94//45 95//45 90//41
f 96//5 95//5 91//5
f 91//6 95//6 96//6
f 97//52 96//48 93//48
f 93//47 96//47 97//51
f 98//6 93//6 94//6
f 94//5 93//5 98//5
f 99//50 94//46 95//46
f 95//45 94//45 99//49
f 100//5 95//5 96//5
f 96//6 95//6 100//6
f 96//48 97//52 100//52
f 100//51 97//51 96//47
f 98//6 97//6 93//6
f 93//5 97//5 98//5
f 94//46 99//50 98//50
f 98//49 99//49 94//45
f 100//5 99//5 95//5
f 95//6 99//6 100//6
f 101//56 100//52 97//52
f 97//51 100//51 101//55
f 102//6 97//6 98//6
f 98//5 97//5 102//5
f 103//54 98//50 99//50
f 99//49 98//49 103//53
f 104//5 99//5 100//5
f 100//6 99//6 104//6
f 100//52 101//56 104//56
f 104//55 101//55 100//51
f 97//6 102//6 101//6
f 101//5 102//5 97//5
f 98//50 103//54 102//54
f 102//53 103//53 98//49
f 99//5 104//5 103//5
f 103//6 104//6 99//6
f 102//58 104//58 101//58
f 101//57 104//57 102//57
f 104//58 102//58 103//58
f 103//57 102//57 104//57
