# SSTK version 0.8.0
# 5
mtllib original-5.mtl
o mesh4/mesh4-geometry#mesh4-geometry
v 0.054066 0.612009 0.025267
v 0.035309 0.605676 0.025267
v 0.035309 0.612009 0.025267
v 0.039890 0.605676 0.025267
v 0.035309 0.612009 0.034800
v 0.050377 0.605676 0.025267
v 0.039890 0.605676 0.034800
v 0.035309 0.605676 0.034800
v 0.054066 0.612009 0.034800
v 0.054066 0.605676 0.025267
v 0.050050 0.590988 0.025267
v 0.054066 0.605676 0.034800
v 0.050050 0.580855 0.025267
v 0.050050 0.590988 0.034800
v 0.050377 0.605676 0.034800
v 0.059806 0.580855 0.025267
v 0.055880 0.596536 0.034800
v 0.065034 0.574522 0.025267
v 0.055880 0.596536 0.025267
v 0.050050 0.580855 0.034800
v 0.059806 0.580855 0.034800
v 0.044795 0.574522 0.025267
v 0.065034 0.580855 0.025267
v 0.059806 0.590988 0.025267
v 0.044795 0.580855 0.034800
v 0.065034 0.574522 0.034800
v 0.061465 0.605676 0.034800
v 0.059806 0.590988 0.034800
v 0.044795 0.580855 0.025267
v 0.061465 0.605676 0.025267
v 0.065034 0.580855 0.034800
v 0.044795 0.574522 0.034800
v 0.069508 0.605676 0.025267
v 0.057596 0.605676 0.025267
v 0.069508 0.605676 0.034800
v 0.074116 0.612009 0.025267
v 0.057596 0.605676 0.034800
v 0.074116 0.612009 0.034800
v 0.074116 0.605676 0.025267
v 0.057596 0.612009 0.034800
v 0.057596 0.612009 0.025267
v 0.074116 0.605676 0.034800
vn 0 0 -1
vn 0 0 1
vn -1 0 0
vn 1 0 0
vn 0 1 0
vn 0 -1 0
vn -0.8224093198774008 -0.5688962212730817 0
vn 0.8224093198774008 0.5688962212730817 0
vn 0.8566909749927625 0.5158299849426652 0
vn -0.8566909749927625 -0.5158299849426652 0
vn -0.8532671254452088 0.5214740766658207 0
vn 0.8532671254452088 -0.5214740766658207 0
vn 0.8343981782908843 -0.5511621177701294 0
vn -0.8343981782908843 0.5511621177701294 0
usemtl material_0_0
f 1//1 2//1 3//1
f 2//1 1//1 4//1
f 3//2 2//2 1//2
f 4//2 1//2 2//2
f 2//3 5//3 3//3
f 3//4 5//4 2//4
f 5//5 1//5 3//5
f 3//6 1//6 5//6
f 4//1 1//1 6//1
f 6//2 1//2 4//2
f 7//6 2//6 4//6
f 4//5 2//5 7//5
f 5//3 2//3 8//3
f 8//4 2//4 5//4
f 1//5 5//5 9//5
f 9//6 5//6 1//6
f 6//1 1//1 10//1
f 10//2 1//2 6//2
f 4//1 6//1 11//1
f 11//2 6//2 4//2
f 2//6 7//6 8//6
f 8//5 7//5 2//5
f 11//7 7//7 4//7
f 4//8 7//8 11//8
f 7//2 5//2 8//2
f 8//1 5//1 7//1
f 5//2 7//2 9//2
f 9//1 7//1 5//1
f 12//4 1//4 9//4
f 9//3 1//3 12//3
f 1//4 12//4 10//4
f 10//3 12//3 1//3
f 12//6 6//6 10//6
f 10//5 6//5 12//5
f 11//1 6//1 13//1
f 13//2 6//2 11//2
f 7//7 11//7 14//7
f 14//8 11//8 7//8
f 9//2 7//2 15//2
f 15//1 7//1 9//1
f 9//2 15//2 12//2
f 12//1 15//1 9//1
f 6//6 12//6 15//6
f 15//5 12//5 6//5
f 16//1 13//1 6//1
f 6//2 13//2 16//2
f 13//3 14//3 11//3
f 11//4 14//4 13//4
f 15//2 7//2 14//2
f 14//1 7//1 15//1
f 17//9 6//9 15//9
f 15//10 6//10 17//10
f 18//1 13//1 16//1
f 16//2 13//2 18//2
f 16//1 6//1 19//1
f 19//2 6//2 16//2
f 14//3 13//3 20//3
f 20//4 13//4 14//4
f 14//2 21//2 15//2
f 15//1 21//1 14//1
f 6//9 17//9 19//9
f 19//10 17//10 6//10
f 15//2 21//2 17//2
f 17//1 21//1 15//1
f 22//1 13//1 18//1
f 18//2 13//2 22//2
f 18//1 16//1 23//1
f 23//2 16//2 18//2
f 16//1 19//1 24//1
f 24//2 19//2 16//2
f 13//5 25//5 20//5
f 20//6 25//6 13//6
f 20//2 26//2 14//2
f 14//1 26//1 20//1
f 14//2 26//2 21//2
f 21//1 26//1 14//1
f 27//11 19//11 17//11
f 17//12 19//12 27//12
f 28//2 17//2 21//2
f 21//1 17//1 28//1
f 13//1 22//1 29//1
f 29//2 22//2 13//2
f 26//6 22//6 18//6
f 18//5 22//5 26//5
f 21//5 23//5 16//5
f 16//6 23//6 21//6
f 23//4 26//4 18//4
f 18//3 26//3 23//3
f 30//1 24//1 19//1
f 19//2 24//2 30//2
f 24//4 21//4 16//4
f 16//3 21//3 24//3
f 25//5 13//5 29//5
f 29//6 13//6 25//6
f 25//2 26//2 20//2
f 20//1 26//1 25//1
f 21//2 26//2 31//2
f 31//1 26//1 21//1
f 19//11 27//11 30//11
f 30//12 27//12 19//12
f 17//2 28//2 27//2
f 27//1 28//1 17//1
f 21//4 24//4 28//4
f 28//3 24//3 21//3
f 22//3 25//3 29//3
f 29//4 25//4 22//4
f 22//6 26//6 32//6
f 32//5 26//5 22//5
f 23//5 21//5 31//5
f 31//6 21//6 23//6
f 26//4 23//4 31//4
f 31//3 23//3 26//3
f 24//1 30//1 33//1
f 33//2 30//2 24//2
f 26//2 25//2 32//2
f 32//1 25//1 26//1
f 27//6 34//6 30//6
f 30//5 34//5 27//5
f 27//2 28//2 35//2
f 35//1 28//1 27//1
f 33//13 28//13 24//13
f 24//14 28//14 33//14
f 25//3 22//3 32//3
f 32//4 22//4 25//4
f 30//1 36//1 33//1
f 33//2 36//2 30//2
f 34//6 27//6 37//6
f 37//5 27//5 34//5
f 34//1 36//1 30//1
f 30//2 36//2 34//2
f 28//13 33//13 35//13
f 35//14 33//14 28//14
f 38//2 27//2 35//2
f 35//1 27//1 38//1
f 33//1 36//1 39//1
f 39//2 36//2 33//2
f 27//2 40//2 37//2
f 37//1 40//1 27//1
f 40//3 34//3 37//3
f 37//4 34//4 40//4
f 36//1 34//1 41//1
f 41//2 34//2 36//2
f 33//6 42//6 35//6
f 35//5 42//5 33//5
f 40//2 27//2 38//2
f 38//1 27//1 40//1
f 38//2 35//2 42//2
f 42//1 35//1 38//1
f 36//4 42//4 39//4
f 39//3 42//3 36//3
f 42//6 33//6 39//6
f 39//5 33//5 42//5
f 34//3 40//3 41//3
f 41//4 40//4 34//4
f 40//5 36//5 41//5
f 41//6 36//6 40//6
f 36//5 40//5 38//5
f 38//6 40//6 36//6
f 42//4 36//4 38//4
f 38//3 36//3 42//3
