# SSTK version 0.8.0
# 1
mtllib original-1.mtl
o Group1/mesh2/mesh2-geometry#mesh2-geometry
v -0.269055 0.410368 0.327595
v -0.290237 0.376498 0.315529
v -0.290237 0.410368 0.315529
v -0.269055 0.376498 0.327595
v -0.309506 0.376498 0.300598
v -0.250618 0.410368 0.314758
v -0.246383 0.410368 0.336554
v -0.250618 0.376498 0.314758
v -0.309506 0.410368 0.300598
v -0.267532 0.376498 0.307111
v -0.267532 0.410368 0.307111
v -0.232906 0.410368 0.320311
v -0.246383 0.376498 0.336554
v -0.196128 0.410368 0.324847
v -0.232906 0.376498 0.320311
v -0.283401 0.376498 0.297483
v -0.214654 0.410368 0.323691
v -0.222675 0.410368 0.342226
v -0.196128 0.376498 0.324847
v -0.127060 0.410368 0.330816
v -0.214654 0.376498 0.323691
v -0.283401 0.410368 0.297483
v -0.222675 0.376498 0.342226
v -0.150114 0.410368 0.338737
v -0.127060 0.376498 0.330816
v -0.177598 0.410368 0.323764
v -0.198404 0.410368 0.344500
v -0.150114 0.376498 0.338737
v -0.174055 0.410368 0.343329
v -0.177598 0.376498 0.323764
v -0.105352 0.410368 0.319723
v -0.198404 0.376498 0.344500
v -0.174055 0.376498 0.343329
v -0.105352 0.376498 0.319723
v -0.159333 0.410368 0.320456
v -0.159333 0.376498 0.320456
v -0.141599 0.410368 0.314972
v -0.141599 0.376498 0.314972
v -0.085426 0.410368 0.305681
v -0.124655 0.410368 0.307392
v -0.124655 0.376498 0.307392
v -0.085426 0.376498 0.305681
v -0.067678 0.410368 0.288969
v -0.108748 0.410368 0.297827
v -0.108748 0.376498 0.297827
v -0.067678 0.376498 0.288969
v -0.052464 0.376498 0.269923
v -0.094108 0.410368 0.286415
v -0.094108 0.376498 0.286415
v -0.052464 0.410368 0.269923
v -0.080950 0.376498 0.273322
v -0.080950 0.410368 0.273322
vt 0.023266 0.033323
vt 0 0.016578
vt 0.023266 0.016578
vt 0 0.033323
vt 0 0
vt 0.023266 0.016745
vt 0 0.016745
vt 0.012833 0.010757
vt 0.040049 0.011272
vt 0.027055 0.019598
vt 0.023266 0.049403
vt 0 0.032658
vt 0.023266 0.032658
vt -0.040049 0.011272
vt -0.012833 0.010757
vt -0.027055 0.019598
vt 0.023266 0
vt -0.02864 0.005577
vt 0.02864 0.005577
vt 0.05206 0.015551
vt 0 0.049403
vt 0.077185 0.019635
vt 0.04238 0.026345
vt -0.05206 0.015551
vt 0 -0.018059
vt -0.018001 -0.00145
vt -0.023266 0.028116
vt 0 0.040867
vt -0.023266 0.040867
vt -0.023266 0.041509
vt 0 0.05426
vt -0.023266 0.05426
vt 0.064499 0.018352
vt 0.023266 0.064663
vt 0 0.047918
vt 0.023266 0.047918
vt -0.077185 0.019635
vt -0.04238 0.026345
vt 0.124438 0.025553
vt 0 0.028116
vt -0.064499 0.018352
vt 0 0.041509
vt 0.023266 -0.018059
vt 0.018001 -0.00145
vt 0 0.026972
vt -0.023266 0.014221
vt 0 0.014221
vt 0 0.066955
vt -0.023266 0.054204
vt 0 0.054204
vt -0.023266 0.066955
vt 0 0.064663
vt 0.108404 0.030383
vt 0.058505 0.030864
vt -0.124438 0.025553
vt -0.023266 0.066018
vt 0 0.078769
vt -0.023266 0.078769
vt 0.089933 0.01938
vt -0.023266 0.026972
vt 0 0.066018
vt 0.023266 0.078799
vt 0 0.062053
vt 0.023266 0.062053
vt -0.108404 0.030383
vt -0.058505 0.030864
vt 0.091849 0.032903
vt -0.089933 0.01938
vt 0 -0.089528
vt 0.023266 -0.076777
vt 0 -0.076777
vt 0.13963 0.018511
vt 0.023266 -0.089528
vt -0.023266 -0.11178
vt 0 -0.095035
vt -0.023266 -0.095035
vt 0 0.078799
vt 0.075105 0.033065
vt -0.091849 0.032903
vt -0.023266 -0.102595
vt 0 -0.08585
vt -0.023266 -0.08585
vt 0 -0.11178
vt -0.13963 0.018511
vt 0.102558 0.017591
vt -0.023266 -0.1189
vt 0 -0.102154
vt -0.023266 -0.102154
vt 0 -0.099076
vt 0.023266 -0.086325
vt 0 -0.086325
vt 0 -0.102595
vt -0.023266 -0.091527
vt 0 -0.074782
vt -0.023266 -0.074782
vt -0.075105 0.033065
vt 0 -0.091527
vt -0.102558 0.017591
vt 0 -0.1189
vt 0.114875 0.014294
vt 0.023266 -0.099076
vt -0.114875 0.014294
vt -0.023266 -0.123811
vt 0 -0.107066
vt -0.023266 -0.107066
vt 0.126706 0.009538
vt 0.023266 -0.094523
vt 0 -0.107274
vt 0.023266 -0.107274
vt 0 -0.094523
vt -0.126706 0.009538
vt 0 -0.123811
vt 0.153679 0.009398
vt 0.023266 -0.101252
vt 0 -0.114003
vt 0.023266 -0.114003
vt 0 -0.101252
vt -0.153679 0.009398
vt -0.023266 -0.126417
vt 0 -0.109671
vt -0.023266 -0.109671
vt 0.137877 0.003392
vt 0 -0.119165
vt 0.023266 -0.106414
vt 0 -0.106414
vt -0.137877 0.003392
vt 0 -0.126417
vt 0.166302 -0.001605
vt 0.023266 -0.119165
vt -0.166302 -0.001605
vt -0.023266 -0.109919
vt 0 -0.126664
vt 0 -0.109919
vt 0.148227 -0.004056
vt 0 -0.122684
vt 0.023266 -0.109933
vt 0 -0.109933
vt -0.148227 -0.004056
vt -0.023266 -0.126664
vt -0.157604 -0.012696
vt -0.177247 -0.014278
vt 0.157604 -0.012696
vt 0.023266 -0.122684
vt 0.177247 -0.014278
vt 0.023266 -0.158115
vt 0 -0.177822
vt 0.023266 -0.177822
vt 0 -0.158115
vt 0.023266 -0.111758
vt 0 -0.124509
vt 0.023266 -0.124509
vt 0 -0.111758
vn 0.4949497662392402 0 -0.8689215896153815
vn -0.4949497662392402 0 0.8689215896153815
vn 0.6125110310650291 0 -0.7904620400902597
vn -0.6125110310650291 0 0.7904620400902597
vn 0 -1 0
vn 0 1 0
vn 0.36750104308398734 0 -0.9300231090312656
vn -0.36750104308398734 0 0.9300231090312656
vn 0.11849902019715246 0 0.9929541692406124
vn -0.11849902019715246 0 -0.9929541692406124
vn -0.4661779782842648 0 0.8846909587888844
vn -0.3562170859377386 0 0.9344032254257397
vn 0.3562170859377386 0 -0.9344032254257397
vn 0.4661779782842648 0 -0.8846909587888844
vn -0.24106993696455897 0 0.9705077462297267
vn 0.24106993696455897 0 -0.9705077462297267
vn 0.23271003883744704 0 -0.9725461623101876
vn -0.23271003883744704 0 0.9725461623101876
vn -0.5187089379930185 0 0.8549508977983209
vn 0.5187089379930185 0 -0.8549508977983209
vn -0.12241204509752383 0 0.9924793656369093
vn 0.12241204509752383 0 -0.9924793656369093
vn -0.001971000113485262 0 0.9999980575773897
vn 0.001971000113485262 0 -0.9999980575773897
vn 0.09327097759995145 0 -0.995640760885948
vn -0.09327097759995145 0 0.995640760885948
vn -0.3249539455676191 0 -0.945729841582699
vn 0.3249539455676191 0 0.945729841582699
vn -0.18837406769364623 0 -0.982097352924113
vn 0.18837406769364623 0 0.982097352924113
vn -0.4550419902930444 0 -0.8904699810044946
vn 0.4550419902930444 0 0.8904699810044946
vn 0.23724307786924062 0 0.9714503188548189
vn -0.23724307786924062 0 -0.9714503188548189
vn -0.048030992586969225 0 -0.9988458458396425
vn 0.048030992586969225 0 0.9988458458396425
vn -0.576040906415826 0 -0.8174208672009992
vn 0.576040906415826 0 0.8174208672009992
vn 0.35253192049983056 0 0.9357997889659418
vn -0.35253192049983056 0 -0.9357997889659418
vn 0.4626868805220017 0 0.8865217710766156
vn -0.4626868805220017 0 -0.8865217710766156
vn -0.6855312187496192 0 -0.7280432323149922
vn 0.6855312187496192 0 0.7280432323149922
vn 0.5661050662586391 0 0.8243330964824243
vn -0.5661050662586391 0 -0.8243330964824243
vn -0.7813278178627402 0 -0.6241208545096443
vn 0.7813278178627402 0 0.6241208545096443
vn 0.6612779625832408 0 0.7501409575551504
vn -0.6612779625832408 0 -0.7501409575551504
vn 0.7053350669712152 0 0.7088740673072415
vn -0.7053350669712152 0 -0.7088740673072415
usemtl material_0_0
f 1/1/1 2/2/1 3/3/1
f 2/2/1 1/1/1 4/4/1
f 3/3/2 2/2/2 1/1/2
f 4/4/2 1/1/2 2/2/2
f 5/5/3 3/6/3 2/7/3
f 2/7/4 3/6/4 5/5/4
f 3/8/5 6/9/5 1/10/5
f 1/10/6 6/9/6 3/8/6
f 7/11/7 4/12/7 1/13/7
f 1/13/8 4/12/8 7/11/8
f 8/14/6 2/15/6 4/16/6
f 4/16/5 2/15/5 8/14/5
f 3/6/3 5/5/3 9/17/3
f 9/17/4 5/5/4 3/6/4
f 10/18/6 5/5/6 2/15/6
f 2/15/5 5/5/5 10/18/5
f 3/8/5 11/19/5 6/9/5
f 6/9/6 11/19/6 3/8/6
f 1/10/5 6/9/5 12/20/5
f 12/20/6 6/9/6 1/10/6
f 4/12/7 7/11/7 13/21/7
f 13/21/8 7/11/8 4/12/8
f 1/10/5 14/22/5 7/23/5
f 7/23/6 14/22/6 1/10/6
f 10/18/6 2/15/6 8/14/6
f 8/14/5 2/15/5 10/18/5
f 8/14/6 4/16/6 15/24/6
f 15/24/5 4/16/5 8/14/5
f 16/25/9 9/17/9 5/5/9
f 5/5/10 9/17/10 16/25/10
f 9/5/5 11/19/5 3/8/5
f 3/8/6 11/19/6 9/5/6
f 5/5/6 10/18/6 16/26/6
f 16/26/5 10/18/5 5/5/5
f 11/27/11 8/28/12 6/29/12
f 6/29/13 8/28/13 11/27/14
f 6/30/12 15/31/15 12/32/15
f 12/32/16 15/31/16 6/30/13
f 1/10/5 12/20/5 17/33/5
f 17/33/6 12/20/6 1/10/6
f 18/34/17 13/35/17 7/36/17
f 7/36/18 13/35/18 18/34/18
f 19/37/6 4/16/6 13/38/6
f 13/38/5 4/16/5 19/37/5
f 1/10/5 17/33/5 14/22/5
f 14/22/6 17/33/6 1/10/6
f 7/23/5 14/22/5 20/39/5
f 20/39/6 14/22/6 7/23/6
f 8/28/12 11/27/11 10/40/11
f 10/40/14 11/27/14 8/28/13
f 15/24/6 4/16/6 21/41/6
f 21/41/5 4/16/5 15/24/5
f 15/31/15 6/30/12 8/42/12
f 8/42/13 6/30/13 15/31/16
f 9/17/9 16/25/9 22/43/9
f 22/43/10 16/25/10 9/17/10
f 11/19/5 9/5/5 22/44/5
f 22/44/6 9/5/6 11/19/6
f 10/45/11 22/46/19 16/47/19
f 16/47/20 22/46/20 10/45/14
f 21/48/21 12/49/15 15/50/15
f 15/50/16 12/49/16 21/48/22
f 12/49/15 21/48/21 17/51/21
f 17/51/22 21/48/22 12/49/16
f 13/35/17 18/34/17 23/52/17
f 23/52/18 18/34/18 13/35/18
f 7/23/5 24/53/5 18/54/5
f 18/54/6 24/53/6 7/23/6
f 21/41/6 4/16/6 19/37/6
f 19/37/5 4/16/5 21/41/5
f 19/37/6 13/38/6 25/55/6
f 25/55/5 13/38/5 19/37/5
f 17/56/21 19/57/23 14/58/23
f 14/58/24 19/57/24 17/56/22
f 26/59/5 20/39/5 14/22/5
f 14/22/6 20/39/6 26/59/6
f 7/23/5 20/39/5 24/53/5
f 24/53/6 20/39/6 7/23/6
f 22/46/19 10/45/11 11/60/11
f 11/60/14 10/45/14 22/46/20
f 19/57/23 17/56/21 21/61/21
f 21/61/22 17/56/22 19/57/24
f 27/62/25 23/63/25 18/64/25
f 18/64/26 23/63/26 27/62/26
f 28/65/6 13/38/6 23/66/6
f 23/66/5 13/38/5 28/65/5
f 18/54/5 24/53/5 29/67/5
f 29/67/6 24/53/6 18/54/6
f 25/55/6 13/38/6 28/65/6
f 28/65/5 13/38/5 25/55/5
f 25/55/6 30/68/6 19/37/6
f 19/37/5 30/68/5 25/55/5
f 30/69/9 14/70/23 19/71/23
f 19/71/24 14/70/24 30/69/10
f 26/59/5 31/72/5 20/39/5
f 20/39/6 31/72/6 26/59/6
f 14/70/23 30/69/9 26/73/9
f 26/73/10 30/69/10 14/70/24
f 20/74/27 28/75/27 24/76/27
f 24/76/28 28/75/28 20/74/28
f 23/63/25 27/62/25 32/77/25
f 32/77/26 27/62/26 23/63/26
f 18/54/5 29/67/5 27/78/5
f 27/78/6 29/67/6 18/54/6
f 28/65/6 23/66/6 33/79/6
f 33/79/5 23/66/5 28/65/5
f 24/80/29 33/81/29 29/82/29
f 29/82/30 33/81/30 24/80/30
f 28/75/27 20/74/27 25/83/27
f 25/83/28 20/74/28 28/75/28
f 34/84/6 30/68/6 25/55/6
f 25/55/5 30/68/5 34/84/5
f 35/85/5 31/72/5 26/59/5
f 26/59/6 31/72/6 35/85/6
f 31/86/31 25/87/31 20/88/31
f 20/88/32 25/87/32 31/86/32
f 36/89/33 26/90/9 30/91/9
f 30/91/10 26/90/10 36/89/34
f 33/81/29 24/80/29 28/92/29
f 28/92/30 24/80/30 33/81/30
f 29/93/35 32/94/35 27/95/35
f 27/95/36 32/94/36 29/93/36
f 33/79/6 23/66/6 32/96/6
f 32/96/5 23/66/5 33/79/5
f 32/94/35 29/93/35 33/97/35
f 33/97/36 29/93/36 32/94/36
f 34/84/6 36/98/6 30/68/6
f 30/68/5 36/98/5 34/84/5
f 25/87/31 31/86/31 34/99/31
f 34/99/32 31/86/32 25/87/32
f 37/100/5 31/72/5 35/85/5
f 35/85/6 31/72/6 37/100/6
f 26/90/9 36/89/33 35/101/33
f 35/101/34 36/89/34 26/90/10
f 34/84/6 38/102/6 36/98/6
f 36/98/5 38/102/5 34/84/5
f 39/103/37 34/104/37 31/105/37
f 31/105/38 34/104/38 39/103/38
f 40/106/5 31/72/5 37/100/5
f 37/100/6 31/72/6 40/106/6
f 35/107/33 38/108/39 37/109/39
f 37/109/40 38/108/40 35/107/34
f 38/108/39 35/107/33 36/110/33
f 36/110/34 35/107/34 38/108/40
f 34/84/6 41/111/6 38/102/6
f 38/102/5 41/111/5 34/84/5
f 34/104/37 39/103/37 42/112/37
f 42/112/38 39/103/38 34/104/38
f 40/106/5 39/113/5 31/72/5
f 31/72/6 39/113/6 40/106/6
f 37/114/39 41/115/41 40/116/41
f 40/116/42 41/115/42 37/114/40
f 41/115/41 37/114/39 38/117/39
f 38/117/40 37/114/40 41/115/42
f 42/118/6 41/111/6 34/84/6
f 34/84/5 41/111/5 42/118/5
f 43/119/43 42/120/43 39/121/43
f 39/121/44 42/120/44 43/119/44
f 44/122/5 39/113/5 40/106/5
f 40/106/6 39/113/6 44/122/6
f 45/123/45 40/124/41 41/125/41
f 41/125/42 40/124/42 45/123/46
f 42/118/6 45/126/6 41/111/6
f 41/111/5 45/126/5 42/118/5
f 42/120/43 43/119/43 46/127/43
f 46/127/44 43/119/44 42/120/44
f 44/122/5 43/128/5 39/113/5
f 39/113/6 43/128/6 44/122/6
f 40/124/41 45/123/45 44/129/45
f 44/129/46 45/123/46 40/124/42
f 46/130/6 45/126/6 42/118/6
f 42/118/5 45/126/5 46/130/5
f 43/131/47 47/132/47 46/133/47
f 46/133/48 47/132/48 43/131/48
f 48/134/5 43/128/5 44/122/5
f 44/122/6 43/128/6 48/134/6
f 49/135/49 44/136/45 45/137/45
f 45/137/46 44/136/46 49/135/50
f 46/130/6 49/138/6 45/126/6
f 45/126/5 49/138/5 46/130/5
f 47/132/47 43/131/47 50/139/47
f 50/139/48 43/131/48 47/132/48
f 51/140/6 46/130/6 47/141/6
f 47/141/5 46/130/5 51/140/5
f 52/142/5 43/128/5 48/134/5
f 48/134/6 43/128/6 52/142/6
f 44/136/45 49/135/49 48/143/49
f 48/143/50 49/135/50 44/136/46
f 46/130/6 51/140/6 49/138/6
f 49/138/5 51/140/5 46/130/5
f 43/128/5 52/142/5 50/144/5
f 50/144/6 52/142/6 43/128/6
f 52/145/9 47/146/9 50/147/9
f 50/147/10 47/146/10 52/145/10
f 47/146/9 52/145/9 51/148/9
f 51/148/10 52/145/10 47/146/10
f 48/149/49 51/150/51 52/151/51
f 52/151/52 51/150/52 48/149/50
f 51/150/51 48/149/49 49/152/49
f 49/152/50 48/149/50 51/150/52
