# SSTK version 0.8.0
# 18
mtllib original-18.mtl
o mesh16/mesh16-geometry#mesh16-geometry
v 0.155517 -0.605372 -0.177876
v 0.185764 -0.596910 -0.177876
v 0.155519 -0.607594 -0.192241
v 0.185764 -0.591076 -0.164917
v 0.185764 -0.598921 -0.192241
v 0.155512 -0.598921 -0.164917
v 0.155517 -0.605372 -0.206607
v 0.185764 -0.581988 -0.154632
v 0.185764 -0.596910 -0.206607
v 0.155504 -0.588874 -0.154632
v 0.155512 -0.598921 -0.219566
v 0.185764 -0.570537 -0.148029
v 0.185764 -0.591076 -0.219566
v 0.155494 -0.576213 -0.148029
v 0.155504 -0.588874 -0.229851
v 0.185764 -0.557843 -0.145754
v 0.185764 -0.581988 -0.229851
v 0.155483 -0.562180 -0.145754
v 0.155494 -0.576214 -0.236454
v 0.185764 -0.545149 -0.148029
v 0.185764 -0.570537 -0.236454
v 0.155472 -0.548145 -0.148029
v 0.155483 -0.562180 -0.238729
v 0.185764 -0.533698 -0.154632
v 0.185764 -0.557843 -0.238729
v 0.155462 -0.535485 -0.154632
v 0.155472 -0.548146 -0.236454
v 0.185764 -0.524610 -0.164917
v 0.185764 -0.545149 -0.236454
v 0.155454 -0.525438 -0.164917
v 0.155462 -0.535485 -0.229851
v 0.185764 -0.518775 -0.177876
v 0.185764 -0.533698 -0.229851
v 0.155449 -0.518987 -0.177876
v 0.155454 -0.525438 -0.219566
v 0.185764 -0.516765 -0.192241
v 0.185764 -0.524610 -0.219566
v 0.155448 -0.516765 -0.192241
v 0.155449 -0.518987 -0.206607
v 0.185764 -0.518775 -0.206607
vn -0.24880297381858885 0.9108209041547767 -0.32939696533772383
vn -0.2643848894560741 0.937076608191953 -0.22800890466550672
vn -0.2732960711989651 0.9608792503278144 -0.04494801170983506
vn -0.22330807502571984 0.837722281452953 -0.4983521674333993
vn -0.27323303421492573 0.9606711202976469 0.04954500620414992
vn -0.19432497565934087 0.7784429024941941 -0.5968789252364427
vn -0.26359495260180965 0.934251832007989 0.24018995681036687
vn -0.15641202502686447 0.6527621044458616 -0.7412401186028759
vn -0.24911008395447184 0.9123163074666131 0.3249971095297318
vn -0.12121995785497969 0.5599778053103104 -0.8195917150493196
vn -0.2211419781360254 0.8296969179691143 0.5125419493257488
vn -0.0784340187417718 0.38248109139367653 -0.9206282199836792
vn -0.19584298975839112 0.7857289589103053 0.5867499693159112
vn -0.04799298235744698 0.26864590124390436 -0.962042646346454
vn -0.15376505808091756 0.6425542427088472 0.7506532835405652
vn -0.010383003679482772 0.054048019153297204 -0.9984843538384548
vn -0.12368999882407918 0.5731169945513768 0.810084992298522
vn 0.006132997654392566 -0.05953097723196539 -0.998207618228582
vn -0.07700899352023252 0.3774779682378726 0.9228109223519239
vn 0.03057398790840292 -0.28237888832298386 -0.9588156208014409
vn -0.05022798974721264 0.28192494245207694 0.9581208044236108
vn 0.031226987843663886 -0.3786948525780989 -0.9249946399093691
vn -0.010914997764363098 0.059513987810197476 0.9981677955527977
vn 0.04080800133236085 -0.5776540188601151 -0.8152610266178653
vn 0.005104001352864226 -0.05406701433097767 0.9985242646683773
vn 0.03072899164242217 -0.6505718230594514 -0.7588227936176811
vn 0.02900099626459942 -0.26901996534955813 0.9626978760021148
vn 0.029897001806571233 -0.8014030484259826 -0.5973770360974046
vn 0.031239016705349797 -0.38376920522409125 0.922900493529477
vn 0.01711599740476142 -0.8511188709478343 -0.5246939204425034
vn 0.03949302108606021 -0.5641673012194397 0.8247154403309483
vn 0.012835996515232793 -0.9421257442279691 -0.3350139090490962
vn 0.03101200888940755 -0.6610981894998567 0.7496582148850602
vn 0.004448998859352471 -0.9686337516588046 -0.24845293630089896
vn 0.029303993174368183 -0.7937048151263274 0.6075968584755181
vn 0.0023319992387702765 -0.9986736740050031 -0.051433983210510466
vn 0.01725699719162239 -0.8596618600999297 0.5105719169102988
vn 0.0023289995043959447 -0.9989077874354421 0.04666699006940556
vn 0.012705004279185915 -0.9405173167766312 0.3395081143500867
vn 0.004472000900640948 -0.9717361957033167 0.23602704753479
vn 0.2732960711989651 -0.9608792503278144 0.04494801170983506
vn 0.2643848894560741 -0.937076608191953 0.22800890466550672
vn 0.24880297381858885 -0.9108209041547767 0.32939696533772383
vn 0.22330807502571984 -0.837722281452953 0.4983521674333993
vn 0.27323303421492573 -0.9606711202976469 -0.04954500620414992
vn 0.19432497565934087 -0.7784429024941941 0.5968789252364427
vn 0.26359495260180965 -0.934251832007989 -0.24018995681036687
vn 0.15641202502686447 -0.6527621044458616 0.7412401186028759
vn 0.24911008395447184 -0.9123163074666131 -0.3249971095297318
vn 0.12121995785497969 -0.5599778053103104 0.8195917150493196
vn 0.2211419781360254 -0.8296969179691143 -0.5125419493257488
vn 0.0784340187417718 -0.38248109139367653 0.9206282199836792
vn 0.19584298975839112 -0.7857289589103053 -0.5867499693159112
vn 0.04799298235744698 -0.26864590124390436 0.962042646346454
vn 0.15376505808091756 -0.6425542427088472 -0.7506532835405652
vn 0.010383003679482772 -0.054048019153297204 0.9984843538384548
vn 0.12368999882407918 -0.5731169945513768 -0.810084992298522
vn -0.006132997654392566 0.05953097723196539 0.998207618228582
vn 0.07700899352023252 -0.3774779682378726 -0.9228109223519239
vn -0.03057398790840292 0.28237888832298386 0.9588156208014409
vn 0.05022798974721264 -0.28192494245207694 -0.9581208044236108
vn -0.031226987843663886 0.3786948525780989 0.9249946399093691
vn 0.010914997764363098 -0.059513987810197476 -0.9981677955527977
vn -0.04080800133236085 0.5776540188601151 0.8152610266178653
vn -0.005104001352864226 0.05406701433097767 -0.9985242646683773
vn -0.03072899164242217 0.6505718230594514 0.7588227936176811
vn -0.02900099626459942 0.26901996534955813 -0.9626978760021148
vn -0.029897001806571233 0.8014030484259826 0.5973770360974046
vn -0.031239016705349797 0.38376920522409125 -0.922900493529477
vn -0.01711599740476142 0.8511188709478343 0.5246939204425034
vn -0.03949302108606021 0.5641673012194397 -0.8247154403309483
vn -0.012835996515232793 0.9421257442279691 0.3350139090490962
vn -0.03101200888940755 0.6610981894998567 -0.7496582148850602
vn -0.004448998859352471 0.9686337516588046 0.24845293630089896
vn -0.029303993174368183 0.7937048151263274 -0.6075968584755181
vn -0.0023319992387702765 0.9986736740050031 0.051433983210510466
vn -0.01725699719162239 0.8596618600999297 -0.5105719169102988
vn -0.0023289995043959447 0.9989077874354421 -0.04666699006940556
vn -0.012705004279185915 0.9405173167766312 -0.3395081143500867
vn -0.004472000900640948 0.9717361957033167 -0.23602704753479
usemtl material_0_0
f 1//1 2//2 3//3
f 4//4 2//2 1//1
f 2//2 5//5 3//3
f 6//6 4//4 1//1
f 3//3 5//5 7//7
f 8//8 4//4 6//6
f 5//5 9//9 7//7
f 10//10 8//8 6//6
f 7//7 9//9 11//11
f 8//8 10//10 12//12
f 9//9 13//13 11//11
f 12//12 10//10 14//14
f 11//11 13//13 15//15
f 12//12 14//14 16//16
f 13//13 17//17 15//15
f 16//16 14//14 18//18
f 17//17 19//19 15//15
f 16//16 18//18 20//20
f 17//17 21//21 19//19
f 20//20 18//18 22//22
f 21//21 23//23 19//19
f 24//24 20//20 22//22
f 25//25 23//23 21//21
f 24//24 22//22 26//26
f 25//25 27//27 23//23
f 26//26 28//28 24//24
f 25//25 29//29 27//27
f 26//26 30//30 28//28
f 29//29 31//31 27//27
f 30//30 32//32 28//28
f 33//33 31//31 29//29
f 30//30 34//34 32//32
f 35//35 31//31 33//33
f 34//34 36//36 32//32
f 35//35 33//33 37//37
f 34//34 38//38 36//36
f 39//39 35//35 37//37
f 38//38 40//40 36//36
f 39//39 37//37 40//40
f 38//38 39//39 40//40
usemtl material_1_0
f 3//41 2//42 1//43
f 1//43 2//42 4//44
f 3//41 5//45 2//42
f 1//43 4//44 6//46
f 7//47 5//45 3//41
f 6//46 4//44 8//48
f 7//47 9//49 5//45
f 6//46 8//48 10//50
f 11//51 9//49 7//47
f 12//52 10//50 8//48
f 11//51 13//53 9//49
f 14//54 10//50 12//52
f 15//55 13//53 11//51
f 16//56 14//54 12//52
f 15//55 17//57 13//53
f 18//58 14//54 16//56
f 15//55 19//59 17//57
f 20//60 18//58 16//56
f 19//59 21//61 17//57
f 22//62 18//58 20//60
f 19//59 23//63 21//61
f 22//62 20//60 24//64
f 21//61 23//63 25//65
f 26//66 22//62 24//64
f 23//63 27//67 25//65
f 24//64 28//68 26//66
f 27//67 29//69 25//65
f 28//68 30//70 26//66
f 27//67 31//71 29//69
f 28//68 32//72 30//70
f 29//69 31//71 33//73
f 32//72 34//74 30//70
f 33//73 31//71 35//75
f 32//72 36//76 34//74
f 37//77 33//73 35//75
f 36//76 38//78 34//74
f 37//77 35//75 39//79
f 36//76 40//80 38//78
f 40//80 37//77 39//79
f 40//80 39//79 38//78
