# SSTK version 0.8.0
# 24
mtllib original-24.mtl
o mesh43/mesh43-geometry#mesh43-geometry
v 0.337664 0.138638 0.409807
v 0.337680 0.117927 0.409499
v 0.337680 0.117927 0.409807
v 0.337664 0.138638 0.409499
v 0.323961 0.138627 0.409492
v 0.341680 0.111420 0.409810
v 0.341658 0.138642 0.409810
v 0.341680 0.111420 0.409502
v 0.323961 0.138627 0.409800
v 0.337535 0.111417 0.409499
v 0.337534 0.111417 0.409807
v 0.341658 0.138642 0.409502
v 0.319588 0.138624 0.409489
v 0.323587 0.132432 0.409491
v 0.319588 0.138624 0.409797
v 0.323586 0.132432 0.409799
v 0.319610 0.111402 0.409489
v 0.319610 0.111402 0.409797
v 0.323603 0.111405 0.409491
v 0.323603 0.111405 0.409800
vt 31.793943 535.034517
vt 31.920426 535.028704
vt 31.920426 535.034517
vt 31.793943 535.028704
vt -66.137518 535.028704
vt -66.288115 535.034517
vt -66.288115 535.028704
vt 72.735784 -31.920426
vt 72.759611 -31.960188
vt 72.735784 -31.793943
vt -72.759611 535.034517
vt -72.735784 535.028704
vt -72.735784 535.034517
vt -72.759611 -31.960188
vt -72.735784 -31.920426
vt -72.735784 -31.793943
vt -66.137518 535.034517
vt -72.734883 -31.960188
vt -72.654045 -31.793943
vt 72.734883 -31.960188
vt 72.759611 -31.793943
vt -72.759611 535.028704
vt -72.759611 -31.793943
vt -72.627961 535.028704
vt -72.654045 535.034517
vt -72.654045 535.028704
vt 72.654045 -31.793943
vt -72.651782 -31.83178
vt 72.734883 535.028704
vt 72.759611 535.034517
vt 72.734883 535.034517
vt -31.960188 535.034517
vt -31.793943 535.028704
vt -31.793943 535.034517
vt 72.759611 535.028704
vt -31.960188 535.028704
vt -72.627961 535.034517
vt -72.627961 -31.793943
vt 72.651782 -31.83178
vt 66.349426 535.028704
vt 66.196474 535.034517
vt 66.196474 535.028704
vt 66.349426 535.034517
vt 31.960188 535.028704
vt 72.627961 -31.960188
vt 72.627961 -31.793943
vt -72.651782 -31.960188
vt -31.83178 535.028704
vt -31.83178 535.034517
vt 31.960188 535.034517
vt -72.627961 -31.960188
vt 72.651782 -31.960188
vt 72.651782 535.028704
vt 72.627961 535.034517
vt 72.627961 535.028704
vt 72.651782 535.034517
vn -0.9999995219762342 -0.0007978225805097954 -0.0005652666921226232
vn 0.8335456234664418 0.5524504246070608 0.0004711172031419714
vn -0.0005652669567531929 1.0619960539759596e-7 0.9999998402366155
vn -0.0007978223930158204 0.9999996817395087 -5.571822967907938e-7
vn 0.0005652669567531929 -1.0619960539759596e-7 -0.9999998402366155
vn 0.0007978223930158204 -0.9999996817395087 5.571822967907938e-7
vn 0.9999995219762342 0.0007978225805097954 0.0005652666921226232
vn -0.8331833260292064 -0.5529966758204495 -0.00047091235032779453
vn -0.8335456234664418 -0.5524504246070608 -0.0004711172031419714
vn 0.8331833260292064 0.5529966758204495 0.00047091235032779453
usemtl material_0_0
f 1/1/1 2/2/1 3/3/1
f 2/2/1 1/1/1 4/4/1
f 5/5/2 3/6/2 2/7/2
f 3/8/3 6/9/3 1/10/3
f 7/11/4 4/12/4 1/13/4
f 8/14/5 2/15/5 4/16/5
f 3/6/2 5/5/2 9/17/2
f 10/18/5 5/19/5 2/15/5
f 3/8/3 11/20/3 6/9/3
f 1/10/3 6/9/3 7/21/3
f 4/12/4 7/11/4 12/22/4
f 10/18/5 2/15/5 8/14/5
f 8/14/5 4/16/5 12/23/5
f 13/24/4 9/25/4 5/26/4
f 9/27/3 11/20/3 3/8/3
f 14/28/5 5/19/5 10/18/5
f 10/29/6 6/30/6 11/31/6
f 6/32/7 12/33/7 7/34/7
f 6/30/6 10/29/6 8/35/6
f 12/33/7 6/32/7 8/36/7
f 9/25/4 13/24/4 15/37/4
f 5/19/5 14/28/5 13/38/5
f 9/27/3 16/39/3 11/20/3
f 10/40/8 16/41/8 14/42/8
f 16/41/8 10/40/8 11/43/8
f 17/44/1 15/1/1 13/4/1
f 18/45/3 9/27/3 15/46/3
f 19/47/5 13/38/5 14/28/5
f 9/27/3 18/45/3 16/39/3
f 20/32/7 14/48/7 16/49/7
f 15/1/1 17/44/1 18/50/1
f 13/38/5 19/47/5 17/51/5
f 14/48/7 20/32/7 19/36/7
f 20/52/3 16/39/3 18/45/3
f 19/53/6 18/54/6 17/55/6
f 18/54/6 19/53/6 20/56/6
usemtl material_1_0
f 3//7 2//7 1//7
f 4//7 1//7 2//7
f 2//9 3//9 5//9
f 1//5 6//5 3//5
f 1//6 4//6 7//6
f 4//3 2//3 8//3
f 9//9 5//9 3//9
f 2//3 5//3 10//3
f 6//5 11//5 3//5
f 7//5 6//5 1//5
f 12//6 7//6 4//6
f 8//3 2//3 10//3
f 12//3 4//3 8//3
f 5//6 9//6 13//6
f 3//5 11//5 9//5
f 10//3 5//3 14//3
f 11//4 6//4 10//4
f 7//1 12//1 6//1
f 8//4 10//4 6//4
f 8//1 6//1 12//1
f 15//6 13//6 9//6
f 13//3 14//3 5//3
f 11//5 16//5 9//5
f 14//10 16//10 10//10
f 11//10 10//10 16//10
f 13//7 15//7 17//7
f 15//5 9//5 18//5
f 14//3 13//3 19//3
f 16//5 18//5 9//5
f 16//1 14//1 20//1
f 18//7 17//7 15//7
f 17//3 19//3 13//3
f 19//1 20//1 14//1
f 18//5 16//5 20//5
f 17//4 18//4 19//4
f 20//4 19//4 18//4
