# SSTK version 0.8.0
# 11
mtllib original-11.mtl
o mesh21/mesh21-geometry#mesh21-geometry
v 0.064556 0.577129 0.095956
v 0.027913 0.591613 0.108791
v 0.030765 0.596355 0.095598
v 0.061691 0.572366 0.109211
v 0.031010 0.596355 0.067231
v 0.031821 0.597972 0.081423
v 0.105023 0.554755 0.096537
v 0.023460 0.584071 0.120102
v 0.028387 0.591613 0.053991
v 0.065618 0.578754 0.081715
v 0.102112 0.549915 0.110005
v 0.057218 0.564788 0.120575
v 0.064803 0.577129 0.067458
v 0.145388 0.533077 0.097264
v 0.106101 0.556406 0.082065
v 0.017710 0.574242 0.128762
v 0.024131 0.584071 0.042604
v 0.062168 0.572366 0.054155
v 0.142401 0.528110 0.111084
v 0.097566 0.542215 0.121553
v 0.051441 0.554913 0.129275
v 0.018532 0.574242 0.033846
v 0.105273 0.554755 0.067578
v 0.146495 0.534771 0.082415
v 0.091696 0.532181 0.130394
v 0.011055 0.562796 0.134179
v 0.011971 0.562796 0.028314
v 0.052266 0.554913 0.033917
v 0.057892 0.564788 0.042715
v 0.102596 0.549915 0.054061
v 0.137737 0.520209 0.122933
v 0.131713 0.509913 0.132005
v 0.044754 0.543414 0.134718
v 0.045675 0.543414 0.028359
v 0.145645 0.533077 0.067549
v 0.084901 0.520495 0.135924
v 0.003947 0.550512 0.135985
v 0.004895 0.550512 0.026386
v 0.092535 0.532181 0.033495
v 0.098251 0.542215 0.042436
v 0.142898 0.528110 0.053679
v 0.124741 0.497922 0.137680
v 0.077645 0.507955 0.137768
v 0.037613 0.531073 0.136532
v 0.038566 0.531073 0.026421
v 0.085837 0.520495 0.027848
v -0.003128 0.538229 0.134056
v 0.031425 0.518732 0.028236
v 0.078613 0.507955 0.025879
v 0.132574 0.509913 0.032577
v 0.125701 0.497922 0.026782
v 0.138439 0.520209 0.041751
v 0.117296 0.485055 0.139571
v 0.030505 0.518732 0.134594
v -0.002212 0.538229 0.028192
v 0.071357 0.495415 0.027723
v 0.118289 0.485055 0.024762
v 0.070422 0.495415 0.135799
v -0.009689 0.526782 0.128525
v 0.024739 0.507232 0.033678
v 0.064562 0.483730 0.033253
v 0.110844 0.472187 0.026654
v 0.109884 0.472187 0.137551
v 0.023913 0.507232 0.129037
v -0.008868 0.526782 0.033609
v 0.063724 0.483730 0.130152
v 0.018288 0.497357 0.120238
v -0.015289 0.516953 0.119767
v 0.018962 0.497357 0.042378
v 0.058692 0.473695 0.042093
v 0.103872 0.460197 0.032329
v 0.103011 0.460197 0.131756
v -0.014618 0.516953 0.042269
v 0.097848 0.449900 0.041400
v 0.097146 0.449900 0.122582
v 0.058007 0.473695 0.121211
v 0.014012 0.489780 0.108798
v -0.019071 0.509411 0.053580
v 0.014488 0.489780 0.053743
v 0.054147 0.465995 0.053642
v 0.093184 0.442000 0.053249
v 0.053662 0.465995 0.109586
v -0.019545 0.509411 0.108380
v 0.092687 0.442000 0.110654
v 0.011377 0.485016 0.095496
v 0.050985 0.461155 0.096069
v -0.022168 0.504670 0.095140
v 0.011624 0.485016 0.066997
v 0.051235 0.461155 0.067110
v 0.090197 0.437033 0.067069
v 0.089940 0.437033 0.096784
v -0.021922 0.504670 0.066773
v 0.010562 0.483392 0.081239
v 0.089090 0.435339 0.081918
v -0.022979 0.503053 0.080948
v 0.050157 0.459504 0.081581
vn -0.4694927409190691 -0.8428969961829854 -0.2628711091961233
vn 0.0661741463188882 -0.8997750314989437 -0.4313071701815784
vn 0.021229212367918738 -0.9745018099217592 -0.2233731026812611
vn -0.4174615054546306 -0.7563879683234843 -0.5035902429942672
vn 0.017359824394957996 -0.974501809921759 0.2237070829370223
vn 0.0045799830071684205 -0.9999895110371998 0.0000396388203602542
vn -0.45842427985863354 -0.8490170171379311 -0.26271140867176496
vn 0.13635073187601704 -0.7809026736400154 -0.6095896096709245
vn 0.05869904115824073 -0.8997750314989437 0.43238792219276667
vn -0.48876759850780305 -0.8724037713076875 -0.0042301840432126155
vn -0.4064055614516837 -0.762528824460373 -0.5033729347990648
vn -0.3362195455916663 -0.618771803618213 -0.7099844168777206
vn -0.4739722620505134 -0.8428969961829852 0.2547056117018622
vn -0.4528633994612433 -0.8520252214840094 -0.2626171422118732
vn -0.47769432360619907 -0.8785163859419143 -0.004134347103657128
vn 0.22697674843541757 -0.6259852995829688 -0.746072355992169
vn 0.12577934899454546 -0.7809026736400151 0.6118582921464613
vn -0.42611525894112795 -0.7563879683234841 0.4962892578658211
vn -0.40085418378003024 -0.765552823617698 -0.5032343366633634
vn -0.3251833391653963 -0.6249461132211692 -0.7097169516779183
vn -0.23130342785090238 -0.43942696717054786 -0.8679877100441667
vn 0.2140295059865161 -0.6259852995829684 0.7498891753273874
vn -0.4629026948991185 -0.849017017137931 0.2547375113039767
vn -0.4721300528240375 -0.8815194361305723 -0.004086189473023111
vn -0.22029272777246275 -0.445644854550521 -0.8676818412893129
vn 0.33187701528554936 -0.4455789285234835 -0.831454788416676
vn 0.3174362343624598 -0.4455789285234829 0.8370744623805259
vn -0.2462921670989186 -0.43942696717054724 0.863854217416928
vn -0.3908206046501507 -0.6934036250248176 0.6053516893371427
vn -0.4150572098815343 -0.7625288244603728 0.4962633417777684
vn -0.31964676774227696 -0.6279952030417483 -0.7095406745412614
vn -0.21477531476447526 -0.44872668191881165 -0.8674767599780149
vn -0.10986329469935445 -0.23057594896438943 -0.966832347533415
vn -0.1265810579237 -0.23057594896438852 0.9647859698057848
vn -0.3001327792458282 -0.53355483346657 0.790720908100093
vn -0.4573410159285715 -0.8520252214840092 0.2547395083306613
vn -0.09888166796766912 -0.23684381258181 -0.9665026767586545
vn 0.4439018535887847 -0.2519804334134438 -0.8599168596772679
vn 0.4289516614075147 -0.25198043341344306 0.8674712291208891
vn -0.23527782235389733 -0.4456448545505204 0.863738970940326
vn -0.37986683543192035 -0.6995081895518706 0.605301148263245
vn -0.4095042649074384 -0.7655528236176979 0.49622084929352617
vn -0.09338661889820159 -0.23996410161303025 -0.9662795503102678
vn 0.030775246571468688 -0.012773538652039635 -0.9994447062788268
vn 0.019825655653633253 -0.006450340321941851 -0.9997826446221373
vn 0.0025181515486149405 -0.006450340321940962 0.9999760257238718
vn -0.28920083164979465 -0.5396978597515556 0.790625764285896
vn -0.11559537019783961 -0.23684381258180914 0.964646421664714
vn 0.5554169447496392 -0.058381744373391796 -0.829520095843914
vn 0.13220709941898467 0.21767526975389984 0.967025728613663
vn 0.013471951357109314 -0.012773538652038749 0.9998276567673734
vn -0.2297576862450677 -0.44872668191881104 0.8636294173691904
vn -0.11009728234683777 -0.23996410161302945 0.9645184385779736
vn -0.37436816045213805 -0.7025190322029605 0.6052400266276989
vn 0.03624718814936632 -0.015933789574023888 -0.9992158203817008
vn 0.14892486264333027 0.217675269753899 -0.9645925887255368
vn 0.5409761638265496 -0.058381744373391053 0.839009154953288
vn 0.1431288867606331 0.21129672323122684 0.9668856274277782
vn -0.2837182701748924 -0.5427371036901818 0.7905317067942056
vn 0.018947034864283577 -0.015933789574023 0.9996935151433476
vn 0.1598425889908036 0.211296723231226 -0.9642634709955903
vn 0.658824008095905 0.12202443328372897 -0.7423348058916756
vn 0.25364723600559624 0.4265262859767499 0.8681810911541445
vn 0.264539968723386 0.4200977524065605 0.8680647921502093
vn 0.14858083995130533 0.20809652359694714 0.9667572450549465
vn 0.1652915033999415 0.20809652359694628 -0.9640407438332949
vn 0.2686359752536125 0.42652628597674935 -0.8636608363069502
vn 0.6458767656470032 0.12202443328372958 0.7536267254278808
vn 0.2795250633048206 0.4200977524065599 -0.8633560200794297
vn 0.3708015956045149 0.6058711300269958 -0.7038652928628863
vn 0.7470743336615446 0.2769417100111197 -0.6043039212517787
vn 0.358563340578791 0.6058711300269961 0.7101777978737357
vn 0.3694305870475906 0.5993990070752894 0.7100999025988033
vn 0.2699695596075192 0.41685909016709166 0.8679544549285905
vn 0.22659188727893745 0.3154500568663472 -0.9214919306442068
vn 0.7365029507800728 0.2769417100111202 0.617143980565607
vn 0.37484103059956614 0.596127600889114 0.7100183696477466
vn 0.38707408779993574 0.5961276008891137 -0.7034241494376187
vn 0.33844113294650474 0.5111416745788635 -0.7900580915594761
vn 0.38166586592768714 0.5993990070752889 -0.703599315735047
vn 0.44845906984590317 0.7434872855418672 -0.496095876732042
vn 0.8066794479227408 0.3958141189180508 0.4388615403110518
vn 0.4398053163594059 0.7434872855418673 0.5037836241280464
vn 0.4506528078459205 0.7369817191735977 0.5037558857070719
vn 0.45604843541062123 0.7336852279470409 0.503712031672684
vn 0.45930445627577104 0.7369817191735974 -0.49588039086976127
vn 0.8141545530833887 0.3958141189180506 -0.42483355206329326
vn 0.4646985165380295 0.7336852279470407 -0.49574315428420557
vn 0.4963160715334207 0.8299963142223146 -0.254512230580389
vn 0.5071499231201776 0.8234699223438331 -0.2543545605532548
vn 0.8554934935573263 0.47054105686249875 -0.21615271519877682
vn 0.4918365504019765 0.8299963142223147 0.26306449031759643
vn 0.5026715080796926 0.8234699223438332 0.2630943594224869
vn 0.5080576322707215 0.8201576366801291 0.2630948370583009
vn 0.5125352487380497 0.8201576366801289 -0.2542618134842336
vn 0.8516241055843654 0.47054105686249886 0.23092747041950656
vn 0.5111114112102138 0.8595030874881667 0.004423565192549918
vn 0.5273242894127861 0.8496518491446483 0.004563884352159632
vn 0.8682736923078895 0.4960285516468081 0.007514732010787238
vn 0.5219415324213923 0.8529693023522129 0.004517297686425238
vn -0.021229212367918738 0.9745018099217592 0.2233731026812611
vn -0.0661741463188882 0.8997750314989437 0.4313071701815784
vn 0.4694927409190691 0.8428969961829854 0.2628711091961233
vn 0.4174615054546306 0.7563879683234843 0.5035902429942672
vn -0.017359824394957996 0.974501809921759 -0.2237070829370223
vn -0.0045799830071684205 0.9999895110371998 -0.0000396388203602542
vn 0.45842427985863354 0.8490170171379311 0.26271140867176496
vn -0.13635073187601704 0.7809026736400154 0.6095896096709245
vn -0.05869904115824073 0.8997750314989437 -0.43238792219276667
vn 0.48876759850780305 0.8724037713076875 0.0042301840432126155
vn 0.4064055614516837 0.762528824460373 0.5033729347990648
vn 0.3362195455916663 0.618771803618213 0.7099844168777206
vn 0.4739722620505134 0.8428969961829852 -0.2547056117018622
vn 0.4528633994612433 0.8520252214840094 0.2626171422118732
vn 0.47769432360619907 0.8785163859419143 0.004134347103657128
vn -0.22697674843541757 0.6259852995829688 0.746072355992169
vn -0.12577934899454546 0.7809026736400151 -0.6118582921464613
vn 0.42611525894112795 0.7563879683234841 -0.4962892578658211
vn 0.40085418378003024 0.765552823617698 0.5032343366633634
vn 0.3251833391653963 0.6249461132211692 0.7097169516779183
vn 0.23130342785090238 0.43942696717054786 0.8679877100441667
vn -0.2140295059865161 0.6259852995829684 -0.7498891753273874
vn 0.4629026948991185 0.849017017137931 -0.2547375113039767
vn 0.4721300528240375 0.8815194361305723 0.004086189473023111
vn 0.22029272777246275 0.445644854550521 0.8676818412893129
vn -0.33187701528554936 0.4455789285234835 0.831454788416676
vn -0.3174362343624598 0.4455789285234829 -0.8370744623805259
vn 0.2462921670989186 0.43942696717054724 -0.863854217416928
vn 0.3908206046501507 0.6934036250248176 -0.6053516893371427
vn 0.4150572098815343 0.7625288244603728 -0.4962633417777684
vn 0.31964676774227696 0.6279952030417483 0.7095406745412614
vn 0.21477531476447526 0.44872668191881165 0.8674767599780149
vn 0.10986329469935445 0.23057594896438943 0.966832347533415
vn 0.1265810579237 0.23057594896438852 -0.9647859698057848
vn 0.3001327792458282 0.53355483346657 -0.790720908100093
vn 0.4573410159285715 0.8520252214840092 -0.2547395083306613
vn 0.09888166796766912 0.23684381258181 0.9665026767586545
vn -0.4439018535887847 0.2519804334134438 0.8599168596772679
vn -0.4289516614075147 0.25198043341344306 -0.8674712291208891
vn 0.23527782235389733 0.4456448545505204 -0.863738970940326
vn 0.37986683543192035 0.6995081895518706 -0.605301148263245
vn 0.4095042649074384 0.7655528236176979 -0.49622084929352617
vn 0.09338661889820159 0.23996410161303025 0.9662795503102678
vn -0.030775246571468688 0.012773538652039635 0.9994447062788268
vn -0.019825655653633253 0.006450340321941851 0.9997826446221373
vn -0.0025181515486149405 0.006450340321940962 -0.9999760257238718
vn 0.28920083164979465 0.5396978597515556 -0.790625764285896
vn 0.11559537019783961 0.23684381258180914 -0.964646421664714
vn -0.5554169447496392 0.058381744373391796 0.829520095843914
vn -0.13220709941898467 -0.21767526975389984 -0.967025728613663
vn -0.013471951357109314 0.012773538652038749 -0.9998276567673734
vn 0.2297576862450677 0.44872668191881104 -0.8636294173691904
vn 0.11009728234683777 0.23996410161302945 -0.9645184385779736
vn 0.37436816045213805 0.7025190322029605 -0.6052400266276989
vn -0.03624718814936632 0.015933789574023888 0.9992158203817008
vn -0.14892486264333027 -0.217675269753899 0.9645925887255368
vn -0.5409761638265496 0.058381744373391053 -0.839009154953288
vn -0.1431288867606331 -0.21129672323122684 -0.9668856274277782
vn 0.2837182701748924 0.5427371036901818 -0.7905317067942056
vn -0.018947034864283577 0.015933789574023 -0.9996935151433476
vn -0.1598425889908036 -0.211296723231226 0.9642634709955903
vn -0.658824008095905 -0.12202443328372897 0.7423348058916756
vn -0.25364723600559624 -0.4265262859767499 -0.8681810911541445
vn -0.264539968723386 -0.4200977524065605 -0.8680647921502093
vn -0.14858083995130533 -0.20809652359694714 -0.9667572450549465
vn -0.1652915033999415 -0.20809652359694628 0.9640407438332949
vn -0.2686359752536125 -0.42652628597674935 0.8636608363069502
vn -0.6458767656470032 -0.12202443328372958 -0.7536267254278808
vn -0.2795250633048206 -0.4200977524065599 0.8633560200794297
vn -0.3708015956045149 -0.6058711300269958 0.7038652928628863
vn -0.7470743336615446 -0.2769417100111197 0.6043039212517787
vn -0.358563340578791 -0.6058711300269961 -0.7101777978737357
vn -0.3694305870475906 -0.5993990070752894 -0.7100999025988033
vn -0.2699695596075192 -0.41685909016709166 -0.8679544549285905
vn -0.22659188727893745 -0.3154500568663472 0.9214919306442068
vn -0.7365029507800728 -0.2769417100111202 -0.617143980565607
vn -0.37484103059956614 -0.596127600889114 -0.7100183696477466
vn -0.33844113294650474 -0.5111416745788635 0.7900580915594761
vn -0.38707408779993574 -0.5961276008891137 0.7034241494376187
vn -0.38166586592768714 -0.5993990070752889 0.703599315735047
vn -0.44845906984590317 -0.7434872855418672 0.496095876732042
vn -0.8066794479227408 -0.3958141189180508 -0.4388615403110518
vn -0.4398053163594059 -0.7434872855418673 -0.5037836241280464
vn -0.4506528078459205 -0.7369817191735977 -0.5037558857070719
vn -0.45604843541062123 -0.7336852279470409 -0.503712031672684
vn -0.45930445627577104 -0.7369817191735974 0.49588039086976127
vn -0.8141545530833887 -0.3958141189180506 0.42483355206329326
vn -0.4646985165380295 -0.7336852279470407 0.49574315428420557
vn -0.4963160715334207 -0.8299963142223146 0.254512230580389
vn -0.5071499231201776 -0.8234699223438331 0.2543545605532548
vn -0.8554934935573263 -0.47054105686249875 0.21615271519877682
vn -0.4918365504019765 -0.8299963142223147 -0.26306449031759643
vn -0.5026715080796926 -0.8234699223438332 -0.2630943594224869
vn -0.5080576322707215 -0.8201576366801291 -0.2630948370583009
vn -0.5125352487380497 -0.8201576366801289 0.2542618134842336
vn -0.8516241055843654 -0.47054105686249886 -0.23092747041950656
vn -0.5111114112102138 -0.8595030874881667 -0.004423565192549918
vn -0.5273242894127861 -0.8496518491446483 -0.004563884352159632
vn -0.8682736923078895 -0.4960285516468081 -0.007514732010787238
vn -0.5219415324213923 -0.8529693023522129 -0.004517297686425238
usemtl material_0_0
f 1//1 2//2 3//3
f 2//2 1//1 4//4
f 2//2 5//5 3//3
f 6//6 1//1 3//3
f 7//7 4//4 1//1
f 4//4 8//8 2//2
f 2//2 9//9 5//5
f 3//3 5//5 6//6
f 1//1 6//6 10//10
f 4//4 7//7 11//11
f 10//10 7//7 1//1
f 8//8 4//4 12//12
f 8//8 9//9 2//2
f 9//9 13//13 5//5
f 5//5 10//10 6//6
f 14//14 11//11 7//7
f 11//11 12//12 4//4
f 7//7 10//10 15//15
f 12//12 16//16 8//8
f 8//8 17//17 9//9
f 13//13 9//9 18//18
f 10//10 5//5 13//13
f 11//11 14//14 19//19
f 15//15 14//14 7//7
f 12//12 11//11 20//20
f 13//13 15//15 10//10
f 16//16 12//12 21//21
f 16//16 22//22 8//8
f 8//8 22//22 17//17
f 17//17 18//18 9//9
f 18//18 23//23 13//13
f 19//19 20//20 11//11
f 14//14 15//15 24//24
f 25//25 12//12 20//20
f 15//15 13//13 23//23
f 12//12 25//25 21//21
f 21//21 26//26 16//16
f 16//16 27//27 22//22
f 28//28 17//17 22//22
f 18//18 17//17 29//29
f 23//23 18//18 30//30
f 20//20 19//19 31//31
f 23//23 24//24 15//15
f 20//20 32//32 25//25
f 25//25 33//33 21//21
f 26//26 21//21 33//33
f 26//26 27//27 16//16
f 34//34 22//22 27//27
f 17//17 28//28 29//35
f 22//22 34//34 28//28
f 29//29 30//30 18//18
f 30//30 35//36 23//23
f 32//32 20//20 31//31
f 24//24 23//23 35//36
f 32//32 36//37 25//25
f 33//33 25//25 36//37
f 33//33 37//38 26//26
f 37//38 27//27 26//26
f 38//39 34//34 27//27
f 39//40 29//35 28//28
f 34//34 39//40 28//28
f 30//30 29//29 40//41
f 35//36 30//30 41//42
f 36//37 32//32 42//43
f 43//44 33//33 36//37
f 37//38 33//33 44//45
f 37//38 38//39 27//27
f 34//34 38//39 45//46
f 29//35 39//40 40//47
f 39//40 34//34 46//48
f 40//41 41//42 30//30
f 42//43 43//44 36//37
f 33//33 43//44 44//45
f 44//45 47//49 37//38
f 47//49 38//39 37//38
f 38//39 48//50 45//46
f 49//51 34//34 45//46
f 50//52 40//47 39//40
f 34//34 49//51 46//48
f 51//53 39//40 46//48
f 41//42 40//41 52//54
f 43//44 42//43 53//55
f 43//44 54//56 44//45
f 47//49 44//45 54//56
f 47//49 55//57 38//39
f 48//50 38//39 55//57
f 56//58 45//46 48//50
f 45//46 56//58 49//51
f 40//47 50//52 52//59
f 39//40 51//53 50//52
f 57//60 46//48 49//51
f 46//48 57//60 51//53
f 53//55 58//61 43//44
f 54//56 43//44 58//61
f 54//56 59//62 47//49
f 59//62 55//57 47//49
f 55//57 60//63 48//50
f 48//50 61//64 56//58
f 62//65 49//51 56//58
f 49//51 62//65 57//60
f 58//61 53//55 63//66
f 58//61 64//67 54//56
f 59//62 54//56 64//67
f 59//62 65//68 55//57
f 60//63 55//57 65//68
f 61//64 48//50 60//63
f 61//64 62//65 56//58
f 63//66 66//69 58//61
f 64//67 58//61 66//69
f 67//70 59//62 64//67
f 68//71 65//68 59//62
f 65//68 69//72 60//63
f 60//63 70//73 61//64
f 62//65 61//64 71//74
f 66//69 63//66 72//75
f 66//69 67//70 64//67
f 59//62 67//70 68//71
f 68//71 73//76 65//68
f 69//72 65//68 73//76
f 70//73 60//63 69//72
f 74//77 61//64 70//73
f 61//64 74//77 71//74
f 75//78 66//69 72//79
f 67//70 66//69 76//80
f 77//81 68//71 67//70
f 68//71 78//82 73//76
f 73//76 79//83 69//72
f 69//72 80//84 70//73
f 70//73 81//85 74//77
f 66//69 75//78 76//80
f 82//86 67//70 76//80
f 68//71 77//81 83//87
f 67//70 82//86 77//81
f 83//87 78//82 68//71
f 79//83 73//76 78//82
f 80//84 69//72 79//83
f 81//85 70//73 80//84
f 84//88 76//80 75//78
f 76//80 84//88 82//86
f 85//89 83//87 77//81
f 86//90 77//81 82//86
f 87//91 78//82 83//87
f 78//82 88//92 79//83
f 79//83 89//93 80//84
f 80//84 90//94 81//85
f 91//95 82//86 84//88
f 83//87 85//89 87//91
f 77//81 86//90 85//89
f 82//86 91//95 86//90
f 87//91 92//96 78//82
f 88//92 78//82 92//96
f 89//93 79//83 88//92
f 90//94 80//84 89//93
f 93//97 87//91 85//89
f 86//90 93//97 85//89
f 94//98 86//90 91//95
f 92//96 87//91 95//99
f 92//96 93//97 88//92
f 88//92 96//100 89//93
f 89//93 94//98 90//94
f 87//91 93//97 95//99
f 93//97 86//90 96//100
f 86//90 94//98 96//100
f 93//97 92//96 95//99
f 96//100 88//92 93//97
f 94//98 89//93 96//100
usemtl material_1_0
f 3//101 2//102 1//103
f 4//104 1//103 2//102
f 3//101 5//105 2//102
f 3//101 1//103 6//106
f 1//103 4//104 7//107
f 2//102 8//108 4//104
f 5//105 9//109 2//102
f 6//106 5//105 3//101
f 10//110 6//106 1//103
f 11//111 7//107 4//104
f 1//103 7//107 10//110
f 12//112 4//104 8//108
f 2//102 9//109 8//108
f 5//105 13//113 9//109
f 6//106 10//110 5//105
f 7//107 11//111 14//114
f 4//104 12//112 11//111
f 15//115 10//110 7//107
f 8//108 16//116 12//112
f 9//109 17//117 8//108
f 18//118 9//109 13//113
f 13//113 5//105 10//110
f 19//119 14//114 11//111
f 7//107 14//114 15//115
f 20//120 11//111 12//112
f 10//110 15//115 13//113
f 21//121 12//112 16//116
f 8//108 22//122 16//116
f 17//117 22//122 8//108
f 9//109 18//118 17//117
f 13//113 23//123 18//118
f 11//111 20//120 19//119
f 24//124 15//115 14//114
f 20//120 12//112 25//125
f 23//123 13//113 15//115
f 21//121 25//125 12//112
f 16//116 26//126 21//121
f 22//122 27//127 16//116
f 22//122 17//117 28//128
f 29//129 17//117 18//118
f 30//130 18//118 23//123
f 31//131 19//119 20//120
f 15//115 24//124 23//123
f 25//125 32//132 20//120
f 21//121 33//133 25//125
f 33//133 21//121 26//126
f 16//116 27//127 26//126
f 27//127 22//122 34//134
f 29//135 28//128 17//117
f 28//128 34//134 22//122
f 18//118 30//130 29//129
f 23//123 35//136 30//130
f 31//131 20//120 32//132
f 35//136 23//123 24//124
f 25//125 36//137 32//132
f 36//137 25//125 33//133
f 26//126 37//138 33//133
f 26//126 27//127 37//138
f 27//127 34//134 38//139
f 28//128 29//135 39//140
f 28//128 39//140 34//134
f 40//141 29//129 30//130
f 41//142 30//130 35//136
f 42//143 32//132 36//137
f 36//137 33//133 43//144
f 44//145 33//133 37//138
f 27//127 38//139 37//138
f 45//146 38//139 34//134
f 40//147 39//140 29//135
f 46//148 34//134 39//140
f 30//130 41//142 40//141
f 36//137 43//144 42//143
f 44//145 43//144 33//133
f 37//138 47//149 44//145
f 37//138 38//139 47//149
f 45//146 48//150 38//139
f 45//146 34//134 49//151
f 39//140 40//147 50//152
f 46//148 49//151 34//134
f 46//148 39//140 51//153
f 52//154 40//141 41//142
f 53//155 42//143 43//144
f 44//145 54//156 43//144
f 54//156 44//145 47//149
f 38//139 55//157 47//149
f 55//157 38//139 48//150
f 48//150 45//146 56//158
f 49//151 56//158 45//146
f 52//159 50//152 40//147
f 50//152 51//153 39//140
f 49//151 46//148 57//160
f 51//153 57//160 46//148
f 43//144 58//161 53//155
f 58//161 43//144 54//156
f 47//149 59//162 54//156
f 47//149 55//157 59//162
f 48//150 60//163 55//157
f 56//158 61//164 48//150
f 56//158 49//151 62//165
f 57//160 62//165 49//151
f 63//166 53//155 58//161
f 54//156 64//167 58//161
f 64//167 54//156 59//162
f 55//157 65//168 59//162
f 65//168 55//157 60//163
f 60//163 48//150 61//164
f 56//158 62//165 61//164
f 58//161 66//169 63//166
f 66//169 58//161 64//167
f 64//167 59//162 67//170
f 59//162 65//168 68//171
f 60//163 69//172 65//168
f 61//164 70//173 60//163
f 71//174 61//164 62//165
f 72//175 63//166 66//169
f 64//167 67//170 66//169
f 68//171 67//170 59//162
f 65//168 73//176 68//171
f 73//176 65//168 69//172
f 69//172 60//163 70//173
f 70//173 61//164 74//177
f 71//174 74//177 61//164
f 72//178 66//169 75//179
f 76//180 66//169 67//170
f 67//170 68//171 77//181
f 73//176 78//182 68//171
f 69//172 79//183 73//176
f 70//173 80//184 69//172
f 74//177 81//185 70//173
f 76//180 75//179 66//169
f 76//180 67//170 82//186
f 83//187 77//181 68//171
f 77//181 82//186 67//170
f 68//171 78//182 83//187
f 78//182 73//176 79//183
f 79//183 69//172 80//184
f 80//184 70//173 81//185
f 75//179 76//180 84//188
f 82//186 84//188 76//180
f 77//181 83//187 85//189
f 82//186 77//181 86//190
f 83//187 78//182 87//191
f 79//183 88//192 78//182
f 80//184 89//193 79//183
f 81//185 90//194 80//184
f 84//188 82//186 91//195
f 87//191 85//189 83//187
f 85//189 86//190 77//181
f 86//190 91//195 82//186
f 78//182 92//196 87//191
f 92//196 78//182 88//192
f 88//192 79//183 89//193
f 89//193 80//184 90//194
f 85//189 87//191 93//197
f 85//189 93//197 86//190
f 91//195 86//190 94//198
f 95//199 87//191 92//196
f 88//192 93//197 92//196
f 89//193 96//200 88//192
f 90//194 94//198 89//193
f 95//199 93//197 87//191
f 96//200 86//190 93//197
f 96//200 94//198 86//190
f 95//199 92//196 93//197
f 93//197 88//192 96//200
f 96//200 89//193 94//198
