# SSTK version 0.8.0
# 9
mtllib original-9.mtl
o Group_32/mesh16/mesh16-geometry#mesh16-geometry
v 0.289886 0.526419 0.504240
v 0.285864 0.526419 0.504240
v 0.287875 0.525936 0.504240
v 0.291897 0.529540 0.504240
v 0.287875 0.525936 0.503136
v 0.289886 0.526419 0.503136
v 0.284393 0.527738 0.504240
v 0.285864 0.526419 0.503136
v 0.291358 0.527738 0.504240
v 0.283854 0.529540 0.504240
v 0.291358 0.527738 0.503136
v 0.289886 0.532661 0.504240
v 0.283854 0.529540 0.503136
v 0.284393 0.527738 0.503136
v 0.284393 0.531342 0.504240
v 0.284393 0.531342 0.503136
v 0.291897 0.529540 0.503136
v 0.285864 0.532661 0.504240
v 0.291358 0.531342 0.504240
v 0.287875 0.533144 0.504240
v 0.285864 0.532661 0.503136
v 0.289886 0.532661 0.503136
v 0.291358 0.531342 0.503136
v 0.287875 0.533144 0.503136
vn 0 0 1
vn 0 0 -1
vn -0.23348422705761865 -0.9723605893470315 0
vn 0.23348422705761865 0.9723605893470315 0
vn 0.23348422705761865 -0.9723605893470315 0
vn -0.23348422705761865 0.9723605893470315 0
vn 0.6673767497955699 -0.7447202654905407 0
vn -0.6673767497955699 0.7447202654905407 0
vn -0.6673767497955699 -0.7447202654905407 0
vn 0.6673767497955699 0.7447202654905407 0
vn -0.9580889951539152 -0.2864707268901326 0
vn 0.9580889951539152 0.2864707268901326 0
vn 0.9580889951539152 -0.2864707268901326 0
vn -0.9580889951539152 0.2864707268901326 0
usemtl material_0_0
f 1//1 2//1 3//1
f 2//1 1//1 4//1
f 3//2 2//2 1//2
f 4//2 1//2 2//2
f 2//3 5//3 3//3
f 3//4 5//4 2//4
f 3//5 6//5 1//5
f 1//6 6//6 3//6
f 2//1 4//1 7//1
f 7//2 4//2 2//2
f 5//3 2//3 8//3
f 8//4 2//4 5//4
f 6//5 3//5 5//5
f 5//6 3//6 6//6
f 6//7 9//7 1//7
f 1//8 9//8 6//8
f 7//1 4//1 10//1
f 10//2 4//2 7//2
f 7//9 8//9 2//9
f 2//10 8//10 7//10
f 8//2 6//2 5//2
f 5//1 6//1 8//1
f 9//7 6//7 11//7
f 11//8 6//8 9//8
f 10//1 4//1 12//1
f 12//2 4//2 10//2
f 13//11 7//11 10//11
f 10//12 7//12 13//12
f 8//9 7//9 14//9
f 14//10 7//10 8//10
f 6//2 8//2 14//2
f 14//1 8//1 6//1
f 11//13 4//13 9//13
f 9//14 4//14 11//14
f 10//1 12//1 15//1
f 15//2 12//2 10//2
f 7//11 13//11 14//11
f 14//12 13//12 7//12
f 10//14 16//14 13//14
f 13//13 16//13 10//13
f 6//2 14//2 17//2
f 17//1 14//1 6//1
f 4//13 11//13 17//13
f 17//14 11//14 4//14
f 15//1 12//1 18//1
f 18//2 12//2 15//2
f 16//14 10//14 15//14
f 15//13 10//13 16//13
f 17//2 14//2 13//2
f 13//1 14//1 17//1
f 17//2 13//2 16//2
f 16//1 13//1 17//1
f 17//12 19//12 4//12
f 4//11 19//11 17//11
f 18//1 12//1 20//1
f 20//2 12//2 18//2
f 21//8 15//8 18//8
f 18//7 15//7 21//7
f 15//8 21//8 16//8
f 16//7 21//7 15//7
f 17//2 16//2 22//2
f 22//1 16//1 17//1
f 19//12 17//12 23//12
f 23//11 17//11 19//11
f 12//4 24//4 20//4
f 20//3 24//3 12//3
f 20//6 21//6 18//6
f 18//5 21//5 20//5
f 22//2 16//2 21//2
f 21//1 16//1 22//1
f 23//10 12//10 19//10
f 19//9 12//9 23//9
f 24//4 12//4 22//4
f 22//3 12//3 24//3
f 21//6 20//6 24//6
f 24//5 20//5 21//5
f 22//2 21//2 24//2
f 24//1 21//1 22//1
f 12//10 23//10 22//10
f 22//9 23//9 12//9
