# SSTK version 0.8.0
# 40
mtllib original-40.mtl
o Group_31/mesh225/mesh225-geometry#mesh225-geometry
v 0.253603 0.517219 0.503723
v 0.269479 0.517219 0.503723
v 0.261541 0.515313 0.503723
v 0.247792 0.522427 0.503723
v 0.269479 0.517219 0.504828
v 0.253603 0.517219 0.504828
v 0.275290 0.522427 0.503723
v 0.261541 0.515313 0.504828
v 0.275290 0.522427 0.504828
v 0.247792 0.522427 0.504828
v 0.277417 0.529540 0.503723
v 0.268347 0.518975 0.504828
v 0.254734 0.518975 0.504828
v 0.245665 0.529540 0.503723
v 0.277417 0.529540 0.504828
v 0.261541 0.517341 0.504828
v 0.273330 0.523440 0.504828
v 0.249751 0.523440 0.504828
v 0.245665 0.529540 0.504828
v 0.247792 0.536654 0.503723
v 0.275290 0.536654 0.504828
v 0.247792 0.536654 0.504828
v 0.275290 0.536654 0.503723
v 0.275154 0.529540 0.504828
v 0.247927 0.529540 0.504828
v 0.249751 0.535640 0.504828
v 0.253603 0.541861 0.503723
v 0.269479 0.541861 0.504828
v 0.273330 0.535640 0.504828
v 0.254734 0.540105 0.504828
v 0.253603 0.541861 0.504828
v 0.269479 0.541861 0.503723
v 0.268347 0.540105 0.504828
v 0.261541 0.543767 0.504828
v 0.261541 0.543767 0.503723
v 0.261541 0.541740 0.504828
vn 0 0 -1
vn 0 0 1
vn 0.23348422705761865 -0.9723605893470315 0
vn -0.23348422705761865 0.9723605893470315 0
vn -0.23348422705761865 -0.9723605893470315 0
vn 0.23348422705761865 0.9723605893470315 0
vn -0.6673767497955699 -0.7447202654905407 0
vn 0.6673767497955699 0.7447202654905407 0
vn 0.6673767497955699 -0.7447202654905407 0
vn -0.6673767497955699 0.7447202654905407 0
vn -0.9580889951539152 -0.2864707268901326 0
vn 0.9580889951539152 0.2864707268901326 0
vn 0.9580889951539152 -0.2864707268901326 0
vn -0.9580889951539152 0.2864707268901326 0
usemtl material_0_0
f 1//1 2//1 3//1
f 2//1 1//1 4//1
f 3//2 2//2 1//2
f 4//2 1//2 2//2
f 5//3 3//3 2//3
f 2//4 3//4 5//4
f 3//5 6//5 1//5
f 1//6 6//6 3//6
f 6//7 4//7 1//7
f 1//8 4//8 6//8
f 2//1 4//1 7//1
f 7//2 4//2 2//2
f 3//3 5//3 8//3
f 8//4 5//4 3//4
f 2//9 9//9 5//9
f 5//10 9//10 2//10
f 6//5 3//5 8//5
f 8//6 3//6 6//6
f 4//7 6//7 10//7
f 10//8 6//8 4//8
f 7//1 4//1 11//1
f 11//2 4//2 7//2
f 9//9 2//9 7//9
f 7//10 2//10 9//10
f 5//2 6//2 8//2
f 8//1 6//1 5//1
f 12//2 5//2 9//2
f 9//1 5//1 12//1
f 6//2 13//2 10//2
f 10//1 13//1 6//1
f 10//11 14//11 4//11
f 4//12 14//12 10//12
f 11//1 4//1 14//1
f 14//2 4//2 11//2
f 15//13 7//13 11//13
f 11//14 7//14 15//14
f 7//13 15//13 9//13
f 9//14 15//14 7//14
f 6//2 5//2 16//2
f 16//1 5//1 6//1
f 16//2 5//2 12//2
f 12//1 5//1 16//1
f 12//2 9//2 17//2
f 17//1 9//1 12//1
f 13//2 6//2 16//2
f 16//1 6//1 13//1
f 10//2 13//2 18//2
f 18//1 13//1 10//1
f 14//11 10//11 19//11
f 19//12 10//12 14//12
f 11//1 14//1 20//1
f 20//2 14//2 11//2
f 11//12 21//12 15//12
f 15//11 21//11 11//11
f 17//2 9//2 15//2
f 15//1 9//1 17//1
f 16//1 13//1 12//1
f 17//1 12//1 13//1
f 18//1 17//1 13//1
f 10//2 18//2 19//2
f 19//1 18//1 10//1
f 22//14 14//14 19//14
f 19//13 14//13 22//13
f 14//14 22//14 20//14
f 20//13 22//13 14//13
f 11//1 20//1 23//1
f 23//2 20//2 11//2
f 21//12 11//12 23//12
f 23//11 11//11 21//11
f 24//2 15//2 21//2
f 21//1 15//1 24//1
f 17//2 15//2 24//2
f 24//1 15//1 17//1
f 24//1 17//1 18//1
f 19//2 18//2 25//2
f 25//1 18//1 19//1
f 19//2 26//2 22//2
f 22//1 26//1 19//1
f 22//10 27//10 20//10
f 20//9 27//9 22//9
f 23//1 20//1 27//1
f 27//2 20//2 23//2
f 23//8 28//8 21//8
f 21//7 28//7 23//7
f 24//2 21//2 29//2
f 29//1 21//1 24//1
f 25//1 24//1 18//1
f 19//2 25//2 26//2
f 26//1 25//1 19//1
f 22//2 26//2 30//2
f 30//1 26//1 22//1
f 27//10 22//10 31//10
f 31//9 22//9 27//9
f 23//1 27//1 32//1
f 32//2 27//2 23//2
f 28//8 23//8 32//8
f 32//7 23//7 28//7
f 33//2 21//2 28//2
f 28//1 21//1 33//1
f 29//2 21//2 33//2
f 33//1 21//1 29//1
f 29//1 24//1 26//1
f 26//1 24//1 25//1
f 30//1 29//1 26//1
f 22//2 30//2 31//2
f 31//1 30//1 22//1
f 34//4 27//4 31//4
f 31//3 27//3 34//3
f 32//1 27//1 35//1
f 35//2 27//2 32//2
f 35//6 28//6 32//6
f 32//5 28//5 35//5
f 33//2 28//2 36//2
f 36//1 28//1 33//1
f 33//1 29//1 30//1
f 31//2 30//2 36//2
f 36//1 30//1 31//1
f 27//4 34//4 35//4
f 35//3 34//3 27//3
f 31//2 28//2 34//2
f 34//1 28//1 31//1
f 28//6 35//6 34//6
f 34//5 35//5 28//5
f 36//2 28//2 31//2
f 31//1 28//1 36//1
f 36//1 33//1 30//1
usemtl material_1_0
f 12//2 13//2 16//2
f 13//2 12//2 17//2
f 13//2 17//2 18//2
f 18//2 17//2 24//2
f 18//2 24//2 25//2
f 26//2 24//2 29//2
f 25//2 24//2 26//2
f 26//2 29//2 30//2
f 30//2 29//2 33//2
f 30//2 33//2 36//2
