# SSTK version 0.8.0
# 12
mtllib original-12.mtl
o Group_28/mesh31/mesh31-geometry#mesh31-geometry
v 0.295479 0.566303 0.503279
v 0.299501 0.566303 0.503279
v 0.297490 0.565821 0.503279
v 0.294007 0.567622 0.503279
v 0.299501 0.566303 0.504384
v 0.295479 0.566303 0.504384
v 0.294007 0.567622 0.504384
v 0.301511 0.569424 0.503279
v 0.297490 0.565821 0.504384
v 0.300973 0.567622 0.503279
v 0.293468 0.569424 0.503279
v 0.300973 0.567622 0.504384
v 0.293468 0.569424 0.504384
v 0.294007 0.571226 0.503279
v 0.301511 0.569424 0.504384
v 0.299501 0.572545 0.503279
v 0.299501 0.572545 0.504384
v 0.294007 0.571226 0.504384
v 0.295479 0.572545 0.503279
v 0.300973 0.571226 0.504384
v 0.297490 0.573028 0.503279
v 0.300973 0.571226 0.503279
v 0.295479 0.572545 0.504384
v 0.297490 0.573028 0.504384
vn 0 0 -1
vn 0 0 1
vn 0.23348422705761865 -0.9723605893470315 0
vn -0.23348422705761865 0.9723605893470315 0
vn -0.23348422705761865 -0.9723605893470315 0
vn 0.23348422705761865 0.9723605893470315 0
vn -0.6673767497955699 -0.7447202654905407 0
vn 0.6673767497955699 0.7447202654905407 0
vn 0.6673767497955699 -0.7447202654905407 0
vn -0.6673767497955699 0.7447202654905407 0
vn -0.9580889951539152 -0.2864707268901326 0
vn 0.9580889951539152 0.2864707268901326 0
vn 0.9580889951539152 -0.2864707268901326 0
vn -0.9580889951539152 0.2864707268901326 0
usemtl material_0_0
f 1//1 2//1 3//1
f 2//1 1//1 4//1
f 3//2 2//2 1//2
f 4//2 1//2 2//2
f 5//3 3//3 2//3
f 2//4 3//4 5//4
f 3//5 6//5 1//5
f 1//6 6//6 3//6
f 1//7 7//7 4//7
f 4//8 7//8 1//8
f 2//1 4//1 8//1
f 8//2 4//2 2//2
f 3//3 5//3 9//3
f 9//4 5//4 3//4
f 10//9 5//9 2//9
f 2//10 5//10 10//10
f 6//5 3//5 9//5
f 9//6 3//6 6//6
f 7//7 1//7 6//7
f 6//8 1//8 7//8
f 7//11 11//11 4//11
f 4//12 11//12 7//12
f 8//1 4//1 11//1
f 11//2 4//2 8//2
f 5//2 6//2 9//2
f 9//1 6//1 5//1
f 5//9 10//9 12//9
f 12//10 10//10 5//10
f 6//2 5//2 7//2
f 7//1 5//1 6//1
f 11//11 7//11 13//11
f 13//12 7//12 11//12
f 8//1 11//1 14//1
f 14//2 11//2 8//2
f 10//13 15//13 12//13
f 12//14 15//14 10//14
f 7//2 5//2 15//2
f 15//1 5//1 7//1
f 7//2 15//2 13//2
f 13//1 15//1 7//1
f 13//14 14//14 11//14
f 11//13 14//13 13//13
f 8//1 14//1 16//1
f 16//2 14//2 8//2
f 15//13 10//13 8//13
f 8//14 10//14 15//14
f 13//2 15//2 17//2
f 17//1 15//1 13//1
f 14//14 13//14 18//14
f 18//13 13//13 14//13
f 16//1 14//1 19//1
f 19//2 14//2 16//2
f 8//12 20//12 15//12
f 15//11 20//11 8//11
f 13//2 17//2 18//2
f 18//1 17//1 13//1
f 18//10 19//10 14//10
f 14//9 19//9 18//9
f 16//1 19//1 21//1
f 21//2 19//2 16//2
f 20//12 8//12 22//12
f 22//11 8//11 20//11
f 18//2 17//2 23//2
f 23//1 17//1 18//1
f 19//10 18//10 23//10
f 23//9 18//9 19//9
f 19//4 24//4 21//4
f 21//3 24//3 19//3
f 21//6 17//6 16//6
f 16//5 17//5 21//5
f 22//8 17//8 20//8
f 20//7 17//7 22//7
f 23//2 17//2 24//2
f 24//1 17//1 23//1
f 24//4 19//4 23//4
f 23//3 19//3 24//3
f 17//6 21//6 24//6
f 24//5 21//5 17//5
f 17//8 22//8 16//8
f 16//7 22//7 17//7
