# SSTK version 0.8.0
# 14
mtllib original-14.mtl
o mesh14/mesh14-geometry#mesh14-geometry
v -0.032313 0.627489 0.367415
v -0.031594 0.623724 0.368974
v -0.043511 0.623724 0.368974
v -0.032313 0.654888 0.433561
v -0.032313 0.619958 0.370533
v -0.034382 0.630801 0.366043
v -0.031594 0.651122 0.435122
v -0.034381 0.658199 0.432190
v -0.034382 0.616647 0.371905
v -0.037552 0.633258 0.365025
v -0.043510 0.651122 0.435122
v -0.032313 0.647357 0.436681
v -0.037552 0.614189 0.372923
v -0.041441 0.634566 0.364483
v -0.037552 0.660658 0.431172
v -0.034382 0.644046 0.438053
v -0.041441 0.612881 0.373464
v -0.045580 0.634566 0.364483
v -0.041442 0.661965 0.430629
v -0.037552 0.641588 0.439070
v -0.045579 0.612881 0.373465
v -0.049468 0.633258 0.365025
v -0.045580 0.661965 0.430630
v -0.041441 0.640281 0.439613
v -0.049469 0.614189 0.372924
v -0.052639 0.630801 0.366042
v -0.049469 0.660658 0.431172
v -0.045580 0.640281 0.439612
v -0.052639 0.616647 0.371905
v -0.054709 0.627489 0.367414
v -0.052639 0.658199 0.432190
v -0.049469 0.641588 0.439071
v -0.054709 0.619958 0.370534
v -0.055427 0.623724 0.368974
v -0.054709 0.654888 0.433562
v -0.052640 0.644046 0.438052
v -0.055427 0.651122 0.435121
v -0.054709 0.647357 0.436681
vn -0.000023943283588742127 -0.38264993781078044 -0.9238934053883732
vn -0.00003844414399535982 -0.3826419512215723 -0.9238967126726858
vn -0.00001198060409015511 -0.38268291287267764 -0.9238797476142377
vn 0.9581436164185131 0.26449587678912106 -0.10955702386432215
vn 0.9982773069014589 0.05420601571939459 -0.022452758970768465
vn 0.9180154433222394 0.36636008293074335 -0.15174958140585112
vn -0.000053595920114080316 -0.38271107146995975 -0.9238680819802104
vn 0.000009894324623883872 -0.3827070464550889 -0.9238697508283972
vn 0.998277925177757 -0.054197020992109095 0.02244698238903685
vn 0.802448311599998 0.5512991245106459 -0.2283549485430692
vn 0.9581441592650463 -0.2644949216394237 0.10955458225575374
vn -0.000044337967875057064 -0.3827220531440225 -0.9238635332511879
vn -0.000003376961003006766 -0.3827111564414455 -0.9238680483293314
vn 0.7270219807166521 0.6343489302022742 -0.2627555409616822
vn 0.0000023946580533705603 0.3826980907492089 0.9238734606704405
vn -0.0000041585610800716824 0.38268622583162754 0.9238783754052539
vn -0.0000010451006999332044 0.38268100240055786 0.923880539031217
vn 0.00001591321228181626 0.3826778922032883 0.9238818271649347
vn 0.9180052920473015 -0.3663820473940856 0.15175796229676533
vn 0.8024453095658953 -0.5513030472692768 0.2283560273505041
vn 0.00001792100004859461 -0.38267515606471864 -0.9238829604499053
vn -0.00005711981451857241 -0.38269013482692443 -0.9238767544664587
vn 0.549968948022716 0.7716110053387768 -0.31961009472616664
vn 0.4483460503571348 0.8258199535682746 -0.3420631862940681
vn -7.978244318831479e-7 0.3826549865682361 0.9238913146327475
vn -0.000032013145623763665 0.3826982047198669 0.923873412908581
vn 0.7270170536052165 -0.6343535811006279 0.26275794547834147
vn 0.5499540907534269 -0.7716194092435089 0.3196153709418085
vn -0.0000027243578897982038 -0.3826648257756143 -0.9238872393894703
vn -0.00004638838610746602 -0.3826819447726851 -0.9238801475262436
vn 0.231134192097691 0.8988638548294545 -0.37231808406855704
vn 0.11554997950236849 0.9176918078041543 -0.3801183343725288
vn 0.000011817458233027553 0.3826700498117808 0.9238850755572343
vn -0.000014154938632728668 0.382717116741368 0.923865579157927
vn 0.4483208543865263 -0.8258310954784678 0.34206931061258466
vn 0.23112653011146478 -0.8988651953566863 0.3723196041776747
vn -0.00003115081007251013 -0.3826790649768059 -0.9238813410054911
vn 0.000030453847668965007 -0.38265198976616394 -0.9238925553334429
vn -0.1155720749700902 0.917689663348362 -0.38011679424971223
vn -0.2311459617538947 0.8988602570489023 -0.37231946318027526
vn 0.000031068392997319056 0.3826871678301729 0.9238779846997525
vn -0.0000022746787798264083 0.38269395221874936 0.9238751749722574
vn 0.11558096800896984 -0.9176890247688861 0.3801156319501216
vn -0.11554553758101452 -0.9176926635624602 0.3801176186244879
vn 0.000021444882226680483 -0.3826960927508102 -0.9238742880572985
vn 0.00002521263972064477 -0.3826840541419524 -0.9238792746186063
vn -0.4483310115737636 0.8258253948230866 -0.3420697609063667
vn -0.5499628790661556 0.7716128659669989 -0.3196160457853444
vn 0.000010014294086288748 0.3826867035275592 0.9238781774903679
vn -0.00002070814028082972 0.3827078124967543 0.9238694333211388
vn -0.2311283334385272 -0.8988640113814164 0.3723213430965757
vn -0.4483299888075584 -0.8258262483631527 0.34206904076553774
vn 0.00000505843610663898 -0.38266505709324794 -0.9238871435701621
vn -0.000012306904866911328 -0.38270693167572023 -0.9238697983460092
vn -0.7270246344785081 0.6343449053880988 -0.2627579149513018
vn -0.8024620579291768 0.5512810162809826 -0.22835035947481544
vn -0.000021034455432701777 0.3826820865992439 0.9238800897051525
vn 0.000019596862498371704 0.3827262484213733 0.9238617961498701
vn -0.5499533500187933 -0.7716200755068865 0.31961503700209987
vn -0.7270106681306289 -0.6343605669237748 0.2627587478208929
vn -0.000017142792549415517 -0.382664942283225 -0.9238871909781522
vn 3.083741027385404e-7 -0.3826910151350472 -0.9238763915886217
vn -0.9581447142349394 0.264491984294202 -0.10955682008785148
vn -0.9180218865708587 0.36634490289187055 -0.15174725006413614
vn -0.000030783547074208695 0.3826869620355417 0.9238780699531627
vn 0.000005999266070206922 0.38269897342806297 0.9238730950196111
vn -0.8024389605930837 -0.5513118352280785 0.22835712132477845
vn -0.9180075592097979 -0.3663780753954865 0.15175383719421626
vn -0.9982757701056966 0.05423001952093958 -0.022463120946050623
vn -0.9982776788549822 -0.05420100029566653 0.022448328821053874
vn -0.00003242185379840103 0.3826839957788041 0.9238792985685909
vn -0.000002681705844301761 0.38264726001865895 0.9238945147542663
vn -0.9581454085873102 -0.2644909643019216 0.1095532099287657
vn -0.000014314681909378006 0.382646969788301 0.9238946348512481
vn 0.00001198060409015511 0.38268291287267764 0.9238797476142377
vn 0.00003844414399535982 0.3826419512215723 0.9238967126726858
vn 0.000023943283588742127 0.38264993781078044 0.9238934053883732
vn -0.9180154433222394 -0.36636008293074335 0.15174958140585112
vn -0.9982773069014589 -0.05420601571939459 0.022452758970768465
vn -0.9581436164185131 -0.26449587678912106 0.10955702386432215
vn 0.000053595920114080316 0.38271107146995975 0.9238680819802104
vn -0.000009894324623883872 0.3827070464550889 0.9238697508283972
vn -0.998277925177757 0.054197020992109095 -0.02244698238903685
vn -0.802448311599998 -0.5512991245106459 0.2283549485430692
vn -0.9581441592650463 0.2644949216394237 -0.10955458225575374
vn 0.000044337967875057064 0.3827220531440225 0.9238635332511879
vn 0.000003376961003006766 0.3827111564414455 0.9238680483293314
vn -0.7270219807166521 -0.6343489302022742 0.2627555409616822
vn 0.0000010451006999332044 -0.38268100240055786 -0.923880539031217
vn 0.0000041585610800716824 -0.38268622583162754 -0.9238783754052539
vn -0.0000023946580533705603 -0.3826980907492089 -0.9238734606704405
vn -0.00001591321228181626 -0.3826778922032883 -0.9238818271649347
vn -0.9180052920473015 0.3663820473940856 -0.15175796229676533
vn -0.8024453095658953 0.5513030472692768 -0.2283560273505041
vn -0.00001792100004859461 0.38267515606471864 0.9238829604499053
vn 0.00005711981451857241 0.38269013482692443 0.9238767544664587
vn -0.4483460503571348 -0.8258199535682746 0.3420631862940681
vn -0.549968948022716 -0.7716110053387768 0.31961009472616664
vn 7.978244318831479e-7 -0.3826549865682361 -0.9238913146327475
vn 0.000032013145623763665 -0.3826982047198669 -0.923873412908581
vn -0.7270170536052165 0.6343535811006279 -0.26275794547834147
vn -0.5499540907534269 0.7716194092435089 -0.3196153709418085
vn 0.0000027243578897982038 0.3826648257756143 0.9238872393894703
vn 0.00004638838610746602 0.3826819447726851 0.9238801475262436
vn -0.11554997950236849 -0.9176918078041543 0.3801183343725288
vn -0.231134192097691 -0.8988638548294545 0.37231808406855704
vn -0.000011817458233027553 -0.3826700498117808 -0.9238850755572343
vn 0.000014154938632728668 -0.382717116741368 -0.923865579157927
vn -0.4483208543865263 0.8258310954784678 -0.34206931061258466
vn -0.23112653011146478 0.8988651953566863 -0.3723196041776747
vn 0.00003115081007251013 0.3826790649768059 0.9238813410054911
vn -0.000030453847668965007 0.38265198976616394 0.9238925553334429
vn 0.2311459617538947 -0.8988602570489023 0.37231946318027526
vn 0.1155720749700902 -0.917689663348362 0.38011679424971223
vn -0.000031068392997319056 -0.3826871678301729 -0.9238779846997525
vn 0.0000022746787798264083 -0.38269395221874936 -0.9238751749722574
vn -0.11558096800896984 0.9176890247688861 -0.3801156319501216
vn 0.11554553758101452 0.9176926635624602 -0.3801176186244879
vn -0.000021444882226680483 0.3826960927508102 0.9238742880572985
vn -0.00002521263972064477 0.3826840541419524 0.9238792746186063
vn 0.5499628790661556 -0.7716128659669989 0.3196160457853444
vn 0.4483310115737636 -0.8258253948230866 0.3420697609063667
vn -0.000010014294086288748 -0.3826867035275592 -0.9238781774903679
vn 0.00002070814028082972 -0.3827078124967543 -0.9238694333211388
vn 0.2311283334385272 0.8988640113814164 -0.3723213430965757
vn 0.4483299888075584 0.8258262483631527 -0.34206904076553774
vn -0.00000505843610663898 0.38266505709324794 0.9238871435701621
vn 0.000012306904866911328 0.38270693167572023 0.9238697983460092
vn 0.8024620579291768 -0.5512810162809826 0.22835035947481544
vn 0.7270246344785081 -0.6343449053880988 0.2627579149513018
vn 0.000021034455432701777 -0.3826820865992439 -0.9238800897051525
vn -0.000019596862498371704 -0.3827262484213733 -0.9238617961498701
vn 0.5499533500187933 0.7716200755068865 -0.31961503700209987
vn 0.7270106681306289 0.6343605669237748 -0.2627587478208929
vn 0.000017142792549415517 0.382664942283225 0.9238871909781522
vn -3.083741027385404e-7 0.3826910151350472 0.9238763915886217
vn 0.9180218865708587 -0.36634490289187055 0.15174725006413614
vn 0.9581447142349394 -0.264491984294202 0.10955682008785148
vn 0.000030783547074208695 -0.3826869620355417 -0.9238780699531627
vn -0.000005999266070206922 -0.38269897342806297 -0.9238730950196111
vn 0.8024389605930837 0.5513118352280785 -0.22835712132477845
vn 0.9180075592097979 0.3663780753954865 -0.15175383719421626
vn 0.9982776788549822 0.05420100029566653 -0.022448328821053874
vn 0.9982757701056966 -0.05423001952093958 0.022463120946050623
vn 0.00003242185379840103 -0.3826839957788041 -0.9238792985685909
vn 0.000002681705844301761 -0.38264726001865895 -0.9238945147542663
vn 0.9581454085873102 0.2644909643019216 -0.1095532099287657
vn 0.000014314681909378006 -0.382646969788301 -0.9238946348512481
usemtl material_0_0
f 1//1 2//2 3//3
f 4//4 2//5 1//6
f 2//2 5//7 3//3
f 1//1 3//3 6//8
f 4//4 7//9 2//5
f 8//10 4//4 1//6
f 7//9 5//11 2//5
f 5//7 9//12 3//3
f 6//8 3//3 10//13
f 8//10 1//6 6//14
f 4//15 11//16 7//17
f 4//15 8//18 11//16
f 7//9 12//19 5//11
f 5//11 12//19 9//20
f 9//12 13//21 3//3
f 10//13 3//3 14//22
f 15//23 6//14 10//24
f 8//10 6//14 15//23
f 7//17 11//16 12//25
f 8//18 15//26 11//16
f 9//20 12//19 16//27
f 16//27 13//28 9//20
f 13//21 17//29 3//3
f 14//22 3//3 18//30
f 19//31 10//24 14//32
f 15//23 10//24 19//31
f 12//25 11//16 16//33
f 15//26 19//34 11//16
f 16//27 20//35 13//28
f 20//35 17//36 13//28
f 3//3 17//29 21//37
f 18//30 3//3 22//38
f 23//39 14//32 18//40
f 19//31 14//32 23//39
f 16//33 11//16 20//41
f 19//34 23//42 11//16
f 20//35 24//43 17//36
f 24//43 21//44 17//36
f 3//3 21//37 25//45
f 3//3 26//46 22//38
f 27//47 18//40 22//48
f 23//39 18//40 27//47
f 20//41 11//16 24//49
f 23//42 27//50 11//16
f 24//43 28//51 21//44
f 28//51 25//52 21//44
f 3//3 25//45 29//53
f 3//3 30//54 26//46
f 31//55 22//48 26//56
f 27//47 22//48 31//55
f 11//16 28//57 24//49
f 11//16 27//50 31//58
f 28//51 32//59 25//52
f 32//59 29//60 25//52
f 3//3 29//53 33//61
f 3//3 34//62 30//54
f 26//56 30//63 35//64
f 26//56 35//64 31//55
f 11//16 32//65 28//57
f 11//16 31//58 35//66
f 32//59 36//67 29//60
f 36//67 33//68 29//60
f 3//3 33//61 34//62
f 37//69 30//63 34//70
f 35//64 30//63 37//69
f 11//16 36//71 32//65
f 11//16 35//66 37//72
f 38//73 33//68 36//67
f 38//73 34//70 33//68
f 37//69 34//70 38//73
f 11//16 38//74 36//71
f 11//16 37//72 38//74
usemtl material_1_0
f 3//75 2//76 1//77
f 1//78 2//79 4//80
f 3//75 5//81 2//76
f 6//82 3//75 1//77
f 2//79 7//83 4//80
f 1//78 4//80 8//84
f 2//79 5//85 7//83
f 3//75 9//86 5//81
f 10//87 3//75 6//82
f 6//88 1//78 8//84
f 7//89 11//90 4//91
f 11//90 8//92 4//91
f 5//85 12//93 7//83
f 9//94 12//93 5//85
f 3//75 13//95 9//86
f 14//96 3//75 10//87
f 10//97 6//88 15//98
f 15//98 6//88 8//84
f 12//99 11//90 7//89
f 11//90 15//100 8//92
f 16//101 12//93 9//94
f 9//94 13//102 16//101
f 3//75 17//103 13//95
f 18//104 3//75 14//96
f 14//105 10//97 19//106
f 19//106 10//97 15//98
f 16//107 11//90 12//99
f 11//90 19//108 15//100
f 13//102 20//109 16//101
f 13//102 17//110 20//109
f 21//111 17//103 3//75
f 22//112 3//75 18//104
f 18//113 14//105 23//114
f 23//114 14//105 19//106
f 20//115 11//90 16//107
f 11//90 23//116 19//108
f 17//110 24//117 20//109
f 17//110 21//118 24//117
f 25//119 21//111 3//75
f 22//112 26//120 3//75
f 22//121 18//113 27//122
f 27//122 18//113 23//114
f 24//123 11//90 20//115
f 11//90 27//124 23//116
f 21//118 28//125 24//117
f 21//118 25//126 28//125
f 29//127 25//119 3//75
f 26//120 30//128 3//75
f 26//129 22//121 31//130
f 31//130 22//121 27//122
f 24//123 28//131 11//90
f 31//132 27//124 11//90
f 25//126 32//133 28//125
f 25//126 29//134 32//133
f 33//135 29//127 3//75
f 30//128 34//136 3//75
f 35//137 30//138 26//129
f 31//130 35//137 26//129
f 28//131 32//139 11//90
f 35//140 31//132 11//90
f 29//134 36//141 32//133
f 29//134 33//142 36//141
f 34//136 33//135 3//75
f 34//143 30//138 37//144
f 37//144 30//138 35//137
f 32//139 36//145 11//90
f 37//146 35//140 11//90
f 36//141 33//142 38//147
f 33//142 34//143 38//147
f 38//147 34//143 37//144
f 36//145 38//148 11//90
f 38//148 37//146 11//90
