# SSTK version 0.8.0
# 11
mtllib original-11.mtl
o mesh11/mesh11-geometry#mesh11-geometry
v 0.047138 0.227739 -0.591715
v 0.047683 0.225208 -0.590667
v 0.040525 0.225208 -0.590667
v 0.047138 0.638144 0.399092
v 0.047138 0.222677 -0.589619
v 0.045587 0.229884 -0.592604
v 0.047683 0.635613 0.400140
v 0.045586 0.640290 0.398202
v 0.045586 0.220532 -0.588730
v 0.043264 0.231317 -0.593197
v 0.040526 0.635613 0.400140
v 0.047138 0.633083 0.401187
v 0.043264 0.219098 -0.588137
v 0.040526 0.231821 -0.593406
v 0.043264 0.641723 0.397609
v 0.045587 0.630938 0.402076
v 0.040526 0.218133 -0.588127
v 0.037786 0.231317 -0.593198
v 0.040526 0.642226 0.397401
v 0.043265 0.629504 0.402670
v 0.037785 0.219098 -0.588136
v 0.035464 0.229884 -0.592604
v 0.037786 0.641723 0.397609
v 0.040525 0.629000 0.402878
v 0.035464 0.220532 -0.588730
v 0.033912 0.227739 -0.591716
v 0.035465 0.640290 0.398203
v 0.037786 0.629504 0.402670
v 0.033912 0.222677 -0.589619
v 0.033368 0.225208 -0.590667
v 0.033912 0.638144 0.399091
v 0.035464 0.630938 0.402077
v 0.033368 0.635613 0.400140
v 0.033912 0.633083 0.401187
vn 0.00004831545272951995 -0.3826920686239651 -0.9238759539450777
vn 0.00003413918168933739 -0.3826309943154426 -0.9239012506884554
vn 0.000002928979005044734 -0.3826758366401209 -0.9238826787223606
vn 0.9471617587895562 0.29634003413466975 -0.12274846987126627
vn 0.9978072052122448 0.06114901056174984 -0.025329424269973706
vn 0.8965283772679915 0.4092659140165149 -0.16952368677399837
vn 0.000002355403691686606 -0.3826729863521594 -0.9238838593193258
vn 0.000003420130224048497 -0.3826688769249075 -0.9238855614313564
vn 0.9978057242861497 -0.061169984220806974 0.025337119256504798
vn 0.7523250209033371 0.608644389800338 -0.252109241574694
vn 0.9471534314168265 -0.2963629526179396 0.12275739354885284
vn 0.000028326092949098514 -0.38269098463667933 -0.9238764037875637
vn -0.00003836342266645708 -0.38262098486294016 -0.9239053958445972
vn 0.6587671502307164 0.6950780369899692 -0.2879103406810392
vn -0.000053395198055957607 0.3827019360983494 0.9238718662539344
vn -0.000009236621428515555 0.38266702467781444 0.9238863285810187
vn -0.00003667734940627978 0.38260685871211303 0.9239112459112192
vn -0.00003709289840243354 0.38270807220018077 0.9238693252278367
vn 0.896525714341171 -0.4092710589115038 0.16952534873142028
vn 0.7523577786708256 -0.6086101486396577 0.25209414877445063
vn -0.000014274909974806569 -0.38267492596350644 -0.9238830558220298
vn 0.00007739450698899687 -0.3826280829476553 -0.9239024538066195
vn 0.44294950267310523 0.8283011815263654 -0.34309312258288654
vn 0.32070620259634874 0.8750791143789735 -0.36246941277015526
vn -0.000014393699056059225 0.3825977874537884 0.9239150030323607
vn 0.00001263660737846136 0.38267195971822954 0.9238842844673384
vn 0.6587875629831534 -0.6950612861328109 0.28790407322252387
vn 0.4429607221770935 -0.8282958686981352 0.3430914637614133
vn -0.00003139467089535264 -0.38271289366438527 -0.9238673281577866
vn 0.00008575254858641661 -0.38266194071399867 -0.92388843037214
vn 0.06616066049886972 0.9218552029579687 -0.38184519347724655
vn -0.0661053033659659 0.9218585975378272 -0.38184658570227425
vn 0.00006178910412447428 0.3826968338916233 0.9238739792371219
vn -0.000002846555042397455 0.38266602662513766 0.9238867420083625
vn 0.32073687828825886 -0.8750697901486638 0.36246478073748906
vn 0.066189859475511 -0.921853762376552 0.3818436110435891
vn 0.000009811900322472905 -0.38269809013057715 -0.923873460877698
vn -0.00005220151180669241 -0.3827402265162583 -0.9238560040835829
vn -0.32066706586442134 0.8750911956240336 -0.3624748711444732
vn -0.44296805163856173 0.8282926343461559 -0.34308980911044523
vn -9.643759012531588e-7 0.3827019681919185 0.9238718545020742
vn 0.000028282925977574838 0.3826890486118448 0.9238772057327951
vn -0.06616066049886972 -0.9218552029579687 0.38184519347724655
vn -0.3207476401722313 -0.8750660699527847 0.3624642389827349
vn -0.000015748357916532142 -0.38269580497348366 -0.923874407377803
vn -0.000058758091446464444 -0.38269395456561955 -0.9238751721344254
vn -0.6587903653354862 0.6950590448608499 -0.2879030717068848
vn -0.752325305320677 0.6086443201707339 -0.25210856093765505
vn -0.00006879424036443805 0.38265797747349944 0.9238900733005218
vn 0.000018700364481601707 0.3826477960055398 0.9238942925802709
vn -0.4429927005743846 -0.8282812251028477 0.3430855277914526
vn -0.6587955896366116 -0.6950549619043863 0.2879009743079058
vn -0.00000968630206853211 -0.38269004620274605 -0.9238767928915175
vn -0.000018782799167760093 -0.38263798585368247 -0.9238983555722152
vn -0.9471655564148712 0.2963298508092183 -0.12274375039363053
vn -0.8965132960230989 0.40929411120665776 -0.1695353667685636
vn 0.00004213116979862879 0.3826338773034926 0.9239000563722575
vn -0.00004601603849971831 0.38259602037457763 0.9239157337528461
vn -0.7523386610927087 -0.6086300908474819 0.25210305737974753
vn -0.8965342198187806 -0.40925500039165735 0.16951913564065657
vn -0.9978090996838577 0.061122980394623785 -0.025317619472766683
vn -0.9978085936349501 -0.06113001524020382 0.025320578685630497
vn 0.00003369068488658571 0.3826749846690836 0.9238830310020064
vn -0.00003930307471067109 0.3826780340556677 0.9238817677097853
vn -0.9471692407498966 -0.2963199652713022 0.12273918509945678
vn -0.00003881531991177242 0.3827439839151843 0.9238544480978074
vn -0.000002928979005044734 0.3826758366401209 0.9238826787223606
vn -0.00003413918168933739 0.3826309943154426 0.9239012506884554
vn -0.00004831545272951995 0.3826920686239651 0.9238759539450777
vn -0.8965283772679915 -0.4092659140165149 0.16952368677399837
vn -0.9978072052122448 -0.06114901056174984 0.025329424269973706
vn -0.9471617587895562 -0.29634003413466975 0.12274846987126627
vn -0.000002355403691686606 0.3826729863521594 0.9238838593193258
vn -0.000003420130224048497 0.3826688769249075 0.9238855614313564
vn -0.9978057242861497 0.061169984220806974 -0.025337119256504798
vn -0.7523250209033371 -0.608644389800338 0.252109241574694
vn -0.9471534314168265 0.2963629526179396 -0.12275739354885284
vn -0.000028326092949098514 0.38269098463667933 0.9238764037875637
vn 0.00003836342266645708 0.38262098486294016 0.9239053958445972
vn -0.6587671502307164 -0.6950780369899692 0.2879103406810392
vn 0.00003667734940627978 -0.38260685871211303 -0.9239112459112192
vn 0.000009236621428515555 -0.38266702467781444 -0.9238863285810187
vn 0.000053395198055957607 -0.3827019360983494 -0.9238718662539344
vn 0.00003709289840243354 -0.38270807220018077 -0.9238693252278367
vn -0.896525714341171 0.4092710589115038 -0.16952534873142028
vn -0.7523577786708256 0.6086101486396577 -0.25209414877445063
vn 0.000014274909974806569 0.38267492596350644 0.9238830558220298
vn -0.00007739450698899687 0.3826280829476553 0.9239024538066195
vn -0.32070620259634874 -0.8750791143789735 0.36246941277015526
vn -0.44294950267310523 -0.8283011815263654 0.34309312258288654
vn 0.000014393699056059225 -0.3825977874537884 -0.9239150030323607
vn -0.00001263660737846136 -0.38267195971822954 -0.9238842844673384
vn -0.6587875629831534 0.6950612861328109 -0.28790407322252387
vn -0.4429607221770935 0.8282958686981352 -0.3430914637614133
vn 0.00003139467089535264 0.38271289366438527 0.9238673281577866
vn -0.00008575254858641661 0.38266194071399867 0.92388843037214
vn 0.0661053033659659 -0.9218585975378272 0.38184658570227425
vn -0.00006178910412447428 -0.3826968338916233 -0.9238739792371219
vn 0.000002846555042397455 -0.38266602662513766 -0.9238867420083625
vn -0.32073687828825886 0.8750697901486638 -0.36246478073748906
vn -0.066189859475511 0.921853762376552 -0.3818436110435891
vn -0.000009811900322472905 0.38269809013057715 0.923873460877698
vn 0.00005220151180669241 0.3827402265162583 0.9238560040835829
vn 0.44296805163856173 -0.8282926343461559 0.34308980911044523
vn 0.32066706586442134 -0.8750911956240336 0.3624748711444732
vn 9.643759012531588e-7 -0.3827019681919185 -0.9238718545020742
vn -0.000028282925977574838 -0.3826890486118448 -0.9238772057327951
vn 0.3207476401722313 0.8750660699527847 -0.3624642389827349
vn 0.000015748357916532142 0.38269580497348366 0.923874407377803
vn 0.000058758091446464444 0.38269395456561955 0.9238751721344254
vn 0.752325305320677 -0.6086443201707339 0.25210856093765505
vn 0.6587903653354862 -0.6950590448608499 0.2879030717068848
vn 0.00006879424036443805 -0.38265797747349944 -0.9238900733005218
vn -0.000018700364481601707 -0.3826477960055398 -0.9238942925802709
vn 0.4429927005743846 0.8282812251028477 -0.3430855277914526
vn 0.6587955896366116 0.6950549619043863 -0.2879009743079058
vn 0.00000968630206853211 0.38269004620274605 0.9238767928915175
vn 0.000018782799167760093 0.38263798585368247 0.9238983555722152
vn 0.8965132960230989 -0.40929411120665776 0.1695353667685636
vn 0.9471655564148712 -0.2963298508092183 0.12274375039363053
vn -0.00004213116979862879 -0.3826338773034926 -0.9239000563722575
vn 0.00004601603849971831 -0.38259602037457763 -0.9239157337528461
vn 0.7523386610927087 0.6086300908474819 -0.25210305737974753
vn 0.8965342198187806 0.40925500039165735 -0.16951913564065657
vn 0.9978085936349501 0.06113001524020382 -0.025320578685630497
vn 0.9978090996838577 -0.061122980394623785 0.025317619472766683
vn -0.00003369068488658571 -0.3826749846690836 -0.9238830310020064
vn 0.00003930307471067109 -0.3826780340556677 -0.9238817677097853
vn 0.9471692407498966 0.2963199652713022 -0.12273918509945678
vn 0.00003881531991177242 -0.3827439839151843 -0.9238544480978074
usemtl material_0_0
f 1//1 2//2 3//3
f 4//4 2//5 1//6
f 2//2 5//7 3//3
f 1//1 3//3 6//8
f 4//4 7//9 2//5
f 8//10 4//4 1//6
f 7//9 5//11 2//5
f 5//7 9//12 3//3
f 6//8 3//3 10//13
f 8//10 1//6 6//14
f 4//15 11//16 7//17
f 4//15 8//18 11//16
f 7//9 12//19 5//11
f 5//11 12//19 9//20
f 9//12 13//21 3//3
f 10//13 3//3 14//22
f 15//23 6//14 10//24
f 8//10 6//14 15//23
f 7//17 11//16 12//25
f 8//18 15//26 11//16
f 9//20 12//19 16//27
f 16//27 13//28 9//20
f 13//21 17//29 3//3
f 14//22 3//3 18//30
f 19//31 10//24 14//32
f 15//23 10//24 19//31
f 12//25 11//16 16//33
f 15//26 19//34 11//16
f 16//27 20//35 13//28
f 20//35 17//36 13//28
f 3//3 17//29 21//37
f 3//3 22//38 18//30
f 23//39 14//32 18//40
f 19//31 14//32 23//39
f 16//33 11//16 20//41
f 19//34 23//42 11//16
f 20//35 24//43 17//36
f 24//43 21//44 17//36
f 3//3 21//37 25//45
f 3//3 26//46 22//38
f 27//47 18//40 22//48
f 23//39 18//40 27//47
f 20//41 11//16 24//49
f 11//16 23//42 27//50
f 24//43 28//51 21//44
f 28//51 25//52 21//44
f 3//3 25//45 29//53
f 3//3 30//54 26//46
f 22//48 26//55 31//56
f 22//48 31//56 27//47
f 11//16 28//57 24//49
f 11//16 27//50 31//58
f 28//51 32//59 25//52
f 32//59 29//60 25//52
f 3//3 29//53 30//54
f 33//61 26//55 30//62
f 31//56 26//55 33//61
f 11//16 32//63 28//57
f 11//16 31//58 33//64
f 34//65 29//60 32//59
f 34//65 30//62 29//60
f 33//61 30//62 34//65
f 11//16 34//66 32//63
f 11//16 33//64 34//66
usemtl material_1_0
f 3//67 2//68 1//69
f 1//70 2//71 4//72
f 3//67 5//73 2//68
f 6//74 3//67 1//69
f 2//71 7//75 4//72
f 1//70 4//72 8//76
f 2//71 5//77 7//75
f 3//67 9//78 5//73
f 10//79 3//67 6//74
f 6//80 1//70 8//76
f 7//81 11//82 4//83
f 11//82 8//84 4//83
f 5//77 12//85 7//75
f 9//86 12//85 5//77
f 3//67 13//87 9//78
f 14//88 3//67 10//79
f 10//89 6//80 15//90
f 15//90 6//80 8//76
f 12//91 11//82 7//81
f 11//82 15//92 8//84
f 16//93 12//85 9//86
f 9//86 13//94 16//93
f 3//67 17//95 13//87
f 18//96 3//67 14//88
f 14//97 10//89 19//43
f 19//43 10//89 15//90
f 16//98 11//82 12//91
f 11//82 19//99 15//92
f 13//94 20//100 16//93
f 13//94 17//101 20//100
f 21//102 17//95 3//67
f 18//96 22//103 3//67
f 18//104 14//97 23//105
f 23//105 14//97 19//43
f 20//106 11//82 16//98
f 11//82 23//107 19//99
f 17//101 24//31 20//100
f 17//101 21//108 24//31
f 25//109 21//102 3//67
f 22//103 26//110 3//67
f 22//111 18//104 27//112
f 27//112 18//104 23//105
f 24//113 11//82 20//106
f 27//114 23//107 11//82
f 21//108 28//115 24//31
f 21//108 25//116 28//115
f 29//117 25//109 3//67
f 26//110 30//118 3//67
f 31//119 26//120 22//111
f 27//112 31//119 22//111
f 24//113 28//121 11//82
f 31//122 27//114 11//82
f 25//116 32//123 28//115
f 25//116 29//124 32//123
f 30//118 29//117 3//67
f 30//125 26//120 33//126
f 33//126 26//120 31//119
f 28//121 32//127 11//82
f 33//128 31//122 11//82
f 32//123 29//124 34//129
f 29//124 30//125 34//129
f 34//129 30//125 33//126
f 32//127 34//130 11//82
f 34//130 33//128 11//82
