# SSTK version 0.8.0
# 7
mtllib original-7.mtl
o mesh7/mesh7-geometry#mesh7-geometry
v -0.002055 -0.274592 -0.190907
v -0.013160 -0.274592 -0.221418
v -0.002055 -0.274592 -0.223376
v -0.022926 -0.274592 -0.215780
v -0.013160 -0.255415 -0.221418
v 0.009050 -0.274592 -0.221417
v -0.030174 -0.274592 -0.207141
v -0.022926 -0.255415 -0.215780
v -0.002055 -0.255415 -0.223376
v 0.018815 -0.274592 -0.215780
v -0.034031 -0.274592 -0.196545
v -0.030174 -0.255415 -0.207141
v -0.002055 -0.255415 -0.190907
v 0.009050 -0.255415 -0.221417
v 0.026064 -0.274592 -0.207141
v -0.034031 -0.274592 -0.185269
v -0.034031 -0.255415 -0.196545
v 0.018815 -0.255415 -0.215780
v 0.029921 -0.274592 -0.196545
v -0.030175 -0.274592 -0.174673
v -0.034031 -0.255415 -0.185269
v 0.029920 -0.274592 -0.185269
v 0.026064 -0.255415 -0.207141
v -0.022926 -0.274592 -0.166034
v -0.030175 -0.255415 -0.174673
v 0.026064 -0.274592 -0.174672
v 0.029921 -0.255415 -0.196545
v -0.022926 -0.255415 -0.166034
v -0.013160 -0.274592 -0.160396
v 0.018816 -0.274592 -0.166034
v 0.029920 -0.255415 -0.185269
v -0.013160 -0.255415 -0.160396
v -0.002056 -0.274592 -0.158438
v 0.009049 -0.274592 -0.160396
v 0.026064 -0.255415 -0.174672
v -0.002056 -0.255415 -0.158438
v 0.018816 -0.255415 -0.166034
v 0.009049 -0.255415 -0.160396
vn 0 -1 0
vn -0.05865115707467909 0 -0.9982785391732117
vn -0.3965593567440883 0 -0.9180090830589395
vn -0.28627418691900913 0 -0.9581477390798667
vn -0.6866452846675462 0 -0.7269926086583168
vn -0.5967447086776507 0 -0.8024311513551963
vn 0.058686436827554006 0 -0.9982764657811409
vn 0.28629082787688775 0 -0.9581427669578091
vn -0.8938644074432979 0 -0.44833739650629445
vn -0.835202144592284 0 -0.5499430676610529
vn 0 1 0
vn 0.3965580811524074 0 -0.9180096340849155
vn 0.5967213198352835 0 -0.8024485444276394
vn -0.9932994673662001 0 -0.11556888910958267
vn -0.9729176791548106 0 -0.23115187558835992
vn 0.6866162913130178 0 -0.7270199918183522
vn 0.835191514762848 0 -0.5499592109130816
vn -0.9932993858681028 0 0.11556958957290606
vn -0.9729243596111798 0 0.23112375575690103
vn 0.8938702263733159 0 -0.448325794934127
vn 0.9729243596111798 0 -0.23112375575690103
vn -0.8938775188163465 0 0.4483112549944873
vn -0.8352025092967662 0 0.5499425137815634
vn 0.9933010921236924 0 -0.11555492367649126
vn 0.9932988147202743 0 0.11557449837787823
vn -0.6866281243835722 0 0.7270088161814114
vn -0.5967281709207525 0 0.8024434497393402
vn 0.9729214414687601 0 0.23113603944506345
vn 0.8938760368547055 0 0.44831420983159237
vn -0.3965580811524074 0 0.9180096340849155
vn -0.28629082787688775 0 0.9581427669578091
vn 0.8352092927332282 0 0.5499322115789007
vn 0.6866342841864707 0 0.7270029984668103
vn -0.05867084818177441 0 0.9982773820805675
vn 0.05868025961073515 0 0.9982768289067001
vn 0.5967198202610862 0 0.8024496595472995
vn 0.39654351579996205 0 0.9180159258297239
vn 0.2862872159494071 0 0.9581438461859145
vn 0.28627418691900913 0 0.9581477390798667
vn 0.3965593567440883 0 0.9180090830589395
vn 0.05865115707467909 0 0.9982785391732117
vn 0.5967447086776507 0 0.8024311513551963
vn 0.6866452846675462 0 0.7269926086583168
vn -0.058686436827554006 0 0.9982764657811409
vn 0.835202144592284 0 0.5499430676610529
vn 0.8938644074432979 0 0.44833739650629445
vn -0.5967213198352835 0 0.8024485444276394
vn 0.9729176791548106 0 0.23115187558835992
vn 0.9932994673662001 0 0.11556888910958267
vn -0.6866162913130178 0 0.7270199918183522
vn -0.835191514762848 0 0.5499592109130816
vn 0.9932993858681028 0 -0.11556958957290606
vn -0.8938702263733159 0 0.448325794934127
vn 0.8352025092967662 0 -0.5499425137815634
vn 0.8938775188163465 0 -0.4483112549944873
vn -0.9932988147202743 0 -0.11557449837787823
vn -0.9933010921236924 0 0.11555492367649126
vn 0.5967281709207525 0 -0.8024434497393402
vn 0.6866281243835722 0 -0.7270088161814114
vn -0.8938760368547055 0 -0.44831420983159237
vn -0.9729214414687601 0 -0.23113603944506345
vn -0.6866342841864707 0 -0.7270029984668103
vn -0.8352092927332282 0 -0.5499322115789007
vn 0.05867084818177441 0 -0.9982773820805675
vn -0.05868025961073515 0 -0.9982768289067001
vn -0.39654351579996205 0 -0.9180159258297239
vn -0.5967198202610862 0 -0.8024496595472995
vn -0.2862872159494071 0 -0.9581438461859145
usemtl material_0_0
f 1//1 2//1 3//1
f 1//1 4//1 2//1
f 3//2 2//3 5//4
f 1//1 3//1 6//1
f 1//1 7//1 4//1
f 2//3 4//5 8//6
f 2//3 8//6 5//4
f 3//2 5//4 9//7
f 9//7 6//8 3//2
f 1//1 6//1 10//1
f 1//1 11//1 7//1
f 4//5 7//9 12//10
f 4//5 12//10 8//6
f 13//11 5//11 8//11
f 13//11 9//11 5//11
f 14//12 6//8 9//7
f 14//12 10//13 6//8
f 15//1 1//1 10//1
f 1//1 16//1 11//1
f 7//9 11//14 17//15
f 7//9 17//15 12//10
f 13//11 8//11 12//11
f 13//11 14//11 9//11
f 18//16 10//13 14//12
f 19//1 1//1 15//1
f 18//16 15//17 10//13
f 1//1 20//1 16//1
f 21//18 11//14 16//19
f 17//15 11//14 21//18
f 13//11 12//11 17//11
f 13//11 18//11 14//11
f 22//1 1//1 19//1
f 23//20 19//21 15//17
f 23//20 15//17 18//16
f 24//1 20//1 1//1
f 25//22 16//19 20//23
f 21//18 16//19 25//22
f 13//11 17//11 21//11
f 23//11 18//11 13//11
f 26//1 1//1 22//1
f 27//24 22//25 19//21
f 27//24 19//21 23//20
f 28//26 20//23 24//27
f 29//1 24//1 1//1
f 25//22 20//23 28//26
f 13//11 21//11 25//11
f 27//11 23//11 13//11
f 30//1 1//1 26//1
f 31//28 26//29 22//25
f 31//28 22//25 27//24
f 28//26 24//27 32//30
f 32//30 24//27 29//31
f 33//1 29//1 1//1
f 28//11 13//11 25//11
f 31//11 27//11 13//11
f 30//1 34//1 1//1
f 35//32 30//33 26//29
f 31//28 35//32 26//29
f 32//11 13//11 28//11
f 36//34 32//30 29//31
f 36//34 29//31 33//35
f 34//1 33//1 1//1
f 35//11 31//11 13//11
f 37//36 34//37 30//33
f 35//32 37//36 30//33
f 36//11 13//11 32//11
f 38//38 36//34 33//35
f 38//38 33//35 34//37
f 37//11 35//11 13//11
f 37//36 38//38 34//37
f 38//11 13//11 36//11
f 37//11 13//11 38//11
usemtl material_1_0
f 3//11 2//11 1//11
f 2//11 4//11 1//11
f 5//39 2//40 3//41
f 6//11 3//11 1//11
f 4//11 7//11 1//11
f 8//42 4//43 2//40
f 5//39 8//42 2//40
f 9//44 5//39 3//41
f 3//41 6//31 9//44
f 10//11 6//11 1//11
f 7//11 11//11 1//11
f 12//45 7//46 4//43
f 8//42 12//45 4//43
f 8//1 5//1 13//1
f 5//1 9//1 13//1
f 9//44 6//31 14//30
f 6//31 10//47 14//30
f 10//11 1//11 15//11
f 11//11 16//11 1//11
f 17//48 11//49 7//46
f 12//45 17//48 7//46
f 12//1 8//1 13//1
f 9//1 14//1 13//1
f 14//30 10//47 18//50
f 15//11 1//11 19//11
f 10//47 15//51 18//50
f 16//11 20//11 1//11
f 16//21 11//49 21//52
f 21//52 11//49 17//48
f 17//1 12//1 13//1
f 14//1 18//1 13//1
f 19//11 1//11 22//11
f 15//51 19//19 23//53
f 18//50 15//51 23//53
f 1//11 20//11 24//11
f 20//54 16//21 25//55
f 25//55 16//21 21//52
f 21//1 17//1 13//1
f 13//1 18//1 23//1
f 22//11 1//11 26//11
f 19//19 22//56 27//57
f 23//53 19//19 27//57
f 24//58 20//54 28//59
f 1//11 24//11 29//11
f 28//59 20//54 25//55
f 25//1 21//1 13//1
f 13//1 23//1 27//1
f 26//11 1//11 30//11
f 22//56 26//60 31//61
f 27//57 22//56 31//61
f 32//12 24//58 28//59
f 29//8 24//58 32//12
f 1//11 29//11 33//11
f 25//1 13//1 28//1
f 13//1 27//1 31//1
f 1//11 34//11 30//11
f 26//60 30//62 35//63
f 26//60 35//63 31//61
f 28//1 13//1 32//1
f 29//8 32//12 36//64
f 33//65 29//8 36//64
f 1//11 33//11 34//11
f 13//1 31//1 35//1
f 30//62 34//66 37//67
f 30//62 37//67 35//63
f 32//1 13//1 36//1
f 33//65 36//64 38//68
f 34//66 33//65 38//68
f 13//1 35//1 37//1
f 34//66 38//68 37//67
f 36//1 13//1 38//1
f 38//1 13//1 37//1
