# SSTK version 0.8.0
# 6
mtllib original-6.mtl
o mesh6/mesh6-geometry#mesh6-geometry
v 0.055396 0.228785 -0.612095
v 0.055396 0.219784 -0.590364
v 0.055396 0.219784 -0.613885
v 0.055396 0.236416 -0.606996
v 0.055396 0.210783 -0.612095
v 0.053183 0.229632 -0.614139
v 0.055396 0.241515 -0.599366
v 0.053183 0.237981 -0.608561
v 0.055396 0.203151 -0.606996
v 0.053183 0.219784 -0.616099
v 0.055396 0.243306 -0.590364
v 0.053183 0.243560 -0.600212
v 0.055396 0.198052 -0.599366
v 0.053183 0.209936 -0.614139
v -0.057294 0.237981 -0.608561
v -0.057294 0.229632 -0.614139
v 0.055396 0.241515 -0.581361
v 0.053184 0.245519 -0.590364
v -0.057294 0.243560 -0.600212
v 0.055396 0.196262 -0.590364
v 0.053183 0.201586 -0.608561
v -0.057294 0.219784 -0.616098
v 0.053183 0.243560 -0.580515
v 0.055396 0.236416 -0.573730
v -0.057294 0.245519 -0.590364
v 0.055396 0.198052 -0.581361
v 0.053183 0.196008 -0.600212
v -0.057294 0.209936 -0.614139
v -0.059507 0.236416 -0.606996
v -0.059506 0.241515 -0.599365
v -0.059506 0.228785 -0.612094
v 0.053184 0.237981 -0.572166
v 0.055396 0.228785 -0.568632
v -0.057294 0.243560 -0.580516
v -0.059506 0.243306 -0.590363
v 0.055396 0.203151 -0.573730
v 0.053184 0.194049 -0.590364
v -0.057294 0.201586 -0.608561
v -0.059507 0.219784 -0.613886
v -0.057294 0.237981 -0.572167
v 0.053184 0.229632 -0.566588
v 0.055396 0.219784 -0.566842
v -0.059507 0.241515 -0.581362
v 0.055396 0.210783 -0.568632
v 0.053183 0.196008 -0.580515
v -0.057294 0.196008 -0.600212
v -0.059506 0.210783 -0.612094
v -0.059506 0.219784 -0.590363
v -0.057294 0.229632 -0.566588
v 0.053183 0.219784 -0.564628
v -0.059507 0.236416 -0.573731
v 0.053184 0.201586 -0.572166
v -0.057294 0.194049 -0.590364
v -0.059507 0.203151 -0.606996
v -0.059507 0.228785 -0.568632
v -0.057294 0.219784 -0.564628
v 0.053184 0.209936 -0.566588
v -0.057294 0.196008 -0.580516
v -0.059506 0.198052 -0.599365
v -0.059506 0.219784 -0.566842
v -0.057294 0.209936 -0.566588
v -0.057294 0.201586 -0.572167
v -0.059506 0.196262 -0.590363
v -0.059507 0.210783 -0.568632
v -0.059507 0.198052 -0.581362
v -0.059507 0.203151 -0.573731
vn 1 0.000003999998851958007 4.3421509986813766e-7
vn 1 0 -0.0000025968188929242254
vn 1 0 -0.000012591495915298827
vn 1 0.000020000000815715566 -0.0000017776653556410175
vn 1 -0.000003999998851846985 4.342150998681363e-7
vn 0.3844930277059239 0.36268193822076417 -0.8488974751605527
vn 0.7063165072495329 0.3135698547919487 -0.6346581266733899
vn 0.7063397869886209 0.04683601113849487 -0.7063218058204807
vn 1 0.0000019999999234625212 -0.000022586166411434952
vn 0.3845076590087866 0.6599332590601517 -0.6454780815409843
vn 0.7063610592853136 0.5325470944368512 -0.46631282003843466
vn 1 -0.000020000000815604544 -0.0000017776653556410243
vn 0.706308099835793 -0.22704993012811922 -0.6705051806922653
vn 0.38450669567031653 0.010213002560083688 -0.9230657049004705
vn 1 0 -0.000013984221375913921
vn 0.3845239750269015 0.8567019914034241 -0.34380664704877123
vn 0.7063534883891546 0.6704588594815597 -0.22704551786626084
vn 1 -0.0000019999999233514888 -0.000022586166411434952
vn 0.706332645910426 -0.4663269127880152 -0.5325724398903643
vn 0.3844812836524315 -0.34381401073232626 -0.8567181966931311
vn -0.3844944836504213 0.6454979897014026 -0.6599214630043818
vn -0.3845331424820938 0.34380093808248835 -0.8567001676820467
vn 1 -0.0000020000008993400967 0.000004612402779559187
vn 0.7063302855735291 0.7063308496317138 0.046842913446520536
vn 0.38451302354702804 0.9230630368071395 0.010215909313628719
vn -0.3844958697837522 0.8488948833032776 -0.36268499172250135
vn 0.7063429768093619 -0.6346290760393566 -0.3135690274206335
vn 0.384515074197566 -0.6454709924602533 -0.6599358723445908
vn -0.3845060704558797 -0.010214999630982964 -0.9230659432375983
vn 0.7063164140862325 0.6346580897140047 0.3135701394471992
vn 0.38448764866360774 0.8488991819165674 0.3626836458492614
vn 1 -0.000006000001708574224 0.000011821622074291692
vn -0.3844993623399434 0.9230686902708145 -0.010219266211432518
vn 1 0.0000020000008994511174 0.000004612402779559187
vn 0.7063642472414562 -0.706296758696932 -0.04684483827721988
vn 0.38450789309506334 -0.8488917730428726 -0.36267952493589095
vn -0.384519171248044 -0.3626869155982309 -0.8488835068468222
vn -0.7063546162650887 0.46632233110436133 -0.5325473120713252
vn -0.7063205860090046 0.6346530840855101 -0.31357087339331535
vn -0.7063687366769407 0.2270289198046593 -0.6704484151802826
vn 0.38450233915054693 0.6454889733845536 0.6599257052325759
vn 0.7063751823212037 0.46630479351795173 0.532535389756274
vn 1 -0.0000030000008542998573 0.000011821622074451285
vn -0.38448787922291694 0.8567170642901926 0.343809456653911
vn -0.706331726036452 0.7063290605161576 -0.04684817034558299
vn 1 -0.0000020000004081996153 0.0000032196728689533145
vn 0.706304005059202 -0.6705060680402773 0.2270600474731246
vn 0.38451060747660676 -0.9230640859571164 -0.010212049457592305
vn -0.3845116516208494 -0.659930147584155 -0.6454788843001463
vn -0.706339076242079 -0.046834004843994435 -0.7063226496182599
vn -0.38448343481811054 0.6599341647519248 0.6454915851842278
vn 0.3845419000982292 0.34379007725840555 0.8567005952183661
vn 0.7063752294464415 0.22699200524987118 0.6704540735778475
vn 1 0.00001199999752320228 0.000009036159855439806
vn -0.706318499973917 0.6704970076473536 0.22704171275459556
vn 1 0.000006000001224724889 0.0000032196728689018018
vn 0.7063213833475364 -0.5325762508943345 0.46633961917186206
vn 0.3844734212454128 -0.8567227140217222 0.34381154668670105
vn -0.3844780134217807 -0.8567222729671807 -0.3438075103850823
vn -0.7063651834212638 -0.31356809241417466 -0.6346048211840026
vn -1 -0.0000029999993862542015 0.0000031703931280662763
vn -1 0 -0.000001826943642484139
vn -1 0.000003999998199205705 0.000004563120216070155
vn -1 0 -0.000016245373691564747
vn -1 0 0.000003989547262725902
vn -0.38449737818579593 0.362687022991819 0.8488933322400293
vn 0.3845031007249897 -0.010232001261662295 0.9230669919800241
vn 0.7063294998393235 -0.04681397815983319 0.70633355371636
vn -0.7063023676871341 0.5325839497504404 0.4663596271846107
vn -1 -0.000007000000274490527 -0.000010428890623051582
vn 0.7063740285975906 -0.313546945771747 0.6346054242756038
vn 0.3845211814560906 -0.6599300541941183 0.6454733027654669
vn -0.3845117952558453 -0.9230635939531835 0.010211798439024176
vn -0.7063113691008843 -0.5325818645165168 -0.46634837564523024
vn -0.7062997977683018 0.3135741116385182 0.6346746191416276
vn -0.3845113246005147 0.010205999298000552 0.9230638541467687
vn 0.3845167161469512 -0.36265691622172913 0.8488974355716425
vn -1 -0.000004000000816541762 -0.0000032196728689339984
vn -0.38448400729782134 -0.848905031101759 0.3626738152973424
vn -0.7063138867200752 -0.6704991954927856 -0.227049603104494
vn -1 0.0000029999993861431775 0.000003170393128066277
vn -0.7063475601837994 0.04683999957101569 0.7063137678557465
vn -0.38447281620488 -0.34381098511143776 0.8567232109124808
vn -1 -0.000025999992528841737 -4.342150997248505e-7
vn -0.3844777364352903 -0.6454811649730657 0.65994767660066
vn -0.7063409978193387 -0.706321019084088 0.046829614557417285
vn -1 -0.000003999998199316729 0.000004563120216070153
vn -1 0 0.000012591495915298827
vn -0.7063142616159562 -0.22704690919158538 0.6704997127996809
vn -0.7062886679962156 -0.6346817155922058 0.3135848168407811
vn -1 0.000025999992528730715 -4.342150997248415e-7
vn -0.7062960589228243 -0.466346045448689 0.5326042086244301
vn -1 0.0000070000002743795096 -0.000010428890623051578
vn -1 0.000004000000816430741 -0.0000032196728689339967
vn -1 0 0.0000025968188929242254
vn -1 -0.000003999998851958007 -4.3421509986813766e-7
vn -1 -0.000020000000815715566 0.0000017776653556410175
vn -1 0.000003999998851846985 -4.342150998681363e-7
vn -0.7063397869886209 -0.04683601113849487 0.7063218058204807
vn -0.7063165072495329 -0.3135698547919487 0.6346581266733899
vn -0.3844930277059239 -0.36268193822076417 0.8488974751605527
vn -1 -0.0000019999999234625212 0.000022586166411434952
vn -0.7063610592853136 -0.5325470944368512 0.46631282003843466
vn -0.3845076590087866 -0.6599332590601517 0.6454780815409843
vn -1 0.000020000000815604544 0.0000017776653556410243
vn -0.38450669567031653 -0.010213002560083688 0.9230657049004705
vn -0.706308099835793 0.22704993012811922 0.6705051806922653
vn -1 0 0.000013984221375913921
vn -0.7063534883891546 -0.6704588594815597 0.22704551786626084
vn -0.3845239750269015 -0.8567019914034241 0.34380664704877123
vn -1 0.0000019999999233514888 0.000022586166411434952
vn -0.3844812836524315 0.34381401073232626 0.8567181966931311
vn -0.706332645910426 0.4663269127880152 0.5325724398903643
vn 0.3844944836504213 -0.6454979897014026 0.6599214630043818
vn 0.3845331424820938 -0.34380093808248835 0.8567001676820467
vn -1 0.0000020000008993400967 -0.000004612402779559187
vn -0.38451302354702804 -0.9230630368071395 -0.010215909313628719
vn -0.7063302855735291 -0.7063308496317138 -0.046842913446520536
vn 0.3844958697837522 -0.8488948833032776 0.36268499172250135
vn -0.384515074197566 0.6454709924602533 0.6599358723445908
vn -0.7063429768093619 0.6346290760393566 0.3135690274206335
vn 0.3845060704558797 0.010214999630982964 0.9230659432375983
vn -0.38448764866360774 -0.8488991819165674 -0.3626836458492614
vn -0.7063164140862325 -0.6346580897140047 -0.3135701394471992
vn -1 0.000006000001708574224 -0.000011821622074291692
vn 0.3844993623399434 -0.9230686902708145 0.010219266211432518
vn -1 -0.0000020000008994511174 -0.000004612402779559187
vn -0.38450789309506334 0.8488917730428726 0.36267952493589095
vn -0.7063642472414562 0.706296758696932 0.04684483827721988
vn 0.384519171248044 0.3626869155982309 0.8488835068468222
vn 0.7063546162650887 -0.46632233110436133 0.5325473120713252
vn 0.7063205860090046 -0.6346530840855101 0.31357087339331535
vn 0.7063687366769407 -0.2270289198046593 0.6704484151802826
vn -0.38450233915054693 -0.6454889733845536 -0.6599257052325759
vn -0.7063751823212037 -0.46630479351795173 -0.532535389756274
vn -1 0.0000030000008542998573 -0.000011821622074451285
vn 0.38448787922291694 -0.8567170642901926 -0.343809456653911
vn 0.706331726036452 -0.7063290605161576 0.04684817034558299
vn -1 0.0000020000004081996153 -0.0000032196728689533145
vn -0.38451060747660676 0.9230640859571164 0.010212049457592305
vn -0.706304005059202 0.6705060680402773 -0.2270600474731246
vn 0.3845116516208494 0.659930147584155 0.6454788843001463
vn 0.706339076242079 0.046834004843994435 0.7063226496182599
vn 0.38448343481811054 -0.6599341647519248 -0.6454915851842278
vn -0.3845419000982292 -0.34379007725840555 -0.8567005952183661
vn -0.7063752294464415 -0.22699200524987118 -0.6704540735778475
vn -1 -0.00001199999752320228 -0.000009036159855439806
vn 0.706318499973917 -0.6704970076473536 -0.22704171275459556
vn -1 -0.000006000001224724889 -0.0000032196728689018018
vn -0.3844734212454128 0.8567227140217222 -0.34381154668670105
vn -0.7063213833475364 0.5325762508943345 -0.46633961917186206
vn 0.3844780134217807 0.8567222729671807 0.3438075103850823
vn 0.7063651834212638 0.31356809241417466 0.6346048211840026
vn 1 0 0.000001826943642484139
vn 1 0.0000029999993862542015 -0.0000031703931280662763
vn 1 -0.000003999998199205705 -0.000004563120216070155
vn 1 0 0.000016245373691564747
vn 1 0 -0.000003989547262725902
vn 0.38449737818579593 -0.362687022991819 -0.8488933322400293
vn -0.3845031007249897 0.010232001261662295 -0.9230669919800241
vn -0.7063294998393235 0.04681397815983319 -0.70633355371636
vn 0.7063023676871341 -0.5325839497504404 -0.4663596271846107
vn 1 0.000007000000274490527 0.000010428890623051582
vn -0.3845211814560906 0.6599300541941183 -0.6454733027654669
vn -0.7063740285975906 0.313546945771747 -0.6346054242756038
vn 0.3845117952558453 0.9230635939531835 -0.010211798439024176
vn 0.7063113691008843 0.5325818645165168 0.46634837564523024
vn 0.7062997977683018 -0.3135741116385182 -0.6346746191416276
vn 0.3845113246005147 -0.010205999298000552 -0.9230638541467687
vn -0.3845167161469512 0.36265691622172913 -0.8488974355716425
vn 1 0.000004000000816541762 0.0000032196728689339984
vn 0.38448400729782134 0.848905031101759 -0.3626738152973424
vn 0.7063138867200752 0.6704991954927856 0.227049603104494
vn 1 -0.0000029999993861431775 -0.000003170393128066277
vn 0.7063475601837994 -0.04683999957101569 -0.7063137678557465
vn 0.38447281620488 0.34381098511143776 -0.8567232109124808
vn 1 0.000025999992528841737 4.342150997248505e-7
vn 0.3844777364352903 0.6454811649730657 -0.65994767660066
vn 0.7063409978193387 0.706321019084088 -0.046829614557417285
vn 1 0.000003999998199316729 -0.000004563120216070153
vn 0.7063142616159562 0.22704690919158538 -0.6704997127996809
vn 0.7062886679962156 0.6346817155922058 -0.3135848168407811
vn 1 -0.000025999992528730715 4.342150997248415e-7
vn 0.7062960589228243 0.466346045448689 -0.5326042086244301
vn 1 -0.0000070000002743795096 0.000010428890623051578
vn 1 -0.000004000000816430741 0.0000032196728689339967
usemtl material_0_0
f 1//1 2//2 3//3
f 4//4 2//2 1//1
f 2//2 5//5 3//3
f 6//6 1//7 3//8
f 7//9 2//2 4//4
f 8//10 4//11 1//7
f 2//2 9//12 5//5
f 3//8 5//13 10//14
f 8//10 1//7 6//6
f 6//6 3//8 10//14
f 11//15 2//2 7//9
f 12//16 7//17 4//11
f 12//16 4//11 8//10
f 2//2 13//18 9//12
f 5//13 9//19 14//20
f 10//14 5//13 14//20
f 6//6 15//21 8//10
f 10//14 16//22 6//6
f 11//15 17//23 2//2
f 11//24 7//17 18//25
f 18//25 7//17 12//16
f 12//16 8//10 19//26
f 2//2 20//15 13//18
f 9//19 13//27 21//28
f 14//20 9//19 21//28
f 10//14 14//20 22//29
f 6//6 16//22 15//21
f 8//10 15//21 19//26
f 10//14 22//29 16//22
f 17//30 11//24 23//31
f 17//23 24//32 2//2
f 23//31 11//24 18//25
f 18//25 12//16 25//33
f 12//16 19//26 25//33
f 2//2 26//34 20//15
f 20//35 27//36 13//27
f 21//28 13//27 27//36
f 14//20 21//28 28//37
f 14//20 28//37 22//29
f 16//22 29//38 15//21
f 15//21 30//39 19//26
f 22//29 31//40 16//22
f 17//30 23//31 32//41
f 17//30 32//41 24//42
f 24//32 33//43 2//2
f 23//31 18//25 34//44
f 18//25 25//33 34//44
f 25//33 19//26 35//45
f 2//2 36//46 26//34
f 26//47 37//48 20//35
f 20//35 37//48 27//36
f 27//36 38//49 21//28
f 21//28 38//49 28//37
f 22//29 28//37 39//50
f 16//22 31//40 29//38
f 15//21 29//38 30//39
f 35//45 19//26 30//39
f 22//29 39//50 31//40
f 32//41 23//31 40//51
f 24//42 32//41 41//52
f 24//42 41//52 33//53
f 33//43 42//54 2//2
f 23//31 34//44 40//51
f 34//44 25//33 43//55
f 43//55 25//33 35//45
f 2//2 44//56 36//46
f 26//47 36//57 45//58
f 26//47 45//58 37//48
f 37//48 46//59 27//36
f 27//36 46//59 38//49
f 28//37 38//49 47//60
f 28//37 47//60 39//50
f 29//61 31//62 48//62
f 30//63 29//61 48//62
f 35//64 30//63 48//62
f 31//62 39//65 48//62
f 32//41 40//51 49//66
f 32//41 49//66 41//52
f 33//53 41//52 50//67
f 33//53 50//67 42//68
f 42//54 44//56 2//2
f 34//44 51//69 40//51
f 34//44 43//55 51//69
f 35//64 48//62 43//70
f 36//57 44//71 52//72
f 45//58 36//57 52//72
f 45//58 53//73 37//48
f 37//48 53//73 46//59
f 38//49 46//59 54//74
f 47//60 38//49 54//74
f 39//65 47//62 48//62
f 40//51 55//75 49//66
f 41//52 49//66 56//76
f 41//52 56//76 50//67
f 42//68 50//67 57//77
f 44//71 42//68 57//77
f 40//51 51//69 55//75
f 43//70 48//62 51//78
f 52//72 44//71 57//77
f 52//72 58//79 45//58
f 45//58 58//79 53//73
f 53//73 59//80 46//59
f 54//74 46//59 59//80
f 48//62 47//62 54//81
f 49//66 55//75 60//82
f 49//66 60//82 56//76
f 50//67 56//76 61//83
f 57//77 50//67 61//83
f 51//78 48//62 55//84
f 52//72 57//77 62//85
f 52//72 62//85 58//79
f 58//79 63//86 53//73
f 53//73 63//86 59//80
f 48//62 54//81 59//87
f 55//84 48//62 60//88
f 60//82 64//89 56//76
f 56//76 64//89 61//83
f 57//77 61//83 62//85
f 62//85 65//90 58//79
f 58//79 65//90 63//86
f 48//62 59//87 63//64
f 48//62 64//91 60//88
f 64//89 66//92 61//83
f 61//83 66//92 62//85
f 66//92 65//90 62//85
f 48//62 63//64 65//93
f 48//62 66//94 64//91
f 48//62 65//93 66//94
usemtl material_1_0
f 3//88 2//95 1//96
f 1//96 2//95 4//97
f 3//88 5//98 2//95
f 3//99 1//100 6//101
f 4//97 2//95 7//102
f 1//100 4//103 8//104
f 5//98 9//105 2//95
f 10//106 5//107 3//99
f 6//101 1//100 8//104
f 10//106 3//99 6//101
f 7//102 2//95 11//108
f 4//103 7//109 12//110
f 8//104 4//103 12//110
f 9//105 13//111 2//95
f 14//112 9//113 5//107
f 14//112 5//107 10//106
f 8//104 15//114 6//101
f 6//101 16//115 10//106
f 2//95 17//116 11//108
f 18//117 7//109 11//118
f 12//110 7//109 18//117
f 19//119 8//104 12//110
f 13//111 20//108 2//95
f 21//120 13//121 9//113
f 21//120 9//113 14//112
f 22//122 14//112 10//106
f 15//114 16//115 6//101
f 19//119 15//114 8//104
f 16//115 22//122 10//106
f 23//123 11//118 17//124
f 2//95 24//125 17//116
f 18//117 11//118 23//123
f 25//126 12//110 18//117
f 25//126 19//119 12//110
f 20//108 26//127 2//95
f 13//121 27//128 20//129
f 27//128 13//121 21//120
f 28//130 21//120 14//112
f 22//122 28//130 14//112
f 15//114 29//131 16//115
f 19//119 30//132 15//114
f 16//115 31//133 22//122
f 32//134 23//123 17//124
f 24//135 32//134 17//124
f 2//95 33//136 24//125
f 34//137 18//117 23//123
f 34//137 25//126 18//117
f 35//138 19//119 25//126
f 26//127 36//139 2//95
f 20//129 37//140 26//141
f 27//128 37//140 20//129
f 21//120 38//142 27//128
f 28//130 38//142 21//120
f 39//143 28//130 22//122
f 29//131 31//133 16//115
f 30//132 29//131 15//114
f 30//132 19//119 35//138
f 31//133 39//143 22//122
f 40//144 23//123 32//134
f 41//145 32//134 24//135
f 33//146 41//145 24//135
f 2//95 42//147 33//136
f 40//144 34//137 23//123
f 43//148 25//126 34//137
f 35//138 25//126 43//148
f 36//139 44//149 2//95
f 45//150 36//151 26//141
f 37//140 45//150 26//141
f 27//128 46//152 37//140
f 38//142 46//152 27//128
f 47//153 38//142 28//130
f 39//143 47//153 28//130
f 48//154 31//154 29//155
f 48//154 29//155 30//156
f 48//154 30//156 35//157
f 48//154 39//158 31//154
f 49//159 40//144 32//134
f 41//145 49//159 32//134
f 50//160 41//145 33//146
f 42//161 50//160 33//146
f 2//95 44//149 42//147
f 40//144 51//162 34//137
f 51//162 43//148 34//137
f 43//163 48//154 35//157
f 52//164 44//165 36//151
f 52//164 36//151 45//150
f 37//140 53//166 45//150
f 46//152 53//166 37//140
f 54//167 46//152 38//142
f 54//167 38//142 47//153
f 48//154 47//154 39//158
f 49//159 55//168 40//144
f 56//169 49//159 41//145
f 50//160 56//169 41//145
f 57//170 50//160 42//161
f 57//170 42//161 44//165
f 55//168 51//162 40//144
f 51//171 48//154 43//163
f 57//170 44//165 52//164
f 45//150 58//172 52//164
f 53//166 58//172 45//150
f 46//152 59//173 53//166
f 59//173 46//152 54//167
f 54//174 47//154 48//154
f 60//175 55//168 49//159
f 56//169 60//175 49//159
f 61//176 56//169 50//160
f 61//176 50//160 57//170
f 55//177 48//154 51//171
f 62//178 57//170 52//164
f 58//172 62//178 52//164
f 53//166 63//179 58//172
f 59//173 63//179 53//166
f 59//180 54//174 48//154
f 60//3 48//154 55//177
f 56//169 64//181 60//175
f 61//176 64//181 56//169
f 62//178 61//176 57//170
f 58//172 65//182 62//178
f 63//179 65//182 58//172
f 63//157 59//180 48//154
f 60//3 64//183 48//154
f 61//176 66//184 64//181
f 62//178 66//184 61//176
f 62//178 65//182 66//184
f 65//185 63//157 48//154
f 64//183 66//186 48//154
f 66//186 65//185 48//154
