# SSTK version 0.8.0
# 32
mtllib original-32.mtl
o mesh46/mesh46-geometry#mesh46-geometry
v 0.818997 -0.158588 0.052132
v 0.819236 -0.151365 0.052397
v 0.819753 -0.154997 0.052264
v 0.817505 -0.148127 0.052515
v 0.819236 -0.151622 0.059441
v 0.819753 -0.155255 0.059308
v 0.817057 -0.161704 0.052019
v 0.817505 -0.148385 0.059560
v 0.818997 -0.158847 0.059177
v 0.814772 -0.145677 0.052605
v 0.817057 -0.161962 0.059063
v 0.814168 -0.163969 0.051936
v 0.814772 -0.145935 0.059649
v 0.814168 -0.164227 0.058980
v 0.811364 -0.144309 0.052655
v 0.810677 -0.165368 0.058938
v 0.810677 -0.165109 0.051894
v 0.811364 -0.144567 0.059699
v 0.807694 -0.144188 0.052659
v 0.807007 -0.164988 0.051898
v 0.807694 -0.144446 0.059704
v 0.807007 -0.165246 0.058943
v 0.804204 -0.145329 0.052618
v 0.804204 -0.145586 0.059662
v 0.803600 -0.163620 0.051948
v 0.803600 -0.163878 0.058993
v 0.801314 -0.147593 0.052535
v 0.801314 -0.147851 0.059579
v 0.800866 -0.161170 0.052038
v 0.800866 -0.161428 0.059082
v 0.799374 -0.150710 0.052421
v 0.799136 -0.158192 0.059201
v 0.799374 -0.150967 0.059465
v 0.799136 -0.157933 0.052157
v 0.798618 -0.154300 0.052289
v 0.798618 -0.154558 0.059334
vn 0.0000010000004964226612 0.03655901813249169 -0.9993314956470591
vn -0.0000010000004964226612 -0.03655901813249169 0.9993314956470591
vn 0.9504773393352031 0.3105861108840754 0.011362004056412774
vn 0.9994554707806176 -0.032974015531985014 -0.001215000572309923
vn -0.9504773393352031 -0.3105861108840754 -0.011362004056412774
vn -0.9994554707806176 0.032974015531985014 0.001215000572309923
vn 0.9279039589045264 -0.37256898349947887 -0.013659999395018801
vn -0.9279039589045264 0.37256898349947887 0.013659999395018801
vn 0.7868230049609191 0.6167650038887033 0.022594000142455654
vn -0.7868230049609191 -0.6167650038887033 -0.022594000142455654
vn 0.7444409600320827 -0.6672399641768881 -0.02446399868656446
vn -0.7444409600320827 0.6672399641768881 0.02446399868656446
vn 0.5282781520424361 0.8485012442050568 0.031110008953695614
vn -0.5282781520424361 -0.8485012442050568 -0.031110008953695614
vn -0.000002000000919279425 -0.03656001679631559 0.999331459110466
vn 0.000002000000919279425 0.03656001679631559 -0.999331459110466
vn 0.47113492839998145 -0.8814688660401013 -0.032318995088369565
vn -0.47113492839998145 0.8814688660401013 0.032318995088369565
vn 0.20603300255048257 0.9778880121052758 0.03585300044382461
vn -0.20603300255048257 -0.9778880121052758 -0.03585300044382461
vn 0.14100893714577384 -0.9893435590036695 -0.03627398383100243
vn -0.14100893714577384 0.9893435590036695 0.03627398383100243
vn -0.14108306495458753 0.9893344554891934 0.03623401668212717
vn 0.14108306495458753 -0.9893344554891934 -0.03623401668212717
vn -0.20603299516347853 -0.977887977044569 -0.03585399915834562
vn 0.20603299516347853 0.977887977044569 0.03585399915834562
vn -0.47114584287571465 0.881465706036525 0.03224598924615785
vn 0.47114584287571465 -0.881465706036525 -0.03224598924615785
vn -0.74442727482064 0.6672572463317368 0.024409009011087546
vn 0.74442727482064 -0.6672572463317368 -0.024409009011087546
vn -0.7868214199400799 -0.6167663291787626 -0.02261301206895267
vn 0.7868214199400799 0.6167663291787626 0.02261301206895267
vn -0.9278991494729664 0.37258206001831745 0.013630002195622827
vn 0.9278991494729664 -0.37258206001831745 -0.013630002195622827
vn -0.9504558175899628 -0.3106509403803432 -0.011389997814049407
vn 0.9504558175899628 0.3106509403803432 0.011389997814049407
vn -0.999455885372411 0.03296199621958886 0.001199999862371587
vn 0.999455885372411 -0.03296199621958886 -0.001199999862371587
usemtl material_0_0
f 1//1 2//1 3//1
f 2//1 1//1 4//1
f 3//2 2//2 1//2
f 4//2 1//2 2//2
f 5//3 3//4 2//3
f 2//5 3//6 5//5
f 6//4 1//7 3//4
f 3//6 1//8 6//6
f 4//1 1//1 7//1
f 7//2 1//2 4//2
f 8//9 2//3 4//9
f 4//10 2//5 8//10
f 3//4 5//3 6//4
f 6//6 5//5 3//6
f 2//3 8//9 5//3
f 5//5 8//10 2//5
f 1//7 6//4 9//7
f 9//8 6//6 1//8
f 9//7 7//11 1//7
f 1//8 7//12 9//8
f 4//1 7//1 10//1
f 10//2 7//2 4//2
f 10//13 8//9 4//9
f 4//10 8//10 10//14
f 5//15 9//15 6//15
f 6//16 9//16 5//16
f 9//15 5//15 8//15
f 8//16 5//16 9//16
f 7//11 9//7 11//11
f 11//12 9//8 7//12
f 10//1 7//1 12//1
f 12//2 7//2 10//2
f 8//9 10//13 13//13
f 13//14 10//14 8//10
f 9//15 8//15 11//15
f 11//16 8//16 9//16
f 14//17 7//11 11//11
f 11//12 7//12 14//18
f 7//11 14//17 12//17
f 12//18 14//18 7//12
f 10//1 12//1 15//1
f 15//2 12//2 10//2
f 15//19 13//13 10//13
f 10//14 13//14 15//20
f 11//15 8//15 13//15
f 13//16 8//16 11//16
f 11//15 13//15 14//15
f 14//16 13//16 11//16
f 16//21 12//17 14//17
f 14//18 12//18 16//22
f 15//1 12//1 17//1
f 17//2 12//2 15//2
f 13//13 15//19 18//19
f 18//20 15//20 13//14
f 14//15 13//15 18//15
f 18//16 13//16 14//16
f 12//17 16//21 17//21
f 17//22 16//22 12//18
f 14//15 18//15 16//15
f 16//16 18//16 14//16
f 15//1 17//1 19//1
f 19//2 17//2 15//2
f 19//23 18//19 15//19
f 15//20 18//20 19//24
f 16//21 20//25 17//21
f 17//22 20//26 16//22
f 16//15 18//15 21//15
f 21//16 18//16 16//16
f 19//1 17//1 20//1
f 20//2 17//2 19//2
f 18//19 19//23 21//23
f 21//24 19//24 18//20
f 20//25 16//21 22//25
f 22//26 16//22 20//26
f 16//15 21//15 22//15
f 22//16 21//16 16//16
f 19//1 20//1 23//1
f 23//2 20//2 19//2
f 19//23 24//27 21//23
f 21//24 24//28 19//24
f 22//25 25//14 20//25
f 20//26 25//13 22//26
f 22//15 21//15 24//15
f 24//16 21//16 22//16
f 23//1 20//1 25//1
f 25//2 20//2 23//2
f 24//27 19//23 23//27
f 23//28 19//24 24//28
f 25//14 22//25 26//14
f 26//13 22//26 25//13
f 22//15 24//15 26//15
f 26//16 24//16 22//16
f 23//1 25//1 27//1
f 27//2 25//2 23//2
f 23//27 28//29 24//27
f 24//28 28//30 23//28
f 26//14 29//31 25//14
f 25//13 29//32 26//13
f 26//15 24//15 28//15
f 28//16 24//16 26//16
f 27//1 25//1 29//1
f 29//2 25//2 27//2
f 28//29 23//27 27//29
f 27//30 23//28 28//30
f 29//31 26//14 30//31
f 30//32 26//13 29//32
f 26//15 28//15 30//15
f 30//16 28//16 26//16
f 27//1 29//1 31//1
f 31//2 29//2 27//2
f 31//33 28//29 27//29
f 27//30 28//30 31//34
f 32//35 29//31 30//31
f 30//32 29//32 32//36
f 30//15 28//15 33//15
f 33//16 28//16 30//16
f 31//1 29//1 34//1
f 34//2 29//2 31//2
f 28//29 31//33 33//33
f 33//34 31//34 28//30
f 29//31 32//35 34//35
f 34//36 32//36 29//32
f 30//15 33//15 32//15
f 32//16 33//16 30//16
f 31//1 34//1 35//1
f 35//2 34//2 31//2
f 35//37 33//33 31//33
f 31//34 33//34 35//38
f 36//37 34//35 32//35
f 32//36 34//36 36//38
f 32//15 33//15 36//15
f 36//16 33//16 32//16
f 34//35 36//37 35//37
f 35//38 36//38 34//36
f 33//33 35//37 36//37
f 36//38 35//38 33//34
