# SSTK version 0.8.0
# 43
mtllib original-43.mtl
o mesh57/mesh57-geometry#mesh57-geometry
v 0.818429 0.185603 0.064724
v 0.818156 0.192826 0.064988
v 0.818930 0.189238 0.064857
v 0.816714 0.182358 0.064606
v 0.818156 0.192568 0.072033
v 0.818930 0.188981 0.071902
v 0.818429 0.185346 0.071769
v 0.816201 0.195933 0.065102
v 0.816201 0.195674 0.072147
v 0.816714 0.182101 0.071650
v 0.813992 0.179895 0.064515
v 0.813992 0.179637 0.071560
v 0.813301 0.198184 0.065185
v 0.810592 0.178252 0.071509
v 0.810592 0.178511 0.064465
v 0.813301 0.197926 0.072229
v 0.809805 0.199308 0.065226
v 0.806922 0.178114 0.071504
v 0.809805 0.199050 0.072270
v 0.806922 0.178372 0.064460
v 0.806135 0.199169 0.065221
v 0.806135 0.198911 0.072265
v 0.803426 0.179496 0.064501
v 0.803426 0.179238 0.071545
v 0.802734 0.197785 0.065170
v 0.802734 0.197527 0.072214
v 0.800526 0.181747 0.064583
v 0.800526 0.181489 0.071627
v 0.800013 0.195321 0.065080
v 0.800013 0.195064 0.072124
v 0.798571 0.184595 0.071741
v 0.798571 0.184854 0.064697
v 0.798298 0.192076 0.064961
v 0.797797 0.188183 0.071872
v 0.798298 0.191818 0.072005
v 0.797797 0.188440 0.064828
vn 0.000002000000919279425 0.03656001679631559 -0.999331459110466
vn -0.000002000000919279425 -0.03656001679631559 0.999331459110466
vn 0.9260947885290574 0.37703791390453323 0.013814996845387768
vn 0.999286744915103 0.037736990366992906 0.0013859996462005256
vn -0.9260947885290574 -0.37703791390453323 -0.013814996845387768
vn -0.999286744915103 -0.037736990366992906 -0.0013859996462005256
vn 0.9519173484179959 -0.30615111205653206 -0.01117400408987585
vn -0.9519173484179959 0.30615111205653206 0.01117400408987585
vn 0.7897628980404318 -0.6130029208604084 -0.02240499710748124
vn -0.7897628980404318 0.6130029208604084 0.02240499710748124
vn 0.741220222311991 0.6708112011944213 0.02459500737670836
vn -0.741220222311991 -0.6708112011944213 -0.02459500737670836
vn 0.0000010000003858534314 -0.03656201412379931 0.999331386038791
vn -0.0000010000003858534314 0.03656201412379931 -0.999331386038791
vn 0.5323812642328656 -0.8459374198578792 -0.03098501537856406
vn -0.5323812642328656 0.8459374198578792 0.03098501537856406
vn 0.4669341540040148 0.8836982914609768 0.03240101068648732
vn -0.4669341540040148 -0.8836982914609768 -0.03240101068648732
vn 0.21070602008302391 -0.9768930931106159 -0.03581700341382634
vn -0.21070602008302391 0.9768930931106159 0.03581700341382634
vn 0.13634404695989744 0.9899963409765785 0.0362980125018365
vn -0.13634404695989744 -0.9899963409765785 -0.0362980125018365
vn -0.13633200006598467 -0.9899980004791589 -0.03629800001756851
vn 0.13633200006598467 0.9899980004791589 0.03629800001756851
vn -0.21069106849715236 0.9768963175958827 0.03581701164436323
vn 0.21069106849715236 -0.9768963175958827 -0.03581701164436323
vn -0.46694483393716973 -0.8836926857262402 -0.032399988477367754
vn 0.46694483393716973 0.8836926857262402 0.032399988477367754
vn -0.5323690624439666 0.8459450992247132 0.030985003634370678
vn 0.5323690624439666 -0.8459450992247132 -0.030985003634370678
vn -0.7412368503242817 -0.6707928645488228 -0.024593995033809348
vn 0.7412368503242817 0.6707928645488228 0.024593995033809348
vn -0.7898072127729071 0.6129451651265302 0.02242300604072479
vn 0.7898072127729071 -0.6129451651265302 -0.02242300604072479
vn -0.9261090145926999 -0.37700300594043634 -0.0138140002176677
vn 0.9261090145926999 0.37700300594043634 0.0138140002176677
vn -0.9519482874712911 0.3060540924228409 0.01119600338099165
vn 0.9519482874712911 -0.3060540924228409 -0.01119600338099165
vn -0.9992871302580852 -0.03772700491775313 -0.0013800001798848671
vn 0.9992871302580852 0.03772700491775313 0.0013800001798848671
usemtl material_0_0
f 1//1 2//1 3//1
f 2//1 1//1 4//1
f 3//2 2//2 1//2
f 4//2 1//2 2//2
f 5//3 3//4 2//3
f 2//5 3//6 5//5
f 6//4 1//7 3//4
f 3//6 1//8 6//6
f 7//7 4//9 1//7
f 1//8 4//10 7//8
f 2//1 4//1 8//1
f 8//2 4//2 2//2
f 3//4 5//3 6//4
f 6//6 5//5 3//6
f 2//3 9//11 5//3
f 5//5 9//12 2//5
f 1//7 6//4 7//7
f 7//8 6//6 1//8
f 4//9 7//7 10//9
f 10//10 7//8 4//10
f 8//1 4//1 11//1
f 11//2 4//2 8//2
f 9//11 2//3 8//11
f 8//12 2//5 9//12
f 5//13 7//13 6//13
f 6//14 7//14 5//14
f 10//13 5//13 9//13
f 9//14 5//14 10//14
f 7//13 5//13 10//13
f 10//14 5//14 7//14
f 12//15 4//9 10//9
f 10//10 4//10 12//16
f 4//9 12//15 11//15
f 11//16 12//16 4//10
f 8//1 11//1 13//1
f 13//2 11//2 8//2
f 13//17 9//11 8//11
f 8//12 9//12 13//18
f 10//13 9//13 12//13
f 12//14 9//14 10//14
f 14//19 11//15 12//15
f 12//16 11//16 14//20
f 13//1 11//1 15//1
f 15//2 11//2 13//2
f 9//11 13//17 16//17
f 16//18 13//18 9//12
f 12//13 9//13 16//13
f 16//14 9//14 12//14
f 11//15 14//19 15//19
f 15//20 14//20 11//16
f 12//13 16//13 14//13
f 14//14 16//14 12//14
f 13//1 15//1 17//1
f 17//2 15//2 13//2
f 17//21 16//17 13//17
f 13//18 16//18 17//22
f 18//23 15//19 14//19
f 14//20 15//20 18//24
f 14//13 16//13 19//13
f 19//14 16//14 14//14
f 17//1 15//1 20//1
f 20//2 15//2 17//2
f 16//17 17//21 19//21
f 19//22 17//22 16//18
f 15//19 18//23 20//23
f 20//24 18//24 15//20
f 14//13 19//13 18//13
f 18//14 19//14 14//14
f 17//1 20//1 21//1
f 21//2 20//2 17//2
f 17//21 22//25 19//21
f 19//22 22//26 17//22
f 18//23 23//27 20//23
f 20//24 23//28 18//24
f 18//13 19//13 22//13
f 22//14 19//14 18//14
f 21//1 20//1 23//1
f 23//2 20//2 21//2
f 22//25 17//21 21//25
f 21//26 17//22 22//26
f 23//27 18//23 24//27
f 24//28 18//24 23//28
f 18//13 22//13 24//13
f 24//14 22//14 18//14
f 21//1 23//1 25//1
f 25//2 23//2 21//2
f 21//25 26//29 22//25
f 22//26 26//30 21//26
f 24//27 27//31 23//27
f 23//28 27//32 24//28
f 24//13 22//13 26//13
f 26//14 22//14 24//14
f 25//1 23//1 27//1
f 27//2 23//2 25//2
f 26//29 21//25 25//29
f 25//30 21//26 26//30
f 27//31 24//27 28//31
f 28//32 24//28 27//32
f 24//13 26//13 28//13
f 28//14 26//14 24//14
f 25//1 27//1 29//1
f 29//2 27//2 25//2
f 25//29 30//33 26//29
f 26//30 30//34 25//30
f 31//35 27//31 28//31
f 28//32 27//32 31//36
f 28//13 26//13 30//13
f 30//14 26//14 28//14
f 29//1 27//1 32//1
f 32//2 27//2 29//2
f 30//33 25//29 29//33
f 29//34 25//30 30//34
f 27//31 31//35 32//35
f 32//36 31//36 27//32
f 28//13 30//13 31//13
f 31//14 30//14 28//14
f 29//1 32//1 33//1
f 33//2 32//2 29//2
f 33//37 30//33 29//33
f 29//34 30//34 33//38
f 34//39 32//35 31//35
f 31//36 32//36 34//40
f 31//13 30//13 35//13
f 35//14 30//14 31//14
f 33//1 32//1 36//1
f 36//2 32//2 33//2
f 30//33 33//37 35//37
f 35//38 33//38 30//34
f 32//35 34//39 36//39
f 36//40 34//40 32//36
f 31//13 35//13 34//13
f 34//14 35//14 31//14
f 36//39 35//37 33//37
f 33//38 35//38 36//40
f 35//37 36//39 34//39
f 34//40 36//40 35//38
