# SSTK version 0.8.0
# 37
mtllib original-37.mtl
o mesh51/mesh51-geometry#mesh51-geometry
v -0.771401 -0.243200 0.049037
v -0.772421 -0.236045 0.049298
v -0.771279 -0.239532 0.049171
v -0.772770 -0.246605 0.048912
v -0.771279 -0.239790 0.056215
v -0.771401 -0.243458 0.056081
v -0.774687 -0.233157 0.049404
v -0.772421 -0.236302 0.056343
v -0.772770 -0.246862 0.055956
v -0.775222 -0.249337 0.048812
v -0.774687 -0.233414 0.056448
v -0.777805 -0.231218 0.049475
v -0.775222 -0.249595 0.055856
v -0.778461 -0.251065 0.048749
v -0.777805 -0.231476 0.056519
v -0.778461 -0.251324 0.055793
v -0.781399 -0.230461 0.049502
v -0.782096 -0.251841 0.055774
v -0.782096 -0.251583 0.048730
v -0.781399 -0.230720 0.056547
v -0.785034 -0.230979 0.049484
v -0.785034 -0.231237 0.056528
v -0.785690 -0.250827 0.048757
v -0.785690 -0.251085 0.055802
v -0.788273 -0.232709 0.049420
v -0.788273 -0.232966 0.056465
v -0.788808 -0.248889 0.048828
v -0.788808 -0.249147 0.055873
v -0.790725 -0.235441 0.049320
v -0.791074 -0.246259 0.055978
v -0.790725 -0.235698 0.056365
v -0.791074 -0.246001 0.048934
v -0.792094 -0.238846 0.049196
v -0.792215 -0.242771 0.056106
v -0.792094 -0.239103 0.056240
v -0.792215 -0.242513 0.049062
vn 0.0000020000008461583285 0.0365610154600848 -0.9993314225743767
vn -0.0000020000008461583285 -0.0365610154600848 0.9993314225743767
vn 0.9899997963763678 0.14097497100420042 0.005143998941980304
vn 0.9785406898877836 -0.2059159347425737 -0.007532997612695119
vn 0.8490777237725609 -0.5279148282553446 -0.01931199371729744
vn -0.9785406898877836 0.2059159347425737 0.007532997612695119
vn -0.8490777237725609 0.5279148282553446 0.01931199371729744
vn 0.8820532831700213 0.47083615115490807 0.017185005516989628
vn -0.8820532831700213 -0.47083615115490807 -0.017185005516989628
vn -0.9899997963763678 -0.14097497100420042 -0.005143998941980304
vn 0.6677267923460143 0.7439097686541407 0.027187991544903443
vn -0.6677267923460143 -0.7439097686541407 -0.027187991544903443
vn 9.999995327620344e-7 -0.03655798293493883 0.9993315335176454
vn -9.999995327620344e-7 0.03655798293493883 -0.9993315335176454
vn 0.6171826806268695 -0.7862925931176702 -0.0288009850963724
vn -0.6171826806268695 0.7862925931176702 0.0288009850963724
vn 0.3728532384626528 0.9272685930454819 0.03396202172080888
vn -0.3728532384626528 -0.9272685930454819 -0.03396202172080888
vn 0.31081506634752365 -0.9498322027540531 -0.03482500743385144
vn -0.31081506634752365 0.9498322027540531 0.03482500743385144
vn 0.032991983954533954 0.998784514246763 0.03661998219007764
vn -0.032991983954533954 -0.998784514246763 -0.03661998219007764
vn -0.03299501364210465 -0.9987844129569893 -0.036620015140896515
vn 0.03299501364210465 0.9987844129569893 0.036620015140896515
vn -0.31089212312931613 0.9498083761731065 0.034787013777451796
vn 0.31089212312931613 -0.9498083761731065 -0.034787013777451796
vn -0.3728010960803614 -0.927288238985856 -0.03399800876215532
vn 0.3728010960803614 0.927288238985856 0.03399800876215532
vn -0.6171918328940994 0.7862877871110379 0.028735992219673594
vn 0.6171918328940994 -0.7862877871110379 -0.028735992219673594
vn -0.6676839776135584 -0.7439449750566411 -0.02727599908547714
vn 0.6676839776135584 0.7439449750566411 0.02727599908547714
vn -0.849047626237006 0.5279647675823049 0.019269991517071927
vn 0.849047626237006 -0.5279647675823049 -0.019269991517071927
vn -0.8820533440595278 -0.4708331836562879 -0.017263006733722427
vn 0.8820533440595278 0.4708331836562879 0.017263006733722427
vn -0.9785471142644638 0.20588602404120948 0.007516000877639327
vn 0.9785471142644638 -0.20588602404120948 -0.007516000877639327
vn -0.9899970864767442 -0.14099301231581063 -0.005171000451689964
vn 0.9899970864767442 0.14099301231581063 0.005171000451689964
usemtl material_0_0
f 1//1 2//1 3//1
f 2//1 1//1 4//1
f 3//2 2//2 1//2
f 4//2 1//2 2//2
f 5//3 1//4 3//3
f 6//4 4//5 1//4
f 1//6 4//7 6//6
f 2//1 4//1 7//1
f 7//2 4//2 2//2
f 8//8 3//3 2//8
f 2//9 3//10 8//9
f 1//4 5//3 6//4
f 6//6 5//10 1//6
f 3//10 1//6 5//10
f 3//3 8//8 5//3
f 5//10 8//9 3//10
f 4//5 6//4 9//5
f 9//7 6//6 4//7
f 7//1 4//1 10//1
f 10//2 4//2 7//2
f 11//11 2//8 7//11
f 7//12 2//9 11//12
f 2//8 11//11 8//8
f 8//9 11//12 2//9
f 8//13 6//13 5//13
f 5//14 6//14 8//14
f 6//13 8//13 9//13
f 9//14 8//14 6//14
f 9//5 10//15 4//5
f 4//7 10//16 9//7
f 7//1 10//1 12//1
f 12//2 10//2 7//2
f 12//17 11//11 7//11
f 7//12 11//12 12//18
f 9//13 8//13 11//13
f 11//14 8//14 9//14
f 10//15 9//5 13//15
f 13//16 9//7 10//16
f 12//1 10//1 14//1
f 14//2 10//2 12//2
f 11//11 12//17 15//17
f 15//18 12//18 11//12
f 9//13 11//13 13//13
f 13//14 11//14 9//14
f 16//19 10//15 13//15
f 13//16 10//16 16//20
f 10//15 16//19 14//19
f 14//20 16//20 10//16
f 12//1 14//1 17//1
f 17//2 14//2 12//2
f 17//21 15//17 12//17
f 12//18 15//18 17//22
f 13//13 11//13 15//13
f 15//14 11//14 13//14
f 13//13 15//13 16//13
f 16//14 15//14 13//14
f 18//23 14//19 16//19
f 16//20 14//20 18//24
f 17//1 14//1 19//1
f 19//2 14//2 17//2
f 15//17 17//21 20//21
f 20//22 17//22 15//18
f 16//13 15//13 20//13
f 20//14 15//14 16//14
f 14//19 18//23 19//23
f 19//24 18//24 14//20
f 16//13 20//13 18//13
f 18//14 20//14 16//14
f 17//1 19//1 21//1
f 21//2 19//2 17//2
f 17//21 22//25 20//21
f 20//22 22//26 17//22
f 18//23 23//27 19//23
f 19//24 23//28 18//24
f 18//13 20//13 22//13
f 22//14 20//14 18//14
f 21//1 19//1 23//1
f 23//2 19//2 21//2
f 22//25 17//21 21//25
f 21//26 17//22 22//26
f 23//27 18//23 24//27
f 24//28 18//24 23//28
f 18//13 22//13 24//13
f 24//14 22//14 18//14
f 21//1 23//1 25//1
f 25//2 23//2 21//2
f 21//25 26//29 22//25
f 22//26 26//30 21//26
f 24//27 27//31 23//27
f 23//28 27//32 24//28
f 24//13 22//13 26//13
f 26//14 22//14 24//14
f 25//1 23//1 27//1
f 27//2 23//2 25//2
f 26//29 21//25 25//29
f 25//30 21//26 26//30
f 27//31 24//27 28//31
f 28//32 24//28 27//32
f 24//13 26//13 28//13
f 28//14 26//14 24//14
f 25//1 27//1 29//1
f 29//2 27//2 25//2
f 29//33 26//29 25//29
f 25//30 26//30 29//34
f 30//35 27//31 28//31
f 28//32 27//32 30//36
f 28//13 26//13 31//13
f 31//14 26//14 28//14
f 29//1 27//1 32//1
f 32//2 27//2 29//2
f 26//29 29//33 31//33
f 31//34 29//34 26//30
f 27//31 30//35 32//35
f 32//36 30//36 27//32
f 28//13 31//13 30//13
f 30//14 31//14 28//14
f 29//1 32//1 33//1
f 33//2 32//2 29//2
f 33//37 31//33 29//33
f 29//34 31//34 33//38
f 34//39 32//35 30//35
f 30//36 32//36 34//40
f 30//13 31//13 35//13
f 35//14 31//14 30//14
f 33//1 32//1 36//1
f 36//2 32//2 33//2
f 31//33 33//37 35//37
f 35//38 33//38 31//34
f 32//35 34//39 36//39
f 36//40 34//40 32//36
f 30//13 35//13 34//13
f 34//14 35//14 30//14
f 36//39 35//37 33//37
f 33//38 35//38 36//40
f 35//37 36//39 34//39
f 34//40 36//40 35//38
