# SSTK version 0.8.0
# 23
mtllib original-23.mtl
o mesh37/mesh37-geometry#mesh37-geometry
v 0.348480 -0.740351 0.030849
v 0.347969 -0.733141 0.031112
v 0.348860 -0.736701 0.030982
v 0.346873 -0.743651 0.030728
v 0.347969 -0.733399 0.038157
v 0.348860 -0.736958 0.038027
v 0.348480 -0.740608 0.037893
v 0.345912 -0.730100 0.031224
v 0.345912 -0.730359 0.038268
v 0.346873 -0.743909 0.037772
v 0.344234 -0.746202 0.030635
v 0.344234 -0.746460 0.037679
v 0.342939 -0.727947 0.031303
v 0.340881 -0.747956 0.037624
v 0.340881 -0.747698 0.030580
v 0.342939 -0.728204 0.038347
v 0.339408 -0.726938 0.031339
v 0.337218 -0.748216 0.037615
v 0.339408 -0.727196 0.038384
v 0.337218 -0.747957 0.030570
v 0.335746 -0.727198 0.031330
v 0.335746 -0.727456 0.038374
v 0.333687 -0.746950 0.030607
v 0.333687 -0.747207 0.037652
v 0.332392 -0.728694 0.031275
v 0.332392 -0.728951 0.038320
v 0.330714 -0.744795 0.030686
v 0.330714 -0.745054 0.037730
v 0.329753 -0.731245 0.031182
v 0.329753 -0.731503 0.038226
v 0.328658 -0.741755 0.030797
v 0.328658 -0.742012 0.037842
v 0.328146 -0.734546 0.031061
v 0.328146 -0.734803 0.038105
v 0.327766 -0.738453 0.037972
v 0.327766 -0.738195 0.030927
vn 0 0.03656201412381759 -0.9993313860392907
vn 0 -0.03656201412381759 0.9993313860392907
vn 0.9131613542710607 0.4073261580266941 0.014891005777131107
vn 0.9974973352095344 0.07065702374433214 0.0025790008666751346
vn -0.9131613542710607 -0.4073261580266941 -0.014891005777131107
vn -0.9974973352095344 -0.07065702374433214 -0.0025790008666751346
vn 0.9615267327162783 -0.2745279236871501 -0.010037997209652615
vn -0.9615267327162783 0.2745279236871501 0.010037997209652615
vn 0.8095539550288743 -0.5866519674111907 -0.021490998806164077
vn -0.8095539550288743 0.5866519674111907 0.021490998806164077
vn 0.7186751666658212 0.6948811611478241 0.025420005895078465
vn -0.7186751666658212 -0.6948811611478241 -0.025420005895078465
vn 0.0000010000003858534314 -0.03656201412379931 0.999331386038791
vn -0.0000010000003858534314 0.03656201412379931 -0.999331386038791
vn 0.5599840554941428 -0.8279470820491458 -0.03035600300826481
vn -0.5599840554941428 0.8279470820491458 0.03035600300826481
vn 0.43750094053947 0.8986168778694378 0.03287299553224832
vn -0.43750094053947 -0.8986168778694378 -0.03287299553224832
vn 0.24288493402153102 -0.9694037366663576 -0.03554299034492581
vn -0.24288493402153102 0.9694037366663576 0.03554299034492581
vn 0.10357601888165101 0.9939551811955613 0.03640200663599567
vn -0.10357601888165101 -0.9939551811955613 -0.03640200663599567
vn -0.1035809652387518 -0.9939546664338396 -0.03640198778367722
vn 0.1035809652387518 0.9939546664338396 0.03640198778367722
vn -0.24281491717839546 0.9694226693401629 0.03550498788962361
vn 0.24281491717839546 -0.9694226693401629 -0.03550498788962361
vn -0.4374949095361245 -0.8986198141861099 -0.032872993202622186
vn 0.4374949095361245 0.8986198141861099 0.032872993202622186
vn -0.5599711865967097 0.8279582758968564 0.03028801009273893
vn 0.5599711865967097 -0.8279582758968564 -0.03028801009273893
vn -0.7186781153593456 -0.6948781115390639 -0.02542000408031818
vn 0.7186781153593456 0.6948781115390639 0.02542000408031818
vn -0.8095981680932419 0.586592121791495 0.021459004455436758
vn 0.8095981680932419 -0.586592121791495 -0.021459004455436758
vn -0.9131603081985049 -0.40732813747632457 -0.014901005029202302
vn 0.9131603081985049 0.40732813747632457 0.014901005029202302
vn -0.9615338211888604 0.2745029489522011 0.010041998132544649
vn 0.9615338211888604 -0.2745029489522011 -0.010041998132544649
vn -0.9974954038475672 -0.07068402861724764 -0.0025860010469729335
vn 0.9974954038475672 0.07068402861724764 0.0025860010469729335
usemtl material_0_0
f 1//1 2//1 3//1
f 2//1 1//1 4//1
f 3//2 2//2 1//2
f 4//2 1//2 2//2
f 5//3 3//4 2//3
f 2//5 3//6 5//5
f 6//4 1//7 3//4
f 3//6 1//8 6//6
f 7//7 4//9 1//7
f 1//8 4//10 7//8
f 2//1 4//1 8//1
f 8//2 4//2 2//2
f 3//4 5//3 6//4
f 6//6 5//5 3//6
f 2//3 9//11 5//3
f 5//5 9//12 2//5
f 1//7 6//4 7//7
f 7//8 6//6 1//8
f 4//9 7//7 10//9
f 10//10 7//8 4//10
f 8//1 4//1 11//1
f 9//11 2//3 8//11
f 11//2 4//2 8//2
f 5//13 7//13 6//13
f 6//14 7//14 5//14
f 8//12 2//5 9//12
f 10//13 5//13 9//13
f 7//13 5//13 10//13
f 10//14 5//14 7//14
f 12//15 4//9 10//9
f 10//10 4//10 12//16
f 4//9 12//15 11//15
f 11//16 12//16 4//10
f 8//1 11//1 13//1
f 13//17 9//11 8//11
f 8//12 9//12 13//18
f 13//2 11//2 8//2
f 9//14 5//14 10//14
f 10//13 9//13 12//13
f 12//14 9//14 10//14
f 14//19 11//15 12//15
f 12//16 11//16 14//20
f 13//1 11//1 15//1
f 15//2 11//2 13//2
f 9//11 13//17 16//17
f 16//18 13//18 9//12
f 12//13 9//13 16//13
f 16//14 9//14 12//14
f 11//15 14//19 15//19
f 15//20 14//20 11//16
f 12//13 16//13 14//13
f 13//1 15//1 17//1
f 17//2 15//2 13//2
f 17//21 16//17 13//17
f 13//18 16//18 17//22
f 14//14 16//14 12//14
f 18//23 15//19 14//19
f 14//20 15//20 18//24
f 14//13 16//13 19//13
f 19//14 16//14 14//14
f 17//1 15//1 20//1
f 20//2 15//2 17//2
f 16//17 17//21 19//21
f 19//22 17//22 16//18
f 15//19 18//23 20//23
f 20//24 18//24 15//20
f 14//13 19//13 18//13
f 18//14 19//14 14//14
f 17//1 20//1 21//1
f 21//2 20//2 17//2
f 17//21 22//25 19//21
f 19//22 22//26 17//22
f 18//23 23//27 20//23
f 20//24 23//28 18//24
f 18//13 19//13 22//13
f 22//14 19//14 18//14
f 21//1 20//1 23//1
f 23//2 20//2 21//2
f 22//25 17//21 21//25
f 21//26 17//22 22//26
f 23//27 18//23 24//27
f 24//28 18//24 23//28
f 18//13 22//13 24//13
f 24//14 22//14 18//14
f 21//1 23//1 25//1
f 25//2 23//2 21//2
f 21//25 26//29 22//25
f 22//26 26//30 21//26
f 24//27 27//31 23//27
f 23//28 27//32 24//28
f 24//13 22//13 26//13
f 26//14 22//14 24//14
f 25//1 23//1 27//1
f 27//2 23//2 25//2
f 26//29 21//25 25//29
f 25//30 21//26 26//30
f 27//31 24//27 28//31
f 28//32 24//28 27//32
f 24//13 26//13 28//13
f 28//14 26//14 24//14
f 25//1 27//1 29//1
f 29//2 27//2 25//2
f 25//29 30//33 26//29
f 26//30 30//34 25//30
f 28//13 26//13 30//13
f 30//14 26//14 28//14
f 29//1 27//1 31//1
f 31//2 27//2 29//2
f 30//33 25//29 29//33
f 29//34 25//30 30//34
f 28//13 30//13 32//13
f 32//14 30//14 28//14
f 27//31 32//35 31//35
f 31//36 32//36 27//32
f 29//1 31//1 33//1
f 33//2 31//2 29//2
f 33//37 30//33 29//33
f 29//34 30//34 33//38
f 32//13 30//13 34//13
f 34//14 30//14 32//14
f 32//35 27//31 28//31
f 28//32 27//32 32//36
f 35//39 31//35 32//35
f 32//36 31//36 35//40
f 33//1 31//1 36//1
f 36//2 31//2 33//2
f 30//33 33//37 34//37
f 34//38 33//38 30//34
f 32//13 34//13 35//13
f 35//14 34//14 32//14
f 31//35 35//39 36//39
f 36//40 35//40 31//36
f 36//39 34//37 33//37
f 33//38 34//38 36//40
f 34//37 36//39 35//39
f 35//40 36//40 34//38
