# SSTK version 0.8.0
# 259
mtllib original-259.mtl
o #ID1577
v 0.383576 0.706020 0.464507
v 0.378293 0.705758 0.464507
v 0.378293 0.706020 0.464507
v 0.378669 0.705633 0.464507
v 0.378850 0.705477 0.464507
v 0.380059 0.705545 0.464507
v 0.378944 0.705215 0.464507
v 0.378971 0.704671 0.464507
v 0.378971 0.700014 0.464507
v 0.381750 0.705545 0.464507
v 0.382213 0.705495 0.464507
v 0.382516 0.705333 0.464507
v 0.382764 0.704984 0.464507
v 0.383012 0.704397 0.464507
v 0.383576 0.704397 0.464507
v 0.378777 0.699122 0.464507
v 0.378293 0.698666 0.464507
v 0.378293 0.698934 0.464507
v 0.380864 0.698666 0.464507
v 0.378938 0.699421 0.464507
v 0.380227 0.699209 0.464507
v 0.380099 0.699515 0.464507
v 0.380059 0.700033 0.464507
v 0.380059 0.702618 0.464507
v 0.380059 0.702143 0.464507
v 0.380482 0.699040 0.464507
v 0.380864 0.698934 0.464507
v 0.380864 0.698934 0.464507
v 0.380482 0.699040 0.464507
v 0.380864 0.698666 0.464507
v 0.380227 0.699209 0.464507
v 0.380059 0.702143 0.464507
v 0.380059 0.702618 0.464507
v 0.380059 0.700033 0.464507
v 0.380059 0.705545 0.464507
v 0.378971 0.700014 0.464507
v 0.380099 0.699515 0.464507
v 0.378938 0.699421 0.464507
v 0.378777 0.699122 0.464507
v 0.378293 0.698666 0.464507
v 0.378293 0.698934 0.464507
v 0.383576 0.704397 0.464507
v 0.383576 0.706020 0.464507
v 0.383012 0.704397 0.464507
v 0.382764 0.704984 0.464507
v 0.382516 0.705333 0.464507
v 0.382213 0.705495 0.464507
v 0.381750 0.705545 0.464507
v 0.378971 0.704671 0.464507
v 0.378944 0.705215 0.464507
v 0.378850 0.705477 0.464507
v 0.378669 0.705633 0.464507
v 0.378293 0.705758 0.464507
v 0.378293 0.706020 0.464507
v 0.381247 0.702618 0.464507
v 0.381247 0.702143 0.464507
v 0.381650 0.702692 0.464507
v 0.381650 0.702062 0.464507
v 0.381891 0.702955 0.464507
v 0.381885 0.701800 0.464507
v 0.382073 0.701250 0.464507
v 0.382073 0.703523 0.464507
v 0.382616 0.703523 0.464507
v 0.382616 0.701250 0.464507
v 0.382616 0.701250 0.464507
v 0.382616 0.703523 0.464507
v 0.382073 0.701250 0.464507
v 0.382073 0.703523 0.464507
v 0.381891 0.702955 0.464507
v 0.381885 0.701800 0.464507
v 0.381650 0.702062 0.464507
v 0.381650 0.702692 0.464507
v 0.381247 0.702143 0.464507
v 0.381247 0.702618 0.464507
vt -0.02356439 0.0001763776
vt -0.02337139 0.0002299208
vt -0.02356439 0.0000409133
vt -0.02324263 0.0003149915
vt -0.02315803 0.001795272
vt -0.02315803 0.002034642
vt -0.02315803 0.0007306757
vt -0.02315803 0.003511804
vt -0.02260935 0.0007212584
vt -0.02317831 0.0004693219
vt -0.02259242 0.0004220149
vt -0.02251114 0.0002708971
vt -0.0222673 0.0000409133
vt -0.0222673 0.0001763776
vt -0.02493257 0.002932278
vt -0.02493257 0.003751205
vt -0.02464809 0.002932278
vt -0.02452279 0.003228308
vt -0.02439755 0.003404686
vt -0.02424508 0.003486576
vt -0.02401147 0.003511804
vt -0.02260935 0.00307086
vt -0.02259577 0.003344875
vt -0.02254836 0.003477158
vt -0.02245695 0.003555898
vt -0.0222673 0.003618859
vt -0.0222673 0.003751205
vt -0.02444831 0.001344879
vt -0.02444831 0.002491334
vt -0.02417396 0.001344879
vt -0.02417396 0.002491334
vt -0.02408259 0.00220472
vt -0.02407913 0.001622075
vt -0.0239606 0.001754359
vt -0.0239606 0.002072437
vt -0.02375747 0.001795272
vt -0.02375747 0.002034642
vn 0 0 -1
vn 0 0 1
usemtl material_0_0
f 1//1 2//1 3//1
f 2//1 1//1 4//1
f 4//1 1//1 5//1
f 5//1 1//1 6//1
f 5//1 6//1 7//1
f 7//1 6//1 8//1
f 8//1 6//1 9//1
f 6//1 1//1 10//1
f 10//1 1//1 11//1
f 11//1 1//1 12//1
f 12//1 1//1 13//1
f 13//1 1//1 14//1
f 14//1 1//1 15//1
f 16//1 17//1 18//1
f 17//1 16//1 19//1
f 19//1 16//1 20//1
f 19//1 20//1 9//1
f 19//1 9//1 21//1
f 21//1 9//1 22//1
f 22//1 9//1 23//1
f 23//1 9//1 6//1
f 23//1 6//1 24//1
f 23//1 24//1 25//1
f 19//1 21//1 26//1
f 19//1 26//1 27//1
f 55//1 25//1 24//1
f 25//1 55//1 56//1
f 56//1 55//1 57//1
f 56//1 57//1 58//1
f 58//1 57//1 59//1
f 58//1 59//1 60//1
f 60//1 59//1 61//1
f 61//1 59//1 62//1
f 61//1 62//1 63//1
f 61//1 63//1 64//1
usemtl material_1_0
f 28/1/2 29/2/2 30/3/2
f 29/2/2 31/4/2 30/3/2
f 32/5/2 33/6/2 34/7/2
f 33/6/2 35/8/2 34/7/2
f 35/8/2 36/9/2 34/7/2
f 34/7/2 36/9/2 37/10/2
f 37/10/2 36/9/2 31/4/2
f 31/4/2 36/9/2 30/3/2
f 36/9/2 38/11/2 30/3/2
f 38/11/2 39/12/2 30/3/2
f 30/3/2 39/12/2 40/13/2
f 41/14/2 40/13/2 39/12/2
f 42/15/2 43/16/2 44/17/2
f 44/17/2 43/16/2 45/18/2
f 45/18/2 43/16/2 46/19/2
f 46/19/2 43/16/2 47/20/2
f 47/20/2 43/16/2 48/21/2
f 48/21/2 43/16/2 35/8/2
f 36/9/2 35/8/2 49/22/2
f 49/22/2 35/8/2 50/23/2
f 50/23/2 35/8/2 51/24/2
f 35/8/2 43/16/2 51/24/2
f 51/24/2 43/16/2 52/25/2
f 52/25/2 43/16/2 53/26/2
f 54/27/2 53/26/2 43/16/2
f 65/28/2 66/29/2 67/30/2
f 66/29/2 68/31/2 67/30/2
f 68/31/2 69/32/2 67/30/2
f 67/30/2 69/32/2 70/33/2
f 70/33/2 69/32/2 71/34/2
f 69/32/2 72/35/2 71/34/2
f 71/34/2 72/35/2 73/36/2
f 72/35/2 74/37/2 73/36/2
f 73/36/2 74/37/2 32/5/2
f 33/6/2 32/5/2 74/37/2
