# SSTK version 0.8.0
# 49
mtllib original-49.mtl
o #ID271
v -0.077885 0.785726 0.401458
v -0.077885 0.785726 0.404608
v -0.078341 0.785726 0.403031
v -0.076681 0.785726 0.400338
v -0.076681 0.785726 0.405728
v -0.074985 0.785726 0.406152
v -0.074985 0.785726 0.399910
v -0.073293 0.785726 0.400338
v -0.073293 0.785726 0.405728
v -0.072090 0.785726 0.404608
v -0.072090 0.785726 0.401458
v -0.071633 0.785726 0.403031
v -0.071633 0.785726 0.403031
v -0.072090 0.785726 0.401458
v -0.072090 0.785726 0.404608
v -0.073293 0.785726 0.400338
v -0.073293 0.785726 0.405728
v -0.074985 0.785726 0.406152
v -0.074985 0.785726 0.399910
v -0.076681 0.785726 0.400338
v -0.076681 0.785726 0.405728
v -0.077885 0.785726 0.404608
v -0.077885 0.785726 0.401458
v -0.078341 0.785726 0.403031
vn 0 -1 0
vn 0 1 0
usemtl material_0_0
f 1//1 2//1 3//1
f 2//1 1//1 4//1
f 2//1 4//1 5//1
f 5//1 4//1 6//1
f 6//1 4//1 7//1
f 6//1 7//1 8//1
f 6//1 8//1 9//1
f 9//1 8//1 10//1
f 10//1 8//1 11//1
f 10//1 11//1 12//1
f 13//2 14//2 15//2
f 14//2 16//2 15//2
f 15//2 16//2 17//2
f 17//2 16//2 18//2
f 16//2 19//2 18//2
f 19//2 20//2 18//2
f 18//2 20//2 21//2
f 21//2 20//2 22//2
f 20//2 23//2 22//2
f 24//2 22//2 23//2
