# SSTK version 0.8.0
# 25
mtllib original-25.mtl
o #ID127
v 0.397103 0.785279 0.413581
v 0.398521 0.785279 0.417410
v 0.397962 0.785279 0.419999
v 0.399215 0.785279 0.415629
v 0.399949 0.785279 0.415142
v 0.403873 0.785279 0.413536
v 0.401099 0.785279 0.415142
v 0.401587 0.785279 0.415367
v 0.401725 0.785279 0.415725
v 0.402285 0.785279 0.421818
v 0.403260 0.785279 0.420865
v 0.405006 0.785279 0.415733
v 0.404836 0.785279 0.414243
v 0.396400 0.785279 0.414023
v 0.394690 0.785279 0.421069
v 0.394690 0.785279 0.419395
v 0.395979 0.785279 0.421818
v 0.398382 0.785279 0.420648
v 0.399076 0.785279 0.420648
v 0.399703 0.785279 0.420519
v 0.400365 0.785279 0.420066
v 0.401725 0.785279 0.415725
v 0.400365 0.785279 0.420066
v 0.402285 0.785279 0.421818
v 0.399703 0.785279 0.420519
v 0.399076 0.785279 0.420648
v 0.398382 0.785279 0.420648
v 0.397103 0.785279 0.413581
v 0.396400 0.785279 0.414023
v 0.397962 0.785279 0.419999
v 0.395979 0.785279 0.421818
v 0.394690 0.785279 0.421069
v 0.394690 0.785279 0.419395
v 0.404836 0.785279 0.414243
v 0.403873 0.785279 0.413536
v 0.405006 0.785279 0.415733
v 0.403260 0.785279 0.420865
v 0.401587 0.785279 0.415367
v 0.401099 0.785279 0.415142
v 0.399949 0.785279 0.415142
v 0.399215 0.785279 0.415629
v 0.398521 0.785279 0.417410
vn 0 -1 0
vn 0 1 0
usemtl material_0_0
f 1//1 2//1 3//1
f 2//1 1//1 4//1
f 4//1 1//1 5//1
f 5//1 1//1 6//1
f 5//1 6//1 7//1
f 7//1 6//1 8//1
f 8//1 6//1 9//1
f 9//1 6//1 10//1
f 10//1 6//1 11//1
f 11//1 6//1 12//1
f 12//1 6//1 13//1
f 14//1 15//1 16//1
f 15//1 14//1 17//1
f 17//1 14//1 3//1
f 17//1 3//1 18//1
f 17//1 18//1 10//1
f 3//1 14//1 1//1
f 10//1 18//1 19//1
f 10//1 19//1 20//1
f 10//1 20//1 21//1
f 10//1 21//1 9//1
f 22//2 23//2 24//2
f 23//2 25//2 24//2
f 25//2 26//2 24//2
f 26//2 27//2 24//2
f 28//2 29//2 30//2
f 24//2 27//2 31//2
f 27//2 30//2 31//2
f 30//2 29//2 31//2
f 31//2 29//2 32//2
f 33//2 32//2 29//2
f 34//2 35//2 36//2
f 36//2 35//2 37//2
f 37//2 35//2 24//2
f 24//2 35//2 22//2
f 22//2 35//2 38//2
f 38//2 35//2 39//2
f 39//2 35//2 40//2
f 35//2 28//2 40//2
f 40//2 28//2 41//2
f 41//2 28//2 42//2
f 30//2 42//2 28//2
