# SSTK version 0.8.0
# 124
mtllib original-124.mtl
o #ID721
v 0.256352 0.785279 0.411267
v 0.251814 0.785279 0.412166
v 0.251814 0.785279 0.411267
v 0.253505 0.785279 0.412166
v 0.254660 0.785279 0.412166
v 0.253505 0.785279 0.416603
v 0.256352 0.785279 0.412166
v 0.254660 0.785279 0.416603
v 0.254660 0.785279 0.412166
v 0.253505 0.785279 0.416603
v 0.254660 0.785279 0.416603
v 0.256352 0.785279 0.412166
v 0.256352 0.785279 0.411267
v 0.253505 0.785279 0.412166
v 0.251814 0.785279 0.412166
v 0.251814 0.785279 0.411267
vn 0 -1 0
vn 0 1 0
usemtl material_0_0
f 1//1 2//1 3//1
f 2//1 1//1 4//1
f 4//1 1//1 5//1
f 4//1 5//1 6//1
f 5//1 1//1 7//1
f 8//1 6//1 5//1
f 9//2 10//2 11//2
f 12//2 13//2 9//2
f 10//2 9//2 14//2
f 9//2 13//2 14//2
f 14//2 13//2 15//2
f 16//2 15//2 13//2
