# SSTK version 0.8.0
# 47
mtllib original-47.mtl
o #ID259
v -0.065614 0.785726 0.404188
v -0.069015 0.785726 0.404663
v -0.069015 0.785726 0.404188
v -0.067601 0.785726 0.404663
v -0.067028 0.785726 0.404663
v -0.067601 0.785726 0.408188
v -0.067028 0.785726 0.408188
v -0.065614 0.785726 0.404663
v -0.065614 0.785726 0.404663
v -0.065614 0.785726 0.404188
v -0.067028 0.785726 0.404663
v -0.067028 0.785726 0.408188
v -0.067601 0.785726 0.408188
v -0.067601 0.785726 0.404663
v -0.069015 0.785726 0.404663
v -0.069015 0.785726 0.404188
vn 0 -1 0
vn 0 1 0
usemtl material_0_0
f 1//1 2//1 3//1
f 2//1 1//1 4//1
f 4//1 1//1 5//1
f 4//1 5//1 6//1
f 6//1 5//1 7//1
f 5//1 1//1 8//1
f 9//2 10//2 11//2
f 12//2 11//2 13//2
f 13//2 11//2 14//2
f 11//2 10//2 14//2
f 14//2 10//2 15//2
f 16//2 15//2 10//2
