# SSTK version 0.8.0
# 168
mtllib original-168.mtl
o #ID985
v -0.205600 0.785279 0.415875
v -0.205448 0.785279 0.416349
v -0.205739 0.785279 0.416257
v -0.205148 0.785279 0.416033
v -0.205175 0.785279 0.416486
v -0.207242 0.785279 0.413477
v -0.207126 0.785279 0.414276
v -0.207229 0.785279 0.414980
v -0.206822 0.785279 0.413165
v -0.206808 0.785279 0.413769
v -0.206316 0.785279 0.412974
v -0.206334 0.785279 0.413465
v -0.205752 0.785279 0.413365
v -0.205752 0.785279 0.412911
v -0.205188 0.785279 0.412974
v -0.205345 0.785279 0.413415
v -0.204982 0.785279 0.413565
v -0.204678 0.785279 0.413174
v -0.204678 0.785279 0.413806
v -0.204257 0.785279 0.413490
v -0.204459 0.785279 0.414131
v -0.204329 0.785279 0.414522
v -0.204284 0.785279 0.414976
v -0.204347 0.785279 0.416549
v -0.204409 0.785279 0.415725
v -0.204060 0.785279 0.416232
v -0.203948 0.785279 0.413910
v -0.203859 0.785279 0.415862
v -0.203761 0.785279 0.414414
v -0.203738 0.785279 0.415446
v -0.203698 0.785279 0.414976
v -0.207748 0.785279 0.414414
v -0.207748 0.785279 0.415546
v -0.207815 0.785279 0.414980
v -0.207555 0.785279 0.413902
v -0.207555 0.785279 0.416049
v -0.207247 0.785279 0.416474
v -0.207126 0.785279 0.415666
v -0.206826 0.785279 0.416786
v -0.206813 0.785279 0.416174
v -0.206320 0.785279 0.416982
v -0.206338 0.785279 0.416491
v -0.205752 0.785279 0.416595
v -0.205765 0.785279 0.417048
v -0.205210 0.785279 0.416986
v -0.205452 0.785279 0.416565
v -0.204705 0.785279 0.416799
v -0.204785 0.785279 0.416253
v -0.204244 0.785279 0.417090
v -0.203966 0.785279 0.416769
v -0.203783 0.785279 0.417290
v -0.203617 0.785279 0.416923
v -0.203617 0.785279 0.416923
v -0.203966 0.785279 0.416769
v -0.203783 0.785279 0.417290
v -0.204244 0.785279 0.417090
v -0.204347 0.785279 0.416549
v -0.204705 0.785279 0.416799
v -0.204409 0.785279 0.415725
v -0.204785 0.785279 0.416253
v -0.205148 0.785279 0.416033
v -0.205175 0.785279 0.416486
v -0.205210 0.785279 0.416986
v -0.205452 0.785279 0.416565
v -0.205752 0.785279 0.416595
v -0.205765 0.785279 0.417048
v -0.206320 0.785279 0.416982
v -0.206338 0.785279 0.416491
v -0.206813 0.785279 0.416174
v -0.206826 0.785279 0.416786
v -0.207126 0.785279 0.415666
v -0.207247 0.785279 0.416474
v -0.207229 0.785279 0.414980
v -0.207242 0.785279 0.413477
v -0.207555 0.785279 0.416049
v -0.207555 0.785279 0.413902
v -0.207748 0.785279 0.415546
v -0.207748 0.785279 0.414414
v -0.207815 0.785279 0.414980
v -0.203698 0.785279 0.414976
v -0.203761 0.785279 0.414414
v -0.203738 0.785279 0.415446
v -0.203859 0.785279 0.415862
v -0.203948 0.785279 0.413910
v -0.204060 0.785279 0.416232
v -0.204257 0.785279 0.413490
v -0.204284 0.785279 0.414976
v -0.204329 0.785279 0.414522
v -0.204459 0.785279 0.414131
v -0.204678 0.785279 0.413806
v -0.204678 0.785279 0.413174
v -0.204982 0.785279 0.413565
v -0.205188 0.785279 0.412974
v -0.205345 0.785279 0.413415
v -0.205752 0.785279 0.413365
v -0.205752 0.785279 0.412911
v -0.206316 0.785279 0.412974
v -0.206334 0.785279 0.413465
v -0.206808 0.785279 0.413769
v -0.206822 0.785279 0.413165
v -0.207126 0.785279 0.414276
v -0.205448 0.785279 0.416349
v -0.205600 0.785279 0.415875
v -0.205739 0.785279 0.416257
vn 0 -1 0
vn 0 1 0
usemtl material_0_0
f 1//1 2//1 3//1
f 2//1 1//1 4//1
f 2//1 4//1 5//1
f 6//1 7//1 8//1
f 7//1 6//1 9//1
f 7//1 9//1 10//1
f 10//1 9//1 11//1
f 10//1 11//1 12//1
f 12//1 11//1 13//1
f 13//1 11//1 14//1
f 13//1 14//1 15//1
f 13//1 15//1 16//1
f 16//1 15//1 17//1
f 17//1 15//1 18//1
f 17//1 18//1 19//1
f 19//1 18//1 20//1
f 19//1 20//1 21//1
f 21//1 20//1 22//1
f 22//1 20//1 23//1
f 23//1 24//1 25//1
f 24//1 23//1 26//1
f 26//1 23//1 20//1
f 26//1 20//1 27//1
f 26//1 27//1 28//1
f 28//1 27//1 29//1
f 28//1 29//1 30//1
f 30//1 29//1 31//1
f 32//1 33//1 34//1
f 33//1 32//1 35//1
f 33//1 35//1 36//1
f 36//1 35//1 6//1
f 36//1 6//1 37//1
f 37//1 6//1 8//1
f 37//1 8//1 38//1
f 37//1 38//1 39//1
f 39//1 38//1 40//1
f 39//1 40//1 41//1
f 41//1 40//1 42//1
f 41//1 42//1 43//1
f 41//1 43//1 44//1
f 44//1 43//1 45//1
f 45//1 43//1 46//1
f 45//1 46//1 5//1
f 45//1 5//1 47//1
f 47//1 5//1 4//1
f 47//1 4//1 48//1
f 47//1 48//1 25//1
f 47//1 25//1 24//1
f 47//1 24//1 49//1
f 49//1 24//1 50//1
f 49//1 50//1 51//1
f 51//1 50//1 52//1
f 53//2 54//2 55//2
f 55//2 54//2 56//2
f 54//2 57//2 56//2
f 56//2 57//2 58//2
f 57//2 59//2 58//2
f 59//2 60//2 58//2
f 60//2 61//2 58//2
f 61//2 62//2 58//2
f 58//2 62//2 63//2
f 62//2 64//2 63//2
f 64//2 65//2 63//2
f 63//2 65//2 66//2
f 66//2 65//2 67//2
f 65//2 68//2 67//2
f 68//2 69//2 67//2
f 67//2 69//2 70//2
f 69//2 71//2 70//2
f 70//2 71//2 72//2
f 71//2 73//2 72//2
f 73//2 74//2 72//2
f 72//2 74//2 75//2
f 74//2 76//2 75//2
f 75//2 76//2 77//2
f 76//2 78//2 77//2
f 79//2 77//2 78//2
f 80//2 81//2 82//2
f 82//2 81//2 83//2
f 81//2 84//2 83//2
f 83//2 84//2 85//2
f 84//2 86//2 85//2
f 86//2 87//2 85//2
f 85//2 87//2 57//2
f 59//2 57//2 87//2
f 87//2 86//2 88//2
f 88//2 86//2 89//2
f 89//2 86//2 90//2
f 86//2 91//2 90//2
f 90//2 91//2 92//2
f 91//2 93//2 92//2
f 92//2 93//2 94//2
f 94//2 93//2 95//2
f 93//2 96//2 95//2
f 96//2 97//2 95//2
f 95//2 97//2 98//2
f 98//2 97//2 99//2
f 97//2 100//2 99//2
f 99//2 100//2 101//2
f 100//2 74//2 101//2
f 73//2 101//2 74//2
f 62//2 61//2 102//2
f 61//2 103//2 102//2
f 104//2 102//2 103//2
