# SSTK version 0.8.0
# 190
mtllib original-190.mtl
o #ID1117
v -0.396691 0.785279 0.411388
v -0.397040 0.785279 0.413935
v -0.397081 0.785279 0.411584
v -0.396928 0.785279 0.413132
v -0.396602 0.785279 0.412558
v -0.396118 0.785279 0.411230
v -0.396092 0.785279 0.412212
v -0.395456 0.785279 0.411176
v -0.395443 0.785279 0.412100
v -0.394319 0.785279 0.411359
v -0.394798 0.785279 0.412212
v -0.394293 0.785279 0.412549
v -0.393433 0.785279 0.411908
v -0.393970 0.785279 0.413119
v -0.393863 0.785279 0.413923
v -0.398163 0.785279 0.413219
v -0.398043 0.785279 0.415109
v -0.398231 0.785279 0.413973
v -0.397967 0.785279 0.412599
v -0.397474 0.785279 0.415974
v -0.397738 0.785279 0.412212
v -0.397434 0.785279 0.411867
v -0.396928 0.785279 0.414734
v -0.396588 0.785279 0.416520
v -0.396588 0.785279 0.415309
v -0.396078 0.785279 0.415662
v -0.395443 0.785279 0.416703
v -0.395443 0.785279 0.415779
v -0.394306 0.785279 0.416520
v -0.394812 0.785279 0.415662
v -0.394306 0.785279 0.415313
v -0.393424 0.785279 0.415970
v -0.393975 0.785279 0.414734
v -0.392860 0.785279 0.412782
v -0.392860 0.785279 0.415100
v -0.392673 0.785279 0.413948
v -0.392673 0.785279 0.413948
v -0.392860 0.785279 0.412782
v -0.392860 0.785279 0.415100
v -0.393424 0.785279 0.415970
v -0.393433 0.785279 0.411908
v -0.393863 0.785279 0.413923
v -0.393975 0.785279 0.414734
v -0.394306 0.785279 0.415313
v -0.394306 0.785279 0.416520
v -0.394812 0.785279 0.415662
v -0.395443 0.785279 0.415779
v -0.395443 0.785279 0.416703
v -0.396078 0.785279 0.415662
v -0.396588 0.785279 0.416520
v -0.396588 0.785279 0.415309
v -0.396928 0.785279 0.414734
v -0.397081 0.785279 0.411584
v -0.397434 0.785279 0.411867
v -0.397040 0.785279 0.413935
v -0.397474 0.785279 0.415974
v -0.397738 0.785279 0.412212
v -0.397967 0.785279 0.412599
v -0.398043 0.785279 0.415109
v -0.398163 0.785279 0.413219
v -0.398231 0.785279 0.413973
v -0.393970 0.785279 0.413119
v -0.394293 0.785279 0.412549
v -0.394319 0.785279 0.411359
v -0.394798 0.785279 0.412212
v -0.395443 0.785279 0.412100
v -0.395456 0.785279 0.411176
v -0.396092 0.785279 0.412212
v -0.396118 0.785279 0.411230
v -0.396602 0.785279 0.412558
v -0.396691 0.785279 0.411388
v -0.396928 0.785279 0.413132
vn 0 -1 0
vn 0 1 0
usemtl material_0_0
f 1//1 2//1 3//1
f 2//1 1//1 4//1
f 4//1 1//1 5//1
f 5//1 1//1 6//1
f 5//1 6//1 7//1
f 7//1 6//1 8//1
f 7//1 8//1 9//1
f 9//1 8//1 10//1
f 9//1 10//1 11//1
f 11//1 10//1 12//1
f 12//1 10//1 13//1
f 12//1 13//1 14//1
f 14//1 13//1 15//1
f 16//1 17//1 18//1
f 17//1 16//1 19//1
f 17//1 19//1 20//1
f 20//1 19//1 21//1
f 20//1 21//1 22//1
f 20//1 22//1 23//1
f 20//1 23//1 24//1
f 23//1 22//1 2//1
f 2//1 22//1 3//1
f 24//1 23//1 25//1
f 24//1 25//1 26//1
f 24//1 26//1 27//1
f 27//1 26//1 28//1
f 27//1 28//1 29//1
f 29//1 28//1 30//1
f 29//1 30//1 31//1
f 29//1 31//1 32//1
f 32//1 31//1 33//1
f 32//1 33//1 15//1
f 32//1 15//1 13//1
f 32//1 13//1 34//1
f 32//1 34//1 35//1
f 35//1 34//1 36//1
f 37//2 38//2 39//2
f 39//2 38//2 40//2
f 38//2 41//2 40//2
f 41//2 42//2 40//2
f 42//2 43//2 40//2
f 43//2 44//2 40//2
f 40//2 44//2 45//2
f 44//2 46//2 45//2
f 46//2 47//2 45//2
f 45//2 47//2 48//2
f 47//2 49//2 48//2
f 48//2 49//2 50//2
f 49//2 51//2 50//2
f 51//2 52//2 50//2
f 53//2 54//2 55//2
f 55//2 54//2 52//2
f 50//2 52//2 56//2
f 52//2 54//2 56//2
f 54//2 57//2 56//2
f 57//2 58//2 56//2
f 56//2 58//2 59//2
f 58//2 60//2 59//2
f 61//2 59//2 60//2
f 42//2 41//2 62//2
f 62//2 41//2 63//2
f 41//2 64//2 63//2
f 63//2 64//2 65//2
f 65//2 64//2 66//2
f 64//2 67//2 66//2
f 66//2 67//2 68//2
f 67//2 69//2 68//2
f 68//2 69//2 70//2
f 69//2 71//2 70//2
f 70//2 71//2 72//2
f 72//2 71//2 55//2
f 53//2 55//2 71//2
