# SSTK version 0.8.0
# 94
mtllib original-94.mtl
o #ID541
v -0.171661 0.785279 0.419221
v -0.171119 0.785279 0.423224
v -0.172251 0.785279 0.419221
v -0.171016 0.785279 0.421847
v -0.170833 0.785279 0.422663
v -0.170524 0.785279 0.423224
v -0.170636 0.785279 0.421926
v -0.169817 0.785279 0.419221
v -0.169620 0.785279 0.420174
v -0.169490 0.785279 0.419703
v -0.169132 0.785279 0.419221
v -0.168448 0.785279 0.423224
v -0.168515 0.785279 0.421248
v -0.168318 0.785279 0.421980
v -0.168179 0.785279 0.422663
v -0.167888 0.785279 0.423224
v -0.167964 0.785279 0.421793
v -0.167293 0.785279 0.419221
v -0.166720 0.785279 0.419221
v -0.166720 0.785279 0.419221
v -0.167293 0.785279 0.419221
v -0.167888 0.785279 0.423224
v -0.167964 0.785279 0.421793
v -0.168179 0.785279 0.422663
v -0.168448 0.785279 0.423224
v -0.168318 0.785279 0.421980
v -0.168515 0.785279 0.421248
v -0.169132 0.785279 0.419221
v -0.169490 0.785279 0.419703
v -0.169817 0.785279 0.419221
v -0.169620 0.785279 0.420174
v -0.170524 0.785279 0.423224
v -0.170636 0.785279 0.421926
v -0.170833 0.785279 0.422663
v -0.171119 0.785279 0.423224
v -0.171016 0.785279 0.421847
v -0.171661 0.785279 0.419221
v -0.172251 0.785279 0.419221
vn 0 -1 0
vn 0 1 0
usemtl material_0_0
f 1//1 2//1 3//1
f 2//1 1//1 4//1
f 2//1 4//1 5//1
f 2//1 5//1 6//1
f 6//1 5//1 7//1
f 6//1 7//1 8//1
f 6//1 8//1 9//1
f 9//1 8//1 10//1
f 10//1 8//1 11//1
f 10//1 11//1 12//1
f 12//1 11//1 13//1
f 12//1 13//1 14//1
f 12//1 14//1 15//1
f 12//1 15//1 16//1
f 16//1 15//1 17//1
f 16//1 17//1 18//1
f 16//1 18//1 19//1
f 20//2 21//2 22//2
f 21//2 23//2 22//2
f 23//2 24//2 22//2
f 22//2 24//2 25//2
f 24//2 26//2 25//2
f 26//2 27//2 25//2
f 27//2 28//2 25//2
f 25//2 28//2 29//2
f 28//2 30//2 29//2
f 29//2 30//2 31//2
f 31//2 30//2 32//2
f 30//2 33//2 32//2
f 33//2 34//2 32//2
f 32//2 34//2 35//2
f 34//2 36//2 35//2
f 36//2 37//2 35//2
f 38//2 35//2 37//2
