# SSTK version 0.8.0
# 54
mtllib original-54.mtl
o #ID301
v 0.085215 0.785279 0.419187
v 0.084177 0.785279 0.423187
v 0.083572 0.785279 0.423187
v 0.084642 0.785279 0.421976
v 0.084808 0.785279 0.421547
v 0.085277 0.785279 0.420369
v 0.085515 0.785279 0.419599
v 0.085841 0.785279 0.419187
v 0.085412 0.785279 0.419986
v 0.085644 0.785279 0.419974
v 0.086271 0.785279 0.421547
v 0.087595 0.785279 0.423187
v 0.086450 0.785279 0.421976
v 0.086947 0.785279 0.423187
v 0.086271 0.785279 0.421547
v 0.084808 0.785279 0.421547
v 0.086450 0.785279 0.421976
v 0.084642 0.785279 0.421976
v 0.086947 0.785279 0.423187
v 0.087595 0.785279 0.423187
v 0.085841 0.785279 0.419187
v 0.085644 0.785279 0.419974
v 0.085515 0.785279 0.419599
v 0.085412 0.785279 0.419986
v 0.085277 0.785279 0.420369
v 0.085215 0.785279 0.419187
v 0.084177 0.785279 0.423187
v 0.083572 0.785279 0.423187
vn 0 -1 0
vn 0 1 0
usemtl material_0_0
f 1//1 2//1 3//1
f 2//1 1//1 4//1
f 4//1 1//1 5//1
f 5//1 1//1 6//1
f 6//1 1//1 7//1
f 7//1 1//1 8//1
f 6//1 7//1 9//1
f 7//1 8//1 10//1
f 10//1 8//1 11//1
f 11//1 8//1 12//1
f 11//1 12//1 13//1
f 13//1 12//1 14//1
f 5//1 13//1 4//1
f 13//1 5//1 11//1
f 15//2 16//2 17//2
f 18//2 17//2 16//2
f 19//2 20//2 17//2
f 17//2 20//2 15//2
f 20//2 21//2 15//2
f 15//2 21//2 22//2
f 22//2 21//2 23//2
f 24//2 23//2 25//2
f 21//2 26//2 23//2
f 23//2 26//2 25//2
f 25//2 26//2 16//2
f 16//2 26//2 18//2
f 18//2 26//2 27//2
f 28//2 27//2 26//2
