# SSTK version 0.8.0
# 73
mtllib original-73.mtl
o #ID415
v 0.127272 0.785279 0.419187
v 0.126699 0.785279 0.420827
v 0.126699 0.785279 0.419187
v 0.126699 0.785279 0.421302
v 0.127272 0.785279 0.423187
v 0.126699 0.785279 0.423187
v 0.124470 0.785279 0.421302
v 0.124470 0.785279 0.420827
v 0.126699 0.785279 0.421302
v 0.126699 0.785279 0.420827
v 0.124470 0.785279 0.421302
v 0.124470 0.785279 0.420827
v 0.126699 0.785279 0.423187
v 0.127272 0.785279 0.423187
v 0.127272 0.785279 0.419187
v 0.126699 0.785279 0.419187
v 0.124470 0.785279 0.419187
v 0.123902 0.785279 0.423187
v 0.123902 0.785279 0.419187
v 0.124470 0.785279 0.423187
v 0.124470 0.785279 0.423187
v 0.124470 0.785279 0.419187
v 0.123902 0.785279 0.423187
v 0.123902 0.785279 0.419187
vn 0 -1 0
vn 0 1 0
usemtl material_0_0
f 1//1 2//1 3//1
f 2//1 1//1 4//1
f 4//1 1//1 5//1
f 5//1 6//1 4//1
f 2//1 7//1 8//1
f 7//1 2//1 4//1
f 9//2 10//2 11//2
f 12//2 11//2 10//2
f 9//2 13//2 14//2
f 14//2 15//2 9//2
f 9//2 15//2 10//2
f 16//2 10//2 15//2
f 17//1 18//1 19//1
f 18//1 17//1 20//1
f 20//1 17//1 8//1
f 20//1 8//1 7//1
f 11//2 12//2 21//2
f 12//2 22//2 21//2
f 21//2 22//2 23//2
f 24//2 23//2 22//2
