# SSTK version 0.8.0
# 40
mtllib original-40.mtl
o #ID217
v -0.067999 0.785726 0.398012
v -0.068169 0.785726 0.398948
v -0.068313 0.785726 0.398183
v -0.068111 0.785726 0.398719
v -0.067937 0.785726 0.398528
v -0.067623 0.785726 0.397912
v -0.067632 0.785726 0.398395
v -0.067185 0.785726 0.398349
v -0.067212 0.785726 0.397875
v -0.066764 0.785726 0.397912
v -0.066755 0.785726 0.398399
v -0.066370 0.785726 0.398020
v -0.066442 0.785726 0.398540
v -0.066241 0.785726 0.398778
v -0.066048 0.785726 0.398195
v -0.066142 0.785726 0.399106
v -0.065601 0.785726 0.399069
v -0.065811 0.785726 0.398441
v -0.065659 0.785726 0.398736
v -0.068675 0.785726 0.398686
v -0.068684 0.785726 0.399244
v -0.068720 0.785726 0.398982
v -0.068572 0.785726 0.399481
v -0.068536 0.785726 0.398416
v -0.068380 0.785726 0.399685
v -0.068111 0.785726 0.399856
v -0.068129 0.785726 0.399148
v -0.068004 0.785726 0.399302
v -0.067785 0.785726 0.399976
v -0.067708 0.785726 0.399444
v -0.067283 0.785726 0.400105
v -0.067149 0.785726 0.399589
v -0.066796 0.785726 0.400218
v -0.066567 0.785726 0.399727
v -0.066523 0.785726 0.400297
v -0.066205 0.785726 0.399843
v -0.066290 0.785726 0.400405
v -0.066138 0.785726 0.400534
v -0.065878 0.785726 0.400026
v -0.066053 0.785726 0.400684
v -0.066021 0.785726 0.400863
v -0.065905 0.785726 0.401670
v -0.065668 0.785726 0.401420
v -0.065650 0.785726 0.400251
v -0.065520 0.785726 0.401129
v -0.065516 0.785726 0.400517
v -0.065471 0.785726 0.400817
v -0.068344 0.785726 0.400617
v -0.068818 0.785726 0.401042
v -0.068881 0.785726 0.400659
v -0.068648 0.785726 0.401379
v -0.068380 0.785726 0.401658
v -0.068281 0.785726 0.400892
v -0.068031 0.785726 0.401857
v -0.068169 0.785726 0.401108
v -0.067995 0.785726 0.401283
v -0.067592 0.785726 0.401974
v -0.067740 0.785726 0.401420
v -0.067431 0.785726 0.401512
v -0.067055 0.785726 0.402016
v -0.067082 0.785726 0.401541
v -0.066778 0.785726 0.401516
v -0.066621 0.785726 0.401974
v -0.066514 0.785726 0.401450
v -0.066232 0.785726 0.401857
v -0.066299 0.785726 0.401341
v -0.066142 0.785726 0.401204
v -0.066053 0.785726 0.401038
v -0.066021 0.785726 0.400863
v -0.066053 0.785726 0.401038
v -0.065905 0.785726 0.401670
v -0.066142 0.785726 0.401204
v -0.066232 0.785726 0.401857
v -0.066299 0.785726 0.401341
v -0.066514 0.785726 0.401450
v -0.066621 0.785726 0.401974
v -0.066778 0.785726 0.401516
v -0.067055 0.785726 0.402016
v -0.067082 0.785726 0.401541
v -0.067431 0.785726 0.401512
v -0.067592 0.785726 0.401974
v -0.067740 0.785726 0.401420
v -0.067995 0.785726 0.401283
v -0.068031 0.785726 0.401857
v -0.068169 0.785726 0.401108
v -0.068281 0.785726 0.400892
v -0.068380 0.785726 0.401658
v -0.068344 0.785726 0.400617
v -0.068648 0.785726 0.401379
v -0.068818 0.785726 0.401042
v -0.068881 0.785726 0.400659
v -0.065471 0.785726 0.400817
v -0.065516 0.785726 0.400517
v -0.065520 0.785726 0.401129
v -0.065650 0.785726 0.400251
v -0.065668 0.785726 0.401420
v -0.065878 0.785726 0.400026
v -0.066053 0.785726 0.400684
v -0.066138 0.785726 0.400534
v -0.066205 0.785726 0.399843
v -0.066290 0.785726 0.400405
v -0.066523 0.785726 0.400297
v -0.066567 0.785726 0.399727
v -0.066796 0.785726 0.400218
v -0.067149 0.785726 0.399589
v -0.067283 0.785726 0.400105
v -0.067708 0.785726 0.399444
v -0.067785 0.785726 0.399976
v -0.068004 0.785726 0.399302
v -0.068111 0.785726 0.399856
v -0.068129 0.785726 0.399148
v -0.068169 0.785726 0.398948
v -0.068313 0.785726 0.398183
v -0.068380 0.785726 0.399685
v -0.068536 0.785726 0.398416
v -0.068572 0.785726 0.399481
v -0.068675 0.785726 0.398686
v -0.068684 0.785726 0.399244
v -0.068720 0.785726 0.398982
v -0.065659 0.785726 0.398736
v -0.065811 0.785726 0.398441
v -0.065601 0.785726 0.399069
v -0.066048 0.785726 0.398195
v -0.066142 0.785726 0.399106
v -0.066241 0.785726 0.398778
v -0.066370 0.785726 0.398020
v -0.066442 0.785726 0.398540
v -0.066755 0.785726 0.398399
v -0.066764 0.785726 0.397912
v -0.067185 0.785726 0.398349
v -0.067212 0.785726 0.397875
v -0.067623 0.785726 0.397912
v -0.067632 0.785726 0.398395
v -0.067937 0.785726 0.398528
v -0.067999 0.785726 0.398012
v -0.068111 0.785726 0.398719
vn 0 -1 0
vn 0 1 0
usemtl material_0_0
f 1//1 2//1 3//1
f 2//1 1//1 4//1
f 4//1 1//1 5//1
f 5//1 1//1 6//1
f 5//1 6//1 7//1
f 7//1 6//1 8//1
f 8//1 6//1 9//1
f 8//1 9//1 10//1
f 8//1 10//1 11//1
f 11//1 10//1 12//1
f 11//1 12//1 13//1
f 13//1 12//1 14//1
f 14//1 12//1 15//1
f 14//1 15//1 16//1
f 16//1 15//1 17//1
f 17//1 15//1 18//1
f 17//1 18//1 19//1
f 20//1 21//1 22//1
f 21//1 20//1 23//1
f 23//1 20//1 24//1
f 23//1 24//1 25//1
f 25//1 24//1 3//1
f 25//1 3//1 26//1
f 26//1 3//1 2//1
f 26//1 2//1 27//1
f 26//1 27//1 28//1
f 26//1 28//1 29//1
f 29//1 28//1 30//1
f 29//1 30//1 31//1
f 31//1 30//1 32//1
f 31//1 32//1 33//1
f 33//1 32//1 34//1
f 33//1 34//1 35//1
f 35//1 34//1 36//1
f 35//1 36//1 37//1
f 37//1 36//1 38//1
f 38//1 36//1 39//1
f 38//1 39//1 40//1
f 40//1 39//1 41//1
f 41//1 39//1 42//1
f 42//1 39//1 43//1
f 43//1 39//1 44//1
f 43//1 44//1 45//1
f 45//1 44//1 46//1
f 45//1 46//1 47//1
f 48//1 49//1 50//1
f 49//1 48//1 51//1
f 51//1 48//1 52//1
f 52//1 48//1 53//1
f 52//1 53//1 54//1
f 54//1 53//1 55//1
f 54//1 55//1 56//1
f 54//1 56//1 57//1
f 57//1 56//1 58//1
f 57//1 58//1 59//1
f 57//1 59//1 60//1
f 60//1 59//1 61//1
f 60//1 61//1 62//1
f 60//1 62//1 63//1
f 63//1 62//1 64//1
f 63//1 64//1 65//1
f 65//1 64//1 66//1
f 65//1 66//1 67//1
f 65//1 67//1 42//1
f 42//1 67//1 68//1
f 42//1 68//1 41//1
f 69//2 70//2 71//2
f 70//2 72//2 71//2
f 71//2 72//2 73//2
f 72//2 74//2 73//2
f 74//2 75//2 73//2
f 73//2 75//2 76//2
f 75//2 77//2 76//2
f 76//2 77//2 78//2
f 77//2 79//2 78//2
f 79//2 80//2 78//2
f 78//2 80//2 81//2
f 80//2 82//2 81//2
f 82//2 83//2 81//2
f 81//2 83//2 84//2
f 83//2 85//2 84//2
f 85//2 86//2 84//2
f 84//2 86//2 87//2
f 86//2 88//2 87//2
f 87//2 88//2 89//2
f 89//2 88//2 90//2
f 91//2 90//2 88//2
f 92//2 93//2 94//2
f 93//2 95//2 94//2
f 94//2 95//2 96//2
f 95//2 97//2 96//2
f 96//2 97//2 71//2
f 71//2 97//2 69//2
f 69//2 97//2 98//2
f 98//2 97//2 99//2
f 97//2 100//2 99//2
f 99//2 100//2 101//2
f 101//2 100//2 102//2
f 100//2 103//2 102//2
f 102//2 103//2 104//2
f 103//2 105//2 104//2
f 104//2 105//2 106//2
f 105//2 107//2 106//2
f 106//2 107//2 108//2
f 107//2 109//2 108//2
f 108//2 109//2 110//2
f 109//2 111//2 110//2
f 111//2 112//2 110//2
f 112//2 113//2 110//2
f 110//2 113//2 114//2
f 113//2 115//2 114//2
f 114//2 115//2 116//2
f 115//2 117//2 116//2
f 116//2 117//2 118//2
f 119//2 118//2 117//2
f 120//2 121//2 122//2
f 121//2 123//2 122//2
f 122//2 123//2 124//2
f 124//2 123//2 125//2
f 123//2 126//2 125//2
f 125//2 126//2 127//2
f 127//2 126//2 128//2
f 126//2 129//2 128//2
f 128//2 129//2 130//2
f 129//2 131//2 130//2
f 131//2 132//2 130//2
f 130//2 132//2 133//2
f 133//2 132//2 134//2
f 132//2 135//2 134//2
f 134//2 135//2 136//2
f 136//2 135//2 112//2
f 113//2 112//2 135//2
