mtllib new-3.mtl
v 0.500972 0.696133 0.494055
v 0.500972 -0.685916 -0.516697
v 0.500972 0.696133 -0.516697
v 0.500972 -0.685916 0.494055
v -0.489153 0.696133 -0.516697
v -0.489153 -0.685916 -0.516697
v -0.489153 0.696133 0.494055
v -0.489153 -0.685916 0.494055
vn 1.000000 0.000000 0.000000
vn 0.000000 0.000000 -1.000000
vn 0.000000 1.000000 0.000000
vn 0.000000 -1.000000 0.000000
vn -1.000000 0.000000 0.000000
vn 0.000000 0.000000 1.000000
usemtl material-0
f 1//1 2//1 3//1
f 2//1 1//1 4//1
f 2//2 5//2 3//2
f 5//3 1//3 3//3
f 5//2 2//2 6//2
f 1//3 5//3 7//3
f 8//5 5//5 6//5
f 5//5 8//5 7//5
usemtl material-1
f 3//5 2//5 1//5
f 4//5 1//5 2//5
f 3//6 5//6 2//6
f 3//4 1//4 5//4
f 6//6 2//6 5//6
f 7//4 5//4 1//4
f 6//1 5//1 8//1
f 7//1 8//1 5//1