# SSTK version 0.8.0
# 8
mtllib original-8.mtl
o #ID43
v -0.132124 0.017114 0.035764
v -0.132124 0.017114 0.049011
v -0.132124 0.020987 0.035764
v -0.132124 0.020987 0.035764
v -0.132124 0.017114 0.049011
v -0.132124 0.017114 0.035764
v -0.132124 0.020987 0.049011
v -0.132124 0.020987 0.049011
v -0.135563 0.020987 0.035764
v -0.132124 0.017114 0.035764
v -0.132124 0.020987 0.035764
v -0.132124 0.020987 0.035764
v -0.132124 0.017114 0.035764
v -0.135563 0.020987 0.035764
v -0.132124 0.017114 0.035764
v -0.135563 0.017114 0.035764
v -0.132124 0.017114 0.049011
v -0.132124 0.017114 0.049011
v -0.135563 0.017114 0.035764
v -0.132124 0.017114 0.035764
v -0.132124 0.020987 0.049011
v -0.132124 0.017114 0.049011
v -0.124361 0.017114 0.049011
v -0.124361 0.017114 0.049011
v -0.132124 0.017114 0.049011
v -0.132124 0.020987 0.049011
v -0.135563 0.017114 0.035764
v -0.135563 0.017114 0.035764
v -0.135563 0.017114 0.052032
v -0.135563 0.017114 0.052032
v -0.124361 0.017114 0.049011
v -0.124361 0.017114 0.052032
v -0.124361 0.017114 0.052032
v -0.124361 0.017114 0.049011
v -0.135563 0.020987 0.035764
v -0.135563 0.020987 0.052032
v -0.135563 0.017114 0.035764
v -0.135563 0.017114 0.035764
v -0.135563 0.020987 0.052032
v -0.135563 0.020987 0.035764
v -0.135563 0.017114 0.052032
v -0.135563 0.017114 0.052032
v -0.124361 0.017114 0.049011
v -0.124361 0.017114 0.052032
v -0.124361 0.020987 0.049011
v -0.124361 0.020987 0.049011
v -0.124361 0.017114 0.052032
v -0.124361 0.017114 0.049011
v -0.124361 0.020987 0.052032
v -0.124361 0.017114 0.052032
v -0.135563 0.017114 0.052032
v -0.135563 0.017114 0.052032
v -0.124361 0.017114 0.052032
v -0.124361 0.020987 0.052032
v -0.135563 0.020987 0.052032
v -0.135563 0.020987 0.052032
v -0.124361 0.020987 0.052032
v -0.124361 0.020987 0.052032
vn -1 0 0
vn 1 0 0
vn 0 0 1
vn 0 0 -1
vn 0 1 0
vn 0 -1 0
usemtl material_0_0
f 1//1 2//1 3//1
f 4//2 5//2 6//2
f 3//1 2//1 7//1
f 8//2 5//2 4//2
f 9//3 10//3 11//3
f 12//4 13//4 14//4
f 15//5 16//5 17//5
f 18//6 19//6 20//6
f 21//3 22//3 23//3
f 24//4 25//4 26//4
f 9//3 27//3 10//3
f 13//4 28//4 14//4
f 17//5 16//5 29//5
f 30//6 19//6 18//6
f 31//5 17//5 32//5
f 33//6 18//6 34//6
f 35//2 36//2 37//2
f 38//1 39//1 40//1
f 32//5 17//5 29//5
f 30//6 18//6 33//6
f 37//2 36//2 41//2
f 42//1 39//1 38//1
f 43//1 44//1 45//1
f 46//2 47//2 48//2
f 49//4 50//4 51//4
f 52//3 53//3 54//3
f 49//4 51//4 55//4
f 56//3 52//3 54//3
f 45//1 44//1 57//1
f 58//2 47//2 46//2
