# SSTK version 0.8.0
# 371
mtllib original-371.mtl
o mesh465/mesh465-geometry#mesh465-geometry
v -0.605175 -0.021274 0.211872
v -0.607465 -0.024148 0.222599
v -0.609063 -0.024148 0.222599
v -0.606295 -0.023253 0.219257
v -0.605982 -0.022946 0.218111
v -0.604301 -0.021611 0.213129
v -0.602242 -0.023253 0.219257
v -0.603296 -0.021274 0.211872
v -0.602555 -0.022946 0.218111
v -0.599375 -0.024148 0.222599
v -0.601023 -0.024148 0.222599
vn 0 -0.9659258737367358 -0.25881886802534987
vn 0 0.9659258737367358 0.25881886802534987
usemtl material_0_0
f 1//1 2//1 3//1
f 2//1 1//1 4//1
f 3//2 2//2 1//2
f 4//2 1//2 2//2
f 4//1 1//1 5//1
f 5//2 1//2 4//2
f 5//1 1//1 6//1
f 6//2 1//2 5//2
f 5//1 7//1 4//1
f 4//2 7//2 5//2
f 6//1 1//1 8//1
f 8//2 1//2 6//2
f 7//1 5//1 9//1
f 9//2 5//2 7//2
f 6//1 8//1 9//1
f 9//2 8//2 6//2
f 9//1 10//1 7//1
f 7//2 10//2 9//2
f 9//1 8//1 10//1
f 10//2 8//2 9//2
f 7//1 10//1 11//1
f 11//2 10//2 7//2
