# SSTK version 0.8.0
# 389
mtllib original-389.mtl
o Z1/Z/mesh484/mesh484-geometry#mesh484-geometry
v -0.641607 0.045216 -0.036118
v -0.654651 0.044668 -0.034075
v -0.654651 0.045216 -0.036118
v -0.644957 0.044668 -0.034075
v -0.641607 0.044825 -0.034659
v -0.652152 0.040973 -0.020283
v -0.655557 0.040425 -0.018240
v -0.655557 0.040802 -0.019646
v -0.641442 0.040425 -0.018240
v -0.641442 0.040973 -0.020283
vn 0 -0.9659258737367358 -0.25881886802534987
vn 0 0.9659258737367358 0.25881886802534987
usemtl material_0_0
f 1//1 2//1 3//1
f 2//1 1//1 4//1
f 3//2 2//2 1//2
f 4//2 1//2 2//2
f 5//1 4//1 1//1
f 1//2 4//2 5//2
f 6//1 4//1 5//1
f 5//2 4//2 6//2
f 7//1 4//1 6//1
f 6//2 4//2 7//2
f 4//1 7//1 8//1
f 8//2 7//2 4//2
f 6//1 9//1 7//1
f 7//2 9//2 6//2
f 9//1 6//1 10//1
f 10//2 6//2 9//2
