# SSTK version 0.8.0
# 449
mtllib original-449.mtl
o mesh537/mesh537-geometry#mesh537-geometry
v -0.693615 0.055132 -0.073127
v -0.693610 0.054379 -0.070315
v -0.693725 0.054754 -0.071714
v -0.693284 0.055479 -0.074420
v -0.693266 0.054043 -0.069062
v -0.692733 0.055793 -0.075593
v -0.692691 0.053746 -0.067954
v -0.691961 0.056076 -0.076648
v -0.691886 0.053489 -0.066993
v -0.691003 0.056309 -0.077518
v -0.691227 0.055152 -0.073199
v -0.690798 0.055553 -0.074696
v -0.691254 0.054675 -0.071422
v -0.689893 0.056475 -0.078140
v -0.681616 0.054675 -0.071422
v -0.690887 0.053280 -0.066215
v -0.689977 0.055868 -0.075872
v -0.684005 0.055152 -0.073199
v -0.691150 0.054413 -0.070442
v -0.688827 0.056072 -0.076633
v -0.683817 0.056342 -0.077641
v -0.690894 0.054183 -0.069584
v -0.688631 0.056575 -0.078513
v -0.684226 0.055553 -0.074696
v -0.683002 0.056134 -0.076867
v -0.690484 0.053986 -0.068847
v -0.687410 0.056140 -0.076886
v -0.684791 0.056490 -0.078194
v -0.682359 0.055884 -0.075932
v -0.689730 0.053131 -0.065660
v -0.687217 0.056609 -0.078637
v -0.684890 0.055868 -0.075872
v -0.681900 0.055607 -0.074899
v -0.689922 0.053821 -0.068233
v -0.685963 0.056072 -0.076633
v -0.685380 0.055987 -0.076316
v -0.681625 0.055304 -0.073767
v -0.689237 0.053691 -0.067748
v -0.685924 0.056579 -0.078526
v -0.681533 0.054974 -0.072536
v -0.688415 0.053042 -0.065327
v -0.688457 0.053598 -0.067402
v -0.687582 0.053543 -0.067194
v -0.686943 0.053012 -0.065215
v -0.686613 0.053524 -0.067125
v -0.684444 0.053069 -0.065428
v -0.684540 0.053569 -0.067291
v -0.682741 0.053702 -0.067788
v -0.682302 0.053240 -0.066064
vn 0 -0.9659258737367358 -0.25881886802534987
vn 0 0.9659258737367358 0.25881886802534987
usemtl material_0_0
f 1//1 2//1 3//1
f 2//1 1//1 4//1
f 3//2 2//2 1//2
f 4//2 1//2 2//2
f 2//1 4//1 5//1
f 5//2 4//2 2//2
f 5//1 4//1 6//1
f 6//2 4//2 5//2
f 5//1 6//1 7//1
f 7//2 6//2 5//2
f 7//1 6//1 8//1
f 8//2 6//2 7//2
f 7//1 8//1 9//1
f 9//2 8//2 7//2
f 9//1 8//1 10//1
f 10//2 8//2 9//2
f 9//1 10//1 11//1
f 11//2 10//2 9//2
f 11//1 10//1 12//1
f 12//2 10//2 11//2
f 9//1 11//1 13//1
f 13//2 11//2 9//2
f 12//1 10//1 14//1
f 14//2 10//2 12//2
f 11//1 15//1 13//1
f 13//2 15//2 11//2
f 13//1 16//1 9//1
f 9//2 16//2 13//2
f 12//1 14//1 17//1
f 17//2 14//2 12//2
f 15//1 11//1 18//1
f 18//2 11//2 15//2
f 16//1 13//1 19//1
f 19//2 13//2 16//2
f 17//1 14//1 20//1
f 20//2 14//2 17//2
f 15//1 18//1 21//1
f 21//2 18//2 15//2
f 16//1 19//1 22//1
f 22//2 19//2 16//2
f 20//1 14//1 23//1
f 23//2 14//2 20//2
f 24//1 21//1 18//1
f 18//2 21//2 24//2
f 15//1 21//1 25//1
f 25//2 21//2 15//2
f 16//1 22//1 26//1
f 26//2 22//2 16//2
f 20//1 23//1 27//1
f 27//2 23//2 20//2
f 24//1 28//1 21//1
f 21//2 28//2 24//2
f 15//1 25//1 29//1
f 29//2 25//2 15//2
f 16//1 26//1 30//1
f 30//2 26//2 16//2
f 27//1 23//1 31//1
f 31//2 23//2 27//2
f 32//1 28//1 24//1
f 24//2 28//2 32//2
f 15//1 29//1 33//1
f 33//2 29//2 15//2
f 30//1 26//1 34//1
f 34//2 26//2 30//2
f 27//1 31//1 35//1
f 35//2 31//2 27//2
f 36//1 28//1 32//1
f 32//2 28//2 36//2
f 15//1 33//1 37//1
f 37//2 33//2 15//2
f 30//1 34//1 38//1
f 38//2 34//2 30//2
f 35//1 31//1 39//1
f 39//2 31//2 35//2
f 36//1 39//1 28//1
f 28//2 39//2 36//2
f 15//1 37//1 40//1
f 40//2 37//2 15//2
f 30//1 38//1 41//1
f 41//2 38//2 30//2
f 35//1 39//1 36//1
f 36//2 39//2 35//2
f 41//1 38//1 42//1
f 42//2 38//2 41//2
f 41//1 42//1 43//1
f 43//2 42//2 41//2
f 41//1 43//1 44//1
f 44//2 43//2 41//2
f 44//1 43//1 45//1
f 45//2 43//2 44//2
f 44//1 45//1 46//1
f 46//2 45//2 44//2
f 46//1 45//1 47//1
f 47//2 45//2 46//2
f 46//1 47//1 48//1
f 48//2 47//2 46//2
f 46//1 48//1 49//1
f 49//2 48//2 46//2
