# SSTK version 0.8.0
# 80
mtllib original-80.mtl
o Grouper_1_67/Grouper_1/mesh29/mesh29-geometry#mesh29-geometry
v -0.853067 0.024936 0.039184
v -0.853205 0.012175 0.086808
v -0.853205 0.024664 0.040198
v -0.853067 0.011903 0.087822
v -0.869152 -0.006342 0.031619
v -0.852656 0.025203 0.038187
v -0.869152 -0.018966 0.078734
v -0.868912 -0.005868 0.029850
v -0.852656 0.011636 0.088819
v -0.868912 -0.019440 0.080503
v -0.868093 -0.005335 0.027863
v -0.851980 0.025461 0.037225
v -0.868093 -0.019973 0.082490
v -0.851980 0.011379 0.089781
v -0.866745 -0.020487 0.084409
v -0.866745 -0.004821 0.025945
v -0.851050 0.025705 0.036313
v -0.851050 0.011134 0.090692
v -0.864890 -0.020973 0.086225
v -0.864890 -0.004334 0.024128
v -0.849881 0.025932 0.035469
v -0.849881 0.010908 0.091537
v -0.862560 -0.021425 0.087910
v -0.862560 -0.003883 0.022444
v -0.848493 0.026136 0.034705
v -0.848493 0.010703 0.092301
v -0.859794 -0.021833 0.089433
v -0.859794 -0.003475 0.020920
v -0.846911 0.026316 0.034035
v -0.856640 -0.003117 0.019585
v -0.846911 0.010524 0.092971
v -0.856640 -0.022191 0.090769
v -0.845162 0.026467 0.033470
v -0.853153 -0.022492 0.091894
v -0.853153 -0.002815 0.018459
v -0.845162 0.010372 0.093536
v -0.843275 0.026588 0.033021
v -0.849391 -0.022732 0.092790
v -0.849391 -0.002575 0.017563
v -0.843275 0.010252 0.093985
v -0.845419 -0.002401 0.016912
v -0.841283 0.026675 0.032694
v -0.845419 -0.022907 0.093441
v -0.841283 0.010164 0.094312
v -0.839219 0.026728 0.032496
v -0.841305 -0.023013 0.093836
v -0.841305 -0.002295 0.016517
v -0.839219 0.010111 0.094510
v -0.837120 0.026746 0.032429
v -0.837642 -0.023044 0.093952
v -0.837642 -0.002264 0.016401
v -0.837120 0.010094 0.094577
v -0.740610 0.026746 0.032429
v -0.740088 -0.023044 0.093952
v -0.740088 -0.002264 0.016401
v -0.740610 0.010094 0.094577
v -0.736425 -0.002295 0.016517
v -0.736425 -0.023013 0.093836
v -0.738511 0.026728 0.032496
v -0.738511 0.010111 0.094510
v -0.732311 -0.002401 0.016912
v -0.732311 -0.022907 0.093441
v -0.736447 0.010164 0.094312
v -0.736447 0.026675 0.032694
v -0.734455 0.026588 0.033021
v -0.728339 -0.022732 0.092790
v -0.734455 0.010252 0.093985
v -0.728339 -0.002575 0.017563
v -0.724577 -0.002815 0.018459
v -0.732568 0.010372 0.093536
v -0.724577 -0.022492 0.091894
v -0.732568 0.026467 0.033470
v -0.721089 -0.003117 0.019585
v -0.721089 -0.022191 0.090769
v -0.730818 0.026316 0.034035
v -0.730818 0.010524 0.092971
v -0.729236 0.026136 0.034705
v -0.717936 -0.021833 0.089433
v -0.717936 -0.003475 0.020920
v -0.729236 0.010703 0.092301
v -0.715170 -0.003883 0.022444
v -0.715170 -0.021425 0.087910
v -0.727849 0.025932 0.035469
v -0.727849 0.010908 0.091537
v -0.712840 -0.004334 0.024128
v -0.712840 -0.020973 0.086225
v -0.726680 0.025705 0.036313
v -0.726680 0.011134 0.090692
v -0.710985 -0.004821 0.025945
v -0.710985 -0.020487 0.084409
v -0.725750 0.025461 0.037225
v -0.725750 0.011379 0.089781
v -0.709636 -0.005335 0.027863
v -0.709636 -0.019973 0.082490
v -0.725073 0.025203 0.038187
v -0.725073 0.011636 0.088819
v -0.708818 -0.005868 0.029850
v -0.708818 -0.019440 0.080503
v -0.724663 0.024936 0.039184
v -0.724663 0.011903 0.087822
v -0.708578 -0.006342 0.031619
v -0.708578 -0.018966 0.078734
v -0.724525 0.024664 0.040198
v -0.724525 0.012175 0.086808
vn 0 -0.9659252709901923 -0.25882111749724634
vn 0 0.9659252709901923 0.25882111749724634
vn 0.8942291140826425 -0.41348944057428233 -0.17140820884817373
vn 0.8942291140826426 -0.4437962139847919 -0.05830276133886759
vn -0.8942291140826426 0.4437962139847919 0.05830276133886759
vn -0.8942291140826425 0.41348944057428233 0.17140820884817373
vn 0.8702555373417441 -0.4805090981305958 0.10847260640251001
vn -0.8702555373417441 0.4805090981305958 -0.10847260640251001
vn 0.8702555373417441 -0.36189534849609734 -0.33419613472169396
vn -0.8702555373417441 0.36189534849609734 0.33419613472169396
vn 0.8027790214489865 -0.5101555704265026 0.3086861459220633
vn -0.8027790214489865 0.5101555704265026 -0.3086861459220633
vn 0.8027790214489866 -0.28746236925423835 -0.5224090628847738
vn -0.8027790214489866 0.28746236925423835 0.5224090628847738
vn 0.7114914775791873 -0.5220980435084478 0.4703121413453365
vn -0.7114914775791873 0.5220980435084478 -0.4703121413453365
vn 0.7114914775791873 -0.21699123037242218 -0.6683522149837219
vn -0.7114914775791873 0.21699123037242218 0.6683522149837219
vn 0.6128645147657792 -0.5227440287643829 0.5925670990968768
vn -0.6128645147657792 0.5227440287643829 -0.5925670990968768
vn 0.6128645147657793 -0.15642273543955368 -0.7745508468644994
vn -0.6128645147657793 0.15642273543955368 0.7745508468644994
vn 0.516586723497947 -0.517644407344373 0.6820428319766643
vn -0.516586723497947 0.517644407344373 -0.6820428319766643
vn 0.5165867234979471 -0.107268145739598 -0.849489082928818
vn -0.5165867234979471 0.107268145739598 0.849489082928818
vn 0.4266508770637266 -0.510386410461432 0.7466423113627082
vn -0.4266508770637266 0.510386410461432 -0.7466423113627082
vn 0.4266508770637266 -0.06868257187849512 -0.901804709136578
vn -0.4266508770637266 0.06868257187849512 0.901804709136578
vn 0.343817179915171 -0.5029548720154953 0.7929855884636591
vn -0.343817179915171 0.5029548720154953 -0.7929855884636591
vn 0.343817179915171 -0.0390748759722185 -0.9382232681312773
vn -0.343817179915171 0.0390748759722185 0.9382232681312773
vn 0.2673841492917186 -0.4963443457240047 0.8259225188692663
vn -0.2673841492917186 0.4963443457240047 -0.8259225188692663
vn 0.2673841492917186 -0.016881418854189915 -0.9634421282075086
vn -0.2673841492917186 0.016881418854189915 0.9634421282075086
vn 0.19612033990591995 -0.49101238818795995 0.8487895186211611
vn -0.19612033990591995 0.49101238818795995 -0.8487895186211611
vn 0.19612033990591995 -0.0008302347635376496 -0.9805794832574378
vn -0.19612033990591995 0.0008302347635376496 0.9805794832574378
vn 0.12867471888577756 -0.4871484550259894 0.8637877051020451
vn -0.12867471888577756 0.4871484550259894 -0.8637877051020451
vn 0.12867471888577753 0.010015170198546846 -0.9916362806420307
vn -0.12867471888577753 -0.010015170198546846 0.9916362806420307
vn 0.06372325524781723 -0.48481890137019884 0.8722900776776122
vn -0.06372325524781723 0.48481890137019884 -0.8722900776776122
vn 0.06372325524781722 0.01628383572942187 -0.997834747558211
vn -0.06372325524781722 -0.01628383572942187 0.997834747558211
vn 0.015884553557491826 -0.48376110008104933 0.8750559290734805
vn -0.015884553557491826 0.48376110008104933 -0.8750559290734805
vn 0.015884553557491826 0.018582852224609144 -0.9997011346204813
vn -0.015884553557491826 -0.018582852224609144 0.9997011346204813
vn -0.015884553557491826 -0.48376110008104933 0.8750559290734805
vn 0.015884553557491826 0.48376110008104933 -0.8750559290734805
vn -0.015884553557491826 0.018582852224609144 -0.9997011346204813
vn 0.015884553557491826 -0.018582852224609144 0.9997011346204813
vn -0.06372325524781723 -0.48481890137019884 0.8722900776776122
vn 0.06372325524781723 0.48481890137019884 -0.8722900776776122
vn -0.06372325524781722 0.01628383572942187 -0.997834747558211
vn 0.06372325524781722 -0.01628383572942187 0.997834747558211
vn -0.12867471888577756 -0.4871484550259894 0.8637877051020451
vn 0.12867471888577756 0.4871484550259894 -0.8637877051020451
vn -0.12867471888577753 0.010015170198546846 -0.9916362806420307
vn 0.12867471888577753 -0.010015170198546846 0.9916362806420307
vn -0.19612033990591995 -0.49101238818795995 0.8487895186211611
vn 0.19612033990591995 0.49101238818795995 -0.8487895186211611
vn -0.19612033990591995 -0.0008302347635376496 -0.9805794832574378
vn 0.19612033990591995 0.0008302347635376496 0.9805794832574378
vn -0.2673841492917186 -0.4963443457240047 0.8259225188692663
vn 0.2673841492917186 0.4963443457240047 -0.8259225188692663
vn -0.2673841492917186 -0.016881418854189915 -0.9634421282075086
vn 0.2673841492917186 0.016881418854189915 0.9634421282075086
vn -0.343817179915171 -0.5029548720154953 0.7929855884636591
vn 0.343817179915171 0.5029548720154953 -0.7929855884636591
vn -0.343817179915171 -0.0390748759722185 -0.9382232681312773
vn 0.343817179915171 0.0390748759722185 0.9382232681312773
vn -0.4266508770637266 -0.510386410461432 0.7466423113627082
vn 0.4266508770637266 0.510386410461432 -0.7466423113627082
vn -0.4266508770637266 -0.06868257187849512 -0.901804709136578
vn 0.4266508770637266 0.06868257187849512 0.901804709136578
vn -0.516586723497947 -0.517644407344373 0.6820428319766643
vn 0.516586723497947 0.517644407344373 -0.6820428319766643
vn -0.5165867234979471 -0.107268145739598 -0.849489082928818
vn 0.5165867234979471 0.107268145739598 0.849489082928818
vn -0.6128645147657792 -0.5227440287643829 0.5925670990968768
vn 0.6128645147657792 0.5227440287643829 -0.5925670990968768
vn -0.6128645147657793 -0.15642273543955368 -0.7745508468644994
vn 0.6128645147657793 0.15642273543955368 0.7745508468644994
vn -0.7114914775791873 -0.5220980435084478 0.4703121413453365
vn 0.7114914775791873 0.5220980435084478 -0.4703121413453365
vn -0.7114914775791873 -0.21699123037242218 -0.6683522149837219
vn 0.7114914775791873 0.21699123037242218 0.6683522149837219
vn -0.8027790214489865 -0.5101555704265026 0.3086861459220633
vn 0.8027790214489865 0.5101555704265026 -0.3086861459220633
vn -0.8027790214489866 -0.28746236925423835 -0.5224090628847738
vn 0.8027790214489866 0.28746236925423835 0.5224090628847738
vn -0.8702555373417441 -0.4805090981305958 0.10847260640251001
vn 0.8702555373417441 0.4805090981305958 -0.10847260640251001
vn -0.8702555373417441 -0.36189534849609734 -0.33419613472169396
vn 0.8702555373417441 0.36189534849609734 0.33419613472169396
vn -0.8942291140826426 -0.4437962139847919 -0.05830276133886759
vn 0.8942291140826426 0.4437962139847919 0.05830276133886759
vn -0.8942291140826425 -0.41348944057428233 -0.17140820884817373
vn 0.8942291140826425 0.41348944057428233 0.17140820884817373
usemtl material_0_0
f 1//1 2//1 3//1
f 2//1 1//1 4//1
f 3//2 2//2 1//2
f 4//2 1//2 2//2
f 2//3 5//4 3//4
f 3//5 5//5 2//6
f 5//4 1//7 3//4
f 3//5 1//8 5//5
f 4//1 1//1 6//1
f 6//2 1//2 4//2
f 4//9 7//3 2//3
f 2//6 7//6 4//10
f 5//4 2//3 7//3
f 7//6 2//6 5//5
f 1//7 5//4 8//7
f 8//8 5//5 1//8
f 8//7 6//11 1//7
f 1//8 6//12 8//8
f 4//1 6//1 9//1
f 9//2 6//2 4//2
f 7//3 4//9 10//9
f 10//10 4//10 7//6
f 10//2 5//2 7//2
f 7//1 5//1 10//1
f 5//2 10//2 8//2
f 8//1 10//1 5//1
f 6//11 8//7 11//11
f 11//12 8//8 6//12
f 9//1 6//1 12//1
f 12//2 6//2 9//2
f 9//13 10//9 4//9
f 4//10 10//10 9//14
f 8//2 10//2 13//2
f 13//1 10//1 8//1
f 8//2 13//2 11//2
f 11//1 13//1 8//1
f 11//11 12//15 6//11
f 6//12 12//16 11//12
f 9//1 12//1 14//1
f 14//2 12//2 9//2
f 10//9 9//13 13//13
f 13//14 9//14 10//10
f 11//2 13//2 15//2
f 15//1 13//1 11//1
f 12//15 11//11 16//15
f 16//16 11//12 12//16
f 14//1 12//1 17//1
f 17//2 12//2 14//2
f 14//17 13//13 9//13
f 9//14 13//14 14//18
f 13//13 14//17 15//17
f 15//18 14//18 13//14
f 11//2 15//2 16//2
f 16//1 15//1 11//1
f 16//15 17//19 12//15
f 12//16 17//20 16//16
f 14//1 17//1 18//1
f 18//2 17//2 14//2
f 18//21 15//17 14//17
f 14//18 15//18 18//22
f 16//2 15//2 19//2
f 19//1 15//1 16//1
f 17//19 16//15 20//19
f 20//20 16//16 17//20
f 18//1 17//1 21//1
f 21//2 17//2 18//2
f 15//17 18//21 19//21
f 19//22 18//22 15//18
f 16//2 19//2 20//2
f 20//1 19//1 16//1
f 20//19 21//23 17//19
f 17//20 21//24 20//20
f 18//1 21//1 22//1
f 22//2 21//2 18//2
f 22//25 19//21 18//21
f 18//22 19//22 22//26
f 20//2 19//2 23//2
f 23//1 19//1 20//1
f 21//23 20//19 24//23
f 24//24 20//20 21//24
f 22//1 21//1 25//1
f 25//2 21//2 22//2
f 19//21 22//25 23//25
f 23//26 22//26 19//22
f 20//2 23//2 24//2
f 24//1 23//1 20//1
f 24//23 25//27 21//23
f 21//24 25//28 24//24
f 22//1 25//1 26//1
f 26//2 25//2 22//2
f 26//29 23//25 22//25
f 22//26 23//26 26//30
f 24//2 23//2 27//2
f 27//1 23//1 24//1
f 25//27 24//23 28//27
f 28//28 24//24 25//28
f 26//1 25//1 29//1
f 29//2 25//2 26//2
f 23//25 26//29 27//29
f 27//30 26//30 23//26
f 24//2 27//2 28//2
f 28//1 27//1 24//1
f 30//31 25//27 28//27
f 28//28 25//28 30//32
f 25//27 30//31 29//31
f 29//32 30//32 25//28
f 26//1 29//1 31//1
f 31//2 29//2 26//2
f 31//33 27//29 26//29
f 26//30 27//30 31//34
f 28//2 27//2 32//2
f 32//1 27//1 28//1
f 28//2 32//2 30//2
f 30//1 32//1 28//1
f 30//31 33//35 29//31
f 29//32 33//36 30//32
f 31//1 29//1 33//1
f 33//2 29//2 31//2
f 27//29 31//33 32//33
f 32//34 31//34 27//30
f 30//2 32//2 34//2
f 34//1 32//1 30//1
f 33//35 30//31 35//35
f 35//36 30//32 33//36
f 31//1 33//1 36//1
f 36//2 33//2 31//2
f 31//33 34//37 32//33
f 32//34 34//38 31//34
f 30//2 34//2 35//2
f 35//1 34//1 30//1
f 35//35 37//39 33//35
f 33//36 37//40 35//36
f 36//1 33//1 37//1
f 37//2 33//2 36//2
f 34//37 31//33 36//37
f 36//38 31//34 34//38
f 35//2 34//2 38//2
f 38//1 34//1 35//1
f 37//39 35//35 39//39
f 39//40 35//36 37//40
f 36//1 37//1 40//1
f 40//2 37//2 36//2
f 36//37 38//41 34//37
f 34//38 38//42 36//38
f 35//2 38//2 39//2
f 39//1 38//1 35//1
f 41//43 37//39 39//39
f 39//40 37//40 41//44
f 40//1 37//1 42//1
f 42//2 37//2 40//2
f 38//41 36//37 40//41
f 40//42 36//38 38//42
f 39//2 38//2 43//2
f 43//1 38//1 39//1
f 37//39 41//43 42//43
f 42//44 41//44 37//40
f 39//2 43//2 41//2
f 41//1 43//1 39//1
f 40//1 42//1 44//1
f 44//2 42//2 40//2
f 40//41 43//45 38//41
f 38//42 43//46 40//42
f 41//43 45//47 42//43
f 42//44 45//48 41//44
f 41//2 43//2 46//2
f 46//1 43//1 41//1
f 44//1 42//1 45//1
f 45//2 42//2 44//2
f 43//45 40//41 44//45
f 44//46 40//42 43//46
f 45//47 41//43 47//47
f 47//48 41//44 45//48
f 44//45 46//49 43//45
f 43//46 46//50 44//46
f 41//2 46//2 47//2
f 47//1 46//1 41//1
f 44//1 45//1 48//1
f 48//2 45//2 44//2
f 47//47 49//51 45//47
f 45//48 49//52 47//48
f 46//49 44//45 48//49
f 48//50 44//46 46//50
f 47//2 46//2 50//2
f 50//1 46//1 47//1
f 48//1 45//1 49//1
f 49//2 45//2 48//2
f 49//51 47//47 51//51
f 51//52 47//48 49//52
f 52//53 46//49 48//49
f 48//50 46//50 52//54
f 46//49 52//53 50//53
f 50//54 52//54 46//50
f 47//2 50//2 51//2
f 51//1 50//1 47//1
f 48//1 49//1 52//1
f 52//2 49//2 48//2
f 51//51 53//55 49//51
f 49//52 53//56 51//52
f 52//53 54//57 50//53
f 50//54 54//58 52//54
f 51//2 50//2 54//2
f 54//1 50//1 51//1
f 52//1 49//1 53//1
f 53//2 49//2 52//2
f 53//55 51//51 55//55
f 55//56 51//52 53//56
f 54//57 52//53 56//57
f 56//58 52//54 54//58
f 51//2 54//2 55//2
f 55//1 54//1 51//1
f 52//1 53//1 56//1
f 56//2 53//2 52//2
f 57//59 53//55 55//55
f 55//56 53//56 57//60
f 56//57 58//61 54//57
f 54//58 58//62 56//58
f 55//2 54//2 58//2
f 58//1 54//1 55//1
f 56//1 53//1 59//1
f 59//2 53//2 56//2
f 53//55 57//59 59//59
f 59//60 57//60 53//56
f 55//2 58//2 57//2
f 57//1 58//1 55//1
f 58//61 56//57 60//61
f 60//62 56//58 58//62
f 56//1 59//1 60//1
f 60//2 59//2 56//2
f 61//63 59//59 57//59
f 57//60 59//60 61//64
f 57//2 58//2 62//2
f 62//1 58//1 57//1
f 63//65 58//61 60//61
f 60//62 58//62 63//66
f 60//1 59//1 64//1
f 64//2 59//2 60//2
f 59//59 61//63 64//63
f 64//64 61//64 59//60
f 57//2 62//2 61//2
f 61//1 62//1 57//1
f 58//61 63//65 62//65
f 62//66 63//66 58//62
f 60//1 64//1 63//1
f 63//2 64//2 60//2
f 61//63 65//67 64//63
f 64//64 65//68 61//64
f 61//2 62//2 66//2
f 66//1 62//1 61//1
f 67//69 62//65 63//65
f 63//66 62//66 67//70
f 63//1 64//1 65//1
f 65//2 64//2 63//2
f 65//67 61//63 68//67
f 68//68 61//64 65//68
f 62//65 67//69 66//69
f 66//70 67//70 62//66
f 61//2 66//2 68//2
f 68//1 66//1 61//1
f 63//1 65//1 67//1
f 67//2 65//2 63//2
f 69//71 65//67 68//67
f 68//68 65//68 69//72
f 70//73 66//69 67//69
f 67//70 66//70 70//74
f 68//2 66//2 71//2
f 71//1 66//1 68//1
f 67//1 65//1 72//1
f 72//2 65//2 67//2
f 65//67 69//71 72//71
f 72//72 69//72 65//68
f 68//2 71//2 69//2
f 69//1 71//1 68//1
f 66//69 70//73 71//73
f 71//74 70//74 66//70
f 67//1 72//1 70//1
f 70//2 72//2 67//2
f 73//75 72//71 69//71
f 69//72 72//72 73//76
f 69//2 71//2 73//2
f 73//1 71//1 69//1
f 70//73 74//77 71//73
f 71//74 74//78 70//74
f 70//1 72//1 75//1
f 75//2 72//2 70//2
f 72//71 73//75 75//75
f 75//76 73//76 72//72
f 73//2 71//2 74//2
f 74//1 71//1 73//1
f 74//77 70//73 76//77
f 76//78 70//74 74//78
f 70//1 75//1 76//1
f 76//2 75//2 70//2
f 73//75 77//79 75//75
f 75//76 77//80 73//76
f 73//2 74//2 78//2
f 78//1 74//1 73//1
f 76//77 78//81 74//77
f 74//78 78//82 76//78
f 76//1 75//1 77//1
f 77//2 75//2 76//2
f 77//79 73//75 79//79
f 79//80 73//76 77//80
f 73//2 78//2 79//2
f 79//1 78//1 73//1
f 78//81 76//77 80//81
f 80//82 76//78 78//82
f 76//1 77//1 80//1
f 80//2 77//2 76//2
f 81//83 77//79 79//79
f 79//80 77//80 81//84
f 79//2 78//2 82//2
f 82//1 78//1 79//1
f 80//81 82//85 78//81
f 78//82 82//86 80//82
f 80//1 77//1 83//1
f 83//2 77//2 80//2
f 77//79 81//83 83//83
f 83//84 81//84 77//80
f 79//2 82//2 81//2
f 81//1 82//1 79//1
f 82//85 80//81 84//85
f 84//86 80//82 82//86
f 80//1 83//1 84//1
f 84//2 83//2 80//2
f 85//87 83//83 81//83
f 81//84 83//84 85//88
f 81//2 82//2 86//2
f 86//1 82//1 81//1
f 84//85 86//89 82//85
f 82//86 86//90 84//86
f 84//1 83//1 87//1
f 87//2 83//2 84//2
f 83//83 85//87 87//87
f 87//88 85//88 83//84
f 81//2 86//2 85//2
f 85//1 86//1 81//1
f 86//89 84//85 88//89
f 88//90 84//86 86//90
f 84//1 87//1 88//1
f 88//2 87//2 84//2
f 89//91 87//87 85//87
f 85//88 87//88 89//92
f 85//2 86//2 90//2
f 90//1 86//1 85//1
f 88//89 90//93 86//89
f 86//90 90//94 88//90
f 88//1 87//1 91//1
f 91//2 87//2 88//2
f 87//87 89//91 91//91
f 91//92 89//92 87//88
f 85//2 90//2 89//2
f 89//1 90//1 85//1
f 90//93 88//89 92//93
f 92//94 88//90 90//94
f 88//1 91//1 92//1
f 92//2 91//2 88//2
f 93//95 91//91 89//91
f 89//92 91//92 93//96
f 89//2 90//2 94//2
f 94//1 90//1 89//1
f 92//93 94//97 90//93
f 90//94 94//98 92//94
f 92//1 91//1 95//1
f 95//2 91//2 92//2
f 91//91 93//95 95//95
f 95//96 93//96 91//92
f 89//2 94//2 93//2
f 93//1 94//1 89//1
f 94//97 92//93 96//97
f 96//98 92//94 94//98
f 92//1 95//1 96//1
f 96//2 95//2 92//2
f 97//99 95//95 93//95
f 93//96 95//96 97//100
f 93//2 94//2 98//2
f 98//1 94//1 93//1
f 96//97 98//101 94//97
f 94//98 98//102 96//98
f 96//1 95//1 99//1
f 99//2 95//2 96//2
f 95//95 97//99 99//99
f 99//100 97//100 95//96
f 93//2 98//2 97//2
f 97//1 98//1 93//1
f 98//101 96//97 100//101
f 100//102 96//98 98//102
f 96//1 99//1 100//1
f 100//2 99//2 96//2
f 101//103 99//99 97//99
f 97//100 99//100 101//104
f 97//2 98//2 102//2
f 102//1 98//1 97//1
f 100//101 102//105 98//101
f 98//102 102//106 100//102
f 100//1 99//1 103//1
f 103//2 99//2 100//2
f 99//99 101//103 103//103
f 103//104 101//104 99//100
f 97//2 102//2 101//2
f 101//1 102//1 97//1
f 102//105 100//101 104//105
f 104//106 100//102 102//106
f 100//1 103//1 104//1
f 104//2 103//2 100//2
f 101//103 104//105 103//103
f 103//104 104//106 101//104
f 104//105 101//103 102//105
f 102//106 101//104 104//106
