# SSTK version 0.8.0
# 316
mtllib original-316.mtl
o mesh416/mesh416-geometry#mesh416-geometry
v 0.379842 0.039069 -0.013333
v 0.379930 0.038762 -0.012184
v 0.379793 0.038945 -0.012867
v 0.379988 0.039184 -0.013760
v 0.380341 0.038603 -0.011594
v 0.380231 0.039288 -0.014148
v 0.380572 0.039382 -0.014498
v 0.381026 0.038470 -0.011094
v 0.380993 0.039459 -0.014787
v 0.381479 0.039514 -0.014993
v 0.381276 0.038991 -0.013042
v 0.381365 0.039102 -0.013455
v 0.381351 0.038891 -0.012668
v 0.381630 0.039191 -0.013786
v 0.381985 0.038360 -0.010686
v 0.382029 0.039548 -0.015117
v 0.381577 0.038808 -0.012357
v 0.382049 0.039249 -0.014004
v 0.382039 0.038730 -0.012067
v 0.382644 0.039559 -0.015158
v 0.382692 0.038285 -0.010407
v 0.382594 0.039269 -0.014076
v 0.382825 0.038646 -0.011753
v 0.383464 0.039238 -0.013961
v 0.383150 0.038206 -0.010109
v 0.383756 0.039527 -0.015039
v 0.383816 0.038530 -0.011318
v 0.384308 0.039145 -0.013615
v 0.383401 0.038112 -0.009758
v 0.384687 0.039431 -0.014681
v 0.383484 0.037994 -0.009318
v 0.383704 0.037498 -0.007468
v 0.384156 0.037574 -0.007750
v 0.383383 0.037871 -0.008860
v 0.384481 0.038393 -0.010810
v 0.383178 0.037444 -0.007267
v 0.384518 0.037667 -0.008098
v 0.383080 0.037776 -0.008506
v 0.384858 0.038229 -0.010196
v 0.382592 0.037715 -0.008279
v 0.384776 0.037773 -0.008496
v 0.382578 0.037412 -0.007146
v 0.384932 0.037894 -0.008945
v 0.381935 0.037695 -0.008204
v 0.384983 0.038028 -0.009445
v 0.381902 0.037401 -0.007105
v 0.380914 0.037733 -0.008347
v 0.380663 0.037437 -0.007241
v 0.379925 0.037849 -0.008777
v 0.379563 0.037546 -0.007647
vn 0 -0.9659258737367358 -0.25881886802534987
vn 0 0.9659258737367358 0.25881886802534987
usemtl material_0_0
f 1//1 2//1 3//1
f 2//1 1//1 4//1
f 3//2 2//2 1//2
f 4//2 1//2 2//2
f 2//1 4//1 5//1
f 5//2 4//2 2//2
f 5//1 4//1 6//1
f 6//2 4//2 5//2
f 5//1 6//1 7//1
f 7//2 6//2 5//2
f 5//1 7//1 8//1
f 8//2 7//2 5//2
f 8//1 7//1 9//1
f 9//2 7//2 8//2
f 8//1 9//1 10//1
f 10//2 9//2 8//2
f 8//1 10//1 11//1
f 11//2 10//2 8//2
f 11//1 10//1 12//1
f 12//2 10//2 11//2
f 13//1 8//1 11//1
f 11//2 8//2 13//2
f 12//1 10//1 14//1
f 14//2 10//2 12//2
f 8//1 13//1 15//1
f 15//2 13//2 8//2
f 14//1 10//1 16//1
f 16//2 10//2 14//2
f 15//1 13//1 17//1
f 17//2 13//2 15//2
f 14//1 16//1 18//1
f 18//2 16//2 14//2
f 15//1 17//1 19//1
f 19//2 17//2 15//2
f 18//1 16//1 20//1
f 20//2 16//2 18//2
f 15//1 19//1 21//1
f 21//2 19//2 15//2
f 18//1 20//1 22//1
f 22//2 20//2 18//2
f 21//1 19//1 23//1
f 23//2 19//2 21//2
f 22//1 20//1 24//1
f 24//2 20//2 22//2
f 21//1 23//1 25//1
f 25//2 23//2 21//2
f 24//1 20//1 26//1
f 26//2 20//2 24//2
f 25//1 23//1 27//1
f 27//2 23//2 25//2
f 24//1 26//1 28//1
f 28//2 26//2 24//2
f 25//1 27//1 29//1
f 29//2 27//2 25//2
f 28//1 26//1 30//1
f 30//2 26//2 28//2
f 29//1 27//1 31//1
f 31//2 27//2 29//2
f 31//1 27//1 32//1
f 32//2 27//2 31//2
f 32//1 27//1 33//1
f 33//2 27//2 32//2
f 32//1 34//1 31//1
f 31//2 34//2 32//2
f 33//1 27//1 35//1
f 35//2 27//2 33//2
f 36//1 34//1 32//1
f 32//2 34//2 36//2
f 33//1 35//1 37//1
f 37//2 35//2 33//2
f 36//1 38//1 34//1
f 34//2 38//2 36//2
f 37//1 35//1 39//1
f 39//2 35//2 37//2
f 36//1 40//1 38//1
f 38//2 40//2 36//2
f 37//1 39//1 41//1
f 41//2 39//2 37//2
f 42//1 40//1 36//1
f 36//2 40//2 42//2
f 41//1 39//1 43//1
f 43//2 39//2 41//2
f 42//1 44//1 40//1
f 40//2 44//2 42//2
f 43//1 39//1 45//1
f 45//2 39//2 43//2
f 46//1 44//1 42//1
f 42//2 44//2 46//2
f 46//1 47//1 44//1
f 44//2 47//2 46//2
f 48//1 47//1 46//1
f 46//2 47//2 48//2
f 48//1 49//1 47//1
f 47//2 49//2 48//2
f 49//1 48//1 50//1
f 50//2 48//2 49//2
