# SSTK version 0.8.0
# 155
mtllib original-155.mtl
o mesh66/mesh66-geometry#mesh66-geometry
v 0.292300 0.091970 -0.210606
v 0.291945 0.091293 -0.208081
v 0.291121 0.091755 -0.209805
v 0.292921 0.091470 -0.208742
v 0.293572 0.092123 -0.211178
v 0.293901 0.091597 -0.209215
v 0.294936 0.092215 -0.211521
v 0.294885 0.091673 -0.209498
v 0.295871 0.091698 -0.209593
v 0.296393 0.092245 -0.211635
v 0.297420 0.091639 -0.209372
v 0.297640 0.092221 -0.211545
v 0.298036 0.091565 -0.209097
v 0.298744 0.092149 -0.211274
v 0.298549 0.091462 -0.208711
v 0.299239 0.091179 -0.207655
v 0.299706 0.092028 -0.210822
v 0.299469 0.090803 -0.206251
v 0.299857 0.089504 -0.201404
v 0.299388 0.090584 -0.205436
v 0.300526 0.091858 -0.210190
v 0.299144 0.090359 -0.204596
v 0.300739 0.089818 -0.202577
v 0.298496 0.089112 -0.199941
v 0.301181 0.091652 -0.209421
v 0.298171 0.089889 -0.202842
v 0.301702 0.090361 -0.204603
v 0.295650 0.089164 -0.200133
v 0.301648 0.091422 -0.208562
v 0.294334 0.088095 -0.196145
v 0.301929 0.091167 -0.207611
v 0.290681 0.087548 -0.194102
v 0.301942 0.090627 -0.205593
v 0.290681 0.087953 -0.195614
v 0.302462 0.087548 -0.194102
v 0.302023 0.090888 -0.206569
v 0.302462 0.088095 -0.196145
vn 0 -0.9659258737367358 -0.25881886802534987
vn 0 0.9659258737367358 0.25881886802534987
usemtl material_0_0
f 1//1 2//1 3//1
f 2//1 1//1 4//1
f 3//2 2//2 1//2
f 4//2 1//2 2//2
f 4//1 1//1 5//1
f 5//2 1//2 4//2
f 4//1 5//1 6//1
f 6//2 5//2 4//2
f 6//1 5//1 7//1
f 7//2 5//2 6//2
f 6//1 7//1 8//1
f 8//2 7//2 6//2
f 8//1 7//1 9//1
f 9//2 7//2 8//2
f 9//1 7//1 10//1
f 10//2 7//2 9//2
f 9//1 10//1 11//1
f 11//2 10//2 9//2
f 11//1 10//1 12//1
f 12//2 10//2 11//2
f 11//1 12//1 13//1
f 13//2 12//2 11//2
f 13//1 12//1 14//1
f 14//2 12//2 13//2
f 13//1 14//1 15//1
f 15//2 14//2 13//2
f 15//1 14//1 16//1
f 16//2 14//2 15//2
f 16//1 14//1 17//1
f 17//2 14//2 16//2
f 16//1 17//1 18//1
f 18//2 17//2 16//2
f 19//1 18//1 17//1
f 17//2 18//2 19//2
f 19//1 20//1 18//1
f 18//2 20//2 19//2
f 19//1 17//1 21//1
f 21//2 17//2 19//2
f 19//1 22//1 20//1
f 20//2 22//2 19//2
f 19//1 21//1 23//1
f 23//2 21//2 19//2
f 24//1 22//1 19//1
f 19//2 22//2 24//2
f 23//1 21//1 25//1
f 25//2 21//2 23//2
f 24//1 26//1 22//1
f 22//2 26//2 24//2
f 23//1 25//1 27//1
f 27//2 25//2 23//2
f 24//1 28//1 26//1
f 26//2 28//2 24//2
f 27//1 25//1 29//1
f 29//2 25//2 27//2
f 30//1 28//1 24//1
f 24//2 28//2 30//2
f 27//1 29//1 31//1
f 31//2 29//2 27//2
f 32//1 28//1 30//1
f 30//2 28//2 32//2
f 27//1 31//1 33//1
f 33//2 31//2 27//2
f 28//1 32//1 34//1
f 34//2 32//2 28//2
f 30//1 35//1 32//1
f 32//2 35//2 30//2
f 33//1 31//1 36//1
f 36//2 31//2 33//2
f 35//1 30//1 37//1
f 37//2 30//2 35//2
