# SSTK version 0.8.0
# 400
mtllib original-400.mtl
o Y1/Y/mesh496/mesh496-geometry#mesh496-geometry
v -0.327163 0.045043 -0.035472
v -0.330678 0.042292 -0.025207
v -0.331804 0.042747 -0.026904
v -0.324253 0.045043 -0.035472
v -0.330678 0.040252 -0.017594
v -0.333232 0.040252 -0.017594
v -0.333232 0.042278 -0.025154
v -0.336362 0.045043 -0.035472
v -0.339301 0.045043 -0.035472
vn 0 -0.9659258737367358 -0.25881886802534987
vn 0 0.9659258737367358 0.25881886802534987
usemtl material_0_0
f 1//1 2//1 3//1
f 2//1 1//1 4//1
f 3//2 2//2 1//2
f 4//2 1//2 2//2
f 5//1 3//1 2//1
f 2//2 3//2 5//2
f 6//1 3//1 5//1
f 5//2 3//2 6//2
f 7//1 3//1 6//1
f 6//2 3//2 7//2
f 7//1 8//1 3//1
f 3//2 8//2 7//2
f 8//1 7//1 9//1
f 9//2 7//2 8//2
