# SSTK version 0.8.0
# 187
mtllib original-187.mtl
o mesh134/mesh134-geometry#mesh134-geometry
v -0.677595 -0.025669 0.228045
v -0.677897 -0.025842 0.228689
v -0.677897 -0.025679 0.228080
v -0.677693 -0.025840 0.228681
v -0.676706 -0.025811 0.228574
v -0.676706 -0.025624 0.227878
vn 0 -0.9659258492011171 -0.2588189595935757
vn 0 0.9659258492011171 0.2588189595935757
usemtl material_0_0
f 1//1 2//1 3//1
f 2//1 1//1 4//1
f 4//1 1//1 5//1
f 5//1 1//1 6//1
usemtl material_1_0
f 3//2 2//2 1//2
f 4//2 1//2 2//2
f 5//2 1//2 4//2
f 6//2 1//2 5//2
