# SSTK version 0.8.0
# 162
mtllib original-162.mtl
o Group13/mesh112/mesh112-geometry#mesh112-geometry
v 0.194851 0.060314 -0.092849
v 0.221659 0.059947 -0.091479
v 0.221659 0.057891 -0.083806
v 0.221659 0.060681 -0.094219
v 0.221659 0.062840 -0.102275
v 0.252824 0.060681 -0.094219
v 0.252824 0.059947 -0.091479
vn 0 -0.9659258492011171 -0.2588189595935757
vn 0 0.9659258492011171 0.2588189595935757
usemtl material_0_0
f 1//1 2//1 3//1
f 2//1 1//1 4//1
f 4//1 1//1 5//1
f 6//1 2//1 4//1
f 2//1 6//1 7//1
usemtl material_1_0
f 3//2 2//2 1//2
f 4//2 1//2 2//2
f 5//2 1//2 4//2
f 4//2 2//2 6//2
f 7//2 6//2 2//2
