# SSTK version 0.8.0
# 297
mtllib original-297.mtl
o mesh396/mesh396-geometry#mesh396-geometry
v 0.471224 0.058170 -0.084616
v 0.471223 0.057975 -0.083891
v 0.471155 0.058073 -0.084257
v 0.471427 0.057894 -0.083589
v 0.471431 0.058249 -0.084913
v 0.471738 0.057840 -0.083386
v 0.471747 0.058303 -0.085113
v 0.472127 0.057822 -0.083318
v 0.472143 0.058321 -0.085180
v 0.472529 0.057840 -0.083386
v 0.472528 0.058303 -0.085113
v 0.472840 0.058249 -0.084913
v 0.472844 0.057894 -0.083589
v 0.473046 0.058170 -0.084616
v 0.473048 0.057975 -0.083891
v 0.473115 0.058073 -0.084257
vn 0 -0.9659258737367358 -0.25881886802534987
vn 0 0.9659258737367358 0.25881886802534987
usemtl material_0_0
f 1//1 2//1 3//1
f 2//1 1//1 4//1
f 3//2 2//2 1//2
f 4//2 1//2 2//2
f 4//1 1//1 5//1
f 5//2 1//2 4//2
f 4//1 5//1 6//1
f 6//2 5//2 4//2
f 6//1 5//1 7//1
f 7//2 5//2 6//2
f 6//1 7//1 8//1
f 8//2 7//2 6//2
f 8//1 7//1 9//1
f 9//2 7//2 8//2
f 8//1 9//1 10//1
f 10//2 9//2 8//2
f 10//1 9//1 11//1
f 11//2 9//2 10//2
f 10//1 11//1 12//1
f 12//2 11//2 10//2
f 10//1 12//1 13//1
f 13//2 12//2 10//2
f 13//1 12//1 14//1
f 14//2 12//2 13//2
f 13//1 14//1 15//1
f 15//2 14//2 13//2
f 15//1 14//1 16//1
f 16//2 14//2 15//2
