# SSTK version 0.8.0
# 494
mtllib original-494.mtl
o mesh580/mesh580-geometry#mesh580-geometry
v 0.676943 0.090283 -0.251486
v 0.676706 0.089377 -0.248104
v 0.676521 0.090153 -0.251003
v 0.676773 0.089593 -0.248912
v 0.676493 0.088665 -0.245449
v 0.676975 0.089791 -0.249650
v 0.676168 0.090008 -0.250459
v 0.676749 0.089217 -0.247509
v 0.677434 0.090396 -0.251910
v 0.676071 0.088801 -0.245954
v 0.677018 0.088557 -0.245044
v 0.677312 0.089970 -0.250317
v 0.675888 0.089851 -0.249875
v 0.676878 0.089076 -0.246984
v 0.677783 0.090129 -0.250913
v 0.675770 0.088959 -0.246545
v 0.677093 0.088954 -0.246527
v 0.677993 0.090494 -0.252274
v 0.675689 0.089688 -0.249267
v 0.677630 0.088479 -0.244755
v 0.678356 0.090261 -0.251404
v 0.675589 0.089140 -0.247221
v 0.677395 0.088850 -0.246138
v 0.678604 0.090572 -0.252566
v 0.675569 0.089519 -0.248637
v 0.677777 0.088767 -0.245829
v 0.678998 0.090355 -0.251754
v 0.675529 0.089344 -0.247983
v 0.678327 0.088433 -0.244581
v 0.679250 0.090628 -0.252775
v 0.678237 0.088708 -0.245608
v 0.679708 0.090411 -0.251965
v 0.678773 0.088672 -0.245475
v 0.679933 0.090662 -0.252900
v 0.679110 0.088417 -0.244524
v 0.680488 0.090430 -0.252035
v 0.679386 0.088660 -0.245431
v 0.680651 0.090673 -0.252942
v 0.680372 0.088445 -0.244626
v 0.681471 0.090406 -0.251947
v 0.680425 0.088685 -0.245521
v 0.681784 0.090645 -0.252839
v 0.681427 0.088527 -0.244935
v 0.682241 0.090336 -0.251684
v 0.681277 0.088758 -0.245794
v 0.682233 0.090611 -0.252711
v 0.682604 0.090563 -0.252531
vn 0 -0.9659258704979565 -0.2588188801126468
vn 0 0.9659258704979565 0.2588188801126468
usemtl material_0_0
f 1//1 2//1 3//1
f 2//1 1//1 4//1
f 3//2 2//2 1//2
f 4//2 1//2 2//2
f 5//1 3//1 2//1
f 2//2 3//2 5//2
f 4//1 1//1 6//1
f 6//2 1//2 4//2
f 5//1 7//1 3//1
f 3//2 7//2 5//2
f 5//1 2//1 8//1
f 8//2 2//2 5//2
f 6//1 1//1 9//1
f 9//2 1//2 6//2
f 10//1 7//1 5//1
f 5//2 7//2 10//2
f 5//1 8//1 11//1
f 11//2 8//2 5//2
f 6//1 9//1 12//1
f 12//2 9//2 6//2
f 10//1 13//1 7//1
f 7//2 13//2 10//2
f 11//1 8//1 14//1
f 14//2 8//2 11//2
f 12//1 9//1 15//1
f 15//2 9//2 12//2
f 16//1 13//1 10//1
f 10//2 13//2 16//2
f 11//1 14//1 17//1
f 17//2 14//2 11//2
f 15//1 9//1 18//1
f 18//2 9//2 15//2
f 16//1 19//1 13//1
f 13//2 19//2 16//2
f 11//1 17//1 20//1
f 20//2 17//2 11//2
f 15//1 18//1 21//1
f 21//2 18//2 15//2
f 22//1 19//1 16//1
f 16//2 19//2 22//2
f 20//1 17//1 23//1
f 23//2 17//2 20//2
f 21//1 18//1 24//1
f 24//2 18//2 21//2
f 22//1 25//1 19//1
f 19//2 25//2 22//2
f 20//1 23//1 26//1
f 26//2 23//2 20//2
f 21//1 24//1 27//1
f 27//2 24//2 21//2
f 25//1 22//1 28//1
f 28//2 22//2 25//2
f 20//1 26//1 29//1
f 29//2 26//2 20//2
f 27//1 24//1 30//1
f 30//2 24//2 27//2
f 29//1 26//1 31//1
f 31//2 26//2 29//2
f 27//1 30//1 32//1
f 32//2 30//2 27//2
f 29//1 31//1 33//1
f 33//2 31//2 29//2
f 32//1 30//1 34//1
f 34//2 30//2 32//2
f 29//1 33//1 35//1
f 35//2 33//2 29//2
f 32//1 34//1 36//1
f 36//2 34//2 32//2
f 35//1 33//1 37//1
f 37//2 33//2 35//2
f 36//1 34//1 38//1
f 38//2 34//2 36//2
f 35//1 37//1 39//1
f 39//2 37//2 35//2
f 36//1 38//1 40//1
f 40//2 38//2 36//2
f 39//1 37//1 41//1
f 41//2 37//2 39//2
f 40//1 38//1 42//1
f 42//2 38//2 40//2
f 39//1 41//1 43//1
f 43//2 41//2 39//2
f 40//1 42//1 44//1
f 44//2 42//2 40//2
f 43//1 41//1 45//1
f 45//2 41//2 43//2
f 44//1 42//1 46//1
f 46//2 42//2 44//2
f 44//1 46//1 47//1
f 47//2 46//2 44//2
