# SSTK version 0.8.0
# 288
mtllib original-288.mtl
o mesh387/mesh387-geometry#mesh387-geometry
v 0.463196 0.062390 -0.100368
v 0.462959 0.061638 -0.097561
v 0.462811 0.062197 -0.099646
v 0.463108 0.061914 -0.098589
v 0.462959 0.060547 -0.093487
v 0.463295 0.062025 -0.099004
v 0.462712 0.062611 -0.101189
v 0.463742 0.062536 -0.100911
v 0.461427 0.060547 -0.093487
v 0.463556 0.062118 -0.099351
v 0.461427 0.061954 -0.098738
v 0.464212 0.062244 -0.099823
v 0.461361 0.062611 -0.101189
v 0.464395 0.062627 -0.101251
v 0.464986 0.062286 -0.099980
v 0.465101 0.062657 -0.101365
v 0.465513 0.062274 -0.099932
v 0.465513 0.062649 -0.101333
vn 0 -0.9659258737367358 -0.25881886802534987
vn 0 0.9659258737367358 0.25881886802534987
usemtl material_0_0
f 1//1 2//1 3//1
f 2//1 1//1 4//1
f 3//2 2//2 1//2
f 4//2 1//2 2//2
f 5//1 3//1 2//1
f 2//2 3//2 5//2
f 4//1 1//1 6//1
f 6//2 1//2 4//2
f 5//1 7//1 3//1
f 3//2 7//2 5//2
f 6//1 1//1 8//1
f 8//2 1//2 6//2
f 9//1 7//1 5//1
f 5//2 7//2 9//2
f 6//1 8//1 10//1
f 10//2 8//2 6//2
f 11//1 7//1 9//1
f 9//2 7//2 11//2
f 10//1 8//1 12//1
f 12//2 8//2 10//2
f 7//1 11//1 13//1
f 13//2 11//2 7//2
f 12//1 8//1 14//1
f 14//2 8//2 12//2
f 12//1 14//1 15//1
f 15//2 14//2 12//2
f 15//1 14//1 16//1
f 16//2 14//2 15//2
f 15//1 16//1 17//1
f 17//2 16//2 15//2
f 17//1 16//1 18//1
f 18//2 16//2 17//2
