# SSTK version 0.8.0
# 396
mtllib original-396.mtl
o C1/C/mesh492/mesh492-geometry#mesh492-geometry
v -0.491687 0.002234 0.124293
v -0.491697 0.001175 0.128243
v -0.491861 0.001706 0.126262
v -0.491207 0.000703 0.130007
v -0.491167 0.002711 0.122511
v -0.490389 0.000288 0.131555
v -0.490301 0.003139 0.120915
v -0.489245 -0.000069 0.132887
v -0.489170 0.001720 0.126209
v -0.489087 0.003517 0.119505
v -0.489049 0.001312 0.127734
v -0.489044 0.002149 0.124608
v -0.487834 -0.000356 0.133958
v -0.487592 0.003825 0.118354
v -0.488686 0.000946 0.129097
v -0.488667 0.002531 0.123184
v -0.488081 0.000624 0.130300
v -0.488038 0.002865 0.121938
v -0.487234 0.000345 0.131342
v -0.487158 0.003151 0.120871
v -0.486216 -0.000561 0.134722
v -0.485881 0.004046 0.117531
v -0.486170 0.000120 0.132183
v -0.486063 0.003380 0.120015
v -0.484391 -0.000684 0.135181
v -0.484788 0.003544 0.119404
v -0.484917 -0.000041 0.132784
v -0.483954 0.004178 0.117037
v -0.483472 -0.000138 0.133145
v -0.483334 0.003642 0.119037
v -0.482359 -0.000725 0.135334
v -0.481810 0.004222 0.116873
v -0.481838 -0.000170 0.133265
v -0.481700 0.003675 0.118915
v -0.479449 -0.000664 0.135109
v -0.479229 0.004167 0.117078
v -0.479593 -0.000119 0.133073
v -0.479641 0.003623 0.119107
v -0.477719 0.000036 0.132496
v -0.477773 0.003469 0.119684
v -0.478251 -0.000589 0.134827
v -0.477170 0.004002 0.117695
v -0.477224 -0.000483 0.134432
vn 0 -0.9659258737367358 -0.25881886802534987
vn 0 0.9659258737367358 0.25881886802534987
usemtl material_0_0
f 1//1 2//1 3//1
f 2//1 1//1 4//1
f 3//2 2//2 1//2
f 4//2 1//2 2//2
f 4//1 1//1 5//1
f 5//2 1//2 4//2
f 4//1 5//1 6//1
f 6//2 5//2 4//2
f 6//1 5//1 7//1
f 7//2 5//2 6//2
f 6//1 7//1 8//1
f 8//2 7//2 6//2
f 8//1 7//1 9//1
f 9//2 7//2 8//2
f 9//1 7//1 10//1
f 10//2 7//2 9//2
f 11//1 8//1 9//1
f 9//2 8//2 11//2
f 9//1 10//1 12//1
f 12//2 10//2 9//2
f 8//1 11//1 13//1
f 13//2 11//2 8//2
f 12//1 10//1 14//1
f 14//2 10//2 12//2
f 13//1 11//1 15//1
f 15//2 11//2 13//2
f 12//1 14//1 16//1
f 16//2 14//2 12//2
f 13//1 15//1 17//1
f 17//2 15//2 13//2
f 16//1 14//1 18//1
f 18//2 14//2 16//2
f 13//1 17//1 19//1
f 19//2 17//2 13//2
f 18//1 14//1 20//1
f 20//2 14//2 18//2
f 13//1 19//1 21//1
f 21//2 19//2 13//2
f 20//1 14//1 22//1
f 22//2 14//2 20//2
f 21//1 19//1 23//1
f 23//2 19//2 21//2
f 20//1 22//1 24//1
f 24//2 22//2 20//2
f 21//1 23//1 25//1
f 25//2 23//2 21//2
f 24//1 22//1 26//1
f 26//2 22//2 24//2
f 25//1 23//1 27//1
f 27//2 23//2 25//2
f 26//1 22//1 28//1
f 28//2 22//2 26//2
f 25//1 27//1 29//1
f 29//2 27//2 25//2
f 26//1 28//1 30//1
f 30//2 28//2 26//2
f 25//1 29//1 31//1
f 31//2 29//2 25//2
f 30//1 28//1 32//1
f 32//2 28//2 30//2
f 31//1 29//1 33//1
f 33//2 29//2 31//2
f 30//1 32//1 34//1
f 34//2 32//2 30//2
f 31//1 33//1 35//1
f 35//2 33//2 31//2
f 34//1 32//1 36//1
f 36//2 32//2 34//2
f 35//1 33//1 37//1
f 37//2 33//2 35//2
f 34//1 36//1 38//1
f 38//2 36//2 34//2
f 35//1 37//1 39//1
f 39//2 37//2 35//2
f 38//1 36//1 40//1
f 40//2 36//2 38//2
f 35//1 39//1 41//1
f 41//2 39//2 35//2
f 40//1 36//1 42//1
f 42//2 36//2 40//2
f 41//1 39//1 43//1
f 43//2 39//2 41//2
