# SSTK version 0.8.0
# 442
mtllib original-442.mtl
o ___1_1_1/___1_1_2/mesh532/mesh532-geometry#mesh532-geometry
v 0.195851 0.015001 0.076643
v 0.194890 0.013850 0.080940
v 0.194148 0.013999 0.080383
v 0.197553 0.014753 0.077571
v 0.194890 0.013608 0.081842
v 0.195796 0.012486 0.086033
v 0.199118 0.013992 0.080410
v 0.194066 0.013495 0.082266
v 0.197581 0.012748 0.085052
v 0.199118 0.013495 0.082266
v 0.193324 0.013630 0.081763
v 0.193269 0.013864 0.080887
v 0.192281 0.012478 0.086059
v 0.192418 0.015001 0.076643
v 0.189178 0.013495 0.082266
v 0.190661 0.012748 0.085052
v 0.190661 0.014746 0.077598
v 0.189178 0.013992 0.080410
vn 0 -0.9659258737367358 -0.25881886802534987
vn 0 0.9659258737367358 0.25881886802534987
usemtl material_0_0
f 1//1 2//1 3//1
f 2//1 1//1 4//1
f 3//2 2//2 1//2
f 4//2 1//2 2//2
f 5//1 3//1 2//1
f 2//2 3//2 5//2
f 6//1 3//1 5//1
f 5//2 3//2 6//2
f 7//1 5//1 2//1
f 2//2 5//2 7//2
f 8//1 3//1 6//1
f 6//2 3//2 8//2
f 6//1 5//1 9//1
f 9//2 5//2 6//2
f 5//1 7//1 10//1
f 10//2 7//2 5//2
f 11//1 3//1 8//1
f 8//2 3//2 11//2
f 12//1 3//1 11//1
f 11//2 3//2 12//2
f 13//1 11//1 8//1
f 8//2 11//2 13//2
f 12//1 14//1 3//1
f 3//2 14//2 12//2
f 15//1 12//1 11//1
f 11//2 12//2 15//2
f 11//1 13//1 16//1
f 16//2 13//2 11//2
f 14//1 12//1 17//1
f 17//2 12//2 14//2
f 12//1 15//1 18//1
f 18//2 15//2 12//2
