# SSTK version 0.8.0
# 488
mtllib original-488.mtl
o __1_33/__33/mesh572/mesh572-geometry#mesh572-geometry
v 0.142760 0.055415 -0.074183
v 0.142853 0.054583 -0.071078
v 0.142633 0.055123 -0.073094
v 0.143141 0.055644 -0.075037
v 0.143045 0.054086 -0.069221
v 0.143435 0.053193 -0.065890
v 0.142906 0.053812 -0.068200
v 0.143776 0.055810 -0.075655
v 0.142736 0.053116 -0.065604
v 0.144006 0.053300 -0.066290
v 0.142489 0.053617 -0.067470
v 0.144665 0.055912 -0.076038
v 0.141794 0.053499 -0.067033
v 0.144583 0.055180 -0.073306
v 0.140958 0.053055 -0.065375
v 0.144724 0.055413 -0.074176
v 0.144451 0.053438 -0.066805
v 0.140821 0.053460 -0.066887
v 0.144725 0.056368 -0.077739
v 0.144768 0.053607 -0.067434
v 0.140327 0.053055 -0.065375
v 0.144583 0.056616 -0.078664
v 0.145146 0.055580 -0.074798
v 0.144803 0.054612 -0.071184
v 0.140327 0.053460 -0.066887
v 0.143965 0.058478 -0.085613
v 0.145153 0.056207 -0.077139
v 0.145022 0.054036 -0.069035
v 0.143776 0.056010 -0.076404
v 0.144428 0.058344 -0.085113
v 0.145849 0.055680 -0.075171
v 0.143381 0.058584 -0.086008
v 0.144758 0.058183 -0.084512
v 0.145851 0.056119 -0.076810
v 0.143141 0.056170 -0.076999
v 0.144803 0.057199 -0.080839
v 0.146835 0.055713 -0.075295
v 0.143045 0.057696 -0.082696
v 0.145022 0.057781 -0.083014
v 0.146807 0.056090 -0.076701
v 0.142910 0.057972 -0.083727
v 0.142853 0.057206 -0.080865
v 0.142685 0.058659 -0.086290
v 0.142760 0.056391 -0.077823
v 0.142503 0.058162 -0.084433
v 0.142633 0.056673 -0.078876
v 0.141811 0.058271 -0.084841
v 0.140958 0.058720 -0.086515
v 0.140821 0.058307 -0.084977
v 0.140327 0.058307 -0.084977
v 0.140327 0.058720 -0.086515
vn 0 -0.9659258737367358 -0.25881886802534987
vn 0 0.9659258737367358 0.25881886802534987
usemtl material_0_0
f 1//1 2//1 3//1
f 2//1 1//1 4//1
f 3//2 2//2 1//2
f 4//2 1//2 2//2
f 2//1 4//1 5//1
f 5//2 4//2 2//2
f 6//1 5//1 4//1
f 4//2 5//2 6//2
f 6//1 7//1 5//1
f 5//2 7//2 6//2
f 6//1 4//1 8//1
f 8//2 4//2 6//2
f 9//1 7//1 6//1
f 6//2 7//2 9//2
f 6//1 8//1 10//1
f 10//2 8//2 6//2
f 9//1 11//1 7//1
f 7//2 11//2 9//2
f 10//1 8//1 12//1
f 12//2 8//2 10//2
f 9//1 13//1 11//1
f 11//2 13//2 9//2
f 10//1 12//1 14//1
f 14//2 12//2 10//2
f 15//1 13//1 9//1
f 9//2 13//2 15//2
f 14//1 12//1 16//1
f 16//2 12//2 14//2
f 10//1 14//1 17//1
f 17//2 14//2 10//2
f 15//1 18//1 13//1
f 13//2 18//2 15//2
f 12//1 19//1 16//1
f 16//2 19//2 12//2
f 14//1 20//1 17//1
f 17//2 20//2 14//2
f 21//1 18//1 15//1
f 15//2 18//2 21//2
f 12//1 22//1 19//1
f 19//2 22//2 12//2
f 16//1 19//1 23//1
f 23//2 19//2 16//2
f 20//1 14//1 24//1
f 24//2 14//2 20//2
f 18//1 21//1 25//1
f 25//2 21//2 18//2
f 12//1 26//1 22//1
f 22//2 26//2 12//2
f 23//1 19//1 27//1
f 27//2 19//2 23//2
f 20//1 24//1 28//1
f 28//2 24//2 20//2
f 29//1 26//1 12//1
f 12//2 26//2 29//2
f 22//1 26//1 30//1
f 30//2 26//2 22//2
f 23//1 27//1 31//1
f 31//2 27//2 23//2
f 29//1 32//1 26//1
f 26//2 32//2 29//2
f 33//1 22//1 30//1
f 30//2 22//2 33//2
f 31//1 27//1 34//1
f 34//2 27//2 31//2
f 35//1 32//1 29//1
f 29//2 32//2 35//2
f 22//1 33//1 36//1
f 36//2 33//2 22//2
f 31//1 34//1 37//1
f 37//2 34//2 31//2
f 38//1 32//1 35//1
f 35//2 32//2 38//2
f 36//1 33//1 39//1
f 39//2 33//2 36//2
f 37//1 34//1 40//1
f 40//2 34//2 37//2
f 41//1 32//1 38//1
f 38//2 32//2 41//2
f 35//1 42//1 38//1
f 38//2 42//2 35//2
f 41//1 43//1 32//1
f 32//2 43//2 41//2
f 44//1 42//1 35//1
f 35//2 42//2 44//2
f 45//1 43//1 41//1
f 41//2 43//2 45//2
f 42//1 44//1 46//1
f 46//2 44//2 42//2
f 47//1 43//1 45//1
f 45//2 43//2 47//2
f 47//1 48//1 43//1
f 43//2 48//2 47//2
f 49//1 48//1 47//1
f 47//2 48//2 49//2
f 50//1 48//1 49//1
f 49//2 48//2 50//2
f 48//1 50//1 51//1
f 51//2 50//2 48//2
