mtllib new-4.mtl
v -0.009219 -0.606312 0.026195
v 0.060989 -0.605519 0.077171
v -0.009301 -0.690452 0.026031
v 0.091566 -0.663295 -0.112368
v 0.155951 -0.627037 -0.201010
v 0.231391 -0.667778 -0.304821
v 0.261782 -0.652118 -0.346651
v 0.235290 -0.628830 -0.162822
v 0.061149 -0.690456 0.077166
v 0.341476 -0.656237 -0.312607
v 0.229928 -0.658865 -0.155419
v 0.310421 -0.658787 -0.363930
v 0.331804 -0.675967 -0.295639
v 0.299516 -0.681417 -0.365866
vn 0.808611 -0.000471 0.588343
vn 0.808323 -0.001933 0.588736
vn -0.808611 0.000471 -0.588343
vn -0.808323 0.001933 -0.588736
vn 0.808897 0.000992 0.587950
vn -0.808897 -0.000992 -0.587950
vn 0.809021 0.000356 0.587780
vn -0.809021 -0.000356 -0.587780
vn 0.043548 0.997109 -0.062261
vn 0.054860 0.995313 -0.079645
vn 0.035857 0.997248 -0.064896
vn -0.035857 -0.997248 0.064896
vn -0.054860 -0.995313 0.079645
vn -0.043548 -0.997109 0.062261
vn 0.808988 0.000181 0.587825
vn -0.808988 -0.000181 -0.587825
vn 0.075777 0.992584 -0.095048
vn -0.075777 -0.992584 0.095048
vn 0.091094 0.989621 -0.111138
vn -0.091094 -0.989621 0.111138
vn 0.809188 0.001487 0.587548
vn 0.809262 0.000889 0.587448
vn 0.811366 -0.000390 0.584538
vn -0.811366 0.000390 -0.584538
vn -0.809262 -0.000889 -0.587448
vn -0.809188 -0.001487 -0.587548
vn 0.097927 0.989146 -0.109544
vn -0.097927 -0.989146 0.109544
vn 0.812793 0.032084 0.581669
vn -0.812793 -0.032084 -0.581669
vn 0.814202 0.047988 0.578596
vn -0.814202 -0.047988 -0.578596
vn 0.097287 0.989377 -0.108017
vn -0.097287 -0.989377 0.108017
vn 0.810750 0.098800 0.576995
vn -0.810750 -0.098800 -0.576995
vn -0.809195 0.349507 0.472279
vn 0.809195 -0.349507 -0.472279
vn 0.298945 -0.223414 0.927749
vn -0.298945 0.223414 -0.927749
usemtl material-0
f 1//1 3//2 4//1
f 4//3 3//4 1//3
f 1//1 4//1 5//5
f 5//6 4//3 1//3
f 5//7 4//7 6//7
f 6//8 4//8 5//8
f 2//9 5//10 1//11
f 1//12 5//13 2//14
f 5//15 6//15 7//15
f 7//16 6//16 5//16
f 2//9 8//17 5//10
f 5//13 8//18 2//14
f 8//17 7//19 5//10
f 5//13 7//20 8//18
f 2//21 9//22 8//23
f 8//24 9//25 2//26
f 8//17 10//27 7//19
f 7//20 10//28 8//18
f 8//23 9//22 11//29
f 11//30 9//25 8//24
f 8//23 11//29 10//31
f 10//32 11//30 8//24
f 10//27 12//33 7//19
f 7//20 12//34 10//28
f 10//31 11//29 13//35
f 13//36 11//30 10//32
f 10//37 12//37 14//37
f 14//38 12//38 10//38
f 12//39 7//39 14//39
f 14//40 7//40 12//40