# SSTK version 0.8.0
# 27
mtllib original-27.mtl
o mesh27/mesh27-geometry#mesh27-geometry
v 0.431825 -0.040188 0.317472
v 0.428501 -0.075418 0.221326
v 0.435694 -0.078911 0.400536
v 0.417765 -0.006699 -0.017033
v 0.420036 -0.085348 0.042390
v 0.415647 -0.062583 -0.022142
v 0.370203 -0.002873 -0.120746
v 0.369045 -0.082307 -0.120884
v 0.263015 -0.036958 -0.187233
v 0.253186 -0.121447 -0.191164
v 0.074540 -0.089728 -0.239287
v 0.074539 -0.155292 -0.239039
vn -0.999080074806623 -0.01518000113661022 0.040107003003032014
vn -0.9990705311308149 -0.007922996281695141 0.04237098011507066
vn -0.9991032706316355 -0.014391003898156512 0.0398190107859561
vn 0.9991032706316355 0.014391003898156512 -0.0398190107859561
vn 0.9990705311308149 0.007922996281695141 -0.04237098011507066
vn 0.999080074806623 0.01518000113661022 -0.040107003003032014
vn -0.9890356508210252 0.004447998429634431 0.1476099478863171
vn 0.9890356508210252 -0.004447998429634431 -0.1476099478863171
vn -0.9682367976690297 0.21204195568991518 0.13249797231210034
vn 0.9682367976690297 -0.21204195568991518 -0.13249797231210034
vn -0.9383129421539473 0.1594149901722256 0.30684798108312944
vn 0.9383129421539473 -0.1594149901722256 -0.30684798108312944
vn -0.8109392572275403 0.005206001651328368 0.5851071855942734
vn 0.8109392572275403 -0.005206001651328368 -0.5851071855942734
vn -0.7443229515710009 0.16602198919786265 0.6468539579127721
vn 0.7443229515710009 -0.16602198919786265 -0.6468539579127721
vn -0.44238310937083203 0.0044320010957281985 0.8968152217205514
vn 0.44238310937083203 -0.0044320010957281985 -0.8968152217205514
vn -0.35183004127424 0.0035650004182209184 0.9360571098116742
vn 0.35183004127424 -0.0035650004182209184 -0.9360571098116742
vn -0.2609828836974405 -0.005355997613191246 0.9653285698178292
vn 0.2609828836974405 0.005355997613191246 -0.9653285698178292
vn -0.25949301996772917 0.0036530002810947295 0.965738074312582
vn 0.25949301996772917 -0.0036530002810947295 -0.965738074312582
usemtl material_0_0
f 1//1 2//2 3//3
f 3//4 2//5 1//6
f 4//7 2//2 1//1
f 1//6 2//5 4//8
f 4//7 5//9 2//2
f 2//5 5//10 4//8
f 4//7 6//11 5//9
f 5//10 6//12 4//8
f 7//13 6//11 4//7
f 4//8 6//12 7//14
f 6//11 8//15 5//9
f 5//10 8//16 6//12
f 7//13 8//15 6//11
f 6//12 8//16 7//14
f 7//13 9//17 8//15
f 8//16 9//18 7//14
f 8//15 9//17 10//19
f 10//20 9//18 8//16
f 9//17 11//21 10//19
f 10//20 11//22 9//18
f 10//19 11//21 12//23
f 12//24 11//22 10//20
