# SSTK version 0.8.0
# 2
mtllib original-2.mtl
o mesh2/mesh2-geometry#mesh2-geometry
v 0.015222 -0.714849 0.607399
v -0.034236 -0.712884 0.609201
v -0.032351 -0.687772 0.599604
v 0.013999 -0.690904 0.654629
v -0.033113 -0.690315 0.651062
v 0.013853 -0.687772 0.599604
v -0.002764 -0.706268 0.688122
vn -0.024066997454361617 -0.3153689666424801 -0.9486638996569786
vn -0.048080018261467516 -0.3534041342278633 -0.9342343548353546
vn 0.024066997454361617 0.3153689666424801 0.9486638996569786
vn 0.048080018261467516 0.3534041342278633 0.9342343548353546
vn -0.032973004544587105 -0.8855041220468279 0.46346006387754646
vn -0.01898100497291956 -0.891955233687396 0.45172511834951196
vn 0.01898100497291956 0.891955233687396 -0.45172511834951196
vn 0.032973004544587105 0.8855041220468279 -0.46346006387754646
vn 0.9974434292408952 -0.07056303036617159 0.011290004858553028
vn -0.9974434292408952 0.07056303036617159 -0.011290004858553028
vn 0 -0.2766310577139586 -0.9609762004899272
vn 0 0.2766310577139586 0.9609762004899272
vn -0.04695197683791473 -0.8787205665145099 0.4750217656649329
vn 0.04695197683791473 0.8787205665145099 -0.4750217656649329
vn -0.9987219103702055 -0.050541995464134085 -0.00022899997944851228
vn 0.9987219103702055 0.050541995464134085 0.00022899997944851228
vn 0.004090998436768431 0.9985816184270577 0.053084979715436846
vn 0 0.9987810028555151 0.04936100014112311
vn 0 -0.9987810028555151 -0.04936100014112311
vn -0.004090998436768431 -0.9985816184270577 -0.053084979715436846
vn 0.008182996619371578 0.9983515875525912 0.056807976531010704
vn -0.008182996619371578 -0.9983515875525912 -0.056807976531010704
vn -0.01953899892557002 0.9124309498263359 0.4087639775224783
vn 0.01953899892557002 -0.9124309498263359 -0.4087639775224783
usemtl material_0_0
f 1//1 2//2 3//1
f 3//3 2//4 1//3
f 4//5 2//5 1//6
f 1//7 2//8 4//8
f 3//9 5//9 2//9
f 2//10 5//10 3//10
f 1//1 3//1 6//11
f 6//12 3//3 1//3
f 4//5 5//13 2//5
f 2//8 5//14 4//8
f 6//15 1//15 4//15
f 4//16 1//16 6//16
f 6//16 4//16 1//16
f 1//15 4//15 6//15
f 5//17 6//17 3//18
f 3//19 6//20 5//20
f 4//21 6//17 5//17
f 5//20 6//20 4//22
f 7//23 4//23 5//23
f 5//24 4//24 7//24
f 7//24 5//24 4//24
f 4//23 5//23 7//23
