# SSTK version 0.8.0
# 69
mtllib original-69.mtl
o mesh66/mesh66-geometry#mesh66-geometry
v -0.348138 -0.684509 -0.347944
v -0.348192 -0.707264 -0.348076
v -0.353596 -0.707189 -0.358709
v -0.340633 -0.682243 -0.341372
v -0.353175 -0.686879 -0.357126
v -0.341177 -0.707319 -0.341550
v -0.354275 -0.687928 -0.362119
v -0.330140 -0.680186 -0.338430
v -0.354461 -0.707129 -0.368696
v -0.322324 -0.707377 -0.339336
v -0.354360 -0.688901 -0.367520
v -0.320195 -0.679025 -0.340082
v -0.351559 -0.690220 -0.377236
v -0.311412 -0.678778 -0.345913
v -0.345850 -0.707060 -0.384120
v -0.307382 -0.707344 -0.351276
v -0.346067 -0.690588 -0.383824
v -0.305922 -0.679532 -0.354664
v -0.343972 -0.690543 -0.385292
v -0.305376 -0.707239 -0.370154
v -0.334169 -0.689715 -0.388695
v -0.304575 -0.681224 -0.365283
v -0.328909 -0.707072 -0.389113
v -0.307781 -0.683428 -0.375039
v -0.324447 -0.688148 -0.387874
v -0.310134 -0.684353 -0.378309
v -0.323044 -0.687865 -0.387437
v -0.319362 -0.707113 -0.386063
v -0.314443 -0.685757 -0.382660
vn 0.8202177011485555 0.007747002093465015 -0.5719990443008998
vn 0.7548984136040152 -0.0021309993516530107 -0.6558382757813883
vn 0.949240649609102 0.009230995759069249 -0.3144152951861372
vn -0.949240649609102 -0.009230995759069249 0.3144152951861372
vn -0.7548984136040152 0.0021309993516530107 0.6558382757813883
vn -0.8202177011485555 -0.007747002093465015 0.5719990443008998
vn 0.5493029177132948 -0.0019780003264243053 -0.8356209619835838
vn -0.5493029177132948 0.0019780003264243053 0.8356209619835838
vn 0.9354727775429337 0.008111998708764646 -0.35330564381716023
vn -0.9354727775429337 -0.008111998708764646 0.35330564381716023
vn 0.36922709101489914 0.020046009643646633 -0.929122980427264
vn -0.36922709101489914 -0.020046009643646633 0.929122980427264
vn 0.9944083757057558 0.003893998902406466 -0.10553112857725085
vn -0.9944083757057558 -0.003893998902406466 0.10553112857725085
vn 0.07597700619850078 0.018222997380353417 -0.9969430359331413
vn -0.07597700619850078 -0.018222997380353417 0.9969430359331413
vn 0.9849972553310246 0.0226300088324941 0.17107977580821782
vn -0.9849972553310246 -0.0226300088324941 -0.17107977580821782
vn -0.32210345181039307 0.03448800251220988 -0.9460760772868891
vn 0.32210345181039307 -0.03448800251220988 0.9460760772868891
vn 0.9908885483267036 -0.014171994806836485 0.13393669907158623
vn -0.9908885483267036 0.014171994806836485 -0.13393669907158623
vn -0.3660512020553284 0.0029959989550543856 -0.9305898889758637
vn 0.3660512020553284 -0.0029959989550543856 0.9305898889758637
vn 0.8791465083559168 0.0241200111518293 0.47594079664138417
vn -0.8791465083559168 -0.0241200111518293 -0.47594079664138417
vn -0.6866060163331597 0.01969099908946871 -0.7267629894882975
vn 0.6866060163331597 -0.01969099908946871 0.7267629894882975
vn 0.5906210322469726 0.037711995942924646 0.8060673679225088
vn -0.5906210322469726 -0.037711995942924646 -0.8060673679225088
vn -0.8668591330747418 0.027349994328637516 -0.4978023917330351
vn 0.8668591330747418 -0.027349994328637516 0.4978023917330351
vn 0.6770076594121255 -0.004337000312363967 0.7359631916920887
vn -0.6770076594121255 0.004337000312363967 -0.7359631916920887
vn -0.9646404443532509 0.025519005027104212 -0.2623310761240253
vn 0.9646404443532509 -0.025519005027104212 0.2623310761240253
vn 0.4543501007177781 0.01155899538018813 0.8907482111144235
vn -0.4543501007177781 -0.01155899538018813 -0.8907482111144235
vn -0.9591142100742063 0.03832200843825805 0.28041283084586055
vn 0.9591142100742063 -0.03832200843825805 -0.28041283084586055
vn 0.18026451085865375 0.015379999163289394 0.9834979215792108
vn -0.18026451085865375 -0.015379999163289394 -0.9834979215792108
vn -0.9954407088007535 0.012946001466691429 0.09449971591638566
vn 0.9954407088007535 -0.012946001466691429 -0.09449971591638566
vn -0.102412228766481 0.008519999852901985 0.9947055569371213
vn 0.102412228766481 -0.008519999852901985 -0.9947055569371213
vn -0.8916630445437244 0.002821000166362772 0.4526909066383793
vn 0.8916630445437244 -0.002821000166362772 -0.4526909066383793
vn -0.18893335065358666 -0.019730004366438094 0.9817916866313898
vn 0.18893335065358666 0.019730004366438094 -0.9817916866313898
vn -0.7625046852272194 0.05678700181451496 0.6444857185628377
vn 0.7625046852272194 -0.05678700181451496 -0.6444857185628377
vn -0.3625984995630987 -0.003806999379706803 0.9319376775677182
vn 0.3625984995630987 0.003806999379706803 -0.9319376775677182
vn -0.5772984089053939 0.029401985406430905 0.8160037195561433
vn 0.5772984089053939 -0.029401985406430905 -0.8160037195561433
vn -0.6065084115094653 0.01303800423804292 0.7949701612096858
vn 0.6065084115094653 -0.01303800423804292 -0.7949701612096858
usemtl material_0_0
f 1//1 2//2 3//3
f 3//4 2//5 1//6
f 4//7 2//2 1//1
f 1//6 2//5 4//8
f 1//1 3//3 5//9
f 5//10 3//4 1//6
f 4//7 6//11 2//2
f 2//5 6//12 4//8
f 5//9 3//3 7//13
f 7//14 3//4 5//10
f 8//15 6//11 4//7
f 4//8 6//12 8//16
f 3//3 9//17 7//13
f 7//14 9//18 3//4
f 8//15 10//19 6//11
f 6//12 10//20 8//16
f 7//13 9//17 11//21
f 11//22 9//18 7//14
f 12//23 10//19 8//15
f 8//16 10//20 12//24
f 11//21 9//17 13//25
f 13//26 9//18 11//22
f 14//27 10//19 12//23
f 12//24 10//20 14//28
f 13//25 9//17 15//29
f 15//30 9//18 13//26
f 14//27 16//31 10//19
f 10//20 16//32 14//28
f 13//25 15//29 17//33
f 17//34 15//30 13//26
f 14//27 18//35 16//31
f 16//32 18//36 14//28
f 19//37 17//33 15//29
f 15//30 17//34 19//38
f 16//31 18//35 20//39
f 20//40 18//36 16//32
f 21//41 19//37 15//29
f 15//30 19//38 21//42
f 18//35 22//43 20//39
f 20//40 22//44 18//36
f 21//41 15//29 23//45
f 23//46 15//30 21//42
f 22//43 24//47 20//39
f 20//40 24//48 22//44
f 25//49 21//41 23//45
f 23//46 21//42 25//50
f 20//39 24//47 26//51
f 26//52 24//48 20//40
f 27//53 25//49 23//45
f 23//46 25//50 27//54
f 20//39 26//51 28//55
f 28//56 26//52 20//40
f 27//53 23//45 28//55
f 28//56 23//46 27//54
f 26//51 29//57 28//55
f 28//56 29//58 26//52
f 29//57 27//53 28//55
f 28//56 27//54 29//58
