# SSTK version 0.8.0
# 45
mtllib original-45.mtl
o mesh42/mesh42-geometry#mesh42-geometry
v 0.290421 -0.795705 -0.318610
v 0.273848 -0.776975 -0.314619
v 0.280488 -0.795644 -0.325045
v 0.283781 -0.777036 -0.308184
v 0.274634 -0.786808 -0.320280
v 0.290292 -0.807853 -0.340294
v 0.289045 -0.788279 -0.312063
v 0.271677 -0.755868 -0.311066
v 0.271802 -0.776685 -0.315811
v 0.278612 -0.795836 -0.326505
v 0.300224 -0.807914 -0.333858
v 0.283517 -0.803158 -0.334146
v 0.293073 -0.796955 -0.318362
v 0.286049 -0.778264 -0.307343
v 0.281610 -0.755930 -0.304631
v 0.270179 -0.766156 -0.313207
v 0.302330 -0.812289 -0.358917
v 0.297661 -0.803518 -0.325506
v 0.289019 -0.808376 -0.342688
v 0.284196 -0.767342 -0.304378
v 0.284118 -0.733755 -0.308292
v 0.269690 -0.755856 -0.312354
v 0.312262 -0.812351 -0.352481
v 0.294743 -0.811369 -0.351551
v 0.302854 -0.808381 -0.333568
v 0.283596 -0.755942 -0.303344
v 0.274185 -0.733694 -0.314728
v 0.284173 -0.745268 -0.304132
v 0.270229 -0.745550 -0.313087
v 0.313824 -0.808127 -0.376619
v 0.308452 -0.811392 -0.342236
v 0.300343 -0.812277 -0.360204
v 0.290836 -0.715628 -0.318488
v 0.285847 -0.734946 -0.306618
v 0.323757 -0.808189 -0.370184
v 0.305948 -0.811295 -0.368845
v 0.314252 -0.812401 -0.351199
v 0.280903 -0.715566 -0.324923
v 0.288532 -0.725354 -0.310671
v 0.271902 -0.734999 -0.315569
v 0.324029 -0.795767 -0.392252
v 0.320445 -0.811160 -0.360746
v 0.311686 -0.808227 -0.377673
v 0.291107 -0.703206 -0.340556
v 0.274783 -0.724839 -0.319920
v 0.292141 -0.716868 -0.316161
v 0.333962 -0.795828 -0.385817
v 0.317213 -0.802937 -0.386154
v 0.326399 -0.807654 -0.369903
v 0.301040 -0.703267 -0.334121
v 0.283745 -0.708372 -0.333595
v 0.278804 -0.715759 -0.326040
v 0.296897 -0.709407 -0.323431
v 0.340679 -0.777700 -0.396013
v 0.331875 -0.802074 -0.378301
v 0.322154 -0.795550 -0.393710
v 0.302602 -0.699044 -0.358259
v 0.289272 -0.703081 -0.342077
v 0.330746 -0.777639 -0.402448
v 0.340237 -0.786126 -0.391058
v 0.336631 -0.794612 -0.385572
v 0.326175 -0.786470 -0.399830
v 0.302370 -0.703829 -0.331826
v 0.312535 -0.699105 -0.351824
v 0.295011 -0.700013 -0.350904
v 0.343188 -0.755526 -0.399674
v 0.342921 -0.776533 -0.395109
v 0.308322 -0.700323 -0.340980
v 0.314640 -0.703480 -0.376882
v 0.300615 -0.699031 -0.359546
v 0.329056 -0.776309 -0.404181
v 0.333255 -0.755465 -0.406109
v 0.344600 -0.766209 -0.397602
v 0.314516 -0.699081 -0.350527
v 0.324573 -0.703542 -0.370446
v 0.306216 -0.699940 -0.368198
v 0.330729 -0.765759 -0.406663
v 0.331083 -0.734358 -0.402556
v 0.345193 -0.755529 -0.398415
v 0.320319 -0.700087 -0.359495
v 0.324443 -0.715689 -0.392130
v 0.311939 -0.702933 -0.377061
v 0.331268 -0.755452 -0.407396
v 0.341016 -0.734419 -0.396121
v 0.330779 -0.745152 -0.406543
v 0.344567 -0.744148 -0.397341
v 0.325921 -0.703094 -0.368169
v 0.334376 -0.715751 -0.385695
v 0.317441 -0.708151 -0.385604
v 0.329157 -0.734624 -0.403938
v 0.331116 -0.707955 -0.376235
v 0.322347 -0.715473 -0.393245
v 0.326324 -0.724501 -0.399470
v 0.342709 -0.733227 -0.394369
v 0.335702 -0.714520 -0.383376
v 0.339721 -0.723205 -0.389661
vn -0.5056824755648804 -0.7032158478673548 0.49977265352835337
vn -0.3805042165076293 -0.37414395602742473 0.8457143970561596
vn -0.26293187971445225 -0.6997379285847507 0.6642542118268782
vn -0.6170864416875638 -0.3813549559058358 0.6883115000429957
vn 0.26293187971445225 0.6997379285847507 -0.6642542118268782
vn 0.3805042165076293 0.37414395602742473 -0.8457143970561596
vn 0.5056824755648804 0.7032158478673548 -0.49977265352835337
vn 0.6170864416875638 0.3813549559058358 -0.6883115000429957
vn -0.33610616479554406 -0.5468490270025853 0.7668042694539173
vn 0.33610616479554406 0.5468490270025853 -0.7668042694539173
vn -0.08442249091966486 -0.9161135150934578 0.39192967543939294
vn 0.08442249091966486 0.9161135150934578 -0.39192967543939294
vn -0.5672057779771149 -0.5597750019941985 0.6040939931598152
vn 0.5672057779771149 0.5597750019941985 -0.6040939931598152
vn -0.4180010057249565 -0.0015669993104556147 0.908445212286402
vn 0.4180010057249565 0.0015669993104556147 -0.908445212286402
vn -0.5059857483445376 -0.373282045672181 0.7775853244827926
vn 0.5059857483445376 0.373282045672181 -0.7775853244827926
vn -0.38591591119044766 -0.7096147358569628 0.5895047380171761
vn 0.38591591119044766 0.7096147358569628 -0.5895047380171761
vn -0.32769094995488973 -0.9150393169303275 0.23520563298811845
vn 0.32769094995488973 0.9150393169303275 -0.23520563298811845
vn -0.1945640803660119 -0.8295634099259568 0.5234208321640884
vn 0.1945640803660119 0.8295634099259568 -0.5234208321640884
vn -0.3947260232604765 -0.7252738038664076 0.5640649572399633
vn 0.3947260232604765 0.7252738038664076 -0.5640649572399633
vn -0.5004184770865707 -0.3981119578140687 0.7688226172764471
vn 0.5004184770865707 0.3981119578140687 -0.7688226172764471
vn -0.658821345961333 -0.001139999956127821 0.7522985673958162
vn 0.658821345961333 0.001139999956127821 -0.7522985673958162
vn -0.4118643738138707 -0.1886890652184056 0.8914954706839023
vn 0.4118643738138707 0.1886890652184056 -0.8914954706839023
vn 0.11628870851866972 -0.9904281726712626 0.07435705111234146
vn -0.11628870851866972 0.9904281726712626 -0.07435705111234146
vn -0.42106048094245574 -0.8300865190507724 0.36560148013743
vn 0.42106048094245574 0.8300865190507724 -0.36560148013743
vn -0.19812321112908077 -0.9303436383931746 0.30855778666767064
vn 0.19812321112908077 0.9303436383931746 -0.30855778666767064
vn -0.6286207820946068 -0.1996939811746497 0.7516370308875048
vn 0.6286207820946068 0.1996939811746497 -0.7516370308875048
vn -0.617993108158134 0.3758239534667962 0.690536656716815
vn 0.617993108158134 -0.3758239534667962 -0.690536656716815
vn -0.5437571139436469 -0.0035669997138376305 0.8392350550046852
vn 0.5437571139436469 0.0035669997138376305 -0.8392350550046852
vn -0.12804422163849496 -0.9880749702495571 -0.08551333504973813
vn 0.12804422163849496 0.9880749702495571 0.08551333504973813
vn 0.03834440158292133 -0.9692642672160181 0.2430154052018992
vn -0.03834440158292133 0.9692642672160181 -0.2430154052018992
vn -0.19912954224333496 -0.9299252641220608 0.30917054929840204
vn 0.19912954224333496 0.9299252641220608 -0.30917054929840204
vn -0.5437559063005037 -0.006620000228889991 0.8392173079484758
vn 0.5437559063005037 0.006620000228889991 -0.8392173079484758
vn -0.37273420142998004 0.3740679731763346 0.8492010165609226
vn 0.37273420142998004 -0.3740679731763346 -0.8492010165609226
vn -0.664188268133108 0.18721497777739607 0.7237433913827137
vn 0.664188268133108 -0.18721497777739607 -0.7237433913827137
vn -0.3836602621426773 0.18222394806645534 0.9053172018710822
vn 0.3836602621426773 -0.18222394806645534 -0.9053172018710822
vn 0.31858797601238487 -0.9173915688494573 -0.23852549327957231
vn -0.31858797601238487 0.9173915688494573 0.23852549327957231
vn -0.2477171987411469 -0.9667637768820637 0.0632770823961273
vn 0.2477171987411469 0.9667637768820637 -0.0632770823961273
vn -0.0024049089649924946 -0.9999802428972304 -0.005807773072879845
vn 0.0024049089649924946 0.9999802428972304 0.005807773072879845
vn -0.5055295554554763 0.6954241585428178 0.510710395699953
vn 0.5055295554554763 -0.6954241585428178 -0.510710395699953
vn -0.5043019435696162 0.3669999311359557 0.7816588771696457
vn 0.5043019435696162 -0.3669999311359557 -0.7816588771696457
vn 0.0887783928744016 -0.9130941468702922 -0.3979666768836954
vn -0.0887783928744016 0.9130941468702922 0.3979666768836954
vn 0.21551710284869852 -0.9728510065249117 -0.08434036686646387
vn -0.21551710284869852 0.9728510065249117 0.08434036686646387
vn -0.014070957751622542 -0.9997447995061992 -0.01767325686627801
vn 0.014070957751622542 0.9997447995061992 0.01767325686627801
vn -0.25607129138991963 0.6996892502166171 0.6669800947983432
vn 0.25607129138991963 -0.6996892502166171 -0.6669800947983432
vn -0.5791104203167051 0.5363099465309734 0.6140055067607729
vn 0.5791104203167051 -0.5363099465309734 -0.6140055067607729
vn -0.498981119460936 0.36664905616019006 0.7852301013323121
vn 0.498981119460936 -0.36664905616019006 -0.7852301013323121
vn 0.4979810804978486 -0.7011827468047086 -0.5102524855888494
vn -0.4979810804978486 0.7011827468047086 0.5102524855888494
vn 0.005717939606999599 -0.9715086467279461 -0.23693512719621215
vn -0.005717939606999599 0.9715086467279461 0.23693512719621215
vn 0.19899656762106643 -0.927704239136208 -0.315856313477733
vn -0.19899656762106643 0.927704239136208 0.315856313477733
vn -0.07951526736860211 0.9159161495388941 0.39341444974625145
vn 0.07951526736860211 -0.9159161495388941 -0.39341444974625145
vn -0.34294454318251477 0.544418893106355 0.7655044801503041
vn 0.34294454318251477 -0.544418893106355 -0.7655044801503041
vn -0.4105189926327682 0.6889686841403121 0.5973242912871901
vn 0.4105189926327682 -0.6889686841403121 -0.5973242912871901
vn 0.253309808236037 -0.6937878778433914 -0.6741606052039718
vn -0.253309808236037 0.6937878778433914 0.6741606052039718
vn 0.40890777930077793 -0.8270019477442294 -0.3858266533750058
vn -0.40890777930077793 0.8270019477442294 0.3858266533750058
vn 0.22076569867869283 -0.9173992169819123 -0.33112110015503804
vn -0.22076569867869283 0.9173992169819123 0.33112110015503804
vn -0.3186561643768108 0.9145598854875067 0.24907521908399025
vn 0.3186561643768108 -0.9145598854875067 -0.24907521908399025
vn -0.17781780318612805 0.8255743921652664 0.5355443509841274
vn 0.17781780318612805 -0.8255743921652664 -0.5355443509841274
vn -0.3825199920674224 0.7045680387198898 0.5977142582230635
vn 0.3825199920674224 -0.7045680387198898 -0.5977142582230635
vn -0.4188704471767615 0.8171698576404428 0.39595577056767123
vn 0.4188704471767615 -0.8171698576404428 -0.39595577056767123
vn 0.3749171374081369 -0.3744718750333262 -0.8480612919398651
vn -0.3749171374081369 0.3744718750333262 0.8480612919398651
vn 0.1826423045853019 -0.8156501385540929 -0.5489595978325352
vn -0.1826423045853019 0.8156501385540929 0.5489595978325352
vn 0.38304514917654997 -0.7045738759354722 -0.5973709626702493
vn -0.38304514917654997 0.7045738759354722 0.5973709626702493
vn 0.12399108853705872 0.9889460689231151 0.08131348427482513
vn -0.12399108853705872 -0.9889460689231151 -0.08131348427482513
vn -0.1988701824739295 0.9277031035599671 0.31593923809490815
vn 0.1988701824739295 -0.9277031035599671 -0.31593923809490815
vn 0.619440812585536 -0.37558888878946095 -0.6893664238424068
vn -0.619440812585536 0.37558888878946095 0.6893664238424068
vn 0.3195935788041091 -0.5346087930994872 -0.7823384067830822
vn -0.3195935788041091 0.5346087930994872 0.7823384067830822
vn 0.37088701821818465 -0.6885768642887434 -0.6231410126797188
vn -0.37088701821818465 0.6885768642887434 0.6231410126797188
vn 0.5537472953127895 -0.5457188570134922 -0.6289315241213925
vn -0.5537472953127895 0.5457188570134922 0.6289315241213925
vn -0.20355412929106997 0.9172687132980771 0.34232122933444314
vn 0.20355412929106997 -0.9172687132980771 -0.34232122933444314
vn -0.12151256090469344 0.9896718615082983 -0.07605461249051625
vn 0.12151256090469344 -0.9896718615082983 0.07605461249051625
vn 0.019557917146223742 0.9714006423993188 0.2366395567589923
vn -0.019557917146223742 -0.9714006423993188 -0.2366395567589923
vn 0.4135376507425961 0.0030310004742532945 -0.9104819737119565
vn -0.4135376507425961 -0.0030310004742532945 0.9104819737119565
vn 0.5057615271815562 -0.36725982221525544 -0.7805930441718009
vn -0.5057615271815562 0.36725982221525544 0.7805930441718009
vn -0.20488096142691728 0.9728133583606733 0.1079720400835804
vn 0.20488096142691728 -0.9728133583606733 -0.1079720400835804
vn 0.3311446062946743 0.9145928407044642 -0.23208443604447876
vn -0.3311446062946743 -0.9145928407044642 0.23208443604447876
vn 0.5095295998804957 -0.36671286306834217 -0.7783965974397891
vn -0.5095295998804957 0.36671286306834217 0.7783965974397891
vn 0.6582779085012895 0.00008500001356402712 -0.7527749915839167
vn -0.6582779085012895 -0.00008500001356402712 0.7527749915839167
vn 0.3833708755819885 -0.18649903733925557 -0.904568892250353
vn -0.3833708755819885 0.18649903733925557 0.904568892250353
vn -0.012513020461526877 0.9999214451561272 0.000726523097742951
vn 0.012513020461526877 -0.9999214451561272 -0.000726523097742951
vn 0.08687114253245702 0.9163381756340967 -0.39086794761233706
vn -0.08687114253245702 -0.9163381756340967 0.39086794761233706
vn 0.24587468058484663 0.9675118680894408 -0.058876366679508685
vn -0.24587468058484663 -0.9675118680894408 0.058876366679508685
vn 0.6678592957741737 -0.1839780063703304 -0.7211907197267747
vn -0.6678592957741737 0.1839780063703304 0.7211907197267747
vn 0.6195843738791931 0.372667966086844 -0.6908210989086995
vn -0.6195843738791931 -0.372667966086844 0.6908210989086995
vn 0.5316104859929931 0.007536000692528524 -0.8469554296867432
vn -0.5316104859929931 -0.007536000692528524 0.8469554296867432
vn -0.03595169097769143 0.9684363345788323 -0.24665470152292002
vn 0.03595169097769143 -0.9684363345788323 0.24665470152292002
vn 0.5048506331580398 0.6982473052203726 -0.5075199887220346
vn -0.5048506331580398 -0.6982473052203726 0.5075199887220346
vn 0.20871016506539267 0.9302784951738858 -0.3016985058222649
vn -0.20871016506539267 -0.9302784951738858 0.3016985058222649
vn 0.5437510627905794 0.003566999320390557 -0.8392389756380264
vn -0.5437510627905794 -0.003566999320390557 0.8392389756380264
vn 0.38385668329649475 0.3829398436931784 -0.8402446803169055
vn -0.38385668329649475 -0.3829398436931784 0.8402446803169055
vn 0.646941012368493 0.1872400191242285 -0.7391944952135314
vn -0.646941012368493 -0.1872400191242285 0.7391944952135314
vn 0.4307855900543263 0.2025729861940439 -0.8794247896585435
vn -0.4307855900543263 -0.2025729861940439 0.8794247896585435
vn 0.2057508532948973 0.9300556389241045 -0.30440613475075967
vn -0.2057508532948973 -0.9300556389241045 0.30440613475075967
vn 0.25458078954324254 0.7043082023097429 -0.6626753185042864
vn -0.25458078954324254 -0.7043082023097429 0.6626753185042864
vn 0.4053831756890027 0.8282641576012907 -0.3868371312339647
vn -0.4053831756890027 -0.8282641576012907 0.3868371312339647
vn 0.5061186955789655 0.3732800889283927 -0.7774997371028866
vn -0.5061186955789655 -0.3732800889283927 0.7774997371028866
vn 0.16543846651916502 0.8311719979133428 -0.5308325759413502
vn -0.16543846651916502 -0.8311719979133428 0.5308325759413502
vn 0.38645498797333866 0.7096140295891317 -0.5891523328315027
vn -0.38645498797333866 -0.7096140295891317 0.5891523328315027
vn 0.5672113113876902 0.5454240950311574 -0.6170768872622759
vn -0.5672113113876902 -0.5454240950311574 0.6170768872622759
vn 0.5094882478136779 0.39776500410692367 -0.7630234117296578
vn -0.5094882478136779 -0.39776500410692367 0.7630234117296578
vn 0.3575618074402103 0.7247558696410724 -0.5889639066028604
vn -0.3575618074402103 -0.7247558696410724 0.5889639066028604
vn 0.32813011719990476 0.560723951076557 -0.7602100215568534
vn -0.32813011719990476 -0.560723951076557 0.7602100215568534
usemtl material_0_0
f 1//1 2//2 3//3
f 2//2 1//1 4//4
f 3//5 2//6 1//7
f 4//8 1//7 2//6
f 2//2 5//9 3//3
f 3//5 5//10 2//6
f 6//11 1//1 3//3
f 3//5 1//7 6//12
f 4//4 1//1 7//13
f 7//14 1//7 4//8
f 4//4 8//15 2//2
f 2//6 8//16 4//8
f 2//2 9//17 5//9
f 5//10 9//18 2//6
f 5//9 10//19 3//3
f 3//5 10//20 5//10
f 1//1 6//11 11//21
f 11//22 6//12 1//7
f 3//3 12//23 6//11
f 6//12 12//24 3//5
f 7//13 1//1 13//25
f 13//26 1//7 7//14
f 14//27 4//4 7//13
f 7//14 4//8 14//28
f 8//15 4//4 15//29
f 15//30 4//8 8//16
f 8//15 16//31 2//2
f 2//6 16//32 8//16
f 2//2 16//31 9//17
f 9//18 16//32 2//6
f 10//19 12//23 3//3
f 3//5 12//24 10//20
f 17//33 11//21 6//11
f 6//12 11//22 17//34
f 1//1 11//21 18//35
f 18//36 11//22 1//7
f 12//23 19//37 6//11
f 6//12 19//38 12//24
f 1//1 18//35 13//25
f 13//26 18//36 1//7
f 20//39 4//4 14//27
f 14//28 4//8 20//40
f 20//39 15//29 4//4
f 4//8 15//30 20//40
f 21//41 8//15 15//29
f 15//30 8//16 21//42
f 8//15 22//43 16//31
f 16//32 22//44 8//16
f 11//21 17//33 23//45
f 23//46 17//34 11//22
f 6//11 24//47 17//33
f 17//34 24//48 6//12
f 18//35 11//21 25//49
f 25//50 11//22 18//36
f 19//37 24//47 6//11
f 6//12 24//48 19//38
f 26//51 15//29 20//39
f 20//40 15//30 26//52
f 8//15 21//41 27//53
f 27//54 21//42 8//16
f 28//55 21//41 15//29
f 15//30 21//42 28//56
f 8//15 29//57 22//43
f 22//44 29//58 8//16
f 30//59 23//45 17//33
f 17//34 23//46 30//60
f 11//21 23//45 31//61
f 31//62 23//46 11//22
f 24//47 32//63 17//33
f 17//34 32//64 24//48
f 11//21 31//61 25//49
f 25//50 31//62 11//22
f 26//51 28//55 15//29
f 15//30 28//56 26//52
f 33//65 27//53 21//41
f 21//42 27//54 33//66
f 27//53 29//57 8//15
f 8//16 29//58 27//54
f 28//55 34//67 21//41
f 21//42 34//68 28//56
f 23//45 30//59 35//69
f 35//70 30//60 23//46
f 17//33 36//71 30//59
f 30//60 36//72 17//34
f 31//61 23//45 37//73
f 37//74 23//46 31//62
f 32//63 36//71 17//33
f 17//34 36//72 32//64
f 27//53 33//65 38//75
f 38//76 33//66 27//54
f 21//41 39//77 33//65
f 33//66 39//78 21//42
f 27//53 40//79 29//57
f 29//58 40//80 27//54
f 34//67 39//77 21//41
f 21//42 39//78 34//68
f 41//81 35//69 30//59
f 30//60 35//70 41//82
f 23//45 35//69 42//83
f 42//84 35//70 23//46
f 36//71 43//85 30//59
f 30//60 43//86 36//72
f 23//45 42//83 37//73
f 37//74 42//84 23//46
f 33//65 44//87 38//75
f 38//76 44//88 33//66
f 38//75 45//89 27//53
f 27//54 45//90 38//76
f 39//77 46//91 33//65
f 33//66 46//92 39//78
f 27//53 45//89 40//79
f 40//80 45//90 27//54
f 35//69 41//81 47//93
f 47//94 41//82 35//70
f 30//59 48//95 41//81
f 41//82 48//96 30//60
f 42//83 35//69 49//97
f 49//98 35//70 42//84
f 43//85 48//95 30//59
f 30//60 48//96 43//86
f 44//87 33//65 50//99
f 50//100 33//66 44//88
f 38//75 44//87 51//101
f 51//102 44//88 38//76
f 45//89 38//75 52//103
f 52//104 38//76 45//90
f 33//65 46//91 53//105
f 53//106 46//92 33//66
f 41//81 54//107 47//93
f 47//94 54//108 41//82
f 35//69 47//93 55//109
f 55//110 47//94 35//70
f 48//95 56//111 41//81
f 41//82 56//112 48//96
f 35//69 55//109 49//97
f 49//98 55//110 35//70
f 33//65 53//105 50//99
f 50//100 53//106 33//66
f 50//99 57//113 44//87
f 44//88 57//114 50//100
f 51//101 44//87 58//115
f 58//116 44//88 51//102
f 52//103 38//75 51//101
f 51//102 38//76 52//104
f 54//107 41//81 59//117
f 59//118 41//82 54//108
f 54//107 60//119 47//93
f 47//94 60//120 54//108
f 55//109 47//93 61//121
f 61//122 47//94 55//110
f 41//81 56//111 62//123
f 62//124 56//112 41//82
f 53//105 63//125 50//99
f 50//100 63//126 53//106
f 57//113 50//99 64//127
f 64//128 50//100 57//114
f 44//87 57//113 65//129
f 65//130 57//114 44//88
f 58//115 44//87 65//129
f 65//130 44//88 58//116
f 41//81 62//123 59//117
f 59//118 62//124 41//82
f 59//117 66//131 54//107
f 54//108 66//132 59//118
f 60//119 54//107 67//133
f 67//134 54//108 60//120
f 47//93 60//119 61//121
f 61//122 60//120 47//94
f 50//99 63//125 68//135
f 68//136 63//126 50//100
f 50//99 68//135 64//127
f 64//128 68//136 50//100
f 64//127 69//137 57//113
f 57//114 69//138 64//128
f 65//129 57//113 70//64
f 70//63 57//114 65//130
f 62//123 71//139 59//117
f 59//118 71//140 62//124
f 66//131 59//117 72//141
f 72//142 59//118 66//132
f 66//131 73//143 54//107
f 54//108 73//144 66//132
f 67//133 54//107 73//143
f 73//144 54//108 67//134
f 68//135 74//145 64//127
f 64//128 74//146 68//136
f 69//137 64//127 75//147
f 75//148 64//128 69//138
f 57//113 69//137 76//149
f 76//150 69//138 57//114
f 70//64 57//113 76//149
f 76//150 57//114 70//63
f 59//117 71//139 77//151
f 77//152 71//140 59//118
f 59//117 77//151 72//141
f 72//142 77//152 59//118
f 78//153 66//131 72//141
f 72//142 66//132 78//154
f 73//143 66//131 79//155
f 79//156 66//132 73//144
f 64//127 74//145 80//157
f 80//158 74//146 64//128
f 64//127 80//157 75//147
f 75//148 80//158 64//128
f 75//147 81//159 69//137
f 69//138 81//160 75//148
f 76//149 69//137 82//161
f 82//162 69//138 76//150
f 72//141 77//151 83//163
f 83//164 77//152 72//142
f 66//131 78//153 84//165
f 84//166 78//154 66//132
f 78//153 72//141 85//167
f 85//168 72//142 78//154
f 86//169 79//155 66//131
f 66//132 79//156 86//170
f 80//157 87//171 75//147
f 75//148 87//172 80//158
f 81//159 75//147 88//173
f 88//174 75//148 81//160
f 69//137 81//159 89//175
f 89//176 81//160 69//138
f 82//161 69//137 89//175
f 89//176 69//138 82//162
f 72//141 83//163 85//167
f 85//168 83//164 72//142
f 81//159 84//165 78//153
f 78//154 84//166 81//160
f 84//165 86//169 66//131
f 66//132 86//170 84//166
f 78//153 85//167 90//177
f 90//178 85//168 78//154
f 75//147 87//171 91//179
f 91//180 87//172 75//148
f 75//147 91//179 88//173
f 88//174 91//180 75//148
f 84//165 81//159 88//173
f 88//174 81//160 84//166
f 89//175 81//159 92//181
f 92//182 81//160 89//176
f 81//159 78//153 93//183
f 93//184 78//154 81//160
f 94//185 86//169 84//165
f 84//166 86//170 94//186
f 93//183 78//153 90//177
f 90//178 78//154 93//184
f 91//179 95//187 88//173
f 88//174 95//188 91//180
f 88//173 96//189 84//165
f 84//166 96//190 88//174
f 92//181 81//159 93//183
f 93//184 81//160 92//182
f 96//189 94//185 84//165
f 84//166 94//186 96//190
f 95//187 96//189 88//173
f 88//174 96//190 95//188
