# SSTK version 0.8.0
# 66
mtllib original-66.mtl
o mesh63/mesh63-geometry#mesh63-geometry
v 0.044722 -0.402117 0.058229
v 0.034566 -0.401965 0.036229
v 0.041744 -0.402040 0.046266
v 0.042754 -0.402188 0.071240
v 0.023362 -0.401898 0.029334
v 0.033887 -0.402095 0.058837
v 0.035842 -0.402236 0.082436
v 0.026695 -0.401990 0.043800
v 0.028340 -0.402172 0.074555
v 0.010362 -0.401855 0.027332
v 0.025803 -0.402254 0.089611
v 0.010977 -0.401920 0.038253
v 0.013303 -0.402178 0.081747
v -0.001607 -0.401844 0.030334
v 0.013844 -0.402243 0.092617
v -0.004060 -0.401925 0.045445
v -0.002415 -0.402108 0.076200
v -0.011645 -0.401861 0.037510
v 0.000841 -0.402200 0.090615
v -0.009607 -0.402003 0.061163
v -0.018539 -0.401910 0.048713
v -0.010366 -0.402133 0.083718
v -0.020540 -0.401980 0.061714
v -0.017540 -0.402057 0.073681
vn -0.0024049089649924946 -0.9999802428972304 -0.005807773072879845
vn 0.0024049089649924946 0.9999802428972304 0.005807773072879845
usemtl material_0_0
f 1//1 2//1 3//1
f 2//1 1//1 4//1
f 3//2 2//2 1//2
f 4//2 1//2 2//2
f 2//1 4//1 5//1
f 5//2 4//2 2//2
f 5//1 4//1 6//1
f 6//2 4//2 5//2
f 6//1 4//1 7//1
f 7//2 4//2 6//2
f 8//1 5//1 6//1
f 6//2 5//2 8//2
f 6//1 7//1 9//1
f 9//2 7//2 6//2
f 5//1 8//1 10//1
f 10//2 8//2 5//2
f 9//1 7//1 11//1
f 11//2 7//2 9//2
f 10//1 8//1 12//1
f 12//2 8//2 10//2
f 9//1 11//1 13//1
f 13//2 11//2 9//2
f 10//1 12//1 14//1
f 14//2 12//2 10//2
f 13//1 11//1 15//1
f 15//2 11//2 13//2
f 14//1 12//1 16//1
f 16//2 12//2 14//2
f 13//1 15//1 17//1
f 17//2 15//2 13//2
f 14//1 16//1 18//1
f 18//2 16//2 14//2
f 17//1 15//1 19//1
f 19//2 15//2 17//2
f 18//1 16//1 20//1
f 20//2 16//2 18//2
f 17//1 19//1 20//1
f 20//2 19//2 17//2
f 18//1 20//1 21//1
f 21//2 20//2 18//2
f 21//1 20//1 19//1
f 19//2 20//2 21//2
f 21//1 19//1 22//1
f 22//2 19//2 21//2
f 21//1 22//1 23//1
f 23//2 22//2 21//2
f 23//1 22//1 24//1
f 24//2 22//2 23//2
