# SSTK version 0.8.0
# 20
mtllib original-20.mtl
o mesh8/mesh8-geometry#mesh8-geometry
v 0.535598 0.056955 -0.013468
v 0.487991 0.056211 -0.015813
v 0.488928 0.056955 -0.013468
v 0.536535 0.056211 -0.015813
v 0.488928 0.052029 0.044089
v 0.535598 0.052029 0.044089
v 0.485728 0.054026 -0.016946
v 0.538798 0.054026 -0.016946
v 0.475964 0.037945 0.055895
v 0.548562 0.037945 0.055895
v 0.475964 0.044251 -0.017782
v 0.548562 0.044251 -0.017782
v 0.475964 0.025091 0.054795
v 0.548562 0.025091 0.054795
v 0.548562 0.031396 -0.018882
v 0.475964 0.031396 -0.018882
vn 0 0.9531465429186994 -0.30250895478007206
vn 0 0.8457538692469798 -0.5335732308256875
vn 0 -0.9531465429186994 0.30250895478007206
vn 0 -0.8457538692469798 0.5335732308256875
vn 0 0.6695250472466467 -0.7427894796706368
vn 0 -0.6695250472466467 0.7427894796706368
vn -0.7087973281284596 0.702842928385789 0.06015118998029285
vn -0.7087978257345087 0.7028424302125469 0.06015114734528563
vn 0.7087978257345087 -0.7028424302125469 -0.06015114734528563
vn 0.7087973281284596 -0.702842928385789 -0.06015118998029285
vn 0 0.9963577969398107 0.08527098262156234
vn 0 -0.9963577969398107 -0.08527098262156234
vn 0.7087978257345087 0.7028424302125469 0.06015114734528563
vn 0.7087983257287257 0.702841929647707 0.06015110450559902
vn -0.7087983257287257 -0.702841929647707 -0.06015110450559902
vn -0.7087978257345087 -0.7028424302125469 -0.06015114734528563
vn 0 0.46006922364782865 -0.8878830494226613
vn 0 -0.46006922364782865 0.8878830494226613
vn 0 0.6424026212250186 0.7663673220089864
vn 0 -0.6424026212250186 -0.7663673220089864
vn 0 0.08527098262156234 -0.9963577969398107
vn 0 -0.08527098262156234 0.9963577969398107
vn -1 0 0
vn 1 0 0
usemtl material_0_0
f 1//1 2//2 3//1
f 3//3 2//4 1//3
f 1//1 4//5 2//2
f 2//4 4//6 1//3
f 3//7 2//8 5//8
f 5//9 2//9 3//10
f 5//11 1//11 3//11
f 3//12 1//12 5//12
f 6//13 4//13 1//14
f 1//15 4//16 6//16
f 4//5 7//17 2//2
f 2//4 7//18 4//6
f 5//8 2//8 7//8
f 7//9 2//9 5//9
f 6//11 1//11 5//11
f 5//12 1//12 6//12
f 6//13 8//13 4//13
f 4//16 8//16 6//16
f 8//17 7//17 4//5
f 4//6 7//18 8//18
f 5//8 7//8 9//8
f 9//9 7//9 5//9
f 6//19 5//19 9//19
f 9//20 5//20 6//20
f 6//13 10//13 8//13
f 8//16 10//16 6//16
f 8//21 11//21 7//21
f 7//22 11//22 8//22
f 7//8 11//8 9//8
f 9//9 11//9 7//9
f 10//19 6//19 9//19
f 9//20 6//20 10//20
f 8//13 10//13 12//13
f 12//16 10//16 8//16
f 12//21 11//21 8//21
f 8//22 11//22 12//22
f 11//23 13//23 9//23
f 9//24 13//24 11//24
f 10//22 9//22 14//22
f 14//21 9//21 10//21
f 10//24 15//24 12//24
f 12//23 15//23 10//23
f 12//21 16//21 11//21
f 11//22 16//22 12//22
f 11//23 16//23 13//23
f 13//24 16//24 11//24
f 14//22 9//22 13//22
f 13//21 9//21 14//21
f 10//24 14//24 15//24
f 15//23 14//23 10//23
f 15//21 16//21 12//21
f 12//22 16//22 15//22
f 13//12 16//12 14//12
f 14//11 16//11 13//11
f 14//12 16//12 15//12
f 15//11 16//11 14//11
