# SSTK version 0.8.0
# 41
mtllib original-41.mtl
o mesh27/mesh27-geometry#mesh27-geometry
v 0.646020 0.055020 0.077652
v 0.586386 0.044127 0.062905
v 0.599350 0.055020 0.077652
v 0.658984 0.044127 0.062905
v 0.586386 0.033135 0.136029
v 0.599350 0.047882 0.125137
v 0.646020 0.047882 0.125137
v 0.586386 0.031307 0.060978
v 0.586386 0.020315 0.134102
v 0.658984 0.033135 0.136029
v 0.658984 0.031307 0.060978
v 0.658984 0.020315 0.134102
vn 0 0.8043639964064068 -0.5941368203411685
vn 0 -0.8043639964064068 0.5941368203411685
vn -0.7071066342373078 0.6992505536903048 0.105113609877069
vn 0.7071066342373078 -0.6992505536903048 -0.105113609877069
vn 0 0.9888894110171358 0.14865306178542817
vn 0 -0.9888894110171358 -0.14865306178542817
vn 0.7071066342373078 0.6992505536903048 0.105113609877069
vn -0.7071066342373078 -0.6992505536903048 -0.105113609877069
vn 0 0.14865306178542817 -0.9888894110171358
vn 0 -0.14865306178542817 0.9888894110171358
vn -1 0 0
vn 1 0 0
vn 0 0.5941368203411685 0.8043639964064068
vn 0 -0.5941368203411685 -0.8043639964064068
usemtl material_0_0
f 1//1 2//1 3//1
f 3//2 2//2 1//2
f 1//1 4//1 2//1
f 2//2 4//2 1//2
f 3//3 2//3 5//3
f 5//4 2//4 3//4
f 6//5 1//5 3//5
f 3//6 1//6 6//6
f 7//7 4//7 1//7
f 1//8 4//8 7//8
f 4//9 8//9 2//9
f 2//10 8//10 4//10
f 2//11 9//11 5//11
f 5//12 9//12 2//12
f 3//3 5//3 6//3
f 6//4 5//4 3//4
f 7//5 1//5 6//5
f 6//6 1//6 7//6
f 10//7 4//7 7//7
f 7//8 4//8 10//8
f 11//9 8//9 4//9
f 4//10 8//10 11//10
f 2//11 8//11 9//11
f 9//12 8//12 2//12
f 12//10 5//10 9//10
f 9//9 5//9 12//9
f 5//13 7//13 6//13
f 6//14 7//14 5//14
f 10//12 11//12 4//12
f 4//11 11//11 10//11
f 10//13 7//13 5//13
f 5//14 7//14 10//14
f 12//6 8//6 11//6
f 11//5 8//5 12//5
f 9//6 8//6 12//6
f 12//5 8//5 9//5
f 10//10 5//10 12//10
f 12//9 5//9 10//9
f 10//12 12//12 11//12
f 11//11 12//11 10//11
