# SSTK version 0.8.0
# 69
mtllib original-69.mtl
o mesh54/mesh54-geometry#mesh54-geometry
v -0.408488 0.054378 -0.000245
v -0.421452 0.033974 0.058208
v -0.408488 0.048452 0.046959
v -0.421452 0.043129 -0.014723
v -0.361818 0.048452 0.046959
v -0.361818 0.054378 -0.000245
v -0.421452 0.021111 0.056593
v -0.348854 0.033974 0.058208
v -0.348854 0.043129 -0.014723
v -0.421452 0.030266 -0.016338
v -0.348854 0.021111 0.056593
v -0.348854 0.030266 -0.016338
vn -0.707107796596547 0.701599502594979 0.08807214060560829
vn 0 0.6135282430212378 0.78967277717753
vn 0 0.9922129567504304 0.12455299457085961
vn 0 0.789672343347179 -0.6135288014042822
vn -1 0 0
vn 0 -0.12455299457085961 0.9922129567504304
vn 0.7071057965972095 0.7016014870203217 0.08807238971152576
vn 0 0.12455299457085961 -0.9922129567504304
vn 0 -0.9922129567504304 -0.12455299457085961
vn 0.707107796596547 -0.701599502594979 -0.08807214060560829
vn 0 -0.6135282430212378 -0.78967277717753
vn 0 -0.789672343347179 0.6135288014042822
vn 1 0 0
vn -0.7071057965972095 -0.7016014870203217 -0.08807238971152576
usemtl material_0_0
f 1//1 2//1 3//1
f 1//1 4//1 2//1
f 5//2 3//2 2//2
f 3//3 6//3 1//3
f 6//4 4//4 1//4
f 2//5 4//5 7//5
f 3//3 5//3 6//3
f 8//2 5//2 2//2
f 9//4 4//4 6//4
f 4//5 10//5 7//5
f 11//6 2//6 7//6
f 5//7 9//7 6//7
f 8//7 9//7 5//7
f 8//6 2//6 11//6
f 9//8 10//8 4//8
f 7//9 10//9 11//9
f 12//8 10//8 9//8
f 11//9 10//9 12//9
usemtl material_1_0
f 3//10 2//10 1//10
f 2//10 4//10 1//10
f 2//11 3//11 5//11
f 1//9 6//9 3//9
f 1//12 4//12 6//12
f 7//13 4//13 2//13
f 6//9 5//9 3//9
f 2//11 5//11 8//11
f 6//12 4//12 9//12
f 7//13 10//13 4//13
f 7//8 2//8 11//8
f 6//14 9//14 5//14
f 5//14 9//14 8//14
f 11//8 2//8 8//8
f 4//6 10//6 9//6
f 11//3 10//3 7//3
f 8//13 12//13 9//13
f 9//5 12//5 8//5
f 8//13 11//13 12//13
f 12//5 11//5 8//5
f 9//6 10//6 12//6
f 12//3 10//3 11//3
