# SSTK version 0.8.0
# 8
mtllib original-8.mtl
o mesh6/mesh6-geometry#mesh6-geometry
v -0.406641 -0.374065 -0.084963
v -0.403558 -0.319393 -0.116265
v -0.406641 -0.319393 -0.084962
v -0.403558 -0.374065 -0.116265
v -0.405917 -0.317046 -0.116265
v -0.415771 -0.374065 -0.054863
v -0.406641 -0.374065 -0.147567
v -0.406641 -0.319393 -0.147567
v -0.408954 -0.317046 -0.085423
v -0.415771 -0.319393 -0.054863
v -0.415771 -0.374065 -0.177667
v -0.408954 -0.317046 -0.147107
v -0.430599 -0.374065 -0.027123
v -0.430599 -0.374065 -0.205406
v -0.415771 -0.319393 -0.177667
v -0.417951 -0.317046 -0.176764
v -0.417951 -0.317046 -0.055766
v -0.430599 -0.319393 -0.027123
v -0.450553 -0.374065 -0.002809
v -0.450553 -0.374065 -0.229721
v -0.430599 -0.319393 -0.205406
v -0.432560 -0.317046 -0.204096
v -0.432560 -0.317046 -0.028434
v -0.450553 -0.319393 -0.002809
v -0.450553 -0.319393 -0.229721
v -0.474867 -0.319393 0.017145
v -0.474867 -0.374065 -0.249675
v -0.452221 -0.317046 -0.228053
v -0.452221 -0.317046 -0.004477
v -0.474867 -0.374065 0.017145
v -0.474867 -0.319393 -0.249675
v -0.502607 -0.319393 0.031972
v -0.476177 -0.317046 0.015184
v -0.502607 -0.374065 -0.264502
v -0.476177 -0.317046 -0.247714
v -0.502607 -0.374065 0.031972
v -0.502607 -0.319393 -0.264502
v -0.532706 -0.319393 0.041103
v -0.503509 -0.317046 0.029793
v -0.503509 -0.317046 -0.262323
v -0.532706 -0.374065 -0.273633
v -0.532706 -0.374065 0.041103
v -0.532706 -0.319393 -0.273633
v -0.564009 -0.374065 0.044186
v -0.533167 -0.317046 0.038789
v -0.533166 -0.317046 -0.271319
v -0.564009 -0.374065 -0.276716
v -0.564009 -0.319393 -0.276716
v -0.564009 -0.319393 0.044186
v -0.564009 -0.317046 0.041827
v -0.595311 -0.374065 0.041103
v -0.595311 -0.374065 -0.273633
v -0.564009 -0.317046 -0.274357
v -0.595311 -0.319393 -0.273633
v -0.594851 -0.317046 0.038789
v -0.595311 -0.319393 0.041103
v -0.594851 -0.317046 -0.271319
v -0.625411 -0.374065 0.031972
v -0.625410 -0.374065 -0.264502
v -0.625410 -0.319393 -0.264502
v -0.624508 -0.317046 -0.262323
v -0.624508 -0.317046 0.029793
v -0.625411 -0.319393 0.031972
v -0.653150 -0.374065 0.017145
v -0.653150 -0.374065 -0.249675
v -0.653150 -0.319393 -0.249675
v -0.651840 -0.317046 -0.247714
v -0.651840 -0.317046 0.015184
v -0.653150 -0.319393 0.017145
v -0.677464 -0.374065 -0.002809
v -0.677464 -0.374065 -0.229721
v -0.677464 -0.319393 -0.229721
v -0.675797 -0.317046 -0.228053
v -0.675797 -0.317046 -0.004477
v -0.677464 -0.319393 -0.002809
v -0.697419 -0.319393 -0.027123
v -0.697419 -0.374065 -0.205407
v -0.695457 -0.317046 -0.204096
v -0.695457 -0.317046 -0.028434
v -0.697419 -0.374065 -0.027123
v -0.697419 -0.319393 -0.205407
v -0.712246 -0.319393 -0.054863
v -0.710067 -0.317046 -0.055766
v -0.712246 -0.374065 -0.177667
v -0.710067 -0.317046 -0.176764
v -0.712246 -0.374065 -0.054863
v -0.712246 -0.319393 -0.177667
v -0.721376 -0.319393 -0.084963
v -0.719063 -0.317046 -0.085423
v -0.719063 -0.317046 -0.147107
v -0.721376 -0.374065 -0.084963
v -0.721376 -0.374065 -0.147567
v -0.721376 -0.319393 -0.147567
v -0.724459 -0.319393 -0.116265
v -0.722101 -0.317046 -0.116265
v -0.724459 -0.374065 -0.116265
vn 0.9807853313461202 0 0.19509006590875128
vn 1 0 0
vn 0.7053992238577738 0.7088102249402518 0.0000010000003175065386
vn 0.6918451526162146 0.708810156358576 0.13761703035735706
vn 0.9238792538372458 0 0.3826841051430464
vn 0 -1 -0.0000010000000002215446
vn 0.9807855607469484 0 -0.1950889126277918
vn 0.6918448526470938 0.7088108490335829 -0.1376149706900096
vn 0 1 0.0000010000000002215446
vn 0.6517029553730124 0.7088109514623996 0.26994498151484336
vn 0.8314690690111041 0 0.5555710461118432
vn 0.9238801073899822 0 -0.382682044482198
vn 0.6517038825023626 0.7088108722063731 -0.2699429513311797
vn 0.8314703015489732 0 -0.555569201488041
vn 0.5865178268529248 0.7088097907508748 0.39189988430646855
vn 0.7071067811865475 0 0.7071067811865475
vn 0.5865178708344094 0.7088108439025035 -0.3918979136944873
vn 0.7071077811851774 9.999996907066528e-7 -0.7071057811857964
vn 0.4987937238297131 0.7088086075494394 0.4987937238297133
vn 0.555569892830578 0 0.8314698396094834
vn 0.5555710461115654 0.0000010000000831831335 -0.8314690690106884
vn 0.4987930119084339 0.7088110169225089 -0.49879101190838604
vn 0.3918981435495731 0.7088112596326502 0.5865172148371898
vn 0.38268289803606875 -9.999997337602489e-7 0.9238797538368918
vn 0.38268410514285506 0.0000010000002749562556 -0.9238792538367837
vn 0.39189988430646844 0.708809790750875 -0.5865178268529246
vn 0.2699440389685844 0.7088121023227045 0.6517020940784178
vn 0.19509006590865377 -0.0000010000003380549495 0.9807853313456301
vn 0.19509198978791004 9.99999947872782e-7 -0.9807849486608131
vn 0.2699459548898751 0.7088078815525425 -0.6517058910947408
vn 0.13761595175171815 0.708810751490285 0.691844757438579
vn 0 -0.0000010000000002215446 1
vn 0.13761801375347618 0.708809070838028 -0.6918460691427535
vn 9.99999999999e-7 0.0000010000000002210446 -1
vn 0 0.7088102249406061 0.7053992238581267
vn 0.000001000000317349151 0.708810224940252 -0.7053992238577736
vn -0.19509006590865377 -0.0000010000003380549495 0.9807853313456301
vn -0.19508910396827864 0 -0.9807855226872256
vn -0.137616049295385 0.708810253902612 0.6918452478255849
vn -0.13761604696058952 0.7088112418772704 -0.6918442360873887
vn -0.38268289803606875 -9.999997337602489e-7 0.9238797538368918
vn -0.38268204448200666 0.0000010000001164426625 -0.9238801073895201
vn -0.26994292049885216 0.7088127912468669 -0.6517018080666768
vn -0.26994386304550055 0.7088116403884038 0.6517026693623191
vn -0.555569892830578 0 0.8314698396094834
vn -0.5555698928303002 9.999998072841791e-7 -0.8314698396090676
vn -0.39189692349584954 0.7088138616289157 -0.5865148855035077
vn -0.3918981435495731 0.7088112596326502 0.5865172148371898
vn -0.7071067811865475 0 0.7071067811865475
vn -0.7071067811865475 0 -0.7071067811865475
vn -0.4987911559455829 0.7088122216080494 -0.4987911559455827
vn -0.4987937238297131 0.7088086075494394 0.4987937238297133
vn -0.8314698396094834 0 0.555569892830578
vn -0.8314698396094834 0 -0.555569892830578
vn -0.5865187127050228 0.7088096528031441 -0.3918988080358618
vn -0.5865180567089674 0.7088100685330768 0.39189903789174024
vn -0.9238797538373538 0 0.38268289803626016
vn -0.6517029553730124 0.7088109514623996 0.26994498151484336
vn -0.9238792538372458 0 -0.3826841051430464
vn -0.6517058910947411 0.7088078815525425 -0.269945954889875
vn -0.9807853313461202 0 0.19509006590875128
vn -0.6918451526162146 0.708810156358576 0.13761703035735706
vn -0.9807851400041463 0 -0.19509102784866092
vn -0.6918461643529188 0.7088091683825997 -0.13761703269189318
vn -1 0 0
vn -0.7053992238581265 0.7088102249406063 0
vn -0.9807853313461202 0 -0.19509006590875128
vn -0.7053992238577738 -0.7088102249402518 -0.0000010000003175065386
vn -0.6918451526162146 -0.708810156358576 -0.13761703035735706
vn -0.9807855607469484 0 0.1950889126277918
vn -0.6918448526470938 -0.7088108490335829 0.1376149706900096
vn -0.6517029553730124 -0.7088109514623996 -0.26994498151484336
vn -0.8314690690111041 0 -0.5555710461118432
vn -0.9238801073899822 0 0.382682044482198
vn -0.6517038825023626 -0.7088108722063731 0.2699429513311797
vn -0.8314703015489732 0 0.555569201488041
vn -0.5865178268529248 -0.7088097907508748 -0.39189988430646855
vn -0.5865178708344094 -0.7088108439025035 0.3918979136944873
vn -0.7071077811851774 -9.999996907066528e-7 0.7071057811857964
vn -0.4987937238297131 -0.7088086075494394 -0.4987937238297133
vn -0.555569892830578 0 -0.8314698396094834
vn -0.5555710461115654 -0.0000010000000831831335 0.8314690690106884
vn -0.4987930119084339 -0.7088110169225089 0.49879101190838604
vn -0.3918981435495731 -0.7088112596326502 -0.5865172148371898
vn -0.38268289803606875 9.999997337602489e-7 -0.9238797538368918
vn -0.38268410514285506 -0.0000010000002749562556 0.9238792538367837
vn -0.39189988430646844 -0.708809790750875 0.5865178268529246
vn -0.2699440389685844 -0.7088121023227045 -0.6517020940784178
vn -0.19509006590865377 0.0000010000003380549495 -0.9807853313456301
vn -0.19509198978791004 -9.99999947872782e-7 0.9807849486608131
vn -0.2699459548898751 -0.7088078815525425 0.6517058910947408
vn -0.13761595175171815 -0.708810751490285 -0.691844757438579
vn 0 0.0000010000000002215446 -1
vn -0.13761801375347618 -0.708809070838028 0.6918460691427535
vn -9.99999999999e-7 -0.0000010000000002210446 1
vn 0 -0.7088102249406061 -0.7053992238581267
vn -0.000001000000317349151 -0.708810224940252 0.7053992238577736
vn 0.19509006590865377 0.0000010000003380549495 -0.9807853313456301
vn 0.19508910396827864 0 0.9807855226872256
vn 0.137616049295385 -0.708810253902612 -0.6918452478255849
vn 0.13761604696058952 -0.7088112418772704 0.6918442360873887
vn 0.38268289803606875 9.999997337602489e-7 -0.9238797538368918
vn 0.38268204448200666 -0.0000010000001164426625 0.9238801073895201
vn 0.26994292049885216 -0.7088127912468669 0.6517018080666768
vn 0.26994386304550055 -0.7088116403884038 -0.6517026693623191
vn 0.555569892830578 0 -0.8314698396094834
vn 0.5555698928303002 -9.999998072841791e-7 0.8314698396090676
vn 0.39189692349584954 -0.7088138616289157 0.5865148855035077
vn 0.3918981435495731 -0.7088112596326502 -0.5865172148371898
vn 0.7071067811865475 0 -0.7071067811865475
vn 0.4987911559455829 -0.7088122216080494 0.4987911559455827
vn 0.4987937238297131 -0.7088086075494394 -0.4987937238297133
vn 0.8314698396094834 0 -0.555569892830578
vn 0.8314698396094834 0 0.555569892830578
vn 0.5865187127050228 -0.7088096528031441 0.3918988080358618
vn 0.5865180567089674 -0.7088100685330768 -0.39189903789174024
vn 0.9238797538373538 0 -0.38268289803626016
vn 0.6517029553730124 -0.7088109514623996 -0.26994498151484336
vn 0.6517058910947411 -0.7088078815525425 0.269945954889875
vn 0.9807853313461202 0 -0.19509006590875128
vn 0.6918451526162146 -0.708810156358576 -0.13761703035735706
vn 0.9807851400041463 0 0.19509102784866092
vn 0.6918461643529188 -0.7088091683825997 0.13761703269189318
vn 0.7053992238581265 -0.7088102249406063 0
usemtl material_0_0
f 1//1 2//2 3//1
f 2//2 1//1 4//2
f 5//3 3//4 2//3
f 3//1 6//5 1//1
f 1//6 7//6 4//6
f 4//2 8//7 2//2
f 3//4 5//3 9//4
f 8//8 5//3 2//3
f 6//5 3//1 10//5
f 6//6 11//6 1//6
f 1//6 11//6 7//6
f 8//7 4//2 7//7
f 12//9 9//9 5//9
f 9//4 10//10 3//4
f 5//3 8//8 12//8
f 10//5 13//11 6//5
f 6//6 14//6 11//6
f 15//12 7//7 11//12
f 7//7 15//12 8//7
f 16//9 9//9 12//9
f 10//10 9//4 17//10
f 15//13 12//8 8//8
f 13//11 10//5 18//11
f 13//6 14//6 6//6
f 14//14 15//12 11//12
f 16//9 17//9 9//9
f 12//8 15//13 16//13
f 17//10 18//15 10//10
f 18//11 19//16 13//11
f 13//6 20//6 14//6
f 15//12 14//14 21//14
f 22//9 17//9 16//9
f 21//17 16//13 15//13
f 18//15 17//10 23//15
f 19//16 18//11 24//16
f 19//6 20//6 13//6
f 25//18 14//14 20//18
f 14//14 25//18 21//14
f 22//9 23//9 17//9
f 16//13 21//17 22//17
f 23//15 24//19 18//15
f 26//20 19//16 24//16
f 19//6 27//6 20//6
f 27//21 25//18 20//18
f 25//22 22//17 21//17
f 28//9 23//9 22//9
f 24//19 23//15 29//19
f 19//16 26//20 30//20
f 29//19 26//23 24//19
f 30//6 27//6 19//6
f 25//18 27//21 31//21
f 22//17 25//22 28//22
f 28//9 29//9 23//9
f 32//24 30//20 26//20
f 26//23 29//19 33//23
f 30//6 34//6 27//6
f 34//25 31//21 27//21
f 31//26 28//22 25//22
f 35//9 29//9 28//9
f 30//20 32//24 36//24
f 33//23 32//27 26//23
f 35//9 33//9 29//9
f 36//6 34//6 30//6
f 31//21 34//25 37//25
f 28//22 31//26 35//26
f 38//28 36//24 32//24
f 32//27 33//23 39//27
f 40//9 33//9 35//9
f 36//6 41//6 34//6
f 41//29 37//25 34//25
f 37//30 35//26 31//26
f 36//24 38//28 42//28
f 39//27 38//31 32//27
f 40//9 39//9 33//9
f 35//26 37//30 40//30
f 42//6 41//6 36//6
f 37//25 41//29 43//29
f 38//28 44//32 42//28
f 38//31 39//27 45//31
f 46//9 39//9 40//9
f 43//33 40//30 37//30
f 42//6 47//6 41//6
f 41//29 48//34 43//29
f 44//32 38//28 49//32
f 44//6 47//6 42//6
f 46//9 45//9 39//9
f 50//35 38//31 45//31
f 40//30 43//33 46//33
f 48//34 41//29 47//34
f 48//36 46//33 43//33
f 38//31 50//35 49//35
f 49//32 51//37 44//32
f 44//6 52//6 47//6
f 53//9 45//9 46//9
f 53//9 50//9 45//9
f 47//34 54//38 48//34
f 46//33 48//36 53//36
f 55//39 49//35 50//35
f 51//37 49//32 56//37
f 51//6 52//6 44//6
f 54//38 47//34 52//38
f 57//9 50//9 53//9
f 57//40 48//36 54//40
f 48//36 57//40 53//36
f 49//35 55//39 56//39
f 57//9 55//9 50//9
f 56//37 58//41 51//37
f 51//6 59//6 52//6
f 52//38 60//42 54//38
f 54//40 61//43 57//40
f 62//44 56//39 55//39
f 61//9 55//9 57//9
f 58//41 56//37 63//41
f 58//6 59//6 51//6
f 60//42 52//38 59//42
f 61//43 54//40 60//43
f 56//39 62//44 63//44
f 61//9 62//9 55//9
f 63//41 64//45 58//41
f 58//6 65//6 59//6
f 59//42 66//46 60//42
f 60//43 67//47 61//43
f 68//48 63//44 62//44
f 67//9 62//9 61//9
f 64//45 63//41 69//45
f 64//6 65//6 58//6
f 66//46 59//42 65//46
f 67//47 60//43 66//47
f 63//44 68//48 69//48
f 67//9 68//9 62//9
f 69//45 70//49 64//45
f 64//6 71//6 65//6
f 65//46 72//50 66//46
f 66//47 73//51 67//47
f 74//52 69//48 68//48
f 73//9 68//9 67//9
f 70//49 69//45 75//49
f 70//6 71//6 64//6
f 72//50 65//46 71//50
f 73//51 66//47 72//51
f 69//48 74//52 75//52
f 73//9 74//9 68//9
f 76//53 70//49 75//49
f 70//6 77//6 71//6
f 77//54 72//50 71//50
f 72//51 78//55 73//51
f 79//56 75//52 74//52
f 78//9 74//9 73//9
f 70//49 76//53 80//53
f 75//52 79//56 76//56
f 80//6 77//6 70//6
f 72//50 77//54 81//54
f 78//55 72//51 81//55
f 78//9 79//9 74//9
f 82//57 80//53 76//53
f 83//58 76//56 79//56
f 80//6 84//6 77//6
f 84//59 81//54 77//54
f 81//55 85//60 78//55
f 85//9 79//9 78//9
f 80//53 82//57 86//57
f 76//56 83//58 82//58
f 85//9 83//9 79//9
f 86//6 84//6 80//6
f 81//54 84//59 87//59
f 85//60 81//55 87//60
f 88//61 86//57 82//57
f 89//62 82//58 83//58
f 90//9 83//9 85//9
f 91//6 84//6 86//6
f 92//63 87//59 84//59
f 87//60 90//64 85//60
f 86//57 88//61 91//61
f 82//58 89//62 88//62
f 90//9 89//9 83//9
f 91//6 92//6 84//6
f 87//59 92//63 93//63
f 90//64 87//60 93//64
f 94//65 91//61 88//61
f 95//66 88//62 89//62
f 89//9 90//9 95//9
f 92//6 91//6 96//6
f 96//65 93//63 92//63
f 93//64 95//66 90//64
f 91//61 94//65 96//65
f 88//62 95//66 94//66
f 93//63 96//65 94//65
f 95//66 93//64 94//66
usemtl material_1_0
f 3//67 2//65 1//67
f 4//65 1//67 2//65
f 2//68 3//69 5//68
f 1//67 6//59 3//67
f 4//9 7//9 1//9
f 2//65 8//70 4//65
f 9//69 5//68 3//69
f 2//68 5//68 8//71
f 10//59 3//67 6//59
f 1//9 11//9 6//9
f 7//9 11//9 1//9
f 7//70 4//65 8//70
f 5//6 9//6 12//6
f 3//69 10//72 9//69
f 12//71 8//71 5//68
f 6//59 13//73 10//59
f 11//9 14//9 6//9
f 11//74 7//70 15//74
f 8//70 15//74 7//70
f 12//6 9//6 16//6
f 17//72 9//69 10//72
f 8//71 12//71 15//75
f 18//73 10//59 13//73
f 6//9 14//9 13//9
f 11//74 15//74 14//76
f 9//6 17//6 16//6
f 16//75 15//75 12//71
f 10//72 18//77 17//72
f 13//73 19//50 18//73
f 14//9 20//9 13//9
f 21//76 14//76 15//74
f 16//6 17//6 22//6
f 15//75 16//75 21//78
f 23//77 17//72 18//77
f 24//50 18//73 19//50
f 13//9 20//9 19//9
f 20//79 14//76 25//79
f 21//76 25//79 14//76
f 17//6 23//6 22//6
f 22//78 21//78 16//75
f 18//77 24//80 23//77
f 24//50 19//50 26//81
f 20//9 27//9 19//9
f 20//79 25//79 27//82
f 21//78 22//78 25//83
f 22//6 23//6 28//6
f 29//80 23//77 24//80
f 30//81 26//81 19//50
f 24//80 26//84 29//80
f 19//9 27//9 30//9
f 31//82 27//82 25//79
f 28//83 25//83 22//78
f 23//6 29//6 28//6
f 26//81 30//81 32//85
f 33//84 29//80 26//84
f 27//9 34//9 30//9
f 27//82 31//82 34//86
f 25//83 28//83 31//87
f 28//6 29//6 35//6
f 36//85 32//85 30//81
f 26//84 32//88 33//84
f 29//6 33//6 35//6
f 30//9 34//9 36//9
f 37//86 34//86 31//82
f 35//87 31//87 28//83
f 32//85 36//85 38//89
f 39//88 33//84 32//88
f 35//6 33//6 40//6
f 34//9 41//9 36//9
f 34//86 37//86 41//90
f 31//87 35//87 37//91
f 42//89 38//89 36//85
f 32//88 38//92 39//88
f 33//6 39//6 40//6
f 40//91 37//91 35//87
f 36//9 41//9 42//9
f 43//90 41//90 37//86
f 42//89 44//93 38//89
f 45//92 39//88 38//92
f 40//6 39//6 46//6
f 37//91 40//91 43//94
f 41//9 47//9 42//9
f 43//90 48//95 41//90
f 49//93 38//89 44//93
f 42//9 47//9 44//9
f 39//6 45//6 46//6
f 45//92 38//92 50//96
f 46//94 43//94 40//91
f 47//95 41//90 48//95
f 43//94 46//94 48//97
f 49//96 50//96 38//92
f 44//93 51//98 49//93
f 47//9 52//9 44//9
f 46//6 45//6 53//6
f 45//6 50//6 53//6
f 48//95 54//99 47//95
f 53//97 48//97 46//94
f 50//96 49//96 55//100
f 56//98 49//93 51//98
f 44//9 52//9 51//9
f 52//99 47//95 54//99
f 53//6 50//6 57//6
f 54//101 48//97 57//101
f 53//97 57//101 48//97
f 56//100 55//100 49//96
f 50//6 55//6 57//6
f 51//98 58//102 56//98
f 52//9 59//9 51//9
f 54//99 60//103 52//99
f 57//101 61//104 54//101
f 55//100 56//100 62//105
f 57//6 55//6 61//6
f 63//102 56//98 58//102
f 51//9 59//9 58//9
f 59//103 52//99 60//103
f 60//104 54//101 61//104
f 63//105 62//105 56//100
f 55//6 62//6 61//6
f 58//102 64//106 63//102
f 59//9 65//9 58//9
f 60//103 66//107 59//103
f 61//104 67//108 60//104
f 62//105 63//105 68//109
f 61//6 62//6 67//6
f 69//106 63//102 64//106
f 58//9 65//9 64//9
f 65//107 59//103 66//107
f 66//108 60//104 67//108
f 69//109 68//109 63//105
f 62//6 68//6 67//6
f 64//106 70//110 69//106
f 65//9 71//9 64//9
f 66//107 72//16 65//107
f 67//108 73//111 66//108
f 68//109 69//109 74//112
f 67//6 68//6 73//6
f 75//110 69//106 70//110
f 64//9 71//9 70//9
f 71//16 65//107 72//16
f 72//111 66//108 73//111
f 75//112 74//112 69//109
f 68//6 74//6 73//6
f 75//110 70//110 76//113
f 71//9 77//9 70//9
f 71//16 72//16 77//114
f 73//111 78//115 72//111
f 74//112 75//112 79//116
f 73//6 74//6 78//6
f 80//113 76//113 70//110
f 76//116 79//116 75//112
f 70//9 77//9 80//9
f 81//114 77//114 72//16
f 81//115 72//111 78//115
f 74//6 79//6 78//6
f 76//113 80//113 82//117
f 79//116 76//116 83//118
f 77//9 84//9 80//9
f 77//114 81//114 84//5
f 78//115 85//119 81//115
f 78//6 79//6 85//6
f 86//117 82//117 80//113
f 82//118 83//118 76//116
f 79//6 83//6 85//6
f 80//9 84//9 86//9
f 87//5 84//5 81//114
f 87//119 81//115 85//119
f 82//117 86//117 88//120
f 83//118 82//118 89//121
f 85//6 83//6 90//6
f 86//9 84//9 91//9
f 84//5 87//5 92//122
f 85//119 90//123 87//119
f 91//120 88//120 86//117
f 88//121 89//121 82//118
f 83//6 89//6 90//6
f 84//9 92//9 91//9
f 93//122 92//122 87//5
f 93//123 87//119 90//123
f 88//120 91//120 94//2
f 89//121 88//121 95//124
f 95//6 90//6 89//6
f 96//9 91//9 92//9
f 92//122 93//122 96//2
f 90//123 95//124 93//123
f 96//2 94//2 91//120
f 94//124 95//124 88//121
f 94//2 96//2 93//122
f 94//124 93//123 95//124
