# SSTK version 0.8.0
# 16
mtllib original-16.mtl
o mesh13/mesh13-geometry#mesh13-geometry
v 0.957105 -0.071483 -0.116265
v 0.700668 -0.071026 -0.111627
v 0.700668 -0.071483 -0.116265
v 0.957105 -0.071026 -0.111627
v 0.700668 -0.023942 -0.116265
v 0.957105 -0.071026 -0.120902
v 0.959453 -0.068713 -0.112088
v 0.700668 -0.069673 -0.107168
v 0.700668 -0.024398 -0.111627
v 0.700668 -0.071026 -0.120902
v 0.959453 -0.069124 -0.116265
v 0.959453 -0.067494 -0.108071
v 0.957105 -0.069673 -0.107168
v 0.957105 -0.024398 -0.111628
v 0.700668 -0.024398 -0.120902
v 0.957105 -0.069673 -0.125361
v 0.959453 -0.068713 -0.120442
v 0.959453 -0.026712 -0.112088
v 0.959453 -0.027930 -0.108071
v 0.700668 -0.067477 -0.103059
v 0.700668 -0.025751 -0.107168
v 0.957105 -0.023942 -0.116265
v 0.957105 -0.025751 -0.107168
v 0.700668 -0.069673 -0.125361
v 0.959453 -0.067494 -0.124459
v 0.959453 -0.026300 -0.116265
v 0.959453 -0.065515 -0.104369
v 0.959453 -0.029909 -0.104369
v 0.957105 -0.067476 -0.103059
v 0.957105 -0.024398 -0.120902
v 0.700668 -0.025751 -0.125361
v 0.957105 -0.067477 -0.129471
v 0.959453 -0.065515 -0.128161
v 0.959453 -0.026712 -0.120442
v 0.700668 -0.064520 -0.099457
v 0.700668 -0.027948 -0.103059
v 0.957105 -0.027948 -0.103059
v 0.700668 -0.067477 -0.129471
v 0.959453 -0.027930 -0.124459
v 0.959453 -0.062852 -0.101125
v 0.959453 -0.032572 -0.101125
v 0.957105 -0.064520 -0.099457
v 0.957105 -0.025751 -0.125361
v 0.700668 -0.027948 -0.129471
v 0.957105 -0.064520 -0.133073
v 0.959453 -0.062853 -0.131405
v 0.959453 -0.029909 -0.128161
v 0.957105 -0.060918 -0.096500
v 0.700668 -0.030904 -0.099457
v 0.957105 -0.030904 -0.099457
v 0.700668 -0.064520 -0.133073
v 0.959453 -0.059608 -0.098462
v 0.959453 -0.035816 -0.098462
v 0.700668 -0.060918 -0.096500
v 0.957105 -0.027948 -0.129471
v 0.700668 -0.030904 -0.133073
v 0.700668 -0.060918 -0.136029
v 0.959453 -0.059608 -0.134068
v 0.959453 -0.032572 -0.131405
v 0.700668 -0.056809 -0.094304
v 0.959453 -0.055906 -0.096483
v 0.700668 -0.034506 -0.096500
v 0.700668 -0.034506 -0.136029
v 0.957105 -0.060918 -0.136029
v 0.959453 -0.039518 -0.096483
v 0.957105 -0.034506 -0.096500
v 0.957105 -0.056809 -0.094304
v 0.957105 -0.030904 -0.133073
v 0.957105 -0.034506 -0.136029
v 0.700668 -0.056809 -0.138226
v 0.700668 -0.038616 -0.138226
v 0.959453 -0.055906 -0.136047
v 0.959453 -0.035816 -0.134068
v 0.700668 -0.052350 -0.092951
v 0.700668 -0.038616 -0.094304
v 0.959453 -0.051889 -0.095264
v 0.959453 -0.043535 -0.095264
v 0.957105 -0.038616 -0.138226
v 0.957105 -0.056809 -0.138226
v 0.957105 -0.038616 -0.094304
v 0.957105 -0.052349 -0.092951
v 0.959453 -0.039518 -0.136047
v 0.700668 -0.052350 -0.139579
v 0.957105 -0.043075 -0.139579
v 0.959453 -0.051889 -0.137265
v 0.700668 -0.047712 -0.092494
v 0.700668 -0.043075 -0.092951
v 0.959453 -0.047712 -0.094853
v 0.957105 -0.043075 -0.092951
v 0.959453 -0.043535 -0.137265
v 0.957105 -0.052350 -0.139579
v 0.700668 -0.043075 -0.139579
v 0.957105 -0.047712 -0.092494
v 0.700668 -0.047712 -0.140035
v 0.957105 -0.047712 -0.140035
v 0.959453 -0.047712 -0.137677
vn 0 -1 9.999999997774554e-7
vn 0 -0.9807849486613038 0.19509198978800743
vn -1 0 0
vn 0 -0.9807855607469481 -0.19508891262779196
vn 0.7088087273628003 -0.7054007286736578 9.999996152020916e-7
vn 0.708807985315625 -0.6918469856670061 0.1376189971489471
vn 0 -0.9238792538372458 0.3826841051430462
vn 0.7088086779957333 -0.6918466857013865 -0.13761693748208464
vn 0.7088078815525424 -0.6517058910947412 0.269945954889875
vn 0 0.9807855607469481 0.19508891262779196
vn 0 1 0
vn 0 -0.9238801073899822 -0.3826820444821982
vn 1 0 0
vn 0 -0.8314703015489733 0.5555692014880409
vn 0 0.9238801073899822 0.3826820444821982
vn 0 0.9807853313461204 -0.1950900659087511
vn 0.7088090324170274 -0.6517050298054043 -0.2699450123458006
vn 0.7088078261627756 -0.5865208561540183 0.3918989038856298
vn 0.7088078851047318 0.6918478878538878 0.13761497769309572
vn 0.708808229772629 0.7054012286681899 0
vn 0.7088073047042761 0.6517072801579409 0.26994411604441154
vn 0 -0.8314703015489731 -0.5555692014880412
vn 0.7088078261627756 -0.586520856154018 -0.3918989038856301
vn 0.708807964111636 0.5865199703033216 0.39189998015732086
vn 0 -0.7071077811855311 0.7071057811861496
vn 0 0.8314698396094832 0.5555698928305782
vn 0.7088087755394341 0.691846780910839 -0.13761595642074895
vn 0 0.9238797538373538 -0.38268289803625993
vn 0.7088101657861101 -0.4987931166644816 0.49879211666424755
vn 0.7088090324170274 0.6517050298054045 -0.2699450123458003
vn 0 -0.7071077811855309 -0.7071057811861501
vn 0.7088060541240779 -0.4987970380878938 -0.49879403808766487
vn 0.7088101657861099 0.49879211666424744 0.49879311666448145
vn 0 -0.5555692014880412 0.8314703015489731
vn 0 0.7071072811865694 0.707106281186172
vn 0 0.8314690690111042 -0.5555710461118429
vn 0.7088088774320707 0.5865188985785743 -0.39189993223227754
vn 0.708809930584475 -0.3918979616204549 0.5865189425607363
vn 0 -0.5555710461118429 -0.8314690690111042
vn 0.7088062754145287 -0.3919011522775331 -0.5865212278993192
vn 0.708809930584475 0.39189796162045465 0.5865189425607366
vn 0 -0.3826820444821982 0.9238801073899822
vn 0.708808072892054 -0.26994502776047336 0.6517060670198261
vn 0 0.5555692014880409 0.8314703015489733
vn 0 0.7071057811861501 -0.7071077811855309
vn 0.7088101657861101 0.4987921166642477 -0.49879311666448145
vn 0 0.5555698928305782 -0.8314698396094832
vn 0 -0.3826841051430462 -0.9238792538372458
vn 0.7088070012797509 -0.269948000487391 -0.6517060011766552
vn 0.7088078815525424 0.269945954889875 0.6517058910947411
vn 0 -0.1950900659087515 0.9807853313461202
vn 0.7088067020393436 -0.13761694215004713 0.6918487091679651
vn 0 0.38268204448219784 0.9238801073899823
vn 0 0.38268410514304657 -0.9238792538372456
vn 0.708809930584475 0.3918979616204549 -0.5865189425607363
vn 0.7088067020393437 0.13761694215004683 0.6918487091679653
vn 0.7088078815525424 0.2699459548898753 -0.651705891094741
vn 0 -0.1950900659087511 -0.9807853313461204
vn 0 0.19508795068762513 -0.9807857520868167
vn 0.7088070948819873 -0.13761801842175544 -0.6918480926118297
vn 0 0 1
vn 0.7088067321923117 0 0.705402733478441
vn 0 0.1950900659087511 0.9807853313461204
vn 0.7088067020393436 0.13761694215004713 -0.6918487091679651
vn 0 -0.000002999999999764456 -1
vn 0.7088062345989543 0 -0.7054032334726373
vn 0 1 -9.999999997774554e-7
vn 0 0.9807849486613038 -0.19509198978800743
vn -0.708807985315625 0.6918469856670061 -0.1376189971489471
vn -0.7088087273628003 0.7054007286736578 -9.999996152020916e-7
vn 0 0.9238792538372458 -0.3826841051430462
vn -0.7088086779957333 0.6918466857013865 0.13761693748208464
vn -0.7088078815525424 0.6517058910947412 -0.269945954889875
vn 0 -1 0
vn 0 0.8314703015489733 -0.5555692014880409
vn 0 -0.9807853313461204 0.1950900659087511
vn -0.7088090324170274 0.6517050298054043 0.2699450123458006
vn -0.7088078261627756 0.5865208561540183 -0.3918989038856298
vn -0.7088078851047318 -0.6918478878538878 -0.13761497769309572
vn -0.708808229772629 -0.7054012286681899 0
vn -0.7088073047042761 -0.6517072801579409 -0.26994411604441154
vn 0 0.8314703015489731 0.5555692014880412
vn -0.7088078261627756 0.586520856154018 0.3918989038856301
vn -0.708807964111636 -0.5865199703033216 -0.39189998015732086
vn 0 0.7071077811855311 -0.7071057811861496
vn 0 -0.8314698396094832 -0.5555698928305782
vn -0.7088087755394341 -0.691846780910839 0.13761595642074895
vn 0 -0.9238797538373538 0.38268289803625993
vn -0.7088101657861101 0.4987931166644816 -0.49879211666424755
vn -0.7088090324170274 -0.6517050298054045 0.2699450123458003
vn 0 0.7071077811855309 0.7071057811861501
vn -0.7088060541240779 0.4987970380878938 0.49879403808766487
vn -0.7088101657861099 -0.49879211666424744 -0.49879311666448145
vn 0 0.5555692014880412 -0.8314703015489731
vn 0 -0.7071072811865694 -0.707106281186172
vn 0 -0.8314690690111042 0.5555710461118429
vn -0.7088088774320707 -0.5865188985785743 0.39189993223227754
vn -0.708809930584475 0.3918979616204549 -0.5865189425607363
vn 0 0.5555710461118429 0.8314690690111042
vn -0.7088062754145287 0.3919011522775331 0.5865212278993192
vn -0.708809930584475 -0.39189796162045465 -0.5865189425607366
vn 0 0.3826820444821982 -0.9238801073899822
vn -0.708808072892054 0.26994502776047336 -0.6517060670198261
vn 0 -0.5555692014880409 -0.8314703015489733
vn 0 -0.7071057811861501 0.7071077811855309
vn -0.7088101657861101 -0.4987921166642477 0.49879311666448145
vn 0 -0.5555698928305782 0.8314698396094832
vn 0 0.3826841051430462 0.9238792538372458
vn -0.7088070012797509 0.269948000487391 0.6517060011766552
vn -0.7088078815525424 -0.269945954889875 -0.6517058910947411
vn 0 0.1950900659087515 -0.9807853313461202
vn -0.7088067020393436 0.13761694215004713 -0.6918487091679651
vn 0 -0.38268204448219784 -0.9238801073899823
vn 0 -0.38268410514304657 0.9238792538372456
vn -0.708809930584475 -0.3918979616204549 0.5865189425607363
vn -0.7088067020393437 -0.13761694215004683 -0.6918487091679653
vn -0.7088078815525424 -0.2699459548898753 0.651705891094741
vn 0 -0.19508795068762513 0.9807857520868167
vn -0.7088070948819873 0.13761801842175544 0.6918480926118297
vn 0 0 -1
vn -0.7088067321923117 0 -0.705402733478441
vn -0.7088067020393436 -0.13761694215004713 0.6918487091679651
vn 0 0.000002999999999764456 1
vn -0.7088062345989543 0 0.7054032334726373
usemtl material_0_0
f 1//1 2//2 3//1
f 2//2 1//1 4//2
f 2//3 5//3 3//3
f 3//1 6//4 1//1
f 1//5 7//6 4//6
f 4//2 8//7 2//2
f 2//3 9//3 5//3
f 3//3 5//3 10//3
f 6//4 3//1 10//4
f 6//8 11//5 1//5
f 7//6 1//5 11//5
f 12//9 4//6 7//6
f 8//7 4//2 13//7
f 8//3 9//3 2//3
f 14//10 5//11 9//10
f 10//3 5//3 15//3
f 10//4 16//12 6//4
f 11//5 6//8 17//8
f 18//13 7//13 11//13
f 4//6 12//9 13//9
f 19//13 12//13 7//13
f 13//7 20//14 8//7
f 8//3 21//3 9//3
f 5//11 14//10 22//11
f 9//10 23//15 14//10
f 22//11 15//16 5//11
f 10//3 15//3 24//3
f 16//12 10//4 24//12
f 25//17 6//8 16//17
f 6//8 25//17 17//8
f 26//13 11//13 17//13
f 19//13 7//13 18//13
f 18//13 11//13 26//13
f 27//18 13//9 12//9
f 28//13 12//13 19//13
f 20//14 13//7 29//14
f 20//3 21//3 8//3
f 23//15 9//10 21//15
f 18//19 22//20 14//19
f 19//21 14//19 23//21
f 15//16 22//11 30//16
f 24//3 15//3 31//3
f 24//12 32//22 16//12
f 16//17 33//23 25//17
f 34//13 17//13 25//13
f 26//13 17//13 34//13
f 14//19 19//21 18//19
f 22//20 18//19 26//20
f 13//9 27//18 29//18
f 28//13 27//13 12//13
f 23//21 28//24 19//21
f 29//14 35//25 20//14
f 20//3 36//3 21//3
f 21//15 37//26 23//15
f 22//20 34//27 30//27
f 30//16 31//28 15//16
f 24//3 31//3 38//3
f 32//22 24//12 38//22
f 33//23 16//17 32//23
f 39//13 25//13 33//13
f 34//13 25//13 39//13
f 34//27 22//20 26//20
f 40//29 29//18 27//18
f 41//13 27//13 28//13
f 28//24 23//21 37//24
f 35//25 29//14 42//25
f 35//3 36//3 20//3
f 37//26 21//15 36//26
f 39//30 30//27 34//27
f 31//28 30//16 43//28
f 38//3 31//3 44//3
f 38//22 45//31 32//22
f 32//23 46//32 33//23
f 39//13 33//13 47//13
f 29//18 40//29 42//29
f 41//13 40//13 27//13
f 37//24 41//33 28//24
f 48//34 35//25 42//25
f 35//3 49//3 36//3
f 36//26 50//35 37//26
f 30//27 39//30 43//30
f 43//28 44//36 31//28
f 38//3 44//3 51//3
f 45//31 38//22 51//31
f 46//32 32//23 45//32
f 47//13 33//13 46//13
f 47//37 43//30 39//30
f 52//38 42//29 40//29
f 53//13 40//13 41//13
f 41//33 37//24 50//33
f 35//25 48//34 54//34
f 42//29 52//38 48//38
f 54//3 49//3 35//3
f 50//35 36//26 49//35
f 44//36 43//28 55//36
f 51//3 44//3 56//3
f 57//39 45//31 51//31
f 45//32 58//40 46//32
f 47//13 46//13 59//13
f 43//30 47//37 55//37
f 53//13 52//13 40//13
f 50//33 53//41 41//33
f 48//34 60//42 54//34
f 61//43 48//38 52//38
f 54//3 62//3 49//3
f 62//44 50//35 49//35
f 55//36 56//45 44//36
f 51//3 56//3 63//3
f 45//31 57//39 64//39
f 51//3 63//3 57//3
f 58//40 45//32 64//40
f 59//13 46//13 58//13
f 59//46 55//37 47//37
f 65//13 52//13 53//13
f 53//41 50//33 66//41
f 60//42 48//34 67//42
f 60//3 62//3 54//3
f 48//38 61//43 67//43
f 65//13 61//13 52//13
f 50//35 62//44 66//44
f 56//45 55//36 68//45
f 56//45 69//47 63//47
f 70//48 64//39 57//39
f 57//3 63//3 71//3
f 64//40 72//49 58//40
f 59//13 58//13 73//13
f 55//37 59//46 68//46
f 66//41 65//50 53//41
f 67//42 74//51 60//42
f 60//3 75//3 62//3
f 76//52 67//43 61//43
f 77//13 61//13 65//13
f 75//53 66//44 62//44
f 69//47 56//45 68//45
f 78//54 63//47 69//47
f 64//39 70//48 79//48
f 57//3 71//3 70//3
f 63//47 78//54 71//54
f 72//49 64//40 79//49
f 73//13 58//13 72//13
f 73//55 68//46 59//46
f 65//50 66//41 80//50
f 74//51 67//42 81//51
f 74//3 75//3 60//3
f 67//43 76//52 81//52
f 77//13 76//13 61//13
f 80//50 77//56 65//50
f 66//44 75//53 80//53
f 68//46 73//55 69//55
f 69//55 82//57 78//57
f 83//58 79//48 70//48
f 70//3 71//3 83//3
f 84//59 71//54 78//54
f 79//49 85//60 72//49
f 73//13 72//13 82//13
f 81//51 86//61 74//51
f 74//3 87//3 75//3
f 88//62 81//52 76//52
f 76//13 77//13 88//13
f 77//56 80//50 89//56
f 75//53 89//63 80//53
f 82//57 69//55 73//55
f 90//64 78//57 82//57
f 79//48 83//58 91//58
f 83//3 71//3 92//3
f 71//54 84//59 92//59
f 78//57 90//64 84//64
f 85//60 79//49 91//60
f 82//13 72//13 85//13
f 86//61 81//51 93//61
f 87//3 74//3 86//3
f 89//63 75//53 87//63
f 81//52 88//62 93//62
f 89//56 88//62 77//56
f 82//13 85//13 90//13
f 94//65 91//58 83//58
f 83//3 92//3 94//3
f 95//65 92//59 84//59
f 96//66 84//64 90//64
f 91//60 96//66 85//60
f 93//61 87//63 86//61
f 87//63 93//61 89//63
f 88//62 89//56 93//62
f 90//13 85//13 96//13
f 91//58 94//65 95//65
f 92//59 95//65 94//65
f 84//64 96//66 95//66
f 96//66 91//60 95//66
usemtl material_1_0
f 3//67 2//68 1//67
f 4//68 1//67 2//68
f 3//13 5//13 2//13
f 1//67 6//10 3//67
f 4//69 7//69 1//70
f 2//68 8//71 4//68
f 5//13 9//13 2//13
f 10//13 5//13 3//13
f 10//10 3//67 6//10
f 1//70 11//70 6//72
f 11//70 1//70 7//69
f 7//69 4//69 12//73
f 13//71 4//68 8//71
f 2//13 9//13 8//13
f 9//4 5//74 14//4
f 15//13 5//13 10//13
f 6//10 16//15 10//10
f 17//72 6//72 11//70
f 11//3 7//3 18//3
f 13//73 12//73 4//69
f 7//3 12//3 19//3
f 8//71 20//75 13//71
f 9//13 21//13 8//13
f 22//74 14//4 5//74
f 14//4 23//12 9//4
f 5//74 15//76 22//74
f 24//13 15//13 10//13
f 24//15 10//10 16//15
f 16//77 6//72 25//77
f 17//72 25//77 6//72
f 17//3 11//3 26//3
f 18//3 7//3 19//3
f 26//3 11//3 18//3
f 12//73 13//73 27//78
f 19//3 12//3 28//3
f 29//75 13//71 20//75
f 8//13 21//13 20//13
f 21//12 9//4 23//12
f 14//79 22//80 18//79
f 23//81 14//79 19//81
f 30//76 22//74 15//76
f 31//13 15//13 24//13
f 16//15 32//82 24//15
f 25//77 33//83 16//77
f 25//3 17//3 34//3
f 34//3 17//3 26//3
f 18//79 19//81 14//79
f 26//80 18//79 22//80
f 29//78 27//78 13//73
f 12//3 27//3 28//3
f 19//81 28//84 23//81
f 20//75 35//85 29//75
f 21//13 36//13 20//13
f 23//12 37//86 21//12
f 30//87 34//87 22//80
f 15//76 31//88 30//76
f 38//13 31//13 24//13
f 38//82 24//15 32//82
f 32//83 16//77 33//83
f 33//3 25//3 39//3
f 39//3 25//3 34//3
f 26//80 22//80 34//87
f 27//78 29//78 40//89
f 28//3 27//3 41//3
f 37//84 23//81 28//84
f 42//85 29//75 35//85
f 20//13 36//13 35//13
f 36//86 21//12 37//86
f 34//87 30//87 39//90
f 43//88 30//76 31//88
f 44//13 31//13 38//13
f 32//82 45//91 38//82
f 33//83 46//92 32//83
f 47//3 33//3 39//3
f 42//89 40//89 29//78
f 27//3 40//3 41//3
f 28//84 41//93 37//84
f 42//85 35//85 48//94
f 36//13 49//13 35//13
f 37//86 50//95 36//86
f 43//90 39//90 30//87
f 31//88 44//96 43//88
f 51//13 44//13 38//13
f 51//91 38//82 45//91
f 45//92 32//83 46//92
f 46//3 33//3 47//3
f 39//90 43//90 47//97
f 40//89 42//89 52//98
f 41//3 40//3 53//3
f 50//93 37//84 41//93
f 54//94 48//94 35//85
f 48//98 52//98 42//89
f 35//13 49//13 54//13
f 49//95 36//86 50//95
f 55//96 43//88 44//96
f 56//13 44//13 51//13
f 51//91 45//91 57//99
f 46//92 58//100 45//92
f 59//3 46//3 47//3
f 55//97 47//97 43//90
f 40//3 52//3 53//3
f 41//93 53//101 50//93
f 54//94 60//102 48//94
f 52//98 48//98 61//103
f 49//13 62//13 54//13
f 49//95 50//95 62//104
f 44//96 56//105 55//96
f 63//13 56//13 51//13
f 64//99 57//99 45//91
f 57//13 63//13 51//13
f 64//100 45//92 58//100
f 58//3 46//3 59//3
f 47//97 55//97 59//106
f 53//3 52//3 65//3
f 66//101 50//93 53//101
f 67//102 48//94 60//102
f 54//13 62//13 60//13
f 67//103 61//103 48//98
f 52//3 61//3 65//3
f 66//104 62//104 50//95
f 68//105 55//96 56//105
f 63//107 69//107 56//105
f 57//99 64//99 70//108
f 71//13 63//13 57//13
f 58//100 72//109 64//100
f 73//3 58//3 59//3
f 68//106 59//106 55//97
f 53//101 65//110 66//101
f 60//102 74//111 67//102
f 62//13 75//13 60//13
f 61//103 67//103 76//112
f 65//3 61//3 77//3
f 62//104 66//104 75//113
f 68//105 56//105 69//107
f 69//107 63//107 78//114
f 79//108 70//108 64//99
f 70//13 71//13 57//13
f 71//114 78//114 63//107
f 79//109 64//100 72//109
f 72//3 58//3 73//3
f 59//106 68//106 73//115
f 80//110 66//101 65//110
f 81//111 67//102 74//111
f 60//13 75//13 74//13
f 81//112 76//112 67//103
f 61//3 76//3 77//3
f 65//110 77//116 80//110
f 80//113 75//113 66//104
f 69//115 73//115 68//106
f 78//117 82//117 69//115
f 70//108 79//108 83//63
f 83//13 71//13 70//13
f 78//114 71//114 84//118
f 72//109 85//119 79//109
f 82//3 72//3 73//3
f 74//111 86//120 81//111
f 75//13 87//13 74//13
f 76//112 81//112 88//121
f 88//3 77//3 76//3
f 89//116 80//110 77//116
f 80//113 89//58 75//113
f 73//115 69//115 82//117
f 82//117 78//117 90//122
f 91//63 83//63 79//108
f 92//13 71//13 83//13
f 92//118 84//118 71//114
f 84//122 90//122 78//117
f 91//119 79//109 85//119
f 85//3 72//3 82//3
f 93//120 81//111 86//120
f 86//13 74//13 87//13
f 87//58 75//113 89//58
f 93//121 88//121 81//112
f 77//116 88//121 89//116
f 90//3 85//3 82//3
f 83//63 91//63 94//123
f 94//13 92//13 83//13
f 84//118 92//118 95//123
f 90//122 84//122 96//124
f 85//119 96//124 91//119
f 86//120 87//58 93//120
f 89//58 93//120 87//58
f 93//121 89//116 88//121
f 96//3 85//3 90//3
f 95//123 94//123 91//63
f 94//123 95//123 92//118
f 95//124 96//124 84//122
f 95//124 91//119 96//124
