# SSTK version 0.8.0
# 3
mtllib original-3.mtl
o Group4/mesh2/mesh2-geometry#mesh2-geometry
v -0.184891 -0.449301 -0.018249
v 0.207694 -0.396400 -0.018249
v 0.207694 -0.449301 -0.018249
v 0.175336 -0.390813 -0.018249
v 0.207694 -0.394239 -0.015044
v 0.207694 -0.449490 -0.015044
v 0.142784 -0.386233 -0.018249
v 0.175336 -0.388403 -0.015044
v -0.184891 -0.449490 -0.015044
v 0.110075 -0.382665 -0.018249
v 0.142784 -0.383619 -0.015044
v -0.184891 -0.394239 -0.015044
v 0.077249 -0.380113 -0.018249
v 0.110075 -0.379892 -0.015044
v -0.184891 -0.396400 -0.018249
v 0.044345 -0.378581 -0.018249
v 0.077249 -0.377227 -0.015044
v -0.152533 -0.390813 -0.018249
v 0.011402 -0.378070 -0.018249
v 0.044345 -0.375627 -0.015044
v -0.152533 -0.388403 -0.015044
v -0.119980 -0.386233 -0.018249
v -0.021541 -0.378581 -0.018249
v 0.011402 -0.375093 -0.015044
v -0.087271 -0.382665 -0.018249
v -0.054446 -0.380113 -0.018249
v -0.021541 -0.375627 -0.015044
v -0.119980 -0.383619 -0.015044
v -0.054446 -0.377227 -0.015044
v -0.087271 -0.379892 -0.015044
vn 0 0 -1
vn 0 0 1
vn 1 0 0
vn -1 0 0
vn 0 -0.9999347211677418 -0.011425996813855518
vn 0 0.9999347211677418 0.011425996813855518
vn 0.15004601142022744 0.9777900744210721 -0.14633101113747315
vn 0.16284404943001593 0.977048296575239 -0.13732604168422766
vn 0.17224803080587409 0.9758001745179736 -0.13470202409092033
vn -0.17224803080587409 -0.9758001745179736 0.13470202409092033
vn -0.16284404943001593 -0.977048296575239 0.13732604168422766
vn -0.15004601142022744 -0.9777900744210721 0.14633101113747315
vn 0.17602997000299941 0.9760988336644761 -0.1274539782807606
vn -0.17602997000299941 -0.9760988336644761 0.1274539782807606
vn 0.1188599537708563 0.9802796187320799 -0.15787393859683801
vn 0.13118300842581931 0.9798440629348962 -0.15065400967643203
vn -0.13118300842581931 -0.9798440629348962 0.15065400967643203
vn -0.1188599537708563 -0.9802796187320799 0.15787393859683801
vn 0.08774303488321562 0.9820983904440957 -0.1666850662674948
vn 0.09957895553347546 0.981874561548431 -0.1612649279878882
vn -0.09957895553347546 -0.981874561548431 0.1612649279878882
vn -0.08774303488321562 -0.9820983904440957 0.1666850662674948
vn 0.0566870224094331 0.9833353887307477 -0.17273706828617222
vn 0.06803697536106018 0.9832436439277196 -0.16912393875338333
vn -0.06803697536106018 -0.9832436439277196 0.16912393875338333
vn -0.0566870224094331 -0.9833353887307477 0.17273706828617222
vn -0.16875796658204448 0.9773608064601002 -0.12761897472851028
vn -0.17221404850572963 0.9758072748454277 -0.13469403793786072
vn -0.16083293631386897 0.9773756129818134 -0.1373669456058597
vn 0.16083293631386897 -0.9773756129818134 0.1373669456058597
vn 0.17221404850572963 -0.9758072748454277 0.13469403793786072
vn 0.16875796658204448 -0.9773608064601002 0.12761897472851028
vn 0.025673999521770418 0.9840529816700453 -0.17601299672140597
vn 0.03654801417208001 0.9840303815735989 -0.17420806755197862
vn -0.03654801417208001 -0.9840303815735989 0.17420806755197862
vn -0.025673999521770418 -0.9840529816700453 0.17601299672140597
vn -0.1524630748769214 0.9774244800279415 -0.14627507183789956
vn 0.1524630748769214 -0.9774244800279415 0.14627507183789956
vn 0.015264004908439216 0.9841063164586271 -0.1769230568930681
vn 0.015604992479877913 0.9842185257002858 -0.17626791505563089
vn -0.015604992479877913 -0.9842185257002858 0.17626791505563089
vn -0.015264004908439216 -0.9841063164586271 0.1769230568930681
vn -0.12960703996180958 0.9800493021791379 -0.15068304646018624
vn 0.12960703996180958 -0.9800493021791379 0.15068304646018624
vn -0.036319987803713816 0.9840386695588862 -0.17420894150047306
vn -0.02635198949478148 0.9840356077142831 -0.17600992983365543
vn -0.015603992723852088 0.9842185410585091 -0.17626791780620096
vn 0.015603992723852088 -0.9842185410585091 0.17626791780620096
vn 0.02635198949478148 -0.9840356077142831 0.17600992983365543
vn 0.036319987803713816 -0.9840386695588862 0.17420894150047306
vn -0.015941999005051905 0.9840959385820824 -0.176920988958273
vn 0.015941999005051905 -0.9840959385820824 0.176920988958273
vn -0.12085794771970326 0.9800415760571367 -0.1578349317243324
vn 0.12085794771970326 -0.9800415760571367 0.1578349317243324
vn -0.09844699017848574 0.9819859020326723 -0.16128198390978432
vn 0.09844699017848574 -0.9819859020326723 0.16128198390978432
vn -0.0673560207652582 0.9832893031392893 -0.16913105214158924
vn -0.057810993965081756 0.9832718973557605 -0.1727259819690493
vn 0.057810993965081756 -0.9832718973557605 0.1727259819690493
vn 0.0673560207652582 -0.9832893031392893 0.16913105214158924
vn -0.0893080202448355 0.9819612225963958 -0.16666203777987162
vn 0.0893080202448355 -0.9819612225963958 0.16666203777987162
usemtl material_0_0
f 1//1 2//1 3//1
f 2//1 1//1 4//1
f 3//2 2//2 1//2
f 4//2 1//2 2//2
f 5//3 3//3 2//3
f 2//4 3//4 5//4
f 6//5 1//5 3//5
f 3//6 1//6 6//6
f 4//1 1//1 7//1
f 7//2 1//2 4//2
f 4//7 8//8 2//9
f 2//10 8//11 4//12
f 3//3 5//3 6//3
f 6//4 5//4 3//4
f 2//9 8//8 5//13
f 5//14 8//11 2//10
f 1//5 6//5 9//5
f 9//6 6//6 1//6
f 7//1 1//1 10//1
f 10//2 1//2 7//2
f 7//15 11//16 4//7
f 4//12 11//17 7//18
f 4//7 11//16 8//8
f 8//11 11//17 4//12
f 12//4 1//4 9//4
f 9//3 1//3 12//3
f 10//1 1//1 13//1
f 13//2 1//2 10//2
f 10//19 14//20 7//15
f 7//18 14//21 10//22
f 7//15 14//20 11//16
f 11//17 14//21 7//18
f 1//4 12//4 15//4
f 15//3 12//3 1//3
f 13//1 1//1 16//1
f 16//2 1//2 13//2
f 13//23 17//24 10//19
f 10//22 17//25 13//26
f 10//19 17//24 14//20
f 14//21 17//25 10//22
f 15//27 12//28 18//29
f 18//30 12//31 15//32
f 18//1 1//1 15//1
f 15//2 1//2 18//2
f 16//1 1//1 19//1
f 19//2 1//2 16//2
f 16//33 20//34 13//23
f 13//26 20//35 16//36
f 13//23 20//34 17//24
f 17//25 20//35 13//26
f 18//29 12//28 21//37
f 21//38 12//31 18//30
f 22//1 1//1 18//1
f 18//2 1//2 22//2
f 19//1 1//1 23//1
f 23//2 1//2 19//2
f 19//39 24//40 16//33
f 16//36 24//41 19//42
f 16//33 24//40 20//34
f 20//35 24//41 16//36
f 18//29 21//37 22//43
f 22//44 21//38 18//30
f 25//1 1//1 22//1
f 22//2 1//2 25//2
f 23//1 1//1 26//1
f 26//2 1//2 23//2
f 23//45 27//46 19//47
f 19//48 27//49 23//50
f 19//47 27//46 24//51
f 24//52 27//49 19//48
f 22//43 21//37 28//53
f 28//54 21//38 22//44
f 26//1 1//1 25//1
f 25//2 1//2 26//2
f 22//43 28//53 25//55
f 25//56 28//54 22//44
f 26//57 29//58 23//45
f 23//50 29//59 26//60
f 23//45 29//58 27//46
f 27//49 29//59 23//50
f 25//55 30//61 26//57
f 26//60 30//62 25//56
f 25//55 28//53 30//61
f 30//62 28//54 25//56
f 26//57 30//61 29//58
f 29//59 30//62 26//60
