mtllib new-4.mtl
v -0.631817 0.551055 -0.549370
v 0.581568 0.551055 -0.549370
v -0.030106 0.543623 -0.568651
v -0.034747 0.545260 -0.569658
v -0.024540 0.559938 -0.554835
v -0.035563 0.563827 -0.557228
v -0.025125 0.543064 -0.568307
v -0.020144 0.543623 -0.568651
v -0.020506 0.560390 -0.555114
v -0.028575 0.560390 -0.555114
v -0.032335 0.561717 -0.555930
v -0.016746 0.561717 -0.555930
vn 0.000000 -0.523986 -0.851727
vn 0.000000 0.523986 0.851727
vn -0.672343 -0.408937 0.617030
vn 0.000147 -0.623920 0.781488
vn -0.243513 -0.595694 0.765408
vn -0.472181 -0.522827 0.709717
vn 0.244923 -0.605820 0.756964
vn 0.476488 -0.541671 0.692497
vn 0.672343 0.408937 -0.617030
vn 0.243513 0.595694 -0.765408
vn -0.000147 0.623920 -0.781488
vn 0.472181 0.522827 -0.709717
vn -0.244923 0.605820 -0.756964
vn -0.476488 0.541671 -0.692497
usemtl material-0
f 2//2 5//2 1//2
f 1//1 5//1 2//1
f 7//4 9//7 5//4
f 10//5 7//4 5//4
f 6//3 4//6 11//6
f 11//6 3//5 10//5
f 8//7 12//8 9//7
usemtl material-2
f 5//11 9//13 7//11
f 5//11 7//11 10//10
f 11//12 4//12 6//9
f 10//10 3//10 11//12
f 9//13 12//14 8//13