# SSTK version 0.8.0
# 198
mtllib original-198.mtl
o mesh152/mesh152-geometry#mesh152-geometry
v 0.545031 -0.155763 -0.002513
v 0.543938 -0.155763 -0.000128
v 0.543938 -0.155763 -0.001470
v 0.545731 -0.155763 -0.001699
v 0.543938 -0.155763 0.007957
v 0.546074 -0.155763 -0.003098
v 0.543938 -0.155763 -0.003113
v 0.546647 -0.155763 -0.002116
v 0.542796 -0.155763 0.007957
v 0.547038 -0.155763 -0.003348
v 0.542796 -0.155763 -0.003113
v 0.547581 -0.155763 -0.002256
v 0.547895 -0.155763 -0.003398
v 0.548788 -0.155763 -0.002077
v 0.549388 -0.155763 -0.003147
v 0.549587 -0.155763 -0.001534
v 0.550455 -0.155763 -0.002391
v 0.550030 -0.155763 -0.000606
v 0.550166 -0.155763 0.000729
v 0.550166 -0.155763 0.007957
v 0.551309 -0.155763 0.007957
v 0.551095 -0.155763 -0.001133
v 0.551309 -0.155763 0.000629
vn 0 -1 0
vn 0 1 0
usemtl material_0_0
f 1//1 2//1 3//1
f 2//1 1//1 4//1
f 3//2 2//2 1//2
f 4//2 1//2 2//2
f 5//1 3//1 2//1
f 2//2 3//2 5//2
f 4//1 1//1 6//1
f 6//2 1//2 4//2
f 5//1 7//1 3//1
f 3//2 7//2 5//2
f 4//1 6//1 8//1
f 8//2 6//2 4//2
f 9//1 7//1 5//1
f 5//2 7//2 9//2
f 8//1 6//1 10//1
f 10//2 6//2 8//2
f 7//1 9//1 11//1
f 11//2 9//2 7//2
f 8//1 10//1 12//1
f 12//2 10//2 8//2
f 12//1 10//1 13//1
f 13//2 10//2 12//2
f 12//1 13//1 14//1
f 14//2 13//2 12//2
f 14//1 13//1 15//1
f 15//2 13//2 14//2
f 14//1 15//1 16//1
f 16//2 15//2 14//2
f 16//1 15//1 17//1
f 17//2 15//2 16//2
f 16//1 17//1 18//1
f 18//2 17//2 16//2
f 18//1 17//1 19//1
f 19//2 17//2 18//2
f 19//1 17//1 20//1
f 20//2 17//2 19//2
f 20//1 17//1 21//1
f 21//2 17//2 20//2
f 21//1 17//1 22//1
f 22//2 17//2 21//2
f 21//1 22//1 23//1
f 23//2 22//2 21//2
