# SSTK version 0.8.0
# 223
mtllib original-223.mtl
o mesh173/mesh173-geometry#mesh173-geometry
v 0.616571 -0.155814 0.263014
v 0.617402 -0.155814 0.263844
v 0.616571 -0.155814 0.274379
v 0.620702 -0.155814 0.263014
v 0.617402 -0.155814 0.274379
v 0.620795 -0.155814 0.263844
v 0.617402 -0.155814 0.268753
v 0.622300 -0.155814 0.263149
v 0.617402 -0.155814 0.269584
v 0.622041 -0.155814 0.263927
v 0.620837 -0.155814 0.268753
v 0.623084 -0.155814 0.264264
v 0.620806 -0.155814 0.269584
v 0.623655 -0.155814 0.263642
v 0.622587 -0.155814 0.269366
v 0.623489 -0.155814 0.264572
v 0.622321 -0.155814 0.268587
v 0.623800 -0.155814 0.264986
v 0.623323 -0.155814 0.268099
v 0.624182 -0.155814 0.264063
v 0.623296 -0.155814 0.269093
v 0.623999 -0.155814 0.265525
v 0.623883 -0.155814 0.268712
v 0.624065 -0.155814 0.266210
v 0.623888 -0.155814 0.267305
v 0.624344 -0.155814 0.268226
v 0.624589 -0.155814 0.264612
v 0.624673 -0.155814 0.267640
v 0.624850 -0.155814 0.265307
v 0.624871 -0.155814 0.266955
v 0.624937 -0.155814 0.266169
vn 0 -1 0
vn 0 1 0
usemtl material_0_0
f 1//1 2//1 3//1
f 2//1 1//1 4//1
f 3//2 2//2 1//2
f 4//2 1//2 2//2
f 2//1 5//1 3//1
f 3//2 5//2 2//2
f 2//1 4//1 6//1
f 6//2 4//2 2//2
f 5//1 2//1 7//1
f 7//2 2//2 5//2
f 6//1 4//1 8//1
f 8//2 4//2 6//2
f 5//1 7//1 9//1
f 9//2 7//2 5//2
f 6//1 8//1 10//1
f 10//2 8//2 6//2
f 11//1 9//1 7//1
f 7//2 9//2 11//2
f 10//1 8//1 12//1
f 12//2 8//2 10//2
f 9//1 11//1 13//1
f 13//2 11//2 9//2
f 12//1 8//1 14//1
f 14//2 8//2 12//2
f 13//1 11//1 15//1
f 15//2 11//2 13//2
f 12//1 14//1 16//1
f 16//2 14//2 12//2
f 15//1 11//1 17//1
f 17//2 11//2 15//2
f 16//1 14//1 18//1
f 18//2 14//2 16//2
f 15//1 17//1 19//1
f 19//2 17//2 15//2
f 18//1 14//1 20//1
f 20//2 14//2 18//2
f 15//1 19//1 21//1
f 21//2 19//2 15//2
f 18//1 20//1 22//1
f 22//2 20//2 18//2
f 21//1 19//1 23//1
f 23//2 19//2 21//2
f 22//1 20//1 24//1
f 24//2 20//2 22//2
f 23//1 19//1 25//1
f 25//2 19//2 23//2
f 26//1 24//1 20//1
f 20//2 24//2 26//2
f 23//1 25//1 26//1
f 26//2 25//2 23//2
f 26//1 25//1 24//1
f 24//2 25//2 26//2
f 26//1 20//1 27//1
f 27//2 20//2 26//2
f 26//1 27//1 28//1
f 28//2 27//2 26//2
f 28//1 27//1 29//1
f 29//2 27//2 28//2
f 28//1 29//1 30//1
f 30//2 29//2 28//2
f 30//1 29//1 31//1
f 31//2 29//2 30//2
