# SSTK version 0.8.0
# 115
mtllib original-115.mtl
o P1/P/mesh86/mesh86-geometry#mesh86-geometry
v 0.247716 -0.155726 0.172060
v 0.249437 -0.155726 0.173781
v 0.247716 -0.155726 0.195614
v 0.256278 -0.155726 0.172060
v 0.249437 -0.155726 0.195614
v 0.256471 -0.155726 0.173781
v 0.249437 -0.155726 0.183955
v 0.259590 -0.155726 0.172340
v 0.249437 -0.155726 0.185676
v 0.259052 -0.155726 0.173953
v 0.256557 -0.155726 0.183955
v 0.261214 -0.155726 0.174652
v 0.256493 -0.155726 0.185676
v 0.262397 -0.155726 0.173361
v 0.260184 -0.155726 0.185225
v 0.262053 -0.155726 0.175289
v 0.259633 -0.155726 0.183611
v 0.262699 -0.155726 0.176147
v 0.261709 -0.155726 0.182600
v 0.263489 -0.155726 0.174235
v 0.261653 -0.155726 0.184660
v 0.263110 -0.155726 0.177266
v 0.262871 -0.155726 0.183869
v 0.263247 -0.155726 0.178685
v 0.262881 -0.155726 0.180955
v 0.263826 -0.155726 0.182862
v 0.264333 -0.155726 0.175373
v 0.264508 -0.155726 0.181648
v 0.264874 -0.155726 0.176814
v 0.264918 -0.155726 0.180227
v 0.265054 -0.155726 0.178599
vn 0 -1 0
vn 0 1 0
usemtl material_0_0
f 1//1 2//1 3//1
f 2//1 1//1 4//1
f 3//2 2//2 1//2
f 4//2 1//2 2//2
f 2//1 5//1 3//1
f 3//2 5//2 2//2
f 2//1 4//1 6//1
f 6//2 4//2 2//2
f 5//1 2//1 7//1
f 7//2 2//2 5//2
f 6//1 4//1 8//1
f 8//2 4//2 6//2
f 5//1 7//1 9//1
f 9//2 7//2 5//2
f 6//1 8//1 10//1
f 10//2 8//2 6//2
f 11//1 9//1 7//1
f 7//2 9//2 11//2
f 10//1 8//1 12//1
f 12//2 8//2 10//2
f 9//1 11//1 13//1
f 13//2 11//2 9//2
f 12//1 8//1 14//1
f 14//2 8//2 12//2
f 13//1 11//1 15//1
f 15//2 11//2 13//2
f 12//1 14//1 16//1
f 16//2 14//2 12//2
f 15//1 11//1 17//1
f 17//2 11//2 15//2
f 16//1 14//1 18//1
f 18//2 14//2 16//2
f 15//1 17//1 19//1
f 19//2 17//2 15//2
f 18//1 14//1 20//1
f 20//2 14//2 18//2
f 15//1 19//1 21//1
f 21//2 19//2 15//2
f 18//1 20//1 22//1
f 22//2 20//2 18//2
f 21//1 19//1 23//1
f 23//2 19//2 21//2
f 22//1 20//1 24//1
f 24//2 20//2 22//2
f 23//1 19//1 25//1
f 25//2 19//2 23//2
f 26//1 24//1 20//1
f 20//2 24//2 26//2
f 23//1 25//1 26//1
f 26//2 25//2 23//2
f 26//1 25//1 24//1
f 24//2 25//2 26//2
f 26//1 20//1 27//1
f 27//2 20//2 26//2
f 26//1 27//1 28//1
f 28//2 27//2 26//2
f 28//1 27//1 29//1
f 29//2 27//2 28//2
f 28//1 29//1 30//1
f 30//2 29//2 28//2
f 30//1 29//1 31//1
f 31//2 29//2 30//2
