# SSTK version 0.8.0
# 109
mtllib original-109.mtl
o R1/R/mesh80/mesh80-geometry#mesh80-geometry
v -0.267139 -0.155726 0.172520
v -0.267139 -0.155726 0.194353
v -0.268860 -0.155726 0.194353
v -0.267139 -0.155726 0.182006
v -0.268860 -0.155726 0.170799
v -0.267139 -0.155726 0.183727
v -0.258255 -0.155726 0.170799
v -0.258965 -0.155726 0.182006
v -0.258470 -0.155726 0.172520
v -0.258900 -0.155726 0.183727
v -0.255794 -0.155726 0.172780
v -0.255975 -0.155726 0.181748
v -0.255383 -0.155726 0.171068
v -0.257211 -0.155726 0.184071
v -0.253877 -0.155726 0.173563
v -0.255932 -0.155726 0.185007
v -0.252909 -0.155726 0.172025
v -0.255351 -0.155726 0.183275
v -0.252724 -0.155726 0.174953
v -0.253920 -0.155726 0.180898
v -0.254953 -0.155726 0.186394
v -0.251933 -0.155726 0.172845
v -0.253210 -0.155726 0.182447
v -0.254254 -0.155726 0.184264
v -0.252339 -0.155726 0.177037
v -0.252727 -0.155726 0.179360
v -0.254189 -0.155726 0.188093
v -0.251705 -0.155726 0.181070
v -0.253512 -0.155726 0.185275
v -0.251178 -0.155726 0.173929
v -0.251845 -0.155726 0.194353
v -0.250823 -0.155726 0.179242
v -0.252952 -0.155726 0.186459
v -0.250694 -0.155726 0.175313
v -0.252382 -0.155726 0.187943
v -0.250532 -0.155726 0.177037
v -0.249952 -0.155726 0.194353
vn 0 -1 0
vn 0 1 0
usemtl material_0_0
f 1//1 2//1 3//1
f 2//1 1//1 4//1
f 3//2 2//2 1//2
f 4//2 1//2 2//2
f 5//1 1//1 3//1
f 3//2 1//2 5//2
f 2//1 4//1 6//1
f 6//2 4//2 2//2
f 1//1 5//1 7//1
f 7//2 5//2 1//2
f 8//1 6//1 4//1
f 4//2 6//2 8//2
f 1//1 7//1 9//1
f 9//2 7//2 1//2
f 6//1 8//1 10//1
f 10//2 8//2 6//2
f 9//1 7//1 11//1
f 11//2 7//2 9//2
f 10//1 8//1 12//1
f 12//2 8//2 10//2
f 11//1 7//1 13//1
f 13//2 7//2 11//2
f 10//1 12//1 14//1
f 14//2 12//2 10//2
f 11//1 13//1 15//1
f 15//2 13//2 11//2
f 14//1 12//1 16//1
f 16//2 12//2 14//2
f 15//1 13//1 17//1
f 17//2 13//2 15//2
f 16//1 12//1 18//1
f 18//2 12//2 16//2
f 15//1 17//1 19//1
f 19//2 17//2 15//2
f 18//1 12//1 20//1
f 20//2 12//2 18//2
f 18//1 21//1 16//1
f 16//2 21//2 18//2
f 19//1 17//1 22//1
f 22//2 17//2 19//2
f 18//1 20//1 23//1
f 23//2 20//2 18//2
f 21//1 18//1 24//1
f 24//2 18//2 21//2
f 19//1 22//1 25//1
f 25//2 22//2 19//2
f 23//1 20//1 26//1
f 26//2 20//2 23//2
f 21//1 24//1 27//1
f 27//2 24//2 21//2
f 28//1 25//1 22//1
f 22//2 25//2 28//2
f 23//1 26//1 28//1
f 28//2 26//2 23//2
f 27//1 24//1 29//1
f 29//2 24//2 27//2
f 28//1 26//1 25//1
f 25//2 26//2 28//2
f 28//1 22//1 30//1
f 30//2 22//2 28//2
f 27//1 29//1 31//1
f 31//2 29//2 27//2
f 28//1 30//1 32//1
f 32//2 30//2 28//2
f 31//1 29//1 33//1
f 33//2 29//2 31//2
f 32//1 30//1 34//1
f 34//2 30//2 32//2
f 31//1 33//1 35//1
f 35//2 33//2 31//2
f 32//1 34//1 36//1
f 36//2 34//2 32//2
f 31//1 35//1 37//1
f 37//2 35//2 31//2
