# SSTK version 0.8.0
# 205
mtllib original-205.mtl
o mesh158/mesh158-geometry#mesh158-geometry
v 0.633104 -0.155763 0.003022
v 0.633108 -0.155763 0.005702
v 0.633012 -0.155763 0.004344
v 0.633382 -0.155763 0.001836
v 0.633396 -0.155763 0.006905
v 0.633829 -0.155763 0.000804
v 0.633861 -0.155763 0.007943
v 0.634432 -0.155763 -0.000058
v 0.634196 -0.155763 0.003442
v 0.634691 -0.155763 0.001710
v 0.634196 -0.155763 0.004626
v 0.635176 -0.155763 -0.000745
v 0.634484 -0.155763 0.008807
v 0.642024 -0.155763 0.003442
v 0.635550 -0.155763 0.000482
v 0.634625 -0.155763 0.006653
v 0.643223 -0.155763 0.004626
v 0.636046 -0.155763 -0.001250
v 0.635256 -0.155763 0.009491
v 0.642435 -0.155763 0.000804
v 0.636711 -0.155763 -0.000243
v 0.635513 -0.155763 0.008081
v 0.641847 -0.155763 -0.000058
v 0.642868 -0.155763 0.001836
v 0.637030 -0.155763 -0.001560
v 0.636164 -0.155763 0.009990
v 0.641542 -0.155763 0.001721
v 0.643134 -0.155763 0.003025
v 0.638117 -0.155763 -0.000480
v 0.636778 -0.155763 0.008932
v 0.641111 -0.155763 -0.000745
v 0.643223 -0.155763 0.004359
v 0.638117 -0.155763 -0.001664
v 0.637196 -0.155763 0.010296
v 0.640685 -0.155763 0.000497
v 0.639231 -0.155763 -0.001560
v 0.638339 -0.155763 0.009213
v 0.640234 -0.155763 -0.001250
v 0.639522 -0.155763 -0.000236
v 0.638339 -0.155763 0.010397
v 0.639523 -0.155763 0.009073
v 0.639982 -0.155763 0.010175
v 0.640596 -0.155763 0.008651
v 0.641358 -0.155763 0.009517
v 0.641403 -0.155763 0.007956
v 0.642380 -0.155763 0.008451
v 0.641788 -0.155763 0.007008
v 0.642957 -0.155763 0.007008
vn 0 -1 0
vn 0 1 0
usemtl material_0_0
f 1//1 2//1 3//1
f 2//1 1//1 4//1
f 3//2 2//2 1//2
f 4//2 1//2 2//2
f 2//1 4//1 5//1
f 5//2 4//2 2//2
f 5//1 4//1 6//1
f 6//2 4//2 5//2
f 5//1 6//1 7//1
f 7//2 6//2 5//2
f 7//1 6//1 8//1
f 8//2 6//2 7//2
f 7//1 8//1 9//1
f 9//2 8//2 7//2
f 9//1 8//1 10//1
f 10//2 8//2 9//2
f 11//1 7//1 9//1
f 9//2 7//2 11//2
f 10//1 8//1 12//1
f 12//2 8//2 10//2
f 7//1 11//1 13//1
f 13//2 11//2 7//2
f 14//1 11//1 9//1
f 9//2 11//2 14//2
f 10//1 12//1 15//1
f 15//2 12//2 10//2
f 13//1 11//1 16//1
f 16//2 11//2 13//2
f 11//1 14//1 17//1
f 17//2 14//2 11//2
f 15//1 12//1 18//1
f 18//2 12//2 15//2
f 13//1 16//1 19//1
f 19//2 16//2 13//2
f 17//1 14//1 20//1
f 20//2 14//2 17//2
f 15//1 18//1 21//1
f 21//2 18//2 15//2
f 19//1 16//1 22//1
f 22//2 16//2 19//2
f 14//1 23//1 20//1
f 20//2 23//2 14//2
f 17//1 20//1 24//1
f 24//2 20//2 17//2
f 21//1 18//1 25//1
f 25//2 18//2 21//2
f 19//1 22//1 26//1
f 26//2 22//2 19//2
f 27//1 23//1 14//1
f 14//2 23//2 27//2
f 17//1 24//1 28//1
f 28//2 24//2 17//2
f 21//1 25//1 29//1
f 29//2 25//2 21//2
f 26//1 22//1 30//1
f 30//2 22//2 26//2
f 27//1 31//1 23//1
f 23//2 31//2 27//2
f 17//1 28//1 32//1
f 32//2 28//2 17//2
f 29//1 25//1 33//1
f 33//2 25//2 29//2
f 26//1 30//1 34//1
f 34//2 30//2 26//2
f 35//1 31//1 27//1
f 27//2 31//2 35//2
f 29//1 33//1 36//1
f 36//2 33//2 29//2
f 34//1 30//1 37//1
f 37//2 30//2 34//2
f 35//1 38//1 31//1
f 31//2 38//2 35//2
f 29//1 36//1 39//1
f 39//2 36//2 29//2
f 34//1 37//1 40//1
f 40//2 37//2 34//2
f 39//1 38//1 35//1
f 35//2 38//2 39//2
f 39//1 36//1 38//1
f 38//2 36//2 39//2
f 40//1 37//1 41//1
f 41//2 37//2 40//2
f 40//1 41//1 42//1
f 42//2 41//2 40//2
f 42//1 41//1 43//1
f 43//2 41//2 42//2
f 42//1 43//1 44//1
f 44//2 43//2 42//2
f 44//1 43//1 45//1
f 45//2 43//2 44//2
f 44//1 45//1 46//1
f 46//2 45//2 44//2
f 46//1 45//1 47//1
f 47//2 45//2 46//2
f 46//1 47//1 48//1
f 48//2 47//2 46//2
