# SSTK version 0.8.0
# 230
mtllib original-230.mtl
o mesh179/mesh179-geometry#mesh179-geometry
v 0.635382 -0.155814 0.353527
v 0.636300 -0.155814 0.354444
v 0.635382 -0.155814 0.366089
v 0.644147 -0.155814 0.353527
v 0.636300 -0.155814 0.365171
v 0.644147 -0.155814 0.354444
v 0.644457 -0.155814 0.366089
v 0.636300 -0.155814 0.359091
v 0.644457 -0.155814 0.365171
v 0.636300 -0.155814 0.360009
v 0.643654 -0.155814 0.359091
v 0.643654 -0.155814 0.360009
vn 0 -1 0
vn 0 1 0
usemtl material_0_0
f 1//1 2//1 3//1
f 2//1 1//1 4//1
f 3//2 2//2 1//2
f 4//2 1//2 2//2
f 5//1 3//1 2//1
f 2//2 3//2 5//2
f 2//1 4//1 6//1
f 6//2 4//2 2//2
f 3//1 5//1 7//1
f 7//2 5//2 3//2
f 5//1 2//1 8//1
f 8//2 2//2 5//2
f 7//1 5//1 9//1
f 9//2 5//2 7//2
f 5//1 8//1 10//1
f 10//2 8//2 5//2
f 11//1 10//1 8//1
f 8//2 10//2 11//2
f 10//1 11//1 12//1
f 12//2 11//2 10//2
