# SSTK version 0.8.0
# 159
mtllib original-159.mtl
o mesh123/mesh123-geometry#mesh123-geometry
v -0.287479 -0.155726 0.006227
v -0.291653 -0.155726 0.007948
v -0.291653 -0.155726 0.006227
v -0.287479 -0.155726 0.007948
v -0.291653 -0.155726 0.015175
v -0.291653 -0.155726 -0.008379
v -0.293373 -0.155726 0.015175
v -0.293373 -0.155726 0.007948
v -0.293373 -0.155726 0.006227
v -0.293373 -0.155726 -0.006572
v -0.301784 -0.155726 0.006227
v -0.294105 -0.155726 -0.008379
v -0.303526 -0.155726 0.007948
v -0.303526 -0.155726 0.005969
vn 0 -1 0
vn 0 1 0
usemtl material_0_0
f 1//1 2//1 3//1
f 2//1 1//1 4//1
f 3//2 2//2 1//2
f 4//2 1//2 2//2
f 5//1 3//1 2//1
f 2//2 3//2 5//2
f 5//1 6//1 3//1
f 3//2 6//2 5//2
f 7//1 6//1 5//1
f 5//2 6//2 7//2
f 8//1 6//1 7//1
f 7//2 6//2 8//2
f 9//1 6//1 8//1
f 8//2 6//2 9//2
f 10//1 6//1 9//1
f 9//2 6//2 10//2
f 8//1 11//1 9//1
f 9//2 11//2 8//2
f 10//1 12//1 6//1
f 6//2 12//2 10//2
f 11//1 8//1 13//1
f 13//2 8//2 11//2
f 11//1 12//1 10//1
f 10//2 12//2 11//2
f 13//1 12//1 11//1
f 11//2 12//2 13//2
f 12//1 13//1 14//1
f 14//2 13//2 12//2
