# SSTK version 0.8.0
# 61
mtllib original-61.mtl
o mesh36/mesh36-geometry#mesh36-geometry
v 0.537623 -0.155726 0.268578
v 0.536171 -0.155726 0.272407
v 0.536171 -0.155726 0.269977
v 0.537096 -0.155726 0.271149
v 0.536171 -0.155726 0.284346
v 0.538258 -0.155726 0.270052
v 0.536171 -0.155726 0.267675
v 0.539021 -0.155726 0.267740
v 0.534450 -0.155726 0.284346
v 0.539570 -0.155726 0.269267
v 0.534450 -0.155726 0.267675
v 0.540323 -0.155726 0.267342
v 0.540990 -0.155726 0.268966
v 0.541463 -0.155726 0.267245
v 0.541613 -0.155726 0.268966
v 0.541786 -0.155726 0.267256
v 0.542130 -0.155726 0.269009
v 0.542130 -0.155726 0.267288
vn 0 -1 0
vn 0 1 0
usemtl material_0_0
f 1//1 2//1 3//1
f 2//1 1//1 4//1
f 3//2 2//2 1//2
f 4//2 1//2 2//2
f 5//1 3//1 2//1
f 2//2 3//2 5//2
f 4//1 1//1 6//1
f 6//2 1//2 4//2
f 5//1 7//1 3//1
f 3//2 7//2 5//2
f 6//1 1//1 8//1
f 8//2 1//2 6//2
f 9//1 7//1 5//1
f 5//2 7//2 9//2
f 6//1 8//1 10//1
f 10//2 8//2 6//2
f 7//1 9//1 11//1
f 11//2 9//2 7//2
f 10//1 8//1 12//1
f 12//2 8//2 10//2
f 10//1 12//1 13//1
f 13//2 12//2 10//2
f 13//1 12//1 14//1
f 14//2 12//2 13//2
f 13//1 14//1 15//1
f 15//2 14//2 13//2
f 15//1 14//1 16//1
f 16//2 14//2 15//2
f 15//1 16//1 17//1
f 17//2 16//2 15//2
f 17//1 16//1 18//1
f 18//2 16//2 17//2
