# SSTK version 0.8.0
# 14
mtllib original-14.mtl
o mesh10/mesh10-geometry#mesh10-geometry
v -0.615864 -0.155726 0.180900
v -0.617262 -0.155726 0.184546
v -0.617262 -0.155726 0.182395
v -0.616033 -0.155726 0.183056
v -0.617262 -0.155726 0.196398
v -0.614756 -0.155726 0.181943
v -0.617262 -0.155726 0.172844
v -0.617262 -0.155726 0.192419
v -0.614401 -0.155726 0.179953
v -0.618983 -0.155726 0.196398
v -0.617262 -0.155726 0.194656
v -0.613393 -0.155726 0.181249
v -0.618983 -0.155726 0.172844
v -0.614842 -0.155726 0.194376
v -0.612982 -0.155726 0.179448
v -0.615934 -0.155726 0.195680
v -0.611906 -0.155726 0.181018
v -0.614530 -0.155726 0.196344
v -0.611669 -0.155726 0.179297
v -0.613517 -0.155726 0.194925
v -0.609819 -0.155726 0.181454
v -0.611863 -0.155726 0.196828
v -0.610207 -0.155726 0.179450
v -0.612057 -0.155726 0.195108
v -0.608916 -0.155726 0.179910
v -0.609965 -0.155726 0.194651
v -0.608249 -0.155726 0.182760
v -0.610511 -0.155726 0.196670
v -0.607808 -0.155726 0.180652
v -0.609249 -0.155726 0.196194
v -0.607265 -0.155726 0.184917
v -0.608335 -0.155726 0.193279
v -0.606894 -0.155726 0.181653
v -0.608115 -0.155726 0.195428
v -0.606937 -0.155726 0.187902
v -0.607287 -0.155726 0.191021
v -0.605732 -0.155726 0.191591
v -0.607141 -0.155726 0.194398
v -0.605646 -0.155726 0.184374
v -0.605216 -0.155726 0.187902
vn 0 -1 0
vn 0 1 0
usemtl material_0_0
f 1//1 2//1 3//1
f 2//1 1//1 4//1
f 3//2 2//2 1//2
f 4//2 1//2 2//2
f 5//1 3//1 2//1
f 2//2 3//2 5//2
f 4//1 1//1 6//1
f 6//2 1//2 4//2
f 5//1 7//1 3//1
f 3//2 7//2 5//2
f 5//1 2//1 8//1
f 8//2 2//2 5//2
f 6//1 1//1 9//1
f 9//2 1//2 6//2
f 10//1 7//1 5//1
f 5//2 7//2 10//2
f 5//1 8//1 11//1
f 11//2 8//2 5//2
f 6//1 9//1 12//1
f 12//2 9//2 6//2
f 7//1 10//1 13//1
f 13//2 10//2 7//2
f 14//1 11//1 8//1
f 8//2 11//2 14//2
f 12//1 9//1 15//1
f 15//2 9//2 12//2
f 11//1 14//1 16//1
f 16//2 14//2 11//2
f 12//1 15//1 17//1
f 17//2 15//2 12//2
f 16//1 14//1 18//1
f 18//2 14//2 16//2
f 17//1 15//1 19//1
f 19//2 15//2 17//2
f 18//1 14//1 20//1
f 20//2 14//2 18//2
f 17//1 19//1 21//1
f 21//2 19//2 17//2
f 18//1 20//1 22//1
f 22//2 20//2 18//2
f 21//1 19//1 23//1
f 23//2 19//2 21//2
f 22//1 20//1 24//1
f 24//2 20//2 22//2
f 21//1 23//1 25//1
f 25//2 23//2 21//2
f 22//1 24//1 26//1
f 26//2 24//2 22//2
f 21//1 25//1 27//1
f 27//2 25//2 21//2
f 22//1 26//1 28//1
f 28//2 26//2 22//2
f 27//1 25//1 29//1
f 29//2 25//2 27//2
f 28//1 26//1 30//1
f 30//2 26//2 28//2
f 27//1 29//1 31//1
f 31//2 29//2 27//2
f 30//1 26//1 32//1
f 32//2 26//2 30//2
f 31//1 29//1 33//1
f 33//2 29//2 31//2
f 30//1 32//1 34//1
f 34//2 32//2 30//2
f 31//1 33//1 35//1
f 35//2 33//2 31//2
f 34//1 32//1 36//1
f 36//2 32//2 34//2
f 37//1 35//1 33//1
f 33//2 35//2 37//2
f 34//1 36//1 38//1
f 38//2 36//2 34//2
f 38//1 35//1 37//1
f 37//2 35//2 38//2
f 37//1 33//1 39//1
f 39//2 33//2 37//2
f 38//1 36//1 35//1
f 35//2 36//2 38//2
f 37//1 39//1 40//1
f 40//2 39//2 37//2
