# SSTK version 0.8.0
# 2
mtllib original-2.mtl
o mesh1/mesh1-geometry#mesh1-geometry
v -0.676204 -0.155726 -0.010998
v -0.674484 -0.155726 -0.009277
v -0.676204 -0.155726 0.012557
v -0.659770 -0.155726 -0.010998
v -0.674484 -0.155726 0.010836
v -0.659770 -0.155726 -0.009277
v -0.659189 -0.155726 0.012557
v -0.674484 -0.155726 -0.000565
v -0.659189 -0.155726 0.010836
v -0.674484 -0.155726 0.001156
v -0.660695 -0.155726 -0.000565
v -0.660695 -0.155726 0.001156
vn 0 -1 0
vn 0 1 0
usemtl material_0_0
f 1//1 2//1 3//1
f 2//1 1//1 4//1
f 3//2 2//2 1//2
f 4//2 1//2 2//2
f 5//1 3//1 2//1
f 2//2 3//2 5//2
f 2//1 4//1 6//1
f 6//2 4//2 2//2
f 3//1 5//1 7//1
f 7//2 5//2 3//2
f 5//1 2//1 8//1
f 8//2 2//2 5//2
f 7//1 5//1 9//1
f 9//2 5//2 7//2
f 5//1 8//1 10//1
f 10//2 8//2 5//2
f 11//1 10//1 8//1
f 8//2 10//2 11//2
f 10//1 11//1 12//1
f 12//2 11//2 10//2
