# SSTK version 0.8.0
# 81
mtllib original-81.mtl
o _8_1_1/_8_1/mesh54/mesh54-geometry#mesh54-geometry
v 0.039130 -0.155726 0.103197
v 0.039660 -0.155726 0.107816
v 0.038367 -0.155726 0.106359
v 0.039464 -0.155726 0.104713
v 0.039184 -0.155726 0.099045
v 0.040410 -0.155726 0.106025
v 0.037883 -0.155726 0.100798
v 0.039453 -0.155726 0.101530
v 0.041626 -0.155726 0.109177
v 0.037649 -0.155726 0.104815
v 0.041142 -0.155726 0.097980
v 0.041873 -0.155726 0.107187
v 0.037410 -0.155726 0.103197
v 0.040367 -0.155726 0.100325
v 0.043605 -0.155726 0.110037
v 0.041787 -0.155726 0.099594
v 0.040625 -0.155726 0.111683
v 0.043777 -0.155726 0.108230
v 0.043605 -0.155726 0.097625
v 0.039249 -0.155726 0.110524
v 0.045605 -0.155726 0.111070
v 0.043605 -0.155726 0.099346
v 0.039001 -0.155726 0.113156
v 0.045621 -0.155726 0.107238
v 0.046078 -0.155726 0.097980
v 0.038335 -0.155726 0.114415
v 0.045949 -0.155726 0.109112
v 0.045422 -0.155726 0.099594
v 0.037668 -0.155726 0.112027
v 0.046982 -0.155726 0.106068
v 0.047272 -0.155726 0.112124
v 0.046853 -0.155726 0.100325
v 0.038205 -0.155726 0.115436
v 0.047659 -0.155726 0.107881
v 0.048369 -0.155726 0.110596
v 0.048057 -0.155726 0.099034
v 0.038528 -0.155726 0.120233
v 0.047821 -0.155726 0.104721
v 0.048466 -0.155726 0.113490
v 0.047778 -0.155726 0.101530
v 0.037033 -0.155726 0.118222
v 0.038679 -0.155726 0.117480
v 0.048875 -0.155726 0.106423
v 0.049843 -0.155726 0.112102
v 0.048100 -0.155726 0.103197
v 0.036780 -0.155726 0.113670
v 0.040776 -0.155726 0.121459
v 0.049047 -0.155726 0.115436
v 0.049370 -0.155726 0.100777
v 0.036622 -0.155726 0.116929
v 0.039916 -0.155726 0.118953
v 0.050219 -0.155726 0.118222
v 0.036485 -0.155726 0.115436
v 0.041647 -0.155726 0.119846
v 0.049601 -0.155726 0.104832
v 0.048713 -0.155726 0.120233
v 0.050574 -0.155726 0.113694
v 0.043605 -0.155726 0.121868
v 0.049843 -0.155726 0.103197
v 0.048627 -0.155726 0.117480
v 0.050631 -0.155726 0.116929
v 0.043605 -0.155726 0.120147
v 0.047444 -0.155726 0.118953
v 0.050768 -0.155726 0.115436
v 0.045702 -0.155726 0.119846
v 0.046444 -0.155726 0.121459
vn 0 -1 0
vn 0 1 0
usemtl material_0_0
f 1//1 2//1 3//1
f 2//1 1//1 4//1
f 3//2 2//2 1//2
f 4//2 1//2 2//2
f 3//1 5//1 1//1
f 1//2 5//2 3//2
f 2//1 4//1 6//1
f 6//2 4//2 2//2
f 3//1 7//1 5//1
f 5//2 7//2 3//2
f 1//1 5//1 8//1
f 8//2 5//2 1//2
f 2//1 6//1 9//1
f 9//2 6//2 2//2
f 10//1 7//1 3//1
f 3//2 7//2 10//2
f 8//1 5//1 11//1
f 11//2 5//2 8//2
f 9//1 6//1 12//1
f 12//2 6//2 9//2
f 7//1 10//1 13//1
f 13//2 10//2 7//2
f 8//1 11//1 14//1
f 14//2 11//2 8//2
f 15//1 9//1 12//1
f 12//2 9//2 15//2
f 14//1 11//1 16//1
f 16//2 11//2 14//2
f 17//1 9//1 15//1
f 15//2 9//2 17//2
f 15//1 12//1 18//1
f 18//2 12//2 15//2
f 16//1 11//1 19//1
f 19//2 11//2 16//2
f 17//1 20//1 9//1
f 9//2 20//2 17//2
f 15//1 18//1 21//1
f 21//2 18//2 15//2
f 16//1 19//1 22//1
f 22//2 19//2 16//2
f 23//1 20//1 17//1
f 17//2 20//2 23//2
f 21//1 18//1 24//1
f 24//2 18//2 21//2
f 22//1 19//1 25//1
f 25//2 19//2 22//2
f 26//1 20//1 23//1
f 23//2 20//2 26//2
f 21//1 24//1 27//1
f 27//2 24//2 21//2
f 22//1 25//1 28//1
f 28//2 25//2 22//2
f 26//1 29//1 20//1
f 20//2 29//2 26//2
f 30//1 27//1 24//1
f 24//2 27//2 30//2
f 21//1 27//1 31//1
f 31//2 27//2 21//2
f 28//1 25//1 32//1
f 32//2 25//2 28//2
f 29//1 26//1 33//1
f 33//2 26//2 29//2
f 27//1 30//1 34//1
f 34//2 30//2 27//2
f 31//1 27//1 35//1
f 35//2 27//2 31//2
f 32//1 25//1 36//1
f 36//2 25//2 32//2
f 37//1 29//1 33//1
f 33//2 29//2 37//2
f 34//1 30//1 38//1
f 38//2 30//2 34//2
f 31//1 35//1 39//1
f 39//2 35//2 31//2
f 32//1 36//1 40//1
f 40//2 36//2 32//2
f 41//1 29//1 37//1
f 37//2 29//2 41//2
f 37//1 33//1 42//1
f 42//2 33//2 37//2
f 34//1 38//1 43//1
f 43//2 38//2 34//2
f 39//1 35//1 44//1
f 44//2 35//2 39//2
f 40//1 36//1 45//1
f 45//2 36//2 40//2
f 41//1 46//1 29//1
f 29//2 46//2 41//2
f 37//1 42//1 47//1
f 47//2 42//2 37//2
f 43//1 38//1 45//1
f 45//2 38//2 43//2
f 39//1 44//1 48//1
f 48//2 44//2 39//2
f 45//1 36//1 49//1
f 49//2 36//2 45//2
f 50//1 46//1 41//1
f 41//2 46//2 50//2
f 47//1 42//1 51//1
f 51//2 42//2 47//2
f 45//1 49//1 43//1
f 43//2 49//2 45//2
f 52//1 48//1 44//1
f 44//2 48//2 52//2
f 46//1 50//1 53//1
f 53//2 50//2 46//2
f 47//1 51//1 54//1
f 54//2 51//2 47//2
f 43//1 49//1 55//1
f 55//2 49//2 43//2
f 56//1 48//1 52//1
f 52//2 48//2 56//2
f 52//1 44//1 57//1
f 57//2 44//2 52//2
f 47//1 54//1 58//1
f 58//2 54//2 47//2
f 55//1 49//1 59//1
f 59//2 49//2 55//2
f 56//1 60//1 48//1
f 48//2 60//2 56//2
f 52//1 57//1 61//1
f 61//2 57//2 52//2
f 58//1 54//1 62//1
f 62//2 54//2 58//2
f 56//1 63//1 60//1
f 60//2 63//2 56//2
f 61//1 57//1 64//1
f 64//2 57//2 61//2
f 58//1 62//1 65//1
f 65//2 62//2 58//2
f 66//1 63//1 56//1
f 56//2 63//2 66//2
f 58//1 65//1 66//1
f 66//2 65//2 58//2
f 66//1 65//1 63//1
f 63//2 65//2 66//2
