# SSTK version 0.8.0
# 191
mtllib original-191.mtl
o mesh146/mesh146-geometry#mesh146-geometry
v 0.469139 -0.155763 -0.001763
v 0.467834 -0.155763 -0.000977
v 0.467850 -0.155763 -0.001789
v 0.469123 -0.155763 -0.000951
v 0.467736 -0.155763 0.003906
v 0.467891 -0.155763 -0.003850
v 0.467637 -0.155763 0.006041
v 0.467159 -0.155763 0.005590
v 0.467792 -0.155763 0.004684
v 0.466955 -0.155763 0.004850
v 0.467996 -0.155763 0.005135
v 0.466925 -0.155763 0.003818
v 0.468482 -0.155763 0.006205
v 0.467021 -0.155763 -0.000993
v 0.468342 -0.155763 0.005345
v 0.467038 -0.155763 -0.001805
v 0.468813 -0.155763 0.005400
v 0.467079 -0.155763 -0.003866
v 0.466016 -0.155763 -0.001013
v 0.468827 -0.155763 0.006202
v 0.466033 -0.155763 -0.001825
v 0.469006 -0.155763 0.005403
v 0.469173 -0.155763 0.006179
v 0.469189 -0.155763 0.005397
vn 0 -1 0
vn 0 1 0
usemtl material_0_0
f 1//1 2//1 3//1
f 2//1 1//1 4//1
f 3//2 2//2 1//2
f 4//2 1//2 2//2
f 5//1 3//1 2//1
f 2//2 3//2 5//2
f 5//1 6//1 3//1
f 3//2 6//2 5//2
f 7//1 6//1 5//1
f 5//2 6//2 7//2
f 8//1 6//1 7//1
f 7//2 6//2 8//2
f 7//1 5//1 9//1
f 9//2 5//2 7//2
f 10//1 6//1 8//1
f 8//2 6//2 10//2
f 7//1 9//1 11//1
f 11//2 9//2 7//2
f 12//1 6//1 10//1
f 10//2 6//2 12//2
f 7//1 11//1 13//1
f 13//2 11//2 7//2
f 14//1 6//1 12//1
f 12//2 6//2 14//2
f 13//1 11//1 15//1
f 15//2 11//2 13//2
f 16//1 6//1 14//1
f 14//2 6//2 16//2
f 13//1 15//1 17//1
f 17//2 15//2 13//2
f 6//1 16//1 18//1
f 18//2 16//2 6//2
f 19//1 16//1 14//1
f 14//2 16//2 19//2
f 13//1 17//1 20//1
f 20//2 17//2 13//2
f 16//1 19//1 21//1
f 21//2 19//2 16//2
f 20//1 17//1 22//1
f 22//2 17//2 20//2
f 20//1 22//1 23//1
f 23//2 22//2 20//2
f 23//1 22//1 24//1
f 24//2 22//2 23//2
