# SSTK version 0.8.0
# 267
mtllib original-267.mtl
o Group214/mesh258/mesh258-geometry#mesh258-geometry
v -0.062290 0.616693 0.050553
v -0.073245 0.624825 0.050553
v -0.062290 0.616693 0.581554
v -0.076677 0.628322 0.581554
v -0.056368 0.613701 0.050553
v -0.086698 0.643596 0.050553
v -0.045025 0.610048 0.581554
v -0.087776 0.646122 0.581554
v -0.034843 0.608770 0.050553
v -0.092024 0.668194 0.316054
v -0.024060 0.609336 0.581554
v -0.092024 0.668194 0.183304
v -0.092024 0.668194 0.448804
v -0.010525 0.612957 0.050553
v -0.092024 0.668194 0.050553
v -0.092024 0.668194 0.581554
v -0.002822 0.616693 0.581554
v 0.010529 0.627203 0.050553
v 0.014169 0.631408 0.581554
v 0.023213 0.647546 0.050553
v 0.024035 0.649919 0.581554
v 0.026913 0.668194 0.316054
v 0.026913 0.668194 0.448804
v 0.026913 0.668194 0.183304
v 0.026913 0.668194 0.581554
v 0.026913 0.668194 0.050553
vn 0.5253890671539214 0.8508621087550746 0
vn 0.6856311270464313 0.7279491348878953 0.00012100002242128639
vn 0.5128049636487958 0.8585049391431626 -0.0005819999587435799
vn -0.5128049636487958 -0.8585049391431626 0.0005819999587435799
vn -0.6856311270464313 -0.7279491348878953 -0.00012100002242128639
vn -0.5253890671539214 -0.8508621087550746 0
vn 0.7713509711090499 0.6364099761632648 -0.00014699999449397402
vn -0.7713509711090499 -0.6364099761632648 0.00014699999449397402
vn 0.3461930934273158 0.9381632531826203 0.00022900006180057782
vn -0.3461930934273158 -0.9381632531826203 -0.00022900006180057782
vn 0.9354949231986766 0.3533399709918496 0.0003369999723333929
vn -0.9354949231986766 -0.3533399709918496 -0.0003369999723333929
vn 0.20742305709009295 0.9782512692490251 -0.0003600000990844237
vn -0.20742305709009295 -0.9782512692490251 0.0003600000990844237
vn 0.9598651174543821 0.2804620343188791 0.00006000000734199362
vn -0.9598651174543821 -0.2804620343188791 -0.00006000000734199362
vn 0.02957400635515891 0.9995622147959474 0.0008700001869545822
vn -0.02957400635515891 -0.9995622147959474 -0.0008700001869545822
vn 0.9796897630145444 0.20051895149477228 0.00034399991678699067
vn -0.9796897630145444 -0.20051895149477228 -0.00034399991678699067
vn -0.15611902508981249 0.9877381587389185 -0.0004240000681406251
vn 0.15611902508981249 -0.9877381587389185 0.0004240000681406251
vn 0.9773555095865848 0.21160389382227118 0
vn -0.9773555095865848 -0.21160389382227118 0
vn 0.9819805675923172 0.18898191678324866 0
vn -0.9819805675923172 -0.18898191678324866 0
vn -0.35793085200117114 0.9337476139099145 0.0009479996080171442
vn 0.35793085200117114 -0.9337476139099145 -0.0009479996080171442
vn -0.5206830038660714 0.8537500063390939 -0.00036900000273963553
vn 0.5206830038660714 -0.8537500063390939 0.00036900000273963553
vn -0.698660184644034 0.7154531890821403 0.0008250002180337204
vn 0.698660184644034 -0.7154531890821403 -0.0008250002180337204
vn -0.8054646703326407 0.5926437574377751 -0.00020399991650506567
vn 0.8054646703326407 -0.5926437574377751 0.00020399991650506567
vn -0.9512771180068851 0.3083370382495203 0.0003400000421774163
vn 0.9512771180068851 -0.3083370382495203 -0.0003400000421774163
vn -0.97091144337226 0.23943886272866188 0.000011999993120405084
vn 0.97091144337226 -0.23943886272866188 -0.000011999993120405084
vn -0.9860948981191457 0.16618298283039057 0.0002609999730341736
vn 0.9860948981191457 -0.16618298283039057 -0.0002609999730341736
vn -0.9878291194828784 0.15554301881370697 0
vn 0.9878291194828784 -0.15554301881370697 0
vn -0.9843241175593128 0.17636902106401797 0
vn 0.9843241175593128 -0.17636902106401797 0
usemtl material_0_0
f 1//1 2//2 3//3
f 3//4 2//5 1//6
f 3//3 2//2 4//7
f 4//8 2//5 3//4
f 5//9 1//1 3//3
f 3//4 1//6 5//10
f 6//11 4//7 2//2
f 2//5 4//8 6//12
f 7//13 5//9 3//3
f 3//4 5//10 7//14
f 6//11 8//15 4//7
f 4//8 8//16 6//12
f 9//17 5//9 7//13
f 7//14 5//10 9//18
f 6//11 10//19 8//15
f 8//16 10//20 6//12
f 11//21 9//17 7//13
f 7//14 9//18 11//22
f 6//11 12//23 10//19
f 10//20 12//24 6//12
f 10//19 13//25 8//15
f 8//16 13//26 10//20
f 14//27 9//17 11//21
f 11//22 9//18 14//28
f 15//23 12//23 6//11
f 6//12 12//24 15//24
f 13//25 16//25 8//15
f 8//16 16//26 13//26
f 17//29 14//27 11//21
f 11//22 14//28 17//30
f 18//31 14//27 17//29
f 17//30 14//28 18//32
f 19//33 18//31 17//29
f 17//30 18//32 19//34
f 18//31 19//33 20//35
f 20//36 19//34 18//32
f 20//35 19//33 21//37
f 21//38 19//34 20//36
f 20//35 21//37 22//39
f 22//40 21//38 20//36
f 22//39 21//37 23//41
f 23//42 21//38 22//40
f 20//35 22//39 24//43
f 24//44 22//40 20//36
f 23//41 21//37 25//41
f 25//42 21//38 23//42
f 20//35 24//43 26//43
f 26//44 24//44 20//36
