# SSTK version 0.8.0
# 40
mtllib original-40.mtl
o Group40/mesh40/mesh40-geometry#mesh40-geometry
v 0.159429 0.039525 -0.157662
v 0.164111 0.042053 -0.140345
v 0.159429 0.026814 -0.113628
v 0.164111 0.043252 -0.175630
v 0.164111 0.030869 -0.111287
v 0.159429 0.032807 -0.196677
v 0.159429 0.013768 -0.096053
v 0.164111 0.030869 -0.211377
v 0.164111 0.011296 -0.087072
v 0.159429 0.009952 -0.230453
v 0.159429 -0.016349 -0.074469
v 0.164111 0.006103 -0.239974
v 0.164111 -0.018663 -0.068392
v 0.159429 -0.022685 -0.250803
v 0.161770 -0.055811 -0.063584
v 0.164111 -0.025054 -0.256578
v 0.162941 -0.055811 -0.062413
v 0.160599 -0.055811 -0.064754
v 0.161770 -0.055811 -0.259080
v 0.164111 -0.055811 -0.061242
v 0.159429 -0.055811 -0.065925
v 0.162941 -0.055811 -0.260251
v 0.160599 -0.055811 -0.257909
v 0.164111 -0.055811 -0.261421
v 0.159429 -0.055811 -0.256739
vn 0.7555485207576141 -0.6544945848558528 -0.027986982247932904
vn 0.7124330319576092 -0.6860190307727564 -0.14770600662564862
vn 0.7566272902460673 -0.5912352268008325 -0.27920610710487936
vn -0.7566272902460673 0.5912352268008325 0.27920610710487936
vn -0.7124330319576092 0.6860190307727564 0.14770600662564862
vn -0.7555485207576141 0.6544945848558528 0.027986982247932904
vn 0.6525091941100952 -0.7485772226886568 0.11774503502709242
vn -0.6525091941100952 0.7485772226886568 -0.11774503502709242
vn 0.6810269037780561 -0.6180749126725107 -0.3926649445205703
vn -0.6810269037780561 0.6180749126725107 0.3926649445205703
vn 0.7418180763093458 -0.6271080645093557 0.23757402443876588
vn -0.7418180763093458 0.6271080645093557 -0.23757402443876588
vn 0.7088981308551635 -0.5184560957015601 -0.47819108826906204
vn -0.7088981308551635 0.5184560957015601 0.47819108826906204
vn 0.6591739453742574 -0.6450579465440502 0.3865099679699201
vn -0.6591739453742574 0.6450579465440502 -0.3865099679699201
vn 0.6897039438636189 -0.4641879622188148 -0.5557319547678667
vn -0.6897039438636189 0.4641879622188148 0.5557319547678667
vn 0.7417640449709302 -0.4811910291731696 0.46716302832269374
vn -0.7417640449709302 0.4811910291731696 -0.46716302832269374
vn 0.7244171130550789 -0.2429600379171967 -0.6451281006809573
vn -0.7244171130550789 0.2429600379171967 0.6451281006809573
vn 0.6825150077895439 -0.43947500501572845 0.5839820066649867
vn -0.6825150077895439 0.43947500501572845 -0.5839820066649867
vn 0.7071431421099752 -0.20295004078555448 -0.6773181361162369
vn -0.7071431421099752 0.20295004078555448 0.6773181361162369
vn 0.7249660067537832 -0.21076400196347755 0.6557460061089297
vn -0.7249660067537832 0.21076400196347755 -0.6557460061089297
vn 0.7207919388404462 -0.13892898821180624 -0.6790859423792207
vn -0.7207919388404462 0.13892898821180624 0.6790859423792207
vn 0.7053969840097087 -0.1735879960650207 0.6872279844215726
vn -0.7053969840097087 0.1735879960650207 -0.6872279844215726
vn 0.700649046242138 -0.1348400088993059 -0.700649046242138
vn -0.700649046242138 0.1348400088993059 0.700649046242138
vn 0.6989632377740537 -0.15133005147961684 -0.6989632377740537
vn -0.6989632377740537 0.15133005147961684 0.6989632377740537
vn 0.7182910755160996 -0.11556301214948694 0.6860780721294497
vn -0.7182910755160996 0.11556301214948694 -0.6860780721294497
vn 0.7027641928943906 -0.11065703037309067 0.7027641928943906
vn -0.7027641928943906 0.11065703037309067 -0.7027641928943906
vn 0.7014988511942211 -0.12569297333731816 0.7014988511942211
vn -0.7014988511942211 0.12569297333731816 -0.7014988511942211
usemtl material_0_0
f 1//1 2//2 3//3
f 3//4 2//5 1//6
f 2//2 1//1 4//7
f 4//8 1//6 2//5
f 2//2 5//9 3//3
f 3//4 5//10 2//5
f 6//11 4//7 1//1
f 1//6 4//8 6//12
f 3//3 5//9 7//13
f 7//14 5//10 3//4
f 4//7 6//11 8//15
f 8//16 6//12 4//8
f 5//9 9//17 7//13
f 7//14 9//18 5//10
f 10//19 8//15 6//11
f 6//12 8//16 10//20
f 7//13 9//17 11//21
f 11//22 9//18 7//14
f 8//15 10//19 12//23
f 12//24 10//20 8//16
f 9//17 13//25 11//21
f 11//22 13//26 9//18
f 14//27 12//23 10//19
f 10//20 12//24 14//28
f 11//21 13//25 15//29
f 15//30 13//26 11//22
f 12//23 14//27 16//31
f 16//32 14//28 12//24
f 13//25 17//33 15//29
f 15//30 17//34 13//26
f 11//21 15//29 18//35
f 18//36 15//30 11//22
f 19//37 16//31 14//27
f 14//28 16//32 19//38
f 13//25 20//33 17//33
f 17//34 20//34 13//26
f 11//21 18//35 21//35
f 21//36 18//36 11//22
f 22//39 16//31 19//37
f 19//38 16//32 22//40
f 14//27 23//41 19//37
f 19//38 23//42 14//28
f 16//31 22//39 24//39
f 24//40 22//40 16//32
f 14//27 25//41 23//41
f 23//42 25//42 14//28
