# SSTK version 0.8.0
# 74
mtllib original-74.mtl
o mesh71/mesh71-geometry#mesh71-geometry
v 0.124310 0.032670 -0.170632
v 0.124310 0.041937 -0.161332
v 0.124310 0.032670 -0.152032
v 0.124310 0.040059 -0.180402
v 0.124310 0.040059 -0.142262
v 0.124310 0.034496 -0.198738
v 0.124310 0.034496 -0.123925
v 0.124310 0.032670 -0.202156
v 0.124310 0.032670 -0.120508
v 0.124310 0.028803 -0.188825
v 0.124310 0.028803 -0.133838
v 0.124310 0.021238 -0.205817
v 0.124310 0.021238 -0.116847
v 0.124310 0.025464 -0.215638
v 0.124310 0.025464 -0.107026
v 0.124310 0.010305 -0.220863
v 0.124310 0.010305 -0.101800
v 0.124310 0.013307 -0.230450
v 0.124310 0.013307 -0.092213
v 0.124310 -0.003516 -0.233309
v 0.124310 -0.003516 -0.089355
v 0.124310 -0.001505 -0.242606
v 0.124310 -0.001505 -0.080057
v 0.124310 -0.019624 -0.242608
v 0.124310 -0.019624 -0.080055
v 0.124310 -0.018404 -0.251639
v 0.124310 -0.018404 -0.071024
v 0.124310 -0.037313 -0.248356
v 0.124310 -0.037313 -0.074308
v 0.124310 -0.036741 -0.257202
v 0.124310 -0.036741 -0.065462
v 0.124310 -0.055811 -0.250300
v 0.124310 -0.055811 -0.072363
v 0.124310 -0.055811 -0.259080
v 0.124310 -0.055811 -0.063584
v 0.124310 -0.074881 -0.257202
v 0.124310 -0.074881 -0.065462
v 0.124310 -0.074309 -0.248356
v 0.124310 -0.074309 -0.074308
v 0.124310 -0.093218 -0.251639
v 0.124310 -0.093218 -0.071024
v 0.124310 -0.091998 -0.242608
v 0.124310 -0.091998 -0.080055
v 0.124310 -0.110117 -0.242606
v 0.124310 -0.110117 -0.080057
v 0.124310 -0.108106 -0.233309
v 0.124310 -0.108106 -0.089355
v 0.124310 -0.124929 -0.230450
v 0.124310 -0.124929 -0.092213
v 0.124310 -0.121927 -0.220863
v 0.124310 -0.121927 -0.101800
v 0.124310 -0.137086 -0.215638
v 0.124310 -0.137086 -0.107026
v 0.124310 -0.132860 -0.205817
v 0.124310 -0.132860 -0.116847
v 0.124310 -0.144292 -0.202156
v 0.124310 -0.144292 -0.120508
v 0.124310 -0.140425 -0.188825
v 0.124310 -0.140425 -0.133838
v 0.124310 -0.144292 -0.170632
v 0.124310 -0.144292 -0.152032
v 0.124310 -0.146119 -0.123925
v 0.124310 -0.151681 -0.142262
v 0.124310 -0.153559 -0.161332
v 0.124310 -0.151681 -0.180402
v 0.124310 -0.146119 -0.198738
vn 1 0 0
vn -1 0 0
usemtl material_0_0
f 1//1 2//1 3//1
f 3//2 2//2 1//2
f 4//1 2//1 1//1
f 1//2 2//2 4//2
f 2//1 5//1 3//1
f 3//2 5//2 2//2
f 6//1 4//1 1//1
f 1//2 4//2 6//2
f 3//1 5//1 7//1
f 7//2 5//2 3//2
f 8//1 6//1 1//1
f 1//2 6//2 8//2
f 3//1 7//1 9//1
f 9//2 7//2 3//2
f 8//1 1//1 10//1
f 10//2 1//2 8//2
f 3//1 9//1 11//1
f 11//2 9//2 3//2
f 12//1 8//1 10//1
f 10//2 8//2 12//2
f 11//1 9//1 13//1
f 13//2 9//2 11//2
f 14//1 8//1 12//1
f 12//2 8//2 14//2
f 9//1 15//1 13//1
f 13//2 15//2 9//2
f 16//1 14//1 12//1
f 12//2 14//2 16//2
f 13//1 15//1 17//1
f 17//2 15//2 13//2
f 18//1 14//1 16//1
f 16//2 14//2 18//2
f 15//1 19//1 17//1
f 17//2 19//2 15//2
f 20//1 18//1 16//1
f 16//2 18//2 20//2
f 17//1 19//1 21//1
f 21//2 19//2 17//2
f 22//1 18//1 20//1
f 20//2 18//2 22//2
f 19//1 23//1 21//1
f 21//2 23//2 19//2
f 24//1 22//1 20//1
f 20//2 22//2 24//2
f 21//1 23//1 25//1
f 25//2 23//2 21//2
f 26//1 22//1 24//1
f 24//2 22//2 26//2
f 23//1 27//1 25//1
f 25//2 27//2 23//2
f 26//1 24//1 28//1
f 28//2 24//2 26//2
f 25//1 27//1 29//1
f 29//2 27//2 25//2
f 30//1 26//1 28//1
f 28//2 26//2 30//2
f 29//1 27//1 31//1
f 31//2 27//2 29//2
f 30//1 28//1 32//1
f 32//2 28//2 30//2
f 29//1 31//1 33//1
f 33//2 31//2 29//2
f 34//1 30//1 32//1
f 32//2 30//2 34//2
f 33//1 31//1 35//1
f 35//2 31//2 33//2
f 34//1 32//1 36//1
f 36//2 32//2 34//2
f 33//1 35//1 37//1
f 37//2 35//2 33//2
f 36//1 32//1 38//1
f 38//2 32//2 36//2
f 39//1 33//1 37//1
f 37//2 33//2 39//2
f 36//1 38//1 40//1
f 40//2 38//2 36//2
f 39//1 37//1 41//1
f 41//2 37//2 39//2
f 40//1 38//1 42//1
f 42//2 38//2 40//2
f 43//1 39//1 41//1
f 41//2 39//2 43//2
f 40//1 42//1 44//1
f 44//2 42//2 40//2
f 45//1 43//1 41//1
f 41//2 43//2 45//2
f 42//1 46//1 44//1
f 44//2 46//2 42//2
f 47//1 43//1 45//1
f 45//2 43//2 47//2
f 44//1 46//1 48//1
f 48//2 46//2 44//2
f 49//1 47//1 45//1
f 45//2 47//2 49//2
f 46//1 50//1 48//1
f 48//2 50//2 46//2
f 51//1 47//1 49//1
f 49//2 47//2 51//2
f 48//1 50//1 52//1
f 52//2 50//2 48//2
f 53//1 51//1 49//1
f 49//2 51//2 53//2
f 50//1 54//1 52//1
f 52//2 54//2 50//2
f 55//1 51//1 53//1
f 53//2 51//2 55//2
f 52//1 54//1 56//1
f 56//2 54//2 52//2
f 57//1 55//1 53//1
f 53//2 55//2 57//2
f 54//1 58//1 56//1
f 56//2 58//2 54//2
f 59//1 55//1 57//1
f 57//2 55//2 59//2
f 56//1 58//1 60//1
f 60//2 58//2 56//2
f 61//1 59//1 57//1
f 57//2 59//2 61//2
f 61//1 57//1 62//1
f 62//2 57//2 61//2
f 61//1 62//1 63//1
f 63//2 62//2 61//2
f 64//1 61//1 63//1
f 63//2 61//2 64//2
f 65//1 61//1 64//1
f 64//2 61//2 65//2
f 66//1 61//1 65//1
f 65//2 61//2 66//2
f 56//1 61//1 66//1
f 66//2 61//2 56//2
