# SSTK version 0.8.0
# 139
mtllib original-139.mtl
o Group100/mesh133/mesh133-geometry#mesh133-geometry
v 0.259266 0.022221 -0.176334
v 0.264882 0.021050 -0.175404
v 0.264972 0.021636 -0.175923
v 0.258843 0.021050 -0.175152
v 0.265062 0.022221 -0.176442
v 0.253850 0.021050 -0.172738
v 0.265152 0.022806 -0.176961
v 0.254255 0.022221 -0.174297
v 0.265241 0.023391 -0.177480
v 0.259048 0.023391 -0.177365
v 0.251476 0.021050 -0.170479
v 0.253693 0.023391 -0.175188
v 0.249858 0.023391 -0.171828
v 0.248219 0.022221 -0.167059
v 0.247242 0.023391 -0.167452
v 0.249680 0.021050 -0.167738
v 0.247116 0.022221 -0.161763
v 0.246062 0.023391 -0.161793
v 0.248477 0.021050 -0.164308
v 0.248050 0.022221 -0.156043
v 0.247061 0.023391 -0.155680
v 0.248471 0.021050 -0.158382
v 0.251042 0.022221 -0.151078
v 0.250258 0.023391 -0.150374
v 0.250979 0.021050 -0.152816
v 0.255311 0.022221 -0.147757
v 0.254821 0.023391 -0.146824
v 0.255273 0.021050 -0.148981
v 0.259648 0.023391 -0.145183
v 0.260008 0.021050 -0.147260
v 0.259738 0.022806 -0.145702
v 0.259918 0.021636 -0.146740
v 0.259828 0.022221 -0.146221
vn 0.11025800937738897 0.6760110574944049 0.7285960619667337
vn 0.021790994175899976 0.6839058172118326 0.7292448050940379
vn 0.013969996744627917 0.662223845684644 0.7491758254225744
vn -0.013969996744627917 -0.662223845684644 -0.7491758254225744
vn -0.021790994175899976 -0.6839058172118326 -0.7292448050940379
vn -0.11025800937738897 -0.6760110574944049 -0.7285960619667337
vn 0.1914779961615364 0.6622849867235041 0.7243719854788773
vn -0.1914779961615364 -0.6622849867235041 -0.7243719854788773
vn 0.3909899575664488 0.6511339293334152 0.6505009294021139
vn -0.3909899575664488 -0.6511339293334152 -0.6505009294021139
vn 0.3973007443350668 0.670802568335332 0.6262395970118179
vn -0.3973007443350668 -0.670802568335332 -0.6262395970118179
vn 0.19418205246712383 0.6683981805982049 0.7180091940028794
vn -0.19418205246712383 -0.6683981805982049 -0.7180091940028794
vn 0.5962359769826087 0.6303069756673148 0.4972079808055351
vn -0.5962359769826087 -0.6303069756673148 -0.4972079808055351
vn 0.39021199352560265 0.6689439889008814 0.6326519895030384
vn -0.39021199352560265 -0.6689439889008814 -0.6326519895030384
vn 0.5708519261520308 0.668964913459694 0.4760399384173356
vn -0.5708519261520308 -0.668964913459694 -0.4760399384173356
vn 0.6767711184721785 0.6709001174444303 0.30310705306041
vn -0.6767711184721785 -0.6709001174444303 -0.30310705306041
vn 0.7071929078319079 0.6681409129215347 0.23122696986430674
vn -0.7071929078319079 -0.6681409129215347 -0.23122696986430674
vn 0.7588447162615635 0.5755637847918487 0.3047638860462139
vn -0.7588447162615635 -0.5755637847918487 -0.3047638860462139
vn 0.7357818261608953 0.6708218415086317 0.09286097806025019
vn -0.7357818261608953 -0.6708218415086317 -0.09286097806025019
vn 0.7434693382618979 0.6681003039706752 -0.0299220136138459
vn -0.7434693382618979 -0.6681003039706752 0.0299220136138459
vn 0.8392561371189378 0.5380740879113588 0.07826501278705636
vn -0.8392561371189378 -0.5380740879113588 -0.07826501278705636
vn 0.7101974986092652 0.681465518893691 -0.1767038752492284
vn -0.7101974986092652 -0.681465518893691 0.1767038752492284
vn 0.680470718092608 0.6682057231737858 -0.3007668753974222
vn -0.680470718092608 -0.6682057231737858 0.3007668753974222
vn 0.7877881928434831 0.5700431395414471 -0.2333250571158809
vn -0.7877881928434831 -0.5700431395414471 0.2333250571158809
vn 0.5866761107310196 0.6841931291366761 -0.4332330817697191
vn -0.5866761107310196 -0.6841931291366761 0.4332330817697191
vn 0.5247238882807864 0.6683978576910933 -0.5271708877597945
vn -0.5247238882807864 -0.6683978576910933 0.5271708877597945
vn 0.5911160415696458 0.6304140443332389 -0.5031500353835241
vn -0.5911160415696458 -0.6304140443332389 0.5031500353835241
vn 0.33331794122121955 0.6763378807315453 -0.656860884166206
vn -0.33331794122121955 -0.6763378807315453 0.656860884166206
vn 0.35278684299136853 0.6689437022849993 -0.6542597088201456
vn -0.35278684299136853 -0.6689437022849993 0.6542597088201456
vn 0.3926598526149556 0.6586697527680254 -0.6418507590810416
vn -0.3926598526149556 -0.6586697527680254 0.6418507590810416
vn 0.24051691876903217 0.6644297755988477 -0.7075907610218746
vn -0.24051691876903217 -0.6644297755988477 0.7075907610218746
vn 0.24285796616527336 0.680892905138688 -0.6909449037382536
vn -0.24285796616527336 -0.680892905138688 0.6909449037382536
usemtl material_0_0
f 1//1 2//2 3//3
f 3//4 2//5 1//6
f 1//1 4//7 2//2
f 2//5 4//8 1//6
f 1//1 3//3 5//3
f 5//4 3//4 1//6
f 1//1 6//9 4//7
f 4//8 6//10 1//6
f 7//3 1//1 5//3
f 5//4 1//6 7//4
f 1//1 8//11 6//9
f 6//10 8//12 1//6
f 9//3 1//1 7//3
f 7//4 1//6 9//4
f 10//13 8//11 1//1
f 1//6 8//12 10//14
f 8//11 11//15 6//9
f 6//10 11//16 8//12
f 10//13 1//1 9//3
f 9//4 1//6 10//14
f 12//17 8//11 10//13
f 10//14 8//12 12//18
f 8//11 13//19 11//15
f 11//16 13//20 8//12
f 8//11 12//17 13//19
f 13//20 12//18 8//12
f 11//15 13//19 14//21
f 14//22 13//20 11//16
f 13//19 15//23 14//21
f 14//22 15//24 13//20
f 11//15 14//21 16//25
f 16//26 14//22 11//16
f 15//23 17//27 14//21
f 14//22 17//28 15//24
f 16//25 14//21 17//27
f 17//28 14//22 16//26
f 15//23 18//29 17//27
f 17//28 18//30 15//24
f 16//25 17//27 19//31
f 19//32 17//28 16//26
f 18//29 20//33 17//27
f 17//28 20//34 18//30
f 19//31 17//27 20//33
f 20//34 17//28 19//32
f 18//29 21//35 20//33
f 20//34 21//36 18//30
f 19//31 20//33 22//37
f 22//38 20//34 19//32
f 23//39 20//33 21//35
f 21//36 20//34 23//40
f 23//39 22//37 20//33
f 20//34 22//38 23//40
f 23//39 21//35 24//41
f 24//42 21//36 23//40
f 22//37 23//39 25//43
f 25//44 23//40 22//38
f 26//45 23//39 24//41
f 24//42 23//40 26//46
f 26//45 25//43 23//39
f 23//40 25//44 26//46
f 26//45 24//41 27//47
f 27//48 24//42 26//46
f 26//45 28//49 25//43
f 25//44 28//50 26//46
f 29//51 26//45 27//47
f 27//48 26//46 29//52
f 30//53 28//49 26//45
f 26//46 28//50 30//54
f 29//51 31//51 26//45
f 26//46 31//52 29//52
f 26//45 32//51 30//53
f 30//54 32//52 26//46
f 31//51 33//51 26//45
f 26//46 33//52 31//52
f 33//51 32//51 26//45
f 26//46 32//52 33//52
