# SSTK version 0.8.0
# 18
mtllib original-18.mtl
o Group18/mesh18/mesh18-geometry#mesh18-geometry
v -0.021604 -0.055811 -0.056074
v -0.021604 -0.360177 -0.056074
v -0.032556 -0.209165 -0.055506
v 0.000261 -0.084213 -0.060723
v -0.032556 -0.360177 -0.055506
v -0.032556 -0.058152 -0.055506
v 0.013142 -0.360177 -0.065881
v -0.032556 0.092860 -0.055506
v 0.024717 -0.108677 -0.072343
v -0.021604 0.243872 -0.056074
v 0.040717 -0.360177 -0.084976
v 0.000187 -0.027482 -0.060699
v -0.032556 0.243872 -0.055506
v 0.045435 -0.130893 -0.089803
v 0.015910 0.243872 -0.067257
v 0.059092 -0.360177 -0.108419
v 0.024696 -0.002966 -0.072330
v 0.059092 -0.146491 -0.108419
v 0.044621 0.243872 -0.088925
v 0.060745 -0.148898 -0.111391
v 0.045449 0.019286 -0.089817
v 0.071082 -0.360177 -0.139926
v 0.059092 0.243872 -0.108419
v 0.071082 -0.159695 -0.139926
v 0.059092 0.034867 -0.108419
v 0.072307 -0.360177 -0.175574
v 0.060756 0.037289 -0.111411
v 0.072307 -0.159693 -0.175574
v 0.071082 0.243872 -0.139926
v 0.061269 -0.148911 -0.210281
v 0.072306 -0.159693 -0.175584
v 0.071080 0.048071 -0.139917
v 0.060760 -0.360177 -0.211244
v 0.073192 0.243872 -0.157262
v 0.071082 0.048071 -0.139926
v 0.041411 -0.130908 -0.237016
v 0.072307 0.048073 -0.175574
v 0.037338 -0.360177 -0.240792
v 0.072307 0.243872 -0.175574
v 0.017688 -0.108656 -0.254470
v 0.061739 0.243872 -0.209368
v 0.006986 -0.360177 -0.259492
v 0.061255 0.037276 -0.210307
v -0.005958 -0.084140 -0.263761
v 0.040388 0.243872 -0.238001
v -0.024144 -0.360177 -0.266823
v 0.041394 0.019271 -0.237031
v -0.024144 -0.055811 -0.266823
v 0.017710 -0.002945 -0.254458
v -0.032556 -0.209165 -0.267157
v 0.008740 0.243872 -0.258768
v -0.032556 -0.058152 -0.267157
v -0.032556 -0.360177 -0.267157
v -0.005893 -0.027409 -0.263744
v -0.032556 0.092860 -0.267157
v -0.024144 0.243872 -0.266823
v -0.032556 0.243872 -0.267157
vn -0.10408899861847877 0 -0.9945679867995965
vn -0.14650793998296144 0.0013339994535267886 -0.9892085947702877
vn -0.051813987195599535 0 -0.9986567532094771
vn 0.051813987195599535 0 0.9986567532094771
vn 0.14650793998296144 -0.0013339994535267886 0.9892085947702877
vn 0.10408899861847877 0 0.9945679867995965
vn -0.3053418591933135 0.0006739996891890334 -0.9522425608786816
vn 0.3053418591933135 -0.0006739996891890334 0.9522425608786816
vn -0.42815588255771386 0.002383999346074038 -0.9037017521164509
vn 0.42815588255771386 -0.002383999346074038 0.9037017521164509
vn -0.5521642088989442 -0.00033200012560461616 -0.8337353154250572
vn 0.5521642088989442 0.00033200012560461616 0.8337353154250572
vn -0.150012944976837 -0.0016609993907627562 -0.9886826373616562
vn 0.150012944976837 0.0016609993907627562 0.9886826373616562
vn -0.6727455982983412 0.001853998892962924 -0.7398715582169055
vn 0.6727455982983412 -0.001853998892962924 0.7398715582169055
vn -0.30969598131511294 -0.00114499993091851 -0.9508349426332772
vn 0.30969598131511294 0.00114499993091851 0.9508349426332772
vn -0.7505666714702847 0.00014799993521925724 -0.6607947107642713
vn 0.7505666714702847 -0.00014799993521925724 0.6607947107642713
vn -0.4445249672445122 -0.002847999790140672 -0.8957619339944406
vn 0.4445249672445122 0.002847999790140672 0.8957619339944406
vn -0.8564974996336797 0.0013900008108503744 -0.5161493010932019
vn 0.8564974996336797 -0.0013900008108503744 0.5161493010932019
vn -0.5628809315497426 -0.0003969999517218463 -0.8265378994872117
vn 0.5628809315497426 0.0003969999517218463 0.8265378994872117
vn -0.8417842284383842 0 -0.5398141464915441
vn 0.8417842284383842 0 0.5398141464915441
vn -0.688653070740513 -0.0016680001713418296 -0.7250890744833288
vn 0.688653070740513 0.0016680001713418296 0.7250890744833288
vn -0.9186270343589483 0.0007710000288374169 -0.3951250147786637
vn 0.9186270343589483 -0.0007710000288374169 0.3951250147786637
vn -0.7559780115403825 0.00002400000036651736 -0.6545970099927507
vn 0.7559780115403825 -0.00002400000036651736 0.6545970099927507
vn -0.9691768178732788 0.0007779998537991141 -0.24636495370334865
vn 0.9691768178732788 -0.0007779998537991141 0.24636495370334865
vn -0.8598922004387455 -0.0007460001738906825 -0.5104751189904879
vn 0.8598922004387455 0.0007460001738906825 0.5104751189904879
vn -0.990442116671612 0 -0.1379290162476942
vn 0.990442116671612 0 0.1379290162476942
vn -0.8418381300033887 0 -0.5397300833494437
vn 0.8418381300033887 0 0.5397300833494437
vn -0.9994102766647863 0 -0.034338009505723806
vn 0.9994102766647863 0 0.034338009505723806
vn -0.9186494802994665 -0.0007959995496851846 -0.3950727764985045
vn 0.9186494802994665 0.0007959995496851846 0.3950727764985045
vn -0.9374466698224352 -0.0011909995805186298 -0.34812687738642817
vn 0.9374466698224352 0.0011909995805186298 0.34812687738642817
vn -0.9133368223386521 0.00003799999260818975 0.40720492079091375
vn -0.9521737109062988 0.0004479998639806981 0.30555690722850654
vn -0.9529489047799208 0.000008999999100639326 0.3031309697107003
vn 0.9529489047799208 -0.000008999999100639326 -0.3031309697107003
vn 0.9521737109062988 -0.0004479998639806981 -0.30555690722850654
vn 0.9133368223386521 -0.00003799999260818975 -0.40720492079091375
vn -0.94022420714975 -0.000007000001542161391 -0.3405560750311525
vn 0.94022420714975 0.000007000001542161391 0.3405560750311525
vn -0.8571538310729967 0.0012809997475417612 0.5150588984927174
vn 0.8571538310729967 -0.0012809997475417612 -0.5150588984927174
vn -0.9993588261300677 0.0025809995509538737 -0.03571099378694828
vn -0.9969746666406395 0.00386599870732238 -0.07763097404245793
vn -0.992679534893103 0 -0.12077806507976818
vn 0.992679534893103 0 0.12077806507976818
vn 0.9969746666406395 -0.00386599870732238 0.07763097404245793
vn 0.9993588261300677 -0.0025809995509538737 0.03571099378694828
vn -0.7334237282870948 0.0000719999733258799 0.6797717481636476
vn 0.7334237282870948 -0.0000719999733258799 -0.6797717481636476
vn -0.9878130330374075 0.002171000072609064 0.1556300052050456
vn 0.9878130330374075 -0.002171000072609064 -0.1556300052050456
vn -0.6411988485587885 0.002127999497399392 0.7673718187586922
vn 0.6411988485587885 -0.002127999497399392 -0.7673718187586922
vn -0.984610340775667 0 0.17476406048620133
vn 0.984610340775667 0 -0.17476406048620133
vn -0.4986051322433117 -0.00009100002413581358 0.8668292299061132
vn 0.4986051322433117 0.00009100002413581358 -0.8668292299061132
vn -0.914415360284295 0.000006000002363941519 0.40477715948425613
vn 0.914415360284295 -0.000006000002363941519 -0.40477715948425613
vn -0.37725609047130293 0.0022600005419796294 0.9261062220932642
vn 0.37725609047130293 -0.0022600005419796294 -0.9261062220932642
vn -0.8628780666469786 -0.0003360000259520832 0.5054120390370165
vn 0.8628780666469786 0.0003360000259520832 -0.5054120390370165
vn -0.25550210185478345 0.00047100018776192814 0.966808385413889
vn 0.25550210185478345 -0.00047100018776192814 -0.966808385413889
vn -0.6955880460962736 -0.0016140001069591431 0.7184390476105981
vn 0.6955880460962736 0.0016140001069591431 -0.7184390476105981
vn -0.11910698083265109 0.0010789998263612069 0.9928808402201671
vn 0.11910698083265109 -0.0010789998263612069 -0.9928808402201671
vn -0.7054358084837273 -0.00009899997312300483 0.7087738075775059
vn 0.7054358084837273 0.00009899997312300483 -0.7087738075775059
vn -0.08206400503770425 0 0.9966270611804455
vn 0.08206400503770425 0 -0.9966270611804455
vn -0.5065640774726495 -0.0005650000864098987 0.8622021318630486
vn 0.5065640774726495 0.0005650000864098987 -0.8622021318630486
vn -0.039775984967524505 0 0.9992086223706556
vn 0.039775984967524505 0 -0.9992086223706556
vn -0.38884696360198173 -0.002519999764115638 0.9212989137618193
vn 0.38884696360198173 0.002519999764115638 -0.9212989137618193
vn -0.2586230168655833 -0.000719000046888366 0.9659780629943294
vn 0.2586230168655833 0.000719000046888366 -0.9659780629943294
vn -0.12140404709749517 -0.0012500004849255026 0.9926023850702439
vn 0.12140404709749517 0.0012500004849255026 -0.9926023850702439
usemtl material_0_0
f 1//1 2//2 3//3
f 3//4 2//5 1//6
f 1//1 4//7 2//2
f 2//5 4//8 1//6
f 3//3 2//2 5//3
f 5//4 2//5 3//4
f 1//1 3//3 6//3
f 6//4 3//4 1//6
f 4//7 7//9 2//2
f 2//5 7//10 4//8
f 8//3 1//1 6//3
f 6//4 1//6 8//4
f 4//7 9//11 7//9
f 7//10 9//12 4//8
f 10//13 1//1 8//3
f 8//4 1//6 10//14
f 9//11 11//15 7//9
f 7//10 11//16 9//12
f 10//13 12//17 1//1
f 1//6 12//18 10//14
f 10//13 8//3 13//3
f 13//4 8//4 10//14
f 9//11 14//19 11//15
f 11//16 14//20 9//12
f 15//21 12//17 10//13
f 10//14 12//18 15//22
f 16//23 11//15 14//19
f 14//20 11//16 16//24
f 15//21 17//25 12//17
f 12//18 17//26 15//22
f 16//23 14//19 18//27
f 18//28 14//20 16//24
f 19//29 17//25 15//21
f 15//22 17//26 19//30
f 20//31 16//23 18//27
f 18//28 16//24 20//32
f 19//29 21//33 17//25
f 17//26 21//34 19//30
f 22//35 16//23 20//31
f 20//32 16//24 22//36
f 23//37 21//33 19//29
f 19//30 21//34 23//38
f 22//35 20//31 24//39
f 24//40 20//32 22//36
f 25//41 21//33 23//37
f 23//38 21//34 25//42
f 26//43 22//35 24//39
f 24//40 22//36 26//44
f 27//45 25//41 23//37
f 23//38 25//42 27//46
f 26//43 24//39 28//43
f 28//44 24//40 26//44
f 29//47 27//45 23//37
f 23//38 27//46 29//48
f 30//49 26//50 31//51
f 31//52 26//53 30//54
f 29//47 32//55 27//45
f 27//46 32//56 29//48
f 33//57 26//50 30//49
f 30//54 26//53 33//58
f 34//59 35//60 29//61
f 29//62 35//63 34//64
f 36//65 33//57 30//49
f 30//54 33//58 36//66
f 37//67 35//60 34//59
f 34//64 35//63 37//68
f 38//69 33//57 36//65
f 36//66 33//58 38//70
f 37//67 34//59 39//71
f 39//72 34//64 37//68
f 40//73 38//69 36//65
f 36//66 38//70 40//74
f 41//75 37//67 39//71
f 39//72 37//68 41//76
f 40//73 42//77 38//69
f 38//70 42//78 40//74
f 43//79 37//67 41//75
f 41//76 37//68 43//80
f 44//81 42//77 40//73
f 40//74 42//78 44//82
f 45//83 43//79 41//75
f 41//76 43//80 45//84
f 44//81 46//85 42//77
f 42//78 46//86 44//82
f 45//83 47//87 43//79
f 43//80 47//88 45//84
f 48//89 46//85 44//81
f 44//82 46//86 48//90
f 45//83 49//91 47//87
f 47//88 49//92 45//84
f 48//89 50//93 46//85
f 46//86 50//94 48//90
f 51//95 49//91 45//83
f 45//84 49//92 51//96
f 48//89 52//93 50//93
f 50//94 52//94 48//90
f 50//93 53//93 46//85
f 46//86 53//94 50//94
f 51//95 54//97 49//91
f 49//92 54//98 51//96
f 55//93 52//93 48//89
f 48//90 52//94 55//94
f 56//99 54//97 51//95
f 51//96 54//98 56//100
f 56//99 55//93 48//89
f 48//90 55//94 56//100
f 56//99 48//89 54//97
f 54//98 48//90 56//100
f 57//93 55//93 56//99
f 56//100 55//94 57//94
