# SSTK version 0.8.0
# 126
mtllib original-126.mtl
o mesh120/mesh120-geometry#mesh120-geometry
v 0.328000 0.041526 -0.201650
v 0.328000 0.049546 -0.161332
v 0.328000 0.047522 -0.140778
v 0.328000 0.047522 -0.181886
v 0.328000 0.041526 -0.121013
v 0.328000 0.031790 -0.102798
v 0.328000 0.031790 -0.219865
v 0.328000 0.018688 -0.235831
v 0.328000 0.002722 -0.248933
v 0.328000 -0.015493 -0.258669
v 0.328000 0.018688 -0.086833
v 0.328000 0.002722 -0.073730
v 0.328000 -0.015493 -0.063994
v 0.328000 -0.035257 -0.264665
v 0.328000 -0.055811 -0.266689
v 0.328000 -0.035257 -0.057999
v 0.328000 -0.055811 -0.055975
v 0.328000 -0.076365 -0.264665
v 0.328000 -0.076365 -0.057999
v 0.328000 -0.096130 -0.063994
v 0.328000 -0.096130 -0.258669
v 0.328000 -0.114344 -0.248933
v 0.328000 -0.130310 -0.235831
v 0.328000 -0.143412 -0.219865
v 0.328000 -0.114344 -0.073730
v 0.328000 -0.130310 -0.086833
v 0.328000 -0.143412 -0.102798
v 0.328000 -0.153149 -0.201650
v 0.328000 -0.159144 -0.181886
v 0.328000 -0.161168 -0.161332
v 0.328000 -0.159144 -0.140778
v 0.328000 -0.153149 -0.121013
vn 1 0 0
vn -1 0 0
usemtl material_0_0
f 1//1 2//1 3//1
f 3//2 2//2 1//2
f 1//1 4//1 2//1
f 2//2 4//2 1//2
f 1//1 3//1 5//1
f 5//2 3//2 1//2
f 1//1 5//1 6//1
f 6//2 5//2 1//2
f 7//1 1//1 6//1
f 6//2 1//2 7//2
f 8//1 7//1 6//1
f 6//2 7//2 8//2
f 9//1 8//1 6//1
f 6//2 8//2 9//2
f 10//1 9//1 6//1
f 6//2 9//2 10//2
f 10//1 6//1 11//1
f 11//2 6//2 10//2
f 10//1 11//1 12//1
f 12//2 11//2 10//2
f 10//1 12//1 13//1
f 13//2 12//2 10//2
f 14//1 10//1 13//1
f 13//2 10//2 14//2
f 15//1 14//1 13//1
f 13//2 14//2 15//2
f 15//1 13//1 16//1
f 16//2 13//2 15//2
f 15//1 16//1 17//1
f 17//2 16//2 15//2
f 15//1 17//1 18//1
f 18//2 17//2 15//2
f 18//1 17//1 19//1
f 19//2 17//2 18//2
f 18//1 19//1 20//1
f 20//2 19//2 18//2
f 18//1 20//1 21//1
f 21//2 20//2 18//2
f 21//1 20//1 22//1
f 22//2 20//2 21//2
f 22//1 20//1 23//1
f 23//2 20//2 22//2
f 23//1 20//1 24//1
f 24//2 20//2 23//2
f 24//1 20//1 25//1
f 25//2 20//2 24//2
f 24//1 25//1 26//1
f 26//2 25//2 24//2
f 24//1 26//1 27//1
f 27//2 26//2 24//2
f 24//1 27//1 28//1
f 28//2 27//2 24//2
f 28//1 27//1 29//1
f 29//2 27//2 28//2
f 29//1 27//1 30//1
f 30//2 27//2 29//2
f 30//1 27//1 31//1
f 31//2 27//2 30//2
f 31//1 27//1 32//1
f 32//2 27//2 31//2
