# SSTK version 0.8.0
# 186
mtllib original-186.mtl
o Group137/mesh178/mesh178-geometry#mesh178-geometry
v -0.091837 0.268106 0.795425
v -0.091351 0.356092 0.805995
v -0.091351 0.268582 0.809051
v -0.091248 0.355446 0.787507
v -0.087771 0.269041 0.822207
v -0.085571 0.267330 0.773209
v -0.085765 0.356707 0.823620
v -0.084270 0.354756 0.767736
v -0.080407 0.269502 0.835423
v -0.069679 0.310404 0.752178
v -0.073234 0.357294 0.840432
v -0.069679 0.332282 0.751414
v -0.069679 0.288526 0.752942
v -0.061955 0.270074 0.851797
v -0.069679 0.354159 0.750650
v -0.069679 0.266649 0.753706
v -0.054228 0.357713 0.852424
v -0.037683 0.270338 0.859346
v -0.032126 0.357856 0.856510
v -0.013872 0.270241 0.856558
v -0.011505 0.357722 0.852663
v 0.004568 0.313647 0.845037
v 0.004568 0.335524 0.844273
v 0.004568 0.291769 0.845801
v 0.004568 0.357402 0.843509
v 0.004568 0.269892 0.846565
vn 0.9966973905589391 0.003566001397348601 0.08112703178987701
vn 0.9886792413653039 -0.008474002068749872 -0.14980503657175823
vn 0.9886845616693872 -0.005235002973992913 -0.14991808516811356
vn -0.9886845616693872 0.005235002973992913 0.14991808516811356
vn -0.9886792413653039 0.008474002068749872 0.14980503657175823
vn -0.9966973905589391 -0.003566001397348601 -0.08112703178987701
vn 0.9786957567980494 0.006275998440439639 0.20521994900366988
vn -0.9786957567980494 -0.006275998440439639 -0.20521994900366988
vn 0.9358940442355012 -0.012827000606274536 -0.352048016639726
vn -0.9358940442355012 0.012827000606274536 0.352048016639726
vn 0.860021172294509 0.019850003976700458 0.5098721021465126
vn -0.860021172294509 -0.019850003976700458 -0.5098721021465126
vn 0.8846050942905044 -0.020387002173060765 -0.46589504965998896
vn -0.8846050942905044 0.020387002173060765 0.46589504965998896
vn 0.8183030359194127 0.020425000896555304 0.5744240252143432
vn -0.8183030359194127 -0.020425000896555304 -0.5744240252143432
vn 0.7873922417404786 -0.01858200570493664 -0.6161721891735175
vn -0.7873922417404786 0.01858200570493664 0.6161721891735175
vn 0.7682239529136348 0.024427998502746802 0.639714960790272
vn -0.7682239529136348 -0.024427998502746802 -0.639714960790272
vn 0.674182027650228 -0.02834700116259542 -0.7380210302684572
vn -0.674182027650228 0.02834700116259542 0.7380210302684572
vn 0.7606429739822076 0.022655999225051418 0.6487749778086523
vn -0.7606429739822076 -0.022655999225051418 -0.6487749778086523
vn 0.775428163943366 0.022037004659129993 0.6310511334187379
vn -0.775428163943366 -0.022037004659129993 -0.6310511334187379
vn 0.5060148436750875 -0.024358992474692174 -0.8621807336435295
vn -0.5060148436750875 0.024358992474692174 0.8621807336435295
vn 0.34192590803681694 -0.035030990578188446 -0.9390737474300457
vn -0.34192590803681694 0.035030990578188446 0.9390737474300457
vn 0.12278102027047283 -0.02963700489290669 -0.9919911637722987
vn -0.12278102027047283 0.02963700489290669 0.9919911637722987
vn -0.03982999819090161 -0.03610499836009274 -0.9985539546451813
vn 0.03982999819090161 0.03610499836009274 0.9985539546451813
vn -0.352961801820475 -0.030591982823340465 -0.9351374749428985
vn 0.352961801820475 0.030591982823340465 0.9351374749428985
vn -0.4190420776256664 -0.0316170058569084 -0.9074161680947774
vn 0.4190420776256664 0.0316170058569084 0.9074161680947774
vn -0.4857480637835825 -0.028926003798273616 -0.8736201147150648
vn 0.4857480637835825 0.028926003798273616 0.8736201147150648
vn -0.49514385757164225 -0.03032099127815276 -0.8682817502383563
vn 0.49514385757164225 0.03032099127815276 0.8682817502383563
vn -0.4766860569446814 -0.030679003664898463 -0.8785381049497291
vn 0.4766860569446814 0.030679003664898463 0.8785381049497291
usemtl material_0_0
f 1//1 2//2 3//3
f 3//4 2//5 1//6
f 4//7 2//2 1//1
f 1//6 2//5 4//8
f 2//2 5//9 3//3
f 3//4 5//10 2//5
f 6//11 4//7 1//1
f 1//6 4//8 6//12
f 2//2 7//13 5//9
f 5//10 7//14 2//5
f 8//15 4//7 6//11
f 6//12 4//8 8//16
f 5//9 7//13 9//17
f 9//18 7//14 5//10
f 10//19 8//15 6//11
f 6//12 8//16 10//20
f 7//13 11//21 9//17
f 9//18 11//22 7//14
f 12//23 8//15 10//19
f 10//20 8//16 12//24
f 10//19 6//11 13//25
f 13//26 6//12 10//20
f 11//21 14//27 9//17
f 9//18 14//28 11//22
f 15//23 8//15 12//23
f 12//24 8//16 15//24
f 13//25 6//11 16//25
f 16//26 6//12 13//26
f 17//29 14//27 11//21
f 11//22 14//28 17//30
f 17//29 18//31 14//27
f 14//28 18//32 17//30
f 19//33 18//31 17//29
f 17//30 18//32 19//34
f 19//33 20//35 18//31
f 18//32 20//36 19//34
f 19//33 21//37 20//35
f 20//36 21//38 19//34
f 21//37 22//39 20//35
f 20//36 22//40 21//38
f 21//37 23//41 22//39
f 22//40 23//42 21//38
f 22//39 24//43 20//35
f 20//36 24//44 22//40
f 21//37 25//41 23//41
f 23//42 25//42 21//38
f 24//43 26//43 20//35
f 20//36 26//44 24//44
