# SSTK version 0.8.0
# 48
mtllib original-48.mtl
o Group48/mesh48/mesh48-geometry#mesh48-geometry
v 0.124310 0.041865 -0.157572
v 0.126651 0.042053 -0.140345
v 0.124310 0.028841 -0.112458
v 0.126651 0.043252 -0.175630
v 0.126651 0.030869 -0.111287
v 0.124310 0.034982 -0.197544
v 0.124310 0.015475 -0.094452
v 0.126651 0.030869 -0.211377
v 0.126651 0.011296 -0.087072
v 0.124310 0.011565 -0.232149
v 0.124310 -0.015380 -0.072337
v 0.126651 0.006103 -0.239974
v 0.126651 -0.018663 -0.068392
v 0.124310 -0.021872 -0.252999
v 0.125480 -0.055811 -0.062413
v 0.126651 -0.025054 -0.256578
v 0.126066 -0.055811 -0.061828
v 0.124895 -0.055811 -0.062998
v 0.125480 -0.055811 -0.260251
v 0.126651 -0.055811 -0.061242
v 0.124310 -0.055811 -0.063584
v 0.126066 -0.055811 -0.260836
v 0.124895 -0.055811 -0.259665
v 0.126651 -0.055811 -0.261421
v 0.124310 -0.055811 -0.259080
vn 0.7558396834105681 -0.6542537259606502 -0.025659989252110615
vn 0.6813221779964642 -0.7176621874903475 -0.1440870376429598
vn 0.7846190121007868 -0.5578870086040124 -0.270435004170784
vn -0.7846190121007868 0.5578870086040124 0.270435004170784
vn -0.6813221779964642 0.7176621874903475 0.1440870376429598
vn -0.7558396834105681 0.6542537259606502 0.025659989252110615
vn 0.5284128405572621 -0.8388027469005362 0.13110996043901746
vn -0.5284128405572621 0.8388027469005362 -0.13110996043901746
vn 0.6470758686471708 -0.6419428696891413 -0.4113419164998619
vn -0.6470758686471708 0.6419428696891413 0.4113419164998619
vn 0.7327181561257695 -0.637311135796678 0.23866005085309225
vn -0.7327181561257695 0.637311135796678 -0.23866005085309225
vn 0.6984048654907279 -0.5307488977804258 -0.4801419075270783
vn -0.6984048654907279 0.5307488977804258 0.4801419075270783
vn 0.5510848709056287 -0.7180338317970045 0.4251269004119094
vn -0.5510848709056287 0.7180338317970045 -0.4251269004119094
vn 0.6549098398611382 -0.4877498807351698 -0.5772288588557282
vn -0.6549098398611382 0.4877498807351698 0.5772288588557282
vn 0.7444920258900829 -0.4809670167258689 0.46303601610230916
vn -0.7444920258900829 0.4809670167258689 -0.46303601610230916
vn 0.7343138978371175 -0.2394969666795077 -0.6351569116325305
vn -0.7343138978371175 0.2394969666795077 0.6351569116325305
vn 0.6312450254375969 -0.472184019027836 0.6152820247943278
vn -0.6312450254375969 0.472184019027836 -0.6152820247943278
vn 0.703787144525872 -0.20891104290082702 -0.678999139435543
vn -0.703787144525872 0.20891104290082702 0.678999139435543
vn 0.7350562600827973 -0.2067090731392643 0.6457272284757686
vn -0.7350562600827973 0.2067090731392643 -0.6457272284757686
vn 0.7379777875004336 -0.1352779610469195 -0.6611268096295543
vn -0.7379777875004336 0.1352779610469195 0.6611268096295543
vn 0.7008793663283638 -0.17876809343665462 0.69051436091089
vn -0.7008793663283638 0.17876809343665462 -0.69051436091089
vn 0.700649046242138 -0.1348400088993059 -0.700649046242138
vn -0.700649046242138 0.1348400088993059 0.700649046242138
vn 0.6989632377740537 -0.15133005147961684 -0.6989632377740537
vn -0.6989632377740537 0.15133005147961684 0.6989632377740537
vn 0.7322373657050599 -0.1131440565081161 0.6715853354133056
vn -0.7322373657050599 0.1131440565081161 -0.6715853354133056
vn 0.7027641928943906 -0.11065703037309067 0.7027641928943906
vn -0.7027641928943906 0.11065703037309067 -0.7027641928943906
vn 0.7014988511942211 -0.12569297333731816 0.7014988511942211
vn -0.7014988511942211 0.12569297333731816 -0.7014988511942211
usemtl material_0_0
f 1//1 2//2 3//3
f 3//4 2//5 1//6
f 2//2 1//1 4//7
f 4//8 1//6 2//5
f 2//2 5//9 3//3
f 3//4 5//10 2//5
f 6//11 4//7 1//1
f 1//6 4//8 6//12
f 3//3 5//9 7//13
f 7//14 5//10 3//4
f 4//7 6//11 8//15
f 8//16 6//12 4//8
f 9//17 7//13 5//9
f 5//10 7//14 9//18
f 10//19 8//15 6//11
f 6//12 8//16 10//20
f 7//13 9//17 11//21
f 11//22 9//18 7//14
f 8//15 10//19 12//23
f 12//24 10//20 8//16
f 9//17 13//25 11//21
f 11//22 13//26 9//18
f 14//27 12//23 10//19
f 10//20 12//24 14//28
f 11//21 13//25 15//29
f 15//30 13//26 11//22
f 12//23 14//27 16//31
f 16//32 14//28 12//24
f 13//25 17//33 15//29
f 15//30 17//34 13//26
f 11//21 15//29 18//35
f 18//36 15//30 11//22
f 19//37 16//31 14//27
f 14//28 16//32 19//38
f 13//25 20//33 17//33
f 17//34 20//34 13//26
f 11//21 18//35 21//35
f 21//36 18//36 11//22
f 16//31 19//37 22//39
f 22//40 19//38 16//32
f 19//37 14//27 23//41
f 23//42 14//28 19//38
f 16//31 22//39 24//39
f 24//40 22//40 16//32
f 23//41 14//27 25//41
f 25//42 14//28 23//42
