# SSTK version 0.8.0
# 265
mtllib original-265.mtl
o Group212/mesh256/mesh256-geometry#mesh256-geometry
v -0.054788 0.690633 0.709629
v -0.074965 0.678815 0.703170
v -0.054788 0.592483 0.811266
v -0.054788 0.723350 0.581554
v -0.074965 0.585615 0.799681
v -0.032556 0.651504 0.770052
v -0.074965 0.709882 0.581554
v -0.032556 0.727662 0.581554
v -0.087982 0.661145 0.693511
v -0.074965 0.465158 0.834973
v -0.032556 0.709369 0.679499
v -0.032556 0.563025 0.831043
v -0.087982 0.575346 0.782358
v -0.087982 0.464455 0.814848
v -0.054788 0.465628 0.848433
v -0.032556 0.465779 0.852743
v -0.087982 0.689744 0.581554
v -0.092024 0.642235 0.683176
v -0.092024 0.668194 0.581554
v -0.092024 0.564357 0.763821
v -0.092024 0.463703 0.793311
v -0.087982 0.623325 0.672840
v -0.087982 0.553368 0.745283
v -0.087982 0.646644 0.581554
v -0.074965 0.605654 0.663182
v -0.087982 0.462951 0.771773
v -0.074965 0.543099 0.727960
v -0.074965 0.462249 0.751648
v -0.074965 0.626506 0.581554
v -0.054788 0.593836 0.656723
v -0.054788 0.536231 0.716375
v -0.054788 0.461778 0.738188
v -0.054788 0.613038 0.581554
v -0.032556 0.565948 0.687432
v -0.032556 0.608726 0.581554
v -0.032556 0.461628 0.733878
v -0.032556 0.516250 0.721690
v -0.032556 0.598451 0.636569
vn -0.4001429736992034 0.8207479460534702 0.40774797319933836
vn -0.6631890743600791 0.6534750732708966 0.3648980409141953
vn -0.44111323019632254 0.4360862275729653 0.784377409329811
vn 0.44111323019632254 -0.4360862275729653 -0.784377409329811
vn 0.6631890743600791 -0.6534750732708966 -0.3648980409141953
vn 0.4001429736992034 -0.8207479460534702 -0.40774797319933836
vn -0.4307860739289276 0.8743761500552014 0.22336003833171308
vn 0.4307860739289276 -0.8743761500552014 -0.22336003833171308
vn -0.7597347868146499 0.33667690552679 0.5562838439039939
vn 0.7597347868146499 -0.33667690552679 -0.5562838439039939
vn -0.1714539837252457 0.708687932729927 0.6843719350380503
vn 0.1714539837252457 -0.708687932729927 -0.6843719350380503
vn -0.7494238457097586 0.6414908679308359 0.16386996626270073
vn 0.7494238457097586 -0.6414908679308359 -0.16386996626270073
vn -0.3482398999310155 0.9149227370910422 0.2040719413586098
vn 0.3482398999310155 -0.9149227370910422 -0.2040719413586098
vn -0.9183733227577691 0.3488851226139534 0.1867340656267653
vn 0.9183733227577691 -0.3488851226139534 -0.1867340656267653
vn -0.6513409941604024 0.2133449980872553 0.7281749934715472
vn 0.6513409941604024 -0.2133449980872553 -0.7281749934715472
vn -0.25450592732317057 0.894210744648769 0.3682578948401067
vn 0.25450592732317057 -0.894210744648769 -0.3682578948401067
vn -0.25450600219982267 0.3992410034508394 0.8808140076133161
vn 0.25450600219982267 -0.3992410034508394 -0.8808140076133161
vn -0.9512985177612185 0.1596619190630828 0.263702866321931
vn 0.9512985177612185 -0.1596619190630828 -0.263702866321931
vn -0.8974951367266634 0.12400101889062656 0.4232330644763881
vn 0.8974951367266634 -0.12400101889062656 -0.4232330644763881
vn -0.3708409749628578 0.26111798237075035 0.8912319398289233
vn 0.3708409749628578 -0.26111798237075035 -0.8912319398289233
vn -0.34824010629456276 0.23587807199790034 0.9072432769210832
vn 0.34824010629456276 -0.23587807199790034 -0.9072432769210832
vn -0.924995351277689 0.3681561398115545 0.09404603571507048
vn 0.924995351277689 -0.3681561398115545 -0.09404603571507048
vn -0.9992443880976025 0.02795901085903029 0.026999010486174726
vn 0.9992443880976025 -0.02795901085903029 -0.026999010486174726
vn -1 0 0
vn 1 0 0
vn -0.9992443880976025 -0.02795901085903029 -0.026999010486174726
vn 0.9992443880976025 0.02795901085903029 0.026999010486174726
vn -0.9512985893049861 -0.2691138838180446 -0.15036193508568427
vn 0.9512985893049861 0.2691138838180446 0.15036193508568427
vn -0.9183732088927347 -0.1987960452180541 -0.3421560778266593
vn 0.9183732088927347 0.1987960452180541 0.3421560778266593
vn -0.8974950256418819 -0.42730301220826084 -0.10915500311861315
vn 0.8974950256418819 0.42730301220826084 0.10915500311861315
vn -0.7597347498140701 -0.5676948130541549 -0.3170578955906329
vn 0.7597347498140701 0.5676948130541549 0.3170578955906329
vn -0.9249952233428987 -0.10683702579612343 -0.36465008804586835
vn 0.9249952233428987 0.10683702579612343 0.36465008804586835
vn -0.6631886326950671 -0.3874817853944349 -0.6403426453482453
vn 0.6631886326950671 0.3874817853944349 0.6403426453482453
vn -0.7494239445797266 -0.1861579862335242 -0.6353809530132625
vn 0.7494239445797266 0.1861579862335242 0.6353809530132625
vn -0.651341029045251 -0.73517703278375 -0.18780200837465527
vn 0.651341029045251 0.73517703278375 0.18780200837465527
vn -0.34022986686382617 -0.8372496723738014 -0.42808483248508683
vn 0.34022986686382617 0.8372496723738014 0.42808483248508683
vn -0.26115107529743925 -0.4599461326158274 -0.8486752446977198
vn 0.26115107529743925 0.4599461326158274 0.8486752446977198
vn -0.4307860638209601 -0.2537400375915892 -0.8660481283050399
vn 0.4307860638209601 0.2537400375915892 0.8660481283050399
vn -0.3708409986074921 -0.8998019966212436 -0.2298549991368947
vn 0.3708409986074921 0.8998019966212436 0.2298549991368947
vn -0.18518901853936615 -0.7068970707678226 -0.6826430683397424
vn 0.18518901853936615 0.7068970707678226 0.6826430683397424
vn -0.07406102905762828 -0.9738443820849968 -0.21480708427893186
vn 0.07406102905762828 0.9738443820849968 0.21480708427893186
vn -0.0740609615136759 -0.24866287078050758 -0.9657544981385623
vn 0.0740609615136759 0.24866287078050758 0.9657544981385623
vn -0.13502197794186632 -0.3922829359139186 -0.9098808513555072
vn 0.13502197794186632 0.3922829359139186 0.9098808513555072
vn -0.13502203468081914 -0.9230172370797768 -0.36028909254134645
vn 0.13502203468081914 0.9230172370797768 0.36028909254134645
usemtl material_0_0
f 1//1 2//2 3//3
f 3//4 2//5 1//6
f 4//7 2//2 1//1
f 1//6 2//5 4//8
f 3//3 2//2 5//9
f 5//10 2//5 3//4
f 6//11 1//1 3//3
f 3//4 1//6 6//12
f 4//7 7//13 2//2
f 2//5 7//14 4//8
f 8//15 4//7 1//1
f 1//6 4//8 8//16
f 9//17 5//9 2//2
f 2//5 5//10 9//18
f 3//3 5//9 10//19
f 10//20 5//10 3//4
f 11//21 1//1 6//11
f 6//12 1//6 11//22
f 6//11 3//3 12//23
f 12//24 3//4 6//12
f 7//13 9//17 2//2
f 2//5 9//18 7//14
f 8//15 1//1 11//21
f 11//22 1//6 8//16
f 9//17 13//25 5//9
f 5//10 13//26 9//18
f 5//9 14//27 10//19
f 10//20 14//28 5//10
f 3//3 10//19 15//29
f 15//30 10//20 3//4
f 3//3 16//31 12//23
f 12//24 16//32 3//4
f 17//33 9//17 7//13
f 7//14 9//18 17//34
f 18//35 13//25 9//17
f 9//18 13//26 18//36
f 13//25 14//27 5//9
f 5//10 14//28 13//26
f 3//3 15//29 16//31
f 16//32 15//30 3//4
f 19//37 9//17 17//33
f 17//34 9//18 19//38
f 18//35 20//39 13//25
f 13//26 20//40 18//36
f 19//37 18//35 9//17
f 9//18 18//36 19//38
f 13//25 21//37 14//27
f 14//28 21//38 13//26
f 22//41 20//39 18//35
f 18//36 20//40 22//42
f 20//39 21//37 13//25
f 13//26 21//38 20//40
f 19//37 22//41 18//35
f 18//36 22//42 19//38
f 22//41 23//43 20//39
f 20//40 23//44 22//42
f 23//43 21//37 20//39
f 20//40 21//38 23//44
f 24//45 22//41 19//37
f 19//38 22//42 24//46
f 25//47 23//43 22//41
f 22//42 23//44 25//48
f 23//43 26//49 21//37
f 21//38 26//50 23//44
f 24//45 25//47 22//41
f 22//42 25//48 24//46
f 25//47 27//51 23//43
f 23//44 27//52 25//48
f 23//43 28//53 26//49
f 26//50 28//54 23//44
f 29//55 25//47 24//45
f 24//46 25//48 29//56
f 30//57 27//51 25//47
f 25//48 27//52 30//58
f 27//51 28//53 23//43
f 23//44 28//54 27//52
f 30//57 25//47 29//55
f 29//56 25//48 30//58
f 31//59 27//51 30//57
f 30//58 27//52 31//60
f 27//51 32//61 28//53
f 28//54 32//62 27//52
f 30//57 29//55 33//63
f 33//64 29//56 30//58
f 27//51 31//59 32//61
f 32//62 31//60 27//52
f 34//65 31//59 30//57
f 30//58 31//60 34//66
f 35//67 30//57 33//63
f 33//64 30//58 35//68
f 31//59 36//69 32//61
f 32//62 36//70 31//60
f 34//65 37//71 31//59
f 31//60 37//72 34//66
f 34//65 30//57 38//73
f 38//74 30//58 34//66
f 38//73 30//57 35//67
f 35//68 30//58 38//74
f 31//59 37//71 36//69
f 36//70 37//72 31//60
