# SSTK version 0.8.0
# 9
mtllib original-9.mtl
o mesh12/mesh12-geometry#mesh12-geometry
v 0.210328 0.027505 -0.000759
v 0.209413 -0.025944 -0.001801
v 0.210328 -0.025944 -0.000759
v 0.209413 0.027505 -0.001801
v 0.278929 -0.025944 -0.000775
v 0.211370 -0.025944 0.000156
v 0.278929 0.027505 -0.000775
v 0.208643 -0.025944 -0.002955
v 0.277881 -0.025944 0.000144
v 0.279848 -0.025944 -0.001823
v 0.211370 0.027505 0.000156
v 0.277881 0.027505 0.000144
v 0.279848 0.027505 -0.001823
v 0.208643 0.027505 -0.002955
v 0.212277 -0.025944 0.000762
v 0.276956 -0.025944 0.000762
v 0.208029 -0.025944 -0.004199
v 0.280623 -0.025944 -0.002983
v 0.276956 0.027505 0.000762
v 0.280623 0.027505 -0.002983
v 0.212277 0.027505 0.000762
v 0.208029 0.027505 -0.004199
v 0.207583 -0.025944 -0.005512
v 0.281239 -0.025944 -0.004233
v 0.281239 0.027505 -0.004233
v 0.207583 0.027505 -0.005512
v 0.207313 -0.025944 -0.006872
v 0.281688 -0.025944 -0.005553
v 0.281688 0.027505 -0.005553
v 0.207313 0.027505 -0.006872
v 0.207222 -0.025944 -0.008256
v 0.281960 -0.025944 -0.006921
v 0.281960 0.027505 -0.006921
v 0.207222 0.027505 -0.008256
v 0.207222 -0.012843 -0.015035
v 0.282051 -0.025944 -0.008312
v 0.282051 0.027505 -0.008312
v 0.207222 -0.017292 -0.016065
v 0.207222 -0.008338 -0.014294
v 0.207222 -0.025944 -0.018971
v 0.207222 0.027505 -0.018859
v 0.207222 -0.021665 -0.017379
v 0.207222 -0.003794 -0.013844
v 0.282051 -0.025944 -0.018971
v 0.282051 -0.012841 -0.015021
v 0.282051 0.027505 -0.018971
v 0.207222 0.023219 -0.017285
v 0.207222 0.000769 -0.013688
v 0.282051 -0.021665 -0.017371
v 0.282051 -0.017291 -0.016052
v 0.282051 -0.008332 -0.014281
v 0.282051 0.023226 -0.017371
v 0.207222 0.027505 -0.018971
v 0.207222 0.018840 -0.015989
v 0.207222 0.000780 -0.013688
v 0.282051 -0.003786 -0.013836
v 0.282051 0.018852 -0.016052
v 0.207222 0.014388 -0.014978
v 0.207222 0.005333 -0.013825
v 0.282051 0.000780 -0.013688
v 0.282051 0.014401 -0.015021
v 0.207222 0.009879 -0.014256
v 0.282051 0.005346 -0.013836
v 0.282051 0.009893 -0.014281
vn -0.7071067811865474 0 0.7071067811865476
vn -0.7933534213778811 0 0.6087613233345315
vn 0.7071067811865474 0 -0.7071067811865476
vn 0.7933534213778811 0 -0.6087613233345315
vn 0 -1 0
vn 0 1 0
vn -0.6087613233345311 0 0.7933534213778816
vn 0.6087613233345311 0 -0.7933534213778816
vn -0.8660253028382758 0 0.5000001748438418
vn 0.8660253028382758 0 -0.5000001748438418
vn 0.7071067811865476 0 0.7071067811865474
vn 0.6087613233345315 0 0.7933534213778811
vn -0.6087613233345315 0 -0.7933534213778811
vn -0.7071067811865476 0 -0.7071067811865474
vn 0.7933534213778816 0 0.6087613233345311
vn -0.7933534213778816 0 -0.6087613233345311
vn -0.5555698928305778 0 0.8314698396094835
vn 0.5555698928305778 0 -0.8314698396094835
vn -0.9238797538373535 0 0.3826828980362604
vn 0.9238797538373535 0 -0.3826828980362604
vn 0.5555698928305782 0 0.8314698396094833
vn -0.5555698928305782 0 -0.8314698396094833
vn 0.8660253028382761 0 0.5000001748438415
vn -0.8660253028382761 0 -0.5000001748438415
vn 0 0 1
vn 0 0 -1
vn -0.965925849201117 0 0.25881895959357565
vn 0.965925849201117 0 -0.25881895959357565
vn 0.9238797538373538 0 0.38268289803625993
vn -0.9238797538373538 0 -0.38268289803625993
vn -0.9914448886106773 0 0.13052598533534135
vn 0.9914448886106773 0 -0.13052598533534135
vn 0.965925849201117 0 0.2588189595935752
vn -0.965925849201117 0 -0.2588189595935752
vn -0.9994645906263836 0 0.03271898659853508
vn 0.9994645906263836 0 -0.03271898659853508
vn 0.9914448886106773 0 0.13052598533534088
vn -0.9914448886106773 0 -0.13052598533534088
vn -1 0 0
vn 1 0 0
vn 0.9994645906263836 0 0.03271898659853463
vn -0.9994645906263836 0 -0.03271898659853463
usemtl material_0_0
f 1//1 2//2 3//1
f 2//2 1//1 4//2
f 3//3 2//4 1//3
f 4//4 1//3 2//4
f 5//5 3//5 2//5
f 2//6 3//6 5//6
f 6//7 1//1 3//1
f 3//3 1//3 6//8
f 1//6 7//6 4//6
f 4//5 7//5 1//5
f 4//2 8//9 2//2
f 2//4 8//10 4//4
f 9//5 3//5 5//5
f 5//6 3//6 9//6
f 5//5 2//5 10//5
f 10//6 2//6 5//6
f 1//1 6//7 11//7
f 11//8 6//8 1//3
f 9//5 6//5 3//5
f 3//6 6//6 9//6
f 1//6 12//6 7//6
f 7//5 12//5 1//5
f 4//6 7//6 13//6
f 13//5 7//5 4//5
f 8//9 4//2 14//9
f 14//10 4//4 8//10
f 10//5 2//5 8//5
f 8//6 2//6 10//6
f 5//11 12//12 9//12
f 9//13 12//13 5//14
f 13//15 5//11 10//15
f 10//16 5//14 13//16
f 15//17 11//7 6//7
f 6//8 11//8 15//18
f 11//6 12//6 1//6
f 1//5 12//5 11//5
f 16//5 6//5 9//5
f 9//6 6//6 16//6
f 12//12 5//11 7//11
f 7//14 5//14 12//13
f 5//11 13//15 7//11
f 7//14 13//16 5//14
f 4//6 13//6 14//6
f 14//5 13//5 4//5
f 14//9 17//19 8//9
f 8//10 17//20 14//10
f 10//5 8//5 18//5
f 18//6 8//6 10//6
f 19//21 9//12 12//12
f 12//13 9//13 19//22
f 10//15 20//23 13//15
f 13//16 20//24 10//16
f 11//7 15//17 21//17
f 21//18 15//18 11//8
f 6//5 16//5 15//5
f 15//6 16//6 6//6
f 21//6 12//6 11//6
f 11//5 12//5 21//5
f 9//12 19//21 16//21
f 16//22 19//22 9//13
f 14//6 13//6 20//6
f 20//5 13//5 14//5
f 17//19 14//9 22//19
f 22//20 14//10 17//20
f 18//5 8//5 17//5
f 17//6 8//6 18//6
f 20//23 10//15 18//23
f 18//24 10//16 20//24
f 12//6 21//6 19//6
f 19//5 21//5 12//5
f 16//25 21//25 15//25
f 15//26 21//26 16//26
f 21//25 16//25 19//25
f 19//26 16//26 21//26
f 14//6 20//6 22//6
f 22//5 20//5 14//5
f 22//19 23//27 17//19
f 17//20 23//28 22//20
f 18//5 17//5 24//5
f 24//6 17//6 18//6
f 18//23 25//29 20//23
f 20//24 25//30 18//24
f 22//6 20//6 25//6
f 25//5 20//5 22//5
f 23//27 22//19 26//27
f 26//28 22//20 23//28
f 24//5 17//5 23//5
f 23//6 17//6 24//6
f 25//29 18//23 24//29
f 24//30 18//24 25//30
f 22//6 25//6 26//6
f 26//5 25//5 22//5
f 26//27 27//31 23//27
f 23//28 27//32 26//28
f 24//5 23//5 28//5
f 28//6 23//6 24//6
f 24//29 29//33 25//29
f 25//30 29//34 24//30
f 26//6 25//6 29//6
f 29//5 25//5 26//5
f 27//31 26//27 30//31
f 30//32 26//28 27//32
f 28//5 23//5 27//5
f 27//6 23//6 28//6
f 29//33 24//29 28//33
f 28//34 24//30 29//34
f 26//6 29//6 30//6
f 30//5 29//5 26//5
f 30//31 31//35 27//31
f 27//32 31//36 30//32
f 28//5 27//5 32//5
f 32//6 27//6 28//6
f 28//33 33//37 29//33
f 29//34 33//38 28//34
f 30//6 29//6 33//6
f 33//5 29//5 30//5
f 31//35 30//31 34//35
f 34//36 30//32 31//36
f 32//5 27//5 31//5
f 31//6 27//6 32//6
f 33//37 28//33 32//37
f 32//38 28//34 33//38
f 30//6 33//6 34//6
f 34//5 33//5 30//5
f 35//39 31//35 34//35
f 34//36 31//36 35//40
f 32//5 31//5 36//5
f 36//6 31//6 32//6
f 32//37 37//41 33//37
f 33//38 37//42 32//38
f 34//6 33//6 37//6
f 37//5 33//5 34//5
f 38//39 31//35 35//39
f 35//40 31//36 38//40
f 35//39 34//35 39//39
f 39//40 34//36 35//40
f 36//5 31//5 40//5
f 40//6 31//6 36//6
f 37//41 32//37 36//41
f 36//42 32//38 37//42
f 34//6 37//6 41//6
f 41//5 37//5 34//5
f 42//39 31//35 38//39
f 38//40 31//36 42//40
f 39//39 34//35 43//39
f 43//40 34//36 39//40
f 31//35 42//39 40//39
f 40//40 42//40 31//36
f 36//5 40//5 44//5
f 44//6 40//6 36//6
f 36//41 45//40 37//41
f 37//42 45//39 36//42
f 41//6 37//6 46//6
f 46//5 37//5 41//5
f 47//39 34//35 41//39
f 41//40 34//36 47//40
f 43//39 34//35 48//39
f 48//40 34//36 43//40
f 49//40 36//41 44//40
f 44//39 36//42 49//39
f 36//41 50//40 45//40
f 45//39 50//39 36//42
f 37//41 45//40 51//40
f 51//39 45//39 37//42
f 37//41 52//40 46//40
f 46//39 52//39 37//42
f 41//6 46//6 53//6
f 53//5 46//5 41//5
f 54//39 34//35 47//39
f 47//40 34//36 54//40
f 48//39 34//35 55//39
f 55//40 34//36 48//40
f 36//41 49//40 50//40
f 50//39 49//39 36//42
f 37//41 51//40 56//40
f 56//39 51//39 37//42
f 37//41 57//40 52//40
f 52//39 57//39 37//42
f 58//39 34//35 54//39
f 54//40 34//36 58//40
f 55//39 34//35 59//39
f 59//40 34//36 55//40
f 37//41 56//40 60//40
f 60//39 56//39 37//42
f 37//41 61//40 57//40
f 57//39 61//39 37//42
f 62//39 34//35 58//39
f 58//40 34//36 62//40
f 59//39 34//35 62//39
f 62//40 34//36 59//40
f 37//41 60//40 63//40
f 63//39 60//39 37//42
f 37//41 64//40 61//40
f 61//39 64//39 37//42
f 37//41 63//40 64//40
f 64//39 63//39 37//42
