mtllib new-3.mtl
v 0.114746 -0.691343 -0.111715
v 0.111859 -0.691343 -0.086085
v 0.103340 -0.691343 -0.061740
v 0.111859 -0.691343 -0.137345
v 0.089618 -0.691343 -0.039902
v 0.103340 -0.691343 -0.161689
v 0.145057 -0.691343 -0.111715
v 0.141409 -0.691343 -0.079340
v 0.130649 -0.691343 -0.048589
v 0.141409 -0.691343 -0.144089
v 0.089618 -0.691343 -0.183528
v 0.071380 -0.691343 -0.021664
v 0.113315 -0.691343 -0.021003
v 0.130649 -0.691343 -0.174840
v 0.071380 -0.691343 -0.201766
v 0.145057 -0.697405 -0.111715
v 0.141409 -0.697405 -0.079340
v 0.130649 -0.697405 -0.048589
v 0.113315 -0.697405 -0.021003
v 0.141409 -0.697405 -0.144089
v 0.049541 -0.691343 -0.007942
v 0.049541 -0.691343 -0.215488
v 0.025197 -0.691343 -0.224006
v 0.113315 -0.691343 -0.202426
v 0.090278 -0.691343 0.002034
v 0.130649 -0.697405 -0.174840
v 0.025197 -0.691343 0.000577
v -0.000433 -0.691343 -0.226894
v 0.090278 -0.691343 -0.225463
v 0.151119 -0.697405 -0.111715
v 0.147319 -0.697405 -0.077991
v 0.136110 -0.697405 -0.045959
v 0.090278 -0.697405 0.002034
v 0.147319 -0.697405 -0.145438
v -0.000433 -0.691343 0.003465
v 0.062693 -0.691343 0.019367
v 0.062693 -0.691343 -0.242796
v 0.031941 -0.691343 -0.253557
v 0.113315 -0.697405 -0.202426
v 0.118055 -0.697405 -0.017224
v 0.136110 -0.697405 -0.177471
v -0.026063 -0.691343 0.000577
v 0.031941 -0.691343 0.030127
v -0.026063 -0.691343 -0.224006
v -0.000433 -0.691343 -0.257205
v 0.062693 -0.697405 -0.242796
v 0.090278 -0.697405 -0.225463
v 0.151119 -0.739840 -0.111715
v 0.147319 -0.739840 -0.077991
v 0.136110 -0.739840 -0.045959
v 0.118055 -0.739840 -0.017224
v 0.062693 -0.697405 0.019367
v 0.094058 -0.697405 0.006773
v 0.147319 -0.739840 -0.145438
v -0.050408 -0.691343 -0.007942
v -0.000433 -0.691343 0.033775
v 0.031941 -0.697405 0.030127
v -0.050408 -0.691343 -0.215488
v -0.072246 -0.691343 -0.201766
v -0.090484 -0.691343 -0.183528
v -0.032808 -0.691343 -0.253557
v 0.031941 -0.697405 -0.253557
v -0.000433 -0.697405 -0.257205
v 0.118055 -0.697405 -0.206206
v 0.094058 -0.739840 0.006773
v 0.136110 -0.739840 -0.177471
v -0.072246 -0.691343 -0.021664
v -0.104206 -0.691343 -0.061740
v -0.112725 -0.691343 -0.086085
v -0.032808 -0.691343 0.030127
v -0.063559 -0.691343 0.019367
v -0.000433 -0.697405 0.033775
v -0.063559 -0.691343 -0.242796
v -0.104206 -0.691343 -0.161689
v -0.032808 -0.697405 -0.253557
v 0.094058 -0.697405 -0.230203
v 0.065323 -0.697405 -0.248258
v 0.065323 -0.697405 0.024829
v 0.065323 -0.739840 0.024829
v -0.091144 -0.691343 0.002034
v -0.090484 -0.691343 -0.039902
v -0.115612 -0.691343 -0.111715
v 0.033290 -0.697405 0.036038
v -0.091144 -0.691343 -0.225463
v -0.114182 -0.691343 -0.202426
v -0.131515 -0.691343 -0.174840
v -0.063559 -0.697405 -0.242796
v 0.033290 -0.697405 -0.259467
v -0.034157 -0.697405 -0.259467
v 0.118055 -0.739840 -0.206206
v -0.114182 -0.691343 -0.021003
v -0.131515 -0.691343 -0.048589
v -0.142275 -0.691343 -0.079340
v -0.032808 -0.697405 0.030127
v -0.063559 -0.697405 0.019367
v -0.000433 -0.697405 0.039837
v -0.091144 -0.697405 -0.225463
v -0.112725 -0.691343 -0.137345
v -0.142275 -0.691343 -0.144089
v -0.000433 -0.697405 -0.263267
v -0.066189 -0.697405 -0.248258
v 0.094058 -0.739840 -0.230203
v 0.065323 -0.739840 -0.248258
v 0.033290 -0.739840 0.036038
v -0.091144 -0.697405 0.002034
v -0.145923 -0.691343 -0.111715
v -0.034157 -0.697405 0.036038
v -0.000433 -0.739840 0.039837
v -0.114182 -0.697405 -0.202426
v -0.131515 -0.697405 -0.174840
v -0.094924 -0.697405 -0.230203
v -0.000433 -0.739840 -0.263267
v -0.034157 -0.739840 -0.259467
v 0.033290 -0.739840 -0.259467
v -0.114182 -0.697405 -0.021003
v -0.131515 -0.697405 -0.048589
v -0.142275 -0.697405 -0.079340
v -0.145923 -0.697405 -0.111715
v -0.066189 -0.697405 0.024829
v -0.094924 -0.697405 0.006773
v -0.034157 -0.739840 0.036038
v -0.118921 -0.697405 -0.206206
v -0.142275 -0.697405 -0.144089
v -0.066189 -0.739840 -0.248258
v -0.118921 -0.697405 -0.017224
v -0.066189 -0.739840 0.024829
v -0.136977 -0.697405 -0.177471
v -0.148185 -0.697405 -0.145438
v -0.094924 -0.739840 -0.230203
v -0.136977 -0.697405 -0.045959
v -0.148185 -0.697405 -0.077991
v -0.151985 -0.697405 -0.111715
v -0.094924 -0.739840 0.006773
v -0.118921 -0.739840 -0.017224
v -0.118921 -0.739840 -0.206206
v -0.136977 -0.739840 -0.045959
v -0.136977 -0.739840 -0.177471
v -0.148185 -0.739840 -0.145438
v -0.148185 -0.739840 -0.077991
v -0.151985 -0.739840 -0.111715
vn 0.000000 -1.000000 0.000000
vn 0.000000 1.000000 0.000000
vn -0.993712 0.000000 0.111964
vn 0.993712 0.000000 -0.111964
vn -0.943883 0.000000 0.330279
vn 0.943883 0.000000 -0.330279
vn -0.993712 0.000000 -0.111964
vn 0.993712 0.000000 0.111964
vn -0.943883 0.000000 -0.330279
vn 0.943883 0.000000 0.330279
vn -0.846724 0.000000 0.532032
vn 0.846724 0.000000 -0.532032
vn -0.846724 0.000000 -0.532032
vn 0.846724 0.000000 0.532032
vn -0.707107 0.000000 0.707107
vn 0.707107 0.000000 -0.707107
vn -0.707107 0.000000 -0.707107
vn 0.707107 0.000000 0.707107
vn -0.532032 0.000000 0.846724
vn 0.532032 0.000000 -0.846724
vn -0.532032 0.000000 -0.846724
vn 0.532032 0.000000 0.846724
vn -0.330279 0.000000 0.943883
vn 0.330279 0.000000 -0.943883
vn -0.330279 0.000000 -0.943883
vn 0.330279 0.000000 0.943883
vn -0.111964 0.000000 -0.993712
vn 0.111964 0.000000 0.993712
vn -0.111964 0.000000 0.993712
vn 0.111964 0.000000 -0.993712
usemtl material-0
f 7//2 4//2 1//2
f 1//1 4//1 7//1
f 2//2 7//2 1//2
f 1//1 7//1 2//1
f 3//2 8//2 2//2
f 2//1 8//1 3//1
f 5//2 9//2 3//2
f 3//1 9//1 5//1
f 10//2 6//2 4//2
f 4//1 6//1 10//1
f 4//2 7//2 10//2
f 10//1 7//1 4//1
f 7//2 2//2 8//2
f 8//1 2//1 7//1
f 8//2 3//2 9//2
f 9//1 3//1 8//1
f 9//2 5//2 13//2
f 13//1 5//1 9//1
f 6//2 10//2 14//2
f 14//1 10//1 6//1
f 14//2 11//2 6//2
f 6//1 11//1 14//1
f 16//4 10//4 7//4
f 7//3 10//3 16//3
f 17//8 7//8 8//8
f 8//7 7//7 17//7
f 18//10 8//10 9//10
f 9//9 8//9 18//9
f 12//2 13//2 5//2
f 5//1 13//1 12//1
f 19//14 9//14 13//14
f 13//13 9//13 19//13
f 20//6 14//6 10//6
f 10//5 14//5 20//5
f 11//2 14//2 24//2
f 24//1 14//1 11//1
f 24//2 15//2 11//2
f 11//1 15//1 24//1
f 10//4 16//4 20//4
f 20//3 16//3 10//3
f 7//8 17//8 16//8
f 16//7 17//7 7//7
f 8//10 18//10 17//10
f 17//9 18//9 8//9
f 9//14 19//14 18//14
f 18//13 19//13 9//13
f 13//2 12//2 25//2
f 25//1 12//1 13//1
f 25//18 19//18 13//18
f 13//17 19//17 25//17
f 14//6 20//6 26//6
f 26//5 20//5 14//5
f 29//2 22//2 15//2
f 15//1 22//1 29//1
f 26//12 24//12 14//12
f 14//11 24//11 26//11
f 15//2 24//2 29//2
f 29//1 24//1 15//1
f 30//2 20//2 16//2
f 16//1 20//1 30//1
f 17//2 30//2 16//2
f 16//1 30//1 17//1
f 18//2 31//2 17//2
f 17//1 31//1 18//1
f 19//2 32//2 18//2
f 18//1 32//1 19//1
f 19//18 25//18 33//18
f 33//17 25//17 19//17
f 34//2 26//2 20//2
f 20//1 26//1 34//1
f 38//2 28//2 23//2
f 23//1 28//1 38//1
f 22//2 29//2 37//2
f 37//1 29//1 22//1
f 24//12 26//12 39//12
f 39//11 26//11 24//11
f 39//16 29//16 24//16
f 24//15 29//15 39//15
f 20//2 30//2 34//2
f 34//1 30//1 20//1
f 30//2 17//2 31//2
f 31//1 17//1 30//1
f 31//2 18//2 32//2
f 32//1 18//1 31//1
f 32//2 19//2 40//2
f 40//1 19//1 32//1
f 25//2 21//2 36//2
f 36//1 21//1 25//1
f 36//22 33//22 25//22
f 25//21 33//21 36//21
f 33//2 40//2 19//2
f 19//1 40//1 33//1
f 26//2 34//2 41//2
f 41//1 34//1 26//1
f 35//2 43//2 27//2
f 27//1 43//1 35//1
f 36//2 27//2 43//2
f 43//1 27//1 36//1
f 23//2 37//2 38//2
f 38//1 37//1 23//1
f 28//2 38//2 45//2
f 45//1 38//1 28//1
f 29//20 46//20 37//20
f 37//19 46//19 29//19
f 41//2 39//2 26//2
f 26//1 39//1 41//1
f 29//16 39//16 47//16
f 47//15 39//15 29//15
f 48//4 34//4 30//4
f 30//3 34//3 48//3
f 49//8 30//8 31//8
f 31//7 30//7 49//7
f 50//10 31//10 32//10
f 32//9 31//9 50//9
f 51//14 32//14 40//14
f 40//13 32//13 51//13
f 33//22 36//22 52//22
f 52//21 36//21 33//21
f 40//2 33//2 53//2
f 53//1 33//1 40//1
f 54//6 41//6 34//6
f 34//5 41//5 54//5
f 43//2 35//2 56//2
f 56//1 35//1 43//1
f 57//26 36//26 43//26
f 43//25 36//25 57//25
f 28//2 61//2 44//2
f 44//1 61//1 28//1
f 37//24 62//24 38//24
f 38//23 62//23 37//23
f 38//30 63//30 45//30
f 45//29 63//29 38//29
f 61//2 28//2 45//2
f 45//1 28//1 61//1
f 46//20 29//20 47//20
f 47//19 29//19 46//19
f 62//24 37//24 46//24
f 46//23 37//23 62//23
f 39//2 41//2 64//2
f 64//1 41//1 39//1
f 64//2 47//2 39//2
f 39//1 47//1 64//1
f 34//4 48//4 54//4
f 54//3 48//3 34//3
f 30//8 49//8 48//8
f 48//7 49//7 30//7
f 31//10 50//10 49//10
f 49//9 50//9 31//9
f 32//14 51//14 50//14
f 50//13 51//13 32//13
f 40//18 65//18 51//18
f 51//17 65//17 40//17
f 36//26 57//26 52//26
f 52//25 57//25 36//25
f 52//2 53//2 33//2
f 33//1 53//1 52//1
f 65//18 40//18 53//18
f 53//17 40//17 65//17
f 41//6 54//6 66//6
f 66//5 54//5 41//5
f 70//2 35//2 42//2
f 42//1 35//1 70//1
f 35//2 70//2 56//2
f 56//1 70//1 35//1
f 72//28 43//28 56//28
f 56//27 43//27 72//27
f 43//28 72//28 57//28
f 57//27 72//27 43//27
f 44//2 73//2 58//2
f 58//1 73//1 44//1
f 73//2 44//2 61//2
f 61//1 44//1 73//1
f 63//30 38//30 62//30
f 62//29 38//29 63//29
f 75//27 45//27 63//27
f 63//28 45//28 75//28
f 45//27 75//27 61//27
f 61//28 75//28 45//28
f 76//2 46//2 47//2
f 47//1 46//1 76//1
f 77//2 62//2 46//2
f 46//1 62//1 77//1
f 66//12 64//12 41//12
f 41//11 64//11 66//11
f 47//2 64//2 76//2
f 76//1 64//1 47//1
f 57//2 78//2 52//2
f 52//1 78//1 57//1
f 53//2 52//2 78//2
f 78//1 52//1 53//1
f 53//22 79//22 65//22
f 65//21 79//21 53//21
f 80//2 55//2 67//2
f 67//1 55//1 80//1
f 42//2 71//2 70//2
f 70//1 71//1 42//1
f 55//2 80//2 71//2
f 71//1 80//1 55//1
f 70//29 72//29 56//29
f 56//30 72//30 70//30
f 72//2 83//2 57//2
f 57//1 83//1 72//1
f 59//2 85//2 60//2
f 60//1 85//1 59//1
f 84//2 58//2 73//2
f 73//1 58//1 84//1
f 60//2 86//2 74//2
f 74//1 86//1 60//1
f 61//25 87//25 73//25
f 73//26 87//26 61//26
f 88//2 63//2 62//2
f 62//1 63//1 88//1
f 63//2 89//2 75//2
f 75//1 89//1 63//1
f 87//25 61//25 75//25
f 75//26 61//26 87//26
f 46//2 76//2 77//2
f 77//1 76//1 46//1
f 62//2 77//2 88//2
f 88//1 77//1 62//1
f 64//12 66//12 90//12
f 90//11 66//11 64//11
f 90//16 76//16 64//16
f 64//15 76//15 90//15
f 78//2 57//2 83//2
f 83//1 57//1 78//1
f 79//22 53//22 78//22
f 78//21 53//21 79//21
f 67//2 91//2 80//2
f 80//1 91//1 67//1
f 91//2 67//2 81//2
f 81//1 67//1 91//1
f 92//2 81//2 68//2
f 68//1 81//1 92//1
f 93//2 68//2 69//2
f 69//1 68//1 93//1
f 82//2 93//2 69//2
f 69//1 93//1 82//1
f 71//23 94//23 70//23
f 70//24 94//24 71//24
f 80//19 95//19 71//19
f 71//20 95//20 80//20
f 72//29 70//29 94//29
f 94//30 70//30 72//30
f 83//2 72//2 96//2
f 96//1 72//1 83//1
f 85//2 59//2 84//2
f 84//1 59//1 85//1
f 86//2 60//2 85//2
f 85//1 60//1 86//1
f 73//21 97//21 84//21
f 84//22 97//22 73//22
f 99//2 74//2 86//2
f 86//1 74//1 99//1
f 97//21 73//21 87//21
f 87//22 73//22 97//22
f 63//2 88//2 100//2
f 100//1 88//1 63//1
f 89//2 63//2 100//2
f 100//1 63//1 89//1
f 101//2 75//2 89//2
f 89//1 75//1 101//1
f 75//2 101//2 87//2
f 87//1 101//1 75//1
f 102//20 77//20 76//20
f 76//19 77//19 102//19
f 103//24 88//24 77//24
f 77//23 88//23 103//23
f 76//16 90//16 102//16
f 102//15 90//15 76//15
f 104//26 78//26 83//26
f 83//25 78//25 104//25
f 78//26 104//26 79//26
f 79//25 104//25 78//25
f 91//15 105//15 80//15
f 80//16 105//16 91//16
f 81//2 92//2 91//2
f 91//1 92//1 81//1
f 68//2 93//2 92//2
f 92//1 93//1 68//1
f 93//2 82//2 106//2
f 106//1 82//1 93//1
f 94//23 71//23 95//23
f 95//24 71//24 94//24
f 95//19 80//19 105//19
f 105//20 80//20 95//20
f 107//2 72//2 94//2
f 94//1 72//1 107//1
f 72//2 107//2 96//2
f 96//1 107//1 72//1
f 108//28 83//28 96//28
f 96//27 83//27 108//27
f 84//17 109//17 85//17
f 85//18 109//18 84//18
f 109//13 86//13 85//13
f 85//14 86//14 109//14
f 109//17 84//17 97//17
f 97//18 84//18 109//18
f 74//2 99//2 98//2
f 98//1 99//1 74//1
f 110//9 99//9 86//9
f 86//10 99//10 110//10
f 87//2 111//2 97//2
f 97//1 111//1 87//1
f 88//30 112//30 100//30
f 100//29 112//29 88//29
f 112//27 89//27 100//27
f 100//28 89//28 112//28
f 113//25 101//25 89//25
f 89//26 101//26 113//26
f 111//2 87//2 101//2
f 101//1 87//1 111//1
f 77//20 102//20 103//20
f 103//19 102//19 77//19
f 88//24 103//24 114//24
f 114//23 103//23 88//23
f 83//28 108//28 104//28
f 104//27 108//27 83//27
f 105//15 91//15 115//15
f 115//16 91//16 105//16
f 116//11 91//11 92//11
f 92//12 91//12 116//12
f 117//5 92//5 93//5
f 93//6 92//6 117//6
f 98//2 106//2 82//2
f 82//1 106//1 98//1
f 118//3 93//3 106//3
f 106//4 93//4 118//4
f 119//2 94//2 95//2
f 95//1 94//1 119//1
f 120//2 95//2 105//2
f 105//1 95//1 120//1
f 94//2 119//2 107//2
f 107//1 119//1 94//1
f 121//29 96//29 107//29
f 107//30 96//30 121//30
f 96//29 121//29 108//29
f 108//30 121//30 96//30
f 86//13 109//13 110//13
f 110//14 109//14 86//14
f 97//2 122//2 109//2
f 109//1 122//1 97//1
f 106//2 98//2 99//2
f 99//1 98//1 106//1
f 99//9 110//9 123//9
f 123//10 110//10 99//10
f 122//2 97//2 111//2
f 111//1 97//1 122//1
f 112//30 88//30 114//30
f 114//29 88//29 112//29
f 89//27 112//27 113//27
f 113//28 112//28 89//28
f 101//25 113//25 124//25
f 124//26 113//26 101//26
f 124//21 111//21 101//21
f 101//22 111//22 124//22
f 91//11 116//11 115//11
f 115//12 116//12 91//12
f 125//2 105//2 115//2
f 115//1 105//1 125//1
f 92//5 117//5 116//5
f 116//6 117//6 92//6
f 93//3 118//3 117//3
f 117//4 118//4 93//4
f 106//7 123//7 118//7
f 118//8 123//8 106//8
f 95//2 120//2 119//2
f 119//1 120//1 95//1
f 105//2 125//2 120//2
f 120//1 125//1 105//1
f 126//23 107//23 119//23
f 119//24 107//24 126//24
f 107//23 126//23 121//23
f 121//24 126//24 107//24
f 109//2 127//2 110//2
f 110//1 127//1 109//1
f 127//2 109//2 122//2
f 122//1 109//1 127//1
f 123//7 106//7 99//7
f 99//8 106//8 123//8
f 110//2 128//2 123//2
f 123//1 128//1 110//1
f 129//17 122//17 111//17
f 111//18 122//18 129//18
f 111//21 124//21 129//21
f 129//22 124//22 111//22
f 130//2 115//2 116//2
f 116//1 115//1 130//1
f 115//2 130//2 125//2
f 125//1 130//1 115//1
f 131//2 116//2 117//2
f 117//1 116//1 131//1
f 118//2 131//2 117//2
f 117//1 131//1 118//1
f 123//2 132//2 118//2
f 118//1 132//1 123//1
f 133//19 119//19 120//19
f 120//20 119//20 133//20
f 134//15 120//15 125//15
f 125//16 120//16 134//16
f 119//19 133//19 126//19
f 126//20 133//20 119//20
f 128//2 110//2 127//2
f 127//1 110//1 128//1
f 135//13 127//13 122//13
f 122//14 127//14 135//14
f 132//2 123//2 128//2
f 128//1 123//1 132//1
f 122//17 129//17 135//17
f 135//18 129//18 122//18
f 116//2 131//2 130//2
f 130//1 131//1 116//1
f 136//11 125//11 130//11
f 130//12 125//12 136//12
f 131//2 118//2 132//2
f 132//1 118//1 131//1
f 120//15 134//15 133//15
f 133//16 134//16 120//16
f 125//11 136//11 134//11
f 134//12 136//12 125//12
f 137//9 128//9 127//9
f 127//10 128//10 137//10
f 127//13 135//13 137//13
f 137//14 135//14 127//14
f 138//7 132//7 128//7
f 128//8 132//8 138//8
f 139//5 130//5 131//5
f 131//6 130//6 139//6
f 130//5 139//5 136//5
f 136//6 139//6 130//6
f 140//3 131//3 132//3
f 132//4 131//4 140//4
f 128//9 137//9 138//9
f 138//10 137//10 128//10
f 132//7 138//7 140//7
f 140//8 138//8 132//8
f 131//3 140//3 139//3
f 139//4 140//4 131//4