# SSTK version 0.8.0
# 3
mtllib original-3.mtl
o mesh3/mesh3-geometry#mesh3-geometry
v 0.049827 -0.417172 -0.262495
v -0.000433 -0.417172 -0.262495
v 0.043094 -0.392042 -0.262495
v 0.043094 -0.442302 -0.262495
v 0.024697 -0.373646 -0.262495
v 0.049827 -0.417172 -0.304379
v 0.043094 -0.442302 -0.304379
v 0.024697 -0.460699 -0.262495
v -0.000433 -0.366912 -0.262495
v 0.043094 -0.392042 -0.304379
v 0.024697 -0.460699 -0.304379
v -0.000433 -0.467432 -0.262495
v -0.025563 -0.373646 -0.262495
v -0.000433 -0.366912 -0.304379
v 0.024697 -0.373646 -0.304379
v 0.037262 -0.417172 -0.304379
v 0.032212 -0.436020 -0.304379
v -0.025563 -0.460699 -0.262495
v -0.043960 -0.392042 -0.262495
v -0.025563 -0.373646 -0.304379
v 0.032212 -0.398325 -0.304379
v 0.018414 -0.449817 -0.304379
v -0.000433 -0.467432 -0.304379
v -0.043960 -0.442302 -0.262495
v -0.050693 -0.417172 -0.262495
v -0.043960 -0.392042 -0.304379
v -0.000433 -0.379477 -0.304379
v -0.019281 -0.384527 -0.304379
v 0.018414 -0.384527 -0.304379
v 0.037262 -0.417172 -0.316944
v 0.032212 -0.436020 -0.316944
v 0.018414 -0.449817 -0.316944
v -0.025563 -0.460699 -0.304379
v -0.033078 -0.398325 -0.304379
v 0.032212 -0.398325 -0.316944
v -0.000433 -0.454867 -0.304379
v -0.019281 -0.449817 -0.304379
v -0.043960 -0.442302 -0.304379
v -0.050693 -0.417172 -0.304379
v -0.038128 -0.417172 -0.304379
v -0.000433 -0.379477 -0.316944
v -0.019281 -0.384527 -0.316944
v -0.033078 -0.398325 -0.316944
v 0.018414 -0.384527 -0.316944
v -0.000433 -0.417172 -0.316944
v -0.000433 -0.454867 -0.316944
v -0.033078 -0.436020 -0.304379
v -0.033078 -0.436020 -0.316944
v -0.038128 -0.417172 -0.316944
v -0.019281 -0.449817 -0.316944
vn 0 0 -1
vn 0 0 1
vn -0.9659258492011171 -0.2588189595935754 0
vn 0.9659258492011171 0.2588189595935754 0
vn -0.9659258492011171 0.2588189595935754 0
vn 0.9659258492011171 -0.2588189595935754 0
vn -0.7071067811865475 -0.7071067811865475 0
vn 0.7071067811865475 0.7071067811865475 0
vn -0.7071067811865475 0.7071067811865475 0
vn 0.7071067811865475 -0.7071067811865475 0
vn -0.2588189595935754 -0.9659258492011171 0
vn 0.2588189595935754 0.9659258492011171 0
vn -0.2588189595935754 0.9659258492011171 0
vn 0.2588189595935754 -0.9659258492011171 0
usemtl material_0_0
f 1//1 2//1 3//1
f 3//2 2//2 1//2
f 1//1 4//1 2//1
f 2//2 4//2 1//2
f 3//1 2//1 5//1
f 5//2 2//2 3//2
f 3//3 6//3 1//3
f 1//4 6//4 3//4
f 1//5 7//5 4//5
f 4//6 7//6 1//6
f 4//1 8//1 2//1
f 2//2 8//2 4//2
f 5//1 2//1 9//1
f 9//2 2//2 5//2
f 5//7 10//7 3//7
f 3//8 10//8 5//8
f 6//3 3//3 10//3
f 10//4 3//4 6//4
f 7//5 1//5 6//5
f 6//6 1//6 7//6
f 11//9 4//9 7//9
f 7//10 4//10 11//10
f 4//9 11//9 8//9
f 8//10 11//10 4//10
f 8//1 12//1 2//1
f 2//2 12//2 8//2
f 2//1 13//1 9//1
f 9//2 13//2 2//2
f 14//11 5//11 9//11
f 9//12 5//12 14//12
f 10//7 5//7 15//7
f 15//8 5//8 10//8
f 16//1 10//1 6//1
f 6//2 10//2 16//2
f 7//1 16//1 6//1
f 6//2 16//2 7//2
f 11//1 17//1 7//1
f 7//2 17//2 11//2
f 11//13 12//13 8//13
f 8//14 12//14 11//14
f 2//1 12//1 18//1
f 18//2 12//2 2//2
f 2//1 19//1 13//1
f 13//2 19//2 2//2
f 20//14 9//14 13//14
f 13//13 9//13 20//13
f 5//11 14//11 15//11
f 15//12 14//12 5//12
f 9//14 20//14 14//14
f 14//13 20//13 9//13
f 21//1 15//1 10//1
f 10//2 15//2 21//2
f 10//1 16//1 21//1
f 21//2 16//2 10//2
f 16//1 7//1 17//1
f 17//2 7//2 16//2
f 17//1 11//1 22//1
f 22//2 11//2 17//2
f 12//13 11//13 23//13
f 23//14 11//14 12//14
f 23//12 18//12 12//12
f 12//11 18//11 23//11
f 2//1 18//1 24//1
f 24//2 18//2 2//2
f 2//1 25//1 19//1
f 19//2 25//2 2//2
f 26//10 13//10 19//10
f 19//9 13//9 26//9
f 13//10 26//10 20//10
f 20//9 26//9 13//9
f 15//1 27//1 14//1
f 14//2 27//2 15//2
f 14//1 28//1 20//1
f 20//2 28//2 14//2
f 15//1 21//1 29//1
f 29//2 21//2 15//2
f 21//3 30//3 16//3
f 16//4 30//4 21//4
f 16//5 31//5 17//5
f 17//6 31//6 16//6
f 23//1 22//1 11//1
f 11//2 22//2 23//2
f 17//9 32//9 22//9
f 22//10 32//10 17//10
f 18//12 23//12 33//12
f 33//11 23//11 18//11
f 33//8 24//8 18//8
f 18//7 24//7 33//7
f 2//1 24//1 25//1
f 25//2 24//2 2//2
f 25//6 26//6 19//6
f 19//5 26//5 25//5
f 20//1 34//1 26//1
f 26//2 34//2 20//2
f 27//1 15//1 29//1
f 29//2 15//2 27//2
f 28//1 14//1 27//1
f 27//2 14//2 28//2
f 34//1 20//1 28//1
f 28//2 20//2 34//2
f 29//7 35//7 21//7
f 21//8 35//8 29//8
f 30//3 21//3 35//3
f 35//4 21//4 30//4
f 31//5 16//5 30//5
f 30//6 16//6 31//6
f 32//9 17//9 31//9
f 31//10 17//10 32//10
f 22//1 23//1 36//1
f 36//2 23//2 22//2
f 32//13 36//13 22//13
f 22//14 36//14 32//14
f 37//1 23//1 33//1
f 33//2 23//2 37//2
f 24//8 33//8 38//8
f 38//7 33//7 24//7
f 24//4 39//4 25//4
f 25//3 39//3 24//3
f 26//6 25//6 39//6
f 39//5 25//5 26//5
f 40//1 26//1 34//1
f 34//2 26//2 40//2
f 41//11 29//11 27//11
f 27//12 29//12 41//12
f 42//14 27//14 28//14
f 28//13 27//13 42//13
f 43//10 28//10 34//10
f 34//9 28//9 43//9
f 35//7 29//7 44//7
f 44//8 29//8 35//8
f 30//1 45//1 35//1
f 35//2 45//2 30//2
f 30//1 31//1 45//1
f 45//2 31//2 30//2
f 31//1 32//1 45//1
f 45//2 32//2 31//2
f 23//1 37//1 36//1
f 36//2 37//2 23//2
f 36//13 32//13 46//13
f 46//14 32//14 36//14
f 33//1 47//1 37//1
f 37//2 47//2 33//2
f 47//1 33//1 38//1
f 38//2 33//2 47//2
f 39//4 24//4 38//4
f 38//3 24//3 39//3
f 26//1 40//1 39//1
f 39//2 40//2 26//2
f 40//6 43//6 34//6
f 34//5 43//5 40//5
f 29//11 41//11 44//11
f 44//12 41//12 29//12
f 27//14 42//14 41//14
f 41//13 42//13 27//13
f 28//10 43//10 42//10
f 42//9 43//9 28//9
f 35//1 45//1 44//1
f 44//2 45//2 35//2
f 32//1 46//1 45//1
f 45//2 46//2 32//2
f 46//12 37//12 36//12
f 36//11 37//11 46//11
f 37//8 48//8 47//8
f 47//7 48//7 37//7
f 38//1 40//1 47//1
f 47//2 40//2 38//2
f 40//1 38//1 39//1
f 39//2 38//2 40//2
f 43//6 40//6 49//6
f 49//5 40//5 43//5
f 44//1 45//1 41//1
f 41//2 45//2 44//2
f 45//1 42//1 41//1
f 41//2 42//2 45//2
f 45//1 43//1 42//1
f 42//2 43//2 45//2
f 45//1 46//1 50//1
f 50//2 46//2 45//2
f 37//12 46//12 50//12
f 50//11 46//11 37//11
f 48//8 37//8 50//8
f 50//7 37//7 48//7
f 49//4 47//4 48//4
f 48//3 47//3 49//3
f 47//4 49//4 40//4
f 40//3 49//3 47//3
f 45//1 49//1 43//1
f 43//2 49//2 45//2
f 45//1 50//1 48//1
f 48//2 50//2 45//2
f 45//1 48//1 49//1
f 49//2 48//2 45//2
