# SSTK version 0.8.0
# 2
mtllib original-2.mtl
o mesh2/mesh2-geometry#mesh2-geometry
v 0.012510 -0.377339 -0.111715
v 0.024185 -0.383288 -0.262495
v 0.012510 -0.377339 -0.262495
v 0.024185 -0.383288 -0.111715
v 0.003881 -0.377339 -0.111715
v 0.033451 -0.392554 -0.111715
v 0.003881 -0.377339 -0.262495
v 0.033451 -0.392554 -0.262495
v -0.004747 -0.377339 -0.111715
v 0.039400 -0.404230 -0.111715
v -0.004747 -0.377339 -0.262495
v 0.039400 -0.404230 -0.262495
v -0.013376 -0.377339 -0.111715
v 0.039400 -0.412858 -0.111715
v -0.013376 -0.377339 -0.262495
v 0.039400 -0.412858 -0.262495
v -0.025051 -0.383288 -0.111715
v 0.039400 -0.421486 -0.111715
v -0.025051 -0.383288 -0.262495
v 0.039400 -0.421486 -0.262495
v -0.034317 -0.392554 -0.262495
v 0.039400 -0.430115 -0.111715
v -0.034317 -0.392554 -0.111715
v 0.039400 -0.430115 -0.262495
v -0.040267 -0.404230 -0.262495
v 0.033451 -0.441791 -0.111715
v -0.040267 -0.404230 -0.111715
v 0.033451 -0.441791 -0.262495
v -0.040267 -0.412858 -0.262495
v 0.024185 -0.451057 -0.262495
v -0.040267 -0.412858 -0.111715
v 0.024185 -0.451057 -0.111715
v -0.040267 -0.421486 -0.262495
v 0.012510 -0.457006 -0.262495
v -0.040267 -0.421486 -0.111715
v 0.012510 -0.457006 -0.111715
v -0.040267 -0.430115 -0.262495
v 0.003881 -0.457006 -0.262495
v -0.040267 -0.430115 -0.111715
v 0.003881 -0.457006 -0.111715
v -0.034317 -0.441791 -0.262495
v -0.004747 -0.457006 -0.262495
v -0.034317 -0.441791 -0.111715
v -0.004747 -0.457006 -0.111715
v -0.025051 -0.451057 -0.262495
v -0.013376 -0.457006 -0.262495
v -0.025051 -0.451057 -0.111715
v -0.013376 -0.457006 -0.111715
vn 0.45398991053017423 0.8910068244052929 0
vn -0.45398991053017423 -0.8910068244052929 0
vn 0 1 0
vn 0 -1 0
vn 0.7071067811865475 0.7071067811865475 0
vn -0.7071067811865475 -0.7071067811865475 0
vn 0.8910068244052929 0.45398991053017423 0
vn -0.8910068244052929 -0.45398991053017423 0
vn 1 0 0
vn -1 0 0
vn -0.45398991053017423 0.8910068244052929 0
vn 0.45398991053017423 -0.8910068244052929 0
vn -0.7071067811865475 0.7071067811865475 0
vn 0.7071067811865475 -0.7071067811865475 0
vn -0.8910068244052929 0.45398991053017423 0
vn 0.8910068244052929 -0.45398991053017423 0
usemtl material_0_0
f 1//1 2//1 3//1
f 2//1 1//1 4//1
f 3//2 2//2 1//2
f 4//2 1//2 2//2
f 3//3 5//3 1//3
f 1//4 5//4 3//4
f 6//5 2//5 4//5
f 4//6 2//6 6//6
f 5//3 3//3 7//3
f 7//4 3//4 5//4
f 2//5 6//5 8//5
f 8//6 6//6 2//6
f 7//3 9//3 5//3
f 5//4 9//4 7//4
f 10//7 8//7 6//7
f 6//8 8//8 10//8
f 9//3 7//3 11//3
f 11//4 7//4 9//4
f 8//7 10//7 12//7
f 12//8 10//8 8//8
f 11//3 13//3 9//3
f 9//4 13//4 11//4
f 14//9 12//9 10//9
f 10//10 12//10 14//10
f 13//3 11//3 15//3
f 15//4 11//4 13//4
f 12//9 14//9 16//9
f 16//10 14//10 12//10
f 15//11 17//11 13//11
f 13//12 17//12 15//12
f 18//9 16//9 14//9
f 14//10 16//10 18//10
f 17//11 15//11 19//11
f 19//12 15//12 17//12
f 16//9 18//9 20//9
f 20//10 18//10 16//10
f 21//13 17//13 19//13
f 19//14 17//14 21//14
f 22//9 20//9 18//9
f 18//10 20//10 22//10
f 17//13 21//13 23//13
f 23//14 21//14 17//14
f 20//9 22//9 24//9
f 24//10 22//10 20//10
f 25//15 23//15 21//15
f 21//16 23//16 25//16
f 26//16 24//16 22//16
f 22//15 24//15 26//15
f 23//15 25//15 27//15
f 27//16 25//16 23//16
f 24//16 26//16 28//16
f 28//15 26//15 24//15
f 29//10 27//10 25//10
f 25//9 27//9 29//9
f 26//14 30//14 28//14
f 28//13 30//13 26//13
f 27//10 29//10 31//10
f 31//9 29//9 27//9
f 30//14 26//14 32//14
f 32//13 26//13 30//13
f 33//10 31//10 29//10
f 29//9 31//9 33//9
f 32//12 34//12 30//12
f 30//11 34//11 32//11
f 31//10 33//10 35//10
f 35//9 33//9 31//9
f 34//12 32//12 36//12
f 36//11 32//11 34//11
f 37//10 35//10 33//10
f 33//9 35//9 37//9
f 36//4 38//4 34//4
f 34//3 38//3 36//3
f 35//10 37//10 39//10
f 39//9 37//9 35//9
f 38//4 36//4 40//4
f 40//3 36//3 38//3
f 41//8 39//8 37//8
f 37//7 39//7 41//7
f 40//4 42//4 38//4
f 38//3 42//3 40//3
f 39//8 41//8 43//8
f 43//7 41//7 39//7
f 42//4 40//4 44//4
f 44//3 40//3 42//3
f 45//6 43//6 41//6
f 41//5 43//5 45//5
f 44//4 46//4 42//4
f 42//3 46//3 44//3
f 43//6 45//6 47//6
f 47//5 45//5 43//5
f 46//4 44//4 48//4
f 48//3 44//3 46//3
f 45//2 48//2 47//2
f 47//1 48//1 45//1
f 48//2 45//2 46//2
f 46//1 45//1 48//1
