# SSTK version 0.8.0
# 26
mtllib original-26.mtl
o mesh24/mesh24-geometry#mesh24-geometry
v -0.102818 0.213519 0.708534
v -0.103494 0.252970 0.711460
v -0.105842 0.213519 0.729936
v -0.098471 0.250966 0.694850
v -0.105842 0.253684 0.729936
v -0.096210 0.213519 0.689520
v -0.096210 0.249905 0.689520
v -0.091502 0.247946 0.680384
v -0.091502 0.182115 0.680384
v -0.096210 0.205668 0.689520
v -0.082669 0.244375 0.667380
v -0.091479 0.247938 0.680345
v -0.096210 0.197817 0.689520
v -0.082211 0.182115 0.666806
v -0.096210 0.189966 0.689520
v -0.070377 0.240398 0.654272
v -0.096210 0.182115 0.689520
v -0.060713 0.182115 0.646514
v -0.055732 0.236864 0.643172
v -0.038349 0.233986 0.634291
v -0.031818 0.182115 0.631913
v -0.018927 0.232116 0.628551
v 0.001744 0.194452 0.626548
v 0.001744 0.182115 0.626548
v 0.001744 0.206789 0.626548
v 0.001744 0.219127 0.626548
v 0.001744 0.231464 0.626548
vn 0.9672982573163639 0.003938001047569401 0.25361106746448386
vn 0.9825774582000609 0.0004889997303621587 0.1858528975194396
vn 0.9911148664408386 0.0032919995563816624 0.13296798208170135
vn -0.9911148664408386 -0.0032919995563816624 -0.13296798208170135
vn -0.9825774582000609 -0.0004889997303621587 -0.1858528975194396
vn -0.9672982573163639 -0.003938001047569401 -0.25361106746448386
vn 0.9416436744050981 0.0017309994014671724 0.3366068836104481
vn -0.9416436744050981 -0.0017309994014671724 -0.3366068836104481
vn 0.9920235003083301 0 0.12605306357248364
vn -0.9920235003083301 0 -0.12605306357248364
vn 0.9078449378802583 0.0020649998587012634 0.4193009713091223
vn -0.9078449378802583 -0.0020649998587012634 -0.4193009713091223
vn 0.9053768573986294 0 0.4246089331219753
vn -0.9053768573986294 0 -0.4246089331219753
vn 0.8889038070847832 0 0.4580939005817239
vn -0.8889038070847832 0 -0.4580939005817239
vn 0.7960292326200745 -0.000012000003506841932 0.6052581768718992
vn 0.8271059818648745 0.00004999999890357524 0.5620459876765799
vn 0.8262014454314686 0.00045499969459189744 0.5633746218478697
vn -0.8262014454314686 -0.00045499969459189744 -0.5633746218478697
vn -0.8271059818648745 -0.00004999999890357524 -0.5620459876765799
vn -0.7960292326200745 0.000012000003506841932 -0.6052581768718992
vn 0.7500382275492572 0.005667001719274931 0.6613702006488368
vn -0.7500382275492572 -0.005667001719274931 -0.6613702006488368
vn 0.6745942732626797 0.0033070013395902886 0.7381812990203265
vn -0.6745942732626797 -0.0033070013395902886 -0.7381812990203265
vn 0.5533509448743515 0.009938999009861874 0.8328889170263608
vn -0.5533509448743515 -0.009938999009861874 -0.8328889170263608
vn 0.531847004094956 0.003306000025454359 0.8468340065201985
vn -0.531847004094956 -0.003306000025454359 -0.8468340065201985
vn 0.39827587452698915 0.006767997867806699 0.9172407110320733
vn -0.39827587452698915 -0.006767997867806699 -0.9172407110320733
vn 0.2619659234286816 0.009046997355608079 0.9650347179252183
vn -0.2619659234286816 -0.009046997355608079 -0.9650347179252183
vn 0.14431802966154336 0.004017000825610028 0.9895232033757354
vn -0.14431802966154336 -0.004017000825610028 -0.9895232033757354
vn 0.13401205085865506 0.009478003596978653 0.9909343760675947
vn -0.13401205085865506 -0.009478003596978653 -0.9909343760675947
vn 0.15783492199950025 0 0.9874655120040454
vn -0.15783492199950025 0 -0.9874655120040454
vn 0.09644196218101525 0 0.9953386096855057
vn -0.09644196218101525 0 -0.9953386096855057
usemtl material_0_0
f 1//1 2//2 3//3
f 3//4 2//5 1//6
f 4//7 2//2 1//1
f 1//6 2//5 4//8
f 2//2 5//9 3//3
f 3//4 5//10 2//5
f 6//11 4//7 1//1
f 1//6 4//8 6//12
f 7//13 4//7 6//11
f 6//12 4//8 7//14
f 8//15 7//13 6//11
f 6//12 7//14 8//16
f 8//15 6//11 9//15
f 9//16 6//12 8//16
f 9//15 6//11 10//15
f 10//16 6//12 9//16
f 11//17 12//18 9//19
f 9//20 12//21 11//22
f 9//15 10//15 13//15
f 13//16 10//16 9//16
f 14//23 11//17 9//19
f 9//20 11//22 14//24
f 9//15 13//15 15//15
f 15//16 13//16 9//16
f 16//25 11//17 14//23
f 14//24 11//22 16//26
f 9//15 15//15 17//15
f 17//16 15//16 9//16
f 16//25 14//23 18//27
f 18//28 14//24 16//26
f 16//25 18//27 19//29
f 19//30 18//28 16//26
f 19//29 18//27 20//31
f 20//32 18//28 19//30
f 20//31 18//27 21//33
f 21//34 18//28 20//32
f 20//31 21//33 22//35
f 22//36 21//34 20//32
f 22//35 21//33 23//37
f 23//38 21//34 22//36
f 23//37 21//33 24//39
f 24//40 21//34 23//38
f 22//35 23//37 25//41
f 25//42 23//38 22//36
f 22//35 25//41 26//41
f 26//42 25//42 22//36
f 22//35 26//41 27//41
f 27//42 26//42 22//36
