# SSTK version 0.8.0
# 2
mtllib original-2.mtl
o Group2/mesh2/mesh2-geometry#mesh2-geometry
v 0.033125 -0.333809 -0.404092
v 0.032450 -0.719630 -0.398715
v 0.028941 -0.333809 -0.389598
v 0.032826 -0.719630 -0.409786
v 0.028941 -0.719630 -0.389598
v 0.030914 -0.333809 -0.416934
v 0.024647 -0.333809 -0.383813
v 0.028941 -0.719630 -0.421002
v 0.022800 -0.719630 -0.382000
v 0.023391 -0.333809 -0.428052
v 0.014734 -0.333809 -0.376708
v 0.021170 -0.719630 -0.429974
v 0.013400 -0.719630 -0.376139
v 0.012648 -0.333809 -0.434750
v 0.001744 -0.526720 -0.373896
v 0.011395 -0.719630 -0.435184
v 0.001744 -0.623175 -0.373896
v 0.001744 -0.430264 -0.373896
v 0.001744 -0.526720 -0.436704
v 0.001744 -0.719630 -0.373896
v 0.001744 -0.333809 -0.373896
v 0.001744 -0.430264 -0.436704
v 0.001744 -0.623175 -0.436704
v 0.001744 -0.333809 -0.436704
v 0.001744 -0.719630 -0.436704
vn -0.9988462576459329 -0.0008990002318912855 -0.048014012384904
vn -0.9741854291959949 -0.000306000134814153 -0.22574909945807695
vn -0.9095129336223842 -0.000736999946212548 -0.41567496966341827
vn 0.9095129336223842 0.000736999946212548 0.41567496966341827
vn 0.9741854291959949 0.000306000134814153 0.22574909945807695
vn 0.9988462576459329 0.0008990002318912855 0.048014012384904
vn -0.9877382006743458 0.00030800006257495846 0.15611903171800437
vn 0.9877382006743458 -0.00030800006257495846 -0.15611903171800437
vn -0.8460768363979454 0.0002589999499184684 -0.5330608969244232
vn 0.8460768363979454 -0.0002589999499184684 0.5330608969244232
vn -0.933747811856371 -0.0006889998611714444 0.35793092787943076
vn 0.933747811856371 0.0006889998611714444 -0.35793092787943076
vn -0.7279491373982286 -0.00008800001660958846 -0.6856311294108309
vn 0.7279491373982286 0.00008800001660958846 0.6856311294108309
vn -0.8537500338029528 0.00026800001061094307 0.5206830206156636
vn 0.8537500338029528 -0.00026800001061094307 -0.5206830206156636
vn -0.6364099793962272 0.00010699999653604643 -0.7713509750275125
vn 0.6364099793962272 -0.00010699999653604643 0.7713509750275125
vn -0.7154533042072324 -0.0005990002546921227 0.6986602970669281
vn 0.7154533042072324 0.0005990002546921227 -0.6986602970669281
vn -0.3533399804514661 -0.00024499998644516836 -0.9354949482437434
vn 0.3533399804514661 0.00024499998644516836 0.9354949482437434
vn -0.5926437632788673 0.00014799994088384656 0.8054646782712941
vn 0.5926437632788673 -0.00014799994088384656 -0.8054646782712941
vn -0.2804620345522236 -0.00004400000542047787 -0.9598651182529903
vn 0.2804620345522236 0.00004400000542047787 0.9598651182529903
vn -0.3083370466657364 -0.00024700003738280517 0.9512771439724773
vn 0.3083370466657364 0.00024700003738280517 -0.9512771439724773
vn -0.20051895709285789 -0.0002499999465046746 -0.9796897903655112
vn 0.20051895709285789 0.0002499999465046746 0.9796897903655112
vn -0.23943886273823944 -0.00000799999541410353 0.9709114434110965
vn 0.23943886273823944 0.00000799999541410353 -0.9709114434110965
vn -0.18898191678324866 0 -0.9819805675923172
vn 0.18898191678324866 0 0.9819805675923172
vn -0.21160389382227118 0 -0.9773555095865848
vn 0.21160389382227118 0 0.9773555095865848
vn -0.16618298552255437 -0.00018899998353501358 0.98609491409388
vn 0.16618298552255437 0.00018899998353501358 -0.98609491409388
vn -0.17636902106401797 0 0.9843241175593128
vn 0.17636902106401797 0 -0.9843241175593128
vn -0.15554301881370697 0 0.9878291194828784
vn 0.15554301881370697 0 -0.9878291194828784
usemtl material_0_0
f 1//1 2//2 3//3
f 3//4 2//5 1//6
f 4//7 2//2 1//1
f 1//6 2//5 4//8
f 2//2 5//9 3//3
f 3//4 5//10 2//5
f 6//11 4//7 1//1
f 1//6 4//8 6//12
f 5//9 7//13 3//3
f 3//4 7//14 5//10
f 8//15 4//7 6//11
f 6//12 4//8 8//16
f 5//9 9//17 7//13
f 7//14 9//18 5//10
f 10//19 8//15 6//11
f 6//12 8//16 10//20
f 7//13 9//17 11//21
f 11//22 9//18 7//14
f 12//23 8//15 10//19
f 10//20 8//16 12//24
f 11//21 9//17 13//25
f 13//26 9//18 11//22
f 14//27 12//23 10//19
f 10//20 12//24 14//28
f 11//21 13//25 15//29
f 15//30 13//26 11//22
f 14//27 16//31 12//23
f 12//24 16//32 14//28
f 15//29 13//25 17//33
f 17//34 13//26 15//30
f 11//21 15//29 18//35
f 18//36 15//30 11//22
f 14//27 19//37 16//31
f 16//32 19//38 14//28
f 17//33 13//25 20//33
f 20//34 13//26 17//34
f 11//21 18//35 21//35
f 21//36 18//36 11//22
f 14//27 22//39 19//37
f 19//38 22//40 14//28
f 19//37 23//41 16//31
f 16//32 23//42 19//38
f 24//39 22//39 14//27
f 14//28 22//40 24//40
f 23//41 25//41 16//31
f 16//32 25//42 23//42
