# SSTK version 0.8.0
# 37
mtllib original-37.mtl
o #ID305
v -0.685227 0.025081 0.165106
v -0.755280 0.025081 0.096026
v -0.755280 0.025081 0.165106
v -0.685227 0.025081 0.096026
v -0.685227 0.025081 0.096026
v -0.685227 0.025081 0.165106
v -0.755280 0.025081 0.096026
v -0.755280 0.025081 0.165106
v -0.755280 0.025081 0.096026
v -0.685227 0.005461 0.096026
v -0.755280 0.005461 0.096026
v -0.685227 0.025081 0.096026
v -0.685227 0.025081 0.096026
v -0.755280 0.025081 0.096026
v -0.685227 0.005461 0.096026
v -0.755280 0.005461 0.096026
v -0.755280 0.025081 0.096026
v -0.755280 0.005461 0.165106
v -0.755280 0.025081 0.165106
v -0.755280 0.005461 0.096026
v -0.755280 0.005461 0.096026
v -0.755280 0.025081 0.096026
v -0.755280 0.005461 0.165106
v -0.755280 0.025081 0.165106
v -0.685227 0.025081 0.165106
v -0.755280 0.005461 0.165106
v -0.685227 0.005461 0.165106
v -0.755280 0.025081 0.165106
v -0.755280 0.025081 0.165106
v -0.685227 0.025081 0.165106
v -0.755280 0.005461 0.165106
v -0.685227 0.005461 0.165106
v -0.685227 0.005461 0.096026
v -0.685227 0.025081 0.165106
v -0.685227 0.005461 0.165106
v -0.685227 0.025081 0.096026
v -0.685227 0.025081 0.096026
v -0.685227 0.005461 0.096026
v -0.685227 0.025081 0.165106
v -0.685227 0.005461 0.165106
vt 0.1432211 0.1935731
vt 0.1074498 0.3190283
vt 0.1074498 0.1935731
vt 0.1432211 0.3190283
vn 0 1 0
vn 0 -1 0
vn 0 0 -1
vn 0 0 1
vn -1 0 0
vn 1 0 0
usemtl material_0_0
f 1/1/1 2/2/1 3/3/1
f 2/2/1 1/1/1 4/4/1
f 5/4/2 6/1/2 7/2/2
f 8/3/2 7/2/2 6/1/2
f 9/2/3 10/4/3 11/2/3
f 10/4/3 9/2/3 12/4/3
f 13/4/4 14/2/4 15/4/4
f 16/2/4 15/4/4 14/2/4
f 17/2/5 18/3/5 19/3/5
f 18/3/5 17/2/5 20/2/5
f 21/2/6 22/2/6 23/3/6
f 24/3/6 23/3/6 22/2/6
f 25/1/4 26/3/4 27/1/4
f 26/3/4 25/1/4 28/3/4
f 29/3/3 30/1/3 31/3/3
f 32/1/3 31/3/3 30/1/3
f 33/4/6 34/1/6 35/1/6
f 34/1/6 33/4/6 36/4/6
f 37/4/5 38/4/5 39/1/5
f 40/1/5 39/1/5 38/4/5
