# SSTK version 0.8.0
# 49
mtllib original-49.mtl
o #ID401
v -0.945308 0.025081 0.082296
v -0.810641 0.025081 0.012552
v -0.945308 0.025081 0.012552
v -0.810641 0.025081 0.082296
v -0.810641 0.025081 0.082296
v -0.945308 0.025081 0.082296
v -0.810641 0.025081 0.012552
v -0.945308 0.025081 0.012552
v -0.945308 0.025081 0.012552
v -0.945308 0.005461 0.082296
v -0.945308 0.025081 0.082296
v -0.945308 0.005461 0.012552
v -0.945308 0.005461 0.012552
v -0.945308 0.025081 0.012552
v -0.945308 0.005461 0.082296
v -0.945308 0.025081 0.082296
v -0.810641 0.025081 0.082296
v -0.945308 0.005461 0.082296
v -0.810641 0.005461 0.082296
v -0.945308 0.025081 0.082296
v -0.945308 0.025081 0.082296
v -0.810641 0.025081 0.082296
v -0.945308 0.005461 0.082296
v -0.810641 0.005461 0.082296
v -0.810641 0.005461 0.012552
v -0.810641 0.025081 0.082296
v -0.810641 0.005461 0.082296
v -0.810641 0.025081 0.012552
v -0.810641 0.025081 0.012552
v -0.810641 0.005461 0.012552
v -0.810641 0.025081 0.082296
v -0.810641 0.005461 0.082296
v -0.945308 0.025081 0.012552
v -0.810641 0.005461 0.012552
v -0.945308 0.005461 0.012552
v -0.810641 0.025081 0.012552
v -0.810641 0.025081 0.012552
v -0.945308 0.025081 0.012552
v -0.810641 0.005461 0.012552
v -0.945308 0.005461 0.012552
vt 0.01041576 0.3439632
vt 0.0791807 0.4706265
vt 0.01041576 0.4706265
vt 0.0791807 0.3439632
vn 0 1 0
vn 0 -1 0
vn -1 0 0
vn 1 0 0
vn 0 0 1
vn 0 0 -1
usemtl material_0_0
f 1/1/1 2/2/1 3/3/1
f 2/2/1 1/1/1 4/4/1
f 5/4/2 6/1/2 7/2/2
f 8/3/2 7/2/2 6/1/2
f 9/3/3 10/1/3 11/1/3
f 10/1/3 9/3/3 12/3/3
f 13/3/4 14/3/4 15/1/4
f 16/1/4 15/1/4 14/3/4
f 17/4/5 18/1/5 19/4/5
f 18/1/5 17/4/5 20/1/5
f 21/1/6 22/4/6 23/1/6
f 24/4/6 23/1/6 22/4/6
f 25/2/4 26/4/4 27/4/4
f 26/4/4 25/2/4 28/2/4
f 29/2/3 30/2/3 31/4/3
f 32/4/3 31/4/3 30/2/3
f 33/3/6 34/2/6 35/3/6
f 34/2/6 33/3/6 36/2/6
f 37/2/5 38/3/5 39/2/5
f 40/3/5 39/2/5 38/3/5
