# SSTK version 0.8.0
# 80
mtllib original-80.mtl
o #ID649
v 0.292775 0.025081 0.249083
v 0.292516 0.005461 0.249261
v 0.292775 0.005461 0.249083
v 0.292516 0.025081 0.249261
v 0.292516 0.025081 0.249261
v 0.292775 0.025081 0.249083
v 0.292516 0.005461 0.249261
v 0.292775 0.005461 0.249083
v 0.293009 0.025081 0.248873
v 0.293009 0.005461 0.248873
v 0.293009 0.025081 0.248873
v 0.293009 0.005461 0.248873
v 0.291172 0.025081 0.249617
v 0.184032 0.025081 0.178836
v 0.184032 0.025081 0.249617
v 0.293719 0.025081 0.178836
v 0.291633 0.025081 0.249577
v 0.291940 0.025081 0.249510
v 0.292236 0.025081 0.249404
v 0.292516 0.025081 0.249261
v 0.292775 0.025081 0.249083
v 0.293009 0.025081 0.248873
v 0.293214 0.025081 0.248634
v 0.293386 0.025081 0.248371
v 0.293524 0.025081 0.248089
v 0.293623 0.025081 0.247790
v 0.293684 0.025081 0.247482
v 0.293719 0.025081 0.246946
v 0.293719 0.025081 0.246946
v 0.293684 0.025081 0.247482
v 0.293719 0.025081 0.178836
v 0.293623 0.025081 0.247790
v 0.293524 0.025081 0.248089
v 0.293386 0.025081 0.248371
v 0.293214 0.025081 0.248634
v 0.293009 0.025081 0.248873
v 0.292775 0.025081 0.249083
v 0.292516 0.025081 0.249261
v 0.292236 0.025081 0.249404
v 0.291940 0.025081 0.249510
v 0.291633 0.025081 0.249577
v 0.291172 0.025081 0.249617
v 0.184032 0.025081 0.178836
v 0.184032 0.025081 0.249617
v 0.292236 0.005461 0.249404
v 0.292236 0.025081 0.249404
v 0.292236 0.025081 0.249404
v 0.292236 0.005461 0.249404
v 0.293214 0.005461 0.248634
v 0.293214 0.025081 0.248634
v 0.293214 0.025081 0.248634
v 0.293214 0.005461 0.248634
v 0.293719 0.005461 0.246946
v 0.293684 0.025081 0.247482
v 0.293684 0.005461 0.247482
v 0.293719 0.025081 0.246946
v 0.293719 0.025081 0.246946
v 0.293719 0.005461 0.246946
v 0.293684 0.025081 0.247482
v 0.293684 0.005461 0.247482
v 0.293719 0.005461 0.178836
v 0.293719 0.025081 0.246946
v 0.293719 0.005461 0.246946
v 0.293719 0.025081 0.178836
v 0.293719 0.025081 0.178836
v 0.293719 0.005461 0.178836
v 0.293719 0.025081 0.246946
v 0.293719 0.005461 0.246946
v 0.184032 0.025081 0.178836
v 0.293719 0.005461 0.178836
v 0.184032 0.005461 0.178836
v 0.293719 0.025081 0.178836
v 0.293719 0.025081 0.178836
v 0.184032 0.025081 0.178836
v 0.293719 0.005461 0.178836
v 0.184032 0.005461 0.178836
v 0.184032 0.025081 0.178836
v 0.184032 0.005461 0.249617
v 0.184032 0.025081 0.249617
v 0.184032 0.005461 0.178836
v 0.184032 0.005461 0.178836
v 0.184032 0.025081 0.178836
v 0.184032 0.005461 0.249617
v 0.184032 0.025081 0.249617
v 0.291172 0.025081 0.249617
v 0.184032 0.005461 0.249617
v 0.291172 0.005461 0.249617
v 0.184032 0.025081 0.249617
v 0.184032 0.025081 0.249617
v 0.291172 0.025081 0.249617
v 0.184032 0.005461 0.249617
v 0.291172 0.005461 0.249617
v 0.291633 0.025081 0.249577
v 0.291172 0.005461 0.249617
v 0.291633 0.005461 0.249577
v 0.291172 0.025081 0.249617
v 0.291172 0.025081 0.249617
v 0.291633 0.025081 0.249577
v 0.291172 0.005461 0.249617
v 0.291633 0.005461 0.249577
v 0.291940 0.025081 0.249510
v 0.291940 0.005461 0.249510
v 0.291940 0.025081 0.249510
v 0.291940 0.005461 0.249510
v 0.293386 0.005461 0.248371
v 0.293386 0.025081 0.248371
v 0.293386 0.025081 0.248371
v 0.293386 0.005461 0.248371
v 0.293524 0.005461 0.248089
v 0.293524 0.025081 0.248089
v 0.293524 0.025081 0.248089
v 0.293524 0.005461 0.248089
v 0.293623 0.005461 0.247790
v 0.293623 0.025081 0.247790
v 0.293623 0.025081 0.247790
v 0.293623 0.005461 0.247790
vt 0.6426183 0.04106264
vt 0.642486 0.04073907
vt 0.6427378 0.04144409
vt 0.6417996 0.04009202
vt 0.587091 0.1686382
vt 0.587091 0.04009202
vt 0.6431002 0.1686382
vt 0.6420351 0.04016421
vt 0.6421919 0.04028609
vt 0.6423431 0.04047877
vt 0.6428424 0.04187708
vt 0.6429305 0.0423544
vt 0.6430007 0.0428681
vt 0.6430516 0.04340963
vt 0.6430825 0.04396997
vt 0.6431002 0.04494238
vn 0.6186232053674595 0 0.7856878068169889
vn 0.5123111913200524 0 0.8587998854495899
vn -0.5123111913200524 0 -0.8587998854495899
vn -0.6186232053674595 0 -0.7856878068169889
vn 0.7146366056540726 0 0.6994959055342822
vn -0.7146366056540726 0 -0.6994959055342822
vn 0 1 0
vn 0 -1 0
vn 0.3974703985887496 0 0.9176149967419347
vn -0.3974703985887496 0 -0.9176149967419347
vn 0.7987529889684983 0 0.6016590916905434
vn -0.7987529889684983 0 -0.6016590916905434
vn 0.9979168777762821 0 0.06451282856329225
vn 0.9916761876317899 0 0.12875689839414076
vn -0.9979168777762821 0 -0.06451282856329225
vn -0.9916761876317899 0 -0.12875689839414076
vn 1 0 0
vn -1 0 0
vn 0 0 -1
vn 0 0 1
vn 0.14995999473622357 0 0.9886920652957176
vn 0.08586432338411472 0 0.9963068392667934
vn -0.08586432338411472 0 -0.9963068392667934
vn -0.14995999473622357 0 -0.9886920652957176
vn 0.2760126969255926 0 0.961153989294047
vn -0.2760126969255926 0 -0.961153989294047
vn 0.8695720558711236 0 0.49380607494042383
vn -0.8695720558711236 0 -0.49380607494042383
vn 0.925914842905816 0 0.377732317503676
vn -0.925914842905816 0 -0.377732317503676
vn 0.9668433208466021 0 0.25537030550616946
vn -0.9668433208466021 0 -0.25537030550616946
usemtl material_0_0
f 1/1/1 2/2/2 3/1/1
f 2/2/2 1/1/1 4/2/2
f 5/2/3 6/1/4 7/2/3
f 8/1/4 7/2/3 6/1/4
f 9/3/5 3/1/1 10/3/5
f 3/1/1 9/3/5 1/1/1
f 6/1/4 11/3/6 8/1/4
f 12/3/6 8/1/4 11/3/6
f 13/4/7 14/5/7 15/6/7
f 14/5/7 13/4/7 16/7/7
f 16/7/7 13/4/7 17/8/7
f 16/7/7 17/8/7 18/9/7
f 16/7/7 18/9/7 19/10/7
f 16/7/7 19/10/7 20/2/7
f 16/7/7 20/2/7 21/1/7
f 16/7/7 21/1/7 22/3/7
f 16/7/7 22/3/7 23/11/7
f 16/7/7 23/11/7 24/12/7
f 16/7/7 24/12/7 25/13/7
f 16/7/7 25/13/7 26/14/7
f 16/7/7 26/14/7 27/15/7
f 16/7/7 27/15/7 28/16/7
f 29/16/8 30/15/8 31/7/8
f 30/15/8 32/14/8 31/7/8
f 32/14/8 33/13/8 31/7/8
f 33/13/8 34/12/8 31/7/8
f 34/12/8 35/11/8 31/7/8
f 35/11/8 36/3/8 31/7/8
f 36/3/8 37/1/8 31/7/8
f 37/1/8 38/2/8 31/7/8
f 38/2/8 39/10/8 31/7/8
f 39/10/8 40/9/8 31/7/8
f 40/9/8 41/8/8 31/7/8
f 41/8/8 42/4/8 31/7/8
f 31/7/8 42/4/8 43/5/8
f 44/6/8 43/5/8 42/4/8
f 4/2/2 45/10/9 2/2/2
f 45/10/9 4/2/2 46/10/9
f 47/10/10 5/2/3 48/10/10
f 7/2/3 48/10/10 5/2/3
f 49/11/11 9/3/5 10/3/5
f 9/3/5 49/11/11 50/11/11
f 51/11/12 52/11/12 11/3/6
f 12/3/6 11/3/6 52/11/12
f 53/16/13 54/15/14 55/15/14
f 54/15/14 53/16/13 56/16/13
f 57/16/15 58/16/15 59/15/16
f 60/15/16 59/15/16 58/16/15
f 61/7/17 62/16/17 63/16/17
f 62/16/17 61/7/17 64/7/17
f 65/7/18 66/7/18 67/16/18
f 68/16/18 67/16/18 66/7/18
f 69/5/19 70/7/19 71/5/19
f 70/7/19 69/5/19 72/7/19
f 73/7/20 74/5/20 75/7/20
f 76/5/20 75/7/20 74/5/20
f 77/5/18 78/6/18 79/6/18
f 78/6/18 77/5/18 80/5/18
f 81/5/17 82/5/17 83/6/17
f 84/6/17 83/6/17 82/5/17
f 85/4/20 86/6/20 87/4/20
f 86/6/20 85/4/20 88/6/20
f 89/6/19 90/4/19 91/6/19
f 92/4/19 91/6/19 90/4/19
f 93/8/21 94/4/22 95/8/21
f 94/4/22 93/8/21 96/4/22
f 97/4/23 98/8/24 99/4/23
f 100/8/24 99/4/23 98/8/24
f 101/9/25 95/8/21 102/9/25
f 95/8/21 101/9/25 93/8/21
f 98/8/24 103/9/26 100/8/24
f 104/9/26 100/8/24 103/9/26
f 46/10/9 102/9/25 45/10/9
f 102/9/25 46/10/9 101/9/25
f 103/9/26 47/10/10 104/9/26
f 48/10/10 104/9/26 47/10/10
f 105/12/27 50/11/11 49/11/11
f 50/11/11 105/12/27 106/12/27
f 107/12/28 108/12/28 51/11/12
f 52/11/12 51/11/12 108/12/28
f 109/13/29 106/12/27 105/12/27
f 106/12/27 109/13/29 110/13/29
f 111/13/30 112/13/30 107/12/28
f 108/12/28 107/12/28 112/13/30
f 113/14/31 110/13/29 109/13/29
f 110/13/29 113/14/31 114/14/31
f 115/14/32 116/14/32 111/13/30
f 112/13/30 111/13/30 116/14/32
f 55/15/14 114/14/31 113/14/31
f 114/14/31 55/15/14 54/15/14
f 59/15/16 60/15/16 115/14/32
f 116/14/32 115/14/32 60/15/16
