# SSTK version 0.8.0
# 66
mtllib original-66.mtl
o #ID537
v 0.887198 0.025081 0.092533
v 0.887198 0.005461 0.169026
v 0.887198 0.025081 0.169026
v 0.887198 0.005461 0.092533
v 0.887198 0.005461 0.092533
v 0.887198 0.025081 0.092533
v 0.887198 0.005461 0.169026
v 0.887198 0.025081 0.169026
v 0.887198 0.005461 0.252040
v 0.887198 0.025081 0.252040
v 0.887198 0.005461 0.252040
v 0.887198 0.025081 0.252040
v 0.956505 0.025081 0.252040
v 0.887198 0.025081 0.169026
v 0.887198 0.025081 0.252040
v 0.887198 0.025081 0.092533
v 0.967459 0.025081 0.092533
v 0.957834 0.025081 0.251724
v 0.959308 0.025081 0.251188
v 0.960710 0.025081 0.250483
v 0.962020 0.025081 0.249621
v 0.963222 0.025081 0.248612
v 0.964299 0.025081 0.247471
v 0.965236 0.025081 0.246213
v 0.966019 0.025081 0.244854
v 0.966641 0.025081 0.243413
v 0.967091 0.025081 0.241911
v 0.967363 0.025081 0.240366
v 0.967459 0.025081 0.238699
v 0.967459 0.025081 0.238699
v 0.967363 0.025081 0.240366
v 0.967459 0.025081 0.092533
v 0.967091 0.025081 0.241911
v 0.966641 0.025081 0.243413
v 0.966019 0.025081 0.244854
v 0.965236 0.025081 0.246213
v 0.964299 0.025081 0.247471
v 0.963222 0.025081 0.248612
v 0.962020 0.025081 0.249621
v 0.960710 0.025081 0.250483
v 0.959308 0.025081 0.251188
v 0.957834 0.025081 0.251724
v 0.956505 0.025081 0.252040
v 0.887198 0.025081 0.092533
v 0.887198 0.025081 0.169026
v 0.887198 0.025081 0.252040
v 0.887198 0.025081 0.092533
v 0.967459 0.005461 0.092533
v 0.887198 0.005461 0.092533
v 0.967459 0.025081 0.092533
v 0.967459 0.025081 0.092533
v 0.887198 0.025081 0.092533
v 0.967459 0.005461 0.092533
v 0.887198 0.005461 0.092533
v 0.956505 0.025081 0.252040
v 0.887198 0.005461 0.252040
v 0.956505 0.005461 0.252040
v 0.887198 0.025081 0.252040
v 0.887198 0.025081 0.252040
v 0.956505 0.025081 0.252040
v 0.887198 0.005461 0.252040
v 0.956505 0.005461 0.252040
v 0.964299 0.005461 0.247471
v 0.963222 0.025081 0.248612
v 0.963222 0.005461 0.248612
v 0.964299 0.025081 0.247471
v 0.964299 0.025081 0.247471
v 0.964299 0.005461 0.247471
v 0.963222 0.025081 0.248612
v 0.963222 0.005461 0.248612
v 0.965236 0.005461 0.246213
v 0.965236 0.025081 0.246213
v 0.965236 0.025081 0.246213
v 0.965236 0.005461 0.246213
v 0.966019 0.005461 0.244854
v 0.966019 0.025081 0.244854
v 0.966019 0.025081 0.244854
v 0.966019 0.005461 0.244854
v 0.966641 0.005461 0.243413
v 0.966641 0.025081 0.243413
v 0.966641 0.025081 0.243413
v 0.966641 0.005461 0.243413
v 0.967091 0.005461 0.241911
v 0.967091 0.025081 0.241911
v 0.967091 0.025081 0.241911
v 0.967091 0.005461 0.241911
v 0.967363 0.005461 0.240366
v 0.967363 0.025081 0.240366
v 0.967363 0.025081 0.240366
v 0.967363 0.005461 0.240366
v 0.967459 0.005461 0.238699
v 0.967459 0.025081 0.238699
v 0.967459 0.025081 0.238699
v 0.967459 0.005461 0.238699
v 0.967459 0.005461 0.092533
v 0.967459 0.025081 0.238699
v 0.967459 0.005461 0.238699
v 0.967459 0.025081 0.092533
v 0.967459 0.025081 0.092533
v 0.967459 0.005461 0.092533
v 0.967459 0.025081 0.238699
v 0.967459 0.005461 0.238699
v 0.957834 0.025081 0.251724
v 0.956505 0.005461 0.252040
v 0.957834 0.005461 0.251724
v 0.956505 0.025081 0.252040
v 0.956505 0.025081 0.252040
v 0.957834 0.025081 0.251724
v 0.956505 0.005461 0.252040
v 0.957834 0.005461 0.251724
v 0.959308 0.025081 0.251188
v 0.959308 0.005461 0.251188
v 0.959308 0.025081 0.251188
v 0.959308 0.005461 0.251188
v 0.960710 0.025081 0.250483
v 0.960710 0.005461 0.250483
v 0.960710 0.025081 0.250483
v 0.960710 0.005461 0.250483
v 0.962020 0.025081 0.249621
v 0.962020 0.005461 0.249621
v 0.962020 0.025081 0.249621
v 0.962020 0.005461 0.249621
vt 0.9461483 0.3253723
vt 0.9461483 0.186453
vt 0.9461483 0.0356925
vt 0.9815395 0.0356925
vt 0.987133 0.3253723
vt 0.9822178 0.03626493
vt 0.9829705 0.03723999
vt 0.9836863 0.03851918
vt 0.9843555 0.0400852
vt 0.9849691 0.0419169
vt 0.9855187 0.0439895
vt 0.985997 0.04627499
vt 0.9863974 0.04874247
vt 0.9867147 0.05135859
vt 0.9869444 0.05408798
vt 0.9870834 0.05689376
vt 0.987133 0.05992085
vn -1 0 0
vn 1 0 0
vn 0 1 0
vn 0 -1 0
vn 0 0 -1
vn 0 0 1
vn 0.7661307486123077 0 0.6426847407794472
vn 0.6863556034796273 0 0.7272661036870319
vn -0.7661307486123077 0 -0.6426847407794472
vn -0.6863556034796273 0 -0.7272661036870319
vn 0.8355492898185228 0 0.549415493305169
vn -0.8355492898185228 0 -0.549415493305169
vn 0.893672802721913 0 0.4487192013666909
vn -0.893672802721913 0 -0.4487192013666909
vn 0.9397155684613746 0 0.3419570885232757
vn -0.9397155684613746 0 -0.3419570885232757
vn 0.973055196217574 0 0.23057229910372742
vn -0.973055196217574 0 -0.23057229910372742
vn 0.9932409545694131 0 0.11607069469095614
vn -0.9932409545694131 0 -0.11607069469095614
vn 0.9983088086940539 0 0.05813366050627338
vn -0.9983088086940539 0 -0.05813366050627338
vn 0.2870390908282372 0 0.9579188693916094
vn 0.23086629634239222 0 0.9729854845850203
vn -0.23086629634239222 0 -0.9729854845850203
vn -0.2870390908282372 0 -0.9579188693916094
vn 0.3962853076033578 0 0.9181274176157207
vn -0.3962853076033578 0 -0.9181274176157207
vn 0.5001743958772001 0 0.8659246928624209
vn -0.5001743958772001 0 -0.8659246928624209
vn 0.5973021810086192 0 0.8020162744996805
vn -0.5973021810086192 0 -0.8020162744996805
usemtl material_0_0
f 1/1/1 2/2/1 3/2/1
f 2/2/1 1/1/1 4/1/1
f 5/1/2 6/1/2 7/2/2
f 8/2/2 7/2/2 6/1/2
f 3/2/1 9/3/1 10/3/1
f 9/3/1 3/2/1 2/2/1
f 7/2/2 8/2/2 11/3/2
f 12/3/2 11/3/2 8/2/2
f 13/4/3 14/2/3 15/3/3
f 14/2/3 13/4/3 16/1/3
f 16/1/3 13/4/3 17/5/3
f 17/5/3 13/4/3 18/6/3
f 17/5/3 18/6/3 19/7/3
f 17/5/3 19/7/3 20/8/3
f 17/5/3 20/8/3 21/9/3
f 17/5/3 21/9/3 22/10/3
f 17/5/3 22/10/3 23/11/3
f 17/5/3 23/11/3 24/12/3
f 17/5/3 24/12/3 25/13/3
f 17/5/3 25/13/3 26/14/3
f 17/5/3 26/14/3 27/15/3
f 17/5/3 27/15/3 28/16/3
f 17/5/3 28/16/3 29/17/3
f 30/17/4 31/16/4 32/5/4
f 31/16/4 33/15/4 32/5/4
f 33/15/4 34/14/4 32/5/4
f 34/14/4 35/13/4 32/5/4
f 35/13/4 36/12/4 32/5/4
f 36/12/4 37/11/4 32/5/4
f 37/11/4 38/10/4 32/5/4
f 38/10/4 39/9/4 32/5/4
f 39/9/4 40/8/4 32/5/4
f 40/8/4 41/7/4 32/5/4
f 41/7/4 42/6/4 32/5/4
f 42/6/4 43/4/4 32/5/4
f 32/5/4 43/4/4 44/1/4
f 44/1/4 43/4/4 45/2/4
f 46/3/4 45/2/4 43/4/4
f 47/1/5 48/5/5 49/1/5
f 48/5/5 47/1/5 50/5/5
f 51/5/6 52/1/6 53/5/6
f 54/1/6 53/5/6 52/1/6
f 55/4/6 56/3/6 57/4/6
f 56/3/6 55/4/6 58/3/6
f 59/3/5 60/4/5 61/3/5
f 62/4/5 61/3/5 60/4/5
f 63/11/7 64/10/8 65/10/8
f 64/10/8 63/11/7 66/11/7
f 67/11/9 68/11/9 69/10/10
f 70/10/10 69/10/10 68/11/9
f 71/12/11 66/11/7 63/11/7
f 66/11/7 71/12/11 72/12/11
f 73/12/12 74/12/12 67/11/9
f 68/11/9 67/11/9 74/12/12
f 75/13/13 72/12/11 71/12/11
f 72/12/11 75/13/13 76/13/13
f 77/13/14 78/13/14 73/12/12
f 74/12/12 73/12/12 78/13/14
f 79/14/15 76/13/13 75/13/13
f 76/13/13 79/14/15 80/14/15
f 81/14/16 82/14/16 77/13/14
f 78/13/14 77/13/14 82/14/16
f 83/15/17 80/14/15 79/14/15
f 80/14/15 83/15/17 84/15/17
f 85/15/18 86/15/18 81/14/16
f 82/14/16 81/14/16 86/15/18
f 87/16/19 84/15/17 83/15/17
f 84/15/17 87/16/19 88/16/19
f 89/16/20 90/16/20 85/15/18
f 86/15/18 85/15/18 90/16/20
f 91/17/21 88/16/19 87/16/19
f 88/16/19 91/17/21 92/17/21
f 93/17/22 94/17/22 89/16/20
f 90/16/20 89/16/20 94/17/22
f 95/5/2 96/17/2 97/17/2
f 96/17/2 95/5/2 98/5/2
f 99/5/1 100/5/1 101/17/1
f 102/17/1 101/17/1 100/5/1
f 103/6/23 104/4/24 105/6/23
f 104/4/24 103/6/23 106/4/24
f 107/4/25 108/6/26 109/4/25
f 110/6/26 109/4/25 108/6/26
f 111/7/27 105/6/23 112/7/27
f 105/6/23 111/7/27 103/6/23
f 108/6/26 113/7/28 110/6/26
f 114/7/28 110/6/26 113/7/28
f 115/8/29 112/7/27 116/8/29
f 112/7/27 115/8/29 111/7/27
f 113/7/28 117/8/30 114/7/28
f 118/8/30 114/7/28 117/8/30
f 119/9/31 116/8/29 120/9/31
f 116/8/29 119/9/31 115/8/29
f 117/8/30 121/9/32 118/8/30
f 122/9/32 118/8/30 121/9/32
f 64/10/8 120/9/31 65/10/8
f 120/9/31 64/10/8 119/9/31
f 121/9/32 69/10/10 122/9/32
f 70/10/10 122/9/32 69/10/10
