# SSTK version 0.8.0
# 27
mtllib original-27.mtl
o #ID223
v -0.150431 0.025081 -0.071829
v -0.080672 0.005461 -0.071829
v -0.150431 0.005461 -0.071829
v -0.080672 0.025081 -0.071829
v -0.080672 0.025081 -0.071829
v -0.150431 0.025081 -0.071829
v -0.080672 0.005461 -0.071829
v -0.150431 0.005461 -0.071829
v -0.150431 0.025081 -0.071829
v -0.150431 0.005461 -0.001178
v -0.150431 0.025081 -0.001178
v -0.150431 0.005461 -0.071829
v -0.150431 0.005461 -0.071829
v -0.150431 0.025081 -0.071829
v -0.150431 0.005461 -0.001178
v -0.150431 0.025081 -0.001178
v -0.080672 0.025081 -0.001178
v -0.150431 0.025081 -0.071829
v -0.150431 0.025081 -0.001178
v -0.080672 0.025081 -0.071829
v -0.080672 0.025081 -0.071829
v -0.080672 0.025081 -0.001178
v -0.150431 0.025081 -0.071829
v -0.150431 0.025081 -0.001178
v -0.080672 0.005461 -0.071829
v -0.080672 0.025081 -0.001178
v -0.080672 0.005461 -0.001178
v -0.080672 0.025081 -0.071829
v -0.080672 0.025081 -0.071829
v -0.080672 0.005461 -0.071829
v -0.080672 0.025081 -0.001178
v -0.080672 0.005461 -0.001178
v -0.080672 0.025081 -0.001178
v -0.150431 0.005461 -0.001178
v -0.080672 0.005461 -0.001178
v -0.150431 0.025081 -0.001178
v -0.150431 0.025081 -0.001178
v -0.080672 0.025081 -0.001178
v -0.150431 0.005461 -0.001178
v -0.080672 0.005461 -0.001178
vt 0.4163038 0.6238712
vt 0.4519249 0.6238712
vt 0.4163038 0.4955613
vt 0.4519249 0.4955613
vn 0 0 -1
vn 0 0 1
vn -1 0 0
vn 1 0 0
vn 0 1 0
vn 0 -1 0
usemtl material_0_0
f 1/1/1 2/2/1 3/1/1
f 2/2/1 1/1/1 4/2/1
f 5/2/2 6/1/2 7/2/2
f 8/1/2 7/2/2 6/1/2
f 9/1/3 10/3/3 11/3/3
f 10/3/3 9/1/3 12/1/3
f 13/1/4 14/1/4 15/3/4
f 16/3/4 15/3/4 14/1/4
f 17/4/5 18/1/5 19/3/5
f 18/1/5 17/4/5 20/2/5
f 21/2/6 22/4/6 23/1/6
f 24/3/6 23/1/6 22/4/6
f 25/2/4 26/4/4 27/4/4
f 26/4/4 25/2/4 28/2/4
f 29/2/3 30/2/3 31/4/3
f 32/4/3 31/4/3 30/2/3
f 33/4/2 34/3/2 35/4/2
f 34/3/2 33/4/2 36/3/2
f 37/3/1 38/4/1 39/3/1
f 40/4/1 39/3/1 38/4/1
