mtllib new-3.mtl
v -0.357539 -0.000591 0.143126
v -0.962767 -0.000591 -0.257505
v -0.970611 -0.000591 -0.255008
v -0.954756 -0.000591 -0.259393
v -0.970611 -0.002309 -0.255008
v -0.946623 -0.000591 -0.260662
v -0.962767 -0.002309 -0.257505
v -0.357539 -0.002309 0.143126
v -0.938417 -0.000591 -0.261305
v -0.946623 -0.002309 -0.260662
v -0.954756 -0.002309 -0.259393
v -0.348989 -0.000591 0.143062
v -0.930186 -0.000591 -0.261316
v -0.938417 -0.002309 -0.261305
v -0.348989 -0.002309 0.143062
v -0.166954 -0.000591 0.081035
v -0.921978 -0.000591 -0.260697
v -0.930186 -0.002309 -0.261316
v -0.166954 -0.002309 0.081035
v -0.340441 -0.000591 0.143238
v -0.875877 -0.000591 -0.244197
v -0.913841 -0.000591 -0.259451
v -0.921978 -0.002309 -0.260697
v -0.875877 -0.002309 -0.244197
v -0.340441 -0.002309 0.143238
v -0.882956 -0.000591 -0.248397
v -0.331901 -0.000591 0.143653
v -0.905825 -0.000591 -0.257585
v -0.913841 -0.002309 -0.259451
v -0.882956 -0.002309 -0.248397
v -0.331901 -0.002309 0.143653
v -0.890336 -0.000591 -0.252042
v -0.323376 -0.000591 0.144306
v -0.897974 -0.000591 -0.255111
v -0.905825 -0.002309 -0.257585
v -0.890336 -0.002309 -0.252042
v -0.323376 -0.002309 0.144306
v -0.314872 -0.000591 0.145198
v -0.897974 -0.002309 -0.255111
v -0.314872 -0.002309 0.145198
vn 0.000000 1.000000 0.000000
vn -0.266591 0.000000 -0.963810
vn -0.303346 0.000000 -0.952881
vn -0.544639 0.000000 0.838671
vn -0.191959 0.000000 -0.981403
vn -0.116200 0.000000 -0.993226
vn 0.000000 -1.000000 0.000000
vn 0.007422 0.000000 0.999972
vn -0.006563 0.000000 0.999978
vn -0.039758 0.000000 -0.999209
vn 0.036919 0.000000 -0.999318
vn -0.034529 0.000000 0.999404
vn 0.113378 0.000000 -0.993552
vn 0.416982 0.000000 -0.908915
vn 0.189172 0.000000 -0.981944
vn -0.062467 0.000000 0.998047
vn 0.510226 0.000000 -0.860040
vn 0.476878 0.000000 -0.878969
vn 0.263852 0.000000 -0.964563
vn 0.408129 0.000000 -0.912924
vn -0.090356 0.000000 0.995910
vn 0.336982 0.000000 -0.941511
vn -0.416982 0.000000 0.908915
vn -0.118175 0.000000 0.992993
vn 0.303346 0.000000 0.952881
vn 0.266591 0.000000 0.963810
vn 0.544639 0.000000 -0.838671
vn 0.191959 0.000000 0.981403
vn 0.116200 0.000000 0.993226
vn -0.007422 0.000000 -0.999972
vn 0.006563 0.000000 -0.999978
vn 0.039758 0.000000 0.999209
vn -0.036919 0.000000 0.999318
vn 0.034529 0.000000 -0.999404
vn -0.113378 0.000000 0.993552
vn -0.189172 0.000000 0.981944
vn 0.062467 0.000000 -0.998047
vn -0.510226 0.000000 0.860040
vn -0.476878 0.000000 0.878969
vn -0.263852 0.000000 0.964563
vn -0.408129 0.000000 0.912924
vn 0.090356 0.000000 -0.995910
vn -0.336982 0.000000 0.941511
vn 0.118175 0.000000 -0.992993
vt 3.939815 0.000000
vt 0.028123 0.034309
vt 0.000000 0.000000
vt 0.058793 0.066363
vt -0.044363 0.087963
vt 0.000000 0.078704
vt 0.000000 0.087963
vt 3.939815 0.087963
vt 0.091828 0.095973
vt -0.088595 0.087963
vt -0.044232 0.078704
vt -0.044232 0.087963
vt -0.044363 0.078704
vt 3.939815 0.078704
vt 0.127035 0.122964
vt -0.132437 0.078704
vt -0.088074 0.087963
vt -0.132437 0.087963
vt -0.088595 0.078704
vt -0.028123 0.034309
vt -3.939815 0.000000
vt 3.288189 0.078704
vt 3.334270 0.087963
vt 3.288189 0.087963
vt 0.164206 0.147179
vt -0.175631 0.078704
vt -0.131268 0.087963
vt -0.175631 0.087963
vt -0.088074 0.078704
vt -0.131268 0.078704
vt -0.058793 0.066363
vt 3.334270 0.078704
vt 4.619017 0.840098
vt 0.203124 0.168474
vt -0.217922 0.078704
vt -0.173559 0.087963
vt -0.217922 0.087963
vt -0.173559 0.078704
vt -0.091828 0.095973
vt -0.127035 0.122964
vt -4.619017 0.840098
vt 3.393664 0.078704
vt 3.439745 0.087963
vt 3.393664 0.087963
vt 0.459937 0.229215
vt 0.243558 0.186725
vt -0.259063 0.078704
vt -0.214700 0.087963
vt -0.259063 0.087963
vt -0.214700 0.078704
vt -0.164206 0.147179
vt -0.459937 0.229215
vt 3.439745 0.078704
vt 0.415611 0.227418
vt -4.692068 0.078704
vt -0.488364 0.087963
vt -4.692068 0.087963
vt 0.285273 0.201824
vt -0.298811 0.078704
vt -0.254448 0.087963
vt -0.298811 0.087963
vt -0.254448 0.078704
vt -0.203124 0.168474
vt -0.415611 0.227418
vt -0.488364 0.078704
vt 3.496466 0.078704
vt 3.542547 0.087963
vt 3.496466 0.087963
vt 0.371553 0.222230
vt -0.468843 0.078704
vt -0.424480 0.087963
vt -0.468843 0.087963
vt 0.328021 0.213682
vt -0.336933 0.078704
vt -0.292570 0.087963
vt -0.336933 0.087963
vt -0.292570 0.078704
vt -0.243558 0.186725
vt -0.371553 0.222230
vt -0.424480 0.078704
vt 3.542547 0.078704
vt -0.439353 0.078704
vt -0.394991 0.087963
vt -0.439353 0.087963
vt 3.596514 0.078704
vt 3.642596 0.087963
vt 3.596514 0.087963
vt -0.373204 0.078704
vt -0.328841 0.087963
vt -0.373204 0.087963
vt -0.328841 0.078704
vt -0.285273 0.201824
vt -0.328021 0.213682
vt -0.394991 0.078704
vt 3.642596 0.078704
vt -0.407411 0.078704
vt -0.363048 0.087963
vt -0.407411 0.087963
vt 3.693731 0.078704
vt 3.739812 0.087963
vt 3.693731 0.087963
vt -0.363048 0.078704
vt 3.739812 0.078704
usemtl material-0
f 1/1/1 2/2/1 3/3/1
f 2/2/1 1/1/1 4/4/1
f 2/5/2 5/6/3 3/7/3
f 5/6/4 1/8/4 3/7/4
f 4/4/1 1/1/1 6/9/1
f 4/10/5 7/11/2 2/12/2
f 5/6/3 2/5/2 7/13/2
f 1/8/4 5/6/4 8/14/4
f 6/9/1 1/1/1 9/15/1
f 10/16/6 4/17/5 6/18/6
f 7/11/2 4/10/5 11/19/5
f 7/20/7 8/21/7 5/3/7
f 8/22/8 12/23/9 1/24/8
f 9/15/1 1/1/1 13/25/1
f 14/26/10 6/27/6 9/28/10
f 4/17/5 10/16/6 11/29/5
f 6/27/6 14/26/10 10/30/6
f 8/21/7 7/20/7 11/31/7
f 12/23/9 8/22/8 15/32/9
f 13/25/1 1/1/1 17/34/1
f 18/35/11 9/36/10 13/37/11
f 9/36/10 18/35/11 14/38/10
f 8/21/7 11/31/7 10/39/7
f 8/21/7 10/39/7 14/40/7
f 15/42/9 20/43/12 12/44/9
f 21/45/1 1/1/1 16/33/1
f 17/34/1 1/1/1 22/46/1
f 23/47/13 13/48/11 17/49/13
f 13/48/11 23/47/13 18/50/11
f 8/21/7 14/40/7 18/51/7
f 8/21/7 24/52/7 19/41/7
f 20/43/12 15/42/9 25/53/12
f 26/54/1 1/1/1 21/45/1
f 19/55/14 21/56/14 16/57/14
f 22/46/1 1/1/1 28/58/1
f 29/59/15 17/60/13 22/61/15
f 17/60/13 29/59/15 23/62/13
f 8/21/7 18/51/7 23/63/7
f 8/21/7 30/64/7 24/52/7
f 21/56/14 19/55/14 24/65/14
f 25/66/12 27/67/16 20/68/12
f 32/69/1 1/1/1 26/54/1
f 24/70/17 26/71/18 21/72/17
f 28/58/1 1/1/1 34/73/1
f 35/74/19 22/75/15 28/76/19
f 22/75/15 35/74/19 29/77/15
f 8/21/7 23/63/7 29/78/7
f 8/21/7 36/79/7 30/64/7
f 26/71/18 24/70/17 30/80/18
f 27/67/16 25/66/12 31/81/16
f 34/73/1 1/1/1 32/69/1
f 30/82/18 32/83/20 26/84/18
f 31/85/16 33/86/21 27/87/16
f 39/88/22 28/89/19 34/90/22
f 28/89/19 39/88/22 35/91/19
f 8/21/7 29/78/7 35/92/7
f 8/21/7 39/93/7 36/79/7
f 32/83/20 30/82/18 36/94/20
f 33/86/21 31/85/16 37/95/21
f 36/96/20 34/97/22 32/98/20
f 37/99/21 38/100/24 33/101/21
f 34/97/22 36/96/20 39/102/22
f 8/21/7 35/92/7 39/93/7
f 38/100/24 37/99/21 40/103/24
usemtl material-1
f 3//7 2//7 1//7
f 4//7 1//7 2//7
f 3//25 5//25 2//26
f 3//27 1//27 5//27
f 6//7 1//7 4//7
f 2//26 7//26 4//28
f 7//26 2//26 5//25
f 8//27 5//27 1//27
f 9//7 1//7 6//7
f 6//29 4//28 10//29
f 11//28 4//28 7//26
f 5//1 8//1 7//1
f 1//30 12//31 8//30
f 13//7 1//7 9//7
f 9//32 6//29 14//32
f 11//28 10//29 4//28
f 10//29 14//32 6//29
f 11//1 7//1 8//1
f 15//31 8//30 12//31
f 17//7 1//7 13//7
f 13//33 9//32 18//33
f 14//32 18//33 9//32
f 10//1 11//1 8//1
f 14//1 10//1 8//1
f 12//31 20//34 15//31
f 16//7 1//7 21//7
f 22//7 1//7 17//7
f 17//35 13//33 23//35
f 18//33 23//35 13//33
f 18//1 14//1 8//1
f 19//1 24//1 8//1
f 25//34 15//31 20//34
f 21//7 1//7 26//7
f 16//23 21//23 19//23
f 28//7 1//7 22//7
f 22//36 17//35 29//36
f 23//35 29//36 17//35
f 23//1 18//1 8//1
f 24//1 30//1 8//1
f 24//23 19//23 21//23
f 20//34 27//37 25//34
f 26//7 1//7 32//7
f 21//38 26//39 24//38
f 34//7 1//7 28//7
f 28//40 22//36 35//40
f 29//36 35//40 22//36
f 29//1 23//1 8//1
f 30//1 36//1 8//1
f 30//39 24//38 26//39
f 31//37 25//34 27//37
f 32//7 1//7 34//7
f 26//39 32//41 30//39
f 27//37 33//42 31//37
f 34//43 28//40 39//43
f 35//40 39//43 28//40
f 35//1 29//1 8//1
f 36//1 39//1 8//1
f 36//41 30//39 32//41
f 37//42 31//37 33//42
f 32//41 34//43 36//41
f 33//42 38//44 37//42
f 39//43 36//41 34//43
f 39//1 35//1 8//1
f 40//44 37//42 38//44