mtllib new-0.mtl
v -0.340056 -0.000591 0.125077
v -0.340056 0.001127 0.125077
v -0.324271 -0.000591 0.102814
v -0.324271 0.001127 0.102814
v -0.164875 -0.000591 -0.184451
v -0.373077 -0.000591 0.001447
v -0.307791 -0.000591 0.081059
v -0.164875 0.001127 -0.184451
v -0.337058 -0.000591 -0.024303
v -0.367481 -0.000591 -0.001553
v -0.307791 0.001127 0.081059
v -0.347487 0.001127 0.069354
v -0.341707 -0.000591 -0.019980
v -0.290632 -0.000591 0.059836
v -0.367481 0.001127 -0.001553
v -0.362020 -0.000591 -0.004789
v -0.345263 0.001127 0.062730
v -0.290632 0.001127 0.059836
v -0.346536 -0.000591 -0.015859
v -0.337058 0.001127 -0.024303
v -0.124569 0.001127 -0.092971
v -0.272813 -0.000591 0.039165
v -0.362020 0.001127 -0.004789
v -0.356702 -0.000591 -0.008257
v -0.344829 0.001127 0.055757
v -0.272813 0.001127 0.039165
v -0.351538 -0.000591 -0.011949
v -0.341707 0.001127 -0.019980
v -0.366395 0.001127 0.031328
v -0.124569 -0.000591 -0.092971
v -0.131128 0.001127 -0.088417
v -0.254349 -0.000591 0.019067
v -0.356702 0.001127 -0.008257
v -0.346214 0.001127 0.048908
v -0.254349 0.001127 0.019067
v -0.346536 0.001127 -0.015859
v -0.373369 0.001127 0.030894
v -0.359771 0.001127 0.033552
v -0.131128 -0.000591 -0.088417
v -0.153045 0.001127 -0.072154
v -0.235261 -0.000591 -0.000439
v -0.351538 0.001127 -0.011949
v -0.349325 0.001127 0.042652
v -0.235261 0.001127 -0.000439
v -0.353949 0.001127 0.037414
v -0.153045 -0.000591 -0.072154
v -0.174438 0.001127 -0.055208
v -0.215567 -0.000591 -0.019332
v -0.380217 0.001127 0.032279
v -0.215567 0.001127 -0.019332
v -0.174438 -0.000591 -0.055208
v -0.195285 0.001127 -0.037595
v -0.195285 -0.000591 -0.037595
vn 0.000000 -1.000000 0.000000
vn 0.000000 1.000000 0.000000
vn 0.787471 0.000000 0.616351
vn -0.787471 0.000000 -0.616351
vn -0.453521 0.000000 -0.891245
vn 0.453521 0.000000 0.891245
vn -0.681052 0.000000 -0.732235
vn 0.681052 0.000000 0.732235
vn -0.491278 0.000000 -0.871003
vn 0.491278 0.000000 0.871003
vn 0.767625 0.000000 0.640899
vn -0.767625 0.000000 -0.640899
vn -0.665212 0.000000 -0.746655
vn 0.665212 0.000000 0.746655
vn 0.915115 0.000000 -0.403194
vn -0.915115 0.000000 0.403194
vn -0.528133 0.000000 -0.849162
vn 0.528133 0.000000 0.849162
vn -0.632621 0.000000 -0.774461
vn 0.632621 0.000000 0.774461
vn 0.747015 0.000000 0.664807
vn -0.747015 0.000000 -0.664807
vn -0.564019 0.000000 -0.825762
vn 0.564019 0.000000 0.825762
vn -0.598869 0.000000 -0.800847
vn 0.598869 0.000000 0.800847
vn 0.583139 0.000000 0.812373
vn 0.570245 0.000000 0.821475
vn -0.570245 0.000000 -0.821475
vn -0.583139 0.000000 -0.812373
vn 0.725660 0.000000 0.688054
vn -0.725660 0.000000 -0.688054
vn 0.608489 0.000000 0.793563
vn -0.608489 0.000000 -0.793563
vn 0.703582 0.000000 0.710614
vn -0.703582 0.000000 -0.710614
vn 0.633232 0.000000 0.773962
vn -0.633232 0.000000 -0.773962
vn 0.680802 0.000000 0.732467
vn -0.680802 0.000000 -0.732467
vn 0.657345 0.000000 0.753590
vn -0.657345 0.000000 -0.753590
vt -2.875183 2.161789
vt 2.875183 2.161789
vt -2.758433 4.075110
vt -2.881181 2.308758
vt 2.758433 4.075110
vt 2.881181 2.308758
vt -2.450244 2.845802
vt -2.891815 2.455464
vt 2.678025 2.391851
vt 2.891815 2.455464
vt -2.441924 2.812613
vt -3.356217 0.064815
vt -4.623568 0.074074
vt -4.623568 0.064815
vt -2.907074 2.601761
vt -3.471798 0.074074
vt -3.437582 0.064815
vt -3.471798 0.064815
vt 2.889301 0.064815
vt 2.742210 0.074074
vt 2.668635 2.428319
vt 2.907074 2.601761
vt -2.432189 2.779811
vt -3.322001 0.064815
vt -3.356217 0.074074
vt -0.613667 0.074074
vt -0.074888 0.064815
vt -0.074888 0.074074
vt -2.926943 2.747504
vt -3.468281 0.074074
vt -3.434065 0.064815
vt -3.434065 0.074074
vt -3.468281 0.064815
vt 2.889301 0.074074
vt 2.650127 2.461114
vt 2.926943 2.747504
vt -3.356893 0.064815
vt -3.391109 0.074074
vt -3.391109 0.064815
vt -3.322001 0.074074
vt 2.450244 2.845802
vt 2.480936 2.508229
vt -0.613667 0.064815
vt 3.192867 3.740085
vt 3.209150 3.779922
vt -2.951402 2.892547
vt 3.117692 0.064815
vt 2.970601 0.074074
vt 2.970601 0.064815
vt -3.458429 0.074074
vt -3.424213 0.064815
vt -3.424213 0.074074
vt -3.458429 0.064815
vt 2.623761 2.488001
vt 3.117692 0.074074
vt 2.951402 2.892547
vt -3.385592 0.064815
vt -3.419808 0.074074
vt -3.419808 0.064815
vt -3.356893 0.074074
vt 2.441924 2.812613
vt 2.448141 2.489721
vt 2.517404 2.517619
vt 4.670110 0.074074
vt 4.713147 0.064815
vt 4.713147 0.074074
vt -3.192867 3.740085
vt -3.209150 3.779922
vt 3.141537 3.602241
vt -2.980427 3.036746
vt 3.343051 0.064815
vt 3.195960 0.074074
vt 3.195960 0.064815
vt 2.408553 2.715608
vt -3.442262 0.074074
vt -3.408046 0.064815
vt -3.408046 0.074074
vt -3.442262 0.064815
vt 2.591335 2.507148
vt 3.343051 0.074074
vt 2.980427 3.036746
vt -3.385592 0.074074
vt 2.432189 2.779811
vt 2.555059 2.517250
vt 4.670110 0.064815
vt -3.141537 3.602241
vt 3.094584 3.462845
vt 4.472075 0.074074
vt 4.619166 0.064815
vt 4.619166 0.074074
vt -3.013989 3.179957
vt 3.565151 0.064815
vt 3.418060 0.074074
vt 3.418060 0.064815
vt 2.421254 2.463356
vt 2.421059 2.747456
vt 3.565151 0.074074
vt 3.013989 3.179957
vt -3.094584 3.462845
vt 4.472075 0.064815
vt 3.052053 3.322037
vt 4.269511 0.074074
vt 4.416602 0.064815
vt 4.416602 0.074074
vt -3.052053 3.322037
vt 3.783772 0.064815
vt 3.636681 0.074074
vt 3.636681 0.064815
vt 3.783772 0.074074
vt 4.269511 0.064815
vt 4.062619 0.074074
vt 4.209710 0.064815
vt 4.209710 0.074074
vt 3.998697 0.064815
vt 3.851606 0.074074
vt 3.851606 0.064815
vt 3.998697 0.074074
vt 4.062619 0.064815
usemtl material-0
f 1/1/1 5/3/1 3/4/1
f 3/4/2 5/3/2 1/1/2
f 8/5/2 2/2/2 4/6/2
f 4/6/1 2/2/1 8/5/1
f 1/1/1 9/7/1 5/3/1
f 5/3/2 9/7/2 1/1/2
f 3/4/1 5/3/1 7/8/1
f 7/8/2 5/3/2 3/4/2
f 12/9/2 2/2/2 8/5/2
f 8/5/1 2/2/1 12/9/1
f 8/5/2 4/6/2 11/10/2
f 11/10/1 4/6/1 8/5/1
f 1/1/1 13/11/1 9/7/1
f 9/7/2 13/11/2 1/1/2
f 9/12/7 8/13/7 5/14/7
f 5/14/8 8/13/8 9/12/8
f 7/8/1 5/3/1 14/15/1
f 14/15/2 5/3/2 7/8/2
f 6/17/5 15/16/9 10/18/9
f 10/18/10 15/16/10 6/17/6
f 8/5/2 17/21/2 12/9/2
f 12/9/1 17/21/1 8/5/1
f 8/5/2 11/10/2 18/22/2
f 18/22/1 11/10/1 8/5/1
f 1/1/1 19/23/1 13/11/1
f 13/11/2 19/23/2 1/1/2
f 13/24/13 20/25/7 9/12/7
f 9/12/8 20/25/8 13/24/14
f 8/13/7 9/12/7 20/25/7
f 20/25/8 9/12/8 8/13/8
f 21/26/15 5/27/15 8/28/15
f 8/28/16 5/27/16 21/26/16
f 14/15/1 5/3/1 22/29/1
f 22/29/2 5/3/2 14/15/2
f 23/30/17 10/31/9 15/32/9
f 15/32/10 10/31/10 23/30/18
f 10/31/9 23/30/17 16/33/17
f 16/33/18 23/30/18 10/31/10
f 11/20/3 14/19/11 18/34/11
f 18/34/12 14/19/12 11/20/4
f 8/5/2 25/35/2 17/21/2
f 17/21/1 25/35/1 8/5/1
f 8/5/2 18/22/2 26/36/2
f 26/36/1 18/22/1 8/5/1
f 19/37/19 28/38/13 13/39/13
f 13/39/14 28/38/14 19/37/20
f 20/25/7 13/24/13 28/40/13
f 28/40/14 13/24/14 20/25/8
f 20/41/2 29/42/2 8/5/2
f 8/5/1 29/42/1 20/41/1
f 5/27/15 21/26/15 30/43/15
f 30/43/16 21/26/16 5/27/16
f 8/5/2 31/44/2 21/45/2
f 21/45/1 31/44/1 8/5/1
f 22/29/1 5/3/1 32/46/1
f 32/46/2 5/3/2 22/29/2
f 22/47/21 18/48/11 14/49/11
f 14/49/12 18/48/12 22/47/22
f 33/50/23 16/51/17 23/52/17
f 23/52/18 16/51/18 33/50/24
f 16/51/17 33/50/23 24/53/23
f 24/53/24 33/50/24 16/51/18
f 8/5/2 34/54/2 25/35/2
f 25/35/1 34/54/1 8/5/1
f 18/48/11 22/47/21 26/55/21
f 26/55/22 22/47/22 18/48/12
f 8/5/2 26/36/2 35/56/2
f 35/56/1 26/36/1 8/5/1
f 27/57/25 36/58/19 19/59/19
f 19/59/20 36/58/20 27/57/26
f 28/38/13 19/37/19 36/60/19
f 36/60/20 19/37/20 28/38/14
f 28/61/2 37/62/2 20/41/2
f 20/41/1 37/62/1 28/61/1
f 8/5/2 29/42/2 38/63/2
f 38/63/1 29/42/1 8/5/1
f 31/64/27 30/65/28 21/66/28
f 21/66/29 30/65/29 31/64/30
f 39/67/1 5/3/1 30/68/1
f 30/68/2 5/3/2 39/67/2
f 8/5/2 40/69/2 31/44/2
f 31/44/1 40/69/1 8/5/1
f 32/46/1 5/3/1 41/70/1
f 41/70/2 5/3/2 32/46/2
f 32/71/31 26/72/21 22/73/21
f 22/73/22 26/72/22 32/71/32
f 42/75/25 24/76/23 33/77/23
f 33/77/24 24/76/24 42/75/26
f 24/76/23 42/75/25 27/78/25
f 27/78/26 42/75/26 24/76/24
f 8/5/2 43/79/2 34/54/2
f 34/54/1 43/79/1 8/5/1
f 26/72/21 32/71/31 35/80/31
f 35/80/32 32/71/32 26/72/22
f 8/5/2 35/56/2 44/81/2
f 44/81/1 35/56/1 8/5/1
f 36/58/19 27/57/25 42/82/25
f 42/82/26 27/57/26 36/58/20
f 36/83/2 37/62/2 28/61/2
f 28/61/1 37/62/1 36/83/1
f 8/5/2 38/63/2 45/84/2
f 45/84/1 38/63/1 8/5/1
f 30/65/28 31/64/27 39/85/27
f 39/85/30 31/64/30 30/65/29
f 46/86/1 5/3/1 39/67/1
f 39/67/2 5/3/2 46/86/2
f 8/5/2 47/87/2 40/69/2
f 40/69/1 47/87/1 8/5/1
f 40/88/33 39/89/27 31/90/27
f 31/90/30 39/89/30 40/88/34
f 41/70/1 5/3/1 48/91/1
f 48/91/2 5/3/2 41/70/2
f 41/92/35 35/93/31 32/94/31
f 32/94/32 35/93/32 41/92/36
f 33/74/2 49/95/2 42/96/2
f 42/96/1 49/95/1 33/74/1
f 8/5/2 45/84/2 43/79/2
f 43/79/1 45/84/1 8/5/1
f 35/93/31 41/92/35 44/97/35
f 44/97/36 41/92/36 35/93/32
f 8/5/2 44/81/2 50/98/2
f 50/98/1 44/81/1 8/5/1
f 42/96/2 49/95/2 36/83/2
f 36/83/1 49/95/1 42/96/1
f 51/99/1 5/3/1 46/86/1
f 46/86/2 5/3/2 51/99/2
f 39/89/27 40/88/33 46/100/33
f 46/100/34 40/88/34 39/89/30
f 8/5/2 52/101/2 47/87/2
f 47/87/1 52/101/1 8/5/1
f 47/102/37 46/103/33 40/104/33
f 40/104/34 46/103/34 47/102/38
f 48/91/1 5/3/1 53/105/1
f 53/105/2 5/3/2 48/91/2
f 48/106/39 44/107/35 41/108/35
f 41/108/36 44/107/36 48/106/40
f 44/107/35 48/106/39 50/109/39
f 50/109/40 48/106/40 44/107/36
f 8/5/2 50/98/2 52/101/2
f 52/101/1 50/98/1 8/5/1
f 53/105/1 5/3/1 51/99/1
f 51/99/2 5/3/2 53/105/2
f 46/103/33 47/102/37 51/110/37
f 51/110/38 47/102/38 46/103/34
f 52/111/41 51/112/37 47/113/37
f 47/113/38 51/112/38 52/111/42
f 53/114/41 50/115/39 48/116/39
f 48/116/40 50/115/40 53/114/42
f 50/115/39 53/114/41 52/117/41
f 52/117/42 53/114/42 50/115/40
f 51/112/37 52/111/41 53/118/41
f 53/118/42 52/111/42 51/112/38