# SSTK version 0.8.0
# 11
mtllib original-11.mtl
o Group_6_2/Group_6_1_2/mesh25/mesh25-geometry#mesh25-geometry
v 0.008595 0.484867 0.576519
v 0.001679 0.484867 0.568835
v 0.001679 0.484867 0.576519
v 0.008595 0.484867 0.568835
v 0.004753 0.484311 0.569468
v 0.001679 0.467037 0.574214
v 0.008595 0.484311 0.575887
v 0.005521 0.467037 0.571140
v 0.004753 0.484311 0.575887
v 0.004753 0.467593 0.571629
v 0.005521 0.467037 0.574214
v 0.004753 0.467593 0.573725
v 0.008595 0.484311 0.569468
v 0.001679 0.467037 0.571140
v 0.005521 0.467593 0.571629
v 0.005521 0.467593 0.573725
vn 0 1 0
vn 0 -1 0
vn -0.178074985583584 -0.9840169203369455 0
vn 0.178074985583584 0.9840169203369455 0
vn 0 -0.1282310416175839 0.9917443218721594
vn 0 0.1282310416175839 -0.9917443218721594
vn 1 0 0
vn -1 0 0
vn 0 -0.12823104161758345 -0.9917443218721594
vn 0 0.12823104161758345 0.9917443218721594
vn -0.1780750222417498 0.12618201576026072 0.9758931218900345
vn 0.1780750222417498 -0.12618201576026072 -0.9758931218900345
vn -0.17807502224174973 0.12618201576026114 -0.9758931218900343
vn 0.17807502224174973 -0.12618201576026114 0.9758931218900343
vn 0.9680651501052896 -0.18829402919630958 0.16551502566426526
vn -0.9680651501052896 0.18829402919630958 -0.16551502566426526
vn 0.9750553276313207 -0.1465430492403779 0.16671005601675543
vn -0.9750553276313207 0.1465430492403779 -0.16671005601675543
vn -0.178074985583584 0.9840169203369455 0
vn 0.178074985583584 -0.9840169203369455 0
vn 0.9639083711568455 -0.1999620769962124 -0.17577206768175085
vn -0.9639083711568455 0.1999620769962124 0.17577206768175085
vn 0.9717688682232916 -0.15576797887708463 -0.17720497597012091
vn -0.9717688682232916 0.15576797887708463 0.17720497597012091
usemtl material_0_0
f 1//1 2//1 3//1
f 2//1 1//1 4//1
f 3//2 2//2 1//2
f 4//2 1//2 2//2
f 5//3 3//3 2//3
f 2//4 3//4 5//4
f 6//5 1//5 3//5
f 3//6 1//6 6//6
f 7//7 4//7 1//7
f 1//8 4//8 7//8
f 8//9 2//9 4//9
f 4//10 2//10 8//10
f 3//3 5//3 9//3
f 9//4 5//4 3//4
f 2//11 10//11 5//11
f 5//12 10//12 2//12
f 1//5 6//5 11//5
f 11//6 6//6 1//6
f 3//13 12//13 6//13
f 6//14 12//14 3//14
f 4//7 7//7 13//7
f 13//8 7//8 4//8
f 11//15 7//15 1//15
f 1//16 7//16 11//16
f 2//9 8//9 14//9
f 14//10 8//10 2//10
f 4//17 15//17 8//17
f 8//18 15//18 4//18
f 12//7 5//7 9//7
f 9//8 5//8 12//8
f 13//2 9//2 5//2
f 5//1 9//1 13//1
f 12//13 3//13 9//13
f 9//14 3//14 12//14
f 10//11 2//11 14//11
f 14//12 2//12 10//12
f 5//7 12//7 10//7
f 10//8 12//8 5//8
f 10//10 13//10 5//10
f 5//9 13//9 10//9
f 6//2 8//2 11//2
f 11//1 8//1 6//1
f 12//19 14//19 6//19
f 6//20 14//20 12//20
f 9//2 13//2 7//2
f 7//1 13//1 9//1
f 4//21 13//21 15//21
f 15//22 13//22 4//22
f 16//23 7//23 11//23
f 11//24 7//24 16//24
f 8//2 6//2 14//2
f 14//1 6//1 8//1
f 16//7 8//7 15//7
f 15//8 8//8 16//8
f 9//6 16//6 12//6
f 12//5 16//5 9//5
f 14//19 12//19 10//19
f 10//20 12//20 14//20
f 16//1 10//1 12//1
f 12//2 10//2 16//2
f 13//10 10//10 15//10
f 15//9 10//9 13//9
f 8//7 16//7 11//7
f 11//8 16//8 8//8
f 16//6 9//6 7//6
f 7//5 9//5 16//5
f 10//1 16//1 15//1
f 15//2 16//2 10//2
