# SSTK version 0.8.0
# 16
mtllib original-16.mtl
o equo_bulb1/equo_bulb/mesh63/mesh63-geometry#mesh63-geometry
v 0.025431 0.489061 0.872791
v 0.024698 0.485115 0.872791
v 0.026269 0.485115 0.872791
v 0.024372 0.486652 0.872791
v 0.026269 0.485115 0.577705
v 0.025431 0.489061 0.577705
v 0.023989 0.488453 0.872791
v 0.024372 0.486652 0.578474
v 0.024698 0.485115 0.578474
v 0.022975 0.492738 0.577705
v -0.020632 0.488453 0.872791
v 0.023989 0.488453 0.872023
v 0.024698 0.485115 0.577705
v -0.022074 0.489061 0.577705
v 0.022975 0.492738 0.872791
v 0.023989 0.491220 0.577705
v -0.022074 0.489061 0.872791
v -0.021340 0.485115 0.578474
v 0.024372 0.486652 0.577705
v 0.023989 0.488453 0.578474
v -0.020632 0.491220 0.577705
v 0.019067 0.495896 0.577705
v -0.019617 0.492738 0.577705
v -0.021014 0.486652 0.872791
v -0.020632 0.488453 0.872023
v -0.021014 0.486652 0.578474
v 0.023989 0.491220 0.578474
v -0.021340 0.485115 0.577705
v 0.019067 0.495896 0.872791
v -0.015709 0.495896 0.577705
v -0.019617 0.492738 0.872791
v -0.022912 0.485115 0.872791
v -0.020632 0.491220 0.872023
v 0.023989 0.491220 0.872023
v -0.020632 0.488453 0.578474
v -0.021340 0.485115 0.872791
v -0.022912 0.485115 0.577705
v 0.013974 0.498319 0.577705
v -0.010616 0.498319 0.577705
v -0.015709 0.495896 0.872791
v 0.023989 0.488453 0.577705
v -0.020632 0.491220 0.578474
v 0.013974 0.498319 0.872791
v -0.010616 0.498319 0.872791
v 0.008043 0.499842 0.577705
v -0.004686 0.499842 0.577705
v -0.004686 0.499842 0.872791
v 0.008043 0.499842 0.872791
v 0.001679 0.500361 0.577705
v 0.001679 0.500361 0.872791
vn 0 0 1
vn 0 0 -1
vn 0 -1 0
vn 0 1 0
vn 0.9781900239441358 0.20771200508437454 0
vn 0.9214073385007009 0.388598142760686 0
vn -0.9214073385007009 -0.388598142760686 0
vn -0.9781900239441358 -0.20771200508437454 0
vn 0.7384071610931391 0.6743551471193581 0
vn -0.7384071610931391 -0.6743551471193581 0
vn 0.8315051237637264 0.5555170826848354 0
vn -0.8315051237637264 -0.5555170826848354 0
vn 0.5327331690421214 0.8462832685350328 0
vn -0.5327331690421214 -0.8462832685350328 0
vn -1 0 0
vn 1 0 0
vn -0.9214073385007009 0.388598142760686 0
vn -0.7384071610931391 0.6743551471193581 0
vn -0.8315051237637264 0.5555170826848354 0
vn 0.8315051237637264 -0.5555170826848354 0
vn 0.7384071610931391 -0.6743551471193581 0
vn 0.9214073385007009 -0.388598142760686 0
vn 0.9781900239441358 -0.20771200508437454 0
vn -0.9781900239441358 0.20771200508437454 0
vn 0.3407520700393803 0.9401531932423977 0
vn -0.3407520700393803 -0.9401531932423977 0
vn -0.5327331690421214 0.8462832685350328 0
vn 0.5327331690421214 -0.8462832685350328 0
vn -0.3407520700393803 0.9401531932423977 0
vn 0.3407520700393803 -0.9401531932423977 0
vn 0.16564507286314242 0.9861854337984131 0
vn -0.16564507286314242 -0.9861854337984131 0
vn -0.16564507286314242 0.9861854337984131 0
vn 0.16564507286314242 -0.9861854337984131 0
usemtl material_0_0
f 1//1 2//1 3//1
f 2//1 1//1 4//1
f 3//2 2//2 1//2
f 4//2 1//2 2//2
f 2//3 5//3 3//3
f 3//4 5//4 2//4
f 3//5 6//6 1//6
f 1//7 6//7 3//8
f 4//1 1//1 7//1
f 7//2 1//2 4//2
f 8//8 2//8 4//8
f 4//5 2//5 8//5
f 9//3 5//3 2//3
f 2//4 5//4 9//4
f 6//6 3//5 5//5
f 5//8 3//8 6//7
f 10//9 1//6 6//6
f 6//7 1//7 10//10
f 7//1 1//1 11//1
f 11//2 1//2 7//2
f 12//8 4//8 7//8
f 7//5 4//5 12//5
f 2//8 8//8 9//8
f 9//5 8//5 2//5
f 4//8 12//8 8//8
f 8//5 12//5 4//5
f 5//3 9//3 13//3
f 13//4 9//4 5//4
f 5//2 14//2 6//2
f 6//1 14//1 5//1
f 1//6 10//9 15//9
f 15//10 10//10 1//7
f 10//9 6//6 16//11
f 16//12 6//7 10//10
f 17//1 11//1 1//1
f 1//2 11//2 17//2
f 11//3 12//3 7//3
f 7//4 12//4 11//4
f 8//1 18//1 9//1
f 9//2 18//2 8//2
f 19//8 9//8 8//8
f 8//5 9//5 19//5
f 8//8 12//8 20//8
f 20//5 12//5 8//5
f 9//8 19//8 13//8
f 13//5 19//5 9//5
f 18//3 13//3 9//3
f 9//4 13//4 18//4
f 13//2 14//2 5//2
f 5//1 14//1 13//1
f 6//2 14//2 21//2
f 21//1 14//1 6//1
f 22//13 15//9 10//9
f 10//10 15//10 22//14
f 17//1 1//1 15//1
f 15//2 1//2 17//2
f 6//2 21//2 16//2
f 16//1 21//1 6//1
f 16//2 23//2 10//2
f 10//1 23//1 16//1
f 17//1 24//1 11//1
f 11//2 24//2 17//2
f 12//3 11//3 25//3
f 25//4 11//4 12//4
f 18//1 8//1 26//1
f 26//2 8//2 18//2
f 12//15 27//15 20//15
f 20//16 27//16 12//16
f 26//1 8//1 20//1
f 20//2 8//2 26//2
f 13//3 18//3 28//3
f 28//4 18//4 13//4
f 28//2 14//2 13//2
f 13//1 14//1 28//1
f 14//17 23//18 21//19
f 21//20 23//21 14//22
f 15//9 22//13 29//13
f 29//14 22//14 15//10
f 10//2 30//2 22//2
f 22//1 30//1 10//1
f 17//1 15//1 31//1
f 31//2 15//2 17//2
f 16//2 21//2 23//2
f 23//1 21//1 16//1
f 10//2 23//2 30//2
f 30//1 23//1 10//1
f 32//1 24//1 17//1
f 17//2 24//2 32//2
f 24//23 25//23 11//23
f 11//24 25//24 24//24
f 33//2 12//2 25//2
f 25//1 12//1 33//1
f 24//23 18//23 26//23
f 26//24 18//24 24//24
f 27//15 12//15 34//15
f 34//16 12//16 27//16
f 16//15 20//15 27//15
f 27//16 20//16 16//16
f 35//1 20//1 27//1
f 27//2 20//2 35//2
f 26//1 20//1 35//1
f 35//2 20//2 26//2
f 36//3 28//3 18//3
f 18//4 28//4 36//4
f 14//2 28//2 37//2
f 37//1 28//1 14//1
f 17//17 23//18 14//17
f 14//22 23//21 17//22
f 38//25 29//13 22//13
f 22//14 29//14 38//26
f 31//1 15//1 29//1
f 29//2 15//2 31//2
f 22//2 30//2 39//2
f 39//1 30//1 22//1
f 23//18 17//17 31//18
f 31//21 17//22 23//21
f 23//18 40//27 30//27
f 30//28 40//28 23//21
f 24//1 32//1 36//1
f 36//2 32//2 24//2
f 14//17 32//24 17//17
f 17//22 32//23 14//22
f 25//23 24//23 26//23
f 26//24 24//24 25//24
f 12//2 33//2 34//2
f 34//1 33//1 12//1
f 35//16 33//16 25//16
f 25//15 33//15 35//15
f 18//23 24//23 36//23
f 36//24 24//24 18//24
f 33//3 27//3 34//3
f 34//4 27//4 33//4
f 20//15 16//15 41//15
f 41//16 16//16 20//16
f 35//1 27//1 42//1
f 42//2 27//2 35//2
f 25//23 26//23 35//23
f 35//24 26//24 25//24
f 32//3 28//3 36//3
f 36//4 28//4 32//4
f 28//3 32//3 37//3
f 37//4 32//4 28//4
f 32//24 14//17 37//24
f 37//23 14//22 32//23
f 29//13 38//25 43//25
f 43//26 38//26 29//14
f 22//2 39//2 38//2
f 38//1 39//1 22//1
f 31//1 29//1 40//1
f 40//2 29//2 31//2
f 30//27 44//29 39//29
f 39//30 44//30 30//28
f 40//27 23//18 31//18
f 31//21 23//21 40//28
f 44//29 30//27 40//27
f 40//28 30//28 44//30
f 33//16 35//16 42//16
f 42//15 35//15 33//15
f 27//3 33//3 42//3
f 42//4 33//4 27//4
f 45//31 43//25 38//25
f 38//26 43//26 45//32
f 40//1 29//1 43//1
f 43//2 29//2 40//2
f 38//2 39//2 46//2
f 46//1 39//1 38//1
f 47//33 39//29 44//29
f 44//30 39//30 47//34
f 40//1 43//1 44//1
f 44//2 43//2 40//2
f 43//25 45//31 48//31
f 48//32 45//32 43//26
f 38//2 46//2 45//2
f 45//1 46//1 38//1
f 39//29 47//33 46//33
f 46//34 47//34 39//30
f 44//1 48//1 47//1
f 47//2 48//2 44//2
f 44//1 43//1 48//1
f 48//2 43//2 44//2
f 49//4 48//31 45//31
f 45//32 48//32 49//3
f 45//2 46//2 49//2
f 49//1 46//1 45//1
f 50//4 46//33 47//33
f 47//34 46//34 50//3
f 47//1 48//1 50//1
f 50//2 48//2 47//2
f 48//31 49//4 50//4
f 50//3 49//3 48//32
f 46//33 50//4 49//4
f 49//3 50//3 46//34
