# SSTK version 0.8.0
# 13
mtllib original-13.mtl
o equo_scrw1/equo_scrw/mesh36/mesh36-geometry#mesh36-geometry
v 0.021659 0.487729 0.576716
v 0.021659 0.485493 0.577530
v 0.021659 0.486664 0.577270
v 0.021659 0.488614 0.575905
v 0.023196 0.486664 0.577270
v 0.023196 0.487729 0.576716
v 0.023196 0.488614 0.575905
v 0.021659 0.484294 0.577477
v 0.023196 0.485493 0.577530
v 0.023196 0.489259 0.574893
v 0.021659 0.489259 0.574893
v 0.023196 0.484294 0.577477
v 0.023196 0.486767 0.576429
v 0.021659 0.483149 0.577117
v 0.023196 0.486045 0.576692
v 0.021659 0.489620 0.573748
v 0.023196 0.484139 0.569208
v 0.023196 0.483149 0.577117
v 0.023196 0.489620 0.573748
v 0.022427 0.486767 0.576429
v 0.021659 0.482137 0.576472
v 0.023196 0.483417 0.569471
v 0.021659 0.489672 0.572549
v 0.022427 0.486045 0.576692
v 0.022427 0.484139 0.569208
v 0.023196 0.489672 0.572549
v 0.021659 0.485779 0.574838
v 0.023196 0.482137 0.576472
v 0.022427 0.483417 0.569471
v 0.021659 0.486245 0.574596
v 0.023196 0.489412 0.571377
v 0.021659 0.485267 0.574952
v 0.023196 0.481326 0.575587
v 0.021659 0.489412 0.571377
v 0.021659 0.486631 0.574241
v 0.023196 0.488858 0.570313
v 0.007826 0.485779 0.574838
v 0.021659 0.481326 0.575587
v 0.007826 0.485267 0.574952
v 0.023196 0.480772 0.574522
v 0.023196 0.481570 0.569995
v 0.021659 0.487071 0.573299
v 0.021659 0.486913 0.573799
v 0.007826 0.486245 0.574596
v 0.023196 0.488047 0.569428
v 0.021659 0.488858 0.570313
v 0.021659 0.484743 0.574929
v 0.007826 0.484743 0.574929
v 0.023196 0.480512 0.573351
v 0.023196 0.480925 0.571007
v 0.023196 0.485890 0.568422
v 0.021659 0.487094 0.572775
v 0.007826 0.486631 0.574241
v 0.023196 0.487035 0.568783
v 0.021659 0.488047 0.569428
v 0.021659 0.486980 0.572263
v 0.007826 0.487625 0.574131
v 0.001679 0.485779 0.574838
v 0.007826 0.483911 0.575483
v 0.001679 0.485267 0.574952
v 0.021659 0.484243 0.574771
v 0.007826 0.483295 0.575091
v 0.001679 0.484743 0.574929
v 0.021659 0.480772 0.574522
v 0.023196 0.480564 0.572151
v 0.021659 0.481570 0.569995
v 0.023196 0.482455 0.569184
v 0.007826 0.487071 0.573299
v 0.007826 0.487094 0.572775
v 0.007826 0.486913 0.573799
v 0.007826 0.487845 0.573435
v 0.001679 0.486245 0.574596
v 0.021659 0.487035 0.568783
v 0.021659 0.485941 0.571129
v 0.021659 0.486738 0.571797
v 0.007826 0.487233 0.574747
v 0.007826 0.484243 0.574771
v 0.021659 0.483800 0.574489
v 0.001679 0.484243 0.574771
v 0.021659 0.480512 0.573351
v 0.021659 0.480564 0.572151
v 0.021659 0.480925 0.571007
v 0.021659 0.482455 0.569184
v 0.023196 0.484691 0.568370
v 0.007826 0.486980 0.572263
v 0.001679 0.486631 0.574241
v 0.021659 0.486384 0.571411
v 0.021659 0.485441 0.570971
v 0.007826 0.486738 0.571797
v 0.001679 0.487233 0.574747
v 0.001679 0.487845 0.573435
v 0.001679 0.487625 0.574131
v 0.001679 0.483911 0.575483
v 0.007826 0.484607 0.575703
v 0.001679 0.483295 0.575091
v 0.007826 0.483800 0.574489
v 0.001679 0.486913 0.573799
v 0.021659 0.483446 0.574102
v 0.021659 0.483090 0.573125
v 0.021659 0.485890 0.568422
v 0.021659 0.484691 0.568370
v 0.021659 0.483520 0.568630
v 0.023196 0.483520 0.568630
v 0.001679 0.487071 0.573299
v 0.007826 0.487877 0.572706
v 0.001679 0.487094 0.572775
v 0.007826 0.487719 0.571994
v 0.001679 0.486980 0.572263
v 0.021659 0.484405 0.571062
v 0.007826 0.485941 0.571129
v 0.021659 0.484917 0.570948
v 0.007826 0.486384 0.571411
v 0.001679 0.486695 0.575240
v 0.001679 0.487877 0.572706
v 0.001679 0.484607 0.575703
v 0.007826 0.486695 0.575240
v 0.007826 0.482802 0.574553
v 0.001679 0.483800 0.574489
v 0.021659 0.483204 0.573637
v 0.021659 0.483113 0.572601
v 0.021659 0.483271 0.572101
v 0.001679 0.486738 0.571797
v 0.021659 0.483939 0.571304
v 0.007826 0.485441 0.570971
v 0.007826 0.487382 0.571347
v 0.001679 0.486384 0.571411
v 0.001679 0.485336 0.575734
v 0.007826 0.485336 0.575734
v 0.007826 0.483446 0.574102
v 0.001679 0.482802 0.574553
v 0.007826 0.483204 0.573637
v 0.007826 0.483090 0.573125
v 0.021659 0.483553 0.571658
v 0.001679 0.487719 0.571994
v 0.001679 0.483446 0.574102
v 0.001679 0.483204 0.573637
v 0.001679 0.487382 0.571347
v 0.007826 0.484405 0.571062
v 0.007826 0.484917 0.570948
v 0.007826 0.486889 0.570809
v 0.001679 0.485941 0.571129
v 0.007826 0.486273 0.570416
v 0.001679 0.486048 0.575577
v 0.007826 0.486048 0.575577
v 0.007826 0.482465 0.573906
v 0.007826 0.483113 0.572601
v 0.007826 0.483553 0.571658
v 0.001679 0.483090 0.573125
v 0.007826 0.483939 0.571304
v 0.001679 0.485441 0.570971
v 0.001679 0.486889 0.570809
v 0.001679 0.483113 0.572601
v 0.001679 0.482465 0.573906
v 0.007826 0.482307 0.573193
v 0.007826 0.483271 0.572101
v 0.007826 0.482559 0.571768
v 0.001679 0.484405 0.571062
v 0.001679 0.484917 0.570948
v 0.001679 0.486273 0.570416
v 0.001679 0.483271 0.572101
v 0.007826 0.482339 0.572464
v 0.001679 0.483553 0.571658
v 0.001679 0.483939 0.571304
v 0.001679 0.482307 0.573193
v 0.007826 0.482951 0.571153
v 0.007826 0.485577 0.570197
v 0.001679 0.482339 0.572464
v 0.001679 0.482951 0.571153
v 0.001679 0.482559 0.571768
v 0.001679 0.485577 0.570197
v 0.001679 0.483489 0.570660
v 0.007826 0.483489 0.570660
v 0.007826 0.484848 0.570165
v 0.001679 0.484848 0.570165
v 0.001679 0.484136 0.570323
v 0.007826 0.484136 0.570323
vn -1 0 0
vn 1 0 0
vn 0 0.08715556756136303 0.9961947134185447
vn 0 0.34201989488892276 0.9396927112094519
vn 0 -0.34201989488892276 -0.9396927112094519
vn 0 -0.08715556756136303 -0.9961947134185447
vn 0 0.5735761472671559 0.8191522467076349
vn 0 -0.5735761472671559 -0.8191522467076349
vn 0 0.7660444029521043 0.6427876575555526
vn 0 -0.7660444029521043 -0.6427876575555526
vn 0 0.906307675304443 0.422618501351108
vn 0 -0.906307675304443 -0.422618501351108
vn 0 -0.1736486368563149 0.9848076720446199
vn 0 0.1736486368563149 -0.9848076720446199
vn 0 0.9848076720446199 0.1736486368563149
vn 0 -0.9848076720446199 -0.1736486368563149
vn 0 -0.422618501351108 0.906307675304443
vn 0 0.422618501351108 -0.906307675304443
vn 0 -0.9396927112094519 0.34201989488892276
vn 0 0.9396927112094519 -0.34201989488892276
vn 0 0.9961947134185447 -0.08715556756136303
vn 0 -0.9961947134185447 0.08715556756136303
vn 0 -0.6427876575555526 0.7660444029521043
vn 0 0.6427876575555526 -0.7660444029521043
vn 0 -0.8191522467076349 0.5735761472671559
vn 0 0.8191522467076349 -0.5735761472671559
usemtl material_0_0
f 1//1 2//1 3//1
f 2//1 1//1 4//1
f 3//2 2//2 1//2
f 4//2 1//2 2//2
f 2//3 5//4 3//4
f 3//5 5//5 2//6
f 3//4 6//7 1//7
f 1//8 6//8 3//5
f 1//7 7//9 4//9
f 4//10 7//10 1//8
f 2//1 4//1 8//1
f 8//2 4//2 2//2
f 5//4 2//3 9//3
f 9//6 2//6 5//5
f 6//7 3//4 5//4
f 5//5 3//5 6//8
f 7//9 1//7 6//7
f 6//8 1//8 7//10
f 10//11 4//9 7//9
f 7//10 4//10 10//12
f 8//1 4//1 11//1
f 11//2 4//2 8//2
f 8//13 9//3 2//3
f 2//6 9//6 8//14
f 9//2 6//2 5//2
f 5//1 6//1 9//1
f 6//2 12//2 7//2
f 7//1 12//1 6//1
f 4//9 10//11 11//11
f 11//12 10//12 4//10
f 7//2 13//2 10//2
f 10//1 13//1 7//1
f 8//1 11//1 14//1
f 14//2 11//2 8//2
f 9//3 8//13 12//13
f 12//14 8//14 9//6
f 6//2 9//2 12//2
f 12//1 9//1 6//1
f 7//2 12//2 15//2
f 15//1 12//1 7//1
f 10//11 16//15 11//11
f 11//12 16//16 10//12
f 13//2 7//2 15//2
f 15//1 7//1 13//1
f 10//2 13//2 17//2
f 17//1 13//1 10//1
f 14//1 11//1 16//1
f 16//2 11//2 14//2
f 14//17 12//13 8//13
f 8//14 12//14 14//18
f 15//2 12//2 18//2
f 18//1 12//1 15//1
f 16//15 10//11 19//15
f 19//16 10//12 16//16
f 15//5 20//5 13//5
f 13//4 20//4 15//4
f 20//19 17//19 13//19
f 13//20 17//20 20//20
f 10//2 17//2 19//2
f 19//1 17//1 10//1
f 14//1 16//1 21//1
f 21//2 16//2 14//2
f 12//13 14//17 18//17
f 18//18 14//18 12//14
f 15//2 18//2 22//2
f 22//1 18//1 15//1
f 19//15 23//21 16//15
f 16//16 23//22 19//16
f 20//5 15//5 24//5
f 24//4 15//4 20//4
f 17//19 20//19 25//19
f 25//20 20//20 17//20
f 19//2 17//2 26//2
f 26//1 17//1 19//1
f 21//1 16//1 27//1
f 27//2 16//2 21//2
f 28//23 14//17 21//23
f 21//24 14//18 28//24
f 14//17 28//23 18//17
f 18//18 28//24 14//18
f 22//2 18//2 28//2
f 28//1 18//1 22//1
f 29//20 15//20 22//20
f 22//19 15//19 29//19
f 23//21 19//15 26//21
f 26//22 19//16 23//22
f 30//1 16//1 23//1
f 23//2 16//2 30//2
f 15//20 29//20 24//20
f 24//19 29//19 15//19
f 29//2 20//2 24//2
f 24//1 20//1 29//1
f 20//2 29//2 25//2
f 25//1 29//1 20//1
f 29//4 17//4 25//4
f 25//5 17//5 29//5
f 26//2 17//2 31//2
f 31//1 17//1 26//1
f 27//1 16//1 30//1
f 30//2 16//2 27//2
f 32//1 21//1 27//1
f 27//2 21//2 32//2
f 21//23 33//25 28//23
f 28//24 33//26 21//24
f 22//2 28//2 33//2
f 33//1 28//1 22//1
f 17//4 29//4 22//4
f 22//5 29//5 17//5
f 26//21 34//20 23//21
f 23//22 34//19 26//22
f 30//1 23//1 35//1
f 35//2 23//2 30//2
f 31//2 17//2 36//2
f 36//1 17//1 31//1
f 34//20 26//21 31//20
f 31//19 26//22 34//19
f 30//7 37//4 27//4
f 27//5 37//5 30//8
f 21//1 32//1 38//1
f 38//2 32//2 21//2
f 27//4 39//3 32//3
f 32//6 39//6 27//5
f 33//25 21//23 38//25
f 38//26 21//24 33//26
f 22//2 33//2 40//2
f 40//1 33//1 22//1
f 22//2 41//2 17//2
f 17//1 41//1 22//1
f 42//1 23//1 34//1
f 34//2 23//2 42//2
f 35//1 23//1 43//1
f 43//2 23//2 35//2
f 35//9 44//7 30//7
f 30//8 44//8 35//10
f 36//2 17//2 45//2
f 45//1 17//1 36//1
f 46//26 31//20 36//26
f 36//25 31//19 46//25
f 31//20 46//26 34//20
f 34//19 46//25 31//19
f 37//4 30//7 44//7
f 44//8 30//8 37//5
f 39//3 27//4 37//4
f 37//5 27//5 39//6
f 38//1 32//1 47//1
f 47//2 32//2 38//2
f 48//13 32//3 39//3
f 39//6 32//6 48//14
f 38//25 40//19 33//25
f 33//26 40//20 38//26
f 22//2 40//2 49//2
f 49//1 40//1 22//1
f 22//2 50//2 41//2
f 41//1 50//1 22//1
f 51//2 17//2 41//2
f 41//1 17//1 51//1
f 43//1 23//1 42//1
f 42//2 23//2 43//2
f 42//1 34//1 52//1
f 52//2 34//2 42//2
f 43//11 53//9 35//9
f 35//10 53//10 43//12
f 44//7 35//9 53//9
f 53//10 35//10 44//8
f 45//2 17//2 54//2
f 54//1 17//1 45//1
f 55//24 36//26 45//24
f 45//23 36//25 55//23
f 36//26 55//24 46//26
f 46//25 55//23 36//25
f 56//1 34//1 46//1
f 46//2 34//2 56//2
f 57//2 37//2 44//2
f 44//1 37//1 57//1
f 44//7 58//4 37//4
f 37//5 58//5 44//8
f 37//2 59//2 39//2
f 39//1 59//1 37//1
f 37//4 60//3 39//3
f 39//6 60//6 37//5
f 32//3 48//13 47//13
f 47//14 48//14 32//6
f 38//1 47//1 61//1
f 61//2 47//2 38//2
f 39//2 62//2 48//2
f 48//1 62//1 39//1
f 39//3 63//13 48//13
f 48//14 63//14 39//6
f 40//19 38//25 64//19
f 64//20 38//26 40//20
f 64//19 49//22 40//19
f 40//20 49//21 64//20
f 22//2 49//2 65//2
f 65//1 49//1 22//1
f 22//2 65//2 50//2
f 50//1 65//1 22//1
f 50//12 66//10 41//10
f 41//9 66//9 50//11
f 54//2 17//2 51//2
f 51//1 17//1 54//1
f 51//2 41//2 67//2
f 67//1 41//1 51//1
f 68//15 43//11 42//15
f 42//16 43//12 68//16
f 52//1 34//1 56//1
f 56//2 34//2 52//2
f 69//21 42//15 52//21
f 52//22 42//16 69//22
f 53//9 43//11 70//11
f 70//12 43//12 53//10
f 71//2 44//2 53//2
f 53//1 44//1 71//1
f 53//9 72//7 44//7
f 44//8 72//8 53//10
f 73//18 45//24 54//18
f 54//17 45//23 73//17
f 45//24 73//18 55//24
f 55//23 73//17 45//23
f 74//1 46//1 55//1
f 55//2 46//2 74//2
f 56//1 46//1 75//1
f 75//2 46//2 56//2
f 37//2 57//2 76//2
f 76//1 57//1 37//1
f 57//2 44//2 71//2
f 71//1 44//1 57//1
f 58//4 44//7 72//7
f 72//8 44//8 58//5
f 60//3 37//4 58//4
f 58//5 37//5 60//6
f 76//2 59//2 37//2
f 37//1 59//1 76//1
f 39//2 59//2 62//2
f 62//1 59//1 39//1
f 63//13 39//3 60//3
f 60//6 39//6 63//14
f 77//17 47//13 48//13
f 48//14 47//14 77//18
f 47//13 77//17 61//17
f 61//18 77//18 47//14
f 38//1 61//1 78//1
f 78//2 61//2 38//2
f 48//2 62//2 77//2
f 77//1 62//1 48//1
f 79//17 48//13 63//13
f 63//14 48//14 79//18
f 38//1 78//1 64//1
f 64//2 78//2 38//2
f 49//22 64//19 80//22
f 80//21 64//20 49//21
f 80//22 65//16 49//22
f 49//21 65//15 80//21
f 81//16 50//12 65//16
f 65//15 50//11 81//15
f 66//10 50//12 82//12
f 82//11 50//11 66//9
f 83//8 41//10 66//10
f 66//9 41//9 83//7
f 51//14 73//18 54//18
f 54//17 73//17 51//13
f 41//10 83//8 67//8
f 67//7 83//7 41//9
f 51//2 67//2 84//2
f 84//1 67//1 51//1
f 43//11 68//15 70//11
f 70//12 68//16 43//12
f 42//15 69//21 68//15
f 68//16 69//22 42//16
f 85//20 52//21 56//20
f 56//19 52//22 85//19
f 52//21 85//20 69//21
f 69//22 85//19 52//22
f 71//2 53//2 70//2
f 70//1 53//1 71//1
f 70//11 86//9 53//9
f 53//10 86//10 70//12
f 72//7 53//9 86//9
f 86//10 53//10 72//8
f 81//1 55//1 73//1
f 73//2 55//2 81//2
f 87//1 46//1 74//1
f 74//2 46//2 87//2
f 74//1 55//1 88//1
f 88//2 55//2 74//2
f 75//1 46//1 87//1
f 87//2 46//2 75//2
f 89//26 56//20 75//26
f 75//25 56//19 89//25
f 57//11 90//9 76//9
f 76//10 90//10 57//12
f 91//15 57//11 71//15
f 71//16 57//12 91//16
f 72//1 60//1 58//1
f 58//2 60//2 72//2
f 58//1 92//1 72//1
f 72//2 92//2 58//2
f 93//1 58//1 60//1
f 60//2 58//2 93//2
f 76//2 94//2 59//2
f 59//1 94//1 76//1
f 93//17 62//23 59//17
f 59//18 62//24 93//18
f 60//1 86//1 63//1
f 63//2 86//2 60//2
f 95//1 60//1 63//1
f 63//2 60//2 95//2
f 48//13 79//17 77//17
f 77//18 79//18 48//14
f 77//17 78//23 61//17
f 61//18 78//24 77//18
f 77//2 62//2 96//2
f 96//1 62//1 77//1
f 63//1 97//1 79//1
f 79//2 97//2 63//2
f 95//1 63//1 79//1
f 79//2 63//2 95//2
f 64//1 78//1 98//1
f 98//2 78//2 64//2
f 64//1 99//1 80//1
f 80//2 99//2 64//2
f 65//16 80//22 81//16
f 81//15 80//21 65//15
f 50//12 81//16 82//12
f 82//11 81//15 50//11
f 82//1 100//1 66//1
f 66//2 100//2 82//2
f 66//1 101//1 83//1
f 83//2 101//2 66//2
f 73//18 51//14 100//14
f 100//13 51//13 73//17
f 102//5 67//8 83//8
f 83//7 67//7 102//4
f 84//2 67//2 103//2
f 103//1 67//1 84//1
f 84//6 100//14 51//14
f 51//13 100//13 84//3
f 71//2 70//2 68//2
f 68//1 70//1 71//1
f 104//15 70//11 68//15
f 68//16 70//12 104//16
f 105//2 68//2 69//2
f 69//1 68//1 105//1
f 106//21 68//15 69//21
f 69//22 68//16 106//22
f 56//20 89//26 85//20
f 85//19 89//25 56//19
f 107//2 69//2 85//2
f 85//1 69//1 107//1
f 108//20 69//21 85//20
f 85//19 69//22 108//19
f 86//9 70//11 97//11
f 97//12 70//12 86//10
f 60//1 72//1 86//1
f 86//2 72//2 60//2
f 72//1 91//1 86//1
f 86//2 91//2 72//2
f 81//1 109//1 55//1
f 55//2 109//2 81//2
f 81//1 73//1 82//1
f 82//2 73//2 81//2
f 110//18 87//24 74//18
f 74//17 87//23 110//17
f 88//1 55//1 111//1
f 111//2 55//2 88//2
f 88//14 110//18 74//18
f 74//17 110//17 88//13
f 112//24 75//26 87//24
f 87//23 75//25 112//23
f 75//26 112//24 89//26
f 89//25 112//23 75//25
f 90//9 57//11 92//11
f 92//12 57//12 90//10
f 113//7 76//9 90//9
f 90//10 76//10 113//8
f 57//11 91//15 92//11
f 92//12 91//16 57//12
f 71//15 114//21 91//15
f 91//16 114//22 71//16
f 115//1 92//1 58//1
f 58//2 92//2 115//2
f 72//1 92//1 91//1
f 91//2 92//2 72//2
f 58//1 93//1 115//1
f 115//2 93//2 58//2
f 93//1 60//1 95//1
f 95//2 60//2 93//2
f 116//2 94//2 76//2
f 76//1 94//1 116//1
f 94//13 93//17 59//17
f 59//18 93//18 94//14
f 62//23 93//17 95//23
f 95//24 93//18 62//24
f 63//1 86//1 97//1
f 97//2 86//2 63//2
f 79//17 96//23 77//17
f 77//18 96//24 79//18
f 78//23 77//17 96//23
f 96//24 77//18 78//24
f 96//2 62//2 117//2
f 117//1 62//1 96//1
f 79//1 97//1 104//1
f 104//2 97//2 79//2
f 95//1 79//1 118//1
f 118//2 79//2 95//2
f 96//23 98//25 78//23
f 78//24 98//26 96//24
f 64//1 98//1 119//1
f 119//2 98//2 64//2
f 64//1 119//1 99//1
f 99//2 119//2 64//2
f 80//1 99//1 120//1
f 120//2 99//2 80//2
f 80//1 121//1 81//1
f 81//2 121//2 80//2
f 82//1 73//1 100//1
f 100//2 73//2 82//2
f 66//1 100//1 101//1
f 101//2 100//2 66//2
f 83//1 101//1 102//1
f 102//2 101//2 83//2
f 67//8 102//5 103//5
f 103//4 102//4 67//7
f 103//5 101//6 84//6
f 84//3 101//3 103//4
f 100//14 84//6 101//6
f 101//3 84//3 100//13
f 71//2 68//2 105//2
f 105//1 68//1 71//1
f 70//11 104//15 97//11
f 97//12 104//16 70//12
f 68//15 106//21 104//15
f 104//16 106//22 68//16
f 105//2 69//2 107//2
f 107//1 69//1 105//1
f 69//21 108//20 106//21
f 106//22 108//19 69//22
f 107//2 85//2 89//2
f 89//1 85//1 107//1
f 122//26 85//20 89//26
f 89//25 85//19 122//25
f 85//20 122//26 108//20
f 108//19 122//25 85//19
f 86//1 91//1 97//1
f 97//2 91//2 86//2
f 81//1 123//1 109//1
f 109//2 123//2 81//2
f 111//1 55//1 109//1
f 109//2 55//2 111//2
f 87//24 110//18 112//24
f 112//23 110//17 87//23
f 111//6 124//14 88//14
f 88//13 124//13 111//3
f 110//18 88//14 124//14
f 124//13 88//13 110//17
f 125//2 89//2 112//2
f 112//1 89//1 125//1
f 126//24 89//26 112//24
f 112//23 89//25 126//23
f 115//1 90//1 92//1
f 92//2 90//2 115//2
f 76//9 113//7 116//7
f 116//8 113//8 76//10
f 127//1 113//1 90//1
f 90//2 113//2 127//2
f 114//21 71//15 105//21
f 105//22 71//16 114//22
f 104//1 91//1 114//1
f 114//2 91//2 104//2
f 93//17 94//13 115//13
f 115//14 94//14 93//18
f 116//2 128//2 94//2
f 94//1 128//1 116//1
f 95//23 117//25 62//23
f 62//24 117//26 95//24
f 96//23 79//17 118//23
f 118//24 79//18 96//24
f 96//2 117//2 129//2
f 129//1 117//1 96//1
f 97//1 91//1 104//1
f 104//2 91//2 97//2
f 79//1 104//1 118//1
f 118//2 104//2 79//2
f 95//1 118//1 130//1
f 130//2 118//2 95//2
f 98//25 96//23 129//25
f 129//26 96//24 98//26
f 129//25 119//19 98//25
f 98//26 119//20 129//26
f 131//19 99//22 119//19
f 119//20 99//21 131//20
f 132//22 120//16 99//22
f 99//21 120//15 132//21
f 80//1 120//1 121//1
f 121//2 120//2 80//2
f 81//1 121//1 133//1
f 133//2 121//2 81//2
f 101//6 103//5 102//5
f 102//4 103//4 101//3
f 118//1 104//1 106//1
f 106//2 104//2 118//2
f 104//1 114//1 106//1
f 106//2 114//2 104//2
f 134//20 105//21 107//20
f 107//19 105//22 134//19
f 135//1 106//1 108//1
f 108//2 106//2 135//2
f 106//1 134//1 108//1
f 108//2 134//2 106//2
f 107//2 89//2 125//2
f 125//1 89//1 107//1
f 89//26 126//24 122//26
f 122//25 126//23 89//25
f 136//1 108//1 122//1
f 122//2 108//2 136//2
f 108//1 137//1 122//1
f 122//2 137//2 108//2
f 81//1 133//1 123//1
f 123//2 133//2 81//2
f 123//8 138//5 109//5
f 109//4 138//4 123//7
f 109//5 139//6 111//6
f 111//3 139//3 109//4
f 140//2 112//2 110//2
f 110//1 112//1 140//1
f 141//18 112//24 110//18
f 110//17 112//23 141//17
f 124//14 111//6 139//6
f 139//3 111//3 124//13
f 142//2 110//2 124//2
f 124//1 110//1 142//1
f 124//14 141//18 110//18
f 110//17 141//17 124//13
f 125//2 112//2 140//2
f 140//1 112//1 125//1
f 112//24 141//18 126//24
f 126//23 141//17 112//23
f 127//1 90//1 115//1
f 115//2 90//2 127//2
f 143//4 116//7 113//7
f 113//8 116//8 143//5
f 113//1 127//1 143//1
f 143//2 127//2 113//2
f 105//21 134//20 114//21
f 114//22 134//19 105//22
f 128//3 115//13 94//13
f 94//14 115//14 128//6
f 128//2 116//2 144//2
f 144//1 116//1 128//1
f 117//25 95//23 130//25
f 130//26 95//24 117//26
f 118//23 129//25 96//23
f 96//24 129//26 118//24
f 129//2 117//2 145//2
f 145//1 117//1 129//1
f 130//1 118//1 135//1
f 135//2 118//2 130//2
f 119//19 129//25 131//19
f 131//20 129//26 119//20
f 99//22 131//19 132//22
f 132//21 131//20 99//21
f 120//16 132//22 146//16
f 146//15 132//21 120//15
f 146//16 121//12 120//16
f 120//15 121//11 146//15
f 121//12 147//10 133//10
f 133//9 147//9 121//11
f 118//1 106//1 135//1
f 135//2 106//2 118//2
f 106//1 114//1 134//1
f 134//2 114//2 106//2
f 107//20 137//26 134//20
f 134//19 137//25 107//19
f 135//1 108//1 136//1
f 136//2 108//2 135//2
f 108//1 134//1 137//1
f 137//2 134//2 108//2
f 137//26 107//20 125//26
f 125//25 107//19 137//25
f 148//1 122//1 126//1
f 126//2 122//2 148//2
f 122//1 137//1 126//1
f 126//2 137//2 122//2
f 136//1 122//1 148//1
f 148//2 122//2 136//2
f 133//10 149//8 123//8
f 123//7 149//7 133//9
f 138//5 123//8 149//8
f 149//7 123//7 138//4
f 139//6 109//5 138//5
f 138//4 109//4 139//3
f 140//2 110//2 142//2
f 142//1 110//1 140//1
f 142//2 124//2 139//2
f 139//1 124//1 142//1
f 139//6 150//14 124//14
f 124//13 150//13 139//3
f 141//18 124//14 150//14
f 150//13 124//13 141//17
f 151//24 125//26 140//24
f 140//23 125//25 151//23
f 152//1 126//1 141//1
f 141//2 126//2 152//2
f 126//1 151//1 141//1
f 141//2 151//2 126//2
f 115//13 128//3 127//3
f 127//6 128//6 115//14
f 116//7 143//4 144//4
f 144//5 143//5 116//8
f 127//3 144//4 143//4
f 143//5 144//5 127//6
f 144//4 127//3 128//3
f 128//6 127//6 144//5
f 130//25 145//19 117//25
f 117//26 145//20 130//26
f 129//25 118//23 135//25
f 135//26 118//24 129//26
f 129//2 145//2 131//2
f 131//1 145//1 129//1
f 130//1 135//1 153//1
f 153//2 135//2 130//2
f 135//25 131//19 129//25
f 129//26 131//20 135//26
f 131//2 154//2 132//2
f 132//1 154//1 131//1
f 136//19 132//22 131//19
f 131//20 132//21 136//20
f 132//2 154//2 146//2
f 146//1 154//1 132//1
f 148//22 146//16 132//22
f 132//21 146//15 148//21
f 121//12 146//16 155//12
f 155//11 146//15 121//11
f 147//10 121//12 155//12
f 155//11 121//11 147//9
f 149//8 133//10 147//10
f 147//9 133//9 149//7
f 153//1 135//1 136//1
f 136//2 135//2 153//2
f 131//19 135//25 136//19
f 136//20 135//26 131//20
f 125//26 151//24 137//26
f 137//25 151//23 125//25
f 148//1 126//1 152//1
f 152//2 126//2 148//2
f 126//1 137//1 151//1
f 151//2 137//2 126//2
f 153//1 136//1 148//1
f 148//2 136//2 153//2
f 132//22 136//19 148//22
f 148//21 136//20 132//21
f 149//2 156//2 138//2
f 138//1 156//1 149//1
f 149//8 157//5 138//5
f 138//4 157//4 149//7
f 142//2 139//2 138//2
f 138//1 139//1 142//1
f 138//5 158//6 139//6
f 139//3 158//3 138//4
f 159//18 140//24 142//18
f 142//17 140//23 159//17
f 150//14 139//6 158//6
f 158//3 139//3 150//13
f 160//1 141//1 150//1
f 150//2 141//2 160//2
f 141//1 159//1 150//1
f 150//2 159//2 141//2
f 140//24 159//18 151//24
f 151//23 159//17 140//23
f 152//1 141//1 160//1
f 160//2 141//2 152//2
f 141//1 151//1 159//1
f 159//2 151//2 141//2
f 145//19 130//25 153//19
f 153//20 130//26 145//20
f 131//2 145//2 154//2
f 154//1 145//1 131//1
f 146//2 154//2 161//2
f 161//1 154//1 146//1
f 146//16 148//22 152//16
f 152//15 148//21 146//15
f 146//2 161//2 155//2
f 155//1 161//1 146//1
f 152//16 155//12 146//16
f 146//15 155//11 152//15
f 155//2 156//2 147//2
f 147//1 156//1 155//1
f 155//12 162//10 147//10
f 147//9 162//9 155//11
f 147//2 156//2 149//2
f 149//1 156//1 147//1
f 147//10 163//8 149//8
f 149//7 163//7 147//9
f 164//1 148//1 152//1
f 152//2 148//2 164//2
f 153//1 148//1 164//1
f 164//2 148//2 153//2
f 138//2 156//2 165//2
f 165//1 156//1 138//1
f 157//5 149//8 163//8
f 163//7 149//7 157//4
f 158//6 138//5 157//5
f 157//4 138//4 158//3
f 142//2 138//2 166//2
f 166//1 138//1 142//1
f 166//14 159//18 142//18
f 142//17 159//17 166//13
f 162//1 150//1 158//1
f 158//2 150//2 162//2
f 150//1 159//1 158//1
f 158//2 159//2 150//2
f 160//1 150//1 162//1
f 162//2 150//2 160//2
f 167//1 152//1 160//1
f 160//2 152//2 167//2
f 155//12 152//16 160//12
f 160//11 152//15 155//11
f 153//19 154//22 145//19
f 145//20 154//21 153//20
f 164//22 161//16 154//22
f 154//21 161//15 164//21
f 155//2 161//2 156//2
f 156//1 161//1 155//1
f 162//10 155//12 160//12
f 160//11 155//11 162//9
f 163//8 147//10 162//10
f 162//9 147//9 163//7
f 164//1 152//1 167//1
f 167//2 152//2 164//2
f 154//22 153//19 164//22
f 164//21 153//20 154//21
f 156//12 168//10 165//10
f 165//9 168//9 156//11
f 166//2 138//2 165//2
f 165//1 138//1 166//1
f 163//1 158//1 157//1
f 157//2 158//2 163//2
f 169//1 163//1 157//1
f 157//2 163//2 169//2
f 158//1 159//1 157//1
f 157//2 159//2 158//2
f 159//18 166//14 170//14
f 170//13 166//13 159//17
f 162//1 158//1 163//1
f 163//2 158//2 162//2
f 169//1 160//1 162//1
f 162//2 160//2 169//2
f 167//1 160//1 169//1
f 169//2 160//2 167//2
f 161//16 164//22 167//16
f 167//15 164//21 161//15
f 167//16 156//12 161//16
f 161//15 156//11 167//15
f 169//1 162//1 163//1
f 163//2 162//2 169//2
f 168//10 156//12 169//12
f 169//11 156//11 168//9
f 171//8 165//10 168//10
f 168//9 165//9 171//7
f 166//2 165//2 172//2
f 172//1 165//1 166//1
f 169//1 157//1 168//1
f 168//2 157//2 169//2
f 157//1 159//1 170//1
f 170//2 159//2 157//2
f 173//6 170//14 166//14
f 166//13 170//13 173//3
f 156//12 167//16 169//12
f 169//11 167//15 156//11
f 165//10 171//8 172//8
f 172//7 171//7 165//9
f 168//1 174//1 171//1
f 171//2 174//2 168//2
f 166//2 172//2 173//2
f 173//1 172//1 166//1
f 168//1 157//1 170//1
f 170//2 157//2 168//2
f 170//14 173//6 174//6
f 174//3 173//3 170//13
f 175//5 172//8 171//8
f 171//7 172//7 175//4
f 168//1 170//1 174//1
f 174//2 170//2 168//2
f 171//1 174//1 175//1
f 175//2 174//2 171//2
f 173//2 172//2 176//2
f 176//1 172//1 173//1
f 176//5 174//6 173//6
f 173//3 174//3 176//4
f 172//8 175//5 176//5
f 176//4 175//4 172//7
f 174//6 176//5 175//5
f 175//4 176//4 174//3
