# SSTK version 0.8.0
# 652
mtllib original-652.mtl
o mesh647/mesh647-geometry#mesh647-geometry
v 0.323342 -0.153216 -0.073466
v 0.297010 -0.152297 -0.073466
v 0.238149 -0.150241 0.005532
v 0.243136 -0.150415 -0.073466
v 0.402340 -0.155975 0.005532
v 0.245502 -0.150498 -0.075412
v 0.238149 -0.150241 -0.069362
v 0.349675 -0.154136 -0.073466
v 0.251481 -0.150707 -0.081388
v 0.402340 -0.155975 -0.014218
v 0.256622 -0.150886 -0.088104
v 0.402340 -0.155975 -0.033967
v 0.260408 -0.151019 -0.095850
v 0.376007 -0.155055 -0.073466
v 0.297010 -0.152297 -0.088955
v 0.402340 -0.155975 -0.053716
v 0.261864 -0.151069 -0.104404
v 0.402340 -0.155975 -0.073466
v 0.297010 -0.152297 -0.104404
v 0.297010 -0.152297 -0.119935
v 0.297010 -0.152297 -0.104445
v 0.260436 -0.151020 -0.112956
v 0.297010 -0.152297 -0.135424
v 0.256662 -0.150888 -0.120722
v 0.251517 -0.150708 -0.127462
v 0.245525 -0.150499 -0.133457
v 0.243135 -0.150415 -0.135424
v 0.238149 -0.150241 -0.139528
v 0.323342 -0.153216 -0.135424
v 0.402340 -0.155975 -0.139528
v 0.320244 -0.153108 -0.214422
v 0.349675 -0.154136 -0.135424
v 0.361292 -0.154542 -0.214422
v 0.279197 -0.151675 -0.214422
v 0.376007 -0.155055 -0.135424
v 0.402340 -0.155975 -0.155174
v 0.238149 -0.150241 -0.214422
v 0.402340 -0.155975 -0.135424
v 0.402340 -0.155975 -0.174923
v 0.402340 -0.155975 -0.194673
v 0.402340 -0.155975 -0.214422
vn 0.0348989945717759 0.9993908445537606 0
vn -0.0348989945717759 -0.9993908445537606 0
usemtl material_0_0
f 1//1 2//1 3//1
f 3//2 2//2 1//2
f 2//1 4//1 3//1
f 3//2 4//2 2//2
f 5//1 1//1 3//1
f 3//2 1//2 5//2
f 2//1 6//1 4//1
f 4//2 6//2 2//2
f 4//1 7//1 3//1
f 3//2 7//2 4//2
f 5//1 8//1 1//1
f 1//2 8//2 5//2
f 2//1 9//1 6//1
f 6//2 9//2 2//2
f 10//1 8//1 5//1
f 5//2 8//2 10//2
f 2//1 11//1 9//1
f 9//2 11//2 2//2
f 12//1 8//1 10//1
f 10//2 8//2 12//2
f 2//1 13//1 11//1
f 11//2 13//2 2//2
f 12//1 14//1 8//1
f 8//2 14//2 12//2
f 15//1 13//1 2//1
f 2//2 13//2 15//2
f 16//1 14//1 12//1
f 12//2 14//2 16//2
f 15//1 17//1 13//1
f 13//2 17//2 15//2
f 18//1 14//1 16//1
f 16//2 14//2 18//2
f 19//1 17//1 15//1
f 15//2 17//2 19//2
f 20//1 17//1 21//1
f 21//2 17//2 20//2
f 20//1 22//1 17//1
f 17//2 22//2 20//2
f 23//1 22//1 20//1
f 20//2 22//2 23//2
f 23//1 24//1 22//1
f 22//2 24//2 23//2
f 23//1 25//1 24//1
f 24//2 25//2 23//2
f 23//1 26//1 25//1
f 25//2 26//2 23//2
f 23//1 27//1 26//1
f 26//2 27//2 23//2
f 23//1 28//1 27//1
f 27//2 28//2 23//2
f 29//1 28//1 23//1
f 23//2 28//2 29//2
f 30//1 28//1 29//1
f 29//2 28//2 30//2
f 30//1 31//1 28//1
f 28//2 31//2 30//2
f 30//1 29//1 32//1
f 32//2 29//2 30//2
f 30//1 33//1 31//1
f 31//2 33//2 30//2
f 31//1 34//1 28//1
f 28//2 34//2 31//2
f 30//1 32//1 35//1
f 35//2 32//2 30//2
f 36//1 33//1 30//1
f 30//2 33//2 36//2
f 34//1 37//1 28//1
f 28//2 37//2 34//2
f 30//1 35//1 38//1
f 38//2 35//2 30//2
f 39//1 33//1 36//1
f 36//2 33//2 39//2
f 40//1 33//1 39//1
f 39//2 33//2 40//2
f 41//1 33//1 40//1
f 40//2 33//2 41//2
