# SSTK version 0.8.0
# 662
mtllib original-662.mtl
o Group86/mesh657/mesh657-geometry#mesh657-geometry
v 0.326381 0.130122 -0.129176
v 0.332060 -0.148692 -0.128892
v 0.332060 0.130122 -0.128892
v 0.324350 -0.148692 -0.128960
v 0.337524 0.130122 -0.127321
v 0.317080 0.130122 -0.126699
v 0.339375 -0.148692 -0.126458
v 0.316065 -0.148692 -0.126171
v 0.342990 0.130122 -0.124173
v 0.308853 -0.009285 -0.120193
v 0.346310 -0.148692 -0.121136
v 0.308853 0.060419 -0.120193
v 0.308853 -0.078989 -0.120193
v 0.349707 0.130122 -0.116386
v 0.308853 0.130122 -0.120193
v 0.308853 -0.148692 -0.120193
v 0.351196 -0.148692 -0.113144
v 0.352709 0.130122 -0.106226
v 0.352767 -0.148692 -0.103909
v 0.351403 0.130122 -0.096321
v 0.351039 -0.148692 -0.095339
v 0.347126 -0.009285 -0.088697
v 0.347126 -0.078989 -0.088697
v 0.347126 0.060419 -0.088697
v 0.347126 -0.148692 -0.088697
v 0.347126 0.130122 -0.088697
vn 0.06684097566343913 -0.00009599996504697664 0.9977636367178182
vn -0.16423405125967258 0.000424000132335967 0.986421307875455
vn -0.16423406602235413 0 0.9864213965429607
vn 0.16423406602235413 0 -0.9864213965429607
vn 0.16423405125967258 -0.000424000132335967 -0.986421307875455
vn -0.06684097566343913 0.00009599996504697664 -0.9977636367178182
vn 0.19119693929794496 0.00011599996317159759 0.9815516883726024
vn -0.19119693929794496 -0.00011599996317159759 -0.9815516883726024
vn -0.36572411853029174 0.00007000002268662936 0.9307233016451442
vn 0.36572411853029174 -0.00007000002268662936 -0.9307233016451442
vn 0.49781508758111387 -0.000268000047149713 0.8672831525820057
vn -0.49781508758111387 0.000268000047149713 -0.8672831525820057
vn -0.479021115977972 0.000539000130499568 0.8778032125289116
vn 0.479021115977972 -0.000539000130499568 -0.8778032125289116
vn 0.5629417217163025 -0.000047999976271953117 0.8264965914310157
vn -0.5629417217163025 0.000047999976271953117 -0.8264965914310157
vn -0.6277283238878113 -0.0003840001981320382 0.778432401646313
vn 0.6277283238878113 0.0003840001981320382 -0.778432401646313
vn 0.6290482016763455 -0.00027300008752551615 0.7773662492279348
vn -0.6290482016763455 0.00027300008752551615 -0.7773662492279348
vn -0.7481967778203812 0.00033699989992656777 0.6634768029782705
vn 0.7481967778203812 -0.00033699989992656777 -0.6634768029782705
vn 0.6202026859998323 0 0.7844416028479071
vn -0.6202026859998323 0 -0.7844416028479071
vn 0.6381483517879909 0 0.769913424425286
vn -0.6381483517879909 0 -0.769913424425286
vn -0.8697177475953355 -0.0007519997817589007 0.49354885676498617
vn 0.8697177475953355 0.0007519997817589007 -0.49354885676498617
vn -0.9445532683372314 0.00029300008323803953 0.3283580932829355
vn 0.9445532683372314 -0.00029300008323803953 -0.3283580932829355
vn -0.9940985306528921 -0.0006549996907528005 0.10847894878346633
vn 0.9940985306528921 0.0006549996907528005 -0.10847894878346633
vn -0.9985292173094379 0.00016200003525600255 -0.05421601179900482
vn 0.9985292173094379 -0.00016200003525600255 0.05421601179900482
vn -0.9304578186235489 -0.000269999947368159 -0.3663989285769478
vn 0.9304578186235489 0.000269999947368159 0.3663989285769478
vn -0.9018377366859653 -0.000008999997372130212 -0.43207487384495713
vn 0.9018377366859653 0.000008999997372130212 0.43207487384495713
vn -0.8670116610258176 -0.0002069999190694573 -0.4982878051852023
vn 0.8670116610258176 0.0002069999190694573 0.4982878051852023
vn -0.8615899292957794 0 -0.5076049583446698
vn 0.8615899292957794 0 0.5076049583446698
vn -0.8721171674909902 0 -0.4892970939700052
vn 0.8721171674909902 0 0.4892970939700052
usemtl material_0_0
f 1//1 2//2 3//3
f 3//4 2//5 1//6
f 1//1 4//7 2//2
f 2//5 4//8 1//6
f 5//9 3//3 2//2
f 2//5 3//4 5//10
f 6//11 4//7 1//1
f 1//6 4//8 6//12
f 5//9 2//2 7//13
f 7//14 2//5 5//10
f 6//11 8//15 4//7
f 4//8 8//16 6//12
f 5//9 7//13 9//17
f 9//18 7//14 5//10
f 6//11 10//19 8//15
f 8//16 10//20 6//12
f 9//17 7//13 11//21
f 11//22 7//14 9//18
f 6//11 12//23 10//19
f 10//20 12//24 6//12
f 10//19 13//25 8//15
f 8//16 13//26 10//20
f 9//17 11//21 14//27
f 14//28 11//22 9//18
f 6//11 15//23 12//23
f 12//24 15//24 6//12
f 13//25 16//25 8//15
f 8//16 16//26 13//26
f 11//21 17//29 14//27
f 14//28 17//30 11//22
f 14//27 17//29 18//31
f 18//32 17//30 14//28
f 17//29 19//33 18//31
f 18//32 19//34 17//30
f 18//31 19//33 20//35
f 20//36 19//34 18//32
f 19//33 21//37 20//35
f 20//36 21//38 19//34
f 20//35 21//37 22//39
f 22//40 21//38 20//36
f 21//37 23//41 22//39
f 22//40 23//42 21//38
f 20//35 22//39 24//43
f 24//44 22//40 20//36
f 21//37 25//41 23//41
f 23//42 25//42 21//38
f 20//35 24//43 26//43
f 26//44 24//44 20//36
