# SSTK version 0.8.0
# 58
mtllib original-58.mtl
o Group49/mesh56/mesh56-geometry#mesh56-geometry
v -0.098081 0.849887 0.518841
v -0.124884 0.834086 0.510450
v -0.098081 0.756642 0.617100
v -0.098081 0.879392 0.395795
v -0.124884 0.747436 0.601760
v -0.068547 0.814119 0.578271
v -0.124884 0.861504 0.396107
v -0.068547 0.885120 0.395695
v -0.142175 0.810459 0.497904
v -0.124884 0.634685 0.635125
v -0.068547 0.868969 0.490287
v -0.068547 0.729126 0.637650
v -0.142175 0.733671 0.578822
v -0.142175 0.633751 0.608390
v -0.098081 0.635309 0.653005
v -0.068547 0.635509 0.658730
v -0.142175 0.834757 0.396574
v -0.147544 0.718940 0.554276
v -0.147544 0.806134 0.397073
v -0.147544 0.785175 0.484478
v -0.147544 0.632752 0.579780
v -0.142175 0.759892 0.471052
v -0.142175 0.704209 0.529729
v -0.142175 0.631753 0.551170
v -0.142175 0.777511 0.397573
v -0.124884 0.736265 0.458506
v -0.124884 0.630819 0.524436
v -0.124884 0.690444 0.506792
v -0.124884 0.750764 0.398040
v -0.098081 0.720464 0.450115
v -0.098081 0.630195 0.506556
v -0.098081 0.681238 0.491451
v -0.098081 0.732876 0.398352
v -0.068547 0.699514 0.469515
v -0.068547 0.629995 0.500831
v -0.068547 0.727149 0.398452
v -0.068547 0.666433 0.492627
v -0.068547 0.720863 0.435269
vn -0.38162195566602597 0.8326149032730508 0.40139395336906386
vn -0.6632091562739816 0.6576931549742293 0.35720208416860877
vn -0.4273789962097894 0.44363599606561405 0.787739993013928
vn 0.4273789962097894 -0.44363599606561405 -0.787739993013928
vn 0.6632091562739816 -0.6576931549742293 -0.35720208416860877
vn 0.38162195566602597 -0.8326149032730508 -0.40139395336906386
vn -0.4305568684091397 0.8776827317543064 0.2104609356769395
vn 0.4305568684091397 -0.8776827317543064 -0.2104609356769395
vn -0.7597528530869849 0.33984893428358776 0.5543268928100964
vn 0.7597528530869849 -0.33984893428358776 -0.5543268928100964
vn -0.18135500767666696 0.7133460301955814 0.6769400286545337
vn 0.18135500767666696 -0.7133460301955814 -0.6769400286545337
vn -0.749212920336569 0.6440709315162635 0.1544429835781558
vn 0.749212920336569 -0.6440709315162635 -0.1544429835781558
vn -0.30921389923323633 0.9313456964926483 0.19230693733092954
vn 0.30921389923323633 -0.9313456964926483 -0.19230693733092954
vn -0.9291382739406651 0.3248630957803752 0.1765390520495461
vn 0.9291382739406651 -0.3248630957803752 -0.1765390520495461
vn -0.6510999519979834 0.2153679841221035 0.7277949463436835
vn 0.6510999519979834 -0.2153679841221035 -0.7277949463436835
vn -0.2417769733240227 0.9035489003087447 0.353755960969046
vn 0.2417769733240227 -0.9035489003087447 -0.353755960969046
vn -0.24177702406346396 0.40056003986674116 0.8837960879620197
vn 0.24177702406346396 -0.40056003986674116 -0.8837960879620197
vn -0.9429241852195588 0.16541103249185765 0.2890210567727008
vn 0.9429241852195588 -0.16541103249185765 -0.2890210567727008
vn -0.8973811610785867 0.12520902247483362 0.4231190759492463
vn 0.8973811610785867 -0.12520902247483362 -0.4231190759492463
vn -0.3706349071652332 0.2635459339883402 0.8906027769262974
vn 0.3706349071652332 -0.2635459339883402 -0.8906027769262974
vn -0.30921393883486065 0.2407859523704965 0.920004818015245
vn 0.30921393883486065 -0.2407859523704965 -0.920004818015245
vn -0.9249098201304926 0.3697059281023709 0.08865298275943458
vn 0.9249098201304926 -0.3697059281023709 -0.08865298275943458
vn -1 0 0
vn 1 0 0
vn -0.9513041747731434 -0.27084104975878676 -0.14719202704204815
vn 0.9513041747731434 0.27084104975878676 0.14719202704204815
vn -0.9183820452482253 -0.20067100988696046 -0.3410360168026745
vn 0.9183820452482253 0.20067100988696046 0.3410360168026745
vn -0.9249097243306977 -0.10787996784638029 -0.36455989134294053
vn 0.9249097243306977 0.10787996784638029 0.36455989134294053
vn -0.8973811915577017 -0.4290920915952949 -0.10289302196385558
vn 0.8973811915577017 0.4290920915952949 0.10289302196385558
vn -0.7597526988686586 -0.5713537735414055 -0.31037187698273433
vn 0.7597526988686586 0.5713537735414055 0.31037187698273433
vn -0.7492125526434453 -0.18793988778065648 -0.6351056207769592
vn 0.7492125526434453 0.18793988778065648 0.6351056207769592
vn -0.6632093373153185 -0.3911331989345023 -0.638097324543082
vn 0.6632093373153185 0.3911331989345023 0.638097324543082
vn -0.6510999866361729 -0.7380689848511341 -0.17698299636742418
vn 0.6510999866361729 0.7380689848511341 0.17698299636742418
vn -0.36013913592175756 -0.83562531537717 -0.4147651565384139
vn 0.36013913592175756 0.83562531537717 0.4147651565384139
vn -0.43055704479451146 -0.2561070266449921 -0.8654650900416946
vn 0.43055704479451146 0.2561070266449921 0.8654650900416946
vn -0.2892601364671794 -0.4607342173652402 -0.8390783958604991
vn 0.2892601364671794 0.4607342173652402 0.8390783958604991
vn -0.37063505905588306 -0.9031751439092293 -0.21657403450825985
vn 0.37063505905588306 0.9031751439092293 0.21657403450825985
vn -0.18832304088512491 -0.7123951546617171 -0.6760381467685738
vn 0.18832304088512491 0.7123951546617171 0.6760381467685738
vn -0.12812299491338908 -0.24953699009313196 -0.9598519618929181
vn 0.12812299491338908 0.24953699009313196 0.9598519618929181
vn -0.12812304023416432 -0.9715963051080065 -0.19896006247894105
vn 0.12812304023416432 0.9715963051080065 0.19896006247894105
vn -0.162472028340892 -0.39584806904996167 -0.903829157659905
vn 0.162472028340892 0.39584806904996167 0.903829157659905
vn -0.16247192675304148 -0.9233075837467207 -0.34800284311043583
vn 0.16247192675304148 0.9233075837467207 0.34800284311043583
usemtl material_0_0
f 1//1 2//2 3//3
f 3//4 2//5 1//6
f 4//7 2//2 1//1
f 1//6 2//5 4//8
f 3//3 2//2 5//9
f 5//10 2//5 3//4
f 6//11 1//1 3//3
f 3//4 1//6 6//12
f 4//7 7//13 2//2
f 2//5 7//14 4//8
f 8//15 4//7 1//1
f 1//6 4//8 8//16
f 9//17 5//9 2//2
f 2//5 5//10 9//18
f 3//3 5//9 10//19
f 10//20 5//10 3//4
f 6//11 11//21 1//1
f 1//6 11//22 6//12
f 6//11 3//3 12//23
f 12//24 3//4 6//12
f 7//13 9//17 2//2
f 2//5 9//18 7//14
f 8//15 1//1 11//21
f 11//22 1//6 8//16
f 9//17 13//25 5//9
f 5//10 13//26 9//18
f 5//9 14//27 10//19
f 10//20 14//28 5//10
f 3//3 10//19 15//29
f 15//30 10//20 3//4
f 3//3 16//31 12//23
f 12//24 16//32 3//4
f 7//13 17//33 9//17
f 9//18 17//34 7//14
f 9//17 18//35 13//25
f 13//26 18//36 9//18
f 13//25 14//27 5//9
f 5//10 14//28 13//26
f 3//3 15//29 16//31
f 16//32 15//30 3//4
f 17//33 19//35 9//17
f 9//18 19//36 17//34
f 20//35 18//35 9//17
f 9//18 18//36 20//36
f 18//35 21//35 13//25
f 13//26 21//36 18//36
f 13//25 21//35 14//27
f 14//28 21//36 13//26
f 19//35 20//35 9//17
f 9//18 20//36 19//36
f 22//37 18//35 20//35
f 20//36 18//36 22//38
f 23//39 21//35 18//35
f 18//36 21//36 23//40
f 19//35 22//37 20//35
f 20//36 22//38 19//36
f 22//37 23//39 18//35
f 18//36 23//40 22//38
f 23//39 24//41 21//35
f 21//36 24//42 23//40
f 19//35 25//43 22//37
f 22//38 25//44 19//36
f 26//45 23//39 22//37
f 22//38 23//40 26//46
f 27//47 24//41 23//39
f 23//40 24//42 27//48
f 25//43 26//45 22//37
f 22//38 26//46 25//44
f 26//45 28//49 23//39
f 23//40 28//50 26//46
f 28//49 27//47 23//39
f 23//40 27//48 28//50
f 25//43 29//51 26//45
f 26//46 29//52 25//44
f 30//53 28//49 26//45
f 26//46 28//50 30//54
f 28//49 31//55 27//47
f 27//48 31//56 28//50
f 30//53 26//45 29//51
f 29//52 26//46 30//54
f 32//57 28//49 30//53
f 30//54 28//50 32//58
f 28//49 32//57 31//55
f 31//56 32//58 28//50
f 33//59 30//53 29//51
f 29//52 30//54 33//60
f 34//61 32//57 30//53
f 30//54 32//58 34//62
f 32//57 35//63 31//55
f 31//56 35//64 32//58
f 36//65 30//53 33//59
f 33//60 30//54 36//66
f 34//61 37//67 32//57
f 32//58 37//68 34//62
f 34//61 30//53 38//69
f 38//70 30//54 34//62
f 32//57 37//67 35//63
f 35//64 37//68 32//58
f 38//69 30//53 36//65
f 36//66 30//54 38//70
