# SSTK version 0.8.0
# 64
mtllib original-64.mtl
o mesh61/mesh61-geometry#mesh61-geometry
v -0.056241 -0.678440 -0.219973
v -0.080853 -0.678440 -0.219973
v -0.068547 -0.678440 -0.245401
v -0.096348 -0.678440 -0.242663
v -0.040746 -0.678440 -0.242663
v -0.123081 -0.678440 -0.234554
v -0.014013 -0.678440 -0.234554
v -0.147719 -0.678440 -0.221385
v 0.010625 -0.678440 -0.221385
v -0.149439 -0.678440 -0.219973
v 0.012345 -0.678440 -0.219973
v -0.104926 -0.678440 -0.214856
v -0.032168 -0.678440 -0.214856
v -0.127408 -0.678440 -0.204846
v -0.009686 -0.678440 -0.204846
v -0.147318 -0.678440 -0.190380
v 0.010224 -0.678440 -0.190380
v -0.169313 -0.678440 -0.203662
v 0.032219 -0.678440 -0.203662
v -0.163786 -0.678440 -0.172092
v 0.026692 -0.678440 -0.172092
v -0.187036 -0.678440 -0.182068
v 0.049942 -0.678440 -0.182068
v -0.176091 -0.678440 -0.150779
v 0.038997 -0.678440 -0.150779
v -0.200205 -0.678440 -0.157430
v 0.063111 -0.678440 -0.157430
v -0.183696 -0.678440 -0.127373
v 0.046602 -0.678440 -0.127373
v -0.208314 -0.678440 -0.130697
v 0.071220 -0.678440 -0.130697
v -0.186269 -0.678440 -0.102896
v 0.049175 -0.678440 -0.102896
v -0.211052 -0.678440 -0.102896
v 0.073958 -0.678440 -0.102896
v -0.208314 -0.678440 -0.075095
v 0.071220 -0.678440 -0.075095
v -0.183696 -0.678440 -0.078420
v 0.046602 -0.678440 -0.078420
v -0.200205 -0.678440 -0.048362
v 0.063111 -0.678440 -0.048362
v -0.176091 -0.678440 -0.055014
v 0.038997 -0.678440 -0.055014
v -0.187036 -0.678440 -0.023724
v 0.049942 -0.678440 -0.023724
v -0.163786 -0.678440 -0.033701
v 0.026692 -0.678440 -0.033701
v -0.169313 -0.678440 -0.002130
v 0.032219 -0.678440 -0.002130
v -0.147318 -0.678440 -0.015412
v 0.010224 -0.678440 -0.015412
v -0.149439 -0.678440 0.014181
v 0.012345 -0.678440 0.014181
v -0.127408 -0.678440 -0.000946
v -0.009686 -0.678440 -0.000946
v -0.104926 -0.678440 0.009064
v -0.032168 -0.678440 0.009064
v -0.080853 -0.678440 0.014181
v -0.056241 -0.678440 0.014181
v -0.147719 -0.678440 0.015593
v 0.010625 -0.678440 0.015593
v -0.123081 -0.678440 0.028762
v -0.014013 -0.678440 0.028762
v -0.096348 -0.678440 0.036871
v -0.040746 -0.678440 0.036871
v -0.068547 -0.678440 0.039609
vn 0 -1 0
vn 0 1 0
usemtl material_0_0
f 1//1 2//1 3//1
f 3//2 2//2 1//2
f 3//1 2//1 4//1
f 4//2 2//2 3//2
f 5//1 1//1 3//1
f 3//2 1//2 5//2
f 2//1 6//1 4//1
f 4//2 6//2 2//2
f 7//1 1//1 5//1
f 5//2 1//2 7//2
f 2//1 8//1 6//1
f 6//2 8//2 2//2
f 9//1 1//1 7//1
f 7//2 1//2 9//2
f 2//1 10//1 8//1
f 8//2 10//2 2//2
f 11//1 1//1 9//1
f 9//2 1//2 11//2
f 2//1 12//1 10//1
f 10//2 12//2 2//2
f 11//1 13//1 1//1
f 1//2 13//2 11//2
f 12//1 14//1 10//1
f 10//2 14//2 12//2
f 11//1 15//1 13//1
f 13//2 15//2 11//2
f 14//1 16//1 10//1
f 10//2 16//2 14//2
f 11//1 17//1 15//1
f 15//2 17//2 11//2
f 16//1 18//1 10//1
f 10//2 18//2 16//2
f 19//1 17//1 11//1
f 11//2 17//2 19//2
f 16//1 20//1 18//1
f 18//2 20//2 16//2
f 19//1 21//1 17//1
f 17//2 21//2 19//2
f 20//1 22//1 18//1
f 18//2 22//2 20//2
f 23//1 21//1 19//1
f 19//2 21//2 23//2
f 20//1 24//1 22//1
f 22//2 24//2 20//2
f 23//1 25//1 21//1
f 21//2 25//2 23//2
f 24//1 26//1 22//1
f 22//2 26//2 24//2
f 27//1 25//1 23//1
f 23//2 25//2 27//2
f 24//1 28//1 26//1
f 26//2 28//2 24//2
f 27//1 29//1 25//1
f 25//2 29//2 27//2
f 28//1 30//1 26//1
f 26//2 30//2 28//2
f 31//1 29//1 27//1
f 27//2 29//2 31//2
f 28//1 32//1 30//1
f 30//2 32//2 28//2
f 31//1 33//1 29//1
f 29//2 33//2 31//2
f 32//1 34//1 30//1
f 30//2 34//2 32//2
f 35//1 33//1 31//1
f 31//2 33//2 35//2
f 32//1 36//1 34//1
f 34//2 36//2 32//2
f 35//1 37//1 33//1
f 33//2 37//2 35//2
f 38//1 36//1 32//1
f 32//2 36//2 38//2
f 37//1 39//1 33//1
f 33//2 39//2 37//2
f 38//1 40//1 36//1
f 36//2 40//2 38//2
f 37//1 41//1 39//1
f 39//2 41//2 37//2
f 42//1 40//1 38//1
f 38//2 40//2 42//2
f 41//1 43//1 39//1
f 39//2 43//2 41//2
f 42//1 44//1 40//1
f 40//2 44//2 42//2
f 41//1 45//1 43//1
f 43//2 45//2 41//2
f 46//1 44//1 42//1
f 42//2 44//2 46//2
f 45//1 47//1 43//1
f 43//2 47//2 45//2
f 46//1 48//1 44//1
f 44//2 48//2 46//2
f 45//1 49//1 47//1
f 47//2 49//2 45//2
f 50//1 48//1 46//1
f 46//2 48//2 50//2
f 49//1 51//1 47//1
f 47//2 51//2 49//2
f 50//1 52//1 48//1
f 48//2 52//2 50//2
f 49//1 53//1 51//1
f 51//2 53//2 49//2
f 54//1 52//1 50//1
f 50//2 52//2 54//2
f 53//1 55//1 51//1
f 51//2 55//2 53//2
f 56//1 52//1 54//1
f 54//2 52//2 56//2
f 53//1 57//1 55//1
f 55//2 57//2 53//2
f 58//1 52//1 56//1
f 56//2 52//2 58//2
f 53//1 59//1 57//1
f 57//2 59//2 53//2
f 58//1 60//1 52//1
f 52//2 60//2 58//2
f 53//1 61//1 59//1
f 59//2 61//2 53//2
f 58//1 62//1 60//1
f 60//2 62//2 58//2
f 61//1 63//1 59//1
f 59//2 63//2 61//2
f 58//1 64//1 62//1
f 62//2 64//2 58//2
f 63//1 65//1 59//1
f 59//2 65//2 63//2
f 66//1 64//1 58//1
f 58//2 64//2 66//2
f 65//1 66//1 59//1
f 59//2 66//2 65//2
f 59//1 66//1 58//1
f 58//2 66//2 59//2
