# SSTK version 0.8.0
# 2
mtllib original-2.mtl
o mesh2/mesh2-geometry#mesh2-geometry
v -0.160445 0.904468 -0.047002
v -0.145007 0.991705 -0.084272
v -0.145007 0.904468 -0.084272
v -0.160445 0.991705 -0.047002
v -0.120448 0.991705 -0.116277
v -0.145007 0.904468 0.070261
v -0.165710 0.904468 -0.007006
v -0.120448 0.904468 -0.116277
v -0.160445 0.904468 0.032990
v -0.165710 0.991705 -0.007006
v -0.088444 0.991705 -0.140835
v -0.088444 0.904468 -0.140835
v -0.120448 0.904468 0.102266
v -0.160445 0.991705 0.032990
v -0.051173 0.991705 -0.156273
v -0.145007 0.991705 0.070261
v -0.011177 0.991705 -0.161539
v -0.051173 0.904468 -0.156273
v -0.088444 0.904468 0.126824
v -0.120448 0.991705 0.102266
v 0.028819 0.991705 -0.156273
v -0.011177 0.904468 -0.161539
v -0.088444 0.991705 0.126824
v 0.066089 0.991705 -0.140835
v 0.028819 0.904468 -0.156273
v -0.051173 0.904468 0.142262
v -0.051173 0.991705 0.142262
v 0.098094 0.991705 -0.116277
v 0.066089 0.904468 -0.140835
v -0.011177 0.904468 0.147527
v -0.011177 0.991705 0.147527
v 0.122652 0.991705 -0.084272
v 0.098094 0.904468 -0.116277
v 0.028819 0.904468 0.142262
v 0.028819 0.991705 0.142262
v 0.138090 0.991705 0.032990
v 0.066089 0.904468 0.126824
v 0.066089 0.991705 0.126824
v 0.138090 0.991705 -0.047002
v 0.122652 0.991705 0.070261
v 0.122652 0.904468 -0.084272
v 0.098094 0.904468 0.102266
v 0.098094 0.991705 0.102266
v 0.143356 0.991705 -0.007006
v 0.138090 0.904468 0.032990
v 0.143356 0.904468 -0.007006
v 0.138090 0.904468 -0.047002
v 0.122652 0.904468 0.070261
vn -0.862456671523521 -0.4502928285008305 -0.23109491198486204
vn -0.7732578476631928 0.45029291128937843 -0.446439912048444
vn -0.7732578476631928 -0.4502929112893782 -0.44643991204844424
vn -0.6800720493552107 0.7101380515372058 -0.1822250132247073
vn -0.6313620833596886 0.4502930594528723 -0.6313620833596885
vn -0.7732578476631928 -0.45029291128937843 0.446439912048444
vn -0.8928808812423862 -0.45029294010879145 0
vn -0.6313620833596884 -0.45029305945287185 -0.6313620833596885
vn -0.862456671523521 -0.45029282850083063 0.23109491198486182
vn -0.8928808812423862 0.45029294010879145 0
vn -0.44643991204844413 0.4502929112893785 -0.7732578476631927
vn -0.44643991204844413 -0.45029291128937815 -0.7732578476631929
vn -0.6313620833596886 -0.4502930594528723 0.6313620833596885
vn -0.862456671523521 0.4502928285008305 0.23109491198486204
vn -0.23109491198486193 0.45029282850083074 -0.8624566715235209
vn -0.7732578476631928 0.4502929112893782 0.44643991204844424
vn 0 0.4502929401087917 -0.8928808812423861
vn -0.23109491198486193 -0.4502928285008304 -0.8624566715235211
vn -0.44643991204844413 -0.4502929112893785 0.7732578476631927
vn -0.6313620833596884 0.45029305945287185 0.6313620833596885
vn 0.23109491198486193 0.45029282850083074 -0.8624566715235209
vn 0 -0.45029294010879123 -0.8928808812423863
vn -0.44643991204844413 0.45029291128937815 0.7732578476631929
vn 0.44643991204844413 0.4502929112893785 -0.7732578476631927
vn 0.23109491198486193 -0.4502928285008304 -0.8624566715235211
vn -0.23109491198486193 -0.45029282850083074 0.8624566715235209
vn -0.23109491198486193 0.4502928285008304 0.8624566715235211
vn 0.6313620833596886 0.4502930594528723 -0.6313620833596885
vn 0.44643991204844413 -0.45029291128937815 -0.7732578476631929
vn 0 -0.4502929401087917 0.8928808812423861
vn 0 0.45029294010879123 0.8928808812423863
vn 0.7732578476631928 0.45029291128937843 -0.446439912048444
vn 0.6313620833596884 -0.45029305945287185 -0.6313620833596885
vn 0.23109491198486193 -0.45029282850083074 0.8624566715235209
vn 0.23109491198486193 0.4502928285008304 0.8624566715235211
vn 0.6800720493552107 0.7101380515372058 0.18222501322470763
vn 0.44643991204844413 -0.4502929112893785 0.7732578476631927
vn 0.44643991204844413 0.45029291128937815 0.7732578476631929
vn 0.862456671523521 0.45029282850083063 -0.23109491198486182
vn 0.7732578476631928 0.4502929112893782 0.44643991204844424
vn 0.7732578476631928 -0.4502929112893782 -0.44643991204844424
vn 0.6313620833596886 -0.4502930594528723 0.6313620833596885
vn 0.6313620833596884 0.45029305945287185 0.6313620833596885
vn 0.8928808812423862 0.45029294010879145 0
vn 0.862456671523521 -0.45029282850083063 0.23109491198486182
vn 0.8928808812423862 -0.45029294010879145 0
vn 0.862456671523521 -0.4502928285008305 -0.23109491198486204
vn 0.7732578476631928 -0.45029291128937843 0.446439912048444
vn 0.862456671523521 0.4502928285008305 0.23109491198486204
vn 0.6800720493552107 -0.7101380515372058 0.1822250132247073
vn -0.6800720493552107 -0.7101380515372058 -0.18222501322470763
vn -0.862456671523521 0.45029282850083063 -0.23109491198486182
usemtl material_0_0
f 1//1 2//2 3//3
f 2//2 1//1 4//4
f 5//5 3//3 2//2
f 3//3 6//6 1//1
f 7//7 4//4 1//1
f 4//4 5//5 2//2
f 3//3 5//5 8//8
f 8//8 6//6 3//3
f 1//1 6//6 9//9
f 4//4 7//7 10//10
f 1//1 9//9 7//7
f 4//4 11//11 5//5
f 5//5 12//12 8//8
f 8//8 13//13 6//6
f 6//6 14//14 9//9
f 9//9 10//10 7//7
f 14//14 4//4 10//10
f 4//4 15//15 11//11
f 12//12 5//5 11//11
f 12//12 13//13 8//8
f 13//13 16//16 6//6
f 14//14 6//6 16//16
f 10//10 9//9 14//14
f 16//16 4//4 14//14
f 4//4 17//17 15//15
f 18//18 11//11 15//15
f 11//11 18//18 12//12
f 12//12 19//19 13//13
f 16//16 13//13 20//20
f 20//20 4//4 16//16
f 4//4 21//21 17//17
f 22//22 15//15 17//17
f 15//15 22//22 18//18
f 18//18 19//19 12//12
f 23//23 13//13 19//19
f 13//13 23//23 20//20
f 23//23 4//4 20//20
f 4//4 24//24 21//21
f 25//25 17//17 21//21
f 17//17 25//25 22//22
f 22//22 26//26 18//18
f 18//18 26//26 19//19
f 19//19 27//27 23//23
f 27//27 4//4 23//23
f 4//4 28//28 24//24
f 29//29 21//21 24//24
f 21//21 29//29 25//25
f 25//25 30//30 22//22
f 22//22 30//30 26//26
f 27//27 19//19 26//26
f 31//31 4//4 27//27
f 4//4 32//32 28//28
f 33//33 24//24 28//28
f 24//24 33//33 29//29
f 29//29 34//34 25//25
f 25//25 34//34 30//30
f 31//31 26//26 30//30
f 26//26 31//31 27//27
f 35//35 4//4 31//31
f 36//36 32//32 4//4
f 32//32 33//33 28//28
f 33//33 37//37 29//29
f 29//29 37//37 34//34
f 35//35 30//30 34//34
f 30//30 35//35 31//31
f 38//38 4//4 35//35
f 36//36 39//39 32//32
f 4//4 40//40 36//36
f 33//33 32//32 41//41
f 33//33 42//42 37//37
f 38//38 34//34 37//37
f 34//34 38//38 35//35
f 43//43 4//4 38//38
f 39//39 36//36 44//44
f 39//39 41//41 32//32
f 40//40 4//4 43//43
f 40//40 45//45 36//36
f 41//41 42//42 33//33
f 43//43 37//37 42//42
f 37//37 43//43 38//38
f 36//36 46//46 44//44
f 44//44 47//47 39//39
f 41//41 39//39 47//47
f 43//43 48//48 40//40
f 45//45 40//40 48//48
f 46//46 36//36 45//45
f 41//41 48//48 42//42
f 48//48 43//43 42//42
f 47//47 44//44 46//46
f 47//47 48//48 41//41
f 47//47 45//45 48//48
f 45//45 47//47 46//46
usemtl material_1_0
f 3//40 2//48 1//49
f 4//50 1//49 2//48
f 2//48 3//40 5//42
f 1//49 6//32 3//40
f 1//49 4//50 7//44
f 2//48 5//42 4//50
f 8//43 5//42 3//40
f 3//40 6//32 8//43
f 9//39 6//32 1//49
f 10//46 7//44 4//50
f 7//44 9//39 1//49
f 5//42 11//37 4//50
f 8//43 12//38 5//42
f 6//32 13//28 8//43
f 9//39 14//47 6//32
f 7//44 10//46 9//39
f 10//46 4//50 14//47
f 11//37 15//34 4//50
f 11//37 5//42 12//38
f 8//43 13//28 12//38
f 6//32 16//41 13//28
f 16//41 6//32 14//47
f 14//47 9//39 10//46
f 14//47 4//50 16//41
f 15//34 17//30 4//50
f 15//34 11//37 18//35
f 12//38 18//35 11//37
f 13//28 19//24 12//38
f 20//33 13//28 16//41
f 16//41 4//50 20//33
f 17//30 21//26 4//50
f 17//30 15//34 22//31
f 18//35 22//31 15//34
f 12//38 19//24 18//35
f 19//24 13//28 23//29
f 20//33 23//29 13//28
f 20//33 4//50 23//29
f 21//26 24//19 4//50
f 21//26 17//30 25//27
f 22//31 25//27 17//30
f 18//35 26//21 22//31
f 19//24 26//21 18//35
f 23//29 27//25 19//24
f 23//29 4//50 27//25
f 24//19 28//13 4//50
f 24//19 21//26 29//23
f 25//27 29//23 21//26
f 22//31 30//17 25//27
f 26//21 30//17 22//31
f 26//21 19//24 27//25
f 27//25 4//50 31//22
f 28//13 32//6 4//50
f 28//13 24//19 33//20
f 29//23 33//20 24//19
f 25//27 34//15 29//23
f 30//17 34//15 25//27
f 30//17 26//21 31//22
f 27//25 31//22 26//21
f 31//22 4//50 35//18
f 4//50 32//6 36//51
f 28//13 33//20 32//6
f 29//23 37//11 33//20
f 34//15 37//11 29//23
f 34//15 30//17 35//18
f 31//22 35//18 30//17
f 35//18 4//50 38//12
f 32//6 39//9 36//51
f 36//51 40//3 4//50
f 41//16 32//6 33//20
f 37//11 42//5 33//20
f 37//11 34//15 38//12
f 35//18 38//12 34//15
f 38//12 4//50 43//8
f 44//7 36//51 39//9
f 32//6 41//16 39//9
f 43//8 4//50 40//3
f 36//51 45//52 40//3
f 33//20 42//5 41//16
f 42//5 37//11 43//8
f 38//12 43//8 37//11
f 44//7 46//10 36//51
f 39//9 47//14 44//7
f 47//14 39//9 41//16
f 40//3 48//2 43//8
f 48//2 40//3 45//52
f 45//52 36//51 46//10
f 42//5 48//2 41//16
f 42//5 43//8 48//2
f 46//10 44//7 47//14
f 41//16 48//2 47//14
f 48//2 45//52 47//14
f 46//10 47//14 45//52
