# SSTK version 0.8.0
# 139
mtllib original-139.mtl
o Group138/mesh476/mesh476-geometry#mesh476-geometry
v -0.792377 -0.011329 0.244642
v -0.797716 -0.018187 0.255473
v -0.789926 -0.011402 0.247835
v -0.801918 -0.018062 0.249999
v -0.792240 -0.018282 0.259674
v -0.792377 0.008496 0.245092
v -0.793918 -0.011245 0.240923
v -0.801918 -0.024671 0.249849
v -0.801918 -0.017463 0.223565
v -0.786732 -0.011457 0.250286
v -0.797716 -0.024795 0.255323
v -0.797716 -0.017338 0.218091
v -0.789926 0.008424 0.248285
v -0.793918 0.008580 0.241373
v -0.804559 -0.017918 0.243623
v -0.802830 -0.024621 0.247646
v -0.804559 -0.017607 0.229941
v -0.785863 -0.018342 0.262315
v -0.789926 0.006219 0.248290
v -0.792240 -0.024890 0.259524
v -0.792240 -0.017243 0.213890
v -0.789926 0.008918 0.226479
v -0.793918 0.008761 0.233391
v -0.794443 -0.011154 0.236932
v -0.797716 -0.023947 0.217941
v -0.792377 -0.010979 0.229222
v -0.801918 -0.024071 0.223415
v -0.793918 -0.011064 0.232941
v -0.783012 -0.011492 0.251826
v -0.785863 -0.024950 0.262165
v -0.785863 -0.017183 0.211249
v -0.786732 0.008368 0.250736
v -0.792240 -0.023851 0.213740
v -0.789926 -0.010907 0.226029
v -0.792377 0.008846 0.229672
v -0.794443 0.008671 0.237382
v -0.805460 -0.017763 0.236782
v -0.804559 -0.024526 0.243474
v -0.802830 -0.024121 0.225618
v -0.779020 -0.018362 0.263215
v -0.783012 0.008333 0.252276
v -0.785863 -0.023791 0.211099
v -0.786732 -0.010851 0.223578
v -0.786732 0.008974 0.224028
v -0.807663 -0.024621 0.247646
v -0.804559 -0.024216 0.229791
v -0.779020 -0.011504 0.252351
v -0.779020 0.008321 0.252801
v -0.779020 -0.024971 0.263065
v -0.779020 -0.017163 0.210349
v -0.783012 0.009009 0.222488
v -0.783012 -0.010816 0.222038
v -0.789926 0.006717 0.226373
v -0.805460 -0.024371 0.236632
v -0.750376 -0.024621 0.247646
v -0.755209 -0.024121 0.225618
v -0.807663 -0.024121 0.225618
v -0.775028 -0.011492 0.251826
v -0.772177 -0.018342 0.262315
v -0.772177 -0.017183 0.211249
v -0.779020 -0.010804 0.221512
v -0.772177 -0.024950 0.262165
v -0.779020 -0.023771 0.210199
v -0.755209 -0.024621 0.247646
v -0.807663 0.006218 0.248346
v -0.756122 -0.024071 0.223415
v -0.775028 0.008333 0.252276
v -0.779020 0.009021 0.221962
v -0.772177 -0.023791 0.211099
v -0.775028 -0.010816 0.222038
v -0.765800 -0.024890 0.259524
v -0.756122 -0.024671 0.249849
v -0.753480 -0.024526 0.243474
v -0.753480 -0.024216 0.229791
v -0.760324 -0.023947 0.217941
v -0.753480 -0.017607 0.229941
v -0.750376 -0.024121 0.225618
v -0.771308 -0.011457 0.250286
v -0.771308 0.008368 0.250736
v -0.765800 -0.018282 0.259674
v -0.765800 -0.023851 0.213740
v -0.771308 -0.010851 0.223578
v -0.760324 -0.024795 0.255323
v -0.807663 0.006718 0.226318
v -0.756122 -0.018062 0.249999
v -0.768114 0.006219 0.248290
v -0.756122 -0.017463 0.223565
v -0.771308 0.008974 0.224028
v -0.775028 0.009009 0.222488
v -0.765800 -0.017243 0.213890
v -0.760324 -0.018187 0.255473
v -0.752580 -0.024371 0.236632
v -0.750376 0.006218 0.248346
v -0.753480 -0.017918 0.243623
v -0.752580 -0.017763 0.236782
v -0.760324 -0.017338 0.218091
v -0.764122 -0.011064 0.232941
v -0.768114 -0.011402 0.247835
v -0.768114 0.008424 0.248285
v -0.768114 -0.010907 0.226029
v -0.765663 -0.011329 0.244642
v -0.750376 0.006718 0.226318
v -0.764122 -0.011245 0.240923
v -0.768114 0.006717 0.226373
v -0.763596 -0.011154 0.236932
v -0.765663 -0.010979 0.229222
v -0.768114 0.008918 0.226479
v -0.764122 0.008761 0.233391
v -0.763596 0.008671 0.237382
v -0.765663 0.008496 0.245092
v -0.764122 0.008580 0.241373
v -0.765663 0.008846 0.229672
vn -0.44556604479097456 0.8514360855914682 0.27663602780911495
vn -0.3638032113644521 0.8490184932675772 0.3831642226129223
vn 0.3638032113644521 -0.8490184932675772 -0.3831642226129223
vn 0.44556604479097456 -0.8514360855914682 -0.27663602780911495
vn -0.2572478758475746 0.8471635911437004 0.4649057756281586
vn 0.2572478758475746 -0.8471635911437004 -0.4649057756281586
vn -0.7068548626139352 -0.016511996790687492 0.7071658625534885
vn -0.866674651150523 -0.01151799536383514 0.4987407992493876
vn 0.866674651150523 0.01151799536383514 -0.4987407992493876
vn 0.7068548626139352 0.016511996790687492 -0.7071658625534885
vn -0.49696501396794746 0.8542510240100069 0.15258100428851826
vn 0.49696501396794746 -0.8542510240100069 -0.15258100428851826
vn -0.8660254314531114 -0.011344005651573789 0.4998712490354184
vn -0.7071067840361861 -0.0160419951004708 0.7069247840917723
vn 0.8660254314531114 0.011344005651573789 -0.4998712490354184
vn 0.7071067840361861 0.0160419951004708 -0.7069247840917723
vn 0 0.9997426170896532 0.022686991310680027
vn 0 -0.9997426170896532 -0.022686991310680027
vn -0.5000002132231365 -0.01964800837881656 0.865802369218036
vn 0.5000002132231365 0.01964800837881656 -0.865802369218036
vn -0.9659259442834612 -0.005871999661291382 0.2587519850746684
vn 0.9659259442834612 0.005871999661291382 -0.2587519850746684
vn -0.9238795779030762 -0.008681996033418394 0.3825848252067892
vn 0.9238795779030762 0.008681996033418394 -0.3825848252067892
vn -0.1331610550880075 0.8459973499845229 0.5162912135868799
vn 0.1331610550880075 -0.8459973499845229 -0.5162912135868799
vn -0.4985650777128404 -0.01993000310654981 0.8666231350831585
vn 0.4985650777128404 0.01993000310654981 -0.8666231350831585
vn -0.5144960323834102 0.8572720539584192 0.019454001224473973
vn 0.5144960323834102 -0.8572720539584192 -0.019454001224473973
vn -1 0 0
vn 1 0 0
vn -0.7071067840361861 0.0160419951004708 -0.7069247840917723
vn -0.8660254314531114 0.011344005651573789 -0.4998712490354184
vn 0.7071067840361861 -0.0160419951004708 0.7069247840917723
vn 0.8660254314531114 -0.011344005651573789 0.4998712490354184
vn -0.44556631043751865 0.8631086013499815 -0.23772716563063587
vn -0.3638029867173713 0.8655259683992149 -0.34425598743104185
vn 0.44556631043751865 -0.8631086013499815 0.23772716563063587
vn 0.3638029867173713 -0.8655259683992149 0.34425598743104185
vn -0.9659259442834612 0.005871999661291382 -0.2587519850746684
vn 0.9659259442834612 -0.005871999661291382 0.2587519850746684
vn -0.4969650477079015 0.8602930825868496 -0.1136730109124389
vn 0.4969650477079015 -0.8602930825868496 0.1136730109124389
vn -0.25881905610084827 -0.02191400475001466 0.9656772093173176
vn 0.25881905610084827 0.02191400475001466 -0.9656772093173176
vn -0.5000002132231365 0.01964800837881656 -0.865802369218036
vn 0.5000002132231365 -0.01964800837881656 0.865802369218036
vn -0.25724802872508823 0.867381096854381 -0.42599704756811085
vn 0.25724802872508823 -0.867381096854381 0.42599704756811085
vn -0.9238795779030762 0.008681996033418394 -0.3825848252067892
vn 0.9238795779030762 -0.008681996033418394 0.3825848252067892
vn 0 0.8455995699603007 0.5338177285206576
vn 0 -0.8455995699603007 -0.5338177285206576
vn 0 -0.022686991310680027 0.9997426170896532
vn 0 0.022686991310680027 -0.9997426170896532
vn -0.25881905610084827 0.02191400475001466 -0.9656772093173176
vn 0.25881905610084827 -0.02191400475001466 0.9656772093173176
vn -0.13316098190215875 0.8685468819562356 -0.4773829351191282
vn 0.13316098190215875 -0.8685468819562356 0.4773829351191282
vn -0.7068548921869658 0.015583997623051103 -0.7071868921363275
vn -0.8666746845092388 0.01111799595277793 -0.49874981844287986
vn 0.8666746845092388 -0.01111799595277793 0.49874981844287986
vn 0.7068548921869658 -0.015583997623051103 0.7071868921363275
vn -0.49856506011224216 0.019403002339430025 -0.8666351044906342
vn 0.49856506011224216 -0.019403002339430025 0.8666351044906342
vn 0 -0.021789990627375515 0.9997625699677193
vn 0 0.021789990627375515 -0.9997625699677193
vn 0.1331610550880075 0.8459973499845229 0.5162912135868799
vn -0.1331610550880075 -0.8459973499845229 -0.5162912135868799
vn 0 0.8689448560566898 -0.49490891801685966
vn 0 -0.8689448560566898 0.49490891801685966
vn 0 0.023583996670647648 -0.9997218588692751
vn 0 -0.023583996670647648 0.9997218588692751
vn 0.13316098190215875 0.8685468819562356 -0.4773829351191282
vn -0.13316098190215875 -0.8685468819562356 0.4773829351191282
vn 0.2572478758475746 0.8471635911437004 0.4649057756281586
vn -0.2572478758475746 -0.8471635911437004 -0.4649057756281586
vn 0.4985650777128404 -0.01993000310654981 0.8666231350831585
vn -0.4985650777128404 0.01993000310654981 -0.8666231350831585
vn 0.25724802872508823 0.867381096854381 -0.42599704756811085
vn -0.25724802872508823 -0.867381096854381 0.42599704756811085
vn 0.49856506011224216 0.019403002339430025 -0.8666351044906342
vn -0.49856506011224216 -0.019403002339430025 0.8666351044906342
vn 0.44556631043751865 0.8631086013499815 -0.23772716563063587
vn 0.4969650477079015 0.8602930825868496 -0.1136730109124389
vn -0.4969650477079015 -0.8602930825868496 0.1136730109124389
vn -0.44556631043751865 -0.8631086013499815 0.23772716563063587
vn 0.3638032113644521 0.8490184932675772 0.3831642226129223
vn -0.3638032113644521 -0.8490184932675772 -0.3831642226129223
vn 0.7068548626139352 -0.016511996790687492 0.7071658625534885
vn -0.7068548626139352 0.016511996790687492 -0.7071658625534885
vn 0.3638029867173713 0.8655259683992149 -0.34425598743104185
vn -0.3638029867173713 -0.8655259683992149 0.34425598743104185
vn 0.7068548921869658 0.015583997623051103 -0.7071868921363275
vn -0.7068548921869658 -0.015583997623051103 0.7071868921363275
vn 0.44556604479097456 0.8514360855914682 0.27663602780911495
vn -0.44556604479097456 -0.8514360855914682 -0.27663602780911495
vn 0.49696501396794746 0.8542510240100069 0.15258100428851826
vn -0.49696501396794746 -0.8542510240100069 -0.15258100428851826
vn 0.5144960323834102 0.8572720539584192 0.019454001224473973
vn -0.5144960323834102 -0.8572720539584192 -0.019454001224473973
vn 0.8666746845092388 0.01111799595277793 -0.49874981844287986
vn -0.8666746845092388 -0.01111799595277793 0.49874981844287986
vn 0.866674651150523 -0.01151799536383514 0.4987407992493876
vn -0.866674651150523 0.01151799536383514 -0.4987407992493876
usemtl material_0_0
f 1//1 2//2 3//2
f 2//2 1//1 4//1
f 3//3 2//3 1//4
f 4//4 1//4 2//3
f 5//5 3//2 2//2
f 2//3 3//3 5//6
f 3//7 6//8 1//8
f 1//9 6//9 3//10
f 7//11 4//1 1//1
f 1//4 4//4 7//12
f 8//13 2//14 4//13
f 4//15 2//16 8//15
f 2//17 9//17 4//17
f 4//18 9//18 2//18
f 3//2 5//5 10//5
f 10//6 5//6 3//3
f 11//14 5//19 2//14
f 2//16 5//20 11//16
f 5//17 12//17 2//17
f 2//18 12//18 5//18
f 6//8 3//7 13//7
f 13//10 3//10 6//9
f 14//21 1//8 6//8
f 6//9 1//9 14//22
f 4//1 7//11 15//11
f 15//12 7//12 4//4
f 1//8 14//21 7//21
f 7//22 14//22 1//9
f 2//14 8//13 11//14
f 11//16 8//15 2//16
f 4//13 16//23 8//13
f 8//15 16//24 4//15
f 2//17 12//17 9//17
f 9//18 12//18 2//18
f 4//17 9//17 17//17
f 17//18 9//18 4//18
f 18//25 10//5 5//5
f 5//6 10//6 18//26
f 10//27 19//7 3//7
f 3//10 19//10 10//28
f 5//19 11//14 20//19
f 20//20 11//16 5//20
f 5//17 21//17 12//17
f 12//18 21//18 5//18
f 13//7 3//7 19//7
f 19//10 3//10 13//10
f 13//17 22//17 6//17
f 6//18 22//18 13//18
f 6//17 23//17 14//17
f 14//18 23//18 6//18
f 24//29 15//11 7//11
f 7//12 15//12 24//30
f 15//21 16//23 4//13
f 4//15 16//24 15//22
f 4//17 17//17 15//17
f 15//18 17//18 4//18
f 14//21 24//31 7//21
f 7//22 24//32 14//22
f 16//18 11//18 8//18
f 8//17 11//17 16//17
f 25//33 9//34 12//33
f 12//35 9//36 25//35
f 26//37 12//38 9//37
f 9//39 12//40 26//39
f 27//34 17//41 9//34
f 9//36 17//42 27//36
f 28//43 9//37 17//43
f 17//44 9//39 28//44
f 10//5 18//25 29//25
f 29//26 18//26 10//6
f 5//19 30//45 18//45
f 18//46 30//46 5//20
f 18//17 31//17 5//17
f 5//18 31//18 18//18
f 19//7 10//27 32//27
f 32//28 10//28 19//10
f 16//18 20//18 11//18
f 11//17 20//17 16//17
f 30//45 5//19 20//19
f 20//20 5//20 30//46
f 5//17 31//17 21//17
f 21//18 31//18 5//18
f 33//47 12//33 21//47
f 21//48 12//35 33//48
f 34//38 21//49 12//38
f 12//40 21//50 34//40
f 19//7 32//27 13//7
f 13//10 32//28 19//10
f 32//17 22//17 13//17
f 13//18 22//18 32//18
f 6//17 22//17 35//17
f 35//18 22//18 6//18
f 6//17 35//17 23//17
f 23//18 35//18 6//18
f 14//17 23//17 36//17
f 36//18 23//18 14//18
f 15//11 24//29 37//29
f 37//30 24//30 15//12
f 16//23 15//21 38//21
f 38//22 15//22 16//24
f 15//17 17//17 37//17
f 37//18 17//18 15//18
f 24//31 14//21 36//31
f 36//32 14//22 24//32
f 9//34 25//33 27//34
f 27//36 25//35 9//36
f 12//33 33//47 25//33
f 25//35 33//48 12//35
f 12//38 26//37 34//38
f 34//40 26//39 12//40
f 9//37 28//43 26//37
f 26//39 28//44 9//39
f 17//41 27//34 39//51
f 39//52 27//36 17//42
f 17//43 24//29 28//43
f 28//44 24//30 17//44
f 40//53 29//25 18//25
f 18//26 29//26 40//54
f 41//45 10//27 29//45
f 29//46 10//28 41//46
f 30//45 40//55 18//45
f 18//46 40//56 30//46
f 40//17 31//17 18//17
f 18//18 31//18 40//18
f 10//27 41//45 32//27
f 32//28 41//46 10//28
f 16//18 30//18 20//18
f 20//17 30//17 16//17
f 42//57 21//47 31//57
f 31//58 21//48 42//58
f 43//49 31//59 21//49
f 21//50 31//60 43//50
f 21//47 42//57 33//47
f 33//48 42//58 21//48
f 21//49 34//38 43//49
f 43//50 34//40 21//50
f 32//17 44//17 22//17
f 22//18 44//18 32//18
f 22//61 26//62 35//62
f 35//63 26//63 22//64
f 35//62 28//41 23//41
f 23//42 28//42 35//63
f 23//41 24//31 36//31
f 36//32 24//32 23//42
f 24//29 17//43 37//29
f 37//30 17//44 24//30
f 37//31 38//21 15//21
f 15//22 38//22 37//32
f 45//18 38//18 16//18
f 16//17 38//17 45//17
f 39//18 16//18 38//18
f 38//17 16//17 39//17
f 46//41 37//31 17//41
f 17//42 37//32 46//42
f 25//18 39//18 27//18
f 27//17 39//17 25//17
f 33//18 39//18 25//18
f 25//17 39//17 33//17
f 22//61 34//61 26//62
f 26//63 34//64 22//64
f 28//41 35//62 26//62
f 26//63 35//63 28//42
f 17//41 39//51 46//41
f 46//42 39//52 17//42
f 24//31 23//41 28//41
f 28//42 23//42 24//32
f 29//25 40//53 47//53
f 47//54 40//54 29//26
f 29//45 48//55 41//45
f 41//46 48//56 29//46
f 40//55 30//45 49//55
f 49//56 30//46 40//56
f 40//17 50//17 31//17
f 31//18 50//18 40//18
f 41//17 51//17 32//17
f 32//18 51//18 41//18
f 16//18 49//18 30//18
f 30//17 49//17 16//17
f 50//56 42//57 31//57
f 31//58 42//58 50//55
f 31//59 43//49 52//59
f 52//60 43//50 31//60
f 42//18 39//18 33//18
f 33//17 39//17 42//17
f 34//61 44//65 43//65
f 43//66 44//66 34//64
f 32//17 51//17 44//17
f 44//18 51//18 32//18
f 44//65 53//61 22//61
f 22//64 53//64 44//66
f 38//21 37//31 54//31
f 54//32 37//32 38//22
f 38//18 45//18 54//18
f 54//17 45//17 38//17
f 16//67 55//67 45//67
f 45//68 55//68 16//68
f 56//18 16//18 39//18
f 39//17 16//17 56//17
f 39//18 38//18 46//18
f 46//17 38//17 39//17
f 37//31 46//41 54//31
f 54//32 46//42 37//32
f 34//61 22//61 53//61
f 53//64 22//64 34//64
f 46//18 57//18 39//18
f 39//17 57//17 46//17
f 40//53 58//69 47//53
f 47//54 58//70 40//54
f 48//55 29//45 47//55
f 47//56 29//46 48//56
f 48//17 51//17 41//17
f 41//18 51//18 48//18
f 49//55 59//58 40//55
f 40//56 59//57 49//56
f 40//17 60//17 50//17
f 50//18 60//18 40//18
f 31//59 61//71 50//71
f 50//72 61//72 31//60
f 16//18 62//18 49//18
f 49//17 62//17 16//17
f 42//57 50//56 63//56
f 63//55 50//55 42//58
f 44//65 52//57 43//65
f 43//66 52//58 44//66
f 61//71 31//59 52//59
f 52//60 31//60 61//72
f 63//18 39//18 42//18
f 42//17 39//17 63//17
f 44//65 34//61 53//61
f 53//64 34//64 44//66
f 52//57 44//65 51//57
f 51//58 44//66 52//58
f 46//18 38//18 54//18
f 54//17 38//17 46//17
f 57//18 54//18 45//18
f 45//17 54//17 57//17
f 55//67 16//67 64//67
f 64//68 16//68 55//68
f 45//67 55//67 65//67
f 65//68 55//68 45//68
f 56//18 64//18 16//18
f 16//17 64//17 56//17
f 39//18 66//18 56//18
f 56//17 66//17 39//17
f 57//73 56//73 39//73
f 39//74 56//74 57//74
f 57//18 46//18 54//18
f 54//17 46//17 57//17
f 58//69 40//53 59//69
f 59//70 40//54 58//70
f 67//58 47//55 58//58
f 58//57 47//56 67//57
f 47//55 67//58 48//55
f 48//56 67//57 47//56
f 48//17 68//17 51//17
f 51//18 68//18 48//18
f 59//58 49//55 62//58
f 62//57 49//56 59//57
f 59//17 60//17 40//17
f 40//18 60//18 59//18
f 69//46 50//56 60//46
f 60//45 50//55 69//45
f 50//71 70//75 60//75
f 60//76 70//76 50//72
f 70//75 50//71 61//71
f 61//72 50//72 70//76
f 16//18 71//18 62//18
f 62//17 71//17 16//17
f 50//56 69//46 63//56
f 63//55 69//45 50//55
f 52//57 68//56 61//56
f 61//55 68//55 52//58
f 69//18 39//18 63//18
f 63//17 39//17 69//17
f 68//56 52//57 51//57
f 51//58 52//58 68//55
f 65//31 57//31 45//31
f 45//32 57//32 65//32
f 72//18 16//18 64//18
f 64//17 16//17 72//17
f 73//18 55//18 64//18
f 64//17 55//17 73//17
f 65//67 55//67 19//67
f 19//68 55//68 65//68
f 74//18 64//18 56//18
f 56//17 64//17 74//17
f 66//18 39//18 75//18
f 75//17 39//17 66//17
f 66//15 76//22 56//24
f 56//23 76//21 66//13
f 56//73 57//73 77//73
f 77//74 57//74 56//74
f 59//69 78//77 58//69
f 58//70 78//78 59//70
f 58//58 79//79 67//58
f 67//57 79//80 58//57
f 67//17 68//17 48//17
f 48//18 68//18 67//18
f 71//48 59//58 62//58
f 62//57 59//57 71//47
f 80//17 60//17 59//17
f 59//18 60//18 80//18
f 60//46 81//20 69//46
f 69//45 81//19 60//45
f 82//81 60//75 70//75
f 70//76 60//76 82//82
f 68//56 70//46 61//56
f 61//55 70//45 68//55
f 16//18 83//18 71//18
f 71//17 83//17 16//17
f 81//18 39//18 69//18
f 69//17 39//17 81//17
f 57//31 65//31 84//31
f 84//32 65//32 57//32
f 16//18 72//18 83//18
f 83//17 72//17 16//17
f 64//52 85//36 72//36
f 72//34 85//34 64//51
f 55//18 73//18 77//18
f 77//17 73//17 55//17
f 74//18 73//18 64//18
f 64//17 73//17 74//17
f 73//42 85//36 64//52
f 64//51 85//34 73//41
f 19//67 55//67 86//67
f 86//68 55//68 19//68
f 19//17 53//17 65//17
f 65//18 53//18 19//18
f 77//18 74//18 56//18
f 56//17 74//17 77//17
f 56//24 76//22 74//22
f 74//21 76//21 56//23
f 75//18 39//18 81//18
f 81//17 39//17 75//17
f 75//16 87//15 66//15
f 66//13 87//13 75//14
f 76//22 66//15 87//15
f 87//13 66//13 76//21
f 77//73 57//73 84//73
f 84//74 57//74 77//74
f 78//77 59//69 80//77
f 80//78 59//70 78//78
f 79//79 58//58 78//79
f 78//80 58//57 79//80
f 79//17 88//17 67//17
f 67//18 88//18 79//18
f 67//17 89//17 68//17
f 68//18 89//18 67//18
f 59//58 71//48 80//48
f 80//47 71//47 59//57
f 80//17 90//17 60//17
f 60//18 90//18 80//18
f 81//20 60//46 90//20
f 90//19 60//45 81//19
f 60//75 82//81 90//81
f 90//82 82//82 60//76
f 70//46 88//83 82//83
f 82//84 88//84 70//45
f 70//46 68//56 89//46
f 89//45 68//55 70//45
f 91//35 71//48 83//35
f 83//33 71//47 91//33
f 65//17 53//17 84//17
f 84//18 53//18 65//18
f 72//36 91//35 83//35
f 83//33 91//33 72//34
f 91//35 72//36 85//36
f 85//34 72//34 91//33
f 77//18 73//18 92//18
f 92//17 73//17 77//17
f 77//32 93//32 55//32
f 55//31 93//31 77//31
f 73//18 74//18 92//18
f 92//17 74//17 73//17
f 85//36 73//42 94//42
f 94//41 73//41 85//34
f 93//67 86//67 55//67
f 55//68 86//68 93//68
f 86//17 53//17 19//17
f 19//18 53//18 86//18
f 74//18 77//18 92//18
f 92//17 77//17 74//17
f 95//32 74//22 76//22
f 76//21 74//21 95//31
f 90//20 75//16 81//20
f 81//19 75//14 90//19
f 87//15 75//16 96//16
f 96//14 75//14 87//13
f 87//85 97//86 76//86
f 76//87 97//87 87//88
f 94//17 76//17 87//17
f 87//18 76//18 94//18
f 77//73 84//73 53//73
f 53//74 84//74 77//74
f 80//77 98//89 78//77
f 78//78 98//90 80//78
f 98//91 79//79 78//79
f 78//80 79//80 98//92
f 99//17 88//17 79//17
f 79//18 88//18 99//18
f 67//17 88//17 89//17
f 89//18 88//18 67//18
f 71//48 91//35 80//48
f 80//47 91//33 71//47
f 91//17 90//17 80//17
f 80//18 90//18 91//18
f 100//93 90//81 82//81
f 82//82 90//82 100//94
f 88//83 70//46 89//46
f 89//45 70//45 88//84
f 88//83 100//95 82//83
f 82//84 100//96 88//84
f 85//17 96//17 91//17
f 91//18 96//18 85//18
f 101//97 91//89 85//97
f 85//98 91//90 101//98
f 95//32 73//42 92//32
f 92//31 73//41 95//31
f 93//32 77//32 102//32
f 102//31 77//31 93//31
f 74//22 95//32 92//32
f 92//31 95//31 74//21
f 73//42 95//32 94//42
f 94//41 95//31 73//41
f 94//17 87//17 85//17
f 85//18 87//18 94//18
f 103//99 85//97 94//99
f 94//100 85//98 103//100
f 93//17 104//17 86//17
f 86//18 104//18 93//18
f 86//17 104//17 53//17
f 53//18 104//18 86//18
f 76//17 94//17 95//17
f 95//18 94//18 76//18
f 76//86 105//101 95//101
f 95//102 105//102 76//87
f 75//16 90//20 96//16
f 96//14 90//19 75//14
f 85//17 87//17 96//17
f 96//18 87//18 85//18
f 96//93 106//85 87//85
f 87//88 106//88 96//94
f 97//86 87//85 106//85
f 106//88 87//88 97//87
f 105//101 76//86 97//86
f 97//87 76//87 105//102
f 104//73 77//73 53//73
f 53//74 77//74 104//74
f 98//89 80//77 91//89
f 91//90 80//78 98//90
f 79//79 98//91 86//91
f 86//92 98//92 79//80
f 99//17 107//17 88//17
f 88//18 107//18 99//18
f 79//79 86//91 99//91
f 99//92 86//92 79//80
f 91//17 96//17 90//17
f 90//18 96//18 91//18
f 90//81 100//93 96//93
f 96//94 100//94 90//82
f 100//95 88//83 104//95
f 104//96 88//84 100//96
f 91//89 101//97 98//89
f 98//90 101//98 91//90
f 85//97 103//99 101//97
f 101//98 103//100 85//98
f 77//73 104//73 102//73
f 102//74 104//74 77//74
f 104//17 93//17 102//17
f 102//18 93//18 104//18
f 105//101 94//99 95//101
f 95//102 94//100 105//102
f 94//99 105//101 103//99
f 103//100 105//102 94//100
f 106//85 96//93 100//93
f 100//94 96//94 106//88
f 106//103 108//22 97//22
f 97//21 108//21 106//104
f 97//22 109//32 105//32
f 105//31 109//31 97//21
f 98//91 99//91 86//91
f 86//92 99//92 98//92
f 110//17 107//17 99//17
f 99//18 107//18 110//18
f 104//95 88//83 107//95
f 107//96 88//84 104//96
f 107//95 100//95 104//95
f 104//96 100//96 107//96
f 101//105 99//91 98//91
f 98//92 99//92 101//106
f 103//42 110//105 101//105
f 101//106 110//106 103//41
f 105//32 111//42 103//42
f 103//41 111//41 105//31
f 100//95 112//103 106//103
f 106//104 112//104 100//96
f 108//22 106//103 112//103
f 112//104 106//104 108//21
f 109//32 97//22 108//22
f 108//21 97//21 109//31
f 111//42 105//32 109//32
f 109//31 105//31 111//41
f 110//17 112//17 107//17
f 107//18 112//18 110//18
f 99//91 101//105 110//105
f 110//106 101//106 99//92
f 100//95 107//95 112//103
f 112//104 107//96 100//96
f 110//105 103//42 111//42
f 111//41 103//41 110//106
f 111//17 108//17 112//17
f 112//18 108//18 111//18
f 108//17 111//17 109//17
f 109//18 111//18 108//18
f 111//17 112//17 110//17
f 110//18 112//18 111//18
