mtllib new-2.mtl
v 0.052764 0.095647 0.437937
v 0.052764 0.095647 -0.184054
v 0.052764 0.235525 -0.184054
v 0.052764 0.235525 0.437937
v 0.031060 0.235525 0.459641
v 0.031060 0.235525 -0.205758
v 0.031060 0.176143 -0.205758
v 0.031060 0.176143 0.459641
v 0.038531 0.176143 -0.205758
v 0.038531 0.176143 0.459641
v 0.038531 0.143000 0.459641
v 0.038531 0.143000 -0.205758
v 0.031060 0.143000 0.459641
v 0.031060 0.075844 0.459641
v 0.031060 0.143000 -0.205758
v 0.031060 0.075844 -0.205758
vn 0.000000 1.000000 0.000000
vn 0.000000 0.000000 1.000000
vn 1.000000 0.000000 0.000000
vn 0.000000 0.000000 -1.000000
vn -1.000000 0.000000 0.000000
vn 0.000000 -1.000000 0.000000
vt 1.429324 0.048194
vt 0.048194 0.048194
vt -0.048194 0.354572
vt -1.429324 0.043973
vt -0.048194 0.043973
vt -1.429324 0.354572
vt 1.477519 0.000000
vt 0.000000 0.000000
vt 0.000000 0.354572
vt 0.000000 0.222716
vt 1.477519 0.354572
vt 1.477519 0.222716
vt -0.016590 0.149122
vt -1.477519 0.016590
vt 0.000000 0.016590
vt -1.477519 0.000000
vt 0.000000 0.149122
vt 1.477519 0.149122
vt 1.477519 0.016590
vt 0.037810 0.037810
vt 1.121343 0.037810
vt -0.037810 0.034498
vt -1.121343 0.034498
vt -0.037810 0.278171
vt -1.121343 0.278171
vt 1.159152 0.000000
vt 0.000000 0.278171
vt 0.000000 0.174726
vt 1.159152 0.278171
vt 1.159152 0.174726
vt -0.013015 0.116990
vt 0.000000 0.013015
vt -1.159152 0.013015
vt -1.159152 0.000000
vt 0.000000 0.116990
vt 1.159152 0.116990
vt 1.159152 0.013015
usemtl material-0
f 3/3/3 1/4/3 2/5/3
f 1/4/3 3/3/3 4/6/3
f 3/2/1 5/7/1 4/1/1
f 3/2/1 6/8/1 5/7/1
f 7/10/5 5/11/5 6/9/5
f 5/11/5 7/10/5 8/12/5
f 10/14/6 7/8/6 9/15/6
f 7/8/6 10/14/6 8/16/6
f 12/17/5 10/12/5 9/10/5
f 10/12/5 12/17/5 11/18/5
f 12/15/1 13/7/1 11/19/1
f 13/7/1 12/15/1 15/8/1
f 13/18/5 16/8/5 14/7/5
f 12/13/4 16/8/4 15/17/4
f 16/8/5 13/18/5 15/17/5
usemtl material-1
f 2/22/5 1/23/5 3/24/5
f 4/25/5 3/24/5 1/23/5
f 4/21/6 5/26/6 3/20/6
f 5/26/6 6/8/6 3/20/6
f 6/27/3 5/29/3 7/28/3
f 8/30/3 7/28/3 5/29/3
f 9/32/1 7/8/1 10/33/1
f 8/34/1 10/33/1 7/8/1
f 9/28/3 10/30/3 12/35/3
f 11/36/3 12/35/3 10/30/3
f 11/37/6 13/26/6 12/32/6
f 15/8/6 12/32/6 13/26/6
f 14/26/3 16/8/3 13/36/3
f 15/35/2 16/8/2 12/31/2
f 15/35/3 13/36/3 16/8/3