mtllib new-1.mtl
v 0.489589 0.095647 -0.184054
v 0.489589 0.095647 0.437937
v 0.489589 0.235525 0.437937
v 0.489589 0.235525 -0.184054
v 0.511294 0.235525 -0.205758
v 0.511294 0.235525 0.459641
v 0.511294 0.176143 0.459641
v 0.511294 0.176143 -0.205758
v 0.503823 0.176143 0.459641
v 0.503823 0.176143 -0.205758
v 0.503823 0.143000 0.459641
v 0.511294 0.143000 0.459641
v 0.503823 0.143000 -0.205758
v 0.511294 0.075844 0.459641
v 0.511294 0.143000 -0.205758
v 0.511294 0.075844 -0.205758
vn 0.000000 1.000000 0.000000
vn 0.000000 0.000000 1.000000
vn 1.000000 0.000000 0.000000
vn 0.000000 0.000000 -1.000000
vn -1.000000 0.000000 0.000000
vn 0.000000 -1.000000 0.000000
vt 0.048194 1.018165
vt 1.429324 1.018165
vt 0.048194 0.354572
vt 0.048194 0.043973
vt 1.429324 0.354572
vt 1.429324 0.043973
vt 0.000000 1.066359
vt 1.477519 1.066359
vt 0.000000 0.000000
vt -1.477519 0.222716
vt 0.000000 0.354572
vt -1.477519 0.354572
vt -1.066359 0.354572
vt 0.000000 0.222716
vt -1.477519 1.066359
vt 0.000000 1.049770
vt -1.049770 0.222716
vt -1.066359 0.222716
vt -1.477519 1.049770
vt -1.477519 0.000000
vt -1.477519 0.149122
vt 0.000000 0.149122
vt 1.477519 1.049770
vt 0.037810 0.798777
vt 1.121343 0.798777
vt 0.037810 0.034498
vt 0.037810 0.278171
vt 1.121343 0.034498
vt 1.121343 0.278171
vt 0.000000 0.836587
vt 1.159152 0.836587
vt -1.159152 0.278171
vt 0.000000 0.278171
vt -1.159152 0.174726
vt 0.000000 0.174726
vt -0.836587 0.278171
vt -0.823572 0.174726
vt -0.836587 0.174726
vt 0.000000 0.823572
vt -1.159152 0.836587
vt -1.159152 0.823572
vt -1.159152 0.000000
vt 0.000000 0.116990
vt -1.159152 0.116990
vt 1.159152 0.823572
usemtl material-0
f 3/5/5 1/4/5 2/6/5
f 1/4/5 3/5/5 4/3/5
f 6/8/1 4/1/1 3/2/1
f 5/7/1 4/1/1 6/8/1
f 7/10/3 5/11/3 6/12/3
f 5/11/3 7/10/3 8/14/3
f 7/15/6 10/16/6 8/7/6
f 10/17/4 5/13/4 8/18/4
f 10/16/6 7/15/6 9/19/6
f 11/21/3 10/14/3 9/10/3
f 15/7/1 11/23/1 12/8/1
f 10/14/3 11/21/3 13/22/3
f 11/23/1 15/7/1 13/16/1
f 14/20/3 15/22/3 12/21/3
f 15/22/3 14/20/3 16/9/3
usemtl material-1
f 2/28/3 1/26/3 3/29/3
f 4/27/3 3/29/3 1/26/3
f 3/25/6 4/24/6 6/31/6
f 6/31/6 4/24/6 5/30/6
f 6/32/5 5/33/5 7/34/5
f 8/35/5 7/34/5 5/33/5
f 8/30/1 10/39/1 7/40/1
f 8/38/2 5/36/2 10/37/2
f 9/41/1 7/40/1 10/39/1
f 9/34/5 10/35/5 11/44/5
f 12/31/6 11/45/6 15/30/6
f 13/43/5 11/44/5 10/35/5
f 13/39/6 15/30/6 11/45/6
f 12/44/5 15/43/5 14/42/5
f 16/9/5 14/42/5 15/43/5