mtllib new-0.mtl
v -0.519110 -0.535783 -0.519822
v 0.494577 -0.535783 -0.519822
v -0.519110 -0.535783 0.324983
v -0.519110 -0.535783 0.326238
v -0.519110 -0.705417 0.324983
v -0.519110 -0.705669 -0.519822
v -0.519110 -0.705669 0.326238
v -0.519110 -0.705669 0.324983
v 0.494577 -0.535783 0.324983
v 0.494577 -0.705669 -0.519822
v 0.494577 -0.535783 0.326238
v 0.494577 -0.705669 0.324983
v 0.494577 -0.705669 0.326238
vn 0.000000 1.000000 0.000000
vn 0.000000 -1.000000 0.000000
vn 1.000000 0.000000 0.000000
vn -1.000000 0.000000 0.000000
vn 0.000000 0.000000 1.000000
vn 0.000000 0.000000 -1.000000
vt 1.750546 0.058178
vt 2.088631 0.058178
vt 1.468787 0.058178
vt 1.750546 0.001602
vt 2.032305 0.058178
vt 1.468787 0.001602
vt 1.750546 0.001518
vt 1.750128 0.058178
vt 1.750128 0.001518
vt 1.468787 0.001518
vt 2.088631 0.001518
vt 1.412462 0.058178
vt 1.750546 0.283277
vt 2.088631 -0.280242
vt 2.370390 0.001517
vt 2.370390 0.058178
vt 1.412462 0.001518
vt 2.088631 0.001099
vt 1.750546 0.001099
vt 2.089049 0.058178
vt 1.655051 0.001518
vt 1.655469 0.001518
vt 1.655469 0.058178
vt 2.089049 0.001518
usemtl material-0
f 5/4/3 1/5/3 3/1/3
f 3/3/4 1/1/4 5/6/4
f 1/1/5 6/7/5 2/2/5
f 2/2/6 6/7/6 1/1/6
f 3/1/3 4/8/3 7/9/3
f 7/9/4 4/8/4 3/1/4
f 1/5/3 5/4/3 8/7/3
f 8/10/4 5/6/4 1/1/4
f 5/4/5 9/2/5 3/1/5
f 3/1/6 9/2/6 5/4/6
f 3/1/3 7/9/3 5/4/3
f 5/4/4 7/9/4 3/1/4
f 1/1/3 8/10/3 6/7/3
f 6/7/4 8/10/4 1/1/4
f 2/2/5 6/7/5 10/11/5
f 10/11/6 6/7/6 2/2/6
f 4/1/6 11/12/6 7/7/6
f 7/7/5 11/12/5 4/1/5
f 9/2/5 5/4/5 8/7/5
f 8/7/6 5/4/6 9/2/6
f 12/11/1 6/13/1 8/7/1
f 8/7/2 6/13/2 12/11/2
f 10/11/1 6/7/1 12/14/1
f 12/14/2 6/7/2 10/11/2
f 12/15/4 2/2/4 10/11/4
f 10/11/3 2/2/3 12/15/3
f 11/12/6 13/17/6 7/7/6
f 7/7/5 13/17/5 11/12/5
f 9/2/5 8/7/5 12/11/5
f 12/11/6 8/7/6 9/2/6
f 13/18/1 8/7/1 7/19/1
f 7/19/2 8/7/2 13/18/2
f 2/2/4 12/15/4 9/16/4
f 9/16/3 12/15/3 2/2/3
f 12/11/1 8/7/1 13/18/1
f 13/18/2 8/7/2 12/11/2
f 12/11/4 11/20/4 9/2/4
f 9/2/3 11/20/3 12/11/3
f 12/21/4 13/22/4 11/23/4
f 11/20/3 13/24/3 12/11/3
usemtl material-1
f 5//3 7//3 8//3
f 8//4 7//4 5//4