# SSTK version 0.8.0
# 27
mtllib original-27.mtl
o mesh27/mesh27-geometry#mesh27-geometry
v -0.198430 0.735772 0.479227
v -0.202603 0.735772 0.479227
v -0.201720 0.735772 0.478366
v -0.202924 0.735772 0.480402
v -0.202603 0.735772 0.481576
v -0.198105 0.735772 0.480402
v -0.198430 0.735772 0.481576
v -0.199308 0.735772 0.482438
vt 1.643593 0.04557
vt 1.644985 0.04557
vt 1.64469 0.045857
vt 1.645092 0.045178
vt 1.644985 0.044786
vt 1.643485 0.045178
vt 1.643593 0.044786
vt 1.643886 0.044499
vn 0 -1 0
vn 0 1 0
usemtl material_0_0
f 1/1/1 2/2/1 3/3/1
f 3/3/2 2/2/2 1/1/2
f 1/1/1 4/4/1 2/2/1
f 2/2/2 4/4/2 1/1/2
f 1/1/1 5/5/1 4/4/1
f 4/4/2 5/5/2 1/1/2
f 6/6/1 5/5/1 1/1/1
f 1/1/2 5/5/2 6/6/2
f 6/6/1 7/7/1 5/5/1
f 5/5/2 7/7/2 6/6/2
f 7/7/1 8/8/1 5/5/1
f 5/5/2 8/8/2 7/7/2
