# SSTK version 0.8.0
# 19
mtllib original-19.mtl
o mesh19/mesh19-geometry#mesh19-geometry
v 0.097820 0.733977 0.478123
v 0.094525 0.733977 0.478984
v 0.093647 0.733977 0.478123
v 0.093322 0.733977 0.476948
v 0.098141 0.733977 0.476948
v 0.093647 0.733977 0.475773
v 0.097820 0.733977 0.475773
v 0.096937 0.733977 0.474912
vt 1.544788 0.045938
vt 1.545887 0.045651
vt 1.54618 0.045938
vt 1.546288 0.04633
vt 1.544681 0.04633
vt 1.54618 0.046721
vt 1.544788 0.046721
vt 1.545082 0.047009
vn 0 -1 0
vn 0 1 0
usemtl material_0_0
f 1/1/1 2/2/1 3/3/1
f 3/3/2 2/2/2 1/1/2
f 1/1/1 3/3/1 4/4/1
f 4/4/2 3/3/2 1/1/2
f 5/5/1 1/1/1 4/4/1
f 4/4/2 1/1/2 5/5/2
f 5/5/1 4/4/1 6/6/1
f 6/6/2 4/4/2 5/5/2
f 5/5/1 6/6/1 7/7/1
f 7/7/2 6/6/2 5/5/2
f 7/7/1 6/6/1 8/8/1
f 8/8/2 6/6/2 7/7/2
