# SSTK version 0.8.0
# 12
mtllib original-12.mtl
o mesh12/mesh12-geometry#mesh12-geometry
v -0.127704 0.735772 0.485590
v -0.131881 0.735772 0.485590
v -0.128587 0.735772 0.484729
v -0.127383 0.735772 0.486765
v -0.132202 0.735772 0.486765
v -0.131881 0.735772 0.487939
v -0.127704 0.735772 0.487939
v -0.128587 0.735772 0.488801
vt 1.620005 0.043447
vt 1.621398 0.043447
vt 1.620299 0.043735
vt 1.619898 0.043056
vt 1.621505 0.043056
vt 1.621398 0.042664
vt 1.620005 0.042664
vt 1.620299 0.042377
vn 0 -1 0
vn 0 1 0
usemtl material_0_0
f 1/1/1 2/2/1 3/3/1
f 3/3/2 2/2/2 1/1/2
f 4/4/1 2/2/1 1/1/1
f 1/1/2 2/2/2 4/4/2
f 4/4/1 5/5/1 2/2/1
f 2/2/2 5/5/2 4/4/2
f 4/4/1 6/6/1 5/5/1
f 5/5/2 6/6/2 4/4/2
f 4/4/1 7/7/1 6/6/1
f 6/6/2 7/7/2 4/4/2
f 7/7/1 8/8/1 6/6/1
f 6/6/2 8/8/2 7/7/2
