# SSTK version 0.8.0
# 13
mtllib original-13.mtl
o #ID46
v -0.265354 -0.005117 0.100331
v -0.271740 0.000174 0.106686
v -0.272018 -0.004569 0.106801
v -0.265077 -0.000374 0.100215
v -0.265077 -0.000374 0.100215
v -0.265354 -0.005117 0.100331
v -0.271740 0.000174 0.106686
v -0.272018 -0.004569 0.106801
v -0.315057 0.002690 0.105987
v -0.326053 0.002971 0.091175
v -0.321528 0.002905 0.099305
v -0.307082 0.002340 0.110767
v -0.328325 0.002884 0.082153
v -0.298146 0.001880 0.113319
v -0.328189 0.002649 0.072853
v -0.325653 0.002282 0.063908
v -0.288858 0.001340 0.113469
v -0.279852 0.000758 0.111206
v -0.320892 0.001809 0.055928
v -0.314228 0.001261 0.049458
v -0.271740 0.000174 0.106686
v -0.265077 -0.000374 0.100215
v -0.306116 0.000677 0.044937
v -0.297110 0.000095 0.042675
v -0.260315 -0.000847 0.092236
v -0.257779 -0.001214 0.083291
v -0.287822 -0.000445 0.042825
v -0.278887 -0.000905 0.045376
v -0.257643 -0.001449 0.073990
v -0.259915 -0.001536 0.064968
v -0.270911 -0.001255 0.050156
v -0.264441 -0.001470 0.056839
v -0.264441 -0.001470 0.056839
v -0.259915 -0.001536 0.064968
v -0.270911 -0.001255 0.050156
v -0.278887 -0.000905 0.045376
v -0.257643 -0.001449 0.073990
v -0.257779 -0.001214 0.083291
v -0.287822 -0.000445 0.042825
v -0.297110 0.000095 0.042675
v -0.260315 -0.000847 0.092236
v -0.265077 -0.000374 0.100215
v -0.306116 0.000677 0.044937
v -0.314228 0.001261 0.049458
v -0.271740 0.000174 0.106686
v -0.279852 0.000758 0.111206
v -0.320892 0.001809 0.055928
v -0.325653 0.002282 0.063908
v -0.288858 0.001340 0.113469
v -0.298146 0.001880 0.113319
v -0.328189 0.002649 0.072853
v -0.328325 0.002884 0.082153
v -0.307082 0.002340 0.110767
v -0.326053 0.002971 0.091175
v -0.315057 0.002690 0.105987
v -0.321528 0.002905 0.099305
v -0.279852 0.000758 0.111206
v -0.280129 -0.003985 0.111322
v -0.279852 0.000758 0.111206
v -0.280129 -0.003985 0.111322
v -0.326331 -0.001772 0.091291
v -0.315334 -0.002053 0.106103
v -0.321805 -0.001838 0.099420
v -0.328603 -0.001859 0.082269
v -0.307359 -0.002403 0.110883
v -0.328466 -0.002094 0.072968
v -0.298423 -0.002863 0.113435
v -0.325931 -0.002461 0.064024
v -0.289136 -0.003403 0.113584
v -0.321169 -0.002934 0.056044
v -0.280129 -0.003985 0.111322
v -0.314505 -0.003481 0.049573
v -0.272018 -0.004569 0.106801
v -0.306394 -0.004066 0.045053
v -0.265354 -0.005117 0.100331
v -0.297387 -0.004648 0.042791
v -0.260592 -0.005590 0.092351
v -0.288100 -0.005187 0.042940
v -0.258057 -0.005957 0.083407
v -0.279164 -0.005648 0.045492
v -0.257920 -0.006192 0.074106
v -0.271189 -0.005997 0.050272
v -0.260192 -0.006279 0.065084
v -0.264718 -0.006213 0.056955
v -0.264718 -0.006213 0.056955
v -0.271189 -0.005997 0.050272
v -0.260192 -0.006279 0.065084
v -0.257920 -0.006192 0.074106
v -0.279164 -0.005648 0.045492
v -0.258057 -0.005957 0.083407
v -0.288100 -0.005187 0.042940
v -0.260592 -0.005590 0.092351
v -0.297387 -0.004648 0.042791
v -0.265354 -0.005117 0.100331
v -0.306394 -0.004066 0.045053
v -0.272018 -0.004569 0.106801
v -0.314505 -0.003481 0.049573
v -0.280129 -0.003985 0.111322
v -0.321169 -0.002934 0.056044
v -0.289136 -0.003403 0.113584
v -0.325931 -0.002461 0.064024
v -0.298423 -0.002863 0.113435
v -0.328466 -0.002094 0.072968
v -0.307359 -0.002403 0.110883
v -0.328603 -0.001859 0.082269
v -0.315334 -0.002053 0.106103
v -0.326331 -0.001772 0.091291
v -0.321805 -0.001838 0.099420
v -0.260592 -0.005590 0.092351
v -0.260315 -0.000847 0.092236
v -0.260315 -0.000847 0.092236
v -0.260592 -0.005590 0.092351
v -0.328325 0.002884 0.082153
v -0.326331 -0.001772 0.091291
v -0.326053 0.002971 0.091175
v -0.328603 -0.001859 0.082269
v -0.328603 -0.001859 0.082269
v -0.328325 0.002884 0.082153
v -0.326331 -0.001772 0.091291
v -0.326053 0.002971 0.091175
v -0.321805 -0.001838 0.099420
v -0.321528 0.002905 0.099305
v -0.321805 -0.001838 0.099420
v -0.321528 0.002905 0.099305
v -0.315334 -0.002053 0.106103
v -0.315057 0.002690 0.105987
v -0.315334 -0.002053 0.106103
v -0.315057 0.002690 0.105987
v -0.307359 -0.002403 0.110883
v -0.307082 0.002340 0.110767
v -0.307359 -0.002403 0.110883
v -0.307082 0.002340 0.110767
v -0.298423 -0.002863 0.113435
v -0.298146 0.001880 0.113319
v -0.298423 -0.002863 0.113435
v -0.298146 0.001880 0.113319
v -0.289136 -0.003403 0.113584
v -0.288858 0.001340 0.113469
v -0.288858 0.001340 0.113469
v -0.289136 -0.003403 0.113584
v -0.258057 -0.005957 0.083407
v -0.257779 -0.001214 0.083291
v -0.257779 -0.001214 0.083291
v -0.258057 -0.005957 0.083407
v -0.257920 -0.006192 0.074106
v -0.257643 -0.001449 0.073990
v -0.257643 -0.001449 0.073990
v -0.257920 -0.006192 0.074106
v -0.260192 -0.006279 0.065084
v -0.259915 -0.001536 0.064968
v -0.259915 -0.001536 0.064968
v -0.260192 -0.006279 0.065084
v -0.264718 -0.006213 0.056955
v -0.264441 -0.001470 0.056839
v -0.264441 -0.001470 0.056839
v -0.264718 -0.006213 0.056955
v -0.271189 -0.005997 0.050272
v -0.270911 -0.001255 0.050156
v -0.270911 -0.001255 0.050156
v -0.271189 -0.005997 0.050272
v -0.279164 -0.005648 0.045492
v -0.278887 -0.000905 0.045376
v -0.278887 -0.000905 0.045376
v -0.279164 -0.005648 0.045492
v -0.288100 -0.005187 0.042940
v -0.287822 -0.000445 0.042825
v -0.287822 -0.000445 0.042825
v -0.288100 -0.005187 0.042940
v -0.297110 0.000095 0.042675
v -0.297387 -0.004648 0.042791
v -0.297110 0.000095 0.042675
v -0.297387 -0.004648 0.042791
v -0.306116 0.000677 0.044937
v -0.306394 -0.004066 0.045053
v -0.306116 0.000677 0.044937
v -0.306394 -0.004066 0.045053
v -0.314228 0.001261 0.049458
v -0.314505 -0.003481 0.049573
v -0.314228 0.001261 0.049458
v -0.314505 -0.003481 0.049573
v -0.320892 0.001809 0.055928
v -0.321169 -0.002934 0.056044
v -0.320892 0.001809 0.055928
v -0.321169 -0.002934 0.056044
v -0.325653 0.002282 0.063908
v -0.325931 -0.002461 0.064024
v -0.325653 0.002282 0.063908
v -0.325931 -0.002461 0.064024
v -0.328189 0.002649 0.072853
v -0.328466 -0.002094 0.072968
v -0.328189 0.002649 0.072853
v -0.328466 -0.002094 0.072968
vn 0.7829933610512896 -0.03062512328024076 0.6212757023847584
vn 0.5960305030841885 -0.015261158911899279 0.8028167514581861
vn 0.5960305030841884 -0.015261158911899272 0.8028167514581862
vn -0.7829933610512896 0.03062512328024076 -0.6212757023847584
vn -0.5960305030841885 0.015261158911899279 -0.8028167514581861
vn -0.5960305030841884 0.015261158911899272 -0.8028167514581862
vn 0.05836115557404382 0.9979983464259391 -0.02435725869537738
vn -0.05836115557404382 -0.9979983464259391 0.02435725869537738
vn 0.3684491710691599 0.0011428277135386434 0.9296471923709909
vn -0.3684491710691599 -0.0011428277135386434 -0.9296471923709909
vn -0.05836115557404382 -0.9979983464259391 0.024357258695377384
vn 0.05836115557404382 0.9979983464259391 -0.024357258695377384
vn 0.9165965741762423 -0.04390204089057252 0.3973956857013158
vn -0.9165965741762423 0.04390204089057252 -0.3973956857013158
vn -0.9915613705968397 0.06077940920689058 0.11450725634901095
vn -0.9278142173083737 0.06322969637404155 0.367644915178894
vn 0.9915613705968397 -0.06077940920689058 -0.11450725634901095
vn 0.9278142173083737 -0.06322969637404155 -0.367644915178894
vn -0.8008380707544156 0.06137098334351647 0.5957281148592833
vn -0.8008380707544157 0.06137098334351647 0.5957281148592833
vn 0.8008380707544156 -0.06137098334351647 -0.5957281148592833
vn 0.8008380707544157 -0.06137098334351647 -0.5957281148592833
vn -0.6192861369365426 0.055329939512875737 0.7832134309316428
vn 0.6192861369365426 -0.055329939512875737 -0.7832134309316428
vn -0.3955308168284019 0.04551824901582623 0.9173240768374011
vn 0.3955308168284019 -0.04551824901582623 -0.9173240768374011
vn -0.1448207657419791 0.03260456656920751 0.9889205671077635
vn 0.1448207657419791 -0.03260456656920751 -0.9889205671077635
vn 0.11575856703333165 0.017468937592009147 0.9931237538080518
vn -0.11575856703333165 -0.017468937592009147 -0.9931237538080518
vn 0.9877352327355403 -0.05418710563879813 0.14643383350632286
vn -0.9877352327355403 0.05418710563879813 -0.14643383350632286
vn 0.8008380707544155 -0.06137098334351647 -0.5957281148592836
vn 0.8008380707544154 -0.06137098334351647 -0.5957281148592837
vn -0.8008380707544154 0.06137098334351647 0.5957281148592837
vn -0.8008380707544155 0.06137098334351647 0.5957281148592836
vn -0.5960305030841871 0.015261158911899171 -0.8028167514581872
vn -0.5960305030841873 0.015261158911899185 -0.8028167514581871
vn 0.5960305030841871 -0.015261158911899171 0.8028167514581872
vn 0.5960305030841873 -0.015261158911899185 0.8028167514581871
usemtl material_0_0
f 1//1 2//2 3//3
f 2//2 1//1 4//1
f 5//4 6//4 7//5
f 8//6 7//5 6//4
f 9//7 10//7 11//7
f 10//7 9//7 12//7
f 10//7 12//7 13//7
f 13//7 12//7 14//7
f 13//7 14//7 15//7
f 15//7 14//7 16//7
f 16//7 14//7 17//7
f 16//7 17//7 18//7
f 16//7 18//7 19//7
f 19//7 18//7 20//7
f 20//7 18//7 21//7
f 20//7 21//7 22//7
f 20//7 22//7 23//7
f 23//7 22//7 24//7
f 24//7 22//7 25//7
f 24//7 25//7 26//7
f 24//7 26//7 27//7
f 27//7 26//7 28//7
f 28//7 26//7 29//7
f 28//7 29//7 30//7
f 28//7 30//7 31//7
f 31//7 30//7 32//7
f 33//8 34//8 35//8
f 35//8 34//8 36//8
f 34//8 37//8 36//8
f 37//8 38//8 36//8
f 36//8 38//8 39//8
f 39//8 38//8 40//8
f 38//8 41//8 40//8
f 41//8 42//8 40//8
f 40//8 42//8 43//8
f 43//8 42//8 44//8
f 42//8 45//8 44//8
f 45//8 46//8 44//8
f 44//8 46//8 47//8
f 47//8 46//8 48//8
f 46//8 49//8 48//8
f 49//8 50//8 48//8
f 48//8 50//8 51//8
f 51//8 50//8 52//8
f 50//8 53//8 52//8
f 52//8 53//8 54//8
f 53//8 55//8 54//8
f 56//8 54//8 55//8
f 3//3 57//9 58//9
f 57//9 3//3 2//2
f 7//5 8//6 59//10
f 60//10 59//10 8//6
f 61//11 62//11 63//11
f 62//11 61//11 64//11
f 62//11 64//11 65//11
f 65//11 64//11 66//11
f 65//11 66//11 67//11
f 67//11 66//11 68//11
f 67//11 68//11 69//11
f 69//11 68//11 70//11
f 69//11 70//11 71//11
f 71//11 70//11 72//11
f 71//11 72//11 73//11
f 73//11 72//11 74//11
f 73//11 74//11 75//11
f 75//11 74//11 76//11
f 75//11 76//11 77//11
f 77//11 76//11 78//11
f 77//11 78//11 79//11
f 79//11 78//11 80//11
f 79//11 80//11 81//11
f 81//11 80//11 82//11
f 81//11 82//11 83//11
f 83//11 82//11 84//11
f 85//12 86//12 87//12
f 87//12 86//12 88//12
f 86//12 89//12 88//12
f 88//12 89//12 90//12
f 89//12 91//12 90//12
f 90//12 91//12 92//12
f 91//12 93//12 92//12
f 92//12 93//12 94//12
f 93//12 95//12 94//12
f 94//12 95//12 96//12
f 95//12 97//12 96//12
f 96//12 97//12 98//12
f 97//12 99//12 98//12
f 98//12 99//12 100//12
f 99//12 101//12 100//12
f 100//12 101//12 102//12
f 101//12 103//12 102//12
f 102//12 103//12 104//12
f 103//12 105//12 104//12
f 104//12 105//12 106//12
f 105//12 107//12 106//12
f 108//12 106//12 107//12
f 109//13 4//1 1//1
f 4//1 109//13 110//13
f 111//14 112//14 5//4
f 6//4 5//4 112//14
f 113//15 114//16 115//16
f 114//16 113//15 116//15
f 117//17 118//17 119//18
f 120//18 119//18 118//17
f 115//16 121//19 122//20
f 121//19 115//16 114//16
f 119//18 120//18 123//21
f 124//22 123//21 120//18
f 122//20 125//23 126//23
f 125//23 122//20 121//19
f 123//21 124//22 127//24
f 128//24 127//24 124//22
f 126//23 129//25 130//25
f 129//25 126//23 125//23
f 127//24 128//24 131//26
f 132//26 131//26 128//24
f 130//25 133//27 134//27
f 133//27 130//25 129//25
f 131//26 132//26 135//28
f 136//28 135//28 132//26
f 137//29 134//27 133//27
f 134//27 137//29 138//29
f 139//30 140//30 136//28
f 135//28 136//28 140//30
f 58//9 138//29 137//29
f 138//29 58//9 57//9
f 59//10 60//10 139//30
f 140//30 139//30 60//10
f 141//31 110//13 109//13
f 110//13 141//31 142//31
f 143//32 144//32 111//14
f 112//14 111//14 144//32
f 145//17 142//31 141//31
f 142//31 145//17 146//17
f 147//15 148//15 143//32
f 144//32 143//32 148//15
f 149//18 146//17 145//17
f 146//17 149//18 150//18
f 151//16 152//16 147//15
f 148//15 147//15 152//16
f 153//33 150//18 149//18
f 150//18 153//33 154//34
f 155//35 156//36 151//16
f 152//16 151//16 156//36
f 157//24 154//34 153//33
f 154//34 157//24 158//24
f 159//23 160//23 155//35
f 156//36 155//35 160//23
f 161//26 158//24 157//24
f 158//24 161//26 162//26
f 163//25 164//25 159//23
f 160//23 159//23 164//25
f 165//28 162//26 161//26
f 162//26 165//28 166//28
f 167//27 168//27 163//25
f 164//25 163//25 168//27
f 169//30 165//28 170//30
f 165//28 169//30 166//28
f 167//27 171//29 168//27
f 172//29 168//27 171//29
f 173//10 170//30 174//10
f 170//30 173//10 169//30
f 171//29 175//9 172//29
f 176//9 172//29 175//9
f 177//37 174//10 178//38
f 174//10 177//37 173//10
f 175//9 179//39 176//9
f 180//40 176//9 179//39
f 181//4 178//38 182//4
f 178//38 181//4 177//37
f 179//39 183//1 180//40
f 184//1 180//40 183//1
f 185//14 182//4 186//14
f 182//4 185//14 181//4
f 183//1 187//13 184//1
f 188//13 184//1 187//13
f 189//32 186//14 190//32
f 186//14 189//32 185//14
f 187//13 191//31 188//13
f 192//31 188//13 191//31
f 189//32 116//15 113//15
f 116//15 189//32 190//32
f 192//31 191//31 117//17
f 118//17 117//17 191//31
