# SSTK version 0.8.0
# 481
mtllib original-481.mtl
o Group316/mesh474/mesh474-geometry#mesh474-geometry
v 0.013848 0.611079 -0.208956
v 0.013348 0.611382 -0.211200
v -0.000996 0.608906 -0.207800
v -0.000949 0.609290 -0.210087
v 0.013029 0.611105 -0.213521
v -0.020285 0.614163 -0.210596
v -0.000919 0.609063 -0.212436
v -0.019528 0.614353 -0.212780
v 0.012922 0.610274 -0.215684
v -0.035605 0.630774 -0.219428
v -0.000909 0.608249 -0.214608
v -0.019044 0.614003 -0.215062
v -0.034283 0.630352 -0.221287
v -0.036573 0.652179 -0.230809
v -0.018882 0.613148 -0.217212
v -0.033439 0.629611 -0.223361
v -0.035215 0.650969 -0.232248
v -0.026054 0.667393 -0.238898
v -0.033157 0.628625 -0.225442
v -0.034348 0.649724 -0.234055
v -0.025084 0.665622 -0.240040
v -0.013298 0.674439 -0.242645
v -0.034059 0.648570 -0.236047
v -0.024464 0.664018 -0.241656
v -0.012798 0.672408 -0.243648
v -0.024258 0.662745 -0.243584
v -0.012479 0.670639 -0.245176
v -0.012372 0.669311 -0.247075
vn -0.1305930694542447 0.9781915202385818 0.16151408589918992
vn -0.13860205540417297 0.9874303947110614 0.07596503036592568
vn -0.008215003146654869 0.9861983777510334 0.16536406334064976
vn 0.008215003146654869 -0.9861983777510334 -0.16536406334064976
vn 0.13860205540417297 -0.9874303947110614 -0.07596503036592568
vn 0.1305930694542447 -0.9781915202385818 -0.16151408589918992
vn 0.05387599089215676 0.9978978313033899 0.03601799391108683
vn -0.05387599089215676 -0.9978978313033899 -0.03601799391108683
vn -0.15622208453647948 0.9708905253781323 -0.18156609825088912
vn 0.15622208453647948 -0.9708905253781323 0.18156609825088912
vn 0.3760259752174449 0.9027239405046266 0.20903098622349994
vn -0.3760259752174449 -0.9027239405046266 -0.20903098622349994
vn 0.06281398793349689 0.9724288131974155 -0.2245809568582267
vn -0.06281398793349689 -0.9724288131974155 0.2245809568582267
vn 0.47932190928737867 0.8715118350646578 0.10352598040750322
vn -0.47932190928737867 -0.8715118350646578 -0.10352598040750322
vn -0.1621940439202067 0.9237382501372672 -0.3469880939602245
vn 0.1621940439202067 -0.9237382501372672 0.3469880939602245
vn 0.7076880129082294 0.604200011020608 0.366224006679926
vn -0.7076880129082294 -0.604200011020608 -0.366224006679926
vn 0.1443810431496528 0.9267882769795225 -0.34672410362180744
vn -0.1443810431496528 -0.9267882769795225 0.34672410362180744
vn 0.537696958822362 0.8299349364423402 -0.14862698861792253
vn -0.537696958822362 -0.8299349364423402 0.14862698861792253
vn 0.8070501686763276 0.5111671068357255 0.2955980617810361
vn -0.8070501686763276 -0.5111671068357255 -0.2955980617810361
vn 0.7860861056826022 0.1777400238956369 0.5920110795908629
vn -0.7860861056826022 -0.1777400238956369 -0.5920110795908629
vn 0.634300093709917 0.7334991083653326 -0.24421803608016462
vn -0.634300093709917 -0.7334991083653326 0.24421803608016462
vn 0.9022059754248118 0.4261309883926182 0.06660899818563763
vn -0.9022059754248118 -0.4261309883926182 -0.06660899818563763
vn 0.8393957499520176 0.04884098545073647 0.5413218387453907
vn -0.8393957499520176 -0.04884098545073647 -0.5413218387453907
vn 0.6074859238224849 -0.16758997898455327 0.7764499026347411
vn -0.6074859238224849 0.16758997898455327 -0.7764499026347411
vn 0.9605714511661313 0.278027841145502 -0.0017339990092590794
vn -0.9605714511661313 -0.278027841145502 0.0017339990092590794
vn 0.935697918809495 -0.08989999219937808 0.34115597039789775
vn -0.935697918809495 0.08989999219937808 -0.34115597039789775
vn 0.6192501773083805 -0.29909408563887424 0.7259972078729952
vn -0.6192501773083805 0.29909408563887424 -0.7259972078729952
vn 0.42357304307971033 -0.31523603206124007 0.8492420863725954
vn -0.42357304307971033 0.31523603206124007 -0.8492420863725954
vn 0.9298812098305084 -0.2432630548930444 0.27594206226716117
vn -0.9298812098305084 0.2432630548930444 -0.27594206226716117
vn 0.688633860359873 -0.47654490336694927 0.5465238891767167
vn -0.688633860359873 0.47654490336694927 -0.5465238891767167
vn 0.4723289459575421 -0.45303194816544673 0.7560869134908085
vn -0.4723289459575421 0.45303194816544673 -0.7560869134908085
vn 0.6481171647420065 -0.6017161529475407 0.4667781186482444
vn -0.6481171647420065 0.6017161529475407 -0.4667781186482444
vn 0.5183430334074688 -0.6320670407370383 0.5760310371254894
vn -0.5183430334074688 0.6320670407370383 -0.5760310371254894
vn 0.5260691074830315 -0.6826741394795571 0.507156103618849
vn -0.5260691074830315 0.6826741394795571 -0.507156103618849
usemtl material_0_0
f 1//1 2//2 3//3
f 3//4 2//5 1//6
f 2//2 4//7 3//3
f 3//4 4//8 2//5
f 2//2 5//9 4//7
f 4//8 5//10 2//5
f 4//7 6//11 3//3
f 3//4 6//12 4//8
f 5//9 7//13 4//7
f 4//8 7//14 5//10
f 4//7 8//15 6//11
f 6//12 8//16 4//8
f 5//9 9//17 7//13
f 7//14 9//18 5//10
f 7//13 8//15 4//7
f 4//8 8//16 7//14
f 8//15 10//19 6//11
f 6//12 10//20 8//16
f 9//17 11//21 7//13
f 7//14 11//22 9//18
f 7//13 12//23 8//15
f 8//16 12//24 7//14
f 8//15 13//25 10//19
f 10//20 13//26 8//16
f 11//21 12//23 7//13
f 7//14 12//24 11//22
f 13//25 8//15 12//23
f 12//24 8//16 13//26
f 14//27 10//19 13//25
f 13//26 10//20 14//28
f 11//21 15//29 12//23
f 12//24 15//30 11//22
f 16//31 13//25 12//23
f 12//24 13//26 16//32
f 17//33 14//27 13//25
f 13//26 14//28 17//34
f 16//31 12//23 15//29
f 15//30 12//24 16//32
f 17//33 13//25 16//31
f 16//32 13//26 17//34
f 18//35 14//27 17//33
f 17//34 14//28 18//36
f 19//37 16//31 15//29
f 15//30 16//32 19//38
f 20//39 17//33 16//31
f 16//32 17//34 20//40
f 18//35 17//33 21//41
f 21//42 17//34 18//36
f 20//39 16//31 19//37
f 19//38 16//32 20//40
f 21//41 17//33 20//39
f 20//40 17//34 21//42
f 22//43 18//35 21//41
f 21//42 18//36 22//44
f 23//45 20//39 19//37
f 19//38 20//40 23//46
f 24//47 21//41 20//39
f 20//40 21//42 24//48
f 22//43 21//41 25//49
f 25//50 21//42 22//44
f 24//47 20//39 23//45
f 23//46 20//40 24//48
f 25//49 21//41 24//47
f 24//48 21//42 25//50
f 26//51 24//47 23//45
f 23//46 24//48 26//52
f 25//49 24//47 27//53
f 27//54 24//48 25//50
f 27//53 24//47 26//51
f 26//52 24//48 27//54
f 28//55 27//53 26//51
f 26//52 27//54 28//56
