# SSTK version 0.8.0
# 354
mtllib original-354.mtl
o mesh349/mesh349-geometry#mesh349-geometry
v -0.009012 0.057156 0.754761
v -0.009012 0.048372 0.760912
v -0.005142 0.052216 0.766402
v -0.016751 0.057156 0.754761
v -0.005142 0.061000 0.760251
v -0.016751 0.048372 0.760912
v -0.009012 0.064844 0.765741
v -0.020620 0.061000 0.760251
v -0.009012 0.056060 0.771892
v -0.020620 0.052216 0.766402
v -0.016751 0.056060 0.771892
v -0.016751 0.064844 0.765741
vn -0.8660253648803788 0.2867881208317473 0.40957617256574125
vn 0.8660253648803788 -0.2867881208317473 -0.40957617256574125
vn 0 0.5735761643640089 0.8191522347362982
vn 0 -0.5735761643640089 -0.8191522347362982
vn 0.8660253648803788 0.2867881208317473 0.40957617256574125
vn -0.8660253648803788 -0.2867881208317473 -0.40957617256574125
usemtl material_0_0
f 1//1 2//1 3//1
f 3//2 2//2 1//2
f 4//3 2//3 1//3
f 1//4 2//4 4//4
f 1//1 3//1 5//1
f 5//2 3//2 1//2
f 4//3 6//3 2//3
f 2//4 6//4 4//4
f 5//5 7//5 3//5
f 3//6 7//6 5//6
f 4//5 8//5 6//5
f 6//6 8//6 4//6
f 7//5 9//5 3//5
f 3//6 9//6 7//6
f 8//5 10//5 6//5
f 6//6 10//6 8//6
f 7//4 9//4 11//4
f 11//3 9//3 7//3
f 8//2 12//2 10//2
f 10//1 12//1 8//1
f 7//4 11//4 12//4
f 12//3 11//3 7//3
f 12//2 11//2 10//2
f 10//1 11//1 12//1
