# SSTK version 0.8.0
# 456
mtllib original-456.mtl
o Group308/mesh451/mesh451-geometry#mesh451-geometry
v -0.020277 0.882412 0.109203
v -0.034666 0.875413 0.112925
v -0.029291 0.703465 -0.195258
v -0.041218 0.692057 -0.189192
v -0.017115 0.709387 -0.198407
v -0.048763 0.861931 0.120093
v -0.048469 0.674351 -0.179778
v -0.057332 0.841006 0.131219
v -0.045694 0.653445 -0.168662
v -0.054052 0.816298 0.144356
v -0.032102 0.636151 -0.159466
v -0.037989 0.795860 0.155224
v -0.013394 0.627116 -0.154662
v -0.015880 0.785182 0.160901
v 0.004098 0.625535 -0.153822
v 0.004793 0.783314 0.161894
v 0.018456 0.709215 0.001553
v 0.017863 0.669176 -0.077088
v 0.019444 0.748318 0.080660
v 0.017665 0.628211 -0.155245
v 0.020827 0.786476 0.160213
vn 0.4823899803906065 -0.7613399690511503 0.43319898239024496
vn 0.6580241614103854 -0.6526281600867705 0.37560709213474053
vn 0.5730040854303314 -0.7113981060637744 0.4069140606676355
vn -0.5730040854303314 0.7113981060637744 -0.4069140606676355
vn -0.6580241614103854 0.6526281600867705 -0.37560709213474053
vn -0.4823899803906065 0.7613399690511503 -0.43319898239024496
vn 0.8174101018014865 -0.49626406180547455 0.29251103642976545
vn -0.8174101018014865 0.49626406180547455 -0.29251103642976545
vn 0.8871658873401419 -0.39498594984132995 0.2385849697024544
vn -0.8871658873401419 0.39498594984132995 -0.2385849697024544
vn 0.9809909605460159 -0.15801999364467303 0.11263399547002971
vn -0.9809909605460159 0.15801999364467303 -0.11263399547002971
vn 0.999012022459289 -0.0204770004603537 0.03944200088671534
vn -0.999012022459289 0.0204770004603537 -0.03944200088671534
vn 0.9611583372565827 0.2545160893060209 -0.10675303745809943
vn -0.9611583372565827 -0.2545160893060209 0.10675303745809943
vn 0.9024098735741903 0.3916359451325912 -0.1796599748299985
vn -0.9024098735741903 -0.3916359451325912 0.1796599748299985
vn 0.7246522677485548 0.6198812290371682 -0.3010421112307154
vn -0.7246522677485548 -0.6198812290371682 0.3010421112307154
vn 0.6080200159930547 0.7124970187411657 -0.35022800921222236
vn -0.6080200159930547 -0.7124970187411657 0.35022800921222236
vn 0.3600681407056552 0.8352653264008718 -0.41555116238703704
vn -0.3600681407056552 -0.8352653264008718 0.41555116238703704
vn 0.2318341132462394 0.8704744252090159 -0.4341972120964887
vn -0.2318341132462394 -0.8704744252090159 0.4341972120964887
vn -0.13659702208371063 0.8840031429172417 -0.4470790722795028
vn 0.13659702208371063 -0.8840031429172417 0.4470790722795028
vn -0.19278102491222598 0.8807921138208089 -0.4324820558877133
vn 0.19278102491222598 -0.8807921138208089 0.4324820558877133
vn -0.3130140870467256 0.8499982363777425 -0.4237041178287418
vn 0.3130140870467256 -0.8499982363777425 0.4237041178287418
vn -0.25697700578082633 0.8591480193269646 -0.4425240099547988
vn 0.25697700578082633 -0.8591480193269646 0.4425240099547988
vn -0.2508269851787593 0.8717849484866648 -0.4208049751348449
vn 0.2508269851787593 -0.8717849484866648 0.4208049751348449
vn -0.21799203072009307 0.8646371218472657 -0.4526390637872591
vn 0.21799203072009307 -0.8646371218472657 0.4526390637872591
vn -0.21778604072196434 0.8814711648188159 -0.4190200783490098
vn 0.21778604072196434 -0.8814711648188159 0.4190200783490098
usemtl material_0_0
f 1//1 2//2 3//3
f 3//4 2//5 1//6
f 3//3 2//2 4//7
f 4//8 2//5 3//4
f 5//1 1//1 3//3
f 3//4 1//6 5//6
f 4//7 2//2 6//9
f 6//10 2//5 4//8
f 4//7 6//9 7//11
f 7//12 6//10 4//8
f 7//11 6//9 8//13
f 8//14 6//10 7//12
f 7//11 8//13 9//15
f 9//16 8//14 7//12
f 9//15 8//13 10//17
f 10//18 8//14 9//16
f 9//15 10//17 11//19
f 11//20 10//18 9//16
f 11//19 10//17 12//21
f 12//22 10//18 11//20
f 13//23 11//19 12//21
f 12//22 11//20 13//24
f 13//23 12//21 14//25
f 14//26 12//22 13//24
f 15//27 13//23 14//25
f 14//26 13//24 15//28
f 16//29 15//27 14//25
f 14//26 15//28 16//30
f 17//31 15//27 16//29
f 16//30 15//28 17//32
f 17//31 18//33 15//27
f 15//28 18//34 17//32
f 19//35 17//31 16//29
f 16//30 17//32 19//36
f 18//33 20//37 15//27
f 15//28 20//38 18//34
f 21//39 19//35 16//29
f 16//30 19//36 21//40
