# SSTK version 0.8.0
# 460
mtllib original-460.mtl
o mesh454/mesh454-geometry#mesh454-geometry
v -0.033753 0.622274 -0.210282
v -0.035605 0.630774 -0.219428
v -0.037515 0.631095 -0.217285
v -0.028660 0.620520 -0.213976
v -0.039426 0.631416 -0.215143
v -0.016364 0.612239 -0.209573
v -0.041336 0.631737 -0.213000
v -0.024245 0.614084 -0.205927
v -0.043246 0.632057 -0.210858
v -0.037028 0.622035 -0.205529
v -0.011344 0.608630 -0.203027
v -0.026604 0.613058 -0.200756
v -0.000410 0.608893 -0.207793
v 0.003158 0.607285 -0.202312
v -0.012463 0.607079 -0.197576
v 0.015218 0.611563 -0.209213
v 0.016809 0.610159 -0.203840
v 0.003436 0.605604 -0.196792
v 0.018401 0.608755 -0.198468
vn 0.569366947106667 0.6931579356066704 0.4419879589399836
vn 0.6014166065431605 0.6422715798151512 0.47516868913666754
vn 0.6231639582367993 0.6317739576597741 0.461007969104169
vn -0.6231639582367993 -0.6317739576597741 -0.461007969104169
vn -0.6014166065431605 -0.6422715798151512 -0.47516868913666754
vn -0.569366947106667 -0.6931579356066704 -0.4419879589399836
vn 0.5340530922168246 0.7566621306555096 0.37716006512555433
vn -0.5340530922168246 -0.7566621306555096 -0.37716006512555433
vn 0.34666893580021235 0.8672478393939537 0.3573539338214526
vn -0.34666893580021235 -0.8672478393939537 -0.3573539338214526
vn 0.4124640469547035 0.8314800946552835 0.37217504236822324
vn -0.4124640469547035 -0.8314800946552835 -0.37217504236822324
vn 0.54158609889336 0.7339261340145573 0.40992307485175555
vn -0.54158609889336 -0.7339261340145573 -0.40992307485175555
vn 0.20900302879623026 0.9302521281692165 0.30157704155098625
vn -0.20900302879623026 -0.9302521281692165 -0.30157704155098625
vn 0.3728731644783043 0.8628193805987723 0.3413331505656701
vn -0.3728731644783043 -0.8628193805987723 -0.3413331505656701
vn 0.03353898394378545 0.9439765480873833 0.32830384283015424
vn -0.03353898394378545 -0.9439765480873833 -0.32830384283015424
vn -0.056745975242701086 0.9539945837884718 0.29440487155618766
vn 0.056745975242701086 -0.9539945837884718 -0.29440487155618766
vn 0.15313807927922132 0.9417564875451054 0.2994051550013406
vn -0.15313807927922132 -0.9417564875451054 -0.2994051550013406
vn -0.14574501513102966 0.9345470970232828 0.3246230337018784
vn 0.14574501513102966 -0.9345470970232828 -0.3246230337018784
vn -0.16512706217026807 0.9411663543487285 0.2948541110124465
vn 0.16512706217026807 -0.9411663543487285 -0.2948541110124465
vn -0.04568599902766489 0.9550009796747142 0.2930629937627406
vn 0.04568599902766489 -0.9550009796747142 -0.2930629937627406
usemtl material_0_0
f 1//1 2//2 3//3
f 3//4 2//5 1//6
f 4//7 2//2 1//1
f 1//6 2//5 4//8
f 1//1 3//3 5//3
f 5//4 3//4 1//6
f 6//9 4//7 1//1
f 1//6 4//8 6//10
f 1//1 5//3 7//3
f 7//4 5//4 1//6
f 6//9 1//1 8//11
f 8//12 1//6 6//10
f 1//1 7//3 9//3
f 9//4 7//4 1//6
f 8//11 1//1 10//13
f 10//14 1//6 8//12
f 11//15 6//9 8//11
f 8//12 6//10 11//16
f 1//1 9//3 10//13
f 10//14 9//4 1//6
f 8//11 10//13 12//17
f 12//18 10//14 8//12
f 13//19 6//9 11//15
f 11//16 6//10 13//20
f 11//15 8//11 12//17
f 12//18 8//12 11//16
f 14//21 13//19 11//15
f 11//16 13//20 14//22
f 11//15 12//17 15//23
f 15//24 12//18 11//16
f 16//25 13//19 14//21
f 14//22 13//20 16//26
f 14//21 11//15 15//23
f 15//24 11//16 14//22
f 17//27 16//25 14//21
f 14//22 16//26 17//28
f 18//29 14//21 15//23
f 15//24 14//22 18//30
f 19//27 17//27 14//21
f 14//22 17//28 19//28
f 19//27 14//21 18//29
f 18//30 14//22 19//28
