# SSTK version 0.8.0
# 258
mtllib original-258.mtl
o Group217/mesh255/mesh255-geometry#mesh255-geometry
v -0.101878 0.450719 -0.451179
v -0.111354 0.426445 -0.445427
v -0.116704 0.469931 -0.411788
v -0.127556 0.447439 -0.402382
v -0.117343 0.401601 -0.437157
v -0.108199 0.496885 -0.356524
v -0.134414 0.423721 -0.391803
v -0.118262 0.476894 -0.341991
v -0.119611 0.377158 -0.426692
v -0.058703 0.521354 -0.306355
v -0.137010 0.399705 -0.380463
v -0.124622 0.454756 -0.328171
v -0.064174 0.503633 -0.287169
v 0.014384 0.527910 -0.292913
v -0.127029 0.431338 -0.315606
v -0.067632 0.482930 -0.270408
v 0.015693 0.510797 -0.272479
v 0.071886 0.517662 -0.313925
v -0.068941 0.460055 -0.256729
v 0.016520 0.490479 -0.254930
v 0.078529 0.499598 -0.295441
v 0.102428 0.502427 -0.345161
v 0.016834 0.467749 -0.240953
v 0.082728 0.478679 -0.279124
v 0.111904 0.482950 -0.329574
v 0.084317 0.455722 -0.265612
v 0.117893 0.461138 -0.315088
v 0.120161 0.437843 -0.302270
vn -0.8667717528686734 0.23403293327324176 -0.44038087443994406
vn -0.8858564215911305 0.18697908898589397 -0.42461420207967915
vn -0.8986490650505123 0.29956802168483126 -0.320451023196489
vn 0.8986490650505123 -0.29956802168483126 0.320451023196489
vn 0.8858564215911305 -0.18697908898589397 0.42461420207967915
vn 0.8667717528686734 -0.23403293327324176 0.44038087443994406
vn -0.937984671017411 0.2610209084512393 -0.22815091997984327
vn 0.937984671017411 -0.2610209084512393 0.22815091997984327
vn -0.9279030298014621 0.04319400138726185 -0.3703110118932789
vn 0.9279030298014621 -0.04319400138726185 0.3703110118932789
vn -0.8628701181627364 0.4978240681727793 0.08732901195896682
vn 0.8628701181627364 -0.4978240681727793 -0.08732901195896682
vn -0.9795333919809356 0.11900004762037764 -0.16233706496259862
vn 0.9795333919809356 -0.11900004762037764 0.16233706496259862
vn -0.8569126247143413 0.4726927929837638 0.20557790996696856
vn 0.8569126247143413 -0.4726927929837638 -0.20557790996696856
vn -0.9428711130323387 -0.053346006395172896 -0.3288590394239529
vn 0.9428711130323387 0.053346006395172896 0.3288590394239529
vn -0.5410230473195008 0.6890680602679622 0.48216104217125316
vn 0.5410230473195008 -0.6890680602679622 -0.48216104217125316
vn -0.9951124129672592 0.08070803349347769 -0.05689902361284364
vn 0.9951124129672592 -0.08070803349347769 0.05689902361284364
vn -0.8943507779340709 0.34003591556960266 0.29070992781717003
vn 0.8943507779340709 -0.34003591556960266 -0.29070992781717003
vn -0.4734818775897991 0.6582338298255135 0.5852718486885181
vn 0.4734818775897991 -0.6582338298255135 -0.5852718486885181
vn -0.008019996890804196 0.7663747028915293 0.6423437509759018
vn 0.008019996890804196 -0.7663747028915293 -0.6423437509759018
vn -0.8576797006368161 0.30878589222185404 0.41114085649603727
vn 0.8576797006368161 -0.30878589222185404 -0.41114085649603727
vn -0.49323083367987813 0.5336408200534107 0.6869867683443225
vn 0.49323083367987813 -0.5336408200534107 -0.6869867683443225
vn 0.08391897770449287 0.7125488106907695 0.6965858149318019
vn -0.08391897770449287 -0.7125488106907695 -0.6965858149318019
vn 0.46878401527110836 0.7100560231307853 0.5254160171159526
vn -0.46878401527110836 -0.7100560231307853 -0.5254160171159526
vn -0.3993931661719547 0.4872502027258486 0.7765773231036049
vn 0.3993931661719547 -0.4872502027258486 -0.7765773231036049
vn 0.08911901405144061 0.5900770930377573 0.802413126516889
vn -0.08911901405144061 -0.5900770930377573 -0.802413126516889
vn 0.5440961342195554 0.6382691574504891 0.544584134339937
vn -0.5440961342195554 -0.6382691574504891 -0.544584134339937
vn 0.6873201995342378 0.6273641821285536 0.36606710627204203
vn -0.6873201995342378 -0.6273641821285536 -0.36606710627204203
vn 0.19060792218242556 0.5161337892832619 0.835029659090861
vn -0.19060792218242556 -0.5161337892832619 -0.835029659090861
vn 0.5691439041445071 0.5123039137175258 0.6431328916832459
vn -0.5691439041445071 -0.5123039137175258 -0.6431328916832459
vn 0.7156366159111328 0.5487947054567471 0.43207476810142964
vn -0.7156366159111328 -0.5487947054567471 -0.43207476810142964
vn 0.6384410279582909 0.4227440185125949 0.6431800281658189
vn -0.6384410279582909 -0.4227440185125949 -0.6431800281658189
vn 0.7427851555388564 0.41992008793106556 0.5214761091968481
vn -0.7427851555388564 -0.41992008793106556 -0.5214761091968481
vn 0.7476648242191606 0.3745179119484147 0.5483918710695217
vn -0.7476648242191606 -0.3745179119484147 -0.5483918710695217
usemtl material_0_0
f 1//1 2//2 3//3
f 3//4 2//5 1//6
f 2//2 4//7 3//3
f 3//4 4//8 2//5
f 2//2 5//9 4//7
f 4//8 5//10 2//5
f 3//3 4//7 6//11
f 6//12 4//8 3//4
f 5//9 7//13 4//7
f 4//8 7//14 5//10
f 4//7 8//15 6//11
f 6//12 8//16 4//8
f 5//9 9//17 7//13
f 7//14 9//18 5//10
f 4//7 7//13 8//15
f 8//16 7//14 4//8
f 6//11 8//15 10//19
f 10//20 8//16 6//12
f 9//17 11//21 7//13
f 7//14 11//22 9//18
f 7//13 12//23 8//15
f 8//16 12//24 7//14
f 8//15 13//25 10//19
f 10//20 13//26 8//16
f 7//13 11//21 12//23
f 12//24 11//22 7//14
f 8//15 12//23 13//25
f 13//26 12//24 8//16
f 14//27 10//19 13//25
f 13//26 10//20 14//28
f 11//21 15//29 12//23
f 12//24 15//30 11//22
f 12//23 16//31 13//25
f 13//26 16//32 12//24
f 17//33 14//27 13//25
f 13//26 14//28 17//34
f 12//23 15//29 16//31
f 16//32 15//30 12//24
f 17//33 13//25 16//31
f 16//32 13//26 17//34
f 18//35 14//27 17//33
f 17//34 14//28 18//36
f 15//29 19//37 16//31
f 16//32 19//38 15//30
f 17//33 16//31 20//39
f 20//40 16//32 17//34
f 21//41 18//35 17//33
f 17//34 18//36 21//42
f 20//39 16//31 19//37
f 19//38 16//32 20//40
f 17//33 20//39 21//41
f 21//42 20//40 17//34
f 22//43 18//35 21//41
f 21//42 18//36 22//44
f 20//39 19//37 23//45
f 23//46 19//38 20//40
f 21//41 20//39 24//47
f 24//48 20//40 21//42
f 22//43 21//41 25//49
f 25//50 21//42 22//44
f 20//39 23//45 24//47
f 24//48 23//46 20//40
f 25//49 21//41 24//47
f 24//48 21//42 25//50
f 24//47 23//45 26//51
f 26//52 23//46 24//48
f 25//49 24//47 27//53
f 27//54 24//48 25//50
f 27//53 24//47 26//51
f 26//52 24//48 27//54
f 27//53 26//51 28//55
f 28//56 26//52 27//54
