# SSTK version 0.8.0
# 226
mtllib original-226.mtl
o mesh223/mesh223-geometry#mesh223-geometry
v 0.199549 -0.706998 -0.115605
v 0.195611 -0.706998 -0.076178
v 0.174483 -0.706998 -0.111637
v 0.184238 -0.706998 -0.039002
v 0.195611 -0.706998 -0.155027
v 0.174483 -0.706998 -0.020652
v 0.184239 -0.706998 -0.192206
v 0.170979 -0.706998 -0.080615
v 0.174483 -0.706998 -0.210558
v 0.164769 -0.706998 -0.070355
v 0.172047 -0.706998 -0.144909
v 0.153471 -0.706998 -0.066332
v 0.162695 -0.706998 -0.178726
v 0.135278 -0.706998 -0.066332
v 0.146132 -0.706998 -0.210947
v 0.166676 -0.706998 -0.005964
v 0.166678 -0.706998 -0.225243
v 0.117085 -0.706998 -0.066332
v 0.144655 -0.706998 -0.252954
v 0.144652 -0.706998 0.021747
v 0.122962 -0.706998 -0.239348
v 0.086266 -0.706998 0.025410
v 0.119840 -0.706998 -0.275025
v 0.119840 -0.706998 0.043814
v 0.098893 -0.706998 -0.066332
v 0.094720 -0.706998 -0.262044
v 0.094157 -0.706998 0.060169
v 0.086266 -0.706998 -0.066332
v 0.094161 -0.706998 -0.291377
v 0.086266 -0.706998 0.063704
v 0.085860 -0.706998 0.011318
v 0.086266 -0.706998 -0.266360
v 0.080152 -0.706998 0.037027
v 0.079086 -0.706998 0.000074
v 0.086266 -0.706998 -0.294914
v 0.071105 -0.706998 0.043603
v 0.069680 -0.706998 -0.005969
v 0.063470 -0.706998 -0.277996
v 0.068929 -0.706998 0.071471
v 0.080700 -0.706998 -0.066332
v 0.068933 -0.706998 -0.302680
v 0.049562 -0.706998 0.050598
v 0.070974 -0.706998 -0.064776
v 0.049562 -0.706998 -0.281924
v 0.049562 -0.706998 0.077200
v 0.061129 -0.706998 -0.010863
v 0.049562 -0.706998 -0.308410
v 0.036480 -0.706998 0.054846
v 0.060487 -0.706998 -0.058895
v 0.031366 -0.706998 -0.287063
v 0.044444 -0.706998 0.078713
v 0.053397 -0.706998 -0.020072
v 0.044449 -0.706998 -0.309923
v 0.021456 -0.706998 0.082541
v 0.049562 -0.706998 -0.033391
v 0.021458 -0.706998 -0.313751
v 0.000275 -0.706998 0.058648
v 0.052191 -0.706998 -0.047789
v 0.000275 -0.706998 -0.289859
v 0.000275 -0.706998 0.083669
v 0.000275 -0.706998 -0.314880
v -0.020908 -0.706998 0.082541
v -0.020906 -0.706998 -0.313751
v -0.019218 -0.706998 0.057555
v -0.019219 -0.706998 -0.288765
v -0.043899 -0.706998 0.078712
v -0.043894 -0.706998 -0.309924
v -0.040499 -0.706998 0.053811
v -0.040503 -0.706998 -0.285021
v -0.068383 -0.706998 0.071469
v -0.068379 -0.706998 -0.302681
v -0.063249 -0.706998 0.046658
v -0.063253 -0.706998 -0.277867
v -0.093611 -0.706998 0.060167
v -0.093607 -0.706998 -0.291379
v -0.086850 -0.706998 0.035305
v -0.086854 -0.706998 -0.266513
v -0.119290 -0.706998 0.043814
v -0.119290 -0.706998 -0.275025
v -0.110192 -0.706998 0.019159
v -0.110195 -0.706998 -0.250367
v -0.144105 -0.706998 0.021744
v -0.144102 -0.706998 -0.252957
v -0.132351 -0.706998 -0.002580
v -0.132352 -0.706998 -0.228628
v -0.166128 -0.706998 -0.005967
v -0.166126 -0.706998 -0.225246
v -0.151431 -0.706998 -0.029876
v -0.151433 -0.706998 -0.201331
v -0.173017 -0.706998 -0.018928
v -0.173017 -0.706998 -0.212283
v -0.165517 -0.706998 -0.061962
v -0.165518 -0.706998 -0.169243
v -0.173017 -0.706998 -0.097321
v -0.173017 -0.706998 -0.133886
v -0.183688 -0.706998 -0.192208
v -0.183689 -0.706998 -0.039005
v -0.195061 -0.706998 -0.155032
v -0.195061 -0.706998 -0.076183
v -0.198999 -0.706998 -0.115605
vn 0 -1 0
vn 0 1 0
usemtl material_0_0
f 1//1 2//1 3//1
f 3//2 2//2 1//2
f 2//1 4//1 3//1
f 3//2 4//2 2//2
f 1//1 3//1 5//1
f 5//2 3//2 1//2
f 4//1 6//1 3//1
f 3//2 6//2 4//2
f 5//1 3//1 7//1
f 7//2 3//2 5//2
f 6//1 8//1 3//1
f 3//2 8//2 6//2
f 7//1 3//1 9//1
f 9//2 3//2 7//2
f 6//1 10//1 8//1
f 8//2 10//2 6//2
f 3//1 11//1 9//1
f 9//2 11//2 3//2
f 6//1 12//1 10//1
f 10//2 12//2 6//2
f 9//1 11//1 13//1
f 13//2 11//2 9//2
f 6//1 14//1 12//1
f 12//2 14//2 6//2
f 9//1 13//1 15//1
f 15//2 13//2 9//2
f 6//1 16//1 14//1
f 14//2 16//2 6//2
f 9//1 15//1 17//1
f 17//2 15//2 9//2
f 16//1 18//1 14//1
f 14//2 18//2 16//2
f 17//1 15//1 19//1
f 19//2 15//2 17//2
f 16//1 20//1 18//1
f 18//2 20//2 16//2
f 15//1 21//1 19//1
f 19//2 21//2 15//2
f 20//1 22//1 18//1
f 18//2 22//2 20//2
f 19//1 21//1 23//1
f 23//2 21//2 19//2
f 20//1 24//1 22//1
f 22//2 24//2 20//2
f 18//1 22//1 25//1
f 25//2 22//2 18//2
f 21//1 26//1 23//1
f 23//2 26//2 21//2
f 24//1 27//1 22//1
f 22//2 27//2 24//2
f 25//1 22//1 28//1
f 28//2 22//2 25//2
f 23//1 26//1 29//1
f 29//2 26//2 23//2
f 27//1 30//1 22//1
f 22//2 30//2 27//2
f 22//1 31//1 28//1
f 28//2 31//2 22//2
f 26//1 32//1 29//1
f 29//2 32//2 26//2
f 30//1 33//1 22//1
f 22//2 33//2 30//2
f 28//1 31//1 34//1
f 34//2 31//2 28//2
f 29//1 32//1 35//1
f 35//2 32//2 29//2
f 30//1 36//1 33//1
f 33//2 36//2 30//2
f 28//1 34//1 37//1
f 37//2 34//2 28//2
f 32//1 38//1 35//1
f 35//2 38//2 32//2
f 30//1 39//1 36//1
f 36//2 39//2 30//2
f 28//1 37//1 40//1
f 40//2 37//2 28//2
f 35//1 38//1 41//1
f 41//2 38//2 35//2
f 36//1 39//1 42//1
f 42//2 39//2 36//2
f 40//1 37//1 43//1
f 43//2 37//2 40//2
f 41//1 38//1 44//1
f 44//2 38//2 41//2
f 39//1 45//1 42//1
f 42//2 45//2 39//2
f 43//1 37//1 46//1
f 46//2 37//2 43//2
f 41//1 44//1 47//1
f 47//2 44//2 41//2
f 45//1 48//1 42//1
f 42//2 48//2 45//2
f 43//1 46//1 49//1
f 49//2 46//2 43//2
f 44//1 50//1 47//1
f 47//2 50//2 44//2
f 45//1 51//1 48//1
f 48//2 51//2 45//2
f 46//1 52//1 49//1
f 49//2 52//2 46//2
f 47//1 50//1 53//1
f 53//2 50//2 47//2
f 51//1 54//1 48//1
f 48//2 54//2 51//2
f 49//1 52//1 55//1
f 55//2 52//2 49//2
f 53//1 50//1 56//1
f 56//2 50//2 53//2
f 48//1 54//1 57//1
f 57//2 54//2 48//2
f 49//1 55//1 58//1
f 58//2 55//2 49//2
f 50//1 59//1 56//1
f 56//2 59//2 50//2
f 54//1 60//1 57//1
f 57//2 60//2 54//2
f 56//1 59//1 61//1
f 61//2 59//2 56//2
f 60//1 62//1 57//1
f 57//2 62//2 60//2
f 59//1 63//1 61//1
f 61//2 63//2 59//2
f 57//1 62//1 64//1
f 64//2 62//2 57//2
f 59//1 65//1 63//1
f 63//2 65//2 59//2
f 64//1 62//1 66//1
f 66//2 62//2 64//2
f 65//1 67//1 63//1
f 63//2 67//2 65//2
f 64//1 66//1 68//1
f 68//2 66//2 64//2
f 65//1 69//1 67//1
f 67//2 69//2 65//2
f 68//1 66//1 70//1
f 70//2 66//2 68//2
f 69//1 71//1 67//1
f 67//2 71//2 69//2
f 68//1 70//1 72//1
f 72//2 70//2 68//2
f 69//1 73//1 71//1
f 71//2 73//2 69//2
f 72//1 70//1 74//1
f 74//2 70//2 72//2
f 73//1 75//1 71//1
f 71//2 75//2 73//2
f 72//1 74//1 76//1
f 76//2 74//2 72//2
f 73//1 77//1 75//1
f 75//2 77//2 73//2
f 76//1 74//1 78//1
f 78//2 74//2 76//2
f 77//1 79//1 75//1
f 75//2 79//2 77//2
f 76//1 78//1 80//1
f 80//2 78//2 76//2
f 77//1 81//1 79//1
f 79//2 81//2 77//2
f 80//1 78//1 82//1
f 82//2 78//2 80//2
f 81//1 83//1 79//1
f 79//2 83//2 81//2
f 80//1 82//1 84//1
f 84//2 82//2 80//2
f 81//1 85//1 83//1
f 83//2 85//2 81//2
f 84//1 82//1 86//1
f 86//2 82//2 84//2
f 85//1 87//1 83//1
f 83//2 87//2 85//2
f 84//1 86//1 88//1
f 88//2 86//2 84//2
f 85//1 89//1 87//1
f 87//2 89//2 85//2
f 88//1 86//1 90//1
f 90//2 86//2 88//2
f 89//1 91//1 87//1
f 87//2 91//2 89//2
f 88//1 90//1 92//1
f 92//2 90//2 88//2
f 89//1 93//1 91//1
f 91//2 93//2 89//2
f 92//1 90//1 94//1
f 94//2 90//2 92//2
f 93//1 95//1 91//1
f 91//2 95//2 93//2
f 94//1 90//1 95//1
f 95//2 90//2 94//2
f 95//1 96//1 91//1
f 91//2 96//2 95//2
f 90//1 97//1 95//1
f 95//2 97//2 90//2
f 95//1 98//1 96//1
f 96//2 98//2 95//2
f 95//1 97//1 99//1
f 99//2 97//2 95//2
f 95//1 100//1 98//1
f 98//2 100//2 95//2
f 95//1 99//1 100//1
f 100//2 99//2 95//2
