# SSTK version 0.8.0
# 186
mtllib original-186.mtl
o Group180/mesh184/mesh184-geometry#mesh184-geometry
v -0.160527 -0.564021 -0.287001
v -0.117234 -0.589158 -0.319137
v -0.117234 -0.564021 -0.319137
v -0.174094 -0.589158 -0.273178
v -0.093830 -0.564021 -0.330961
v -0.213697 -0.564021 -0.212815
v -0.049003 -0.589158 -0.345400
v -0.217957 -0.589158 -0.202833
v -0.008764 -0.564021 -0.350450
v -0.234744 -0.576590 -0.115605
v 0.033849 -0.589158 -0.348213
v -0.234744 -0.570306 -0.115605
v -0.234744 -0.582874 -0.115605
v 0.087342 -0.564021 -0.333901
v -0.234744 -0.564021 -0.115605
v -0.234744 -0.589158 -0.115605
v 0.117784 -0.589158 -0.319137
v 0.170544 -0.564021 -0.277600
v 0.184933 -0.589158 -0.260985
v 0.220673 -0.564021 -0.197206
v 0.223922 -0.589158 -0.187826
v 0.235294 -0.576590 -0.115605
v 0.235294 -0.582874 -0.115605
v 0.235294 -0.570306 -0.115605
v 0.235294 -0.589158 -0.115605
v 0.235294 -0.564021 -0.115605
vn 0.6853421404190803 -0.009957002040080563 0.7281531491905859
vn 0.5122839946266532 0.04843899949192316 0.8574489910062176
vn 0.5253890671539214 0 0.8508621087550746
vn -0.5253890671539214 0 -0.8508621087550746
vn -0.5122839946266532 -0.04843899949192316 -0.8574489910062176
vn -0.6853421404190803 0.009957002040080563 -0.7281531491905859
vn 0.7712949356207858 0.01240799896431664 0.6363569468839243
vn -0.7712949356207858 -0.01240799896431664 -0.6363569468839243
vn 0.3466260331449028 -0.018745001792425487 0.9378160896753855
vn -0.3466260331449028 0.018745001792425487 -0.9378160896753855
vn 0.935245572399743 -0.027995987200055687 0.3528908386560517
vn -0.935245572399743 0.027995987200055687 -0.3528908386560517
vn 0.20758498423205274 0.03032199769677124 0.9777469257313239
vn -0.20758498423205274 -0.03032199769677124 -0.9777469257313239
vn 0.959873756948477 -0.004997998734446967 0.2803879290024207
vn -0.959873756948477 0.004997998734446967 -0.2803879290024207
vn 0.02994901552600793 -0.07201903733572312 0.9969535168352928
vn -0.02994901552600793 0.07201903733572312 -0.9969535168352928
vn 0.9792877482525723 -0.02865199263437594 0.20043594847353646
vn -0.9792877482525723 0.02865199263437594 -0.20043594847353646
vn -0.15587004924839684 0.03602801138334 0.9871203118886089
vn 0.15587004924839684 -0.03602801138334 -0.9871203118886089
vn 0.9773555095865848 0 0.21160389382227118
vn -0.9773555095865848 0 -0.21160389382227118
vn 0.9819805675923172 0 0.18898191678324866
vn -0.9819805675923172 0 -0.18898191678324866
vn -0.3568609184053662 -0.07834098208768923 0.9308667871615224
vn 0.3568609184053662 0.07834098208768923 -0.9308667871615224
vn -0.5205731887312409 0.03135001136579175 0.8532413093384267
vn 0.5205731887312409 -0.03135001136579175 -0.8532413093384267
vn -0.6973972377295082 -0.0682230232559365 0.7134302431948562
vn 0.6973972377295082 0.0682230232559365 -0.7134302431948562
vn -0.8054938503501308 0.017150996813576496 0.5923558899482827
vn 0.8054938503501308 -0.017150996813576496 -0.5923558899482827
vn -0.9510385534408797 -0.028199016409943062 0.30778317910924086
vn 0.9510385534408797 0.028199016409943062 -0.30778317910924086
vn -0.9709293949265827 -0.0009690003941420127 0.23936409736160577
vn 0.9709293949265827 0.0009690003941420127 -0.23936409736160577
vn -0.9858623392998632 -0.021724007476655215 0.16614305718071817
vn 0.9858623392998632 0.021724007476655215 -0.16614305718071817
vn -0.9878291194828784 0 0.15554301881370697
vn 0.9878291194828784 0 -0.15554301881370697
vn -0.9843241175593128 0 0.17636902106401797
vn 0.9843241175593128 0 -0.17636902106401797
usemtl material_0_0
f 1//1 2//2 3//3
f 3//4 2//5 1//6
f 1//1 4//7 2//2
f 2//5 4//8 1//6
f 3//3 2//2 5//9
f 5//10 2//5 3//4
f 1//1 6//11 4//7
f 4//8 6//12 1//6
f 5//9 2//2 7//13
f 7//14 2//5 5//10
f 4//7 6//11 8//15
f 8//16 6//12 4//8
f 5//9 7//13 9//17
f 9//18 7//14 5//10
f 6//11 10//19 8//15
f 8//16 10//20 6//12
f 9//17 7//13 11//21
f 11//22 7//14 9//18
f 6//11 12//23 10//19
f 10//20 12//24 6//12
f 8//15 10//19 13//25
f 13//26 10//20 8//16
f 9//17 11//21 14//27
f 14//28 11//22 9//18
f 6//11 15//23 12//23
f 12//24 15//24 6//12
f 8//15 13//25 16//25
f 16//26 13//26 8//16
f 14//27 11//21 17//29
f 17//30 11//22 14//28
f 14//27 17//29 18//31
f 18//32 17//30 14//28
f 18//31 17//29 19//33
f 19//34 17//30 18//32
f 18//31 19//33 20//35
f 20//36 19//34 18//32
f 19//33 21//37 20//35
f 20//36 21//38 19//34
f 20//35 21//37 22//39
f 22//40 21//38 20//36
f 21//37 23//41 22//39
f 22//40 23//42 21//38
f 20//35 22//39 24//43
f 24//44 22//40 20//36
f 21//37 25//41 23//41
f 23//42 25//42 21//38
f 20//35 24//43 26//43
f 26//44 24//44 20//36
