# SSTK version 0.8.0
# 168
mtllib original-168.mtl
o Group168/mesh168/mesh168-geometry#mesh168-geometry
v 0.187943 -0.742743 -0.223955
v 0.216814 -0.742743 -0.123940
v 0.212158 -0.721296 -0.161042
v 0.214752 -0.721296 -0.084648
v 0.187943 -0.721296 -0.223955
v 0.201556 -0.742743 -0.035325
v 0.158311 -0.742743 -0.263873
v 0.187943 -0.721296 -0.007255
v 0.145566 -0.721296 -0.276382
v 0.149643 -0.742743 0.041392
v 0.089907 -0.742743 -0.312899
v 0.134323 -0.721296 0.054659
v 0.080704 -0.721296 -0.316826
v 0.075515 -0.742743 0.087613
v 0.000275 -0.732019 -0.332305
v 0.066867 -0.721296 0.090609
v 0.000275 -0.726658 -0.332305
v 0.000275 -0.737381 -0.332305
v 0.000275 -0.732019 0.101095
v 0.000275 -0.721296 -0.332305
v 0.000275 -0.742743 -0.332305
v 0.000275 -0.737381 0.101095
v 0.000275 -0.726658 0.101095
v 0.000275 -0.742743 0.101095
v 0.000275 -0.721296 0.101095
vn -0.9051821843611898 0.08895301811732981 0.41561108464876506
vn -0.992915793800702 0.1092589773101359 0.04669799030220604
vn -0.9735135187650485 0.036033019201244305 0.22577212030925375
vn 0.9735135187650485 -0.036033019201244305 -0.22577212030925375
vn 0.992915793800702 -0.1092589773101359 -0.04669799030220604
vn 0.9051821843611898 -0.08895301811732981 -0.41561108464876506
vn -0.9870120990363055 -0.039044003917655994 -0.1558290156358063
vn 0.9870120990363055 0.039044003917655994 0.1558290156358063
vn -0.8457380329144333 -0.03203200124662156 0.532636020729129
vn 0.8457380329144333 0.03203200124662156 -0.532636020729129
vn -0.9303929533566112 0.08453099576220777 -0.35668398211836233
vn 0.9303929533566112 -0.08453099576220777 0.35668398211836233
vn -0.7281871822193987 0.010739002687295999 0.685294171485979
vn 0.7281871822193987 -0.010739002687295999 -0.685294171485979
vn -0.853153398203896 -0.033980015859955116 -0.5205522429644325
vn 0.853153398203896 0.033980015859955116 0.5205522429644325
vn -0.6363474256036185 -0.013439008988314767 0.7712855158532795
vn 0.6363474256036185 0.013439008988314767 -0.7712855158532795
vn -0.7130981347366963 0.07361901390998285 -0.6971881317305725
vn 0.7130981347366963 -0.07361901390998285 0.6971881317305725
vn -0.3528160767669652 0.030231006577768726 0.9352042034850259
vn 0.3528160767669652 -0.030231006577768726 -0.9352042034850259
vn -0.592307876514482 -0.01856399612974118 -0.8054978320682185
vn 0.592307876514482 0.01856399612974118 0.8054978320682185
vn -0.2803760248096344 0.0053950004773872145 0.9598750849364704
vn 0.2803760248096344 -0.0053950004773872145 -0.9598750849364704
vn -0.307691981639097 0.030440998183494584 -0.950998943251042
vn 0.307691981639097 -0.030440998183494584 0.950998943251042
vn -0.20042289495137347 0.030949983778034283 0.9792204867564046
vn 0.20042289495137347 -0.030949983778034283 -0.9792204867564046
vn -0.23935112613400777 0.0010470005517518527 -0.9709325116650628
vn 0.23935112613400777 -0.0010470005517518527 0.9709325116650628
vn -0.18898191678324866 0 0.9819805675923172
vn 0.18898191678324866 0 -0.9819805675923172
vn -0.21160389382227118 0 0.9773555095865848
vn 0.21160389382227118 0 -0.9773555095865848
vn -0.16613705167369833 0.02347100730020049 -0.9858233066211638
vn 0.16613705167369833 -0.02347100730020049 0.9858233066211638
vn -0.17636902106401797 0 -0.9843241175593128
vn 0.17636902106401797 0 0.9843241175593128
vn -0.15554301881370697 0 -0.9878291194828784
vn 0.15554301881370697 0 0.9878291194828784
usemtl material_0_0
f 1//1 2//2 3//3
f 3//4 2//5 1//6
f 3//3 2//2 4//7
f 4//8 2//5 3//4
f 1//1 3//3 5//9
f 5//10 3//4 1//6
f 2//2 6//11 4//7
f 4//8 6//12 2//5
f 7//13 1//1 5//9
f 5//10 1//6 7//14
f 4//7 6//11 8//15
f 8//16 6//12 4//8
f 9//17 7//13 5//9
f 5//10 7//14 9//18
f 6//11 10//19 8//15
f 8//16 10//20 6//12
f 9//17 11//21 7//13
f 7//14 11//22 9//18
f 8//15 10//19 12//23
f 12//24 10//20 8//16
f 13//25 11//21 9//17
f 9//18 11//22 13//26
f 12//23 10//19 14//27
f 14//28 10//20 12//24
f 13//25 15//29 11//21
f 11//22 15//30 13//26
f 12//23 14//27 16//31
f 16//32 14//28 12//24
f 13//25 17//33 15//29
f 15//30 17//34 13//26
f 15//29 18//35 11//21
f 11//22 18//36 15//30
f 16//31 14//27 19//37
f 19//38 14//28 16//32
f 20//33 17//33 13//25
f 13//26 17//34 20//34
f 18//35 21//35 11//21
f 11//22 21//36 18//36
f 19//37 14//27 22//39
f 22//40 14//28 19//38
f 16//31 19//37 23//41
f 23//42 19//38 16//32
f 22//39 14//27 24//39
f 24//40 14//28 22//40
f 16//31 23//41 25//41
f 25//42 23//42 16//32
