# SSTK version 0.8.0
# 76
mtllib original-76.mtl
o Group76/mesh76/mesh76-geometry#mesh76-geometry
v 0.071105 -0.706998 0.043603
v 0.069329 -0.708140 0.039611
v 0.048312 -0.706998 0.051896
v 0.047108 -0.708140 0.047695
v 0.067937 -0.711564 0.036482
v 0.024471 -0.706998 0.056960
v 0.046164 -0.711564 0.044404
v 0.023864 -0.708140 0.052633
v 0.067473 -0.715934 0.035439
v 0.000275 -0.706998 0.058648
v 0.045849 -0.715934 0.043306
v 0.023389 -0.711564 0.049241
v 0.000275 -0.708140 0.054278
v 0.023230 -0.715934 0.048111
v 0.000275 -0.711564 0.050854
v 0.000275 -0.715934 0.049712
vn -0.08660499334332396 0.9673879256441484 -0.23803398170411355
vn -0.14285494799866558 0.9085306692812688 -0.39263785707395626
vn -0.07528996926513502 0.9675216050384111 -0.24131590149004262
vn 0.07528996926513502 -0.9675216050384111 0.24131590149004262
vn 0.14285494799866558 -0.9085306692812688 0.39263785707395626
vn 0.08660499334332396 -0.9673879256441484 0.23803398170411355
vn -0.1422350394690199 0.8676562407672652 -0.47638413219256553
vn 0.1422350394690199 -0.8676562407672652 0.47638413219256553
vn -0.2803149466070156 0.5725648909407131 -0.7704498532485781
vn 0.2803149466070156 -0.5725648909407131 0.7704498532485781
vn -0.04096900718789004 0.9675211697487016 -0.24944804376491456
vn 0.04096900718789004 -0.9675211697487016 0.24944804376491456
vn -0.24202497608623932 0.49738995085439364 -0.8330829176855801
vn 0.24202497608623932 -0.49738995085439364 0.8330829176855801
vn -0.07454196592627882 0.8676556033877731 -0.4915457753105449
vn 0.07454196592627882 -0.8676556033877731 0.4915457753105449
vn -0.3308581453913428 0.25215111080455227 -0.9093693996106486
vn 0.3308581453913428 -0.25215111080455227 0.9093693996106486
vn -0.01762899970550756 0.9673879838397841 -0.25268499577889697
vn 0.01762899970550756 -0.9673879838397841 0.25268499577889697
vn -0.24482293271165034 0.25265993055769115 -0.9360687427262218
vn 0.24482293271165034 -0.25265993055769115 0.9360687427262218
vn -0.12370995769726348 0.49739082991673755 -0.8586607063801629
vn 0.12370995769726348 -0.49739082991673755 0.8586607063801629
vn -0.03996398619921905 0.8186967172791023 -0.5728338021830506
vn 0.03996398619921905 -0.8186967172791023 0.5728338021830506
vn -0.11214596325016636 0.25266091720391554 -0.9610336850726764
vn 0.11214596325016636 -0.25266091720391554 0.9610336850726764
vn -0.06327599817461403 0.41637598798838593 -0.9069879738352112
vn 0.06327599817461403 -0.41637598798838593 0.9069879738352112
vn -0.06734696894719529 0.2521508837365325 -0.9653415548936609
vn 0.06734696894719529 -0.2521508837365325 0.9653415548936609
usemtl material_0_0
f 1//1 2//2 3//3
f 3//4 2//5 1//6
f 2//2 4//7 3//3
f 3//4 4//8 2//5
f 2//2 5//9 4//7
f 4//8 5//10 2//5
f 3//3 4//7 6//11
f 6//12 4//8 3//4
f 5//9 7//13 4//7
f 4//8 7//14 5//10
f 4//7 8//15 6//11
f 6//12 8//16 4//8
f 5//9 9//17 7//13
f 7//14 9//18 5//10
f 4//7 7//13 8//15
f 8//16 7//14 4//8
f 6//11 8//15 10//19
f 10//20 8//16 6//12
f 7//13 9//17 11//21
f 11//22 9//18 7//14
f 7//13 12//23 8//15
f 8//16 12//24 7//14
f 8//15 13//25 10//19
f 10//20 13//26 8//16
f 7//13 11//21 12//23
f 12//24 11//22 7//14
f 8//15 12//23 13//25
f 13//26 12//24 8//16
f 12//23 11//21 14//27
f 14//28 11//22 12//24
f 13//25 12//23 15//29
f 15//30 12//24 13//26
f 12//23 14//27 15//29
f 15//30 14//28 12//24
f 15//29 14//27 16//31
f 16//32 14//28 15//30
