# SSTK version 0.8.0
# 465
mtllib original-465.mtl
o mesh458/mesh458-geometry#mesh458-geometry
v 0.145190 0.628372 -0.472207
v 0.142406 0.640765 -0.446797
v 0.134159 0.604061 -0.522051
v 0.134159 0.652682 -0.422363
v 0.142406 0.615978 -0.497618
v 0.120768 0.663665 -0.399845
v 0.120768 0.593078 -0.544570
v 0.102745 0.583452 -0.564307
v 0.080786 0.575551 -0.580505
v 0.055732 0.569681 -0.592542
v 0.102745 0.673292 -0.380107
v 0.080786 0.681192 -0.363909
v 0.055732 0.687063 -0.351873
v 0.028547 0.566066 -0.599953
v 0.000275 0.564845 -0.602456
v 0.028547 0.690678 -0.344461
v 0.000275 0.691898 -0.341958
v -0.027997 0.566066 -0.599953
v -0.027997 0.690678 -0.344461
v -0.055182 0.687063 -0.351873
v -0.055182 0.569681 -0.592542
v -0.080236 0.575551 -0.580505
v -0.102195 0.583452 -0.564307
v -0.120218 0.593078 -0.544570
v -0.080236 0.681192 -0.363909
v -0.102195 0.673292 -0.380107
v -0.120218 0.663665 -0.399845
v -0.133609 0.604061 -0.522051
v -0.141856 0.615978 -0.497618
v -0.144640 0.628372 -0.472207
v -0.141856 0.640765 -0.446797
v -0.133609 0.652682 -0.422363
vn 0 -0.8987940952375757 0.43837104645045594
vn 0 0.8987940952375757 -0.43837104645045594
usemtl material_0_0
f 1//1 2//1 3//1
f 3//2 2//2 1//2
f 2//1 4//1 3//1
f 3//2 4//2 2//2
f 1//1 3//1 5//1
f 5//2 3//2 1//2
f 4//1 6//1 3//1
f 3//2 6//2 4//2
f 3//1 6//1 7//1
f 7//2 6//2 3//2
f 6//1 8//1 7//1
f 7//2 8//2 6//2
f 6//1 9//1 8//1
f 8//2 9//2 6//2
f 6//1 10//1 9//1
f 9//2 10//2 6//2
f 6//1 11//1 10//1
f 10//2 11//2 6//2
f 11//1 12//1 10//1
f 10//2 12//2 11//2
f 12//1 13//1 10//1
f 10//2 13//2 12//2
f 13//1 14//1 10//1
f 10//2 14//2 13//2
f 13//1 15//1 14//1
f 14//2 15//2 13//2
f 13//1 16//1 15//1
f 15//2 16//2 13//2
f 16//1 17//1 15//1
f 15//2 17//2 16//2
f 17//1 18//1 15//1
f 15//2 18//2 17//2
f 17//1 19//1 18//1
f 18//2 19//2 17//2
f 19//1 20//1 18//1
f 18//2 20//2 19//2
f 18//1 20//1 21//1
f 21//2 20//2 18//2
f 21//1 20//1 22//1
f 22//2 20//2 21//2
f 20//1 23//1 22//1
f 22//2 23//2 20//2
f 20//1 24//1 23//1
f 23//2 24//2 20//2
f 20//1 25//1 24//1
f 24//2 25//2 20//2
f 25//1 26//1 24//1
f 24//2 26//2 25//2
f 26//1 27//1 24//1
f 24//2 27//2 26//2
f 27//1 28//1 24//1
f 24//2 28//2 27//2
f 27//1 29//1 28//1
f 28//2 29//2 27//2
f 27//1 30//1 29//1
f 29//2 30//2 27//2
f 27//1 31//1 30//1
f 30//2 31//2 27//2
f 27//1 32//1 31//1
f 31//2 32//2 27//2
