# SSTK version 0.8.0
# 5
mtllib original-5.mtl
o #ID39
v -0.198029 -0.059728 -0.031387
v -0.194897 -0.078901 -0.031181
v -0.194897 -0.059728 -0.031181
v -0.198029 -0.078901 -0.031387
v -0.198029 -0.078901 -0.031387
v -0.198029 -0.059728 -0.031387
v -0.194897 -0.078901 -0.031181
v -0.194897 -0.059728 -0.031181
v -0.191818 -0.078901 -0.030569
v -0.191818 -0.059728 -0.030569
v -0.191818 -0.078901 -0.030569
v -0.191818 -0.059728 -0.030569
v -0.201162 -0.059728 -0.031181
v -0.201162 -0.078901 -0.031181
v -0.201162 -0.078901 -0.031181
v -0.201162 -0.059728 -0.031181
v -0.188845 -0.078901 -0.029560
v -0.188845 -0.059728 -0.029560
v -0.188845 -0.078901 -0.029560
v -0.188845 -0.059728 -0.029560
v -0.204240 -0.059728 -0.030569
v -0.204240 -0.078901 -0.030569
v -0.204240 -0.078901 -0.030569
v -0.204240 -0.059728 -0.030569
v -0.186030 -0.078901 -0.028172
v -0.186030 -0.059728 -0.028172
v -0.186030 -0.078901 -0.028172
v -0.186030 -0.059728 -0.028172
v -0.207213 -0.059728 -0.029560
v -0.207213 -0.078901 -0.029560
v -0.207213 -0.078901 -0.029560
v -0.207213 -0.059728 -0.029560
v -0.183420 -0.078901 -0.026428
v -0.183420 -0.059728 -0.026428
v -0.183420 -0.078901 -0.026428
v -0.183420 -0.059728 -0.026428
v -0.210028 -0.059728 -0.028172
v -0.210028 -0.078901 -0.028172
v -0.210028 -0.078901 -0.028172
v -0.210028 -0.059728 -0.028172
v -0.181060 -0.078901 -0.024358
v -0.181060 -0.059728 -0.024358
v -0.181060 -0.078901 -0.024358
v -0.181060 -0.059728 -0.024358
v -0.212638 -0.059728 -0.026428
v -0.212638 -0.078901 -0.026428
v -0.212638 -0.078901 -0.026428
v -0.212638 -0.059728 -0.026428
v -0.178990 -0.059728 -0.021998
v -0.178990 -0.078901 -0.021998
v -0.178990 -0.059728 -0.021998
v -0.178990 -0.078901 -0.021998
v -0.214999 -0.059728 -0.024358
v -0.214999 -0.078901 -0.024358
v -0.214999 -0.078901 -0.024358
v -0.214999 -0.059728 -0.024358
v -0.177246 -0.059728 -0.019387
v -0.177246 -0.078901 -0.019387
v -0.177246 -0.059728 -0.019387
v -0.177246 -0.078901 -0.019387
v -0.217068 -0.059728 -0.021998
v -0.217068 -0.078901 -0.021998
v -0.217068 -0.059728 -0.021998
v -0.217068 -0.078901 -0.021998
v -0.175858 -0.059728 -0.016572
v -0.175858 -0.078901 -0.016572
v -0.175858 -0.059728 -0.016572
v -0.175858 -0.078901 -0.016572
v -0.218812 -0.059728 -0.019387
v -0.218812 -0.078901 -0.019387
v -0.218812 -0.059728 -0.019387
v -0.218812 -0.078901 -0.019387
v -0.174849 -0.059728 -0.013600
v -0.174849 -0.078901 -0.013600
v -0.174849 -0.059728 -0.013600
v -0.174849 -0.078901 -0.013600
v -0.220201 -0.059728 -0.016572
v -0.220201 -0.078901 -0.016572
v -0.220201 -0.059728 -0.016572
v -0.220201 -0.078901 -0.016572
v -0.174236 -0.059728 -0.010521
v -0.174236 -0.078901 -0.010521
v -0.174236 -0.059728 -0.010521
v -0.174236 -0.078901 -0.010521
v -0.221210 -0.059728 -0.013600
v -0.221210 -0.078901 -0.013600
v -0.221210 -0.059728 -0.013600
v -0.221210 -0.078901 -0.013600
v -0.174031 -0.059728 -0.007388
v -0.174031 -0.078901 -0.007388
v -0.174031 -0.059728 -0.007388
v -0.174031 -0.078901 -0.007388
v -0.221822 -0.059728 -0.010521
v -0.221822 -0.078901 -0.010521
v -0.221822 -0.059728 -0.010521
v -0.221822 -0.078901 -0.010521
v -0.174236 -0.059728 -0.004256
v -0.174236 -0.078901 -0.004256
v -0.174236 -0.059728 -0.004256
v -0.174236 -0.078901 -0.004256
v -0.222028 -0.059728 -0.007388
v -0.222028 -0.078901 -0.007388
v -0.222028 -0.059728 -0.007388
v -0.222028 -0.078901 -0.007388
v -0.174849 -0.059728 -0.001177
v -0.174849 -0.078901 -0.001177
v -0.174849 -0.059728 -0.001177
v -0.174849 -0.078901 -0.001177
v -0.221822 -0.059728 -0.004256
v -0.221822 -0.078901 -0.004256
v -0.221822 -0.059728 -0.004256
v -0.221822 -0.078901 -0.004256
v -0.175858 -0.059728 0.001796
v -0.175858 -0.078901 0.001796
v -0.175858 -0.059728 0.001796
v -0.175858 -0.078901 0.001796
v -0.221210 -0.059728 -0.001177
v -0.221210 -0.078901 -0.001177
v -0.221210 -0.059728 -0.001177
v -0.221210 -0.078901 -0.001177
v -0.177246 -0.059728 0.004611
v -0.177246 -0.078901 0.004611
v -0.177246 -0.059728 0.004611
v -0.177246 -0.078901 0.004611
v -0.220201 -0.059728 0.001796
v -0.220201 -0.078901 0.001796
v -0.220201 -0.059728 0.001796
v -0.220201 -0.078901 0.001796
v -0.178990 -0.059728 0.007221
v -0.178990 -0.078901 0.007221
v -0.178990 -0.059728 0.007221
v -0.178990 -0.078901 0.007221
v -0.218812 -0.059728 0.004611
v -0.218812 -0.078901 0.004611
v -0.218812 -0.059728 0.004611
v -0.218812 -0.078901 0.004611
v -0.181060 -0.059728 0.009581
v -0.181060 -0.078901 0.009581
v -0.181060 -0.059728 0.009581
v -0.181060 -0.078901 0.009581
v -0.217068 -0.059728 0.007221
v -0.217068 -0.078901 0.007221
v -0.217068 -0.059728 0.007221
v -0.217068 -0.078901 0.007221
v -0.183420 -0.078901 0.011651
v -0.183420 -0.059728 0.011651
v -0.183420 -0.059728 0.011651
v -0.183420 -0.078901 0.011651
v -0.214999 -0.059728 0.009581
v -0.214999 -0.078901 0.009581
v -0.214999 -0.059728 0.009581
v -0.214999 -0.078901 0.009581
v -0.186030 -0.078901 0.013395
v -0.186030 -0.059728 0.013395
v -0.186030 -0.059728 0.013395
v -0.186030 -0.078901 0.013395
v -0.212638 -0.059728 0.011651
v -0.212638 -0.078901 0.011651
v -0.212638 -0.059728 0.011651
v -0.212638 -0.078901 0.011651
v -0.188845 -0.078901 0.014783
v -0.188845 -0.059728 0.014783
v -0.188845 -0.059728 0.014783
v -0.188845 -0.078901 0.014783
v -0.210028 -0.059728 0.013395
v -0.210028 -0.078901 0.013395
v -0.210028 -0.059728 0.013395
v -0.210028 -0.078901 0.013395
v -0.191818 -0.078901 0.015792
v -0.191818 -0.059728 0.015792
v -0.191818 -0.059728 0.015792
v -0.191818 -0.078901 0.015792
v -0.207213 -0.059728 0.014783
v -0.207213 -0.078901 0.014783
v -0.207213 -0.059728 0.014783
v -0.207213 -0.078901 0.014783
v -0.194897 -0.078901 0.016405
v -0.194897 -0.059728 0.016405
v -0.194897 -0.059728 0.016405
v -0.194897 -0.078901 0.016405
v -0.204240 -0.059728 0.015792
v -0.204240 -0.078901 0.015792
v -0.204240 -0.059728 0.015792
v -0.204240 -0.078901 0.015792
v -0.198029 -0.078901 0.016610
v -0.198029 -0.059728 0.016610
v -0.198029 -0.059728 0.016610
v -0.198029 -0.078901 0.016610
v -0.201162 -0.059728 0.016405
v -0.201162 -0.078901 0.016405
v -0.201162 -0.059728 0.016405
v -0.201162 -0.078901 0.016405
vt -2.743367 0.15
vt -2.718808 5.809889e-14
vt -2.718808 0.15
vt -2.743367 6.139825e-14
vt -2.983719 0.15
vt -2.95916 8.755493e-13
vt -2.95916 0.15
vt -2.983719 8.853346e-13
vt -2.456286 0.15
vt -2.431727 -6.311786e-13
vt -2.431727 0.15
vt -2.456286 -6.34478e-13
vt -3.173228 0.15
vt -3.148669 1.765245e-12
vt -3.148669 0.15
vt -3.173228 1.781403e-12
vt -2.127388 0.15
vt -2.102828 -1.145198e-12
vt -2.102828 0.15
vt -2.127388 -1.154983e-12
vt -3.308653 0.15
vt -3.284093 2.666651e-12
vt -3.284093 0.15
vt -3.308653 2.688647e-12
vt -1.762299 0.15
vt -1.73774 -1.448708e-12
vt -1.73774 0.15
vt -1.762299 -1.464866e-12
vt -3.387675 0.15
vt -3.363116 3.517734e-12
vt -3.363116 0.15
vt -3.387675 3.545652e-12
vt -1.367267 0.15
vt -1.342707 -1.520916e-12
vt -1.342707 0.15
vt -1.367267 -1.542912e-12
vt -3.408944 0.15
vt -3.384385 4.260577e-12
vt -3.384385 0.15
vt -3.408944 4.293712e-12
vt -0.9490504 0.15
vt -0.9244911 -1.356488e-12
vt -0.9244911 0.15
vt -0.9490504 -1.384405e-12
vt -3.347536 0.15
vt -3.372095 4.882207e-12
vt -3.347536 4.844194e-12
vt -3.372095 0.15
vt -0.5148056 0.15
vt -0.4902463 -9.669319e-13
vt -0.4902463 0.15
vt -0.5148056 -1.000067e-12
vt -3.253199 0.15
vt -3.277759 5.270924e-12
vt -3.253199 5.229132e-12
vt -3.277759 0.15
vt -0.04740325 -3.784362e-13
vt -0.07196253 0.15
vt -0.07196253 -4.164493e-13
vt -0.04740325 0.15
vt -3.10299 0.15
vt -3.127549 5.433911e-12
vt -3.10299 5.388848e-12
vt -3.127549 0.15
vt 0.396461 3.687847e-13
vt 0.3719017 0.15
vt 0.3719017 3.269928e-13
vt 0.396461 0.15
vt -2.899477 0.15
vt -2.924036 5.359937e-12
vt -2.899477 5.312336e-12
vt -2.924036 0.15
vt 0.8337519 1.224349e-12
vt 0.8091926 0.15
vt 0.8091926 1.179286e-12
vt 0.8337519 0.15
vt -2.646143 0.15
vt -2.670702 5.05407e-12
vt -2.646143 5.004777e-12
vt -2.670702 0.15
vt 1.256987 2.129826e-12
vt 1.232428 0.15
vt 1.232428 2.082225e-12
vt 1.256987 0.15
vt -2.347323 0.15
vt -2.371882 4.537229e-12
vt -2.347323 4.48709e-12
vt -2.371882 0.15
vt 1.658925 3.023538e-12
vt 1.634366 0.15
vt 1.634366 2.974244e-12
vt 1.658925 0.15
vt -2.008129 0.15
vt -2.032688 3.844659e-12
vt -2.008129 3.79452e-12
vt -2.032688 0.15
vt 2.032688 3.844652e-12
vt 2.008129 0.15
vt 2.008129 3.794513e-12
vt 2.032688 0.15
vt -1.634366 0.15
vt -1.658925 3.023546e-12
vt -1.634366 2.974253e-12
vt -1.658925 0.15
vt 2.371882 4.537236e-12
vt 2.347323 0.15
vt 2.347323 4.487097e-12
vt 2.371882 0.15
vt -1.232428 0.15
vt -1.256987 2.129816e-12
vt -1.232428 2.082468e-12
vt -1.256987 0.15
vt 2.670702 5.054079e-12
vt 2.646143 0.15
vt 2.646143 5.004786e-12
vt 2.670702 0.15
vt -0.8091926 0.15
vt -0.8337519 1.224585e-12
vt -0.8091926 1.179269e-12
vt -0.8337519 0.15
vt 2.924036 5.359927e-12
vt 2.899477 0.15
vt 2.899477 5.312579e-12
vt 2.924036 0.15
vt -0.3719017 0.15
vt -0.396461 3.687681e-13
vt -0.3719017 3.2723e-13
vt -0.396461 0.15
vt 3.127549 5.434148e-12
vt 3.10299 0.15
vt 3.10299 5.388831e-12
vt 3.127549 0.15
vt 0.07196253 0.15
vt 0.04740325 -3.78437e-13
vt 0.07196253 -4.164502e-13
vt 0.04740325 0.15
vt 3.277759 5.270908e-12
vt 3.253199 0.15
vt 3.253199 5.229369e-12
vt 3.277759 0.15
vt 0.5148056 -1.000298e-12
vt 0.4902463 0.15
vt 0.4902463 -9.671634e-13
vt 0.5148056 0.15
vt 3.372095 4.882207e-12
vt 3.347536 0.15
vt 3.347536 4.844193e-12
vt 3.372095 0.15
vt 0.9490504 -1.384635e-12
vt 0.9244911 0.15
vt 0.9244911 -1.356717e-12
vt 0.9490504 0.15
vt 3.408944 4.29348e-12
vt 3.384385 0.15
vt 3.384385 4.260346e-12
vt 3.408944 0.15
vt 1.367267 -1.542909e-12
vt 1.342707 0.15
vt 1.342707 -1.520913e-12
vt 1.367267 0.15
vt 3.387675 3.545422e-12
vt 3.363116 0.15
vt 3.363116 3.517504e-12
vt 3.387675 0.15
vt 1.762299 -1.464863e-12
vt 1.73774 0.15
vt 1.73774 -1.448479e-12
vt 1.762299 0.15
vt 3.308653 2.688649e-12
vt 3.284093 0.15
vt 3.284093 2.666653e-12
vt 3.308653 0.15
vt 2.127388 -1.154995e-12
vt 2.102828 0.15
vt 2.102828 -1.145181e-12
vt 2.127388 0.15
vt 3.173228 1.781632e-12
vt 3.148669 0.15
vt 3.148669 1.765248e-12
vt 3.173228 0.15
vt 2.456286 -6.344833e-13
vt 2.431727 0.15
vt 2.431727 -6.311839e-13
vt 2.456286 0.15
vt 2.983719 8.853514e-13
vt 2.95916 0.15
vt 2.95916 8.755379e-13
vt 2.983719 0.15
vt 2.743367 6.139293e-14
vt 2.718808 0.15
vt 2.718808 5.809356e-14
vt 2.743367 0.15
vn 0 0 1
vn -0.1305261948699242 0 0.991444861024948
vn 0 0 -1
vn 0.1305261948699242 0 -0.991444861024948
vn -0.2588190095946028 0 0.9659258358033855
vn 0.2588190095946028 0 -0.9659258358033855
vn 0.1305261948677868 0 0.9914448610252293
vn -0.1305261948677868 0 -0.9914448610252293
vn -0.3826834162352285 0 0.9238795391924941
vn 0.3826834162352285 0 -0.9238795391924941
vn 0.25881900959252047 0 0.9659258358039435
vn -0.25881900959252047 0 -0.9659258358039435
vn -0.5000000016396435 0 0.86602540283779
vn 0.5000000016396435 0 -0.86602540283779
vn 0.38268341623323676 0 0.923879539193319
vn -0.38268341623323676 0 -0.923879539193319
vn -0.6087614302103832 0 0.7933533393691672
vn 0.6087614302103832 0 -0.7933533393691672
vn 0.5000000016377766 0 0.866025402838868
vn -0.5000000016377766 0 -0.866025402838868
vn -0.7071067811873097 0 0.7071067811857854
vn 0.7071067811873097 0 -0.7071067811857854
vn 0.6087614302086728 0 0.7933533393704795
vn -0.6087614302086728 0 -0.7933533393704795
vn -0.7933533393704795 0 0.6087614302086728
vn 0.7933533393704795 0 -0.6087614302086728
vn 0.7071067811857854 0 0.7071067811873097
vn -0.7071067811857854 0 -0.7071067811873097
vn -0.866025402838868 0 0.5000000016377766
vn 0.866025402838868 0 -0.5000000016377766
vn 0.7933533393691672 0 0.6087614302103832
vn -0.7933533393691672 0 -0.6087614302103832
vn -0.923879539193319 0 0.38268341623323676
vn 0.923879539193319 0 -0.38268341623323676
vn 0.86602540283779 0 0.5000000016396435
vn -0.86602540283779 0 -0.5000000016396435
vn -0.9659258358039435 0 0.25881900959252047
vn 0.9659258358039435 0 -0.25881900959252047
vn 0.9238795391924941 0 0.3826834162352285
vn -0.9238795391924941 0 -0.3826834162352285
vn -0.9914448610252293 0 0.1305261948677868
vn 0.9914448610252293 0 -0.1305261948677868
vn 0.9659258358033855 0 0.2588190095946028
vn -0.9659258358033855 0 -0.2588190095946028
vn -1 0 0
vn 1 0 0
vn 0.991444861024948 0 0.1305261948699242
vn -0.991444861024948 0 -0.1305261948699242
usemtl material_0_0
f 1/1/1 2/2/2 3/3/2
f 2/2/2 1/1/1 4/4/1
f 5/4/3 6/1/3 7/2/4
f 8/3/4 7/2/4 6/1/3
f 3/5/2 9/6/5 10/7/5
f 9/6/5 3/5/2 2/8/2
f 7/8/4 8/5/4 11/6/6
f 12/7/6 11/6/6 8/5/4
f 13/9/7 4/10/1 1/11/1
f 4/10/1 13/9/7 14/12/7
f 15/12/8 16/9/8 5/10/3
f 6/11/3 5/10/3 16/9/8
f 10/13/5 17/14/9 18/15/9
f 17/14/9 10/13/5 9/16/5
f 11/16/6 12/13/6 19/14/10
f 20/15/10 19/14/10 12/13/6
f 21/17/11 14/18/7 13/19/7
f 14/18/7 21/17/11 22/20/11
f 23/20/12 24/17/12 15/18/8
f 16/19/8 15/18/8 24/17/12
f 18/21/9 25/22/13 26/23/13
f 25/22/13 18/21/9 17/24/9
f 19/24/10 20/21/10 27/22/14
f 28/23/14 27/22/14 20/21/10
f 29/25/15 22/26/11 21/27/11
f 22/26/11 29/25/15 30/28/15
f 31/28/16 32/25/16 23/26/12
f 24/27/12 23/26/12 32/25/16
f 26/29/13 33/30/17 34/31/17
f 33/30/17 26/29/13 25/32/13
f 27/32/14 28/29/14 35/30/18
f 36/31/18 35/30/18 28/29/14
f 37/33/19 30/34/15 29/35/15
f 30/34/15 37/33/19 38/36/19
f 39/36/20 40/33/20 31/34/16
f 32/35/16 31/34/16 40/33/20
f 34/37/17 41/38/21 42/39/21
f 41/38/21 34/37/17 33/40/17
f 35/40/18 36/37/18 43/38/22
f 44/39/22 43/38/22 36/37/18
f 45/41/23 38/42/19 37/43/19
f 38/42/19 45/41/23 46/44/23
f 47/44/24 48/41/24 39/42/20
f 40/43/20 39/42/20 48/41/24
f 49/45/25 41/46/21 50/47/25
f 41/46/21 49/45/25 42/48/21
f 44/48/22 51/45/26 43/46/22
f 52/47/26 43/46/22 51/45/26
f 53/49/27 46/50/23 45/51/23
f 46/50/23 53/49/27 54/52/27
f 55/52/28 56/49/28 47/50/24
f 48/51/24 47/50/24 56/49/28
f 57/53/29 50/54/25 58/55/29
f 50/54/25 57/53/29 49/56/25
f 51/56/26 59/53/30 52/54/26
f 60/55/30 52/54/26 59/53/30
f 54/57/27 61/58/31 62/59/31
f 61/58/31 54/57/27 53/60/27
f 56/60/28 55/57/28 63/58/32
f 64/59/32 63/58/32 55/57/28
f 65/61/33 58/62/29 66/63/33
f 58/62/29 65/61/33 57/64/29
f 59/64/30 67/61/34 60/62/30
f 68/63/34 60/62/30 67/61/34
f 62/65/31 69/66/35 70/67/35
f 69/66/35 62/65/31 61/68/31
f 63/68/32 64/65/32 71/66/36
f 72/67/36 71/66/36 64/65/32
f 73/69/37 66/70/33 74/71/37
f 66/70/33 73/69/37 65/72/33
f 67/72/34 75/69/38 68/70/34
f 76/71/38 68/70/34 75/69/38
f 70/73/35 77/74/39 78/75/39
f 77/74/39 70/73/35 69/76/35
f 71/76/36 72/73/36 79/74/40
f 80/75/40 79/74/40 72/73/36
f 81/77/41 74/78/37 82/79/41
f 74/78/37 81/77/41 73/80/37
f 75/80/38 83/77/42 76/78/38
f 84/79/42 76/78/38 83/77/42
f 78/81/39 85/82/43 86/83/43
f 85/82/43 78/81/39 77/84/39
f 79/84/40 80/81/40 87/82/44
f 88/83/44 87/82/44 80/81/40
f 89/85/45 82/86/41 90/87/45
f 82/86/41 89/85/45 81/88/41
f 83/88/42 91/85/46 84/86/42
f 92/87/46 84/86/42 91/85/46
f 86/89/43 93/90/47 94/91/47
f 93/90/47 86/89/43 85/92/43
f 87/92/44 88/89/44 95/90/48
f 96/91/48 95/90/48 88/89/44
f 97/93/48 90/94/45 98/95/48
f 90/94/45 97/93/48 89/96/45
f 91/96/46 99/93/47 92/94/46
f 100/95/47 92/94/46 99/93/47
f 94/97/47 101/98/46 102/99/46
f 101/98/46 94/97/47 93/100/47
f 95/100/48 96/97/48 103/98/45
f 104/99/45 103/98/45 96/97/48
f 105/101/44 98/102/48 106/103/44
f 98/102/48 105/101/44 97/104/48
f 99/104/47 107/101/43 100/102/47
f 108/103/43 100/102/47 107/101/43
f 102/105/46 109/106/42 110/107/42
f 109/106/42 102/105/46 101/108/46
f 103/108/45 104/105/45 111/106/41
f 112/107/41 111/106/41 104/105/45
f 113/109/40 106/110/44 114/111/40
f 106/110/44 113/109/40 105/112/44
f 107/112/43 115/109/39 108/110/43
f 116/111/39 108/110/43 115/109/39
f 110/113/42 117/114/38 118/115/38
f 117/114/38 110/113/42 109/116/42
f 111/116/41 112/113/41 119/114/37
f 120/115/37 119/114/37 112/113/41
f 121/117/36 114/118/40 122/119/36
f 114/118/40 121/117/36 113/120/40
f 115/120/39 123/117/35 116/118/39
f 124/119/35 116/118/39 123/117/35
f 118/121/38 125/122/34 126/123/34
f 125/122/34 118/121/38 117/124/38
f 119/124/37 120/121/37 127/122/33
f 128/123/33 127/122/33 120/121/37
f 129/125/32 122/126/36 130/127/32
f 122/126/36 129/125/32 121/128/36
f 123/128/35 131/125/31 124/126/35
f 132/127/31 124/126/35 131/125/31
f 126/129/34 133/130/30 134/131/30
f 133/130/30 126/129/34 125/132/34
f 127/132/33 128/129/33 135/130/29
f 136/131/29 135/130/29 128/129/33
f 137/133/28 130/134/32 138/135/28
f 130/134/32 137/133/28 129/136/32
f 131/136/31 139/133/27 132/134/31
f 140/135/27 132/134/31 139/133/27
f 134/137/30 141/138/26 142/139/26
f 141/138/26 134/137/30 133/140/30
f 135/140/29 136/137/29 143/138/25
f 144/139/25 143/138/25 136/137/29
f 145/141/24 137/142/28 138/143/28
f 137/142/28 145/141/24 146/144/24
f 147/144/23 148/141/23 139/142/27
f 140/143/27 139/142/27 148/141/23
f 142/145/26 149/146/22 150/147/22
f 149/146/22 142/145/26 141/148/26
f 143/148/25 144/145/25 151/146/21
f 152/147/21 151/146/21 144/145/25
f 153/149/20 146/150/24 145/151/24
f 146/150/24 153/149/20 154/152/20
f 155/152/19 156/149/19 147/150/23
f 148/151/23 147/150/23 156/149/19
f 150/153/22 157/154/18 158/155/18
f 157/154/18 150/153/22 149/156/22
f 151/156/21 152/153/21 159/154/17
f 160/155/17 159/154/17 152/153/21
f 161/157/16 154/158/20 153/159/20
f 154/158/20 161/157/16 162/160/16
f 163/160/15 164/157/15 155/158/19
f 156/159/19 155/158/19 164/157/15
f 158/161/18 165/162/14 166/163/14
f 165/162/14 158/161/18 157/164/18
f 159/164/17 160/161/17 167/162/13
f 168/163/13 167/162/13 160/161/17
f 169/165/12 162/166/16 161/167/16
f 162/166/16 169/165/12 170/168/12
f 171/168/11 172/165/11 163/166/15
f 164/167/15 163/166/15 172/165/11
f 166/169/14 173/170/10 174/171/10
f 173/170/10 166/169/14 165/172/14
f 167/172/13 168/169/13 175/170/9
f 176/171/9 175/170/9 168/169/13
f 177/173/8 170/174/12 169/175/12
f 170/174/12 177/173/8 178/176/8
f 179/176/7 180/173/7 171/174/11
f 172/175/11 171/174/11 180/173/7
f 174/177/10 181/178/6 182/179/6
f 181/178/6 174/177/10 173/180/10
f 175/180/9 176/177/9 183/178/5
f 184/179/5 183/178/5 176/177/9
f 185/181/3 178/182/8 177/183/8
f 178/182/8 185/181/3 186/184/3
f 187/184/1 188/181/1 179/182/7
f 180/183/7 179/182/7 188/181/1
f 182/185/6 189/186/4 190/187/4
f 189/186/4 182/185/6 181/188/6
f 183/188/5 184/185/5 191/186/2
f 192/187/2 191/186/2 184/185/5
f 190/189/4 186/190/3 185/191/3
f 186/190/3 190/189/4 189/192/4
f 191/192/2 192/189/2 187/190/1
f 188/191/1 187/190/1 192/189/2
