# SSTK version 0.8.0
# 10
mtllib original-10.mtl
o Group7/mesh6/mesh6-geometry#mesh6-geometry
v 0.105035 0.856766 0.423366
v 0.053980 0.893575 0.433522
v 0.070362 0.893575 0.409004
v 0.080518 0.856766 0.460060
v 0.019307 0.913495 0.398849
v 0.076115 0.893575 0.380084
v 0.123800 0.808673 0.431139
v 0.029462 0.893575 0.449904
v 0.025059 0.913495 0.390239
v 0.010697 0.913495 0.404601
v 0.113645 0.856766 0.380084
v 0.027079 0.913495 0.380084
v 0.094880 0.808673 0.474422
v 0.133956 0.808673 0.380084
v 0.043824 0.856766 0.484577
v -0.023976 0.913495 0.390239
v -0.018223 0.913495 0.398849
v 0.070362 0.893575 0.351163
v 0.025059 0.913495 0.369928
v 0.123800 0.782645 0.431139
v 0.051597 0.808673 0.503342
v 0.133956 0.782645 0.380084
v 0.000542 0.893575 0.455657
v 0.000542 0.913495 0.406621
v -0.025996 0.913495 0.380084
v -0.009614 0.913495 0.404601
v 0.105035 0.856766 0.336801
v 0.123800 0.808673 0.329028
v -0.023976 0.913495 0.369928
v 0.094880 0.782645 0.474422
v 0.051597 0.782645 0.503342
v 0.123800 0.782645 0.329028
v 0.000542 0.808673 0.513498
v 0.000542 0.856766 0.493187
v -0.075031 0.893575 0.380084
v -0.069279 0.893575 0.409004
v -0.052897 0.893575 0.433522
v 0.053980 0.893575 0.326645
v 0.019307 0.913495 0.361319
v -0.018223 0.913495 0.361319
v 0.084873 0.782645 0.464415
v 0.110726 0.782645 0.425723
v 0.000542 0.782645 0.513498
v 0.110726 0.782645 0.334444
v -0.021100 0.856766 0.488882
v -0.028379 0.893575 0.449904
v -0.004536 0.913495 0.405611
v 0.080518 0.856766 0.300108
v 0.094880 0.808673 0.285745
v 0.094880 0.782645 0.285745
v -0.069279 0.893575 0.351163
v 0.046181 0.782645 0.490268
v 0.119804 0.782645 0.380084
v -0.024986 0.782645 0.508420
v 0.084873 0.782645 0.295752
v -0.042741 0.856766 0.484577
v -0.013919 0.893575 0.452780
v -0.112561 0.856766 0.380084
v -0.103952 0.856766 0.423366
v -0.079434 0.856766 0.460060
v 0.029462 0.893575 0.310263
v 0.010697 0.913495 0.355566
v -0.009614 0.913495 0.355566
v -0.052897 0.893575 0.326645
v 0.110726 0.774317 0.425723
v 0.046181 0.774317 0.490268
v 0.000542 0.782645 0.499346
v 0.119804 0.774317 0.380084
v -0.050514 0.782645 0.503342
v 0.084873 0.774317 0.295752
v 0.110726 0.774317 0.334444
v -0.024986 0.808673 0.508420
v 0.043824 0.856766 0.275590
v 0.051597 0.808673 0.256825
v 0.065527 0.782645 0.282826
v -0.103952 0.856766 0.336801
v 0.084873 0.774317 0.464415
v 0.000542 0.774317 0.499346
v -0.050514 0.808673 0.503342
v -0.122717 0.808673 0.431139
v -0.093796 0.808673 0.474422
v 0.015002 0.893575 0.307387
v 0.000542 0.913495 0.353546
v 0.005620 0.913495 0.354556
v 0.051597 0.782645 0.256825
v -0.028379 0.893575 0.310263
v -0.079434 0.856766 0.300108
v -0.083790 0.774317 0.464415
v -0.118721 0.774317 0.380084
v -0.045098 0.774317 0.490268
v -0.022278 0.774317 0.494807
v -0.022278 0.782645 0.494807
v -0.109642 0.774317 0.334444
v -0.096716 0.774317 0.315098
v 0.065527 0.774317 0.282826
v -0.132873 0.808673 0.380084
v 0.000542 0.893575 0.304510
v 0.026069 0.808673 0.251747
v -0.093796 0.782645 0.285745
v -0.122717 0.808673 0.329028
v -0.109642 0.774317 0.425723
v -0.045098 0.782645 0.490268
v -0.093796 0.782645 0.474422
v -0.096716 0.782645 0.315098
v -0.122717 0.782645 0.431139
v 0.022183 0.856766 0.271285
v 0.026069 0.782645 0.251747
v -0.042741 0.856766 0.275590
v -0.050514 0.782645 0.256825
v -0.093796 0.808673 0.285745
v -0.109642 0.782645 0.425723
v -0.109642 0.782645 0.334444
v -0.118721 0.782645 0.380084
v -0.132873 0.782645 0.380084
v 0.000542 0.856766 0.266980
v 0.000542 0.808673 0.246669
v -0.050514 0.808673 0.256825
v -0.122717 0.782645 0.329028
v -0.083790 0.782645 0.464415
v 0.000542 0.782645 0.246669
vn -0.763529854423503 -0.5630268926518953 -0.3162639397003323
vn -0.3875820862259777 -0.8363971860745574 -0.3875820862259777
vn -0.5064009156908378 -0.8363968607508075 -0.20975796507802857
vn -0.584380183633028 -0.5630271769231543 -0.584380183633028
vn -0.18023497374427214 -0.9669698591366761 -0.18023497374427214
vn -0.5481240380987329 -0.8363970581358705 0
vn -0.9054459133538102 -0.19876298097947684 -0.3750479641099743
vn -0.20975796507802857 -0.8363968607508075 -0.5064009156908378
vn -0.23548799754998295 -0.9669699899396443 -0.09754199898517306
vn -0.09754199898517306 -0.9669699899396443 -0.23548799754998295
vn -0.8264386597346128 -0.5630267681878516 0
vn -0.2548900136366162 -0.9669700517328992 0
vn -0.6929982819890279 -0.19876308087899985 -0.6929982819890279
vn -0.9800476018689732 -0.1987629192552637 0
vn -0.3162639397003323 -0.5630268926518953 -0.763529854423503
vn 0.23548799754998295 -0.9669699899396443 -0.09754199898517306
vn 0.18023497374427214 -0.9669698591366761 -0.18023497374427214
vn -0.5064009156908378 -0.8363968607508075 0.20975796507802857
vn -0.23548799754998295 -0.9669699899396443 0.09754199898517306
vn -0.9238797538373538 0 -0.38268289803626016
vn -0.3750479641099743 -0.19876298097947684 -0.9054459133538102
vn -1 0 0
vn 0 -0.8363970581358705 -0.5481240380987329
vn 0 -0.9669700517328992 -0.2548900136366162
vn 0.2548900136366162 -0.9669700517328992 0
vn 0.09754199898517306 -0.9669699899396443 -0.23548799754998295
vn -0.763529854423503 -0.5630268926518953 0.3162639397003323
vn -0.9054459133538102 -0.19876298097947684 0.3750479641099743
vn 0.23548799754998295 -0.9669699899396443 0.09754199898517306
vn -0.7071067811865475 0 -0.7071067811865475
vn -0.38268289803626016 0 -0.9238797538373538
vn -0.9238797538373538 0 0.38268289803626016
vn 0 -0.1987629192552637 -0.9800476018689732
vn 0 -0.5630267681878516 -0.8264386597346128
vn 0.5481240380987329 -0.8363970581358705 0
vn 0.5064009156908378 -0.8363968607508075 -0.20975796507802857
vn 0.3875820862259777 -0.8363971860745574 -0.3875820862259777
vn -0.3875820862259777 -0.8363971860745574 0.3875820862259777
vn -0.18023497374427214 -0.9669698591366761 0.18023497374427214
vn 0.18023497374427214 -0.9669698591366761 0.18023497374427214
vn 0 1 0
vn 0 0 -1
vn 0.16221203318104252 -0.5555701136438229 -0.8154931668119986
vn 0.20975796507802857 -0.8363968607508075 -0.5064009156908378
vn 0.03806000873878834 -0.9807852251937079 -0.19134204393319076
vn -0.584380183633028 -0.5630271769231543 0.584380183633028
vn -0.6929982819890279 -0.19876308087899985 0.6929982819890279
vn -0.7071067811865475 0 0.7071067811865475
vn 0.5064009156908378 -0.8363968607508075 0.20975796507802857
vn 0.19509006590875128 0 -0.9807853313461202
vn 0.3162639397003323 -0.5630268926518953 -0.763529854423503
vn 0.10838597578001838 -0.8314698141993604 -0.5448948782375317
vn 0.8264386597346128 -0.5630267681878516 0
vn 0.763529854423503 -0.5630268926518953 -0.3162639397003323
vn 0.584380183633028 -0.5630271769231543 -0.584380183633028
vn -0.20975796507802857 -0.8363968607508075 0.5064009156908378
vn -0.09754199898517306 -0.9669699899396443 0.23548799754998295
vn 0.09754199898517306 -0.9669699899396443 0.23548799754998295
vn 0.3875820862259777 -0.8363971860745574 0.3875820862259777
vn 0.1913419586066159 -0.19508995779580382 -0.9619397919016635
vn -0.3162639397003323 -0.5630268926518953 0.763529854423503
vn -0.3750479641099743 -0.19876298097947684 0.9054459133538102
vn 0.763529854423503 -0.5630268926518953 0.3162639397003323
vn 0.38268289803626016 0 -0.9238797538373538
vn -0.555569892830578 0 0.8314698396094834
vn 0.3750479641099743 -0.19876298097947684 -0.9054459133538102
vn 0.9054459133538102 -0.19876298097947684 -0.3750479641099743
vn 0.6929982819890279 -0.19876308087899985 -0.6929982819890279
vn -0.10838597578001838 -0.8314698141993604 0.5448948782375317
vn 0 -0.9669700517328992 0.2548900136366162
vn -0.03806000873878834 -0.9807852251937079 0.19134204393319076
vn -0.38268289803626016 0 0.9238797538373538
vn 0.20975796507802857 -0.8363968607508075 0.5064009156908378
vn 0.584380183633028 -0.5630271769231543 0.584380183633028
vn 0.9800476018689732 -0.1987629192552637 0
vn 0 -0.8363970581358705 0.5481240380987329
vn -0.1913419586066159 -0.19508995779580382 0.9619397919016635
vn 0.9054459133538102 -0.19876298097947684 0.3750479641099743
vn 0.7071067811865475 0 -0.7071067811865475
vn 0.19509006590875128 0 0.9807853313461202
vn 0.9238797538373538 0 -0.38268289803626016
vn -0.16221203318104252 -0.5555701136438229 0.8154931668119986
vn -0.19509006590875128 0 0.9807853313461202
vn 0.3162639397003323 -0.5630268926518953 0.763529854423503
vn 0.6929982819890279 -0.19876308087899985 0.6929982819890279
vn 0.9238797538373538 0 0.38268289803626016
vn 1 0 0
vn 0.8314698396094834 0 0.555569892830578
vn 0 -0.5630267681878516 0.8264386597346128
vn 0 -0.1987629192552637 0.9800476018689732
vn 0.3750479641099743 -0.19876298097947684 0.9054459133538102
vn 0.38268289803626016 0 0.9238797538373538
vn 0.7071067811865475 0 0.7071067811865475
vn 0 0 1
vn 0.5064009156908378 0.8363968607508075 0.20975796507802857
vn 0.3875820862259777 0.8363971860745574 0.3875820862259777
vn 0.763529854423503 0.5630268926518953 0.3162639397003323
vn 0.584380183633028 0.5630271769231543 0.584380183633028
vn 0.18023497374427214 0.9669698591366761 0.18023497374427214
vn 0.5481240380987329 0.8363970581358705 0
vn 0.9054459133538102 0.19876298097947684 0.3750479641099743
vn 0.20975796507802857 0.8363968607508075 0.5064009156908378
vn 0.23548799754998295 0.9669699899396443 0.09754199898517306
vn 0.09754199898517306 0.9669699899396443 0.23548799754998295
vn 0.8264386597346128 0.5630267681878516 0
vn 0.2548900136366162 0.9669700517328992 0
vn 0.6929982819890279 0.19876308087899985 0.6929982819890279
vn 0.9800476018689732 0.1987629192552637 0
vn 0.3162639397003323 0.5630268926518953 0.763529854423503
vn -0.23548799754998295 0.9669699899396443 0.09754199898517306
vn -0.18023497374427214 0.9669698591366761 0.18023497374427214
vn 0.5064009156908378 0.8363968607508075 -0.20975796507802857
vn 0.23548799754998295 0.9669699899396443 -0.09754199898517306
vn 0.3750479641099743 0.19876298097947684 0.9054459133538102
vn 0 0.8363970581358705 0.5481240380987329
vn 0 0.9669700517328992 0.2548900136366162
vn -0.2548900136366162 0.9669700517328992 0
vn -0.09754199898517306 0.9669699899396443 0.23548799754998295
vn 0.763529854423503 0.5630268926518953 -0.3162639397003323
vn 0.9054459133538102 0.19876298097947684 -0.3750479641099743
vn -0.23548799754998295 0.9669699899396443 -0.09754199898517306
vn 0 0.1987629192552637 0.9800476018689732
vn 0 0.5630267681878516 0.8264386597346128
vn -0.5481240380987329 0.8363970581358705 0
vn -0.5064009156908378 0.8363968607508075 0.20975796507802857
vn -0.3875820862259777 0.8363971860745574 0.3875820862259777
vn 0.3875820862259777 0.8363971860745574 -0.3875820862259777
vn 0.18023497374427214 0.9669698591366761 -0.18023497374427214
vn -0.18023497374427214 0.9669698591366761 -0.18023497374427214
vn 0 -1 0
vn -0.16221203318104252 0.5555701136438229 0.8154931668119986
vn -0.20975796507802857 0.8363968607508075 0.5064009156908378
vn -0.03806000873878834 0.9807852251937079 0.19134204393319076
vn 0.584380183633028 0.5630271769231543 -0.584380183633028
vn 0.6929982819890279 0.19876308087899985 -0.6929982819890279
vn -0.5064009156908378 0.8363968607508075 -0.20975796507802857
vn -0.3162639397003323 0.5630268926518953 0.763529854423503
vn -0.10838597578001838 0.8314698141993604 0.5448948782375317
vn -0.8264386597346128 0.5630267681878516 0
vn -0.763529854423503 0.5630268926518953 0.3162639397003323
vn -0.584380183633028 0.5630271769231543 0.584380183633028
vn 0.20975796507802857 0.8363968607508075 -0.5064009156908378
vn 0.09754199898517306 0.9669699899396443 -0.23548799754998295
vn -0.09754199898517306 0.9669699899396443 -0.23548799754998295
vn -0.3875820862259777 0.8363971860745574 -0.3875820862259777
vn -0.1913419586066159 0.19508995779580382 0.9619397919016635
vn 0.3162639397003323 0.5630268926518953 -0.763529854423503
vn 0.3750479641099743 0.19876298097947684 -0.9054459133538102
vn -0.763529854423503 0.5630268926518953 -0.3162639397003323
vn 0.555569892830578 0 -0.8314698396094834
vn -0.3750479641099743 0.19876298097947684 0.9054459133538102
vn -0.9054459133538102 0.19876298097947684 0.3750479641099743
vn -0.6929982819890279 0.19876308087899985 0.6929982819890279
vn 0.10838597578001838 0.8314698141993604 -0.5448948782375317
vn 0 0.9669700517328992 -0.2548900136366162
vn 0.03806000873878834 0.9807852251937079 -0.19134204393319076
vn -0.20975796507802857 0.8363968607508075 -0.5064009156908378
vn -0.584380183633028 0.5630271769231543 -0.584380183633028
vn -0.9800476018689732 0.1987629192552637 0
vn 0 0.8363970581358705 -0.5481240380987329
vn 0.1913419586066159 0.19508995779580382 -0.9619397919016635
vn -0.9054459133538102 0.19876298097947684 -0.3750479641099743
vn -0.19509006590875128 0 -0.9807853313461202
vn 0.16221203318104252 0.5555701136438229 -0.8154931668119986
vn -0.3162639397003323 0.5630268926518953 -0.763529854423503
vn -0.6929982819890279 0.19876308087899985 -0.6929982819890279
vn -0.8314698396094834 0 -0.555569892830578
vn 0 0.5630267681878516 -0.8264386597346128
vn 0 0.1987629192552637 -0.9800476018689732
vn -0.3750479641099743 0.19876298097947684 -0.9054459133538102
usemtl material_0_0
f 1//1 2//2 3//3
f 2//2 1//1 4//4
f 5//5 3//3 2//2
f 6//6 1//1 3//3
f 7//7 4//4 1//1
f 4//4 8//8 2//2
f 3//3 5//5 9//9
f 2//2 10//10 5//5
f 1//1 6//6 11//11
f 3//3 12//12 6//6
f 4//4 7//7 13//13
f 1//1 14//14 7//7
f 8//8 4//4 15//15
f 10//10 2//2 8//8
f 16//16 9//9 5//5
f 12//12 3//3 9//9
f 17//17 5//5 10//10
f 18//18 11//11 6//6
f 14//14 1//1 11//11
f 19//19 6//6 12//12
f 20//20 13//13 7//7
f 21//21 4//4 13//13
f 22//22 7//7 14//14
f 4//4 21//21 15//15
f 15//15 23//23 8//8
f 8//8 24//24 10//10
f 25//25 9//9 16//16
f 16//16 5//5 17//17
f 25//25 12//12 9//9
f 17//17 10//10 26//26
f 11//11 18//18 27//27
f 6//6 19//19 18//18
f 11//11 28//28 14//14
f 29//29 19//19 12//12
f 13//13 20//20 30//30
f 7//7 22//22 20//20
f 13//13 31//31 21//21
f 14//14 32//32 22//22
f 33//33 15//15 21//21
f 23//23 15//15 34//34
f 24//24 8//8 23//23
f 26//26 10//10 24//24
f 16//16 35//35 25//25
f 17//17 36//36 16//16
f 29//29 12//12 25//25
f 26//26 37//37 17//17
f 38//38 27//27 18//18
f 28//28 11//11 27//27
f 39//39 18//18 19//19
f 32//32 14//14 28//28
f 40//40 19//19 29//29
f 20//41 41//41 30//41
f 31//31 13//13 30//30
f 22//41 42//41 20//41
f 43//42 21//21 31//31
f 32//41 44//41 22//41
f 15//15 33//33 34//34
f 21//21 43//42 33//33
f 45//43 23//23 34//34
f 46//44 24//24 23//23
f 26//26 24//24 47//45
f 35//35 16//16 36//36
f 35//35 29//29 25//25
f 36//36 17//17 37//37
f 37//37 26//26 46//44
f 27//27 38//38 48//46
f 18//18 39//39 38//38
f 27//27 49//47 28//28
f 40//40 39//39 19//19
f 28//28 50//48 32//32
f 51//49 40//40 29//29
f 20//41 42//41 41//41
f 30//41 41//41 52//41
f 30//41 52//41 31//41
f 22//41 53//41 42//41
f 31//41 54//41 43//41
f 32//41 55//41 44//41
f 22//41 44//41 53//41
f 33//33 45//43 34//34
f 54//50 33//33 43//42
f 56//51 23//23 45//43
f 46//44 47//45 24//24
f 46//44 23//23 57//52
f 47//45 46//44 26//26
f 36//36 58//53 35//35
f 29//29 35//35 51//49
f 37//37 59//54 36//36
f 46//44 60//55 37//37
f 61//56 48//46 38//38
f 49//47 27//27 48//46
f 62//57 38//38 39//39
f 50//48 28//28 49//47
f 63//58 39//39 40//40
f 50//41 55//41 32//41
f 40//40 51//49 64//59
f 65//20 41//30 42//20
f 41//30 66//31 52//31
f 31//41 52//41 67//41
f 68//22 42//20 53//22
f 31//41 69//41 54//41
f 70//48 44//32 55//48
f 71//32 53//22 44//32
f 72//60 45//43 33//33
f 54//50 72//60 33//33
f 56//51 57//52 23//23
f 72//60 56//51 45//43
f 57//52 56//51 46//44
f 58//53 36//36 59//54
f 58//53 51//49 35//35
f 59//54 37//37 60//55
f 60//55 46//44 56//51
f 48//46 61//56 73//61
f 38//38 62//57 61//56
f 48//46 74//62 49//47
f 63//58 62//57 39//39
f 74//62 50//48 49//47
f 64//59 63//58 40//40
f 50//41 75//41 55//41
f 76//63 64//59 51//49
f 41//30 65//20 77//30
f 42//20 68//22 65//20
f 66//31 41//30 77//30
f 78//42 52//31 66//31
f 52//31 78//42 67//42
f 31//41 67//41 69//41
f 53//22 71//32 68//22
f 69//64 72//60 54//50
f 44//32 70//48 71//32
f 75//65 70//48 55//48
f 56//51 72//60 79//66
f 80//67 58//53 59//54
f 51//49 58//53 76//63
f 81//68 59//54 60//55
f 79//66 60//55 56//51
f 82//69 73//61 61//56
f 74//62 48//46 73//61
f 83//70 61//56 62//57
f 63//58 84//71 62//57
f 50//48 74//62 85//72
f 63//58 64//59 86//73
f 75//41 50//41 85//41
f 64//59 76//63 87//74
f 65//41 88//41 77//41
f 68//41 89//41 65//41
f 77//41 90//41 66//41
f 66//41 91//41 78//41
f 91//50 67//42 78//42
f 92//41 69//41 67//41
f 71//41 93//41 68//41
f 72//60 69//64 79//66
f 70//41 94//41 71//41
f 70//48 75//65 95//65
f 58//53 80//67 96//75
f 59//54 81//68 80//67
f 96//75 76//63 58//53
f 60//55 79//66 81//68
f 97//76 73//61 82//69
f 83//70 82//69 61//56
f 73//61 98//77 74//62
f 83//70 62//57 84//71
f 84//71 63//58 83//70
f 98//77 85//72 74//62
f 87//74 86//73 64//59
f 86//73 83//70 63//58
f 85//41 99//41 75//41
f 100//78 87//74 76//63
f 65//41 101//41 88//41
f 77//41 88//41 90//41
f 68//41 93//41 89//41
f 65//41 89//41 101//41
f 66//41 90//41 91//41
f 67//42 91//50 92//50
f 102//41 69//41 92//41
f 71//41 94//41 93//41
f 103//79 79//66 69//64
f 94//41 70//41 95//41
f 104//80 95//80 75//80
f 105//81 96//75 80//67
f 103//79 80//67 81//68
f 76//63 96//75 100//78
f 79//66 103//79 81//68
f 97//76 106//82 73//61
f 82//69 83//70 97//76
f 106//82 98//77 73//61
f 98//77 107//83 85//72
f 86//73 87//74 108//84
f 83//70 86//73 97//76
f 85//41 109//41 99//41
f 75//41 99//41 104//41
f 87//74 100//78 110//85
f 111//81 88//79 101//81
f 88//79 102//64 90//64
f 112//86 89//87 93//86
f 113//87 101//81 89//87
f 90//64 92//50 91//50
f 102//41 103//41 69//41
f 92//50 90//64 102//64
f 104//88 93//86 94//88
f 95//80 104//80 94//80
f 96//75 105//81 114//87
f 80//67 103//79 105//81
f 114//87 100//78 96//75
f 106//82 97//76 115//89
f 115//89 98//77 106//82
f 116//90 107//83 98//77
f 107//41 109//41 85//41
f 87//74 117//91 108//84
f 108//84 97//76 86//73
f 109//92 110//85 99//93
f 104//41 99//41 118//41
f 118//86 110//85 100//78
f 117//91 87//74 110//85
f 88//79 111//81 119//79
f 101//81 113//87 111//81
f 102//64 88//79 119//79
f 89//87 112//86 113//87
f 93//86 104//88 112//86
f 119//41 103//41 102//41
f 113//41 114//41 105//41
f 119//41 105//41 103//41
f 100//78 114//87 118//86
f 97//76 108//84 115//89
f 98//77 115//89 116//90
f 107//83 116//90 120//94
f 109//41 107//41 120//41
f 116//90 108//84 117//91
f 110//85 109//92 117//91
f 110//85 118//86 99//93
f 104//41 118//41 112//41
f 111//41 105//41 119//41
f 113//41 105//41 111//41
f 112//41 114//41 113//41
f 112//41 118//41 114//41
f 108//84 116//90 115//89
f 117//91 120//94 116//90
f 120//94 117//91 109//92
usemtl material_1_0
f 3//95 2//96 1//97
f 4//98 1//97 2//96
f 2//96 3//95 5//99
f 3//95 1//97 6//100
f 1//97 4//98 7//101
f 2//96 8//102 4//98
f 9//103 5//99 3//95
f 5//99 10//104 2//96
f 11//105 6//100 1//97
f 6//100 12//106 3//95
f 13//107 7//101 4//98
f 7//101 14//108 1//97
f 15//109 4//98 8//102
f 8//102 2//96 10//104
f 5//99 9//103 16//110
f 9//103 3//95 12//106
f 10//104 5//99 17//111
f 6//100 11//105 18//112
f 11//105 1//97 14//108
f 12//106 6//100 19//113
f 7//101 13//107 20//86
f 13//107 4//98 21//114
f 14//108 7//101 22//87
f 15//109 21//114 4//98
f 8//102 23//115 15//109
f 10//104 24//116 8//102
f 16//110 9//103 25//117
f 17//111 5//99 16//110
f 9//103 12//106 25//117
f 26//118 10//104 17//111
f 27//119 18//112 11//105
f 18//112 19//113 6//100
f 14//108 28//120 11//105
f 12//106 19//113 29//121
f 30//93 20//86 13//107
f 20//86 22//87 7//101
f 21//114 31//92 13//107
f 22//87 32//81 14//108
f 21//114 15//109 33//122
f 34//123 15//109 23//115
f 23//115 8//102 24//116
f 24//116 10//104 26//118
f 25//117 35//124 16//110
f 16//110 36//125 17//111
f 25//117 12//106 29//121
f 17//111 37//126 26//118
f 18//112 27//119 38//127
f 27//119 11//105 28//120
f 19//113 18//112 39//128
f 28//120 14//108 32//81
f 29//121 19//113 40//129
f 30//130 41//130 20//130
f 30//93 13//107 31//92
f 20//130 42//130 22//130
f 31//92 21//114 43//94
f 22//130 44//130 32//130
f 34//123 33//122 15//109
f 33//122 43//94 21//114
f 34//123 23//115 45//131
f 23//115 24//116 46//132
f 47//133 24//116 26//118
f 36//125 16//110 35//124
f 25//117 29//121 35//124
f 37//126 17//111 36//125
f 46//132 26//118 37//126
f 48//134 38//127 27//119
f 38//127 39//128 18//112
f 28//120 49//135 27//119
f 19//113 39//128 40//129
f 32//81 50//79 28//120
f 29//121 40//129 51//136
f 41//130 42//130 20//130
f 52//130 41//130 30//130
f 31//130 52//130 30//130
f 42//130 53//130 22//130
f 43//130 54//130 31//130
f 44//130 55//130 32//130
f 53//130 44//130 22//130
f 34//123 45//131 33//122
f 43//94 33//122 54//83
f 45//131 23//115 56//137
f 24//116 47//133 46//132
f 57//138 23//115 46//132
f 26//118 46//132 47//133
f 35//124 58//139 36//125
f 51//136 35//124 29//121
f 36//125 59//140 37//126
f 37//126 60//141 46//132
f 38//127 48//134 61//142
f 48//134 27//119 49//135
f 39//128 38//127 62//143
f 49//135 28//120 50//79
f 40//129 39//128 63//144
f 32//130 55//130 50//130
f 64//145 51//136 40//129
f 42//86 41//93 65//86
f 52//92 66//92 41//93
f 67//130 52//130 31//130
f 53//87 42//86 68//87
f 54//130 69//130 31//130
f 55//79 44//81 70//79
f 44//81 53//87 71//81
f 33//122 45//131 72//146
f 33//122 72//146 54//83
f 23//115 57//138 56//137
f 45//131 56//137 72//146
f 46//132 56//137 57//138
f 59//140 36//125 58//139
f 35//124 51//136 58//139
f 60//141 37//126 59//140
f 56//137 46//132 60//141
f 73//147 61//142 48//134
f 61//142 62//143 38//127
f 49//135 74//148 48//134
f 39//128 62//143 63//144
f 49//135 50//79 74//148
f 40//129 63//144 64//145
f 55//130 75//130 50//130
f 51//136 64//145 76//149
f 77//93 65//86 41//93
f 65//86 68//87 42//86
f 77//93 41//93 66//92
f 66//92 52//92 78//94
f 67//94 78//94 52//92
f 69//130 67//130 31//130
f 68//87 71//81 53//87
f 54//83 72//146 69//72
f 71//81 70//79 44//81
f 55//79 70//79 75//150
f 79//151 72//146 56//137
f 59//140 58//139 80//152
f 76//149 58//139 51//136
f 60//141 59//140 81//153
f 56//137 60//141 79//151
f 61//142 73//147 82//154
f 73//147 48//134 74//148
f 62//143 61//142 83//155
f 62//143 84//156 63//144
f 85//64 74//148 50//79
f 86//157 64//145 63//144
f 85//130 50//130 75//130
f 87//158 76//149 64//145
f 77//130 88//130 65//130
f 65//130 89//130 68//130
f 66//130 90//130 77//130
f 78//130 91//130 66//130
f 78//94 67//94 91//83
f 67//130 69//130 92//130
f 68//130 93//130 71//130
f 79//151 69//72 72//146
f 71//130 94//130 70//130
f 95//150 75//150 70//79
f 96//159 80//152 58//139
f 80//152 81//153 59//140
f 58//139 76//149 96//159
f 81//153 79//151 60//141
f 82//154 73//147 97//160
f 61//142 82//154 83//155
f 74//148 98//161 73//147
f 84//156 62//143 83//155
f 83//155 63//144 84//156
f 74//148 85//64 98//161
f 64//145 86//157 87//158
f 63//144 83//155 86//157
f 75//130 99//130 85//130
f 76//149 87//158 100//162
f 88//130 101//130 65//130
f 90//130 88//130 77//130
f 89//130 93//130 68//130
f 101//130 89//130 65//130
f 91//130 90//130 66//130
f 92//83 91//83 67//94
f 92//130 69//130 102//130
f 93//130 94//130 71//130
f 69//72 79//151 103//48
f 95//130 70//130 94//130
f 75//163 95//163 104//163
f 80//152 96//159 105//32
f 81//153 80//152 103//48
f 100//162 96//159 76//149
f 81//153 103//48 79//151
f 73//147 106//164 97//160
f 97//160 83//155 82//154
f 73//147 98//161 106//164
f 85//64 107//50 98//161
f 108//165 87//158 86//157
f 97//160 86//157 83//155
f 99//130 109//130 85//130
f 104//130 99//130 75//130
f 110//166 100//162 87//158
f 101//32 88//48 111//32
f 90//72 102//72 88//48
f 93//20 89//22 112//20
f 89//22 101//32 113//22
f 91//83 92//83 90//72
f 69//130 103//130 102//130
f 102//72 90//72 92//83
f 94//167 93//20 104//167
f 94//163 104//163 95//163
f 114//22 105//32 96//159
f 105//32 103//48 80//152
f 96//159 100//162 114//22
f 115//168 97//160 106//164
f 106//164 98//161 115//168
f 98//161 107//50 116//169
f 85//130 109//130 107//130
f 108//165 117//170 87//158
f 86//157 97//160 108//165
f 99//30 110//166 109//31
f 118//130 99//130 104//130
f 100//162 110//166 118//20
f 110//166 87//158 117//170
f 119//48 111//32 88//48
f 111//32 113//22 101//32
f 119//48 88//48 102//72
f 113//22 112//20 89//22
f 112//20 104//167 93//20
f 102//130 103//130 119//130
f 105//130 114//130 113//130
f 103//130 105//130 119//130
f 118//20 114//22 100//162
f 115//168 108//165 97//160
f 116//169 115//168 98//161
f 120//42 116//169 107//50
f 120//130 107//130 109//130
f 117//170 108//165 116//169
f 117//170 109//31 110//166
f 99//30 118//20 110//166
f 112//130 118//130 104//130
f 119//130 105//130 111//130
f 111//130 105//130 113//130
f 113//130 114//130 112//130
f 114//130 118//130 112//130
f 115//168 116//169 108//165
f 116//169 120//42 117//170
f 109//31 117//170 120//42
