# SSTK version 0.8.0
# 3
mtllib original-3.mtl
o #ID30
v 0.270249 -0.952222 0.010556
v -0.274663 -0.952222 -0.029177
v 0.270249 -0.952222 -0.029177
v -0.274663 -0.952222 0.010556
v -0.274663 0.864153 0.010556
v -0.274663 -0.952222 -0.029177
v -0.274663 -0.952222 0.010556
v -0.274663 0.864153 -0.029177
v 0.270249 0.864153 -0.029177
v -0.274663 -0.952222 -0.029177
v -0.274663 0.864153 -0.029177
v 0.220232 -0.170710 -0.029177
v 0.222329 -0.162755 -0.029177
v 0.229857 -0.159435 -0.029177
v 0.237146 -0.163250 -0.029177
v 0.238707 -0.171327 -0.029177
v 0.270249 -0.952222 -0.029177
v 0.225144 -0.177310 -0.029177
v 0.233366 -0.177584 -0.029177
v 0.270249 0.864153 -0.029177
v 0.270249 -0.952222 0.010556
v 0.270249 -0.952222 -0.029177
v 0.270249 0.864153 0.010556
v 0.270249 -0.952222 0.010556
v -0.274663 0.864153 0.010556
v -0.274663 -0.952222 0.010556
v 0.219951 -0.171327 0.010556
v 0.225292 -0.177584 0.010556
v 0.233515 -0.177310 0.010556
v 0.238426 -0.170710 0.010556
v 0.270249 0.864153 0.010556
v 0.221512 -0.163250 0.010556
v 0.228801 -0.159435 0.010556
v 0.236329 -0.162755 0.010556
v -0.274663 0.864153 0.010556
v 0.270249 0.864153 -0.029177
v -0.274663 0.864153 -0.029177
v 0.270249 0.864153 0.010556
vt 0 0.4
vt 0.02916667 0
vt 0.02916667 0.4
vt 0 0
vt 0 1.333333
vt -0.02916667 0
vt -0.02916667 1.333333
vt -0.4 1.333333
vt -0.3632842 0.573679
vt -0.364824 0.5795185
vt -0.3703496 0.5819555
vt -0.3757001 0.5791549
vt -0.3768464 0.5732255
vt -0.4 0
vt -0.3668897 0.5688342
vt -0.3729254 0.5686324
vt 0.02916667 1.333333
vt 0.4 0
vt 0.3630779 0.5732255
vt 0.3669989 0.5686324
vt 0.3730346 0.5688342
vt 0.3766401 0.573679
vt 0.4 1.333333
vt 0.3642242 0.5791549
vt 0.3695747 0.5819555
vt 0.3751003 0.5795185
vt -0.02916667 0.4
vn 0 -1 0
vn 0 1 0
vn -1 0 0
vn 1 0 0
vn 0 0 -1
vn 0 0 1
usemtl material_0_2
f 1/1/1 2/2/1 3/3/1
f 3/3/2 2/2/2 1/1/2
f 2/2/1 1/1/1 4/4/1
f 4/4/2 1/1/2 2/2/2
f 5/5/3 6/6/3 7/4/3
f 7/4/4 6/6/4 5/5/4
f 6/6/3 5/5/3 8/7/3
f 8/7/4 5/5/4 6/6/4
f 9/8/5 10/4/5 11/5/5
f 11/5/6 10/4/6 9/8/6
f 10/4/5 9/8/5 12/9/5
f 12/9/6 9/8/6 10/4/6
f 12/9/5 9/8/5 13/10/5
f 13/10/6 9/8/6 12/9/6
f 13/10/5 9/8/5 14/11/5
f 14/11/6 9/8/6 13/10/6
f 14/11/5 9/8/5 15/12/5
f 15/12/6 9/8/6 14/11/6
f 15/12/5 9/8/5 16/13/5
f 16/13/6 9/8/6 15/12/6
f 12/9/5 17/14/5 10/4/5
f 10/4/6 17/14/6 12/9/6
f 17/14/5 12/9/5 18/15/5
f 18/15/6 12/9/6 17/14/6
f 17/14/5 18/15/5 19/16/5
f 19/16/6 18/15/6 17/14/6
f 17/14/5 19/16/5 16/13/5
f 16/13/6 19/16/6 17/14/6
f 17/14/5 16/13/5 9/8/5
f 9/8/6 16/13/6 17/14/6
f 20/17/4 21/4/4 22/2/4
f 22/2/3 21/4/3 20/17/3
f 21/4/4 20/17/4 23/5/4
f 23/5/3 20/17/3 21/4/3
f 24/18/6 25/5/6 26/4/6
f 26/4/5 25/5/5 24/18/5
f 25/5/6 24/18/6 27/19/6
f 27/19/5 24/18/5 25/5/5
f 27/19/6 24/18/6 28/20/6
f 28/20/5 24/18/5 27/19/5
f 28/20/6 24/18/6 29/21/6
f 29/21/5 24/18/5 28/20/5
f 29/21/6 24/18/6 30/22/6
f 30/22/5 24/18/5 29/21/5
f 27/19/6 31/23/6 25/5/6
f 25/5/5 31/23/5 27/19/5
f 31/23/6 27/19/6 32/24/6
f 32/24/5 27/19/5 31/23/5
f 31/23/6 32/24/6 33/25/6
f 33/25/5 32/24/5 31/23/5
f 31/23/6 33/25/6 34/26/6
f 34/26/5 33/25/5 31/23/5
f 31/23/6 34/26/6 30/22/6
f 30/22/5 34/26/5 31/23/5
f 31/23/6 30/22/6 24/18/6
f 24/18/5 30/22/5 31/23/5
f 35/4/2 36/27/2 37/6/2
f 37/6/1 36/27/1 35/4/1
f 36/27/2 35/4/2 38/1/2
f 38/1/1 35/4/1 36/27/1
