# SSTK version 0.8.0
# 14
mtllib original-14.mtl
o #ID119
v -1.029477 0.002158 0.149797
v -1.029483 0.002158 0.149704
v -1.029457 0.002158 0.149889
v -0.005980 0.002158 -0.062060
v 0.040091 0.002158 -0.151598
v 0.059766 0.002158 -0.080170
v -0.337457 0.002158 -0.047604
v -0.011924 0.002158 -0.060319
v -0.017808 0.002158 -0.058384
v -0.023626 0.002158 -0.056259
v -0.029373 0.002158 -0.053946
v -0.035040 0.002158 -0.051447
v -0.040623 0.002158 -0.048766
v -0.046116 0.002158 -0.045903
v -0.051513 0.002158 -0.042864
v -0.056809 0.002158 -0.039650
v -0.061997 0.002158 -0.036266
v -0.067072 0.002158 -0.032715
v -0.072028 0.002158 -0.029000
v -0.167873 0.002158 0.045292
v -0.173172 0.002158 0.049191
v -0.178658 0.002158 0.052821
v -0.184319 0.002158 0.056172
v -0.190140 0.002158 0.059236
v -0.196107 0.002158 0.062006
v -0.202204 0.002158 0.064475
v -0.208417 0.002158 0.066636
v -0.214731 0.002158 0.068485
v -0.221129 0.002158 0.070015
v -0.224827 0.002158 0.070707
v -0.341197 0.002158 -0.043180
v -1.000392 0.002158 0.166752
v -1.029725 0.002158 0.146472
v -1.003447 0.002158 0.166961
v -1.006507 0.002158 0.166833
v -1.009534 0.002158 0.166370
v -1.012493 0.002158 0.165577
v -1.015346 0.002158 0.164464
v -1.018059 0.002158 0.163045
v -1.020601 0.002158 0.161336
v -1.022939 0.002158 0.159359
v -1.025046 0.002158 0.157137
v -1.026897 0.002158 0.154697
v -1.028468 0.002158 0.152068
v -1.029425 0.002158 0.149976
vt -55.52647 16.35024
vt -55.52647 16.34734
vt -55.52606 16.35312
vt -23.41923 12.01219
vt -21.80098 9.343087
vt -21.34704 11.59437
vt -33.7006 11.74247
vt -23.6068 12.0532
vt -23.79294 12.10029
vt -23.97745 12.15342
vt -24.16013 12.21252
vt -24.34079 12.27753
vt -24.51924 12.3484
vt -24.69529 12.42503
vt -24.86875 12.50735
vt -25.03944 12.59527
vt -25.20718 12.6887
vt -25.37179 12.78754
vt -25.5331 12.89168
vt -28.65751 14.98173
vt -28.82978 15.09084
vt -29.00729 15.19121
vt -29.18958 15.2826
vt -29.3762 15.36478
vt -29.5667 15.43753
vt -29.76059 15.50069
vt -29.9574 15.55409
vt -30.15662 15.59759
vt -30.35776 15.6311
vt -30.47363 15.64449
vt -33.82583 11.87117
vt -54.66376 16.93744
vt -55.52696 16.24689
vt -54.75869 16.93728
vt -54.85302 16.92671
vt -54.94563 16.90584
vt -55.03539 16.87493
vt -55.12121 16.83435
vt -55.20205 16.78459
vt -55.27695 16.72626
vt -55.34498 16.66006
vt -55.40534 16.58679
vt -55.45728 16.50733
vt -55.50019 16.42265
vt -55.52524 16.3559
vn 0 -1 0
usemtl material_0_0
f 1/1/1 2/2/1 3/3/1
f 4/4/1 5/5/1 6/6/1
f 5/5/1 4/4/1 7/7/1
f 7/7/1 4/4/1 8/8/1
f 7/7/1 8/8/1 9/9/1
f 7/7/1 9/9/1 10/10/1
f 7/7/1 10/10/1 11/11/1
f 7/7/1 11/11/1 12/12/1
f 7/7/1 12/12/1 13/13/1
f 7/7/1 13/13/1 14/14/1
f 7/7/1 14/14/1 15/15/1
f 7/7/1 15/15/1 16/16/1
f 7/7/1 16/16/1 17/17/1
f 7/7/1 17/17/1 18/18/1
f 7/7/1 18/18/1 19/19/1
f 7/7/1 19/19/1 20/20/1
f 7/7/1 20/20/1 21/21/1
f 7/7/1 21/21/1 22/22/1
f 7/7/1 22/22/1 23/23/1
f 7/7/1 23/23/1 24/24/1
f 7/7/1 24/24/1 25/25/1
f 7/7/1 25/25/1 26/26/1
f 7/7/1 26/26/1 27/27/1
f 7/7/1 27/27/1 28/28/1
f 7/7/1 28/28/1 29/29/1
f 7/7/1 29/29/1 30/30/1
f 7/7/1 30/30/1 31/31/1
f 31/31/1 30/30/1 32/32/1
f 31/31/1 32/32/1 33/33/1
f 33/33/1 32/32/1 34/34/1
f 33/33/1 34/34/1 35/35/1
f 33/33/1 35/35/1 36/36/1
f 33/33/1 36/36/1 37/37/1
f 33/33/1 37/37/1 38/38/1
f 33/33/1 38/38/1 39/39/1
f 33/33/1 39/39/1 40/40/1
f 33/33/1 40/40/1 41/41/1
f 33/33/1 41/41/1 42/42/1
f 33/33/1 42/42/1 43/43/1
f 33/33/1 43/43/1 44/44/1
f 33/33/1 44/44/1 45/45/1
f 33/33/1 45/45/1 3/3/1
f 33/33/1 3/3/1 2/2/1
