# SSTK version 0.8.0
# 23
mtllib original-23.mtl
o #ID183
v -0.202902 0.012862 0.000318
v -0.202144 0.012862 0.002394
v -0.202108 0.012862 0.002317
v -0.202497 0.012862 0.002523
v -0.202560 0.012862 0.002482
v -0.202950 0.012862 0.001632
v -0.203174 0.012862 -0.000472
v -0.203167 0.012862 0.001379
v -0.203586 0.012862 -0.001730
v -0.203497 0.012862 0.001363
v -0.203663 0.012862 -0.001766
v -0.203776 0.012862 -0.000596
v -0.204017 0.012862 -0.001637
v -0.204038 0.012862 -0.001565
v -0.203813 0.012862 -0.000291
v -0.204491 0.012862 0.001666
v -0.204086 0.012862 -0.000075
v -0.205102 0.012862 0.000344
v -0.205984 0.012862 0.002204
v -0.206477 0.012862 0.000855
v -0.209254 0.012862 0.003398
v -0.209747 0.012862 0.002049
v -0.210626 0.012862 0.003916
v -0.211376 0.012862 0.002629
v -0.211650 0.012862 0.004334
v -0.212185 0.012862 0.002880
v -0.211925 0.012862 0.004546
v -0.211958 0.012862 0.004851
v -0.211721 0.012862 0.005893
v -0.211692 0.012862 0.005818
v -0.212074 0.012862 0.006022
v -0.212607 0.012862 0.002854
v -0.212144 0.012862 0.005983
v -0.212439 0.012862 0.005090
v -0.212826 0.012862 0.003943
v -0.212854 0.012862 0.002508
v -0.213171 0.012862 0.001771
v -0.213623 0.012862 0.001936
v -0.213241 0.012862 0.001733
v -0.213594 0.012862 0.001862
v -0.212144 0.012742 0.005983
v -0.212439 0.012862 0.005090
v -0.212439 0.012742 0.005090
v -0.212144 0.012862 0.005983
v -0.212074 0.012862 0.006022
v -0.212144 0.012742 0.005983
v -0.212074 0.012742 0.006022
v -0.212144 0.012862 0.005983
v -0.211721 0.012862 0.005893
v -0.212074 0.012742 0.006022
v -0.211721 0.012742 0.005893
v -0.212074 0.012862 0.006022
v -0.211721 0.012862 0.005893
v -0.211692 0.012742 0.005818
v -0.211692 0.012862 0.005818
v -0.211721 0.012742 0.005893
v -0.211692 0.012862 0.005818
v -0.211958 0.012742 0.004851
v -0.211958 0.012862 0.004851
v -0.211692 0.012742 0.005818
v -0.211925 0.012742 0.004546
v -0.211925 0.012862 0.004546
v -0.211650 0.012862 0.004334
v -0.211925 0.012742 0.004546
v -0.211650 0.012742 0.004334
v -0.211925 0.012862 0.004546
v -0.210626 0.012862 0.003916
v -0.210626 0.012742 0.003916
v -0.209254 0.012862 0.003398
v -0.209254 0.012742 0.003398
v -0.205984 0.012862 0.002204
v -0.205984 0.012742 0.002204
v -0.204491 0.012862 0.001666
v -0.204491 0.012742 0.001666
v -0.203497 0.012862 0.001363
v -0.203497 0.012742 0.001363
v -0.203167 0.012862 0.001379
v -0.203167 0.012742 0.001379
v -0.202950 0.012742 0.001632
v -0.203167 0.012862 0.001379
v -0.203167 0.012742 0.001379
v -0.202950 0.012862 0.001632
v -0.202560 0.012742 0.002482
v -0.202560 0.012862 0.002482
v -0.202497 0.012862 0.002523
v -0.202560 0.012742 0.002482
v -0.202497 0.012742 0.002523
v -0.202560 0.012862 0.002482
v -0.202144 0.012862 0.002394
v -0.202497 0.012742 0.002523
v -0.202144 0.012742 0.002394
v -0.202497 0.012862 0.002523
v -0.202144 0.012862 0.002394
v -0.202108 0.012742 0.002317
v -0.202108 0.012862 0.002317
v -0.202144 0.012742 0.002394
v -0.202108 0.012862 0.002317
v -0.202902 0.012742 0.000318
v -0.202902 0.012862 0.000318
v -0.202108 0.012742 0.002317
v -0.203174 0.012742 -0.000472
v -0.203174 0.012862 -0.000472
v -0.203586 0.012742 -0.001730
v -0.203586 0.012862 -0.001730
v -0.203663 0.012862 -0.001766
v -0.203586 0.012742 -0.001730
v -0.203663 0.012742 -0.001766
v -0.203586 0.012862 -0.001730
v -0.204017 0.012862 -0.001637
v -0.203663 0.012742 -0.001766
v -0.204017 0.012742 -0.001637
v -0.203663 0.012862 -0.001766
v -0.204038 0.012742 -0.001565
v -0.204017 0.012862 -0.001637
v -0.204017 0.012742 -0.001637
v -0.204038 0.012862 -0.001565
v -0.203776 0.012742 -0.000596
v -0.204038 0.012862 -0.001565
v -0.204038 0.012742 -0.001565
v -0.203776 0.012862 -0.000596
v -0.203813 0.012742 -0.000291
v -0.203813 0.012862 -0.000291
v -0.204086 0.012862 -0.000075
v -0.203813 0.012742 -0.000291
v -0.204086 0.012742 -0.000075
v -0.203813 0.012862 -0.000291
v -0.205102 0.012862 0.000344
v -0.205102 0.012742 0.000344
v -0.206477 0.012862 0.000855
v -0.206477 0.012742 0.000855
v -0.209747 0.012862 0.002049
v -0.209747 0.012742 0.002049
v -0.211376 0.012862 0.002629
v -0.211376 0.012742 0.002629
v -0.212185 0.012862 0.002880
v -0.212185 0.012742 0.002880
v -0.212607 0.012862 0.002854
v -0.212607 0.012742 0.002854
v -0.212607 0.012862 0.002854
v -0.212854 0.012742 0.002508
v -0.212854 0.012862 0.002508
v -0.212607 0.012742 0.002854
v -0.213171 0.012742 0.001771
v -0.213171 0.012862 0.001771
v -0.213241 0.012862 0.001733
v -0.213171 0.012742 0.001771
v -0.213241 0.012742 0.001733
v -0.213171 0.012862 0.001771
v -0.213594 0.012862 0.001862
v -0.213241 0.012742 0.001733
v -0.213594 0.012742 0.001862
v -0.213241 0.012862 0.001733
v -0.213623 0.012742 0.001936
v -0.213594 0.012862 0.001862
v -0.213594 0.012742 0.001862
v -0.213623 0.012862 0.001936
v -0.212826 0.012742 0.003943
v -0.213623 0.012862 0.001936
v -0.213623 0.012742 0.001936
v -0.212826 0.012862 0.003943
vn 0 1 0
vn -0.9497793855806035 0 0.31292030730863624
vn -0.948654704373452 0 0.3163135341241633
vn -0.48092637423271595 0 0.8767609837164139
vn 0.34313757006790135 0 0.9392851579833975
vn 0.9328418239094465 0 0.3602861800920168
vn 0.964372212571461 0 -0.26454911759449234
vn 0.9968081574282324 0 -0.07983418618945333
vn 0.9941846718348969 0 0.10768861726542182
vn 0.49946441099982813 0 0.8663344054951266
vn 0.6117793350734896 0 0.791028473050774
vn 0.3654182047919973 0 0.9308434538667572
vn 0.34794978825784995 0 0.9375131704948563
vn 0.34091089635578725 0 0.9400956125553899
vn 0.3152674562656113 0 0.9490028614392113
vn 0.12407843299218266 0 0.9922724134360507
vn -0.04714534538652352 0 0.9988880399766459
vn -0.8423239788056759 0 0.5389715342473804
vn -0.7598558872986535 0 0.6500915555039737
vn -0.9086627386869404 0 0.4175308699029922
vn -0.5455455543213058 0 0.8380811703887989
vn 0.9068098020614459 0 0.42154001338577707
vn 0.9293233807997436 0 -0.36926691416769886
vn 0.9375666477308268 0 -0.3478056656565271
vn 0.9479031836117136 0 -0.3185585574094318
vn 0.9504308795179208 0 -0.3109359150352231
vn 0.4215400133857771 0 -0.9068098020614459
vn -0.34313757006790135 0 -0.9392851579833975
vn -0.9573106676724793 0 -0.2890610412360539
vn -0.9973677029452518 0 0.07250975880329402
vn -0.9653529753726771 0 0.26094756741368524
vn -0.9929448459754366 0 -0.1185771177370074
vn -0.5054992319692699 0 -0.8628270547905172
vn -0.6198824444649312 0 -0.7846946890633205
vn -0.36474203679703604 0 -0.9311086115986414
vn -0.34554485870185275 0 -0.9384022328536504
vn -0.33905067553812906 0 -0.9407681113946934
vn -0.3159734892273443 0 -0.9487680191203207
vn -0.11959284832165594 0 -0.9928230207999376
vn 0.061606709436537274 0 -0.9981005026310737
vn 0.8145549790683491 0 -0.5800863608765177
vn 0.8714309821190573 0 -0.49051813769015246
vn 0.9184969569397404 0 -0.39542804666896947
vn 0.48092637423271595 0 -0.8767609837164139
vn -0.9328418239094465 0 -0.3602861800920168
vn -0.938764620587666 0 0.344559119938648
vn -0.9293593341308055 0 0.369176418618451
usemtl material_0_0
f 1//1 2//1 3//1
f 2//1 1//1 4//1
f 4//1 1//1 5//1
f 5//1 1//1 6//1
f 6//1 1//1 7//1
f 6//1 7//1 8//1
f 8//1 7//1 9//1
f 8//1 9//1 10//1
f 10//1 9//1 11//1
f 10//1 11//1 12//1
f 12//1 11//1 13//1
f 12//1 13//1 14//1
f 10//1 15//1 16//1
f 15//1 10//1 12//1
f 16//1 15//1 17//1
f 16//1 17//1 18//1
f 16//1 18//1 19//1
f 19//1 18//1 20//1
f 19//1 20//1 21//1
f 21//1 20//1 22//1
f 21//1 22//1 23//1
f 23//1 22//1 24//1
f 23//1 24//1 25//1
f 25//1 24//1 26//1
f 25//1 26//1 27//1
f 27//1 26//1 28//1
f 28//1 29//1 30//1
f 29//1 28//1 31//1
f 31//1 28//1 26//1
f 31//1 26//1 32//1
f 31//1 32//1 33//1
f 33//1 32//1 34//1
f 34//1 32//1 35//1
f 35//1 32//1 36//1
f 35//1 36//1 37//1
f 35//1 37//1 38//1
f 38//1 37//1 39//1
f 38//1 39//1 40//1
f 41//2 42//3 43//3
f 42//3 41//2 44//2
f 45//4 46//4 47//4
f 46//4 45//4 48//4
f 49//5 50//5 51//5
f 50//5 49//5 52//5
f 53//6 54//6 55//6
f 54//6 53//6 56//6
f 57//7 58//8 59//8
f 58//8 57//7 60//7
f 59//8 61//9 62//9
f 61//9 59//8 58//8
f 63//10 64//11 65//10
f 64//11 63//10 66//11
f 67//12 65//10 68//12
f 65//10 67//12 63//10
f 69//13 68//12 70//13
f 68//12 69//13 67//12
f 71//14 70//13 72//14
f 70//13 71//14 69//13
f 73//15 72//14 74//15
f 72//14 73//15 71//14
f 75//16 74//15 76//16
f 74//15 75//16 73//15
f 77//17 76//16 78//17
f 76//16 77//17 75//16
f 79//18 80//19 81//19
f 80//19 79//18 82//18
f 83//20 82//18 79//18
f 82//18 83//20 84//20
f 85//21 86//21 87//21
f 86//21 85//21 88//21
f 89//5 90//5 91//5
f 90//5 89//5 92//5
f 93//22 94//22 95//22
f 94//22 93//22 96//22
f 97//23 98//24 99//24
f 98//24 97//23 100//23
f 99//24 101//25 102//25
f 101//25 99//24 98//24
f 102//25 103//26 104//26
f 103//26 102//25 101//25
f 105//27 106//27 107//27
f 106//27 105//27 108//27
f 109//28 110//28 111//28
f 110//28 109//28 112//28
f 113//29 114//29 115//29
f 114//29 113//29 116//29
f 117//30 118//31 119//31
f 118//31 117//30 120//30
f 121//32 120//30 117//30
f 120//30 121//32 122//32
f 123//33 124//34 125//33
f 124//34 123//33 126//34
f 127//35 125//33 128//35
f 125//33 127//35 123//33
f 129//36 128//35 130//36
f 128//35 129//36 127//35
f 131//37 130//36 132//37
f 130//36 131//37 129//36
f 133//38 132//37 134//38
f 132//37 133//38 131//37
f 135//39 134//38 136//39
f 134//38 135//39 133//38
f 137//40 136//39 138//40
f 136//39 137//40 135//39
f 139//41 140//42 141//42
f 140//42 139//41 142//41
f 141//42 143//43 144//43
f 143//43 141//42 140//42
f 145//44 146//44 147//44
f 146//44 145//44 148//44
f 149//28 150//28 151//28
f 150//28 149//28 152//28
f 153//45 154//45 155//45
f 154//45 153//45 156//45
f 157//46 158//47 159//47
f 158//47 157//46 160//46
f 43//3 160//46 157//46
f 160//46 43//3 42//3
