# SSTK version 0.8.0
# 34
mtllib original-34.mtl
o #ID249
v -0.159111 0.012862 -0.029442
v -0.160118 0.012742 -0.029130
v -0.159111 0.012742 -0.029442
v -0.160118 0.012862 -0.029130
v -0.158757 0.012862 -0.029459
v -0.158757 0.012742 -0.029459
v -0.159264 0.012862 -0.031616
v -0.159081 0.012862 -0.030742
v -0.158932 0.012862 -0.031737
v -0.159300 0.012862 -0.031539
v -0.161100 0.012862 -0.038614
v -0.161361 0.012862 -0.036566
v -0.160951 0.012862 -0.037284
v -0.163004 0.012862 -0.037887
v -0.162597 0.012862 -0.037299
v -0.168064 0.012862 -0.035302
v -0.164944 0.012862 -0.037170
v -0.168299 0.012862 -0.035945
v -0.169139 0.012862 -0.034881
v -0.169417 0.012862 -0.035564
v -0.170170 0.012862 -0.034437
v -0.170410 0.012862 -0.035258
v -0.170425 0.012862 -0.034203
v -0.170753 0.012862 -0.035232
v -0.170420 0.012862 -0.033829
v -0.170586 0.012862 -0.032956
v -0.170670 0.012862 -0.032989
v -0.171021 0.012862 -0.035495
v -0.171231 0.012862 -0.034634
v -0.171337 0.012862 -0.036196
v -0.171414 0.012862 -0.036232
v -0.171779 0.012862 -0.036026
v -0.171739 0.012862 -0.036113
v -0.170261 0.012862 -0.033074
v -0.170225 0.012862 -0.033152
v -0.162648 0.012862 -0.034390
v -0.163585 0.012862 -0.035553
v -0.166881 0.012862 -0.027416
v -0.166528 0.012862 -0.030724
v -0.168629 0.012862 -0.027402
v -0.166935 0.012862 -0.026668
v -0.167237 0.012862 -0.026521
v -0.167421 0.012862 -0.026342
v -0.167510 0.012862 -0.025906
v -0.168165 0.012862 -0.026243
v -0.167649 0.012862 -0.024918
v -0.167734 0.012862 -0.024951
v -0.167317 0.012862 -0.025039
v -0.167281 0.012862 -0.025116
v -0.158471 0.012862 -0.030497
v -0.157789 0.012862 -0.028584
v -0.157748 0.012862 -0.028671
v -0.158114 0.012862 -0.028466
v -0.158193 0.012862 -0.028509
v -0.158494 0.012862 -0.029179
v -0.158855 0.012862 -0.031701
v -0.158757 0.012862 -0.029459
v -0.159111 0.012862 -0.029442
v -0.159116 0.012862 -0.030453
v -0.159326 0.012862 -0.030272
v -0.160118 0.012862 -0.029130
v -0.160314 0.012862 -0.029843
v -0.161228 0.012862 -0.028753
v -0.161463 0.012862 -0.029395
v -0.161228 0.012742 -0.028753
v -0.161228 0.012862 -0.028753
v -0.158494 0.012742 -0.029179
v -0.158757 0.012862 -0.029459
v -0.158757 0.012742 -0.029459
v -0.158494 0.012862 -0.029179
v -0.157789 0.012862 -0.028584
v -0.157748 0.012742 -0.028671
v -0.157748 0.012862 -0.028671
v -0.157789 0.012742 -0.028584
v -0.157748 0.012862 -0.028671
v -0.158471 0.012742 -0.030497
v -0.158471 0.012862 -0.030497
v -0.157748 0.012742 -0.028671
v -0.158855 0.012742 -0.031701
v -0.158855 0.012862 -0.031701
v -0.158932 0.012862 -0.031737
v -0.158855 0.012742 -0.031701
v -0.158932 0.012742 -0.031737
v -0.158855 0.012862 -0.031701
v -0.159264 0.012862 -0.031616
v -0.158932 0.012742 -0.031737
v -0.159264 0.012742 -0.031616
v -0.158932 0.012862 -0.031737
v -0.159300 0.012742 -0.031539
v -0.159264 0.012862 -0.031616
v -0.159264 0.012742 -0.031616
v -0.159300 0.012862 -0.031539
v -0.159081 0.012742 -0.030742
v -0.159300 0.012862 -0.031539
v -0.159300 0.012742 -0.031539
v -0.159081 0.012862 -0.030742
v -0.159116 0.012742 -0.030453
v -0.159116 0.012862 -0.030453
v -0.159326 0.012862 -0.030272
v -0.159116 0.012742 -0.030453
v -0.159326 0.012742 -0.030272
v -0.159116 0.012862 -0.030453
v -0.160314 0.012862 -0.029843
v -0.160314 0.012742 -0.029843
v -0.161463 0.012862 -0.029395
v -0.161463 0.012742 -0.029395
v -0.166881 0.012862 -0.027416
v -0.166881 0.012742 -0.027416
v -0.166881 0.012862 -0.027416
v -0.162648 0.012742 -0.034390
v -0.162648 0.012862 -0.034390
v -0.166881 0.012742 -0.027416
v -0.161361 0.012742 -0.036566
v -0.161361 0.012862 -0.036566
v -0.160951 0.012742 -0.037284
v -0.160951 0.012862 -0.037284
v -0.160951 0.012862 -0.037284
v -0.161100 0.012742 -0.038614
v -0.161100 0.012862 -0.038614
v -0.160951 0.012742 -0.037284
v -0.163004 0.012862 -0.037887
v -0.161100 0.012742 -0.038614
v -0.163004 0.012742 -0.037887
v -0.161100 0.012862 -0.038614
v -0.164944 0.012862 -0.037170
v -0.164944 0.012742 -0.037170
v -0.168299 0.012862 -0.035945
v -0.168299 0.012742 -0.035945
v -0.169417 0.012862 -0.035564
v -0.169417 0.012742 -0.035564
v -0.170410 0.012862 -0.035258
v -0.170410 0.012742 -0.035258
v -0.170753 0.012862 -0.035232
v -0.170753 0.012742 -0.035232
v -0.170753 0.012862 -0.035232
v -0.171021 0.012742 -0.035495
v -0.171021 0.012862 -0.035495
v -0.170753 0.012742 -0.035232
v -0.171337 0.012742 -0.036196
v -0.171337 0.012862 -0.036196
v -0.171414 0.012862 -0.036232
v -0.171337 0.012742 -0.036196
v -0.171414 0.012742 -0.036232
v -0.171337 0.012862 -0.036196
v -0.171739 0.012862 -0.036113
v -0.171414 0.012742 -0.036232
v -0.171739 0.012742 -0.036113
v -0.171414 0.012862 -0.036232
v -0.171779 0.012742 -0.036026
v -0.171739 0.012862 -0.036113
v -0.171739 0.012742 -0.036113
v -0.171779 0.012862 -0.036026
v -0.171231 0.012742 -0.034634
v -0.171779 0.012862 -0.036026
v -0.171779 0.012742 -0.036026
v -0.171231 0.012862 -0.034634
v -0.170670 0.012742 -0.032989
v -0.170670 0.012862 -0.032989
v -0.170586 0.012862 -0.032956
v -0.170670 0.012742 -0.032989
v -0.170586 0.012742 -0.032956
v -0.170670 0.012862 -0.032989
v -0.170261 0.012862 -0.033074
v -0.170586 0.012742 -0.032956
v -0.170261 0.012742 -0.033074
v -0.170586 0.012862 -0.032956
v -0.170261 0.012862 -0.033074
v -0.170225 0.012742 -0.033152
v -0.170225 0.012862 -0.033152
v -0.170261 0.012742 -0.033074
v -0.170225 0.012862 -0.033152
v -0.170420 0.012742 -0.033829
v -0.170420 0.012862 -0.033829
v -0.170225 0.012742 -0.033152
v -0.170425 0.012742 -0.034203
v -0.170425 0.012862 -0.034203
v -0.170170 0.012862 -0.034437
v -0.170425 0.012742 -0.034203
v -0.170170 0.012742 -0.034437
v -0.170425 0.012862 -0.034203
v -0.169139 0.012862 -0.034881
v -0.169139 0.012742 -0.034881
v -0.168064 0.012862 -0.035302
v -0.168064 0.012742 -0.035302
v -0.162597 0.012862 -0.037299
v -0.162597 0.012742 -0.037299
v -0.163585 0.012742 -0.035553
v -0.162597 0.012862 -0.037299
v -0.162597 0.012742 -0.037299
v -0.163585 0.012862 -0.035553
v -0.166528 0.012742 -0.030724
v -0.166528 0.012862 -0.030724
v -0.168629 0.012742 -0.027402
v -0.168629 0.012862 -0.027402
v -0.168165 0.012742 -0.026243
v -0.168629 0.012862 -0.027402
v -0.168629 0.012742 -0.027402
v -0.168165 0.012862 -0.026243
v -0.167734 0.012742 -0.024951
v -0.167734 0.012862 -0.024951
v -0.167649 0.012862 -0.024918
v -0.167734 0.012742 -0.024951
v -0.167649 0.012742 -0.024918
v -0.167734 0.012862 -0.024951
v -0.167317 0.012862 -0.025039
v -0.167649 0.012742 -0.024918
v -0.167317 0.012742 -0.025039
v -0.167649 0.012862 -0.024918
v -0.167317 0.012862 -0.025039
v -0.167281 0.012742 -0.025116
v -0.167281 0.012862 -0.025116
v -0.167317 0.012742 -0.025039
v -0.167281 0.012862 -0.025116
v -0.167510 0.012742 -0.025906
v -0.167510 0.012862 -0.025906
v -0.167281 0.012742 -0.025116
v -0.167421 0.012742 -0.026342
v -0.167421 0.012862 -0.026342
v -0.167237 0.012862 -0.026521
v -0.167421 0.012742 -0.026342
v -0.167237 0.012742 -0.026521
v -0.167421 0.012862 -0.026342
v -0.166935 0.012862 -0.026668
v -0.166935 0.012742 -0.026668
v -0.158193 0.012742 -0.028509
v -0.158193 0.012862 -0.028509
v -0.158114 0.012862 -0.028466
v -0.158193 0.012742 -0.028509
v -0.158114 0.012742 -0.028466
v -0.158193 0.012862 -0.028509
v -0.157789 0.012862 -0.028584
v -0.158114 0.012742 -0.028466
v -0.157789 0.012742 -0.028584
v -0.158114 0.012862 -0.028466
vn 0.17358285308758103 0 0.9848192692641506
vn 0.30892260690154 0 0.9510871794662972
vn 0.048617067033421876 0 0.998817491233042
vn 0 1 0
vn 0.33258121069208646 0 0.9430746196853068
vn -0.832466530318261 0 0.5540753341377649
vn -0.7299303118193027 0 0.6835215723643078
vn 0.9068098020614459 0 0.42154001338577707
vn 0.9297479046214294 0 -0.36819673253854557
vn 0.9418035105136419 0 -0.3361638701350587
vn 0.9527558595507702 0 -0.3037371760118815
vn 0.4215400133857771 0 -0.9068098020614459
vn -0.34313757006790135 0 -0.9392851579833975
vn -0.9068098020614459 0 -0.42154001338577707
vn -0.9972233576190671 0 0.07446861767854979
vn -0.964236766834852 0 0.265042369224
vn -0.992907347760414 0 -0.11889070091213969
vn -0.5312875655432754 0 -0.8471915501815985
vn -0.6522987118179362 0 -0.7579619980979662
vn -0.3807523092937531 0 -0.9246770673956798
vn -0.35313924477762804 0 -0.9355707743393262
vn 0.8548616662065062 0 0.5188559835355435
vn 0.8577868971797211 0 0.5140054854053471
vn 0.8645707584633693 0 0.5025110979969244
vn 0.8684058854922058 0 0.4958540289666889
vn 0.9937246579133264 0 -0.11185394161603011
vn -0.35176226028191526 0 -0.9360893719305641
vn -0.35696275938649996 0 -0.9341186158144884
vn -0.3448448191511565 0 -0.9386597097482167
vn -0.33264852212327856 0 -0.943050879183726
vn -0.3086467786751081 0 -0.9511767270142173
vn -0.1854360452054016 0 -0.9826563352152065
vn -0.0733910837134365 0 -0.9973032381534551
vn 0.6995937143630536 0 -0.7145408559513627
vn 0.8197567867504743 0 -0.5727118041183868
vn 0.9115934862718965 0 -0.4110928311058828
vn -0.9386868916463506 0 0.34477082163563766
vn -0.9303699864017536 0 0.3666219966161342
vn -0.946490666073022 0 0.32273118696005665
vn -0.367562831870238 0 0.9299986906590412
vn 0.34313757006790135 0 0.9392851579833975
vn 0.9608206827776522 0 -0.27717073356811417
vn 0.9892528967311633 0 -0.14621458993206626
vn 0.9999202040850443 0 -0.012632713980899306
vn 0.5430384559347446 0 0.8397078273876031
vn 0.674924468313264 0 0.7378868219937647
vn 0.38032394813297815 0 0.9248533367386116
vn 0.3538217030701492 0 0.935312890126368
vn -0.8622972935948273 0 -0.5064023869010059
vn -0.8704101813655806 0 -0.49232724500593855
vn -0.8495623854507399 0 -0.5274881545847722
vn -0.8451082102173302 0 -0.534595279649251
vn -0.9388565239911886 0 0.3443086222550672
vn -0.9285285759647214 0 0.3712609373701021
vn -0.9484022878329822 0 0.3170695514128807
vn 0.9606241918480409 0 -0.27785097091120303
vn 0.9991746720696241 0 -0.040619880533539474
vn 0.9800081099298574 0 0.19895754439505065
vn 0.5743839346081444 0 0.8185860343690621
vn 0.6958458058969751 0 0.7181912102049073
vn 0.39142576280079605 0 0.9202096892642541
vn -0.9123014107218602 0 0.40951939635981066
vn -0.4740622299162639 0 0.8804913413355178
usemtl material_0_0
f 1//1 2//2 3//1
f 2//2 1//1 4//2
f 5//3 3//1 6//3
f 3//1 5//3 1//1
f 7//4 8//4 9//4
f 8//4 7//4 10//4
f 11//4 12//4 13//4
f 12//4 11//4 14//4
f 12//4 14//4 15//4
f 15//4 14//4 16//4
f 16//4 14//4 17//4
f 16//4 17//4 18//4
f 16//4 18//4 19//4
f 19//4 18//4 20//4
f 19//4 20//4 21//4
f 21//4 20//4 22//4
f 21//4 22//4 23//4
f 23//4 22//4 24//4
f 23//4 24//4 25//4
f 25//4 24//4 26//4
f 26//4 24//4 27//4
f 27//4 24//4 28//4
f 27//4 28//4 29//4
f 29//4 28//4 30//4
f 29//4 30//4 31//4
f 29//4 31//4 32//4
f 32//4 31//4 33//4
f 25//4 34//4 35//4
f 34//4 25//4 26//4
f 15//4 36//4 12//4
f 36//4 15//4 37//4
f 36//4 37//4 38//4
f 38//4 37//4 39//4
f 38//4 39//4 40//4
f 38//4 40//4 41//4
f 41//4 40//4 42//4
f 42//4 40//4 43//4
f 43//4 40//4 44//4
f 44//4 40//4 45//4
f 44//4 45//4 46//4
f 46//4 45//4 47//4
f 44//4 48//4 49//4
f 48//4 44//4 46//4
f 50//4 51//4 52//4
f 51//4 50//4 53//4
f 53//4 50//4 54//4
f 54//4 50//4 55//4
f 55//4 50//4 56//4
f 55//4 56//4 57//4
f 57//4 56//4 9//4
f 57//4 9//4 58//4
f 58//4 9//4 8//4
f 58//4 8//4 59//4
f 58//4 59//4 60//4
f 58//4 60//4 61//4
f 61//4 60//4 62//4
f 61//4 62//4 63//4
f 63//4 62//4 64//4
f 63//4 64//4 41//4
f 41//4 64//4 38//4
f 4//2 65//5 2//2
f 65//5 4//2 66//5
f 67//6 68//7 69//7
f 68//7 67//6 70//6
f 71//8 72//8 73//8
f 72//8 71//8 74//8
f 75//9 76//10 77//10
f 76//10 75//9 78//9
f 77//10 79//11 80//11
f 79//11 77//10 76//10
f 81//12 82//12 83//12
f 82//12 81//12 84//12
f 85//13 86//13 87//13
f 86//13 85//13 88//13
f 89//14 90//14 91//14
f 90//14 89//14 92//14
f 93//15 94//16 95//16
f 94//16 93//15 96//15
f 97//17 96//15 93//15
f 96//15 97//17 98//17
f 99//18 100//19 101//18
f 100//19 99//18 102//19
f 103//20 101//18 104//20
f 101//18 103//20 99//18
f 105//21 104//20 106//21
f 104//20 105//21 103//20
f 107//13 106//21 108//13
f 106//21 107//13 105//21
f 109//22 110//23 111//23
f 110//23 109//22 112//22
f 111//23 113//24 114//24
f 113//24 111//23 110//23
f 114//24 115//25 116//25
f 115//25 114//24 113//24
f 117//26 118//26 119//26
f 118//26 117//26 120//26
f 121//27 122//28 123//27
f 122//28 121//27 124//28
f 125//29 123//27 126//29
f 123//27 125//29 121//27
f 127//30 126//29 128//30
f 126//29 127//30 125//29
f 129//31 128//30 130//31
f 128//30 129//31 127//30
f 131//32 130//31 132//32
f 130//31 131//32 129//31
f 133//33 132//32 134//33
f 132//32 133//33 131//32
f 135//34 136//35 137//35
f 136//35 135//34 138//34
f 137//35 139//36 140//36
f 139//36 137//35 136//35
f 141//12 142//12 143//12
f 142//12 141//12 144//12
f 145//13 146//13 147//13
f 146//13 145//13 148//13
f 149//14 150//14 151//14
f 150//14 149//14 152//14
f 153//37 154//38 155//38
f 154//38 153//37 156//37
f 157//39 156//37 153//37
f 156//37 157//39 158//39
f 159//40 160//40 161//40
f 160//40 159//40 162//40
f 163//41 164//41 165//41
f 164//41 163//41 166//41
f 167//8 168//8 169//8
f 168//8 167//8 170//8
f 171//42 172//43 173//43
f 172//43 171//42 174//42
f 173//43 175//44 176//44
f 175//44 173//43 172//43
f 177//45 178//46 179//45
f 178//46 177//45 180//46
f 181//47 179//45 182//47
f 179//45 181//47 177//45
f 183//48 182//47 184//48
f 182//47 183//48 181//47
f 185//41 184//48 186//41
f 184//48 185//41 183//48
f 187//49 188//50 189//50
f 188//50 187//49 190//49
f 191//51 190//49 187//49
f 190//49 191//51 192//51
f 193//52 192//51 191//51
f 192//51 193//52 194//52
f 195//53 196//54 197//54
f 196//54 195//53 198//53
f 199//55 198//53 195//53
f 198//53 199//55 200//55
f 201//40 202//40 203//40
f 202//40 201//40 204//40
f 205//41 206//41 207//41
f 206//41 205//41 208//41
f 209//8 210//8 211//8
f 210//8 209//8 212//8
f 213//56 214//57 215//57
f 214//57 213//56 216//56
f 215//57 217//58 218//58
f 217//58 215//57 214//57
f 219//59 220//60 221//59
f 220//60 219//59 222//60
f 223//61 221//59 224//61
f 221//59 223//61 219//59
f 66//5 224//61 65//5
f 224//61 66//5 223//61
f 225//62 70//6 67//6
f 70//6 225//62 226//62
f 227//63 228//63 229//63
f 228//63 227//63 230//63
f 231//41 232//41 233//41
f 232//41 231//41 234//41
