mtllib new-1.mtl
v -0.327439 0.749907 -0.593101
v 0.324616 0.749907 -0.593101
v -0.327439 0.554291 0.406717
v 0.324616 0.749907 0.450187
v 0.324616 0.554291 0.406717
v -0.327439 0.554291 0.450187
v -0.327439 0.749907 0.450187
v -0.283969 0.510820 0.406717
v 0.324616 0.554291 0.450187
v 0.281146 0.510820 0.406717
v 0.281146 0.510820 -0.549630
v -0.283969 0.510820 -0.549630
vn 0.000000 -1.000000 0.000000
vn -1.000000 0.000000 0.000000
vn 0.000000 0.000000 -1.000000
vn 1.000000 0.000000 0.000000
vn 0.000000 1.000000 0.000000
vn 0.000000 0.000000 1.000000
vt 0.000000 0.868132
vt 1.000000 1.000000
vt 0.000000 1.000000
vt 1.000000 0.868132
usemtl material-0
f 1//5 4//5 2//5
f 4//5 1//5 7//5
f 4//4 5//4 2//4
f 1//2 6//2 7//2
f 5//1 6//1 3//1
f 5//4 4//4 9//4
f 6//1 5//1 9//1
f 3//6 8//6 5//6
f 10//6 5//6 8//6
f 8//1 11//1 10//1
f 11//1 8//1 12//1
usemtl material-1
f 2//1 4//1 1//1
f 7//1 1//1 4//1
f 2//2 5//2 4//2
f 7//4 6//4 1//4
f 3//5 6//5 5//5
f 7//3 4//3 6//3
f 9//2 4//2 5//2
f 9//5 5//5 6//5
f 5//3 8//3 3//3
f 9//3 6//3 4//3
f 8//3 5//3 10//3
f 10//5 11//5 8//5
f 12//5 8//5 11//5
usemtl material-2
f 6/1/6 4/2/6 7/3/6
f 4/2/6 6/1/6 9/4/6