# SSTK version 0.8.0
# 49
mtllib original-49.mtl
o mesh26/mesh26-geometry#mesh26-geometry
v -0.016034 0.452555 0.305470
v -0.021678 0.449070 0.302574
v -0.016085 0.448999 0.302563
v -0.021732 0.452628 0.305482
v -0.021700 0.444733 0.301059
v -0.016241 0.438509 0.292333
v -0.015542 0.452549 0.305469
v -0.015995 0.454903 0.309419
v -0.022627 0.449082 0.302576
v -0.021429 0.438746 0.291991
v -0.016144 0.444662 0.301047
v -0.022686 0.444746 0.301061
v -0.016047 0.453265 0.294739
v -0.015594 0.448992 0.302562
v -0.015504 0.454897 0.309418
v -0.021856 0.454978 0.309431
v -0.022576 0.452639 0.305484
v -0.021238 0.453281 0.294362
v -0.021796 0.440140 0.301118
v -0.022745 0.440152 0.301120
v -0.014960 0.438675 0.291954
v -0.016203 0.440069 0.301106
v -0.015711 0.440062 0.301105
v -0.015763 0.435766 0.302732
v -0.022034 0.455837 0.313945
v -0.015975 0.455759 0.313932
v -0.020250 0.439651 0.290098
v -0.015653 0.444656 0.301046
v -0.021953 0.435845 0.302745
v -0.014769 0.453195 0.294322
v -0.016254 0.435772 0.302733
v -0.015801 0.432285 0.305730
v -0.022537 0.454987 0.309432
v -0.015484 0.455753 0.313931
v -0.022796 0.435856 0.302747
v -0.020075 0.452995 0.292274
v -0.022372 0.430124 0.309752
v -0.022153 0.432367 0.305744
v -0.014945 0.440409 0.288387
v -0.016293 0.432292 0.305731
v -0.022517 0.455104 0.318480
v -0.022517 0.455843 0.313946
v -0.022644 0.447227 0.305888
v -0.022686 0.444135 0.304807
v -0.014784 0.452684 0.290389
v -0.016313 0.430046 0.309739
v -0.015653 0.443068 0.310780
v -0.022607 0.449763 0.307961
v -0.015484 0.455014 0.318466
v -0.022728 0.440860 0.304849
v -0.022835 0.432375 0.305745
v -0.022855 0.429391 0.314287
v -0.015638 0.444172 0.311165
v -0.015822 0.430040 0.309738
v -0.022566 0.452048 0.313995
v -0.022580 0.451438 0.310776
v -0.018208 0.447170 0.305878
v -0.018171 0.449707 0.307952
v -0.022538 0.452858 0.322488
v -0.018250 0.444078 0.304798
v -0.022855 0.430130 0.309753
v -0.018250 0.443102 0.310785
v -0.015668 0.441900 0.310795
v -0.022566 0.451521 0.317228
v -0.018144 0.451381 0.310767
v -0.015505 0.452768 0.322474
v -0.022580 0.449919 0.320086
v -0.015625 0.445077 0.311905
v -0.022765 0.437796 0.306009
v -0.018291 0.440803 0.304840
v -0.022792 0.435314 0.308147
v -0.015822 0.429300 0.314273
v -0.022807 0.433713 0.311005
v -0.018235 0.444205 0.311171
v -0.018265 0.441933 0.310800
v -0.015681 0.440806 0.311209
v -0.018129 0.451991 0.313986
v -0.018328 0.437739 0.306000
v -0.015543 0.449287 0.325472
v -0.015615 0.445133 0.316232
v -0.022608 0.447437 0.322224
v -0.015615 0.445675 0.312910
v -0.015696 0.439349 0.312992
v -0.022835 0.430246 0.318801
v -0.022807 0.433186 0.314238
v -0.018618 0.443106 0.310786
v -0.018633 0.441938 0.310801
v -0.018356 0.435257 0.308138
v -0.018278 0.440840 0.311214
v -0.015691 0.439921 0.311972
v -0.018129 0.451464 0.317219
v -0.022576 0.449377 0.325486
v -0.015802 0.430156 0.318786
v -0.015610 0.445704 0.315213
v -0.015625 0.444247 0.316995
v -0.018171 0.447381 0.322215
v -0.015610 0.445892 0.314059
v -0.018222 0.445110 0.311911
v -0.015696 0.439161 0.314146
v -0.022792 0.433796 0.317457
v -0.018370 0.433656 0.310996
v -0.018603 0.444210 0.311172
v -0.018646 0.440844 0.311215
v -0.018144 0.449863 0.320077
v -0.022628 0.445081 0.327113
v -0.015764 0.432504 0.322735
v -0.018212 0.445166 0.316238
v -0.015638 0.443154 0.317409
v -0.022645 0.444374 0.323384
v -0.018207 0.445926 0.314064
v -0.018212 0.445708 0.312915
v -0.018293 0.439382 0.312997
v -0.018293 0.439194 0.314151
v -0.015691 0.439379 0.315294
v -0.022765 0.435470 0.320273
v -0.018370 0.433129 0.314229
v -0.018590 0.445115 0.311911
v -0.018288 0.439954 0.311977
v -0.015595 0.444991 0.327099
v -0.022686 0.441099 0.323426
v -0.015653 0.441985 0.317424
v -0.018207 0.445737 0.315218
v -0.018235 0.443187 0.317415
v -0.018222 0.444280 0.317001
v -0.018356 0.433739 0.317448
v -0.018208 0.444317 0.323375
v -0.018288 0.439412 0.315299
v -0.015681 0.439976 0.316299
v -0.022797 0.432594 0.322750
v -0.022728 0.438006 0.322346
v -0.018329 0.435413 0.320263
v -0.018580 0.445713 0.312916
v -0.018656 0.439959 0.311978
v -0.022686 0.440488 0.327173
v -0.015668 0.440881 0.317039
v -0.015712 0.436061 0.325643
v -0.018580 0.445171 0.316239
v -0.018250 0.442018 0.317430
v -0.018575 0.445930 0.314065
v -0.018575 0.445742 0.315219
v -0.018661 0.439387 0.312998
v -0.018661 0.439199 0.314152
v -0.018656 0.439417 0.315300
v -0.018292 0.437950 0.322337
v -0.018265 0.440915 0.317044
v -0.015653 0.440398 0.327158
v -0.022745 0.436151 0.325657
v -0.018603 0.443192 0.317415
v -0.018618 0.442023 0.317431
v -0.018590 0.444285 0.317001
v -0.018250 0.441042 0.323417
v -0.018278 0.440010 0.316304
v -0.018633 0.440919 0.317045
v -0.018646 0.440014 0.316305
vn -0.008356687023458615 -0.7576433704062143 0.652615268792804
vn -0.004459673697087243 -0.48876955635046 0.8724015314609953
vn 0.004459673697087243 0.48876955635046 -0.8724015314609953
vn 0.008356687023458615 0.7576433704062143 -0.652615268792804
vn -0.012971209442752256 -0.9868807913123464 -0.16092871547461357
vn 0.012971209442752256 0.9868807913123464 0.16092871547461357
vn 0.9999158685120236 -0.012806211777251747 -0.0020632105470508966
vn -0.9999158685120236 0.012806211777251747 0.0020632105470508966
vn -0.011245770689890248 -0.9351348997688975 0.3541133319656356
vn 0.011245770689890248 0.9351348997688975 -0.3541133319656356
vn -0.998862772334255 0.020173265868593186 -0.043199553110202744
vn -0.9592147507621894 0.057732434856478596 -0.2767201255524672
vn 0.998862772334255 -0.020173265868593186 0.043199553110202744
vn 0.9592147507621894 -0.057732434856478596 0.2767201255524672
vn 0.00002474278922363694 0.16094183642836135 -0.9869638922852553
vn -0.00002474278922363694 -0.16094183642836135 0.9869638922852553
vn 0.01219741201315454 0.9824099494107886 -0.18633817225376287
vn -0.01219741201315454 -0.9824099494107886 0.18633817225376287
vn -0.004413168615701594 -0.18629760715116794 -0.9824834479585488
vn 0.004413168615701594 0.18629760715116794 0.9824834479585488
vn 0.2988918711314834 -0.1574111224823644 0.941214846828482
vn -0.2988918711314834 0.1574111224823644 -0.941214846828482
vn 0.012778444638696311 0.9998351303250168 -0.01290052404256175
vn -0.012778444638696311 -0.9998351303250168 0.01290052404256175
vn -0.8643980853384132 0.09197130104356378 -0.4943250245007218
vn 0.8643980853384132 -0.09197130104356378 0.4943250245007218
vn -0.01241914369252958 -0.8992578493566753 -0.43724259312234354
vn 0.01241914369252958 0.8992578493566753 0.43724259312234354
vn 0.0124333373785597 0.9915786546498478 -0.12890765595738946
vn -0.0124333373785597 -0.9915786546498478 0.12890765595738946
vn 0.008318776753506361 0.511065993418498 0.859501220664921
vn -0.008318776753506361 -0.511065993418498 -0.859501220664921
vn 0.9999158598321257 -0.012819036494012802 -0.001986343259774369
vn -0.9999158598321257 0.012819036494012802 0.001986343259774369
vn -0.011221022889685503 -0.7741926778712904 -0.6328505243545187
vn 0.011221022889685503 0.7741926778712904 0.6328505243545187
vn 0.012769851269767618 0.9439406408099942 0.3298681517299988
vn -0.012769851269767618 -0.9439406408099942 -0.3298681517299988
vn -0.32326619091373926 0.15643876988018823 -0.9332876732768388
vn 0.32326619091373926 -0.15643876988018823 0.9332876732768388
vn 0.012180484826262855 0.872318995491018 0.48878543952836645
vn -0.012180484826262855 -0.872318995491018 -0.48878543952836645
usemtl material_0_0
f 1//1 2//2 3//2
f 2//2 1//1 4//1
f 3//3 2//3 1//4
f 4//4 1//4 2//3
f 5//5 3//2 2//2
f 2//3 3//3 5//6
f 6//7 1//7 3//7
f 3//8 1//8 6//8
f 7//4 3//3 1//4
f 1//1 3//2 7//1
f 8//9 4//1 1//1
f 1//4 4//4 8//10
f 9//3 4//4 2//3
f 2//2 4//1 9//2
f 4//11 10//12 2//11
f 2//13 10//14 4//13
f 3//2 5//5 11//5
f 11//6 5//6 3//3
f 2//11 10//12 5//11
f 5//13 10//14 2//13
f 12//15 2//3 5//15
f 5//16 2//2 12//16
f 13//7 1//7 6//7
f 6//8 1//8 13//8
f 6//7 3//7 11//7
f 11//8 3//8 6//8
f 3//3 7//4 14//3
f 14//2 7//1 3//2
f 1//4 15//10 7//4
f 7//1 15//9 1//1
f 4//1 8//9 16//9
f 16//10 8//10 4//4
f 1//7 13//7 8//7
f 8//8 13//8 1//8
f 15//10 1//4 8//10
f 8//9 1//1 15//9
f 4//4 9//3 17//4
f 17//1 9//2 4//1
f 2//3 12//15 9//3
f 9//2 12//16 2//2
f 4//11 18//12 10//12
f 10//14 18//14 4//13
f 11//5 19//17 5//5
f 5//6 19//18 11//6
f 14//3 11//15 3//3
f 3//2 11//16 14//2
f 10//12 19//11 5//11
f 5//13 19//13 10//14
f 5//15 20//19 12//15
f 12//16 20//20 5//16
f 21//21 13//21 6//21
f 6//22 13//22 21//22
f 22//7 6//7 11//7
f 11//8 6//8 22//8
f 23//7 14//7 7//7
f 7//8 14//8 23//8
f 24//7 7//7 15//7
f 15//8 7//8 24//8
f 8//9 25//18 16//9
f 16//10 25//17 8//10
f 16//11 18//12 4//11
f 4//13 18//14 16//13
f 17//4 16//10 4//4
f 4//1 16//9 17//1
f 8//7 13//7 26//7
f 26//8 13//8 8//8
f 26//23 15//10 8//10
f 8//9 15//9 26//24
f 9//8 20//8 17//8
f 17//7 20//7 9//7
f 20//8 9//8 12//8
f 12//7 9//7 20//7
f 18//12 27//25 10//12
f 10//14 27//26 18//14
f 19//17 11//5 22//17
f 22//18 11//6 19//18
f 20//19 5//15 19//19
f 19//20 5//16 20//20
f 11//15 14//3 28//15
f 28//16 14//2 11//16
f 19//11 10//12 29//11
f 29//13 10//14 19//13
f 13//21 21//21 30//21
f 30//22 21//22 13//22
f 27//27 21//27 6//27
f 6//28 21//28 27//28
f 31//7 6//7 22//7
f 22//8 6//8 31//8
f 28//15 22//19 11//15
f 11//16 22//20 28//16
f 14//7 23//7 28//7
f 28//8 23//8 14//8
f 23//7 7//7 24//7
f 24//8 7//8 23//8
f 24//7 15//7 32//7
f 32//8 15//8 24//8
f 25//18 8//9 26//18
f 26//17 8//10 25//17
f 18//12 16//11 25//11
f 25//13 16//13 18//14
f 33//10 25//23 16//10
f 16//9 25//24 33//9
f 16//10 17//4 33//10
f 33//9 17//1 16//9
f 13//29 25//29 26//29
f 26//30 25//30 13//30
f 15//10 26//23 34//23
f 34//24 26//24 15//9
f 17//8 20//8 35//8
f 35//7 20//7 17//7
f 27//25 18//12 36//25
f 36//26 18//14 27//26
f 27//27 37//27 10//27
f 10//28 37//28 27//28
f 29//31 22//17 19//17
f 19//18 22//18 29//32
f 19//19 35//32 20//19
f 20//20 35//31 19//20
f 29//11 10//12 38//11
f 38//13 10//14 29//13
f 35//32 19//19 29//32
f 29//31 19//20 35//31
f 39//33 30//33 21//33
f 21//34 30//34 39//34
f 30//29 36//29 13//29
f 13//30 36//30 30//30
f 21//27 27//27 39//27
f 39//28 27//28 21//28
f 6//27 37//27 27//27
f 27//28 37//28 6//28
f 40//7 6//7 31//7
f 31//8 6//8 40//8
f 23//19 31//32 22//19
f 22//20 31//31 23//20
f 22//17 29//31 31//31
f 31//32 29//32 22//18
f 22//19 28//15 23//19
f 23//20 28//16 22//20
f 31//32 23//19 24//32
f 24//31 23//20 31//31
f 32//7 15//7 34//7
f 34//8 15//8 32//8
f 32//35 31//32 24//32
f 24//31 31//31 32//36
f 41//37 26//23 25//23
f 25//24 26//24 41//38
f 25//29 36//29 18//29
f 18//30 36//30 25//30
f 25//23 33//10 42//23
f 42//24 33//9 25//24
f 17//8 43//8 33//8
f 33//7 43//7 17//7
f 25//29 13//29 36//29
f 36//30 13//30 25//30
f 41//37 34//23 26//23
f 26//24 34//24 41//38
f 17//8 35//8 44//8
f 44//7 35//7 17//7
f 36//39 39//39 27//39
f 27//40 39//40 36//40
f 38//11 10//12 37//11
f 37//13 10//14 38//13
f 40//36 29//31 38//36
f 38//35 29//32 40//35
f 38//35 35//32 29//32
f 29//31 35//31 38//36
f 30//33 39//33 45//33
f 45//34 39//34 30//34
f 36//29 30//29 45//29
f 45//30 30//30 36//30
f 37//27 6//27 46//27
f 46//28 6//28 37//28
f 6//7 40//7 46//7
f 46//8 40//8 6//8
f 29//31 40//36 31//31
f 31//32 40//35 29//32
f 31//32 32//35 40//35
f 40//36 32//36 31//31
f 32//7 34//7 47//7
f 47//8 34//8 32//8
f 41//37 25//23 42//23
f 42//24 25//24 41//38
f 33//8 48//8 42//8
f 42//7 48//7 33//7
f 43//8 17//8 44//8
f 44//7 17//7 43//7
f 33//8 43//8 48//8
f 48//7 43//7 33//7
f 34//23 41//37 49//37
f 49//38 41//38 34//24
f 44//8 35//8 50//8
f 50//7 35//7 44//7
f 39//39 36//39 45//39
f 45//40 36//40 39//40
f 37//41 40//36 38//36
f 38//35 40//35 37//42
f 37//38 51//35 38//35
f 38//36 51//36 37//37
f 35//32 38//35 51//35
f 51//36 38//36 35//31
f 40//36 37//41 46//41
f 46//42 37//42 40//35
f 46//38 52//24 37//38
f 37//37 52//23 46//37
f 32//35 46//38 40//35
f 40//36 46//37 32//36
f 34//7 53//7 47//7
f 47//8 53//8 34//8
f 32//7 47//7 54//7
f 54//8 47//8 32//8
f 42//8 55//8 41//8
f 41//7 55//7 42//7
f 42//8 48//8 56//8
f 56//7 48//7 42//7
f 44//16 57//2 43//2
f 43//3 57//3 44//15
f 43//2 58//1 48//1
f 48//4 58//4 43//3
f 59//36 49//37 41//37
f 41//38 49//38 59//35
f 53//7 34//7 49//7
f 49//8 34//8 53//8
f 50//8 35//8 51//8
f 51//7 35//7 50//7
f 50//20 60//16 44//16
f 44//15 60//15 50//19
f 51//35 37//38 61//38
f 61//37 37//37 51//36
f 54//38 52//24 46//38
f 46//37 52//23 54//37
f 37//38 52//24 61//38
f 61//37 52//23 37//37
f 46//38 32//35 54//38
f 54//37 32//36 46//37
f 53//2 62//16 47//16
f 47//15 62//15 53//3
f 54//7 47//7 63//7
f 63//8 47//8 54//8
f 42//8 56//8 55//8
f 55//7 56//7 42//7
f 41//8 55//8 64//8
f 64//7 55//7 41//7
f 48//1 65//9 56//9
f 56//10 65//10 48//4
f 57//2 44//16 60//16
f 60//15 44//15 57//3
f 58//1 43//2 57//2
f 57//3 43//3 58//4
f 65//9 48//1 58//1
f 58//4 48//4 65//10
f 49//37 59//36 66//36
f 66//35 59//35 49//38
f 41//8 67//8 59//8
f 59//7 67//7 41//7
f 53//7 49//7 68//7
f 68//8 49//8 53//8
f 50//8 51//8 69//8
f 69//7 51//7 50//7
f 60//16 50//20 70//20
f 70//19 50//19 60//15
f 71//8 51//8 61//8
f 61//7 51//7 71//7
f 52//24 54//38 72//24
f 72//23 54//37 52//23
f 73//8 61//8 52//8
f 52//7 61//7 73//7
f 62//16 53//2 74//2
f 74//3 53//3 62//15
f 75//20 47//16 62//16
f 62//15 47//15 75//19
f 47//16 75//20 63//20
f 63//19 75//19 47//15
f 54//7 63//7 76//7
f 76//8 63//8 54//8
f 65//9 55//24 56//9
f 56//10 55//23 65//10
f 77//24 64//38 55//24
f 55//23 64//37 77//23
f 41//8 64//8 67//8
f 67//7 64//7 41//7
f 70//8 57//8 60//8
f 60//7 57//7 70//7
f 57//8 70//8 58//8
f 58//7 70//7 57//7
f 58//8 78//8 65//8
f 65//7 78//7 58//7
f 59//36 79//31 66//36
f 66//35 79//32 59//35
f 80//7 49//7 66//7
f 66//8 49//8 80//8
f 59//8 67//8 81//8
f 81//7 67//7 59//7
f 68//7 49//7 82//7
f 82//8 49//8 68//8
f 68//1 74//2 53//2
f 53//3 74//3 68//4
f 69//8 51//8 71//8
f 71//7 51//7 69//7
f 69//31 70//20 50//20
f 50//19 70//19 69//32
f 71//8 61//8 73//8
f 73//7 61//7 71//7
f 54//7 83//7 72//7
f 72//8 83//8 54//8
f 72//24 84//9 52//24
f 52//23 84//10 72//23
f 73//8 52//8 85//8
f 85//7 52//7 73//7
f 86//15 74//3 62//15
f 62//16 74//2 86//16
f 65//8 62//8 74//8
f 74//7 62//7 65//7
f 87//19 62//15 75//19
f 75//20 62//16 87//20
f 88//8 75//8 62//8
f 62//7 75//7 88//7
f 89//31 63//20 75//20
f 75//19 63//19 89//32
f 63//20 89//31 76//31
f 76//32 89//32 63//19
f 54//7 76//7 90//7
f 90//8 76//8 54//8
f 55//24 65//9 77//24
f 77//23 65//10 55//23
f 64//38 77//24 91//38
f 91//37 77//23 64//37
f 91//38 67//35 64//38
f 64//37 67//36 91//37
f 58//8 70//8 78//8
f 78//7 70//7 58//7
f 65//8 78//8 88//8
f 88//7 78//7 65//7
f 79//31 59//36 92//31
f 92//32 59//35 79//32
f 93//7 66//7 79//7
f 79//8 66//8 93//8
f 94//7 49//7 80//7
f 80//8 49//8 94//8
f 80//7 66//7 95//7
f 95//8 66//8 80//8
f 67//35 96//32 81//32
f 81//31 96//31 67//36
f 59//8 81//8 92//8
f 92//7 81//7 59//7
f 82//7 49//7 97//7
f 97//8 49//8 82//8
f 82//9 98//1 68//1
f 68//4 98//4 82//10
f 74//2 68//1 98//1
f 98//4 68//4 74//3
f 88//36 69//31 71//36
f 71//35 69//32 88//35
f 70//20 69//31 78//31
f 78//32 69//32 70//19
f 73//37 88//36 71//36
f 71//35 88//35 73//38
f 54//7 90//7 83//7
f 83//8 90//8 54//8
f 72//7 83//7 99//7
f 99//8 83//8 72//8
f 84//9 72//24 93//9
f 93//10 72//23 84//10
f 100//8 52//8 84//8
f 84//7 52//7 100//7
f 85//8 52//8 100//8
f 100//7 52//7 85//7
f 85//23 101//37 73//37
f 73//38 101//38 85//24
f 74//3 86//15 102//3
f 102//2 86//16 74//2
f 62//15 87//19 86//15
f 86//16 87//20 62//16
f 65//8 88//8 62//8
f 62//7 88//7 65//7
f 65//8 74//8 77//8
f 77//7 74//7 65//7
f 75//19 103//32 87//19
f 87//20 103//31 75//20
f 75//8 88//8 101//8
f 101//7 88//7 75//7
f 103//32 75//19 89//32
f 89//31 75//20 103//31
f 75//8 101//8 89//8
f 89//7 101//7 75//7
f 89//31 90//36 76//31
f 76//32 90//35 89//32
f 77//8 98//8 91//8
f 91//7 98//7 77//7
f 67//35 91//38 104//35
f 104//36 91//37 67//36
f 69//31 88//36 78//31
f 78//32 88//35 69//32
f 105//20 79//31 92//31
f 92//32 79//32 105//19
f 72//7 66//7 93//7
f 93//8 66//8 72//8
f 93//7 79//7 106//7
f 106//8 79//8 93//8
f 97//7 49//7 94//7
f 94//8 49//8 97//8
f 107//35 94//38 80//35
f 80//36 94//37 107//36
f 95//7 66//7 108//7
f 108//8 66//8 95//8
f 95//32 107//35 80//35
f 80//36 107//36 95//31
f 96//32 67//35 104//35
f 104//36 67//36 96//31
f 96//32 109//19 81//32
f 81//31 109//20 96//31
f 92//8 81//8 109//8
f 109//7 81//7 92//7
f 110//24 82//9 97//24
f 97//23 82//10 110//23
f 98//1 82//9 111//9
f 111//10 82//10 98//4
f 102//3 98//4 74//3
f 74//2 98//1 102//2
f 77//8 74//8 98//8
f 98//7 74//7 77//7
f 88//36 73//37 101//37
f 101//38 73//38 88//35
f 90//36 112//37 83//37
f 83//38 112//38 90//35
f 83//37 113//23 99//23
f 99//24 113//24 83//38
f 72//7 99//7 114//7
f 114//8 99//8 72//8
f 106//1 84//9 93//9
f 93//10 84//10 106//4
f 100//8 84//8 115//8
f 115//7 84//7 100//7
f 100//10 116//23 85//23
f 85//24 116//24 100//9
f 101//37 85//23 116//23
f 116//24 85//24 101//38
f 87//8 102//8 86//8
f 86//7 102//7 87//7
f 117//8 87//8 103//8
f 103//7 87//7 117//7
f 118//35 103//32 89//32
f 89//31 103//31 118//36
f 89//8 101//8 118//8
f 118//7 101//7 89//7
f 90//36 89//31 118//36
f 118//35 89//32 90//35
f 91//8 98//8 111//8
f 111//7 98//7 91//7
f 91//8 107//8 104//8
f 104//7 107//7 91//7
f 79//31 105//20 119//20
f 119//19 105//19 79//32
f 92//8 120//8 105//8
f 105//7 120//7 92//7
f 121//7 66//7 72//7
f 72//8 66//8 121//8
f 106//7 79//7 119//7
f 119//8 79//8 106//8
f 122//38 97//24 94//38
f 94//37 97//23 122//37
f 94//38 107//35 122//38
f 122//37 107//36 94//37
f 108//7 66//7 121//7
f 121//8 66//8 108//8
f 123//19 95//32 108//19
f 108//20 95//31 123//20
f 107//35 95//32 124//32
f 124//31 95//31 107//36
f 104//8 125//8 96//8
f 96//7 125//7 104//7
f 109//19 96//32 126//19
f 126//20 96//31 109//20
f 92//8 109//8 120//8
f 120//7 109//7 92//7
f 82//9 110//24 111//9
f 111//10 110//23 82//10
f 97//24 122//38 110//24
f 110//23 122//37 97//23
f 117//4 111//10 98//4
f 98//1 111//9 117//1
f 98//4 102//3 117//4
f 117//1 102//2 98//1
f 112//37 90//36 118//36
f 118//35 90//35 112//38
f 113//23 83//37 112//37
f 112//38 83//38 113//24
f 127//10 99//23 113//23
f 113//24 99//24 127//9
f 99//23 127//10 114//10
f 114//9 127//9 99//24
f 72//7 114//7 128//7
f 128//8 114//8 72//8
f 84//9 106//1 129//1
f 129//4 106//4 84//10
f 115//8 84//8 130//8
f 130//7 84//7 115//7
f 131//4 100//10 115//4
f 115//1 100//9 131//1
f 116//23 100//10 125//10
f 125//9 100//9 116//24
f 112//8 101//8 116//8
f 116//7 101//7 112//7
f 102//8 87//8 117//8
f 117//7 87//7 102//7
f 117//8 103//8 132//8
f 132//7 103//7 117//7
f 103//32 118//35 133//35
f 133//36 118//36 103//31
f 118//8 101//8 112//8
f 112//7 101//7 118//7
f 91//8 111//8 110//8
f 110//7 111//7 91//7
f 91//8 122//8 107//8
f 107//7 122//7 91//7
f 104//8 107//8 124//8
f 124//7 107//7 104//7
f 134//16 119//20 105//20
f 105//19 119//19 134//15
f 105//8 120//8 129//8
f 129//7 120//7 105//7
f 72//7 135//7 121//7
f 121//8 135//8 72//8
f 106//7 119//7 136//7
f 136//8 119//8 106//8
f 122//37 137//36 107//36
f 107//35 137//35 122//38
f 138//15 108//19 121//15
f 121//16 108//20 138//16
f 95//32 123//19 124//32
f 124//31 123//20 95//31
f 108//19 138//15 123//19
f 123//20 138//16 108//20
f 137//36 124//31 107//36
f 107//35 124//32 137//35
f 138//8 125//8 104//8
f 104//7 125//7 138//7
f 96//8 125//8 131//8
f 131//7 125//7 96//7
f 96//8 131//8 126//8
f 126//7 131//7 96//7
f 126//19 120//15 109//19
f 109//20 120//16 126//20
f 111//10 139//23 110//23
f 110//24 139//24 111//9
f 110//23 140//37 122//37
f 122//38 140//38 110//24
f 91//8 110//8 122//8
f 122//7 110//7 91//7
f 111//10 117//4 132//10
f 132//9 117//1 111//9
f 141//38 118//35 112//38
f 112//37 118//36 141//37
f 142//24 112//38 113//24
f 113//23 112//37 142//23
f 112//8 116//8 113//8
f 113//7 116//7 112//7
f 143//9 113//24 127//9
f 127//10 113//23 143//10
f 113//8 116//8 127//8
f 127//7 116//7 113//7
f 127//10 128//4 114//10
f 114//9 128//1 127//9
f 72//7 128//7 135//7
f 135//8 128//8 72//8
f 136//2 129//1 106//1
f 106//4 129//4 136//3
f 130//8 84//8 129//8
f 129//7 84//7 130//7
f 144//3 115//4 130//3
f 130//2 115//1 144//2
f 100//10 131//4 125//10
f 125//9 131//1 100//9
f 115//4 144//3 131//4
f 131//1 144//2 115//1
f 145//8 116//8 125//8
f 125//7 116//7 145//7
f 132//8 103//8 133//8
f 133//7 103//7 132//7
f 118//35 141//38 133//35
f 133//36 141//37 118//36
f 104//8 124//8 123//8
f 123//7 124//7 104//7
f 119//20 134//16 146//16
f 146//15 134//15 119//19
f 105//8 147//8 134//8
f 134//7 147//7 105//7
f 130//8 129//8 120//8
f 120//7 129//7 130//7
f 105//8 129//8 147//8
f 147//7 129//7 105//7
f 145//3 121//15 135//3
f 135//2 121//16 145//2
f 136//7 119//7 146//7
f 146//8 119//8 136//8
f 137//36 122//37 140//37
f 140//38 122//38 137//35
f 121//15 145//3 138//15
f 138//16 145//2 121//16
f 124//31 148//20 123//20
f 123//19 148//19 124//32
f 123//20 149//16 138//16
f 138//15 149//15 123//19
f 104//8 123//8 138//8
f 138//7 123//7 104//7
f 124//31 137//36 150//31
f 150//32 137//35 124//32
f 145//8 125//8 138//8
f 138//7 125//7 145//7
f 126//8 131//8 144//8
f 144//7 131//7 126//7
f 120//15 126//19 151//15
f 151//16 126//20 120//16
f 139//23 111//10 132//10
f 132//9 111//9 139//24
f 140//37 110//23 139//23
f 139//24 110//24 140//38
f 112//38 142//24 141//38
f 141//37 142//23 112//37
f 113//24 143//9 142//24
f 142//23 143//10 113//23
f 152//1 143//9 127//9
f 127//10 143//10 152//4
f 127//8 116//8 152//8
f 152//7 116//7 127//7
f 128//4 127//10 152//4
f 152//1 127//9 128//1
f 152//4 135//3 128//4
f 128//1 135//2 152//1
f 129//1 136//2 147//2
f 147//3 136//3 129//4
f 130//3 151//15 144//3
f 144//2 151//16 130//2
f 152//8 116//8 145//8
f 145//7 116//7 152//7
f 132//8 133//8 139//8
f 139//7 133//7 132//7
f 139//8 133//8 141//8
f 141//7 133//7 139//7
f 147//2 146//16 134//16
f 134//15 146//15 147//3
f 151//15 130//3 120//15
f 120//16 130//2 151//16
f 135//3 152//4 145//3
f 145//2 152//1 135//2
f 146//16 147//2 136//2
f 136//3 147//3 146//15
f 140//8 142//8 137//8
f 137//7 142//7 140//7
f 138//16 153//2 145//2
f 145//3 153//3 138//15
f 148//20 124//31 150//31
f 150//32 124//32 148//19
f 149//16 123//20 148//20
f 148//19 123//19 149//15
f 153//2 138//16 149//16
f 149//15 138//15 153//3
f 137//8 143//8 150//8
f 150//7 143//7 137//7
f 126//8 144//8 151//8
f 151//7 144//7 126//7
f 139//8 141//8 140//8
f 140//7 141//7 139//7
f 140//8 141//8 142//8
f 142//7 141//7 140//7
f 137//8 142//8 143//8
f 143//7 142//7 137//7
f 143//9 152//1 154//1
f 154//4 152//4 143//10
f 145//2 154//1 152//1
f 152//4 154//4 145//3
f 154//1 145//2 153//2
f 153//3 145//3 154//4
f 150//8 154//8 148//8
f 148//7 154//7 150//7
f 148//8 153//8 149//8
f 149//7 153//7 148//7
f 150//8 143//8 154//8
f 154//7 143//7 150//7
f 148//8 154//8 153//8
f 153//7 154//7 148//7
