# SSTK version 0.8.0
# 56
mtllib original-56.mtl
o berenice-head_pivot/mesh45/mesh45-geometry#mesh45-geometry
v -0.007504 0.435009 0.348961
v -0.001530 0.434318 0.363996
v -0.007795 0.436330 0.364436
v -0.001239 0.432997 0.348521
v -0.002231 0.437500 0.401271
v -0.012236 0.441178 0.364442
v -0.006941 0.432454 0.319027
v 0.004860 0.435783 0.364421
v -0.008483 0.439450 0.400986
v 0.004167 0.438928 0.401269
v -0.011945 0.439857 0.348967
v -0.012914 0.444256 0.400493
v -0.000609 0.430137 0.315014
v -0.001142 0.433018 0.348510
v -0.013119 0.445138 0.364176
v -0.014336 0.450629 0.399922
v -0.014993 0.429583 0.314055
v 0.009640 0.436193 0.325503
v -0.009981 0.436193 0.325503
v 0.005150 0.434466 0.349003
v 0.008996 0.443351 0.400982
v -0.013663 0.447573 0.364124
v 0.010963 0.449585 0.400487
v -0.014993 0.436193 0.325503
v 0.012746 0.429583 0.314055
v 0.005734 0.431813 0.317917
v -0.011503 0.437854 0.325503
v 0.009682 0.440237 0.364500
v -0.013370 0.446243 0.348537
v -0.012370 0.456862 0.399427
v 0.009540 0.455958 0.399916
v -0.014993 0.449412 0.325503
v 0.012746 0.436193 0.302607
v 0.010415 0.436908 0.325503
v 0.009972 0.438921 0.349081
v -0.011689 0.453775 0.363263
v 0.011643 0.446496 0.364301
v -0.014993 0.456021 0.314055
v -0.014993 0.436193 0.302607
v 0.012746 0.456021 0.314055
v 0.012746 0.436193 0.325503
v 0.012373 0.443184 0.325503
v -0.012937 0.444277 0.325503
v 0.010835 0.443903 0.364286
v -0.011398 0.452454 0.347788
v -0.007540 0.461286 0.399140
v 0.005109 0.460764 0.399423
v 0.010226 0.452843 0.363427
v -0.005997 0.454280 0.317071
v 0.012746 0.449412 0.302607
v 0.012746 0.449412 0.325503
v 0.011936 0.445166 0.348718
v -0.006849 0.458149 0.362393
v 0.010835 0.450116 0.363731
v 0.000441 0.455524 0.314916
v -0.010947 0.450405 0.323782
v -0.014993 0.449412 0.302607
v -0.011335 0.449412 0.325503
v 0.010983 0.449412 0.325503
v 0.010516 0.451527 0.348009
v -0.006558 0.456828 0.346918
v -0.001143 0.462714 0.399139
v 0.005802 0.457617 0.362563
v -0.005154 0.455359 0.327011
v -0.010157 0.452142 0.333596
v 0.010945 0.449581 0.325210
v -0.002129 0.459153 0.361837
v -0.010157 0.452562 0.337690
v 0.000973 0.459093 0.361954
v 0.006643 0.453804 0.317895
v -0.006200 0.455201 0.327862
v -0.001142 0.456165 0.326019
v -0.008371 0.453394 0.329762
v -0.002151 0.457765 0.346399
v -0.008371 0.454572 0.341233
v -0.001142 0.457815 0.344438
v -0.000109 0.458023 0.344183
v 0.006092 0.456301 0.347145
v 0.001039 0.457845 0.346508
v 0.002870 0.455716 0.326979
v -0.008371 0.464802 0.328743
v -0.005154 0.456845 0.343606
v -0.005154 0.464574 0.326188
v 0.000227 0.456496 0.326304
v -0.010157 0.465132 0.332436
v -0.010157 0.465498 0.336534
v 0.006409 0.454863 0.330303
v -0.006477 0.456458 0.342581
v -0.008371 0.465828 0.340227
v 0.006087 0.454911 0.329627
v -0.001142 0.464493 0.325275
v 0.007872 0.453472 0.333478
v 0.007872 0.453738 0.337585
v -0.001142 0.466138 0.343695
v 0.002870 0.457036 0.343589
v 0.002870 0.464574 0.326188
v 0.006087 0.464802 0.328743
v -0.005154 0.466057 0.342783
v 0.007872 0.465132 0.332436
v 0.006087 0.455824 0.341121
v 0.006210 0.455765 0.340868
v 0.002870 0.466057 0.342783
v 0.007872 0.465498 0.336534
v 0.006087 0.465828 0.340227
vn -0.536665963311906 -0.8415329424702854 0.06174099577920026
vn -0.04297301499318012 -0.9955243473360166 0.08417002936671772
vn 0.536665963311906 0.8415329424702854 -0.06174099577920026
vn 0.04297301499318012 0.9955243473360166 -0.08417002936671772
vn -0.8865595946916428 -0.46205378876291775 0.022767989591160477
vn 0.8865595946916428 0.46205378876291775 -0.022767989591160477
vn 0.4622348298751956 -0.8827656750994772 0.08404596906701266
vn -0.4622348298751956 0.8827656750994772 -0.08404596906701266
vn 0.21702610076773776 -0.9722744514383136 0.08707504042995179
vn -0.21702610076773776 0.9722744514383136 -0.08707504042995179
vn -0.018734994882302663 0.08503597677136296 0.9962017278750829
vn 0.018734994882302663 -0.08503597677136296 -0.9962017278750829
vn -0.9759860267390895 -0.21783300596797098 0.0002390000065478349
vn 0.9759860267390895 0.21783300596797098 -0.0002390000065478349
vn -0.9989005376460074 0.041232980914783175 -0.022305989675385083
vn 0.9989005376460074 -0.041232980914783175 0.022305989675385083
vn 0 -0.866021954741694 0.5000059738696883
vn 0 0.866021954741694 -0.5000059738696883
vn -0.7367159132601786 -0.6747859205517226 0.043744994849530074
vn 0.7367159132601786 0.6747859205517226 -0.043744994849530074
vn 0.8435867722256971 -0.533470855959154 0.06140198342103677
vn -0.8435867722256971 0.533470855959154 -0.06140198342103677
vn -1 0 0
vn 1 0 0
vn 0 -0.866025302838276 -0.500000174843842
vn 0 0.866025302838276 0.500000174843842
vn 0 0 1
vn 0 0 -1
vn 0.6759429320836233 -0.7330979263408899 0.07528999243512528
vn -0.6759429320836233 0.7330979263408899 -0.07528999243512528
vn 0.9537418084848492 -0.2974879402632376 0.04332999129916524
vn -0.9537418084848492 0.2974879402632376 -0.04332999129916524
vn 0 0.8660295838949686 0.4999927597662868
vn 0 -0.8660295838949686 -0.4999927597662868
vn 0 0.8660329319046994 -0.49998696068652665
vn 0 -0.8660329319046994 0.49998696068652665
vn 0.30004297022808785 0.9509309056434102 -0.07552899250559814
vn -0.30004297022808785 -0.9509309056434102 0.07552899250559814
vn -0.623513882942138 -0.069568986939189 -0.7787108538056167
vn -0.7818381467088147 -0.05548001041060288 -0.6210081165297
vn -0.4338999593537724 -0.08017199248976847 -0.8973869159359386
vn 0.4338999593537724 0.08017199248976847 0.8973869159359386
vn 0.7818381467088147 0.05548001041060288 0.6210081165297
vn 0.623513882942138 0.069568986939189 0.7787108538056167
vn 9.999999663425016e-7 -0.08898499700498728 -0.996032966476021
vn -9.999999663425016e-7 0.08898499700498728 0.996032966476021
vn -0.9749270433384329 -0.019801000880213866 -0.22164200985265253
vn 0.9749270433384329 0.019801000880213866 0.22164200985265253
vn -0.9749277411050479 0.019800994741787092 0.2216389411431221
vn 0.9749277411050479 -0.019800994741787092 -0.2216389411431221
vn -0.7818363981909427 0.05548002825609642 0.6210103162818766
vn 0.7818363981909427 -0.05548002825609642 -0.6210103162818766
vn 0.222527938940456 -0.08675397619553615 -0.9710587335507452
vn -0.222527938940456 0.08675397619553615 0.9710587335507452
vn -0.6235032316720213 0.06957002584979129 0.7787192893448864
vn 0.6235032316720213 -0.06957002584979129 -0.7787192893448864
vn 0.2224889252146989 0.08675397083934909 0.9710676735945921
vn 9.999999663425016e-7 0.08898499700498728 0.996032966476021
vn -9.999999663425016e-7 -0.08898499700498728 -0.996032966476021
vn -0.2224889252146989 -0.08675397083934909 -0.9710676735945921
vn 0.4338979465151391 -0.08017199011751987 -0.8973878893825913
vn -0.4338979465151391 0.08017199011751987 0.8973878893825913
vn 0.7818390209650136 -0.055480001487696134 -0.6210070166523034
vn -0.7818390209650136 0.055480001487696134 0.6210070166523034
vn 0 0.9960329664765191 -0.08898499700503179
vn 0 -0.9960329664765191 0.08898499700503179
vn -0.4338761597295852 0.08017302951534527 0.8973983303732179
vn 0.4338761597295852 -0.08017302951534527 -0.8973983303732179
vn 0.9009685178435171 -0.0386090221910437 -0.4321632483915166
vn -0.9009685178435171 0.0386090221910437 0.4321632483915166
vn 0.43387979608999405 0.08017296232120172 0.8973965782515266
vn -0.43387979608999405 -0.08017296232120172 -0.8973965782515266
vn 0.9749279571865271 0.019800999130448995 0.22163799026687872
vn -0.9749279571865271 -0.019800999130448995 -0.22163799026687872
vn 0.7818390209650136 0.055480001487696134 0.6210070166523034
vn 0.9009690954639876 0.03860900409089437 0.4321620457905964
vn -0.9009690954639876 -0.03860900409089437 -0.4321620457905964
vn -0.7818390209650136 -0.055480001487696134 -0.6210070166523034
usemtl material_0_0
f 1//1 2//2 3//1
f 2//2 1//1 4//2
f 3//3 2//4 1//3
f 4//4 1//3 2//4
f 5//2 3//1 2//2
f 2//4 3//3 5//4
f 6//5 1//1 3//1
f 3//3 1//3 6//6
f 7//1 4//2 1//1
f 1//3 4//4 7//3
f 4//2 8//7 2//2
f 2//4 8//8 4//4
f 3//1 5//2 9//1
f 9//3 5//4 3//3
f 2//2 10//7 5//2
f 5//4 10//8 2//4
f 1//1 6//5 11//5
f 11//6 6//6 1//3
f 3//1 12//5 6//5
f 6//6 12//6 3//3
f 4//2 7//1 13//2
f 13//4 7//3 4//4
f 11//5 7//1 1//1
f 1//3 7//3 11//6
f 8//7 4//2 14//9
f 14//10 4//4 8//8
f 10//7 2//2 8//7
f 8//8 2//4 10//8
f 10//11 9//11 5//11
f 5//12 9//12 10//12
f 12//5 3//1 9//1
f 9//3 3//3 12//6
f 15//13 11//5 6//5
f 6//6 11//6 15//14
f 16//15 6//5 12//5
f 12//6 6//6 16//16
f 7//17 17//17 13//17
f 13//18 17//18 7//18
f 18//17 7//17 13//17
f 13//18 7//18 18//18
f 13//2 14//9 4//2
f 4//4 14//10 13//4
f 7//1 11//5 19//19
f 19//20 11//6 7//3
f 8//7 14//9 20//7
f 20//8 14//10 8//8
f 8//7 21//21 10//7
f 10//8 21//22 8//8
f 9//11 10//11 21//11
f 21//12 10//12 9//12
f 9//11 21//11 12//11
f 12//12 21//12 9//12
f 11//5 15//13 22//15
f 22//16 15//14 11//6
f 6//5 22//15 15//13
f 15//14 22//16 6//6
f 6//5 16//15 22//15
f 22//16 16//16 6//6
f 12//11 23//11 16//11
f 16//12 23//12 12//12
f 17//17 7//17 24//17
f 24//18 7//18 17//18
f 13//17 17//17 25//17
f 25//18 17//18 13//18
f 7//17 18//17 19//17
f 19//18 18//18 7//18
f 18//17 13//17 26//17
f 26//18 13//18 18//18
f 14//9 13//2 20//7
f 20//8 13//4 14//10
f 27//5 19//19 11//5
f 11//6 19//20 27//6
f 24//17 7//17 19//17
f 19//18 7//18 24//18
f 20//7 28//21 8//7
f 8//8 28//22 20//8
f 21//21 8//7 28//21
f 28//22 8//8 21//22
f 12//11 21//11 23//11
f 23//12 21//12 12//12
f 11//5 22//15 29//15
f 29//16 22//16 11//6
f 30//22 22//15 16//15
f 16//16 22//16 30//21
f 16//11 23//11 31//11
f 31//12 23//12 16//12
f 32//23 17//23 24//23
f 24//24 17//24 32//24
f 17//25 33//25 25//25
f 25//26 33//26 17//26
f 13//17 25//17 26//17
f 26//18 25//18 13//18
f 34//27 19//27 18//27
f 18//28 19//28 34//28
f 20//7 13//2 26//7
f 26//8 13//4 20//8
f 26//17 25//17 18//17
f 18//18 25//18 26//18
f 35//21 26//7 18//29
f 18//30 26//8 35//22
f 27//27 24//27 19//27
f 19//28 24//28 27//28
f 19//27 34//27 27//27
f 27//28 34//28 19//28
f 29//15 27//5 11//5
f 11//6 27//6 29//16
f 28//21 20//7 35//21
f 35//22 20//8 28//22
f 28//21 23//16 21//21
f 21//22 23//15 28//22
f 36//22 29//15 22//15
f 22//16 29//16 36//21
f 22//15 30//22 36//22
f 36//21 30//21 22//16
f 16//11 31//11 30//11
f 30//12 31//12 16//12
f 37//16 31//6 23//16
f 23//15 31//5 37//15
f 17//23 32//23 38//23
f 38//24 32//24 17//24
f 24//27 27//27 32//27
f 32//28 27//28 24//28
f 33//25 17//25 39//25
f 39//26 17//26 33//26
f 40//24 25//24 33//24
f 33//23 25//23 40//23
f 35//21 18//29 34//21
f 34//22 18//30 35//22
f 41//27 34//27 18//27
f 18//28 34//28 41//28
f 26//7 35//21 20//7
f 20//8 35//22 26//8
f 18//17 25//17 41//17
f 41//18 25//18 18//18
f 27//27 34//27 42//27
f 42//28 34//28 27//28
f 27//5 29//15 43//15
f 43//16 29//16 27//6
f 35//21 44//31 28//21
f 28//22 44//32 35//22
f 23//16 28//21 37//16
f 37//15 28//22 23//15
f 29//15 36//22 45//22
f 45//21 36//21 29//16
f 46//8 36//22 30//22
f 30//21 36//21 46//7
f 30//11 31//11 47//11
f 47//12 31//12 30//12
f 31//6 37//16 48//6
f 48//5 37//15 31//5
f 49//33 38//33 32//33
f 32//34 38//34 49//34
f 17//23 38//23 39//23
f 39//24 38//24 17//24
f 32//27 27//27 43//27
f 43//28 27//28 32//28
f 39//28 50//28 33//28
f 33//27 50//27 39//27
f 51//24 25//24 40//24
f 40//23 25//23 51//23
f 40//24 33//24 50//24
f 50//23 33//23 40//23
f 34//21 52//16 35//21
f 35//22 52//15 34//22
f 34//27 41//27 42//27
f 42//28 41//28 34//28
f 25//24 51//24 41//24
f 41//23 51//23 25//23
f 52//16 34//21 42//16
f 42//15 34//22 52//15
f 27//27 42//27 43//27
f 43//28 42//28 27//28
f 45//22 43//15 29//15
f 29//16 43//16 45//21
f 44//31 35//21 37//16
f 37//15 35//22 44//32
f 37//16 28//21 44//31
f 44//32 28//22 37//15
f 53//8 45//22 36//22
f 36//21 45//21 53//7
f 36//22 46//8 53//8
f 53//7 46//7 36//21
f 30//11 47//11 46//11
f 46//12 47//12 30//12
f 48//6 47//3 31//6
f 31//5 47//1 48//5
f 48//6 37//16 54//14
f 54//13 37//15 48//5
f 55//33 38//33 49//33
f 49//34 38//34 55//34
f 49//33 32//33 56//33
f 56//34 32//34 49//34
f 39//23 38//23 57//23
f 57//24 38//24 39//24
f 32//27 43//27 58//27
f 58//28 43//28 32//28
f 50//28 39//28 57//28
f 57//27 39//27 50//27
f 40//33 59//33 51//33
f 51//34 59//34 40//34
f 50//35 38//35 40//35
f 40//36 38//36 50//36
f 37//16 35//21 52//16
f 52//15 35//22 37//15
f 42//27 41//27 51//27
f 51//28 41//28 42//28
f 42//16 60//6 52//16
f 52//15 60//5 42//15
f 43//27 42//27 59//27
f 59//28 42//28 43//28
f 43//15 45//22 58//32
f 58//31 45//21 43//16
f 45//22 53//8 61//8
f 61//7 53//7 45//21
f 62//4 53//8 46//8
f 46//7 53//7 62//2
f 46//11 47//11 62//11
f 62//12 47//12 46//12
f 47//3 48//6 63//3
f 63//1 48//5 47//1
f 52//16 54//14 37//16
f 37//15 54//13 52//15
f 54//14 52//16 48//6
f 48//5 52//15 54//13
f 38//33 55//33 40//33
f 40//34 55//34 38//34
f 49//33 59//33 55//33
f 55//34 59//34 49//34
f 49//8 64//10 55//4
f 55//2 64//9 49//7
f 56//33 32//33 58//33
f 58//34 32//34 56//34
f 56//33 59//33 49//33
f 49//34 59//34 56//34
f 65//30 49//8 56//22
f 56//21 49//7 65//29
f 38//35 50//35 57//35
f 57//36 50//36 38//36
f 43//27 59//27 58//27
f 58//28 59//28 43//28
f 40//33 66//33 59//33
f 59//34 66//34 40//34
f 42//27 51//27 59//27
f 59//28 51//28 42//28
f 60//6 42//16 59//14
f 59//13 42//15 60//5
f 48//6 52//16 60//6
f 60//5 52//15 48//5
f 58//32 45//22 56//22
f 56//21 45//21 58//31
f 67//10 61//8 53//8
f 53//7 61//7 67//9
f 68//30 45//22 61//8
f 61//7 45//21 68//29
f 53//8 62//4 67//10
f 67//9 62//2 53//7
f 69//37 62//4 47//3
f 47//1 62//2 69//38
f 60//6 63//3 48//6
f 48//5 63//1 60//5
f 69//37 47//3 63//3
f 63//1 47//1 69//38
f 40//33 55//33 70//33
f 70//34 55//34 40//34
f 55//33 59//33 70//33
f 70//34 59//34 55//34
f 64//10 49//8 71//8
f 71//7 49//7 64//9
f 55//4 64//10 72//10
f 72//9 64//9 55//2
f 59//33 56//33 58//33
f 58//34 56//34 59//34
f 49//8 65//30 73//30
f 73//29 65//29 49//7
f 56//22 68//30 65//30
f 65//29 68//29 56//21
f 40//33 70//33 66//33
f 66//34 70//34 40//34
f 60//6 59//14 66//6
f 66//5 59//13 60//5
f 70//33 59//33 66//33
f 66//34 59//34 70//34
f 45//22 68//30 56//22
f 56//21 68//29 45//21
f 61//8 67//10 74//10
f 74//9 67//9 61//7
f 68//30 61//8 75//30
f 75//29 61//7 68//29
f 76//10 67//10 62//4
f 62//2 67//9 76//9
f 62//4 69//37 77//4
f 77//2 69//38 62//2
f 63//3 60//6 78//3
f 78//1 60//5 63//1
f 63//3 79//37 69//37
f 69//38 79//38 63//1
f 55//4 80//37 70//3
f 70//1 80//38 55//2
f 49//8 73//30 71//8
f 71//7 73//29 49//7
f 71//39 81//40 64//41
f 64//42 81//43 71//44
f 71//8 82//10 64//10
f 64//9 82//9 71//7
f 83//41 72//45 64//41
f 64//42 72//46 83//42
f 64//10 82//10 72//10
f 72//9 82//9 64//9
f 55//4 72//10 84//4
f 84//2 72//9 55//2
f 85//47 73//40 65//47
f 65//48 73//43 85//48
f 68//30 73//30 65//30
f 65//29 73//29 68//29
f 86//49 65//47 68//49
f 68//50 65//48 86//50
f 87//3 66//6 70//3
f 70//1 66//5 87//1
f 66//6 78//3 60//6
f 60//5 78//1 66//5
f 76//10 74//10 67//10
f 67//9 74//9 76//9
f 74//10 88//8 61//8
f 61//7 88//7 74//9
f 75//30 61//8 88//8
f 88//7 61//7 75//29
f 89//51 68//49 75//51
f 75//52 68//50 89//52
f 73//30 68//30 75//30
f 75//29 68//29 73//29
f 76//10 62//4 77//4
f 77//2 62//2 76//9
f 79//37 77//4 69//37
f 69//38 77//2 79//38
f 79//37 63//3 78//3
f 78//1 63//1 79//38
f 80//37 55//4 84//4
f 84//2 55//2 80//38
f 70//3 80//37 90//37
f 90//38 80//38 70//1
f 81//40 71//39 73//40
f 73//43 71//44 81//43
f 73//30 75//30 71//8
f 71//7 75//29 73//29
f 64//41 81//40 83//41
f 83//42 81//43 64//42
f 82//10 71//8 88//8
f 88//7 71//7 82//9
f 72//45 83//41 91//45
f 91//46 83//42 72//46
f 72//10 82//10 76//10
f 76//9 82//9 72//9
f 91//45 84//53 72//45
f 72//46 84//54 91//46
f 72//10 76//10 84//4
f 84//2 76//9 72//9
f 73//40 85//47 81//40
f 81//43 85//48 73//43
f 65//47 86//49 85//47
f 85//48 86//50 65//48
f 68//49 89//51 86//49
f 86//50 89//52 68//50
f 92//20 66//6 87//3
f 87//1 66//5 92//19
f 70//3 90//37 87//3
f 87//1 90//38 70//1
f 78//3 66//6 93//20
f 93//19 66//5 78//1
f 82//10 74//10 76//10
f 76//9 74//9 82//9
f 88//8 74//10 82//10
f 82//9 74//9 88//7
f 88//55 89//51 75//51
f 75//52 89//52 88//56
f 71//8 75//30 88//8
f 88//7 75//29 71//7
f 77//57 94//58 76//58
f 76//59 94//59 77//60
f 84//4 76//10 77//4
f 77//2 76//9 84//2
f 77//4 79//37 95//37
f 95//38 79//38 77//2
f 95//37 79//37 78//3
f 78//1 79//38 95//38
f 84//53 96//61 80//61
f 80//62 96//62 84//54
f 84//4 95//37 80//37
f 80//38 95//38 84//2
f 80//61 97//63 90//63
f 90//64 97//64 80//62
f 80//37 95//37 90//37
f 90//38 95//38 80//38
f 81//65 89//65 83//65
f 83//66 89//66 81//66
f 89//51 88//55 82//67
f 82//68 88//56 89//52
f 83//65 98//65 91//65
f 91//66 98//66 83//66
f 76//58 98//67 82//67
f 82//68 98//68 76//59
f 96//61 84//53 91//45
f 91//46 84//54 96//62
f 86//65 81//65 85//65
f 85//66 81//66 86//66
f 81//65 86//65 89//65
f 89//66 86//66 81//66
f 93//20 66//6 92//20
f 92//19 66//5 93//19
f 87//69 99//50 92//50
f 92//49 99//49 87//70
f 87//3 93//20 92//20
f 92//19 93//19 87//1
f 97//63 87//69 90//63
f 90//64 87//70 97//64
f 90//37 100//37 87//3
f 87//1 100//38 90//38
f 78//3 93//20 101//3
f 101//1 93//19 78//1
f 94//58 77//57 102//71
f 102//72 77//60 94//59
f 98//67 76//58 94//58
f 94//59 76//59 98//68
f 95//37 84//4 77//4
f 77//2 84//2 95//38
f 102//71 77//57 95//71
f 95//72 77//60 102//72
f 95//37 78//3 100//37
f 100//38 78//1 95//38
f 97//63 80//61 96//61
f 96//62 80//62 97//64
f 90//37 95//37 100//37
f 100//38 95//38 90//38
f 83//65 89//65 98//65
f 98//66 89//66 83//66
f 89//51 82//67 98//67
f 98//68 82//68 89//52
f 91//65 98//65 94//65
f 94//66 98//66 91//66
f 91//65 94//65 96//65
f 96//66 94//66 91//66
f 92//50 103//73 93//73
f 93//74 103//74 92//49
f 99//50 87//69 97//63
f 97//64 87//70 99//49
f 103//73 92//50 99//50
f 99//49 92//49 103//74
f 93//20 87//3 101//3
f 101//1 87//1 93//19
f 87//3 100//37 101//3
f 101//1 100//38 87//1
f 104//75 101//76 93//73
f 93//74 101//77 104//78
f 100//37 78//3 101//3
f 101//1 78//1 100//38
f 96//65 94//65 102//65
f 102//66 94//66 96//66
f 95//71 104//75 102//71
f 102//72 104//78 95//72
f 104//75 95//71 100//75
f 100//78 95//72 104//78
f 96//65 102//65 97//65
f 97//66 102//66 96//66
f 104//75 93//73 103//73
f 103//74 93//74 104//78
f 97//65 104//65 99//65
f 99//66 104//66 97//66
f 99//65 104//65 103//65
f 103//66 104//66 99//66
f 101//76 104//75 100//75
f 100//78 104//78 101//77
f 97//65 102//65 104//65
f 104//66 102//66 97//66
