# SSTK version 0.8.0
# 9
mtllib original-9.mtl
o Rear1/Rear/mesh7/mesh7-geometry#mesh7-geometry
v 0.705982 0.729490 -0.010528
v -0.757997 -0.734523 -0.010528
v -0.757997 0.729490 -0.010528
v 0.705982 -0.734523 -0.010528
v -0.757997 -0.734523 0.030661
v -0.757997 0.729490 0.030661
v 0.705982 0.729490 0.030661
v 0.705982 -0.734523 0.030661
vn 0 0 -1
vn -1 0 0
vn 0 1 -0.000003999999999745955
vn 1 0 0
vn 0 -1 0
vn 0 0 1
vn 0 -1 0.000003999999999745955
vn 0 1 0
usemtl material_0_0
f 1//1 2//1 3//1
f 1//1 4//1 2//1
f 2//2 5//2 3//2
f 1//3 3//3 6//3
f 4//4 1//4 7//4
f 8//5 2//5 4//5
f 8//5 5//5 2//5
f 3//2 5//2 6//2
f 1//3 6//3 7//3
f 4//4 7//4 8//4
f 7//6 5//6 8//6
f 6//6 5//6 7//6
usemtl material_1_0
f 3//6 2//6 1//6
f 2//6 4//6 1//6
f 3//4 5//4 2//4
f 6//7 3//7 1//7
f 7//2 1//2 4//2
f 4//8 2//8 8//8
f 2//8 5//8 8//8
f 6//4 5//4 3//4
f 7//7 6//7 1//7
f 8//2 7//2 4//2
f 8//1 5//1 7//1
f 7//1 5//1 6//1
