# SSTK version 0.8.0
# 5
mtllib original-5.mtl
o Group5/mesh5/mesh5-geometry#mesh5-geometry
v 0.117909 0.039018 0.896435
v 0.115302 0.000300 0.924352
v 0.101746 0.048740 0.951573
v 0.116754 -0.007126 0.882237
v 0.101746 0.006415 0.959036
v 0.109367 0.030404 0.847583
v 0.085159 0.052620 0.973579
v 0.101746 -0.014649 0.839572
v 0.078024 0.011512 0.987938
v 0.080307 0.022946 0.805290
v 0.046867 0.057386 1.000606
v 0.071731 -0.020668 0.805439
v 0.041715 0.015443 1.010234
v 0.038810 0.018453 0.779809
v -0.003308 0.038110 1.015036
v 0.033969 -0.024162 0.785620
v -0.003308 0.027529 1.016902
v -0.003308 0.048691 1.013170
v -0.003308 -0.004019 0.776108
v -0.003308 0.016948 1.018768
v -0.003308 0.059272 1.011305
v -0.003308 0.006562 0.774242
v -0.003308 -0.014601 0.777974
v -0.003308 0.017143 0.772377
v -0.003308 -0.025182 0.779840
vn -0.9983671531066033 -0.038961005974943445 -0.0417740064063368
vn -0.9741281643018277 -0.04961400836817218 -0.22048303718788484
vn -0.909158936692538 -0.09728399322582384 -0.40492697180372117
vn 0.909158936692538 0.09728399322582384 0.40492697180372117
vn 0.9741281643018277 0.04961400836817218 0.22048303718788484
vn 0.9983671531066033 0.038961005974943445 0.0417740064063368
vn -0.9876838344716109 0.03765199368980874 0.1518649745485714
vn 0.9876838344716109 -0.03765199368980874 -0.1518649745485714
vn -0.8460504567963018 -0.08371804520072419 -0.5264882842595252
vn 0.8460504567963018 0.08371804520072419 0.5264882842595252
vn -0.9334810895194405 0.0386390037054226 0.3565390341915602
vn 0.9334810895194405 -0.0386390037054226 -0.3565390341915602
vn -0.7279677858868705 -0.12204796410270873 -0.6746608015657584
vn 0.7279677858868705 0.12204796410270873 0.6746608015657584
vn -0.8537048905025372 0.09958298722733738 0.5111469344395316
vn 0.8537048905025372 -0.09958298722733738 -0.5111469344395316
vn -0.6364052018267139 -0.13029804132214087 -0.7602702411087213
vn 0.6364052018267139 0.13029804132214087 0.7602702411087213
vn -0.7152658663851299 0.10084698116133171 0.6915378708176259
vn 0.7152658663851299 -0.10084698116133171 -0.6915378708176259
vn -0.3532988556382308 -0.17080493020724075 -0.9197856241655532
vn 0.3532988556382308 0.17080493020724075 0.9197856241655532
vn -0.5926179553696471 0.14492398908570217 0.7923389403285604
vn 0.5926179553696471 -0.14492398908570217 -0.7923389403285604
vn -0.28045491052788646 -0.16817494634799607 -0.9450196985151388
vn 0.28045491052788646 0.16817494634799607 0.9450196985151388
vn -0.30828601842224823 0.15674700936673114 0.9382910560694605
vn 0.30828601842224823 -0.15674700936673114 -0.9382910560694605
vn -0.20051194363850672 -0.17865594978196325 -0.9632637292381631
vn 0.20051194363850672 0.17865594978196325 0.9632637292381631
vn -0.2394319426220573 0.16830795966634857 0.9562137708510471
vn 0.2394319426220573 -0.16830795966634857 -0.9562137708510471
vn -0.18898201535204917 -0.17051901385219773 -0.9670620785597749
vn 0.18898201535204917 0.17051901385219773 0.9670620785597749
vn -0.21160405305750113 -0.1697160425545208 -0.9625072413386148
vn 0.21160405305750113 0.1697160425545208 0.9625072413386148
vn -0.1661789503193146 0.16476095074323804 0.9722337093420259
vn 0.1661789503193146 -0.16476095074323804 -0.9722337093420259
vn -0.17636900718377438 0.17092600696207258 0.9693700394838967
vn 0.17636900718377438 -0.17092600696207258 -0.9693700394838967
vn -0.15554295918879926 0.17153495499283575 0.972821744752037
vn 0.15554295918879926 -0.17153495499283575 -0.972821744752037
usemtl material_0_0
f 1//1 2//2 3//3
f 3//4 2//5 1//6
f 4//7 2//2 1//1
f 1//6 2//5 4//8
f 2//2 5//9 3//3
f 3//4 5//10 2//5
f 6//11 4//7 1//1
f 1//6 4//8 6//12
f 3//3 5//9 7//13
f 7//14 5//10 3//4
f 8//15 4//7 6//11
f 6//12 4//8 8//16
f 5//9 9//17 7//13
f 7//14 9//18 5//10
f 10//19 8//15 6//11
f 6//12 8//16 10//20
f 11//21 7//13 9//17
f 9//18 7//14 11//22
f 10//19 12//23 8//15
f 8//16 12//24 10//20
f 11//21 9//17 13//25
f 13//26 9//18 11//22
f 10//19 14//27 12//23
f 12//24 14//28 10//20
f 11//21 13//25 15//29
f 15//30 13//26 11//22
f 14//27 16//31 12//23
f 12//24 16//32 14//28
f 15//29 13//25 17//33
f 17//34 13//26 15//30
f 11//21 15//29 18//35
f 18//36 15//30 11//22
f 14//27 19//37 16//31
f 16//32 19//38 14//28
f 17//33 13//25 20//33
f 20//34 13//26 17//34
f 21//35 11//21 18//35
f 18//36 11//22 21//36
f 14//27 22//39 19//37
f 19//38 22//40 14//28
f 19//37 23//41 16//31
f 16//32 23//42 19//38
f 14//27 24//39 22//39
f 22//40 24//40 14//28
f 23//41 25//41 16//31
f 16//32 25//42 23//42
