mtllib new-4.mtl
v 0.329658 0.846513 0.249194
v -0.316294 0.846513 0.249194
v 0.327987 0.853197 0.249194
v 0.329658 0.402100 0.249194
v -0.316294 0.402100 0.249194
v -0.314623 0.853197 0.249194
v 0.327987 0.853197 0.255878
v -0.314623 0.402100 0.255878
v -0.314623 0.853197 0.255878
v 0.325669 0.859685 0.249194
v 0.325669 0.859685 0.262366
v 0.327987 0.402100 0.255878
v -0.312305 0.859685 0.249194
v 0.327987 0.846513 0.255878
v 0.325669 0.402100 0.262366
v -0.312305 0.859685 0.262366
v 0.322725 0.865915 0.249194
v 0.322725 0.865915 0.268595
v 0.322725 0.402100 0.268595
v -0.312305 0.402100 0.262366
v -0.309361 0.865915 0.249194
v 0.325669 0.846513 0.262366
v -0.309361 0.402100 0.268595
v -0.309361 0.865915 0.268595
v 0.319184 0.871825 0.249194
v 0.319184 0.871825 0.274506
v 0.319184 0.402100 0.274506
v 0.322725 0.846513 0.268595
v -0.305820 0.871825 0.249194
v -0.305820 0.402100 0.274506
v -0.305820 0.871825 0.274506
v 0.315081 0.877359 0.249194
v 0.315081 0.877359 0.280040
v 0.315081 0.402100 0.280040
v 0.319184 0.846513 0.274506
v -0.301717 0.877359 0.249194
v -0.301717 0.402100 0.280040
v -0.301717 0.877359 0.280040
v 0.310454 0.882465 0.249194
v 0.310454 0.882465 0.285145
v 0.310454 0.402100 0.285145
v 0.315081 0.846513 0.280040
v -0.297090 0.882465 0.249194
v -0.297090 0.402100 0.285145
v -0.297090 0.882465 0.285145
v -0.291985 0.887091 0.249194
v 0.305349 0.887091 0.249194
v 0.310454 0.846513 0.285145
v -0.286451 0.891195 0.249194
v 0.305349 0.887091 0.280040
v 0.305349 0.402100 0.289772
v 0.305349 0.846513 0.289772
v -0.291985 0.402100 0.289772
v -0.291985 0.887091 0.280040
v 0.299815 0.891195 0.249194
v 0.305349 0.877359 0.289772
v -0.291985 0.877359 0.289772
v -0.280540 0.894735 0.249194
v -0.286451 0.891195 0.274506
v 0.293904 0.894735 0.249194
v 0.299815 0.891195 0.274506
v 0.299815 0.402100 0.293875
v 0.299815 0.846513 0.293875
v -0.286451 0.871825 0.293875
v -0.286451 0.402100 0.293875
v 0.299815 0.871825 0.293875
v -0.274311 0.897679 0.249194
v -0.280540 0.894735 0.268595
v 0.287675 0.897679 0.249194
v 0.293904 0.894735 0.268595
v 0.293904 0.402100 0.297416
v 0.293904 0.846513 0.297416
v -0.280540 0.865915 0.297416
v -0.280540 0.402100 0.297416
v 0.293904 0.865915 0.297416
v -0.267823 0.899998 0.249194
v -0.274311 0.897679 0.262366
v 0.281187 0.899998 0.249194
v 0.287675 0.897679 0.262366
v 0.287675 0.402100 0.300360
v 0.287675 0.846513 0.300360
v -0.274311 0.859685 0.300360
v -0.267823 0.899998 0.255878
v -0.274311 0.402100 0.300360
v 0.287675 0.859685 0.300360
v -0.261139 0.901668 0.249194
v 0.274503 0.901668 0.249194
v 0.281187 0.899998 0.255878
v 0.281187 0.402100 0.302678
v 0.281187 0.846513 0.302678
v -0.267823 0.853197 0.302678
v -0.267823 0.402100 0.302678
v 0.281187 0.853197 0.302678
v 0.274503 0.402100 0.304349
v 0.274503 0.846513 0.304349
v -0.261139 0.846513 0.304349
v -0.261139 0.402100 0.304349
v 0.013933 0.510409 0.304349
v -0.216799 0.545231 0.304349
v -0.248334 0.505083 0.304349
v 0.011387 0.540446 0.304349
v -0.248334 0.536618 0.304349
v -0.217113 0.496471 0.304349
vn 0.577350 -0.577350 -0.577350
vn -0.577350 -0.577350 -0.577350
vn 0.957074 0.289843 0.000000
vn -0.957074 0.289843 0.000000
vn 0.977831 0.148064 0.148064
vn 0.984738 0.123066 0.123066
vn 0.970154 0.000000 0.242488
vn -0.970154 0.000000 0.242488
vn -0.957074 0.000000 0.289843
vn -0.984738 0.123066 0.123066
vn -0.977831 0.148064 0.148064
vn 0.924021 0.382342 0.000000
vn 0.959762 0.198566 0.198566
vn 0.957074 0.000000 0.289843
vn -0.924021 0.382342 0.000000
vn 0.924021 0.000000 0.382342
vn -0.959762 0.198566 0.198566
vn 0.882052 0.471152 0.000000
vn 0.935495 0.249850 0.249850
vn 0.882052 0.000000 0.471152
vn -0.924021 0.000000 0.382342
vn -0.882052 0.471152 0.000000
vn -0.882052 0.000000 0.471152
vn -0.935495 0.249850 0.249850
vn 0.831572 0.555417 0.000000
vn 0.904227 0.301972 0.301972
vn 0.831572 0.000000 0.555417
vn -0.831572 0.555417 0.000000
vn -0.831572 0.000000 0.555417
vn -0.904227 0.301972 0.301972
vn 0.773069 0.634322 0.000000
vn 0.864957 0.354859 0.354859
vn 0.773069 0.000000 0.634322
vn -0.773069 0.634322 0.000000
vn -0.773069 0.000000 0.634322
vn -0.864957 0.354859 0.354859
vn 0.707107 0.707107 0.000000
vn 0.577350 0.577350 0.577350
vn 0.707107 0.000000 0.707107
vn -0.707107 0.707107 0.000000
vn -0.707107 0.000000 0.707107
vn -0.577350 0.577350 0.577350
vn -0.634322 0.773069 0.000000
vn 0.634322 0.773069 0.000000
vn -0.555417 0.831572 0.000000
vn 0.354859 0.864957 0.354859
vn 0.634322 0.000000 0.773069
vn -0.634322 0.000000 0.773069
vn -0.354859 0.864957 0.354859
vn 0.555417 0.831572 0.000000
vn 0.354859 0.354859 0.864957
vn -0.354859 0.354859 0.864957
vn -0.471152 0.882052 0.000000
vn -0.301972 0.904227 0.301972
vn 0.301972 0.904227 0.301972
vn 0.555417 0.000000 0.831572
vn -0.301972 0.301972 0.904227
vn 0.471152 0.882052 0.000000
vn -0.555417 0.000000 0.831572
vn 0.301972 0.301972 0.904227
vn -0.382342 0.924021 0.000000
vn -0.249850 0.935495 0.249850
vn 0.249850 0.935495 0.249850
vn 0.471152 0.000000 0.882052
vn -0.249850 0.249850 0.935495
vn 0.382342 0.924021 0.000000
vn -0.471152 0.000000 0.882052
vn 0.249850 0.249850 0.935495
vn -0.289843 0.957074 0.000000
vn -0.198566 0.959762 0.198566
vn 0.198566 0.959762 0.198566
vn 0.382342 0.000000 0.924021
vn -0.198566 0.198566 0.959762
vn -0.148064 0.977831 0.148064
vn 0.289843 0.957074 0.000000
vn -0.382342 0.000000 0.924021
vn 0.198566 0.198566 0.959762
vn -0.123066 0.984738 0.123066
vn 0.148064 0.977831 0.148064
vn 0.289843 0.000000 0.957074
vn -0.148064 0.148064 0.977831
vn 0.123066 0.984738 0.123066
vn -0.289843 0.000000 0.957074
vn 0.148064 0.148064 0.977831
vn 0.122159 0.000000 0.992511
vn 0.081915 0.081915 0.993267
vn -0.081915 0.081915 0.993267
vn -0.122159 0.000000 0.992511
vn 0.000000 0.000000 1.000000
vn -0.957074 -0.289843 0.000000
vn 0.000000 0.000000 -1.000000
vn 0.957074 -0.289843 0.000000
vn -0.984738 -0.123066 -0.123066
vn -0.977831 -0.148064 -0.148064
vn -0.970154 0.000000 -0.242488
vn 0.970154 0.000000 -0.242488
vn 0.984738 -0.123066 -0.123066
vn 0.957074 0.000000 -0.289843
vn 0.977831 -0.148064 -0.148064
vn -0.924021 -0.382342 0.000000
vn -0.959762 -0.198566 -0.198566
vn -0.957074 0.000000 -0.289843
vn 0.924021 -0.382342 0.000000
vn -0.924021 0.000000 -0.382342
vn 0.959762 -0.198566 -0.198566
vn -0.882052 -0.471152 0.000000
vn -0.935495 -0.249850 -0.249850
vn -0.882052 0.000000 -0.471152
vn 0.924021 0.000000 -0.382342
vn 0.882052 -0.471152 0.000000
vn 0.882052 0.000000 -0.471152
vn 0.935495 -0.249850 -0.249850
vn -0.831572 -0.555417 0.000000
vn -0.904227 -0.301972 -0.301972
vn -0.831572 0.000000 -0.555417
vn 0.831572 -0.555417 0.000000
vn 0.831572 0.000000 -0.555417
vn 0.904227 -0.301972 -0.301972
vn -0.773069 -0.634322 0.000000
vn -0.864957 -0.354859 -0.354859
vn -0.773069 0.000000 -0.634322
vn 0.773069 -0.634322 0.000000
vn 0.773069 0.000000 -0.634322
vn 0.864957 -0.354859 -0.354859
vn -0.707107 -0.707107 0.000000
vn -0.707107 0.000000 -0.707107
vn 0.707107 -0.707107 0.000000
vn 0.707107 0.000000 -0.707107
vn 0.634322 -0.773069 0.000000
vn -0.634322 -0.773069 0.000000
vn 0.555417 -0.831572 0.000000
vn -0.354859 -0.864957 -0.354859
vn -0.634322 0.000000 -0.773069
vn 0.634322 0.000000 -0.773069
vn 0.354859 -0.864957 -0.354859
vn -0.555417 -0.831572 0.000000
vn -0.354859 -0.354859 -0.864957
vn 0.354859 -0.354859 -0.864957
vn 0.471152 -0.882052 0.000000
vn 0.301972 -0.904227 -0.301972
vn -0.301972 -0.904227 -0.301972
vn -0.555417 0.000000 -0.831572
vn 0.301972 -0.301972 -0.904227
vn -0.471152 -0.882052 0.000000
vn 0.555417 0.000000 -0.831572
vn -0.301972 -0.301972 -0.904227
vn 0.382342 -0.924021 0.000000
vn 0.249850 -0.935495 -0.249850
vn -0.249850 -0.935495 -0.249850
vn -0.471152 0.000000 -0.882052
vn 0.249850 -0.249850 -0.935495
vn -0.382342 -0.924021 0.000000
vn 0.471152 0.000000 -0.882052
vn -0.249850 -0.249850 -0.935495
vn 0.289843 -0.957074 0.000000
vn 0.198566 -0.959762 -0.198566
vn -0.198566 -0.959762 -0.198566
vn -0.382342 0.000000 -0.924021
vn 0.198566 -0.198566 -0.959762
vn 0.148064 -0.977831 -0.148064
vn -0.289843 -0.957074 0.000000
vn 0.382342 0.000000 -0.924021
vn -0.198566 -0.198566 -0.959762
vn 0.123066 -0.984738 -0.123066
vn -0.148064 -0.977831 -0.148064
vn -0.289843 0.000000 -0.957074
vn 0.148064 -0.148064 -0.977831
vn -0.123066 -0.984738 -0.123066
vn 0.289843 0.000000 -0.957074
vn -0.148064 -0.148064 -0.977831
vn -0.122159 0.000000 -0.992511
vn -0.081915 -0.081915 -0.993267
vn 0.081915 -0.081915 -0.993267
vn 0.122159 0.000000 -0.992511
usemtl material-0
f 7//5 1//6 3//3
f 8//9 2//10 5//8
f 9//11 6//4 2//10
f 7//5 4//7 1//6
f 3//3 11//13 7//5
f 2//10 8//9 9//11
f 9//11 13//15 6//4
f 11//13 3//3 10//12
f 4//7 7//5 12//14
f 11//13 14//14 7//5
f 8//9 16//17 9//11
f 13//15 9//11 16//17
f 10//12 18//19 11//13
f 12//14 7//5 14//14
f 14//14 11//13 12//14
f 12//14 11//13 15//16
f 16//17 8//9 20//21
f 16//17 21//22 13//15
f 18//19 10//12 17//18
f 18//19 22//16 11//13
f 15//16 18//19 19//20
f 15//16 11//13 22//16
f 23//23 16//17 20//21
f 21//22 16//17 24//24
f 17//18 26//26 18//19
f 22//16 18//19 15//16
f 19//20 18//19 28//20
f 16//17 23//23 24//24
f 24//24 29//28 21//22
f 26//26 17//18 25//25
f 26//26 28//20 18//19
f 19//20 26//26 27//27
f 28//20 26//26 19//20
f 30//29 24//24 23//23
f 29//28 24//24 31//30
f 25//25 33//32 26//26
f 27//27 26//26 35//27
f 24//24 30//29 31//30
f 31//30 36//34 29//28
f 33//32 25//25 32//31
f 33//32 35//27 26//26
f 27//27 33//32 34//33
f 35//27 33//32 27//27
f 37//35 31//30 30//29
f 36//34 31//30 38//36
f 32//31 40//38 33//32
f 34//33 33//32 42//33
f 31//30 37//35 38//36
f 38//36 43//40 36//34
f 40//38 32//31 39//37
f 40//38 42//33 33//32
f 34//33 40//38 41//39
f 42//33 40//38 34//33
f 44//41 38//36 37//35
f 43//40 38//36 45//42
f 47//44 40//38 39//37
f 41//39 40//38 48//39
f 38//36 44//41 45//42
f 45//42 46//43 43//40
f 40//38 47//44 50//46
f 52//47 48//39 40//38
f 48//39 51//47 41//39
f 53//48 45//42 44//41
f 46//43 45//42 54//49
f 54//49 49//45 46//43
f 55//50 50//46 47//44
f 50//46 45//42 40//38
f 51//47 48//39 52//47
f 52//47 40//38 56//51
f 45//42 53//48 57//52
f 45//42 50//46 54//49
f 49//45 54//49 59//54
f 50//46 55//50 61//55
f 57//52 40//38 45//42
f 63//56 51//47 52//47
f 40//38 57//52 56//51
f 63//56 52//47 56//51
f 53//48 64//57 57//52
f 61//55 54//49 50//46
f 59//54 58//53 49//45
f 54//49 61//55 59//54
f 60//58 61//55 55//50
f 51//47 63//56 62//56
f 64//57 56//51 57//52
f 63//56 56//51 66//60
f 64//57 53//48 65//59
f 58//53 59//54 68//62
f 70//63 59//54 61//55
f 61//55 60//58 70//63
f 63//56 71//64 62//56
f 56//51 64//57 66//60
f 72//64 63//56 66//60
f 65//59 73//65 64//57
f 68//62 67//61 58//53
f 59//54 70//63 68//62
f 69//66 70//63 60//58
f 71//64 63//56 72//64
f 73//65 66//60 64//57
f 72//64 66//60 75//68
f 73//65 65//59 74//67
f 67//61 68//62 77//70
f 79//71 68//62 70//63
f 70//63 69//66 79//71
f 72//64 80//72 71//64
f 66//60 73//65 75//68
f 81//72 72//64 75//68
f 74//67 82//73 73//65
f 67//61 83//74 76//69
f 68//62 79//71 77//70
f 83//74 67//61 77//70
f 78//75 79//71 69//66
f 80//72 72//64 81//72
f 82//73 75//68 73//65
f 81//72 75//68 85//77
f 82//73 74//67 84//76
f 83//74 86//78 76//69
f 88//79 77//70 79//71
f 77//70 88//79 83//74
f 79//71 78//75 88//79
f 81//72 89//80 80//72
f 75//68 82//73 85//77
f 90//80 81//72 85//77
f 84//76 91//81 82//73
f 83//74 87//82 86//78
f 87//82 88//79 78//75
f 87//82 83//74 88//79
f 89//80 81//72 90//80
f 91//81 85//77 82//73
f 90//80 85//77 93//84
f 91//81 84//76 92//83
f 90//80 94//85 89//80
f 85//77 91//81 93//84
f 95//86 90//80 93//84
f 92//83 96//87 91//81
f 94//85 90//80 95//86
f 96//87 93//84 91//81
f 93//84 96//87 95//86
f 96//87 92//83 97//88
f 98//89 94//85 95//86
f 96//87 99//89 95//86
f 97//88 100//89 96//87
f 94//85 98//89 97//88
f 98//89 95//86 101//89
f 96//87 102//89 99//89
f 101//89 95//86 99//89
f 100//89 97//88 103//89
f 96//87 100//89 102//89
f 97//88 98//89 103//89
usemtl material-1
f 3//90 1//93 7//94
f 2//89 1//89 3//89
f 3//91 1//91 2//91
f 5//96 2//97 8//98
f 5//89 1//89 2//89
f 2//91 1//91 5//91
f 2//97 6//92 9//99
f 2//89 3//89 6//89
f 6//91 3//91 2//91
f 1//93 4//95 7//94
f 5//89 4//89 1//89
f 1//91 4//91 5//91
f 7//94 11//101 3//90
f 9//99 8//98 2//97
f 6//92 13//103 9//99
f 6//89 3//89 10//89
f 10//91 3//91 6//91
f 10//100 3//90 11//101
f 12//102 7//94 4//95
f 7//94 14//102 11//101
f 9//99 16//105 8//98
f 16//105 9//99 13//103
f 6//89 10//89 13//89
f 13//91 10//91 6//91
f 11//101 18//107 10//100
f 14//102 7//94 12//102
f 12//102 11//101 14//102
f 15//104 11//101 12//102
f 20//109 8//98 16//105
f 13//103 21//110 16//105
f 13//89 10//89 17//89
f 17//91 10//91 13//91
f 17//106 10//100 18//107
f 11//101 22//104 18//107
f 19//108 18//107 15//104
f 22//104 11//101 15//104
f 20//109 16//105 23//111
f 24//112 16//105 21//110
f 13//89 17//89 21//89
f 21//91 17//91 13//91
f 18//107 26//114 17//106
f 15//104 18//107 22//104
f 28//108 18//107 19//108
f 24//112 23//111 16//105
f 21//110 29//116 24//112
f 21//89 17//89 25//89
f 25//91 17//91 21//91
f 25//113 17//106 26//114
f 18//107 28//108 26//114
f 27//115 26//114 19//108
f 19//108 26//114 28//108
f 23//111 24//112 30//117
f 31//118 24//112 29//116
f 21//89 25//89 29//89
f 29//91 25//91 21//91
f 26//114 33//120 25//113
f 35//115 26//114 27//115
f 31//118 30//117 24//112
f 29//116 36//122 31//118
f 29//89 25//89 32//89
f 32//91 25//91 29//91
f 32//119 25//113 33//120
f 26//114 35//115 33//120
f 34//121 33//120 27//115
f 27//115 33//120 35//115
f 30//117 31//118 37//123
f 38//124 31//118 36//122
f 29//89 32//89 36//89
f 36//91 32//91 29//91
f 33//120 40//2 32//119
f 42//121 33//120 34//121
f 38//124 37//123 31//118
f 36//122 43//127 38//124
f 36//89 32//89 39//89
f 39//91 32//91 36//91
f 39//125 32//119 40//2
f 33//120 42//121 40//2
f 41//126 40//2 34//121
f 34//121 40//2 42//121
f 37//123 38//124 44//128
f 45//1 38//124 43//127
f 36//89 39//89 43//89
f 43//91 39//91 36//91
f 39//125 40//2 47//130
f 48//126 40//2 41//126
f 45//1 44//128 38//124
f 43//127 46//129 45//1
f 43//89 39//89 47//89
f 47//91 39//91 43//91
f 43//89 47//89 46//89
f 46//91 47//91 43//91
f 50//132 47//130 40//2
f 40//2 48//126 52//133
f 41//126 51//133 48//126
f 44//128 45//1 53//134
f 54//135 45//1 46//129
f 46//89 47//89 55//89
f 55//91 47//91 46//91
f 46//129 49//131 54//135
f 46//89 55//89 49//89
f 49//91 55//91 46//91
f 47//130 50//132 55//136
f 40//2 45//1 50//132
f 52//133 48//126 51//133
f 56//137 40//2 52//133
f 57//138 53//134 45//1
f 54//135 50//132 45//1
f 59//140 54//135 49//131
f 49//89 55//89 60//89
f 60//91 55//91 49//91
f 61//141 55//136 50//132
f 45//1 40//2 57//138
f 52//133 51//133 63//142
f 56//137 57//138 40//2
f 56//137 52//133 63//142
f 57//138 64//143 53//134
f 50//132 54//135 61//141
f 49//131 58//139 59//140
f 49//89 60//89 58//89
f 58//91 60//91 49//91
f 59//140 61//141 54//135
f 55//136 61//141 60//144
f 62//142 63//142 51//133
f 57//138 56//137 64//143
f 66//146 56//137 63//142
f 65//145 53//134 64//143
f 68//148 59//140 58//139
f 58//89 60//89 69//89
f 69//91 60//91 58//91
f 61//141 59//140 70//149
f 70//149 60//144 61//141
f 62//142 71//150 63//142
f 66//146 64//143 56//137
f 66//146 63//142 72//150
f 64//143 73//151 65//145
f 58//139 67//147 68//148
f 58//89 69//89 67//89
f 67//91 69//91 58//91
f 68//148 70//149 59//140
f 60//144 70//149 69//152
f 72//150 63//142 71//150
f 64//143 66//146 73//151
f 75//154 66//146 72//150
f 74//153 65//145 73//151
f 77//156 68//148 67//147
f 67//89 69//89 78//89
f 78//91 69//91 67//91
f 70//149 68//148 79//157
f 79//157 69//152 70//149
f 71//150 80//158 72//150
f 75//154 73//151 66//146
f 75//154 72//150 81//158
f 73//151 82//159 74//153
f 76//155 83//160 67//147
f 77//156 79//157 68//148
f 77//156 67//147 83//160
f 69//152 79//157 78//161
f 81//158 72//150 80//158
f 73//151 75//154 82//159
f 85//163 75//154 81//158
f 84//162 74//153 82//159
f 76//155 86//164 83//160
f 76//89 78//89 87//89
f 87//91 78//91 76//91
f 79//157 77//156 88//165
f 83//160 88//165 77//156
f 88//165 78//161 79//157
f 80//158 89//166 81//158
f 85//163 82//159 75//154
f 85//163 81//158 90//166
f 82//159 91//167 84//162
f 76//89 87//89 86//89
f 86//91 87//91 76//91
f 86//164 87//168 83//160
f 78//161 88//165 87//168
f 88//165 83//160 87//168
f 90//166 81//158 89//166
f 82//159 85//163 91//167
f 93//170 85//163 90//166
f 92//169 84//162 91//167
f 89//166 94//171 90//166
f 93//170 91//167 85//163
f 93//170 90//166 95//172
f 91//167 96//173 92//169
f 95//172 90//166 94//171
f 91//167 93//170 96//173
f 95//172 96//173 93//170
f 97//174 92//169 96//173
f 95//172 94//171 98//91
f 95//172 99//91 96//173
f 96//173 100//91 97//174
f 97//174 98//91 94//171
f 101//91 95//172 98//91
f 99//91 102//91 96//173
f 99//91 95//172 101//91
f 103//91 97//174 100//91
f 102//91 100//91 96//173
f 103//91 98//91 97//174