# SSTK version 0.8.0
# 93
mtllib original-93.mtl
o mesh91/mesh91-geometry#mesh91-geometry
v 0.386074 0.021432 -0.096675
v 0.385548 0.030508 -0.095575
v 0.385495 0.021420 -0.096526
v 0.386127 0.030520 -0.095723
v 0.384955 0.030504 -0.095503
v 0.382286 0.028545 -0.164423
v 0.386628 0.021452 -0.096897
v 0.381748 0.037645 -0.163555
v 0.384902 0.021415 -0.096454
v 0.381150 0.037649 -0.163560
v 0.381694 0.028557 -0.164506
v 0.382862 0.028525 -0.164264
v 0.386682 0.030540 -0.095946
v 0.382339 0.037633 -0.163472
v 0.323314 0.021415 -0.093011
v 0.319563 0.037649 -0.160117
v 0.382915 0.037613 -0.163312
v 0.387149 0.021479 -0.097189
v 0.383412 0.028497 -0.164031
v 0.381097 0.028561 -0.164511
v 0.323368 0.030504 -0.092059
v 0.383465 0.037586 -0.163080
v 0.387202 0.030568 -0.096238
v 0.322717 0.021420 -0.093016
v 0.319509 0.028561 -0.161068
v 0.318969 0.037645 -0.160045
v 0.387627 0.021514 -0.097547
v 0.383926 0.028462 -0.163729
v 0.383980 0.037551 -0.162778
v 0.322770 0.030508 -0.092065
v 0.387680 0.030602 -0.096596
v 0.322125 0.021432 -0.093099
v 0.318916 0.028557 -0.160996
v 0.318391 0.037633 -0.159896
v 0.388053 0.021555 -0.097963
v 0.384397 0.028421 -0.163363
v 0.384450 0.037510 -0.162412
v 0.388107 0.030643 -0.097012
v 0.322178 0.030520 -0.092148
v 0.321549 0.021452 -0.093258
v 0.318337 0.028545 -0.160848
v 0.317836 0.037613 -0.159674
v 0.388475 0.030690 -0.097480
v 0.384815 0.028374 -0.162939
v 0.321603 0.030540 -0.092307
v 0.388422 0.021602 -0.098431
v 0.384869 0.037463 -0.161987
v 0.320999 0.021479 -0.093491
v 0.317783 0.028525 -0.160625
v 0.317316 0.037586 -0.159382
v 0.388779 0.030742 -0.097992
v 0.385174 0.028323 -0.162464
v 0.321053 0.030568 -0.092540
v 0.388726 0.021654 -0.098943
v 0.385228 0.037411 -0.161513
v 0.320485 0.021514 -0.093793
v 0.317262 0.028497 -0.160333
v 0.316838 0.037551 -0.159024
v 0.389013 0.030798 -0.098539
v 0.385468 0.028267 -0.161946
v 0.320538 0.030602 -0.092842
v 0.388960 0.021710 -0.099490
v 0.385521 0.037355 -0.160995
v 0.320014 0.021555 -0.094159
v 0.316785 0.028462 -0.159975
v 0.316411 0.037510 -0.158608
v 0.389174 0.030857 -0.099112
v 0.385691 0.028208 -0.161395
v 0.320068 0.030643 -0.093208
v 0.389120 0.021769 -0.100063
v 0.385745 0.037296 -0.160444
v 0.319649 0.030690 -0.093632
v 0.316358 0.028421 -0.159559
v 0.316043 0.037463 -0.158139
v 0.389257 0.030918 -0.099700
v 0.385840 0.028147 -0.160819
v 0.319596 0.021602 -0.094583
v 0.315989 0.028374 -0.159091
v 0.389204 0.021830 -0.100652
v 0.385894 0.037235 -0.159868
v 0.319290 0.030742 -0.094107
v 0.315739 0.037411 -0.157627
v 0.315685 0.028323 -0.158579
v 0.389263 0.030980 -0.100295
v 0.385913 0.028084 -0.160229
v 0.319237 0.021654 -0.095058
v 0.389210 0.021892 -0.101246
v 0.385966 0.037173 -0.159278
v 0.318996 0.030798 -0.094625
v 0.315504 0.037355 -0.157080
v 0.315451 0.028267 -0.158032
v 0.318943 0.021710 -0.095576
v 0.318773 0.030857 -0.095176
v 0.315344 0.037296 -0.156508
v 0.315291 0.028208 -0.157459
v 0.318720 0.021769 -0.096127
v 0.318624 0.030918 -0.095751
v 0.315260 0.037235 -0.155919
v 0.315207 0.028147 -0.156870
v 0.318571 0.021830 -0.096703
v 0.318552 0.030980 -0.096341
v 0.315254 0.037173 -0.155325
v 0.315201 0.028084 -0.156276
v 0.318499 0.021892 -0.097293
vn 0.24920429883955478 -0.10225303654743619 0.9630376596772913
vn -0.24920429883955478 0.10225303654743619 -0.9630376596772913
vn 0.12069699369894595 -0.10403305240166599 0.9872230546943426
vn -0.12069699369894595 0.10403305240166599 -0.9872230546943426
vn -0.005819665024253486 -0.9945507101324216 -0.10409138520598753
vn 0.005819665024253486 0.9945507101324216 0.10409138520598753
vn 0.3735437674674047 -0.09871807736962016 0.9223447267625609
vn -0.3735437674674047 0.09871807736962016 -0.9223447267625609
vn 0.005819720239505221 0.9945506064461609 0.10409237279410705
vn -0.005819720239505221 -0.9945506064461609 -0.10409237279410705
vn 0.05551785104074399 -0.10424904837732525 0.9930004552507717
vn -0.05551785104074399 0.10424904837732525 -0.9930004552507717
vn 0.14030145631179058 0.1022530365474362 -0.9848146109159933
vn -0.14030145631179058 -0.1022530365474362 0.9848146109159933
vn 0.26840095849581186 0.09872504088853629 -0.9582349877666159
vn -0.26840095849581186 -0.09872504088853629 0.9582349877666159
vn 0.4913587869729624 -0.09350302855079377 0.8659236260296217
vn -0.4913587869729624 0.09350302855079377 -0.8659236260296217
vn 0.009899089052268665 0.10403305240166599 -0.9945245758873571
vn -0.009899089052268665 -0.10403305240166599 0.9945245758873571
vn -0.05551781052562738 0.10425597229791053 -0.9929997305914328
vn 0.05551781052562738 -0.10425597229791053 0.9929997305914328
vn 0.3917250283390873 0.09350805200959528 -0.9153183852529743
vn -0.3917250283390873 -0.09350805200959528 0.9153183852529743
vn -0.009914121601399482 -0.1040330535780724 0.9945244260228577
vn 0.009914121601399482 0.1040330535780724 -0.9945244260228577
vn 0.6009188393987736 -0.08667900246161508 0.7945963119646922
vn -0.6009188393987736 0.08667900246161508 -0.7945963119646922
vn 0.5086001909608965 0.0866790024616151 -0.8566286221501119
vn -0.5086001909608965 -0.0866790024616151 0.8566286221501119
vn -0.12071191585692394 0.1040330535780724 -0.9872212300864345
vn 0.12071191585692394 -0.1040330535780724 0.9872212300864345
vn 0.7000277072281202 -0.07838698178165937 0.7098004580162676
vn -0.7000277072281202 0.07838698178165937 -0.7098004580162676
vn 0.6165769956872977 0.07838696913283746 -0.783382595836411
vn -0.6165769956872977 -0.07838696913283746 0.783382595836411
vn -0.2684020561320905 -0.09871807736962016 0.9582353977309082
vn 0.2684020561320905 0.09871807736962016 -0.9582353977309082
vn 0.7872737226145783 -0.06874098545402518 0.6127599551205951
vn -0.7872737226145783 0.06874098545402518 -0.6127599551205951
vn 0.7140632413021358 0.06874600690403136 -0.696697691940944
vn -0.7140632413021358 -0.06874600690403136 0.696697691940944
vn -0.37354263097311224 0.09872504088853629 -0.922344441706699
vn 0.37354263097311224 -0.09872504088853629 0.922344441706699
vn -0.39177208643283007 -0.09350302855079379 0.9152987577528424
vn 0.39177208643283007 0.09350302855079379 -0.9152987577528424
vn 0.8610757304312339 -0.057908983761480994 0.5051684234609576
vn -0.8610757304312339 0.057908983761480994 -0.5051684234609576
vn 0.7993795690230714 0.057914033935601204 -0.5980286525759402
vn -0.7993795690230714 -0.057914033935601204 0.5980286525759402
vn -0.49131421003071796 0.09350805200959526 -0.8659483767703837
vn 0.49131421003071796 -0.09350805200959526 0.8659483767703837
vn 0.9200485389691184 -0.04610298900538277 0.38908251097364965
vn -0.9200485389691184 0.04610298900538277 -0.38908251097364965
vn 0.8709436125097869 0.04610298900538278 -0.4892154313113718
vn -0.8709436125097869 -0.04610298900538278 0.4892154313113718
vn -0.6165435820764386 -0.0783869817816594 0.7834088922698772
vn 0.6165435820764386 0.0783869817816594 -0.7834088922698772
vn 0.9632889214068758 -0.03351600035566647 0.2663665362145498
vn -0.9632889214068758 0.03351600035566647 -0.2663665362145498
vn 0.927600459541924 0.03351299546880737 -0.3720675564898384
vn -0.927600459541924 -0.03351299546880737 0.3720675564898384
vn -0.7000579813369302 0.07838696913283744 -0.7097706008539872
vn 0.7000579813369302 -0.07838696913283744 0.7097706008539872
vn -0.7140629626684226 -0.06874098545402518 0.6966984729881387
vn 0.7140629626684226 0.06874098545402518 -0.6966984729881387
vn 0.9900637941346471 -0.020357006564289785 0.13913761471093455
vn -0.9900637941346471 0.020357006564289785 -0.13913761471093455
vn 0.9683836381654057 0.02035600302544255 -0.248633791899574
vn -0.9683836381654057 -0.02035600302544255 0.248633791899574
vn -0.7872739124485058 0.06874600690403135 -0.6127591478817539
vn 0.7872739124485058 -0.06874600690403135 0.6127591478817539
vn -0.7992844670176696 -0.05792603926906158 0.5981545910204812
vn 0.7992844670176696 0.05792603926906158 -0.5981545910204812
vn -0.8609634562140367 0.057931008942470934 -0.5053572254028706
vn 0.8609634562140367 -0.057931008942470934 0.5053572254028706
vn 0.9999341928966696 -0.006817001352647341 0.009227045499170654
vn -0.9999341928966696 0.006817001352647341 -0.009227045499170654
vn 0.9926735094422396 0.006817000022667943 -0.12063511993743335
vn -0.9926735094422396 -0.006817000022667943 0.12063511993743335
vn 0.9984407357955744 0 -0.055822012718927644
vn -0.9984407357955744 0 0.055822012718927644
vn -0.9275936551865364 -0.03351600035566649 0.37208424930093525
vn 0.9275936551865364 0.03351600035566649 -0.37208424930093525
vn -0.9632938226094995 0.03351299546880735 -0.266349188955187
vn 0.9632938226094995 -0.03351299546880735 0.266349188955187
vn -0.9684393542135971 -0.02033399494816082 0.2484184893678388
vn 0.9684393542135971 0.02033399494816082 -0.2484184893678388
vn -0.9900950670380383 0.02033299536185 -0.13891842040045507
vn 0.9900950670380383 -0.02033299536185 0.13891842040045507
vn -0.992673870576356 -0.006817001352647366 0.12063214815095497
vn 0.992673870576356 0.006817001352647366 -0.12063214815095497
vn -0.9999341652780802 0.006817000022667918 -0.009230039020497897
vn 0.9999341652780802 -0.006817000022667918 0.009230039020497897
usemtl material_0_0
f 1//1 2//1 3//1
f 2//1 1//1 4//1
f 3//2 2//2 1//2
f 4//2 1//2 2//2
f 5//3 3//3 2//3
f 2//4 3//4 5//4
f 3//5 6//5 1//5
f 1//6 6//6 3//6
f 7//7 4//7 1//7
f 1//8 4//8 7//8
f 8//9 2//9 4//9
f 4//10 2//10 8//10
f 3//3 5//3 9//3
f 9//4 5//4 3//4
f 10//9 5//9 2//9
f 2//10 5//10 10//10
f 3//5 11//5 6//5
f 6//6 11//6 3//6
f 1//5 6//5 12//5
f 12//6 6//6 1//6
f 4//7 7//7 13//7
f 13//8 7//8 4//8
f 1//5 12//5 7//5
f 7//6 12//6 1//6
f 10//9 2//9 8//9
f 8//10 2//10 10//10
f 8//9 4//9 14//9
f 14//10 4//10 8//10
f 5//11 15//11 9//11
f 9//12 15//12 5//12
f 9//5 11//5 3//5
f 3//6 11//6 9//6
f 16//9 5//9 10//9
f 10//10 5//10 16//10
f 11//13 14//13 6//13
f 6//14 14//14 11//14
f 6//15 17//15 12//15
f 12//16 17//16 6//16
f 18//17 13//17 7//17
f 7//18 13//18 18//18
f 14//9 4//9 13//9
f 13//10 4//10 14//10
f 7//5 12//5 19//5
f 19//6 12//6 7//6
f 8//19 20//19 10//19
f 10//20 20//20 8//20
f 14//13 11//13 8//13
f 8//14 11//14 14//14
f 15//11 5//11 21//11
f 21//12 5//12 15//12
f 15//5 20//5 9//5
f 9//6 20//6 15//6
f 9//5 20//5 11//5
f 11//6 20//6 9//6
f 16//9 21//9 5//9
f 5//10 21//10 16//10
f 20//21 16//21 10//21
f 10//22 16//22 20//22
f 17//15 6//15 14//15
f 14//16 6//16 17//16
f 22//23 12//23 17//23
f 17//24 12//24 22//24
f 13//17 18//17 23//17
f 23//18 18//18 13//18
f 7//5 19//5 18//5
f 18//6 19//6 7//6
f 14//9 13//9 17//9
f 17//10 13//10 14//10
f 12//23 22//23 19//23
f 19//24 22//24 12//24
f 20//19 8//19 11//19
f 11//20 8//20 20//20
f 21//25 24//25 15//25
f 15//26 24//26 21//26
f 15//5 25//5 20//5
f 20//6 25//6 15//6
f 26//9 21//9 16//9
f 16//10 21//10 26//10
f 16//21 20//21 25//21
f 25//22 20//22 16//22
f 17//9 23//9 22//9
f 22//10 23//10 17//10
f 27//27 23//27 18//27
f 18//28 23//28 27//28
f 17//9 13//9 23//9
f 23//10 13//10 17//10
f 18//5 19//5 28//5
f 28//6 19//6 18//6
f 29//29 19//29 22//29
f 22//30 19//30 29//30
f 24//25 21//25 30//25
f 30//26 21//26 24//26
f 24//5 25//5 15//5
f 15//6 25//6 24//6
f 26//9 30//9 21//9
f 21//10 30//10 26//10
f 25//31 26//31 16//31
f 16//32 26//32 25//32
f 22//9 23//9 31//9
f 31//10 23//10 22//10
f 23//27 27//27 31//27
f 31//28 27//28 23//28
f 18//5 28//5 27//5
f 27//6 28//6 18//6
f 19//29 29//29 28//29
f 28//30 29//30 19//30
f 22//9 31//9 29//9
f 29//10 31//10 22//10
f 30//14 32//14 24//14
f 24//13 32//13 30//13
f 24//5 33//5 25//5
f 25//6 33//6 24//6
f 34//9 30//9 26//9
f 26//10 30//10 34//10
f 26//31 25//31 33//31
f 33//32 25//32 26//32
f 35//33 31//33 27//33
f 27//34 31//34 35//34
f 27//5 28//5 36//5
f 36//6 28//6 27//6
f 37//35 28//35 29//35
f 29//36 28//36 37//36
f 29//9 31//9 38//9
f 38//10 31//10 29//10
f 32//14 30//14 39//14
f 39//13 30//13 32//13
f 32//5 33//5 24//5
f 24//6 33//6 32//6
f 34//9 39//9 30//9
f 30//10 39//10 34//10
f 33//2 34//2 26//2
f 26//1 34//1 33//1
f 31//33 35//33 38//33
f 38//34 35//34 31//34
f 27//5 36//5 35//5
f 35//6 36//6 27//6
f 28//35 37//35 36//35
f 36//36 37//36 28//36
f 29//9 38//9 37//9
f 37//10 38//10 29//10
f 39//37 40//37 32//37
f 32//38 40//38 39//38
f 32//5 41//5 33//5
f 33//6 41//6 32//6
f 42//9 39//9 34//9
f 34//10 39//10 42//10
f 34//2 33//2 41//2
f 41//1 33//1 34//1
f 35//39 43//39 38//39
f 38//40 43//40 35//40
f 35//5 36//5 44//5
f 44//6 36//6 35//6
f 37//41 44//41 36//41
f 36//42 44//42 37//42
f 37//9 38//9 43//9
f 43//10 38//10 37//10
f 40//37 39//37 45//37
f 45//38 39//38 40//38
f 40//5 41//5 32//5
f 32//6 41//6 40//6
f 42//9 45//9 39//9
f 39//10 45//10 42//10
f 41//43 42//43 34//43
f 34//44 42//44 41//44
f 43//39 35//39 46//39
f 46//40 35//40 43//40
f 35//5 44//5 46//5
f 46//6 44//6 35//6
f 44//41 37//41 47//41
f 47//42 37//42 44//42
f 37//9 43//9 47//9
f 47//10 43//10 37//10
f 45//45 48//45 40//45
f 40//46 48//46 45//46
f 40//5 49//5 41//5
f 41//6 49//6 40//6
f 50//9 45//9 42//9
f 42//10 45//10 50//10
f 42//43 41//43 49//43
f 49//44 41//44 42//44
f 46//47 51//47 43//47
f 43//48 51//48 46//48
f 46//5 44//5 52//5
f 52//6 44//6 46//6
f 47//49 52//49 44//49
f 44//50 52//50 47//50
f 47//9 43//9 51//9
f 51//10 43//10 47//10
f 48//45 45//45 53//45
f 53//46 45//46 48//46
f 48//5 49//5 40//5
f 40//6 49//6 48//6
f 50//9 53//9 45//9
f 45//10 53//10 50//10
f 49//51 50//51 42//51
f 42//52 50//52 49//52
f 51//47 46//47 54//47
f 54//48 46//48 51//48
f 46//5 52//5 54//5
f 54//6 52//6 46//6
f 52//49 47//49 55//49
f 55//50 47//50 52//50
f 47//9 51//9 55//9
f 55//10 51//10 47//10
f 53//30 56//30 48//30
f 48//29 56//29 53//29
f 48//5 57//5 49//5
f 49//6 57//6 48//6
f 58//9 53//9 50//9
f 50//10 53//10 58//10
f 50//51 49//51 57//51
f 57//52 49//52 50//52
f 54//53 59//53 51//53
f 51//54 59//54 54//54
f 54//5 52//5 60//5
f 60//6 52//6 54//6
f 55//55 60//55 52//55
f 52//56 60//56 55//56
f 55//9 51//9 59//9
f 59//10 51//10 55//10
f 56//30 53//30 61//30
f 61//29 53//29 56//29
f 56//5 57//5 48//5
f 48//6 57//6 56//6
f 58//9 61//9 53//9
f 53//10 61//10 58//10
f 57//28 58//28 50//28
f 50//27 58//27 57//27
f 59//53 54//53 62//53
f 62//54 54//54 59//54
f 54//5 60//5 62//5
f 62//6 60//6 54//6
f 60//55 55//55 63//55
f 63//56 55//56 60//56
f 55//9 59//9 63//9
f 63//10 59//10 55//10
f 61//57 64//57 56//57
f 56//58 64//58 61//58
f 56//5 65//5 57//5
f 57//6 65//6 56//6
f 66//9 61//9 58//9
f 58//10 61//10 66//10
f 58//28 57//28 65//28
f 65//27 57//27 58//27
f 62//59 67//59 59//59
f 59//60 67//60 62//60
f 62//5 60//5 68//5
f 68//6 60//6 62//6
f 63//61 68//61 60//61
f 60//62 68//62 63//62
f 63//9 59//9 67//9
f 67//10 59//10 63//10
f 64//57 61//57 69//57
f 69//58 61//58 64//58
f 64//5 65//5 56//5
f 56//6 65//6 64//6
f 66//9 69//9 61//9
f 61//10 69//10 66//10
f 65//63 66//63 58//63
f 58//64 66//64 65//64
f 67//59 62//59 70//59
f 70//60 62//60 67//60
f 62//5 68//5 70//5
f 70//6 68//6 62//6
f 68//61 63//61 71//61
f 71//62 63//62 68//62
f 63//9 67//9 71//9
f 71//10 67//10 63//10
f 72//65 64//65 69//65
f 69//66 64//66 72//66
f 64//5 73//5 65//5
f 65//6 73//6 64//6
f 74//9 69//9 66//9
f 66//10 69//10 74//10
f 66//63 65//63 73//63
f 73//64 65//64 66//64
f 70//67 75//67 67//67
f 67//68 75//68 70//68
f 70//5 68//5 76//5
f 76//6 68//6 70//6
f 71//69 76//69 68//69
f 68//70 76//70 71//70
f 71//9 67//9 75//9
f 75//10 67//10 71//10
f 64//65 72//65 77//65
f 77//66 72//66 64//66
f 74//9 72//9 69//9
f 69//10 72//10 74//10
f 77//5 73//5 64//5
f 64//6 73//6 77//6
f 66//71 78//71 74//71
f 74//72 78//72 66//72
f 78//71 66//71 73//71
f 73//72 66//72 78//72
f 75//67 70//67 79//67
f 79//68 70//68 75//68
f 70//5 76//5 79//5
f 79//6 76//6 70//6
f 76//69 71//69 80//69
f 80//70 71//70 76//70
f 71//9 75//9 80//9
f 80//10 75//10 71//10
f 81//73 77//73 72//73
f 72//74 77//74 81//74
f 82//9 72//9 74//9
f 74//10 72//10 82//10
f 77//5 78//5 73//5
f 73//6 78//6 77//6
f 83//75 74//75 78//75
f 78//76 74//76 83//76
f 79//77 84//77 75//77
f 75//78 84//78 79//78
f 79//5 76//5 85//5
f 85//6 76//6 79//6
f 80//79 85//79 76//79
f 76//80 85//80 80//80
f 80//9 75//9 84//9
f 84//10 75//10 80//10
f 77//73 81//73 86//73
f 86//74 81//74 77//74
f 82//9 81//9 72//9
f 72//10 81//10 82//10
f 74//75 83//75 82//75
f 82//76 83//76 74//76
f 86//5 78//5 77//5
f 77//6 78//6 86//6
f 86//5 83//5 78//5
f 78//6 83//6 86//6
f 84//77 79//77 87//77
f 87//78 79//78 84//78
f 79//5 85//5 87//5
f 87//6 85//6 79//6
f 85//79 80//79 88//79
f 88//80 80//80 85//80
f 80//9 84//9 88//9
f 88//10 84//10 80//10
f 89//56 86//56 81//56
f 81//55 86//55 89//55
f 90//9 81//9 82//9
f 82//10 81//10 90//10
f 91//54 82//54 83//54
f 83//53 82//53 91//53
f 92//5 83//5 86//5
f 86//6 83//6 92//6
f 87//81 88//81 84//81
f 84//82 88//82 87//82
f 88//81 87//81 85//81
f 85//82 87//82 88//82
f 86//56 89//56 92//56
f 92//55 89//55 86//55
f 90//9 89//9 81//9
f 81//10 89//10 90//10
f 82//54 91//54 90//54
f 90//53 91//53 82//53
f 92//5 91//5 83//5
f 83//6 91//6 92//6
f 93//83 92//83 89//83
f 89//84 92//84 93//84
f 94//9 89//9 90//9
f 90//10 89//10 94//10
f 95//85 90//85 91//85
f 91//86 90//86 95//86
f 96//5 91//5 92//5
f 92//6 91//6 96//6
f 92//83 93//83 96//83
f 96//84 93//84 92//84
f 94//9 93//9 89//9
f 89//10 93//10 94//10
f 90//85 95//85 94//85
f 94//86 95//86 90//86
f 96//5 95//5 91//5
f 91//6 95//6 96//6
f 97//87 96//87 93//87
f 93//88 96//88 97//88
f 98//9 93//9 94//9
f 94//10 93//10 98//10
f 99//89 94//89 95//89
f 95//90 94//90 99//90
f 100//5 95//5 96//5
f 96//6 95//6 100//6
f 96//87 97//87 100//87
f 100//88 97//88 96//88
f 98//9 97//9 93//9
f 93//10 97//10 98//10
f 94//89 99//89 98//89
f 98//90 99//90 94//90
f 100//5 99//5 95//5
f 95//6 99//6 100//6
f 101//91 100//91 97//91
f 97//92 100//92 101//92
f 102//9 97//9 98//9
f 98//10 97//10 102//10
f 103//93 98//93 99//93
f 99//94 98//94 103//94
f 104//5 99//5 100//5
f 100//6 99//6 104//6
f 100//91 101//91 104//91
f 104//92 101//92 100//92
f 97//9 102//9 101//9
f 101//10 102//10 97//10
f 98//93 103//93 102//93
f 102//94 103//94 98//94
f 99//5 104//5 103//5
f 103//6 104//6 99//6
f 102//82 104//82 101//82
f 101//81 104//81 102//81
f 104//82 102//82 103//82
f 103//81 102//81 104//81
