# SSTK version 0.8.0
# 55
mtllib original-55.mtl
o mesh53/mesh53-geometry#mesh53-geometry
v 0.383611 0.030340 -0.181647
v 0.383086 0.039416 -0.180547
v 0.383032 0.030327 -0.181499
v 0.383664 0.039428 -0.180696
v 0.382492 0.039412 -0.180475
v 0.381346 0.034594 -0.222172
v 0.384166 0.030360 -0.181869
v 0.380807 0.043695 -0.221304
v 0.382439 0.030323 -0.181426
v 0.380209 0.043699 -0.221310
v 0.380754 0.034606 -0.222256
v 0.381921 0.034574 -0.222013
v 0.384219 0.039448 -0.180918
v 0.381399 0.043683 -0.221221
v 0.318571 0.030323 -0.177856
v 0.316341 0.043699 -0.217739
v 0.381975 0.043663 -0.221062
v 0.384686 0.030387 -0.182162
v 0.382471 0.034547 -0.221781
v 0.380156 0.034611 -0.222261
v 0.318624 0.039412 -0.176904
v 0.382524 0.043635 -0.220830
v 0.384739 0.039476 -0.181211
v 0.317973 0.030327 -0.177861
v 0.316288 0.034611 -0.218690
v 0.315748 0.043695 -0.217667
v 0.385164 0.030422 -0.182519
v 0.382986 0.034512 -0.221479
v 0.383039 0.043601 -0.220527
v 0.318026 0.039416 -0.176910
v 0.385217 0.039510 -0.181568
v 0.317381 0.030340 -0.177944
v 0.315695 0.034606 -0.218618
v 0.315169 0.043683 -0.217518
v 0.385591 0.030463 -0.182936
v 0.383456 0.034471 -0.221112
v 0.383509 0.043560 -0.220161
v 0.385644 0.039551 -0.181985
v 0.317435 0.039428 -0.176993
v 0.316806 0.030360 -0.178103
v 0.315116 0.034594 -0.218470
v 0.314615 0.043663 -0.217296
v 0.386012 0.039598 -0.182453
v 0.383875 0.034424 -0.220688
v 0.316859 0.039448 -0.177152
v 0.385959 0.030510 -0.183404
v 0.383928 0.043513 -0.219737
v 0.316256 0.030387 -0.178336
v 0.314561 0.034574 -0.218247
v 0.314094 0.043635 -0.217004
v 0.386316 0.039650 -0.182965
v 0.384234 0.034372 -0.220213
v 0.316309 0.039476 -0.177385
v 0.386263 0.030562 -0.183916
v 0.384287 0.043461 -0.219262
v 0.315741 0.030422 -0.178638
v 0.314041 0.034547 -0.217955
v 0.313616 0.043601 -0.216646
v 0.386551 0.039706 -0.183512
v 0.384528 0.034316 -0.219696
v 0.315794 0.039510 -0.177687
v 0.386497 0.030617 -0.184463
v 0.384581 0.043405 -0.218745
v 0.315271 0.030463 -0.179004
v 0.313563 0.034512 -0.217597
v 0.313189 0.043560 -0.216230
v 0.386711 0.039765 -0.184084
v 0.384751 0.034257 -0.219145
v 0.315324 0.039551 -0.178053
v 0.386658 0.030676 -0.185036
v 0.384804 0.043346 -0.218193
v 0.314906 0.039598 -0.178477
v 0.313136 0.034471 -0.217181
v 0.312821 0.043513 -0.215761
v 0.386795 0.039826 -0.184673
v 0.384900 0.034196 -0.218569
v 0.314852 0.030510 -0.179428
v 0.312768 0.034424 -0.216713
v 0.386742 0.030737 -0.185624
v 0.384953 0.043285 -0.217618
v 0.314546 0.039650 -0.178952
v 0.312517 0.043461 -0.215249
v 0.312464 0.034372 -0.216201
v 0.384972 0.034134 -0.217979
v 0.386801 0.039888 -0.185267
v 0.314493 0.030562 -0.179903
v 0.386748 0.030800 -0.186219
v 0.385025 0.043223 -0.217028
v 0.314253 0.039706 -0.179470
v 0.312283 0.043405 -0.214702
v 0.312230 0.034316 -0.215654
v 0.314199 0.030617 -0.180421
v 0.314029 0.039765 -0.180021
v 0.312122 0.043346 -0.214130
v 0.312069 0.034257 -0.215081
v 0.313976 0.030676 -0.180972
v 0.313880 0.039826 -0.180596
v 0.312039 0.043285 -0.213541
v 0.311985 0.034196 -0.214492
v 0.313827 0.030737 -0.181548
v 0.313808 0.039888 -0.181186
v 0.312033 0.043223 -0.212947
v 0.311980 0.034134 -0.213898
v 0.313755 0.030800 -0.182138
vn 0.24925756392302584 -0.10224899860019426 0.9630243034900086
vn -0.24925756392302584 0.10224899860019426 -0.9630243034900086
vn 0.12071191585692394 -0.1040330535780724 0.9872212300864345
vn -0.12071191585692394 0.1040330535780724 -0.9872212300864345
vn -0.005819665024253486 -0.9945507101324216 -0.10409138520598753
vn 0.005819665024253486 0.9945507101324216 0.10409138520598753
vn 0.37349368024490975 -0.09871703203646029 0.9223651220655655
vn -0.37349368024490975 0.09871703203646029 -0.9223651220655655
vn 0.005819720239505221 0.9945506064461609 0.10409237279410705
vn -0.005819720239505221 -0.9945506064461609 -0.10409237279410705
vn 0.05551781052562738 -0.10425597229791053 0.9929997305914328
vn -0.05551781052562738 0.10425597229791053 -0.9929997305914328
vn 0.14030145631179058 0.1022530365474362 -0.9848146109159933
vn -0.14030145631179058 -0.1022530365474362 0.9848146109159933
vn 0.2684008353836264 0.09871801613626785 -0.9582357459704219
vn -0.2684008353836264 -0.09871801613626785 0.9582357459704219
vn 0.4913587869729624 -0.09350302855079377 0.8659236260296217
vn -0.4913587869729624 0.09350302855079377 -0.8659236260296217
vn 0.009914121601399482 0.1040330535780724 -0.9945244260228577
vn -0.009914121601399482 -0.1040330535780724 0.9945244260228577
vn -0.05551785104074399 0.10424904837732525 -0.9930004552507717
vn 0.05551785104074399 -0.10424904837732525 0.9930004552507717
vn 0.39177208643283007 0.09350302855079379 -0.9152987577528424
vn -0.39177208643283007 -0.09350302855079379 0.9152987577528424
vn 0.6009188393987736 -0.08667900246161508 0.7945963119646922
vn -0.6009188393987736 0.08667900246161508 -0.7945963119646922
vn 0.5085599303667991 0.08667802461145953 -0.8566526234564227
vn -0.5085599303667991 -0.08667802461145953 0.8566526234564227
vn -0.1403558782503508 -0.10224899860019428 0.9848072754228769
vn 0.1403558782503508 0.10224899860019428 -0.9848072754228769
vn 0.7000280364540302 -0.078381018645952 0.7098007918383424
vn -0.7000280364540302 0.078381018645952 -0.7098007918383424
vn 0.6165772856659012 0.07838100599808041 -0.7833829642643491
vn -0.6165772856659012 -0.07838100599808041 0.7833829642643491
vn -0.24920429883955478 0.10225303654743619 -0.9630376596772913
vn 0.24920429883955478 -0.10225303654743619 0.9630376596772913
vn -0.26835000759963207 -0.09871703203646029 0.9582500827065917
vn 0.26835000759963207 0.09871703203646029 -0.9582500827065917
vn 0.7872739931946773 -0.06873600907912808 0.6127601657216154
vn -0.7872739931946773 0.06873600907912808 -0.6127601657216154
vn 0.7140629626684226 0.06874098545402518 -0.6966984729881387
vn -0.7140629626684226 -0.06874098545402518 0.6966984729881387
vn -0.3735425931451209 0.09871801613626785 -0.92234520890854
vn 0.3735425931451209 -0.09871801613626785 0.92234520890854
vn 0.8610757304312339 -0.057908983761480994 0.5051684234609576
vn -0.8610757304312339 0.057908983761480994 -0.5051684234609576
vn 0.7993795690230714 0.057914033935601204 -0.5980286525759402
vn -0.7993795690230714 -0.057914033935601204 0.5980286525759402
vn -0.5086001909608965 -0.0866790024616151 0.8566286221501119
vn 0.5086001909608965 0.0866790024616151 -0.8566286221501119
vn 0.9199686367181842 -0.046126031719731224 0.38926866898412965
vn -0.9199686367181842 0.046126031719731224 -0.38926866898412965
vn -0.8708430181948049 -0.04612601142351142 0.4893923055499758
vn 0.8708430181948049 0.04612601142351142 -0.4893923055499758
vn -0.6008815051407619 0.08667802461145953 -0.7946246515363262
vn 0.6008815051407619 -0.08667802461145953 0.7946246515363262
vn -0.616543872039421 -0.078381018645952 0.7834092607103013
vn 0.616543872039421 0.078381018645952 -0.7834092607103013
vn 0.9632889214068758 -0.03351600035566647 0.2663665362145498
vn -0.9632889214068758 0.03351600035566647 -0.2663665362145498
vn -0.9275936551865364 -0.03351600035566649 0.37208424930093525
vn 0.9275936551865364 0.03351600035566649 -0.37208424930093525
vn -0.700058310576972 0.07838100599808039 -0.7097709346619123
vn 0.700058310576972 -0.07838100599808039 0.7097709346619123
vn -0.7140632080865301 -0.06873600907912808 0.6966987124382007
vn 0.7140632080865301 0.06873600907912808 -0.6966987124382007
vn 0.9900951831330536 -0.020333998892353267 0.13891744608137288
vn -0.9900951831330536 0.020333998892353267 -0.13891744608137288
vn -0.9684421711142243 -0.02033199927307744 0.24840767100298533
vn 0.9684421711142243 0.02033199927307744 -0.24840767100298533
vn -0.7872737226145783 0.06874098545402518 -0.6127599551205951
vn 0.7872737226145783 -0.06874098545402518 0.6127599551205951
vn -0.7992844670176696 -0.05792603926906158 0.5981545910204812
vn 0.7992844670176696 0.05792603926906158 -0.5981545910204812
vn -0.8609634562140367 0.057931008942470934 -0.5053572254028706
vn 0.8609634562140367 -0.057931008942470934 0.5053572254028706
vn -0.0058176681438304335 -0.9945507101304326 -0.10409149684974552
vn 0.0058176681438304335 0.9945507101304326 0.10409149684974552
vn 0.9999341584610292 -0.006817999976189529 0.009230038957572108
vn -0.9999341584610292 0.006817999976189529 -0.009230038957572108
vn -0.9926735026746879 -0.006817999976189553 0.12063511911500341
vn 0.9926735026746879 0.006817999976189553 -0.12063511911500341
vn -0.005839633827199742 -0.9945507099335117 -0.10409026874550785
vn 0.005839633827199742 0.9945507099335117 0.10409026874550785
vn -0.0058006946592979915 -0.9945507099529054 -0.10409244580487743
vn 0.0058006946592979915 0.9945507099529054 0.10409244580487743
vn -0.8709438907832102 -0.0461070007808116 0.4892145578234582
vn 0.8709438907832102 0.0461070007808116 -0.4892145578234582
vn -0.9200487181406398 0.04610700078081158 -0.3890816119103597
vn 0.9200487181406398 -0.04610700078081158 0.3890816119103597
vn -0.9984407357955744 0 0.055822012718927644
vn 0.9984407357955744 0 -0.055822012718927644
vn -0.9684395978841305 -0.020333998892353284 0.2484175391132221
vn 0.9684395978841305 0.020333998892353284 -0.2484175391132221
vn -0.9900966403285927 0.020331999273077408 -0.13890735263330387
vn 0.9900966403285927 -0.020331999273077408 0.13890735263330387
usemtl material_0_0
f 1//1 2//1 3//1
f 2//1 1//1 4//1
f 3//2 2//2 1//2
f 4//2 1//2 2//2
f 5//3 3//3 2//3
f 2//4 3//4 5//4
f 3//5 6//5 1//5
f 1//6 6//6 3//6
f 7//7 4//7 1//7
f 1//8 4//8 7//8
f 8//9 2//9 4//9
f 4//10 2//10 8//10
f 3//3 5//3 9//3
f 9//4 5//4 3//4
f 10//9 5//9 2//9
f 2//10 5//10 10//10
f 3//5 11//5 6//5
f 6//6 11//6 3//6
f 1//5 6//5 12//5
f 12//6 6//6 1//6
f 4//7 7//7 13//7
f 13//8 7//8 4//8
f 1//5 12//5 7//5
f 7//6 12//6 1//6
f 10//9 2//9 8//9
f 8//10 2//10 10//10
f 8//9 4//9 14//9
f 14//10 4//10 8//10
f 5//11 15//11 9//11
f 9//12 15//12 5//12
f 9//5 11//5 3//5
f 3//6 11//6 9//6
f 16//9 5//9 10//9
f 10//10 5//10 16//10
f 11//13 14//13 6//13
f 6//14 14//14 11//14
f 6//15 17//15 12//15
f 12//16 17//16 6//16
f 18//17 13//17 7//17
f 7//18 13//18 18//18
f 14//9 4//9 13//9
f 13//10 4//10 14//10
f 7//5 12//5 19//5
f 19//6 12//6 7//6
f 8//19 20//19 10//19
f 10//20 20//20 8//20
f 14//13 11//13 8//13
f 8//14 11//14 14//14
f 15//11 5//11 21//11
f 21//12 5//12 15//12
f 15//5 20//5 9//5
f 9//6 20//6 15//6
f 9//5 20//5 11//5
f 11//6 20//6 9//6
f 16//9 21//9 5//9
f 5//10 21//10 16//10
f 20//21 16//21 10//21
f 10//22 16//22 20//22
f 17//15 6//15 14//15
f 14//16 6//16 17//16
f 22//23 12//23 17//23
f 17//24 12//24 22//24
f 13//17 18//17 23//17
f 23//18 18//18 13//18
f 7//5 19//5 18//5
f 18//6 19//6 7//6
f 14//9 13//9 17//9
f 17//10 13//10 14//10
f 12//23 22//23 19//23
f 19//24 22//24 12//24
f 20//19 8//19 11//19
f 11//20 8//20 20//20
f 21//20 24//20 15//20
f 15//19 24//19 21//19
f 15//5 25//5 20//5
f 20//6 25//6 15//6
f 26//9 21//9 16//9
f 16//10 21//10 26//10
f 16//21 20//21 25//21
f 25//22 20//22 16//22
f 17//9 23//9 22//9
f 22//10 23//10 17//10
f 27//25 23//25 18//25
f 18//26 23//26 27//26
f 17//9 13//9 23//9
f 23//10 13//10 17//10
f 18//5 19//5 28//5
f 28//6 19//6 18//6
f 29//27 19//27 22//27
f 22//28 19//28 29//28
f 24//20 21//20 30//20
f 30//19 21//19 24//19
f 24//5 25//5 15//5
f 15//6 25//6 24//6
f 26//9 30//9 21//9
f 21//10 30//10 26//10
f 25//4 26//4 16//4
f 16//3 26//3 25//3
f 22//9 23//9 31//9
f 31//10 23//10 22//10
f 23//25 27//25 31//25
f 31//26 27//26 23//26
f 18//5 28//5 27//5
f 27//6 28//6 18//6
f 19//27 29//27 28//27
f 28//28 29//28 19//28
f 22//9 31//9 29//9
f 29//10 31//10 22//10
f 30//29 32//29 24//29
f 24//30 32//30 30//30
f 24//5 33//5 25//5
f 25//6 33//6 24//6
f 34//9 30//9 26//9
f 26//10 30//10 34//10
f 26//4 25//4 33//4
f 33//3 25//3 26//3
f 35//31 31//31 27//31
f 27//32 31//32 35//32
f 27//5 28//5 36//5
f 36//6 28//6 27//6
f 37//33 28//33 29//33
f 29//34 28//34 37//34
f 29//9 31//9 38//9
f 38//10 31//10 29//10
f 32//29 30//29 39//29
f 39//30 30//30 32//30
f 32//5 33//5 24//5
f 24//6 33//6 32//6
f 34//9 39//9 30//9
f 30//10 39//10 34//10
f 33//35 34//35 26//35
f 26//36 34//36 33//36
f 31//31 35//31 38//31
f 38//32 35//32 31//32
f 27//5 36//5 35//5
f 35//6 36//6 27//6
f 28//33 37//33 36//33
f 36//34 37//34 28//34
f 29//9 38//9 37//9
f 37//10 38//10 29//10
f 39//37 40//37 32//37
f 32//38 40//38 39//38
f 32//5 41//5 33//5
f 33//6 41//6 32//6
f 42//9 39//9 34//9
f 34//10 39//10 42//10
f 34//35 33//35 41//35
f 41//36 33//36 34//36
f 35//39 43//39 38//39
f 38//40 43//40 35//40
f 35//5 36//5 44//5
f 44//6 36//6 35//6
f 37//41 44//41 36//41
f 36//42 44//42 37//42
f 37//9 38//9 43//9
f 43//10 38//10 37//10
f 40//37 39//37 45//37
f 45//38 39//38 40//38
f 40//5 41//5 32//5
f 32//6 41//6 40//6
f 42//9 45//9 39//9
f 39//10 45//10 42//10
f 41//43 42//43 34//43
f 34//44 42//44 41//44
f 43//39 35//39 46//39
f 46//40 35//40 43//40
f 35//5 44//5 46//5
f 46//6 44//6 35//6
f 44//41 37//41 47//41
f 47//42 37//42 44//42
f 37//9 43//9 47//9
f 47//10 43//10 37//10
f 45//24 48//24 40//24
f 40//23 48//23 45//23
f 40//5 49//5 41//5
f 41//6 49//6 40//6
f 50//9 45//9 42//9
f 42//10 45//10 50//10
f 42//43 41//43 49//43
f 49//44 41//44 42//44
f 46//45 51//45 43//45
f 43//46 51//46 46//46
f 46//5 44//5 52//5
f 52//6 44//6 46//6
f 47//47 52//47 44//47
f 44//48 52//48 47//48
f 47//9 43//9 51//9
f 51//10 43//10 47//10
f 48//24 45//24 53//24
f 53//23 45//23 48//23
f 48//5 49//5 40//5
f 40//6 49//6 48//6
f 50//9 53//9 45//9
f 45//10 53//10 50//10
f 49//18 50//18 42//18
f 42//17 50//17 49//17
f 51//45 46//45 54//45
f 54//46 46//46 51//46
f 46//5 52//5 54//5
f 54//6 52//6 46//6
f 52//47 47//47 55//47
f 55//48 47//48 52//48
f 47//9 51//9 55//9
f 55//10 51//10 47//10
f 53//49 56//49 48//49
f 48//50 56//50 53//50
f 48//5 57//5 49//5
f 49//6 57//6 48//6
f 58//9 53//9 50//9
f 50//10 53//10 58//10
f 50//18 49//18 57//18
f 57//17 49//17 50//17
f 54//51 59//51 51//51
f 51//52 59//52 54//52
f 54//5 52//5 60//5
f 60//6 52//6 54//6
f 60//53 55//53 52//53
f 52//54 55//54 60//54
f 55//9 51//9 59//9
f 59//10 51//10 55//10
f 56//49 53//49 61//49
f 61//50 53//50 56//50
f 56//5 57//5 48//5
f 48//6 57//6 56//6
f 58//9 61//9 53//9
f 53//10 61//10 58//10
f 57//55 58//55 50//55
f 50//56 58//56 57//56
f 59//51 54//51 62//51
f 62//52 54//52 59//52
f 54//5 60//5 62//5
f 62//6 60//6 54//6
f 55//53 60//53 63//53
f 63//54 60//54 55//54
f 55//9 59//9 63//9
f 63//10 59//10 55//10
f 61//57 64//57 56//57
f 56//58 64//58 61//58
f 56//5 65//5 57//5
f 57//6 65//6 56//6
f 66//9 61//9 58//9
f 58//10 61//10 66//10
f 58//55 57//55 65//55
f 65//56 57//56 58//56
f 62//59 67//59 59//59
f 59//60 67//60 62//60
f 62//5 60//5 68//5
f 68//6 60//6 62//6
f 68//61 63//61 60//61
f 60//62 63//62 68//62
f 63//9 59//9 67//9
f 67//10 59//10 63//10
f 64//57 61//57 69//57
f 69//58 61//58 64//58
f 64//5 65//5 56//5
f 56//6 65//6 64//6
f 66//9 69//9 61//9
f 61//10 69//10 66//10
f 65//63 66//63 58//63
f 58//64 66//64 65//64
f 67//59 62//59 70//59
f 70//60 62//60 67//60
f 62//5 68//5 70//5
f 70//6 68//6 62//6
f 63//61 68//61 71//61
f 71//62 68//62 63//62
f 63//9 67//9 71//9
f 71//10 67//10 63//10
f 72//65 64//65 69//65
f 69//66 64//66 72//66
f 64//5 73//5 65//5
f 65//6 73//6 64//6
f 74//9 69//9 66//9
f 66//10 69//10 74//10
f 66//63 65//63 73//63
f 73//64 65//64 66//64
f 70//67 75//67 67//67
f 67//68 75//68 70//68
f 70//5 68//5 76//5
f 76//6 68//6 70//6
f 76//69 71//69 68//69
f 68//70 71//70 76//70
f 71//9 67//9 75//9
f 75//10 67//10 71//10
f 64//65 72//65 77//65
f 77//66 72//66 64//66
f 74//9 72//9 69//9
f 69//10 72//10 74//10
f 77//5 73//5 64//5
f 64//6 73//6 77//6
f 66//71 78//71 74//71
f 74//72 78//72 66//72
f 78//71 66//71 73//71
f 73//72 66//72 78//72
f 75//67 70//67 79//67
f 79//68 70//68 75//68
f 70//5 76//5 79//5
f 79//6 76//6 70//6
f 71//69 76//69 80//69
f 80//70 76//70 71//70
f 71//9 75//9 80//9
f 80//10 75//10 71//10
f 81//73 77//73 72//73
f 72//74 77//74 81//74
f 82//9 72//9 74//9
f 74//10 72//10 82//10
f 77//5 78//5 73//5
f 73//6 78//6 77//6
f 83//75 74//75 78//75
f 78//76 74//76 83//76
f 84//77 79//77 70//77
f 70//78 79//78 84//78
f 79//79 85//79 75//79
f 75//80 85//80 79//80
f 79//5 76//5 84//5
f 84//6 76//6 79//6
f 84//81 80//81 76//81
f 76//82 80//82 84//82
f 80//9 75//9 85//9
f 85//10 75//10 80//10
f 77//73 81//73 86//73
f 86//74 81//74 77//74
f 82//9 81//9 72//9
f 72//10 81//10 82//10
f 74//75 83//75 82//75
f 82//76 83//76 74//76
f 86//5 78//5 77//5
f 77//6 78//6 86//6
f 86//5 83//5 78//5
f 78//6 83//6 86//6
f 79//5 84//5 87//5
f 87//6 84//6 79//6
f 79//77 84//77 87//77
f 87//78 84//78 79//78
f 87//83 79//83 84//83
f 84//84 79//84 87//84
f 85//79 79//79 87//79
f 87//80 79//80 85//80
f 87//85 76//85 84//85
f 84//86 76//86 87//86
f 80//81 84//81 88//81
f 88//82 84//82 80//82
f 80//9 85//9 88//9
f 88//10 85//10 80//10
f 89//87 86//87 81//87
f 81//88 86//88 89//88
f 90//9 81//9 82//9
f 82//10 81//10 90//10
f 91//89 82//89 83//89
f 83//90 82//90 91//90
f 92//5 83//5 86//5
f 86//6 83//6 92//6
f 87//91 88//91 84//91
f 84//92 88//92 87//92
f 88//91 87//91 85//91
f 85//92 87//92 88//92
f 86//87 89//87 92//87
f 92//88 89//88 86//88
f 90//9 89//9 81//9
f 81//10 89//10 90//10
f 82//89 91//89 90//89
f 90//90 91//90 82//90
f 92//5 91//5 83//5
f 83//6 91//6 92//6
f 93//61 92//61 89//61
f 89//62 92//62 93//62
f 94//9 89//9 90//9
f 90//10 89//10 94//10
f 95//60 90//60 91//60
f 91//59 90//59 95//59
f 96//5 91//5 92//5
f 92//6 91//6 96//6
f 92//61 93//61 96//61
f 96//62 93//62 92//62
f 94//9 93//9 89//9
f 89//10 93//10 94//10
f 90//60 95//60 94//60
f 94//59 95//59 90//59
f 96//5 95//5 91//5
f 91//6 95//6 96//6
f 97//93 96//93 93//93
f 93//94 96//94 97//94
f 98//9 93//9 94//9
f 94//10 93//10 98//10
f 99//95 94//95 95//95
f 95//96 94//96 99//96
f 100//5 95//5 96//5
f 96//6 95//6 100//6
f 96//93 97//93 100//93
f 100//94 97//94 96//94
f 98//9 97//9 93//9
f 93//10 97//10 98//10
f 94//95 99//95 98//95
f 98//96 99//96 94//96
f 100//5 99//5 95//5
f 95//6 99//6 100//6
f 101//81 100//81 97//81
f 97//82 100//82 101//82
f 102//9 97//9 98//9
f 98//10 97//10 102//10
f 103//80 98//80 99//80
f 99//79 98//79 103//79
f 104//5 99//5 100//5
f 100//6 99//6 104//6
f 100//81 101//81 104//81
f 104//82 101//82 100//82
f 97//9 102//9 101//9
f 101//10 102//10 97//10
f 98//80 103//80 102//80
f 102//79 103//79 98//79
f 99//5 104//5 103//5
f 103//6 104//6 99//6
f 102//91 104//91 101//91
f 101//92 104//92 102//92
f 104//91 102//91 103//91
f 103//92 102//92 104//92
