# SSTK version 0.8.0
# 11
mtllib original-11.mtl
o mesh9/mesh9-geometry#mesh9-geometry
v 0.279259 -0.005006 0.161897
v 0.278733 0.004070 0.162997
v 0.278680 -0.005018 0.162046
v 0.279312 0.004083 0.162848
v 0.278140 0.004066 0.163069
v 0.275471 0.002107 0.094149
v 0.279813 -0.004986 0.161675
v 0.274933 0.011208 0.095017
v 0.278087 -0.005022 0.162118
v 0.274335 0.011212 0.095012
v 0.274879 0.002119 0.094066
v 0.276047 0.002087 0.094308
v 0.279866 0.004103 0.162626
v 0.275524 0.011195 0.095100
v 0.118416 -0.005022 0.171045
v 0.114664 0.011212 0.103939
v 0.276100 0.011175 0.095259
v 0.280334 -0.004958 0.161382
v 0.276597 0.002059 0.094541
v 0.274282 0.002123 0.094060
v 0.118469 0.004066 0.171996
v 0.276650 0.011148 0.095492
v 0.280387 0.004130 0.162334
v 0.117818 -0.005018 0.171039
v 0.114611 0.002123 0.102987
v 0.114071 0.011208 0.104011
v 0.280811 -0.004924 0.161025
v 0.277111 0.002025 0.094843
v 0.277164 0.011113 0.095794
v 0.117871 0.004070 0.171991
v 0.280865 0.004165 0.161976
v 0.117226 -0.005006 0.170956
v 0.114017 0.002119 0.103060
v 0.113492 0.011195 0.104159
v 0.281238 -0.004883 0.160609
v 0.277582 0.001984 0.095209
v 0.277635 0.011072 0.096160
v 0.281291 0.004206 0.161560
v 0.117280 0.004083 0.171908
v 0.116651 -0.004986 0.170797
v 0.113439 0.002107 0.103208
v 0.112937 0.011175 0.104382
v 0.281660 0.004253 0.161092
v 0.278000 0.001937 0.095633
v 0.116704 0.004103 0.171748
v 0.281607 -0.004836 0.160140
v 0.278053 0.011025 0.096584
v 0.116101 -0.004958 0.170565
v 0.112884 0.002087 0.103430
v 0.112417 0.011148 0.104674
v 0.281964 0.004305 0.160580
v 0.278359 0.001885 0.096108
v 0.116154 0.004130 0.171516
v 0.281911 -0.004784 0.159628
v 0.278412 0.010974 0.097059
v 0.115586 -0.004924 0.170263
v 0.112364 0.002059 0.103723
v 0.111939 0.011113 0.105031
v 0.282198 0.004360 0.160033
v 0.278653 0.001829 0.096626
v 0.115639 0.004165 0.171214
v 0.282145 -0.004728 0.159081
v 0.278706 0.010918 0.097577
v 0.115116 -0.004883 0.169896
v 0.111886 0.002025 0.104080
v 0.111512 0.011072 0.105448
v 0.282359 0.004419 0.159460
v 0.278876 0.001770 0.097177
v 0.115169 0.004206 0.170848
v 0.282305 -0.004669 0.158509
v 0.278929 0.010859 0.098128
v 0.114750 0.004253 0.170423
v 0.111459 0.001984 0.104497
v 0.111144 0.011025 0.105916
v 0.282442 0.004480 0.158871
v 0.279025 0.001709 0.097752
v 0.114697 -0.004836 0.169472
v 0.111091 0.001937 0.104965
v 0.282389 -0.004608 0.157920
v 0.279078 0.010797 0.098704
v 0.114391 0.004305 0.169948
v 0.110840 0.010974 0.106428
v 0.110787 0.001885 0.105477
v 0.282448 0.004543 0.158277
v 0.279097 0.001647 0.098342
v 0.114338 -0.004784 0.168997
v 0.282395 -0.004546 0.157326
v 0.279151 0.010735 0.099294
v 0.114098 0.004360 0.169431
v 0.110606 0.010918 0.106975
v 0.110553 0.001829 0.106024
v 0.114044 -0.004728 0.168480
v 0.113874 0.004419 0.168880
v 0.110445 0.010859 0.107548
v 0.110392 0.001770 0.106597
v 0.113821 -0.004669 0.167928
v 0.113725 0.004480 0.168304
v 0.110361 0.010797 0.108137
v 0.110308 0.001709 0.107185
v 0.113672 -0.004608 0.167353
v 0.113653 0.004543 0.167714
v 0.110356 0.010735 0.108731
v 0.110302 0.001647 0.107780
v 0.113600 -0.004546 0.166763
vn 0.24920429883955478 -0.10225303654743619 0.9630376596772913
vn -0.24920429883955478 0.10225303654743619 -0.9630376596772913
vn 0.12076663777359785 -0.10402903215041208 0.9872149612271428
vn -0.12076663777359785 0.10402903215041208 -0.9872149612271428
vn -0.005819720239505221 -0.9945506064461609 -0.10409237279410705
vn 0.005819720239505221 0.9945506064461609 0.10409237279410705
vn 0.37354263097311224 -0.09872504088853629 0.922344441706699
vn -0.37354263097311224 0.09872504088853629 -0.922344441706699
vn 0.005819665024253486 0.9945507101324216 0.10409138520598753
vn -0.005819665024253486 -0.9945507101324216 -0.10409138520598753
vn 0.05551781052562738 -0.10425597229791053 0.9929997305914328
vn -0.05551781052562738 0.10425597229791053 -0.9929997305914328
vn 0.140356849305615 0.10224897865025473 -0.9848071390977935
vn -0.140356849305615 -0.10224897865025473 0.9848071390977935
vn 0.268349095412277 0.09871706376635621 -0.9582503348878945
vn -0.268349095412277 -0.09871706376635621 0.9582503348878945
vn 0.49131421003071796 -0.09350805200959526 0.8659483767703837
vn -0.49131421003071796 0.09350805200959526 -0.8659483767703837
vn 0.009914121601399482 0.1040330535780724 -0.9945244260228577
vn -0.009914121601399482 -0.1040330535780724 0.9945244260228577
vn 0.39177208643283007 0.09350302855079379 -0.9152987577528424
vn -0.39177208643283007 -0.09350302855079379 0.9152987577528424
vn -0.009954168731433033 -0.10402903106018767 0.9945244467691804
vn 0.009954168731433033 0.10402903106018767 -0.9945244467691804
vn 0.6009566655015842 -0.08667905930703701 0.7945676981018446
vn -0.6009566655015842 0.08667905930703701 -0.7945676981018446
vn 0.5086001909608965 0.0866790024616151 -0.8566286221501119
vn -0.5086001909608965 -0.0866790024616151 0.8566286221501119
vn -0.12069699369894595 0.10403305240166599 -0.9872230546943426
vn 0.12069699369894595 -0.10403305240166599 0.9872230546943426
vn -0.14032359061229577 -0.10225299669780571 0.9848114614402045
vn 0.14032359061229577 0.10225299669780571 -0.9848114614402045
vn 0.7000277072281202 -0.07838698178165937 0.7098004580162676
vn -0.7000277072281202 0.07838698178165937 -0.7098004580162676
vn 0.6165766937623981 0.07838105767827828 -0.7833834249626834
vn -0.6165766937623981 -0.07838105767827828 0.7833834249626834
vn -0.24928037149122628 0.10224804886569856 -0.9630185008048153
vn 0.24928037149122628 -0.10224804886569856 0.9630185008048153
vn -0.26836618890906705 -0.098726984702245 0.9582445257563571
vn 0.26836618890906705 0.098726984702245 -0.9582445257563571
vn 0.7872737226145783 -0.06874098545402518 0.6127599551205951
vn -0.7872737226145783 0.06874098545402518 -0.6127599551205951
vn 0.7140367487262349 0.06874101530578737 -0.6967253363293149
vn -0.7140367487262349 -0.06874101530578737 0.6967253363293149
vn -0.3734584699062113 0.09871804886608934 -0.9223792701938742
vn 0.3734584699062113 -0.09871804886608934 0.9223792701938742
vn -0.3917711513574471 -0.0935060436754615 0.9152988499720859
vn 0.3917711513574471 0.0935060436754615 -0.9152988499720859
vn 0.8610599000614296 -0.057914033935601184 0.505194826952441
vn -0.8610599000614296 0.057914033935601184 -0.505194826952441
vn 0.7993982439306251 0.05790898376148103 -0.5980041782465617
vn -0.7993982439306251 -0.05790898376148103 0.5980041782465617
vn -0.49140248961860006 0.09350002871996686 -0.8658991499164362
vn 0.49140248961860006 -0.09350002871996686 0.8658991499164362
vn -0.5086409709097461 -0.086679059307037 0.8566044030879352
vn 0.5086409709097461 0.086679059307037 -0.8566044030879352
vn 0.9199686367181842 -0.046126031719731224 0.38926866898412965
vn -0.9199686367181842 0.046126031719731224 -0.38926866898412965
vn 0.8708434572023986 0.04612603171973125 -0.4893915224496275
vn -0.8708434572023986 -0.04612603171973125 0.4893915224496275
vn -0.6009188393987736 0.08667900246161508 -0.7945963119646922
vn 0.6009188393987736 -0.08667900246161508 0.7945963119646922
vn -0.6165435820764386 -0.0783869817816594 0.7834088922698772
vn 0.6165435820764386 0.0783869817816594 -0.7834088922698772
vn 0.9632889214068758 -0.03351600035566647 0.2663665362145498
vn -0.9632889214068758 0.03351600035566647 -0.2663665362145498
vn 0.9275936551865364 0.03351600035566649 -0.37208424930093525
vn -0.9275936551865364 -0.03351600035566649 0.37208424930093525
vn -0.7000577737163435 0.07838105767827826 -0.709771458468535
vn 0.7000577737163435 -0.07838105767827826 0.709771458468535
vn -0.7140629626684226 -0.06874098545402518 0.6966984729881387
vn 0.7140629626684226 0.06874098545402518 -0.6966984729881387
vn 0.9900966403285927 -0.020331999273077408 0.13890735263330387
vn -0.9900966403285927 0.020331999273077408 -0.13890735263330387
vn 0.9684421711142243 0.02033199927307744 -0.24840767100298533
vn -0.9684421711142243 -0.02033199927307744 0.24840767100298533
vn -0.7872506664978765 0.06874101530578737 -0.612789573110851
vn 0.7872506664978765 -0.06874101530578737 0.612789573110851
vn -0.7993225412570677 -0.05792198329609015 0.5981041037222454
vn 0.7993225412570677 0.05792198329609015 -0.5981041037222454
vn -0.8610275587145634 0.057918010093661425 -0.5052494900945766
vn 0.8610275587145634 -0.057918010093661425 0.5052494900945766
vn 0.9999341652780802 -0.006817000022667918 0.009230039020497897
vn -0.9999341652780802 0.006817000022667918 -0.009230039020497897
vn 0.9926730211489201 0.006817998202529323 -0.12063908149346243
vn -0.9926730211489201 -0.006817998202529323 0.12063908149346243
vn -0.8708938073274751 -0.04611599687145005 0.4893028624392123
vn 0.8708938073274751 0.04611599687145005 -0.4893028624392123
vn -0.9200087901252039 0.04611599687145002 -0.38917494899455013
vn 0.9200087901252039 -0.04611599687145002 0.38917494899455013
vn 0.9984407357955744 0 -0.055822012718927644
vn -0.9984407357955744 0 0.055822012718927644
vn -0.9276340190721738 -0.033505026471767146 0.37198459626862546
vn 0.9276340190721738 0.033505026471767146 -0.37198459626862546
vn -0.9633180116434306 0.03350499474410866 -0.26626269691893495
vn 0.9633180116434306 -0.03350499474410866 0.26626269691893495
vn -0.9684143006602259 -0.02034400305051549 0.24851531907841418
vn 0.9684143006602259 0.02034400305051549 -0.24851531907841418
vn -0.9900809430934985 0.02034400305051547 -0.13901743654293658
vn 0.9900809430934985 -0.02034400305051547 0.13901743654293658
vn -0.9926735094422396 -0.006817000022667943 0.12063511993743335
vn 0.9926735094422396 0.006817000022667943 -0.12063511993743335
vn -0.9999341216223239 0.006817998202529298 -0.0092340303173689
vn 0.9999341216223239 -0.006817998202529298 0.0092340303173689
usemtl material_0_0
f 1//1 2//1 3//1
f 2//1 1//1 4//1
f 3//2 2//2 1//2
f 4//2 1//2 2//2
f 5//3 3//3 2//3
f 2//4 3//4 5//4
f 3//5 6//5 1//5
f 1//6 6//6 3//6
f 7//7 4//7 1//7
f 1//8 4//8 7//8
f 8//9 2//9 4//9
f 4//10 2//10 8//10
f 3//3 5//3 9//3
f 9//4 5//4 3//4
f 10//9 5//9 2//9
f 2//10 5//10 10//10
f 3//5 11//5 6//5
f 6//6 11//6 3//6
f 1//5 6//5 12//5
f 12//6 6//6 1//6
f 4//7 7//7 13//7
f 13//8 7//8 4//8
f 1//5 12//5 7//5
f 7//6 12//6 1//6
f 10//9 2//9 8//9
f 8//10 2//10 10//10
f 8//9 4//9 14//9
f 14//10 4//10 8//10
f 5//11 15//11 9//11
f 9//12 15//12 5//12
f 9//5 11//5 3//5
f 3//6 11//6 9//6
f 16//9 5//9 10//9
f 10//10 5//10 16//10
f 11//13 14//13 6//13
f 6//14 14//14 11//14
f 6//15 17//15 12//15
f 12//16 17//16 6//16
f 18//17 13//17 7//17
f 7//18 13//18 18//18
f 14//9 4//9 13//9
f 13//10 4//10 14//10
f 7//5 12//5 19//5
f 19//6 12//6 7//6
f 8//19 20//19 10//19
f 10//20 20//20 8//20
f 14//13 11//13 8//13
f 8//14 11//14 14//14
f 15//11 5//11 21//11
f 21//12 5//12 15//12
f 15//5 20//5 9//5
f 9//6 20//6 15//6
f 9//5 20//5 11//5
f 11//6 20//6 9//6
f 16//9 21//9 5//9
f 5//10 21//10 16//10
f 20//12 16//12 10//12
f 10//11 16//11 20//11
f 17//15 6//15 14//15
f 14//16 6//16 17//16
f 22//21 12//21 17//21
f 17//22 12//22 22//22
f 13//17 18//17 23//17
f 23//18 18//18 13//18
f 7//5 19//5 18//5
f 18//6 19//6 7//6
f 14//9 13//9 17//9
f 17//10 13//10 14//10
f 12//21 22//21 19//21
f 19//22 22//22 12//22
f 20//19 8//19 11//19
f 11//20 8//20 20//20
f 21//23 24//23 15//23
f 15//24 24//24 21//24
f 15//5 25//5 20//5
f 20//6 25//6 15//6
f 26//9 21//9 16//9
f 16//10 21//10 26//10
f 16//12 20//12 25//12
f 25//11 20//11 16//11
f 17//9 23//9 22//9
f 22//10 23//10 17//10
f 27//25 23//25 18//25
f 18//26 23//26 27//26
f 17//9 13//9 23//9
f 23//10 13//10 17//10
f 18//5 19//5 28//5
f 28//6 19//6 18//6
f 29//27 19//27 22//27
f 22//28 19//28 29//28
f 24//23 21//23 30//23
f 30//24 21//24 24//24
f 24//5 25//5 15//5
f 15//6 25//6 24//6
f 26//9 30//9 21//9
f 21//10 30//10 26//10
f 25//29 26//29 16//29
f 16//30 26//30 25//30
f 22//9 23//9 31//9
f 31//10 23//10 22//10
f 23//25 27//25 31//25
f 31//26 27//26 23//26
f 18//5 28//5 27//5
f 27//6 28//6 18//6
f 19//27 29//27 28//27
f 28//28 29//28 19//28
f 22//9 31//9 29//9
f 29//10 31//10 22//10
f 30//31 32//31 24//31
f 24//32 32//32 30//32
f 24//5 33//5 25//5
f 25//6 33//6 24//6
f 34//9 30//9 26//9
f 26//10 30//10 34//10
f 26//29 25//29 33//29
f 33//30 25//30 26//30
f 35//33 31//33 27//33
f 27//34 31//34 35//34
f 27//5 28//5 36//5
f 36//6 28//6 27//6
f 37//35 28//35 29//35
f 29//36 28//36 37//36
f 29//9 31//9 38//9
f 38//10 31//10 29//10
f 32//31 30//31 39//31
f 39//32 30//32 32//32
f 32//5 33//5 24//5
f 24//6 33//6 32//6
f 34//9 39//9 30//9
f 30//10 39//10 34//10
f 33//37 34//37 26//37
f 26//38 34//38 33//38
f 31//33 35//33 38//33
f 38//34 35//34 31//34
f 27//5 36//5 35//5
f 35//6 36//6 27//6
f 28//35 37//35 36//35
f 36//36 37//36 28//36
f 29//9 38//9 37//9
f 37//10 38//10 29//10
f 39//39 40//39 32//39
f 32//40 40//40 39//40
f 32//5 41//5 33//5
f 33//6 41//6 32//6
f 42//9 39//9 34//9
f 34//10 39//10 42//10
f 34//37 33//37 41//37
f 41//38 33//38 34//38
f 35//41 43//41 38//41
f 38//42 43//42 35//42
f 35//5 36//5 44//5
f 44//6 36//6 35//6
f 37//43 44//43 36//43
f 36//44 44//44 37//44
f 37//9 38//9 43//9
f 43//10 38//10 37//10
f 40//39 39//39 45//39
f 45//40 39//40 40//40
f 40//5 41//5 32//5
f 32//6 41//6 40//6
f 42//9 45//9 39//9
f 39//10 45//10 42//10
f 41//45 42//45 34//45
f 34//46 42//46 41//46
f 43//41 35//41 46//41
f 46//42 35//42 43//42
f 35//5 44//5 46//5
f 46//6 44//6 35//6
f 44//43 37//43 47//43
f 47//44 37//44 44//44
f 37//9 43//9 47//9
f 47//10 43//10 37//10
f 45//47 48//47 40//47
f 40//48 48//48 45//48
f 40//5 49//5 41//5
f 41//6 49//6 40//6
f 50//9 45//9 42//9
f 42//10 45//10 50//10
f 42//45 41//45 49//45
f 49//46 41//46 42//46
f 46//49 51//49 43//49
f 43//50 51//50 46//50
f 46//5 44//5 52//5
f 52//6 44//6 46//6
f 47//51 52//51 44//51
f 44//52 52//52 47//52
f 47//9 43//9 51//9
f 51//10 43//10 47//10
f 48//47 45//47 53//47
f 53//48 45//48 48//48
f 48//5 49//5 40//5
f 40//6 49//6 48//6
f 50//9 53//9 45//9
f 45//10 53//10 50//10
f 49//53 50//53 42//53
f 42//54 50//54 49//54
f 51//49 46//49 54//49
f 54//50 46//50 51//50
f 46//5 52//5 54//5
f 54//6 52//6 46//6
f 52//51 47//51 55//51
f 55//52 47//52 52//52
f 47//9 51//9 55//9
f 55//10 51//10 47//10
f 53//55 56//55 48//55
f 48//56 56//56 53//56
f 48//5 57//5 49//5
f 49//6 57//6 48//6
f 58//9 53//9 50//9
f 50//10 53//10 58//10
f 50//53 49//53 57//53
f 57//54 49//54 50//54
f 54//57 59//57 51//57
f 51//58 59//58 54//58
f 54//5 52//5 60//5
f 60//6 52//6 54//6
f 55//59 60//59 52//59
f 52//60 60//60 55//60
f 55//9 51//9 59//9
f 59//10 51//10 55//10
f 56//55 53//55 61//55
f 61//56 53//56 56//56
f 56//5 57//5 48//5
f 48//6 57//6 56//6
f 58//9 61//9 53//9
f 53//10 61//10 58//10
f 57//61 58//61 50//61
f 50//62 58//62 57//62
f 59//57 54//57 62//57
f 62//58 54//58 59//58
f 54//5 60//5 62//5
f 62//6 60//6 54//6
f 60//59 55//59 63//59
f 63//60 55//60 60//60
f 55//9 59//9 63//9
f 63//10 59//10 55//10
f 61//63 64//63 56//63
f 56//64 64//64 61//64
f 56//5 65//5 57//5
f 57//6 65//6 56//6
f 66//9 61//9 58//9
f 58//10 61//10 66//10
f 58//61 57//61 65//61
f 65//62 57//62 58//62
f 62//65 67//65 59//65
f 59//66 67//66 62//66
f 62//5 60//5 68//5
f 68//6 60//6 62//6
f 63//67 68//67 60//67
f 60//68 68//68 63//68
f 63//9 59//9 67//9
f 67//10 59//10 63//10
f 64//63 61//63 69//63
f 69//64 61//64 64//64
f 64//5 65//5 56//5
f 56//6 65//6 64//6
f 66//9 69//9 61//9
f 61//10 69//10 66//10
f 65//69 66//69 58//69
f 58//70 66//70 65//70
f 67//65 62//65 70//65
f 70//66 62//66 67//66
f 62//5 68//5 70//5
f 70//6 68//6 62//6
f 68//67 63//67 71//67
f 71//68 63//68 68//68
f 63//9 67//9 71//9
f 71//10 67//10 63//10
f 72//71 64//71 69//71
f 69//72 64//72 72//72
f 64//5 73//5 65//5
f 65//6 73//6 64//6
f 74//9 69//9 66//9
f 66//10 69//10 74//10
f 66//69 65//69 73//69
f 73//70 65//70 66//70
f 70//73 75//73 67//73
f 67//74 75//74 70//74
f 70//5 68//5 76//5
f 76//6 68//6 70//6
f 71//75 76//75 68//75
f 68//76 76//76 71//76
f 71//9 67//9 75//9
f 75//10 67//10 71//10
f 64//71 72//71 77//71
f 77//72 72//72 64//72
f 74//9 72//9 69//9
f 69//10 72//10 74//10
f 77//5 73//5 64//5
f 64//6 73//6 77//6
f 66//77 78//77 74//77
f 74//78 78//78 66//78
f 78//77 66//77 73//77
f 73//78 66//78 78//78
f 75//73 70//73 79//73
f 79//74 70//74 75//74
f 70//5 76//5 79//5
f 79//6 76//6 70//6
f 76//75 71//75 80//75
f 80//76 71//76 76//76
f 71//9 75//9 80//9
f 80//10 75//10 71//10
f 81//79 77//79 72//79
f 72//80 77//80 81//80
f 82//9 72//9 74//9
f 74//10 72//10 82//10
f 77//5 78//5 73//5
f 73//6 78//6 77//6
f 83//81 74//81 78//81
f 78//82 74//82 83//82
f 79//83 84//83 75//83
f 75//84 84//84 79//84
f 79//5 76//5 85//5
f 85//6 76//6 79//6
f 80//85 85//85 76//85
f 76//86 85//86 80//86
f 80//9 75//9 84//9
f 84//10 75//10 80//10
f 77//79 81//79 86//79
f 86//80 81//80 77//80
f 82//9 81//9 72//9
f 72//10 81//10 82//10
f 74//81 83//81 82//81
f 82//82 83//82 74//82
f 86//5 78//5 77//5
f 77//6 78//6 86//6
f 86//5 83//5 78//5
f 78//6 83//6 86//6
f 84//83 79//83 87//83
f 87//84 79//84 84//84
f 79//5 85//5 87//5
f 87//6 85//6 79//6
f 85//85 80//85 88//85
f 88//86 80//86 85//86
f 80//9 84//9 88//9
f 88//10 84//10 80//10
f 89//87 86//87 81//87
f 81//88 86//88 89//88
f 90//9 81//9 82//9
f 82//10 81//10 90//10
f 91//89 82//89 83//89
f 83//90 82//90 91//90
f 92//5 83//5 86//5
f 86//6 83//6 92//6
f 87//91 88//91 84//91
f 84//92 88//92 87//92
f 88//91 87//91 85//91
f 85//92 87//92 88//92
f 86//87 89//87 92//87
f 92//88 89//88 86//88
f 90//9 89//9 81//9
f 81//10 89//10 90//10
f 82//89 91//89 90//89
f 90//90 91//90 82//90
f 92//5 91//5 83//5
f 83//6 91//6 92//6
f 93//93 92//93 89//93
f 89//94 92//94 93//94
f 94//9 89//9 90//9
f 90//10 89//10 94//10
f 95//95 90//95 91//95
f 91//96 90//96 95//96
f 96//5 91//5 92//5
f 92//6 91//6 96//6
f 92//93 93//93 96//93
f 96//94 93//94 92//94
f 94//9 93//9 89//9
f 89//10 93//10 94//10
f 90//95 95//95 94//95
f 94//96 95//96 90//96
f 96//5 95//5 91//5
f 91//6 95//6 96//6
f 97//97 96//97 93//97
f 93//98 96//98 97//98
f 98//9 93//9 94//9
f 94//10 93//10 98//10
f 99//99 94//99 95//99
f 95//100 94//100 99//100
f 100//5 95//5 96//5
f 96//6 95//6 100//6
f 96//97 97//97 100//97
f 100//98 97//98 96//98
f 98//9 97//9 93//9
f 93//10 97//10 98//10
f 94//99 99//99 98//99
f 98//100 99//100 94//100
f 100//5 99//5 95//5
f 95//6 99//6 100//6
f 101//101 100//101 97//101
f 97//102 100//102 101//102
f 102//9 97//9 98//9
f 98//10 97//10 102//10
f 103//103 98//103 99//103
f 99//104 98//104 103//104
f 104//5 99//5 100//5
f 100//6 99//6 104//6
f 100//101 101//101 104//101
f 104//102 101//102 100//102
f 97//9 102//9 101//9
f 101//10 102//10 97//10
f 98//103 103//103 102//103
f 102//104 103//104 98//104
f 99//5 104//5 103//5
f 103//6 104//6 99//6
f 102//92 104//92 101//92
f 101//91 104//91 102//91
f 104//92 102//92 103//92
f 103//91 102//91 104//91
