# SSTK version 0.8.0
# 62
mtllib original-62.mtl
o mesh60/mesh60-geometry#mesh60-geometry
v -0.893574 0.021432 -0.025130
v -0.894100 0.030508 -0.024031
v -0.894153 0.021420 -0.024982
v -0.893521 0.030520 -0.024179
v -0.894693 0.030504 -0.023959
v -0.897362 0.028545 -0.092879
v -0.893020 0.021452 -0.025353
v -0.897901 0.037645 -0.092011
v -0.894747 0.021415 -0.024910
v -0.898498 0.037649 -0.092016
v -0.897954 0.028557 -0.092962
v -0.896787 0.028525 -0.092720
v -0.892967 0.030540 -0.024402
v -0.897309 0.037633 -0.091928
v -0.956334 0.021415 -0.021467
v -0.960086 0.037649 -0.088573
v -0.896733 0.037613 -0.091768
v -0.892499 0.021479 -0.025645
v -0.896237 0.028497 -0.092487
v -0.898552 0.028561 -0.092967
v -0.956281 0.030504 -0.020515
v -0.896183 0.037586 -0.091536
v -0.892446 0.030568 -0.024694
v -0.956932 0.021420 -0.021472
v -0.960139 0.028561 -0.089524
v -0.960679 0.037645 -0.088501
v -0.892022 0.021514 -0.026003
v -0.895722 0.028462 -0.092185
v -0.895669 0.037551 -0.091234
v -0.956878 0.030508 -0.020521
v -0.891969 0.030602 -0.025051
v -0.957523 0.021432 -0.021555
v -0.960732 0.028557 -0.089452
v -0.961258 0.037633 -0.088352
v -0.891595 0.021555 -0.026419
v -0.895251 0.028421 -0.091819
v -0.895198 0.037510 -0.090868
v -0.891542 0.030643 -0.025468
v -0.957470 0.030520 -0.020604
v -0.958099 0.021452 -0.021714
v -0.961311 0.028545 -0.089303
v -0.961812 0.037613 -0.088130
v -0.891174 0.030690 -0.025936
v -0.894833 0.028374 -0.091395
v -0.958046 0.030540 -0.020763
v -0.891227 0.021602 -0.026887
v -0.894780 0.037463 -0.090443
v -0.958649 0.021479 -0.021947
v -0.961866 0.028525 -0.089081
v -0.962333 0.037586 -0.087837
v -0.890869 0.030742 -0.026448
v -0.894474 0.028323 -0.090920
v -0.958596 0.030568 -0.020996
v -0.890923 0.021654 -0.027399
v -0.894421 0.037411 -0.089968
v -0.959164 0.021514 -0.022249
v -0.962386 0.028497 -0.088789
v -0.962811 0.037551 -0.087480
v -0.890635 0.030798 -0.026995
v -0.894180 0.028267 -0.090402
v -0.959111 0.030602 -0.021298
v -0.890689 0.021710 -0.027946
v -0.894127 0.037355 -0.089451
v -0.959634 0.021555 -0.022615
v -0.962864 0.028462 -0.088431
v -0.963237 0.037510 -0.087064
v -0.890475 0.030857 -0.027568
v -0.893957 0.028208 -0.089851
v -0.959581 0.030643 -0.021664
v -0.890528 0.021769 -0.028519
v -0.893904 0.037296 -0.088900
v -0.959999 0.030690 -0.022088
v -0.963291 0.028421 -0.088015
v -0.963606 0.037463 -0.086595
v -0.890391 0.030918 -0.028156
v -0.893808 0.028147 -0.089275
v -0.960052 0.021602 -0.023039
v -0.963659 0.028374 -0.087547
v -0.890444 0.021830 -0.029108
v -0.893755 0.037235 -0.088324
v -0.960359 0.030742 -0.022563
v -0.963910 0.037411 -0.086083
v -0.963963 0.028323 -0.087035
v -0.890385 0.030980 -0.028751
v -0.893736 0.028084 -0.088685
v -0.960412 0.021654 -0.023514
v -0.890438 0.021892 -0.029702
v -0.893683 0.037173 -0.087734
v -0.960652 0.030798 -0.023081
v -0.964144 0.037355 -0.085536
v -0.964197 0.028267 -0.086487
v -0.960705 0.021710 -0.024032
v -0.960875 0.030857 -0.023632
v -0.964304 0.037296 -0.084964
v -0.964358 0.028208 -0.085915
v -0.960929 0.021769 -0.024583
v -0.961024 0.030918 -0.024207
v -0.964388 0.037235 -0.084375
v -0.964441 0.028147 -0.085326
v -0.961078 0.021830 -0.025159
v -0.961096 0.030980 -0.024797
v -0.964394 0.037173 -0.083781
v -0.964447 0.028084 -0.084732
v -0.961150 0.021892 -0.025749
vn 0.24920429883955478 -0.10225303654743619 0.9630376596772913
vn -0.24920429883955478 0.10225303654743619 -0.9630376596772913
vn 0.12069699369894595 -0.10403305240166599 0.9872230546943426
vn -0.12069699369894595 0.10403305240166599 -0.9872230546943426
vn -0.005819665024253486 -0.9945507101324216 -0.10409138520598753
vn 0.005819665024253486 0.9945507101324216 0.10409138520598753
vn 0.3735437674674047 -0.09871807736962016 0.9223447267625609
vn -0.3735437674674047 0.09871807736962016 -0.9223447267625609
vn 0.005819720239505221 0.9945506064461609 0.10409237279410705
vn -0.005819720239505221 -0.9945506064461609 -0.10409237279410705
vn 0.05551785104074399 -0.10424904837732525 0.9930004552507717
vn -0.05551785104074399 0.10424904837732525 -0.9930004552507717
vn 0.14030145631179058 0.1022530365474362 -0.9848146109159933
vn -0.14030145631179058 -0.1022530365474362 0.9848146109159933
vn 0.26840095849581186 0.09872504088853629 -0.9582349877666159
vn -0.26840095849581186 -0.09872504088853629 0.9582349877666159
vn 0.4913587869729624 -0.09350302855079377 0.8659236260296217
vn -0.4913587869729624 0.09350302855079377 -0.8659236260296217
vn 0.009899089052268665 0.10403305240166599 -0.9945245758873571
vn -0.009899089052268665 -0.10403305240166599 0.9945245758873571
vn -0.05551781052562738 0.10425597229791053 -0.9929997305914328
vn 0.05551781052562738 -0.10425597229791053 0.9929997305914328
vn 0.3917250283390873 0.09350805200959528 -0.9153183852529743
vn -0.3917250283390873 -0.09350805200959528 0.9153183852529743
vn 0.6009188393987736 -0.08667900246161508 0.7945963119646922
vn -0.6009188393987736 0.08667900246161508 -0.7945963119646922
vn 0.5086001909608965 0.0866790024616151 -0.8566286221501119
vn -0.5086001909608965 -0.0866790024616151 0.8566286221501119
vn 0.7000277072281202 -0.07838698178165937 0.7098004580162676
vn -0.7000277072281202 0.07838698178165937 -0.7098004580162676
vn 0.6165769956872977 0.07838696913283746 -0.783382595836411
vn -0.6165769956872977 -0.07838696913283746 0.783382595836411
vn -0.26833163094017987 -0.09872100636060237 0.9582548193148485
vn 0.26833163094017987 0.09872100636060237 -0.9582548193148485
vn 0.7873789364574881 -0.06872703204539866 0.6126263179861813
vn -0.7873789364574881 0.06872703204539866 -0.6126263179861813
vn 0.7141826959518778 0.06873205349048292 -0.696576615761604
vn -0.7141826959518778 -0.06873205349048292 0.696576615761604
vn -0.3734751055096422 0.09872806284477341 -0.9223714626827306
vn 0.3734751055096422 -0.09872806284477341 0.9223714626827306
vn -0.3918643660743279 -0.09349801991217392 0.9152597657898374
vn 0.3918643660743279 0.09349801991217392 -0.9152597657898374
vn 0.8609794291014174 -0.057926039269061556 0.5053305815392498
vn -0.8609794291014174 0.057926039269061556 -0.5053305815392498
vn 0.7992656236864683 0.05793100894247094 -0.598179288337525
vn -0.7992656236864683 -0.05793100894247094 0.598179288337525
vn -0.49140152473626153 0.09350403510671068 -0.8658992648718673
vn 0.49140152473626153 -0.09350403510671068 0.8658992648718673
vn -0.5084913672561729 -0.08668598883909236 0.8566925170473573
vn 0.5084913672561729 0.08668598883909236 -0.8566925170473573
vn 0.9200485389691184 -0.04610298900538277 0.38908251097364965
vn -0.9200485389691184 0.04610298900538277 -0.38908251097364965
vn 0.8709436125097869 0.04610298900538278 -0.4892154313113718
vn -0.8709436125097869 -0.04610298900538278 0.4892154313113718
vn -0.6008178162650603 0.08668598883909233 -0.7946719392286812
vn 0.6008178162650603 -0.08668598883909233 0.7946719392286812
vn -0.6166621651524494 -0.07837601139143048 0.7833166504727598
vn 0.6166621651524494 0.07837601139143048 -0.7833166504727598
vn 0.9632309915972752 -0.03353702226148673 0.26657330129696544
vn -0.9632309915972752 0.03353702226148673 -0.26657330129696544
vn 0.9275198463351924 0.03353401750151922 -0.3722665769640742
vn -0.9275198463351924 -0.03353401750151922 0.3722665769640742
vn -0.7001655387137055 0.07837599824370356 -0.7096657109492114
vn 0.7001655387137055 -0.07837599824370356 0.7096657109492114
vn -0.7140629626684226 -0.06874098545402518 0.6966984729881387
vn 0.7140629626684226 0.06874098545402518 -0.6966984729881387
vn 0.9900950469059501 -0.020333994948160797 0.13891841757575876
vn -0.9900950469059501 0.020333994948160797 -0.13891841757575876
vn 0.9684393739053496 0.020332995361850025 -0.24841849441905386
vn -0.9684393739053496 -0.020332995361850025 0.24841849441905386
vn -0.7872739124485058 0.06874600690403135 -0.6127591478817539
vn 0.7872739124485058 -0.06874600690403135 0.6127591478817539
vn -0.7992844670176696 -0.05792603926906158 0.5981545910204812
vn 0.7992844670176696 0.05792603926906158 -0.5981545910204812
vn -0.8609634562140367 0.057931008942470934 -0.5053572254028706
vn 0.8609634562140367 -0.057931008942470934 0.5053572254028706
vn 0.9999364205168035 -0.006793000442891776 0.009000559372889991
vn -0.9999364205168035 0.006793000442891776 -0.009000559372889991
vn 0.9927008500853491 0.006792998681957181 -0.12041128439117356
vn -0.9927008500853491 -0.006792998681957181 0.12041128439117356
vn 0.9984407357955744 0 -0.055822012718927644
vn -0.9984407357955744 0 0.055822012718927644
vn -0.9275936551865364 -0.03351600035566649 0.37208424930093525
vn 0.9275936551865364 0.03351600035566649 -0.37208424930093525
vn -0.9632938226094995 0.03351299546880735 -0.266349188955187
vn 0.9632938226094995 -0.03351299546880735 0.266349188955187
vn -0.9684393542135971 -0.02033399494816082 0.2484184893678388
vn 0.9684393542135971 0.02033399494816082 -0.2484184893678388
vn -0.9900950670380383 0.02033299536185 -0.13891842040045507
vn 0.9900950670380383 -0.02033299536185 0.13891842040045507
vn -0.992673870576356 -0.006817001352647366 0.12063214815095497
vn 0.992673870576356 0.006817001352647366 -0.12063214815095497
vn -0.9999341652780802 0.006817000022667918 -0.009230039020497897
vn 0.9999341652780802 -0.006817000022667918 0.009230039020497897
usemtl material_0_0
f 1//1 2//1 3//1
f 2//1 1//1 4//1
f 3//2 2//2 1//2
f 4//2 1//2 2//2
f 5//3 3//3 2//3
f 2//4 3//4 5//4
f 3//5 6//5 1//5
f 1//6 6//6 3//6
f 7//7 4//7 1//7
f 1//8 4//8 7//8
f 8//9 2//9 4//9
f 4//10 2//10 8//10
f 3//3 5//3 9//3
f 9//4 5//4 3//4
f 10//9 5//9 2//9
f 2//10 5//10 10//10
f 3//5 11//5 6//5
f 6//6 11//6 3//6
f 1//5 6//5 12//5
f 12//6 6//6 1//6
f 4//7 7//7 13//7
f 13//8 7//8 4//8
f 1//5 12//5 7//5
f 7//6 12//6 1//6
f 10//9 2//9 8//9
f 8//10 2//10 10//10
f 8//9 4//9 14//9
f 14//10 4//10 8//10
f 5//11 15//11 9//11
f 9//12 15//12 5//12
f 9//5 11//5 3//5
f 3//6 11//6 9//6
f 16//9 5//9 10//9
f 10//10 5//10 16//10
f 11//13 14//13 6//13
f 6//14 14//14 11//14
f 6//15 17//15 12//15
f 12//16 17//16 6//16
f 18//17 13//17 7//17
f 7//18 13//18 18//18
f 14//9 4//9 13//9
f 13//10 4//10 14//10
f 7//5 12//5 19//5
f 19//6 12//6 7//6
f 8//19 20//19 10//19
f 10//20 20//20 8//20
f 14//13 11//13 8//13
f 8//14 11//14 14//14
f 15//11 5//11 21//11
f 21//12 5//12 15//12
f 15//5 20//5 9//5
f 9//6 20//6 15//6
f 9//5 20//5 11//5
f 11//6 20//6 9//6
f 16//9 21//9 5//9
f 5//10 21//10 16//10
f 20//21 16//21 10//21
f 10//22 16//22 20//22
f 17//15 6//15 14//15
f 14//16 6//16 17//16
f 22//23 12//23 17//23
f 17//24 12//24 22//24
f 13//17 18//17 23//17
f 23//18 18//18 13//18
f 7//5 19//5 18//5
f 18//6 19//6 7//6
f 14//9 13//9 17//9
f 17//10 13//10 14//10
f 12//23 22//23 19//23
f 19//24 22//24 12//24
f 20//19 8//19 11//19
f 11//20 8//20 20//20
f 21//20 24//20 15//20
f 15//19 24//19 21//19
f 15//5 25//5 20//5
f 20//6 25//6 15//6
f 26//9 21//9 16//9
f 16//10 21//10 26//10
f 16//21 20//21 25//21
f 25//22 20//22 16//22
f 17//9 23//9 22//9
f 22//10 23//10 17//10
f 27//25 23//25 18//25
f 18//26 23//26 27//26
f 17//9 13//9 23//9
f 23//10 13//10 17//10
f 18//5 19//5 28//5
f 28//6 19//6 18//6
f 29//27 19//27 22//27
f 22//28 19//28 29//28
f 24//20 21//20 30//20
f 30//19 21//19 24//19
f 24//5 25//5 15//5
f 15//6 25//6 24//6
f 26//9 30//9 21//9
f 21//10 30//10 26//10
f 25//4 26//4 16//4
f 16//3 26//3 25//3
f 22//9 23//9 31//9
f 31//10 23//10 22//10
f 23//25 27//25 31//25
f 31//26 27//26 23//26
f 18//5 28//5 27//5
f 27//6 28//6 18//6
f 19//27 29//27 28//27
f 28//28 29//28 19//28
f 22//9 31//9 29//9
f 29//10 31//10 22//10
f 30//14 32//14 24//14
f 24//13 32//13 30//13
f 24//5 33//5 25//5
f 25//6 33//6 24//6
f 34//9 30//9 26//9
f 26//10 30//10 34//10
f 26//4 25//4 33//4
f 33//3 25//3 26//3
f 35//29 31//29 27//29
f 27//30 31//30 35//30
f 27//5 28//5 36//5
f 36//6 28//6 27//6
f 37//31 28//31 29//31
f 29//32 28//32 37//32
f 29//9 31//9 38//9
f 38//10 31//10 29//10
f 32//14 30//14 39//14
f 39//13 30//13 32//13
f 32//5 33//5 24//5
f 24//6 33//6 32//6
f 34//9 39//9 30//9
f 30//10 39//10 34//10
f 33//2 34//2 26//2
f 26//1 34//1 33//1
f 31//29 35//29 38//29
f 38//30 35//30 31//30
f 27//5 36//5 35//5
f 35//6 36//6 27//6
f 28//31 37//31 36//31
f 36//32 37//32 28//32
f 29//9 38//9 37//9
f 37//10 38//10 29//10
f 39//33 40//33 32//33
f 32//34 40//34 39//34
f 32//5 41//5 33//5
f 33//6 41//6 32//6
f 42//9 39//9 34//9
f 34//10 39//10 42//10
f 34//2 33//2 41//2
f 41//1 33//1 34//1
f 35//35 43//35 38//35
f 38//36 43//36 35//36
f 35//5 36//5 44//5
f 44//6 36//6 35//6
f 37//37 44//37 36//37
f 36//38 44//38 37//38
f 37//9 38//9 43//9
f 43//10 38//10 37//10
f 40//33 39//33 45//33
f 45//34 39//34 40//34
f 40//5 41//5 32//5
f 32//6 41//6 40//6
f 42//9 45//9 39//9
f 39//10 45//10 42//10
f 41//39 42//39 34//39
f 34//40 42//40 41//40
f 43//35 35//35 46//35
f 46//36 35//36 43//36
f 35//5 44//5 46//5
f 46//6 44//6 35//6
f 44//37 37//37 47//37
f 47//38 37//38 44//38
f 37//9 43//9 47//9
f 47//10 43//10 37//10
f 45//41 48//41 40//41
f 40//42 48//42 45//42
f 40//5 49//5 41//5
f 41//6 49//6 40//6
f 50//9 45//9 42//9
f 42//10 45//10 50//10
f 42//39 41//39 49//39
f 49//40 41//40 42//40
f 46//43 51//43 43//43
f 43//44 51//44 46//44
f 46//5 44//5 52//5
f 52//6 44//6 46//6
f 47//45 52//45 44//45
f 44//46 52//46 47//46
f 47//9 43//9 51//9
f 51//10 43//10 47//10
f 48//41 45//41 53//41
f 53//42 45//42 48//42
f 48//5 49//5 40//5
f 40//6 49//6 48//6
f 50//9 53//9 45//9
f 45//10 53//10 50//10
f 49//47 50//47 42//47
f 42//48 50//48 49//48
f 51//43 46//43 54//43
f 54//44 46//44 51//44
f 46//5 52//5 54//5
f 54//6 52//6 46//6
f 52//45 47//45 55//45
f 55//46 47//46 52//46
f 47//9 51//9 55//9
f 55//10 51//10 47//10
f 53//49 56//49 48//49
f 48//50 56//50 53//50
f 48//5 57//5 49//5
f 49//6 57//6 48//6
f 58//9 53//9 50//9
f 50//10 53//10 58//10
f 50//47 49//47 57//47
f 57//48 49//48 50//48
f 54//51 59//51 51//51
f 51//52 59//52 54//52
f 54//5 52//5 60//5
f 60//6 52//6 54//6
f 55//53 60//53 52//53
f 52//54 60//54 55//54
f 55//9 51//9 59//9
f 59//10 51//10 55//10
f 56//49 53//49 61//49
f 61//50 53//50 56//50
f 56//5 57//5 48//5
f 48//6 57//6 56//6
f 58//9 61//9 53//9
f 53//10 61//10 58//10
f 57//55 58//55 50//55
f 50//56 58//56 57//56
f 59//51 54//51 62//51
f 62//52 54//52 59//52
f 54//5 60//5 62//5
f 62//6 60//6 54//6
f 60//53 55//53 63//53
f 63//54 55//54 60//54
f 55//9 59//9 63//9
f 63//10 59//10 55//10
f 61//57 64//57 56//57
f 56//58 64//58 61//58
f 56//5 65//5 57//5
f 57//6 65//6 56//6
f 66//9 61//9 58//9
f 58//10 61//10 66//10
f 58//55 57//55 65//55
f 65//56 57//56 58//56
f 62//59 67//59 59//59
f 59//60 67//60 62//60
f 62//5 60//5 68//5
f 68//6 60//6 62//6
f 63//61 68//61 60//61
f 60//62 68//62 63//62
f 63//9 59//9 67//9
f 67//10 59//10 63//10
f 64//57 61//57 69//57
f 69//58 61//58 64//58
f 64//5 65//5 56//5
f 56//6 65//6 64//6
f 66//9 69//9 61//9
f 61//10 69//10 66//10
f 65//63 66//63 58//63
f 58//64 66//64 65//64
f 67//59 62//59 70//59
f 70//60 62//60 67//60
f 62//5 68//5 70//5
f 70//6 68//6 62//6
f 68//61 63//61 71//61
f 71//62 63//62 68//62
f 63//9 67//9 71//9
f 71//10 67//10 63//10
f 72//65 64//65 69//65
f 69//66 64//66 72//66
f 64//5 73//5 65//5
f 65//6 73//6 64//6
f 74//9 69//9 66//9
f 66//10 69//10 74//10
f 66//63 65//63 73//63
f 73//64 65//64 66//64
f 70//67 75//67 67//67
f 67//68 75//68 70//68
f 70//5 68//5 76//5
f 76//6 68//6 70//6
f 71//69 76//69 68//69
f 68//70 76//70 71//70
f 71//9 67//9 75//9
f 75//10 67//10 71//10
f 64//65 72//65 77//65
f 77//66 72//66 64//66
f 74//9 72//9 69//9
f 69//10 72//10 74//10
f 77//5 73//5 64//5
f 64//6 73//6 77//6
f 66//71 78//71 74//71
f 74//72 78//72 66//72
f 78//71 66//71 73//71
f 73//72 66//72 78//72
f 75//67 70//67 79//67
f 79//68 70//68 75//68
f 70//5 76//5 79//5
f 79//6 76//6 70//6
f 76//69 71//69 80//69
f 80//70 71//70 76//70
f 71//9 75//9 80//9
f 80//10 75//10 71//10
f 81//73 77//73 72//73
f 72//74 77//74 81//74
f 82//9 72//9 74//9
f 74//10 72//10 82//10
f 77//5 78//5 73//5
f 73//6 78//6 77//6
f 83//75 74//75 78//75
f 78//76 74//76 83//76
f 79//77 84//77 75//77
f 75//78 84//78 79//78
f 79//5 76//5 85//5
f 85//6 76//6 79//6
f 80//79 85//79 76//79
f 76//80 85//80 80//80
f 80//9 75//9 84//9
f 84//10 75//10 80//10
f 77//73 81//73 86//73
f 86//74 81//74 77//74
f 82//9 81//9 72//9
f 72//10 81//10 82//10
f 74//75 83//75 82//75
f 82//76 83//76 74//76
f 86//5 78//5 77//5
f 77//6 78//6 86//6
f 86//5 83//5 78//5
f 78//6 83//6 86//6
f 84//77 79//77 87//77
f 87//78 79//78 84//78
f 79//5 85//5 87//5
f 87//6 85//6 79//6
f 85//79 80//79 88//79
f 88//80 80//80 85//80
f 80//9 84//9 88//9
f 88//10 84//10 80//10
f 89//54 86//54 81//54
f 81//53 86//53 89//53
f 90//9 81//9 82//9
f 82//10 81//10 90//10
f 91//52 82//52 83//52
f 83//51 82//51 91//51
f 92//5 83//5 86//5
f 86//6 83//6 92//6
f 87//81 88//81 84//81
f 84//82 88//82 87//82
f 88//81 87//81 85//81
f 85//82 87//82 88//82
f 86//54 89//54 92//54
f 92//53 89//53 86//53
f 90//9 89//9 81//9
f 81//10 89//10 90//10
f 82//52 91//52 90//52
f 90//51 91//51 82//51
f 92//5 91//5 83//5
f 83//6 91//6 92//6
f 93//83 92//83 89//83
f 89//84 92//84 93//84
f 94//9 89//9 90//9
f 90//10 89//10 94//10
f 95//85 90//85 91//85
f 91//86 90//86 95//86
f 96//5 91//5 92//5
f 92//6 91//6 96//6
f 92//83 93//83 96//83
f 96//84 93//84 92//84
f 94//9 93//9 89//9
f 89//10 93//10 94//10
f 90//85 95//85 94//85
f 94//86 95//86 90//86
f 96//5 95//5 91//5
f 91//6 95//6 96//6
f 97//87 96//87 93//87
f 93//88 96//88 97//88
f 98//9 93//9 94//9
f 94//10 93//10 98//10
f 99//89 94//89 95//89
f 95//90 94//90 99//90
f 100//5 95//5 96//5
f 96//6 95//6 100//6
f 96//87 97//87 100//87
f 100//88 97//88 96//88
f 98//9 97//9 93//9
f 93//10 97//10 98//10
f 94//89 99//89 98//89
f 98//90 99//90 94//90
f 100//5 99//5 95//5
f 95//6 99//6 100//6
f 101//91 100//91 97//91
f 97//92 100//92 101//92
f 102//9 97//9 98//9
f 98//10 97//10 102//10
f 103//93 98//93 99//93
f 99//94 98//94 103//94
f 104//5 99//5 100//5
f 100//6 99//6 104//6
f 100//91 101//91 104//91
f 104//92 101//92 100//92
f 97//9 102//9 101//9
f 101//10 102//10 97//10
f 98//93 103//93 102//93
f 102//94 103//94 98//94
f 99//5 104//5 103//5
f 103//6 104//6 99//6
f 102//82 104//82 101//82
f 101//81 104//81 102//81
f 104//82 102//82 103//82
f 103//81 102//81 104//81
