# SSTK version 0.8.0
# 34
mtllib original-34.mtl
o mesh32/mesh32-geometry#mesh32-geometry
v -0.126892 0.003807 0.100405
v -0.127418 0.012883 0.101505
v -0.127471 0.003794 0.100553
v -0.126839 0.012895 0.101356
v -0.128011 0.012879 0.101577
v -0.130680 0.010919 0.032657
v -0.126338 0.003827 0.100183
v -0.131219 0.020020 0.033525
v -0.128064 0.003790 0.100625
v -0.131816 0.020024 0.033519
v -0.131272 0.010932 0.032574
v -0.130104 0.010899 0.032816
v -0.126285 0.012915 0.101134
v -0.130627 0.020008 0.033608
v -0.189652 0.003790 0.104069
v -0.193404 0.020024 0.036962
v -0.130051 0.019988 0.033767
v -0.125817 0.003854 0.099890
v -0.129554 0.010872 0.033048
v -0.131869 0.010936 0.032568
v -0.189599 0.012879 0.105020
v -0.129501 0.019960 0.034000
v -0.125764 0.012943 0.100841
v -0.190249 0.003794 0.104063
v -0.193457 0.010936 0.036011
v -0.193997 0.020020 0.037035
v -0.125340 0.003889 0.099533
v -0.129040 0.010837 0.033350
v -0.128987 0.019926 0.034302
v -0.190196 0.012883 0.105014
v -0.125286 0.012977 0.100484
v -0.190841 0.003807 0.103980
v -0.194050 0.010932 0.036083
v -0.194576 0.020008 0.037183
v -0.124913 0.003930 0.099116
v -0.128569 0.010796 0.033717
v -0.128516 0.019885 0.034668
v -0.124860 0.013018 0.100067
v -0.190788 0.012895 0.104931
v -0.191417 0.003827 0.103821
v -0.194629 0.010919 0.036232
v -0.195130 0.019988 0.037406
v -0.124491 0.013065 0.099599
v -0.128151 0.010749 0.034141
v -0.191364 0.012915 0.104772
v -0.124544 0.003977 0.098648
v -0.128098 0.019838 0.035092
v -0.191967 0.003854 0.103588
v -0.195183 0.010899 0.036454
v -0.195651 0.019960 0.037698
v -0.124187 0.013117 0.099087
v -0.127792 0.010698 0.034616
v -0.191914 0.012943 0.104540
v -0.124240 0.004029 0.098136
v -0.127739 0.019786 0.035567
v -0.192482 0.003889 0.103287
v -0.195704 0.010872 0.036747
v -0.196129 0.019926 0.038055
v -0.123953 0.013173 0.098540
v -0.127498 0.010642 0.035133
v -0.192428 0.012977 0.104238
v -0.124006 0.004084 0.097589
v -0.127445 0.019730 0.036084
v -0.192952 0.003930 0.102920
v -0.196182 0.010837 0.037104
v -0.196555 0.019885 0.038472
v -0.123793 0.013232 0.097968
v -0.127275 0.010583 0.035685
v -0.192899 0.013018 0.103871
v -0.123846 0.004143 0.097016
v -0.127222 0.019671 0.036636
v -0.193317 0.013065 0.103447
v -0.196608 0.010796 0.037521
v -0.196924 0.019838 0.038940
v -0.123709 0.013293 0.097379
v -0.127126 0.010521 0.036260
v -0.193370 0.003977 0.102496
v -0.196977 0.010749 0.037989
v -0.123762 0.004205 0.096428
v -0.127073 0.019610 0.037211
v -0.193676 0.013117 0.102972
v -0.197228 0.019786 0.039452
v -0.197281 0.010698 0.038501
v -0.123703 0.013355 0.096785
v -0.127054 0.010459 0.036850
v -0.193730 0.004029 0.102021
v -0.123756 0.004267 0.095833
v -0.127001 0.019548 0.037801
v -0.193970 0.013173 0.102455
v -0.197462 0.019730 0.039999
v -0.197515 0.010642 0.039048
v -0.194023 0.004084 0.101503
v -0.194193 0.013232 0.101904
v -0.197622 0.019671 0.040572
v -0.197675 0.010583 0.039621
v -0.194246 0.004143 0.100952
v -0.194342 0.013293 0.101328
v -0.197706 0.019610 0.041160
v -0.197759 0.010521 0.040209
v -0.194395 0.004205 0.100377
v -0.194414 0.013355 0.100738
v -0.197712 0.019548 0.041755
v -0.197765 0.010459 0.040804
v -0.194468 0.004267 0.099787
vn 0.24920429883955478 -0.10225303654743619 0.9630376596772913
vn -0.24920429883955478 0.10225303654743619 -0.9630376596772913
vn 0.12070293697892286 -0.10403301157722611 0.9872223323582359
vn -0.12070293697892286 0.10403301157722611 -0.9872223323582359
vn -0.005819665024253486 -0.9945507101324216 -0.10409138520598753
vn 0.005819665024253486 0.9945507101324216 0.10409138520598753
vn 0.3735425931451209 -0.09871801613626785 0.92234520890854
vn -0.3735425931451209 0.09871801613626785 -0.92234520890854
vn 0.05551781052562738 -0.10425597229791053 0.9929997305914328
vn -0.05551781052562738 0.10425597229791053 -0.9929997305914328
vn 0.140356849305615 0.10224897865025473 -0.9848071390977935
vn -0.140356849305615 -0.10224897865025473 0.9848071390977935
vn 0.2683489099713315 0.0987239955482379 -0.95824967269506
vn -0.2683489099713315 -0.0987239955482379 0.95824967269506
vn 0.4914024436721999 -0.09350101997787696 0.8658990689543945
vn -0.4914024436721999 0.09350101997787696 -0.8658990689543945
vn 0.009849938706039556 0.10402901597197456 -0.994525486120587
vn -0.009849938706039556 -0.10402901597197456 0.994525486120587
vn 0.3918183939271861 0.09350705092581017 -0.9152785246073888
vn -0.3918183939271861 -0.09350705092581017 0.9152785246073888
vn -0.00989809125859962 -0.10403305920537988 0.9945245851067768
vn 0.00989809125859962 0.10403305920537988 -0.9945245851067768
vn 0.600830322116867 -0.08668799295442388 0.7946622653067625
vn -0.600830322116867 0.08668799295442388 -0.7946622653067625
vn 0.5085456119795693 0.08668904274517 -0.8566600086406809
vn -0.5085456119795693 -0.08668904274517 0.8566600086406809
vn -0.1206403266735391 0.10402907035588072 -0.9872304007175797
vn 0.1206403266735391 -0.10402907035588072 0.9872304007175797
vn -0.14030145631179058 -0.1022530365474362 0.9848146109159933
vn 0.14030145631179058 0.1022530365474362 -0.9848146109159933
vn 0.700058310576972 -0.07838100599808039 0.7097709346619123
vn -0.700058310576972 0.07838100599808039 -0.7097709346619123
vn 0.6165766937623981 0.07838105767827828 -0.7833834249626834
vn -0.6165766937623981 -0.07838105767827828 0.7833834249626834
vn -0.24925851373033575 0.10224897865025472 -0.9630240597710547
vn 0.24925851373033575 -0.10224897865025472 0.9630240597710547
vn -0.2684008353836264 -0.09871801613626785 0.9582357459704219
vn 0.2684008353836264 0.09871801613626785 -0.9582357459704219
vn 0.7873266029552278 -0.06872903262090166 0.6126933493632652
vn -0.7873266029552278 0.06872903262090166 -0.6126933493632652
vn 0.7140964809289504 0.06873403907045099 -0.6966648030422887
vn -0.7140964809289504 -0.06873403907045099 0.6966648030422887
vn -0.3734925437532799 0.0987239955482379 -0.9223648369618693
vn 0.3734925437532799 -0.0987239955482379 0.9223648369618693
vn -0.3918643660743279 -0.09349801991217392 0.9152597657898374
vn 0.3918643660743279 0.09349801991217392 -0.9152597657898374
vn 0.8609634562140367 -0.057931008942470934 0.5053572254028706
vn -0.8609634562140367 0.057931008942470934 -0.5053572254028706
vn 0.7992656236864683 0.05793100894247094 -0.598179288337525
vn -0.7992656236864683 -0.05793100894247094 0.598179288337525
vn -0.4914469869997324 0.09350500075460397 -0.8658733589866167
vn 0.4914469869997324 -0.09350500075460397 0.8658733589866167
vn -0.508451271408273 -0.08669202956723364 0.8567157034937698
vn 0.508451271408273 0.08669202956723364 -0.8567157034937698
vn 0.920048590874463 -0.046109994402674576 0.3890815580904606
vn -0.920048590874463 0.046109994402674576 -0.3890815580904606
vn 0.8709438907832102 0.0461070007808116 -0.4892145578234582
vn -0.8709438907832102 -0.0461070007808116 0.4892145578234582
vn -0.6008179447962873 0.08669201543864404 -0.7946711846228927
vn 0.6008179447962873 -0.08669201543864404 0.7946711846228927
vn -0.6165772856659012 -0.07838100599808041 0.7833829642643491
vn 0.6165772856659012 0.07838100599808041 -0.7833829642643491
vn 0.9632889214068758 -0.03351600035566647 0.2663665362145498
vn -0.9632889214068758 0.03351600035566647 -0.2663665362145498
vn 0.927600459541924 0.03351299546880737 -0.3720675564898384
vn -0.927600459541924 -0.03351299546880737 0.3720675564898384
vn -0.7000577737163435 0.07838105767827826 -0.709771458468535
vn 0.7000577737163435 -0.07838105767827826 0.709771458468535
vn -0.7140632080865301 -0.06873600907912808 0.6966987124382007
vn 0.7140632080865301 0.06873600907912808 -0.6966987124382007
vn 0.9900950670380383 -0.02033299536185 0.13891842040045507
vn -0.9900950670380383 0.02033299536185 -0.13891842040045507
vn 0.9684393739053496 0.020332995361850025 -0.24841849441905386
vn -0.9684393739053496 -0.020332995361850025 0.24841849441905386
vn -0.7872506664978765 0.06874101530578737 -0.612789573110851
vn 0.7872506664978765 -0.06874101530578737 0.612789573110851
vn -0.7993795690230714 -0.057914033935601204 0.5980286525759402
vn 0.7993795690230714 0.057914033935601204 -0.5980286525759402
vn -0.8610599000614296 0.057914033935601184 -0.505194826952441
vn 0.8610599000614296 -0.057914033935601184 0.505194826952441
vn 0.9999341928966696 -0.006817001352647341 0.009227045499170654
vn -0.9999341928966696 0.006817001352647341 -0.009227045499170654
vn 0.992673870576356 0.006817001352647366 -0.12063214815095497
vn -0.992673870576356 -0.006817001352647366 0.12063214815095497
vn -0.8708433366927631 -0.04612902533833609 0.4893914547263261
vn 0.8708433366927631 0.04612902533833609 -0.4893914547263261
vn -0.9199686367181842 0.046126031719731224 -0.38926866898412965
vn 0.9199686367181842 -0.046126031719731224 0.38926866898412965
vn 0.9984407357955744 0 -0.055822012718927644
vn -0.9984407357955744 0 0.055822012718927644
vn -0.9276741398969269 -0.03349400975905258 0.37188552200476627
vn 0.9276741398969269 0.03349400975905258 -0.37188552200476627
vn -0.9633516498091556 0.03349100474290196 -0.26614272751906787
vn 0.9633516498091556 -0.03349100474290196 0.26614272751906787
vn -0.9926464795394527 -0.006841002360327275 0.12085597769509394
vn 0.9926464795394527 0.006841002360327275 -0.12085597769509394
vn -0.9999319228325335 0.006841002360327249 -0.009452533371440787
vn 0.9999319228325335 -0.006841002360327249 0.009452533371440787
usemtl material_0_0
f 1//1 2//1 3//1
f 2//1 1//1 4//1
f 3//2 2//2 1//2
f 4//2 1//2 2//2
f 5//3 3//3 2//3
f 2//4 3//4 5//4
f 3//5 6//5 1//5
f 1//6 6//6 3//6
f 7//7 4//7 1//7
f 1//8 4//8 7//8
f 8//6 2//6 4//6
f 4//5 2//5 8//5
f 3//3 5//3 9//3
f 9//4 5//4 3//4
f 10//6 5//6 2//6
f 2//5 5//5 10//5
f 3//5 11//5 6//5
f 6//6 11//6 3//6
f 1//5 6//5 12//5
f 12//6 6//6 1//6
f 4//7 7//7 13//7
f 13//8 7//8 4//8
f 1//5 12//5 7//5
f 7//6 12//6 1//6
f 10//6 2//6 8//6
f 8//5 2//5 10//5
f 8//6 4//6 14//6
f 14//5 4//5 8//5
f 5//9 15//9 9//9
f 9//10 15//10 5//10
f 9//5 11//5 3//5
f 3//6 11//6 9//6
f 16//6 5//6 10//6
f 10//5 5//5 16//5
f 11//11 14//11 6//11
f 6//12 14//12 11//12
f 6//13 17//13 12//13
f 12//14 17//14 6//14
f 18//15 13//15 7//15
f 7//16 13//16 18//16
f 14//6 4//6 13//6
f 13//5 4//5 14//5
f 7//5 12//5 19//5
f 19//6 12//6 7//6
f 8//17 20//17 10//17
f 10//18 20//18 8//18
f 14//11 11//11 8//11
f 8//12 11//12 14//12
f 15//9 5//9 21//9
f 21//10 5//10 15//10
f 15//5 20//5 9//5
f 9//6 20//6 15//6
f 9//5 20//5 11//5
f 11//6 20//6 9//6
f 16//6 21//6 5//6
f 5//5 21//5 16//5
f 20//10 16//10 10//10
f 10//9 16//9 20//9
f 17//13 6//13 14//13
f 14//14 6//14 17//14
f 22//19 12//19 17//19
f 17//20 12//20 22//20
f 13//15 18//15 23//15
f 23//16 18//16 13//16
f 7//5 19//5 18//5
f 18//6 19//6 7//6
f 14//6 13//6 17//6
f 17//5 13//5 14//5
f 12//19 22//19 19//19
f 19//20 22//20 12//20
f 20//17 8//17 11//17
f 11//18 8//18 20//18
f 21//21 24//21 15//21
f 15//22 24//22 21//22
f 15//5 25//5 20//5
f 20//6 25//6 15//6
f 26//6 21//6 16//6
f 16//5 21//5 26//5
f 16//10 20//10 25//10
f 25//9 20//9 16//9
f 17//6 23//6 22//6
f 22//5 23//5 17//5
f 27//23 23//23 18//23
f 18//24 23//24 27//24
f 17//6 13//6 23//6
f 23//5 13//5 17//5
f 18//5 19//5 28//5
f 28//6 19//6 18//6
f 29//25 19//25 22//25
f 22//26 19//26 29//26
f 24//21 21//21 30//21
f 30//22 21//22 24//22
f 24//5 25//5 15//5
f 15//6 25//6 24//6
f 26//6 30//6 21//6
f 21//5 30//5 26//5
f 25//27 26//27 16//27
f 16//28 26//28 25//28
f 22//6 23//6 31//6
f 31//5 23//5 22//5
f 23//23 27//23 31//23
f 31//24 27//24 23//24
f 18//5 28//5 27//5
f 27//6 28//6 18//6
f 19//25 29//25 28//25
f 28//26 29//26 19//26
f 22//6 31//6 29//6
f 29//5 31//5 22//5
f 30//29 32//29 24//29
f 24//30 32//30 30//30
f 24//5 33//5 25//5
f 25//6 33//6 24//6
f 34//6 30//6 26//6
f 26//5 30//5 34//5
f 26//27 25//27 33//27
f 33//28 25//28 26//28
f 35//31 31//31 27//31
f 27//32 31//32 35//32
f 27//5 28//5 36//5
f 36//6 28//6 27//6
f 37//33 28//33 29//33
f 29//34 28//34 37//34
f 29//6 31//6 38//6
f 38//5 31//5 29//5
f 32//29 30//29 39//29
f 39//30 30//30 32//30
f 32//5 33//5 24//5
f 24//6 33//6 32//6
f 34//6 39//6 30//6
f 30//5 39//5 34//5
f 33//35 34//35 26//35
f 26//36 34//36 33//36
f 31//31 35//31 38//31
f 38//32 35//32 31//32
f 27//5 36//5 35//5
f 35//6 36//6 27//6
f 28//33 37//33 36//33
f 36//34 37//34 28//34
f 29//6 38//6 37//6
f 37//5 38//5 29//5
f 39//37 40//37 32//37
f 32//38 40//38 39//38
f 32//5 41//5 33//5
f 33//6 41//6 32//6
f 42//6 39//6 34//6
f 34//5 39//5 42//5
f 34//35 33//35 41//35
f 41//36 33//36 34//36
f 35//39 43//39 38//39
f 38//40 43//40 35//40
f 35//5 36//5 44//5
f 44//6 36//6 35//6
f 37//41 44//41 36//41
f 36//42 44//42 37//42
f 37//6 38//6 43//6
f 43//5 38//5 37//5
f 40//37 39//37 45//37
f 45//38 39//38 40//38
f 40//5 41//5 32//5
f 32//6 41//6 40//6
f 42//6 45//6 39//6
f 39//5 45//5 42//5
f 41//43 42//43 34//43
f 34//44 42//44 41//44
f 43//39 35//39 46//39
f 46//40 35//40 43//40
f 35//5 44//5 46//5
f 46//6 44//6 35//6
f 44//41 37//41 47//41
f 47//42 37//42 44//42
f 37//6 43//6 47//6
f 47//5 43//5 37//5
f 45//45 48//45 40//45
f 40//46 48//46 45//46
f 40//5 49//5 41//5
f 41//6 49//6 40//6
f 50//6 45//6 42//6
f 42//5 45//5 50//5
f 42//43 41//43 49//43
f 49//44 41//44 42//44
f 46//47 51//47 43//47
f 43//48 51//48 46//48
f 46//5 44//5 52//5
f 52//6 44//6 46//6
f 47//49 52//49 44//49
f 44//50 52//50 47//50
f 47//6 43//6 51//6
f 51//5 43//5 47//5
f 48//45 45//45 53//45
f 53//46 45//46 48//46
f 48//5 49//5 40//5
f 40//6 49//6 48//6
f 50//6 53//6 45//6
f 45//5 53//5 50//5
f 49//51 50//51 42//51
f 42//52 50//52 49//52
f 51//47 46//47 54//47
f 54//48 46//48 51//48
f 46//5 52//5 54//5
f 54//6 52//6 46//6
f 52//49 47//49 55//49
f 55//50 47//50 52//50
f 47//6 51//6 55//6
f 55//5 51//5 47//5
f 53//53 56//53 48//53
f 48//54 56//54 53//54
f 48//5 57//5 49//5
f 49//6 57//6 48//6
f 58//6 53//6 50//6
f 50//5 53//5 58//5
f 50//51 49//51 57//51
f 57//52 49//52 50//52
f 54//55 59//55 51//55
f 51//56 59//56 54//56
f 54//5 52//5 60//5
f 60//6 52//6 54//6
f 55//57 60//57 52//57
f 52//58 60//58 55//58
f 55//6 51//6 59//6
f 59//5 51//5 55//5
f 56//53 53//53 61//53
f 61//54 53//54 56//54
f 56//5 57//5 48//5
f 48//6 57//6 56//6
f 58//6 61//6 53//6
f 53//5 61//5 58//5
f 57//59 58//59 50//59
f 50//60 58//60 57//60
f 59//55 54//55 62//55
f 62//56 54//56 59//56
f 54//5 60//5 62//5
f 62//6 60//6 54//6
f 60//57 55//57 63//57
f 63//58 55//58 60//58
f 55//6 59//6 63//6
f 63//5 59//5 55//5
f 61//61 64//61 56//61
f 56//62 64//62 61//62
f 56//5 65//5 57//5
f 57//6 65//6 56//6
f 66//6 61//6 58//6
f 58//5 61//5 66//5
f 58//59 57//59 65//59
f 65//60 57//60 58//60
f 62//63 67//63 59//63
f 59//64 67//64 62//64
f 62//5 60//5 68//5
f 68//6 60//6 62//6
f 63//65 68//65 60//65
f 60//66 68//66 63//66
f 63//6 59//6 67//6
f 67//5 59//5 63//5
f 64//61 61//61 69//61
f 69//62 61//62 64//62
f 64//5 65//5 56//5
f 56//6 65//6 64//6
f 66//6 69//6 61//6
f 61//5 69//5 66//5
f 65//67 66//67 58//67
f 58//68 66//68 65//68
f 67//63 62//63 70//63
f 70//64 62//64 67//64
f 62//5 68//5 70//5
f 70//6 68//6 62//6
f 68//65 63//65 71//65
f 71//66 63//66 68//66
f 63//6 67//6 71//6
f 71//5 67//5 63//5
f 72//69 64//69 69//69
f 69//70 64//70 72//70
f 64//5 73//5 65//5
f 65//6 73//6 64//6
f 74//6 69//6 66//6
f 66//5 69//5 74//5
f 66//67 65//67 73//67
f 73//68 65//68 66//68
f 70//71 75//71 67//71
f 67//72 75//72 70//72
f 70//5 68//5 76//5
f 76//6 68//6 70//6
f 71//73 76//73 68//73
f 68//74 76//74 71//74
f 71//6 67//6 75//6
f 75//5 67//5 71//5
f 64//69 72//69 77//69
f 77//70 72//70 64//70
f 74//6 72//6 69//6
f 69//5 72//5 74//5
f 77//5 73//5 64//5
f 64//6 73//6 77//6
f 66//75 78//75 74//75
f 74//76 78//76 66//76
f 78//75 66//75 73//75
f 73//76 66//76 78//76
f 75//71 70//71 79//71
f 79//72 70//72 75//72
f 70//5 76//5 79//5
f 79//6 76//6 70//6
f 76//73 71//73 80//73
f 80//74 71//74 76//74
f 71//6 75//6 80//6
f 80//5 75//5 71//5
f 81//77 77//77 72//77
f 72//78 77//78 81//78
f 82//6 72//6 74//6
f 74//5 72//5 82//5
f 77//5 78//5 73//5
f 73//6 78//6 77//6
f 83//79 74//79 78//79
f 78//80 74//80 83//80
f 79//81 84//81 75//81
f 75//82 84//82 79//82
f 79//5 76//5 85//5
f 85//6 76//6 79//6
f 80//83 85//83 76//83
f 76//84 85//84 80//84
f 80//6 75//6 84//6
f 84//5 75//5 80//5
f 77//77 81//77 86//77
f 86//78 81//78 77//78
f 82//6 81//6 72//6
f 72//5 81//5 82//5
f 74//79 83//79 82//79
f 82//80 83//80 74//80
f 86//5 78//5 77//5
f 77//6 78//6 86//6
f 86//5 83//5 78//5
f 78//6 83//6 86//6
f 84//81 79//81 87//81
f 87//82 79//82 84//82
f 79//5 85//5 87//5
f 87//6 85//6 79//6
f 85//83 80//83 88//83
f 88//84 80//84 85//84
f 80//6 84//6 88//6
f 88//5 84//5 80//5
f 89//85 86//85 81//85
f 81//86 86//86 89//86
f 90//6 81//6 82//6
f 82//5 81//5 90//5
f 91//87 82//87 83//87
f 83//88 82//88 91//88
f 92//5 83//5 86//5
f 86//6 83//6 92//6
f 87//89 88//89 84//89
f 84//90 88//90 87//90
f 88//89 87//89 85//89
f 85//90 87//90 88//90
f 86//85 89//85 92//85
f 92//86 89//86 86//86
f 90//6 89//6 81//6
f 81//5 89//5 90//5
f 82//87 91//87 90//87
f 90//88 91//88 82//88
f 92//5 91//5 83//5
f 83//6 91//6 92//6
f 93//91 92//91 89//91
f 89//92 92//92 93//92
f 94//6 89//6 90//6
f 90//5 89//5 94//5
f 95//93 90//93 91//93
f 91//94 90//94 95//94
f 96//5 91//5 92//5
f 92//6 91//6 96//6
f 92//91 93//91 96//91
f 96//92 93//92 92//92
f 94//6 93//6 89//6
f 89//5 93//5 94//5
f 90//93 95//93 94//93
f 94//94 95//94 90//94
f 96//5 95//5 91//5
f 91//6 95//6 96//6
f 97//74 96//74 93//74
f 93//73 96//73 97//73
f 98//6 93//6 94//6
f 94//5 93//5 98//5
f 99//72 94//72 95//72
f 95//71 94//71 99//71
f 100//5 95//5 96//5
f 96//6 95//6 100//6
f 96//74 97//74 100//74
f 100//73 97//73 96//73
f 98//6 97//6 93//6
f 93//5 97//5 98//5
f 94//72 99//72 98//72
f 98//71 99//71 94//71
f 100//5 99//5 95//5
f 95//6 99//6 100//6
f 101//95 100//95 97//95
f 97//96 100//96 101//96
f 102//6 97//6 98//6
f 98//5 97//5 102//5
f 103//97 98//97 99//97
f 99//98 98//98 103//98
f 104//5 99//5 100//5
f 100//6 99//6 104//6
f 100//95 101//95 104//95
f 104//96 101//96 100//96
f 97//6 102//6 101//6
f 101//5 102//5 97//5
f 98//97 103//97 102//97
f 102//98 103//98 98//98
f 99//5 104//5 103//5
f 103//6 104//6 99//6
f 102//90 104//90 101//90
f 101//89 104//89 102//89
f 104//90 102//90 103//90
f 103//89 102//89 104//89
