# SSTK version 0.8.0
# 10
mtllib original-10.mtl
o mesh11/mesh11-geometry#mesh11-geometry
v -0.001900 -0.130690 0.053508
v -0.008870 -0.130690 0.055089
v -0.008870 -0.130690 0.053508
v -0.001900 -0.130690 0.055089
v -0.004741 -0.098588 0.053508
v -0.004201 -0.127276 0.053508
v -0.001673 -0.127276 0.055089
v -0.004741 -0.098588 0.055089
v -0.001673 -0.127276 0.053508
v -0.004201 -0.127276 0.055089
v -0.001628 -0.098588 0.055089
v -0.001628 -0.098588 0.053508
vn 0 -1 0
vn 0 1 0
vn -0.991830209214207 0.12756502690825072 0
vn 0.991830209214207 -0.12756502690825072 0
vn 0 0 -1
vn 0 0 1
vn 0.9978012612593274 -0.0662770173536451 0
vn -0.9978012612593274 0.0662770173536451 0
vn 0.9960017273146845 -0.08933397554214752 0
vn -0.9960017273146845 0.08933397554214752 0
usemtl material_0_0
f 1//1 2//1 3//1
f 2//1 1//1 4//1
f 3//2 2//2 1//2
f 4//2 1//2 2//2
f 2//3 5//3 3//3
f 3//4 5//4 2//4
f 3//5 6//5 1//5
f 1//6 6//6 3//6
f 1//7 7//7 4//7
f 4//8 7//8 1//8
f 7//6 2//6 4//6
f 4//5 2//5 7//5
f 5//3 2//3 8//3
f 8//4 2//4 5//4
f 6//5 3//5 5//5
f 5//6 3//6 6//6
f 9//5 1//5 6//5
f 6//6 1//6 9//6
f 7//7 1//7 9//7
f 9//8 1//8 7//8
f 2//6 7//6 10//6
f 10//5 7//5 2//5
f 2//6 10//6 8//6
f 8//5 10//5 2//5
f 11//2 5//2 8//2
f 8//1 5//1 11//1
f 6//5 5//5 12//5
f 12//6 5//6 6//6
f 6//2 7//2 9//2
f 9//1 7//1 6//1
f 7//2 6//2 10//2
f 10//1 6//1 7//1
f 8//6 10//6 11//6
f 11//5 10//5 8//5
f 5//2 11//2 12//2
f 12//1 11//1 5//1
f 11//9 6//9 12//9
f 12//10 6//10 11//10
f 6//9 11//9 10//9
f 10//10 11//10 6//10
