# SSTK version 0.8.0
# 45
mtllib original-45.mtl
o mesh50/mesh50-geometry#mesh50-geometry
v 0.192577 0.040320 -0.057815
v 0.198711 0.040120 -0.054712
v 0.192577 -0.041240 -0.063089
v 0.195079 0.042239 -0.087492
v 0.198711 -0.041441 -0.059987
v 0.175133 0.041855 -0.081551
v 0.195079 0.043558 -0.107882
v 0.203252 0.042239 -0.087492
v 0.196697 -0.041985 -0.051574
v 0.235953 0.040120 -0.054712
v 0.175133 -0.039705 -0.086826
v 0.175133 0.044075 -0.115883
v 0.213433 0.040823 -0.065596
v 0.237967 -0.041985 -0.051574
v 0.186969 -0.041667 -0.056493
v 0.235953 -0.041441 -0.059987
v 0.172380 0.042398 -0.089943
v 0.172380 0.043898 -0.113136
v 0.259531 0.044075 -0.115883
v 0.203252 0.043558 -0.107882
v 0.221606 0.040823 -0.065596
v 0.242088 0.040320 -0.057815
v 0.172380 -0.039163 -0.095218
v 0.167540 -0.039957 -0.082933
v 0.172380 -0.037663 -0.118410
v 0.259531 -0.037485 -0.121157
v 0.213433 0.042142 -0.085987
v 0.242088 -0.041240 -0.063089
v 0.221606 0.042142 -0.085987
v 0.240031 0.042239 -0.087492
v 0.175133 -0.037485 -0.121157
v 0.231858 0.043558 -0.107882
v 0.262284 0.043898 -0.113136
v 0.247695 -0.041667 -0.056493
v 0.231858 0.042239 -0.087492
v 0.240031 0.043558 -0.107882
v 0.259531 -0.039705 -0.086826
v 0.171641 -0.036941 -0.129570
v 0.263023 -0.036941 -0.129570
v 0.262284 -0.037663 -0.118410
v 0.262284 0.042398 -0.089943
v 0.259531 0.041855 -0.081551
v 0.163950 -0.037438 -0.121895
v 0.267125 -0.039957 -0.082933
v 0.262284 -0.039163 -0.095218
v 0.163950 -0.039250 -0.093876
v 0.270715 -0.037438 -0.121895
v 0.270715 -0.039250 -0.093876
vn 0.45201582687209524 0.05756297795263554 -0.8901506590607909
vn -0.45201582687209524 -0.05756297795263554 0.8901506590607909
vn 0 -0.9979156397126024 -0.06453197670137956
vn 0 0.9979156397126024 0.06453197670137956
vn 0.8064050163579259 0.03816200077411632 -0.5901310119708076
vn -0.8064050163579259 -0.03816200077411632 0.5901310119708076
vn 0 0.06453197670137956 -0.9979156397126024
vn 0 -0.06453197670137956 0.9979156397126024
vn 0.9503698443745748 0.02007699671234194 -0.31047394915911886
vn -0.9503698443745748 -0.02007699671234194 0.31047394915911886
vn -0.45201582687209524 0.05756297795263554 -0.8901506590607909
vn 0.45201582687209524 -0.05756297795263554 0.8901506590607909
vn 0.7071068485734381 -0.045630990228147456 0.7056328488890944
vn -0.7071068485734381 0.045630990228147456 -0.7056328488890944
vn 1 0 0
vn -1 0 0
vn -0.7071068485734381 -0.045630990228147456 0.7056328488890944
vn 0.7071068485734381 0.045630990228147456 -0.7056328488890944
vn -0.8064050163579259 0.03816200077411632 -0.5901310119708076
vn 0.8064050163579259 -0.03816200077411632 0.5901310119708076
vn -0.9503698443745748 0.02007699671234194 -0.31047394915911886
vn 0.9503698443745748 -0.02007699671234194 0.31047394915911886
usemtl material_0_0
f 1//1 2//1 3//1
f 3//2 2//2 1//2
f 1//3 4//3 2//3
f 2//4 4//4 1//4
f 5//1 3//1 2//1
f 2//2 3//2 5//2
f 1//5 3//5 6//5
f 6//6 3//6 1//6
f 4//3 1//3 7//3
f 7//4 1//4 4//4
f 8//3 2//3 4//3
f 4//4 2//4 8//4
f 5//3 9//3 3//3
f 3//4 9//4 5//4
f 2//7 10//7 5//7
f 5//8 10//8 2//8
f 11//5 6//5 3//5
f 3//6 6//6 11//6
f 1//3 6//3 12//3
f 12//4 6//4 1//4
f 7//3 1//3 12//3
f 12//4 1//4 7//4
f 13//3 2//3 8//3
f 8//4 2//4 13//4
f 14//3 9//3 5//3
f 5//4 9//4 14//4
f 9//3 15//3 3//3
f 3//4 15//4 9//4
f 10//3 2//3 13//3
f 13//4 2//4 10//4
f 16//7 5//7 10//7
f 10//8 5//8 16//8
f 6//9 11//9 17//9
f 17//10 11//10 6//10
f 3//3 15//3 11//3
f 11//4 15//4 3//4
f 12//3 6//3 18//3
f 18//4 6//4 12//4
f 19//3 7//3 12//3
f 12//4 7//4 19//4
f 20//3 13//3 8//3
f 8//4 13//4 20//4
f 16//3 14//3 5//3
f 5//4 14//4 16//4
f 21//3 10//3 13//3
f 13//4 10//4 21//4
f 10//11 22//11 16//11
f 16//12 22//12 10//12
f 23//9 17//9 11//9
f 11//10 17//10 23//10
f 17//3 18//3 6//3
f 6//4 18//4 17//4
f 15//3 24//3 11//3
f 11//4 24//4 15//4
f 18//13 25//13 12//13
f 12//14 25//14 18//14
f 20//3 7//3 19//3
f 19//4 7//4 20//4
f 19//8 12//8 26//8
f 26//7 12//7 19//7
f 13//3 20//3 27//3
f 27//4 20//4 13//4
f 28//3 14//3 16//3
f 16//4 14//4 28//4
f 29//3 10//3 21//3
f 21//4 10//4 29//4
f 22//3 10//3 30//3
f 30//4 10//4 22//4
f 28//11 16//11 22//11
f 22//12 16//12 28//12
f 17//15 23//15 18//15
f 18//16 23//16 17//16
f 11//3 24//3 23//3
f 23//4 24//4 11//4
f 25//15 18//15 23//15
f 23//16 18//16 25//16
f 31//13 12//13 25//13
f 25//14 12//14 31//14
f 32//3 20//3 19//3
f 19//4 20//4 32//4
f 31//8 26//8 12//8
f 12//7 26//7 31//7
f 19//17 26//17 33//17
f 33//18 26//18 19//18
f 27//3 20//3 32//3
f 32//4 20//4 27//4
f 34//3 14//3 28//3
f 28//4 14//4 34//4
f 35//3 10//3 29//3
f 29//4 10//4 35//4
f 30//3 10//3 35//3
f 35//4 10//4 30//4
f 36//3 22//3 30//3
f 30//4 22//4 36//4
f 28//19 22//19 37//19
f 37//20 22//20 28//20
f 23//3 24//3 38//3
f 38//4 24//4 23//4
f 23//3 38//3 25//3
f 25//4 38//4 23//4
f 25//3 38//3 31//3
f 31//4 38//4 25//4
f 36//3 32//3 19//3
f 19//4 32//4 36//4
f 26//3 31//3 39//3
f 39//4 31//4 26//4
f 40//17 33//17 26//17
f 26//18 33//18 40//18
f 33//3 41//3 19//3
f 19//4 41//4 33//4
f 29//3 27//3 32//3
f 32//4 27//4 29//4
f 37//3 34//3 28//3
f 28//4 34//4 37//4
f 35//3 29//3 32//3
f 32//4 29//4 35//4
f 22//3 36//3 19//3
f 19//4 36//4 22//4
f 42//19 37//19 22//19
f 22//20 37//20 42//20
f 38//3 24//3 43//3
f 43//4 24//4 38//4
f 39//3 31//3 38//3
f 38//4 31//4 39//4
f 40//3 26//3 39//3
f 39//4 26//4 40//4
f 33//16 40//16 41//16
f 41//15 40//15 33//15
f 41//3 42//3 19//3
f 19//4 42//4 41//4
f 44//3 34//3 37//3
f 37//4 34//4 44//4
f 42//3 22//3 19//3
f 19//4 22//4 42//4
f 37//21 42//21 45//21
f 45//22 42//22 37//22
f 46//3 43//3 24//3
f 24//4 43//4 46//4
f 39//3 44//3 40//3
f 40//4 44//4 39//4
f 45//16 41//16 40//16
f 40//15 41//15 45//15
f 41//21 45//21 42//21
f 42//22 45//22 41//22
f 45//3 44//3 37//3
f 37//4 44//4 45//4
f 47//3 44//3 39//3
f 39//4 44//4 47//4
f 40//3 44//3 45//3
f 45//4 44//4 40//4
f 48//3 44//3 47//3
f 47//4 44//4 48//4
