# SSTK version 0.8.0
# 34
mtllib original-34.mtl
o Group6/mesh28/mesh28-geometry#mesh28-geometry
v 0.239263 -0.566990 0.064396
v -0.210257 -0.566990 0.023530
v 0.239263 -0.566990 0.023530
v -0.210257 -0.566990 0.064396
v 0.239263 -0.505692 0.023530
v -0.210257 -0.536341 0.064396
v -0.210257 -0.505692 0.023530
v 0.239263 -0.549851 0.064396
v 0.098022 -0.549851 0.064396
v -0.210257 -0.505692 0.064396
v 0.239263 -0.505692 0.064396
v 0.059455 -0.536341 0.064396
vn 0 -1 0
vn 0 1 0
vn 0 0 -1
vn 0 0 1
vn 1 0 0
vn -1 0 0
usemtl material_0_0
f 1//1 2//1 3//1
f 2//1 1//1 4//1
f 3//2 2//2 1//2
f 4//2 1//2 2//2
f 2//3 5//3 3//3
f 3//4 5//4 2//4
f 5//5 1//5 3//5
f 3//6 1//6 5//6
f 1//4 6//4 4//4
f 4//3 6//3 1//3
f 6//6 2//6 4//6
f 4//5 2//5 6//5
f 5//3 2//3 7//3
f 7//4 2//4 5//4
f 1//5 5//5 8//5
f 8//6 5//6 1//6
f 6//4 1//4 9//4
f 9//3 1//3 6//3
f 2//6 6//6 7//6
f 7//5 6//5 2//5
f 10//2 5//2 7//2
f 7//1 5//1 10//1
f 8//5 5//5 11//5
f 11//6 5//6 8//6
f 9//4 1//4 8//4
f 8//3 1//3 9//3
f 6//4 9//4 12//4
f 12//3 9//3 6//3
f 7//6 6//6 10//6
f 10//5 6//5 7//5
f 5//2 10//2 11//2
f 11//1 10//1 5//1
f 11//4 9//4 8//4
f 8//3 9//3 11//3
f 11//4 12//4 9//4
f 9//3 12//3 11//3
f 12//4 10//4 6//4
f 6//3 10//3 12//3
f 10//4 12//4 11//4
f 11//3 12//3 10//3
