mtllib new-6.mtl
v 0.666070 0.593961 -0.504098
v 0.579469 -0.078142 -0.214898
v 0.665152 -0.139292 -0.188311
v 0.580245 0.533870 -0.478471
v -0.573833 -0.078142 -0.218292
v 0.665280 -0.158118 -0.232026
v -0.573057 0.533870 -0.481865
v -0.652908 -0.139292 -0.192190
v 0.666182 0.562219 -0.542251
v -0.652779 -0.158118 -0.235905
v -0.651978 0.593961 -0.507977
v -0.651866 0.562219 -0.546130
v 0.666083 0.594287 -0.508739
v -0.651965 0.594287 -0.512618
v -0.651868 0.566842 -0.545605
v 0.666097 0.593966 -0.513381
v 0.666180 0.566842 -0.541727
v -0.651871 0.571348 -0.544446
v 0.666110 0.593007 -0.517934
v -0.651951 0.593966 -0.517260
v 0.666177 0.571348 -0.540567
v -0.651876 0.575650 -0.542674
v 0.666123 0.591426 -0.522310
v -0.651938 0.593007 -0.521813
v 0.666172 0.575650 -0.538795
v -0.651883 0.579666 -0.540324
v 0.666135 0.589254 -0.526425
v -0.651925 0.591426 -0.526188
v 0.666165 0.579666 -0.536445
v -0.651892 0.583317 -0.537440
v 0.666147 0.586534 -0.530199
v -0.651913 0.589254 -0.530303
v 0.666156 0.583317 -0.533561
v -0.651902 0.586534 -0.534078
vn -0.002703 0.395546 0.918442
vn 0.999996 0.000012 0.002935
vn -0.001164 -0.918446 0.395544
vn 0.002703 -0.395546 -0.918442
vn -0.000206 0.997549 0.069973
vn -0.000002 1.000000 0.000580
vn -0.999996 0.000000 -0.002943
vn 0.002894 0.181352 -0.983414
vn 0.002924 0.112671 -0.993628
vn 0.000406 0.990449 -0.137880
vn 0.002792 0.315765 -0.948833
vn 0.000805 0.961819 -0.273684
vn 0.002637 0.444095 -0.895976
vn 0.001190 0.914662 -0.404217
vn 0.002430 0.563871 -0.825859
vn 0.001551 0.849887 -0.526963
vn 0.002177 0.672786 -0.739834
vn 0.001882 0.768740 -0.639558
vn -0.999996 -0.000012 -0.002935
vn 0.001164 0.918446 -0.395544
vn 0.000206 -0.997549 -0.069973
vn 0.000002 -1.000000 -0.000580
vn 0.999996 0.000000 0.002943
vn -0.002924 -0.112671 0.993628
vn -0.002894 -0.181352 0.983414
vn -0.000406 -0.990449 0.137880
vn -0.002792 -0.315765 0.948833
vn -0.000805 -0.961819 0.273684
vn -0.002637 -0.444095 0.895976
vn -0.001190 -0.914662 0.404217
vn -0.002430 -0.563871 0.825859
vn -0.001551 -0.849887 0.526963
vn -0.002177 -0.672786 0.739834
vn -0.001882 -0.768740 0.639558
usemtl material-0
f 1//1 2//1 3//1
f 2//1 1//1 4//1
f 5//1 3//1 2//1
f 6//2 1//2 3//2
f 4//1 1//1 7//1
f 5//1 8//1 3//1
f 1//2 6//2 9//2
f 3//3 10//3 6//3
f 11//1 7//1 1//1
f 8//1 5//1 11//1
f 10//3 3//3 8//3
f 6//4 12//4 9//4
f 1//2 9//2 13//2
f 12//4 6//4 10//4
f 11//1 5//1 7//1
f 1//5 14//6 11//5
f 11//7 10//7 8//7
f 15//8 9//9 12//9
f 13//2 9//2 16//2
f 14//6 1//5 13//6
f 10//7 11//7 12//7
f 12//7 11//7 14//7
f 9//9 15//8 17//8
f 12//7 18//7 15//7
f 16//2 9//2 19//2
f 20//10 13//6 16//10
f 13//6 20//10 14//6
f 12//7 14//7 20//7
f 18//11 17//8 15//8
f 21//2 9//2 17//2
f 12//7 22//7 18//7
f 19//2 9//2 23//2
f 24//12 16//10 19//12
f 16//10 24//12 20//10
f 12//7 20//7 24//7
f 17//8 18//11 21//11
f 25//2 9//2 21//2
f 12//7 26//7 22//7
f 22//13 21//11 18//11
f 23//2 9//2 27//2
f 28//14 19//12 23//14
f 19//12 28//14 24//12
f 12//7 24//7 28//7
f 29//2 9//2 25//2
f 21//11 22//13 25//13
f 12//7 30//7 26//7
f 26//15 25//13 22//13
f 27//2 9//2 31//2
f 32//16 23//14 27//16
f 23//14 32//16 28//14
f 12//7 28//7 32//7
f 33//2 9//2 29//2
f 25//13 26//15 29//15
f 12//7 34//7 30//7
f 30//17 29//15 26//15
f 31//2 9//2 33//2
f 34//18 27//16 31//18
f 27//16 34//18 32//16
f 12//7 32//7 34//7
f 29//15 30//17 33//17
f 31//18 30//17 34//18
f 30//17 31//18 33//17
usemtl material-1
f 3//4 2//4 1//4
f 4//4 1//4 2//4
f 2//4 3//4 5//4
f 3//19 1//19 6//19
f 7//4 1//4 4//4
f 3//4 8//4 5//4
f 9//19 6//19 1//19
f 6//20 10//20 3//20
f 1//4 7//4 11//4
f 11//4 5//4 8//4
f 8//20 3//20 10//20
f 9//1 12//1 6//1
f 13//19 9//19 1//19
f 10//1 6//1 12//1
f 7//4 5//4 11//4
f 11//21 14//22 1//21
f 8//23 10//23 11//23
f 12//24 9//24 15//25
f 16//19 9//19 13//19
f 13//22 1//21 14//22
f 12//23 11//23 10//23
f 14//23 11//23 12//23
f 17//25 15//25 9//24
f 15//23 18//23 12//23
f 19//19 9//19 16//19
f 16//26 13//22 20//26
f 14//22 20//26 13//22
f 20//23 14//23 12//23
f 15//25 17//25 18//27
f 17//19 9//19 21//19
f 18//23 22//23 12//23
f 23//19 9//19 19//19
f 19//28 16//26 24//28
f 20//26 24//28 16//26
f 24//23 20//23 12//23
f 21//27 18//27 17//25
f 21//19 9//19 25//19
f 22//23 26//23 12//23
f 18//27 21//27 22//29
f 27//19 9//19 23//19
f 23//30 19//28 28//30
f 24//28 28//30 19//28
f 28//23 24//23 12//23
f 25//19 9//19 29//19
f 25//29 22//29 21//27
f 26//23 30//23 12//23
f 22//29 25//29 26//31
f 31//19 9//19 27//19
f 27//32 23//30 32//32
f 28//30 32//32 23//30
f 32//23 28//23 12//23
f 29//19 9//19 33//19
f 29//31 26//31 25//29
f 30//23 34//23 12//23
f 26//31 29//31 30//33
f 33//19 9//19 31//19
f 31//34 27//32 34//34
f 32//32 34//34 27//32
f 34//23 32//23 12//23
f 33//33 30//33 29//31
f 34//34 30//33 31//34
f 33//33 31//34 30//33