# SSTK version 0.8.0
# 5
mtllib original-5.mtl
o #ID336
v -0.999932 0.017691 0.082789
v -0.997650 -0.000349 0.084197
v -1.000048 0.019770 0.084976
v -0.997758 -0.000349 0.082083
v -0.997176 -0.000349 0.086261
v -0.999304 0.015742 0.080570
v -0.999649 0.021915 0.087064
v -0.997494 -0.000349 0.079982
v -0.996348 -0.000349 0.088209
v -0.998183 0.013982 0.078387
v -0.998746 0.024059 0.088988
v -0.996868 -0.000349 0.077960
v -0.995193 -0.000349 0.089984
v -0.996604 0.012466 0.076307
v -0.997367 0.026138 0.090690
v -0.995898 -0.000349 0.076077
v -0.993746 -0.000349 0.091529
v -0.994615 0.011240 0.074393
v -0.995555 0.028088 0.092117
v -0.995812 -0.000349 0.075964
v -0.993366 0.029847 0.093225
v -0.992051 -0.000349 0.092798
v -0.990866 0.031363 0.093981
v -0.990160 -0.000349 0.093752
v -0.988133 0.032589 0.094361
v -0.988133 -0.000349 0.094361
vn -0.8206475256495439 0.3696299115528752 -0.4357882136206697
vn -0.6755068624021734 -0.7313910592917324 0.09358203479134662
vn -0.8650546085338503 0.4039292039848018 -0.29752600293512377
vn -0.6845496051081835 -0.7284010054354076 -0.02870215021417857
vn -0.649180404153969 -0.7302915046729822 0.21269490136099004
vn -0.7515761873185012 0.3517948940640926 -0.5580085905846067
vn -0.8774951919699671 0.4543522958421833 -0.15351279859519135
vn -0.6760602925478584 -0.7209486920530584 -0.15223489832193074
vn -0.6053435161375441 -0.725908619351628 0.32652090870455447
vn -0.6684729034809959 0.34768510181053003 -0.6574641034236687
vn -0.8554648944578651 0.5176673966462881 -0.014152059908315785
vn -0.6490517149426991 -0.7095004163343708 -0.2744832063192499
vn -0.5438288959317737 -0.7192385946195848 0.43237249676554684
vn -0.5817696724162847 0.3525249832855693 -0.7329871652465395
vn -0.8003423152559854 0.5889175112258425 0.11237590214208981
vn -0.6021970930871056 -0.6958220920123418 -0.3913952955069953
vn -0.46411588462026476 -0.7083445765270868 0.5318311823763353
vn -0.37663219716477125 0.3172165976120425 -0.8703572934480852
vn -0.4710091829612822 -0.048174708257284066 0.8808118681367043
vn -0.5624140138579713 -0.7071068174232255 -0.4285912105605561
vn -0.3277988162877545 -0.03195882158797846 0.9442068469160001
vn -0.37343251373663855 -0.6976790256639805 0.6113854224896877
vn -0.187501004291416 -0.015397460352408328 0.982143722478745
vn -0.2642913131128943 -0.6909709342827347 0.6728367333830005
vn -0.2597214913048846 0.9108402695063298 0.32080328925995044
vn -0.0917617304432543 -0.6714059032432219 0.7353869035522816
usemtl material_0_0
f 1//1 2//2 3//3
f 4//4 2//2 1//1
f 2//2 5//5 3//3
f 6//6 4//4 1//1
f 3//3 5//5 7//7
f 8//8 4//4 6//6
f 5//5 9//9 7//7
f 10//10 8//8 6//6
f 7//7 9//9 11//11
f 12//12 8//8 10//10
f 9//9 13//13 11//11
f 14//14 12//12 10//10
f 11//11 13//13 15//15
f 16//16 12//12 14//14
f 13//13 17//17 15//15
f 14//14 18//18 16//16
f 19//19 15//15 17//17
f 18//18 20//20 16//16
f 21//21 19//19 17//17
f 21//21 17//17 22//22
f 23//23 21//21 22//22
f 23//23 22//22 24//24
f 25//25 23//23 24//24
f 25//25 24//24 26//26
