mtllib new-4.mtl
v 0.267734 0.555544 -0.054734
v -0.300832 0.555544 0.008440
v -0.300832 0.555544 -0.054734
v 0.267734 0.555544 0.008440
v 0.434693 0.555544 -0.054734
v 0.267734 0.476577 -0.054734
v -0.300832 0.476577 -0.054734
v -0.467791 0.555544 -0.054734
v 0.267734 0.555544 -0.054734
v -0.300832 0.555544 -0.054734
v -0.300832 0.476577 0.008440
v -0.300832 0.555544 0.008440
v 0.267734 0.476577 0.008440
v 0.267734 0.555544 0.008440
v 0.267734 0.476577 0.008440
v -0.300832 0.476577 -0.054734
v -0.300832 0.476577 0.008440
v 0.267734 0.476577 -0.054734
vn 0.000000 0.000000 1.000000
vn 0.000000 0.000000 -1.000000
vn 0.000000 1.000000 0.000000
vn 0.000000 -1.000000 0.000000
usemtl material-0
f 1//4 2//4 3//4
f 3//3 2//3 1//3
f 2//4 1//4 4//4
f 4//3 1//3 2//3
f 6//1 5//1 7//1
f 7//2 5//2 6//2
f 8//1 7//1 5//1
f 5//2 7//2 8//2
f 8//1 5//1 9//1
f 9//2 5//2 8//2
f 8//1 9//1 10//1
f 10//2 9//2 8//2
f 11//2 12//2 13//2
f 13//1 12//1 11//1
f 14//2 13//2 12//2
f 12//1 13//1 14//1
f 15//3 16//3 17//3
f 17//4 16//4 15//4
f 16//3 15//3 18//3
f 18//4 15//4 16//4