# SSTK version 0.8.0
# 20
mtllib original-20.mtl
o srew1/srew/mesh39/mesh39-geometry#mesh39-geometry
v 0.115570 0.609491 0.326351
v 0.109532 0.609239 0.326957
v 0.115570 0.609239 0.326957
v 0.109532 0.609491 0.326351
v 0.109532 0.608840 0.327478
v 0.115570 0.609902 0.331275
v 0.115570 0.609576 0.325699
v 0.109532 0.609239 0.324441
v 0.115570 0.608840 0.327478
v 0.109532 0.608840 0.323920
v 0.109532 0.609576 0.325699
v 0.109532 0.609491 0.325048
v 0.115570 0.608319 0.327878
v 0.109532 0.608319 0.323521
v 0.115570 0.608362 0.331820
v 0.115570 0.610468 0.320451
v 0.115570 0.609491 0.325048
v 0.115570 0.608840 0.323920
v 0.115570 0.609239 0.324441
v 0.109532 0.608319 0.327878
v 0.116325 0.608362 0.331820
v 0.115570 0.611248 0.330349
v 0.115570 0.607712 0.328130
v 0.109532 0.607712 0.323269
v 0.115570 0.608319 0.323521
v 0.116325 0.609902 0.331275
v 0.116325 0.606734 0.331948
v 0.115570 0.611710 0.321512
v 0.115570 0.608994 0.319748
v 0.109532 0.607712 0.328130
v 0.115570 0.607061 0.328215
v 0.116325 0.608994 0.319748
v 0.115570 0.606734 0.331948
v 0.116325 0.607388 0.319450
v 0.116325 0.611248 0.330349
v 0.115570 0.612309 0.329107
v 0.116325 0.611710 0.321512
v 0.109532 0.607061 0.323183
v 0.115570 0.607712 0.323269
v 0.116325 0.610468 0.320451
v 0.116325 0.605127 0.331651
v 0.116325 0.605759 0.319579
v 0.116325 0.612309 0.329107
v 0.115570 0.612636 0.322858
v 0.109532 0.607061 0.328215
v 0.115570 0.606409 0.328130
v 0.115570 0.607388 0.319450
v 0.115570 0.605127 0.331651
v 0.115570 0.605759 0.319579
v 0.116325 0.613012 0.327633
v 0.115570 0.613012 0.327633
v 0.116325 0.612636 0.322858
v 0.115570 0.605803 0.327878
v 0.109532 0.606409 0.323269
v 0.115570 0.607061 0.323183
v 0.115570 0.605282 0.327478
v 0.116325 0.603653 0.330948
v 0.116325 0.604219 0.320124
v 0.115570 0.604219 0.320124
v 0.115570 0.613181 0.324398
v 0.109532 0.606409 0.328130
v 0.115570 0.606409 0.323269
v 0.115570 0.605803 0.323521
v 0.115570 0.604882 0.326957
v 0.115570 0.603653 0.330948
v 0.115570 0.604630 0.325048
v 0.116325 0.613310 0.326026
v 0.116325 0.613181 0.324398
v 0.115570 0.613310 0.326026
v 0.109532 0.605803 0.327878
v 0.109532 0.605803 0.323521
v 0.115570 0.605282 0.323920
v 0.115570 0.604630 0.326351
v 0.109532 0.604882 0.326957
v 0.115570 0.604545 0.325699
v 0.116325 0.602411 0.329887
v 0.116325 0.602873 0.321050
v 0.115570 0.602873 0.321050
v 0.115570 0.604882 0.324441
v 0.109532 0.605282 0.327478
v 0.109532 0.605282 0.323920
v 0.109532 0.604630 0.326351
v 0.115570 0.602411 0.329887
v 0.109532 0.604630 0.325048
v 0.109532 0.604882 0.324441
v 0.109532 0.604545 0.325699
v 0.115570 0.601485 0.328541
v 0.116325 0.601812 0.322292
v 0.115570 0.601812 0.322292
v 0.116325 0.601485 0.328541
v 0.115570 0.600940 0.327001
v 0.115570 0.601109 0.323766
v 0.116325 0.601109 0.323766
v 0.116325 0.600940 0.327001
v 0.115570 0.600812 0.325372
v 0.116325 0.600812 0.325372
vn 0 0.965925849201117 0.2588189595935754
vn 0 0.8660253028382762 0.5000001748438417
vn 0 -0.8660253028382762 -0.5000001748438417
vn 0 -0.965925849201117 -0.2588189595935754
vn 0 0.7071067811865475 0.7071067811865475
vn 0 -0.7071067811865475 -0.7071067811865475
vn -1 0 0
vn 1 0 0
vn 0 1 0
vn 0 -1 0
vn 0 0.5000001748438417 0.8660253028382762
vn 0 -0.5000001748438417 -0.8660253028382762
vn 0 0.965925849201117 -0.2588189595935754
vn 0 -0.965925849201117 0.2588189595935754
vn 0 0.8660253028382762 -0.5000001748438417
vn 0 0.7071067811865475 -0.7071067811865475
vn 0 -0.7071067811865475 0.7071067811865475
vn 0 -0.8660253028382762 0.5000001748438417
vn 0 0.5000001748438417 -0.8660253028382762
vn 0 -0.5000001748438417 0.8660253028382762
vn 0 0.20798595989823093 0.9781318114064235
vn 0 0.4540580517290206 0.8909721015048935
vn 0 -0.20798595989823093 -0.9781318114064235
vn 0 -0.4540580517290206 -0.8909721015048935
vn 0 0.2588189595935754 0.965925849201117
vn 0 -0.2588189595935754 -0.965925849201117
vn 0 -0.052259974561000296 0.9986335138872936
vn 0 0.052259974561000296 -0.9986335138872936
vn 0 0.6691870221484177 0.7430940245945549
vn 0 -0.6691870221484177 -0.7430940245945549
vn 0 0.2588189595935754 -0.965925849201117
vn 0 -0.2588189595935754 0.965925849201117
vn 0 0.7430940245945549 -0.6691870221484177
vn 0 0.5445750681892438 -0.8387121050197623
vn 0 -0.7430940245945549 0.6691870221484177
vn 0 -0.5445750681892438 0.8387121050197623
vn 0 0 1
vn 0 0 -1
vn 0 -0.30894406773043326 0.9510802085072392
vn 0 0.30894406773043326 -0.9510802085072392
vn 0 0.8387121050197623 0.5445750681892438
vn 0 -0.8387121050197623 -0.5445750681892438
vn 0 0.8909721015048935 -0.4540580517290206
vn 0 -0.8909721015048935 0.4540580517290206
vn 0 0.9510802085072392 0.30894406773043326
vn 0 -0.9510802085072392 -0.30894406773043326
vn 0 0.9781318114064235 -0.20798595989823093
vn 0 -0.9781318114064235 0.20798595989823093
vn 0 0.9986335138872936 0.052259974561000296
vn 0 -0.9986335138872936 -0.052259974561000296
usemtl material_0_0
f 1//1 2//2 3//2
f 2//2 1//1 4//1
f 3//3 2//3 1//4
f 4//4 1//4 2//3
f 5//5 3//2 2//2
f 2//3 3//3 5//6
f 3//7 6//7 1//7
f 1//8 6//8 3//8
f 7//9 4//1 1//1
f 1//4 4//4 7//10
f 8//7 2//7 4//7
f 4//8 2//8 8//8
f 3//2 5//5 9//5
f 9//6 5//6 3//3
f 10//7 5//7 2//7
f 2//8 5//8 10//8
f 9//7 6//7 3//7
f 3//8 6//8 9//8
f 1//7 6//7 7//7
f 7//8 6//8 1//8
f 4//1 7//9 11//9
f 11//10 7//10 4//4
f 10//7 2//7 8//7
f 8//8 2//8 10//8
f 8//7 4//7 12//7
f 12//8 4//8 8//8
f 5//5 13//11 9//5
f 9//6 13//12 5//6
f 14//7 5//7 10//7
f 10//8 5//8 14//8
f 9//7 15//7 6//7
f 6//8 15//8 9//8
f 16//7 7//7 6//7
f 6//8 7//8 16//8
f 17//13 11//9 7//9
f 7//10 11//10 17//14
f 12//7 4//7 11//7
f 11//8 4//8 12//8
f 8//15 18//16 10//16
f 10//17 18//17 8//18
f 12//13 19//15 8//15
f 8//18 19//18 12//14
f 13//11 5//5 20//11
f 20//12 5//6 13//12
f 13//7 15//7 9//7
f 9//8 15//8 13//8
f 14//7 20//7 5//7
f 5//8 20//8 14//8
f 18//16 14//19 10//16
f 10//17 14//20 18//17
f 21//21 6//22 15//21
f 15//23 6//24 21//23
f 16//7 17//7 7//7
f 7//8 17//8 16//8
f 16//7 6//7 22//7
f 22//8 6//8 16//8
f 11//9 17//13 12//13
f 12//14 17//14 11//10
f 18//16 8//15 19//15
f 19//18 8//18 18//17
f 19//15 12//13 17//13
f 17//14 12//14 19//18
f 20//11 23//25 13//11
f 13//12 23//26 20//12
f 23//7 15//7 13//7
f 13//8 15//8 23//8
f 24//7 20//7 14//7
f 14//8 20//8 24//8
f 14//19 18//16 25//19
f 25//20 18//17 14//20
f 6//22 21//21 26//22
f 26//24 21//23 6//24
f 15//21 27//27 21//21
f 21//23 27//28 15//23
f 16//7 19//7 17//7
f 17//8 19//8 16//8
f 26//22 22//29 6//22
f 6//24 22//30 26//24
f 16//7 22//7 28//7
f 28//8 22//8 16//8
f 29//7 18//7 19//7
f 19//8 18//8 29//8
f 23//25 20//11 30//25
f 30//26 20//12 23//26
f 31//7 15//7 23//7
f 23//8 15//8 31//8
f 24//7 30//7 20//7
f 20//8 30//8 24//8
f 25//19 24//31 14//19
f 14//20 24//32 25//20
f 29//7 25//7 18//7
f 18//8 25//8 29//8
f 21//8 32//8 26//8
f 26//7 32//7 21//7
f 27//27 15//21 33//27
f 33//28 15//23 27//28
f 27//8 34//8 21//8
f 21//7 34//7 27//7
f 29//7 19//7 16//7
f 16//8 19//8 29//8
f 22//29 26//22 35//29
f 35//30 26//24 22//30
f 28//7 22//7 36//7
f 36//8 22//8 28//8
f 37//33 16//34 28//33
f 28//35 16//36 37//35
f 30//25 31//37 23//25
f 23//26 31//38 30//26
f 31//7 33//7 15//7
f 15//8 33//8 31//8
f 38//7 30//7 24//7
f 24//8 30//8 38//8
f 24//31 25//19 39//31
f 39//32 25//20 24//32
f 29//7 39//7 25//7
f 25//8 39//8 29//8
f 21//8 34//8 32//8
f 32//7 34//7 21//7
f 26//8 32//8 40//8
f 40//7 32//7 26//7
f 33//27 41//39 27//27
f 27//28 41//40 33//28
f 27//8 42//8 34//8
f 34//7 42//7 27//7
f 40//34 29//40 16//34
f 16//36 29//39 40//36
f 26//8 40//8 35//8
f 35//7 40//7 26//7
f 43//41 22//29 35//29
f 35//30 22//30 43//42
f 22//29 43//41 36//41
f 36//42 43//42 22//30
f 28//7 36//7 44//7
f 44//8 36//8 28//8
f 16//34 37//33 40//34
f 40//36 37//35 16//36
f 44//43 37//33 28//33
f 28//35 37//35 44//44
f 31//37 30//25 45//37
f 45//38 30//26 31//38
f 46//7 33//7 31//7
f 31//8 33//8 46//8
f 38//7 45//7 30//7
f 30//8 45//8 38//8
f 39//31 38//38 24//31
f 24//32 38//37 39//32
f 47//7 39//7 29//7
f 29//8 39//8 47//8
f 47//28 32//40 34//28
f 34//27 32//39 47//27
f 29//40 40//34 32//40
f 32//39 40//36 29//39
f 41//39 33//27 48//39
f 48//40 33//28 41//40
f 41//8 42//8 27//8
f 27//7 42//7 41//7
f 49//23 34//28 42//23
f 42//21 34//27 49//21
f 35//8 40//8 37//8
f 37//7 40//7 35//7
f 35//8 37//8 43//8
f 43//7 37//7 35//7
f 50//45 36//41 43//41
f 43//42 36//42 50//46
f 44//7 36//7 51//7
f 51//8 36//8 44//8
f 37//33 44//43 52//43
f 52//44 44//44 37//35
f 45//37 46//32 31//37
f 31//38 46//31 45//38
f 53//7 33//7 46//7
f 46//8 33//8 53//8
f 54//7 45//7 38//7
f 38//8 45//8 54//8
f 38//38 39//31 55//38
f 55//37 39//32 38//37
f 47//7 55//7 39//7
f 39//8 55//8 47//8
f 32//40 47//28 29//40
f 29//39 47//27 32//39
f 34//28 49//23 47//28
f 47//27 49//21 34//27
f 56//7 48//7 33//7
f 33//8 48//8 56//8
f 48//39 57//36 41//39
f 41//40 57//34 48//40
f 41//8 58//8 42//8
f 42//7 58//7 41//7
f 42//23 59//24 49//23
f 49//21 59//22 42//21
f 43//8 37//8 52//8
f 52//7 37//7 43//7
f 36//41 50//45 51//45
f 51//46 50//46 36//42
f 43//8 52//8 50//8
f 50//7 52//7 43//7
f 44//7 51//7 60//7
f 60//8 51//8 44//8
f 60//47 52//43 44//43
f 44//44 52//44 60//48
f 46//32 45//37 61//32
f 61//31 45//38 46//31
f 56//7 33//7 53//7
f 53//8 33//8 56//8
f 61//32 53//20 46//32
f 46//31 53//19 61//31
f 54//7 61//7 45//7
f 45//8 61//8 54//8
f 55//38 54//26 38//38
f 38//37 54//25 55//37
f 47//7 62//7 55//7
f 55//8 62//8 47//8
f 49//7 63//7 47//7
f 47//8 63//8 49//8
f 64//7 48//7 56//7
f 56//8 48//8 64//8
f 57//36 48//39 65//36
f 65//34 48//40 57//34
f 57//8 58//8 41//8
f 41//7 58//7 57//7
f 59//24 42//23 58//24
f 58//22 42//21 59//22
f 59//7 66//7 49//7
f 49//8 66//8 59//8
f 67//49 51//45 50//45
f 50//46 51//46 67//50
f 50//8 52//8 68//8
f 68//7 52//7 50//7
f 60//7 51//7 69//7
f 69//8 51//8 60//8
f 52//43 60//47 68//47
f 68//48 60//48 52//44
f 70//20 56//17 53//20
f 53//19 56//16 70//19
f 53//20 61//32 70//20
f 70//19 61//31 53//19
f 71//7 61//7 54//7
f 54//8 61//8 71//8
f 54//26 55//38 62//26
f 62//25 55//37 54//25
f 47//7 63//7 62//7
f 62//8 63//8 47//8
f 49//7 72//7 63//7
f 63//8 72//8 49//8
f 73//7 48//7 64//7
f 64//8 48//8 73//8
f 56//17 74//18 64//18
f 64//15 74//15 56//16
f 75//7 65//7 48//7
f 48//8 65//8 75//8
f 65//36 76//35 57//36
f 57//34 76//33 65//34
f 57//8 77//8 58//8
f 58//7 77//7 57//7
f 58//24 78//30 59//24
f 59//22 78//29 58//22
f 66//7 59//7 75//7
f 75//8 59//8 66//8
f 49//7 66//7 79//7
f 79//8 66//8 49//8
f 51//45 67//49 69//49
f 69//50 67//50 51//46
f 50//8 68//8 67//8
f 67//7 68//7 50//7
f 69//49 68//47 60//47
f 60//48 68//48 69//50
f 56//17 70//20 80//17
f 80//16 70//19 56//16
f 71//7 70//7 61//7
f 61//8 70//8 71//8
f 62//26 71//12 54//26
f 54//25 71//11 62//25
f 71//12 62//26 63//12
f 63//11 62//25 71//11
f 49//7 79//7 72//7
f 72//8 79//8 49//8
f 81//6 63//12 72//6
f 72//5 63//11 81//5
f 75//7 48//7 73//7
f 73//8 48//8 75//8
f 64//18 82//14 73//14
f 73//13 82//13 64//15
f 74//18 56//17 80//17
f 80//16 56//16 74//15
f 82//14 64//18 74//18
f 74//15 64//15 82//13
f 59//7 65//7 75//7
f 75//8 65//8 59//8
f 76//35 65//36 83//35
f 83//33 65//34 76//33
f 76//8 77//8 57//8
f 57//7 77//7 76//7
f 78//30 58//24 77//30
f 77//29 58//22 78//29
f 78//7 65//7 59//7
f 59//8 65//8 78//8
f 75//10 84//4 66//4
f 66//1 84//1 75//9
f 66//4 85//3 79//3
f 79//2 85//2 66//1
f 68//47 69//49 67//49
f 67//50 69//50 68//48
f 81//7 80//7 70//7
f 70//8 80//8 81//8
f 81//7 70//7 71//7
f 71//8 70//8 81//8
f 63//12 81//6 71//12
f 71//11 81//5 63//11
f 79//3 81//6 72//6
f 72//5 81//5 79//2
f 73//14 86//10 75//10
f 75//9 86//9 73//13
f 86//10 73//14 82//14
f 82//13 73//13 86//9
f 85//7 74//7 80//7
f 80//8 74//8 85//8
f 84//7 82//7 74//7
f 74//8 82//8 84//8
f 78//7 83//7 65//7
f 65//8 83//8 78//8
f 87//44 76//35 83//35
f 83//33 76//33 87//43
f 76//8 88//8 77//8
f 77//7 88//7 76//7
f 88//42 78//30 77//30
f 77//29 78//29 88//41
f 84//4 75//10 86//10
f 86//9 75//9 84//1
f 85//3 66//4 84//4
f 84//1 66//1 85//2
f 81//6 79//3 85//3
f 85//2 79//2 81//5
f 85//7 80//7 81//7
f 81//8 80//8 85//8
f 82//7 84//7 86//7
f 86//8 84//8 82//8
f 84//7 74//7 85//7
f 85//8 74//8 84//8
f 89//7 83//7 78//7
f 78//8 83//8 89//8
f 76//35 87//44 90//44
f 90//43 87//43 76//33
f 89//7 87//7 83//7
f 83//8 87//8 89//8
f 90//8 88//8 76//8
f 76//7 88//7 90//7
f 78//30 88//42 89//42
f 89//41 88//41 78//29
f 91//48 90//44 87//44
f 87//43 90//43 91//47
f 92//7 87//7 89//7
f 89//8 87//8 92//8
f 90//8 93//8 88//8
f 88//7 93//7 90//7
f 93//46 89//42 88//42
f 88//41 89//41 93//45
f 90//44 91//48 94//48
f 94//47 91//47 90//43
f 92//7 91//7 87//7
f 87//8 91//8 92//8
f 89//42 93//46 92//46
f 92//45 93//45 89//41
f 94//8 93//8 90//8
f 90//7 93//7 94//7
f 95//50 94//48 91//48
f 91//47 94//47 95//49
f 91//7 92//7 95//7
f 95//8 92//8 91//8
f 96//50 92//46 93//46
f 93//45 92//45 96//49
f 93//8 94//8 96//8
f 96//7 94//7 93//7
f 94//48 95//50 96//50
f 96//49 95//49 94//47
f 92//46 96//50 95//50
f 95//49 96//49 92//45
