# SSTK version 0.8.0
# 12
mtllib original-12.mtl
o mesh11/mesh11-geometry#mesh11-geometry
v 0.108426 0.355504 0.344308
v 0.108333 0.355691 0.344404
v 0.108426 0.355504 0.344404
v 0.108333 0.355691 0.344308
v 0.108493 0.353256 0.344404
v 0.108476 0.355251 0.344308
v 0.108493 0.353256 0.344308
v 0.108186 0.355841 0.344404
v 0.108476 0.355251 0.344404
v 0.108186 0.355841 0.344308
v 0.107993 0.355940 0.344404
v 0.108493 0.354907 0.344404
v 0.108493 0.354907 0.344308
v 0.107993 0.355940 0.344308
v 0.107915 0.354612 0.344404
v 0.107915 0.353256 0.344308
v 0.107915 0.353256 0.344404
v 0.107883 0.355155 0.344404
v 0.107760 0.355973 0.344308
v 0.107915 0.354612 0.344308
v 0.107836 0.355274 0.344404
v 0.107760 0.355973 0.344404
v 0.107761 0.355363 0.344308
v 0.107883 0.355155 0.344308
v 0.107761 0.355363 0.344404
v 0.107552 0.355944 0.344404
v 0.107667 0.355417 0.344308
v 0.107836 0.355274 0.344308
v 0.107552 0.355944 0.344308
v 0.107560 0.355435 0.344404
v 0.107667 0.355417 0.344404
v 0.107560 0.355435 0.344308
v 0.107364 0.355860 0.344404
v 0.107422 0.355412 0.344404
v 0.107422 0.355412 0.344308
v 0.107364 0.355860 0.344308
v 0.107194 0.355720 0.344404
v 0.107298 0.355341 0.344404
v 0.107298 0.355341 0.344308
v 0.107194 0.355720 0.344308
v 0.107198 0.355230 0.344404
v 0.107198 0.355230 0.344308
v 0.107043 0.355523 0.344308
v 0.107133 0.355082 0.344404
v 0.107133 0.355082 0.344308
v 0.107043 0.355523 0.344404
v 0.107097 0.354844 0.344308
v 0.107097 0.354844 0.344404
v 0.107043 0.355910 0.344404
v 0.107085 0.354459 0.344308
v 0.107043 0.355910 0.344308
v 0.106508 0.355910 0.344404
v 0.107085 0.354459 0.344404
v 0.107085 0.353256 0.344308
v 0.106508 0.353256 0.344308
v 0.106508 0.355910 0.344308
v 0.107085 0.353256 0.344404
v 0.106508 0.353256 0.344404
vn 0.9468592832127555 0.32164809620737234 0
vn 0.8153326759301934 0.578992769868079 9.99999602478259e-7
vn 0 0 1
vn 0.9926638413996292 0.12090698068239099 0
vn 0 0 -1
vn 0.5921740585136098 0.8058100796233065 0.0000010000000988589512
vn 0.9997113578237512 0.024025008599200794 0
vn 0.3008911542294733 0.953658488822102 0.0000020000010252967314
vn 1 0 0
vn 0.0028100001459514115 0.9999960519397962 0.0000020000001041014274
vn 0 -1 -0.0000020000000002180444
vn -0.9995535532996168 -0.029877986647530743 0
vn -1 0 0
vn -0.9768411033317227 -0.21396602263364806 0
vn -0.8592510962713574 -0.5115540573150313 -0.0000010000001119638145
vn -0.2742081074665657 0.9616703768940813 0.0000020000007841068805
vn -0.6404122732300334 -0.7680313276783318 -0.00000100000042667561
vn -0.3383938461551947 -0.941004572188836 -0.0000019999990908694266
vn -0.5282339285410472 0.8490988851347597 9.999998650268567e-7
vn -0.0001829999969353906 -0.9999999832535004 -0.0000019999999667290044
vn 0.3350811024869164 -0.9421892881752332 -0.0000020000006119978913
vn -0.7197104062129446 0.6942743918565615 0.0000010000005647259454
vn 0.627115940131439 -0.7789259256386717 -9.999999048457175e-7
vn -0.7924012595899027 0.6100001998354881 0.0000010000003279105566
vn 0.8403778878574609 -0.542000927673775 -9.999998668639765e-7
vn 0.9605324037843743 -0.27816811693508586 -0.0000010000004206508118
vn 0.9959894243105089 -0.0894710381163703 0
vn 0.9998810584480491 -0.015423000901551546 0
vn 0 1 0.0000020000000002180444
vn -0.9468592832127555 -0.32164809620737234 0
vn -0.8153326759301934 -0.578992769868079 -9.99999602478259e-7
vn -0.9926638413996292 -0.12090698068239099 0
vn -0.5921740585136098 -0.8058100796233065 -0.0000010000000988589512
vn -0.9997113578237512 -0.024025008599200794 0
vn -0.3008911542294733 -0.953658488822102 -0.0000020000010252967314
vn -0.0028100001459514115 -0.9999960519397962 -0.0000020000001041014274
vn 0.9995535532996168 0.029877986647530743 0
vn 0.9768411033317227 0.21396602263364806 0
vn 0.8592510962713574 0.5115540573150313 0.0000010000001119638145
vn 0.2742081074665657 -0.9616703768940813 -0.0000020000007841068805
vn 0.6404122732300334 0.7680313276783318 0.00000100000042667561
vn 0.3383938461551947 0.941004572188836 0.0000019999990908694266
vn 0.5282339285410472 -0.8490988851347597 -9.999998650268567e-7
vn 0.0001829999969353906 0.9999999832535004 0.0000019999999667290044
vn -0.3350811024869164 0.9421892881752332 0.0000020000006119978913
vn 0.7197104062129446 -0.6942743918565615 -0.0000010000005647259454
vn -0.627115940131439 0.7789259256386717 9.999999048457175e-7
vn 0.7924012595899027 -0.6100001998354881 -0.0000010000003279105566
vn -0.8403778878574609 0.542000927673775 9.999998668639765e-7
vn -0.9605324037843743 0.27816811693508586 0.0000010000004206508118
vn -0.9959894243105089 0.0894710381163703 0
vn -0.9998810584480491 0.015423000901551546 0
usemtl material_0_0
f 1//1 2//2 3//1
f 2//2 1//1 4//2
f 2//3 5//3 3//3
f 3//1 6//4 1//1
f 7//5 4//5 1//5
f 4//2 8//6 2//2
f 8//3 5//3 2//3
f 3//3 5//3 9//3
f 6//4 3//1 9//4
f 7//5 1//5 6//5
f 7//5 10//5 4//5
f 8//6 4//2 10//6
f 11//3 5//3 8//3
f 9//3 5//3 12//3
f 9//4 13//7 6//4
f 7//5 6//5 13//5
f 7//5 14//5 10//5
f 14//8 8//6 10//6
f 15//3 5//3 11//3
f 8//6 14//8 11//8
f 7//9 12//7 5//9
f 13//7 9//4 12//7
f 12//7 7//9 13//7
f 16//5 14//5 7//5
f 5//3 15//3 17//3
f 11//3 18//3 15//3
f 19//10 11//8 14//8
f 5//11 16//11 7//11
f 20//5 14//5 16//5
f 15//12 16//13 17//13
f 16//11 5//11 17//11
f 11//3 21//3 18//3
f 18//14 20//12 15//12
f 11//8 19//10 22//10
f 23//5 19//5 14//5
f 24//5 14//5 20//5
f 16//13 15//12 20//12
f 11//3 25//3 21//3
f 21//15 24//14 18//14
f 20//12 18//14 24//14
f 19//10 26//16 22//10
f 22//3 25//3 11//3
f 27//5 19//5 23//5
f 23//5 14//5 28//5
f 28//5 14//5 24//5
f 25//17 28//15 21//15
f 24//14 21//15 28//15
f 26//16 19//10 29//16
f 26//3 30//3 22//3
f 22//3 31//3 25//3
f 32//5 19//5 27//5
f 25//17 27//18 23//17
f 28//15 25//17 23//17
f 32//5 29//5 19//5
f 29//16 33//19 26//16
f 26//3 34//3 30//3
f 22//3 30//3 31//3
f 27//18 25//17 31//18
f 31//18 32//20 27//18
f 35//5 29//5 32//5
f 33//19 29//16 36//19
f 33//3 34//3 26//3
f 34//21 32//20 30//20
f 32//20 31//18 30//20
f 35//5 36//5 29//5
f 32//20 34//21 35//21
f 36//19 37//22 33//19
f 33//3 38//3 34//3
f 39//5 36//5 35//5
f 38//23 35//21 34//21
f 37//22 36//19 40//22
f 37//3 41//3 33//3
f 33//3 41//3 38//3
f 42//5 36//5 39//5
f 35//21 38//23 39//23
f 42//5 40//5 36//5
f 43//24 37//22 40//22
f 37//3 44//3 41//3
f 42//25 38//23 41//25
f 38//23 42//25 39//23
f 45//5 40//5 42//5
f 37//22 43//24 46//24
f 47//5 43//5 40//5
f 37//3 48//3 44//3
f 45//26 41//25 44//26
f 41//25 45//26 42//25
f 47//5 40//5 45//5
f 43//9 49//9 46//9
f 46//3 48//3 37//3
f 43//5 47//5 50//5
f 47//27 44//26 48//27
f 44//26 47//27 45//26
f 49//9 43//9 51//9
f 49//3 52//3 46//3
f 46//3 53//3 48//3
f 48//27 50//28 47//27
f 54//5 43//5 50//5
f 55//5 51//5 43//5
f 56//29 49//29 51//29
f 49//29 56//29 52//29
f 52//3 57//3 46//3
f 46//3 57//3 53//3
f 50//28 48//27 53//28
f 55//5 43//5 54//5
f 53//28 54//9 50//28
f 51//5 55//5 56//5
f 55//13 52//13 56//13
f 57//3 52//3 58//3
f 54//9 53//28 57//9
f 57//11 55//11 54//11
f 52//13 55//13 58//13
f 55//11 57//11 58//11
usemtl material_1_0
f 3//30 2//31 1//30
f 4//31 1//30 2//31
f 3//5 5//5 2//5
f 1//30 6//32 3//30
f 1//3 4//3 7//3
f 2//31 8//33 4//31
f 2//5 5//5 8//5
f 9//5 5//5 3//5
f 9//32 3//30 6//32
f 6//3 1//3 7//3
f 4//3 10//3 7//3
f 10//33 4//31 8//33
f 8//5 5//5 11//5
f 12//5 5//5 9//5
f 6//32 13//34 9//32
f 13//3 6//3 7//3
f 10//3 14//3 7//3
f 10//33 8//33 14//35
f 11//5 5//5 15//5
f 11//35 14//35 8//33
f 5//13 12//34 7//13
f 12//34 9//32 13//34
f 13//34 7//13 12//34
f 7//3 14//3 16//3
f 17//5 15//5 5//5
f 15//5 18//5 11//5
f 14//35 11//35 19//36
f 7//29 16//29 5//29
f 16//3 14//3 20//3
f 17//9 16//9 15//37
f 17//29 5//29 16//29
f 18//5 21//5 11//5
f 15//37 20//37 18//38
f 22//36 19//36 11//35
f 14//3 19//3 23//3
f 20//3 14//3 24//3
f 20//37 15//37 16//9
f 21//5 25//5 11//5
f 18//38 24//38 21//39
f 24//38 18//38 20//37
f 22//36 26//40 19//36
f 11//5 25//5 22//5
f 23//3 19//3 27//3
f 28//3 14//3 23//3
f 24//3 14//3 28//3
f 21//39 28//39 25//41
f 28//39 21//39 24//38
f 29//40 19//36 26//40
f 22//5 30//5 26//5
f 25//5 31//5 22//5
f 27//3 19//3 32//3
f 23//41 27//42 25//41
f 23//41 25//41 28//39
f 19//3 29//3 32//3
f 26//40 33//43 29//40
f 30//5 34//5 26//5
f 31//5 30//5 22//5
f 31//42 25//41 27//42
f 27//42 32//44 31//42
f 32//3 29//3 35//3
f 36//43 29//40 33//43
f 26//5 34//5 33//5
f 30//44 32//44 34//45
f 30//44 31//42 32//44
f 29//3 36//3 35//3
f 35//45 34//45 32//44
f 33//43 37//46 36//43
f 34//5 38//5 33//5
f 35//3 36//3 39//3
f 34//45 35//45 38//47
f 40//46 36//43 37//46
f 33//5 41//5 37//5
f 38//5 41//5 33//5
f 39//3 36//3 42//3
f 39//47 38//47 35//45
f 36//3 40//3 42//3
f 40//46 37//46 43//48
f 41//5 44//5 37//5
f 41//49 38//47 42//49
f 39//47 42//49 38//47
f 42//3 40//3 45//3
f 46//48 43//48 37//46
f 40//3 43//3 47//3
f 44//5 48//5 37//5
f 44//50 41//49 45//50
f 42//49 45//50 41//49
f 45//3 40//3 47//3
f 46//13 49//13 43//13
f 37//5 48//5 46//5
f 50//3 47//3 43//3
f 48//51 44//50 47//51
f 45//50 47//51 44//50
f 51//13 43//13 49//13
f 46//5 52//5 49//5
f 48//5 53//5 46//5
f 47//51 50//52 48//51
f 50//3 43//3 54//3
f 43//3 51//3 55//3
f 51//11 49//11 56//11
f 52//11 56//11 49//11
f 46//5 57//5 52//5
f 53//5 57//5 46//5
f 53//52 48//51 50//52
f 54//3 43//3 55//3
f 50//52 54//13 53//52
f 56//3 55//3 51//3
f 56//9 52//9 55//9
f 58//5 52//5 57//5
f 57//13 53//52 54//13
f 54//29 55//29 57//29
f 58//9 55//9 52//9
f 58//29 57//29 55//29
