# SSTK version 0.8.0
# 53
mtllib original-53.mtl
o mesh49/mesh49-geometry#mesh49-geometry
v 0.062249 0.598627 0.356563
v 0.059275 0.592859 0.356563
v 0.059275 0.598627 0.356563
v 0.059481 0.586999 0.356563
v 0.059275 0.592859 0.359407
v 0.059275 0.598627 0.359407
v 0.059481 0.584953 0.356563
v 0.059225 0.590569 0.356563
v 0.059225 0.590569 0.359407
v 0.062249 0.598627 0.359407
v 0.062249 0.584953 0.356563
v 0.059481 0.584953 0.359407
v 0.059076 0.589260 0.356563
v 0.059481 0.586999 0.359407
v 0.062249 0.584953 0.359407
v 0.058769 0.588517 0.356563
v 0.059076 0.589260 0.359407
v 0.058767 0.586007 0.359407
v 0.058767 0.586007 0.356563
v 0.058769 0.588517 0.359407
v 0.058248 0.587921 0.356563
v 0.058248 0.587921 0.359407
v 0.057861 0.585259 0.359407
v 0.057861 0.585259 0.356563
v 0.057590 0.587530 0.356563
v 0.056836 0.584788 0.356563
v 0.057590 0.587530 0.359407
v 0.056874 0.587400 0.356563
v 0.056836 0.584788 0.359407
v 0.056874 0.587400 0.359407
v 0.055766 0.584631 0.359407
v 0.056268 0.587499 0.356563
v 0.056268 0.587499 0.359407
v 0.055766 0.584631 0.356563
v 0.054718 0.584776 0.356563
v 0.055757 0.587799 0.359407
v 0.055757 0.587799 0.356563
v 0.054718 0.584776 0.359407
v 0.055160 0.588925 0.356563
v 0.055377 0.588280 0.359407
v 0.055377 0.588280 0.356563
v 0.055160 0.588925 0.359407
v 0.053786 0.585211 0.359407
v 0.055026 0.592344 0.356563
v 0.055026 0.592344 0.359407
v 0.053787 0.585211 0.356563
v 0.055026 0.598627 0.359407
v 0.055026 0.598627 0.356563
v 0.053023 0.585914 0.356563
v 0.053023 0.585914 0.359407
v 0.052482 0.586861 0.359407
v 0.052051 0.598627 0.359407
v 0.052482 0.586861 0.356563
v 0.052159 0.588172 0.359407
v 0.052051 0.598627 0.356563
v 0.052159 0.588172 0.356563
v 0.052051 0.589967 0.356563
v 0.052051 0.589967 0.359407
vn 0.000011765008650972274 -0.000002941435992435149 -1
vn -0.9999409182028637 0.010870146926090953 -0.0000030690112680132827
vn -1 0.000011764939446404254 -0.0000029414359929902586
vn 0.000002941366789217935 1 -0.000011765008650528175
vn -0.9977126361714737 0.06759804442331685 -0.0000037298619230780953
vn -0.000011765008650972274 0.000002941435992435149 1
vn 1 -0.000011764939446404254 0.0000029414359929902586
vn -0.000002941366789217935 -1 0.000011765008650528175
vn -0.9683474267634221 0.24960621195634264 -0.000005784819344036452
vn 0.7302796361743372 -0.6831483388586544 0.000010185221752570907
vn 0.8116388733104871 -0.58415951524009 0.00000925991825708826
vn -0.8498373270417864 0.5270450810801446 -0.0000087003189704172
vn -0.6395624831184509 0.7687391170403631 -0.000010925372596230429
vn 0.5315459961129331 -0.8470294291719725 0.000011528750841436276
vn -0.350633484115389 0.9365127653544905 -0.000012049406306481411
vn 0.28397128829864426 -0.9588327837924675 0.000012115928354471015
vn -0.008555759221166382 0.99996339875275 -0.000011789751722400473
vn 0.003999917192200189 -0.9999920002298844 0.000011776688132146065
vn 0.3399022202683532 0.9404607809767211 -0.000010064783783423735
vn -0.2831751666334804 -0.959068206590588 0.000010450551613223116
vn 0.6565956562760314 0.7542427620542674 -0.000006942435932249475
vn -0.5566011196521176 -0.8307798706852485 0.000008137010028035604
vn 0.8793503838690402 0.47617528535222897 -0.000003015779316629583
vn 0.9998060753855156 0.019692933120132414 0.0000027090394895895957
vn 0.9835533315370464 0.1806179504417745 7.67949720217204e-7
vn -0.7818904184349209 -0.623415891307172 0.0000050347263536995455
vn -0.9285160153968733 -0.37129234997348487 0.000001637219014169468
vn -0.9886662955978973 -0.15012979700055434 -0.0000011416821217955326
vn -0.9995515685416223 -0.029944311968827596 -0.000002587683259693196
vn 0.9999409182028637 -0.010870146926090953 0.0000030690112680132827
vn 0.9977126361714737 -0.06759804442331685 0.0000037298619230780953
vn 0.9683474267634221 -0.24960621195634264 0.000005784819344036452
vn -0.8116388733104871 0.58415951524009 -0.00000925991825708826
vn -0.7302796361743372 0.6831483388586544 -0.000010185221752570907
vn 0.8498373270417864 -0.5270450810801446 0.0000087003189704172
vn 0.6395624831184509 -0.7687391170403631 0.000010925372596230429
vn -0.5315459961129331 0.8470294291719725 -0.000011528750841436276
vn 0.350633484115389 -0.9365127653544905 0.000012049406306481411
vn -0.28397128829864426 0.9588327837924675 -0.000012115928354471015
vn 0.008555759221166382 -0.99996339875275 0.000011789751722400473
vn -0.003999917192200189 0.9999920002298844 -0.000011776688132146065
vn -0.3399022202683532 -0.9404607809767211 0.000010064783783423735
vn 0.2831751666334804 0.959068206590588 -0.000010450551613223116
vn -0.6565956562760314 -0.7542427620542674 0.000006942435932249475
vn 0.5566011196521176 0.8307798706852485 -0.000008137010028035604
vn -0.8793503838690402 -0.47617528535222897 0.000003015779316629583
vn -0.9835533315370464 -0.1806179504417745 -7.67949720217204e-7
vn -0.9998060753855156 -0.019692933120132414 -0.0000027090394895895957
vn 0.7818904184349209 0.623415891307172 -0.0000050347263536995455
vn 0.9285160153968733 0.37129234997348487 -0.000001637219014169468
vn 0.9886662955978973 0.15012979700055434 0.0000011416821217955326
vn 0.9995515685416223 0.029944311968827596 0.000002587683259693196
usemtl material_0_0
f 1//1 2//1 3//1
f 2//1 1//1 4//1
f 5//2 3//3 2//2
f 6//4 1//4 3//4
f 4//1 1//1 7//1
f 4//1 8//1 2//1
f 3//3 5//2 6//3
f 2//2 9//5 5//2
f 1//4 6//4 10//4
f 7//1 1//1 11//1
f 12//3 4//3 7//3
f 4//1 13//1 8//1
f 9//5 2//2 8//5
f 5//6 14//6 6//6
f 9//6 14//6 5//6
f 6//6 14//6 10//6
f 15//7 1//7 10//7
f 1//7 15//7 11//7
f 11//8 12//8 7//8
f 4//3 12//3 14//3
f 4//1 16//1 13//1
f 17//9 8//5 13//9
f 8//5 17//9 9//5
f 17//6 14//6 9//6
f 10//6 14//6 12//6
f 10//6 12//6 15//6
f 12//8 11//8 15//8
f 18//10 4//11 14//11
f 19//1 16//1 4//1
f 20//12 13//9 16//12
f 13//9 20//12 17//9
f 20//6 14//6 17//6
f 4//11 18//10 19//10
f 20//6 18//6 14//6
f 19//1 21//1 16//1
f 16//12 22//13 20//12
f 23//14 19//10 18//10
f 22//6 18//6 20//6
f 24//1 21//1 19//1
f 22//13 16//12 21//13
f 19//10 23//14 24//14
f 22//6 23//6 18//6
f 24//1 25//1 21//1
f 25//15 22//13 21//13
f 23//14 26//16 24//14
f 27//6 23//6 22//6
f 24//1 28//1 25//1
f 22//13 25//15 27//15
f 26//16 23//14 29//16
f 26//1 28//1 24//1
f 30//6 23//6 27//6
f 30//17 25//15 28//17
f 25//15 30//17 27//15
f 30//6 29//6 23//6
f 31//18 26//16 29//16
f 26//1 32//1 28//1
f 32//19 30//17 28//17
f 33//6 29//6 30//6
f 26//16 31//18 34//18
f 33//6 31//6 29//6
f 34//1 32//1 26//1
f 30//17 32//19 33//19
f 31//18 35//20 34//18
f 36//6 31//6 33//6
f 34//1 37//1 32//1
f 32//19 36//21 33//19
f 35//20 31//18 38//20
f 35//1 39//1 34//1
f 40//6 31//6 36//6
f 34//1 41//1 37//1
f 36//21 32//19 37//21
f 42//6 38//6 31//6
f 43//22 35//20 38//20
f 35//1 44//1 39//1
f 34//1 39//1 41//1
f 42//6 31//6 40//6
f 36//21 41//23 40//23
f 41//23 36//21 37//21
f 38//6 42//6 45//6
f 35//20 43//22 46//22
f 47//6 43//6 38//6
f 35//1 48//1 44//1
f 44//24 42//25 39//25
f 39//25 40//23 41//23
f 40//23 39//25 42//25
f 42//25 44//24 45//24
f 47//6 38//6 45//6
f 43//22 49//26 46//22
f 46//1 48//1 35//1
f 47//6 50//6 43//6
f 48//7 45//24 44//24
f 45//24 48//7 47//7
f 49//26 43//22 50//26
f 49//1 48//1 46//1
f 47//6 51//6 50//6
f 48//4 52//4 47//4
f 50//26 53//27 49//26
f 53//1 48//1 49//1
f 47//6 54//6 51//6
f 53//27 50//26 51//27
f 52//4 48//4 55//4
f 52//6 54//6 47//6
f 56//1 48//1 53//1
f 56//28 51//27 54//28
f 51//27 56//28 53//27
f 48//1 57//1 55//1
f 55//3 58//29 52//3
f 54//6 52//6 58//6
f 57//1 48//1 56//1
f 54//28 57//29 56//28
f 58//29 55//3 57//29
f 57//29 54//28 58//29
usemtl material_1_0
f 3//6 2//6 1//6
f 4//6 1//6 2//6
f 2//30 3//7 5//30
f 3//8 1//8 6//8
f 7//6 1//6 4//6
f 2//6 8//6 4//6
f 6//7 5//30 3//7
f 5//30 9//31 2//30
f 10//8 6//8 1//8
f 11//6 1//6 7//6
f 7//7 4//7 12//7
f 8//6 13//6 4//6
f 8//31 2//30 9//31
f 6//1 14//1 5//1
f 5//1 14//1 9//1
f 10//1 14//1 6//1
f 10//3 1//3 15//3
f 11//3 15//3 1//3
f 7//4 12//4 11//4
f 14//7 12//7 4//7
f 13//6 16//6 4//6
f 13//32 8//31 17//32
f 9//31 17//32 8//31
f 9//1 14//1 17//1
f 12//1 14//1 10//1
f 15//1 12//1 10//1
f 15//4 11//4 12//4
f 14//33 4//33 18//34
f 4//6 16//6 19//6
f 16//35 13//32 20//35
f 17//32 20//35 13//32
f 17//1 14//1 20//1
f 19//34 18//34 4//33
f 14//1 18//1 20//1
f 16//6 21//6 19//6
f 20//35 22//36 16//35
f 18//34 19//34 23//37
f 20//1 18//1 22//1
f 19//6 21//6 24//6
f 21//36 16//35 22//36
f 24//37 23//37 19//34
f 18//1 23//1 22//1
f 21//6 25//6 24//6
f 21//36 22//36 25//38
f 24//37 26//39 23//37
f 22//1 23//1 27//1
f 25//6 28//6 24//6
f 27//38 25//38 22//36
f 29//39 23//37 26//39
f 24//6 28//6 26//6
f 27//1 23//1 30//1
f 28//40 25//38 30//40
f 27//38 30//40 25//38
f 23//1 29//1 30//1
f 29//39 26//39 31//41
f 28//6 32//6 26//6
f 28//40 30//40 32//42
f 30//1 29//1 33//1
f 34//41 31//41 26//39
f 29//1 31//1 33//1
f 26//6 32//6 34//6
f 33//42 32//42 30//40
f 34//41 35//43 31//41
f 33//1 31//1 36//1
f 32//6 37//6 34//6
f 33//42 36//44 32//42
f 38//43 31//41 35//43
f 34//6 39//6 35//6
f 36//1 31//1 40//1
f 37//6 41//6 34//6
f 37//44 32//42 36//44
f 31//1 38//1 42//1
f 38//43 35//43 43//45
f 39//6 44//6 35//6
f 41//6 39//6 34//6
f 40//1 31//1 42//1
f 40//46 41//46 36//44
f 37//44 36//44 41//46
f 45//1 42//1 38//1
f 46//45 43//45 35//43
f 38//1 43//1 47//1
f 44//6 48//6 35//6
f 39//47 42//47 44//48
f 41//46 40//46 39//47
f 42//47 39//47 40//46
f 45//48 44//48 42//47
f 45//1 38//1 47//1
f 46//45 49//49 43//45
f 35//6 48//6 46//6
f 43//1 50//1 47//1
f 44//48 45//48 48//3
f 47//3 48//3 45//48
f 50//49 43//45 49//49
f 46//6 48//6 49//6
f 50//1 51//1 47//1
f 47//8 52//8 48//8
f 49//49 53//50 50//49
f 49//6 48//6 53//6
f 51//1 54//1 47//1
f 51//50 50//49 53//50
f 55//8 48//8 52//8
f 47//1 54//1 52//1
f 53//6 48//6 56//6
f 54//51 51//50 56//51
f 53//50 56//51 51//50
f 55//6 57//6 48//6
f 52//7 58//52 55//7
f 58//1 52//1 54//1
f 56//6 48//6 57//6
f 56//51 57//52 54//51
f 57//52 55//7 58//52
f 58//52 54//51 57//52
