# SSTK version 0.8.0
# 59
mtllib original-59.mtl
o mesh55/mesh55-geometry#mesh55-geometry
v -0.314666 -0.882805 0.334108
v -0.314586 -0.897260 0.333814
v -0.314666 -0.897260 0.334108
v -0.314586 -0.882805 0.333814
v -0.312732 -0.897260 0.333984
v -0.314715 -0.882805 0.334517
v -0.213228 -0.882805 0.345517
v -0.314586 -0.897260 0.322555
v -0.312651 -0.897260 0.333814
v -0.312800 -0.897260 0.334162
v -0.314715 -0.897260 0.334517
v -0.215079 -0.882805 0.322555
v -0.314586 -0.882805 0.322555
v -0.314731 -0.882805 0.334929
v -0.213228 -0.882804 0.322555
v -0.312651 -0.882805 0.322555
v -0.312651 -0.897260 0.322555
v -0.312853 -0.897260 0.334347
v -0.314731 -0.897260 0.334929
v -0.314715 -0.882805 0.335342
v -0.213228 -0.897260 0.322555
v -0.215079 -0.883708 0.322555
v -0.312651 -0.883708 0.322555
v -0.312891 -0.897260 0.334538
v -0.314666 -0.882805 0.335751
v -0.213228 -0.897260 0.345517
v -0.312914 -0.897260 0.334733
v -0.314715 -0.897260 0.335342
v -0.314586 -0.882805 0.336152
v -0.215079 -0.897260 0.322555
v -0.224349 -0.897260 0.358899
v -0.312922 -0.897260 0.334929
v -0.312914 -0.897260 0.335126
v -0.314666 -0.897260 0.335751
v -0.314475 -0.882805 0.336541
v -0.215079 -0.897260 0.345517
v -0.224349 -0.882805 0.358899
v -0.312891 -0.897260 0.335320
v -0.312853 -0.897260 0.335511
v -0.314586 -0.897260 0.336152
v -0.314333 -0.882805 0.336916
v -0.304496 -0.882805 0.355414
v -0.231480 -0.897260 0.358880
v -0.224346 -0.897260 0.356669
v -0.312800 -0.897260 0.335697
v -0.312732 -0.897260 0.335875
v -0.314475 -0.897260 0.336541
v -0.314185 -0.882805 0.337225
v -0.304369 -0.882805 0.355821
v -0.231480 -0.882805 0.358880
v -0.238611 -0.897260 0.358847
v -0.303702 -0.897260 0.356737
v -0.312651 -0.897260 0.336045
v -0.302879 -0.897260 0.354389
v -0.314333 -0.897260 0.336916
v -0.314185 -0.897260 0.337225
v -0.304496 -0.897260 0.355414
v -0.304017 -0.882805 0.356375
v -0.238611 -0.882805 0.358847
v -0.245742 -0.897260 0.358802
v -0.303374 -0.897260 0.357028
v -0.231475 -0.897260 0.356649
v -0.304369 -0.897260 0.355821
v -0.303702 -0.882805 0.356737
v -0.245742 -0.882805 0.358802
v -0.252872 -0.897260 0.358744
v -0.303039 -0.897260 0.357264
v -0.303374 -0.882805 0.357028
v -0.238603 -0.897260 0.356617
v -0.301770 -0.897260 0.355503
v -0.304017 -0.897260 0.356375
v -0.252872 -0.882805 0.358744
v -0.260002 -0.897260 0.358673
v -0.302696 -0.897260 0.357458
v -0.303039 -0.882805 0.357264
v -0.245731 -0.897260 0.356572
v -0.302780 -0.897260 0.354708
v -0.302003 -0.897260 0.355397
v -0.301517 -0.897260 0.355597
v -0.295613 -0.897260 0.355893
v -0.260002 -0.882805 0.358673
v -0.267132 -0.897260 0.358589
v -0.302344 -0.897260 0.357620
v -0.302696 -0.882805 0.357458
v -0.252859 -0.897260 0.356514
v -0.302683 -0.897260 0.354861
v -0.302213 -0.897260 0.355278
v -0.301246 -0.897260 0.355676
v -0.300664 -0.897260 0.355787
v -0.288489 -0.897260 0.356028
v -0.259986 -0.897260 0.356442
v -0.267132 -0.882805 0.358589
v -0.274261 -0.897260 0.358491
v -0.301983 -0.897260 0.357752
v -0.302344 -0.882805 0.357620
v -0.302555 -0.897260 0.355008
v -0.302397 -0.897260 0.355148
v -0.300961 -0.897260 0.355739
v -0.281365 -0.897260 0.356151
v -0.267113 -0.897260 0.356358
v -0.274261 -0.882805 0.358491
v -0.281389 -0.897260 0.358381
v -0.301614 -0.897260 0.357860
v -0.301983 -0.882805 0.357752
v -0.274239 -0.897260 0.356261
v -0.281389 -0.882805 0.358381
v -0.288516 -0.897260 0.358258
v -0.301238 -0.897260 0.357944
v -0.301614 -0.882805 0.357860
v -0.288516 -0.882805 0.358258
v -0.295643 -0.897260 0.358123
v -0.300796 -0.897260 0.358015
v -0.301238 -0.882805 0.357944
v -0.295643 -0.882805 0.358123
v -0.300796 -0.882805 0.358015
vt 0.002122 0.006
vt 0.001844 -0.01
vt 0.002122 -0.01
vt 0.001844 0.006
vt -0.002 0.000161
vt -0.002152 0.002212
vt -0.002264 0.000072
vt 0.002229 -0.01
vt 0.0026 0.006
vt 0.002229 0.006
vt 0.012494 0.112347
vt 0.002 0.000161
vt 0.002264 0.000072
vt 0.002 0.006
vt -0.008096 -0.01
vt 0.002 -0.01
vt -0.002 0.002302
vt -0.002312 0.002137
vt 0.0026 -0.01
vt 0.00263 0.000018
vt -0.008096 0.110299
vt -0.008096 0.006
vt 0.008096 0.000161
vt -0.00263 0.000018
vt 0.002626 -0.01
vt 0.002996 0.006
vt 0.002626 0.006
vt 0.003 0
vt -0.008096 0.112347
vt -0.008096 0.002302
vt -0.008096 0.000161
vt -0.002302 0.006
vt -0.000161 -0.01
vt -0.000161 0.006
vt 0.008096 0.002302
vt -0.002478 0.002079
vt 0.002996 -0.01
vt 0.00337 0.000018
vt 0.012495 0.006
vt 0.112347 0.006
vt 0.110299 0.006
vt 0.110299 0.005
vt -0.110299 0.006
vt -0.002302 0.005
vt -0.002302 -0.01
vt -0.002649 0.002036
vt -0.003 0
vt 0.003367 0.006
vt 0.003736 0.000072
vt 0.012495 -0.01
vt 0.112347 -0.01
vt -0.110299 0.005
vt -0.002824 0.002011
vt 0.003367 -0.01
vt 0.003337 -0.01
vt 0.003707 0.006
vt 0.003337 0.006
vt 0.004096 0.000161
vt -0.012494 0.112347
vt 0.008096 0.110299
vt 0.008096 0.112347
vt 0.071725 0.006
vt 0.054535 -0.01
vt 0.071725 -0.01
vt 0.110299 -0.01
vt -0.003 0.002002
vt -0.003176 0.002011
vt -0.00337 0.000018
vt 0.003707 -0.01
vt 0.003644 -0.01
vt 0.004015 0.006
vt 0.003644 0.006
vt 0.004445 0.000284
vt -0.012494 0.110299
vt 0.054535 0.006
vt -0.024494 0.100038
vt -0.003351 0.002036
vt -0.003522 0.002079
vt -0.003736 0.000072
vt 0.004015 -0.01
vt 0.003916 -0.01
vt 0.004286 0.006
vt 0.003916 0.006
vt 0.004781 0.00044
vt 0.021369 0.011328
vt 0.024494 0.100038
vt 0.100092 0.006
vt 0.092199 -0.01
vt 0.100092 -0.01
vt -0.022494 0.100041
vt -0.003688 0.002137
vt -0.003848 0.002212
vt -0.004096 0.000161
vt 0.004286 -0.01
vt 0.004149 -0.01
vt 0.004519 0.006
vt 0.004149 0.006
vt 0.005058 0.000604
vt 0.021734 0.011469
vt 0.092199 0.006
vt -0.024448 0.084252
vt -0.024477 0.092145
vt -0.022556 0.012208
vt -0.004 0.002302
vt -0.02045 0.013118
vt -0.004445 0.000284
vt 0.004519 -0.01
vt 0.004341 -0.01
vt 0.004663 0.006
vt 0.004341 0.006
vt 0.004558 -0.01
vt 0.024079 0.006
vt 0.004558 0.006
vt 0.024011 -0.01
vt 0.024402 0.006
vt 0.024011 0.006
vt 0.022231 0.011858
vt 0.024448 0.084252
vt 0.024477 0.092145
vt 0.092234 0.006
vt 0.084341 -0.01
vt 0.092234 -0.01
vt -0.024407 0.07636
vt -0.022816 0.01257
vt -0.022477 0.092151
vt -0.004781 0.00044
vt 0.004663 -0.01
vt 0.024079 -0.01
vt 0.024402 -0.01
vt 0.024179 -0.01
vt 0.02481 0.006
vt 0.024179 0.006
vt 0.022556 0.012208
vt 0.024407 0.07636
vt 0.084341 0.006
vt -0.024355 0.068467
vt 0.084377 0.006
vt 0.076484 -0.01
vt 0.084377 -0.01
vt -0.023027 0.012941
vt 0.023517 0.006
vt 0.023071 -0.01
vt 0.023517 -0.01
vt -0.022448 0.084261
vt -0.005058 0.000604
vt -0.021369 0.011328
vt -0.021449 0.014346
vt -0.021734 0.011469
vt 0.02481 -0.01
vt 0.023827 -0.01
vt 0.024304 0.006
vt 0.023827 0.006
vt 0.022816 0.01257
vt 0.024355 0.068467
vt 0.076484 0.006
vt -0.024291 0.060576
vt 0.076519 0.006
vt 0.068627 -0.01
vt 0.076519 -0.01
vt -0.023202 0.013321
vt 0.022647 0.006
vt 0.022219 -0.01
vt 0.022647 -0.01
vt 0.023071 0.006
vt 0.022219 0.006
vt -0.022407 0.076371
vt -0.020736 0.013228
vt -0.021353 0.014088
vt -0.021533 0.014626
vt -0.021798 0.02116
vt -0.022231 0.011858
vt 0.024304 -0.01
vt 0.023027 0.012941
vt 0.024291 0.060576
vt 0.068627 0.006
vt -0.024216 0.052685
vt 0.068662 0.006
vt 0.06077 -0.01
vt 0.068662 -0.01
vt -0.023347 0.01371
vt 0.02179 0.006
vt 0.021372 -0.01
vt 0.02179 -0.01
vt 0.021372 0.006
vt -0.022355 0.068482
vt -0.020873 0.013335
vt -0.021247 0.013856
vt -0.021604 0.014926
vt -0.021703 0.01557
vt -0.02192 0.029045
vt -0.022291 0.060593
vt 0.023202 0.013321
vt 0.024216 0.052685
vt 0.06077 0.006
vt -0.024129 0.044794
vt 0.060805 0.006
vt 0.052914 -0.01
vt 0.060805 -0.01
vt -0.023466 0.014109
vt 0.020983 0.006
vt 0.020568 -0.01
vt 0.020983 -0.01
vt 0.020568 0.006
vt -0.021005 0.013477
vt -0.02113 0.013651
vt -0.021661 0.015242
vt -0.02203 0.036931
vt -0.022216 0.052705
vt 0.023347 0.01371
vt 0.024129 0.044794
vt 0.052914 0.006
vt -0.02403 0.036904
vt 0.052948 0.006
vt 0.045058 -0.01
vt 0.052948 -0.01
vt -0.023562 0.014518
vt 0.020237 0.006
vt 0.019821 -0.01
vt 0.020237 -0.01
vt 0.019821 0.006
vt -0.022129 0.044818
vt 0.023466 0.014109
vt 0.02403 0.036904
vt 0.045058 0.006
vt -0.02392 0.029016
vt 0.045092 0.006
vt 0.037202 -0.01
vt 0.045092 -0.01
vt -0.023638 0.014935
vt 0.019546 0.006
vt 0.019127 -0.01
vt 0.019546 -0.01
vt 0.019127 0.006
vt 0.023562 0.014518
vt 0.02392 0.029016
vt 0.037202 0.006
vt -0.023798 0.021128
vt 0.037237 0.006
vt 0.029347 -0.01
vt 0.037237 -0.01
vt -0.023701 0.015424
vt 0.0189 0.006
vt 0.018476 -0.01
vt 0.0189 -0.01
vt 0.018476 0.006
vt 0.023638 0.014935
vt 0.023798 0.021128
vt 0.029347 0.006
vt 0.029382 0.006
vt 0.021493 -0.01
vt 0.029382 -0.01
vt 0.01835 0.006
vt 0.017857 -0.01
vt 0.01835 -0.01
vt 0.017857 0.006
vt 0.023701 0.015424
vt 0.021493 0.006
vt 0.021527 0.006
vt 0.015822 -0.01
vt 0.021527 -0.01
vt 0.015822 0.006
vn -0.958872853759915 0 -0.2838359567114717
vn -0.9231770397178466 0 -0.3843750165369665
vn 0 -1 0
vn -0.9928732607513886 0 -0.11917503129810811
vn 0 1 0
vn -1 0 0
vn 0 0 -1
vn -1 0 0.0000030000000002085442
vn 0.0000020000000002180444 0 1
vn -0.9928732607513886 0 0.11917503129810857
vn -0.9718661034493209 0 0.23553402507118534
vn 0.6197959851915247 0 0.7847629812500504
vn -0.9380337518469559 0 0.3465439083232076
vn -0.8929439038478054 0 0.4501679515259178
vn -0.0017870007207214382 0 0.9999984033129374
vn -0.0023830003828312035 0 0.9999971606505568
vn -0.8384490310221953 0 0.5449800201639888
vn -0.792561680158628 0 0.6097917539161484
vn -0.844615815626722 0 0.5353728831321278
vn -0.8190220535935286 0 0.5737620375446941
vn -0.003574998604569057 0 0.9999936096720705
vn -0.6613151518085475 0 0.7501081721914764
vn -0.004765998296448802 0 0.9999886425656235
vn -0.4611508670767401 0 0.8873217442361993
vn -0.5528360367647032 0 0.8332900554154572
vn -0.005958001495196189 0 0.9999822509515773
vn -0.384067079979289 0 0.9233051922718633
vn -0.007150003134647639 0 0.9999744384008895
vn -0.31852004244980575 0 0.9479161263306866
vn -0.008342001709321985 0 0.9999652048983911
vn -0.2617719349648648 0 0.965129760221262
vn -0.009533995713606844 0 0.9999545504300348
vn -0.21163707059441356 0 0.9773483260077829
vn -0.010726005092493683 0 0.9999424747528008
vn -0.16642096569515039 0 0.9860547967415875
vn -0.011918999597125684 0 0.9999289662014017
vn -0.12479998994586339 0 0.9921819200678434
vn -0.013112000446201163 0 0.9999140340270752
vn -0.05922398335211078 0 0.9982447193929497
vn 0.958872853759915 0 0.2838359567114717
vn 0.9231770397178466 0 0.3843750165369665
vn 0.9928732607513886 0 0.11917503129810811
vn 1 0 0
vn 0 0 1
vn 1 0 -0.0000030000000002085442
vn -0.0000020000000002180444 0 -1
vn 0.9928732607513886 0 -0.11917503129810857
vn 0.9718661034493209 0 -0.23553402507118534
vn -0.6197959851915247 0 -0.7847629812500504
vn 0.9380337518469559 0 -0.3465439083232076
vn 0.8929439038478054 0 -0.4501679515259178
vn 0.0017870007207214382 0 -0.9999984033129374
vn 0.0023830003828312035 0 -0.9999971606505568
vn 0.8384490310221953 0 -0.5449800201639888
vn 0.792561680158628 0 -0.6097917539161484
vn 0.844615815626722 0 -0.5353728831321278
vn 0.8190220535935286 0 -0.5737620375446941
vn 0.003574998604569057 0 -0.9999936096720705
vn 0.6613151518085475 0 -0.7501081721914764
vn 0.004765998296448802 0 -0.9999886425656235
vn 0.4611508670767401 0 -0.8873217442361993
vn 0.5528360367647032 0 -0.8332900554154572
vn 0.005958001495196189 0 -0.9999822509515773
vn 0.384067079979289 0 -0.9233051922718633
vn 0.007150003134647639 0 -0.9999744384008895
vn 0.31852004244980575 0 -0.9479161263306866
vn 0.008342001709321985 0 -0.9999652048983911
vn 0.2617719349648648 0 -0.965129760221262
vn 0.009533995713606844 0 -0.9999545504300348
vn 0.21163707059441356 0 -0.9773483260077829
vn 0.010726005092493683 0 -0.9999424747528008
vn 0.16642096569515039 0 -0.9860547967415875
vn 0.011918999597125684 0 -0.9999289662014017
vn 0.12479998994586339 0 -0.9921819200678434
vn 0.013112000446201163 0 -0.9999140340270752
vn 0.05922398335211078 0 -0.9982447193929497
usemtl material_0_0
f 1/1/1 2/2/2 3/3/1
f 2/2/2 1/1/1 4/4/2
f 2/5/3 5/6/3 3/7/3
f 3/8/1 6/9/4 1/10/1
f 7/11/5 4/12/5 1/13/5
f 4/14/6 8/15/6 2/16/6
f 2/5/3 9/17/3 5/6/3
f 3/7/3 5/6/3 10/18/3
f 6/9/4 3/8/1 11/19/4
f 7/11/5 1/13/5 6/20/5
f 7/11/5 12/21/5 4/12/5
f 8/15/6 4/14/6 13/22/6
f 8/23/3 9/17/3 2/5/3
f 3/7/3 10/18/3 11/24/3
f 11/25/4 14/26/6 6/27/4
f 7/11/5 6/20/5 14/28/5
f 12/21/5 7/11/5 15/29/5
f 16/30/5 4/12/5 12/21/5
f 4/12/5 16/30/5 13/31/5
f 16/32/7 8/33/7 13/34/7
f 9/17/3 8/23/3 17/35/3
f 11/24/3 10/18/3 18/36/3
f 14/26/6 11/25/4 19/37/6
f 7/11/5 14/28/5 20/38/5
f 21/15/8 7/39/8 15/22/8
f 15/40/9 12/41/9 22/42/9
f 12/43/7 23/44/7 16/32/7
f 8/33/7 16/32/7 17/45/7
f 11/24/3 18/36/3 24/46/3
f 11/24/3 24/46/3 19/47/3
f 19/37/6 20/48/10 14/26/6
f 7/11/5 20/38/5 25/49/5
f 7/39/8 21/15/8 26/50/8
f 22/42/9 21/51/9 15/40/9
f 23/44/7 12/43/7 22/52/7
f 17/45/7 16/32/7 23/44/7
f 19/47/3 24/46/3 27/53/3
f 20/48/10 19/37/6 28/54/10
f 28/55/10 25/56/11 20/57/10
f 7/11/5 25/49/5 29/58/5
f 26/59/3 30/60/3 21/61/3
f 7/62/12 31/63/12 26/64/12
f 21/51/9 22/42/9 30/65/9
f 19/47/3 27/53/3 32/66/3
f 19/47/3 33/67/3 28/68/3
f 25/56/11 28/55/10 34/69/11
f 34/70/11 29/71/13 25/72/11
f 7/11/5 29/58/5 35/73/5
f 30/60/3 26/59/3 36/74/3
f 31/63/12 7/62/12 37/75/12
f 36/74/3 26/59/3 31/76/3
f 19/47/3 32/66/3 33/67/3
f 28/68/3 33/67/3 38/77/3
f 28/68/3 39/78/3 34/79/3
f 29/71/13 34/70/11 40/80/13
f 40/81/13 35/82/14 29/83/13
f 7/11/5 35/73/5 41/84/5
f 7/11/5 42/85/5 37/86/5
f 37/87/15 43/88/16 31/89/15
f 36/74/3 31/76/3 44/90/3
f 28/68/3 38/77/3 39/78/3
f 34/79/3 39/78/3 45/91/3
f 34/79/3 46/92/3 40/93/3
f 35/82/14 40/81/13 47/94/14
f 47/95/14 41/96/17 35/97/14
f 7/11/5 41/84/5 48/98/5
f 7/11/5 48/98/5 42/85/5
f 37/86/5 42/85/5 49/99/5
f 43/88/16 37/87/15 50/100/16
f 51/101/3 31/76/3 43/102/3
f 44/90/3 31/76/3 52/103/3
f 34/79/3 45/91/3 46/92/3
f 40/93/3 46/92/3 53/104/3
f 40/93/3 54/105/3 47/106/3
f 41/96/17 47/95/14 55/107/17
f 55/108/17 48/109/18 41/110/17
f 56/111/18 42/112/19 48/113/18
f 57/114/19 49/115/20 42/116/19
f 37/86/5 49/99/5 58/117/5
f 37/86/5 59/118/5 50/119/5
f 50/120/16 51/121/21 43/122/16
f 60/123/3 31/76/3 51/101/3
f 52/103/3 31/76/3 61/124/3
f 52/103/3 62/125/3 44/90/3
f 40/93/3 53/104/3 54/105/3
f 47/106/3 54/105/3 55/126/3
f 48/109/18 55/108/17 56/127/18
f 42/112/19 56/111/18 57/128/19
f 49/115/20 57/114/19 63/129/20
f 63/130/20 58/131/22 49/132/20
f 37/86/5 58/117/5 64/133/5
f 37/86/5 65/134/5 59/118/5
f 51/121/21 50/120/16 59/135/21
f 66/136/3 31/76/3 60/123/3
f 59/137/21 60/138/23 51/139/21
f 61/124/3 31/76/3 67/140/3
f 68/141/24 52/142/25 61/143/24
f 52/103/3 69/144/3 62/125/3
f 55/126/3 54/105/3 56/145/3
f 56/145/3 54/105/3 57/146/3
f 57/146/3 70/147/3 63/148/3
f 58/131/22 63/130/20 71/149/22
f 71/150/22 64/151/25 58/152/22
f 37/86/5 64/133/5 68/153/5
f 37/86/5 72/154/5 65/134/5
f 60/138/23 59/137/21 65/155/23
f 73/156/3 31/76/3 66/136/3
f 65/157/23 66/158/26 60/159/23
f 67/140/3 31/76/3 74/160/3
f 75/161/27 61/162/24 67/163/27
f 52/142/25 68/141/24 64/164/25
f 61/162/24 75/161/27 68/165/24
f 52/103/3 76/166/3 69/144/3
f 57/146/3 54/105/3 77/167/3
f 57/146/3 78/168/3 70/147/3
f 63/148/3 70/147/3 79/169/3
f 63/148/3 80/170/3 71/171/3
f 64/151/25 71/150/22 52/172/25
f 37/86/5 68/153/5 75/173/5
f 37/86/5 81/174/5 72/154/5
f 66/158/26 65/157/23 72/175/26
f 82/176/3 31/76/3 73/156/3
f 72/177/26 73/178/28 66/179/26
f 74/160/3 31/76/3 83/180/3
f 84/181/29 67/182/27 74/183/29
f 67/182/27 84/181/29 75/184/27
f 52/103/3 85/185/3 76/166/3
f 57/146/3 77/167/3 86/186/3
f 57/146/3 87/187/3 78/168/3
f 63/148/3 79/169/3 88/188/3
f 63/148/3 89/189/3 80/170/3
f 71/171/3 80/170/3 90/190/3
f 71/171/3 91/191/3 52/103/3
f 37/86/5 75/173/5 84/192/5
f 37/86/5 92/193/5 81/174/5
f 73/178/28 72/177/26 81/194/28
f 93/195/3 31/76/3 82/176/3
f 81/196/28 82/197/30 73/198/28
f 83/180/3 31/76/3 94/199/3
f 95/200/31 74/201/29 83/202/31
f 74/201/29 95/200/31 84/203/29
f 52/103/3 91/191/3 85/185/3
f 57/146/3 86/186/3 96/204/3
f 57/146/3 97/205/3 87/187/3
f 63/148/3 88/188/3 98/206/3
f 63/148/3 98/206/3 89/189/3
f 71/171/3 90/190/3 99/207/3
f 71/171/3 100/208/3 91/191/3
f 37/86/5 84/192/5 95/209/5
f 37/86/5 101/210/5 92/193/5
f 82/197/30 81/196/28 92/211/30
f 102/212/3 31/76/3 93/195/3
f 92/213/30 93/214/32 82/215/30
f 94/199/3 31/76/3 103/216/3
f 104/217/33 83/218/31 94/219/33
f 83/218/31 104/217/33 95/220/31
f 57/146/3 96/204/3 97/205/3
f 71/171/3 99/207/3 105/221/3
f 71/171/3 105/221/3 100/208/3
f 37/86/5 95/209/5 104/222/5
f 37/86/5 106/223/5 101/210/5
f 93/214/32 92/213/30 101/224/32
f 107/225/3 31/76/3 102/212/3
f 101/226/32 102/227/34 93/228/32
f 103/216/3 31/76/3 108/229/3
f 109/230/35 94/231/33 103/232/35
f 94/231/33 109/230/35 104/233/33
f 37/86/5 104/222/5 109/234/5
f 37/86/5 110/235/5 106/223/5
f 102/227/34 101/226/32 106/236/34
f 111/237/3 31/76/3 107/225/3
f 106/238/34 107/239/36 102/240/34
f 108/229/3 31/76/3 112/241/3
f 113/242/37 103/243/35 108/244/37
f 103/243/35 113/242/37 109/245/35
f 37/86/5 109/234/5 113/246/5
f 37/86/5 114/247/5 110/235/5
f 107/239/36 106/238/34 110/248/36
f 112/241/3 31/76/3 111/237/3
f 110/249/36 111/250/38 107/251/36
f 115/252/39 108/253/37 112/254/39
f 108/253/37 115/252/39 113/255/37
f 37/86/5 113/246/5 115/256/5
f 37/86/5 115/256/5 114/247/5
f 111/250/38 110/249/36 114/257/38
f 114/258/38 112/259/39 111/260/38
f 112/259/39 114/258/38 115/261/39
usemtl material_1_0
f 3//40 2//41 1//40
f 4//41 1//40 2//41
f 3//5 5//5 2//5
f 1//40 6//42 3//40
f 1//3 4//3 7//3
f 2//43 8//43 4//43
f 5//5 9//5 2//5
f 10//5 5//5 3//5
f 11//42 3//40 6//42
f 6//3 1//3 7//3
f 4//3 12//3 7//3
f 13//43 4//43 8//43
f 2//5 9//5 8//5
f 11//5 10//5 3//5
f 6//42 14//43 11//42
f 14//3 6//3 7//3
f 15//3 7//3 12//3
f 12//3 4//3 16//3
f 13//3 16//3 4//3
f 13//44 8//44 16//44
f 17//5 8//5 9//5
f 18//5 10//5 11//5
f 19//43 11//42 14//43
f 20//3 14//3 7//3
f 15//45 7//45 21//45
f 22//46 12//46 15//46
f 16//44 23//44 12//44
f 17//44 16//44 8//44
f 24//5 18//5 11//5
f 19//5 24//5 11//5
f 14//43 20//47 19//43
f 25//3 20//3 7//3
f 26//45 21//45 7//45
f 15//46 21//46 22//46
f 22//44 12//44 23//44
f 23//44 16//44 17//44
f 27//5 24//5 19//5
f 28//47 19//43 20//47
f 20//47 25//48 28//47
f 29//3 25//3 7//3
f 21//5 30//5 26//5
f 26//49 31//49 7//49
f 30//46 22//46 21//46
f 32//5 27//5 19//5
f 28//5 33//5 19//5
f 34//48 28//47 25//48
f 25//48 29//50 34//48
f 35//3 29//3 7//3
f 36//5 26//5 30//5
f 37//49 7//49 31//49
f 31//5 26//5 36//5
f 33//5 32//5 19//5
f 38//5 33//5 28//5
f 34//5 39//5 28//5
f 40//50 34//48 29//50
f 29//50 35//51 40//50
f 41//3 35//3 7//3
f 37//3 42//3 7//3
f 31//52 43//53 37//52
f 44//5 31//5 36//5
f 39//5 38//5 28//5
f 45//5 39//5 34//5
f 40//5 46//5 34//5
f 47//51 40//50 35//51
f 35//51 41//54 47//51
f 48//3 41//3 7//3
f 42//3 48//3 7//3
f 49//3 42//3 37//3
f 50//53 37//52 43//53
f 43//5 31//5 51//5
f 52//5 31//5 44//5
f 46//5 45//5 34//5
f 53//5 46//5 40//5
f 47//5 54//5 40//5
f 55//54 47//51 41//54
f 41//54 48//55 55//54
f 48//55 42//56 56//55
f 42//56 49//57 57//56
f 58//3 49//3 37//3
f 50//3 59//3 37//3
f 43//53 51//58 50//53
f 51//5 31//5 60//5
f 61//5 31//5 52//5
f 44//5 62//5 52//5
f 54//5 53//5 40//5
f 55//5 54//5 47//5
f 56//55 55//54 48//55
f 57//56 56//55 42//56
f 63//57 57//56 49//57
f 49//57 58//59 63//57
f 64//3 58//3 37//3
f 59//3 65//3 37//3
f 59//58 50//53 51//58
f 60//5 31//5 66//5
f 51//58 60//60 59//58
f 67//5 31//5 61//5
f 61//61 52//62 68//61
f 62//5 69//5 52//5
f 56//5 54//5 55//5
f 57//5 54//5 56//5
f 63//5 70//5 57//5
f 71//59 63//57 58//59
f 58//59 64//62 71//59
f 68//3 64//3 37//3
f 65//3 72//3 37//3
f 65//60 59//58 60//60
f 66//5 31//5 73//5
f 60//60 66//63 65//60
f 74//5 31//5 67//5
f 67//64 61//61 75//64
f 64//62 68//61 52//62
f 68//61 75//64 61//61
f 69//5 76//5 52//5
f 77//5 54//5 57//5
f 70//5 78//5 57//5
f 79//5 70//5 63//5
f 71//5 80//5 63//5
f 52//62 71//59 64//62
f 75//3 68//3 37//3
f 72//3 81//3 37//3
f 72//63 65//60 66//63
f 73//5 31//5 82//5
f 66//63 73//65 72//63
f 83//5 31//5 74//5
f 74//66 67//64 84//66
f 75//64 84//66 67//64
f 76//5 85//5 52//5
f 86//5 77//5 57//5
f 78//5 87//5 57//5
f 88//5 79//5 63//5
f 80//5 89//5 63//5
f 90//5 80//5 71//5
f 52//5 91//5 71//5
f 84//3 75//3 37//3
f 81//3 92//3 37//3
f 81//65 72//63 73//65
f 82//5 31//5 93//5
f 73//65 82//67 81//65
f 94//5 31//5 83//5
f 83//68 74//66 95//68
f 84//66 95//68 74//66
f 85//5 91//5 52//5
f 96//5 86//5 57//5
f 87//5 97//5 57//5
f 98//5 88//5 63//5
f 89//5 98//5 63//5
f 99//5 90//5 71//5
f 91//5 100//5 71//5
f 95//3 84//3 37//3
f 92//3 101//3 37//3
f 92//67 81//65 82//67
f 93//5 31//5 102//5
f 82//67 93//69 92//67
f 103//5 31//5 94//5
f 94//70 83//68 104//70
f 95//68 104//70 83//68
f 97//5 96//5 57//5
f 105//5 99//5 71//5
f 100//5 105//5 71//5
f 104//3 95//3 37//3
f 101//3 106//3 37//3
f 101//69 92//67 93//69
f 102//5 31//5 107//5
f 93//69 102//71 101//69
f 108//5 31//5 103//5
f 103//72 94//70 109//72
f 104//70 109//72 94//70
f 109//3 104//3 37//3
f 106//3 110//3 37//3
f 106//71 101//69 102//71
f 107//5 31//5 111//5
f 102//71 107//73 106//71
f 112//5 31//5 108//5
f 108//74 103//72 113//74
f 109//72 113//74 103//72
f 113//3 109//3 37//3
f 110//3 114//3 37//3
f 110//73 106//71 107//73
f 111//5 31//5 112//5
f 107//73 111//75 110//73
f 112//76 108//74 115//76
f 113//74 115//76 108//74
f 115//3 113//3 37//3
f 114//3 115//3 37//3
f 114//75 110//73 111//75
f 111//75 112//76 114//75
f 115//76 114//75 112//76
