# SSTK version 0.8.0
# 36
mtllib original-36.mtl
o mesh35/mesh35-geometry#mesh35-geometry
v 0.116649 0.345647 0.344308
v 0.116649 0.345231 0.344308
v 0.116638 0.345434 0.344308
v 0.116682 0.345832 0.344308
v 0.116638 0.345434 0.344372
v 0.116649 0.345647 0.344372
v 0.116682 0.345832 0.344372
v 0.116685 0.345051 0.344308
v 0.116649 0.345231 0.344372
v 0.116738 0.345989 0.344372
v 0.116738 0.345989 0.344308
v 0.116685 0.345051 0.344372
v 0.116744 0.344893 0.344308
v 0.116817 0.346118 0.344372
v 0.116744 0.344893 0.344372
v 0.116817 0.346118 0.344308
v 0.116828 0.344757 0.344308
v 0.116911 0.346219 0.344372
v 0.116828 0.344757 0.344372
v 0.116911 0.346219 0.344308
v 0.116915 0.344661 0.344308
v 0.117015 0.346292 0.344308
v 0.116915 0.344661 0.344372
v 0.117015 0.346292 0.344372
v 0.117012 0.344593 0.344308
v 0.117128 0.346335 0.344308
v 0.117012 0.344593 0.344372
v 0.117031 0.345460 0.344308
v 0.117128 0.346335 0.344372
v 0.117054 0.345696 0.344308
v 0.117031 0.345460 0.344372
v 0.117054 0.345215 0.344308
v 0.117118 0.344552 0.344372
v 0.117054 0.345696 0.344372
v 0.117251 0.346349 0.344308
v 0.117122 0.345861 0.344308
v 0.117054 0.345215 0.344372
v 0.117118 0.344552 0.344308
v 0.117122 0.345861 0.344372
v 0.117251 0.346349 0.344372
v 0.117224 0.345959 0.344308
v 0.117122 0.345046 0.344308
v 0.117234 0.344538 0.344372
v 0.117122 0.345046 0.344372
v 0.117224 0.345959 0.344372
v 0.117380 0.346331 0.344372
v 0.117349 0.345991 0.344308
v 0.117234 0.344538 0.344308
v 0.117349 0.345991 0.344372
v 0.117380 0.346331 0.344308
v 0.117222 0.344949 0.344308
v 0.117360 0.344556 0.344308
v 0.117222 0.344949 0.344372
v 0.117497 0.346277 0.344372
v 0.117476 0.345958 0.344372
v 0.117476 0.345958 0.344308
v 0.117341 0.344916 0.344308
v 0.117360 0.344556 0.344372
v 0.117341 0.344916 0.344372
v 0.117497 0.346277 0.344308
v 0.117474 0.344610 0.344308
v 0.117469 0.344949 0.344308
v 0.117601 0.346186 0.344372
v 0.117582 0.345858 0.344372
v 0.117582 0.345858 0.344308
v 0.117474 0.344610 0.344372
v 0.117469 0.344949 0.344372
v 0.117601 0.346186 0.344308
v 0.117577 0.344699 0.344308
v 0.117577 0.345048 0.344308
v 0.117694 0.346059 0.344308
v 0.117652 0.345690 0.344372
v 0.117652 0.345690 0.344308
v 0.117577 0.344699 0.344372
v 0.117577 0.345048 0.344372
v 0.117694 0.346059 0.344372
v 0.117669 0.344825 0.344372
v 0.117669 0.344825 0.344308
v 0.117694 0.346308 0.344372
v 0.117676 0.345449 0.344308
v 0.117676 0.345449 0.344372
v 0.117651 0.345214 0.344372
v 0.117651 0.345214 0.344308
v 0.117694 0.346308 0.344308
v 0.117768 0.343907 0.344372
v 0.117768 0.343907 0.344308
v 0.117669 0.344566 0.344308
v 0.118054 0.346308 0.344372
v 0.118054 0.346308 0.344308
v 0.117669 0.344566 0.344372
v 0.117895 0.344016 0.344372
v 0.117662 0.344416 0.344308
v 0.117895 0.344016 0.344308
v 0.118054 0.344720 0.344308
v 0.117984 0.344166 0.344372
v 0.117639 0.344320 0.344308
v 0.117984 0.344166 0.344308
v 0.117662 0.344416 0.344372
v 0.118054 0.344720 0.344372
v 0.118037 0.344391 0.344308
v 0.118037 0.344391 0.344372
v 0.117603 0.344260 0.344308
v 0.117594 0.343842 0.344372
v 0.117639 0.344320 0.344372
v 0.117594 0.343842 0.344308
v 0.117603 0.344260 0.344372
v 0.117554 0.344220 0.344308
v 0.117364 0.343820 0.344372
v 0.117554 0.344220 0.344372
v 0.117464 0.344189 0.344308
v 0.117364 0.343820 0.344308
v 0.117464 0.344189 0.344372
v 0.117150 0.343836 0.344308
v 0.117349 0.344178 0.344372
v 0.117349 0.344178 0.344308
v 0.117150 0.343836 0.344372
v 0.117188 0.344219 0.344308
v 0.117254 0.344188 0.344372
v 0.117254 0.344188 0.344308
v 0.117188 0.344219 0.344372
v 0.116983 0.343883 0.344308
v 0.117148 0.344274 0.344308
v 0.117148 0.344274 0.344372
v 0.116983 0.343883 0.344372
v 0.117127 0.344356 0.344308
v 0.117127 0.344356 0.344372
v 0.116856 0.343962 0.344308
v 0.116856 0.343962 0.344372
v 0.116763 0.344072 0.344308
v 0.116688 0.344421 0.344308
v 0.116763 0.344072 0.344372
v 0.116707 0.344208 0.344308
v 0.116688 0.344421 0.344372
v 0.116688 0.344363 0.344308
v 0.116707 0.344208 0.344372
v 0.116688 0.344363 0.344372
vn 0 0 -1
vn -0.9919736256783269 -0.12644495228594302 0
vn -0.9999954307211247 -0.0030230013020764706 0
vn -0.9932768654616508 0.11576298432002059 0
vn -0.9661967215204055 0.25780592569454225 0
vn -0.903367136356956 0.4288680647346373 0.00000100000015123885
vn -0.9618972820619907 -0.27341108017370985 0
vn 0 0 1
vn -0.7975043166148592 0.6033132395196268 0.0000010000003973182803
vn -0.8989320735465801 -0.4380880358423932 -0.0000010000000817131822
vn -0.6547658274754474 0.755831800845527 9.999997368228197e-7
vn -0.7997080653417495 -0.60038904905599 -0.0000010000000816627524
vn -0.46754589361508697 0.8839687988626463 9.99999772761174e-7
vn -0.6612439481657502 -0.7501709411948524 -9.99999921630755e-7
vn -0.23884987821609116 0.9710565048812343 0.0000019999989805164335
vn -0.4712940709266996 -0.8819761327316851 -0.0000010000001505847236
vn -0.23994205245889655 -0.9707872122446876 -0.0000020000004374254237
vn 0.011272005286098292 0.9999364689283164 0.000002000000938136187
vn 0.9704796749432248 -0.2411829192171212 0
vn 0.9999981006973139 -0.0019490001962594568 0
vn 0.9717778310622694 0.2358979589905588 0
vn 0.8254638917313376 -0.5644549259655324 -9.9999986914765e-7
vn 0.012133004761180064 -0.9999263923866922 -0.0000020000007850561842
vn 0.28360900163287883 0.9589400055210971 0.0000020000000116649535
vn 0.4866949848613527 -0.8735719728275442 -9.999999691970414e-7
vn 0.83030666517932 0.5573067752663668 9.999995966901258e-7
vn -0.0003069999855321655 -0.9999999528735033 -0.0000019999999059689827
vn 0.2866579945453284 -0.9580329817700697 -0.000001999999962219378
vn 0.4967230568720613 0.867909099370824 0.0000010000001145769393
vn 0.5432141263969789 0.8395941953597386 0.0000010000002327493905
vn -0.48497772496581526 -0.8745265040500385 -9.999994329799794e-7
vn 0.00782100324960406 0.9999694154843785 0.000002000000831214818
vn 0.5464747332652014 -0.8374755912274261 -9.99999512206656e-7
vn 0.7355061043091153 0.6775180960852843 0.0000010000001418066542
vn -0.8226893258660725 -0.5684912251785661 -0.0000010000003960422918
vn -0.47566283162632766 0.8796276886320847 9.999996463241228e-7
vn 0.7358200876619313 -0.6771770806754963 -0.0000010000001194487696
vn 0.8074259328068241 0.5899689509033759 9.99999916732725e-7
vn -0.9696969338036411 -0.2443109833221113 0
vn -0.8113448151553887 0.5845678668208409 9.999997724850329e-7
vn 0.8060751883818086 -0.5918131383082261 -0.0000010000002340129752
vn -1 0 0
vn -0.9999937730629389 0.003528999199134306 0
vn -0.9660943977619165 0.258189106302028 0
vn -0.9996880510240793 0.024976001274775134 0
vn 0 1 0.0000020000000002180444
vn -0.9903110394094286 0.13886700552621256 0
vn 1 0 0
vn 0.9996474066476508 -0.026553010801528013 0
vn 0.5091742643007182 -0.8606634467507158 -0.0000010000005193815693
vn 0.7659509775564878 -0.6428989811620958 -9.999999710113286e-7
vn 0.9280132805482012 -0.37254711262492096 -0.0000010000003025994196
vn -0.9263962541489729 0.3765501033033344 0.000001000000274630925
vn 0.22578291659840252 -0.9741776401500492 -0.0000019999992614898536
vn 0.9899943437830204 -0.14110704900048957 0
vn -0.7560392819278569 0.6545262440735364 0.000001000000373214417
vn 0.010543004438663788 -0.9999444209821894 -0.0000020000008422359044
vn -0.48814480591488413 0.8727626529918201 9.999996027049192e-7
vn -0.2101440914505256 0.9776704254627083 0.0000020000008706243157
vn -0.1744270185561577 -0.9846701047526577 -0.000002000000212946944
vn 0.008077003073211408 0.999967380476661 0.000002000000761198678
vn -0.40555199069481246 -0.9140719790270757 -9.999999771684147e-7
vn 0.26839802827949133 0.9633081014980001 0.0000020000002108823344
vn 0.9052596209307605 0.42485882209422926 9.999995811525926e-7
vn 0.6324627901327532 0.774590742971082 9.999996682062237e-7
vn -0.6554738714612587 -0.7552178519014161 -9.999998039217052e-7
vn 0.9714261464716455 0.23734203578643487 0
vn 0.14614698328210138 0.9892628868372356 0.000001999999771405248
vn -0.8534601567955807 -0.5211580957458712 -0.0000010000001836437646
vn -0.9665689123273709 -0.2564069767426062 0
vn -0.998154047409823 -0.06073300288466587 0
vn 0.9999954307211247 0.0030230013020764706 0
vn 0.9919736256783269 0.12644495228594302 0
vn 0.9932768654616508 -0.11576298432002059 0
vn 0.9661967215204055 -0.25780592569454225 0
vn 0.903367136356956 -0.4288680647346373 -0.00000100000015123885
vn 0.9618972820619907 0.27341108017370985 0
vn 0.7975043166148592 -0.6033132395196268 -0.0000010000003973182803
vn 0.8989320735465801 0.4380880358423932 0.0000010000000817131822
vn 0.6547658274754474 -0.755831800845527 -9.999997368228197e-7
vn 0.7997080653417495 0.60038904905599 0.0000010000000816627524
vn 0.46754589361508697 -0.8839687988626463 -9.99999772761174e-7
vn 0.6612439481657502 0.7501709411948524 9.99999921630755e-7
vn 0.23884987821609116 -0.9710565048812343 -0.0000019999989805164335
vn 0.4712940709266996 0.8819761327316851 0.0000010000001505847236
vn 0.23994205245889655 0.9707872122446876 0.0000020000004374254237
vn -0.011272005286098292 -0.9999364689283164 -0.000002000000938136187
vn -0.9704796749432248 0.2411829192171212 0
vn -0.9999981006973139 0.0019490001962594568 0
vn -0.9717778310622694 -0.2358979589905588 0
vn -0.8254638917313376 0.5644549259655324 9.9999986914765e-7
vn -0.012133004761180064 0.9999263923866922 0.0000020000007850561842
vn -0.28360900163287883 -0.9589400055210971 -0.0000020000000116649535
vn -0.4866949848613527 0.8735719728275442 9.999999691970414e-7
vn -0.83030666517932 -0.5573067752663668 -9.999995966901258e-7
vn 0.0003069999855321655 0.9999999528735033 0.0000019999999059689827
vn -0.2866579945453284 0.9580329817700697 0.000001999999962219378
vn -0.4967230568720613 -0.867909099370824 -0.0000010000001145769393
vn -0.5432141263969789 -0.8395941953597386 -0.0000010000002327493905
vn 0.48497772496581526 0.8745265040500385 9.999994329799794e-7
vn -0.00782100324960406 -0.9999694154843785 -0.000002000000831214818
vn -0.5464747332652014 0.8374755912274261 9.99999512206656e-7
vn -0.7355061043091153 -0.6775180960852843 -0.0000010000001418066542
vn 0.8226893258660725 0.5684912251785661 0.0000010000003960422918
vn 0.47566283162632766 -0.8796276886320847 -9.999996463241228e-7
vn -0.7358200876619313 0.6771770806754963 0.0000010000001194487696
vn -0.8074259328068241 -0.5899689509033759 -9.99999916732725e-7
vn 0.9696969338036411 0.2443109833221113 0
vn 0.8113448151553887 -0.5845678668208409 -9.999997724850329e-7
vn -0.8060751883818086 0.5918131383082261 0.0000010000002340129752
vn 0.9999937730629389 -0.003528999199134306 0
vn 0.9660943977619165 -0.258189106302028 0
vn 0.9996880510240793 -0.024976001274775134 0
vn 0 -1 -0.0000020000000002180444
vn 0.9903110394094286 -0.13886700552621256 0
vn -0.9996474066476508 0.026553010801528013 0
vn -0.7659509775564878 0.6428989811620958 9.999999710113286e-7
vn -0.5091742643007182 0.8606634467507158 0.0000010000005193815693
vn -0.9280132805482012 0.37254711262492096 0.0000010000003025994196
vn 0.9263962541489729 -0.3765501033033344 -0.000001000000274630925
vn -0.22578291659840252 0.9741776401500492 0.0000019999992614898536
vn -0.9899943437830204 0.14110704900048957 0
vn 0.7560392819278569 -0.6545262440735364 -0.000001000000373214417
vn -0.010543004438663788 0.9999444209821894 0.0000020000008422359044
vn 0.48814480591488413 -0.8727626529918201 -9.999996027049192e-7
vn 0.2101440914505256 -0.9776704254627083 -0.0000020000008706243157
vn 0.1744270185561577 0.9846701047526577 0.000002000000212946944
vn -0.008077003073211408 -0.999967380476661 -0.000002000000761198678
vn 0.40555199069481246 0.9140719790270757 9.999999771684147e-7
vn -0.26839802827949133 -0.9633081014980001 -0.0000020000002108823344
vn -0.9052596209307605 -0.42485882209422926 -9.999995811525926e-7
vn -0.6324627901327532 -0.774590742971082 -9.999996682062237e-7
vn 0.6554738714612587 0.7552178519014161 9.999998039217052e-7
vn -0.9714261464716455 -0.23734203578643487 0
vn -0.14614698328210138 -0.9892628868372356 -0.000001999999771405248
vn 0.8534601567955807 0.5211580957458712 0.0000010000001836437646
vn 0.9665689123273709 0.2564069767426062 0
vn 0.998154047409823 0.06073300288466587 0
usemtl material_0_0
f 1//1 2//1 3//1
f 2//1 1//1 4//1
f 2//2 5//3 3//3
f 3//3 6//4 1//4
f 1//4 7//5 4//5
f 2//1 4//1 8//1
f 5//3 2//2 9//2
f 6//4 3//3 5//3
f 7//5 1//4 6//4
f 10//6 4//5 7//5
f 8//1 4//1 11//1
f 8//7 9//2 2//2
f 9//8 6//8 5//8
f 6//8 9//8 7//8
f 4//5 10//6 11//6
f 7//8 12//8 10//8
f 8//1 11//1 13//1
f 9//2 8//7 12//7
f 7//8 9//8 12//8
f 14//9 11//6 10//6
f 10//8 12//8 15//8
f 13//1 11//1 16//1
f 13//10 12//7 8//7
f 11//6 14//9 16//9
f 10//8 15//8 14//8
f 12//7 13//10 15//10
f 13//1 16//1 17//1
f 18//11 16//9 14//9
f 14//8 15//8 19//8
f 17//12 15//10 13//10
f 17//1 16//1 20//1
f 16//9 18//11 20//11
f 14//8 19//8 18//8
f 15//10 17//12 19//12
f 17//1 20//1 21//1
f 18//11 22//13 20//11
f 18//8 19//8 23//8
f 21//14 19//12 17//12
f 21//1 20//1 22//1
f 22//13 18//11 24//13
f 19//12 21//14 23//14
f 18//8 23//8 24//8
f 21//1 22//1 25//1
f 24//13 26//15 22//13
f 21//14 27//16 23//14
f 24//8 23//8 27//8
f 25//1 22//1 28//1
f 27//16 21//14 25//16
f 26//15 24//13 29//15
f 30//1 22//1 26//1
f 24//8 27//8 31//8
f 22//1 30//1 28//1
f 25//1 28//1 32//1
f 25//16 33//17 27//16
f 24//8 34//8 29//8
f 29//15 35//18 26//15
f 30//1 26//1 36//1
f 31//8 27//8 37//8
f 34//8 24//8 31//8
f 34//19 28//20 30//19
f 31//20 32//21 28//20
f 25//1 32//1 38//1
f 33//17 25//16 38//17
f 37//8 27//8 33//8
f 29//8 34//8 39//8
f 35//18 29//15 40//18
f 41//1 26//1 35//1
f 36//1 26//1 41//1
f 39//22 30//19 36//22
f 32//21 31//20 37//21
f 28//20 34//19 31//20
f 30//19 39//22 34//19
f 38//1 32//1 42//1
f 38//17 43//23 33//17
f 37//8 33//8 44//8
f 29//8 39//8 45//8
f 29//8 45//8 40//8
f 46//24 35//18 40//18
f 41//1 35//1 47//1
f 41//25 39//22 36//22
f 37//21 42//26 32//21
f 38//1 42//1 48//1
f 43//23 38//17 48//23
f 44//8 33//8 43//8
f 42//26 37//21 44//26
f 39//22 41//25 45//25
f 40//8 45//8 49//8
f 35//18 46//24 50//24
f 40//8 49//8 46//8
f 47//1 35//1 50//1
f 47//27 45//25 41//25
f 48//1 42//1 51//1
f 52//28 43//23 48//23
f 44//8 43//8 53//8
f 53//29 42//26 44//26
f 45//25 47//27 49//27
f 54//30 50//24 46//24
f 46//8 49//8 55//8
f 47//1 50//1 56//1
f 42//26 53//29 51//29
f 48//1 51//1 57//1
f 43//23 52//28 58//28
f 48//1 57//1 52//1
f 53//8 43//8 59//8
f 47//27 55//31 49//27
f 50//24 54//30 60//30
f 46//8 55//8 54//8
f 56//1 50//1 60//1
f 55//31 47//27 56//31
f 59//32 51//29 53//29
f 51//29 59//32 57//32
f 61//33 58//28 52//28
f 59//8 43//8 58//8
f 52//1 57//1 62//1
f 63//34 60//30 54//30
f 54//8 55//8 64//8
f 56//1 60//1 65//1
f 56//31 64//35 55//31
f 59//32 62//36 57//32
f 58//28 61//33 66//33
f 52//1 62//1 61//1
f 59//8 58//8 67//8
f 60//30 63//34 68//34
f 54//8 64//8 63//8
f 65//1 60//1 68//1
f 64//35 56//31 65//35
f 62//36 59//32 67//36
f 69//37 66//33 61//33
f 67//8 58//8 66//8
f 61//1 62//1 70//1
f 63//34 71//38 68//34
f 63//8 64//8 72//8
f 65//1 68//1 73//1
f 73//39 64//35 65//35
f 67//36 70//40 62//36
f 66//33 69//37 74//37
f 61//1 70//1 69//1
f 67//8 66//8 75//8
f 71//38 63//34 76//38
f 73//1 68//1 71//1
f 64//35 73//39 72//39
f 63//8 72//8 76//8
f 70//40 67//36 75//40
f 69//37 77//41 74//37
f 75//8 66//8 74//8
f 69//1 70//1 78//1
f 79//42 71//42 76//42
f 73//1 71//1 80//1
f 80//43 72//39 73//39
f 76//8 72//8 81//8
f 82//44 70//40 75//40
f 77//41 69//37 78//41
f 75//8 74//8 77//8
f 78//1 70//1 83//1
f 71//42 79//42 84//42
f 76//8 85//8 79//8
f 86//1 80//1 71//1
f 72//39 80//43 81//43
f 81//8 85//8 76//8
f 70//40 82//44 83//44
f 75//8 77//8 82//8
f 87//45 77//42 78//42
f 78//1 83//1 80//1
f 88//46 84//46 79//46
f 89//1 71//1 84//1
f 79//8 85//8 88//8
f 86//1 87//1 80//1
f 71//1 89//1 86//1
f 83//44 81//43 80//43
f 77//8 85//8 81//8
f 81//43 83//44 82//44
f 82//8 77//8 81//8
f 77//42 87//45 90//45
f 78//1 80//1 87//1
f 84//46 88//46 89//46
f 88//8 85//8 91//8
f 86//1 92//1 87//1
f 86//1 89//1 93//1
f 90//8 85//8 77//8
f 92//47 90//45 87//45
f 88//48 94//49 89//48
f 85//50 93//51 91//51
f 88//8 91//8 95//8
f 86//1 96//1 92//1
f 93//1 89//1 97//1
f 93//51 85//50 86//50
f 98//8 85//8 90//8
f 90//45 92//47 98//47
f 94//49 88//48 99//49
f 100//1 89//1 94//1
f 93//51 95//52 91//51
f 88//8 95//8 101//8
f 86//1 102//1 96//1
f 96//53 98//47 92//47
f 97//1 89//1 100//1
f 95//52 93//51 97//52
f 103//54 86//50 85//50
f 104//8 85//8 98//8
f 88//8 101//8 99//8
f 99//49 100//55 94//49
f 97//52 101//55 95//52
f 105//1 102//1 86//1
f 102//56 104//53 96//53
f 98//47 96//53 104//53
f 101//55 97//52 100//55
f 86//50 103//54 105//54
f 106//8 103//8 85//8
f 106//8 85//8 104//8
f 100//55 99//49 101//55
f 105//1 107//1 102//1
f 104//53 102//56 106//56
f 108//57 105//54 103//54
f 109//8 103//8 106//8
f 105//1 110//1 107//1
f 109//58 102//56 107//58
f 102//56 109//58 106//56
f 105//54 108//57 111//57
f 112//8 108//8 103//8
f 112//8 103//8 109//8
f 111//1 110//1 105//1
f 112//59 107//58 110//59
f 107//58 112//59 109//58
f 108//57 113//60 111//57
f 114//8 108//8 112//8
f 111//1 115//1 110//1
f 110//59 114//61 112//59
f 113//60 108//57 116//60
f 113//1 117//1 111//1
f 118//8 108//8 114//8
f 111//1 119//1 115//1
f 114//61 110//59 115//61
f 120//8 116//8 108//8
f 116//60 121//62 113//60
f 113//1 122//1 117//1
f 111//1 117//1 119//1
f 120//8 108//8 118//8
f 114//61 119//63 118//63
f 119//63 114//61 115//61
f 123//8 116//8 120//8
f 121//62 116//60 124//62
f 121//1 125//1 113//1
f 113//1 125//1 122//1
f 123//64 117//65 122//64
f 117//65 118//63 119//63
f 118//63 117//65 120//65
f 126//8 116//8 123//8
f 117//65 123//64 120//65
f 126//8 124//8 116//8
f 124//62 127//66 121//62
f 127//1 125//1 121//1
f 126//67 122//64 125//67
f 122//64 126//67 123//64
f 126//8 128//8 124//8
f 127//66 124//62 128//66
f 129//1 125//1 127//1
f 130//68 126//68 125//68
f 126//8 131//8 128//8
f 131//69 127//66 128//66
f 132//1 125//1 129//1
f 127//66 131//69 129//69
f 126//68 130//68 133//68
f 125//1 134//1 130//1
f 126//8 135//8 131//8
f 134//1 125//1 132//1
f 129//69 135//70 132//70
f 135//70 129//69 131//69
f 134//71 133//42 130//42
f 133//8 135//8 126//8
f 132//70 136//71 134//71
f 136//71 132//70 135//70
f 133//42 134//71 136//71
f 135//8 133//8 136//8
usemtl material_1_0
f 3//8 2//8 1//8
f 4//8 1//8 2//8
f 3//72 5//72 2//73
f 1//74 6//74 3//72
f 4//75 7//75 1//74
f 8//8 4//8 2//8
f 9//73 2//73 5//72
f 5//72 3//72 6//74
f 6//74 1//74 7//75
f 7//75 4//75 10//76
f 11//8 4//8 8//8
f 2//73 9//73 8//77
f 5//1 6//1 9//1
f 7//1 9//1 6//1
f 11//76 10//76 4//75
f 10//1 12//1 7//1
f 13//8 11//8 8//8
f 12//77 8//77 9//73
f 12//1 9//1 7//1
f 10//76 11//76 14//78
f 15//1 12//1 10//1
f 16//8 11//8 13//8
f 8//77 12//77 13//79
f 16//78 14//78 11//76
f 14//1 15//1 10//1
f 15//79 13//79 12//77
f 17//8 16//8 13//8
f 14//78 16//78 18//80
f 19//1 15//1 14//1
f 13//79 15//79 17//81
f 20//8 16//8 17//8
f 20//80 18//80 16//78
f 18//1 19//1 14//1
f 19//81 17//81 15//79
f 21//8 20//8 17//8
f 20//80 22//82 18//80
f 23//1 19//1 18//1
f 17//81 19//81 21//83
f 22//8 20//8 21//8
f 24//82 18//80 22//82
f 23//83 21//83 19//81
f 24//1 23//1 18//1
f 25//8 22//8 21//8
f 22//82 26//84 24//82
f 23//83 27//85 21//83
f 27//1 23//1 24//1
f 28//8 22//8 25//8
f 25//85 21//83 27//85
f 29//84 24//82 26//84
f 26//8 22//8 30//8
f 31//1 27//1 24//1
f 28//8 30//8 22//8
f 32//8 28//8 25//8
f 27//85 33//86 25//85
f 29//1 34//1 24//1
f 26//84 35//87 29//84
f 36//8 26//8 30//8
f 37//1 27//1 31//1
f 31//1 24//1 34//1
f 30//88 28//89 34//88
f 28//89 32//90 31//89
f 38//8 32//8 25//8
f 38//86 25//85 33//86
f 33//1 27//1 37//1
f 39//1 34//1 29//1
f 40//87 29//84 35//87
f 35//8 26//8 41//8
f 41//8 26//8 36//8
f 36//91 30//88 39//91
f 37//90 31//89 32//90
f 31//89 34//88 28//89
f 34//88 39//91 30//88
f 42//8 32//8 38//8
f 33//86 43//92 38//86
f 44//1 33//1 37//1
f 45//1 39//1 29//1
f 40//1 45//1 29//1
f 40//87 35//87 46//93
f 47//8 35//8 41//8
f 36//91 39//91 41//94
f 32//90 42//95 37//90
f 48//8 42//8 38//8
f 48//92 38//86 43//92
f 43//1 33//1 44//1
f 44//95 37//90 42//95
f 45//94 41//94 39//91
f 49//1 45//1 40//1
f 50//93 46//93 35//87
f 46//1 49//1 40//1
f 50//8 35//8 47//8
f 41//94 45//94 47//96
f 51//8 42//8 48//8
f 48//92 43//92 52//97
f 53//1 43//1 44//1
f 44//95 42//95 53//98
f 49//96 47//96 45//94
f 46//93 50//93 54//99
f 55//1 49//1 46//1
f 56//8 50//8 47//8
f 51//98 53//98 42//95
f 57//8 51//8 48//8
f 58//97 52//97 43//92
f 52//8 57//8 48//8
f 59//1 43//1 53//1
f 49//96 55//100 47//96
f 60//99 54//99 50//93
f 54//1 55//1 46//1
f 60//8 50//8 56//8
f 56//100 47//96 55//100
f 53//98 51//98 59//101
f 57//101 59//101 51//98
f 52//97 58//97 61//102
f 58//1 43//1 59//1
f 62//8 57//8 52//8
f 54//99 60//99 63//103
f 64//1 55//1 54//1
f 65//8 60//8 56//8
f 55//100 64//104 56//100
f 57//101 62//105 59//101
f 66//102 61//102 58//97
f 61//8 62//8 52//8
f 67//1 58//1 59//1
f 68//103 63//103 60//99
f 63//1 64//1 54//1
f 68//8 60//8 65//8
f 65//104 56//100 64//104
f 67//105 59//101 62//105
f 61//102 66//102 69//106
f 66//1 58//1 67//1
f 70//8 62//8 61//8
f 68//103 71//107 63//103
f 72//1 64//1 63//1
f 73//8 68//8 65//8
f 65//104 64//104 73//108
f 62//105 70//109 67//105
f 74//106 69//106 66//102
f 69//8 70//8 61//8
f 75//1 66//1 67//1
f 76//107 63//103 71//107
f 71//8 68//8 73//8
f 72//108 73//108 64//104
f 76//1 72//1 63//1
f 75//109 67//105 70//109
f 74//106 77//110 69//106
f 74//1 66//1 75//1
f 78//8 70//8 69//8
f 76//48 71//48 79//48
f 80//8 71//8 73//8
f 73//108 72//108 80//111
f 81//1 72//1 76//1
f 75//109 70//109 82//112
f 78//110 69//106 77//110
f 77//1 74//1 75//1
f 83//8 70//8 78//8
f 84//48 79//48 71//48
f 79//1 85//1 76//1
f 71//8 80//8 86//8
f 81//111 80//111 72//108
f 76//1 85//1 81//1
f 83//112 82//112 70//109
f 82//1 77//1 75//1
f 78//48 77//48 87//113
f 80//8 83//8 78//8
f 79//114 84//114 88//114
f 84//8 71//8 89//8
f 88//1 85//1 79//1
f 80//8 87//8 86//8
f 86//8 89//8 71//8
f 80//111 81//111 83//112
f 81//1 85//1 77//1
f 82//112 83//112 81//111
f 81//1 77//1 82//1
f 90//113 87//113 77//48
f 87//8 80//8 78//8
f 89//114 88//114 84//114
f 91//1 85//1 88//1
f 87//8 92//8 86//8
f 93//8 89//8 86//8
f 77//1 85//1 90//1
f 87//113 90//113 92//115
f 89//42 94//116 88//42
f 91//117 93//117 85//118
f 95//1 91//1 88//1
f 92//8 96//8 86//8
f 97//8 89//8 93//8
f 86//118 85//118 93//117
f 90//1 85//1 98//1
f 98//115 92//115 90//113
f 99//116 88//42 94//116
f 94//8 89//8 100//8
f 91//117 95//119 93//117
f 101//1 95//1 88//1
f 96//8 102//8 86//8
f 92//115 98//115 96//120
f 100//8 89//8 97//8
f 97//119 93//117 95//119
f 85//118 86//118 103//121
f 98//1 85//1 104//1
f 99//1 101//1 88//1
f 94//116 100//122 99//116
f 95//119 101//122 97//119
f 86//8 102//8 105//8
f 96//120 104//120 102//123
f 104//120 96//120 98//115
f 100//122 97//119 101//122
f 105//121 103//121 86//118
f 85//1 103//1 106//1
f 104//1 85//1 106//1
f 101//122 99//116 100//122
f 102//8 107//8 105//8
f 106//123 102//123 104//120
f 103//121 105//121 108//124
f 106//1 103//1 109//1
f 107//8 110//8 105//8
f 107//125 102//123 109//125
f 106//123 109//125 102//123
f 111//124 108//124 105//121
f 103//1 108//1 112//1
f 109//1 103//1 112//1
f 105//8 110//8 111//8
f 110//126 107//125 112//126
f 109//125 112//126 107//125
f 111//124 113//127 108//124
f 112//1 108//1 114//1
f 110//8 115//8 111//8
f 112//126 114//128 110//126
f 116//127 108//124 113//127
f 111//8 117//8 113//8
f 114//1 108//1 118//1
f 115//8 119//8 111//8
f 115//128 110//126 114//128
f 108//1 116//1 120//1
f 113//127 121//129 116//127
f 117//8 122//8 113//8
f 119//8 117//8 111//8
f 118//1 108//1 120//1
f 118//130 119//130 114//128
f 115//128 114//128 119//130
f 120//1 116//1 123//1
f 124//129 116//127 121//129
f 113//8 125//8 121//8
f 122//8 125//8 113//8
f 122//131 117//132 123//131
f 119//130 118//130 117//132
f 120//132 117//132 118//130
f 123//1 116//1 126//1
f 120//132 123//131 117//132
f 116//1 124//1 126//1
f 121//129 127//133 124//129
f 121//8 125//8 127//8
f 125//134 122//131 126//134
f 123//131 126//134 122//131
f 124//1 128//1 126//1
f 128//133 124//129 127//133
f 127//8 125//8 129//8
f 125//135 126//135 130//135
f 128//1 131//1 126//1
f 128//133 127//133 131//136
f 129//8 125//8 132//8
f 129//136 131//136 127//133
f 133//135 130//135 126//135
f 130//8 134//8 125//8
f 131//1 135//1 126//1
f 132//8 125//8 134//8
f 132//137 135//137 129//136
f 131//136 129//136 135//137
f 130//48 133//48 134//138
f 126//1 135//1 133//1
f 134//138 136//138 132//137
f 135//137 132//137 136//138
f 136//138 134//138 133//48
f 136//1 133//1 135//1
