# SSTK version 0.8.0
# 160
mtllib original-160.mtl
o #ID1130
v 0.540072 0.055317 -0.184405
v 0.539408 0.067935 -0.182940
v 0.539408 0.055297 -0.184204
v 0.540072 0.067956 -0.183141
v 0.540072 0.067956 -0.183141
v 0.540072 0.055202 -0.183256
v 0.540072 0.067841 -0.181992
v 0.540072 0.055317 -0.184405
v 0.538339 0.055277 -0.184003
v 0.538339 0.067915 -0.182739
v 0.540072 0.067841 -0.181992
v 0.539660 0.055147 -0.182710
v 0.539660 0.067786 -0.181446
v 0.540072 0.055202 -0.183256
v 0.537625 0.067900 -0.182581
v 0.537625 0.055261 -0.183845
v 0.539119 0.067749 -0.181073
v 0.539119 0.055110 -0.182337
v 0.537214 0.055236 -0.183600
v 0.537214 0.067875 -0.182337
v 0.538535 0.055088 -0.182121
v 0.538535 0.067727 -0.180857
v 0.537214 0.055236 -0.183600
v 0.537019 0.067844 -0.182021
v 0.537019 0.055205 -0.183284
v 0.537214 0.067875 -0.182337
v 0.537993 0.055081 -0.182049
v 0.537993 0.067720 -0.180785
v 0.537019 0.055205 -0.183284
v 0.536954 0.067806 -0.181647
v 0.536954 0.055167 -0.182911
v 0.537019 0.067844 -0.182021
v 0.537538 0.067726 -0.180850
v 0.537538 0.055088 -0.182114
v 0.536954 0.055167 -0.182911
v 0.537019 0.067774 -0.181324
v 0.537019 0.055135 -0.182588
v 0.536954 0.067806 -0.181647
v 0.537214 0.055107 -0.182308
v 0.537538 0.067726 -0.180850
v 0.537538 0.055088 -0.182114
v 0.537214 0.067746 -0.181044
v 0.537214 0.055107 -0.182308
v 0.537019 0.067774 -0.181324
v 0.537214 0.067746 -0.181044
v 0.537019 0.055135 -0.182588
vn 0.2911615985083402 -0.09519260951605442 0.9519260951605394
vn 0.2388778106971657 -0.09662304993006333 0.9662304993006284
vn -0.2911615985083402 0.09519260951605442 -0.9519260951605394
vn -0.2388778106971657 0.09662304993006333 -0.9662304993006284
vn -1 0 0
vn 1 0 0
vn 0.20143630518889602 -0.09746405353871027 0.974640535387098
vn -0.20143630518889602 0.09746405353871027 -0.974640535387098
vn -0.8000000028335856 0.05970223103666319 -0.5970223103666291
vn -0.6938102054286948 0.07165838918800628 -0.7165838918800593
vn 0.8000000028335856 -0.05970223103666319 0.5970223103666291
vn 0.6938102054286948 -0.07165838918800628 0.7165838918800593
vn 0.3692968048879283 -0.09246995069309767 0.9246995069309724
vn -0.3692968048879283 0.09246995069309767 -0.9246995069309724
vn -0.4621975089524778 0.08823761028323666 -0.8823761028323625
vn 0.4621975089524778 -0.08823761028323666 0.8823761028323625
vn 0.5122783062197103 -0.08545573441451125 0.8545573441451085
vn -0.5122783062197103 0.08545573441451125 -0.8545573441451085
vn -0.24122559449794215 0.09656528149233702 -0.9656528149233657
vn 0.24122559449794215 -0.09656528149233702 0.9656528149233657
vn 0.8523227319557186 -0.052042058447384784 0.5204205844738454
vn -0.8523227319557186 0.052042058447384784 -0.5204205844738454
vn 0.004672743965005705 0.09950263270629389 -0.9950263270629346
vn -0.004672743965005705 -0.09950263270629389 0.9950263270629346
vn 0.9853505116311283 -0.01696950358039654 0.1696950358039646
vn -0.9853505116311283 0.01696950358039654 -0.1696950358039646
vn 0.14142139960090283 0.09850365564583567 -0.9850365564583522
vn -0.14142139960090283 -0.09850365564583567 0.9850365564583522
vn 0.9805806837542952 0.019514280794594795 -0.19514280794594704
vn -0.9805806837542952 -0.019514280794594795 0.19514280794594704
vn 0.514495803267262 0.08532373228645655 -0.8532373228645616
vn -0.514495803267262 -0.08532373228645655 0.8532373228645616
vn 0.82219218706475 0.05663851045561279 -0.5663851045561252
vn -0.82219218706475 -0.05663851045561279 0.5663851045561252
usemtl material_0_2
f 1//1 2//2 3//2
f 3//4 2//4 1//3
f 2//2 1//1 4//1
f 4//3 1//3 2//4
f 5//5 6//5 7//5
f 7//6 6//6 5//6
f 6//5 5//5 8//5
f 8//6 5//6 6//6
f 2//2 9//7 3//2
f 3//4 9//8 2//4
f 9//7 2//2 10//7
f 10//8 2//4 9//8
f 11//9 12//10 13//10
f 13//12 12//12 11//11
f 12//10 11//9 14//9
f 14//11 11//11 12//12
f 9//7 15//13 16//13
f 16//14 15//14 9//8
f 15//13 9//7 10//7
f 10//8 9//8 15//14
f 17//15 12//10 18//15
f 18//16 12//12 17//16
f 12//10 17//15 13//10
f 13//12 17//16 12//12
f 15//13 19//17 16//13
f 16//14 19//18 15//14
f 19//17 15//13 20//17
f 20//18 15//14 19//18
f 21//19 17//15 18//15
f 18//16 17//16 21//20
f 17//15 21//19 22//19
f 22//20 21//20 17//16
f 23//21 24//21 25//21
f 25//22 24//22 23//22
f 24//21 23//21 26//21
f 26//22 23//22 24//22
f 27//23 22//19 21//19
f 21//20 22//20 27//24
f 22//19 27//23 28//23
f 28//24 27//24 22//20
f 29//25 30//25 31//25
f 31//26 30//26 29//26
f 30//25 29//25 32//25
f 32//26 29//26 30//26
f 33//27 27//23 34//27
f 34//28 27//24 33//28
f 27//23 33//27 28//23
f 28//24 33//28 27//24
f 35//29 36//29 37//29
f 37//30 36//30 35//30
f 36//29 35//29 38//29
f 38//30 35//30 36//30
f 39//31 40//31 41//31
f 41//32 40//32 39//32
f 40//31 39//31 42//31
f 42//32 39//32 40//32
f 43//33 44//33 45//33
f 45//34 44//34 43//34
f 44//33 43//33 46//33
f 46//34 43//34 44//34
