# SSTK version 0.8.0
# 361
mtllib original-361.mtl
o #ID2336
v 0.082107 0.044850 0.047916
v 0.082781 0.031656 0.052205
v 0.082781 0.044295 0.053469
v 0.082107 0.032211 0.046652
v 0.082228 0.032289 0.045874
v 0.082781 0.031656 0.052205
v 0.082107 0.032211 0.046652
v 0.082588 0.032331 0.045455
v 0.083070 0.032342 0.045347
v 0.083262 0.031656 0.052205
v 0.083551 0.032326 0.045503
v 0.084032 0.032206 0.046700
v 0.083911 0.032282 0.045946
v 0.083262 0.044295 0.053469
v 0.082781 0.031656 0.052205
v 0.083262 0.031656 0.052205
v 0.082781 0.044295 0.053469
v 0.082781 0.044295 0.053469
v 0.082228 0.044928 0.047138
v 0.082107 0.044850 0.047916
v 0.082588 0.044970 0.046719
v 0.083070 0.044980 0.046611
v 0.083262 0.044295 0.053469
v 0.083551 0.044965 0.046767
v 0.084032 0.044845 0.047964
v 0.083911 0.044921 0.047210
v 0.082228 0.044928 0.047138
v 0.082228 0.032289 0.045874
v 0.084032 0.032206 0.046700
v 0.083262 0.044295 0.053469
v 0.083262 0.031656 0.052205
v 0.084032 0.044845 0.047964
v 0.082588 0.044970 0.046719
v 0.082228 0.032289 0.045874
v 0.082228 0.044928 0.047138
v 0.082588 0.032331 0.045455
v 0.082588 0.044970 0.046719
v 0.083070 0.032342 0.045347
v 0.082588 0.032331 0.045455
v 0.083070 0.044980 0.046611
v 0.083070 0.032342 0.045347
v 0.083551 0.044965 0.046767
v 0.083551 0.032326 0.045503
v 0.083070 0.044980 0.046611
v 0.083551 0.032326 0.045503
v 0.083911 0.044921 0.047210
v 0.083911 0.032282 0.045946
v 0.083551 0.044965 0.046767
v 0.083911 0.032282 0.045946
v 0.083911 0.044921 0.047210
vn -0.9998676416155282 0.001618883768361358 -0.01618883768361348
vn -0.9927956082278482 -0.011922555495344676 0.11922555495344621
vn 0.9998676416155282 -0.001618883768361358 0.01618883768361348
vn 0.9927956082278482 0.011922555495344676 -0.11922555495344621
vn 0 -0.995037190209989 -0.09950371902099936
vn 0 0.995037190209989 0.09950371902099936
vn 0 -0.09950371902099936 0.995037190209989
vn 0 0.09950371902099936 -0.995037190209989
vn -0.9883716955633207 0.01513025668713788 -0.15130256687137805
vn 0.9883716955633207 -0.01513025668713788 0.15130256687137805
vn 0.9999540456312089 0.0009539216906333193 -0.009539216906333166
vn 0.990459642972035 -0.013711921402618066 0.13711921402618
vn -0.9999540456312089 -0.0009539216906333193 0.009539216906333166
vn -0.990459642972035 0.013711921402618066 -0.13711921402618
vn -0.7592565914115006 0.06475616323725367 -0.6475616323725332
vn 0.7592565914115006 -0.06475616323725367 0.6475616323725332
vn -0.219512192418556 0.09707679910540194 -0.970767991054015
vn 0.219512192418556 -0.09707679910540194 0.970767991054015
vn 0.3090860909162332 0.09463142615359174 -0.9463142615359125
vn -0.3090860909162332 -0.09463142615359174 0.9463142615359125
vn 0.7767557120858034 0.0626676416053535 -0.6266764160535321
vn -0.7767557120858034 -0.0626676416053535 0.6266764160535321
vn 0.9876355348472882 0.015598949668535289 -0.15598949668535217
vn -0.9876355348472882 -0.015598949668535289 0.15598949668535217
usemtl material_0_2
f 1//1 2//2 3//2
f 3//4 2//4 1//3
f 2//2 1//1 4//1
f 4//3 1//3 2//4
f 5//5 6//5 7//5
f 7//6 6//6 5//6
f 6//5 5//5 8//5
f 8//6 5//6 6//6
f 6//5 8//5 9//5
f 9//6 8//6 6//6
f 6//5 9//5 10//5
f 10//6 9//6 6//6
f 10//5 9//5 11//5
f 11//6 9//6 10//6
f 10//5 11//5 12//5
f 12//6 11//6 10//6
f 12//5 11//5 13//5
f 13//6 11//6 12//6
f 14//7 15//7 16//7
f 16//8 15//8 14//8
f 15//7 14//7 17//7
f 17//8 14//8 15//8
f 18//6 19//6 20//6
f 20//5 19//5 18//5
f 19//6 18//6 21//6
f 21//5 18//5 19//5
f 21//6 18//6 22//6
f 22//5 18//5 21//5
f 22//6 18//6 23//6
f 23//5 18//5 22//5
f 22//6 23//6 24//6
f 24//5 23//5 22//5
f 24//6 23//6 25//6
f 25//5 23//5 24//5
f 24//6 25//6 26//6
f 26//5 25//5 24//5
f 27//9 4//1 1//1
f 1//3 4//3 27//10
f 4//1 27//9 28//9
f 28//10 27//10 4//3
f 29//11 30//12 31//12
f 31//14 30//14 29//13
f 30//12 29//11 32//11
f 32//13 29//13 30//14
f 33//15 34//15 35//15
f 35//16 34//16 33//16
f 34//15 33//15 36//15
f 36//16 33//16 34//16
f 37//17 38//17 39//17
f 39//18 38//18 37//18
f 38//17 37//17 40//17
f 40//18 37//18 38//18
f 41//19 42//19 43//19
f 43//20 42//20 41//20
f 42//19 41//19 44//19
f 44//20 41//20 42//20
f 45//21 46//21 47//21
f 47//22 46//22 45//22
f 46//21 45//21 48//21
f 48//22 45//22 46//22
f 49//23 32//11 29//11
f 29//13 32//13 49//24
f 32//11 49//23 50//23
f 50//24 49//24 32//13
