# SSTK version 0.8.0
# 224
mtllib original-224.mtl
o #ID1514
v 0.368094 0.056209 -0.193329
v 0.367509 0.055980 -0.191038
v 0.367509 0.056129 -0.192532
v 0.368087 0.056083 -0.192065
v 0.368779 0.056150 -0.192733
v 0.368809 0.056264 -0.193882
v 0.369617 0.056182 -0.193056
v 0.369653 0.056297 -0.194205
v 0.370627 0.056181 -0.193049
v 0.370627 0.056308 -0.194313
v 0.367509 0.056296 -0.194198
v 0.366355 0.055653 -0.187763
v 0.366355 0.056296 -0.194198
v 0.367509 0.055653 -0.187763
v 0.370627 0.056181 -0.193049
v 0.369617 0.068821 -0.191792
v 0.369617 0.056182 -0.193056
v 0.370627 0.068820 -0.191785
v 0.369617 0.068821 -0.191792
v 0.368779 0.056150 -0.192733
v 0.369617 0.056182 -0.193056
v 0.368779 0.068788 -0.191469
v 0.368779 0.056150 -0.192733
v 0.368087 0.068722 -0.190801
v 0.368087 0.056083 -0.192065
v 0.368779 0.068788 -0.191469
v 0.367509 0.068619 -0.189774
v 0.367509 0.055980 -0.191038
v 0.367509 0.055980 -0.191038
v 0.367509 0.068291 -0.186500
v 0.367509 0.055653 -0.187763
v 0.367509 0.068619 -0.189774
v 0.367509 0.068291 -0.186500
v 0.366355 0.055653 -0.187763
v 0.367509 0.055653 -0.187763
v 0.366355 0.068291 -0.186500
v 0.366355 0.068935 -0.192934
v 0.366355 0.055653 -0.187763
v 0.366355 0.068291 -0.186500
v 0.366355 0.056296 -0.194198
v 0.366355 0.068935 -0.192934
v 0.367509 0.056296 -0.194198
v 0.366355 0.056296 -0.194198
v 0.367509 0.068935 -0.192934
v 0.367509 0.056296 -0.194198
v 0.367509 0.068768 -0.191268
v 0.367509 0.056129 -0.192532
v 0.367509 0.068935 -0.192934
v 0.368094 0.068848 -0.192065
v 0.367509 0.056129 -0.192532
v 0.367509 0.068768 -0.191268
v 0.368094 0.056209 -0.193329
v 0.368809 0.056264 -0.193882
v 0.368809 0.068903 -0.192618
v 0.369653 0.068936 -0.192941
v 0.369653 0.056297 -0.194205
v 0.370627 0.056308 -0.194313
v 0.370627 0.068946 -0.193049
v 0.370627 0.056308 -0.194313
v 0.370627 0.068820 -0.191785
v 0.370627 0.056181 -0.193049
v 0.370627 0.068946 -0.193049
v 0.368087 0.068722 -0.190801
v 0.367509 0.068768 -0.191268
v 0.367509 0.068619 -0.189774
v 0.368094 0.068848 -0.192065
v 0.368779 0.068788 -0.191469
v 0.368809 0.068903 -0.192618
v 0.369617 0.068821 -0.191792
v 0.369653 0.068936 -0.192941
v 0.370627 0.068820 -0.191785
v 0.370627 0.068946 -0.193049
v 0.367509 0.068291 -0.186500
v 0.366355 0.068935 -0.192934
v 0.366355 0.068291 -0.186500
v 0.367509 0.068935 -0.192934
vn 0 -0.995037190209989 -0.09950371902099936
vn 0 0.995037190209989 0.09950371902099936
vn -0.007142675004357995 -0.09950118075789732 0.9950118075789688
vn 0.007142675004357995 0.09950118075789732 -0.9950118075789688
vn 0.3616704110728236 -0.09276791619302582 0.927679161930254
vn -0.3616704110728236 0.09276791619302582 -0.927679161930254
vn 0.6957952225827384 -0.0714675726667809 0.7146757266678055
vn 0.7926419767881941 -0.06066616136680517 0.6066616136680487
vn -0.6957952225827384 0.0714675726667809 -0.7146757266678055
vn -0.7926419767881941 0.06066616136680517 -0.6066616136680487
vn 0.872714061367948 -0.04858086726545747 0.4858086726545724
vn -0.872714061367948 0.04858086726545747 -0.4858086726545724
vn 1 0 0
vn -1 0 0
vn 0 -0.09950371902099936 0.995037190209989
vn 0 0.09950371902099936 -0.995037190209989
vn -0.7178568963724202 0.06927356276619809 -0.6927356276619777
vn -0.8077909197342752 0.05865436855379257 -0.586543685537923
vn 0.7178568963724202 -0.06927356276619809 0.6927356276619777
vn 0.8077909197342752 -0.05865436855379257 0.586543685537923
vn -0.49175878830828773 0.08664101960637004 -0.8664101960636967
vn 0.49175878830828773 -0.08664101960637004 0.8664101960636967
vn -0.2366490987436091 0.09667733431849045 -0.9667733431848999
vn 0.2366490987436091 -0.09667733431849045 0.9667733431848999
vn -0.1104315051968938 0.09889512810533127 -0.9889512810533078
vn 0.1104315051968938 -0.09889512810533127 0.9889512810533078
usemtl material_0_2
f 1//1 2//1 3//1
f 3//2 2//2 1//2
f 2//1 1//1 4//1
f 4//2 1//2 2//2
f 4//1 1//1 5//1
f 5//2 1//2 4//2
f 5//1 1//1 6//1
f 6//2 1//2 5//2
f 5//1 6//1 7//1
f 7//2 6//2 5//2
f 7//1 6//1 8//1
f 8//2 6//2 7//2
f 7//1 8//1 9//1
f 9//2 8//2 7//2
f 9//1 8//1 10//1
f 10//2 8//2 9//2
f 11//1 12//1 13//1
f 13//2 12//2 11//2
f 12//1 11//1 14//1
f 14//2 11//2 12//2
f 14//1 11//1 3//1
f 3//2 11//2 14//2
f 14//1 3//1 2//1
f 2//2 3//2 14//2
f 15//3 16//3 17//3
f 17//4 16//4 15//4
f 16//3 15//3 18//3
f 18//4 15//4 16//4
f 19//5 20//5 21//5
f 21//6 20//6 19//6
f 20//5 19//5 22//5
f 22//6 19//6 20//6
f 23//7 24//8 25//8
f 25//10 24//10 23//9
f 24//8 23//7 26//7
f 26//9 23//9 24//10
f 25//8 27//11 28//11
f 28//12 27//12 25//10
f 27//11 25//8 24//8
f 24//10 25//10 27//12
f 29//13 30//13 31//13
f 31//14 30//14 29//14
f 30//13 29//13 32//13
f 32//14 29//14 30//14
f 33//15 34//15 35//15
f 35//16 34//16 33//16
f 34//15 33//15 36//15
f 36//16 33//16 34//16
f 37//14 38//14 39//14
f 39//13 38//13 37//13
f 38//14 37//14 40//14
f 40//13 37//13 38//13
f 41//16 42//16 43//16
f 43//15 42//15 41//15
f 42//16 41//16 44//16
f 44//15 41//15 42//15
f 45//13 46//13 47//13
f 47//14 46//14 45//14
f 46//13 45//13 48//13
f 48//14 45//14 46//14
f 49//17 50//18 51//18
f 51//20 50//20 49//19
f 50//18 49//17 52//17
f 52//19 49//19 50//20
f 49//17 53//21 52//17
f 52//19 53//22 49//19
f 53//21 49//17 54//21
f 54//22 49//19 53//22
f 53//21 55//23 56//23
f 56//24 55//24 53//22
f 55//23 53//21 54//21
f 54//22 53//22 55//24
f 55//23 57//25 56//23
f 56//24 57//26 55//24
f 57//25 55//23 58//25
f 58//26 55//24 57//26
f 59//13 60//13 61//13
f 61//14 60//14 59//14
f 60//13 59//13 62//13
f 62//14 59//14 60//14
f 63//2 64//2 65//2
f 65//1 64//1 63//1
f 64//2 63//2 66//2
f 66//1 63//1 64//1
f 66//2 63//2 67//2
f 67//1 63//1 66//1
f 66//2 67//2 68//2
f 68//1 67//1 66//1
f 68//2 67//2 69//2
f 69//1 67//1 68//1
f 68//2 69//2 70//2
f 70//1 69//1 68//1
f 70//2 69//2 71//2
f 71//1 69//1 70//1
f 70//2 71//2 72//2
f 72//1 71//1 70//1
f 73//2 74//2 75//2
f 75//1 74//1 73//1
f 74//2 73//2 76//2
f 76//1 73//1 74//1
f 76//2 73//2 65//2
f 65//1 73//1 76//1
f 76//2 65//2 64//2
f 64//1 65//1 76//1
