# SSTK version 0.8.0
# 326
mtllib original-326.mtl
o #ID2126
v -0.108777 0.051726 -0.020848
v -0.108777 0.052312 -0.026700
v -0.108903 0.052019 -0.023777
v -0.108398 0.051478 -0.018364
v -0.108398 0.052559 -0.029172
v -0.107766 0.051274 -0.016324
v -0.107766 0.052761 -0.031191
v -0.106882 0.051114 -0.014728
v -0.106882 0.052917 -0.032758
v -0.105779 0.050994 -0.013526
v -0.105779 0.053035 -0.033931
v -0.105670 0.052019 -0.023777
v -0.105350 0.051552 -0.019102
v -0.104491 0.050908 -0.012667
v -0.104950 0.051390 -0.017480
v -0.104390 0.051275 -0.016337
v -0.103018 0.050857 -0.012152
v -0.102992 0.051139 -0.014980
v -0.101359 0.050840 -0.011980
v -0.102205 0.051106 -0.014640
v -0.101359 0.051094 -0.014527
v -0.099704 0.050857 -0.012152
v -0.100517 0.051106 -0.014640
v -0.099742 0.051139 -0.014980
v -0.098395 0.051275 -0.016337
v -0.098244 0.050908 -0.012667
v -0.097865 0.051390 -0.017480
v -0.096976 0.050994 -0.013526
v -0.097486 0.051552 -0.019102
v -0.097183 0.052019 -0.023777
v -0.105350 0.052485 -0.028435
v -0.104491 0.053118 -0.034768
v -0.104950 0.052645 -0.030035
v -0.104390 0.052756 -0.031149
v -0.103018 0.053169 -0.035271
v -0.102992 0.052887 -0.032456
v -0.101359 0.053185 -0.035439
v -0.102205 0.052920 -0.032783
v -0.101359 0.052931 -0.032892
v -0.100517 0.052920 -0.032783
v -0.099704 0.053169 -0.035271
v -0.099742 0.052887 -0.032456
v -0.098395 0.052756 -0.031149
v -0.098244 0.053118 -0.034768
v -0.097865 0.052645 -0.030035
v -0.096976 0.053035 -0.033931
v -0.097486 0.052485 -0.028435
v -0.095903 0.051114 -0.014728
v -0.095903 0.052917 -0.032758
v -0.095048 0.051274 -0.016324
v -0.095048 0.052761 -0.031191
v -0.094438 0.051478 -0.018364
v -0.094438 0.052559 -0.029172
v -0.094072 0.051726 -0.020848
v -0.094072 0.052312 -0.026700
v -0.093950 0.052019 -0.023777
v -0.093950 0.039380 -0.025040
v -0.094072 0.051726 -0.020848
v -0.094072 0.039088 -0.022112
v -0.093950 0.052019 -0.023777
v -0.094072 0.039673 -0.027964
v -0.094072 0.052312 -0.026700
v -0.094438 0.039920 -0.030436
v -0.094438 0.052559 -0.029172
v -0.095048 0.052761 -0.031191
v -0.095048 0.040122 -0.032455
v -0.095903 0.052917 -0.032758
v -0.095903 0.040278 -0.034022
v -0.096976 0.040396 -0.035195
v -0.096976 0.053035 -0.033931
v -0.098244 0.053118 -0.034768
v -0.098244 0.040480 -0.036032
v -0.099704 0.053169 -0.035271
v -0.099704 0.040530 -0.036535
v -0.101359 0.040547 -0.036703
v -0.101359 0.053185 -0.035439
v -0.103018 0.053169 -0.035271
v -0.103018 0.040530 -0.036535
v -0.104491 0.040480 -0.036032
v -0.104491 0.053118 -0.034768
v -0.105779 0.040396 -0.035195
v -0.105779 0.053035 -0.033931
v -0.106882 0.040278 -0.034022
v -0.106882 0.052917 -0.032758
v -0.107766 0.040122 -0.032455
v -0.107766 0.052761 -0.031191
v -0.108398 0.039920 -0.030436
v -0.108398 0.052559 -0.029172
v -0.108777 0.039673 -0.027964
v -0.108777 0.052312 -0.026700
v -0.108903 0.039380 -0.025040
v -0.108903 0.052019 -0.023777
v -0.108777 0.051726 -0.020848
v -0.108777 0.039088 -0.022112
v -0.108398 0.038839 -0.019628
v -0.108398 0.051478 -0.018364
v -0.107766 0.038635 -0.017588
v -0.107766 0.051274 -0.016324
v -0.106882 0.038476 -0.015992
v -0.106882 0.051114 -0.014728
v -0.105779 0.038355 -0.014790
v -0.105779 0.050994 -0.013526
v -0.104491 0.050908 -0.012667
v -0.104491 0.038269 -0.013931
v -0.103018 0.050857 -0.012152
v -0.103018 0.038218 -0.013416
v -0.101359 0.050840 -0.011980
v -0.101359 0.038201 -0.013244
v -0.099704 0.050857 -0.012152
v -0.099704 0.038218 -0.013416
v -0.098244 0.038269 -0.013931
v -0.098244 0.050908 -0.012667
v -0.096976 0.038355 -0.014790
v -0.096976 0.050994 -0.013526
v -0.095903 0.038476 -0.015992
v -0.095903 0.051114 -0.014728
v -0.095048 0.038635 -0.017588
v -0.095048 0.051274 -0.016324
v -0.094438 0.038839 -0.019628
v -0.094438 0.051478 -0.018364
v -0.108777 0.039673 -0.027964
v -0.108777 0.039088 -0.022112
v -0.108903 0.039380 -0.025040
v -0.108398 0.039920 -0.030436
v -0.108398 0.038839 -0.019628
v -0.107766 0.040122 -0.032455
v -0.107766 0.038635 -0.017588
v -0.106882 0.040278 -0.034022
v -0.106882 0.038476 -0.015992
v -0.105779 0.040396 -0.035195
v -0.105779 0.038355 -0.014790
v -0.105670 0.039380 -0.025040
v -0.105350 0.039846 -0.029699
v -0.104491 0.040480 -0.036032
v -0.104950 0.040006 -0.031299
v -0.104390 0.040118 -0.032413
v -0.103018 0.040530 -0.036535
v -0.102992 0.040248 -0.033720
v -0.101359 0.040547 -0.036703
v -0.102205 0.040281 -0.034047
v -0.101359 0.040292 -0.034156
v -0.099704 0.040530 -0.036535
v -0.100517 0.040281 -0.034047
v -0.099742 0.040248 -0.033720
v -0.098395 0.040118 -0.032413
v -0.098244 0.040480 -0.036032
v -0.097865 0.040006 -0.031299
v -0.096976 0.040396 -0.035195
v -0.097486 0.039846 -0.029699
v -0.097183 0.039380 -0.025040
v -0.105350 0.038913 -0.020366
v -0.104491 0.038269 -0.013931
v -0.104950 0.038751 -0.018744
v -0.104390 0.038636 -0.017601
v -0.103018 0.038218 -0.013416
v -0.102992 0.038501 -0.016244
v -0.101359 0.038201 -0.013244
v -0.102205 0.038467 -0.015904
v -0.101359 0.038455 -0.015791
v -0.100517 0.038467 -0.015904
v -0.099704 0.038218 -0.013416
v -0.099742 0.038501 -0.016244
v -0.098395 0.038636 -0.017601
v -0.098244 0.038269 -0.013931
v -0.097865 0.038751 -0.018744
v -0.096976 0.038355 -0.014790
v -0.097486 0.038913 -0.020366
v -0.095903 0.040278 -0.034022
v -0.095903 0.038476 -0.015992
v -0.095048 0.040122 -0.032455
v -0.095048 0.038635 -0.017588
v -0.094438 0.039920 -0.030436
v -0.094438 0.038839 -0.019628
v -0.094072 0.039673 -0.027964
v -0.094072 0.039088 -0.022112
v -0.093950 0.039380 -0.025040
vn 0 0.995037190209989 0.09950371902099936
vn 0 -0.995037190209989 -0.09950371902099936
vn 1 0.000002952070335348168 -0.00002952070335347718
vn 0.9956256860087652 -0.009296807372562357 0.09296807372562313
vn -1 -0.000002952070335348168 0.00002952070335347718
vn -0.9956256860087652 0.009296807372562357 -0.09296807372562313
vn 0.9955887245845657 0.00933591568004609 -0.09335915680046049
vn -0.9955887245845657 -0.00933591568004609 0.09335915680046049
vn 0.9760477280925187 0.021647681257265634 -0.2164768125726553
vn -0.9760477280925187 -0.021647681257265634 0.2164768125726553
vn 0.9230924147959422 0.03826696139126765 -0.38266961391267473
vn -0.9230924147959422 -0.03826696139126765 0.38266961391267473
vn 0.8150427003512032 0.0576525438117226 -0.5765254381172235
vn -0.8150427003512032 -0.0576525438117226 0.5765254381172235
vn 0.6512879167322315 0.07550647795424834 -0.7550647795424802
vn -0.6512879167322315 -0.07550647795424834 0.7550647795424802
vn 0.4436860076257854 0.08917347242608491 -0.8917347242608451
vn -0.4436860076257854 -0.08917347242608491 0.8917347242608451
vn 0.215486103633434 0.09716606888203821 -0.9716606888203781
vn -0.215486103633434 -0.09716606888203821 0.9716606888203781
vn 0.0001278429002131059 0.09950371820786455 -0.9950371820786411
vn -0.0001278429002131059 -0.09950371820786455 0.9950371820786411
vn -0.21406720955413036 0.09719711674174335 -0.9719711674174291
vn 0.21406720955413036 -0.09719711674174335 0.9719711674174291
vn -0.439101005906203 0.08939789278156303 -0.8939789278156263
vn 0.439101005906203 -0.08939789278156303 0.8939789278156263
vn -0.6432590295167275 0.0761848859094874 -0.7618488590948707
vn 0.6432590295167275 -0.0761848859094874 0.7618488590948707
vn -0.8068985919648517 0.058775850624934255 -0.5877585062493398
vn 0.8068985919648517 -0.058775850624934255 0.5877585062493398
vn -0.9184449687142322 0.03935857492634635 -0.39358574926346157
vn 0.9184449687142322 -0.03935857492634635 0.39358574926346157
vn -0.9744495234739494 0.02234919233515156 -0.22349192335151455
vn 0.9744495234739494 -0.02234919233515156 0.22349192335151455
vn -0.9952832446917004 0.009653021296880636 -0.09653021296880591
vn 0.9952832446917004 -0.009653021296880636 0.09653021296880591
vn -1 0.000003053497460119624 -0.00003053497460120919
vn 1 -0.000003053497460119624 0.00003053497460120919
vn -0.9953227249742288 -0.009612632545469183 0.09612632545469137
vn 0.9953227249742288 0.009612632545469183 -0.09612632545469137
vn -0.9748600368932597 -0.022171230236116748 0.2217123023611664
vn 0.9748600368932597 0.022171230236116748 -0.2217123023611664
vn -0.9205662790301135 -0.03886479813132496 0.3886479813132477
vn 0.9205662790301135 0.03886479813132496 -0.3886479813132477
vn -0.812819097598071 -0.05796252754841356 0.5796252754841328
vn 0.812819097598071 0.05796252754841356 -0.5796252754841328
vn -0.6522757043584452 -0.07542200781212914 0.7542200781212878
vn 0.6522757043584452 0.07542200781212914 -0.7542200781212878
vn -0.44762199238293804 -0.08897850179417502 0.8897850179417459
vn 0.44762199238293804 0.08897850179417502 -0.8897850179417459
vn -0.21902719208440177 -0.09708764485474913 0.9708764485474869
vn 0.21902719208440177 0.09708764485474913 -0.9708764485474869
vn 0.00013097120016530029 -0.09950371816758308 0.9950371816758262
vn -0.00013097120016530029 0.09950371816758308 -0.9950371816758262
vn 0.22047280701695837 -0.0970552430914748 0.9705524309147434
vn -0.22047280701695837 0.0970552430914748 -0.9705524309147434
vn 0.45224059560169105 -0.08874696724366904 0.8874696724366861
vn -0.45224059560169105 0.08874696724366904 -0.8874696724366861
vn 0.6602388806959941 -0.07473283242160375 0.7473283242160337
vn -0.6602388806959941 0.07473283242160375 -0.7473283242160337
vn 0.8207993783574408 -0.056838174008619256 0.5683817400861898
vn -0.8207993783574408 0.056838174008619256 -0.5683817400861898
vn 0.92511197821432 -0.037781003630011946 0.3778100363001177
vn -0.92511197821432 0.037781003630011946 -0.3778100363001177
vn 0.9764339638971172 -0.021474533420435024 0.21474533420434924
vn -0.9764339638971172 0.021474533420435024 -0.21474533420434924
usemtl material_0_2
f 1//1 2//1 3//1
f 3//2 2//2 1//2
f 2//1 1//1 4//1
f 4//2 1//2 2//2
f 2//1 4//1 5//1
f 5//2 4//2 2//2
f 5//1 4//1 6//1
f 6//2 4//2 5//2
f 5//1 6//1 7//1
f 7//2 6//2 5//2
f 7//1 6//1 8//1
f 8//2 6//2 7//2
f 7//1 8//1 9//1
f 9//2 8//2 7//2
f 9//1 8//1 10//1
f 10//2 8//2 9//2
f 9//1 10//1 11//1
f 11//2 10//2 9//2
f 11//1 10//1 12//1
f 12//2 10//2 11//2
f 12//1 10//1 13//1
f 13//2 10//2 12//2
f 13//1 10//1 14//1
f 14//2 10//2 13//2
f 13//1 14//1 15//1
f 15//2 14//2 13//2
f 15//1 14//1 16//1
f 16//2 14//2 15//2
f 16//1 14//1 17//1
f 17//2 14//2 16//2
f 16//1 17//1 18//1
f 18//2 17//2 16//2
f 18//1 17//1 19//1
f 19//2 17//2 18//2
f 18//1 19//1 20//1
f 20//2 19//2 18//2
f 20//1 19//1 21//1
f 21//2 19//2 20//2
f 21//1 19//1 22//1
f 22//2 19//2 21//2
f 21//1 22//1 23//1
f 23//2 22//2 21//2
f 23//1 22//1 24//1
f 24//2 22//2 23//2
f 24//1 22//1 25//1
f 25//2 22//2 24//2
f 25//1 22//1 26//1
f 26//2 22//2 25//2
f 25//1 26//1 27//1
f 27//2 26//2 25//2
f 27//1 26//1 28//1
f 28//2 26//2 27//2
f 27//1 28//1 29//1
f 29//2 28//2 27//2
f 29//1 28//1 30//1
f 30//2 28//2 29//2
f 11//1 31//1 32//1
f 32//2 31//2 11//2
f 31//1 11//1 12//1
f 12//2 11//2 31//2
f 32//1 31//1 33//1
f 33//2 31//2 32//2
f 32//1 33//1 34//1
f 34//2 33//2 32//2
f 32//1 34//1 35//1
f 35//2 34//2 32//2
f 35//1 34//1 36//1
f 36//2 34//2 35//2
f 35//1 36//1 37//1
f 37//2 36//2 35//2
f 37//1 36//1 38//1
f 38//2 36//2 37//2
f 37//1 38//1 39//1
f 39//2 38//2 37//2
f 37//1 39//1 40//1
f 40//2 39//2 37//2
f 37//1 40//1 41//1
f 41//2 40//2 37//2
f 41//1 40//1 42//1
f 42//2 40//2 41//2
f 41//1 42//1 43//1
f 43//2 42//2 41//2
f 41//1 43//1 44//1
f 44//2 43//2 41//2
f 44//1 43//1 45//1
f 45//2 43//2 44//2
f 44//1 45//1 46//1
f 46//2 45//2 44//2
f 46//1 45//1 47//1
f 47//2 45//2 46//2
f 46//1 47//1 30//1
f 30//2 47//2 46//2
f 46//1 30//1 28//1
f 28//2 30//2 46//2
f 46//1 28//1 48//1
f 48//2 28//2 46//2
f 46//1 48//1 49//1
f 49//2 48//2 46//2
f 49//1 48//1 50//1
f 50//2 48//2 49//2
f 49//1 50//1 51//1
f 51//2 50//2 49//2
f 51//1 50//1 52//1
f 52//2 50//2 51//2
f 51//1 52//1 53//1
f 53//2 52//2 51//2
f 53//1 52//1 54//1
f 54//2 52//2 53//2
f 53//1 54//1 55//1
f 55//2 54//2 53//2
f 55//1 54//1 56//1
f 56//2 54//2 55//2
f 57//3 58//4 59//4
f 59//6 58//6 57//5
f 58//4 57//3 60//3
f 60//5 57//5 58//6
f 61//7 60//3 57//3
f 57//5 60//5 61//8
f 60//3 61//7 62//7
f 62//8 61//8 60//5
f 63//9 62//7 61//7
f 61//8 62//8 63//10
f 62//7 63//9 64//9
f 64//10 63//10 62//8
f 63//9 65//11 64//9
f 64//10 65//12 63//10
f 65//11 63//9 66//11
f 66//12 63//10 65//12
f 66//11 67//13 65//11
f 65//12 67//14 66//12
f 67//13 66//11 68//13
f 68//14 66//12 67//14
f 69//15 67//13 68//13
f 68//14 67//14 69//16
f 67//13 69//15 70//15
f 70//16 69//16 67//14
f 71//17 69//15 72//17
f 72//18 69//16 71//18
f 69//15 71//17 70//15
f 70//16 71//18 69//16
f 73//19 72//17 74//19
f 74//20 72//18 73//20
f 72//17 73//19 71//17
f 71//18 73//20 72//18
f 75//21 73//19 74//19
f 74//20 73//20 75//22
f 73//19 75//21 76//21
f 76//22 75//22 73//20
f 77//23 75//21 78//23
f 78//24 75//22 77//24
f 75//21 77//23 76//21
f 76//22 77//24 75//22
f 79//25 77//23 78//23
f 78//24 77//24 79//26
f 77//23 79//25 80//25
f 80//26 79//26 77//24
f 81//27 80//25 79//25
f 79//26 80//26 81//28
f 80//25 81//27 82//27
f 82//28 81//28 80//26
f 82//27 83//29 84//29
f 84//30 83//30 82//28
f 83//29 82//27 81//27
f 81//28 82//28 83//30
f 84//29 85//31 86//31
f 86//32 85//32 84//30
f 85//31 84//29 83//29
f 83//30 84//30 85//32
f 86//31 87//33 88//33
f 88//34 87//34 86//32
f 87//33 86//31 85//31
f 85//32 86//32 87//34
f 88//33 89//35 90//35
f 90//36 89//36 88//34
f 89//35 88//33 87//33
f 87//34 88//34 89//36
f 90//35 91//37 92//37
f 92//38 91//38 90//36
f 91//37 90//35 89//35
f 89//36 90//36 91//38
f 93//39 91//37 94//39
f 94//40 91//38 93//40
f 91//37 93//39 92//37
f 92//38 93//40 91//38
f 93//39 95//41 96//41
f 96//42 95//42 93//40
f 95//41 93//39 94//39
f 94//40 93//40 95//42
f 96//41 97//43 98//43
f 98//44 97//44 96//42
f 97//43 96//41 95//41
f 95//42 96//42 97//44
f 98//43 99//45 100//45
f 100//46 99//46 98//44
f 99//45 98//43 97//43
f 97//44 98//44 99//46
f 100//45 101//47 102//47
f 102//48 101//48 100//46
f 101//47 100//45 99//45
f 99//46 100//46 101//48
f 103//49 101//47 104//49
f 104//50 101//48 103//50
f 101//47 103//49 102//47
f 102//48 103//50 101//48
f 105//51 104//49 106//51
f 106//52 104//50 105//52
f 104//49 105//51 103//49
f 103//50 105//52 104//50
f 107//53 106//51 108//53
f 108//54 106//52 107//54
f 106//51 107//53 105//51
f 105//52 107//54 106//52
f 109//55 108//53 110//55
f 110//56 108//54 109//56
f 108//53 109//55 107//53
f 107//54 109//56 108//54
f 111//57 109//55 110//55
f 110//56 109//56 111//58
f 109//55 111//57 112//57
f 112//58 111//58 109//56
f 113//59 112//57 111//57
f 111//58 112//58 113//60
f 112//57 113//59 114//59
f 114//60 113//60 112//58
f 115//61 114//59 113//59
f 113//60 114//60 115//62
f 114//59 115//61 116//61
f 116//62 115//62 114//60
f 117//63 116//61 115//61
f 115//62 116//62 117//64
f 116//61 117//63 118//63
f 118//64 117//64 116//62
f 119//65 118//63 117//63
f 117//64 118//64 119//66
f 118//63 119//65 120//65
f 120//66 119//66 118//64
f 59//4 120//65 119//65
f 119//66 120//66 59//6
f 120//65 59//4 58//4
f 58//6 59//6 120//66
f 121//2 122//2 123//2
f 123//1 122//1 121//1
f 122//2 121//2 124//2
f 124//1 121//1 122//1
f 122//2 124//2 125//2
f 125//1 124//1 122//1
f 125//2 124//2 126//2
f 126//1 124//1 125//1
f 125//2 126//2 127//2
f 127//1 126//1 125//1
f 127//2 126//2 128//2
f 128//1 126//1 127//1
f 127//2 128//2 129//2
f 129//1 128//1 127//1
f 129//2 128//2 130//2
f 130//1 128//1 129//1
f 129//2 130//2 131//2
f 131//1 130//1 129//1
f 131//2 130//2 132//2
f 132//1 130//1 131//1
f 132//2 130//2 133//2
f 133//1 130//1 132//1
f 133//2 130//2 134//2
f 134//1 130//1 133//1
f 133//2 134//2 135//2
f 135//1 134//1 133//1
f 135//2 134//2 136//2
f 136//1 134//1 135//1
f 136//2 134//2 137//2
f 137//1 134//1 136//1
f 136//2 137//2 138//2
f 138//1 137//1 136//1
f 138//2 137//2 139//2
f 139//1 137//1 138//1
f 138//2 139//2 140//2
f 140//1 139//1 138//1
f 140//2 139//2 141//2
f 141//1 139//1 140//1
f 141//2 139//2 142//2
f 142//1 139//1 141//1
f 141//2 142//2 143//2
f 143//1 142//1 141//1
f 143//2 142//2 144//2
f 144//1 142//1 143//1
f 144//2 142//2 145//2
f 145//1 142//1 144//1
f 145//2 142//2 146//2
f 146//1 142//1 145//1
f 145//2 146//2 147//2
f 147//1 146//1 145//1
f 147//2 146//2 148//2
f 148//1 146//1 147//1
f 147//2 148//2 149//2
f 149//1 148//1 147//1
f 149//2 148//2 150//2
f 150//1 148//1 149//1
f 131//2 151//2 152//2
f 152//1 151//1 131//1
f 151//2 131//2 132//2
f 132//1 131//1 151//1
f 152//2 151//2 153//2
f 153//1 151//1 152//1
f 152//2 153//2 154//2
f 154//1 153//1 152//1
f 152//2 154//2 155//2
f 155//1 154//1 152//1
f 155//2 154//2 156//2
f 156//1 154//1 155//1
f 155//2 156//2 157//2
f 157//1 156//1 155//1
f 157//2 156//2 158//2
f 158//1 156//1 157//1
f 157//2 158//2 159//2
f 159//1 158//1 157//1
f 157//2 159//2 160//2
f 160//1 159//1 157//1
f 157//2 160//2 161//2
f 161//1 160//1 157//1
f 161//2 160//2 162//2
f 162//1 160//1 161//1
f 161//2 162//2 163//2
f 163//1 162//1 161//1
f 161//2 163//2 164//2
f 164//1 163//1 161//1
f 164//2 163//2 165//2
f 165//1 163//1 164//1
f 164//2 165//2 166//2
f 166//1 165//1 164//1
f 166//2 165//2 167//2
f 167//1 165//1 166//1
f 166//2 167//2 150//2
f 150//1 167//1 166//1
f 166//2 150//2 148//2
f 148//1 150//1 166//1
f 166//2 148//2 168//2
f 168//1 148//1 166//1
f 166//2 168//2 169//2
f 169//1 168//1 166//1
f 169//2 168//2 170//2
f 170//1 168//1 169//1
f 169//2 170//2 171//2
f 171//1 170//1 169//1
f 171//2 170//2 172//2
f 172//1 170//1 171//1
f 171//2 172//2 173//2
f 173//1 172//1 171//1
f 173//2 172//2 174//2
f 174//1 172//1 173//1
f 173//2 174//2 175//2
f 175//1 174//1 173//1
f 175//2 174//2 176//2
f 176//1 174//1 175//1
