# SSTK version 0.8.0
# 240
mtllib original-240.mtl
o #ID1610
v 0.654162 0.049381 0.002607
v 0.653392 0.036781 0.000948
v 0.654162 0.036742 0.001343
v 0.653392 0.049420 0.002212
v 0.654162 0.049381 0.002607
v 0.654716 0.036669 0.002073
v 0.654716 0.049308 0.003337
v 0.654162 0.036742 0.001343
v 0.652431 0.049433 0.002080
v 0.652431 0.036795 0.000817
v 0.655028 0.049194 0.004474
v 0.654716 0.036669 0.002073
v 0.655028 0.036555 0.003210
v 0.654716 0.049308 0.003337
v 0.651516 0.036781 0.000948
v 0.651516 0.049420 0.002212
v 0.649543 0.049194 0.004474
v 0.655028 0.036555 0.003210
v 0.649543 0.036555 0.003210
v 0.655028 0.049194 0.004474
v 0.650698 0.049381 0.002607
v 0.650698 0.036742 0.001343
v 0.650025 0.036669 0.002073
v 0.649543 0.049194 0.004474
v 0.649543 0.036555 0.003210
v 0.650025 0.049308 0.003337
v 0.650698 0.049381 0.002607
v 0.650698 0.036742 0.001343
vn -0.4582890972584568 -0.08843922247857121 0.884392224785708
vn -0.3015865992826621 -0.09487070529984679 0.9487070529984631
vn 0.4582890972584568 0.08843922247857121 -0.884392224785708
vn 0.3015865992826621 0.09487070529984679 -0.9487070529984631
vn -0.7984265817340176 -0.05991041113348762 0.5991041113348735
vn 0.7984265817340176 0.05991041113348762 -0.5991041113348735
vn 0.0035477480587540232 -0.09950309281643885 0.9950309281643835
vn -0.0035477480587540232 0.09950309281643885 -0.9950309281643835
vn -0.9645291370704437 -0.026266634284866242 0.26266634284866125
vn 0.9645291370704437 0.026266634284866242 -0.26266634284866125
vn 0.29339509524760266 -0.09512468722497901 0.9512468722497858
vn -0.29339509524760266 0.09512468722497901 -0.9512468722497858
vn 0 0.09950371902099936 -0.995037190209989
vn 0 -0.09950371902099936 0.995037190209989
vn 0.436598086279526 -0.08951918379817651 0.8951918379817613
vn -0.436598086279526 0.08951918379817651 -0.8951918379817613
vn 0.8415738984918236 -0.05374613717432307 0.5374613717432285
vn 0.9216353802682784 -0.03861311348553755 0.386131134855374
vn -0.8415738984918236 0.05374613717432307 -0.5374613717432285
vn -0.9216353802682784 0.03861311348553755 -0.386131134855374
vn 0.73665267693484 -0.06729150664814693 0.6729150664814666
vn -0.73665267693484 0.06729150664814693 -0.6729150664814666
usemtl material_0_2
f 1//1 2//2 3//1
f 3//3 2//4 1//3
f 2//2 1//1 4//2
f 4//4 1//3 2//4
f 5//5 6//5 7//5
f 7//6 6//6 5//6
f 6//5 5//5 8//5
f 8//6 5//6 6//6
f 2//2 9//7 10//7
f 10//8 9//8 2//4
f 9//7 2//2 4//2
f 4//4 2//4 9//8
f 11//9 12//9 13//9
f 13//10 12//10 11//10
f 12//9 11//9 14//9
f 14//10 11//10 12//10
f 9//7 15//11 10//7
f 10//8 15//12 9//8
f 15//11 9//7 16//11
f 16//12 9//8 15//12
f 17//13 18//13 19//13
f 19//14 18//14 17//14
f 18//13 17//13 20//13
f 20//14 17//14 18//14
f 15//11 21//15 22//15
f 22//16 21//16 15//12
f 21//15 15//11 16//11
f 16//12 15//12 21//16
f 23//17 24//18 25//18
f 25//20 24//20 23//19
f 24//18 23//17 26//17
f 26//19 23//19 24//20
f 23//17 27//21 26//17
f 26//19 27//22 23//19
f 27//21 23//17 28//21
f 28//22 23//19 27//22
