# SSTK version 0.8.0
# 19
mtllib original-19.mtl
o #ID37
v 0.675237 0.045213 -0.232296
v 0.673144 0.044906 -0.229220
v 0.671195 0.045213 -0.232296
v 0.675141 0.044653 -0.226694
v 0.677185 0.044456 -0.224720
v 0.676861 0.044964 -0.229806
v 0.678653 0.044754 -0.227700
v 0.679278 0.044313 -0.223295
v 0.680614 0.044581 -0.225976
v 0.673697 0.045481 -0.234977
v 0.665422 0.045213 -0.232296
v 0.665422 0.045500 -0.235168
v 0.697369 0.045481 -0.234977
v 0.691403 0.045213 -0.232296
v 0.693231 0.044907 -0.229232
v 0.687650 0.044801 -0.228179
v 0.686207 0.044294 -0.223104
v 0.685317 0.044612 -0.226288
v 0.690368 0.044610 -0.226264
v 0.665999 0.044141 -0.221572
v 0.660611 0.043968 -0.219848
v 0.659841 0.044179 -0.221955
v 0.660995 0.043758 -0.217742
v 0.668116 0.043815 -0.218316
v 0.671869 0.044179 -0.221955
v 0.674756 0.043911 -0.219274
v 0.682165 0.044102 -0.221189
v 0.682743 0.044447 -0.224636
v 0.686688 0.043968 -0.219848
v 0.690008 0.044198 -0.222146
v 0.690922 0.043863 -0.218795
v 0.694482 0.044141 -0.221572
v 0.696310 0.043796 -0.218125
v 0.699534 0.044131 -0.221476
v 0.703720 0.043758 -0.217742
v 0.704153 0.043978 -0.219944
v 0.705067 0.044179 -0.221955
v 0.665422 0.045500 -0.235168
v 0.673697 0.046324 -0.234892
v 0.673697 0.045481 -0.234977
v 0.665422 0.046343 -0.235084
v 0.697369 0.045481 -0.234977
v 0.697369 0.046324 -0.234892
v 0.697369 0.045481 -0.234977
v 0.693231 0.045749 -0.229148
v 0.693231 0.044907 -0.229232
v 0.697369 0.046324 -0.234892
v 0.690368 0.044610 -0.226264
v 0.690368 0.045453 -0.226179
v 0.686207 0.045137 -0.223020
v 0.686207 0.044294 -0.223104
v 0.686207 0.045137 -0.223020
v 0.690008 0.044198 -0.222146
v 0.686207 0.044294 -0.223104
v 0.690008 0.045041 -0.222062
v 0.694482 0.044983 -0.221488
v 0.694482 0.044141 -0.221572
v 0.699534 0.044131 -0.221476
v 0.699534 0.044974 -0.221392
v 0.705067 0.044179 -0.221955
v 0.705067 0.045022 -0.221871
v 0.704153 0.043978 -0.219944
v 0.705067 0.045022 -0.221871
v 0.704153 0.044821 -0.219860
v 0.705067 0.044179 -0.221955
v 0.703720 0.044600 -0.217658
v 0.703720 0.043758 -0.217742
v 0.703720 0.044600 -0.217658
v 0.696310 0.043796 -0.218125
v 0.703720 0.043758 -0.217742
v 0.696310 0.044639 -0.218041
v 0.690922 0.044706 -0.218711
v 0.690922 0.043863 -0.218795
v 0.686688 0.043968 -0.219848
v 0.686688 0.044811 -0.219764
v 0.682165 0.044945 -0.221105
v 0.682165 0.044102 -0.221189
v 0.682165 0.044102 -0.221189
v 0.674756 0.044754 -0.219190
v 0.674756 0.043911 -0.219274
v 0.682165 0.044945 -0.221105
v 0.668116 0.043815 -0.218316
v 0.668116 0.044658 -0.218232
v 0.660995 0.044600 -0.217658
v 0.660995 0.043758 -0.217742
v 0.660995 0.044600 -0.217658
v 0.660611 0.043968 -0.219848
v 0.660995 0.043758 -0.217742
v 0.660611 0.044811 -0.219764
v 0.659841 0.045022 -0.221871
v 0.659841 0.044179 -0.221955
v 0.659841 0.044179 -0.221955
v 0.665999 0.044983 -0.221488
v 0.665999 0.044141 -0.221572
v 0.659841 0.045022 -0.221871
v 0.671869 0.044179 -0.221955
v 0.671869 0.045022 -0.221871
v 0.679278 0.044313 -0.223295
v 0.679278 0.045156 -0.223211
v 0.679278 0.044313 -0.223295
v 0.677185 0.045298 -0.224635
v 0.677185 0.044456 -0.224720
v 0.679278 0.045156 -0.223211
v 0.675141 0.044653 -0.226694
v 0.675141 0.045496 -0.226610
v 0.673144 0.045748 -0.229136
v 0.673144 0.044906 -0.229220
v 0.671195 0.046056 -0.232212
v 0.671195 0.045213 -0.232296
v 0.671195 0.046056 -0.232212
v 0.675237 0.045213 -0.232296
v 0.671195 0.045213 -0.232296
v 0.675237 0.046056 -0.232212
v 0.671195 0.046056 -0.232212
v 0.665422 0.045213 -0.232296
v 0.671195 0.045213 -0.232296
v 0.665422 0.046056 -0.232212
v 0.691403 0.046056 -0.232212
v 0.675237 0.045213 -0.232296
v 0.691403 0.045213 -0.232296
v 0.675237 0.046056 -0.232212
v 0.675237 0.045213 -0.232296
v 0.676861 0.045807 -0.229722
v 0.676861 0.044964 -0.229806
v 0.675237 0.046056 -0.232212
v 0.678653 0.044754 -0.227700
v 0.678653 0.045596 -0.227616
v 0.680614 0.045424 -0.225892
v 0.680614 0.044581 -0.225976
v 0.682743 0.044447 -0.224636
v 0.682743 0.045290 -0.224552
v 0.682743 0.045290 -0.224552
v 0.685317 0.044612 -0.226288
v 0.682743 0.044447 -0.224636
v 0.685317 0.045455 -0.226203
v 0.687650 0.045644 -0.228094
v 0.687650 0.044801 -0.228179
v 0.691403 0.045213 -0.232296
v 0.691403 0.046056 -0.232212
v 0.665422 0.046343 -0.235084
v 0.665422 0.045213 -0.232296
v 0.665422 0.046056 -0.232212
v 0.665422 0.045500 -0.235168
v 0.660611 0.044811 -0.219764
v 0.665999 0.044983 -0.221488
v 0.659841 0.045022 -0.221871
v 0.660995 0.044600 -0.217658
v 0.668116 0.044658 -0.218232
v 0.671869 0.045022 -0.221871
v 0.674756 0.044754 -0.219190
v 0.679278 0.045156 -0.223211
v 0.682165 0.044945 -0.221105
v 0.680614 0.045424 -0.225892
v 0.682743 0.045290 -0.224552
v 0.686688 0.044811 -0.219764
v 0.685317 0.045455 -0.226203
v 0.686207 0.045137 -0.223020
v 0.690008 0.045041 -0.222062
v 0.690922 0.044706 -0.218711
v 0.694482 0.044983 -0.221488
v 0.696310 0.044639 -0.218041
v 0.699534 0.044974 -0.221392
v 0.703720 0.044600 -0.217658
v 0.704153 0.044821 -0.219860
v 0.705067 0.045022 -0.221871
v 0.687650 0.045644 -0.228094
v 0.690368 0.045453 -0.226179
v 0.691403 0.046056 -0.232212
v 0.693231 0.045749 -0.229148
v 0.671195 0.046056 -0.232212
v 0.665422 0.046343 -0.235084
v 0.665422 0.046056 -0.232212
v 0.673697 0.046324 -0.234892
v 0.675237 0.046056 -0.232212
v 0.697369 0.046324 -0.234892
v 0.673144 0.045748 -0.229136
v 0.675141 0.045496 -0.226610
v 0.677185 0.045298 -0.224635
v 0.676861 0.045807 -0.229722
v 0.678653 0.045596 -0.227616
vn 0 -0.9950371902099892 -0.0995037190209994
vn 0 0.9950371902099892 0.0995037190209994
vn 0.023249530069280475 0.0994768224834391 -0.9947682248343861
vn 0.01162555035860438 0.09949699465976566 -0.9949699465976518
vn -0.023249530069280475 -0.0994768224834391 0.9947682248343861
vn -0.01162555035860438 -0.09949699465976566 0.9949699465976518
vn 0 0.0995037190209994 -0.9950371902099892
vn 0 -0.0995037190209994 0.9950371902099892
vn 0.8128171405463975 -0.05796279927113896 0.5796279927113869
vn 0.7691254905098294 -0.06359260650779792 0.6359260650779763
vn -0.8128171405463975 0.05796279927113896 -0.5796279927113869
vn -0.7691254905098294 0.06359260650779792 -0.6359260650779763
vn 0.6660288169981646 -0.07422241227847517 0.7422241227847484
vn -0.6660288169981646 0.07422241227847517 -0.7422241227847484
vn 0.6065968846092162 -0.07910640907196692 0.7910640907196658
vn -0.6065968846092162 0.07910640907196692 -0.7910640907196658
vn 0.24542189422079125 0.09646053385943085 -0.9646053385943041
vn 0.1870311004962058 0.09774787569276071 -0.9774787569276024
vn -0.24542189422079125 -0.09646053385943085 0.9646053385943041
vn -0.1870311004962058 -0.09774787569276071 0.9774787569276024
vn 0.07361761382762537 0.0992337198625835 -0.9923371986258305
vn -0.07361761382762537 -0.0992337198625835 0.9923371986258305
vn -0.033840049030243256 0.09944672941282348 -0.9944672941282301
vn 0.033840049030243256 -0.09944672941282348 0.9944672941282301
vn -0.08662961979989856 0.09912964353541658 -0.9912964353541609
vn 0.08662961979989856 -0.09912964353541658 0.9912964353541609
vn 0.9526315265423109 -0.03026175814974301 0.3026175814974287
vn 0.9111079091612223 -0.04101223891994205 0.41012238919941857
vn -0.9526315265423109 0.03026175814974301 -0.3026175814974287
vn -0.9111079091612223 0.04101223891994205 -0.41012238919941857
vn 0.9813926580835602 -0.019105867291158804 0.19105867291158707
vn -0.9813926580835602 0.019105867291158804 -0.19105867291158707
vn -0.05187810179066476 -0.0993697297652055 0.9936972976520503
vn -0.08801417285147511 -0.09911756722422278 0.9911756722422229
vn 0.05187810179066476 0.0993697297652055 -0.9936972976520503
vn 0.08801417285147511 0.09911756722422278 -0.9911756722422229
vn -0.18361899971052256 -0.09781190592178765 0.9781190592178717
vn 0.18361899971052256 0.09781190592178765 -0.9781190592178717
vn -0.2640715041305563 -0.09597164601420352 0.9597164601420307
vn 0.2640715041305563 0.09597164601420352 -0.9597164601420307
vn -0.2854765969970659 -0.09536293946515846 0.9536293946515801
vn 0.2854765969970659 0.09536293946515846 -0.9536293946515801
vn 0.25139840077754716 -0.096308027080116 0.9630802708011557
vn 0.19771379967396835 -0.0975394945862622 0.9753949458626175
vn -0.25139840077754716 0.096308027080116 -0.9630802708011557
vn -0.19771379967396835 0.0975394945862622 -0.9753949458626175
vn 0.11217820172716321 -0.09887566204643827 0.9887566204643781
vn -0.11217820172716321 0.09887566204643827 -0.9887566204643781
vn 0.08081587465759278 -0.09917824709613876 0.9917824709613825
vn -0.08081587465759278 0.09917824709613876 -0.9917824709613825
vn -0.9838699168096712 -0.017799762707543614 0.17799762707543532
vn -0.9652723922155492 -0.025994898362104692 0.2599489836210457
vn 0.9838699168096712 0.017799762707543614 -0.17799762707543532
vn 0.9652723922155492 0.025994898362104692 -0.2599489836210457
vn -0.9397934099697767 -0.03400470942593659 0.34004709425936436
vn 0.9397934099697767 0.03400470942593659 -0.34004709425936436
vn 0.06237828925679476 0.0993099433182564 -0.9930994331825591
vn -0.0015306070588659263 0.09950360246436579 -0.9950360246436531
vn -0.06237828925679476 -0.0993099433182564 0.9930994331825591
vn 0.0015306070588659263 -0.09950360246436579 0.9950360246436531
vn -0.12235939601817442 0.09875603394053512 -0.9875603394053466
vn 0.12235939601817442 -0.09875603394053512 0.9875603394053466
vn -0.1788854047036864 0.09789871569379817 -0.978987156937977
vn 0.1788854047036864 -0.09789871569379817 0.978987156937977
vn -0.5645138179457467 -0.08213271977058886 0.821327197705885
vn -0.6327961988879004 -0.07704755961292498 0.7704755961292463
vn 0.5645138179457467 0.08213271977058886 -0.821327197705885
vn 0.6327961988879004 0.07704755961292498 -0.7704755961292463
vn -0.7428628006407628 -0.06661213722724896 0.6661213722724865
vn 0.7428628006407628 0.06661213722724896 -0.6661213722724865
vn -0.8170519487008088 -0.057370268037505175 0.573702680375049
vn 0.8170519487008088 0.057370268037505175 -0.573702680375049
vn -0.8459578976621746 -0.05306032764814668 0.5306032764814641
vn 0.8459578976621746 0.05306032764814668 -0.5306032764814641
vn 0.8388119964262056 0.0541719333500845 -0.5417193335008426
vn 0.802629801262834 0.05935172907177829 -0.5935172907177801
vn -0.8388119964262056 -0.0541719333500845 0.5417193335008426
vn -0.802629801262834 -0.05935172907177829 0.5935172907177801
vn 0.7145189227913925 0.06961440537257041 -0.696144053725701
vn -0.7145189227913925 -0.06961440537257041 0.696144053725701
vn 0.6003005854054939 0.07958053441041846 -0.7958053441041807
vn -0.6003005854054939 -0.07958053441041846 0.7958053441041807
vn 0.5347113070829951 0.08408410558868733 -0.8408410558868694
vn -0.5347113070829951 -0.08408410558868733 0.8408410558868694
vn -0.5419480133997172 0.08362412075472635 -0.8362412075472597
vn -0.5876218152879389 0.08051201264516608 -0.805120126451657
vn 0.5419480133997172 -0.08362412075472635 0.8362412075472597
vn 0.5876218152879389 -0.08051201264516608 0.805120126451657
vn -0.688058309155902 0.07220541127808144 -0.722054112780811
vn 0.688058309155902 -0.07220541127808144 0.722054112780811
vn -0.7407190415018299 0.06684808413145203 -0.6684808413145172
vn 0.7407190415018299 -0.06684808413145203 0.6684808413145172
vn -1 0 0
vn 1 0 0
usemtl material_0_2
f 1//1 2//1 3//1
f 3//2 2//2 1//2
f 2//1 1//1 4//1
f 4//2 1//2 2//2
f 4//1 1//1 5//1
f 5//2 1//2 4//2
f 5//1 1//1 6//1
f 6//2 1//2 5//2
f 5//1 6//1 7//1
f 7//2 6//2 5//2
f 5//1 7//1 8//1
f 8//2 7//2 5//2
f 8//1 7//1 9//1
f 9//2 7//2 8//2
f 10//1 11//1 12//1
f 12//2 11//2 10//2
f 11//1 10//1 3//1
f 3//2 10//2 11//2
f 3//1 10//1 1//1
f 1//2 10//2 3//2
f 1//1 10//1 13//1
f 13//2 10//2 1//2
f 1//1 13//1 14//1
f 14//2 13//2 1//2
f 14//1 13//1 15//1
f 15//2 13//2 14//2
f 16//1 17//1 18//1
f 18//2 17//2 16//2
f 17//1 16//1 19//1
f 19//2 16//2 17//2
f 19//1 16//1 14//1
f 14//2 16//2 19//2
f 19//1 14//1 15//1
f 15//2 14//2 19//2
f 20//1 21//1 22//1
f 22//2 21//2 20//2
f 21//1 20//1 23//1
f 23//2 20//2 21//2
f 23//1 20//1 24//1
f 24//2 20//2 23//2
f 24//1 20//1 25//1
f 25//2 20//2 24//2
f 24//1 25//1 26//1
f 26//2 25//2 24//2
f 26//1 25//1 8//1
f 8//2 25//2 26//2
f 26//1 8//1 27//1
f 27//2 8//2 26//2
f 27//1 8//1 9//1
f 9//2 8//2 27//2
f 27//1 9//1 28//1
f 28//2 9//2 27//2
f 27//1 28//1 29//1
f 29//2 28//2 27//2
f 29//1 28//1 18//1
f 18//2 28//2 29//2
f 29//1 18//1 17//1
f 17//2 18//2 29//2
f 29//1 17//1 30//1
f 30//2 17//2 29//2
f 29//1 30//1 31//1
f 31//2 30//2 29//2
f 31//1 30//1 32//1
f 32//2 30//2 31//2
f 31//1 32//1 33//1
f 33//2 32//2 31//2
f 33//1 32//1 34//1
f 34//2 32//2 33//2
f 33//1 34//1 35//1
f 35//2 34//2 33//2
f 35//1 34//1 36//1
f 36//2 34//2 35//2
f 36//1 34//1 37//1
f 37//2 34//2 36//2
f 38//3 39//4 40//4
f 40//6 39//6 38//5
f 39//4 38//3 41//3
f 41//5 38//5 39//6
f 39//4 42//7 40//4
f 40//6 42//8 39//6
f 42//7 39//4 43//7
f 43//8 39//6 42//8
f 44//9 45//10 46//10
f 46//12 45//12 44//11
f 45//10 44//9 47//9
f 47//11 44//11 45//12
f 48//13 45//10 49//13
f 49//14 45//12 48//14
f 45//10 48//13 46//10
f 46//12 48//14 45//12
f 48//13 50//15 51//15
f 51//16 50//16 48//14
f 50//15 48//13 49//13
f 49//14 48//14 50//16
f 52//17 53//18 54//17
f 54//19 53//20 52//19
f 53//18 52//17 55//18
f 55//20 52//19 53//20
f 53//18 56//21 57//21
f 57//22 56//22 53//20
f 56//21 53//18 55//18
f 55//20 53//20 56//22
f 56//21 58//23 57//21
f 57//22 58//24 56//22
f 58//23 56//21 59//23
f 59//24 56//22 58//24
f 59//23 60//25 58//23
f 58//24 60//26 59//24
f 60//25 59//23 61//25
f 61//26 59//24 60//26
f 62//27 63//28 64//27
f 64//29 63//30 62//29
f 63//28 62//27 65//28
f 65//30 62//29 63//30
f 62//27 66//31 67//31
f 67//32 66//32 62//29
f 66//31 62//27 64//27
f 64//29 62//29 66//32
f 68//33 69//34 70//33
f 70//35 69//36 68//35
f 69//34 68//33 71//34
f 71//36 68//35 69//36
f 69//34 72//37 73//37
f 73//38 72//38 69//36
f 72//37 69//34 71//34
f 71//36 69//36 72//38
f 72//37 74//39 73//37
f 73//38 74//40 72//38
f 74//39 72//37 75//39
f 75//40 72//38 74//40
f 74//39 76//41 77//41
f 77//42 76//42 74//40
f 76//41 74//39 75//39
f 75//40 74//40 76//42
f 78//43 79//44 80//44
f 80//46 79//46 78//45
f 79//44 78//43 81//43
f 81//45 78//45 79//46
f 79//44 82//47 80//44
f 80//46 82//48 79//46
f 82//47 79//44 83//47
f 83//48 79//46 82//48
f 82//47 84//49 85//49
f 85//50 84//50 82//48
f 84//49 82//47 83//47
f 83//48 82//48 84//50
f 86//51 87//52 88//51
f 88//53 87//54 86//53
f 87//52 86//51 89//52
f 89//54 86//53 87//54
f 90//55 87//52 89//52
f 89//54 87//54 90//56
f 87//52 90//55 91//55
f 91//56 90//56 87//54
f 92//57 93//58 94//58
f 94//60 93//60 92//59
f 93//58 92//57 95//57
f 95//59 92//59 93//60
f 93//58 96//61 94//58
f 94//60 96//62 93//60
f 96//61 93//58 97//61
f 97//62 93//60 96//62
f 97//61 98//63 96//61
f 96//62 98//64 97//62
f 98//63 97//61 99//63
f 99//64 97//62 98//64
f 100//65 101//66 102//66
f 102//68 101//68 100//67
f 101//66 100//65 103//65
f 103//67 100//67 101//68
f 101//66 104//69 102//66
f 102//68 104//70 101//68
f 104//69 101//66 105//69
f 105//70 101//68 104//70
f 106//71 104//69 105//69
f 105//70 104//70 106//72
f 104//69 106//71 107//71
f 107//72 106//72 104//70
f 108//73 107//71 106//71
f 106//72 107//72 108//74
f 107//71 108//73 109//73
f 109//74 108//74 107//72
f 110//7 111//7 112//7
f 112//8 111//8 110//8
f 111//7 110//7 113//7
f 113//8 110//8 111//8
f 114//8 115//8 116//8
f 116//7 115//7 114//7
f 115//8 114//8 117//8
f 117//7 114//7 115//7
f 118//8 119//8 120//8
f 120//7 119//7 118//7
f 119//8 118//8 121//8
f 121//7 118//7 119//7
f 122//75 123//76 124//76
f 124//78 123//78 122//77
f 123//76 122//75 125//75
f 125//77 122//77 123//78
f 126//79 123//76 127//79
f 127//80 123//78 126//80
f 123//76 126//79 124//76
f 124//78 126//80 123//78
f 126//79 128//81 129//81
f 129//82 128//82 126//80
f 128//81 126//79 127//79
f 127//80 126//80 128//82
f 128//81 130//83 129//81
f 129//82 130//84 128//82
f 130//83 128//81 131//83
f 131//84 128//82 130//84
f 132//85 133//86 134//85
f 134//87 133//88 132//87
f 133//86 132//85 135//86
f 135//88 132//87 133//88
f 133//86 136//89 137//89
f 137//90 136//90 133//88
f 136//89 133//86 135//86
f 135//88 133//88 136//90
f 136//89 138//91 137//89
f 137//90 138//92 136//90
f 138//91 136//89 139//91
f 139//92 136//90 138//92
f 140//93 141//93 142//93
f 142//94 141//94 140//94
f 141//93 140//93 143//93
f 143//94 140//94 141//94
f 144//2 145//2 146//2
f 146//1 145//1 144//1
f 145//2 144//2 147//2
f 147//1 144//1 145//1
f 145//2 147//2 148//2
f 148//1 147//1 145//1
f 145//2 148//2 149//2
f 149//1 148//1 145//1
f 149//2 148//2 150//2
f 150//1 148//1 149//1
f 149//2 150//2 151//2
f 151//1 150//1 149//1
f 151//2 150//2 152//2
f 152//1 150//1 151//1
f 151//2 152//2 153//2
f 153//1 152//1 151//1
f 153//2 152//2 154//2
f 154//1 152//1 153//1
f 154//2 152//2 155//2
f 155//1 152//1 154//1
f 154//2 155//2 156//2
f 156//1 155//1 154//1
f 156//2 155//2 157//2
f 157//1 155//1 156//1
f 157//2 155//2 158//2
f 158//1 155//1 157//1
f 158//2 155//2 159//2
f 159//1 155//1 158//1
f 158//2 159//2 160//2
f 160//1 159//1 158//1
f 160//2 159//2 161//2
f 161//1 159//1 160//1
f 160//2 161//2 162//2
f 162//1 161//1 160//1
f 162//2 161//2 163//2
f 163//1 161//1 162//1
f 162//2 163//2 164//2
f 164//1 163//1 162//1
f 162//2 164//2 165//2
f 165//1 164//1 162//1
f 157//2 166//2 156//2
f 156//1 166//1 157//1
f 166//2 157//2 167//2
f 167//1 157//1 166//1
f 166//2 167//2 168//2
f 168//1 167//1 166//1
f 168//2 167//2 169//2
f 169//1 167//1 168//1
f 170//2 171//2 172//2
f 172//1 171//1 170//1
f 171//2 170//2 173//2
f 173//1 170//1 171//1
f 173//2 170//2 174//2
f 174//1 170//1 173//1
f 173//2 174//2 175//2
f 175//1 174//1 173//1
f 175//2 174//2 168//2
f 168//1 174//1 175//1
f 175//2 168//2 169//2
f 169//1 168//1 175//1
f 176//2 174//2 170//2
f 170//1 174//1 176//1
f 174//2 176//2 177//2
f 177//1 176//1 174//1
f 174//2 177//2 178//2
f 178//1 177//1 174//1
f 174//2 178//2 179//2
f 179//1 178//1 174//1
f 179//2 178//2 180//2
f 180//1 178//1 179//1
f 180//2 178//2 151//2
f 151//1 178//1 180//1
f 180//2 151//2 153//2
f 153//1 151//1 180//1
