# SSTK version 0.8.0
# 266
mtllib original-266.mtl
o #ID1766
v -0.454997 0.024410 0.124667
v -0.451487 0.022091 0.147857
v -0.458223 0.024410 0.124667
v -0.450178 0.022654 0.142227
v -0.448793 0.022091 0.147857
v -0.445282 0.024410 0.124667
v -0.442057 0.024410 0.124667
v -0.442057 0.024410 0.124667
v -0.448793 0.034729 0.149121
v -0.448793 0.022091 0.147857
v -0.442057 0.037048 0.125930
v -0.448793 0.034729 0.149121
v -0.451487 0.022091 0.147857
v -0.448793 0.022091 0.147857
v -0.451487 0.034729 0.149121
v -0.458223 0.037048 0.125930
v -0.451487 0.022091 0.147857
v -0.451487 0.034729 0.149121
v -0.458223 0.024410 0.124667
v -0.458223 0.037048 0.125930
v -0.454997 0.024410 0.124667
v -0.458223 0.024410 0.124667
v -0.454997 0.037048 0.125930
v -0.450178 0.022654 0.142227
v -0.454997 0.037048 0.125930
v -0.450178 0.035292 0.143491
v -0.454997 0.024410 0.124667
v -0.445282 0.037048 0.125930
v -0.450178 0.022654 0.142227
v -0.450178 0.035292 0.143491
v -0.445282 0.024410 0.124667
v -0.445282 0.037048 0.125930
v -0.442057 0.024410 0.124667
v -0.445282 0.024410 0.124667
v -0.442057 0.037048 0.125930
v -0.451487 0.034729 0.149121
v -0.454997 0.037048 0.125930
v -0.458223 0.037048 0.125930
v -0.450178 0.035292 0.143491
v -0.448793 0.034729 0.149121
v -0.445282 0.037048 0.125930
v -0.442057 0.037048 0.125930
vn 0 -0.995037190209989 -0.09950371902099936
vn 0 0.995037190209989 0.09950371902099936
vn 0.9606812881284008 -0.02762755523596702 0.276275552359669
vn -0.9606812881284008 0.02762755523596702 -0.276275552359669
vn 0 -0.09950371902099936 0.995037190209989
vn 0 0.09950371902099936 -0.995037190209989
vn -0.9606812881284008 -0.027627555235967022 0.276275552359669
vn 0.9606812881284008 0.027627555235967022 -0.276275552359669
vn 0.9646701608563178 0.026215308193830045 -0.26215308193829917
vn -0.9646701608563178 -0.026215308193830045 0.26215308193829917
vn -0.9636108936344008 0.02659822924000921 -0.2659822924000908
vn 0.9636108936344008 -0.02659822924000921 0.2659822924000908
usemtl material_0_2
f 1//1 2//1 3//1
f 3//2 2//2 1//2
f 2//1 1//1 4//1
f 4//2 1//2 2//2
f 2//1 4//1 5//1
f 5//2 4//2 2//2
f 5//1 4//1 6//1
f 6//2 4//2 5//2
f 5//1 6//1 7//1
f 7//2 6//2 5//2
f 8//3 9//3 10//3
f 10//4 9//4 8//4
f 9//3 8//3 11//3
f 11//4 8//4 9//4
f 12//5 13//5 14//5
f 14//6 13//6 12//6
f 13//5 12//5 15//5
f 15//6 12//6 13//6
f 16//7 17//7 18//7
f 18//8 17//8 16//8
f 17//7 16//7 19//7
f 19//8 16//8 17//8
f 20//6 21//6 22//6
f 22//5 21//5 20//5
f 21//6 20//6 23//6
f 23//5 20//5 21//5
f 24//9 25//9 26//9
f 26//10 25//10 24//10
f 25//9 24//9 27//9
f 27//10 24//10 25//10
f 28//11 29//11 30//11
f 30//12 29//12 28//12
f 29//11 28//11 31//11
f 31//12 28//12 29//12
f 32//6 33//6 34//6
f 34//5 33//5 32//5
f 33//6 32//6 35//6
f 35//5 32//5 33//5
f 36//2 37//2 38//2
f 38//1 37//1 36//1
f 37//2 36//2 39//2
f 39//1 36//1 37//1
f 39//2 36//2 40//2
f 40//1 36//1 39//1
f 39//2 40//2 41//2
f 41//1 40//1 39//1
f 41//2 40//2 42//2
f 42//1 40//1 41//1
