# SSTK version 0.8.0
# 434
mtllib original-434.mtl
o #ID2774
v -0.128927 0.024537 0.123390
v -0.136625 0.023656 0.132205
v -0.138550 0.023656 0.132205
v -0.127965 0.024442 0.124348
v -0.128831 0.022784 0.140924
v -0.127965 0.022889 0.139870
v -0.128831 0.022784 0.140924
v -0.127965 0.035528 0.141134
v -0.128831 0.035423 0.142188
v -0.127965 0.022889 0.139870
v -0.128831 0.035423 0.142188
v -0.138550 0.023656 0.132205
v -0.128831 0.022784 0.140924
v -0.138550 0.036295 0.133468
v -0.138550 0.023656 0.132205
v -0.128927 0.037176 0.124654
v -0.128927 0.024537 0.123390
v -0.138550 0.036295 0.133468
v -0.128927 0.024537 0.123390
v -0.127965 0.037080 0.125612
v -0.127965 0.024442 0.124348
v -0.128927 0.037176 0.124654
v -0.127965 0.037080 0.125612
v -0.136625 0.023656 0.132205
v -0.127965 0.024442 0.124348
v -0.136625 0.036295 0.133468
v -0.136625 0.023656 0.132205
v -0.127965 0.035528 0.141134
v -0.127965 0.022889 0.139870
v -0.136625 0.036295 0.133468
v -0.128831 0.035423 0.142188
v -0.136625 0.036295 0.133468
v -0.138550 0.036295 0.133468
v -0.127965 0.035528 0.141134
v -0.128927 0.037176 0.124654
v -0.127965 0.037080 0.125612
vn 0 -0.995037190209989 -0.09950371902099936
vn 0 0.995037190209989 0.09950371902099936
vn 0.7741775727295314 -0.06298271693489524 0.6298271693489491
vn -0.7741775727295314 0.06298271693489524 -0.6298271693489491
vn -0.6696246757676505 -0.07390137886433669 0.7390137886433639
vn 0.6696246757676505 0.07390137886433669 -0.7390137886433639
vn -0.6773054948039923 0.07320507385896333 -0.7320507385896301
vn 0.6773054948039923 -0.07320507385896333 0.7320507385896301
vn 0.7073138543215939 0.07033914389026355 -0.7033914389026323
vn -0.7073138543215939 -0.07033914389026355 0.7033914389026323
vn 0.6737440740007286 -0.07352974226470481 0.7352974226470448
vn -0.6737440740007286 0.07352974226470481 -0.7352974226470448
vn 0.6646174304463 0.07434756956663059 -0.7434756956663027
vn -0.6646174304463 -0.07434756956663059 0.7434756956663027
usemtl material_0_2
f 1//1 2//1 3//1
f 3//2 2//2 1//2
f 2//1 1//1 4//1
f 4//2 1//2 2//2
f 2//1 5//1 3//1
f 3//2 5//2 2//2
f 5//1 2//1 6//1
f 6//2 2//2 5//2
f 7//3 8//3 9//3
f 9//4 8//4 7//4
f 8//3 7//3 10//3
f 10//4 7//4 8//4
f 11//5 12//5 13//5
f 13//6 12//6 11//6
f 12//5 11//5 14//5
f 14//6 11//6 12//6
f 15//7 16//7 17//7
f 17//8 16//8 15//8
f 16//7 15//7 18//7
f 18//8 15//8 16//8
f 19//9 20//9 21//9
f 21//10 20//10 19//10
f 20//9 19//9 22//9
f 22//10 19//10 20//10
f 23//11 24//11 25//11
f 25//12 24//12 23//12
f 24//11 23//11 26//11
f 26//12 23//12 24//12
f 27//13 28//13 29//13
f 29//14 28//14 27//14
f 28//13 27//13 30//13
f 30//14 27//14 28//14
f 31//2 32//2 33//2
f 33//1 32//1 31//1
f 32//2 31//2 34//2
f 34//1 31//1 32//1
f 32//2 35//2 33//2
f 33//1 35//1 32//1
f 35//2 32//2 36//2
f 36//1 32//1 35//1
