# SSTK version 0.8.0
# 156
mtllib original-156.mtl
o #ID1106
v 0.518154 0.067999 -0.183579
v 0.518305 0.055282 -0.184060
v 0.518305 0.067921 -0.182796
v 0.518154 0.055361 -0.184843
v 0.518169 0.055195 -0.183184
v 0.518169 0.067833 -0.181920
v 0.517964 0.068028 -0.183868
v 0.518154 0.055361 -0.184843
v 0.518154 0.067999 -0.183579
v 0.517964 0.055389 -0.185132
v 0.517997 0.055163 -0.182864
v 0.517997 0.067802 -0.181600
v 0.517699 0.055412 -0.185353
v 0.517699 0.068050 -0.184089
v 0.517757 0.055139 -0.182624
v 0.517757 0.067777 -0.181360
v 0.517057 0.068078 -0.184369
v 0.517057 0.055440 -0.185633
v 0.517086 0.067747 -0.181058
v 0.517757 0.055139 -0.182624
v 0.517086 0.055109 -0.182322
v 0.517757 0.067777 -0.181360
v 0.516343 0.068088 -0.184462
v 0.516343 0.055449 -0.185726
v 0.516169 0.055098 -0.182222
v 0.516169 0.067737 -0.180958
v 0.514841 0.055449 -0.185726
v 0.514841 0.068088 -0.184462
v 0.514841 0.067737 -0.180958
v 0.514841 0.055098 -0.182222
v 0.514841 0.055449 -0.185726
v 0.514841 0.067737 -0.180958
v 0.514841 0.055098 -0.182222
v 0.514841 0.068088 -0.184462
vn -0.9819421358456005 -0.01882426332193825 0.18824263321938162
vn -0.9998395135083644 -0.0017826091328064007 0.017826091328063898
vn 0.9819421358456005 0.01882426332193825 -0.18824263321938162
vn 0.9998395135083644 0.0017826091328064007 -0.017826091328063898
vn -0.9484863553576697 0.03152456745886554 -0.31524567458865405
vn 0.9484863553576697 -0.03152456745886554 0.31524567458865405
vn -0.7478504921798208 -0.0660572539953784 0.6605725399537812
vn -0.8376105913402736 -0.05435567658466074 0.543556765846605
vn 0.7478504921798208 0.0660572539953784 -0.6605725399537812
vn 0.8376105913402736 0.05435567658466074 -0.543556765846605
vn -0.8045072845198827 0.05909951576709764 -0.5909951576709738
vn 0.8045072845198827 -0.05909951576709764 0.5909951576709738
vn -0.5268336962494224 -0.08457501541611107 0.8457501541611069
vn 0.5268336962494224 0.08457501541611107 -0.8457501541611069
vn -0.7097501254278212 0.07009574494897991 -0.7009574494897959
vn 0.7097501254278212 -0.07009574494897991 0.7009574494897959
vn -0.26844930623751034 -0.09585131689394283 0.9585131689394237
vn 0.26844930623751034 0.09585131689394283 -0.9585131689394237
vn -0.26383280971875117 0.09597814564134724 -0.959781456413468
vn -0.4115867070346257 0.09068476476410355 -0.9068476476410315
vn 0.26383280971875117 -0.09597814564134724 0.959781456413468
vn 0.4115867070346257 -0.09068476476410355 0.9068476476410315
vn -0.06523669183053302 -0.09929175800793891 0.9929175800793845
vn 0.06523669183053302 0.09929175800793891 -0.9929175800793845
vn -0.05486888877334143 0.09935382341996818 -0.9935382341996772
vn 0.05486888877334143 -0.09935382341996818 0.9935382341996772
vn 0 -0.09950371902099936 0.995037190209989
vn 0 0.09950371902099936 -0.995037190209989
vn 1 0 0
vn -1 0 0
usemtl material_0_2
f 1//1 2//2 3//2
f 3//4 2//4 1//3
f 2//2 1//1 4//1
f 4//3 1//3 2//4
f 3//2 5//5 6//5
f 6//6 5//6 3//4
f 5//5 3//2 2//2
f 2//4 3//4 5//6
f 7//7 8//8 9//8
f 9//10 8//10 7//9
f 8//8 7//7 10//7
f 10//9 7//9 8//10
f 6//5 11//11 12//11
f 12//12 11//12 6//6
f 11//11 6//5 5//5
f 5//6 6//6 11//12
f 7//7 13//13 10//7
f 10//9 13//14 7//9
f 13//13 7//7 14//13
f 14//14 7//9 13//14
f 12//11 15//15 16//15
f 16//16 15//16 12//12
f 15//15 12//11 11//11
f 11//12 12//12 15//16
f 13//13 17//17 18//17
f 18//18 17//18 13//14
f 17//17 13//13 14//13
f 14//14 13//14 17//18
f 19//19 20//20 21//19
f 21//21 20//22 19//21
f 20//20 19//19 22//20
f 22//22 19//21 20//22
f 18//17 23//23 24//23
f 24//24 23//24 18//18
f 23//23 18//17 17//17
f 17//18 18//18 23//24
f 25//25 19//19 21//19
f 21//21 19//21 25//26
f 19//19 25//25 26//25
f 26//26 25//26 19//21
f 23//23 27//27 24//23
f 24//24 27//28 23//24
f 27//27 23//23 28//27
f 28//28 23//24 27//28
f 29//28 25//25 30//28
f 30//27 25//26 29//27
f 25//25 29//28 26//25
f 26//26 29//27 25//26
f 31//29 32//29 33//29
f 33//30 32//30 31//30
f 32//29 31//29 34//29
f 34//30 31//30 32//30
