# SSTK version 0.8.0
# 353
mtllib original-353.mtl
o #ID2288
v 0.108079 0.047650 -0.107736
v 0.103364 0.047497 -0.106204
v 0.103364 0.047650 -0.107736
v 0.108079 0.047497 -0.106204
v 0.103364 0.048119 -0.112427
v 0.101729 0.047650 -0.107736
v 0.101729 0.048119 -0.112427
v 0.101729 0.047497 -0.106204
v 0.101729 0.047028 -0.101512
v 0.103364 0.047028 -0.101512
v 0.097013 0.047497 -0.106204
v 0.097013 0.047650 -0.107736
v 0.108079 0.060135 -0.104940
v 0.103364 0.047497 -0.106204
v 0.108079 0.047497 -0.106204
v 0.103364 0.060135 -0.104940
v 0.103364 0.047497 -0.106204
v 0.103364 0.059666 -0.100248
v 0.103364 0.047028 -0.101512
v 0.103364 0.060135 -0.104940
v 0.103364 0.059666 -0.100248
v 0.101729 0.047028 -0.101512
v 0.103364 0.047028 -0.101512
v 0.101729 0.059666 -0.100248
v 0.101729 0.060135 -0.104940
v 0.101729 0.047028 -0.101512
v 0.101729 0.059666 -0.100248
v 0.101729 0.047497 -0.106204
v 0.101729 0.060135 -0.104940
v 0.097013 0.047497 -0.106204
v 0.101729 0.047497 -0.106204
v 0.097013 0.060135 -0.104940
v 0.097013 0.060289 -0.106472
v 0.097013 0.047497 -0.106204
v 0.097013 0.060135 -0.104940
v 0.097013 0.047650 -0.107736
v 0.097013 0.060289 -0.106472
v 0.101729 0.047650 -0.107736
v 0.097013 0.047650 -0.107736
v 0.101729 0.060289 -0.106472
v 0.101729 0.060758 -0.111163
v 0.101729 0.047650 -0.107736
v 0.101729 0.060289 -0.106472
v 0.101729 0.048119 -0.112427
v 0.101729 0.060758 -0.111163
v 0.103364 0.048119 -0.112427
v 0.101729 0.048119 -0.112427
v 0.103364 0.060758 -0.111163
v 0.103364 0.048119 -0.112427
v 0.103364 0.060289 -0.106472
v 0.103364 0.047650 -0.107736
v 0.103364 0.060758 -0.111163
v 0.103364 0.060289 -0.106472
v 0.108079 0.047650 -0.107736
v 0.103364 0.047650 -0.107736
v 0.108079 0.060289 -0.106472
v 0.108079 0.047650 -0.107736
v 0.108079 0.060135 -0.104940
v 0.108079 0.047497 -0.106204
v 0.108079 0.060289 -0.106472
v 0.108079 0.060135 -0.104940
v 0.103364 0.060289 -0.106472
v 0.103364 0.060135 -0.104940
v 0.108079 0.060289 -0.106472
v 0.103364 0.059666 -0.100248
v 0.101729 0.060135 -0.104940
v 0.101729 0.059666 -0.100248
v 0.101729 0.060289 -0.106472
v 0.101729 0.060758 -0.111163
v 0.103364 0.060758 -0.111163
v 0.097013 0.060289 -0.106472
v 0.097013 0.060135 -0.104940
vn 0 -0.995037190209989 -0.09950371902099936
vn 0 0.995037190209989 0.09950371902099936
vn 0 -0.09950371902099936 0.995037190209989
vn 0 0.09950371902099936 -0.995037190209989
vn 1 0 0
vn -1 0 0
usemtl material_0_2
f 1//1 2//1 3//1
f 3//2 2//2 1//2
f 2//1 1//1 4//1
f 4//2 1//2 2//2
f 5//1 6//1 7//1
f 7//2 6//2 5//2
f 6//1 5//1 8//1
f 8//2 5//2 6//2
f 8//1 5//1 9//1
f 9//2 5//2 8//2
f 9//1 5//1 10//1
f 10//2 5//2 9//2
f 10//1 5//1 3//1
f 3//2 5//2 10//2
f 10//1 3//1 2//1
f 2//2 3//2 10//2
f 6//1 11//1 12//1
f 12//2 11//2 6//2
f 11//1 6//1 8//1
f 8//2 6//2 11//2
f 13//3 14//3 15//3
f 15//4 14//4 13//4
f 14//3 13//3 16//3
f 16//4 13//4 14//4
f 17//5 18//5 19//5
f 19//6 18//6 17//6
f 18//5 17//5 20//5
f 20//6 17//6 18//6
f 21//3 22//3 23//3
f 23//4 22//4 21//4
f 22//3 21//3 24//3
f 24//4 21//4 22//4
f 25//6 26//6 27//6
f 27//5 26//5 25//5
f 26//6 25//6 28//6
f 28//5 25//5 26//5
f 29//3 30//3 31//3
f 31//4 30//4 29//4
f 30//3 29//3 32//3
f 32//4 29//4 30//4
f 33//6 34//6 35//6
f 35//5 34//5 33//5
f 34//6 33//6 36//6
f 36//5 33//5 34//5
f 37//4 38//4 39//4
f 39//3 38//3 37//3
f 38//4 37//4 40//4
f 40//3 37//3 38//3
f 41//6 42//6 43//6
f 43//5 42//5 41//5
f 42//6 41//6 44//6
f 44//5 41//5 42//5
f 45//4 46//4 47//4
f 47//3 46//3 45//3
f 46//4 45//4 48//4
f 48//3 45//3 46//3
f 49//5 50//5 51//5
f 51//6 50//6 49//6
f 50//5 49//5 52//5
f 52//6 49//6 50//6
f 53//4 54//4 55//4
f 55//3 54//3 53//3
f 54//4 53//4 56//4
f 56//3 53//3 54//3
f 57//5 58//5 59//5
f 59//6 58//6 57//6
f 58//5 57//5 60//5
f 60//6 57//6 58//6
f 61//2 62//2 63//2
f 63//1 62//1 61//1
f 62//2 61//2 64//2
f 64//1 61//1 62//1
f 65//2 66//2 67//2
f 67//1 66//1 65//1
f 66//2 65//2 68//2
f 68//1 65//1 66//1
f 68//2 65//2 69//2
f 69//1 65//1 68//1
f 69//2 65//2 70//2
f 70//1 65//1 69//1
f 70//2 65//2 63//2
f 63//1 65//1 70//1
f 70//2 63//2 62//2
f 62//1 63//1 70//1
f 66//2 71//2 72//2
f 72//1 71//1 66//1
f 71//2 66//2 68//2
f 68//1 66//1 71//1
