# SSTK version 0.8.0
# 299
mtllib original-299.mtl
o #ID1964
v -0.374991 0.052984 -0.118524
v -0.376723 0.052591 -0.114598
v -0.378455 0.052591 -0.114598
v -0.373837 0.052831 -0.116992
v -0.372682 0.052984 -0.118524
v -0.370950 0.052591 -0.114598
v -0.369218 0.052591 -0.114598
v -0.369218 0.065230 -0.113334
v -0.370950 0.052591 -0.114598
v -0.369218 0.052591 -0.114598
v -0.370950 0.065230 -0.113334
v -0.370950 0.052591 -0.114598
v -0.373837 0.065469 -0.115728
v -0.373837 0.052831 -0.116992
v -0.370950 0.065230 -0.113334
v -0.373837 0.065469 -0.115728
v -0.376723 0.052591 -0.114598
v -0.373837 0.052831 -0.116992
v -0.376723 0.065230 -0.113334
v -0.376723 0.065230 -0.113334
v -0.378455 0.052591 -0.114598
v -0.376723 0.052591 -0.114598
v -0.378455 0.065230 -0.113334
v -0.378455 0.065230 -0.113334
v -0.374991 0.052984 -0.118524
v -0.378455 0.052591 -0.114598
v -0.374991 0.065623 -0.117260
v -0.374991 0.065623 -0.117260
v -0.372682 0.052984 -0.118524
v -0.374991 0.052984 -0.118524
v -0.372682 0.065623 -0.117260
v -0.372682 0.052984 -0.118524
v -0.369218 0.065230 -0.113334
v -0.369218 0.052591 -0.114598
v -0.372682 0.065623 -0.117260
v -0.376723 0.065230 -0.113334
v -0.374991 0.065623 -0.117260
v -0.378455 0.065230 -0.113334
v -0.373837 0.065469 -0.115728
v -0.372682 0.065623 -0.117260
v -0.370950 0.065230 -0.113334
v -0.369218 0.065230 -0.113334
vn 0 -0.9950371902099897 -0.09950371902099235
vn 0 0.9950371902099897 0.09950371902099235
vn 0 -0.09950371902099213 0.9950371902099898
vn 0 0.09950371902099213 -0.9950371902099898
vn -0.6401843935456631 -0.07644087485837517 0.7644087485838044
vn 0.6401843935456631 0.07644087485837517 -0.7644087485838044
vn 0.6401843935456631 -0.07644087485837517 0.7644087485838044
vn -0.6401843935456631 0.07644087485837517 -0.7644087485838044
vn -0.7514402040836844 0.06565267292536014 -0.6565267292535973
vn 0.7514402040836844 -0.06565267292536014 0.6565267292535973
vn 0 0.09950371902100703 -0.9950371902099883
vn 0 -0.09950371902100703 0.9950371902099883
vn 0.7514402040836844 0.06565267292536014 -0.6565267292535973
vn -0.7514402040836844 -0.06565267292536014 0.6565267292535973
vn 0 0.9950371902099893 0.09950371902099667
vn 0 -0.9950371902099893 -0.09950371902099667
usemtl material_0_2
f 1//1 2//1 3//1
f 3//2 2//2 1//2
f 2//1 1//1 4//1
f 4//2 1//2 2//2
f 4//1 1//1 5//1
f 5//2 1//2 4//2
f 4//1 5//1 6//1
f 6//2 5//2 4//2
f 6//1 5//1 7//1
f 7//2 5//2 6//2
f 8//3 9//3 10//3
f 10//4 9//4 8//4
f 9//3 8//3 11//3
f 11//4 8//4 9//4
f 12//5 13//5 14//5
f 14//6 13//6 12//6
f 13//5 12//5 15//5
f 15//6 12//6 13//6
f 16//7 17//7 18//7
f 18//8 17//8 16//8
f 17//7 16//7 19//7
f 19//8 16//8 17//8
f 20//3 21//3 22//3
f 22//4 21//4 20//4
f 21//3 20//3 23//3
f 23//4 20//4 21//4
f 24//9 25//9 26//9
f 26//10 25//10 24//10
f 25//9 24//9 27//9
f 27//10 24//10 25//10
f 28//11 29//11 30//11
f 30//12 29//12 28//12
f 29//11 28//11 31//11
f 31//12 28//12 29//12
f 32//13 33//13 34//13
f 34//14 33//14 32//14
f 33//13 32//13 35//13
f 35//14 32//14 33//14
f 36//15 37//15 38//15
f 38//16 37//16 36//16
f 37//15 36//15 39//15
f 39//16 36//16 37//16
f 37//15 39//15 40//15
f 40//16 39//16 37//16
f 40//15 39//15 41//15
f 41//16 39//16 40//16
f 40//15 41//15 42//15
f 42//16 41//16 40//16
