# SSTK version 0.8.0
# 439
mtllib original-439.mtl
o #ID2804
v -0.333763 0.068587 -0.189456
v -0.331673 0.068696 -0.190545
v -0.333886 0.068696 -0.190545
v -0.333489 0.068490 -0.188486
v -0.333065 0.068405 -0.187636
v -0.332491 0.068332 -0.186906
v -0.331796 0.068273 -0.186320
v -0.331504 0.068567 -0.189252
v -0.331011 0.068232 -0.185901
v -0.330999 0.068466 -0.188247
v -0.330136 0.068206 -0.185649
v -0.330181 0.068402 -0.187600
v -0.329075 0.068380 -0.187385
v -0.329171 0.068198 -0.185566
v -0.328073 0.068208 -0.185667
v -0.327956 0.068406 -0.187648
v -0.327090 0.068239 -0.185973
v -0.327102 0.068485 -0.188438
v -0.326561 0.068619 -0.189779
v -0.326221 0.068290 -0.186481
v -0.326380 0.068811 -0.191694
v -0.330791 0.069093 -0.194518
v -0.331289 0.069232 -0.195907
v -0.331380 0.069012 -0.193704
v -0.330038 0.069318 -0.196768
v -0.330178 0.069146 -0.195045
v -0.329493 0.069175 -0.195332
v -0.329244 0.069340 -0.196984
v -0.328688 0.069184 -0.195428
v -0.328209 0.069347 -0.197055
v -0.327738 0.069162 -0.195200
v -0.327337 0.069338 -0.196969
v -0.327005 0.069093 -0.194518
v -0.326549 0.069312 -0.196708
v -0.326537 0.068977 -0.193357
v -0.325845 0.069269 -0.196275
v -0.325466 0.068361 -0.187193
v -0.325226 0.069208 -0.195667
v -0.324856 0.068450 -0.188085
v -0.324721 0.069131 -0.194898
v -0.324420 0.068555 -0.189132
v -0.324360 0.069039 -0.193980
v -0.324158 0.068675 -0.190335
v -0.324143 0.068933 -0.192911
v -0.324071 0.068811 -0.191694
v -0.332731 0.069855 -0.202130
v -0.333309 0.069012 -0.193704
v -0.330903 0.069673 -0.200311
v -0.324456 0.069855 -0.202130
v -0.324456 0.069673 -0.200311
v -0.324071 0.056172 -0.192957
v -0.324158 0.068675 -0.190335
v -0.324158 0.056036 -0.191599
v -0.324071 0.068811 -0.191694
v -0.324143 0.056294 -0.194175
v -0.324143 0.068933 -0.192911
v -0.324360 0.069039 -0.193980
v -0.324360 0.056401 -0.195243
v -0.324721 0.056493 -0.196162
v -0.324721 0.069131 -0.194898
v -0.325226 0.056569 -0.196931
v -0.325226 0.069208 -0.195667
v -0.325845 0.069269 -0.196275
v -0.325845 0.056630 -0.197538
v -0.326549 0.069312 -0.196708
v -0.326549 0.056674 -0.197972
v -0.327337 0.056700 -0.198233
v -0.327337 0.069338 -0.196969
v -0.328209 0.069347 -0.197055
v -0.328209 0.056708 -0.198319
v -0.329244 0.069340 -0.196984
v -0.329244 0.056701 -0.198248
v -0.330038 0.069318 -0.196768
v -0.330038 0.056680 -0.198032
v -0.331289 0.056593 -0.197170
v -0.331289 0.069232 -0.195907
v -0.330903 0.057034 -0.201575
v -0.331289 0.069232 -0.195907
v -0.331289 0.056593 -0.197170
v -0.330903 0.069673 -0.200311
v -0.324456 0.069673 -0.200311
v -0.330903 0.057034 -0.201575
v -0.324456 0.057034 -0.201575
v -0.330903 0.069673 -0.200311
v -0.324456 0.057216 -0.203394
v -0.324456 0.069673 -0.200311
v -0.324456 0.057034 -0.201575
v -0.324456 0.069855 -0.202130
v -0.332731 0.069855 -0.202130
v -0.324456 0.057216 -0.203394
v -0.332731 0.057216 -0.203394
v -0.324456 0.069855 -0.202130
v -0.332731 0.069855 -0.202130
v -0.333309 0.056373 -0.194968
v -0.333309 0.069012 -0.193704
v -0.332731 0.057216 -0.203394
v -0.331380 0.069012 -0.193704
v -0.333309 0.056373 -0.194968
v -0.331380 0.056373 -0.194968
v -0.333309 0.069012 -0.193704
v -0.330791 0.056455 -0.195782
v -0.331380 0.069012 -0.193704
v -0.331380 0.056373 -0.194968
v -0.330791 0.069093 -0.194518
v -0.330178 0.056507 -0.196309
v -0.330178 0.069146 -0.195045
v -0.329493 0.069175 -0.195332
v -0.329493 0.056536 -0.196596
v -0.328688 0.056545 -0.196692
v -0.328688 0.069184 -0.195428
v -0.327738 0.069162 -0.195200
v -0.328688 0.056545 -0.196692
v -0.327738 0.056523 -0.196464
v -0.328688 0.069184 -0.195428
v -0.327005 0.056455 -0.195782
v -0.327738 0.069162 -0.195200
v -0.327738 0.056523 -0.196464
v -0.327005 0.069093 -0.194518
v -0.327005 0.069093 -0.194518
v -0.326537 0.056338 -0.194621
v -0.326537 0.068977 -0.193357
v -0.327005 0.056455 -0.195782
v -0.326380 0.056172 -0.192957
v -0.326380 0.068811 -0.191694
v -0.326561 0.055981 -0.191043
v -0.326561 0.068619 -0.189779
v -0.327102 0.055847 -0.189702
v -0.327102 0.068485 -0.188438
v -0.327956 0.068406 -0.187648
v -0.327102 0.055847 -0.189702
v -0.327956 0.055768 -0.188912
v -0.327102 0.068485 -0.188438
v -0.329075 0.055741 -0.188649
v -0.327956 0.068406 -0.187648
v -0.327956 0.055768 -0.188912
v -0.329075 0.068380 -0.187385
v -0.330181 0.055763 -0.188864
v -0.329075 0.068380 -0.187385
v -0.329075 0.055741 -0.188649
v -0.330181 0.068402 -0.187600
v -0.330999 0.068466 -0.188247
v -0.330181 0.055763 -0.188864
v -0.330999 0.055827 -0.189511
v -0.330181 0.068402 -0.187600
v -0.331504 0.055928 -0.190516
v -0.330999 0.068466 -0.188247
v -0.330999 0.055827 -0.189511
v -0.331504 0.068567 -0.189252
v -0.331673 0.056057 -0.191809
v -0.331673 0.068696 -0.190545
v -0.333886 0.068696 -0.190545
v -0.331673 0.056057 -0.191809
v -0.333886 0.056057 -0.191809
v -0.331673 0.068696 -0.190545
v -0.333886 0.068696 -0.190545
v -0.333763 0.055948 -0.190719
v -0.333763 0.068587 -0.189456
v -0.333886 0.056057 -0.191809
v -0.333489 0.055851 -0.189750
v -0.333489 0.068490 -0.188486
v -0.333065 0.055766 -0.188900
v -0.333065 0.068405 -0.187636
v -0.332491 0.055693 -0.188170
v -0.332491 0.068332 -0.186906
v -0.331796 0.055635 -0.187584
v -0.331796 0.068273 -0.186320
v -0.331011 0.055593 -0.187165
v -0.331011 0.068232 -0.185901
v -0.330136 0.068206 -0.185649
v -0.330136 0.055568 -0.186913
v -0.329171 0.055559 -0.186830
v -0.329171 0.068198 -0.185566
v -0.328073 0.068208 -0.185667
v -0.328073 0.055569 -0.186931
v -0.327090 0.055600 -0.187236
v -0.327090 0.068239 -0.185973
v -0.326221 0.068290 -0.186481
v -0.326221 0.055651 -0.187745
v -0.325466 0.068361 -0.187193
v -0.325466 0.055722 -0.188457
v -0.324856 0.055811 -0.189349
v -0.324856 0.068450 -0.188085
v -0.324420 0.055916 -0.190396
v -0.324420 0.068555 -0.189132
v -0.332731 0.057216 -0.203394
v -0.331380 0.056373 -0.194968
v -0.333309 0.056373 -0.194968
v -0.331289 0.056593 -0.197170
v -0.330903 0.057034 -0.201575
v -0.324456 0.057216 -0.203394
v -0.324456 0.057034 -0.201575
v -0.330791 0.056455 -0.195782
v -0.330038 0.056680 -0.198032
v -0.330178 0.056507 -0.196309
v -0.329493 0.056536 -0.196596
v -0.329244 0.056701 -0.198248
v -0.328688 0.056545 -0.196692
v -0.328209 0.056708 -0.198319
v -0.327738 0.056523 -0.196464
v -0.327337 0.056700 -0.198233
v -0.327005 0.056455 -0.195782
v -0.326549 0.056674 -0.197972
v -0.326537 0.056338 -0.194621
v -0.325845 0.056630 -0.197538
v -0.326380 0.056172 -0.192957
v -0.326221 0.055651 -0.187745
v -0.325466 0.055722 -0.188457
v -0.325226 0.056569 -0.196931
v -0.324856 0.055811 -0.189349
v -0.324721 0.056493 -0.196162
v -0.324420 0.055916 -0.190396
v -0.324360 0.056401 -0.195243
v -0.324158 0.056036 -0.191599
v -0.324143 0.056294 -0.194175
v -0.324071 0.056172 -0.192957
v -0.331673 0.056057 -0.191809
v -0.333763 0.055948 -0.190719
v -0.333886 0.056057 -0.191809
v -0.333489 0.055851 -0.189750
v -0.333065 0.055766 -0.188900
v -0.332491 0.055693 -0.188170
v -0.331796 0.055635 -0.187584
v -0.331504 0.055928 -0.190516
v -0.331011 0.055593 -0.187165
v -0.330999 0.055827 -0.189511
v -0.330136 0.055568 -0.186913
v -0.330181 0.055763 -0.188864
v -0.329075 0.055741 -0.188649
v -0.329171 0.055559 -0.186830
v -0.328073 0.055569 -0.186931
v -0.327956 0.055768 -0.188912
v -0.327090 0.055600 -0.187236
v -0.327102 0.055847 -0.189702
v -0.326561 0.055981 -0.191043
vn 0 0.995037190209989 0.09950371902099936
vn 0 -0.995037190209989 -0.09950371902099936
vn 0.9999970225049317 -0.00024281723703928327 0.0024281723703928216
vn 0.9904296502526351 -0.013733354605385469 0.13733354605385406
vn -0.9999970225049317 0.00024281723703928327 -0.0024281723703928216
vn -0.9904296502526351 0.013733354605385469 -0.13733354605385406
vn 0.9916941210045891 0.012798039130797384 -0.12798039130797326
vn -0.9916941210045891 -0.012798039130797384 0.12798039130797326
vn 0.9594199287323195 0.028058178658219295 -0.28058178658219163
vn -0.9594199287323195 -0.028058178658219295 0.28058178658219163
vn 0.8888994847838066 0.04558288131330253 -0.45582881313302326
vn -0.8888994847838066 -0.04558288131330253 0.45582881313302326
vn 0.7738325882437623 0.06302467891387988 -0.6302467891387961
vn -0.7738325882437623 -0.06302467891387988 0.6302467891387961
vn 0.6181116316321523 0.07821891156963927 -0.7821891156963893
vn -0.6181116316321523 -0.07821891156963927 0.7821891156963893
vn 0.4237933148517207 0.09012638135808487 -0.9012638135808447
vn -0.4237933148517207 -0.09012638135808487 0.9012638135808447
vn 0.2085711033178044 0.09731535421986932 -0.9731535421986889
vn -0.2085711033178044 -0.09731535421986932 0.9731535421986889
vn 0.015007449875730699 0.09949251309949823 -0.9949251309949777
vn -0.015007449875730699 -0.09949251309949823 0.9949251309949777
vn -0.16712900770983163 0.09810420277338452 -0.9810420277338407
vn 0.16712900770983163 -0.09810420277338452 0.9810420277338407
vn -0.4221658171684379 0.09020197484251788 -0.9020197484251744
vn 0.4221658171684379 -0.09020197484251788 0.9020197484251744
vn -0.5691521988109629 0.08181516082292883 -0.8181516082292845
vn 0.5691521988109629 -0.08181516082292883 0.8181516082292845
vn 0.9962149913072115 -0.008649209369677871 0.08649209369677828
vn -0.9962149913072115 0.008649209369677871 -0.08649209369677828
vn 0 -0.09950371902099936 0.995037190209989
vn 0 0.09950371902099936 -0.995037190209989
vn 1 0 0
vn -1 0 0
vn -0.9976836926344163 0.006768629920709248 -0.06768629920709217
vn 0.9976836926344163 -0.006768629920709248 0.06768629920709217
vn 0.7376416375837402 -0.0671841576168148 0.671841576168145
vn 0.8115732273127766 -0.05813511887512593 0.5813511887512567
vn -0.7376416375837402 0.0671841576168148 -0.671841576168145
vn -0.8115732273127766 0.05813511887512593 -0.5813511887512567
vn 0.5274289366372444 -0.08453827516748956 0.8453827516748915
vn -0.5274289366372444 0.08453827516748956 -0.8453827516748915
vn 0.25601001058309186 -0.09618767106116476 0.961876710611643
vn -0.25601001058309186 0.09618767106116476 -0.961876710611643
vn 0.11866309811455192 -0.09880068290269187 0.9880068290269142
vn -0.11866309811455192 0.09880068290269187 -0.9880068290269142
vn -0.23403530216765633 -0.09674031163092527 0.9674031163092485
vn 0.23403530216765633 0.09674031163092527 -0.9674031163092485
vn -0.6830717675982866 -0.07267266637955723 0.7267266637955692
vn 0.6830717675982866 0.07267266637955723 -0.7267266637955692
vn -0.9279319245189138 -0.0370899820290748 0.37089982029074603
vn -0.9719126204524945 -0.023417404504225355 0.23417404504225234
vn 0.9279319245189138 0.0370899820290748 -0.37089982029074603
vn 0.9719126204524945 0.023417404504225355 -0.23417404504225234
vn -0.999999988261571 0.000015246118705375759 -0.00015246118705378314
vn 0.999999988261571 -0.000015246118705375759 0.00015246118705378314
vn -0.9718678061644308 0.023435812347928037 -0.23435812347927923
vn 0.9718678061644308 -0.023435812347928037 0.23435812347927923
vn -0.9279042070927815 0.03709684708914793 -0.37096847089147744
vn 0.9279042070927815 -0.03709684708914793 0.37096847089147744
vn -0.6808466782738962 0.07287910786502563 -0.7287910786502532
vn 0.6808466782738962 -0.07287910786502563 0.7287910786502532
vn -0.23020560554789843 0.09683124951643556 -0.968312495164351
vn 0.23020560554789843 -0.09683124951643556 0.968312495164351
vn 0.19201159354882766 0.09765221922837297 -0.9765221922837256
vn -0.19201159354882766 -0.09765221922837297 0.9765221922837256
vn 0.6218821437464666 0.0779224417203188 -0.7792244172031846
vn -0.6218821437464666 -0.0779224417203188 0.7792244172031846
vn 0.9564294569844359 0.02905145551345189 -0.2905145551345175
vn 0.894427192759941 0.04449941559874061 -0.444994155987404
vn -0.9564294569844359 -0.02905145551345189 0.2905145551345175
vn -0.894427192759941 -0.04449941559874061 0.444994155987404
vn 0.991702510364752 0.012791601102862116 -0.1279160110286206
vn -0.991702510364752 -0.012791601102862116 0.1279160110286206
vn -0.9937161385021072 -0.011137411790479113 0.11137411790479067
vn -0.981435694119769 -0.019083967224511115 0.1908396722451103
vn 0.9937161385021072 0.011137411790479113 -0.11137411790479067
vn 0.981435694119769 0.019083967224511115 -0.1908396722451103
vn -0.9332937368206733 -0.03573316966032149 0.35733169660321323
vn 0.9332937368206733 0.03573316966032149 -0.35733169660321323
vn -0.8459288991975165 -0.05306490491547052 0.5306490491547027
vn 0.8459288991975165 0.05306490491547052 -0.5306490491547027
vn -0.7209184798187771 -0.06895805479669824 0.689580547966979
vn 0.7209184798187771 0.06895805479669824 -0.689580547966979
vn -0.5629718061855512 -0.08223744572641949 0.8223744572641909
vn 0.5629718061855512 0.08223744572641949 -0.8223744572641909
vn -0.37711630732184204 -0.09215695236297228 0.9215695236297187
vn 0.37711630732184204 0.09215695236297228 -0.9215695236297187
vn -0.1829771939949794 -0.09782381346061679 0.9782381346061634
vn 0.1829771939949794 0.09782381346061679 -0.9782381346061634
vn 0.0029377269844580913 -0.09950328964959315 0.995032896495927
vn -0.0029377269844580913 0.09950328964959315 -0.995032896495927
vn 0.19633870887433555 -0.09756699203434215 0.9756699203434169
vn -0.19633870887433555 0.09756699203434215 -0.9756699203434169
vn 0.4050589005532171 -0.09097531419510073 0.9097531419510031
vn -0.4050589005532171 0.09097531419510073 -0.9097531419510031
vn 0.6014156232083877 -0.07949713539647993 0.7949713539647955
vn -0.6014156232083877 0.07949713539647993 -0.7949713539647955
vn 0.7616183517530594 -0.06448098086871551 0.644809808687152
vn -0.7616183517530594 0.06448098086871551 -0.644809808687152
vn 0.8797874287420376 -0.04730081533087044 0.47300815330870216
vn -0.8797874287420376 0.04730081533087044 -0.47300815330870216
vn 0.9544617884843644 -0.02968526225721271 0.2968526225721257
vn -0.9544617884843644 0.02968526225721271 -0.2968526225721257
usemtl material_0_2
f 1//1 2//1 3//1
f 3//2 2//2 1//2
f 2//1 1//1 4//1
f 4//2 1//2 2//2
f 2//1 4//1 5//1
f 5//2 4//2 2//2
f 2//1 5//1 6//1
f 6//2 5//2 2//2
f 2//1 6//1 7//1
f 7//2 6//2 2//2
f 2//1 7//1 8//1
f 8//2 7//2 2//2
f 8//1 7//1 9//1
f 9//2 7//2 8//2
f 8//1 9//1 10//1
f 10//2 9//2 8//2
f 10//1 9//1 11//1
f 11//2 9//2 10//2
f 10//1 11//1 12//1
f 12//2 11//2 10//2
f 12//1 11//1 13//1
f 13//2 11//2 12//2
f 13//1 11//1 14//1
f 14//2 11//2 13//2
f 13//1 14//1 15//1
f 15//2 14//2 13//2
f 13//1 15//1 16//1
f 16//2 15//2 13//2
f 16//1 15//1 17//1
f 17//2 15//2 16//2
f 16//1 17//1 18//1
f 18//2 17//2 16//2
f 18//1 17//1 19//1
f 19//2 17//2 18//2
f 19//1 17//1 20//1
f 20//2 17//2 19//2
f 19//1 20//1 21//1
f 21//2 20//2 19//2
f 22//1 23//1 24//1
f 24//2 23//2 22//2
f 23//1 22//1 25//1
f 25//2 22//2 23//2
f 25//1 22//1 26//1
f 26//2 22//2 25//2
f 25//1 26//1 27//1
f 27//2 26//2 25//2
f 25//1 27//1 28//1
f 28//2 27//2 25//2
f 28//1 27//1 29//1
f 29//2 27//2 28//2
f 28//1 29//1 30//1
f 30//2 29//2 28//2
f 30//1 29//1 31//1
f 31//2 29//2 30//2
f 30//1 31//1 32//1
f 32//2 31//2 30//2
f 32//1 31//1 33//1
f 33//2 31//2 32//2
f 32//1 33//1 34//1
f 34//2 33//2 32//2
f 34//1 33//1 35//1
f 35//2 33//2 34//2
f 34//1 35//1 36//1
f 36//2 35//2 34//2
f 36//1 35//1 21//1
f 21//2 35//2 36//2
f 36//1 21//1 20//1
f 20//2 21//2 36//2
f 36//1 20//1 37//1
f 37//2 20//2 36//2
f 36//1 37//1 38//1
f 38//2 37//2 36//2
f 38//1 37//1 39//1
f 39//2 37//2 38//2
f 38//1 39//1 40//1
f 40//2 39//2 38//2
f 40//1 39//1 41//1
f 41//2 39//2 40//2
f 40//1 41//1 42//1
f 42//2 41//2 40//2
f 42//1 41//1 43//1
f 43//2 41//2 42//2
f 42//1 43//1 44//1
f 44//2 43//2 42//2
f 44//1 43//1 45//1
f 45//2 43//2 44//2
f 24//1 46//1 47//1
f 47//2 46//2 24//2
f 46//1 24//1 23//1
f 23//2 24//2 46//2
f 46//1 23//1 48//1
f 48//2 23//2 46//2
f 46//1 48//1 49//1
f 49//2 48//2 46//2
f 49//1 48//1 50//1
f 50//2 48//2 49//2
f 51//3 52//4 53//4
f 53//6 52//6 51//5
f 52//4 51//3 54//3
f 54//5 51//5 52//6
f 55//7 54//3 51//3
f 51//5 54//5 55//8
f 54//3 55//7 56//7
f 56//8 55//8 54//5
f 55//7 57//9 56//7
f 56//8 57//10 55//8
f 57//9 55//7 58//9
f 58//10 55//8 57//10
f 59//11 57//9 58//9
f 58//10 57//10 59//12
f 57//9 59//11 60//11
f 60//12 59//12 57//10
f 61//13 60//11 59//11
f 59//12 60//12 61//14
f 60//11 61//13 62//13
f 62//14 61//14 60//12
f 63//15 61//13 64//15
f 64//16 61//14 63//16
f 61//13 63//15 62//13
f 62//14 63//16 61//14
f 65//17 64//15 66//17
f 66//18 64//16 65//18
f 64//15 65//17 63//15
f 63//16 65//18 64//16
f 67//19 65//17 66//17
f 66//18 65//18 67//20
f 65//17 67//19 68//19
f 68//20 67//20 65//18
f 69//21 67//19 70//21
f 70//22 67//20 69//22
f 67//19 69//21 68//19
f 68//20 69//22 67//20
f 71//23 70//21 72//23
f 72//24 70//22 71//24
f 70//21 71//23 69//21
f 69//22 71//24 70//22
f 73//25 72//23 74//25
f 74//26 72//24 73//26
f 72//23 73//25 71//23
f 71//24 73//26 72//24
f 75//27 73//25 74//25
f 74//26 73//26 75//28
f 73//25 75//27 76//27
f 76//28 75//28 73//26
f 77//29 78//29 79//29
f 79//30 78//30 77//30
f 78//29 77//29 80//29
f 80//30 77//30 78//30
f 81//31 82//31 83//31
f 83//32 82//32 81//32
f 82//31 81//31 84//31
f 84//32 81//32 82//32
f 85//33 86//33 87//33
f 87//34 86//34 85//34
f 86//33 85//33 88//33
f 88//34 85//34 86//34
f 89//32 90//32 91//32
f 91//31 90//31 89//31
f 90//32 89//32 92//32
f 92//31 89//31 90//31
f 93//35 94//35 95//35
f 95//36 94//36 93//36
f 94//35 93//35 96//35
f 96//36 93//36 94//36
f 97//31 98//31 99//31
f 99//32 98//32 97//32
f 98//31 97//31 100//31
f 100//32 97//32 98//32
f 101//37 102//38 103//38
f 103//40 102//40 101//39
f 102//38 101//37 104//37
f 104//39 101//39 102//40
f 105//41 104//37 101//37
f 101//39 104//39 105//42
f 104//37 105//41 106//41
f 106//42 105//42 104//39
f 107//43 105//41 108//43
f 108//44 105//42 107//44
f 105//41 107//43 106//41
f 106//42 107//44 105//42
f 109//45 107//43 108//43
f 108//44 107//44 109//46
f 107//43 109//45 110//45
f 110//46 109//46 107//44
f 111//47 112//47 113//47
f 113//48 112//48 111//48
f 112//47 111//47 114//47
f 114//48 111//48 112//48
f 115//49 116//49 117//49
f 117//50 116//50 115//50
f 116//49 115//49 118//49
f 118//50 115//50 116//50
f 119//51 120//52 121//52
f 121//54 120//54 119//53
f 120//52 119//51 122//51
f 122//53 119//53 120//54
f 121//52 123//55 124//55
f 124//56 123//56 121//54
f 123//55 121//52 120//52
f 120//54 121//54 123//56
f 124//55 125//57 126//57
f 126//58 125//58 124//56
f 125//57 124//55 123//55
f 123//56 124//56 125//58
f 126//57 127//59 128//59
f 128//60 127//60 126//58
f 127//59 126//57 125//57
f 125//58 126//58 127//60
f 129//61 130//61 131//61
f 131//62 130//62 129//62
f 130//61 129//61 132//61
f 132//62 129//62 130//62
f 133//63 134//63 135//63
f 135//64 134//64 133//64
f 134//63 133//63 136//63
f 136//64 133//64 134//64
f 137//65 138//65 139//65
f 139//66 138//66 137//66
f 138//65 137//65 140//65
f 140//66 137//66 138//66
f 141//67 142//67 143//67
f 143//68 142//68 141//68
f 142//67 141//67 144//67
f 144//68 141//68 142//68
f 145//69 146//70 147//70
f 147//72 146//72 145//71
f 146//70 145//69 148//69
f 148//71 145//71 146//72
f 149//73 148//69 145//69
f 145//71 148//71 149//74
f 148//69 149//73 150//73
f 150//74 149//74 148//71
f 151//32 152//32 153//32
f 153//31 152//31 151//31
f 152//32 151//32 154//32
f 154//31 151//31 152//31
f 155//75 156//76 157//76
f 157//78 156//78 155//77
f 156//76 155//75 158//75
f 158//77 155//77 156//78
f 157//76 159//79 160//79
f 160//80 159//80 157//78
f 159//79 157//76 156//76
f 156//78 157//78 159//80
f 160//79 161//81 162//81
f 162//82 161//82 160//80
f 161//81 160//79 159//79
f 159//80 160//80 161//82
f 162//81 163//83 164//83
f 164//84 163//84 162//82
f 163//83 162//81 161//81
f 161//82 162//82 163//84
f 165//85 164//83 163//83
f 163//84 164//84 165//86
f 164//83 165//85 166//85
f 166//86 165//86 164//84
f 167//87 166//85 165//85
f 165//86 166//86 167//88
f 166//85 167//87 168//87
f 168//88 167//88 166//86
f 169//89 167//87 170//89
f 170//90 167//88 169//90
f 167//87 169//89 168//87
f 168//88 169//90 167//88
f 171//91 169//89 170//89
f 170//90 169//90 171//92
f 169//89 171//91 172//91
f 172//92 171//92 169//90
f 173//93 171//91 174//93
f 174//94 171//92 173//94
f 171//91 173//93 172//91
f 172//92 173//94 171//92
f 175//95 173//93 174//93
f 174//94 173//94 175//96
f 173//93 175//95 176//95
f 176//96 175//96 173//94
f 177//97 175//95 178//97
f 178//98 175//96 177//98
f 175//95 177//97 176//95
f 176//96 177//98 175//96
f 179//99 178//97 180//99
f 180//100 178//98 179//100
f 178//97 179//99 177//97
f 177//98 179//100 178//98
f 181//101 179//99 180//99
f 180//100 179//100 181//102
f 179//99 181//101 182//101
f 182//102 181//102 179//100
f 183//103 182//101 181//101
f 181//102 182//102 183//104
f 182//101 183//103 184//103
f 184//104 183//104 182//102
f 53//4 184//103 183//103
f 183//104 184//104 53//6
f 184//103 53//4 52//4
f 52//6 53//6 184//104
f 185//2 186//2 187//2
f 187//1 186//1 185//1
f 186//2 185//2 188//2
f 188//1 185//1 186//1
f 188//2 185//2 189//2
f 189//1 185//1 188//1
f 189//2 185//2 190//2
f 190//1 185//1 189//1
f 189//2 190//2 191//2
f 191//1 190//1 189//1
f 188//2 192//2 186//2
f 186//1 192//1 188//1
f 192//2 188//2 193//2
f 193//1 188//1 192//1
f 192//2 193//2 194//2
f 194//1 193//1 192//1
f 194//2 193//2 195//2
f 195//1 193//1 194//1
f 195//2 193//2 196//2
f 196//1 193//1 195//1
f 195//2 196//2 197//2
f 197//1 196//1 195//1
f 197//2 196//2 198//2
f 198//1 196//1 197//1
f 197//2 198//2 199//2
f 199//1 198//1 197//1
f 199//2 198//2 200//2
f 200//1 198//1 199//1
f 199//2 200//2 201//2
f 201//1 200//1 199//1
f 201//2 200//2 202//2
f 202//1 200//1 201//1
f 201//2 202//2 203//2
f 203//1 202//1 201//1
f 203//2 202//2 204//2
f 204//1 202//1 203//1
f 203//2 204//2 205//2
f 205//1 204//1 203//1
f 205//2 204//2 206//2
f 206//1 204//1 205//1
f 206//2 204//2 207//2
f 207//1 204//1 206//1
f 207//2 204//2 208//2
f 208//1 204//1 207//1
f 207//2 208//2 209//2
f 209//1 208//1 207//1
f 209//2 208//2 210//2
f 210//1 208//1 209//1
f 209//2 210//2 211//2
f 211//1 210//1 209//1
f 211//2 210//2 212//2
f 212//1 210//1 211//1
f 211//2 212//2 213//2
f 213//1 212//1 211//1
f 213//2 212//2 214//2
f 214//1 212//1 213//1
f 213//2 214//2 215//2
f 215//1 214//1 213//1
f 216//2 217//2 218//2
f 218//1 217//1 216//1
f 217//2 216//2 219//2
f 219//1 216//1 217//1
f 219//2 216//2 220//2
f 220//1 216//1 219//1
f 220//2 216//2 221//2
f 221//1 216//1 220//1
f 221//2 216//2 222//2
f 222//1 216//1 221//1
f 222//2 216//2 223//2
f 223//1 216//1 222//1
f 222//2 223//2 224//2
f 224//1 223//1 222//1
f 224//2 223//2 225//2
f 225//1 223//1 224//1
f 224//2 225//2 226//2
f 226//1 225//1 224//1
f 226//2 225//2 227//2
f 227//1 225//1 226//1
f 226//2 227//2 228//2
f 228//1 227//1 226//1
f 226//2 228//2 229//2
f 229//1 228//1 226//1
f 229//2 228//2 230//2
f 230//1 228//1 229//1
f 230//2 228//2 231//2
f 231//1 228//1 230//1
f 230//2 231//2 232//2
f 232//1 231//1 230//1
f 232//2 231//2 233//2
f 233//1 231//1 232//1
f 232//2 233//2 234//2
f 234//1 233//1 232//1
f 232//2 234//2 206//2
f 206//1 234//1 232//1
f 206//2 234//2 205//2
f 205//1 234//1 206//1
