# SSTK version 0.8.0
# 174
mtllib original-174.mtl
o #ID1214
v 0.282827 0.057027 -0.201504
v 0.282286 0.069546 -0.199043
v 0.282286 0.056907 -0.200307
v 0.282827 0.069666 -0.200240
v 0.280010 0.056851 -0.199748
v 0.282106 0.056720 -0.198440
v 0.279893 0.056720 -0.198440
v 0.280266 0.056966 -0.200894
v 0.280659 0.057064 -0.201878
v 0.281192 0.057146 -0.202701
v 0.281856 0.057211 -0.203350
v 0.282286 0.056907 -0.200307
v 0.282647 0.057258 -0.203814
v 0.282827 0.057027 -0.201504
v 0.283564 0.057286 -0.204092
v 0.283609 0.057091 -0.202150
v 0.284607 0.057295 -0.204185
v 0.284512 0.057113 -0.202366
v 0.285510 0.057093 -0.202162
v 0.285606 0.057287 -0.204104
v 0.286196 0.057031 -0.201552
v 0.286484 0.057262 -0.203862
v 0.286592 0.056939 -0.200630
v 0.287242 0.057222 -0.203458
v 0.286725 0.056826 -0.199493
v 0.286797 0.056366 -0.194897
v 0.287975 0.056500 -0.196238
v 0.287880 0.057166 -0.202892
v 0.288384 0.057095 -0.202189
v 0.288769 0.056646 -0.197698
v 0.288745 0.057014 -0.201372
v 0.288962 0.056920 -0.200442
v 0.289034 0.056816 -0.199398
v 0.282334 0.056212 -0.193353
v 0.281721 0.055820 -0.189440
v 0.281095 0.056074 -0.191977
v 0.282972 0.056002 -0.191259
v 0.284031 0.056366 -0.194897
v 0.285377 0.056232 -0.193557
v 0.285270 0.056486 -0.196094
v 0.286099 0.056596 -0.197195
v 0.286568 0.056706 -0.198296
v 0.280194 0.055939 -0.190625
v 0.279508 0.055638 -0.187621
v 0.279508 0.055792 -0.189152
v 0.289323 0.055638 -0.187621
v 0.289323 0.055820 -0.189440
v 0.283609 0.057091 -0.202150
v 0.282827 0.069666 -0.200240
v 0.282827 0.057027 -0.201504
v 0.283609 0.069730 -0.200886
v 0.289323 0.068277 -0.186357
v 0.279508 0.068430 -0.187889
v 0.279508 0.068277 -0.186357
v 0.281721 0.068459 -0.188176
v 0.280194 0.068578 -0.189361
v 0.281095 0.068713 -0.190713
v 0.289323 0.068459 -0.188176
v 0.282334 0.068850 -0.192090
v 0.282972 0.068641 -0.189995
v 0.284031 0.069005 -0.193634
v 0.285377 0.068871 -0.192293
v 0.285270 0.069125 -0.194830
v 0.286099 0.069235 -0.195931
v 0.286797 0.069005 -0.193634
v 0.286568 0.069345 -0.197033
v 0.286725 0.069464 -0.198229
v 0.282106 0.069359 -0.197176
v 0.280010 0.069490 -0.198484
v 0.279893 0.069359 -0.197176
v 0.280266 0.069604 -0.199630
v 0.280659 0.069703 -0.200614
v 0.281192 0.069785 -0.201437
v 0.281856 0.069850 -0.202086
v 0.282286 0.069546 -0.199043
v 0.282647 0.069897 -0.202550
v 0.282827 0.069666 -0.200240
v 0.283564 0.069924 -0.202828
v 0.283609 0.069730 -0.200886
v 0.284607 0.069934 -0.202921
v 0.284512 0.069752 -0.201102
v 0.285510 0.069731 -0.200898
v 0.285606 0.069926 -0.202840
v 0.286196 0.069670 -0.200288
v 0.286484 0.069901 -0.202598
v 0.286592 0.069578 -0.199366
v 0.287242 0.069861 -0.202194
v 0.287975 0.069139 -0.194974
v 0.287880 0.069804 -0.201628
v 0.288384 0.069734 -0.200925
v 0.288769 0.069285 -0.196434
v 0.288745 0.069652 -0.200109
v 0.288962 0.069559 -0.199178
v 0.289034 0.069455 -0.198134
v 0.282106 0.056720 -0.198440
v 0.282106 0.069359 -0.197176
v 0.289323 0.068277 -0.186357
v 0.279508 0.055638 -0.187621
v 0.289323 0.055638 -0.187621
v 0.279508 0.068277 -0.186357
v 0.279508 0.068430 -0.187889
v 0.279508 0.055638 -0.187621
v 0.279508 0.068277 -0.186357
v 0.279508 0.055792 -0.189152
v 0.280194 0.068578 -0.189361
v 0.279508 0.055792 -0.189152
v 0.279508 0.068430 -0.187889
v 0.280194 0.055939 -0.190625
v 0.281095 0.068713 -0.190713
v 0.281095 0.056074 -0.191977
v 0.282334 0.068850 -0.192090
v 0.282334 0.056212 -0.193353
v 0.284031 0.069005 -0.193634
v 0.284031 0.056366 -0.194897
v 0.285270 0.056486 -0.196094
v 0.285270 0.069125 -0.194830
v 0.286099 0.069235 -0.195931
v 0.286099 0.056596 -0.197195
v 0.286568 0.069345 -0.197033
v 0.286568 0.056706 -0.198296
v 0.286725 0.069464 -0.198229
v 0.286725 0.056826 -0.199493
v 0.286592 0.069578 -0.199366
v 0.286592 0.056939 -0.200630
v 0.286196 0.069670 -0.200288
v 0.286196 0.057031 -0.201552
v 0.286196 0.069670 -0.200288
v 0.285510 0.057093 -0.202162
v 0.286196 0.057031 -0.201552
v 0.285510 0.069731 -0.200898
v 0.285510 0.057093 -0.202162
v 0.284512 0.069752 -0.201102
v 0.284512 0.057113 -0.202366
v 0.285510 0.069731 -0.200898
v 0.284512 0.069752 -0.201102
v 0.283609 0.057091 -0.202150
v 0.284512 0.057113 -0.202366
v 0.283609 0.069730 -0.200886
v 0.282106 0.069359 -0.197176
v 0.279893 0.056720 -0.198440
v 0.282106 0.056720 -0.198440
v 0.279893 0.069359 -0.197176
v 0.280010 0.069490 -0.198484
v 0.279893 0.056720 -0.198440
v 0.279893 0.069359 -0.197176
v 0.280010 0.056851 -0.199748
v 0.280266 0.069604 -0.199630
v 0.280266 0.056966 -0.200894
v 0.280659 0.069703 -0.200614
v 0.280659 0.057064 -0.201878
v 0.281192 0.069785 -0.201437
v 0.281192 0.057146 -0.202701
v 0.281856 0.057211 -0.203350
v 0.281856 0.069850 -0.202086
v 0.282647 0.069897 -0.202550
v 0.282647 0.057258 -0.203814
v 0.283564 0.057286 -0.204092
v 0.283564 0.069924 -0.202828
v 0.284607 0.057295 -0.204185
v 0.284607 0.069934 -0.202921
v 0.285606 0.057287 -0.204104
v 0.285606 0.069926 -0.202840
v 0.286484 0.057262 -0.203862
v 0.286484 0.069901 -0.202598
v 0.287242 0.069861 -0.202194
v 0.287242 0.057222 -0.203458
v 0.287880 0.057166 -0.202892
v 0.287880 0.069804 -0.201628
v 0.288384 0.069734 -0.200925
v 0.288384 0.057095 -0.202189
v 0.288745 0.069652 -0.200109
v 0.288745 0.057014 -0.201372
v 0.288962 0.069559 -0.199178
v 0.288962 0.056920 -0.200442
v 0.289034 0.069455 -0.198134
v 0.289034 0.056816 -0.199398
v 0.288769 0.069285 -0.196434
v 0.288769 0.056646 -0.197698
v 0.287975 0.069139 -0.194974
v 0.287975 0.056500 -0.196238
v 0.286797 0.069005 -0.193634
v 0.286797 0.056366 -0.194897
v 0.285377 0.056232 -0.193557
v 0.285377 0.068871 -0.192293
v 0.282972 0.068641 -0.189995
v 0.282972 0.056002 -0.191259
v 0.281721 0.068459 -0.188176
v 0.281721 0.055820 -0.189440
v 0.281721 0.068459 -0.188176
v 0.289323 0.055820 -0.189440
v 0.281721 0.055820 -0.189440
v 0.289323 0.068459 -0.188176
v 0.289323 0.055820 -0.189440
v 0.289323 0.068277 -0.186357
v 0.289323 0.055638 -0.187621
v 0.289323 0.068459 -0.188176
vn 0.9119214973305163 -0.04083281328365861 0.40832813283658415
vn 0.9665551912243999 -0.025518593942527628 0.25518593942527507
vn -0.9119214973305163 0.04083281328365861 -0.40832813283658415
vn -0.9665551912243999 0.025518593942527628 -0.25518593942527507
vn 0 -0.995037190209989 -0.09950371902099936
vn 0 0.995037190209989 0.09950371902099936
vn 0.6390196882427167 -0.07653730327400683 0.7653730327400645
vn -0.6390196882427167 0.07653730327400683 -0.7653730327400645
vn 0.9954090286037042 -0.009523740931430817 0.09523740931430774
vn -0.9954090286037042 0.009523740931430817 -0.09523740931430774
vn 0 -0.09950371902099936 0.995037190209989
vn 0 0.09950371902099936 -0.995037190209989
vn -1 0 0
vn 1 0 0
vn -0.8727662293562691 0.04857158735282075 -0.4857158735282052
vn -0.9073106118337831 0.041837433337329866 -0.4183743333732967
vn 0.8727662293562691 -0.04857158735282075 0.4857158735282052
vn 0.9073106118337831 -0.041837433337329866 0.4183743333732967
vn -0.7911051241462715 0.06086445601039043 -0.6086445601039013
vn 0.7911051241462715 -0.06086445601039043 0.6086445601039013
vn -0.7108357996478353 0.06998673607991075 -0.6998673607991043
vn 0.7108357996478353 -0.06998673607991075 0.6998673607991043
vn -0.6858724677534995 0.0724110213957895 -0.7241102139578915
vn 0.6858724677534995 -0.0724110213957895 0.7241102139578915
vn -0.7505923111195915 0.06574863492827986 -0.6574863492827955
vn 0.7505923111195915 -0.06574863492827986 0.6574863492827955
vn -0.8667113049776674 0.049633459831954184 -0.4963345983195396
vn 0.8667113049776674 -0.049633459831954184 0.4963345983195396
vn -0.9650630706891228 0.02607173455096267 -0.2607173455096255
vn 0.9650630706891228 -0.02607173455096267 0.2607173455096255
vn -0.9999755040260675 0.000696464535800325 -0.0069646453580031655
vn 0.9999755040260675 -0.000696464535800325 0.0069646453580031655
vn -0.9663683888074619 -0.02558854499163284 0.2558854499163273
vn 0.9663683888074619 0.02558854499163284 -0.2558854499163273
vn -0.9191450262489178 -0.03919643607787205 0.39196436077871866
vn 0.9191450262489178 0.03919643607787205 -0.39196436077871866
vn -0.6667948923441877 -0.0741542793370491 0.7415427933704879
vn 0.6667948923441877 0.0741542793370491 -0.7415427933704879
vn -0.2006537085732194 -0.09748003549017899 0.9748003549017854
vn 0.2006537085732194 0.09748003549017899 -0.9748003549017854
vn 0.23337300003216865 -0.09675615174015706 0.9675615174015662
vn -0.23337300003216865 0.09675615174015706 -0.9675615174015662
vn -0.9882112752649905 0.015233650687173651 -0.1523365068717358
vn -0.9960413096668617 0.008845040808396988 -0.08845040808396945
vn 0.9882112752649905 -0.015233650687173651 0.1523365068717358
vn 0.9960413096668617 -0.008845040808396988 0.08845040808396945
vn -0.9557307956173899 0.029278222621714124 -0.2927822262171399
vn 0.9557307956173899 -0.029278222621714124 0.2927822262171399
vn -0.8891046895463663 0.045543239276849105 -0.4554323927684888
vn 0.8891046895463663 -0.045543239276849105 0.4554323927684888
vn -0.775550607146099 0.06281524502442401 -0.628152450244237
vn 0.775550607146099 -0.06281524502442401 0.628152450244237
vn -0.6086914378314016 0.07894695132726011 -0.7894695132725974
vn 0.6086914378314016 -0.07894695132726011 0.7894695132725974
vn -0.40251130958719605 0.09108719822097183 -0.9108719822097142
vn 0.40251130958719605 -0.09108719822097183 0.9108719822097142
vn -0.191344394261282 0.09766518491460445 -0.97665184914604
vn 0.191344394261282 -0.09766518491460445 0.97665184914604
vn -0.0039769480069587896 0.09950293213673414 -0.9950293213673367
vn 0.0039769480069587896 -0.09950293213673414 0.9950293213673367
vn 0.1749648967599294 0.09796884152585848 -0.9796884152585803
vn -0.1749648967599294 -0.09796884152585848 0.9796884152585803
vn 0.3720358828801571 0.09236117770484328 -0.9236117770484288
vn -0.3720358828801571 -0.09236117770484328 0.9236117770484288
vn 0.5728320039917437 0.08156049174624437 -0.81560491746244
vn -0.5728320039917437 -0.08156049174624437 0.81560491746244
vn 0.744058395327293 0.06647988636064696 -0.6647988636064666
vn -0.744058395327293 -0.06647988636064696 0.6647988636064666
vn 0.8691104903006549 0.049216329461238786 -0.49216329461238556
vn -0.8691104903006549 -0.049216329461238786 0.49216329461238556
vn 0.9489768690228833 0.03137806859429337 -0.31378068594293224
vn -0.9489768690228833 -0.03137806859429337 0.31378068594293224
vn 0.9890559565406546 0.014680867468181981 -0.14680867468181913
vn -0.9890559565406546 -0.014680867468181981 0.14680867468181913
vn 0.9990959971514175 -0.004230006525771684 0.04230006525771665
vn -0.9990959971514175 0.004230006525771684 -0.04230006525771665
vn 0.9477142450516114 -0.03175364791178325 0.3175364791178311
vn -0.9477142450516114 0.03175364791178325 -0.3175364791178311
vn 0.8211562537196607 -0.05678711391419636 0.5678711391419611
vn -0.8211562537196607 0.05678711391419636 -0.5678711391419611
vn 0.7212753023435177 -0.0689211012701467 0.6892110127014639
vn -0.7212753023435177 0.0689211012701467 -0.6892110127014639
vn 0.690481836483237 -0.07197598839758519 0.7197598839758488
vn -0.690481836483237 0.07197598839758519 -0.7197598839758488
vn 0.7629533961812404 -0.06432452646930367 0.6432452646930339
vn -0.7629533961812404 0.06432452646930367 -0.6432452646930339
vn 0.8253072834617005 -0.05618814644250394 0.5618814644250368
vn -0.8253072834617005 0.05618814644250394 -0.5618814644250368
usemtl material_0_2
f 1//1 2//2 3//2
f 3//4 2//4 1//3
f 2//2 1//1 4//1
f 4//3 1//3 2//4
f 5//5 6//5 7//5
f 7//6 6//6 5//6
f 6//5 5//5 8//5
f 8//6 5//6 6//6
f 6//5 8//5 9//5
f 9//6 8//6 6//6
f 6//5 9//5 10//5
f 10//6 9//6 6//6
f 6//5 10//5 11//5
f 11//6 10//6 6//6
f 6//5 11//5 12//5
f 12//6 11//6 6//6
f 12//5 11//5 13//5
f 13//6 11//6 12//6
f 12//5 13//5 14//5
f 14//6 13//6 12//6
f 14//5 13//5 15//5
f 15//6 13//6 14//6
f 14//5 15//5 16//5
f 16//6 15//6 14//6
f 16//5 15//5 17//5
f 17//6 15//6 16//6
f 16//5 17//5 18//5
f 18//6 17//6 16//6
f 18//5 17//5 19//5
f 19//6 17//6 18//6
f 19//5 17//5 20//5
f 20//6 17//6 19//6
f 19//5 20//5 21//5
f 21//6 20//6 19//6
f 21//5 20//5 22//5
f 22//6 20//6 21//6
f 21//5 22//5 23//5
f 23//6 22//6 21//6
f 23//5 22//5 24//5
f 24//6 22//6 23//6
f 23//5 24//5 25//5
f 25//6 24//6 23//6
f 25//5 24//5 26//5
f 26//6 24//6 25//6
f 26//5 24//5 27//5
f 27//6 24//6 26//6
f 27//5 24//5 28//5
f 28//6 24//6 27//6
f 27//5 28//5 29//5
f 29//6 28//6 27//6
f 27//5 29//5 30//5
f 30//6 29//6 27//6
f 30//5 29//5 31//5
f 31//6 29//6 30//6
f 30//5 31//5 32//5
f 32//6 31//6 30//6
f 30//5 32//5 33//5
f 33//6 32//6 30//6
f 34//5 35//5 36//5
f 36//6 35//6 34//6
f 35//5 34//5 37//5
f 37//6 34//6 35//6
f 37//5 34//5 38//5
f 38//6 34//6 37//6
f 37//5 38//5 39//5
f 39//6 38//6 37//6
f 39//5 38//5 40//5
f 40//6 38//6 39//6
f 39//5 40//5 41//5
f 41//6 40//6 39//6
f 39//5 41//5 26//5
f 26//6 41//6 39//6
f 26//5 41//5 42//5
f 42//6 41//6 26//6
f 26//5 42//5 25//5
f 25//6 42//6 26//6
f 43//5 44//5 45//5
f 45//6 44//6 43//6
f 44//5 43//5 35//5
f 35//6 43//6 44//6
f 44//5 35//5 46//5
f 46//6 35//6 44//6
f 35//5 43//5 36//5
f 36//6 43//6 35//6
f 46//5 35//5 47//5
f 47//6 35//6 46//6
f 48//7 49//7 50//7
f 50//8 49//8 48//8
f 49//7 48//7 51//7
f 51//8 48//8 49//8
f 52//6 53//6 54//6
f 54//5 53//5 52//5
f 53//6 52//6 55//6
f 55//5 52//5 53//5
f 53//6 55//6 56//6
f 56//5 55//5 53//5
f 56//6 55//6 57//6
f 57//5 55//5 56//5
f 55//6 52//6 58//6
f 58//5 52//5 55//5
f 55//6 59//6 57//6
f 57//5 59//5 55//5
f 59//6 55//6 60//6
f 60//5 55//5 59//5
f 59//6 60//6 61//6
f 61//5 60//5 59//5
f 61//6 60//6 62//6
f 62//5 60//5 61//5
f 61//6 62//6 63//6
f 63//5 62//5 61//5
f 63//6 62//6 64//6
f 64//5 62//5 63//5
f 64//6 62//6 65//6
f 65//5 62//5 64//5
f 64//6 65//6 66//6
f 66//5 65//5 64//5
f 66//6 65//6 67//6
f 67//5 65//5 66//5
f 68//6 69//6 70//6
f 70//5 69//5 68//5
f 69//6 68//6 71//6
f 71//5 68//5 69//5
f 71//6 68//6 72//6
f 72//5 68//5 71//5
f 72//6 68//6 73//6
f 73//5 68//5 72//5
f 73//6 68//6 74//6
f 74//5 68//5 73//5
f 74//6 68//6 75//6
f 75//5 68//5 74//5
f 74//6 75//6 76//6
f 76//5 75//5 74//5
f 76//6 75//6 77//6
f 77//5 75//5 76//5
f 76//6 77//6 78//6
f 78//5 77//5 76//5
f 78//6 77//6 79//6
f 79//5 77//5 78//5
f 78//6 79//6 80//6
f 80//5 79//5 78//5
f 80//6 79//6 81//6
f 81//5 79//5 80//5
f 80//6 81//6 82//6
f 82//5 81//5 80//5
f 80//6 82//6 83//6
f 83//5 82//5 80//5
f 83//6 82//6 84//6
f 84//5 82//5 83//5
f 83//6 84//6 85//6
f 85//5 84//5 83//5
f 85//6 84//6 86//6
f 86//5 84//5 85//5
f 85//6 86//6 87//6
f 87//5 86//5 85//5
f 87//6 86//6 67//6
f 67//5 86//5 87//5
f 87//6 67//6 65//6
f 65//5 67//5 87//5
f 87//6 65//6 88//6
f 88//5 65//5 87//5
f 87//6 88//6 89//6
f 89//5 88//5 87//5
f 89//6 88//6 90//6
f 90//5 88//5 89//5
f 90//6 88//6 91//6
f 91//5 88//5 90//5
f 90//6 91//6 92//6
f 92//5 91//5 90//5
f 92//6 91//6 93//6
f 93//5 91//5 92//5
f 93//6 91//6 94//6
f 94//5 91//5 93//5
f 95//9 2//2 96//9
f 96//10 2//4 95//10
f 2//2 95//9 3//2
f 3//4 95//10 2//4
f 97//11 98//11 99//11
f 99//12 98//12 97//12
f 98//11 97//11 100//11
f 100//12 97//12 98//12
f 101//13 102//13 103//13
f 103//14 102//14 101//14
f 102//13 101//13 104//13
f 104//14 101//14 102//14
f 105//15 106//16 107//16
f 107//18 106//18 105//17
f 106//16 105//15 108//15
f 108//17 105//17 106//18
f 109//19 108//15 105//15
f 105//17 108//17 109//20
f 108//15 109//19 110//19
f 110//20 109//20 108//17
f 111//21 110//19 109//19
f 109//20 110//20 111//22
f 110//19 111//21 112//21
f 112//22 111//22 110//20
f 112//21 113//23 114//23
f 114//24 113//24 112//22
f 113//23 112//21 111//21
f 111//22 112//22 113//24
f 113//23 115//25 114//23
f 114//24 115//26 113//24
f 115//25 113//23 116//25
f 116//26 113//24 115//26
f 117//27 115//25 116//25
f 116//26 115//26 117//28
f 115//25 117//27 118//27
f 118//28 117//28 115//26
f 119//29 118//27 117//27
f 117//28 118//28 119//30
f 118//27 119//29 120//29
f 120//30 119//30 118//28
f 121//31 120//29 119//29
f 119//30 120//30 121//32
f 120//29 121//31 122//31
f 122//32 121//32 120//30
f 123//33 122//31 121//31
f 121//32 122//32 123//34
f 122//31 123//33 124//33
f 124//34 123//34 122//32
f 125//35 124//33 123//33
f 123//34 124//34 125//36
f 124//33 125//35 126//35
f 126//36 125//36 124//34
f 127//37 128//37 129//37
f 129//38 128//38 127//38
f 128//37 127//37 130//37
f 130//38 127//38 128//38
f 131//39 132//39 133//39
f 133//40 132//40 131//40
f 132//39 131//39 134//39
f 134//40 131//40 132//40
f 135//41 136//41 137//41
f 137//42 136//42 135//42
f 136//41 135//41 138//41
f 138//42 135//42 136//42
f 139//11 140//11 141//11
f 141//12 140//12 139//12
f 140//11 139//11 142//11
f 142//12 139//12 140//12
f 143//43 144//44 145//44
f 145//46 144//46 143//45
f 144//44 143//43 146//43
f 146//45 143//45 144//46
f 147//47 146//43 143//43
f 143//45 146//45 147//48
f 146//43 147//47 148//47
f 148//48 147//48 146//45
f 149//49 148//47 147//47
f 147//48 148//48 149//50
f 148//47 149//49 150//49
f 150//50 149//50 148//48
f 151//51 150//49 149//49
f 149//50 150//50 151//52
f 150//49 151//51 152//51
f 152//52 151//52 150//50
f 151//51 153//53 152//51
f 152//52 153//54 151//52
f 153//53 151//51 154//53
f 154//54 151//52 153//54
f 153//53 155//55 156//55
f 156//56 155//56 153//54
f 155//55 153//53 154//53
f 154//54 153//54 155//56
f 155//55 157//57 156//55
f 156//56 157//58 155//56
f 157//57 155//55 158//57
f 158//58 155//56 157//58
f 158//57 159//59 157//57
f 157//58 159//60 158//58
f 159//59 158//57 160//59
f 160//60 158//58 159//60
f 160//59 161//61 159//59
f 159//60 161//62 160//60
f 161//61 160//59 162//61
f 162//62 160//60 161//62
f 162//61 163//63 161//61
f 161//62 163//64 162//62
f 163//63 162//61 164//63
f 164//64 162//62 163//64
f 163//63 165//65 166//65
f 166//66 165//66 163//64
f 165//65 163//63 164//63
f 164//64 163//64 165//66
f 165//65 167//67 166//65
f 166//66 167//68 165//66
f 167//67 165//65 168//67
f 168//68 165//66 167//68
f 167//67 169//69 170//69
f 170//70 169//70 167//68
f 169//69 167//67 168//67
f 168//68 167//68 169//70
f 170//69 171//71 172//71
f 172//72 171//72 170//70
f 171//71 170//69 169//69
f 169//70 170//70 171//72
f 172//71 173//73 174//73
f 174//74 173//74 172//72
f 173//73 172//71 171//71
f 171//72 172//72 173//74
f 174//73 175//75 176//75
f 176//76 175//76 174//74
f 175//75 174//73 173//73
f 173//74 174//74 175//76
f 176//75 177//77 178//77
f 178//78 177//78 176//76
f 177//77 176//75 175//75
f 175//76 176//76 177//78
f 178//77 179//79 180//79
f 180//80 179//80 178//78
f 179//79 178//77 177//77
f 177//78 178//78 179//80
f 180//79 181//81 182//81
f 182//82 181//82 180//80
f 181//81 180//79 179//79
f 179//80 180//80 181//82
f 181//81 183//83 182//81
f 182//82 183//84 181//82
f 183//83 181//81 184//83
f 184//84 181//82 183//84
f 183//83 185//85 186//85
f 186//86 185//86 183//84
f 185//85 183//83 184//83
f 184//84 183//84 185//86
f 186//85 187//87 188//87
f 188//88 187//88 186//86
f 187//87 186//85 185//85
f 185//86 186//86 187//88
f 189//12 190//12 191//12
f 191//11 190//11 189//11
f 190//12 189//12 192//12
f 192//11 189//11 190//11
f 193//14 194//14 195//14
f 195//13 194//13 193//13
f 194//14 193//14 196//14
f 196//13 193//13 194//13
