# SSTK version 0.8.0
# 7
mtllib original-7.mtl
o #ID187
v 0.569677 0.045294 -0.233109
v 0.568932 0.039577 -0.234050
v 0.569677 0.039535 -0.233685
v 0.568932 0.045331 -0.233474
v 0.568145 0.039607 -0.234315
v 0.568145 0.045358 -0.233740
v 0.570367 0.045249 -0.232650
v 0.570367 0.039483 -0.233226
v 0.567330 0.039625 -0.234476
v 0.567330 0.045374 -0.233901
v 0.570992 0.045194 -0.232105
v 0.570992 0.039421 -0.232682
v 0.566501 0.039632 -0.234530
v 0.566501 0.045379 -0.233955
v 0.571539 0.039351 -0.232061
v 0.571539 0.045132 -0.231483
v 0.566501 0.045379 -0.233955
v 0.333634 0.039632 -0.234530
v 0.566501 0.039632 -0.234530
v 0.333634 0.045379 -0.233955
v 0.572001 0.045063 -0.230796
v 0.572001 0.039273 -0.231375
v 0.333634 0.039632 -0.234530
v 0.332805 0.045374 -0.233901
v 0.332805 0.039625 -0.234476
v 0.333634 0.045379 -0.233955
v 0.572369 0.039189 -0.230634
v 0.572369 0.044989 -0.230054
v 0.331990 0.045358 -0.233740
v 0.331990 0.039607 -0.234315
v 0.572635 0.039100 -0.229853
v 0.572635 0.044911 -0.229272
v 0.331204 0.045331 -0.233474
v 0.331204 0.039577 -0.234050
v 0.572798 0.039008 -0.229043
v 0.572798 0.044830 -0.228461
v 0.330459 0.045294 -0.233109
v 0.330459 0.039535 -0.233685
v 0.572853 0.038914 -0.228219
v 0.572853 0.044747 -0.227636
v 0.329768 0.045249 -0.232650
v 0.329768 0.039483 -0.233226
v 0.572853 0.044747 -0.227636
v 0.572853 0.030784 -0.156696
v 0.572853 0.037585 -0.156016
v 0.572853 0.038914 -0.228219
v 0.329144 0.045194 -0.232105
v 0.329144 0.039421 -0.232682
v 0.572853 0.037585 -0.156016
v 0.572798 0.030691 -0.155873
v 0.572798 0.037503 -0.155191
v 0.572853 0.030784 -0.156696
v 0.328596 0.039351 -0.232061
v 0.328596 0.045132 -0.231483
v 0.572635 0.037422 -0.154381
v 0.572635 0.030599 -0.155063
v 0.328134 0.039273 -0.231375
v 0.328134 0.045063 -0.230796
v 0.572369 0.037343 -0.153598
v 0.572369 0.030510 -0.154281
v 0.327767 0.039189 -0.230634
v 0.327767 0.044989 -0.230054
v 0.572001 0.030426 -0.153541
v 0.572001 0.037269 -0.152857
v 0.327499 0.044911 -0.229272
v 0.327499 0.039100 -0.229853
v 0.571539 0.037200 -0.152169
v 0.571539 0.030348 -0.152854
v 0.327338 0.044830 -0.228461
v 0.327338 0.039008 -0.229043
v 0.570992 0.037138 -0.151548
v 0.570992 0.030277 -0.152234
v 0.327283 0.044747 -0.227636
v 0.327283 0.038914 -0.228219
v 0.570367 0.037084 -0.151003
v 0.570367 0.030215 -0.151690
v 0.327283 0.030784 -0.156696
v 0.327283 0.044747 -0.227636
v 0.327283 0.037585 -0.156016
v 0.327283 0.038914 -0.228219
v 0.569677 0.037038 -0.150543
v 0.569677 0.030163 -0.151231
v 0.327283 0.030784 -0.156696
v 0.327338 0.037503 -0.155191
v 0.327338 0.030691 -0.155873
v 0.327283 0.037585 -0.156016
v 0.568932 0.037001 -0.150178
v 0.568932 0.030122 -0.150866
v 0.327499 0.037422 -0.154381
v 0.327499 0.030599 -0.155063
v 0.568145 0.036975 -0.149912
v 0.568145 0.030092 -0.150600
v 0.327767 0.037343 -0.153598
v 0.327767 0.030510 -0.154281
v 0.567330 0.036959 -0.149751
v 0.567330 0.030073 -0.150439
v 0.328134 0.037269 -0.152857
v 0.328134 0.030426 -0.153541
v 0.566501 0.036953 -0.149697
v 0.566501 0.030067 -0.150385
v 0.328596 0.030348 -0.152854
v 0.328596 0.037200 -0.152169
v 0.333634 0.036953 -0.149697
v 0.566501 0.030067 -0.150385
v 0.333634 0.030067 -0.150385
v 0.566501 0.036953 -0.149697
v 0.329144 0.037138 -0.151548
v 0.329144 0.030277 -0.152234
v 0.332805 0.030073 -0.150439
v 0.333634 0.036953 -0.149697
v 0.333634 0.030067 -0.150385
v 0.332805 0.036959 -0.149751
v 0.329768 0.037084 -0.151003
v 0.329768 0.030215 -0.151690
v 0.331990 0.030092 -0.150600
v 0.331990 0.036975 -0.149912
v 0.330459 0.037038 -0.150543
v 0.330459 0.030163 -0.151231
v 0.331204 0.030122 -0.150866
v 0.331204 0.037001 -0.150178
vn -0.5000000053282748 -0.08617274813711462 0.861727481371125
vn -0.3828821944459637 -0.09192125478338521 0.9192125478339008
vn -0.5002434921437203 -0.08615875564293815 0.8615875564293604
vn 0.5000000053282748 0.08617274813711462 -0.861727481371125
vn 0.3828821944459637 0.09192125478338521 -0.9192125478339008
vn 0.5002434921437203 0.08615875564293815 -0.8615875564293604
vn -0.3826834194479983 -0.0919294499446382 0.9192944994464307
vn 0.3826834194479983 0.0919294499446382 -0.9192944994464307
vn -0.2589596158229923 -0.09610946303501741 0.9610946303501694
vn 0.2589596158229923 0.09610946303501741 -0.9610946303501694
vn -0.2588190119694586 -0.09611321289758583 0.9611321289758534
vn 0.2588190119694586 0.09611321289758583 -0.9611321289758534
vn -0.6087614339793801 -0.07894160747719298 0.7894160747719075
vn -0.6090329953999133 -0.0789208658999536 0.7892086589995139
vn 0.6087614339793801 0.07894160747719298 -0.7894160747719075
vn 0.6090329953999133 0.0789208658999536 -0.7892086589995139
vn -0.13059899780952605 -0.09865149689345931 0.9865149689344949
vn 0.13059899780952605 0.09865149689345931 -0.9865149689344949
vn -0.13052619613120228 -0.09865245085972685 0.9865245085971702
vn 0.13052619613120228 0.09865245085972685 -0.9865245085971702
vn -0.7071067846651026 -0.07035975412690036 0.7035975412690002
vn -0.7073879287603964 -0.07033176811638564 0.703317681163853
vn 0.7071067846651026 0.07035975412690036 -0.7035975412690002
vn 0.7073879287603964 0.07033176811638564 -0.703317681163853
vn -0.06540313215406847 -0.09929067390146991 0.9929067390146112
vn 0.06540313215406847 0.09929067390146991 -0.9929067390146112
vn -0.7936248845279301 -0.06053879720403083 0.6053879720403426
vn -0.7933533422625324 -0.06057402592727263 0.6057402592727604
vn 0.7936248845279301 0.06053879720403083 -0.6053879720403426
vn 0.7933533422625324 0.06057402592727263 -0.6057402592727604
vn 0 -0.09950371902099936 0.995037190209989
vn 0 0.09950371902099936 -0.995037190209989
vn -0.8660254049685001 -0.049751859306440105 0.497518593064317
vn -0.8662688652644822 -0.049709876409106325 0.49709876409097803
vn 0.8660254049685001 0.049751859306440105 -0.497518593064317
vn 0.8662688652644822 0.049709876409106325 -0.49709876409097803
vn 0.06540313215406847 -0.09929067390146255 0.9929067390146119
vn 0.13052619613120228 -0.09865245085971995 0.9865245085971709
vn 0.13059899780952605 -0.09865149689345241 0.9865149689344955
vn -0.06540313215406847 0.09929067390146255 -0.9929067390146119
vn -0.13052619613120228 0.09865245085971995 -0.9865245085971709
vn -0.13059899780952605 0.09865149689345241 -0.9865149689344955
vn -0.9240783056615373 -0.03803063968057747 0.38030639680550815
vn -0.9238795405240917 -0.038078422803211796 0.3807842280318516
vn 0.9240783056615373 0.03803063968057747 -0.38030639680550815
vn 0.9238795405240917 0.038078422803211796 -0.3807842280318516
vn 0.2588190119694586 -0.09611321289758447 0.9611321289758535
vn 0.2589596158229923 -0.09610946303501605 0.9610946303501695
vn -0.2588190119694586 0.09611321289758447 -0.9611321289758535
vn -0.2589596158229923 0.09610946303501605 -0.9610946303501695
vn -0.9660663305384745 -0.025701224110772115 0.25701224110756865
vn -0.9659258364402841 -0.025753453771495606 0.25753453771480245
vn 0.9660663305384745 0.025701224110772115 -0.25701224110756865
vn 0.9659258364402841 0.025753453771495606 -0.25753453771480245
vn 0.3826834194479983 -0.0919294499446345 0.919294499446431
vn 0.3828821944459637 -0.0919212547833815 0.9192125478339012
vn -0.3826834194479983 0.0919294499446345 -0.919294499446431
vn -0.3828821944459637 0.0919212547833815 -0.9192125478339012
vn -0.9915175073411587 -0.012932816741571623 0.12932816741570272
vn -0.9914448611912798 -0.012987841693503886 0.12987841693502533
vn 0.9915175073411587 0.012932816741571623 -0.12932816741570272
vn 0.9914448611912798 0.012987841693503886 -0.12987841693502533
vn 0.5000000053282748 -0.08617274813710173 0.8617274813711263
vn 0.5002434921437203 -0.08615875564292526 0.8615875564293617
vn -0.5000000053282748 0.08617274813710173 -0.8617274813711263
vn -0.5002434921437203 0.08615875564292526 -0.8615875564293617
vn -0.9978589231309517 -0.006507854757441302 0.06507854757439985
vn 0.9978589231309517 0.006507854757441302 -0.06507854757439985
vn 0.6087614339793801 -0.07894160747718809 0.789416074771908
vn 0.6090329953999132 -0.07892086589994876 0.7892086589995143
vn -0.6087614339793801 0.07894160747718809 -0.789416074771908
vn -0.6090329953999132 0.07892086589994876 -0.7892086589995143
vn -1 0 0
vn 1 0 0
vn 0.7071067846651026 -0.0703597541269105 0.7035975412689992
vn 0.7073879287603964 -0.07033176811639583 0.703317681163852
vn -0.7071067846651026 0.0703597541269105 -0.7035975412689992
vn -0.7073879287603964 0.07033176811639583 -0.703317681163852
vn -0.9978589231309517 0.006507854757439706 -0.0650785475744
vn -0.9913718867850116 0.013042877534490672 -0.13042877534480776
vn -0.9914448611912798 0.01298784169351226 -0.1298784169350245
vn 0.9978589231309517 -0.006507854757439706 0.0650785475744
vn 0.9913718867850116 -0.013042877534490672 0.13042877534480776
vn 0.9914448611912798 -0.01298784169351226 0.1298784169350245
vn 0.7936248845279301 -0.06053879720404582 0.6053879720403411
vn 0.7933533422625324 -0.060574025927287625 0.605740259272759
vn -0.7936248845279301 0.06053879720404582 -0.6053879720403411
vn -0.7933533422625324 0.060574025927287625 -0.605740259272759
vn -0.9659258364402841 0.02575345377148764 -0.2575345377148032
vn -0.9657850119576292 0.02580569257139785 -0.25805692571390637
vn 0.9659258364402841 -0.02575345377148764 0.2575345377148032
vn 0.9657850119576292 -0.02580569257139785 0.25805692571390637
vn 0.8662688652644822 -0.04970987640910765 0.4970987640909779
vn 0.8660254049685001 -0.049751859306441534 0.4975185930643169
vn -0.8662688652644822 0.04970987640910765 -0.4970987640909779
vn -0.8660254049685001 0.049751859306441534 -0.4975185930643169
vn -0.9238795405240917 0.03807842280318045 -0.3807842280318547
vn -0.923680446436704 0.0381262146854642 -0.3812621468546921
vn 0.9238795405240917 -0.03807842280318045 0.3807842280318547
vn 0.923680446436704 -0.0381262146854642 0.3812621468546921
vn 0.9240783056615373 -0.03803063968056741 0.38030639680550915
vn 0.9238795405240917 -0.03807842280320173 0.3807842280318526
vn -0.9240783056615373 0.03803063968056741 -0.38030639680550915
vn -0.9238795405240917 0.03807842280320173 -0.3807842280318526
vn -0.8657816207550225 0.049793850783694575 -0.4979385078369995
vn -0.8660254049685001 0.04975185930642647 -0.4975185930643184
vn 0.8657816207550225 -0.049793850783694575 0.4979385078369995
vn 0.8660254049685001 -0.04975185930642647 0.4975185930643184
vn 0.9659258364402841 -0.025753453771502295 0.2575345377148018
vn 0.9660663305384745 -0.02570122411077893 0.257012241107568
vn -0.9659258364402841 0.025753453771502295 -0.2575345377148018
vn -0.9660663305384745 0.02570122411077893 -0.257012241107568
vn -0.7933533422625324 0.06057402592726124 -0.6057402592727616
vn -0.7930814341467278 0.060609269526945946 -0.6060926952696093
vn 0.7933533422625324 -0.06057402592726124 0.6057402592727616
vn 0.7930814341467278 -0.060609269526945946 0.6060926952696093
vn 0.9914448611912798 -0.012987841693513687 0.12987841693502436
vn 0.9915175073411587 -0.012932816741581322 0.12932816741570174
vn -0.9914448611912798 0.012987841693513687 -0.12987841693502436
vn -0.9915175073411587 0.012932816741581322 -0.12932816741570174
vn -0.7071067846651026 0.070359754126879 -0.7035975412690023
vn -0.7068252786635401 0.0703877538742675 -0.7038775387428872
vn 0.7071067846651026 -0.070359754126879 0.7035975412690023
vn 0.7068252786635401 -0.0703877538742675 0.7038775387428872
vn 0.9978589231309517 -0.006507854757439154 0.06507854757440006
vn -0.9978589231309517 0.006507854757439154 -0.06507854757440006
vn -0.6087614339793801 0.07894160747718551 -0.7894160747719082
vn -0.608489515714233 0.07896236158566874 -0.7896236158567399
vn 0.6087614339793801 -0.07894160747718551 0.7894160747719082
vn 0.608489515714233 -0.07896236158566874 0.7896236158567399
vn -0.5000000053282748 0.0861727481371118 -0.8617274813711253
vn -0.4997562106286664 0.08618674922493028 -0.8618674922493105
vn 0.5000000053282748 -0.0861727481371118 0.8617274813711253
vn 0.4997562106286664 -0.08618674922493028 0.8618674922493105
vn 0.9978589231309517 0.006507854757452219 -0.06507854757439875
vn 0.9914448611912798 0.012987841693508712 -0.12987841693502486
vn 0.9913718867850116 0.013042877534486987 -0.13042877534480812
vn -0.9978589231309517 -0.006507854757452219 0.06507854757439875
vn -0.9914448611912798 -0.012987841693508712 0.12987841693502486
vn -0.9913718867850116 -0.013042877534486987 0.13042877534480812
vn -0.3826834194479983 0.09192944994463761 -0.9192944994464307
vn -0.38248438529569173 0.09193765079504505 -0.9193765079505051
vn 0.3826834194479983 -0.09192944994463761 0.9192944994464307
vn 0.38248438529569173 -0.09193765079504505 0.9193765079505051
vn 0.9659258364402841 0.02575345377147782 -0.2575345377148042
vn 0.9657850119576292 0.025805692571388112 -0.25805692571390737
vn -0.9659258364402841 -0.02575345377147782 0.2575345377148042
vn -0.9657850119576292 -0.025805692571388112 0.25805692571390737
vn -0.2588190119694586 0.09611321289759242 -0.9611321289758528
vn -0.2586783093302444 0.09611696320970241 -0.9611696320969526
vn 0.2588190119694586 -0.09611321289759242 0.9611321289758528
vn 0.2586783093302444 -0.09611696320970241 0.9611696320969526
vn 0.9238795405240917 0.038078422803181765 -0.3807842280318546
vn 0.923680446436704 0.038126214685465516 -0.381262146854692
vn -0.9238795405240917 -0.038078422803181765 0.3807842280318546
vn -0.923680446436704 -0.038126214685465516 0.381262146854692
vn -0.13052619613120228 0.09865245085972858 -0.98652450859717
vn -0.130453295453159 0.0986534055809991 -0.986534055809875
vn 0.13052619613120228 -0.09865245085972858 0.98652450859717
vn 0.130453295453159 -0.0986534055809991 0.986534055809875
vn 0.8660254049685001 0.04975185930642778 -0.4975185930643183
vn 0.8657816207550225 0.04979385078369587 -0.4979385078369994
vn -0.8660254049685001 -0.04975185930642778 0.4975185930643183
vn -0.8657816207550225 -0.04979385078369587 0.4979385078369994
vn -0.06540313215406847 0.09929067390146856 -0.9929067390146114
vn 0.06540313215406847 -0.09929067390146856 0.9929067390146114
vn 0.7930814341467278 0.06060926952695984 -0.6060926952696079
vn 0.7933533422625326 0.060574025927275045 -0.6057402592727603
vn -0.7930814341467278 -0.06060926952695984 0.6060926952696079
vn -0.7933533422625326 -0.060574025927275045 0.6057402592727603
vn 0.7071067846651026 0.07035975412689902 -0.7035975412690003
vn 0.7068252786635401 0.07038775387428747 -0.7038775387428852
vn -0.7071067846651026 -0.07035975412689902 0.7035975412690003
vn -0.7068252786635401 -0.07038775387428747 0.7038775387428852
vn 0.130453295453159 0.09865340558098189 -0.9865340558098767
vn 0.06540313215406847 0.09929067390145148 -0.992906739014613
vn -0.130453295453159 -0.09865340558098189 0.9865340558098767
vn -0.06540313215406847 -0.09929067390145148 0.992906739014613
vn 0.13052619613120228 0.09865245085971137 -0.9865245085971718
vn -0.13052619613120228 -0.09865245085971137 0.9865245085971718
vn 0.6087614339793801 0.0789416074771826 -0.7894160747719086
vn 0.608489515714233 0.07896236158566575 -0.7896236158567402
vn -0.6087614339793801 -0.0789416074771826 0.7894160747719086
vn -0.608489515714233 -0.07896236158566575 0.7896236158567402
vn 0.2586783093302443 0.09611696320968947 -0.9611696320969537
vn -0.2586783093302443 -0.09611696320968947 0.9611696320969537
vn 0.2588190119694586 0.09611321289757951 -0.9611321289758541
vn -0.2588190119694586 -0.09611321289757951 0.9611321289758541
vn 0.5000000053282748 0.08617274813709756 -0.8617274813711268
vn 0.4997562106286664 0.08618674922491604 -0.8618674922493119
vn -0.5000000053282748 -0.08617274813709756 0.8617274813711268
vn -0.4997562106286664 -0.08618674922491604 0.8618674922493119
vn 0.38248438529569173 0.0919376507950357 -0.9193765079505061
vn -0.38248438529569173 -0.0919376507950357 0.9193765079505061
vn 0.3826834194479983 0.09192944994462826 -0.9192944994464317
vn -0.3826834194479983 -0.09192944994462826 0.9192944994464317
usemtl material_0_2
f 1//1 2//2 3//3
f 3//6 2//5 1//4
f 2//2 1//1 4//7
f 4//8 1//4 2//5
f 4//7 5//9 2//2
f 2//5 5//10 4//8
f 5//9 4//7 6//11
f 6//12 4//8 5//10
f 7//13 3//3 8//14
f 8//16 3//6 7//15
f 3//3 7//13 1//1
f 1//4 7//15 3//6
f 6//11 9//17 5//9
f 5//10 9//18 6//12
f 9//17 6//11 10//19
f 10//20 6//12 9//18
f 11//21 8//14 12//22
f 12//24 8//16 11//23
f 8//14 11//21 7//13
f 7//15 11//23 8//16
f 10//19 13//25 9//17
f 9//18 13//26 10//20
f 13//25 10//19 14//25
f 14//26 10//20 13//26
f 11//21 15//27 16//28
f 16//30 15//29 11//23
f 15//27 11//21 12//22
f 12//24 11//23 15//29
f 17//31 18//31 19//31
f 19//32 18//32 17//32
f 18//31 17//31 20//31
f 20//32 17//32 18//32
f 21//33 15//27 22//34
f 22//36 15//29 21//35
f 15//27 21//33 16//28
f 16//30 21//35 15//29
f 23//37 24//38 25//39
f 25//42 24//41 23//40
f 24//38 23//37 26//37
f 26//40 23//40 24//41
f 21//33 27//43 28//44
f 28//46 27//45 21//35
f 27//43 21//33 22//34
f 22//36 21//35 27//45
f 25//39 29//47 30//48
f 30//50 29//49 25//42
f 29//47 25//39 24//38
f 24//41 25//42 29//49
f 28//44 31//51 32//52
f 32//54 31//53 28//46
f 31//51 28//44 27//43
f 27//45 28//46 31//53
f 30//48 33//55 34//56
f 34//58 33//57 30//50
f 33//55 30//48 29//47
f 29//49 30//50 33//57
f 32//52 35//59 36//60
f 36//62 35//61 32//54
f 35//59 32//52 31//51
f 31//53 32//54 35//61
f 34//56 37//63 38//64
f 38//66 37//65 34//58
f 37//63 34//56 33//55
f 33//57 34//58 37//65
f 36//60 39//67 40//67
f 40//68 39//68 36//62
f 39//67 36//60 35//59
f 35//61 36//62 39//68
f 38//64 41//69 42//70
f 42//72 41//71 38//66
f 41//69 38//64 37//63
f 37//65 38//66 41//71
f 43//73 44//73 45//73
f 45//74 44//74 43//74
f 44//73 43//73 46//73
f 46//74 43//74 44//74
f 42//70 47//75 48//76
f 48//78 47//77 42//72
f 47//75 42//70 41//69
f 41//71 42//72 47//77
f 49//79 50//80 51//81
f 51//84 50//83 49//82
f 50//80 49//79 52//79
f 52//82 49//82 50//83
f 53//85 47//75 54//86
f 54//88 47//77 53//87
f 47//75 53//85 48//76
f 48//78 53//87 47//77
f 55//89 50//80 56//90
f 56//92 50//83 55//91
f 50//80 55//89 51//81
f 51//84 55//91 50//83
f 57//93 54//86 58//94
f 58//96 54//88 57//95
f 54//86 57//93 53//85
f 53//87 57//95 54//88
f 59//97 56//90 60//98
f 60//100 56//92 59//99
f 56//90 59//97 55//89
f 55//91 59//99 56//92
f 61//101 58//94 62//102
f 62//104 58//96 61//103
f 58//94 61//101 57//93
f 57//95 61//103 58//96
f 59//97 63//105 64//106
f 64//108 63//107 59//99
f 63//105 59//97 60//98
f 60//100 59//99 63//107
f 61//101 65//109 66//110
f 66//112 65//111 61//103
f 65//109 61//101 62//102
f 62//104 61//103 65//111
f 67//113 63//105 68//114
f 68//116 63//107 67//115
f 63//105 67//113 64//106
f 64//108 67//115 63//107
f 66//110 69//117 70//118
f 70//120 69//119 66//112
f 69//117 66//110 65//109
f 65//111 66//112 69//119
f 71//121 68//114 72//122
f 72//124 68//116 71//123
f 68//114 71//121 67//113
f 67//115 71//123 68//116
f 70//118 73//125 74//125
f 74//126 73//126 70//120
f 73//125 70//118 69//117
f 69//119 70//120 73//126
f 75//127 72//122 76//128
f 76//130 72//124 75//129
f 72//122 75//127 71//121
f 71//123 75//129 72//124
f 77//74 78//74 79//74
f 79//73 78//73 77//73
f 78//74 77//74 80//74
f 80//73 77//73 78//73
f 81//131 76//128 82//132
f 82//134 76//130 81//133
f 76//128 81//131 75//127
f 75//129 81//133 76//130
f 83//135 84//136 85//137
f 85//140 84//139 83//138
f 84//136 83//135 86//135
f 86//138 83//138 84//139
f 87//141 82//132 88//142
f 88//144 82//134 87//143
f 82//132 87//141 81//131
f 81//133 87//143 82//134
f 85//137 89//145 90//146
f 90//148 89//147 85//140
f 89//145 85//137 84//136
f 84//139 85//140 89//147
f 91//149 88//142 92//150
f 92//152 88//144 91//151
f 88//142 91//149 87//141
f 87//143 91//151 88//144
f 90//146 93//153 94//154
f 94//156 93//155 90//148
f 93//153 90//146 89//145
f 89//147 90//148 93//155
f 95//157 92//150 96//158
f 96//160 92//152 95//159
f 92//150 95//157 91//149
f 91//151 95//159 92//152
f 94//154 97//161 98//162
f 98//164 97//163 94//156
f 97//161 94//154 93//153
f 93//155 94//156 97//163
f 99//165 96//158 100//165
f 100//166 96//160 99//166
f 96//158 99//165 95//157
f 95//159 99//166 96//160
f 101//167 97//161 102//168
f 102//170 97//163 101//169
f 97//161 101//167 98//162
f 98//164 101//169 97//163
f 103//32 104//32 105//32
f 105//31 104//31 103//31
f 104//32 103//32 106//32
f 106//31 103//31 104//31
f 101//167 107//171 108//172
f 108//174 107//173 101//169
f 107//171 101//167 102//168
f 102//170 101//169 107//173
f 109//175 110//176 111//176
f 111//178 110//178 109//177
f 110//176 109//175 112//179
f 112//180 109//177 110//178
f 108//172 113//181 114//182
f 114//184 113//183 108//174
f 113//181 108//172 107//171
f 107//173 108//174 113//183
f 115//185 112//179 109//175
f 109//177 112//180 115//186
f 112//179 115//185 116//187
f 116//188 115//186 112//180
f 114//182 117//189 118//190
f 118//192 117//191 114//184
f 117//189 114//182 113//181
f 113//183 114//184 117//191
f 119//193 116//187 115//185
f 115//186 116//188 119//194
f 116//187 119//193 120//195
f 120//196 119//194 116//188
f 118//190 120//195 119//193
f 119//194 120//196 118//192
f 120//195 118//190 117//189
f 117//191 118//192 120//196
