# SSTK version 0.8.0
# 519
mtllib original-519.mtl
o #ID3284
v -0.852274 0.038017 -0.011403
v -0.852070 0.050494 -0.008523
v -0.852070 0.037855 -0.009787
v -0.852274 0.050655 -0.010139
v -0.852070 0.038179 -0.013031
v -0.852070 0.050818 -0.011767
v -0.851457 0.050373 -0.007314
v -0.851457 0.037734 -0.008578
v -0.851457 0.038304 -0.014275
v -0.851457 0.050943 -0.013011
v -0.851457 0.050373 -0.007314
v -0.850554 0.037659 -0.007824
v -0.851457 0.037734 -0.008578
v -0.850554 0.050298 -0.006560
v -0.850554 0.051022 -0.013801
v -0.851457 0.038304 -0.014275
v -0.850554 0.038383 -0.015065
v -0.851457 0.050943 -0.013011
v -0.850554 0.050298 -0.006560
v -0.849484 0.037634 -0.007573
v -0.850554 0.037659 -0.007824
v -0.849484 0.050272 -0.006309
v -0.849484 0.038409 -0.015329
v -0.850554 0.051022 -0.013801
v -0.850554 0.038383 -0.015065
v -0.849484 0.051048 -0.014065
v -0.849484 0.050272 -0.006309
v -0.848221 0.037659 -0.007824
v -0.849484 0.037634 -0.007573
v -0.848221 0.050298 -0.006560
v -0.848221 0.051022 -0.013801
v -0.849484 0.038409 -0.015329
v -0.848221 0.038383 -0.015065
v -0.849484 0.051048 -0.014065
v -0.848221 0.050298 -0.006560
v -0.847319 0.037734 -0.008578
v -0.848221 0.037659 -0.007824
v -0.847319 0.050373 -0.007314
v -0.847725 0.038350 -0.014736
v -0.848221 0.051022 -0.013801
v -0.848221 0.038383 -0.015065
v -0.847725 0.050989 -0.013472
v -0.846778 0.050494 -0.008523
v -0.847319 0.037734 -0.008578
v -0.847319 0.050373 -0.007314
v -0.846778 0.037855 -0.009787
v -0.847319 0.038304 -0.014275
v -0.847319 0.050943 -0.013011
v -0.846597 0.050655 -0.010139
v -0.846597 0.038017 -0.011403
v -0.846778 0.038179 -0.013031
v -0.846778 0.050818 -0.011767
vn 0.9999998961284646 0.00004535264026482916 -0.0004535264026482895
vn 0.9563844214204834 0.029066131231970674 -0.29066131231970543
vn -0.9999998961284646 -0.00004535264026482916 0.0004535264026482895
vn -0.9563844214204834 -0.029066131231970674 0.29066131231970543
vn 0.95820373401621 -0.02846669134293262 0.2846669134293249
vn -0.95820373401621 0.02846669134293262 -0.2846669134293249
vn 0.8926525661193822 0.044850841488014555 -0.4485084148801435
vn -0.8926525661193822 -0.044850841488014555 0.4485084148801435
vn 0.8978538069047454 -0.04381086051738587 0.4381086051738567
vn -0.8978538069047454 0.04381086051738587 -0.4381086051738567
vn 0.6431920807526965 0.07619048219300226 -0.7619048219300196
vn -0.6431920807526965 -0.07619048219300226 0.7619048219300196
vn 0.6606279098265443 -0.07469878554543262 0.746987855454323
vn -0.6606279098265443 0.07469878554543262 -0.746987855454323
vn 0.2296487938961082 0.09684433929807104 -0.9684433929807064
vn -0.2296487938961082 -0.09684433929807104 0.9684433929807064
vn 0.23996830792461302 -0.09659629224336927 0.9659629224336882
vn -0.23996830792461302 0.09659629224336927 -0.9659629224336882
vn -0.19611609853198722 0.09757142475986151 -0.9757142475986105
vn 0.19611609853198722 -0.09757142475986151 0.9757142475986105
vn -0.20507081026165142 -0.09738898034612445 0.9738898034612397
vn 0.20507081026165142 0.09738898034612445 -0.9738898034612397
vn -0.6431920807526965 0.07619048219300226 -0.7619048219300196
vn 0.6431920807526965 -0.07619048219300226 0.7619048219300196
vn -0.6590275816316238 -0.07483861492338881 0.7483861492338847
vn -0.5547002000035719 -0.08279209844849322 0.8279209844849281
vn 0.6590275816316238 0.07483861492338881 -0.7483861492338847
vn 0.5547002000035719 0.08279209844849322 -0.8279209844849281
vn -0.9651187030776882 0.026051337163689958 -0.2605133716368984
vn -0.9134382246305084 0.0404957655510182 -0.4049576555101801
vn 0.9651187030776882 -0.026051337163689958 0.2605133716368984
vn 0.9134382246305084 -0.0404957655510182 0.4049576555101801
vn -0.845092389822722 -0.05319670695009126 0.5319670695009102
vn 0.845092389822722 0.05319670695009126 -0.5319670695009102
vn -0.9999999185732098 0.00004015484556611101 -0.0004015484556611433
vn 0.9999999185732098 -0.00004015484556611101 0.0004015484556611433
vn -0.9666186247674754 -0.02549479353810976 0.25494793538109645
vn 0.9666186247674754 0.02549479353810976 -0.25494793538109645
usemtl material_0_2
f 1//1 2//2 3//2
f 3//4 2//4 1//3
f 2//2 1//1 4//1
f 4//3 1//3 2//4
f 5//5 4//1 1//1
f 1//3 4//3 5//6
f 4//1 5//5 6//5
f 6//6 5//6 4//3
f 3//2 7//7 8//7
f 8//8 7//8 3//4
f 7//7 3//2 2//2
f 2//4 3//4 7//8
f 9//9 6//5 5//5
f 5//6 6//6 9//10
f 6//5 9//9 10//9
f 10//10 9//10 6//6
f 11//11 12//11 13//11
f 13//12 12//12 11//12
f 12//11 11//11 14//11
f 14//12 11//12 12//12
f 15//13 16//13 17//13
f 17//14 16//14 15//14
f 16//13 15//13 18//13
f 18//14 15//14 16//14
f 19//15 20//15 21//15
f 21//16 20//16 19//16
f 20//15 19//15 22//15
f 22//16 19//16 20//16
f 23//17 24//17 25//17
f 25//18 24//18 23//18
f 24//17 23//17 26//17
f 26//18 23//18 24//18
f 27//19 28//19 29//19
f 29//20 28//20 27//20
f 28//19 27//19 30//19
f 30//20 27//20 28//20
f 31//21 32//21 33//21
f 33//22 32//22 31//22
f 32//21 31//21 34//21
f 34//22 31//22 32//22
f 35//23 36//23 37//23
f 37//24 36//24 35//24
f 36//23 35//23 38//23
f 38//24 35//24 36//24
f 39//25 40//26 41//26
f 41//28 40//28 39//27
f 40//26 39//25 42//25
f 42//27 39//27 40//28
f 43//29 44//30 45//30
f 45//32 44//32 43//31
f 44//30 43//29 46//29
f 46//31 43//31 44//32
f 42//25 47//33 48//33
f 48//34 47//34 42//27
f 47//33 42//25 39//25
f 39//27 42//27 47//34
f 49//35 46//29 43//29
f 43//31 46//31 49//36
f 46//29 49//35 50//35
f 50//36 49//36 46//31
f 48//33 51//37 52//37
f 52//38 51//38 48//34
f 51//37 48//33 47//33
f 47//34 48//34 51//38
f 52//37 50//35 49//35
f 49//36 50//36 52//38
f 50//35 52//37 51//37
f 51//38 52//38 50//36
