# SSTK version 0.8.0
# 508
mtllib original-508.mtl
o #ID3218
v 0.125107 0.069152 -0.195105
v 0.124927 0.056786 -0.199098
v 0.125107 0.056513 -0.196369
v 0.124927 0.069425 -0.197834
v 0.124927 0.056239 -0.193628
v 0.124927 0.068878 -0.192364
v 0.124386 0.069631 -0.199893
v 0.124386 0.056992 -0.201157
v 0.124386 0.056030 -0.191534
v 0.124386 0.068668 -0.190270
v 0.123974 0.069706 -0.200647
v 0.123974 0.057067 -0.201911
v 0.123974 0.055952 -0.190759
v 0.123974 0.068591 -0.189495
v 0.123459 0.069760 -0.201185
v 0.123459 0.057121 -0.202449
v 0.123459 0.055897 -0.190205
v 0.123459 0.068536 -0.188941
v 0.122843 0.069792 -0.201508
v 0.122843 0.057154 -0.202772
v 0.122843 0.055864 -0.189873
v 0.122843 0.068502 -0.188609
v 0.122124 0.057164 -0.202880
v 0.122124 0.069803 -0.201616
v 0.122124 0.055853 -0.189762
v 0.122124 0.068491 -0.188499
v 0.121403 0.069792 -0.201508
v 0.121403 0.057154 -0.202772
v 0.121403 0.068502 -0.188609
v 0.121403 0.055864 -0.189873
v 0.120777 0.057121 -0.202449
v 0.120777 0.069760 -0.201185
v 0.120777 0.068536 -0.188941
v 0.120777 0.055897 -0.190205
v 0.120248 0.069706 -0.200647
v 0.120248 0.057067 -0.201911
v 0.120248 0.055952 -0.190759
v 0.120248 0.068591 -0.189495
v 0.119815 0.069631 -0.199893
v 0.119815 0.056992 -0.201157
v 0.119815 0.056030 -0.191534
v 0.119815 0.068668 -0.190270
v 0.119237 0.069425 -0.197834
v 0.119237 0.056786 -0.199098
v 0.119237 0.056239 -0.193628
v 0.119237 0.068878 -0.192364
v 0.119045 0.069152 -0.195105
v 0.119045 0.056513 -0.196369
vn -0.9999999897713815 -0.00001423189724151228 0.00014231897241512653
vn -0.9871005400178358 -0.01593070511031616 0.15930705110316087
vn 0.9999999897713815 0.00001423189724151228 -0.00014231897241512653
vn 0.9871005400178358 0.01593070511031616 -0.15930705110316087
vn -0.987457363590944 0.01571023349714691 -0.15710233497146842
vn 0.987457363590944 -0.01571023349714691 0.15710233497146842
vn -0.9298012100827084 -0.03662354781748931 0.36623547817489155
vn 0.9298012100827084 0.03662354781748931 -0.36623547817489155
vn -0.9326462263967721 0.03590016635663796 -0.35900166356637797
vn 0.9326462263967721 -0.03590016635663796 0.35900166356637797
vn -0.8086991254584671 -0.05853032762853881 0.5853032762853855
vn 0.8086991254584671 0.05853032762853881 -0.5853032762853855
vn -0.8160120313400775 0.05751662391704064 -0.5751662391704038
vn 0.8160120313400775 -0.05751662391704064 0.5751662391704038
vn -0.6035585121368063 -0.07933617670976383 0.7933617670976346
vn 0.6035585121368063 0.07933617670976383 -0.7933617670976346
vn -0.6134996807809782 0.07857758615758635 -0.7857758615758601
vn 0.6134996807809782 -0.07857758615758635 0.7857758615758601
vn -0.3118997127377217 -0.09453997892840633 0.9453997892840591
vn 0.3118997127377217 0.09453997892840633 -0.9453997892840591
vn -0.3192415014816661 0.09429702722715393 -0.942970272271535
vn 0.3192415014816661 -0.09429702722715393 0.942970272271535
vn -0.000306873888569882 -0.09950371433578784 0.9950371433578741
vn 0.000306873888569882 0.09950371433578784 -0.9950371433578741
vn -0.00031500618747043577 0.09950371408417705 -0.9950371408417659
vn 0.00031500618747043577 -0.09950371408417705 0.9950371408417659
vn 0.30877208878230805 -0.09464157487563685 0.9464157487563643
vn -0.30877208878230805 0.09464157487563685 -0.9464157487563643
vn 0.3160702944637351 0.09440273788599796 -0.9440273788599755
vn -0.3160702944637351 -0.09440273788599796 0.9440273788599755
vn 0.5954081786864502 -0.07994361260023926 0.7994361260023889
vn -0.5954081786864502 0.07994361260023926 -0.7994361260023889
vn 0.6053976054733046 0.07919731839189549 -0.7919731839189516
vn -0.6053976054733046 -0.07919731839189549 0.7919731839189516
vn 0.7981040937439073 -0.05995293992322492 0.5995293992322465
vn -0.7981040937439073 0.05995293992322492 -0.5995293992322465
vn 0.8056944214664074 0.058939178183359885 -0.5893917818335962
vn -0.8056944214664074 -0.058939178183359885 0.5893917818335962
vn 0.9227477764600838 -0.038349169771432406 0.38349169771432234
vn -0.9227477764600838 0.038349169771432406 -0.38349169771432234
vn 0.9258324161115201 0.0376058686800248 -0.3760586868002463
vn -0.9258324161115201 -0.0376058686800248 0.3760586868002463
vn 0.9853975152145772 -0.016942458531116072 0.1694245853111599
vn -0.9853975152145772 0.016942458531116072 -0.1694245853111599
vn 0.9857990240384908 0.016709600076021847 -0.16709600076021763
vn -0.9857990240384908 -0.016709600076021847 0.16709600076021763
vn 0.9999999883758554 -0.00001517171977800341 0.00015171719778005527
vn -0.9999999883758554 0.00001517171977800341 -0.00015171719778005527
usemtl material_0_2
f 1//1 2//2 3//1
f 3//3 2//4 1//3
f 2//2 1//1 4//2
f 4//4 1//3 2//4
f 1//1 5//5 6//5
f 6//6 5//6 1//3
f 5//5 1//1 3//1
f 3//3 1//3 5//6
f 7//7 2//2 4//2
f 4//4 2//4 7//8
f 2//2 7//7 8//7
f 8//8 7//8 2//4
f 6//5 9//9 10//9
f 10//10 9//10 6//6
f 9//9 6//5 5//5
f 5//6 6//6 9//10
f 11//11 8//7 7//7
f 7//8 8//8 11//12
f 8//7 11//11 12//11
f 12//12 11//12 8//8
f 10//9 13//13 14//13
f 14//14 13//14 10//10
f 13//13 10//9 9//9
f 9//10 10//10 13//14
f 15//15 12//11 11//11
f 11//12 12//12 15//16
f 12//11 15//15 16//15
f 16//16 15//16 12//12
f 14//13 17//17 18//17
f 18//18 17//18 14//14
f 17//17 14//13 13//13
f 13//14 14//14 17//18
f 16//15 19//19 20//19
f 20//20 19//20 16//16
f 19//19 16//15 15//15
f 15//16 16//16 19//20
f 21//21 18//17 17//17
f 17//18 18//18 21//22
f 18//17 21//21 22//21
f 22//22 21//22 18//18
f 19//19 23//23 20//19
f 20//20 23//24 19//20
f 23//23 19//19 24//23
f 24//24 19//20 23//24
f 25//25 22//21 21//21
f 21//22 22//22 25//26
f 22//21 25//25 26//25
f 26//26 25//26 22//22
f 23//23 27//27 28//27
f 28//28 27//28 23//24
f 27//27 23//23 24//23
f 24//24 23//24 27//28
f 29//29 25//25 30//29
f 30//30 25//26 29//30
f 25//25 29//29 26//25
f 26//26 29//30 25//26
f 27//27 31//31 28//27
f 28//28 31//32 27//28
f 31//31 27//27 32//31
f 32//32 27//28 31//32
f 33//33 30//29 34//33
f 34//34 30//30 33//34
f 30//29 33//33 29//29
f 29//30 33//34 30//30
f 31//31 35//35 36//35
f 36//36 35//36 31//32
f 35//35 31//31 32//31
f 32//32 31//32 35//36
f 37//37 33//33 34//33
f 34//34 33//34 37//38
f 33//33 37//37 38//37
f 38//38 37//38 33//34
f 36//35 39//39 40//39
f 40//40 39//40 36//36
f 39//39 36//35 35//35
f 35//36 36//36 39//40
f 41//41 38//37 37//37
f 37//38 38//38 41//42
f 38//37 41//41 42//41
f 42//42 41//42 38//38
f 40//39 43//43 44//43
f 44//44 43//44 40//40
f 43//43 40//39 39//39
f 39//40 40//40 43//44
f 45//45 42//41 41//41
f 41//42 42//42 45//46
f 42//41 45//45 46//45
f 46//46 45//46 42//42
f 44//43 47//47 48//47
f 48//48 47//48 44//44
f 47//47 44//43 43//43
f 43//44 44//44 47//48
f 48//47 46//45 45//45
f 45//46 46//46 48//48
f 46//45 48//47 47//47
f 47//48 48//48 46//46
