# SSTK version 0.8.0
# 235
mtllib original-235.mtl
o #ID1580
v 0.628903 0.048682 0.009597
v 0.629914 0.036115 0.007615
v 0.628903 0.036043 0.008333
v 0.629914 0.048754 0.008879
v 0.627796 0.048658 0.009836
v 0.628903 0.036043 0.008333
v 0.627796 0.036019 0.008572
v 0.628903 0.048682 0.009597
v 0.630334 0.048807 0.008340
v 0.630334 0.036169 0.007076
v 0.626689 0.036043 0.008333
v 0.627796 0.048658 0.009836
v 0.627796 0.036019 0.008572
v 0.626689 0.048682 0.009597
v 0.630635 0.048873 0.007682
v 0.630635 0.036235 0.006418
v 0.625680 0.048754 0.008879
v 0.626689 0.036043 0.008333
v 0.625680 0.036115 0.007615
v 0.626689 0.048682 0.009597
v 0.630876 0.049041 0.006006
v 0.630876 0.036402 0.004742
v 0.625258 0.036169 0.007076
v 0.625258 0.048807 0.008340
v 0.630635 0.049208 0.004331
v 0.630635 0.036570 0.003067
v 0.624958 0.036235 0.006418
v 0.624958 0.048873 0.007682
v 0.630334 0.049274 0.003672
v 0.630334 0.036635 0.002408
v 0.624717 0.036402 0.004742
v 0.624717 0.049041 0.006006
v 0.629914 0.049328 0.003134
v 0.629914 0.036689 0.001870
v 0.624958 0.049208 0.004331
v 0.624958 0.036570 0.003067
v 0.628903 0.049400 0.002416
v 0.628903 0.036761 0.001152
v 0.625258 0.036635 0.002408
v 0.625258 0.049274 0.003672
v 0.628903 0.036761 0.001152
v 0.627796 0.049424 0.002176
v 0.627796 0.036785 0.000912
v 0.628903 0.049400 0.002416
v 0.625680 0.036689 0.001870
v 0.625680 0.049328 0.003134
v 0.627796 0.049424 0.002176
v 0.626689 0.036761 0.001152
v 0.627796 0.036785 0.000912
v 0.626689 0.049400 0.002416
v 0.626689 0.049400 0.002416
v 0.626689 0.036761 0.001152
vn -0.5812381880463501 0.0809695070801227 -0.8096950708012232
vn -0.6925380015686434 0.07178013158892864 -0.7178013158892828
vn 0.5812381880463501 -0.0809695070801227 0.8096950708012232
vn 0.6925380015686434 -0.07178013158892864 0.7178013158892828
vn -0.21242959650729398 0.09723268338422325 -0.972326833842228
vn 0.21242959650729398 -0.09723268338422325 0.972326833842228
vn -0.8557304989400591 0.051485392832211443 -0.514853928322112
vn 0.8557304989400591 -0.051485392832211443 0.514853928322112
vn 0.21242959650729398 0.09723268338422325 -0.972326833842228
vn -0.21242959650729398 -0.09723268338422325 0.972326833842228
vn -0.9598688107379979 0.02790575833482773 -0.279057583348276
vn 0.9598688107379979 -0.02790575833482773 0.279057583348276
vn 0.6925380015686434 0.07178013158892863 -0.7178013158892828
vn 0.5812381880463501 0.0809695070801227 -0.8096950708012232
vn -0.6925380015686434 -0.07178013158892863 0.7178013158892828
vn -0.5812381880463501 -0.0809695070801227 0.8096950708012232
vn -1 0 0
vn 1 0 0
vn 0.8557304989400591 0.05148539283221143 -0.514853928322112
vn -0.8557304989400591 -0.05148539283221143 0.514853928322112
vn -0.9598688107379979 -0.027905758334827727 0.279057583348276
vn 0.9598688107379979 0.027905758334827727 -0.279057583348276
vn 0.9598688107379979 0.02790575833482773 -0.279057583348276
vn -0.9598688107379979 -0.02790575833482773 0.279057583348276
vn -0.8557304989400591 -0.051485392832211416 0.514853928322112
vn 0.8557304989400591 0.051485392832211416 -0.514853928322112
vn -0.6925380015686434 -0.07178013158892861 0.7178013158892828
vn 0.6925380015686434 0.07178013158892861 -0.7178013158892828
vn 0.9598688107379979 -0.027905758334827727 0.279057583348276
vn -0.9598688107379979 0.027905758334827727 -0.279057583348276
vn 0.8557304989400591 -0.05148539283221142 0.514853928322112
vn -0.8557304989400591 0.05148539283221142 -0.514853928322112
vn -0.21242959650729398 -0.09723268338422324 0.972326833842228
vn 0.21242959650729398 0.09723268338422324 -0.972326833842228
vn 0.6925380015686434 -0.07178013158892863 0.7178013158892828
vn -0.6925380015686434 0.07178013158892863 -0.7178013158892828
usemtl material_0_2
f 1//1 2//2 3//1
f 3//3 2//4 1//3
f 2//2 1//1 4//2
f 4//4 1//3 2//4
f 5//5 6//5 7//5
f 7//6 6//6 5//6
f 6//5 5//5 8//5
f 8//6 5//6 6//6
f 9//7 2//2 4//2
f 4//4 2//4 9//8
f 2//2 9//7 10//7
f 10//8 9//8 2//4
f 11//9 12//9 13//9
f 13//10 12//10 11//10
f 12//9 11//9 14//9
f 14//10 11//10 12//10
f 15//11 10//7 9//7
f 9//8 10//8 15//12
f 10//7 15//11 16//11
f 16//12 15//12 10//8
f 17//13 18//14 19//13
f 19//15 18//16 17//15
f 18//14 17//13 20//14
f 20//16 17//15 18//16
f 21//17 16//11 15//11
f 15//12 16//12 21//18
f 16//11 21//17 22//17
f 22//18 21//18 16//12
f 23//19 17//13 19//13
f 19//15 17//15 23//20
f 17//13 23//19 24//19
f 24//20 23//20 17//15
f 25//21 22//17 21//17
f 21//18 22//18 25//22
f 22//17 25//21 26//21
f 26//22 25//22 22//18
f 27//23 24//19 23//19
f 23//20 24//20 27//24
f 24//19 27//23 28//23
f 28//24 27//24 24//20
f 29//25 26//21 25//21
f 25//22 26//22 29//26
f 26//21 29//25 30//25
f 30//26 29//26 26//22
f 31//18 28//23 27//23
f 27//24 28//24 31//17
f 28//23 31//18 32//18
f 32//17 31//17 28//24
f 33//27 30//25 29//25
f 29//26 30//26 33//28
f 30//25 33//27 34//27
f 34//28 33//28 30//26
f 31//18 35//29 32//18
f 32//17 35//30 31//17
f 35//29 31//18 36//29
f 36//30 31//17 35//30
f 34//27 37//16 38//16
f 38//14 37//14 34//28
f 37//16 34//27 33//27
f 33//28 34//28 37//14
f 39//31 35//29 36//29
f 36//30 35//30 39//32
f 35//29 39//31 40//31
f 40//32 39//32 35//30
f 41//33 42//33 43//33
f 43//34 42//34 41//34
f 42//33 41//33 44//33
f 44//34 41//34 42//34
f 45//35 40//31 39//31
f 39//32 40//32 45//36
f 40//31 45//35 46//35
f 46//36 45//36 40//32
f 47//6 48//6 49//6
f 49//5 48//5 47//5
f 48//6 47//6 50//6
f 50//5 47//5 48//5
f 51//3 45//35 52//3
f 52//1 45//36 51//1
f 45//35 51//3 46//35
f 46//36 51//1 45//36
