# SSTK version 0.8.0
# 296
mtllib original-296.mtl
o #ID1946
v -0.179891 0.040512 -0.036356
v -0.182989 0.038220 -0.013434
v -0.182989 0.040512 -0.036356
v -0.179891 0.038220 -0.013434
v -0.179891 0.050859 -0.012170
v -0.182989 0.038220 -0.013434
v -0.179891 0.038220 -0.013434
v -0.182989 0.050859 -0.012170
v -0.182989 0.053151 -0.035093
v -0.182989 0.038220 -0.013434
v -0.182989 0.050859 -0.012170
v -0.182989 0.040512 -0.036356
v -0.182989 0.053151 -0.035093
v -0.179891 0.040512 -0.036356
v -0.182989 0.040512 -0.036356
v -0.179891 0.053151 -0.035093
v -0.179891 0.038220 -0.013434
v -0.179891 0.053151 -0.035093
v -0.179891 0.050859 -0.012170
v -0.179891 0.040512 -0.036356
v -0.179891 0.050859 -0.012170
v -0.182989 0.053151 -0.035093
v -0.182989 0.050859 -0.012170
v -0.179891 0.053151 -0.035093
vn 0 -0.995037190209989 -0.09950371902099936
vn 0 0.995037190209989 0.09950371902099936
vn 0 -0.09950371902099936 0.995037190209989
vn 0 0.09950371902099936 -0.995037190209989
vn -1 0 0
vn 1 0 0
usemtl material_0_2
f 1//1 2//1 3//1
f 3//2 2//2 1//2
f 2//1 1//1 4//1
f 4//2 1//2 2//2
f 5//3 6//3 7//3
f 7//4 6//4 5//4
f 6//3 5//3 8//3
f 8//4 5//4 6//4
f 9//5 10//5 11//5
f 11//6 10//6 9//6
f 10//5 9//5 12//5
f 12//6 9//6 10//6
f 13//4 14//4 15//4
f 15//3 14//3 13//3
f 14//4 13//4 16//4
f 16//3 13//3 14//3
f 17//6 18//6 19//6
f 19//5 18//5 17//5
f 18//6 17//6 20//6
f 20//5 17//5 18//5
f 21//2 22//2 23//2
f 23//1 22//1 21//1
f 22//2 21//2 24//2
f 24//1 21//1 22//1
