# SSTK version 0.8.0
# 432
mtllib original-432.mtl
o #ID2762
v 0.700804 0.051955 -0.023138
v 0.700985 0.039197 -0.023205
v 0.700985 0.051836 -0.021942
v 0.700804 0.039317 -0.024402
v 0.700793 0.039062 -0.021853
v 0.700793 0.051700 -0.020589
v 0.700262 0.052046 -0.024048
v 0.700804 0.039317 -0.024402
v 0.700804 0.051955 -0.023138
v 0.700262 0.039407 -0.025312
v 0.700793 0.051700 -0.020589
v 0.700215 0.038962 -0.020860
v 0.700215 0.051601 -0.019596
v 0.700793 0.039062 -0.021853
v 0.700262 0.039407 -0.025312
v 0.699385 0.052104 -0.024622
v 0.699385 0.039465 -0.025886
v 0.700262 0.052046 -0.024048
v 0.699325 0.038901 -0.020249
v 0.700215 0.051601 -0.019596
v 0.700215 0.038962 -0.020860
v 0.699325 0.051540 -0.018985
v 0.699385 0.052104 -0.024622
v 0.698194 0.039484 -0.026078
v 0.699385 0.039465 -0.025886
v 0.698194 0.052123 -0.024814
v 0.698194 0.051520 -0.018782
v 0.699325 0.038901 -0.020249
v 0.698194 0.038881 -0.020046
v 0.699325 0.051540 -0.018985
v 0.697003 0.052104 -0.024622
v 0.697003 0.039465 -0.025886
v 0.697063 0.038901 -0.020249
v 0.698194 0.051520 -0.018782
v 0.698194 0.038881 -0.020046
v 0.697063 0.051540 -0.018985
v 0.697003 0.052104 -0.024622
v 0.696125 0.039407 -0.025312
v 0.697003 0.039465 -0.025886
v 0.696125 0.052046 -0.024048
v 0.696174 0.051601 -0.019596
v 0.697063 0.038901 -0.020249
v 0.696174 0.038962 -0.020860
v 0.697063 0.051540 -0.018985
v 0.696125 0.039407 -0.025312
v 0.695584 0.051955 -0.023138
v 0.695584 0.039317 -0.024402
v 0.696125 0.052046 -0.024048
v 0.695596 0.039062 -0.021853
v 0.696174 0.051601 -0.019596
v 0.696174 0.038962 -0.020860
v 0.695596 0.051700 -0.020589
v 0.695584 0.039317 -0.024402
v 0.695404 0.051836 -0.021942
v 0.695404 0.039197 -0.023205
v 0.695584 0.051955 -0.023138
v 0.695596 0.051700 -0.020589
v 0.695596 0.039062 -0.021853
vn -0.9889363472144339 -0.014760430498354817 0.14760430498354749
vn -0.9999915291822868 -0.0004095586089611583 0.004095586089611555
vn 0.9889363472144339 0.014760430498354817 -0.14760430498354749
vn 0.9999915291822868 0.0004095586089611583 -0.004095586089611555
vn -0.9901239837523156 0.013949873770125019 -0.13949873770124957
vn 0.9901239837523156 -0.013949873770125019 0.13949873770124957
vn -0.8604753970050351 -0.050696348136200414 0.5069634813620018
vn 0.8604753970050351 0.050696348136200414 -0.5069634813620018
vn -0.865664203038515 0.0498140589699965 -0.4981405896999625
vn 0.865664203038515 -0.0498140589699965 0.4981405896999625
vn -0.5494062738452888 -0.08314086497211406 0.8314086497211368
vn 0.5494062738452888 0.08314086497211406 -0.8314086497211368
vn -0.5674728917047225 0.08193057415875364 -0.8193057415875329
vn 0.5674728917047225 -0.08193057415875364 0.8193057415875329
vn -0.15954590332491467 -0.0982291272128208 0.9822912721282034
vn 0 -0.09950371902099936 0.995037190209989
vn 0.15954590332491467 0.0982291272128208 -0.9822912721282034
vn 0 0.09950371902099936 -0.995037190209989
vn -0.17796409829124682 0.09791533925074275 -0.979153392507423
vn 0.17796409829124682 -0.09791533925074275 0.979153392507423
vn 0.15954590332491467 -0.0982291272128208 0.9822912721282034
vn -0.15954590332491467 0.0982291272128208 -0.9822912721282034
vn 0.17796409829124682 0.09791533925074275 -0.979153392507423
vn -0.17796409829124682 -0.09791533925074275 0.979153392507423
vn 0.5494062738452888 -0.08314086497211406 0.8314086497211368
vn -0.5494062738452888 0.08314086497211406 -0.8314086497211368
vn 0.5674728917047225 0.08193057415875363 -0.8193057415875329
vn -0.5674728917047225 -0.08193057415875363 0.8193057415875329
vn 0.8604753970050351 -0.050696348136200414 0.5069634813620018
vn -0.8604753970050351 0.050696348136200414 -0.5069634813620018
vn 0.865664203038515 0.0498140589699965 -0.4981405896999625
vn -0.865664203038515 -0.0498140589699965 0.4981405896999625
vn 0.9889363472144339 -0.014760430498354817 0.14760430498354749
vn 0.9999915291822868 -0.0004095586089611531 0.004095586089611556
vn -0.9889363472144339 0.014760430498354817 -0.14760430498354749
vn -0.9999915291822868 0.0004095586089611531 -0.004095586089611556
vn 0.9901239837523156 0.01394987377012503 -0.13949873770124957
vn -0.9901239837523156 -0.01394987377012503 0.13949873770124957
usemtl material_0_2
f 1//1 2//2 3//2
f 3//4 2//4 1//3
f 2//2 1//1 4//1
f 4//3 1//3 2//4
f 3//2 5//5 6//5
f 6//6 5//6 3//4
f 5//5 3//2 2//2
f 2//4 3//4 5//6
f 7//7 8//7 9//7
f 9//8 8//8 7//8
f 8//7 7//7 10//7
f 10//8 7//8 8//8
f 11//9 12//9 13//9
f 13//10 12//10 11//10
f 12//9 11//9 14//9
f 14//10 11//10 12//10
f 15//11 16//11 17//11
f 17//12 16//12 15//12
f 16//11 15//11 18//11
f 18//12 15//12 16//12
f 19//13 20//13 21//13
f 21//14 20//14 19//14
f 20//13 19//13 22//13
f 22//14 19//14 20//14
f 23//15 24//16 25//15
f 25//17 24//18 23//17
f 24//16 23//15 26//16
f 26//18 23//17 24//18
f 27//19 28//19 29//19
f 29//20 28//20 27//20
f 28//19 27//19 30//19
f 30//20 27//20 28//20
f 24//16 31//21 32//21
f 32//22 31//22 24//18
f 31//21 24//16 26//16
f 26//18 24//18 31//22
f 33//23 34//23 35//23
f 35//24 34//24 33//24
f 34//23 33//23 36//23
f 36//24 33//24 34//24
f 37//25 38//25 39//25
f 39//26 38//26 37//26
f 38//25 37//25 40//25
f 40//26 37//26 38//26
f 41//27 42//27 43//27
f 43//28 42//28 41//28
f 42//27 41//27 44//27
f 44//28 41//28 42//28
f 45//29 46//29 47//29
f 47//30 46//30 45//30
f 46//29 45//29 48//29
f 48//30 45//30 46//30
f 49//31 50//31 51//31
f 51//32 50//32 49//32
f 50//31 49//31 52//31
f 52//32 49//32 50//32
f 53//33 54//34 55//34
f 55//36 54//36 53//35
f 54//34 53//33 56//33
f 56//35 53//35 54//36
f 55//34 57//37 58//37
f 58//38 57//38 55//36
f 57//37 55//34 54//34
f 54//36 55//36 57//38
