# SSTK version 0.8.0
# 496
mtllib original-496.mtl
o #ID3146
v 0.457652 0.069438 -0.197962
v 0.457472 0.056838 -0.199621
v 0.457652 0.056799 -0.199226
v 0.457472 0.069477 -0.198357
v 0.457797 0.056698 -0.198220
v 0.457797 0.069337 -0.196956
v 0.457219 0.069509 -0.198680
v 0.457219 0.056871 -0.199944
v 0.457652 0.056598 -0.197215
v 0.457652 0.069237 -0.195951
v 0.456614 0.056914 -0.200375
v 0.456614 0.069553 -0.199111
v 0.457472 0.056558 -0.196820
v 0.457472 0.069197 -0.195556
v 0.456614 0.056914 -0.200375
v 0.455949 0.069567 -0.199254
v 0.455949 0.056928 -0.200518
v 0.456614 0.069553 -0.199111
v 0.457219 0.056526 -0.196497
v 0.457219 0.069165 -0.195233
v 0.455949 0.069567 -0.199254
v 0.455285 0.056914 -0.200375
v 0.455949 0.056928 -0.200518
v 0.455285 0.069553 -0.199111
v 0.456614 0.069122 -0.194802
v 0.456614 0.056483 -0.196066
v 0.455285 0.056914 -0.200375
v 0.454679 0.069509 -0.198680
v 0.454679 0.056871 -0.199944
v 0.455285 0.069553 -0.199111
v 0.455949 0.056469 -0.195922
v 0.456614 0.069122 -0.194802
v 0.456614 0.056483 -0.196066
v 0.455949 0.069107 -0.194658
v 0.454426 0.069477 -0.198357
v 0.454426 0.056838 -0.199621
v 0.455285 0.069122 -0.194802
v 0.455949 0.056469 -0.195922
v 0.455285 0.056483 -0.196066
v 0.455949 0.069107 -0.194658
v 0.454247 0.069438 -0.197962
v 0.454247 0.056799 -0.199226
v 0.454679 0.056526 -0.196497
v 0.455285 0.069122 -0.194802
v 0.455285 0.056483 -0.196066
v 0.454679 0.069165 -0.195233
v 0.454101 0.069337 -0.196956
v 0.454101 0.056698 -0.198220
v 0.454426 0.056558 -0.196820
v 0.454426 0.069197 -0.195556
v 0.454247 0.069237 -0.195951
v 0.454247 0.056598 -0.197215
vn -0.9598688107379979 -0.02790575833482773 0.279057583348276
vn -0.8557304989400591 -0.05148539283221144 0.514853928322112
vn 0.9598688107379979 0.02790575833482773 -0.279057583348276
vn 0.8557304989400591 0.05148539283221144 -0.514853928322112
vn -1 0 0
vn 1 0 0
vn -0.6925380015686434 -0.07178013158892861 0.7178013158892828
vn 0.6925380015686434 0.07178013158892861 -0.7178013158892828
vn -0.9598688107379979 0.027905758334827727 -0.279057583348276
vn 0.9598688107379979 -0.027905758334827727 0.279057583348276
vn -0.5812381880463501 -0.08096950708012268 0.8096950708012232
vn 0.5812381880463501 0.08096950708012268 -0.8096950708012232
vn -0.8557304989400591 0.05148539283221144 -0.514853928322112
vn 0.8557304989400591 -0.05148539283221144 0.514853928322112
vn -0.21242959650729398 -0.09723268338422325 0.972326833842228
vn 0.21242959650729398 0.09723268338422325 -0.972326833842228
vn -0.6925380015686434 0.07178013158892861 -0.7178013158892828
vn 0.6925380015686434 -0.07178013158892861 0.7178013158892828
vn 0.21242959650729398 -0.09723268338422325 0.972326833842228
vn -0.21242959650729398 0.09723268338422325 -0.972326833842228
vn -0.5812381880463501 0.08096950708012268 -0.8096950708012232
vn 0.5812381880463501 -0.08096950708012268 0.8096950708012232
vn 0.6925380015686434 -0.07178013158892863 0.7178013158892828
vn -0.6925380015686434 0.07178013158892863 -0.7178013158892828
vn 0.8557304989400591 0.051485392832211416 -0.514853928322112
vn -0.8557304989400591 -0.051485392832211416 0.514853928322112
vn 0.9598688107379979 0.027905758334827717 -0.279057583348276
vn -0.9598688107379979 -0.027905758334827717 0.279057583348276
usemtl material_0_2
f 1//1 2//2 3//1
f 3//3 2//4 1//3
f 2//2 1//1 4//2
f 4//4 1//3 2//4
f 1//1 5//5 6//5
f 6//6 5//6 1//3
f 5//5 1//1 3//1
f 3//3 1//3 5//6
f 7//7 2//2 4//2
f 4//4 2//4 7//8
f 2//2 7//7 8//7
f 8//8 7//8 2//4
f 6//5 9//9 10//9
f 10//10 9//10 6//6
f 9//9 6//5 5//5
f 5//6 6//6 9//10
f 7//7 11//11 8//7
f 8//8 11//12 7//8
f 11//11 7//7 12//11
f 12//12 7//8 11//12
f 10//9 13//13 14//13
f 14//14 13//14 10//10
f 13//13 10//9 9//9
f 9//10 10//10 13//14
f 15//15 16//15 17//15
f 17//16 16//16 15//16
f 16//15 15//15 18//15
f 18//16 15//16 16//16
f 14//13 19//17 20//17
f 20//18 19//18 14//14
f 19//17 14//13 13//13
f 13//14 14//14 19//18
f 21//19 22//19 23//19
f 23//20 22//20 21//20
f 22//19 21//19 24//19
f 24//20 21//20 22//20
f 25//21 19//17 26//21
f 26//22 19//18 25//22
f 19//17 25//21 20//17
f 20//18 25//22 19//18
f 27//22 28//23 29//23
f 29//24 28//24 27//21
f 28//23 27//22 30//22
f 30//21 27//21 28//24
f 31//20 32//20 33//20
f 33//19 32//19 31//19
f 32//20 31//20 34//20
f 34//19 31//19 32//19
f 29//23 35//14 36//14
f 36//13 35//13 29//24
f 35//14 29//23 28//23
f 28//24 29//24 35//13
f 37//16 38//16 39//16
f 39//15 38//15 37//15
f 38//16 37//16 40//16
f 40//15 37//15 38//15
f 36//14 41//10 42//10
f 42//9 41//9 36//13
f 41//10 36//14 35//14
f 35//13 36//13 41//9
f 43//8 44//12 45//12
f 45//11 44//11 43//7
f 44//12 43//8 46//8
f 46//7 43//7 44//11
f 42//10 47//6 48//6
f 48//5 47//5 42//9
f 47//6 42//10 41//10
f 41//9 42//9 47//5
f 49//25 46//8 43//8
f 43//7 46//7 49//26
f 46//8 49//25 50//25
f 50//26 49//26 46//7
f 48//6 51//27 52//27
f 52//28 51//28 48//5
f 51//27 48//6 47//6
f 47//5 48//5 51//28
f 52//27 50//25 49//25
f 49//26 50//26 52//28
f 50//25 52//27 51//27
f 51//28 52//28 50//26
