# SSTK version 0.8.0
# 509
mtllib original-509.mtl
o #ID3224
v 0.710983 0.046917 -0.100403
v 0.705441 0.045796 -0.089200
v 0.704863 0.045831 -0.089545
v 0.711561 0.046882 -0.100058
v 0.711561 0.046882 -0.100058
v 0.705441 0.058435 -0.087937
v 0.705441 0.045796 -0.089200
v 0.711561 0.059521 -0.098794
v 0.705441 0.058435 -0.087937
v 0.704863 0.045831 -0.089545
v 0.705441 0.045796 -0.089200
v 0.704863 0.058470 -0.088281
v 0.710983 0.059555 -0.099139
v 0.704863 0.045831 -0.089545
v 0.704863 0.058470 -0.088281
v 0.710983 0.046917 -0.100403
v 0.710983 0.046917 -0.100403
v 0.711561 0.059521 -0.098794
v 0.711561 0.046882 -0.100058
v 0.710983 0.059555 -0.099139
v 0.705441 0.058435 -0.087937
v 0.710983 0.059555 -0.099139
v 0.704863 0.058470 -0.088281
v 0.711561 0.059521 -0.098794
vn 0 -0.995037190209989 -0.09950371902099936
vn 0 0.995037190209989 0.09950371902099936
vn 0.8721910569277875 -0.048673773633799614 0.48673773633799383
vn -0.8721910569277875 0.048673773633799614 -0.48673773633799383
vn -0.514495803267262 -0.08532373228645652 0.8532373228645616
vn 0.514495803267262 0.08532373228645652 -0.8532373228645616
vn 0.514495803267262 0.08532373228645658 -0.8532373228645616
vn -0.514495803267262 -0.08532373228645658 0.8532373228645616
usemtl material_0_2
f 1//1 2//1 3//1
f 3//2 2//2 1//2
f 2//1 1//1 4//1
f 4//2 1//2 2//2
f 5//3 6//3 7//3
f 7//4 6//4 5//4
f 6//3 5//3 8//3
f 8//4 5//4 6//4
f 9//5 10//5 11//5
f 11//6 10//6 9//6
f 10//5 9//5 12//5
f 12//6 9//6 10//6
f 13//4 14//4 15//4
f 15//3 14//3 13//3
f 14//4 13//4 16//4
f 16//3 13//3 14//3
f 17//7 18//7 19//7
f 19//8 18//8 17//8
f 18//7 17//7 20//7
f 20//8 17//8 18//8
f 21//2 22//2 23//2
f 23//1 22//1 21//1
f 22//2 21//2 24//2
f 24//1 21//1 22//1
