# SSTK version 0.8.0
# 360
mtllib original-360.mtl
o #ID2330
v -0.662705 0.039966 -0.030894
v -0.662712 0.037647 -0.007704
v -0.665676 0.039966 -0.030894
v -0.661245 0.038505 -0.016283
v -0.660018 0.037647 -0.007704
v -0.660973 0.038505 -0.016283
v -0.658945 0.039966 -0.030894
v -0.657593 0.039363 -0.024862
v -0.655971 0.039966 -0.030894
v -0.657323 0.039363 -0.024862
v -0.654898 0.037647 -0.007704
v -0.653943 0.038505 -0.016283
v -0.652204 0.037647 -0.007704
v -0.653671 0.038505 -0.016283
v -0.652211 0.039966 -0.030894
v -0.649240 0.039966 -0.030894
v -0.649240 0.039966 -0.030894
v -0.652204 0.050285 -0.006440
v -0.652204 0.037647 -0.007704
v -0.649240 0.052605 -0.029630
v -0.652204 0.050285 -0.006440
v -0.654898 0.037647 -0.007704
v -0.652204 0.037647 -0.007704
v -0.654898 0.050285 -0.006440
v -0.657323 0.052001 -0.023598
v -0.654898 0.037647 -0.007704
v -0.654898 0.050285 -0.006440
v -0.657323 0.039363 -0.024862
v -0.657323 0.052001 -0.023598
v -0.657593 0.039363 -0.024862
v -0.657323 0.039363 -0.024862
v -0.657593 0.052001 -0.023598
v -0.657593 0.039363 -0.024862
v -0.660018 0.050285 -0.006440
v -0.660018 0.037647 -0.007704
v -0.657593 0.052001 -0.023598
v -0.660018 0.050285 -0.006440
v -0.662712 0.037647 -0.007704
v -0.660018 0.037647 -0.007704
v -0.662712 0.050285 -0.006440
v -0.665676 0.052605 -0.029630
v -0.662712 0.037647 -0.007704
v -0.662712 0.050285 -0.006440
v -0.665676 0.039966 -0.030894
v -0.665676 0.052605 -0.029630
v -0.662705 0.039966 -0.030894
v -0.665676 0.039966 -0.030894
v -0.662705 0.052605 -0.029630
v -0.662705 0.039966 -0.030894
v -0.661245 0.051143 -0.015019
v -0.661245 0.038505 -0.016283
v -0.662705 0.052605 -0.029630
v -0.661245 0.051143 -0.015019
v -0.660973 0.038505 -0.016283
v -0.661245 0.038505 -0.016283
v -0.660973 0.051143 -0.015019
v -0.660973 0.051143 -0.015019
v -0.658945 0.039966 -0.030894
v -0.660973 0.038505 -0.016283
v -0.658945 0.052605 -0.029630
v -0.658945 0.052605 -0.029630
v -0.655971 0.039966 -0.030894
v -0.658945 0.039966 -0.030894
v -0.655971 0.052605 -0.029630
v -0.655971 0.039966 -0.030894
v -0.653943 0.051143 -0.015019
v -0.653943 0.038505 -0.016283
v -0.655971 0.052605 -0.029630
v -0.653943 0.051143 -0.015019
v -0.653671 0.038505 -0.016283
v -0.653943 0.038505 -0.016283
v -0.653671 0.051143 -0.015019
v -0.653671 0.051143 -0.015019
v -0.652211 0.039966 -0.030894
v -0.653671 0.038505 -0.016283
v -0.652211 0.052605 -0.029630
v -0.652211 0.052605 -0.029630
v -0.649240 0.039966 -0.030894
v -0.652211 0.039966 -0.030894
v -0.649240 0.052605 -0.029630
v -0.662712 0.050285 -0.006440
v -0.662705 0.052605 -0.029630
v -0.665676 0.052605 -0.029630
v -0.661245 0.051143 -0.015019
v -0.660018 0.050285 -0.006440
v -0.660973 0.051143 -0.015019
v -0.658945 0.052605 -0.029630
v -0.657593 0.052001 -0.023598
v -0.655971 0.052605 -0.029630
v -0.657323 0.052001 -0.023598
v -0.654898 0.050285 -0.006440
v -0.653943 0.051143 -0.015019
v -0.652204 0.050285 -0.006440
v -0.653671 0.051143 -0.015019
v -0.652211 0.052605 -0.029630
v -0.649240 0.052605 -0.029630
vn 0 -0.995037190209989 -0.09950371902099936
vn 0 0.995037190209989 0.09950371902099936
vn 0.992010962690104 -0.012552562715212262 0.12552562715212212
vn -0.992010962690104 0.012552562715212262 -0.12552562715212212
vn 0 -0.09950371902099936 0.995037190209989
vn 0 0.09950371902099936 -0.995037190209989
vn -0.990256583767213 -0.01385637012805423 0.13856370128054166
vn 0.990256583767213 0.01385637012805423 -0.13856370128054166
vn 0.990256583767213 -0.01385637012805423 0.13856370128054166
vn -0.990256583767213 0.01385637012805423 -0.13856370128054166
vn -0.992010962690104 -0.012552562715212262 0.12552562715212212
vn 0.992010962690104 0.012552562715212262 -0.12552562715212212
vn 0.9950914159988529 0.00984688411560338 -0.0984688411560334
vn -0.9950914159988529 -0.00984688411560338 0.0984688411560334
vn -0.9905986609736447 0.013612127992615542 -0.1361212799261548
vn 0.9905986609736447 -0.013612127992615542 0.1361212799261548
vn 0.9905986609736447 0.01361212799261554 -0.1361212799261548
vn -0.9905986609736447 -0.01361212799261554 0.1361212799261548
vn -0.9950914159988529 0.009846884115603383 -0.0984688411560334
vn 0.9950914159988529 -0.009846884115603383 0.0984688411560334
usemtl material_0_2
f 1//1 2//1 3//1
f 3//2 2//2 1//2
f 2//1 1//1 4//1
f 4//2 1//2 2//2
f 2//1 4//1 5//1
f 5//2 4//2 2//2
f 5//1 4//1 6//1
f 6//2 4//2 5//2
f 5//1 6//1 7//1
f 7//2 6//2 5//2
f 5//1 7//1 8//1
f 8//2 7//2 5//2
f 8//1 7//1 9//1
f 9//2 7//2 8//2
f 8//1 9//1 10//1
f 10//2 9//2 8//2
f 10//1 9//1 11//1
f 11//2 9//2 10//2
f 11//1 9//1 12//1
f 12//2 9//2 11//2
f 11//1 12//1 13//1
f 13//2 12//2 11//2
f 13//1 12//1 14//1
f 14//2 12//2 13//2
f 13//1 14//1 15//1
f 15//2 14//2 13//2
f 13//1 15//1 16//1
f 16//2 15//2 13//2
f 17//3 18//3 19//3
f 19//4 18//4 17//4
f 18//3 17//3 20//3
f 20//4 17//4 18//4
f 21//5 22//5 23//5
f 23//6 22//6 21//6
f 22//5 21//5 24//5
f 24//6 21//6 22//6
f 25//7 26//7 27//7
f 27//8 26//8 25//8
f 26//7 25//7 28//7
f 28//8 25//8 26//8
f 29//5 30//5 31//5
f 31//6 30//6 29//6
f 30//5 29//5 32//5
f 32//6 29//6 30//6
f 33//9 34//9 35//9
f 35//10 34//10 33//10
f 34//9 33//9 36//9
f 36//10 33//10 34//10
f 37//5 38//5 39//5
f 39//6 38//6 37//6
f 38//5 37//5 40//5
f 40//6 37//6 38//6
f 41//11 42//11 43//11
f 43//12 42//12 41//12
f 42//11 41//11 44//11
f 44//12 41//12 42//12
f 45//6 46//6 47//6
f 47//5 46//5 45//5
f 46//6 45//6 48//6
f 48//5 45//5 46//5
f 49//13 50//13 51//13
f 51//14 50//14 49//14
f 50//13 49//13 52//13
f 52//14 49//14 50//14
f 53//6 54//6 55//6
f 55//5 54//5 53//5
f 54//6 53//6 56//6
f 56//5 53//5 54//5
f 57//15 58//15 59//15
f 59//16 58//16 57//16
f 58//15 57//15 60//15
f 60//16 57//16 58//16
f 61//6 62//6 63//6
f 63//5 62//5 61//5
f 62//6 61//6 64//6
f 64//5 61//5 62//5
f 65//17 66//17 67//17
f 67//18 66//18 65//18
f 66//17 65//17 68//17
f 68//18 65//18 66//18
f 69//6 70//6 71//6
f 71//5 70//5 69//5
f 70//6 69//6 72//6
f 72//5 69//5 70//5
f 73//19 74//19 75//19
f 75//20 74//20 73//20
f 74//19 73//19 76//19
f 76//20 73//20 74//20
f 77//6 78//6 79//6
f 79//5 78//5 77//5
f 78//6 77//6 80//6
f 80//5 77//5 78//5
f 81//2 82//2 83//2
f 83//1 82//1 81//1
f 82//2 81//2 84//2
f 84//1 81//1 82//1
f 84//2 81//2 85//2
f 85//1 81//1 84//1
f 84//2 85//2 86//2
f 86//1 85//1 84//1
f 86//2 85//2 87//2
f 87//1 85//1 86//1
f 87//2 85//2 88//2
f 88//1 85//1 87//1
f 87//2 88//2 89//2
f 89//1 88//1 87//1
f 89//2 88//2 90//2
f 90//1 88//1 89//1
f 89//2 90//2 91//2
f 91//1 90//1 89//1
f 89//2 91//2 92//2
f 92//1 91//1 89//1
f 92//2 91//2 93//2
f 93//1 91//1 92//1
f 92//2 93//2 94//2
f 94//1 93//1 92//1
f 94//2 93//2 95//2
f 95//1 93//1 94//1
f 95//2 93//2 96//2
f 96//1 93//1 95//1
