# SSTK version 0.8.0
# 536
mtllib original-536.mtl
o #ID3386
v 0.451044 0.038069 -0.011928
v 0.450674 0.050703 -0.010616
v 0.450674 0.038064 -0.011880
v 0.451044 0.050708 -0.010664
v 0.448965 0.038029 -0.011526
v 0.449132 0.037905 -0.010284
v 0.448965 0.037799 -0.009228
v 0.449449 0.038085 -0.012086
v 0.449339 0.037950 -0.010741
v 0.449630 0.037992 -0.011153
v 0.449976 0.038127 -0.012503
v 0.450315 0.038050 -0.011734
v 0.450604 0.038152 -0.012761
v 0.450674 0.038064 -0.011880
v 0.451390 0.038161 -0.012847
v 0.451044 0.038069 -0.011928
v 0.451563 0.038059 -0.011828
v 0.452300 0.038147 -0.012704
v 0.451968 0.038029 -0.011526
v 0.452228 0.037982 -0.011052
v 0.452314 0.037920 -0.010434
v 0.452657 0.038129 -0.012524
v 0.452314 0.037506 -0.006298
v 0.453469 0.037506 -0.006298
v 0.452950 0.038104 -0.012273
v 0.453339 0.038039 -0.011626
v 0.453469 0.037960 -0.010837
v 0.448965 0.038150 -0.012732
v 0.447811 0.037506 -0.006298
v 0.447811 0.038150 -0.012732
v 0.448965 0.037506 -0.006298
v 0.451563 0.038059 -0.011828
v 0.451563 0.050698 -0.010564
v 0.453469 0.050145 -0.005034
v 0.452314 0.050559 -0.009171
v 0.452314 0.050145 -0.005034
v 0.452657 0.050768 -0.011260
v 0.452950 0.050742 -0.011009
v 0.453339 0.050678 -0.010363
v 0.453469 0.050599 -0.009573
v 0.449132 0.050543 -0.009020
v 0.448965 0.050668 -0.010262
v 0.448965 0.050438 -0.007964
v 0.449449 0.050724 -0.010822
v 0.449339 0.050589 -0.009478
v 0.449630 0.050630 -0.009889
v 0.449976 0.050765 -0.011239
v 0.450315 0.050689 -0.010470
v 0.450604 0.050791 -0.011497
v 0.450674 0.050703 -0.010616
v 0.451390 0.050800 -0.011583
v 0.451044 0.050708 -0.010664
v 0.451563 0.050698 -0.010564
v 0.452300 0.050785 -0.011440
v 0.451968 0.050668 -0.010262
v 0.452228 0.050620 -0.009788
v 0.448965 0.050145 -0.005034
v 0.447811 0.050788 -0.011469
v 0.447811 0.050145 -0.005034
v 0.448965 0.050788 -0.011469
v 0.450315 0.050689 -0.010470
v 0.450315 0.038050 -0.011734
v 0.453469 0.050145 -0.005034
v 0.452314 0.037506 -0.006298
v 0.453469 0.037506 -0.006298
v 0.452314 0.050145 -0.005034
v 0.452314 0.050145 -0.005034
v 0.452314 0.037920 -0.010434
v 0.452314 0.037506 -0.006298
v 0.452314 0.050559 -0.009171
v 0.452228 0.050620 -0.009788
v 0.452228 0.037982 -0.011052
v 0.451968 0.050668 -0.010262
v 0.452228 0.037982 -0.011052
v 0.452228 0.050620 -0.009788
v 0.451968 0.038029 -0.011526
v 0.451968 0.050668 -0.010262
v 0.451563 0.038059 -0.011828
v 0.451968 0.038029 -0.011526
v 0.451563 0.050698 -0.010564
v 0.449630 0.037992 -0.011153
v 0.449630 0.050630 -0.009889
v 0.449339 0.050589 -0.009478
v 0.449339 0.037950 -0.010741
v 0.449132 0.050543 -0.009020
v 0.449132 0.037905 -0.010284
v 0.448965 0.050438 -0.007964
v 0.448965 0.037799 -0.009228
v 0.448965 0.050145 -0.005034
v 0.448965 0.037506 -0.006298
v 0.448965 0.050145 -0.005034
v 0.447811 0.037506 -0.006298
v 0.448965 0.037506 -0.006298
v 0.447811 0.050145 -0.005034
v 0.447811 0.050145 -0.005034
v 0.447811 0.038150 -0.012732
v 0.447811 0.037506 -0.006298
v 0.447811 0.050788 -0.011469
v 0.447811 0.050788 -0.011469
v 0.448965 0.038150 -0.012732
v 0.447811 0.038150 -0.012732
v 0.448965 0.050788 -0.011469
v 0.448965 0.038150 -0.012732
v 0.448965 0.050668 -0.010262
v 0.448965 0.038029 -0.011526
v 0.448965 0.050788 -0.011469
v 0.449449 0.050724 -0.010822
v 0.448965 0.038029 -0.011526
v 0.448965 0.050668 -0.010262
v 0.449449 0.038085 -0.012086
v 0.449976 0.038127 -0.012503
v 0.449976 0.050765 -0.011239
v 0.450604 0.038152 -0.012761
v 0.450604 0.050791 -0.011497
v 0.451390 0.038161 -0.012847
v 0.451390 0.050800 -0.011583
v 0.452300 0.050785 -0.011440
v 0.452300 0.038147 -0.012704
v 0.452657 0.038129 -0.012524
v 0.452657 0.050768 -0.011260
v 0.452950 0.038104 -0.012273
v 0.452950 0.050742 -0.011009
v 0.453339 0.050678 -0.010363
v 0.453339 0.038039 -0.011626
v 0.453339 0.038039 -0.011626
v 0.453469 0.050599 -0.009573
v 0.453469 0.037960 -0.010837
v 0.453339 0.050678 -0.010363
v 0.453469 0.050145 -0.005034
v 0.453469 0.037506 -0.006298
vn -0.03054246938248278 -0.09945729754667283 0.9945729754667241
vn 0.2558772007936018 -0.0961911699141139 0.9619116991411348
vn 0.03054246938248278 0.09945729754667283 -0.9945729754667241
vn -0.2558772007936018 0.0961911699141139 -0.9619116991411348
vn 0 -0.995037190209989 -0.09950371902099936
vn 0 0.995037190209989 0.09950371902099936
vn -0.19086969838386306 -0.09767438116025226 0.976743811602518
vn 0.19086969838386306 0.09767438116025226 -0.976743811602518
vn 0.5195191933243316 -0.0850218264211988 0.8502182642119842
vn -0.5195191933243316 0.0850218264211988 -0.8502182642119842
vn 0 -0.09950371902099936 0.995037190209989
vn 0 0.09950371902099936 -0.995037190209989
vn -1 0 0
vn -0.9975983393951682 -0.006892062615004266 0.06892062615004231
vn 1 0 0
vn 0.9975983393951682 0.006892062615004266 -0.06892062615004231
vn -0.9904049000078228 -0.013751015818640612 0.13751015818640544
vn 0.9904049000078228 0.013751015818640612 -0.13751015818640544
vn -0.8778955940032307 -0.04764756401674563 0.4764756401674538
vn 0.8778955940032307 0.04764756401674563 -0.4764756401674538
vn -0.6000000037781144 -0.07960297493484723 0.7960297493484682
vn 0.6000000037781144 0.07960297493484723 -0.7960297493484682
vn 0.7392936630430115 -0.06700412871750946 0.6700412871750916
vn -0.7392936630430115 0.06700412871750946 -0.6700412871750916
vn 0.8687014132489576 -0.04928778438213332 0.49287784382133093
vn -0.8687014132489576 0.04928778438213332 -0.49287784382133093
vn 0.9584048287275226 -0.028399585876176196 0.28399585876176064
vn -0.9584048287275226 0.028399585876176196 -0.28399585876176064
vn 0.9969904661718476 -0.007713951846718124 0.07713951846718085
vn -0.9969904661718476 0.007713951846718124 -0.07713951846718085
vn -0.6934403991912121 0.07169382181769292 -0.7169382181769258
vn -0.7585697054810042 0.06483581716451761 -0.6483581716451731
vn 0.6934403991912121 -0.07169382181769292 0.7169382181769258
vn 0.7585697054810042 -0.06483581716451761 0.6483581716451731
vn -0.5071420095206953 0.08575852480093658 -0.8575852480093614
vn 0.5071420095206953 -0.08575852480093658 0.8575852480093614
vn -0.24836810832153963 0.09638584191914942 -0.9638584191914894
vn 0.24836810832153963 -0.09638584191914942 0.9638584191914894
vn 0.023881080386222144 0.09947534119040004 -0.9947534119039956
vn -0.023881080386222144 -0.09947534119040004 0.9947534119039956
vn 0.30748449968595976 0.09468307126768762 -0.9468307126768718
vn -0.30748449968595976 -0.09468307126768762 0.9468307126768718
vn 0.5565100780369447 0.08267175538866206 -0.8267175538866167
vn -0.5565100780369447 -0.08267175538866206 0.8267175538866167
vn 0.7653132770526504 0.06404636222709396 -0.6404636222709367
vn -0.7653132770526504 -0.06404636222709396 0.6404636222709367
vn 0.8574929014752085 0.05119424510506558 -0.5119424510506534
vn -0.8574929014752085 -0.05119424510506558 0.5119424510506534
vn 0.9868745785147762 0.0160687157715654 -0.16068715771565328
vn 0.996713243787406 0.008060851279754902 -0.08060851279754866
vn -0.9868745785147762 -0.0160687157715654 0.16068715771565328
vn -0.996713243787406 -0.008060851279754902 0.08060851279754866
usemtl material_0_2
f 1//1 2//2 3//2
f 3//4 2//4 1//3
f 2//2 1//1 4//1
f 4//3 1//3 2//4
f 5//5 6//5 7//5
f 7//6 6//6 5//6
f 6//5 5//5 8//5
f 8//6 5//6 6//6
f 6//5 8//5 9//5
f 9//6 8//6 6//6
f 9//5 8//5 10//5
f 10//6 8//6 9//6
f 10//5 8//5 11//5
f 11//6 8//6 10//6
f 10//5 11//5 12//5
f 12//6 11//6 10//6
f 12//5 11//5 13//5
f 13//6 11//6 12//6
f 12//5 13//5 14//5
f 14//6 13//6 12//6
f 14//5 13//5 15//5
f 15//6 13//6 14//6
f 14//5 15//5 16//5
f 16//6 15//6 14//6
f 16//5 15//5 17//5
f 17//6 15//6 16//6
f 17//5 15//5 18//5
f 18//6 15//6 17//6
f 17//5 18//5 19//5
f 19//6 18//6 17//6
f 19//5 18//5 20//5
f 20//6 18//6 19//6
f 20//5 18//5 21//5
f 21//6 18//6 20//6
f 21//5 18//5 22//5
f 22//6 18//6 21//6
f 21//5 22//5 23//5
f 23//6 22//6 21//6
f 23//5 22//5 24//5
f 24//6 22//6 23//6
f 24//5 22//5 25//5
f 25//6 22//6 24//6
f 24//5 25//5 26//5
f 26//6 25//6 24//6
f 24//5 26//5 27//5
f 27//6 26//6 24//6
f 28//5 29//5 30//5
f 30//6 29//6 28//6
f 29//5 28//5 31//5
f 31//6 28//6 29//6
f 31//5 28//5 5//5
f 5//6 28//6 31//6
f 31//5 5//5 7//5
f 7//6 5//6 31//6
f 32//7 4//1 1//1
f 1//3 4//3 32//8
f 4//1 32//7 33//7
f 33//8 32//8 4//3
f 34//6 35//6 36//6
f 36//5 35//5 34//5
f 35//6 34//6 37//6
f 37//5 34//5 35//5
f 37//6 34//6 38//6
f 38//5 34//5 37//5
f 38//6 34//6 39//6
f 39//5 34//5 38//5
f 39//6 34//6 40//6
f 40//5 34//5 39//5
f 41//6 42//6 43//6
f 43//5 42//5 41//5
f 42//6 41//6 44//6
f 44//5 41//5 42//5
f 44//6 41//6 45//6
f 45//5 41//5 44//5
f 44//6 45//6 46//6
f 46//5 45//5 44//5
f 44//6 46//6 47//6
f 47//5 46//5 44//5
f 47//6 46//6 48//6
f 48//5 46//5 47//5
f 47//6 48//6 49//6
f 49//5 48//5 47//5
f 49//6 48//6 50//6
f 50//5 48//5 49//5
f 49//6 50//6 51//6
f 51//5 50//5 49//5
f 51//6 50//6 52//6
f 52//5 50//5 51//5
f 51//6 52//6 53//6
f 53//5 52//5 51//5
f 51//6 53//6 54//6
f 54//5 53//5 51//5
f 54//6 53//6 55//6
f 55//5 53//5 54//5
f 54//6 55//6 56//6
f 56//5 55//5 54//5
f 54//6 56//6 35//6
f 35//5 56//5 54//5
f 54//6 35//6 37//6
f 37//5 35//5 54//5
f 57//6 58//6 59//6
f 59//5 58//5 57//5
f 58//6 57//6 60//6
f 60//5 57//5 58//5
f 60//6 57//6 43//6
f 43//5 57//5 60//5
f 60//6 43//6 42//6
f 42//5 43//5 60//5
f 3//2 61//9 62//9
f 62//10 61//10 3//4
f 61//9 3//2 2//2
f 2//4 3//4 61//10
f 63//11 64//11 65//11
f 65//12 64//12 63//12
f 64//11 63//11 66//11
f 66//12 63//12 64//12
f 67//13 68//14 69//13
f 69//15 68//16 67//15
f 68//14 67//13 70//14
f 70//16 67//15 68//16
f 71//17 68//14 70//14
f 70//16 68//16 71//18
f 68//14 71//17 72//17
f 72//18 71//18 68//16
f 73//19 74//19 75//19
f 75//20 74//20 73//20
f 74//19 73//19 76//19
f 76//20 73//20 74//20
f 77//21 78//21 79//21
f 79//22 78//22 77//22
f 78//21 77//21 80//21
f 80//22 77//22 78//22
f 61//9 81//23 62//9
f 62//10 81//24 61//10
f 81//23 61//9 82//23
f 82//24 61//10 81//24
f 81//23 83//25 84//25
f 84//26 83//26 81//24
f 83//25 81//23 82//23
f 82//24 81//24 83//26
f 84//25 85//27 86//27
f 86//28 85//28 84//26
f 85//27 84//25 83//25
f 83//26 84//26 85//28
f 86//27 87//29 88//29
f 88//30 87//30 86//28
f 87//29 86//27 85//27
f 85//28 86//28 87//30
f 88//29 89//15 90//15
f 90//13 89//13 88//30
f 89//15 88//29 87//29
f 87//30 88//30 89//13
f 91//11 92//11 93//11
f 93//12 92//12 91//12
f 92//11 91//11 94//11
f 94//12 91//12 92//12
f 95//13 96//13 97//13
f 97//15 96//15 95//15
f 96//13 95//13 98//13
f 98//15 95//15 96//15
f 99//12 100//12 101//12
f 101//11 100//11 99//11
f 100//12 99//12 102//12
f 102//11 99//11 100//11
f 103//15 104//15 105//15
f 105//13 104//13 103//13
f 104//15 103//15 106//15
f 106//13 103//13 104//13
f 107//31 108//32 109//32
f 109//34 108//34 107//33
f 108//32 107//31 110//31
f 110//33 107//33 108//34
f 107//31 111//35 110//31
f 110//33 111//36 107//33
f 111//35 107//31 112//35
f 112//36 107//33 111//36
f 112//35 113//37 111//35
f 111//36 113//38 112//36
f 113//37 112//35 114//37
f 114//38 112//36 113//38
f 114//37 115//39 113//37
f 113//38 115//40 114//38
f 115//39 114//37 116//39
f 116//40 114//38 115//40
f 115//39 117//41 118//41
f 118//42 117//42 115//40
f 117//41 115//39 116//39
f 116//40 115//40 117//42
f 117//41 119//43 118//41
f 118//42 119//44 117//42
f 119//43 117//41 120//43
f 120//44 117//42 119//44
f 120//43 121//45 119//43
f 119//44 121//46 120//44
f 121//45 120//43 122//45
f 122//46 120//44 121//46
f 121//45 123//47 124//47
f 124//48 123//48 121//46
f 123//47 121//45 122//45
f 122//46 121//46 123//48
f 125//49 126//50 127//50
f 127//52 126//52 125//51
f 126//50 125//49 128//49
f 128//51 125//51 126//52
f 127//50 129//15 130//15
f 130//13 129//13 127//52
f 129//15 127//50 126//50
f 126//52 127//52 129//13
