# SSTK version 0.8.0
# 8
mtllib original-8.mtl
o Group9/mesh16/mesh16-geometry#mesh16-geometry
v -0.375087 -0.700396 0.019836
v -0.328836 -0.586863 0.019836
v -0.385195 -0.695217 0.019836
v -0.309772 -0.575244 0.019836
v -0.385195 -0.695217 0.017642
v -0.309772 -0.575244 0.017642
v -0.387204 -0.575244 0.019836
v -0.328836 -0.586863 0.017642
v -0.375087 -0.700396 0.017642
v -0.387204 -0.586863 0.019836
v -0.387204 -0.586863 0.017642
v -0.387204 -0.575244 0.017642
vn 0 0 1
vn 0 0 -1
vn -0.8871651394938652 0.461452072556653 0
vn 0.8871651394938652 -0.461452072556653 0
vn -0.45600587857363084 -0.8899767630147942 0
vn 0.45600587857363084 0.8899767630147942 0
vn 0.8865325254568488 -0.4626662742270087 0
vn -0.8865325254568488 0.4626662742270087 0
vn 0 1 0
vn 0 -1 0
vn -1 0 0
vn 1 0 0
usemtl material_0_0
f 1//1 2//1 3//1
f 2//1 1//1 4//1
f 3//2 2//2 1//2
f 4//2 1//2 2//2
f 2//3 5//3 3//3
f 3//4 5//4 2//4
f 5//5 1//5 3//5
f 3//6 1//6 5//6
f 1//7 6//7 4//7
f 4//8 6//8 1//8
f 7//1 2//1 4//1
f 4//2 2//2 7//2
f 5//3 2//3 8//3
f 8//4 2//4 5//4
f 1//5 5//5 9//5
f 9//6 5//6 1//6
f 6//7 1//7 9//7
f 9//8 1//8 6//8
f 6//9 7//9 4//9
f 4//10 7//10 6//10
f 2//1 7//1 10//1
f 10//2 7//2 2//2
f 2//10 11//10 8//10
f 8//9 11//9 2//9
f 8//2 9//2 5//2
f 5//1 9//1 8//1
f 9//2 8//2 6//2
f 6//1 8//1 9//1
f 7//9 6//9 12//9
f 12//10 6//10 7//10
f 7//11 11//11 10//11
f 10//12 11//12 7//12
f 11//10 2//10 10//10
f 10//9 2//9 11//9
f 11//2 6//2 8//2
f 8//1 6//1 11//1
f 6//2 11//2 12//2
f 12//1 11//1 6//1
f 11//11 7//11 12//11
f 12//12 7//12 11//12
