# SSTK version 0.8.0
# 13
mtllib original-13.mtl
o Group12/mesh28/mesh28-geometry#mesh28-geometry
v -0.758661 0.036895 0.019910
v -0.758027 0.029522 0.017716
v -0.758027 0.029522 0.019910
v -0.758661 0.036895 0.017716
v -0.756124 0.022755 0.017716
v -0.757437 0.046916 0.019910
v -0.757437 0.046916 0.017716
v -0.756124 0.022755 0.019910
v -0.752954 0.016596 0.017716
v -0.753764 0.055900 0.017716
v -0.753764 0.055900 0.019910
v -0.752954 0.016596 0.019910
v -0.748516 0.011043 0.017716
v -0.747841 0.063515 0.017716
v -0.747841 0.063515 0.019910
v -0.748516 0.011043 0.019910
v -0.743167 0.006450 0.019910
v -0.746710 0.036895 0.017716
v -0.739863 0.069428 0.017716
v -0.746710 0.036895 0.019910
v -0.743167 0.006450 0.017716
v -0.746239 0.031778 0.019910
v -0.746240 0.042012 0.017716
v -0.746239 0.031778 0.017716
v -0.739863 0.069428 0.019910
v -0.746240 0.042012 0.019910
v -0.737269 0.003169 0.019910
v -0.744828 0.027050 0.019910
v -0.730537 0.073225 0.017716
v -0.744832 0.046740 0.017716
v -0.744828 0.027050 0.017716
v -0.737269 0.003169 0.017716
v -0.742475 0.022711 0.019910
v -0.744832 0.046740 0.019910
v -0.730537 0.073225 0.019910
v -0.739199 0.055029 0.017716
v -0.742485 0.051079 0.017716
v -0.742475 0.022711 0.017716
v -0.730819 0.001201 0.019910
v -0.739182 0.018761 0.019910
v -0.742485 0.051079 0.019910
v -0.739199 0.055029 0.019910
v -0.720567 0.074491 0.017716
v -0.735249 0.058315 0.017716
v -0.739182 0.018761 0.017716
v -0.730819 0.001201 0.017716
v -0.735223 0.015475 0.019910
v -0.735249 0.058315 0.019910
v -0.720567 0.074491 0.019910
v -0.726182 0.062070 0.017716
v -0.730910 0.060662 0.017716
v -0.735223 0.015475 0.017716
v -0.723818 0.000544 0.019910
v -0.730875 0.013128 0.019910
v -0.730910 0.060662 0.019910
v -0.726182 0.062070 0.019910
v -0.710826 0.073266 0.017716
v -0.721065 0.062540 0.017716
v -0.730875 0.013128 0.017716
v -0.723818 0.000544 0.017716
v -0.726136 0.011720 0.019910
v -0.721065 0.062540 0.019910
v -0.710826 0.073266 0.019910
v -0.715912 0.062070 0.017716
v -0.726136 0.011720 0.017716
v -0.717792 0.001091 0.019910
v -0.721008 0.011250 0.019910
v -0.715912 0.062070 0.019910
v -0.701852 0.069594 0.017716
v -0.711158 0.060662 0.017716
v -0.721008 0.011250 0.017716
v -0.717792 0.001091 0.017716
v -0.711158 0.060662 0.019910
v -0.701852 0.069594 0.019910
v -0.706803 0.058315 0.017716
v -0.711358 0.002731 0.019910
v -0.715847 0.011720 0.019910
v -0.715847 0.011720 0.017716
v -0.706803 0.058315 0.019910
v -0.694186 0.063722 0.017716
v -0.702848 0.055029 0.017716
v -0.711358 0.002731 0.017716
v -0.702848 0.055029 0.019910
v -0.694186 0.063722 0.019910
v -0.699562 0.051079 0.017716
v -0.744386 -0.047259 0.017716
v -0.711093 0.013128 0.019910
v -0.711093 0.013128 0.017716
v -0.699562 0.051079 0.019910
v -0.688366 0.055900 0.019910
v -0.697215 0.046740 0.017716
v -0.744386 -0.047259 0.019910
v -0.734344 -0.053733 0.017716
v -0.697329 0.001457 0.019910
v -0.697215 0.046740 0.019910
v -0.688366 0.055900 0.017716
v -0.690721 0.012236 0.019910
v -0.695807 0.042012 0.017716
v -0.697329 0.001457 0.017716
v -0.734344 -0.053733 0.019910
v -0.706747 0.015475 0.019910
v -0.706747 0.015475 0.017716
v -0.695807 0.042012 0.019910
v -0.684694 0.046813 0.019910
v -0.690721 0.012236 0.017716
v -0.695338 0.036895 0.019910
v -0.686499 0.021334 0.019910
v -0.695338 0.036895 0.017716
v -0.702808 0.018761 0.019910
v -0.684694 0.046813 0.017716
v -0.686499 0.021334 0.017716
v -0.695804 0.031778 0.019910
v -0.702808 0.018761 0.017716
v -0.699540 0.022711 0.019910
v -0.683470 0.037144 0.019910
v -0.684227 0.029415 0.019910
v -0.695804 0.031778 0.017716
v -0.697205 0.027050 0.019910
v -0.684227 0.029415 0.017716
v -0.699540 0.022711 0.017716
v -0.697205 0.027050 0.017716
v -0.683470 0.037144 0.017716
vn -0.9998401042213381 0.017882001863984205 0
vn -0.9838585160988618 -0.17894809387011043 0
vn 0.9838585160988618 0.17894809387011043 0
vn 0.9998401042213381 -0.017882001863984205 0
vn -0.9306188123588824 -0.3659899262052756 0
vn 0.9306188123588824 0.3659899262052756 0
vn 0 0 1
vn 0 0 -1
vn -0.9677137113794285 0.2520519248255246 0
vn 0.9677137113794285 -0.2520519248255246 0
vn -0.8392789927645758 -0.5437009953127537 0
vn 0.8392789927645758 0.5437009953127537 0
vn -0.8655278008831885 0.5008608847757146 0
vn 0.8655278008831885 -0.5008608847757146 0
vn -0.7194648496081197 -0.6945288548205649 0
vn 0.7194648496081197 0.6945288548205649 0
vn -0.6988288865234757 0.715288883850685 0
vn 0.6988288865234757 -0.715288883850685 0
vn -0.5717080782917106 -0.8204571123562762 0
vn 0.5717080782917106 0.8204571123562762 0
vn -0.49013404152293244 0.871647073843764 0
vn 0.49013404152293244 -0.871647073843764 0
vn -0.3911627895049937 -0.9203215047507429 0
vn 0.3911627895049937 0.9203215047507429 0
vn 0.9819119734942685 -0.18933799488901024 0
vn 0.9999999947980001 0.00010199999946939601 0
vn -0.9999999947980001 -0.00010199999946939601 0
vn -0.9819119734942685 0.18933799488901024 0
vn 0.9818345440950546 0.18973910514613626 0
vn -0.9818345440950546 -0.18973910514613626 0
vn -0.2536500159652398 0.9672960608835505 0
vn 0.2536500159652398 -0.9672960608835505 0
vn 0.9235898863873679 0.3833819528394221 0
vn -0.9235898863873679 -0.3833819528394221 0
vn 0.9238874962824699 -0.38266420555482983 0
vn -0.9238874962824699 0.38266420555482983 0
vn -0.19360799400734868 -0.9810789696331538 0
vn 0.19360799400734868 0.9810789696331538 0
vn 0.8276429542834873 0.56125496899796 0
vn -0.8276429542834873 -0.56125496899796 0
vn -0.0006329998731819696 0.9999997996555603 0
vn 0.0006329998731819696 -0.9999997996555603 0
vn 0.8282152259682025 -0.5604101529009259 0
vn -0.8282152259682025 0.5604101529009259 0
vn 0.7063283527969738 0.7078843535741653 0
vn -0.7063283527969738 -0.7078843535741653 0
vn 0.7071067811865476 -0.7071067811865476 0
vn -0.7071067811865476 0.7071067811865476 0
vn 0.5604101529009259 -0.8282152259682025 0
vn -0.5604101529009259 0.8282152259682025 0
vn -0.0014969998196040478 -0.9999988794951423 0
vn 0.0014969998196040478 0.9999988794951423 0
vn 0.5595707299708158 0.828782600058621 0
vn -0.5595707299708158 -0.828782600058621 0
vn 0.25392099049497574 0.9672249637938686 0
vn -0.25392099049497574 -0.9672249637938686 0
vn 0.38266420555482983 -0.9238874962824699 0
vn -0.38266420555482983 0.9238874962824699 0
vn 0.3819561798372344 0.924180435133825 0
vn -0.3819561798372344 -0.924180435133825 0
vn 0.18933799488901024 -0.9819119734942685 0
vn -0.18933799488901024 0.9819119734942685 0
vn 0.00032099998346192077 -0.9999999484795039 0
vn -0.00032099998346192077 0.9999999484795039 0
vn 0.1691699810978778 -0.9855868898759479 0
vn -0.1691699810978778 0.9855868898759479 0
vn 0.18894301044921008 0.9819880543073779 0
vn -0.18894301044921008 -0.9819880543073779 0
vn 0.4977707834891694 0.8673086227546563 0
vn -0.4977707834891694 -0.8673086227546563 0
vn -0.18828990273925242 -0.9821134926913705 0
vn 0.18828990273925242 0.9821134926913705 0
vn 0.00028799998805606475 0.9999999585280025 0
vn -0.00028799998805606475 -0.9999999585280025 0
vn -0.38128312966431044 -0.924458314383828 0
vn 0.38128312966431044 0.924458314383828 0
vn 0.24693289362404863 -0.9690325825515128 0
vn -0.24693289362404863 0.9690325825515128 0
vn -0.18823096000224288 0.9821247913053789 0
vn 0.18823096000224288 -0.9821247913053789 0
vn 0.7120141340647981 0.7021651322103342 0
vn -0.7120141340647981 -0.7021651322103342 0
vn -0.5595229183784812 -0.8288148790949806 0
vn 0.5595229183784812 0.8288148790949806 0
vn -0.706878744510741 -0.7073347443459276 0
vn 0.706878744510741 0.7073347443459276 0
vn -0.8343408480323374 0.5512488995949834 0
vn 0.8343408480323374 -0.5512488995949834 0
vn -0.3816528866405224 0.9243057254604435 0
vn 0.3816528866405224 -0.9243057254604435 0
vn 0.8718363870496704 0.48979721744429844 0
vn -0.8718363870496704 -0.48979721744429844 0
vn -0.8282152259682025 -0.5604101529009259 0
vn 0.8282152259682025 0.5604101529009259 0
vn -0.9238874962824699 -0.38266420555482983 0
vn 0.9238874962824699 0.38266420555482983 0
vn -0.5418099980763037 -0.8405009970158014 0
vn 0.5418099980763037 0.8405009970158014 0
vn -0.5606809504400113 0.8280319268081912 0
vn 0.5606809504400113 -0.8280319268081912 0
vn 0.967665456547573 0.2522371190062575 0
vn -0.967665456547573 -0.2522371190062575 0
vn -0.9819119734942685 -0.18933799488901024 0
vn 0.9819119734942685 0.18933799488901024 0
vn 0.8416951198430848 -0.5399530768801445 0
vn 0.8305098687312814 -0.5570039119610827 0
vn -0.8305098687312814 0.5570039119610827 0
vn -0.8416951198430848 0.5399530768801445 0
vn 0.8812738703152719 -0.4726059304532068 0
vn 0.9378966249192705 -0.3469148612628772 0
vn -0.9378966249192705 0.3469148612628772 0
vn -0.8812738703152719 0.4726059304532068 0
vn -0.9999999704755014 -0.00024299999282554683 0
vn 0.9999999704755014 0.00024299999282554683 0
vn -0.708519866131915 0.7056908666664274 0
vn 0.708519866131915 -0.7056908666664274 0
vn 0.9999001382741998 0.01413200195428642 0
vn -0.9999001382741998 -0.01413200195428642 0
vn -0.9820963924178072 0.18837907527092473 0
vn 0.9820963924178072 -0.18837907527092473 0
vn 0.9827767233788575 -0.18479694798539517 0
vn -0.9827767233788575 0.18479694798539517 0
vn -0.8295799440265839 0.5583879623244487 0
vn 0.8295799440265839 -0.5583879623244487 0
vn -0.9245951948926678 0.38095108029954383 0
vn 0.9245951948926678 -0.38095108029954383 0
usemtl material_0_0
f 1//1 2//2 3//2
f 2//2 1//1 4//1
f 3//3 2//3 1//4
f 4//4 1//4 2//3
f 5//5 3//2 2//2
f 2//3 3//3 5//6
f 3//7 6//7 1//7
f 1//8 6//8 3//8
f 6//9 4//1 1//1
f 1//4 4//4 6//10
f 7//8 2//8 4//8
f 4//7 2//7 7//7
f 3//2 5//5 8//5
f 8//6 5//6 3//3
f 2//8 7//8 5//8
f 5//7 7//7 2//7
f 6//7 3//7 8//7
f 8//8 3//8 6//8
f 4//1 6//9 7//9
f 7//10 6//10 4//4
f 9//11 8//5 5//5
f 5//6 8//6 9//12
f 5//8 7//8 10//8
f 10//7 7//7 5//7
f 6//7 8//7 11//7
f 11//8 8//8 6//8
f 11//13 7//9 6//9
f 6//10 7//10 11//14
f 8//5 9//11 12//11
f 12//12 9//12 8//6
f 5//8 10//8 9//8
f 9//7 10//7 5//7
f 7//9 11//13 10//13
f 10//14 11//14 7//10
f 11//7 8//7 12//7
f 12//8 8//8 11//8
f 13//15 12//11 9//11
f 9//12 12//12 13//16
f 9//8 10//8 14//8
f 14//7 10//7 9//7
f 15//17 10//13 11//13
f 11//14 10//14 15//18
f 11//7 12//7 15//7
f 15//8 12//8 11//8
f 12//11 13//15 16//15
f 16//16 13//16 12//12
f 9//8 14//8 13//8
f 13//7 14//7 9//7
f 10//13 15//17 14//17
f 14//18 15//18 10//14
f 15//7 12//7 16//7
f 16//8 12//8 15//8
f 13//15 17//19 16//15
f 16//16 17//20 13//16
f 13//8 14//8 18//8
f 18//7 14//7 13//7
f 15//17 19//21 14//17
f 14//18 19//22 15//18
f 15//7 16//7 20//7
f 20//8 16//8 15//8
f 17//19 13//15 21//19
f 21//20 13//16 17//20
f 22//7 16//7 17//7
f 17//8 16//8 22//8
f 14//8 23//8 18//8
f 18//7 23//7 14//7
f 13//8 18//8 24//8
f 24//7 18//7 13//7
f 19//21 15//17 25//21
f 25//22 15//18 19//22
f 23//8 14//8 19//8
f 19//7 14//7 23//7
f 20//7 16//7 22//7
f 22//8 16//8 20//8
f 26//7 15//7 20//7
f 20//8 15//8 26//8
f 13//8 24//8 21//8
f 21//7 24//7 13//7
f 21//19 27//23 17//19
f 17//20 27//24 21//20
f 22//7 17//7 28//7
f 28//8 17//8 22//8
f 23//25 20//26 18//26
f 18//27 20//27 23//28
f 18//26 22//29 24//29
f 24//30 22//30 18//27
f 15//7 26//7 25//7
f 25//8 26//8 15//8
f 25//21 29//31 19//21
f 19//22 29//32 25//22
f 23//8 19//8 30//8
f 30//7 19//7 23//7
f 22//29 18//26 20//26
f 20//27 18//27 22//30
f 20//26 23//25 26//25
f 26//28 23//28 20//27
f 21//8 24//8 31//8
f 31//7 24//7 21//7
f 27//23 21//19 32//23
f 32//24 21//20 27//24
f 33//7 17//7 27//7
f 27//8 17//8 33//8
f 28//7 17//7 33//7
f 33//8 17//8 28//8
f 28//33 24//29 22//29
f 22//30 24//30 28//34
f 25//7 26//7 34//7
f 34//8 26//8 25//8
f 29//31 25//21 35//31
f 35//32 25//22 29//32
f 36//8 19//8 29//8
f 29//7 19//7 36//7
f 30//8 19//8 37//8
f 37//7 19//7 30//7
f 30//35 26//25 23//25
f 23//28 26//28 30//36
f 24//29 28//33 31//33
f 31//34 28//34 24//30
f 21//8 31//8 38//8
f 38//7 31//7 21//7
f 21//8 38//8 32//8
f 32//7 38//7 21//7
f 32//23 39//37 27//23
f 27//24 39//38 32//24
f 33//7 27//7 40//7
f 40//8 27//8 33//8
f 33//39 31//33 28//33
f 28//34 31//34 33//40
f 26//25 30//35 34//35
f 34//36 30//36 26//28
f 25//7 34//7 41//7
f 41//8 34//8 25//8
f 25//7 42//7 35//7
f 35//8 42//8 25//8
f 35//31 43//41 29//31
f 29//32 43//42 35//32
f 37//8 19//8 36//8
f 36//7 19//7 37//7
f 36//8 29//8 44//8
f 44//7 29//7 36//7
f 37//43 34//35 30//35
f 30//36 34//36 37//44
f 31//33 33//39 38//39
f 38//40 33//40 31//34
f 32//8 38//8 45//8
f 45//7 38//7 32//7
f 39//37 32//23 46//37
f 46//38 32//24 39//38
f 47//7 27//7 39//7
f 39//8 27//8 47//8
f 40//7 27//7 47//7
f 47//8 27//8 40//8
f 40//45 38//39 33//39
f 33//40 38//40 40//46
f 34//35 37//43 41//43
f 41//44 37//44 34//36
f 25//7 41//7 42//7
f 42//8 41//8 25//8
f 35//7 42//7 48//7
f 48//8 42//8 35//8
f 43//41 35//31 49//41
f 49//42 35//32 43//42
f 50//8 29//8 43//8
f 43//7 29//7 50//7
f 36//47 41//43 37//43
f 37//44 41//44 36//48
f 44//8 29//8 51//8
f 51//7 29//7 44//7
f 48//49 36//47 44//49
f 44//50 36//48 48//50
f 38//39 40//45 45//45
f 45//46 40//46 38//40
f 32//8 45//8 52//8
f 52//7 45//7 32//7
f 32//8 52//8 46//8
f 46//7 52//7 32//7
f 46//37 53//51 39//37
f 39//38 53//52 46//38
f 47//7 39//7 54//7
f 54//8 39//8 47//8
f 52//53 40//45 47//53
f 47//54 40//46 52//54
f 41//43 36//47 42//47
f 42//48 36//48 41//44
f 36//47 48//49 42//47
f 42//48 48//50 36//48
f 35//7 48//7 55//7
f 55//8 48//8 35//8
f 35//7 56//7 49//7
f 49//8 56//8 35//8
f 49//41 57//55 43//41
f 43//42 57//56 49//42
f 51//8 29//8 50//8
f 50//7 29//7 51//7
f 50//8 43//8 58//8
f 58//7 43//7 50//7
f 55//57 44//49 51//57
f 51//58 44//50 55//58
f 44//49 55//57 48//49
f 48//50 55//58 44//50
f 40//45 52//53 45//45
f 45//46 52//54 40//46
f 46//8 52//8 59//8
f 59//7 52//7 46//7
f 53//51 46//37 60//51
f 60//52 46//38 53//52
f 61//7 39//7 53//7
f 53//8 39//8 61//8
f 54//7 39//7 61//7
f 61//8 39//8 54//8
f 59//59 47//53 54//59
f 54//60 47//54 59//60
f 47//53 59//59 52//53
f 52//54 59//60 47//54
f 35//7 55//7 56//7
f 56//8 55//8 35//8
f 49//7 56//7 62//7
f 62//8 56//8 49//8
f 57//55 49//41 63//55
f 63//56 49//42 57//56
f 64//8 43//8 57//8
f 57//7 43//7 64//7
f 56//61 51//57 50//61
f 50//62 51//58 56//62
f 58//8 43//8 64//8
f 64//7 43//7 58//7
f 62//63 50//61 58//63
f 58//64 50//62 62//64
f 51//57 56//61 55//57
f 55//58 56//62 51//58
f 46//8 59//8 65//8
f 65//7 59//7 46//7
f 46//8 65//8 60//8
f 60//7 65//7 46//7
f 60//51 66//65 53//51
f 53//52 66//66 60//52
f 61//7 53//7 67//7
f 67//8 53//8 61//8
f 65//67 54//59 61//67
f 61//68 54//60 65//68
f 54//59 65//67 59//59
f 59//60 65//68 54//60
f 50//61 62//63 56//61
f 56//62 62//64 50//62
f 49//7 62//7 68//7
f 68//8 62//8 49//8
f 49//7 68//7 63//7
f 63//8 68//8 49//8
f 63//55 69//69 57//55
f 57//56 69//70 63//56
f 64//8 57//8 70//8
f 70//7 57//7 64//7
f 68//71 58//63 64//71
f 64//72 58//64 68//72
f 58//63 68//71 62//63
f 62//64 68//72 58//64
f 60//8 65//8 71//8
f 71//7 65//7 60//7
f 66//65 60//51 72//65
f 72//66 60//52 66//66
f 67//7 53//7 66//7
f 66//8 53//8 67//8
f 71//73 61//67 67//73
f 67//74 61//68 71//74
f 61//67 71//73 65//67
f 65//68 71//74 61//68
f 63//7 68//7 73//7
f 73//8 68//8 63//8
f 69//69 63//55 74//69
f 74//70 63//56 69//70
f 75//8 57//8 69//8
f 69//7 57//7 75//7
f 70//8 57//8 75//8
f 75//7 57//7 70//7
f 73//75 64//71 70//75
f 70//76 64//72 73//76
f 64//71 73//75 68//71
f 68//72 73//76 64//72
f 60//8 71//8 72//8
f 72//7 71//7 60//7
f 72//65 76//77 66//65
f 66//66 76//78 72//66
f 67//7 66//7 77//7
f 77//8 66//8 67//8
f 67//73 78//79 71//73
f 71//74 78//80 67//74
f 63//7 73//7 79//7
f 79//8 73//8 63//8
f 63//7 79//7 74//7
f 74//8 79//8 63//8
f 74//69 80//81 69//69
f 69//70 80//82 74//70
f 75//8 69//8 81//8
f 81//7 69//7 75//7
f 79//83 70//75 75//83
f 75//84 70//76 79//84
f 70//75 79//83 73//75
f 73//76 79//84 70//76
f 72//8 71//8 78//8
f 78//7 71//7 72//7
f 76//77 72//65 82//77
f 82//78 72//66 76//78
f 77//7 66//7 76//7
f 76//8 66//8 77//8
f 78//79 67//73 77//79
f 77//80 67//74 78//80
f 74//7 79//7 83//7
f 83//8 79//8 74//8
f 80//81 74//69 84//81
f 84//82 74//70 80//82
f 85//8 69//8 80//8
f 80//7 69//7 85//7
f 81//8 69//8 85//8
f 85//7 69//7 81//7
f 83//85 75//83 81//85
f 81//86 75//84 83//86
f 75//83 83//85 79//83
f 79//84 83//86 75//84
f 72//8 78//8 82//8
f 82//7 78//7 72//7
f 86//87 76//87 82//87
f 82//88 76//88 86//88
f 77//7 76//7 87//7
f 87//8 76//8 77//8
f 77//79 88//89 78//79
f 78//80 88//90 77//80
f 74//7 83//7 89//7
f 89//8 83//8 74//8
f 74//7 89//7 84//7
f 84//8 89//8 74//8
f 90//91 80//81 84//81
f 84//82 80//82 90//92
f 85//8 80//8 91//8
f 91//7 80//7 85//7
f 85//93 83//85 81//85
f 81//86 83//86 85//94
f 82//8 78//8 88//8
f 88//7 78//7 82//7
f 76//87 86//87 92//87
f 92//88 86//88 76//88
f 82//8 93//8 86//8
f 86//7 93//7 82//7
f 76//7 94//7 87//7
f 87//8 94//8 76//8
f 88//89 77//79 87//89
f 87//90 77//80 88//90
f 83//85 85//93 89//93
f 89//94 85//94 83//86
f 84//7 89//7 95//7
f 95//8 89//8 84//8
f 80//81 90//91 96//91
f 96//92 90//92 80//82
f 84//7 97//7 90//7
f 90//8 97//8 84//8
f 91//8 80//8 98//8
f 98//7 80//7 91//7
f 91//95 89//93 85//93
f 85//94 89//94 91//96
f 99//8 82//8 88//8
f 88//7 82//7 99//7
f 86//97 100//97 92//97
f 92//98 100//98 86//98
f 100//7 76//7 92//7
f 92//8 76//8 100//8
f 93//8 82//8 99//8
f 99//7 82//7 93//7
f 100//97 86//97 93//97
f 93//98 86//98 100//98
f 76//7 100//7 94//7
f 94//8 100//8 76//8
f 87//7 94//7 101//7
f 101//8 94//8 87//8
f 87//89 102//99 88//89
f 88//90 102//100 87//90
f 89//93 91//95 95//95
f 95//96 91//96 89//94
f 84//7 95//7 103//7
f 103//8 95//8 84//8
f 104//101 96//91 90//91
f 90//92 96//92 104//102
f 105//8 80//8 96//8
f 96//7 80//7 105//7
f 106//7 97//7 84//7
f 84//8 97//8 106//8
f 90//7 97//7 107//7
f 107//8 97//8 90//8
f 98//8 80//8 108//8
f 108//7 80//7 98//7
f 98//103 95//95 91//95
f 91//96 95//96 98//104
f 99//8 88//8 102//8
f 102//7 88//7 99//7
f 99//105 100//106 93//106
f 93//107 100//107 99//108
f 100//106 99//105 94//105
f 94//108 99//108 100//107
f 101//7 94//7 109//7
f 109//8 94//8 101//8
f 102//99 87//89 101//99
f 101//100 87//90 102//100
f 95//95 98//103 103//103
f 103//104 98//104 95//96
f 84//7 103//7 106//7
f 106//8 103//8 84//8
f 96//91 104//101 110//101
f 110//102 104//102 96//92
f 90//7 107//7 104//7
f 104//8 107//8 90//8
f 105//8 108//8 80//8
f 80//7 108//7 105//7
f 105//8 96//8 111//8
f 111//7 96//7 105//7
f 112//7 97//7 106//7
f 106//8 97//8 112//8
f 97//109 111//110 107//110
f 107//111 111//111 97//112
f 108//113 103//103 98//103
f 98//104 103//104 108//114
f 99//8 102//8 113//8
f 113//7 102//7 99//7
f 105//109 94//105 99//105
f 99//108 94//108 105//112
f 109//7 94//7 114//7
f 114//8 94//8 109//8
f 113//115 101//99 109//115
f 109//116 101//100 113//116
f 101//99 113//115 102//99
f 102//100 113//116 101//100
f 103//103 108//113 106//113
f 106//114 108//114 103//104
f 115//117 110//101 104//101
f 104//102 110//102 115//118
f 111//8 96//8 110//8
f 110//7 96//7 111//7
f 104//7 107//7 116//7
f 116//8 107//8 104//8
f 105//8 117//8 108//8
f 108//7 117//7 105//7
f 111//110 97//109 105//109
f 105//112 97//112 111//111
f 118//7 97//7 112//7
f 112//8 97//8 118//8
f 106//113 117//119 112//119
f 112//120 117//120 106//114
f 119//121 107//110 111//110
f 111//111 107//111 119//122
f 99//8 113//8 120//8
f 120//7 113//7 99//7
f 94//105 105//109 97//109
f 97//112 105//112 94//108
f 99//8 121//8 105//8
f 105//7 121//7 99//7
f 114//7 94//7 118//7
f 118//8 94//8 114//8
f 114//123 113//115 109//115
f 109//116 113//116 114//124
f 117//119 106//113 108//113
f 108//114 106//114 117//120
f 110//101 115//117 122//117
f 122//118 115//118 110//102
f 104//7 116//7 115//7
f 115//8 116//8 104//8
f 111//8 110//8 119//8
f 119//7 110//7 111//7
f 107//110 119//121 116//121
f 116//122 119//122 107//111
f 105//8 121//8 117//8
f 117//7 121//7 105//7
f 118//7 94//7 97//7
f 97//8 94//8 118//8
f 112//119 121//125 118//125
f 118//126 121//126 112//120
f 121//125 112//119 117//119
f 117//120 112//120 121//126
f 113//115 114//123 120//123
f 120//124 114//124 113//116
f 99//8 120//8 121//8
f 121//7 120//7 99//7
f 118//125 120//123 114//123
f 114//124 120//124 118//126
f 116//121 122//117 115//117
f 115//118 122//118 116//122
f 119//8 110//8 122//8
f 122//7 110//7 119//7
f 122//117 116//121 119//121
f 119//122 116//122 122//118
f 120//123 118//125 121//125
f 121//126 118//126 120//124
