# SSTK version 0.8.0
# 39
mtllib original-39.mtl
o mesh51/mesh51-geometry#mesh51-geometry
v -0.545166 -0.320508 -0.007940
v -0.545166 -0.320508 -0.016830
v -0.545456 -0.320005 -0.012385
v -0.544316 -0.321981 -0.003798
v -0.801021 -0.467556 -0.012385
v -0.800731 -0.468058 -0.007940
v -0.799880 -0.469531 -0.003798
v -0.544316 -0.321981 -0.020972
v -0.800731 -0.468058 -0.016830
v -0.798527 -0.471875 -0.000241
v -0.542963 -0.324324 -0.000241
v -0.799880 -0.469531 -0.020972
v -0.798527 -0.471875 -0.024528
v -0.542963 -0.324324 -0.024528
v -0.541200 -0.327378 0.002488
v -0.796764 -0.474928 -0.027258
v -0.796764 -0.474928 0.002488
v -0.541200 -0.327378 -0.027258
v -0.539146 -0.330934 0.004203
v -0.794711 -0.478485 0.004203
v -0.794711 -0.478485 -0.028973
v -0.539146 -0.330934 -0.028973
v -0.536943 -0.334751 0.004788
v -0.792508 -0.482301 -0.029558
v -0.792508 -0.482301 0.004788
v -0.536943 -0.334751 -0.029558
v -0.534740 -0.338567 0.004203
v -0.790304 -0.486117 -0.028973
v -0.790304 -0.486117 0.004203
v -0.534740 -0.338567 -0.028973
v -0.532686 -0.342124 0.002488
v -0.788251 -0.489674 -0.027258
v -0.788251 -0.489674 0.002488
v -0.532686 -0.342124 -0.027258
v -0.530923 -0.345177 -0.000241
v -0.786488 -0.492728 -0.000241
v -0.786488 -0.492728 -0.024528
v -0.530923 -0.345177 -0.024528
v -0.785135 -0.495071 -0.003798
v -0.785135 -0.495071 -0.020972
v -0.529570 -0.347521 -0.003798
v -0.529570 -0.347521 -0.020972
v -0.784284 -0.496544 -0.007940
v -0.784284 -0.496544 -0.016830
v -0.528720 -0.348994 -0.016830
v -0.528720 -0.348994 -0.007940
v -0.783994 -0.497046 -0.012385
v -0.528430 -0.349496 -0.012385
vt -1.332587 0.006537
vt -1.332587 -0.006537
vt -1.331734 0
vt -1.335089 0.012629
vt 2.329054 -0.178957
vt 2.763063 -0.172364
vt 2.329054 -0.172364
vt 2.329054 0.172364
vt 2.763063 0.178957
vt 2.329054 0.178957
vt 2.329054 0.512275
vt 2.763063 0.51886
vt 2.329054 0.51886
vt -1.335089 -0.012629
vt 2.763063 -0.178957
vt 2.763063 0.172364
vt 2.763063 0.512275
vt 2.763063 0.824977
vt 2.329054 0.818404
vt 2.763063 0.818404
vt -1.339068 0.01786
vt 2.329054 -0.51886
vt 2.763063 -0.512275
vt 2.329054 -0.512275
vt 1.332587 -0.006537
vt 1.332587 0.006537
vt 1.331734 0
vt 1.335089 -0.012629
vt 1.335089 0.012629
vt 2.329054 0.824977
vt 1.339068 -0.01786
vt 1.339068 0.01786
vt -1.339068 -0.01786
vt 2.763063 -0.51886
vt 2.763063 1.06989
vt 2.329054 1.076448
vt 2.329054 1.06989
vt 1.344255 -0.021873
vt -1.344255 0.021873
vt 2.329054 -0.824977
vt 2.763063 -0.818404
vt 2.329054 -0.818404
vt 2.763063 -0.824977
vt 2.763063 1.076448
vt 2.329054 -1.06989
vt 2.763063 -1.076448
vt 2.763063 -1.06989
vt 1.344255 0.021873
vt -1.344255 -0.021873
vt 2.763063 1.248788
vt 2.329054 1.255334
vt 2.329054 1.248788
vt 2.329054 -1.076448
vt 1.350294 0.024397
vt -1.350294 0.024397
vt 2.763063 1.255334
vt 2.329054 -1.248788
vt 2.763063 -1.255334
vt 2.763063 -1.248788
vt 1.350294 -0.024397
vt -1.350294 -0.024397
vt 2.763063 1.341756
vt 2.329054 1.348294
vt 2.329054 1.341756
vt 2.329054 -1.255334
vt 1.356775 -0.025257
vt -1.356775 0.025257
vt 2.763063 1.348294
vt 2.329054 -1.341756
vt 2.763063 -1.348294
vt 2.763063 -1.341756
vt 1.356775 0.025257
vt -1.356775 -0.025257
vt -2.763063 -1.341645
vt -2.329054 -1.348183
vt -2.329054 -1.341645
vt 2.329054 -1.348294
vt 1.363256 -0.024397
vt -1.363256 0.024397
vt -2.763063 -1.348183
vt -2.329054 1.341645
vt -2.763063 1.348183
vt -2.763063 1.341645
vt 1.363256 0.024397
vt -1.363256 -0.024397
vt -2.763063 -1.248484
vt -2.329054 -1.25503
vt -2.329054 -1.248484
vt -2.329054 1.348183
vt 1.369296 -0.021873
vt -1.369296 0.021873
vt -2.763063 -1.25503
vt -2.329054 1.248484
vt -2.763063 1.25503
vt -2.763063 1.248484
vt 1.369296 0.021873
vt -1.369296 -0.021873
vt -2.763063 -1.069476
vt -2.329054 -1.076034
vt -2.329054 -1.069476
vt -2.329054 1.25503
vt 1.374482 0.01786
vt -1.374482 0.01786
vt -2.763063 -1.076034
vt -2.329054 1.069476
vt -2.763063 1.076034
vt -2.763063 1.069476
vt 1.374482 -0.01786
vt -1.374482 -0.01786
vt -2.763063 -0.824563
vt -2.329054 -0.817991
vt -2.763063 -0.817991
vt -2.329054 1.076034
vt 1.378462 -0.012629
vt -1.378462 0.012629
vt -2.329054 -0.824563
vt 1.378462 0.012629
vt -2.329054 0.824563
vt -2.763063 0.817991
vt -2.329054 0.817991
vt -2.763063 0.824563
vt -1.378462 -0.012629
vt -2.763063 -0.518558
vt -2.329054 -0.511973
vt -2.763063 -0.511973
vt 1.380963 -0.006537
vt -2.329054 0.518558
vt -2.763063 0.511973
vt -2.329054 0.511973
vt -1.380963 0.006537
vt -2.329054 -0.518558
vt 1.380963 0.006537
vt -2.763063 0.518558
vt -1.380963 -0.006537
vt -2.763063 -0.178846
vt -2.329054 -0.172254
vt -2.763063 -0.172254
vt 1.381816 0
vt -2.329054 0.178846
vt -2.763063 0.172254
vt -2.329054 0.172254
vt -1.381816 0
vt -2.329054 -0.178846
vt -2.763063 0.178846
vn 0.8660253028382762 0.5000001748438417 0
vn -0.8660253028382762 -0.5000001748438417 0
vn -0.48322912927202427 0.8369782239059335 -0.25682106870401106
vn -0.5000001748438417 0.8660253028382762 0
vn 0.5000001748438417 -0.8660253028382762 0
vn 0.48322912927202427 -0.8369782239059335 0.25682106870401106
vn -0.48322912927202427 0.8369782239059335 0.25682106870401106
vn 0.48322912927202427 -0.8369782239059335 -0.25682106870401106
vn -0.43390692475316933 0.7515478696688344 0.4968909138306759
vn 0.43390692475316933 -0.7515478696688344 -0.4968909138306759
vn -0.3550169853303435 0.6149079745913881 0.7041669709031172
vn 0.3550169853303435 -0.6149079745913881 -0.7041669709031172
vn -0.43390692475316933 0.7515478696688344 -0.4968909138306759
vn 0.43390692475316933 -0.7515478696688344 0.4968909138306759
vn -0.25155695764422653 0.4357099266375651 0.8642198544874262
vn 0.25155695764422653 -0.4357099266375651 -0.8642198544874262
vn -0.3550169853303435 0.6149079745913881 -0.7041669709031172
vn 0.3550169853303435 -0.6149079745913881 0.7041669709031172
vn -0.25155695764422653 0.4357099266375651 -0.8642198544874262
vn 0.25155695764422653 -0.4357099266375651 0.8642198544874262
vn -0.13041498019811695 0.2258849657021941 0.9653848534183884
vn 0.13041498019811695 -0.2258849657021941 -0.9653848534183884
vn -0.13041498019811695 0.2258849657021941 -0.9653848534183884
vn 0.13041498019811695 -0.2258849657021941 0.9653848534183884
vn 0 0 1
vn 0 0 -1
usemtl material_0_0
f 1/1/1 2/2/1 3/3/1
f 2/2/1 1/1/1 4/4/1
f 3/3/2 2/2/2 1/1/2
f 4/4/2 1/1/2 2/2/2
f 2/5/3 5/6/4 3/7/4
f 3/7/5 5/6/5 2/5/6
f 3/8/4 6/9/7 1/10/7
f 1/10/8 6/9/8 3/8/5
f 1/11/7 7/12/9 4/13/9
f 4/13/10 7/12/10 1/11/8
f 2/2/1 4/4/1 8/14/1
f 8/14/2 4/4/2 2/2/2
f 5/6/4 2/5/3 9/15/3
f 9/15/6 2/5/6 5/6/5
f 6/9/7 3/8/4 5/16/4
f 5/16/5 3/8/5 6/9/8
f 7/12/9 1/11/7 6/17/7
f 6/17/8 1/11/8 7/12/10
f 10/18/11 4/19/9 7/20/9
f 7/20/10 4/19/10 10/18/12
f 8/14/1 4/4/1 11/21/1
f 11/21/2 4/4/2 8/14/2
f 8/22/13 9/23/3 2/24/3
f 2/24/6 9/23/6 8/22/14
f 9/25/2 6/26/2 5/27/2
f 5/27/1 6/26/1 9/25/1
f 6/26/2 12/28/2 7/29/2
f 7/29/1 12/28/1 6/26/1
f 4/19/9 10/18/11 11/30/11
f 11/30/12 10/18/12 4/19/10
f 7/29/2 13/31/2 10/32/2
f 10/32/1 13/31/1 7/29/1
f 8/14/1 11/21/1 14/33/1
f 14/33/2 11/21/2 8/14/2
f 9/23/3 8/22/13 12/34/13
f 12/34/14 8/22/14 9/23/6
f 6/26/2 9/25/2 12/28/2
f 12/28/1 9/25/1 6/26/1
f 7/29/2 12/28/2 13/31/2
f 13/31/1 12/28/1 7/29/1
f 10/35/11 15/36/15 11/37/11
f 11/37/12 15/36/16 10/35/12
f 10/32/2 13/31/2 16/38/2
f 16/38/1 13/31/1 10/32/1
f 14/33/1 11/21/1 15/39/1
f 15/39/2 11/21/2 14/33/2
f 14/40/17 12/41/13 8/42/13
f 8/42/14 12/41/14 14/40/18
f 12/41/13 14/40/17 13/43/17
f 13/43/18 14/40/18 12/41/14
f 15/36/15 10/35/11 17/44/15
f 17/44/16 10/35/12 15/36/16
f 14/45/17 16/46/19 13/47/17
f 13/47/18 16/46/20 14/45/18
f 10/32/2 16/38/2 17/48/2
f 17/48/1 16/38/1 10/32/1
f 14/33/1 15/39/1 18/49/1
f 18/49/2 15/39/2 14/33/2
f 17/50/15 19/51/21 15/52/15
f 15/52/16 19/51/22 17/50/16
f 16/46/19 14/45/17 18/53/19
f 18/53/20 14/45/18 16/46/20
f 17/48/2 16/38/2 20/54/2
f 20/54/1 16/38/1 17/48/1
f 18/49/1 15/39/1 19/55/1
f 19/55/2 15/39/2 18/49/2
f 19/51/21 17/50/15 20/56/21
f 20/56/22 17/50/16 19/51/22
f 18/57/19 21/58/23 16/59/19
f 16/59/20 21/58/24 18/57/20
f 20/54/2 16/38/2 21/60/2
f 21/60/1 16/38/1 20/54/1
f 18/49/1 19/55/1 22/61/1
f 22/61/2 19/55/2 18/49/2
f 20/62/21 23/63/25 19/64/21
f 19/64/22 23/63/26 20/62/22
f 21/58/23 18/57/19 22/65/23
f 22/65/24 18/57/20 21/58/24
f 20/54/2 21/60/2 24/66/2
f 24/66/1 21/60/1 20/54/1
f 22/61/1 19/55/1 23/67/1
f 23/67/2 19/55/2 22/61/2
f 23/63/25 20/62/21 25/68/25
f 25/68/26 20/62/22 23/63/26
f 22/69/23 24/70/26 21/71/23
f 21/71/24 24/70/25 22/69/24
f 20/54/2 24/66/2 25/72/2
f 25/72/1 24/66/1 20/54/1
f 22/61/1 23/67/1 26/73/1
f 26/73/2 23/67/2 22/61/2
f 25/74/25 27/75/24 23/76/25
f 23/76/26 27/75/23 25/74/26
f 24/70/26 22/69/23 26/77/26
f 26/77/25 22/69/24 24/70/25
f 25/72/2 24/66/2 28/78/2
f 28/78/1 24/66/1 25/72/1
f 26/73/1 23/67/1 27/79/1
f 27/79/2 23/67/2 26/73/2
f 27/75/24 25/74/25 29/80/24
f 29/80/23 25/74/26 27/75/23
f 26/81/26 28/82/22 24/83/26
f 24/83/25 28/82/21 26/81/25
f 25/72/2 28/78/2 29/84/2
f 29/84/1 28/78/1 25/72/1
f 26/73/1 27/79/1 30/85/1
f 30/85/2 27/79/2 26/73/2
f 29/86/24 31/87/20 27/88/24
f 27/88/23 31/87/19 29/86/23
f 28/82/22 26/81/26 30/89/22
f 30/89/21 26/81/25 28/82/21
f 29/84/2 28/78/2 32/90/2
f 32/90/1 28/78/1 29/84/1
f 30/85/1 27/79/1 31/91/1
f 31/91/2 27/79/2 30/85/2
f 31/87/20 29/86/24 33/92/20
f 33/92/19 29/86/23 31/87/19
f 30/93/22 32/94/16 28/95/22
f 28/95/21 32/94/15 30/93/21
f 29/84/2 32/90/2 33/96/2
f 33/96/1 32/90/1 29/84/1
f 30/85/1 31/91/1 34/97/1
f 34/97/2 31/91/2 30/85/2
f 33/98/20 35/99/18 31/100/20
f 31/100/19 35/99/17 33/98/19
f 32/94/16 30/93/22 34/101/16
f 34/101/15 30/93/21 32/94/15
f 33/96/2 32/90/2 36/102/2
f 36/102/1 32/90/1 33/96/1
f 34/97/1 31/91/1 35/103/1
f 35/103/2 31/91/2 34/97/2
f 35/99/18 33/98/20 36/104/18
f 36/104/17 33/98/19 35/99/17
f 34/105/16 37/106/12 32/107/16
f 32/107/15 37/106/11 34/105/15
f 36/102/2 32/90/2 37/108/2
f 37/108/1 32/90/1 36/102/1
f 34/97/1 35/103/1 38/109/1
f 38/109/2 35/103/2 34/97/2
f 39/110/14 35/111/18 36/112/18
f 36/112/17 35/111/17 39/110/13
f 37/106/12 34/105/16 38/113/12
f 38/113/11 34/105/15 37/106/11
f 36/102/2 37/108/2 40/114/2
f 40/114/1 37/108/1 36/102/1
f 38/109/1 35/103/1 41/115/1
f 41/115/2 35/103/2 38/109/2
f 35/111/18 39/110/14 41/116/14
f 41/116/13 39/110/13 35/111/17
f 36/102/2 40/114/2 39/117/2
f 39/117/1 40/114/1 36/102/1
f 42/118/10 37/119/12 38/120/12
f 38/120/11 37/119/11 42/118/9
f 37/119/12 42/118/10 40/121/10
f 40/121/9 42/118/9 37/119/11
f 38/109/1 41/115/1 42/122/1
f 42/122/2 41/115/2 38/109/2
f 43/123/6 41/124/14 39/125/14
f 39/125/13 41/124/13 43/123/3
f 39/117/2 40/114/2 44/126/2
f 44/126/1 40/114/1 39/117/1
f 45/127/8 40/128/10 42/129/10
f 42/129/9 40/128/9 45/127/7
f 42/122/1 41/115/1 46/130/1
f 46/130/2 41/115/2 42/122/2
f 41/124/14 43/123/6 46/131/6
f 46/131/3 43/123/3 41/124/13
f 39/117/2 44/126/2 43/132/2
f 43/132/1 44/126/1 39/117/1
f 40/128/10 45/127/8 44/133/8
f 44/133/7 45/127/7 40/128/9
f 42/122/1 46/130/1 45/134/1
f 45/134/2 46/130/2 42/122/2
f 47/135/5 46/136/6 43/137/6
f 43/137/3 46/136/3 47/135/4
f 43/132/2 44/126/2 47/138/2
f 47/138/1 44/126/1 43/132/1
f 48/139/5 44/140/8 45/141/8
f 45/141/7 44/140/7 48/139/4
f 45/134/1 46/130/1 48/142/1
f 48/142/2 46/130/2 45/134/2
f 46/136/6 47/135/5 48/143/5
f 48/143/4 47/135/4 46/136/3
f 44/140/8 48/139/5 47/144/5
f 47/144/4 48/139/4 44/140/7
