# SSTK version 0.8.0
# 26
mtllib original-26.mtl
o mesh38/mesh38-geometry#mesh38-geometry
v 0.423625 0.476668 -0.016598
v 0.423625 0.476668 -0.008172
v 0.423163 0.476972 -0.012385
v 0.424981 0.475778 -0.020524
v 0.584233 0.722162 -0.012385
v 0.584695 0.721858 -0.016598
v 0.586051 0.720968 -0.020524
v 0.424981 0.475778 -0.004245
v 0.584695 0.721858 -0.008172
v 0.588207 0.719551 -0.023896
v 0.427137 0.474361 -0.023896
v 0.586051 0.720968 -0.004245
v 0.588207 0.719551 -0.000874
v 0.427137 0.474361 -0.000874
v 0.429948 0.472515 -0.026483
v 0.591018 0.717705 0.001713
v 0.591018 0.717705 -0.026483
v 0.429948 0.472515 0.001713
v 0.433220 0.470365 -0.028109
v 0.433220 0.470365 0.003340
v 0.594290 0.715555 -0.028109
v 0.594290 0.715555 0.003340
v 0.436732 0.468058 -0.028664
v 0.436732 0.468058 0.003894
v 0.597803 0.713248 0.003894
v 0.597803 0.713248 -0.028664
v 0.440244 0.465751 -0.028109
v 0.440244 0.465751 0.003340
v 0.601315 0.710941 0.003340
v 0.601315 0.710941 -0.028109
v 0.443517 0.463601 -0.026483
v 0.443517 0.463601 0.001713
v 0.604587 0.708791 0.001713
v 0.604587 0.708791 -0.026483
v 0.446327 0.461755 -0.023896
v 0.446327 0.461755 -0.000874
v 0.607398 0.706945 -0.023896
v 0.607398 0.706945 -0.000874
v 0.609554 0.705528 -0.020524
v 0.448484 0.460338 -0.004245
v 0.448484 0.460338 -0.020524
v 0.609554 0.705528 -0.004245
v 0.610910 0.704638 -0.016598
v 0.610910 0.704638 -0.008172
v 0.449839 0.459447 -0.008172
v 0.449839 0.459447 -0.016598
v 0.611372 0.704334 -0.012385
v 0.450302 0.459144 -0.012385
vt 0.691222 -0.006197
vt 0.691222 0.006197
vt 0.690408 0
vt 0.693607 -0.011971
vt 0.917271 0.096128
vt 0.485817 0.089879
vt 0.917271 0.089879
vt 0.917271 -0.089879
vt 0.485817 -0.096128
vt 0.917271 -0.096128
vt 0.917271 -0.26964
vt 0.485817 -0.275888
vt 0.917271 -0.275888
vt 0.693607 0.011971
vt 0.485817 0.096128
vt 0.485817 -0.089879
vt 0.485817 -0.26964
vt 0.485817 -0.437278
vt 0.917271 -0.431034
vt 0.485817 -0.431034
vt 0.697402 -0.01693
vt 0.917271 0.275888
vt 0.485817 0.26964
vt 0.917271 0.26964
vt -0.691222 0.006197
vt -0.691222 -0.006197
vt -0.690408 0
vt -0.693607 0.011971
vt -0.693607 -0.011971
vt 0.917271 -0.437278
vt -0.697402 0.01693
vt -0.697402 -0.01693
vt 0.697402 0.01693
vt 0.485817 0.275888
vt 0.485817 -0.563058
vt 0.917271 -0.569298
vt 0.917271 -0.563058
vt -0.702347 0.020734
vt 0.702347 -0.020734
vt 0.917271 0.437278
vt 0.485817 0.431034
vt 0.917271 0.431034
vt 0.485817 0.437278
vt 0.485817 -0.569298
vt 0.485817 0.563058
vt 0.917271 0.569298
vt 0.485817 0.569298
vt -0.702347 -0.020734
vt 0.702347 0.020734
vt 0.917271 0.563058
vt 0.485817 -0.656581
vt 0.917271 -0.662817
vt 0.917271 -0.656581
vt 0.917271 0.662817
vt 0.485817 0.656581
vt 0.917271 0.656581
vt -0.708106 -0.023126
vt 0.708106 -0.023126
vt 0.485817 -0.662817
vt 0.485817 0.662817
vt 0.708106 0.023126
vt -0.708106 0.023126
vt 0.485817 -0.705042
vt 0.917271 -0.711276
vt 0.917271 -0.705042
vt 0.917271 0.711276
vt 0.485817 0.705042
vt 0.917271 0.705042
vt 0.714286 -0.023942
vt -0.714286 0.023942
vt 0.485817 -0.711276
vt 0.485817 0.711276
vt 0.714286 0.023942
vt -0.714286 -0.023942
vt -0.485817 0.705009
vt -0.917271 0.711243
vt -0.917271 0.705009
vt -0.917271 -0.711243
vt -0.485817 -0.705009
vt -0.917271 -0.705009
vt 0.720466 -0.023126
vt -0.720466 0.023126
vt -0.485817 0.711243
vt -0.485817 -0.711243
vt 0.720466 0.023126
vt -0.720466 -0.023126
vt -0.485817 0.656491
vt -0.917271 0.662727
vt -0.917271 0.656491
vt -0.917271 -0.662727
vt -0.485817 -0.656491
vt -0.917271 -0.656491
vt 0.726225 -0.020734
vt -0.726225 0.020734
vt -0.485817 0.662727
vt -0.485817 -0.662727
vt 0.726225 0.020734
vt -0.726225 -0.020734
vt -0.485817 0.562935
vt -0.917271 0.569174
vt -0.917271 0.562935
vt -0.917271 -0.569174
vt -0.485817 -0.562935
vt -0.917271 -0.562935
vt 0.73117 -0.01693
vt -0.73117 -0.01693
vt -0.485817 0.569174
vt -0.485817 -0.569174
vt 0.73117 0.01693
vt -0.73117 0.01693
vt -0.485817 0.437155
vt -0.917271 0.430911
vt -0.485817 0.430911
vt -0.917271 -0.437155
vt -0.485817 -0.430911
vt -0.917271 -0.430911
vt 0.734965 -0.011971
vt -0.734965 0.011971
vt -0.917271 0.437155
vt -0.734965 -0.011971
vt -0.485817 -0.437155
vt 0.734965 0.011971
vt -0.485817 0.275798
vt -0.917271 0.26955
vt -0.485817 0.26955
vt -0.73735 0.006197
vt -0.917271 -0.275798
vt -0.485817 -0.26955
vt -0.917271 -0.26955
vt 0.73735 -0.006197
vt -0.917271 0.275798
vt -0.73735 -0.006197
vt -0.485817 -0.275798
vt 0.73735 0.006197
vt -0.485817 0.096096
vt -0.917271 0.089846
vt -0.485817 0.089846
vt -0.738164 0
vt -0.917271 -0.096096
vt -0.485817 -0.089846
vt -0.917271 -0.089846
vt 0.738164 0
vt -0.917271 0.096096
vt -0.485817 -0.096096
vn -0.5490467596622456 -0.8357916341435754 0
vn 0.5490467596622456 0.8357916341435754 0
vn -0.8074525889183208 0.530430729952745 0.25819286855159124
vn -0.8357916341435754 0.5490467596622456 0
vn 0.8357916341435754 -0.5490467596622456 0
vn 0.8074525889183208 -0.530430729952745 -0.25819286855159124
vn -0.8074525889183208 0.530430729952745 -0.25819286855159124
vn 0.8074525889183208 -0.530430729952745 0.25819286855159124
vn -0.7242856589578648 0.4757967759630522 -0.4990267650248195
vn 0.7242856589578648 -0.4757967759630522 0.4990267650248195
vn -0.591759989950436 0.3887379933982571 -0.7061889880071456
vn 0.591759989950436 -0.3887379933982571 0.7061889880071456
vn -0.7242856589578648 0.4757967759630522 0.4990267650248195
vn 0.7242856589578648 -0.4757967759630522 -0.4990267650248195
vn -0.41870892998894177 0.27505795400838856 -0.8654628552885645
vn 0.41870892998894177 -0.27505795400838856 0.8654628552885645
vn -0.591759989950436 0.3887379933982571 0.7061889880071456
vn 0.591759989950436 -0.3887379933982571 -0.7061889880071456
vn -0.41870892998894177 0.27505795400838856 0.8654628552885645
vn 0.41870892998894177 -0.27505795400838856 -0.8654628552885645
vn -0.21684290958552452 0.14244794060513272 -0.9657575973192448
vn 0.21684290958552452 -0.14244794060513272 0.9657575973192448
vn -0.21684290958552452 0.14244794060513272 0.9657575973192448
vn 0.21684290958552452 -0.14244794060513272 -0.9657575973192448
vn 0 0 -1
vn 0 0 1
usemtl material_0_0
f 1/1/1 2/2/1 3/3/1
f 2/2/1 1/1/1 4/4/1
f 3/3/2 2/2/2 1/1/2
f 4/4/2 1/1/2 2/2/2
f 2/5/3 5/6/4 3/7/4
f 3/7/5 5/6/5 2/5/6
f 3/8/4 6/9/7 1/10/7
f 1/10/8 6/9/8 3/8/5
f 1/11/7 7/12/9 4/13/9
f 4/13/10 7/12/10 1/11/8
f 2/2/1 4/4/1 8/14/1
f 8/14/2 4/4/2 2/2/2
f 5/6/4 2/5/3 9/15/3
f 9/15/6 2/5/6 5/6/5
f 6/9/7 3/8/4 5/16/4
f 5/16/5 3/8/5 6/9/8
f 7/12/9 1/11/7 6/17/7
f 6/17/8 1/11/8 7/12/10
f 10/18/11 4/19/9 7/20/9
f 7/20/10 4/19/10 10/18/12
f 8/14/1 4/4/1 11/21/1
f 11/21/2 4/4/2 8/14/2
f 8/22/13 9/23/3 2/24/3
f 2/24/6 9/23/6 8/22/14
f 9/25/2 6/26/2 5/27/2
f 5/27/1 6/26/1 9/25/1
f 6/26/2 12/28/2 7/29/2
f 7/29/1 12/28/1 6/26/1
f 4/19/9 10/18/11 11/30/11
f 11/30/12 10/18/12 4/19/10
f 7/29/2 13/31/2 10/32/2
f 10/32/1 13/31/1 7/29/1
f 8/14/1 11/21/1 14/33/1
f 14/33/2 11/21/2 8/14/2
f 9/23/3 8/22/13 12/34/13
f 12/34/14 8/22/14 9/23/6
f 6/26/2 9/25/2 12/28/2
f 12/28/1 9/25/1 6/26/1
f 7/29/2 12/28/2 13/31/2
f 13/31/1 12/28/1 7/29/1
f 10/35/11 15/36/15 11/37/11
f 11/37/12 15/36/16 10/35/12
f 10/32/2 13/31/2 16/38/2
f 16/38/1 13/31/1 10/32/1
f 14/33/1 11/21/1 15/39/1
f 15/39/2 11/21/2 14/33/2
f 14/40/17 12/41/13 8/42/13
f 8/42/14 12/41/14 14/40/18
f 12/41/13 14/40/17 13/43/17
f 13/43/18 14/40/18 12/41/14
f 15/36/15 10/35/11 17/44/15
f 17/44/16 10/35/12 15/36/16
f 13/45/17 18/46/19 16/47/19
f 16/47/20 18/46/20 13/45/18
f 10/32/2 16/38/2 17/48/2
f 17/48/1 16/38/1 10/32/1
f 14/33/1 15/39/1 18/49/1
f 18/49/2 15/39/2 14/33/2
f 18/46/19 13/45/17 14/50/17
f 14/50/18 13/45/18 18/46/20
f 17/51/15 19/52/21 15/53/15
f 15/53/16 19/52/22 17/51/16
f 20/54/23 16/55/19 18/56/19
f 18/56/20 16/55/20 20/54/24
f 17/48/2 16/38/2 21/57/2
f 21/57/1 16/38/1 17/48/1
f 18/49/1 15/39/1 19/58/1
f 19/58/2 15/39/2 18/49/2
f 19/52/21 17/51/15 21/59/21
f 21/59/22 17/51/16 19/52/22
f 16/55/19 20/54/23 22/60/23
f 22/60/24 20/54/24 16/55/20
f 18/49/1 19/58/1 20/61/1
f 20/61/2 19/58/2 18/49/2
f 21/57/2 16/38/2 22/62/2
f 22/62/1 16/38/1 21/57/1
f 21/63/21 23/64/25 19/65/21
f 19/65/22 23/64/26 21/63/22
f 24/66/26 22/67/23 20/68/23
f 20/68/24 22/67/24 24/66/25
f 20/61/1 19/58/1 23/69/1
f 23/69/2 19/58/2 20/61/2
f 21/57/2 22/62/2 25/70/2
f 25/70/1 22/62/1 21/57/1
f 23/64/25 21/63/21 26/71/25
f 26/71/26 21/63/22 23/64/26
f 22/67/23 24/66/26 25/72/26
f 25/72/25 24/66/25 22/67/24
f 20/61/1 23/69/1 24/73/1
f 24/73/2 23/69/2 20/61/2
f 21/57/2 25/70/2 26/74/2
f 26/74/1 25/70/1 21/57/1
f 26/75/25 27/76/24 23/77/25
f 23/77/26 27/76/23 26/75/26
f 28/78/22 25/79/26 24/80/26
f 24/80/25 25/79/25 28/78/21
f 24/73/1 23/69/1 27/81/1
f 27/81/2 23/69/2 24/73/2
f 26/74/2 25/70/2 29/82/2
f 29/82/1 25/70/1 26/74/1
f 27/76/24 26/75/25 30/83/24
f 30/83/23 26/75/26 27/76/23
f 25/79/26 28/78/22 29/84/22
f 29/84/21 28/78/21 25/79/25
f 24/73/1 27/81/1 28/85/1
f 28/85/2 27/81/2 24/73/2
f 26/74/2 29/82/2 30/86/2
f 30/86/1 29/82/1 26/74/1
f 30/87/24 31/88/20 27/89/24
f 27/89/23 31/88/19 30/87/23
f 32/90/16 29/91/22 28/92/22
f 28/92/21 29/91/21 32/90/15
f 28/85/1 27/81/1 31/93/1
f 31/93/2 27/81/2 28/85/2
f 30/86/2 29/82/2 33/94/2
f 33/94/1 29/82/1 30/86/1
f 31/88/20 30/87/24 34/95/20
f 34/95/19 30/87/23 31/88/19
f 29/91/22 32/90/16 33/96/16
f 33/96/15 32/90/15 29/91/21
f 28/85/1 31/93/1 32/97/1
f 32/97/2 31/93/2 28/85/2
f 30/86/2 33/94/2 34/98/2
f 34/98/1 33/94/1 30/86/1
f 34/99/20 35/100/18 31/101/20
f 31/101/19 35/100/17 34/99/19
f 36/102/12 33/103/16 32/104/16
f 32/104/15 33/103/15 36/102/11
f 32/97/1 31/93/1 35/105/1
f 35/105/2 31/93/2 32/97/2
f 34/98/2 33/94/2 37/106/2
f 37/106/1 33/94/1 34/98/1
f 35/100/18 34/99/20 37/107/18
f 37/107/17 34/99/19 35/100/17
f 33/103/16 36/102/12 38/108/12
f 38/108/11 36/102/11 33/103/15
f 32/97/1 35/105/1 36/109/1
f 36/109/2 35/105/2 32/97/2
f 37/106/2 33/94/2 38/110/2
f 38/110/1 33/94/1 37/106/1
f 39/111/14 35/112/18 37/113/18
f 37/113/17 35/112/17 39/111/13
f 40/114/10 38/115/12 36/116/12
f 36/116/11 38/115/11 40/114/9
f 36/109/1 35/105/1 41/117/1
f 41/117/2 35/105/2 36/109/2
f 37/106/2 38/110/2 42/118/2
f 42/118/1 38/110/1 37/106/1
f 35/112/18 39/111/14 41/119/14
f 41/119/13 39/111/13 35/112/17
f 37/106/2 42/118/2 39/120/2
f 39/120/1 42/118/1 37/106/1
f 38/115/12 40/114/10 42/121/10
f 42/121/9 40/114/9 38/115/11
f 36/109/1 41/117/1 40/122/1
f 40/122/2 41/117/2 36/109/2
f 43/123/6 41/124/14 39/125/14
f 39/125/13 41/124/13 43/123/3
f 39/120/2 42/118/2 44/126/2
f 44/126/1 42/118/1 39/120/1
f 45/127/8 42/128/10 40/129/10
f 40/129/9 42/128/9 45/127/7
f 40/122/1 41/117/1 46/130/1
f 46/130/2 41/117/2 40/122/2
f 41/124/14 43/123/6 46/131/6
f 46/131/3 43/123/3 41/124/13
f 39/120/2 44/126/2 43/132/2
f 43/132/1 44/126/1 39/120/1
f 42/128/10 45/127/8 44/133/8
f 44/133/7 45/127/7 42/128/9
f 40/122/1 46/130/1 45/134/1
f 45/134/2 46/130/2 40/122/2
f 47/135/5 46/136/6 43/137/6
f 43/137/3 46/136/3 47/135/4
f 43/132/2 44/126/2 47/138/2
f 47/138/1 44/126/1 43/132/1
f 48/139/5 44/140/8 45/141/8
f 45/141/7 44/140/7 48/139/4
f 45/134/1 46/130/1 48/142/1
f 48/142/2 46/130/2 45/134/2
f 46/136/6 47/135/5 48/143/5
f 48/143/4 47/135/4 46/136/3
f 44/140/8 48/139/5 47/144/5
f 47/144/4 48/139/4 44/140/7
