# SSTK version 0.8.0
# 40
mtllib original-40.mtl
o mesh52/mesh52-geometry#mesh52-geometry
v -0.522964 -0.357912 -0.007819
v -0.522964 -0.357912 -0.016951
v -0.523287 -0.357407 -0.012385
v -0.522017 -0.359390 -0.003564
v -0.770516 -0.515822 -0.012385
v -0.770192 -0.516326 -0.007819
v -0.769245 -0.517805 -0.003564
v -0.522017 -0.359390 -0.021205
v -0.770192 -0.516326 -0.016951
v -0.767738 -0.520157 0.000089
v -0.520510 -0.361742 0.000089
v -0.769245 -0.517805 -0.021205
v -0.767738 -0.520157 -0.024859
v -0.520510 -0.361742 -0.024859
v -0.765774 -0.523222 0.002893
v -0.765774 -0.523222 -0.027662
v -0.518546 -0.364807 0.002893
v -0.518546 -0.364807 -0.027662
v -0.763487 -0.526791 0.004655
v -0.516258 -0.368377 0.004655
v -0.763487 -0.526791 -0.029425
v -0.516258 -0.368377 -0.029425
v -0.761032 -0.530622 0.005256
v -0.761032 -0.530622 -0.030026
v -0.513804 -0.372208 0.005256
v -0.513804 -0.372208 -0.030026
v -0.758578 -0.534453 0.004655
v -0.758578 -0.534453 -0.029425
v -0.511350 -0.376038 0.004655
v -0.511350 -0.376038 -0.029425
v -0.756290 -0.538022 0.002893
v -0.756290 -0.538022 -0.027662
v -0.509062 -0.379608 0.002893
v -0.509062 -0.379608 -0.027662
v -0.754326 -0.541087 0.000089
v -0.507098 -0.382673 0.000089
v -0.754326 -0.541087 -0.024859
v -0.507098 -0.382673 -0.024859
v -0.752819 -0.543439 -0.003564
v -0.752819 -0.543439 -0.021205
v -0.505591 -0.385025 -0.003564
v -0.505591 -0.385025 -0.021205
v -0.751872 -0.544918 -0.007819
v -0.751872 -0.544918 -0.016951
v -0.504644 -0.386503 -0.016951
v -0.504644 -0.386503 -0.007819
v -0.751549 -0.545422 -0.012385
v -0.504321 -0.387008 -0.012385
vt -1.287404 0.006715
vt -1.287404 -0.006715
vt -1.286523 0
vt -1.289987 0.012972
vt 2.390365 -0.174107
vt 2.822208 -0.167334
vt 2.390365 -0.167334
vt 2.390365 0.167334
vt 2.822208 0.174107
vt 2.390365 0.174107
vt 2.390365 0.497369
vt 2.822208 0.504138
vt 2.390365 0.504138
vt -1.289987 -0.012972
vt 2.822208 -0.174107
vt 2.822208 0.167334
vt 2.822208 0.497369
vt 2.822208 0.800591
vt 2.390365 0.793827
vt 2.822208 0.793827
vt -1.294095 0.018346
vt 2.390365 -0.504138
vt 2.822208 -0.497369
vt 2.390365 -0.497369
vt 1.287404 -0.006715
vt 1.287404 0.006715
vt 1.286523 0
vt 1.289987 -0.012972
vt 1.289987 0.012972
vt 2.390365 0.800591
vt 1.294095 -0.018346
vt 1.294095 0.018346
vt -1.294095 -0.018346
vt 2.822208 -0.504138
vt 2.822208 1.043259
vt 2.390365 1.036501
vt 2.822208 1.036501
vt 1.299449 -0.022469
vt -1.299449 0.022469
vt 2.390365 -0.800591
vt 2.822208 -0.793827
vt 2.390365 -0.793827
vt 2.822208 -0.800591
vt 2.390365 1.043259
vt 1.299449 0.022469
vt 2.390365 -1.036501
vt 2.822208 -1.043259
vt 2.822208 -1.036501
vt -1.299449 -0.022469
vt 2.822208 1.215279
vt 2.390365 1.208527
vt 2.822208 1.208527
vt 1.305684 0.025061
vt 2.390365 -1.043259
vt -1.305684 0.025061
vt 2.390365 1.215279
vt 1.305684 -0.025061
vt 2.390365 -1.208527
vt 2.822208 -1.215279
vt 2.822208 -1.208527
vt -1.305684 -0.025061
vt 2.822208 1.304467
vt 2.390365 1.297717
vt 2.822208 1.297717
vt 1.312375 -0.025945
vt 2.390365 -1.215279
vt -1.312375 0.025945
vt 2.390365 1.304467
vt 1.312375 0.025945
vt 2.390365 -1.297717
vt 2.822208 -1.304467
vt 2.822208 -1.297717
vt -1.312375 -0.025945
vt -2.822208 -1.304419
vt -2.390365 -1.29767
vt -2.822208 -1.29767
vt 1.319066 -0.025061
vt 2.390365 -1.304467
vt -1.319066 0.025061
vt -2.390365 -1.304419
vt 1.319066 0.025061
vt -2.390365 1.29767
vt -2.822208 1.304419
vt -2.822208 1.29767
vt -1.319066 -0.025061
vt -2.822208 -1.215149
vt -2.390365 -1.208397
vt -2.822208 -1.208397
vt 1.325301 -0.022469
vt -2.390365 1.304419
vt -1.325301 0.022469
vt -2.390365 -1.215149
vt 1.325301 0.022469
vt -2.390365 1.208397
vt -2.822208 1.215149
vt -2.822208 1.208397
vt -1.325301 -0.022469
vt -2.822208 -1.043081
vt -2.390365 -1.036323
vt -2.822208 -1.036323
vt 1.330656 0.018346
vt -2.390365 1.215149
vt -1.330656 0.018346
vt -2.390365 -1.043081
vt 1.330656 -0.018346
vt -2.390365 1.036323
vt -2.822208 1.043081
vt -2.822208 1.036323
vt -1.330656 -0.018346
vt -2.822208 -0.800413
vt -2.390365 -0.793649
vt -2.822208 -0.793649
vt 1.334764 -0.012972
vt -2.390365 1.043081
vt -1.334764 0.012972
vt -2.390365 -0.800413
vt 1.334764 0.012972
vt -2.822208 0.793649
vt -2.390365 0.800413
vt -2.822208 0.800413
vt -2.390365 0.793649
vt -1.334764 -0.012972
vt -2.822208 -0.504008
vt -2.390365 -0.497239
vt -2.822208 -0.497239
vt 1.337346 -0.006715
vt -2.390365 0.504008
vt -2.822208 0.497239
vt -2.390365 0.497239
vt -1.337346 0.006715
vt -2.390365 -0.504008
vt 1.337346 0.006715
vt -2.822208 0.504008
vt -1.337346 -0.006715
vt -2.822208 -0.174059
vt -2.390365 -0.167286
vt -2.822208 -0.167286
vt 1.338227 0
vt -2.390365 0.174059
vt -2.822208 0.167286
vt -2.390365 0.167286
vt -1.338227 0
vt -2.390365 -0.174059
vt -2.822208 0.174059
vn 0.8419798814993389 0.5395089240692497 0
vn -0.8419798814993389 -0.5395089240692497 0
vn -0.5212461060068738 0.8134781654386983 -0.25798405246673806
vn -0.5395089240692497 0.8419798814993389 0
vn 0.5395089240692497 -0.8419798814993389 0
vn 0.5212461060068738 -0.8134781654386983 0.25798405246673806
vn -0.5212461060068738 0.8134781654386983 0.25798405246673806
vn 0.5212461060068738 -0.8134781654386983 -0.25798405246673806
vn -0.46763219349197893 0.7298063019716512 0.49870120634739157
vn 0.46763219349197893 -0.7298063019716512 -0.49870120634739157
vn -0.3821509363791352 0.5963999007107563 0.7058808824842545
vn 0.3821509363791352 -0.5963999007107563 -0.7058808824842545
vn -0.46763219349197893 0.7298063019716512 -0.49870120634739157
vn 0.46763219349197893 -0.7298063019716512 0.49870120634739157
vn -0.27045593967913667 0.4220839058609487 0.8652738070145433
vn 0.27045593967913667 -0.4220839058609487 -0.8652738070145433
vn -0.3821509363791352 0.5963999007107563 -0.7058808824842545
vn 0.3821509363791352 -0.5963999007107563 0.7058808824842545
vn -0.27045593967913667 0.4220839058609487 -0.8652738070145433
vn 0.27045593967913667 -0.4220839058609487 0.8652738070145433
vn -0.14008699181569792 0.21862598722721432 0.9657009435808556
vn 0.14008699181569792 -0.21862598722721432 -0.9657009435808556
vn -0.14008699181569792 0.21862598722721432 -0.9657009435808556
vn 0.14008699181569792 -0.21862598722721432 0.9657009435808556
vn 0 0 1
vn 0 0 -1
usemtl material_0_0
f 1/1/1 2/2/1 3/3/1
f 2/2/1 1/1/1 4/4/1
f 3/3/2 2/2/2 1/1/2
f 4/4/2 1/1/2 2/2/2
f 2/5/3 5/6/4 3/7/4
f 3/7/5 5/6/5 2/5/6
f 3/8/4 6/9/7 1/10/7
f 1/10/8 6/9/8 3/8/5
f 1/11/7 7/12/9 4/13/9
f 4/13/10 7/12/10 1/11/8
f 2/2/1 4/4/1 8/14/1
f 8/14/2 4/4/2 2/2/2
f 5/6/4 2/5/3 9/15/3
f 9/15/6 2/5/6 5/6/5
f 6/9/7 3/8/4 5/16/4
f 5/16/5 3/8/5 6/9/8
f 7/12/9 1/11/7 6/17/7
f 6/17/8 1/11/8 7/12/10
f 10/18/11 4/19/9 7/20/9
f 7/20/10 4/19/10 10/18/12
f 8/14/1 4/4/1 11/21/1
f 11/21/2 4/4/2 8/14/2
f 8/22/13 9/23/3 2/24/3
f 2/24/6 9/23/6 8/22/14
f 9/25/2 6/26/2 5/27/2
f 5/27/1 6/26/1 9/25/1
f 6/26/2 12/28/2 7/29/2
f 7/29/1 12/28/1 6/26/1
f 4/19/9 10/18/11 11/30/11
f 11/30/12 10/18/12 4/19/10
f 7/29/2 13/31/2 10/32/2
f 10/32/1 13/31/1 7/29/1
f 8/14/1 11/21/1 14/33/1
f 14/33/2 11/21/2 8/14/2
f 9/23/3 8/22/13 12/34/13
f 12/34/14 8/22/14 9/23/6
f 6/26/2 9/25/2 12/28/2
f 12/28/1 9/25/1 6/26/1
f 7/29/2 12/28/2 13/31/2
f 13/31/1 12/28/1 7/29/1
f 15/35/15 11/36/11 10/37/11
f 10/37/12 11/36/12 15/35/16
f 10/32/2 13/31/2 16/38/2
f 16/38/1 13/31/1 10/32/1
f 14/33/1 11/21/1 17/39/1
f 17/39/2 11/21/2 14/33/2
f 14/40/17 12/41/13 8/42/13
f 8/42/14 12/41/14 14/40/18
f 12/41/13 14/40/17 13/43/17
f 13/43/18 14/40/18 12/41/14
f 11/36/11 15/35/15 17/44/15
f 17/44/16 15/35/16 11/36/12
f 10/32/2 16/38/2 15/45/2
f 15/45/1 16/38/1 10/32/1
f 14/46/17 16/47/19 13/48/17
f 13/48/18 16/47/20 14/46/18
f 14/33/1 17/39/1 18/49/1
f 18/49/2 17/39/2 14/33/2
f 19/50/21 17/51/15 15/52/15
f 15/52/16 17/51/16 19/50/22
f 15/45/2 16/38/2 19/53/2
f 19/53/1 16/38/1 15/45/1
f 16/47/19 14/46/17 18/54/19
f 18/54/20 14/46/18 16/47/20
f 18/49/1 17/39/1 20/55/1
f 20/55/2 17/39/2 18/49/2
f 17/51/15 19/50/21 20/56/21
f 20/56/22 19/50/22 17/51/16
f 19/53/2 16/38/2 21/57/2
f 21/57/1 16/38/1 19/53/1
f 18/58/19 21/59/23 16/60/19
f 16/60/20 21/59/24 18/58/20
f 18/49/1 20/55/1 22/61/1
f 22/61/2 20/55/2 18/49/2
f 23/62/25 20/63/21 19/64/21
f 19/64/22 20/63/22 23/62/26
f 19/53/2 21/57/2 24/65/2
f 24/65/1 21/57/1 19/53/1
f 21/59/23 18/58/19 22/66/23
f 22/66/24 18/58/20 21/59/24
f 22/61/1 20/55/1 25/67/1
f 25/67/2 20/55/2 22/61/2
f 20/63/21 23/62/25 25/68/25
f 25/68/26 23/62/26 20/63/22
f 19/53/2 24/65/2 23/69/2
f 23/69/1 24/65/1 19/53/1
f 22/70/23 24/71/26 21/72/23
f 21/72/24 24/71/25 22/70/24
f 22/61/1 25/67/1 26/73/1
f 26/73/2 25/67/2 22/61/2
f 27/74/24 25/75/25 23/76/25
f 23/76/26 25/75/26 27/74/23
f 23/69/2 24/65/2 28/77/2
f 28/77/1 24/65/1 23/69/1
f 24/71/26 22/70/23 26/78/26
f 26/78/25 22/70/24 24/71/25
f 26/73/1 25/67/1 29/79/1
f 29/79/2 25/67/2 26/73/2
f 25/75/25 27/74/24 29/80/24
f 29/80/23 27/74/23 25/75/26
f 23/69/2 28/77/2 27/81/2
f 27/81/1 28/77/1 23/69/1
f 26/82/26 28/83/22 24/84/26
f 24/84/25 28/83/21 26/82/25
f 26/73/1 29/79/1 30/85/1
f 30/85/2 29/79/2 26/73/2
f 31/86/20 29/87/24 27/88/24
f 27/88/23 29/87/23 31/86/19
f 27/81/2 28/77/2 32/89/2
f 32/89/1 28/77/1 27/81/1
f 28/83/22 26/82/26 30/90/22
f 30/90/21 26/82/25 28/83/21
f 30/85/1 29/79/1 33/91/1
f 33/91/2 29/79/2 30/85/2
f 29/87/24 31/86/20 33/92/20
f 33/92/19 31/86/19 29/87/23
f 27/81/2 32/89/2 31/93/2
f 31/93/1 32/89/1 27/81/1
f 30/94/22 32/95/16 28/96/22
f 28/96/21 32/95/15 30/94/21
f 30/85/1 33/91/1 34/97/1
f 34/97/2 33/91/2 30/85/2
f 35/98/18 33/99/20 31/100/20
f 31/100/19 33/99/19 35/98/17
f 31/93/2 32/89/2 35/101/2
f 35/101/1 32/89/1 31/93/1
f 32/95/16 30/94/22 34/102/16
f 34/102/15 30/94/21 32/95/15
f 34/97/1 33/91/1 36/103/1
f 36/103/2 33/91/2 34/97/2
f 33/99/20 35/98/18 36/104/18
f 36/104/17 35/98/17 33/99/19
f 35/101/2 32/89/2 37/105/2
f 37/105/1 32/89/1 35/101/1
f 34/106/16 37/107/12 32/108/16
f 32/108/15 37/107/11 34/106/15
f 34/97/1 36/103/1 38/109/1
f 38/109/2 36/103/2 34/97/2
f 39/110/14 36/111/18 35/112/18
f 35/112/17 36/111/17 39/110/13
f 35/101/2 37/105/2 40/113/2
f 40/113/1 37/105/1 35/101/1
f 37/107/12 34/106/16 38/114/12
f 38/114/11 34/106/15 37/107/11
f 38/109/1 36/103/1 41/115/1
f 41/115/2 36/103/2 38/109/2
f 36/111/18 39/110/14 41/116/14
f 41/116/13 39/110/13 36/111/17
f 35/101/2 40/113/2 39/117/2
f 39/117/1 40/113/1 35/101/1
f 37/118/12 42/119/10 40/120/10
f 40/120/9 42/119/9 37/118/11
f 42/119/10 37/118/12 38/121/12
f 38/121/11 37/118/11 42/119/9
f 38/109/1 41/115/1 42/122/1
f 42/122/2 41/115/2 38/109/2
f 43/123/6 41/124/14 39/125/14
f 39/125/13 41/124/13 43/123/3
f 39/117/2 40/113/2 44/126/2
f 44/126/1 40/113/1 39/117/1
f 45/127/8 40/128/10 42/129/10
f 42/129/9 40/128/9 45/127/7
f 42/122/1 41/115/1 46/130/1
f 46/130/2 41/115/2 42/122/2
f 41/124/14 43/123/6 46/131/6
f 46/131/3 43/123/3 41/124/13
f 39/117/2 44/126/2 43/132/2
f 43/132/1 44/126/1 39/117/1
f 40/128/10 45/127/8 44/133/8
f 44/133/7 45/127/7 40/128/9
f 42/122/1 46/130/1 45/134/1
f 45/134/2 46/130/2 42/122/2
f 47/135/5 46/136/6 43/137/6
f 43/137/3 46/136/3 47/135/4
f 43/132/2 44/126/2 47/138/2
f 47/138/1 44/126/1 43/132/1
f 48/139/5 44/140/8 45/141/8
f 45/141/7 44/140/7 48/139/4
f 45/134/1 46/130/1 48/142/1
f 48/142/2 46/130/2 45/134/2
f 46/136/6 47/135/5 48/143/5
f 48/143/4 47/135/4 46/136/3
f 44/140/8 48/139/5 47/144/5
f 47/144/4 48/139/4 44/140/7
